<svg width="1417" height="688" viewBox="0 0 1417 688" fill="none" xmlns="http://www.w3.org/2000/svg">
<path opacity="0.4" d="M0.938853 684.278L6.04695 687.656L9.42443 682.548L4.31633 679.17L0.938853 684.278ZM1416.8 4.9614L1412.37 0.732554L1408.14 5.16164L1412.57 9.39049L1416.8 4.9614ZM5.33152 684.148C235.608 637.184 373.166 572.795 466.36 502.206C559.547 431.623 608.333 354.864 661.052 283.363C713.766 211.868 770.453 145.555 879.491 95.5698C988.562 45.5693 1150.08 11.8803 1412.49 5.81132L1412.46 4.31172C1149.96 10.3827 988.205 44.0829 878.866 94.2062C769.493 144.345 712.623 210.89 659.844 282.473C607.07 354.05 558.427 430.59 465.455 501.01C372.491 571.424 235.162 635.744 5.03177 682.678L5.33152 684.148Z" fill="white"/>
</svg>
