<svg width="157" height="146" viewBox="0 0 157 146" fill="none" xmlns="http://www.w3.org/2000/svg">
<path d="M147.725 82.5135L148.033 82.5683C148.462 82.645 148.789 82.8423 149.012 83.1604C149.234 83.4834 149.296 83.8782 149.198 84.3449C149.099 84.8166 148.881 85.164 148.544 85.3871C148.207 85.6103 147.824 85.6835 147.394 85.6069L147.087 85.5521C146.663 85.4763 146.339 85.2769 146.117 84.9539C145.898 84.6368 145.839 84.2424 145.938 83.7707C146.036 83.304 146.251 82.9586 146.583 82.7346C146.92 82.5114 147.301 82.4377 147.725 82.5135Z" fill="#FF3874"/>
<path d="M140.608 112.346L131.252 106.409L132.131 105.232L141.486 111.169L140.608 112.346Z" fill="#FF3874"/>
<path d="M125.257 127.5L117.597 119.494L118.742 118.563L128.979 121.218L123.07 115.044L124.21 114.117L131.87 122.123L130.731 123.049L120.461 120.392L126.385 126.583L125.257 127.5Z" fill="#FF3874"/>
<path d="M110.89 135.541L105.563 125.825L106.874 125.215L112.201 134.93L110.89 135.541ZM107.662 137.045L107.084 135.991L114.844 132.375L115.422 133.429L107.662 137.045Z" fill="#FF3874"/>
<path d="M89.9899 131.429L89.7169 130.266L95.4708 129.118L95.7438 130.281L89.9899 131.429ZM97.7121 139.963L95.1797 129.176L96.62 128.889L99.1525 139.676L97.7121 139.963ZM91.9217 136.263L91.6486 135.1L96.6413 134.104L96.9144 135.267L91.9217 136.263ZM92.3239 141.038L92.0491 139.867L97.7284 138.734L98.0032 139.905L92.3239 141.038Z" fill="#FF3874"/>
<path d="M77.7564 142.181L74.0925 142.007C73.2614 141.967 72.5667 141.807 72.0082 141.527C71.4447 141.246 71.0273 140.85 70.7561 140.34C70.4795 139.834 70.3613 139.221 70.4016 138.502C70.4299 137.995 70.5597 137.537 70.791 137.126C71.017 136.721 71.3307 136.38 71.7323 136.105C72.1285 135.834 72.5966 135.64 73.1367 135.524L73.5561 135.384L76.9995 135.547L76.948 136.741L74.3483 136.617C73.8213 136.592 73.3778 136.663 73.018 136.828C72.6578 136.999 72.3803 137.237 72.1853 137.543C71.9904 137.849 71.8823 138.191 71.861 138.571C71.8372 138.997 71.9 139.373 72.0494 139.7C72.1988 140.027 72.4486 140.285 72.7987 140.475C73.1435 140.669 73.5972 140.779 74.1597 140.806L76.3565 140.911L76.9082 131.048L78.3753 131.118L77.7564 142.181ZM71.9065 130.811L74.3169 135.953L72.7886 135.888L70.3355 130.827L70.3406 130.736L71.9065 130.811Z" fill="#FF3874"/>
<path d="M59.043 139.725L62.1969 129.103L63.621 129.462L60.4671 140.084L59.043 139.725Z" fill="#FF3874"/>
<path d="M41.0755 126.99L41.4461 126.396C41.8866 125.69 42.3733 125.106 42.9063 124.644C43.4392 124.182 44.0004 123.846 44.59 123.638C45.1795 123.429 45.7808 123.35 46.3938 123.4C47.0023 123.448 47.6046 123.629 48.2007 123.946C48.7789 124.252 49.2456 124.637 49.6008 125.1C49.9514 125.561 50.1816 126.081 50.2913 126.661C50.3965 127.238 50.3709 127.857 50.2144 128.519C50.058 129.181 49.7596 129.865 49.3191 130.57L48.9484 131.164C48.508 131.87 48.0204 132.451 47.4856 132.906C46.9437 133.364 46.3758 133.695 45.7818 133.902C45.1851 134.112 44.5824 134.194 43.9739 134.146C43.3609 134.096 42.7653 133.918 42.1871 133.611C41.591 133.295 41.1176 132.906 40.7669 132.445C40.4118 131.982 40.1852 131.461 40.0872 130.882C39.982 130.305 40.0121 129.688 40.1775 129.031C40.3357 128.376 40.635 127.696 41.0755 126.99ZM42.7303 127.077L42.3516 127.684C42.0024 128.243 41.7541 128.77 41.6065 129.265C41.4545 129.757 41.4014 130.21 41.4474 130.624C41.4933 131.038 41.6351 131.408 41.8728 131.734C42.106 132.059 42.431 132.331 42.8479 132.552C43.2513 132.766 43.6636 132.884 44.0848 132.907C44.5015 132.928 44.9177 132.853 45.3334 132.684C45.7446 132.513 46.1473 132.245 46.5414 131.881C46.9355 131.518 47.3071 131.056 47.6562 130.496L48.0349 129.889C48.3868 129.326 48.6356 128.793 48.7814 128.292C48.9244 127.795 48.9721 127.336 48.9244 126.916C48.8694 126.497 48.7276 126.127 48.4989 125.805C48.2657 125.481 47.9474 125.212 47.544 124.998C47.1227 124.775 46.7014 124.651 46.2802 124.629C45.859 124.606 45.4451 124.681 45.0383 124.855C44.6244 125.031 44.2249 125.303 43.8398 125.672C43.452 126.044 43.0821 126.513 42.7303 127.077Z" fill="#FF3874"/>
<path d="M27.0334 123.299L24.364 120.784C23.7585 120.213 23.3414 119.646 23.1126 119.083C22.8801 118.517 22.8395 117.964 22.9909 117.426C23.1349 116.888 23.4744 116.377 24.0094 115.895C24.3862 115.555 24.8067 115.316 25.2708 115.176C25.7274 115.037 26.2053 115.001 26.7045 115.068C27.1961 115.136 27.6886 115.305 28.1817 115.575L28.5995 115.75L31.1083 118.114L30.232 118.924L28.338 117.139C27.954 116.778 27.5668 116.538 27.1764 116.42C26.7822 116.306 26.4037 116.293 26.0409 116.382C25.6781 116.47 25.3554 116.642 25.0728 116.897C24.7563 117.182 24.5402 117.49 24.4247 117.818C24.3092 118.147 24.3184 118.493 24.4524 118.856C24.579 119.218 24.8472 119.592 25.257 119.979L26.8575 121.487L34.1936 114.872L35.2625 115.88L27.0334 123.299ZM30.5495 111.438L28.7798 116.649L27.661 115.605L29.3409 110.424L29.4087 110.363L30.5495 111.438Z" fill="#FF3874"/>
<path d="M18.2201 92.3913L18.9651 94.5815L17.8124 94.8988L17.0723 92.7231C16.8174 91.9738 16.4466 91.3952 15.9599 90.9872C15.4683 90.5807 14.8925 90.3357 14.2324 90.2522C13.5659 90.1652 12.8451 90.2338 12.0702 90.4578L11.4195 90.6458C10.8103 90.8219 10.2938 91.0503 9.87006 91.3311C9.44144 91.6132 9.11124 91.9408 8.87946 92.3137C8.64281 92.6881 8.50781 93.1017 8.47446 93.5544C8.43949 94.0024 8.51023 94.4857 8.68668 95.0045L9.49052 97.3675L8.33543 97.7014L7.53159 95.3383C7.29795 94.6515 7.20171 93.9909 7.24286 93.3565C7.27914 92.7236 7.44716 92.1395 7.74693 91.6045C8.04019 91.0661 8.45873 90.5969 9.00254 90.1971C9.54148 89.7986 10.196 89.4881 10.966 89.2655L11.6021 89.0817C12.3721 88.8591 13.1042 88.7688 13.7984 88.8109C14.4876 88.8543 15.1202 89.0223 15.6961 89.3147C16.2704 89.6024 16.7741 90.0054 17.2074 90.5238C17.6342 91.0387 17.9717 91.6613 18.2201 92.3913ZM8.0683 96.9161L18.7127 93.8394L19.1857 95.2299L8.54129 98.3066L8.0683 96.9161Z" fill="#FF3874"/>
<path d="M13.4195 70.1889H14.6143L14.6143 76.0561H13.4195L13.4195 70.1889ZM3.53416 75.7594L14.6143 75.7594L14.6143 77.2281L3.53416 77.2281L3.53416 75.7594ZM8.29799 70.9651H9.49276L9.49276 76.0561H8.29799L8.29799 70.9651ZM3.53416 70.265H4.73653L4.73653 76.0561H3.53416L3.53416 70.265Z" fill="#FF3874"/>
<path d="M15.2768 53.5839C15.0275 53.5143 14.795 53.4915 14.5791 53.5154C14.3599 53.5331 14.1412 53.6141 13.9231 53.7585C13.7065 53.898 13.4736 54.1118 13.2242 54.4C12.9764 54.6834 12.6977 55.0528 12.388 55.5084C12.0606 55.9853 11.7327 56.4068 11.4044 56.7729C11.0712 57.1377 10.7309 57.4347 10.3835 57.664C10.0361 57.8932 9.67505 58.0424 9.30029 58.1114C8.92553 58.1804 8.53047 58.157 8.11512 58.041C7.69977 57.9251 7.34389 57.7336 7.04748 57.4667C6.75107 57.1998 6.52484 56.8736 6.36878 56.488C6.20942 56.0962 6.12848 55.6606 6.12598 55.181C6.12348 54.7015 6.2109 54.1918 6.38825 53.652C6.64793 52.8615 7.02195 52.2345 7.51031 51.771C7.99537 51.3013 8.53217 50.9907 9.12071 50.8393C9.70436 50.6865 10.2747 50.6879 10.8318 50.8434L10.3757 52.2315C9.97506 52.1197 9.59308 52.1051 9.22981 52.1879C8.86165 52.2693 8.53341 52.4565 8.24507 52.7496C7.95185 53.0414 7.71894 53.4499 7.54634 53.9753C7.38325 54.4717 7.3244 54.9026 7.36979 55.2678C7.41518 55.633 7.54124 55.9313 7.74797 56.1626C7.95628 56.3892 8.22658 56.5488 8.55886 56.6416C8.78364 56.7043 9.00392 56.7158 9.21969 56.6761C9.43216 56.6301 9.64904 56.5302 9.87032 56.3762C10.0932 56.2175 10.3213 56.0022 10.5545 55.7306C10.7894 55.4541 11.0392 55.1161 11.3038 54.7164C11.6712 54.1665 12.0312 53.7039 12.3838 53.3288C12.7365 52.9537 13.0906 52.6631 13.4463 52.4573C13.7988 52.2452 14.1633 52.118 14.5399 52.0758C14.9132 52.0275 15.3075 52.0612 15.7229 52.1772C16.1578 52.2986 16.5226 52.4951 16.8175 52.7669C17.1123 53.0386 17.3313 53.3707 17.4744 53.7632C17.6175 54.1557 17.683 54.5976 17.671 55.0889C17.6557 55.5739 17.557 56.0936 17.3749 56.6479C17.215 57.1347 16.989 57.5952 16.697 58.0293C16.4066 58.4587 16.0612 58.8279 15.6609 59.1371C15.2622 59.4415 14.8245 59.6535 14.3478 59.773C13.8678 59.8863 13.3615 59.8686 12.8288 59.7199L13.2849 58.3318C13.6513 58.4341 13.9895 58.4522 14.2993 58.3861C14.6042 58.3186 14.8817 58.1882 15.1319 57.995C15.3837 57.7969 15.6018 57.5552 15.7862 57.2699C15.9673 56.9785 16.1133 56.6641 16.2241 56.3267C16.3841 55.8399 16.451 55.4087 16.425 55.0331C16.3991 54.6575 16.2875 54.3475 16.0904 54.103C15.8949 53.8538 15.6237 53.6807 15.2768 53.5839Z" fill="#FF3874"/>
<path d="M14.2845 37.4228L23.9872 42.7731L23.1877 44.0051L13.4849 38.6548L14.2845 37.4228Z" fill="#FF3874"/>
<path d="M32.5171 25.3408L35.4759 28.1152C35.5225 28.346 35.5274 28.6486 35.4906 29.0231C35.4501 29.3942 35.3029 29.821 35.0488 30.3037C34.7948 30.7796 34.3615 31.2951 33.7487 31.8504C33.2487 32.3035 32.703 32.641 32.1118 32.8629C31.5205 33.0779 30.9061 33.1707 30.2685 33.1412C29.6309 33.1048 28.9906 32.9412 28.3478 32.6503C27.7049 32.3526 27.0819 31.9208 26.4787 31.3552L25.8514 30.767C25.2482 30.2014 24.7811 29.6317 24.4503 29.0581C24.1232 28.481 23.9359 27.9103 23.8885 27.346C23.8374 26.7781 23.9316 26.2288 24.1711 25.6978C24.407 25.1634 24.7899 24.656 25.32 24.1756C25.9478 23.6067 26.5796 23.2321 27.2153 23.0519C27.851 22.8647 28.4742 22.8391 29.0848 22.9749C29.6992 23.1074 30.279 23.3668 30.824 23.7531L29.7357 24.7394C29.3945 24.5095 29.0302 24.3482 28.6431 24.2555C28.2597 24.1594 27.8623 24.1646 27.4511 24.2712C27.0361 24.3742 26.6181 24.6165 26.1971 24.9981C25.8174 25.3422 25.5569 25.7044 25.4157 26.0849C25.2744 26.4654 25.2412 26.8572 25.3161 27.2601C25.391 27.6631 25.5647 28.0755 25.8372 28.4973C26.1134 28.9158 26.4791 29.3384 26.9343 29.7652L27.5727 30.3639C28.039 30.8011 28.5098 31.1421 28.9852 31.3869C29.4644 31.6282 29.9369 31.7767 30.4027 31.8322C30.8648 31.8843 31.3054 31.8433 31.7243 31.7094C32.147 31.572 32.5332 31.3449 32.8828 31.028C33.27 30.6772 33.5525 30.3632 33.7301 30.0862C33.9041 29.8057 34.0144 29.5625 34.0609 29.3566C34.1037 29.1472 34.1201 28.9719 34.1101 28.8309L32.3004 27.1339L30.4001 28.856L29.5341 28.044L32.5171 25.3408Z" fill="#FF3874"/>
<path d="M48.1483 9.78536L53.5263 19.4727L52.1911 20.1026L42.9981 15.0106L47.1462 22.4824L45.8178 23.1091L40.4398 13.4217L41.7681 12.7951L50.9928 17.8972L46.8337 10.4055L48.1483 9.78536Z" fill="#FF3874"/>
<path d="M81.1186 12.2411C81.1234 11.9824 81.0871 11.7535 81.0096 11.5544C80.9373 11.3503 80.8037 11.1655 80.6089 11.0001C80.4191 10.8347 80.1531 10.6758 79.8109 10.5232C79.4738 10.3708 79.0454 10.2144 78.5257 10.054C77.9809 9.883 77.4896 9.69514 77.052 9.49036C76.6144 9.28051 76.2408 9.04376 75.9311 8.78011C75.6214 8.51647 75.3859 8.21593 75.2247 7.87851C75.0635 7.5411 74.9869 7.15681 74.9949 6.72565C75.0029 6.2945 75.0991 5.89771 75.2834 5.53529C75.4677 5.17287 75.7272 4.85984 76.0619 4.5962C76.4018 4.32756 76.8039 4.12079 77.2684 3.97589C77.7328 3.83099 78.2491 3.76301 78.8172 3.77197C79.6492 3.78507 80.3513 3.95596 80.9237 4.28464C81.5012 4.60832 81.9374 5.02871 82.2322 5.54582C82.5272 6.05786 82.6693 6.60301 82.6586 7.18127L81.1977 7.15825C81.2054 6.74231 81.1234 6.37316 80.9518 6.0508C80.7803 5.72337 80.5161 5.46551 80.1594 5.27723C79.8027 5.08387 79.3479 4.98284 78.795 4.97413C78.2725 4.9659 77.8398 5.03773 77.497 5.18962C77.1543 5.34151 76.8967 5.55056 76.7243 5.81676C76.557 6.08304 76.4701 6.38865 76.4637 6.73357C76.4594 6.9669 76.5037 7.1807 76.5965 7.37498C76.6944 7.56425 76.8459 7.74169 77.0509 7.90728C77.2609 8.07296 77.527 8.22683 77.8491 8.3689C78.1763 8.51105 78.567 8.64913 79.0212 8.78313C79.6469 8.97058 80.186 9.17695 80.6385 9.40226C81.091 9.62757 81.4618 9.87949 81.7509 10.158C82.0452 10.4316 82.2602 10.742 82.3959 11.0891C82.5367 11.4313 82.6031 11.8179 82.5951 12.2491C82.5867 12.7006 82.4878 13.1074 82.2984 13.4698C82.1091 13.8321 81.842 14.14 81.4974 14.3933C81.1527 14.6466 80.7406 14.8406 80.2612 14.9751C79.7869 15.1046 79.258 15.1648 78.6747 15.1556C78.1623 15.1475 77.6589 15.0685 77.1644 14.9187C76.675 14.7689 76.23 14.5488 75.8295 14.2583C75.434 13.968 75.1184 13.6129 74.8826 13.1931C74.652 12.7684 74.5418 12.2795 74.5521 11.7266L76.013 11.7496C76.006 12.1301 76.0734 12.4584 76.2155 12.7346C76.3576 13.0058 76.5538 13.2321 76.8042 13.4137C77.0596 13.5953 77.3488 13.7318 77.6719 13.8231C78.0001 13.9095 78.3417 13.9554 78.6968 13.961C79.2092 13.9691 79.6442 13.9049 80.0019 13.7685C80.3596 13.632 80.6323 13.4334 80.8198 13.1725C81.0123 12.9117 81.112 12.6012 81.1186 12.2411Z" fill="#FF3874"/>
<path d="M100.66 6.91107L97.4522 17.5166L96.0518 17.1566L99.26 6.55112L100.66 6.91107ZM104.11 7.79768L103.762 8.94855L95.4699 6.81728L95.818 5.66641L104.11 7.79768Z" fill="#FF3874"/>
<path d="M118.049 14.0943L119.337 14.7847L115.337 21.1242C114.893 21.8278 114.36 22.326 113.739 22.6187C113.117 22.9114 112.462 23.0307 111.772 22.9766C111.089 22.9207 110.432 22.7237 109.802 22.3857C109.14 22.0309 108.614 21.5939 108.224 21.0745C107.84 20.5533 107.64 19.9749 107.622 19.3394C107.609 18.7063 107.824 18.038 108.268 17.3343L112.268 10.9948L113.549 11.6816L109.549 18.0211C109.24 18.5102 109.08 18.9639 109.067 19.3821C109.055 19.8002 109.167 20.1765 109.405 20.5107C109.647 20.8474 109.992 21.1355 110.439 21.3752C110.891 21.6174 111.333 21.7511 111.766 21.7764C112.203 21.8041 112.616 21.7096 113.004 21.4927C113.392 21.2759 113.741 20.9229 114.049 20.4338L118.049 14.0943Z" fill="#FF3874"/>
<path d="M124.33 32.0721L122.701 30.4288L123.626 29.6701L125.243 31.3026C125.801 31.8648 126.391 32.2271 127.014 32.3895C127.642 32.5486 128.278 32.5291 128.921 32.3309C129.572 32.1331 130.206 31.7744 130.823 31.2548L131.342 30.8186C131.827 30.4102 132.204 29.9934 132.473 29.5683C132.746 29.14 132.909 28.7119 132.962 28.2839C133.019 27.8527 132.965 27.4286 132.801 27.0115C132.641 26.598 132.368 26.1967 131.982 25.8074L130.225 24.0344L131.145 23.26L132.902 25.033C133.412 25.5484 133.785 26.0971 134.02 26.6792C134.259 27.258 134.356 27.8476 134.31 28.448C134.272 29.0488 134.088 29.6395 133.76 30.2203C133.435 30.7977 132.966 31.3446 132.353 31.8609L131.846 32.2873C131.233 32.8036 130.598 33.1863 129.941 33.4355C129.288 33.6815 128.633 33.7931 127.977 33.7704C127.325 33.7513 126.687 33.6003 126.065 33.3175C125.451 33.035 124.872 32.6199 124.33 32.0721ZM131.729 23.8492L123.253 30.9855L122.219 29.9423L130.695 22.8059L131.729 23.8492Z" fill="#FF3874"/>
<path d="M145.263 40.7739L135.298 45.6183L134.568 44.3435L144.533 39.4991L145.263 40.7739Z" fill="#FF3874"/>
<path d="M147.81 61.9413L147.126 62.0893C146.313 62.2652 145.558 62.3221 144.862 62.2599C144.166 62.1978 143.545 62.0262 142.997 61.7452C142.449 61.4643 141.989 61.084 141.616 60.6045C141.244 60.1299 140.975 59.5657 140.808 58.9118C140.647 58.2776 140.618 57.6692 140.721 57.0867C140.825 56.5092 141.053 55.9774 141.405 55.4914C141.759 55.0103 142.231 54.5944 142.822 54.2435C143.413 53.8927 144.115 53.6293 144.928 53.4534L145.612 53.3054C146.425 53.1295 147.178 53.0757 147.87 53.1438C148.569 53.2158 149.192 53.3947 149.741 53.6806C150.295 53.9654 150.758 54.3451 151.13 54.8197C151.503 55.2992 151.77 55.8561 151.932 56.4903C152.098 57.1442 152.129 57.76 152.025 58.3375C151.922 58.92 151.691 59.4498 151.331 59.9271C150.978 60.4082 150.504 60.8192 149.911 61.1602C149.324 61.5051 148.624 61.7654 147.81 61.9413ZM146.768 60.6807L147.467 60.5295C148.111 60.3901 148.665 60.2004 149.127 59.9604C149.59 59.7253 149.958 59.4459 150.232 59.1222C150.505 58.7986 150.682 58.4361 150.763 58.0347C150.845 57.6382 150.828 57.2114 150.712 56.7542C150.599 56.3117 150.411 55.9298 150.146 55.6084C149.882 55.2919 149.549 55.0423 149.147 54.8596C148.746 54.6818 148.28 54.5777 147.749 54.5473C147.218 54.5169 146.63 54.5714 145.986 54.7108L145.286 54.862C144.637 55.0025 144.079 55.1958 143.613 55.4417C143.153 55.6867 142.784 55.9739 142.507 56.3036C142.236 56.6371 142.059 56.9996 141.975 57.3912C141.893 57.7876 141.908 58.2071 142.021 58.6496C142.138 59.1117 142.33 59.5035 142.595 59.8248C142.86 60.1462 143.192 60.3933 143.592 60.5662C143.998 60.743 144.465 60.8416 144.993 60.8622C145.527 60.8817 146.118 60.8212 146.768 60.6807Z" fill="#FF3874"/>
</svg>
