<svg width="157" height="145" viewBox="0 0 157 145" fill="none" xmlns="http://www.w3.org/2000/svg">
<path d="M147.175 81.6704L147.467 81.7225C147.937 81.8063 148.29 82.0214 148.528 82.3678C148.766 82.7192 148.831 83.1481 148.725 83.6546C148.617 84.166 148.382 84.5439 148.02 84.7883C147.658 85.0327 147.242 85.113 146.772 85.0292L146.48 84.977C146.016 84.8941 145.665 84.677 145.428 84.3256C145.195 83.9801 145.132 83.5516 145.239 83.0402C145.346 82.5338 145.578 82.1579 145.935 81.9126C146.297 81.6682 146.71 81.5875 147.175 81.6704Z" fill="white"/>
<path d="M148.528 82.3678L148.949 82.084L148.947 82.0806L148.528 82.3678ZM145.428 84.3256L145.849 84.0417L145.428 84.3256ZM145.935 81.9126L145.659 81.5045L145.656 81.5069L145.935 81.9126ZM147.072 82.1597L147.364 82.2119L147.57 81.2332L147.278 81.1811L147.072 82.1597ZM147.364 82.2119C147.721 82.2755 147.954 82.428 148.11 82.6551L148.947 82.0806C148.627 81.6148 148.152 81.3371 147.57 81.2332L147.364 82.2119ZM148.108 82.6517C148.257 82.8735 148.317 83.162 148.232 83.5667L149.217 83.7424C149.344 83.1343 149.274 82.5649 148.949 82.084L148.108 82.6517ZM148.232 83.5667C148.146 83.9779 147.972 84.2266 147.745 84.3801L148.295 85.1964C148.792 84.8611 149.088 84.354 149.217 83.7424L148.232 83.5667ZM147.745 84.3801C147.507 84.5408 147.23 84.6031 146.875 84.5399L146.67 85.5185C147.254 85.6229 147.809 85.5245 148.295 85.1964L147.745 84.3801ZM146.875 84.5399L146.583 84.4877L146.378 85.4664L146.67 85.5185L146.875 84.5399ZM146.583 84.4877C146.235 84.4257 146.005 84.274 145.849 84.0417L145.007 84.6095C145.325 85.08 145.796 85.3626 146.378 85.4664L146.583 84.4877ZM145.849 84.0417C145.705 83.8287 145.645 83.542 145.732 83.1281L144.747 82.9524C144.619 83.5613 144.685 84.1315 145.007 84.6095L145.849 84.0417ZM145.732 83.1281C145.817 82.721 145.989 82.4729 146.214 82.3184L145.656 81.5069C145.166 81.843 144.874 82.3466 144.747 82.9524L145.732 83.1281ZM146.21 82.3208C146.45 82.1592 146.724 82.0976 147.072 82.1597L147.278 81.1811C146.696 81.0773 146.145 81.1772 145.659 81.5045L146.21 82.3208Z" fill="white"/>
<path d="M139.887 111.757L130.532 105.82L131.675 104.29L141.03 110.227L139.887 111.757Z" fill="white"/>
<path d="M139.887 111.757L139.588 112.158L140.01 112.426L140.31 112.025L139.887 111.757ZM130.532 105.82L130.11 105.552L129.811 105.953L130.233 106.221L130.532 105.82ZM131.675 104.29L131.974 103.889L131.552 103.621L131.253 104.022L131.675 104.29ZM141.03 110.227L141.453 110.495L141.752 110.094L141.33 109.826L141.03 110.227ZM140.187 111.356L130.831 105.419L130.233 106.221L139.588 112.158L140.187 111.356ZM130.954 106.088L132.097 104.558L131.253 104.022L130.11 105.552L130.954 106.088ZM131.376 104.69L140.731 110.627L141.33 109.826L131.974 103.889L131.376 104.69ZM140.608 109.959L139.465 111.489L140.31 112.025L141.453 110.495L140.608 109.959Z" fill="white"/>
<path d="M124.636 126.734L116.976 118.728L118.458 117.523L127.801 120.123L122.314 114.388L123.796 113.183L131.456 121.189L129.974 122.394L120.609 119.793L126.107 125.538L124.636 126.734Z" fill="white"/>
<path d="M124.636 126.734L124.248 127.049L124.594 127.41L124.982 127.095L124.636 126.734ZM116.976 118.728L116.63 118.367L116.242 118.682L116.588 119.044L116.976 118.728ZM118.458 117.523L118.603 117.064L118.327 116.987L118.112 117.162L118.458 117.523ZM127.801 120.123L127.656 120.582L129.393 121.065L128.189 119.808L127.801 120.123ZM122.314 114.388L121.968 114.027L121.58 114.342L121.926 114.704L122.314 114.388ZM123.796 113.183L124.184 112.868L123.838 112.507L123.45 112.822L123.796 113.183ZM131.456 121.189L131.802 121.55L132.19 121.235L131.844 120.873L131.456 121.189ZM129.974 122.394L129.829 122.853L130.105 122.93L130.32 122.755L129.974 122.394ZM120.609 119.793L120.754 119.334L119.018 118.852L120.221 120.108L120.609 119.793ZM126.107 125.538L126.452 125.9L126.84 125.584L126.495 125.223L126.107 125.538ZM125.024 126.418L117.364 118.413L116.588 119.044L124.248 127.049L125.024 126.418ZM117.322 119.09L118.804 117.885L118.112 117.162L116.63 118.367L117.322 119.09ZM118.313 117.982L127.656 120.582L127.947 119.664L118.603 117.064L118.313 117.982ZM128.189 119.808L122.702 114.073L121.926 114.704L127.413 120.438L128.189 119.808ZM122.659 114.75L124.141 113.545L123.45 112.822L121.968 114.027L122.659 114.75ZM123.408 113.499L131.068 121.504L131.844 120.873L124.184 112.868L123.408 113.499ZM131.11 120.828L129.628 122.033L130.32 122.755L131.802 121.55L131.11 120.828ZM130.119 121.935L120.754 119.334L120.463 120.252L129.829 122.853L130.119 121.935ZM120.221 120.108L125.719 125.854L126.495 125.223L120.997 119.477L120.221 120.108ZM125.761 125.177L124.291 126.373L124.982 127.095L126.452 125.9L125.761 125.177Z" fill="white"/>
<path d="M110.076 134.836L104.749 125.121L106.467 124.321L111.794 134.036L110.076 134.836ZM106.924 136.305L106.192 134.971L114.187 131.246L114.919 132.58L106.924 136.305Z" fill="white"/>
<path d="M110.076 134.836L109.623 135.048L109.863 135.486L110.317 135.275L110.076 134.836ZM104.749 125.121L104.509 124.682L104.056 124.894L104.296 125.332L104.749 125.121ZM106.467 124.321L106.92 124.11L106.68 123.671L106.226 123.882L106.467 124.321ZM111.794 134.036L112.034 134.475L112.487 134.264L112.247 133.825L111.794 134.036ZM106.924 136.305L106.471 136.516L106.711 136.955L107.164 136.744L106.924 136.305ZM106.192 134.971L105.952 134.532L105.498 134.743L105.739 135.182L106.192 134.971ZM114.187 131.246L114.64 131.035L114.4 130.596L113.946 130.807L114.187 131.246ZM114.919 132.58L115.159 133.019L115.612 132.808L115.372 132.369L114.919 132.58ZM110.529 134.625L105.202 124.91L104.296 125.332L109.623 135.048L110.529 134.625ZM104.99 125.559L106.707 124.759L106.226 123.882L104.509 124.682L104.99 125.559ZM106.014 124.532L111.341 134.247L112.247 133.825L106.92 124.11L106.014 124.532ZM111.553 133.598L109.836 134.398L110.317 135.275L112.034 134.475L111.553 133.598ZM107.377 136.094L106.645 134.759L105.739 135.182L106.471 136.516L107.377 136.094ZM106.432 135.409L114.427 131.684L113.946 130.807L105.952 134.532L106.432 135.409ZM113.734 131.457L114.465 132.792L115.372 132.369L114.64 131.035L113.734 131.457ZM114.678 132.142L106.683 135.867L107.164 136.744L115.159 133.019L114.678 132.142Z" fill="white"/>
<path d="M89.4727 130.918L89.1265 129.444L94.8954 128.293L95.2415 129.767L89.4727 130.918ZM96.8979 139.185L94.3655 128.399L96.2387 128.025L98.7711 138.812L96.8979 139.185ZM91.3552 135.576L91.0143 134.124L96.0294 133.123L96.3703 134.575L91.3552 135.576ZM91.6963 140.223L91.3484 138.741L97.0799 137.598L97.4278 139.08L91.6963 140.223Z" fill="white"/>
<path d="M89.4727 130.918L88.9823 131.016L89.0966 131.503L89.5869 131.405L89.4727 130.918ZM89.1265 129.444L89.0123 128.957L88.5219 129.055L88.6362 129.542L89.1265 129.444ZM94.8954 128.293L95.3857 128.195L95.2714 127.708L94.7811 127.806L94.8954 128.293ZM95.2415 129.767L95.3558 130.254L95.8461 130.156L95.7318 129.669L95.2415 129.767ZM96.8979 139.185L96.4076 139.283L96.5218 139.77L97.0122 139.672L96.8979 139.185ZM94.3655 128.399L94.2512 127.912L93.7609 128.01L93.8752 128.496L94.3655 128.399ZM96.2387 128.025L96.729 127.927L96.6147 127.44L96.1244 127.538L96.2387 128.025ZM98.7711 138.812L98.8854 139.299L99.3757 139.201L99.2614 138.714L98.7711 138.812ZM91.3552 135.576L90.8649 135.674L90.9791 136.16L91.4695 136.063L91.3552 135.576ZM91.0143 134.124L90.9 133.637L90.4097 133.735L90.524 134.222L91.0143 134.124ZM96.0294 133.123L96.5197 133.026L96.4054 132.539L95.9151 132.637L96.0294 133.123ZM96.3703 134.575L96.4846 135.062L96.9749 134.964L96.8606 134.478L96.3703 134.575ZM91.6963 140.223L91.2059 140.321L91.3202 140.808L91.8105 140.71L91.6963 140.223ZM91.3484 138.741L91.2341 138.255L90.7438 138.352L90.8581 138.839L91.3484 138.741ZM97.0799 137.598L97.5703 137.5L97.456 137.013L96.9656 137.111L97.0799 137.598ZM97.4278 139.08L97.5421 139.567L98.0324 139.469L97.9181 138.982L97.4278 139.08ZM89.963 130.82L89.6169 129.346L88.6362 129.542L88.9823 131.016L89.963 130.82ZM89.2408 129.931L95.0096 128.78L94.7811 127.806L89.0123 128.957L89.2408 129.931ZM94.405 128.391L94.7511 129.865L95.7318 129.669L95.3857 128.195L94.405 128.391ZM95.1272 129.28L89.3584 130.431L89.5869 131.405L95.3558 130.254L95.1272 129.28ZM97.3882 139.088L94.8558 128.301L93.8752 128.496L96.4076 139.283L97.3882 139.088ZM94.4798 128.885L96.353 128.512L96.1244 127.538L94.2512 127.912L94.4798 128.885ZM95.7483 128.123L98.2808 138.91L99.2614 138.714L96.729 127.927L95.7483 128.123ZM98.6568 138.325L96.7836 138.699L97.0122 139.672L98.8854 139.299L98.6568 138.325ZM91.8455 135.478L91.5046 134.026L90.524 134.222L90.8649 135.674L91.8455 135.478ZM91.1286 134.611L96.1437 133.61L95.9151 132.637L90.9 133.637L91.1286 134.611ZM95.539 133.221L95.8799 134.673L96.8606 134.478L96.5197 133.026L95.539 133.221ZM96.256 134.089L91.2409 135.089L91.4695 136.063L96.4846 135.062L96.256 134.089ZM92.1866 140.125L91.8387 138.644L90.8581 138.839L91.2059 140.321L92.1866 140.125ZM91.4627 139.228L97.1942 138.085L96.9656 137.111L91.2341 138.255L91.4627 139.228ZM96.5896 137.696L96.9374 139.178L97.9181 138.982L97.5703 137.5L96.5896 137.696ZM97.3135 138.593L91.582 139.736L91.8105 140.71L97.5421 139.567L97.3135 138.593Z" fill="white"/>
<path d="M77.377 141.355L73.4623 141.169C72.621 141.129 71.9111 140.969 71.3323 140.687C70.7536 140.406 70.321 140.009 70.0346 139.498C69.7428 138.991 69.6172 138.376 69.6577 137.652C69.6886 137.1 69.8172 136.618 70.0434 136.207C70.2696 135.796 70.5758 135.456 70.9618 135.184C71.3476 134.918 71.8008 134.719 72.3215 134.586L72.9149 134.333L76.4343 134.5L76.3649 136.013L73.7273 135.887C73.2712 135.866 72.8866 135.928 72.5735 136.076C72.2603 136.224 72.02 136.433 71.8524 136.705C71.6794 136.981 71.583 137.296 71.5632 137.651C71.5416 138.036 71.5989 138.374 71.7351 138.665C71.8659 138.96 72.0816 139.191 72.3822 139.358C72.6826 139.53 73.0709 139.627 73.5473 139.65L75.554 139.745L76.0879 130.202L77.9959 130.293L77.377 141.355ZM71.6791 129.992L74.0008 135.085L72.0012 134.998L69.6364 129.994L69.6419 129.895L71.6791 129.992Z" fill="white"/>
<path d="M77.377 141.355L77.349 141.855L77.8485 141.878L77.8764 141.379L77.377 141.355ZM70.0346 139.498L70.4716 139.251L70.4686 139.246L70.0346 139.498ZM70.9618 135.184L70.68 134.774L70.6765 134.776L70.9618 135.184ZM72.3215 134.586L72.4413 135.07L72.4791 135.061L72.515 135.045L72.3215 134.586ZM72.9149 134.333L72.9428 133.833L72.8277 133.828L72.7214 133.873L72.9149 134.333ZM76.4343 134.5L76.934 134.519L76.9567 134.024L76.4623 134.001L76.4343 134.5ZM76.3649 136.013L76.337 136.512L76.8415 136.536L76.8646 136.031L76.3649 136.013ZM71.8524 136.705L72.2758 136.967L72.2774 136.965L71.8524 136.705ZM71.7351 138.665L72.193 138.459L72.1885 138.45L71.7351 138.665ZM72.3822 139.358L72.6334 138.924L72.6277 138.921L72.3822 139.358ZM75.554 139.745L75.5261 140.244L76.0255 140.268L76.0535 139.769L75.554 139.745ZM76.0879 130.202L76.1158 129.703L75.6164 129.679L75.5885 130.178L76.0879 130.202ZM77.9959 130.293L78.4953 130.316L78.5232 129.817L78.0238 129.793L77.9959 130.293ZM71.6791 129.992L72.1346 129.782L72.0095 129.507L71.707 129.493L71.6791 129.992ZM74.0008 135.085L73.9748 135.584L74.7962 135.62L74.4563 134.875L74.0008 135.085ZM72.0012 134.998L71.5486 135.214L71.676 135.484L71.9752 135.497L72.0012 134.998ZM69.6364 129.994L69.137 129.971L69.1299 130.097L69.1838 130.211L69.6364 129.994ZM69.6419 129.895L69.6699 129.396L69.1704 129.373L69.1425 129.872L69.6419 129.895ZM77.4049 140.856L73.4902 140.67L73.4343 141.669L77.349 141.855L77.4049 140.856ZM73.4902 140.67C72.6968 140.632 72.057 140.482 71.5543 140.237L71.1104 141.137C71.7651 141.455 72.5452 141.626 73.4343 141.669L73.4902 140.67ZM71.5543 140.237C71.0571 139.996 70.7039 139.666 70.4716 139.251L69.5976 139.745C69.9381 140.353 70.4501 140.816 71.1104 141.137L71.5543 140.237ZM70.4686 139.246C70.2352 138.841 70.1207 138.326 70.1571 137.675L69.1583 137.628C69.1136 138.426 69.2504 139.142 69.6005 139.75L70.4686 139.246ZM70.1571 137.675C70.1846 137.185 70.2974 136.779 70.4812 136.445L69.6056 135.969C69.3369 136.457 69.1926 137.014 69.1583 137.628L70.1571 137.675ZM70.4812 136.445C70.67 136.102 70.9239 135.82 71.2472 135.592L70.6765 134.776C70.2276 135.091 69.8692 135.49 69.6056 135.969L70.4812 136.445ZM71.2437 135.595C71.5735 135.367 71.9701 135.191 72.4413 135.07L72.2016 134.102C71.6316 134.247 71.1218 134.469 70.68 134.774L71.2437 135.595ZM72.515 135.045L73.1084 134.792L72.7214 133.873L72.128 134.127L72.515 135.045ZM72.887 134.832L76.4064 134.999L76.4623 134.001L72.9428 133.833L72.887 134.832ZM75.9346 134.481L75.8653 135.994L76.8646 136.031L76.934 134.519L75.9346 134.481ZM76.3929 135.513L73.7552 135.388L73.6993 136.386L76.337 136.512L76.3929 135.513ZM73.7552 135.388C73.2427 135.364 72.7709 135.432 72.3631 135.624L72.7838 136.528C73.0023 136.425 73.2997 136.367 73.6993 136.386L73.7552 135.388ZM72.3631 135.624C71.9693 135.81 71.6508 136.083 71.4273 136.445L72.2774 136.965C72.3892 136.784 72.5514 136.637 72.7838 136.528L72.3631 135.624ZM71.4289 136.442C71.2067 136.797 71.0878 137.196 71.0637 137.627L72.0626 137.675C72.0781 137.396 72.1521 137.165 72.2758 136.967L71.4289 136.442ZM71.0637 137.627C71.0385 138.078 71.1045 138.501 71.2817 138.879L72.1885 138.45C72.0934 138.247 72.0448 137.993 72.0626 137.675L71.0637 137.627ZM71.2773 138.87C71.4545 139.27 71.7482 139.58 72.1368 139.796L72.6277 138.921C72.415 138.803 72.2773 138.65 72.1929 138.459L71.2773 138.87ZM72.1311 139.792C72.5201 140.015 72.9922 140.124 73.5193 140.149L73.5752 139.15C73.1496 139.13 72.845 139.045 72.6334 138.924L72.1311 139.792ZM73.5193 140.149L75.5261 140.244L75.582 139.246L73.5752 139.15L73.5193 140.149ZM76.0535 139.769L76.5873 130.226L75.5885 130.178L75.0546 139.721L76.0535 139.769ZM76.06 130.701L77.9679 130.792L78.0238 129.793L76.1158 129.703L76.06 130.701ZM77.4964 130.269L76.8775 141.332L77.8764 141.379L78.4953 130.316L77.4964 130.269ZM71.2236 130.203L73.5453 135.295L74.4563 134.875L72.1346 129.782L71.2236 130.203ZM74.0268 134.586L72.0272 134.498L71.9752 135.497L73.9748 135.584L74.0268 134.586ZM72.4538 134.781L70.0891 129.778L69.1838 130.211L71.5486 135.214L72.4538 134.781ZM70.1359 130.018L70.1414 129.919L69.1425 129.872L69.137 129.971L70.1359 130.018ZM69.614 130.395L71.6512 130.492L71.707 129.493L69.6699 129.396L69.614 130.395Z" fill="white"/>
<path d="M58.2098 138.818L61.3637 128.196L63.2157 128.663L60.0619 139.285L58.2098 138.818Z" fill="white"/>
<path d="M58.2098 138.818L57.725 138.695L57.5827 139.175L58.0675 139.297L58.2098 138.818ZM61.3637 128.196L61.506 127.716L61.0212 127.594L60.8789 128.073L61.3637 128.196ZM63.2157 128.663L63.7005 128.785L63.8429 128.306L63.3581 128.184L63.2157 128.663ZM60.0619 139.285L59.9196 139.764L60.4044 139.886L60.5467 139.407L60.0619 139.285ZM58.6946 138.94L61.8485 128.318L60.8789 128.073L57.725 138.695L58.6946 138.94ZM61.2214 128.675L63.0734 129.142L63.3581 128.184L61.506 127.716L61.2214 128.675ZM62.7309 128.541L59.5771 139.163L60.5467 139.407L63.7005 128.785L62.7309 128.541ZM60.2042 138.806L58.3521 138.338L58.0675 139.297L59.9196 139.764L60.2042 138.806Z" fill="white"/>
<path d="M40.4348 126.051L40.7571 125.534C41.2003 124.824 41.6942 124.238 42.2387 123.777C42.7833 123.315 43.3584 122.981 43.9641 122.775C44.5653 122.567 45.1805 122.489 45.8096 122.542C46.436 122.6 47.0518 122.789 47.6569 123.109C48.2575 123.428 48.7421 123.822 49.1107 124.293C49.4721 124.765 49.7108 125.296 49.8268 125.884C49.9428 126.473 49.9257 127.102 49.7755 127.773C49.6209 128.441 49.322 129.131 48.8788 129.841L48.5565 130.357C48.1134 131.067 47.6186 131.65 47.0722 132.105C46.5232 132.564 45.9458 132.897 45.3401 133.103C44.7273 133.31 44.1099 133.387 43.4879 133.332C42.8588 133.279 42.2439 133.093 41.6433 132.775C41.0382 132.454 40.5527 132.056 40.1868 131.582C39.8182 131.111 39.5795 130.581 39.4707 129.99C39.3592 129.404 39.3831 128.778 39.5422 128.112C39.6941 127.448 39.9917 126.761 40.4348 126.051ZM42.4447 126.429L42.1143 126.958C41.7866 127.484 41.5517 127.975 41.4095 128.432C41.2601 128.891 41.2039 129.311 41.2409 129.692C41.2707 130.074 41.3905 130.413 41.6004 130.707C41.8076 131.006 42.0972 131.254 42.4692 131.451C42.8412 131.649 43.2172 131.754 43.5972 131.766C43.9745 131.783 44.3522 131.708 44.7302 131.542C45.1011 131.378 45.4666 131.122 45.8267 130.774C46.184 130.431 46.5265 129.997 46.8542 129.472L47.1846 128.942C47.5122 128.417 47.7485 127.924 47.8934 127.462C48.0383 127.001 48.095 126.575 48.0634 126.186C48.0246 125.799 47.9039 125.457 47.7011 125.161C47.4957 124.869 47.207 124.624 46.835 124.427C46.4585 124.227 46.0816 124.119 45.7043 124.102C45.3244 124.089 44.9476 124.168 44.574 124.336C44.1977 124.509 43.8318 124.77 43.4762 125.12C43.1162 125.468 42.7723 125.904 42.4447 126.429Z" fill="white"/>
<path d="M43.9641 122.775L44.1238 123.23L44.1268 123.229L43.9641 122.775ZM45.8096 122.542L45.8772 122.06L45.8733 122.06L45.8096 122.542ZM49.1107 124.293L49.5323 124.001L49.529 123.996L49.1107 124.293ZM49.8268 125.884L50.3333 125.78L49.8268 125.884ZM49.7755 127.773L50.2786 127.86L50.2793 127.857L49.7755 127.773ZM47.0722 132.105L46.7387 131.747L46.7377 131.748L47.0722 132.105ZM45.3401 133.103L45.4994 133.558L45.4998 133.558L45.3401 133.103ZM43.4879 133.332L43.5539 132.849L43.5517 132.849L43.4879 133.332ZM40.1868 131.582L40.6074 131.288L40.6051 131.285L40.1868 131.582ZM39.4707 129.99L39.9782 129.891L39.9777 129.889L39.4707 129.99ZM39.5422 128.112L40.0444 128.202L40.0454 128.198L39.5422 128.112ZM41.4095 128.432L41.9015 128.559L41.9033 128.553L41.4095 128.432ZM41.2409 129.692L41.7546 129.639L41.7537 129.631L41.2409 129.692ZM41.6004 130.707L42.0347 130.432L42.0313 130.428L41.6004 130.707ZM43.5972 131.766L43.6396 131.282L43.6333 131.282L43.5972 131.766ZM44.7302 131.542L44.9345 131.98L44.9358 131.979L44.7302 131.542ZM45.8267 130.774L45.4651 130.441L45.4641 130.442L45.8267 130.774ZM48.0634 126.186L48.5769 126.132L48.5761 126.124L48.0634 126.186ZM47.7011 125.161L48.1372 124.889L48.1337 124.884L47.7011 125.161ZM45.7043 124.102L45.7467 123.618L45.7404 123.618L45.7043 124.102ZM44.574 124.336L44.3649 123.9L44.3615 123.902L44.574 124.336ZM43.4762 125.12L43.8388 125.452L43.8424 125.448L43.4762 125.12ZM40.8766 126.285L41.1989 125.768L40.3154 125.3L39.9931 125.816L40.8766 126.285ZM41.1989 125.768C41.6193 125.095 42.0797 124.552 42.5759 124.131L41.9016 123.422C41.3086 123.924 40.7812 124.553 40.3154 125.3L41.1989 125.768ZM42.5759 124.131C43.0753 123.708 43.5914 123.411 44.1238 123.23L43.8045 122.32C43.1255 122.551 42.4913 122.922 41.9016 123.422L42.5759 124.131ZM44.1268 123.229C44.6551 123.046 45.1929 122.979 45.7458 123.025L45.8733 122.06C45.1681 122 44.4755 122.088 43.8014 122.321L44.1268 123.229ZM45.742 123.025C46.291 123.075 46.8404 123.241 47.3922 123.534L47.9216 122.685C47.2632 122.336 46.581 122.124 45.8772 122.06L45.742 123.025ZM47.3922 123.534C47.939 123.824 48.369 124.177 48.6924 124.589L49.529 123.996C49.1152 123.468 48.576 123.032 47.9216 122.685L47.3922 123.534ZM48.6892 124.585C49.0073 125.001 49.2175 125.467 49.3203 125.989L50.3333 125.78C50.2041 125.124 49.937 124.53 49.5323 124.001L48.6892 124.585ZM49.3203 125.989C49.4226 126.508 49.4097 127.073 49.2717 127.689L50.2793 127.857C50.4416 127.132 50.4629 126.437 50.3333 125.78L49.3203 125.989ZM49.2725 127.686C49.1318 128.294 48.857 128.934 48.4371 129.607L49.3206 130.075C49.787 129.328 50.1099 128.589 50.2785 127.86L49.2725 127.686ZM48.4371 129.607L48.1148 130.123L48.9983 130.591L49.3206 130.075L48.4371 129.607ZM48.1148 130.123C47.6948 130.796 47.2346 131.334 46.7387 131.747L47.4058 132.463C48.0026 131.966 48.5319 131.339 48.9983 130.591L48.1148 130.123ZM46.7377 131.748C46.2332 132.17 45.714 132.466 45.1805 132.647L45.4998 133.558C46.1776 133.327 46.8131 132.958 47.4067 132.462L46.7377 131.748ZM45.1809 132.647C44.6385 132.831 44.098 132.897 43.5539 132.849L43.422 133.814C44.1218 133.876 44.816 133.789 45.4994 133.558L45.1809 132.647ZM43.5517 132.849C43.0007 132.803 42.4536 132.64 41.908 132.351L41.3786 133.199C42.0342 133.547 42.7169 133.755 43.4242 133.815L43.5517 132.849ZM41.908 132.351C41.3574 132.059 40.9275 131.703 40.6073 131.288L39.7662 131.875C40.1779 132.409 40.719 132.849 41.3786 133.199L41.908 132.351ZM40.6051 131.285C40.2826 130.874 40.074 130.411 39.9782 129.891L38.9632 130.089C39.085 130.751 39.3538 131.349 39.7685 131.878L40.6051 131.285ZM39.9777 129.889C39.8798 129.374 39.8985 128.813 40.0444 128.202L39.0399 128.022C38.8676 128.743 38.8387 129.435 38.9637 130.092L39.9777 129.889ZM40.0454 128.198C40.1834 127.595 40.4566 126.958 40.8766 126.285L39.9931 125.816C39.5267 126.564 39.2048 127.301 39.0389 128.026L40.0454 128.198ZM42.0029 126.195L41.6726 126.724L42.556 127.193L42.8864 126.663L42.0029 126.195ZM41.6726 126.724C41.3283 127.276 41.0729 127.805 40.9156 128.311L41.9033 128.553C42.0305 128.144 42.245 127.691 42.556 127.193L41.6726 126.724ZM40.9175 128.305C40.7529 128.811 40.6837 129.296 40.728 129.753L41.7537 129.631C41.7241 129.326 41.7673 128.971 41.9015 128.559L40.9175 128.305ZM40.7273 129.744C40.763 130.203 40.9086 130.62 41.1695 130.987L42.0313 130.428C41.8725 130.205 41.7783 129.946 41.7545 129.639L40.7273 129.744ZM41.1661 130.982C41.4213 131.35 41.7725 131.647 42.2045 131.876L42.7339 131.027C42.4218 130.862 42.1938 130.662 42.0347 130.432L41.1661 130.982ZM42.2045 131.876C42.6363 132.105 43.0898 132.235 43.5611 132.25L43.6333 131.282C43.3447 131.272 43.0461 131.193 42.7339 131.027L42.2045 131.876ZM43.5548 132.25C44.0236 132.271 44.4857 132.177 44.9344 131.98L44.526 131.104C44.2186 131.239 43.9253 131.295 43.6396 131.282L43.5548 132.25ZM44.9358 131.979C45.3779 131.783 45.7949 131.487 46.1892 131.106L45.4641 130.442C45.1383 130.757 44.8244 130.972 44.5246 131.105L44.9358 131.979ZM46.1882 131.107C46.5835 130.727 46.9517 130.258 47.2959 129.706L46.4125 129.238C46.1014 129.736 45.7845 130.135 45.4651 130.441L46.1882 131.107ZM47.2959 129.706L47.6263 129.177L46.7428 128.708L46.4125 129.238L47.2959 129.706ZM47.6263 129.177C47.9707 128.625 48.2271 128.094 48.3869 127.584L47.3999 127.34C47.27 127.754 47.0538 128.21 46.7428 128.708L47.6263 129.177ZM48.3869 127.584C48.546 127.078 48.6141 126.592 48.5768 126.132L47.5499 126.24C47.5758 126.559 47.5306 126.924 47.3999 127.34L48.3869 127.584ZM48.5761 126.124C48.5305 125.668 48.3865 125.253 48.1371 124.889L47.2651 125.433C47.4212 125.661 47.5187 125.93 47.5506 126.249L48.5761 126.124ZM48.1337 124.884C47.8797 124.522 47.5295 124.23 47.0997 124.002L46.5703 124.851C46.8846 125.017 47.1118 125.215 47.2685 125.438L48.1337 124.884ZM47.0997 124.002C46.6663 123.773 46.2142 123.639 45.7467 123.618L45.662 124.586C45.949 124.599 46.2507 124.681 46.5703 124.851L47.0997 124.002ZM45.7404 123.618C45.2703 123.602 44.8096 123.7 44.3649 123.9L44.7831 124.772C45.0855 124.635 45.3784 124.577 45.6683 124.586L45.7404 123.618ZM44.3615 123.902C43.9166 124.106 43.5003 124.408 43.1101 124.792L43.8424 125.448C44.1633 125.133 44.4788 124.911 44.7865 124.77L44.3615 123.902ZM43.1137 124.788C42.7165 125.172 42.3473 125.643 42.0029 126.195L42.8864 126.663C43.1974 126.165 43.5159 125.764 43.8388 125.452L43.1137 124.788Z" fill="white"/>
<path d="M26.6116 122.576L23.7595 119.889C23.1466 119.311 22.7184 118.734 22.4748 118.157C22.2312 117.58 22.1796 117.017 22.3199 116.468C22.4528 115.92 22.7887 115.402 23.3275 114.916C23.7382 114.546 24.1737 114.29 24.6342 114.147C25.0946 114.004 25.5669 113.963 26.0512 114.023C26.5317 114.087 27.0169 114.242 27.5066 114.488L28.1366 114.696L30.7007 117.113L29.5871 118.137L27.6654 116.326C27.3331 116.013 26.9959 115.806 26.6538 115.706C26.3117 115.606 25.9816 115.597 25.6636 115.68C25.3382 115.762 25.0436 115.922 24.7798 116.16C24.4935 116.418 24.3002 116.695 24.1999 116.989C24.0922 117.284 24.0945 117.588 24.2067 117.902C24.3151 118.22 24.5428 118.542 24.8899 118.869L26.3519 120.247L33.4506 113.847L34.8407 115.157L26.6116 122.576ZM30.2385 110.82L28.4363 115.937L26.9741 114.57L28.6808 109.487L28.7543 109.421L30.2385 110.82Z" fill="white"/>
<path d="M26.6116 122.576L26.2403 122.911L26.6042 123.254L26.9755 122.919L26.6116 122.576ZM22.3199 116.468L22.826 116.579L22.8274 116.574L22.3199 116.468ZM26.0512 114.023L26.1244 113.549L26.12 113.548L26.0512 114.023ZM27.5066 114.488L27.2583 114.909L27.2939 114.927L27.332 114.939L27.5066 114.488ZM28.1366 114.696L28.5079 114.361L28.4241 114.282L28.3112 114.245L28.1366 114.696ZM30.7007 117.113L31.0683 117.452L31.4323 117.117L31.0721 116.778L30.7007 117.113ZM29.5871 118.137L29.2158 118.472L29.5833 118.818L29.9547 118.477L29.5871 118.137ZM25.6636 115.68L25.8022 116.142L25.8053 116.141L25.6636 115.68ZM24.1999 116.989L24.6927 117.143L24.696 117.134L24.1999 116.989ZM24.2067 117.902L24.7026 117.759L24.7005 117.753L24.2067 117.902ZM26.3519 120.247L25.9806 120.582L26.3445 120.925L26.7158 120.59L26.3519 120.247ZM33.4506 113.847L33.822 113.512L33.4581 113.169L33.0868 113.504L33.4506 113.847ZM34.8407 115.157L35.2046 115.5L35.5759 115.165L35.2121 114.822L34.8407 115.157ZM30.2385 110.82L30.733 110.968L30.8302 110.692L30.6099 110.485L30.2385 110.82ZM28.4363 115.937L28.0663 116.273L28.667 116.835L28.9308 116.086L28.4363 115.937ZM26.9741 114.57L26.4774 114.427L26.3854 114.701L26.6041 114.906L26.9741 114.57ZM28.6808 109.487L28.317 109.144L28.223 109.229L28.1841 109.345L28.6808 109.487ZM28.7543 109.421L29.1256 109.086L28.7618 108.743L28.3904 109.078L28.7543 109.421ZM26.983 122.242L24.1308 119.554L23.3881 120.223L26.2403 122.911L26.983 122.242ZM24.1308 119.554C23.5528 119.009 23.1709 118.485 22.9593 117.984L21.9903 118.33C22.2659 118.983 22.7404 119.613 23.3881 120.223L24.1308 119.554ZM22.9593 117.984C22.75 117.488 22.7121 117.024 22.826 116.579L21.8139 116.358C21.6471 117.01 21.7124 117.672 21.9903 118.33L22.9593 117.984ZM22.8274 116.574C22.9337 116.134 23.2073 115.696 23.6914 115.259L22.9636 114.574C22.37 115.109 21.972 115.705 21.8125 116.363L22.8274 116.574ZM23.6914 115.259C24.0564 114.93 24.4267 114.717 24.8007 114.601L24.4676 113.693C23.9208 113.862 23.42 114.162 22.9636 114.574L23.6914 115.259ZM24.8007 114.601C25.1851 114.482 25.5769 114.448 25.9825 114.498L26.12 113.548C25.557 113.478 25.0041 113.526 24.4676 113.693L24.8007 114.601ZM25.9781 114.498C26.3889 114.552 26.8151 114.686 27.2583 114.909L27.7548 114.067C27.2186 113.798 26.6746 113.622 26.1244 113.549L25.9781 114.498ZM27.332 114.939L27.962 115.147L28.3112 114.245L27.6812 114.037L27.332 114.939ZM27.7652 115.031L30.3294 117.447L31.0721 116.778L28.5079 114.361L27.7652 115.031ZM30.3332 116.773L29.2195 117.798L29.9547 118.477L31.0683 117.452L30.3332 116.773ZM29.9584 117.802L28.0367 115.991L27.294 116.661L29.2158 118.472L29.9584 117.802ZM28.0367 115.991C27.6633 115.639 27.2557 115.38 26.8102 115.249L26.4974 116.163C26.736 116.233 27.0029 116.386 27.294 116.661L28.0367 115.991ZM26.8102 115.249C26.38 115.124 25.946 115.109 25.522 115.218L25.8053 116.141C26.0173 116.086 26.2434 116.089 26.4974 116.163L26.8102 115.249ZM25.5251 115.218C25.107 115.324 24.7366 115.528 24.416 115.817L25.1437 116.503C25.3506 116.317 25.5694 116.201 25.8021 116.142L25.5251 115.218ZM24.416 115.817C24.0804 116.12 23.8343 116.462 23.7038 116.845L24.696 117.134C24.7661 116.928 24.9066 116.717 25.1437 116.503L24.416 115.817ZM23.7072 116.836C23.5613 117.235 23.5679 117.645 23.7128 118.052L24.7005 117.753C24.6211 117.531 24.6232 117.333 24.6926 117.143L23.7072 116.836ZM23.7108 118.046C23.8512 118.457 24.1344 118.842 24.5185 119.204L25.2612 118.535C24.9512 118.242 24.779 117.983 24.7026 117.759L23.7108 118.046ZM24.5185 119.204L25.9806 120.582L26.7233 119.912L25.2612 118.535L24.5185 119.204ZM26.7158 120.59L33.8145 114.19L33.0868 113.504L25.9881 119.904L26.7158 120.59ZM33.0793 114.182L34.4694 115.492L35.2121 114.822L33.822 113.512L33.0793 114.182ZM34.4768 114.814L26.2478 122.234L26.9755 122.919L35.2046 115.5L34.4768 114.814ZM29.744 110.671L27.9417 115.789L28.9308 116.086L30.733 110.968L29.744 110.671ZM28.8062 115.601L27.344 114.234L26.6041 114.906L28.0663 116.273L28.8062 115.601ZM27.4708 114.712L29.1775 109.63L28.1841 109.345L26.4774 114.427L27.4708 114.712ZM29.0447 109.83L29.1182 109.764L28.3904 109.078L28.317 109.144L29.0447 109.83ZM28.383 109.756L29.8672 111.154L30.6099 110.485L29.1256 109.086L28.383 109.756Z" fill="white"/>
<path d="M17.6624 91.5012L18.4246 93.7418L16.9648 94.1479L16.2075 91.9217C15.987 91.2733 15.6586 90.7721 15.2224 90.4181C14.7845 90.0594 14.2599 89.847 13.6486 89.781C13.0357 89.7102 12.3589 89.7819 11.6181 89.996L11.0405 90.163C10.4654 90.3292 9.97815 90.5413 9.57875 90.7991C9.17771 91.0522 8.86859 91.3473 8.65137 91.6844C8.43252 92.0167 8.30638 92.3855 8.27296 92.7908C8.2379 93.1913 8.29961 93.6245 8.45809 94.0904L9.25703 96.4391L7.79489 96.8617L6.99595 94.513C6.75905 93.8166 6.66197 93.1457 6.70473 92.5003C6.74262 91.8563 6.91224 91.2613 7.21362 90.7152C7.51335 90.1644 7.93431 89.6866 8.4765 89.2819C9.01868 88.8773 9.67236 88.5644 10.4375 88.3432L11.0005 88.1805C11.7657 87.9593 12.4961 87.8722 13.1919 87.919C13.8877 87.9658 14.5292 88.1365 15.1165 88.4309C15.6989 88.7268 16.2092 89.1332 16.6473 89.6502C17.0789 90.1637 17.4173 90.7807 17.6624 91.5012ZM7.43954 95.817L18.0839 92.7403L18.699 94.5487L8.05467 97.6254L7.43954 95.817Z" fill="white"/>
<path d="M18.4246 93.7418L18.5807 94.2165L19.0675 94.0811L18.9049 93.6029L18.4246 93.7418ZM16.9648 94.1479L16.4845 94.2867L16.6439 94.7553L17.121 94.6226L16.9648 94.1479ZM15.2224 90.4181L14.9049 90.7905L14.9069 90.7921L15.2224 90.4181ZM13.6486 89.781L13.608 90.2709L13.6119 90.2713L13.6486 89.781ZM9.57875 90.7991L9.86555 91.2162L9.86975 91.2135L9.57875 90.7991ZM8.65137 91.6844L9.08089 91.9618L9.08341 91.9579L8.65137 91.6844ZM8.27296 92.7908L8.77776 92.8513L8.77795 92.8489L8.27296 92.7908ZM9.25703 96.4391L9.41805 96.9124L9.89839 96.7736L9.73737 96.3002L9.25703 96.4391ZM7.79489 96.8617L7.31456 97.0005L7.47558 97.4739L7.95591 97.3351L7.79489 96.8617ZM6.70473 92.5003L7.21031 92.5507L7.21052 92.5472L6.70473 92.5003ZM7.21362 90.7152L7.66194 90.9614L7.66328 90.959L7.21362 90.7152ZM8.4765 89.2819L8.79422 89.6777L8.4765 89.2819ZM15.1165 88.4309L15.3372 87.9954L15.3346 87.9941L15.1165 88.4309ZM16.6473 89.6502L17.0344 89.3466L17.033 89.3449L16.6473 89.6502ZM7.43954 95.817L7.27851 95.3437L6.79818 95.4825L6.9592 95.9559L7.43954 95.817ZM18.0839 92.7403L18.5642 92.6015L18.4032 92.1281L17.9229 92.267L18.0839 92.7403ZM18.699 94.5487L18.8601 95.0221L19.3404 94.8832L19.1794 94.4098L18.699 94.5487ZM8.05467 97.6254L7.57433 97.7642L7.73536 98.2376L8.21569 98.0987L8.05467 97.6254ZM17.182 91.64L17.9442 93.8806L18.9049 93.6029L18.1427 91.3623L17.182 91.64ZM18.2684 93.267L16.8086 93.6731L17.121 94.6226L18.5807 94.2165L18.2684 93.267ZM17.4452 94.009L16.6879 91.7828L15.7272 92.0605L16.4845 94.2867L17.4452 94.009ZM16.6879 91.7828C16.4438 91.0654 16.0674 90.4738 15.5378 90.0441L14.9069 90.7921C15.2498 91.0704 15.5301 91.4811 15.7272 92.0605L16.6879 91.7828ZM15.5398 90.0457C15.0144 89.6153 14.3895 89.3667 13.6854 89.2907L13.6119 90.2713C14.1303 90.3273 14.5546 90.5035 14.9049 90.7905L15.5398 90.0457ZM13.6893 89.2912C12.9924 89.2107 12.2458 89.2947 11.457 89.5227L11.7791 90.4694C12.4719 90.2691 13.079 90.2098 13.608 90.2709L13.6893 89.2912ZM11.457 89.5227L10.8795 89.6896L11.2015 90.6363L11.7791 90.4694L11.457 89.5227ZM10.8795 89.6896C10.2689 89.8661 9.73541 90.0958 9.28775 90.3848L9.86975 91.2135C10.2209 90.9867 10.662 90.7923 11.2015 90.6363L10.8795 89.6896ZM9.29196 90.3821C8.84214 90.666 8.47945 91.0072 8.21933 91.4109L9.08341 91.9579C9.25772 91.6874 9.51328 91.4384 9.86553 91.2161L9.29196 90.3821ZM8.22187 91.407C7.9592 91.8059 7.80776 92.2501 7.76796 92.7327L8.77795 92.8489C8.805 92.5209 8.90584 92.2275 9.08087 91.9618L8.22187 91.407ZM7.76817 92.7304C7.72619 93.2098 7.80167 93.7116 7.97775 94.2292L8.93843 93.9516C8.79756 93.5374 8.7496 93.1728 8.77775 92.8513L7.76817 92.7304ZM7.97775 94.2292L8.77669 96.5779L9.73737 96.3002L8.93843 93.9516L7.97775 94.2292ZM9.09601 95.9657L7.63387 96.3883L7.95591 97.3351L9.41805 96.9124L9.09601 95.9657ZM8.27523 96.7229L7.47629 94.3742L6.51562 94.6519L7.31456 97.0005L8.27523 96.7229ZM7.47629 94.3742C7.25779 93.7318 7.17223 93.1253 7.2103 92.5507L6.19917 92.4499C6.15172 93.166 6.26031 93.9013 6.51562 94.6519L7.47629 94.3742ZM7.21052 92.5472C7.24438 91.9715 7.39521 91.4447 7.66194 90.9614L6.76529 90.469C6.42927 91.0778 6.24085 91.7411 6.19895 92.4534L7.21052 92.5472ZM7.66328 90.959C7.92847 90.4716 8.30284 90.0444 8.79422 89.6777L8.15877 88.8862C7.56579 89.3288 7.09824 89.8571 6.76395 90.4714L7.66328 90.959ZM8.79422 89.6777C9.28286 89.313 9.88137 89.0239 10.5986 88.8166L10.2765 87.8698C9.46336 88.1049 8.7545 88.4416 8.15877 88.8862L8.79422 89.6777ZM10.5986 88.8166L11.1615 88.6539L10.8395 87.7071L10.2765 87.8698L10.5986 88.8166ZM11.1615 88.6539C11.8787 88.4466 12.5491 88.3689 13.1762 88.4111L13.2076 87.4269C12.4431 87.3754 11.6526 87.4721 10.8395 87.7071L11.1615 88.6539ZM13.1762 88.4111C13.8068 88.4536 14.3787 88.6072 14.8983 88.8677L15.3346 87.9941C14.6797 87.6657 13.9686 87.4781 13.2076 87.4269L13.1762 88.4111ZM14.8958 88.8665C15.4121 89.1288 15.867 89.4898 16.2616 89.9554L17.033 89.3449C16.5514 88.7767 15.9857 88.3249 15.3372 87.9954L14.8958 88.8665ZM16.2602 89.9538C16.6448 90.4113 16.9542 90.9703 17.182 91.64L18.1427 91.3623C17.8804 90.5911 17.5131 89.9161 17.0344 89.3466L16.2602 89.9538ZM7.60056 96.2904L18.2449 93.2137L17.9229 92.267L7.27851 95.3437L7.60056 96.2904ZM17.6036 92.8792L18.2187 94.6875L19.1794 94.4098L18.5642 92.6015L17.6036 92.8792ZM18.538 94.0753L7.89365 97.152L8.21569 98.0987L18.8601 95.0221L18.538 94.0753ZM8.53501 97.4865L7.91987 95.6782L6.9592 95.9559L7.57433 97.7642L8.53501 97.4865Z" fill="white"/>
<path d="M12.5618 69.3031H14.0762L14.0762 75.1856H12.5618L12.5618 69.3031ZM2.99607 74.6453L14.0762 74.6453L14.0762 76.5554L2.99607 76.5554L2.99607 74.6453ZM7.62293 70.0717H9.11448L9.11448 75.1856H7.62293L7.62293 70.0717ZM2.99607 69.3411H4.51807L4.51807 75.1856H2.99607L2.99607 69.3411Z" fill="white"/>
<path d="M12.5618 69.3031L12.5618 68.8031H12.0618L12.0618 69.3031H12.5618ZM14.0762 69.3031H14.5762L14.5762 68.8031H14.0762L14.0762 69.3031ZM14.0762 75.1856V75.6856H14.5762V75.1856H14.0762ZM12.5618 75.1856H12.0618V75.6856H12.5618V75.1856ZM2.99607 74.6453L2.99607 74.1453H2.49607L2.49607 74.6453H2.99607ZM14.0762 74.6453H14.5762L14.5762 74.1453H14.0762L14.0762 74.6453ZM14.0762 76.5554L14.0762 77.0554H14.5762L14.5762 76.5554H14.0762ZM2.99607 76.5554H2.49607L2.49607 77.0554H2.99607L2.99607 76.5554ZM7.62293 70.0717L7.62293 69.5717H7.12293L7.12293 70.0717H7.62293ZM9.11448 70.0717H9.61448V69.5717H9.11448V70.0717ZM9.11448 75.1856V75.6856H9.61448V75.1856H9.11448ZM7.62293 75.1856H7.12293L7.12293 75.6856H7.62293L7.62293 75.1856ZM2.99607 69.3411L2.99607 68.8411H2.49607L2.49607 69.3411H2.99607ZM4.51807 69.3411H5.01807L5.01807 68.8411H4.51807L4.51807 69.3411ZM4.51807 75.1856L4.51807 75.6856H5.01807L5.01807 75.1856H4.51807ZM2.99607 75.1856H2.49607L2.49607 75.6856H2.99607L2.99607 75.1856ZM12.5618 69.8031H14.0762L14.0762 68.8031H12.5618L12.5618 69.8031ZM13.5762 69.3031L13.5762 75.1856H14.5762L14.5762 69.3031H13.5762ZM14.0762 74.6856H12.5618V75.6856H14.0762V74.6856ZM13.0618 75.1856L13.0618 69.3031H12.0618L12.0618 75.1856H13.0618ZM2.99607 75.1453L14.0762 75.1453L14.0762 74.1453L2.99607 74.1453L2.99607 75.1453ZM13.5762 74.6453L13.5762 76.5554H14.5762L14.5762 74.6453H13.5762ZM14.0762 76.0554L2.99607 76.0554L2.99607 77.0554L14.0762 77.0554L14.0762 76.0554ZM3.49607 76.5554L3.49607 74.6453H2.49607L2.49607 76.5554H3.49607ZM7.62293 70.5717H9.11448L9.11448 69.5717H7.62293L7.62293 70.5717ZM8.61448 70.0717L8.61448 75.1856H9.61448L9.61448 70.0717H8.61448ZM9.11448 74.6856H7.62293L7.62293 75.6856H9.11448V74.6856ZM8.12293 75.1856L8.12293 70.0717H7.12293L7.12293 75.1856H8.12293ZM2.99607 69.8411H4.51807L4.51807 68.8411H2.99607L2.99607 69.8411ZM4.01807 69.3411L4.01807 75.1856H5.01807L5.01807 69.3411H4.01807ZM4.51807 74.6856H2.99607L2.99607 75.6856H4.51807L4.51807 74.6856ZM3.49607 75.1856L3.49607 69.3411H2.49607L2.49607 75.1856H3.49607Z" fill="white"/>
<path d="M14.6137 52.9611C14.3938 52.8997 14.1873 52.8789 13.9941 52.8987C13.8025 52.9136 13.6089 52.9832 13.4134 53.1075C13.2178 53.2318 13.005 53.425 12.7749 53.687C12.5415 53.9428 12.2787 54.2799 11.9866 54.6982C11.6655 55.1558 11.3401 55.5701 11.0101 55.9411C10.6769 56.3058 10.3318 56.6094 9.97478 56.8518C9.61287 57.0927 9.23727 57.2536 8.84799 57.3344C8.45382 57.4138 8.03684 57.3921 7.59706 57.2693C7.16216 57.1479 6.79565 56.9483 6.49752 56.6704C6.20098 56.3876 5.97784 56.0438 5.82812 55.639C5.67509 55.2279 5.60293 54.7737 5.61165 54.2762C5.61548 53.7774 5.70844 53.2509 5.89054 52.6966C6.14706 51.9158 6.51454 51.2843 6.99299 50.8022C7.47303 50.3153 8.00969 49.9889 8.60298 49.8231C9.19786 49.6524 9.79337 49.6502 10.3895 49.8166L9.79811 51.6168C9.44628 51.5186 9.11145 51.5067 8.7936 51.5811C8.47246 51.6493 8.18461 51.811 7.93007 52.0662C7.67711 52.3166 7.47621 52.6683 7.32737 53.1213C7.18645 53.5503 7.13524 53.9254 7.17375 54.2466C7.21226 54.5678 7.32095 54.8297 7.49981 55.0322C7.67867 55.2347 7.9098 55.3755 8.19322 55.4546C8.39357 55.5106 8.59185 55.5159 8.78808 55.4707C8.97942 55.4242 9.17682 55.3267 9.38028 55.1783C9.57886 55.0285 9.78594 54.8285 10.0015 54.5782C10.2171 54.3279 10.4444 54.0257 10.6835 53.6715C11.051 53.1374 11.4135 52.6834 11.771 52.3097C12.1237 51.9345 12.4819 51.6399 12.8456 51.4257C13.2094 51.2115 13.586 51.0799 13.9756 51.0308C14.3603 50.9803 14.7676 51.0151 15.1976 51.1351C15.6472 51.2606 16.0235 51.463 16.3265 51.7423C16.6246 52.0202 16.8461 52.3609 16.9909 52.7644C17.1325 53.1617 17.1956 53.6108 17.1804 54.1117C17.162 54.6065 17.0601 55.1358 16.8748 55.6997C16.7086 56.2058 16.4763 56.6855 16.1779 57.139C15.8812 57.5876 15.5278 57.973 15.1179 58.2953C14.703 58.6163 14.2467 58.8362 13.7489 58.955C13.2462 59.0725 12.7114 59.0522 12.1446 58.8939L12.7407 57.0793C13.0877 57.1761 13.4023 57.2008 13.6846 57.1533C13.9685 57.101 14.2235 56.9907 14.4495 56.8222C14.6707 56.6525 14.8638 56.438 15.029 56.1789C15.1957 55.915 15.3321 55.6216 15.4382 55.2987C15.5775 54.8745 15.6328 54.5032 15.6041 54.1847C15.5769 53.8614 15.4772 53.5968 15.3048 53.3908C15.1324 53.1848 14.902 53.0416 14.6137 52.9611Z" fill="white"/>
<path d="M13.9941 52.8987L14.0155 53.3909L14.0281 53.3896L13.9941 52.8987ZM13.4134 53.1075L13.6785 53.5181L13.4134 53.1075ZM12.7749 53.687L13.1475 54.0074L13.1541 53.9999L12.7749 53.687ZM11.9866 54.6982L12.401 54.9664L12.4016 54.9655L11.9866 54.6982ZM11.0101 55.9411L11.3825 56.2617L11.3872 56.2564L11.0101 55.9411ZM9.97478 56.8518L10.2494 57.2561L10.2533 57.2535L9.97478 56.8518ZM8.84799 57.3344L8.9324 57.8177L8.9354 57.8171L8.84799 57.3344ZM6.49752 56.6704L6.13671 57.0297L6.1406 57.0333L6.49752 56.6704ZM5.82812 55.639L6.3051 55.4562L6.30475 55.4553L5.82812 55.639ZM5.61165 54.2762L6.11784 54.2661L6.11788 54.2614L5.61165 54.2762ZM6.99299 50.8022L7.35031 51.1386L7.35154 51.1374L6.99299 50.8022ZM8.60298 49.8231L8.72545 50.2973L8.72893 50.2963L8.60298 49.8231ZM10.3895 49.8166L10.8711 49.9511L11.0272 49.476L10.5456 49.3416L10.3895 49.8166ZM9.79811 51.6168L9.64205 52.0919L10.1236 52.2263L10.2797 51.7513L9.79811 51.6168ZM8.7936 51.5811L8.88348 52.0634L8.89412 52.0609L8.7936 51.5811ZM7.93007 52.0662L8.28405 52.4059L8.28645 52.4035L7.93007 52.0662ZM7.17375 54.2466L6.6709 54.322L7.17375 54.2466ZM8.78808 55.4707L8.88679 55.951L8.89313 55.9495L8.78808 55.4707ZM9.38028 55.1783L9.67366 55.5696L9.68047 55.5645L9.38028 55.1783ZM10.0015 54.5782L10.3841 54.8873L10.0015 54.5782ZM10.6835 53.6715L10.2664 53.4071L10.2638 53.411L10.6835 53.6715ZM11.771 52.3097L12.1352 52.6391L12.1383 52.6357L11.771 52.3097ZM13.9756 51.0308L14.0219 51.5204L14.0245 51.52L13.9756 51.0308ZM16.3265 51.7423L16.6834 51.3793L16.6814 51.3775L16.3265 51.7423ZM16.9909 52.7644L17.4698 52.5869L17.4694 52.5859L16.9909 52.7644ZM17.1804 54.1117L17.6864 54.1112L17.6865 54.1078L17.1804 54.1117ZM16.1779 57.139L16.6003 57.3954L16.601 57.3944L16.1779 57.139ZM15.1179 58.2953L15.4232 58.6776L15.4265 58.6751L15.1179 58.2953ZM13.7489 58.955L13.8492 59.4349L13.8517 59.4343L13.7489 58.955ZM12.1446 58.8939L11.663 58.7595L11.5069 59.2345L11.9885 59.369L12.1446 58.8939ZM12.7407 57.0793L12.8968 56.6042L12.4152 56.4698L12.2591 56.9448L12.7407 57.0793ZM13.6846 57.1533L13.7523 57.6398L13.7604 57.6383L13.6846 57.1533ZM14.4495 56.8222L14.7473 57.2104L14.7534 57.2057L14.4495 56.8222ZM15.029 56.1789L15.4562 56.428L15.4573 56.4263L15.029 56.1789ZM15.6041 54.1847L15.0995 54.2433L15.0998 54.2463L15.6041 54.1847ZM14.7698 52.4861C14.5002 52.4109 14.2287 52.3802 13.9601 52.4077L14.0281 53.3896C14.1459 53.3776 14.2874 53.3886 14.4577 53.4362L14.7698 52.4861ZM13.9727 52.4066C13.6793 52.4294 13.4029 52.5351 13.1482 52.697L13.6785 53.5181C13.815 53.4313 13.9257 53.3978 14.0155 53.3908L13.9727 52.4066ZM13.1482 52.697C12.8943 52.8584 12.6437 53.0916 12.3957 53.3741L13.1541 53.9999C13.3663 53.7583 13.5414 53.6052 13.6785 53.5181L13.1482 52.697ZM12.4023 53.3666C12.1482 53.6451 11.8711 54.002 11.5715 54.4309L12.4016 54.9655C12.6863 54.5578 12.9348 54.2405 13.1475 54.0073L12.4023 53.3666ZM11.5722 54.43C11.2612 54.8733 10.948 55.2716 10.6331 55.6257L11.3872 56.2564C11.7321 55.8687 12.0699 55.4383 12.401 54.9664L11.5722 54.43ZM10.6378 55.6205C10.3284 55.9592 10.0141 56.2342 9.69621 56.45L10.2533 57.2535C10.6495 56.9846 11.0255 56.6525 11.3825 56.2616L10.6378 55.6205ZM9.70015 56.4474C9.38996 56.6539 9.07739 56.7859 8.76058 56.8517L8.9354 57.8171C9.39716 57.7213 9.83578 57.5316 10.2494 57.2561L9.70015 56.4474ZM8.76358 56.8511C8.46155 56.9119 8.12751 56.8988 7.75311 56.7943L7.441 57.7444C7.94617 57.8854 8.44608 57.9157 8.9324 57.8177L8.76358 56.8511ZM7.75311 56.7943C7.38712 56.6921 7.09135 56.5283 6.85444 56.3074L6.1406 57.0333C6.49995 57.3683 6.9372 57.6037 7.441 57.7444L7.75311 56.7943ZM6.85831 56.3111C6.61651 56.0805 6.43154 55.7981 6.3051 55.4562L5.35113 55.8217C5.52415 56.2896 5.78545 56.6947 6.13673 57.0296L6.85831 56.3111ZM6.30475 55.4553C6.17467 55.1059 6.11001 54.7113 6.11782 54.2661L5.10548 54.2863C5.09585 54.836 5.1755 55.35 5.35148 55.8227L6.30475 55.4553ZM6.11788 54.2614C6.12127 53.8201 6.20357 53.3441 6.37213 52.831L5.40895 52.5621C5.21332 53.1576 5.1097 53.7348 5.10542 54.2911L6.11788 54.2614ZM6.37213 52.831C6.60953 52.1084 6.94047 51.5516 7.35031 51.1386L6.63568 50.4658C6.08861 51.0171 5.68458 51.7231 5.40895 52.5621L6.37213 52.831ZM7.35154 51.1374C7.77402 50.7088 8.23133 50.4354 8.72545 50.2972L8.48051 49.3489C7.78805 49.5425 7.17203 49.9218 6.63444 50.4671L7.35154 51.1374ZM8.72893 50.2963C9.2289 50.1528 9.72663 50.1502 10.2335 50.2916L10.5456 49.3416C9.86011 49.1503 9.16681 49.1519 8.47703 49.3498L8.72893 50.2963ZM9.90793 49.6822L9.31652 51.4824L10.2797 51.7513L10.8711 49.9511L9.90793 49.6822ZM9.95416 51.1418C9.53129 51.0238 9.10767 51.0043 8.69308 51.1013L8.89412 52.0609C9.11522 52.0092 9.36127 52.0135 9.64205 52.0919L9.95416 51.1418ZM8.70375 51.0989C8.27189 51.1906 7.89353 51.4082 7.5737 51.7289L8.28645 52.4035C8.4757 52.2138 8.67302 52.108 8.88346 52.0633L8.70375 51.0989ZM7.5761 51.7265C7.24716 52.052 7.01112 52.4836 6.84578 52.9869L7.80896 53.2558C7.94131 52.8529 8.10707 52.5811 8.28404 52.4059L7.5761 51.7265ZM6.84578 52.9869C6.69028 53.4602 6.62148 53.9098 6.6709 54.322L7.6766 54.1712C7.649 53.941 7.68261 53.6404 7.80896 53.2558L6.84578 52.9869ZM6.6709 54.322C6.71856 54.7195 6.85778 55.0756 7.11097 55.3623L7.88865 54.702C7.78412 54.5837 7.70597 54.4161 7.6766 54.1712L6.6709 54.322ZM7.11097 55.3623C7.35513 55.6388 7.66917 55.8269 8.03716 55.9297L8.34928 54.9796C8.15043 54.9241 8.0022 54.8306 7.88865 54.702L7.11097 55.3623ZM8.03716 55.9297C8.31527 56.0073 8.60124 56.0168 8.88678 55.951L8.68938 54.9905C8.58247 55.0151 8.47186 55.0138 8.34928 54.9796L8.03716 55.9297ZM8.89313 55.9495C9.16817 55.8826 9.42871 55.7482 9.67362 55.5696L9.08694 54.7869C8.92493 54.9051 8.79067 54.9658 8.68302 54.992L8.89313 55.9495ZM9.68047 55.5645C9.91733 55.3859 10.1515 55.1572 10.3841 54.8873L9.61898 54.2691C9.42033 54.4997 9.24038 54.6711 9.08009 54.792L9.68047 55.5645ZM10.3841 54.8873C10.6163 54.6177 10.8559 54.2983 11.1032 53.9319L10.2638 53.411C10.0329 53.753 9.81795 54.0381 9.61898 54.2691L10.3841 54.8873ZM11.1006 53.9358C11.4561 53.4191 11.8013 52.9881 12.1351 52.6391L11.4069 51.9802C11.0258 52.3787 10.6459 52.8557 10.2664 53.4071L11.1006 53.9358ZM12.1383 52.6357C12.4639 52.2893 12.7835 52.0293 13.0952 51.8458L12.5961 51.0056C12.1802 51.2505 11.7834 51.5797 11.4038 51.9836L12.1383 52.6357ZM13.0952 51.8458C13.4008 51.6658 13.7087 51.5598 14.0219 51.5204L13.9293 50.5412C13.4634 50.5999 13.0179 50.7572 12.5961 51.0056L13.0952 51.8458ZM14.0245 51.52C14.3293 51.48 14.6665 51.5055 15.0416 51.6102L15.3537 50.6601C14.8687 50.5247 14.3912 50.4806 13.9267 50.5416L14.0245 51.52ZM15.0416 51.6102C15.4248 51.7171 15.7306 51.885 15.9715 52.107L16.6814 51.3775C16.3164 51.0411 15.8695 50.8041 15.3537 50.6601L15.0416 51.6102ZM15.9696 52.1052C16.2098 52.3292 16.3913 52.6057 16.5124 52.9429L17.4694 52.5859C17.3008 52.1161 17.0394 51.7112 16.6834 51.3794L15.9696 52.1052ZM16.512 52.9419C16.6307 53.275 16.6881 53.6639 16.6744 54.1157L17.6865 54.1078C17.7031 53.5578 17.6342 53.0485 17.4698 52.5869L16.512 52.9419ZM16.6745 54.1123C16.658 54.5539 16.5666 55.0374 16.3932 55.5653L17.3564 55.8341C17.5535 55.2341 17.6659 54.659 17.6864 54.1112L16.6745 54.1123ZM16.3932 55.5653C16.241 56.0285 16.0285 56.4677 15.7548 56.8836L16.601 57.3944C16.924 56.9034 17.1761 56.383 17.3564 55.8341L16.3932 55.5653ZM15.7555 56.8825C15.4884 57.2864 15.173 57.6297 14.8092 57.9156L15.4265 58.6751C15.8827 58.3164 16.274 57.8888 16.6003 57.3954L15.7555 56.8825ZM14.8125 57.9131C14.4561 58.1888 14.0687 58.3749 13.6461 58.4758L13.8517 59.4343C14.4247 59.2975 14.95 59.0438 15.4232 58.6776L14.8125 57.9131ZM13.6485 58.4752C13.244 58.5697 12.7982 58.5578 12.3006 58.4189L11.9885 59.369C12.6246 59.5465 13.2483 59.5754 13.8492 59.4349L13.6485 58.4752ZM12.6261 59.0284L13.2223 57.2137L12.2591 56.9448L11.663 58.7595L12.6261 59.0284ZM12.5847 57.5543C12.9842 57.6658 13.3769 57.7029 13.7523 57.6397L13.6169 56.6669C13.4277 56.6987 13.1911 56.6864 12.8968 56.6042L12.5847 57.5543ZM13.7604 57.6383C14.1222 57.5717 14.4537 57.429 14.7472 57.2104L14.1519 56.4341C13.9933 56.5523 13.8148 56.6304 13.6088 56.6683L13.7604 57.6383ZM14.7534 57.2057C15.0285 56.9945 15.2619 56.7327 15.4561 56.428L14.6018 55.9298C14.4657 56.1433 14.3129 56.3104 14.1457 56.4388L14.7534 57.2057ZM15.4573 56.4263C15.6485 56.1235 15.802 55.7916 15.9198 55.4331L14.9566 55.1642C14.8622 55.4516 14.7429 55.7065 14.6007 55.9316L15.4573 56.4263ZM15.9198 55.4331C16.0727 54.9675 16.1448 54.5269 16.1084 54.1232L15.0998 54.2463C15.1208 54.4795 15.0823 54.7815 14.9566 55.1642L15.9198 55.4331ZM16.1087 54.1261C16.075 53.7259 15.9478 53.3641 15.7018 53.0701L14.9078 53.7115C15.0066 53.8295 15.0788 53.997 15.0995 54.2433L16.1087 54.1261ZM15.7018 53.0701C15.4617 52.7833 15.1442 52.5906 14.7698 52.4861L14.4577 53.4362C14.6599 53.4926 14.8031 53.5863 14.9078 53.7115L15.7018 53.0701Z" fill="white"/>
<path d="M13.9111 36.3345L23.6138 41.6848L22.574 43.287L12.8713 37.9367L13.9111 36.3345Z" fill="white"/>
<path d="M13.9111 36.3345L14.1833 35.915L13.7455 35.6736L13.4733 36.093L13.9111 36.3345ZM23.6138 41.6848L24.0517 41.9262L24.3239 41.5068L23.886 41.2653L23.6138 41.6848ZM22.574 43.287L22.3019 43.7065L22.7397 43.9479L23.0119 43.5285L22.574 43.287ZM12.8713 37.9367L12.4335 37.6953L12.1613 38.1147L12.5991 38.3562L12.8713 37.9367ZM13.6389 36.7539L23.3416 42.1042L23.886 41.2653L14.1833 35.915L13.6389 36.7539ZM23.176 41.4433L22.1362 43.0456L23.0119 43.5285L24.0517 41.9262L23.176 41.4433ZM22.8462 42.8676L13.1435 37.5173L12.5991 38.3562L22.3019 43.7065L22.8462 42.8676ZM13.3092 38.1782L14.349 36.5759L13.4733 36.093L12.4335 37.6953L13.3092 38.1782Z" fill="white"/>
<path d="M31.992 24.302L35.0785 27.1962C35.1137 27.4441 35.0979 27.7655 35.0311 28.1603C34.9644 28.5483 34.7928 28.987 34.5163 29.4764C34.2398 29.9658 33.7989 30.4847 33.1937 31.0332C32.6786 31.4999 32.1217 31.8476 31.5229 32.0764C30.9204 32.3016 30.2966 32.3995 29.6515 32.3699C29.0102 32.3369 28.3662 32.1733 27.7196 31.8789C27.0693 31.5811 26.437 31.1442 25.8227 30.5681L25.262 30.0424C24.6514 29.4698 24.1844 28.8898 23.8612 28.3025C23.538 27.7083 23.3564 27.1222 23.3166 26.5441C23.2768 25.9661 23.3785 25.4099 23.6218 24.8755C23.8651 24.3343 24.25 23.8252 24.7763 23.3482C25.4492 22.7384 26.1166 22.3384 26.7785 22.148C27.4405 21.9507 28.086 21.9253 28.7152 22.0716C29.3444 22.218 29.9408 22.4964 30.5043 22.907L29.1171 24.1641C28.7907 23.9412 28.4507 23.7853 28.0971 23.6963C27.7472 23.6039 27.3891 23.6078 27.0226 23.7078C26.6563 23.801 26.2832 24.0196 25.9035 24.3637C25.5765 24.66 25.3499 24.9779 25.2239 25.3173C25.0979 25.6566 25.0707 26.0123 25.1421 26.3843C25.2173 26.7529 25.3838 27.1343 25.6416 27.5285C25.8993 27.9227 26.2466 28.3245 26.6833 28.734L27.255 29.2702C27.6991 29.6866 28.1403 30.0136 28.5784 30.2511C29.0203 30.4853 29.4499 30.6317 29.8672 30.6902C30.2883 30.7454 30.6915 30.711 31.0768 30.5871C31.4583 30.4596 31.8146 30.246 32.1454 29.9462C32.4687 29.6533 32.7078 29.3888 32.8628 29.1529C33.014 28.9134 33.1128 28.7045 33.1591 28.5261C33.2054 28.3408 33.2273 28.1845 33.2246 28.0573L31.6203 26.5529L29.9117 28.1013L28.8736 27.1279L31.992 24.302Z" fill="white"/>
<path d="M31.992 24.302L32.3625 23.9663L31.9978 23.6243L31.6273 23.96L31.992 24.302ZM35.0785 27.1962L35.594 27.1346L35.5714 26.9752L35.449 26.8604L35.0785 27.1962ZM35.0311 28.1603L35.5446 28.236L35.5448 28.2348L35.0311 28.1603ZM31.5229 32.0764L31.7189 32.5206L31.7225 32.5192L31.5229 32.0764ZM29.6515 32.3699L29.6233 32.8485L29.6264 32.8486L29.6515 32.3699ZM27.7196 31.8789L27.4888 32.3081L27.4899 32.3086L27.7196 31.8789ZM23.8612 28.3025L23.3965 28.5168L23.3976 28.5189L23.8612 28.3025ZM23.6218 24.8755L24.1012 25.0615L24.1021 25.0595L23.6218 24.8755ZM26.7785 22.148L26.934 22.6055L26.939 22.604L26.7785 22.148ZM30.5043 22.907L30.869 23.249L31.2891 22.8683L30.8263 22.5312L30.5043 22.907ZM29.1171 24.1641L28.808 24.549L29.1652 24.793L29.4818 24.5061L29.1171 24.1641ZM28.0971 23.6963L27.9545 24.1571L27.9608 24.1587L28.0971 23.6963ZM27.0226 23.7078L27.1616 24.1699L27.1709 24.1673L27.0226 23.7078ZM25.1421 26.3843L24.6301 26.4672L24.6312 26.4722L25.1421 26.3843ZM25.6416 27.5285L25.1964 27.7755L25.6416 27.5285ZM28.5784 30.2511L28.3153 30.6642L28.3198 30.6666L28.5784 30.2511ZM29.8672 30.6902L29.7897 31.1641L29.7948 31.1647L29.8672 30.6902ZM31.0768 30.5871L31.2487 31.0396L31.2544 31.0377L31.0768 30.5871ZM32.8628 29.1529L33.3077 29.4015L33.3121 29.3945L32.8628 29.1529ZM33.1591 28.5261L33.6648 28.6382L33.6657 28.6344L33.1591 28.5261ZM33.2246 28.0573L33.7444 28.0488L33.7405 27.8578L33.5951 27.7215L33.2246 28.0573ZM31.6203 26.5529L31.9908 26.2172L31.6261 25.8752L31.2556 26.2109L31.6203 26.5529ZM29.9117 28.1013L29.5412 28.437L29.9059 28.779L30.2764 28.4433L29.9117 28.1013ZM28.8736 27.1279L28.5089 26.7859L28.1384 27.1216L28.5031 27.4636L28.8736 27.1279ZM31.6215 24.6378L34.708 27.5319L35.449 26.8604L32.3625 23.9663L31.6215 24.6378ZM34.563 27.2577C34.5891 27.4417 34.5805 27.7125 34.5174 28.0859L35.5448 28.2348C35.6152 27.8184 35.6383 27.4464 35.594 27.1346L34.563 27.2577ZM34.5176 28.0847C34.4624 28.4056 34.3153 28.7939 34.0551 29.2546L34.9775 29.6983C35.2702 29.1801 35.4664 28.6911 35.5446 28.236L34.5176 28.0847ZM34.0551 29.2546C33.8118 29.6852 33.4103 30.1644 32.8289 30.6912L33.5584 31.3752C34.1876 30.805 34.6678 30.2464 34.9775 29.6983L34.0551 29.2546ZM32.8289 30.6912C32.356 31.1198 31.8539 31.4309 31.3233 31.6336L31.7225 32.5192C32.3895 32.2644 33.0013 31.8801 33.5584 31.3752L32.8289 30.6912ZM31.3269 31.6322C30.794 31.8315 30.2456 31.9173 29.6766 31.8912L29.6264 32.8486C30.3476 32.8816 31.0468 32.7718 31.7189 32.5205L31.3269 31.6322ZM29.6797 31.8914C29.1165 31.8624 28.5407 31.7185 27.9493 31.4493L27.4899 32.3086C28.1917 32.6281 28.9038 32.8115 29.6233 32.8484L29.6797 31.8914ZM27.9504 31.4498C27.3615 31.18 26.7751 30.778 26.1932 30.2324L25.4522 30.9038C26.099 31.5104 26.7772 31.9822 27.4888 32.3081L27.9504 31.4498ZM26.1932 30.2324L25.6325 29.7066L24.8915 30.3781L25.4522 30.9038L26.1932 30.2324ZM25.6325 29.7066C25.0515 29.1618 24.6192 28.6211 24.3248 28.0861L23.3976 28.5189C23.7497 29.1585 24.2513 29.7778 24.8915 30.3781L25.6325 29.7066ZM24.3259 28.0881C24.0294 27.5431 23.8703 27.0194 23.8355 26.5144L22.7977 26.5738C22.8426 27.2249 23.0465 27.8735 23.3965 28.5168L24.3259 28.0881ZM23.8355 26.5144C23.8007 26.0102 23.8889 25.5278 24.1012 25.0615L23.1423 24.6895C22.8681 25.2919 22.7528 25.9219 22.7977 26.5738L23.8355 26.5144ZM24.1021 25.0595C24.3149 24.5864 24.6564 24.1294 25.141 23.6902L24.4115 23.0062C23.8435 23.521 23.4154 24.0822 23.1414 24.6915L24.1021 25.0595ZM25.141 23.6902C25.7753 23.1154 26.374 22.7666 26.934 22.6055L26.623 21.6905C25.8592 21.9101 25.1231 22.3615 24.4115 23.0062L25.141 23.6902ZM26.939 22.604C27.5152 22.4324 28.0612 22.4136 28.5887 22.5363L28.8418 21.6069C28.1109 21.437 27.3658 21.4691 26.618 21.6919L26.939 22.604ZM28.5887 22.5363C29.1394 22.6644 29.6702 22.9098 30.1822 23.2828L30.8263 22.5312C30.2113 22.0831 29.5494 21.7715 28.8418 21.6069L28.5887 22.5363ZM30.1395 22.565L28.7523 23.8221L29.4818 24.5061L30.869 23.249L30.1395 22.565ZM29.4262 23.7791C29.0535 23.5246 28.6556 23.3402 28.2333 23.234L27.9608 24.1587C28.2458 24.2304 28.5279 24.3578 28.808 24.549L29.4262 23.7791ZM28.2396 23.2356C27.7897 23.1168 27.3305 23.1237 26.8743 23.2482L27.1709 24.1673C27.4476 24.0918 27.7047 24.0911 27.9545 24.157L28.2396 23.2356ZM26.8837 23.2458C26.4048 23.3675 25.9575 23.6422 25.5388 24.0216L26.2683 24.7057C26.6089 24.397 26.9077 24.2344 27.1615 24.1698L26.8837 23.2458ZM25.5388 24.0216C25.1645 24.3609 24.8884 24.7402 24.732 25.1615L25.7159 25.473C25.8114 25.2156 25.9885 24.9592 26.2683 24.7057L25.5388 24.0216ZM24.732 25.1615C24.576 25.5816 24.5442 26.0197 24.6302 26.4672L25.6541 26.3014C25.5971 26.0049 25.6199 25.7316 25.7159 25.473L24.732 25.1615ZM24.6312 26.4722C24.7201 26.9081 24.9136 27.343 25.1964 27.7755L26.0867 27.2815C25.854 26.9255 25.7145 26.5976 25.6531 26.2963L24.6312 26.4722ZM25.1964 27.7755C25.4796 28.2086 25.8542 28.6398 26.3128 29.0698L27.0538 28.3983C26.6389 28.0093 26.319 27.6367 26.0867 27.2815L25.1964 27.7755ZM26.3128 29.0698L26.8845 29.6059L27.6255 28.9344L27.0538 28.3983L26.3128 29.0698ZM26.8845 29.6059C27.3531 30.0453 27.8296 30.4008 28.3153 30.6642L28.8415 29.8381C28.4509 29.6263 28.0451 29.3279 27.6255 28.9344L26.8845 29.6059ZM28.3198 30.6666C28.8064 30.9244 29.2969 31.0949 29.7897 31.164L29.9448 30.2164C29.6029 30.1684 29.2343 30.0462 28.837 29.8357L28.3198 30.6666ZM29.7948 31.1647C30.2945 31.2302 30.7817 31.1898 31.2487 31.0396L30.9048 30.1345C30.6012 30.2322 30.2821 30.2606 29.9397 30.2157L29.7948 31.1647ZM31.2544 31.0377C31.7155 30.8837 32.1337 30.6293 32.5101 30.2883L31.7806 29.6042C31.4954 29.8627 31.2012 30.0355 30.8991 30.1364L31.2544 31.0377ZM32.5101 30.2883C32.8502 29.9801 33.122 29.6842 33.3076 29.4015L32.4179 28.9042C32.2937 29.0934 32.0872 29.3264 31.7806 29.6042L32.5101 30.2883ZM33.3121 29.3945C33.4773 29.133 33.6023 28.879 33.6647 28.6382L32.6534 28.414C32.6233 28.5301 32.5507 28.6938 32.4134 28.9112L33.3121 29.3945ZM33.6657 28.6344C33.7174 28.4277 33.7482 28.2295 33.7444 28.0488L32.7048 28.0658C32.7063 28.1396 32.6934 28.2539 32.6524 28.4178L33.6657 28.6344ZM33.5951 27.7215L31.9908 26.2172L31.2498 26.8887L32.8541 28.393L33.5951 27.7215ZM31.2556 26.2109L29.5469 27.7593L30.2764 28.4433L31.9851 26.8949L31.2556 26.2109ZM30.2822 27.7655L29.2441 26.7921L28.5031 27.4636L29.5412 28.437L30.2822 27.7655ZM29.2383 27.4699L32.3567 24.644L31.6273 23.96L28.5089 26.7859L29.2383 27.4699Z" fill="white"/>
<path d="M47.7066 8.9069L53.0846 18.5943L51.3571 19.4092L43.0102 14.5898L46.8627 21.5293L45.1352 22.3442L39.7572 12.6568L41.4847 11.8419L49.8527 16.6682L45.9928 9.71533L47.7066 8.9069Z" fill="white"/>
<path d="M47.7066 8.9069L48.1588 8.69358L47.9161 8.25642L47.4639 8.46974L47.7066 8.9069ZM53.0846 18.5943L53.3273 19.0314L53.7795 18.8181L53.5368 18.381L53.0846 18.5943ZM51.3571 19.4092L51.1026 19.822L51.3494 19.9645L51.5998 19.8464L51.3571 19.4092ZM43.0102 14.5898L43.2647 14.177L41.713 13.2811L42.558 14.8031L43.0102 14.5898ZM46.8627 21.5293L47.1054 21.9665L47.5576 21.7531L47.3149 21.316L46.8627 21.5293ZM45.1352 22.3442L44.683 22.5575L44.9257 22.9947L45.3779 22.7814L45.1352 22.3442ZM39.7572 12.6568L39.5145 12.2197L39.0623 12.433L39.305 12.8702L39.7572 12.6568ZM41.4847 11.8419L41.739 11.429L41.4923 11.2867L41.242 11.4048L41.4847 11.8419ZM49.8527 16.6682L49.5985 17.0811L51.1491 17.9754L50.3049 16.4548L49.8527 16.6682ZM45.9928 9.71533L45.7501 9.27817L45.2979 9.49149L45.5406 9.92865L45.9928 9.71533ZM47.2544 9.12022L52.6324 18.8076L53.5368 18.381L48.1588 8.69358L47.2544 9.12022ZM52.8419 18.1571L51.1144 18.9721L51.5998 19.8464L53.3273 19.0314L52.8419 18.1571ZM51.6116 18.9964L43.2647 14.177L42.7557 15.0026L51.1026 19.822L51.6116 18.9964ZM42.558 14.8031L46.4105 21.7426L47.3149 21.316L43.4624 14.3765L42.558 14.8031ZM46.62 21.0922L44.8925 21.9071L45.3779 22.7814L47.1054 21.9665L46.62 21.0922ZM45.5874 22.1309L40.2094 12.4435L39.305 12.8702L44.683 22.5575L45.5874 22.1309ZM39.9999 13.094L41.7274 12.2791L41.242 11.4048L39.5145 12.2197L39.9999 13.094ZM41.2304 12.2548L49.5985 17.0811L50.107 16.2552L41.739 11.429L41.2304 12.2548ZM50.3049 16.4548L46.445 9.50201L45.5406 9.92865L49.4005 16.8815L50.3049 16.4548ZM46.2355 10.1525L47.9493 9.34405L47.4639 8.46974L45.7501 9.27817L46.2355 10.1525Z" fill="white"/>
<path d="M80.3457 11.3511C80.3499 11.1228 80.3182 10.9194 80.2504 10.7407C80.1878 10.5621 80.0716 10.3979 79.9018 10.2481C79.7321 10.0983 79.4912 9.95244 79.1793 9.81053C78.8725 9.66363 78.4795 9.51283 78.0003 9.35814C77.4758 9.18751 76.9921 8.99977 76.5494 8.79491C76.1118 8.58506 75.7306 8.34565 75.4058 8.07669C75.0811 7.80266 74.8306 7.49174 74.6544 7.14394C74.4782 6.79106 74.3944 6.38637 74.4029 5.92985C74.4112 5.4784 74.5127 5.06901 74.7072 4.70168C74.9069 4.33443 75.1842 4.01914 75.5392 3.75582C75.8994 3.4875 76.3218 3.28359 76.8064 3.14408C77.2911 2.9995 77.8252 2.9318 78.4085 2.941C79.2303 2.95394 79.9351 3.11726 80.523 3.43096C81.1159 3.74474 81.5674 4.1603 81.8775 4.67765C82.1926 5.19508 82.3445 5.76321 82.333 6.38205L80.4384 6.3522C80.4451 5.98699 80.3725 5.66365 80.2204 5.38219C80.0735 5.09573 79.8443 4.86887 79.5328 4.7016C79.2264 4.5344 78.8347 4.44705 78.3579 4.43954C77.9064 4.43243 77.5298 4.49499 77.2279 4.62723C76.9261 4.75947 76.6995 4.9411 76.5481 5.17211C76.3966 5.40313 76.3182 5.66574 76.3127 5.95994C76.3089 6.16791 76.3535 6.35888 76.4467 6.53286C76.54 6.70177 76.6842 6.86134 76.8793 7.01155C77.0745 7.1567 77.3206 7.29503 77.6175 7.42656C77.9144 7.55808 78.2647 7.68538 78.6684 7.80844C79.2788 8.00071 79.8102 8.21204 80.2626 8.44242C80.7151 8.66773 81.0909 8.92227 81.3901 9.20605C81.6893 9.48983 81.9117 9.81045 82.0573 10.1679C82.203 10.5203 82.2717 10.9197 82.2634 11.3661C82.2548 11.8327 82.1531 12.2523 81.9585 12.6247C81.7639 12.992 81.4892 13.3048 81.1343 13.5631C80.7845 13.8163 80.3649 14.0101 79.8753 14.1445C79.3908 14.2738 78.8518 14.3338 78.2583 14.3245C77.7257 14.3161 77.202 14.2368 76.6872 14.0866C76.1775 13.9365 75.7148 13.7136 75.2992 13.4178C74.8836 13.117 74.5556 12.7465 74.3151 12.3064C74.0747 11.8612 73.96 11.3443 73.9709 10.7559L75.8807 10.786C75.8741 11.1462 75.9292 11.454 76.0463 11.7096C76.1684 11.9652 76.3396 12.1759 76.5597 12.3417C76.78 12.5025 77.0366 12.6232 77.3294 12.704C77.6272 12.7848 77.9461 12.8278 78.286 12.8332C78.7324 12.8402 79.1064 12.7827 79.408 12.6606C79.7148 12.5386 79.9463 12.3646 80.1027 12.1388C80.2591 11.9129 80.3401 11.6504 80.3457 11.3511Z" fill="white"/>
<path d="M80.2504 10.7407L79.7784 10.9074L79.7828 10.9191L80.2504 10.7407ZM79.9018 10.2481L79.5703 10.6234L79.9018 10.2481ZM79.1793 9.81053L78.9622 10.2617L78.9712 10.2657L79.1793 9.81053ZM78.0003 9.35814L77.8444 9.83363L77.8455 9.83397L78.0003 9.35814ZM76.5494 8.79491L76.3321 9.24587L76.3384 9.24876L76.5494 8.79491ZM75.4058 8.07669L75.0827 8.45918L75.0863 8.46214L75.4058 8.07669ZM74.6544 7.14394L74.2068 7.3682L74.2082 7.37088L74.6544 7.14394ZM74.7072 4.70168L74.268 4.46385L74.2655 4.46865L74.7072 4.70168ZM75.5392 3.75582L75.8364 4.15708L75.8372 4.15645L75.5392 3.75582ZM76.8064 3.14408L76.9435 3.62454L76.9481 3.62316L76.8064 3.14408ZM80.523 3.43096L80.2866 3.8722L80.2881 3.87301L80.523 3.43096ZM81.8775 4.67765L81.4484 4.93555L81.4502 4.93858L81.8775 4.67765ZM82.333 6.38205L82.3237 6.88196L82.8237 6.88984L82.8329 6.38993L82.333 6.38205ZM80.4384 6.3522L79.9384 6.34432L79.9291 6.84424L80.4291 6.85212L80.4384 6.3522ZM80.2204 5.38219L79.7752 5.61137L79.7803 5.62079L80.2204 5.38219ZM79.5328 4.7016L79.2923 5.14065L79.2952 5.14222L79.5328 4.7016ZM77.2279 4.62723L77.0283 4.16938L77.2279 4.62723ZM76.4467 6.53286L76.0057 6.76988L76.0088 6.77548L76.4467 6.53286ZM76.8793 7.01155L76.5735 7.40807L76.5802 7.41305L76.8793 7.01155ZM77.6175 7.42656L77.4139 7.88378L77.6175 7.42656ZM78.6684 7.80844L78.8198 7.33151L78.8154 7.33016L78.6684 7.80844ZM80.2626 8.44242L80.0347 8.8881L80.0387 8.8901L80.2626 8.44242ZM82.0573 10.1679L81.5941 10.3576L81.5951 10.36L82.0573 10.1679ZM81.9585 12.6247L82.4002 12.8577L82.4015 12.8553L81.9585 12.6247ZM81.1343 13.5631L81.4268 13.9677L81.4278 13.967L81.1343 13.5631ZM79.8753 14.1445L80.003 14.6275L80.0063 14.6266L79.8753 14.1445ZM76.6872 14.0866L76.5447 14.5663L76.5459 14.5666L76.6872 14.0866ZM75.2992 13.4178L75.0052 13.8231L75.0085 13.8255L75.2992 13.4178ZM74.3151 12.3064L73.8749 12.5448L73.8761 12.547L74.3151 12.3064ZM73.9709 10.7559L73.9801 10.256L73.4802 10.2482L73.4709 10.7481L73.9709 10.7559ZM75.8807 10.786L76.3807 10.7939L76.3899 10.294L75.89 10.2861L75.8807 10.786ZM76.0463 11.7096L75.5915 11.9188L75.595 11.9261L76.0463 11.7096ZM76.5597 12.3417L76.2582 12.7415L76.2642 12.7459L76.5597 12.3417ZM77.3294 12.704L77.1952 13.186L77.1972 13.1865L77.3294 12.704ZM79.408 12.6606L79.2243 12.1961L79.2215 12.1972L79.408 12.6606ZM80.8456 11.359C80.8508 11.0792 80.8122 10.8107 80.7181 10.5624L79.7828 10.9191C79.8241 11.028 79.849 11.1665 79.8457 11.3432L80.8456 11.359ZM80.7223 10.574C80.6264 10.3006 80.4544 10.068 80.2333 9.87289L79.5703 10.6234C79.6888 10.7279 79.7492 10.8237 79.7785 10.9074L80.7223 10.574ZM80.2333 9.87289C80.0129 9.67832 79.7237 9.50832 79.3874 9.35534L78.9712 10.2657C79.2588 10.3966 79.4513 10.5183 79.5703 10.6234L80.2333 9.87289ZM79.3963 9.35948C79.0623 9.19956 78.6465 9.04094 78.1551 8.88231L77.8455 9.83397C78.3125 9.98473 78.6827 10.1277 78.9623 10.2616L79.3963 9.35948ZM78.1562 8.88265C77.6481 8.71736 77.1831 8.53663 76.7604 8.34106L76.3384 9.24876C76.8012 9.46291 77.3035 9.65766 77.8444 9.83363L78.1562 8.88265ZM76.7667 8.34399C76.3604 8.14915 76.0146 7.93076 75.7253 7.69125L75.0863 8.46214C75.4466 8.76055 75.8633 9.02097 76.3321 9.24583L76.7667 8.34399ZM75.7289 7.69423C75.4506 7.45935 75.2439 7.20005 75.1005 6.917L74.2082 7.37088C74.4172 7.78344 74.7115 8.14597 75.0827 8.45916L75.7289 7.69423ZM75.1019 6.91968C74.9669 6.64929 74.8956 6.32637 74.9028 5.93772L73.9029 5.92197C73.8932 6.44637 73.9895 6.93284 74.2068 7.3682L75.1019 6.91968ZM74.9028 5.93772C74.9098 5.55781 74.9944 5.22661 75.149 4.93472L74.2655 4.46865C74.031 4.91141 73.9126 5.399 73.9029 5.92197L74.9028 5.93772ZM75.1464 4.9395C75.3092 4.64004 75.5366 4.37944 75.8364 4.15707L75.242 3.35456C74.8318 3.65885 74.5046 4.02882 74.2681 4.46387L75.1464 4.9395ZM75.8372 4.15645C76.1434 3.92838 76.5097 3.74938 76.9435 3.62451L76.6693 2.66365C76.1338 2.8178 75.6554 3.04662 75.2412 3.35519L75.8372 4.15645ZM76.9481 3.62316C77.3769 3.49525 77.8592 3.4324 78.3992 3.44091L78.4178 2.44108C77.7911 2.43121 77.2053 2.50375 76.6647 2.665L76.9481 3.62316ZM78.3992 3.44091C79.1598 3.45289 79.783 3.60349 80.2866 3.8722L80.7593 2.98972C80.0872 2.63104 79.3008 2.45499 78.4178 2.44108L78.3992 3.44091ZM80.2881 3.87301C80.8099 4.14916 81.1901 4.50467 81.4484 4.93554L82.3066 4.41976C81.9447 3.81593 81.4218 3.34031 80.7578 2.98891L80.2881 3.87301ZM81.4502 4.93858C81.7151 5.37345 81.8428 5.84805 81.8331 6.37417L82.8329 6.38993C82.8461 5.67838 82.6702 5.0167 82.3047 4.41672L81.4502 4.93858ZM82.3423 5.88214L80.4476 5.85229L80.4291 6.85212L82.3237 6.88196L82.3423 5.88214ZM80.9383 6.36008C80.9464 5.92111 80.8588 5.51071 80.6605 5.14358L79.7803 5.62079C79.8861 5.81658 79.9438 6.05286 79.9384 6.34432L80.9383 6.36008ZM80.6655 5.15306C80.4679 4.76786 80.1617 4.47115 79.7703 4.26098L79.2952 5.14222C79.5268 5.26659 79.6791 5.42361 79.7753 5.61131L80.6655 5.15306ZM79.7732 4.26256C79.3748 4.04515 78.8968 3.94797 78.3672 3.93963L78.3486 4.93945C78.7726 4.94613 79.0779 5.02366 79.2923 5.14064L79.7732 4.26256ZM78.3672 3.93963C77.869 3.93178 77.4157 3.99967 77.0283 4.16938L77.4276 5.08508C77.6439 4.99031 77.9438 4.93308 78.3486 4.93945L78.3672 3.93963ZM77.0283 4.16938C76.6549 4.33301 76.3445 4.57183 76.1301 4.89885L76.966 5.44538C77.0545 5.31037 77.1974 5.18593 77.4276 5.08508L77.0283 4.16938ZM76.1301 4.89885C75.9234 5.21421 75.8199 5.57007 75.8128 5.95206L76.8127 5.96781C76.8165 5.7614 76.8699 5.59205 76.966 5.44538L76.1301 4.89885ZM75.8128 5.95206C75.8074 6.24075 75.8702 6.51669 76.0058 6.76986L76.8877 6.29587C76.8369 6.20108 76.8103 6.09507 76.8127 5.96781L75.8128 5.95206ZM76.0088 6.77548C76.1429 7.01827 76.3387 7.2272 76.5735 7.40802L77.185 6.61509C77.0297 6.49548 76.9371 6.38528 76.8846 6.29025L76.0088 6.77548ZM76.5802 7.41305C76.813 7.58618 77.0936 7.74192 77.4139 7.88378L77.8211 6.96934C77.5475 6.84814 77.336 6.72722 77.1784 6.61005L76.5802 7.41305ZM77.4139 7.88378C77.7337 8.02545 78.1038 8.15941 78.5213 8.28671L78.8154 7.33016C78.4257 7.21134 78.0951 7.09072 77.8211 6.96934L77.4139 7.88378ZM78.5169 8.28535C79.1075 8.47137 79.6122 8.67294 80.0347 8.88808L80.4905 7.99677C80.0082 7.75114 79.4501 7.53006 78.8198 7.33153L78.5169 8.28535ZM80.0387 8.8901C80.4565 9.09815 80.7891 9.3261 81.0455 9.56924L81.7348 8.84286C81.3927 8.51844 80.9736 8.23731 80.4865 7.99474L80.0387 8.8901ZM81.0455 9.56924C81.2969 9.80769 81.4771 10.0702 81.5941 10.3576L82.5205 9.97823C82.3463 9.55071 82.0818 9.17197 81.7348 8.84286L81.0455 9.56924ZM81.5951 10.36C81.7106 10.6393 81.7707 10.9689 81.7635 11.3582L82.7634 11.374C82.7727 10.8705 82.6954 10.4014 82.5195 9.97581L81.5951 10.36ZM81.7635 11.3582C81.7561 11.7561 81.6702 12.0979 81.5155 12.3941L82.4015 12.8553C82.636 12.4066 82.7534 11.9094 82.7634 11.374L81.7635 11.3582ZM81.5167 12.3916C81.3599 12.6877 81.1374 12.9432 80.8408 13.1591L81.4278 13.967C81.8409 13.6664 82.1679 13.2963 82.4002 12.8577L81.5167 12.3916ZM80.8417 13.1584C80.5485 13.3707 80.1858 13.5412 79.7442 13.6624L80.0063 14.6266C80.5439 14.4791 81.0206 14.2619 81.4268 13.9677L80.8417 13.1584ZM79.7475 13.6615C79.3151 13.7769 78.8232 13.8333 78.2676 13.8246L78.2491 14.8244C78.8805 14.8344 79.4665 14.7708 80.003 14.6275L79.7475 13.6615ZM78.2676 13.8246C77.78 13.8169 77.3007 13.7444 76.8285 13.6066L76.5459 14.5666C77.1033 14.7292 77.6714 14.8153 78.2491 14.8244L78.2676 13.8246ZM76.8297 13.607C76.3709 13.4719 75.9586 13.2726 75.5898 13.0102L75.0085 13.8255C75.471 14.1546 75.9842 14.4012 76.5447 14.5663L76.8297 13.607ZM75.5931 13.0126C75.2361 12.7541 74.9582 12.4394 74.754 12.0657L73.8761 12.547C74.1529 13.0537 74.5311 13.4799 75.0052 13.8231L75.5931 13.0126ZM74.7552 12.0679C74.5618 11.7097 74.4612 11.2803 74.4708 10.7638L73.4709 10.7481C73.4587 11.4084 73.5876 12.0126 73.8749 12.5448L74.7552 12.0679ZM73.9616 11.2559L75.8715 11.2859L75.89 10.2861L73.9801 10.256L73.9616 11.2559ZM75.3808 10.7782C75.3731 11.1929 75.4359 11.5789 75.5916 11.9188L76.501 11.5003C76.4226 11.3291 76.375 11.0994 76.3807 10.7939L75.3808 10.7782ZM75.595 11.9261C75.7506 12.2518 75.9723 12.5261 76.2582 12.7414L76.8613 11.9421C76.7068 11.8257 76.5862 11.6785 76.4976 11.493L75.595 11.9261ZM76.2642 12.7459C76.5383 12.9459 76.8509 13.0911 77.1952 13.186L77.4635 12.2219C77.2223 12.1554 77.0217 12.0591 76.8553 11.9376L76.2642 12.7459ZM77.1972 13.1865C77.5389 13.2792 77.8994 13.3272 78.2767 13.3331L78.2953 12.3333C77.9928 12.3285 77.7156 12.2903 77.4615 12.2214L77.1972 13.1865ZM78.2767 13.3331C78.7667 13.3408 79.2122 13.2788 79.5946 13.124L79.2215 12.1972C79.0006 12.2866 78.6981 12.3396 78.2953 12.3333L78.2767 13.3331ZM79.5918 13.1251C79.9715 12.974 80.2904 12.7449 80.5136 12.4226L79.6919 11.8549C79.6023 11.9844 79.458 12.1031 79.2243 12.1961L79.5918 13.1251ZM80.5136 12.4226C80.7314 12.1081 80.8384 11.7476 80.8456 11.359L79.8457 11.3432C79.8418 11.5532 79.7869 11.7177 79.6919 11.8549L80.5136 12.4226Z" fill="white"/>
<path d="M100.417 6.15433L97.2089 16.7598L95.3737 16.2881L98.5819 5.68261L100.417 6.15433ZM103.785 7.0201L103.345 8.4769L94.8024 6.28122L95.2431 4.82442L103.785 7.0201Z" fill="white"/>
<path d="M100.417 6.15433L100.901 6.2788L101.046 5.80022L100.562 5.67575L100.417 6.15433ZM97.2089 16.7598L97.0642 17.2384L97.5484 17.3629L97.6932 16.8843L97.2089 16.7598ZM95.3737 16.2881L94.8895 16.1636L94.7447 16.6422L95.229 16.7667L95.3737 16.2881ZM98.5819 5.68261L98.7266 5.20403L98.2424 5.07955L98.0976 5.55814L98.5819 5.68261ZM103.785 7.0201L104.27 7.14457L104.414 6.66599L103.93 6.54152L103.785 7.0201ZM103.345 8.4769L103.2 8.95548L103.684 9.07995L103.829 8.60137L103.345 8.4769ZM94.8024 6.28122L94.3181 6.15674L94.1734 6.63533L94.6576 6.7598L94.8024 6.28122ZM95.2431 4.82442L95.3878 4.34583L94.9036 4.22136L94.7588 4.69994L95.2431 4.82442ZM99.9328 6.02986L96.7247 16.6353L97.6932 16.8843L100.901 6.2788L99.9328 6.02986ZM97.3537 16.2812L95.5185 15.8095L95.229 16.7667L97.0642 17.2384L97.3537 16.2812ZM95.858 16.4126L99.0661 5.80708L98.0976 5.55814L94.8895 16.1636L95.858 16.4126ZM98.4371 6.16119L100.272 6.63291L100.562 5.67575L98.7266 5.20403L98.4371 6.16119ZM103.301 6.89563L102.86 8.35242L103.829 8.60137L104.27 7.14457L103.301 6.89563ZM103.489 7.99831L94.9472 5.80263L94.6576 6.7598L103.2 8.95548L103.489 7.99831ZM95.2867 6.40569L95.7273 4.94889L94.7588 4.69994L94.3181 6.15674L95.2867 6.40569ZM95.0983 5.303L103.641 7.49868L103.93 6.54152L95.3878 4.34583L95.0983 5.303Z" fill="white"/>
<path d="M117.263 13.1288L118.939 14.0277L114.988 20.2899C114.539 21.0022 114.002 21.5123 113.377 21.8202C112.751 22.1282 112.084 22.2558 111.376 22.2031C110.674 22.1486 109.984 21.9391 109.304 21.5747C108.602 21.1984 108.052 20.7427 107.653 20.2075C107.258 19.6681 107.053 19.073 107.039 18.4223C107.029 17.7739 107.249 17.0936 107.698 16.3814L111.649 10.1192L113.326 11.0181L109.375 17.2803C109.09 17.7308 108.937 18.1451 108.914 18.5232C108.893 18.8969 108.987 19.2316 109.196 19.5271C109.404 19.8226 109.71 20.0782 110.112 20.294C110.514 20.5097 110.904 20.6268 111.282 20.6454C111.663 20.6663 112.025 20.5761 112.368 20.375C112.713 20.1695 113.027 19.8415 113.312 19.391L117.263 13.1288Z" fill="white"/>
<path d="M117.263 13.1288L117.53 12.7059L117.089 12.4696L116.822 12.8925L117.263 13.1288ZM118.939 14.0277L119.38 14.2639L119.647 13.8411L119.206 13.6048L118.939 14.0277ZM111.376 22.2031L111.316 22.6859L111.317 22.686L111.376 22.2031ZM107.653 20.2075L107.226 20.4919L107.228 20.4945L107.653 20.2075ZM107.039 18.4223L106.523 18.4461L106.524 18.4492L107.039 18.4223ZM111.649 10.1192L111.916 9.69629L111.475 9.46004L111.208 9.88291L111.649 10.1192ZM113.326 11.0181L113.766 11.2543L114.033 10.8315L113.593 10.5952L113.326 11.0181ZM108.914 18.5232L108.399 18.5122L108.399 18.5152L108.914 18.5232ZM111.282 20.6454L111.329 20.1618L111.326 20.1616L111.282 20.6454ZM112.368 20.375L112.63 20.7832L112.632 20.7816L112.368 20.375ZM116.996 13.5516L118.673 14.4505L119.206 13.6048L117.53 12.7059L116.996 13.5516ZM118.499 13.7914L114.548 20.0537L115.429 20.5262L119.38 14.2639L118.499 13.7914ZM114.548 20.0537C114.137 20.7048 113.667 21.1382 113.15 21.3928L113.603 22.2476C114.336 21.8863 114.941 21.2995 115.429 20.5262L114.548 20.0537ZM113.15 21.3928C112.616 21.6561 112.048 21.7659 111.434 21.7203L111.317 22.686C112.121 22.7458 112.887 22.6002 113.603 22.2476L113.15 21.3928ZM111.436 21.7204C110.816 21.6722 110.195 21.4867 109.571 21.1519L109.037 21.9976C109.772 22.3915 110.532 22.625 111.316 22.6859L111.436 21.7204ZM109.571 21.1519C108.922 20.8039 108.429 20.3916 108.079 19.9206L107.228 20.4945C107.674 21.0937 108.282 21.5929 109.037 21.9976L109.571 21.1519ZM108.081 19.9232C107.739 19.4573 107.566 18.9512 107.554 18.3954L106.524 18.4492C106.54 19.1949 106.777 19.879 107.226 20.4919L108.081 19.9232ZM107.554 18.3985C107.546 17.8615 107.726 17.2708 108.139 16.6176L107.257 16.1451C106.771 16.9164 106.512 17.6864 106.523 18.4461L107.554 18.3985ZM108.139 16.6176L112.09 10.3554L111.208 9.88291L107.257 16.1451L108.139 16.6176ZM111.382 10.542L113.059 11.441L113.593 10.5952L111.916 9.69629L111.382 10.542ZM112.885 10.7818L108.934 17.0441L109.815 17.5166L113.766 11.2543L112.885 10.7818ZM108.934 17.0441C108.621 17.5396 108.429 18.0317 108.399 18.5122L109.428 18.5341C109.445 18.2585 109.559 17.922 109.815 17.5166L108.934 17.0441ZM108.399 18.5152C108.373 18.9869 108.494 19.4222 108.763 19.8045L109.628 19.2497C109.481 19.041 109.413 18.807 109.428 18.5311L108.399 18.5152ZM108.763 19.8045C109.023 20.1721 109.391 20.4733 109.845 20.7168L110.379 19.8711C110.028 19.6831 109.786 19.4731 109.628 19.2497L108.763 19.8045ZM109.845 20.7168C110.299 20.9602 110.764 21.1059 111.237 21.1291L111.326 20.1616C111.044 20.1478 110.73 20.0592 110.379 19.8711L109.845 20.7168ZM111.234 21.1289C111.728 21.156 112.198 21.0371 112.63 20.7832L112.106 19.9667C111.853 20.1152 111.599 20.1766 111.329 20.1618L111.234 21.1289ZM112.632 20.7816C113.071 20.5204 113.44 20.1228 113.752 19.6272L112.871 19.1547C112.615 19.5602 112.355 19.8185 112.103 19.9683L112.632 20.7816ZM113.752 19.6272L117.703 13.365L116.822 12.8925L112.871 19.1547L113.752 19.6272Z" fill="white"/>
<path d="M123.834 31.2828L122.168 29.6017L123.338 28.6371L124.993 30.3075C125.475 30.794 125.993 31.1048 126.547 31.24C127.104 31.3787 127.679 31.3513 128.27 31.1576C128.864 30.9676 129.457 30.6242 130.047 30.1275L130.507 29.7403C130.964 29.3547 131.322 28.9646 131.579 28.57C131.839 28.1789 131.997 27.7884 132.051 27.3984C132.11 27.0121 132.067 26.6314 131.924 26.2566C131.784 25.8854 131.54 25.5249 131.194 25.1754L129.448 23.4131L130.612 22.4329L132.358 24.1951C132.876 24.7177 133.254 25.2752 133.493 25.8678C133.735 26.4571 133.835 27.0572 133.792 27.668C133.753 28.2825 133.571 28.8819 133.246 29.4663C132.921 30.0507 132.454 30.5993 131.845 31.1124L131.396 31.4898C130.787 32.0028 130.152 32.3821 129.491 32.6277C128.831 32.8733 128.167 32.9862 127.499 32.9664C126.836 32.9433 126.191 32.792 125.565 32.5125C124.947 32.2333 124.37 31.8234 123.834 31.2828ZM131.389 23.2167L122.913 30.353L121.569 28.9962L130.044 21.8599L131.389 23.2167Z" fill="white"/>
<path d="M122.168 29.6017L121.82 29.2433L121.43 29.5649L121.786 29.9237L122.168 29.6017ZM123.338 28.6371L123.72 28.3151L123.372 27.9634L122.99 28.2787L123.338 28.6371ZM126.547 31.24L126.679 30.7771L126.676 30.7765L126.547 31.24ZM128.27 31.1576L128.096 30.7045L128.093 30.7057L128.27 31.1576ZM131.579 28.57L131.135 28.3169L131.132 28.3211L131.579 28.57ZM132.051 27.3984L131.537 27.3287L131.536 27.3332L132.051 27.3984ZM131.924 26.2566L131.433 26.4112L131.434 26.4134L131.924 26.2566ZM129.448 23.4131L129.096 23.058L128.714 23.38L129.065 23.7352L129.448 23.4131ZM130.612 22.4329L130.995 22.1108L130.643 21.7557L130.26 22.0777L130.612 22.4329ZM133.493 25.8678L133.005 26.0317L133.007 26.0349L133.493 25.8678ZM133.792 27.668L133.273 27.6339L133.273 27.6366L133.792 27.668ZM133.246 29.4663L132.783 29.245L133.246 29.4663ZM127.499 32.9664L127.483 33.4455L127.486 33.4456L127.499 32.9664ZM125.565 32.5125L125.34 32.9428L125.342 32.9437L125.565 32.5125ZM131.389 23.2167L131.741 23.5719L132.123 23.2498L131.771 22.8946L131.389 23.2167ZM122.913 30.353L122.531 30.6751L122.882 31.0303L123.265 30.7082L122.913 30.353ZM121.569 28.9962L121.217 28.641L120.834 28.9631L121.186 29.3183L121.569 28.9962ZM130.044 21.8599L130.427 21.5378L130.075 21.1827L129.693 21.5047L130.044 21.8599ZM124.217 30.9608L122.551 29.2796L121.786 29.9237L123.452 31.6049L124.217 30.9608ZM122.517 29.96L123.686 28.9955L122.99 28.2787L121.82 29.2433L122.517 29.96ZM122.955 28.9591L124.61 30.6295L125.375 29.9854L123.72 28.3151L122.955 28.9591ZM124.61 30.6295C125.144 31.1678 125.745 31.5393 126.417 31.7034L126.676 30.7765C126.241 30.6703 125.806 30.4201 125.375 29.9854L124.61 30.6295ZM126.415 31.7028C127.084 31.8693 127.766 31.8326 128.447 31.6095L128.093 30.7057C127.591 30.8699 127.125 30.8882 126.679 30.7771L126.415 31.7028ZM128.443 31.6107C129.119 31.3947 129.77 31.0115 130.399 30.4827L129.695 29.7724C129.143 30.2369 128.61 30.5405 128.096 30.7045L128.443 31.6107ZM130.399 30.4827L130.858 30.0955L130.155 29.3851L129.695 29.7724L130.399 30.4827ZM130.858 30.0955C131.345 29.6861 131.737 29.2612 132.025 28.8189L131.132 28.3211C130.907 28.6681 130.584 29.0234 130.155 29.3851L130.858 30.0955ZM132.022 28.823C132.314 28.3844 132.501 27.9306 132.567 27.4636L131.536 27.3332C131.492 27.6462 131.364 27.9735 131.135 28.3169L132.022 28.823ZM132.566 27.4682C132.636 27.0044 132.585 26.5461 132.414 26.0998L131.434 26.4134C131.55 26.7167 131.583 27.0197 131.537 27.3287L132.566 27.4682ZM132.415 26.102C132.247 25.6575 131.961 25.2417 131.577 24.8533L130.812 25.4974C131.12 25.8081 131.321 26.1132 131.433 26.4112L132.415 26.102ZM131.577 24.8533L129.83 23.0911L129.065 23.7352L130.812 25.4974L131.577 24.8533ZM129.8 23.7683L130.964 22.788L130.26 22.0777L129.096 23.058L129.8 23.7683ZM130.23 22.7549L131.976 24.5171L132.741 23.8731L130.995 22.1108L130.23 22.7549ZM131.976 24.5171C132.453 24.9991 132.793 25.504 133.005 26.0317L133.98 25.7039C133.715 25.0464 133.299 24.4362 132.741 23.8731L131.976 24.5171ZM133.007 26.0349C133.223 26.5617 133.311 27.0932 133.273 27.6339L134.311 27.7022C134.358 27.0211 134.246 26.3525 133.978 25.7007L133.007 26.0349ZM133.273 27.6366C133.239 28.1802 133.078 28.7154 132.783 29.245L133.709 29.6876C134.065 29.0485 134.268 28.3848 134.311 27.6995L133.273 27.6366ZM132.783 29.245C132.49 29.7716 132.064 30.2763 131.493 30.7572L132.197 31.4675C132.844 30.9223 133.352 30.3297 133.709 29.6876L132.783 29.245ZM131.493 30.7572L131.045 31.1346L131.748 31.8449L132.197 31.4675L131.493 30.7572ZM131.045 31.1346C130.473 31.6154 129.89 31.9615 129.294 32.1828L129.689 33.0725C130.415 32.8027 131.101 32.3901 131.748 31.8449L131.045 31.1346ZM129.294 32.1828C128.695 32.4054 128.103 32.5047 127.512 32.4872L127.486 33.4456C128.231 33.4676 128.966 33.3411 129.689 33.0725L129.294 32.1828ZM127.515 32.4873C126.927 32.4669 126.353 32.3331 125.789 32.0813L125.342 32.9437C126.029 33.251 126.745 33.4198 127.483 33.4455L127.515 32.4873ZM125.791 32.0822C125.24 31.8334 124.715 31.4633 124.217 30.9608L123.452 31.6049C124.025 32.1835 124.654 32.6332 125.34 32.9428L125.791 32.0822ZM131.037 22.8615L122.561 29.9979L123.265 30.7082L131.741 23.5719L131.037 22.8615ZM123.295 30.031L121.951 28.6742L121.186 29.3183L122.531 30.6751L123.295 30.031ZM121.92 29.3514L130.396 22.215L129.693 21.5047L121.217 28.641L121.92 29.3514ZM129.662 22.1819L131.006 23.5387L131.771 22.8946L130.427 21.5378L129.662 22.1819Z" fill="white"/>
<path d="M144.875 40.2056L134.91 45.05L133.961 43.3921L143.926 38.5477L144.875 40.2056Z" fill="white"/>
<path d="M144.875 40.2056L145.123 40.6396L145.573 40.421L145.324 39.987L144.875 40.2056ZM134.91 45.05L134.46 45.2686L134.708 45.7026L135.158 45.484L134.91 45.05ZM133.961 43.3921L133.713 42.9581L133.263 43.1767L133.512 43.6107L133.961 43.3921ZM143.926 38.5477L144.376 38.3291L144.128 37.8951L143.678 38.1137L143.926 38.5477ZM144.626 39.7716L134.662 44.616L135.158 45.484L145.123 40.6396L144.626 39.7716ZM135.359 44.8314L134.411 43.1735L133.512 43.6107L134.46 45.2686L135.359 44.8314ZM134.21 43.8261L144.175 38.9816L143.678 38.1137L133.713 42.9581L134.21 43.8261ZM143.477 38.7663L144.425 40.4242L145.324 39.987L144.376 38.3291L143.477 38.7663Z" fill="white"/>
<path d="M147.264 61.2581L146.669 61.3868C145.851 61.5637 145.09 61.6168 144.387 61.5458C143.684 61.4749 143.054 61.2922 142.497 60.9975C141.942 60.7078 141.474 60.3163 141.092 59.8231C140.715 59.3289 140.442 58.7499 140.273 58.0861C140.105 57.4273 140.071 56.7993 140.17 56.2021C140.276 55.6087 140.506 55.0636 140.86 54.5667C141.215 54.0698 141.689 53.6404 142.283 53.2787C142.877 52.9219 143.583 52.655 144.402 52.478L144.997 52.3493C145.815 52.1724 146.574 52.1223 147.273 52.1992C147.978 52.2751 148.609 52.4603 149.165 52.755C149.727 53.0534 150.197 53.4474 150.572 53.9367C150.954 54.4299 151.229 55.0059 151.397 55.6647C151.566 56.3284 151.598 56.9594 151.494 57.5577C151.395 58.1549 151.165 58.7001 150.804 59.1931C150.448 59.6851 149.972 60.1071 149.376 60.459C148.786 60.8148 148.083 61.0811 147.264 61.2581ZM146.198 59.5357L146.808 59.4038C147.413 59.2729 147.931 59.0986 148.362 58.8809C148.799 58.667 149.146 58.4132 149.4 58.1195C149.661 57.8296 149.83 57.5052 149.906 57.1464C149.987 56.7865 149.976 56.4026 149.872 55.9945C149.768 55.5864 149.594 55.2403 149.349 54.9561C149.109 54.6709 148.801 54.4495 148.426 54.292C148.057 54.1383 147.625 54.0528 147.129 54.0357C146.638 54.0174 146.09 54.0737 145.485 54.2046L144.875 54.3365C144.27 54.4673 143.749 54.6421 143.313 54.861C142.877 55.0798 142.527 55.3371 142.262 55.633C142.003 55.9327 141.833 56.26 141.751 56.615C141.673 56.9689 141.687 57.3499 141.791 57.758C141.896 58.171 142.068 58.5201 142.308 58.8053C142.553 59.0895 142.863 59.3079 143.236 59.4605C143.615 59.612 144.052 59.6939 144.546 59.7062C145.043 59.7234 145.593 59.6665 146.198 59.5357Z" fill="white"/>
<path d="M142.497 60.9975L142.725 60.5625L142.722 60.561L142.497 60.9975ZM141.092 59.8231L140.692 60.1125L140.695 60.1155L141.092 59.8231ZM140.17 56.2021L139.674 56.1015L139.673 56.1068L140.17 56.2021ZM140.86 54.5667L140.445 54.2729L140.86 54.5667ZM142.283 53.2787L142.01 52.853L142.007 52.8548L142.283 53.2787ZM147.273 52.1992L147.234 52.6921L147.235 52.6922L147.273 52.1992ZM149.165 52.755L149.393 52.3201L149.393 52.3199L149.165 52.755ZM150.572 53.9367L150.174 54.2274L150.175 54.2291L150.572 53.9367ZM151.494 57.5577L150.997 57.4587L150.996 57.4624L151.494 57.5577ZM150.804 59.1931L150.392 58.8947L150.39 58.8969L150.804 59.1931ZM149.376 60.459L149.106 60.0316L149.102 60.0339L149.376 60.459ZM148.362 58.8809L148.126 58.4353L148.121 58.4381L148.362 58.8809ZM149.4 58.1195L149.018 57.7838L149.013 57.7905L149.4 58.1195ZM149.906 57.1464L149.414 57.0243L149.413 57.0301L149.906 57.1464ZM149.349 54.9561L148.965 55.265L148.969 55.2697L149.349 54.9561ZM148.426 54.292L148.611 53.8368L148.61 53.8362L148.426 54.292ZM147.129 54.0357L147.126 54.5313L147.127 54.5313L147.129 54.0357ZM142.262 55.633L141.879 55.2985L141.873 55.305L142.262 55.633ZM141.751 56.615L141.259 56.4899L141.258 56.4958L141.751 56.615ZM142.308 58.8053L141.924 59.1142L141.928 59.1189L142.308 58.8053ZM143.236 59.4605L143.056 59.9177L143.059 59.9191L143.236 59.4605ZM144.546 59.7062L144.548 59.2105L144.543 59.2104L144.546 59.7062ZM147.141 60.7735L146.546 60.9022L146.793 61.8713L147.388 61.7426L147.141 60.7735ZM146.546 60.9022C145.77 61.0701 145.063 61.1171 144.422 61.0525L144.352 62.0392C145.118 62.1164 145.933 62.0573 146.793 61.8713L146.546 60.9022ZM144.422 61.0525C143.777 60.9875 143.214 60.8215 142.725 60.5625L142.27 61.4325C142.893 61.7628 143.59 61.9624 144.352 62.0392L144.422 61.0525ZM142.722 60.561C142.234 60.3064 141.825 59.9642 141.489 59.5307L140.695 60.1155C141.123 60.6684 141.65 61.1091 142.273 61.434L142.722 60.561ZM141.492 59.5338C141.161 59.1006 140.916 58.5857 140.762 57.9804L139.784 58.1918C139.968 58.914 140.269 59.5572 140.692 60.1125L141.492 59.5338ZM140.762 57.9804C140.609 57.3806 140.581 56.8213 140.668 56.2974L139.673 56.1068C139.561 56.7773 139.602 57.4741 139.784 58.1918L140.762 57.9804ZM140.667 56.3027C140.76 55.7805 140.961 55.301 141.276 54.8605L140.445 54.2729C140.05 54.8262 139.792 55.437 139.674 56.1015L140.667 56.3027ZM141.276 54.8605C141.589 54.4222 142.013 54.0351 142.558 53.7026L142.007 52.8548C141.366 53.2458 140.842 53.7173 140.445 54.2729L141.276 54.8605ZM142.555 53.7044C143.096 53.3799 143.75 53.1302 144.525 52.9626L144.278 51.9935C143.417 52.1797 142.658 52.4639 142.01 52.853L142.555 53.7044ZM144.525 52.9626L145.12 52.8339L144.873 51.8648L144.278 51.9935L144.525 52.9626ZM145.12 52.8339C145.895 52.6662 146.599 52.6223 147.234 52.6921L147.313 51.7064C146.549 51.6224 145.734 51.6785 144.873 51.8648L145.12 52.8339ZM147.235 52.6922C147.882 52.7619 148.447 52.9304 148.937 53.19L149.393 52.3199C148.77 51.9902 148.074 51.7882 147.312 51.7062L147.235 52.6922ZM148.937 53.1898C149.435 53.4539 149.845 53.7993 150.174 54.2274L150.971 53.646C150.548 53.0955 150.02 52.653 149.393 52.3201L148.937 53.1898ZM150.175 54.2291C150.509 54.661 150.756 55.1719 150.908 55.7704L151.885 55.559C151.702 54.8399 151.399 54.1988 150.969 53.6443L150.175 54.2291ZM150.908 55.7704C151.062 56.3744 151.088 56.9353 150.997 57.4587L151.991 57.6567C152.108 56.9836 152.069 56.2825 151.885 55.559L150.908 55.7704ZM150.996 57.4624C150.91 57.9849 150.709 58.4607 150.392 58.8947L151.216 59.4916C151.62 58.9394 151.88 58.325 151.991 57.653L150.996 57.4624ZM150.39 58.8969C150.077 59.3293 149.653 59.7088 149.106 60.0316L149.646 60.8864C150.291 60.5053 150.818 60.0409 151.217 59.4894L150.39 58.8969ZM149.102 60.0339C148.567 60.3568 147.916 60.6058 147.141 60.7735L147.388 61.7426C148.249 61.5564 149.005 61.2727 149.649 60.8841L149.102 60.0339ZM146.321 60.0202L146.931 59.8883L146.685 58.9192L146.075 59.0512L146.321 60.0202ZM146.931 59.8883C147.567 59.7508 148.127 59.5645 148.604 59.3237L148.121 58.4381C147.735 58.6328 147.259 58.795 146.685 58.9192L146.931 59.8883ZM148.598 59.3264C149.08 59.0907 149.482 58.8008 149.788 58.4485L149.013 57.7905C148.809 58.0256 148.519 58.2433 148.126 58.4354L148.598 59.3264ZM149.782 58.455C150.095 58.1074 150.305 57.7088 150.4 57.2627L149.413 57.0301C149.355 57.3017 149.227 57.5517 149.018 57.7839L149.782 58.455ZM150.398 57.2686C150.498 56.8252 150.481 56.3626 150.361 55.8888L149.383 56.1002C149.47 56.4425 149.476 56.7479 149.414 57.0243L150.398 57.2686ZM150.361 55.8888C150.24 55.4151 150.032 54.995 149.728 54.6425L148.969 55.2697C149.155 55.4855 149.296 55.7577 149.383 56.1002L150.361 55.8888ZM149.733 54.6473C149.434 54.2928 149.056 54.0238 148.611 53.8368L148.241 54.7471C148.546 54.8752 148.783 55.0489 148.965 55.265L149.733 54.6473ZM148.61 53.8362C148.17 53.6531 147.674 53.5588 147.13 53.54L147.127 54.5313C147.576 54.5468 147.944 54.6235 148.242 54.7477L148.61 53.8362ZM147.132 53.5401C146.588 53.5199 145.997 53.5825 145.361 53.72L145.608 54.6891C146.182 54.5649 146.687 54.5149 147.126 54.5313L147.132 53.5401ZM145.361 53.72L144.751 53.8519L144.998 54.821L145.608 54.6891L145.361 53.72ZM144.751 53.8519C144.116 53.9894 143.554 54.1762 143.073 54.4176L143.554 55.3043C143.945 55.1081 144.424 54.9452 144.998 54.821L144.751 53.8519ZM143.073 54.4176C142.594 54.6579 142.191 54.9493 141.879 55.2985L142.645 55.9674C142.862 55.725 143.16 55.5017 143.554 55.3043L143.073 54.4176ZM141.873 55.305C141.569 55.6577 141.36 56.0533 141.259 56.4899L142.242 56.7401C142.306 56.4668 142.438 56.2077 142.651 55.961L141.873 55.305ZM141.258 56.4958C141.162 56.9335 141.182 57.3922 141.302 57.8637L142.279 57.6523C142.191 57.3076 142.185 57.0043 142.244 56.7342L141.258 56.4958ZM141.302 57.8637C141.423 58.339 141.627 58.7607 141.924 59.1142L142.692 58.4965C142.51 58.2794 142.368 58.0029 142.279 57.6523L141.302 57.8637ZM141.928 59.1189C142.231 59.4705 142.611 59.736 143.056 59.9177L143.416 59.0033C143.114 58.8798 142.875 58.7085 142.688 58.4917L141.928 59.1189ZM143.059 59.9191C143.507 60.0982 144.007 60.1885 144.55 60.202L144.543 59.2104C144.096 59.1993 143.723 59.1259 143.413 59.0019L143.059 59.9191ZM144.545 60.2018C145.092 60.2208 145.686 60.1578 146.321 60.0202L146.075 59.0512C145.501 59.1753 144.993 59.226 144.548 59.2106L144.545 60.2018Z" fill="white"/>
</svg>
