<svg width="40" height="40" viewBox="0 0 40 40" fill="none" xmlns="http://www.w3.org/2000/svg">
<circle cx="20" cy="20" r="20" fill="#FFEFF7"/>
<path d="M15.6016 13.625H17.9453V21.5C17.9453 22.224 17.7839 22.8646 17.4609 23.4219C17.1432 23.974 16.6927 24.401 16.1094 24.7031C15.526 25.0052 14.8672 25.1562 14.1328 25.1562C12.9297 25.1562 11.9922 24.8516 11.3203 24.2422C10.6484 23.6276 10.3125 22.7604 10.3125 21.6406H12.6719C12.6719 22.1979 12.7891 22.6094 13.0234 22.875C13.2578 23.1406 13.6276 23.2734 14.1328 23.2734C14.5807 23.2734 14.9375 23.1198 15.2031 22.8125C15.4688 22.5052 15.6016 22.0677 15.6016 21.5V13.625ZM26.2031 22.6562H22.0938L21.3125 25H18.8203L23.0547 13.625H25.2266L29.4844 25H26.9922L26.2031 22.6562ZM22.7266 20.7578H25.5703L24.1406 16.5L22.7266 20.7578Z" fill="#C03A80"/>
</svg>
