<svg width="13" height="14" viewBox="0 0 13 14" fill="none" xmlns="http://www.w3.org/2000/svg">
<path fill-rule="evenodd" clip-rule="evenodd" d="M7.32638 0.673342C7.59224 0.835958 7.79534 1.09413 7.94724 1.39804C8.08227 1.66818 8.13198 1.99498 8.15002 2.30019C8.16864 2.61509 8.15584 2.96099 8.13299 3.29865C8.11451 3.57157 8.0907 3.83208 8.06835 4.07669C8.0508 4.26868 8.03414 4.45087 8.02167 4.62158L11.5 4.62144C11.9994 4.62144 12.4227 4.79738 12.6929 5.18914C12.9363 5.54216 13 5.9955 13 6.43394C13 7.20395 12.7943 8.21846 12.5793 9.2783C12.5497 9.42468 12.5198 9.57192 12.4903 9.7195C12.2824 10.759 11.8826 11.7022 11.3845 12.398C10.9058 13.0664 10.2487 13.6214 9.5 13.6214L3.50015 13.6216C2.63828 13.6218 1.9275 13.3349 1.43946 13.0561C1.19439 12.9161 1.00109 12.7757 0.867342 12.6687C0.800316 12.6151 0.747795 12.5695 0.710749 12.536C0.692213 12.5193 0.677509 12.5055 0.66676 12.4953L0.653601 12.4826L0.649264 12.4783L0.64766 12.4768L0.646706 12.4758C0.646706 12.4758 0.646435 12.4755 1 12.122L0.646706 12.4758C0.552771 12.3819 0.5 12.2545 0.5 12.1216V7.12206C0.5 6.98945 0.552678 6.86228 0.646447 6.76851L1 7.12206C0.646447 6.76851 0.646447 6.76851 0.646447 6.76851L0.647672 6.76729L0.649275 6.7657L0.65361 6.76144L0.666766 6.74876C0.677514 6.73853 0.692215 6.72479 0.710749 6.70805C0.747791 6.67459 0.800306 6.629 0.867325 6.57538C1.00106 6.46839 1.19434 6.32796 1.43939 6.18791C1.88451 5.93349 2.51483 5.67227 3.27619 5.62812C3.64262 5.20352 3.94802 4.59675 4.22597 3.92973C4.34629 3.64098 4.45659 3.35361 4.56399 3.0738C4.59309 2.99799 4.62197 2.92273 4.65079 2.84814C4.783 2.50593 4.91575 2.17251 5.05277 1.89843C5.3879 1.22801 5.85096 0.685453 6.4253 0.538012C6.73423 0.458707 7.04844 0.503341 7.32638 0.673342ZM3 6.66532C2.57846 6.73893 2.21681 6.89538 1.93561 7.0561C1.92296 7.06333 1.91049 7.07056 1.89821 7.07778C1.63528 7.23228 1.5 7.52762 1.5 7.83259V11.4114C1.5 11.7164 1.63529 12.0118 1.89827 12.1662C1.91051 12.1734 1.92293 12.1806 1.93554 12.1878C2.21674 12.3485 2.57842 12.5048 3 12.5782V6.66532ZM4 12.6216L9.5 12.6214C9.75131 12.6214 10.148 12.4071 10.5714 11.8158C10.9752 11.2518 11.3254 10.4451 11.5097 9.52338C11.5396 9.37371 11.5693 9.22712 11.5982 9.08375C11.8178 7.99728 12 7.09531 12 6.43394C12 6.05988 11.9387 5.85697 11.8696 5.75687C11.8273 5.69549 11.7506 5.62144 11.5 5.62144L7 5.6216V5.1216C7 4.78482 7.03967 4.34475 7.07876 3.91111C7.09988 3.6768 7.12084 3.44437 7.13527 3.23111C7.15713 2.90824 7.16668 2.61139 7.15177 2.35922C7.13628 2.09737 7.09657 1.9328 7.05276 1.84514C6.95466 1.64889 6.8618 1.56141 6.80459 1.52642C6.75946 1.49882 6.72349 1.49389 6.67395 1.50661C6.53138 1.5432 6.24444 1.75101 5.94723 2.34556C5.83425 2.57159 5.717 2.86323 5.58359 3.20854C5.55642 3.27885 5.52865 3.35122 5.50026 3.4252C5.39229 3.70654 5.27538 4.01117 5.14903 4.31437C4.86158 5.00419 4.49844 5.75636 4 6.31936V12.6216Z" fill="#9696A1"/>
</svg>
