<svg width="12" height="13" viewBox="0 0 12 13" fill="none" xmlns="http://www.w3.org/2000/svg">
<path fill-rule="evenodd" clip-rule="evenodd" d="M11 2.5C11 3.32843 10.3284 4 9.5 4C8.67157 4 8 3.32843 8 2.5C8 1.67157 8.67157 1 9.5 1C10.3284 1 11 1.67157 11 2.5ZM12 2.5C12 3.88071 10.8807 5 9.5 5C8.71238 5 8.00984 4.63578 7.5516 4.06658L4.90878 5.82846C4.96822 6.04215 5 6.26736 5 6.5C5 6.73267 4.96822 6.95792 4.90875 7.17163L7.55154 8.93349C8.00978 8.36425 8.71235 8 9.5 8C10.8807 8 12 9.11929 12 10.5C12 11.8807 10.8807 13 9.5 13C8.11929 13 7 11.8807 7 10.5C7 10.2674 7.03177 10.0422 7.09122 9.82846L4.4484 8.06658C3.99016 8.63578 3.28761 9 2.5 9C1.11929 9 0 7.88071 0 6.5C0 5.11929 1.11929 4 2.5 4C3.28765 4 3.99022 4.36425 4.44845 4.93349L7.09125 3.17163C7.03178 2.95791 7 2.73267 7 2.5C7 1.11929 8.11929 0 9.5 0C10.8807 0 12 1.11929 12 2.5ZM4 6.5C4 7.32843 3.32843 8 2.5 8C1.67157 8 1 7.32843 1 6.5C1 5.67157 1.67157 5 2.5 5C3.32843 5 4 5.67157 4 6.5ZM9.5 12C10.3284 12 11 11.3284 11 10.5C11 9.67157 10.3284 9 9.5 9C8.67157 9 8 9.67157 8 10.5C8 11.3284 8.67157 12 9.5 12Z" fill="#9696A1"/>
</svg>
