<svg width="94" height="18" viewBox="0 0 94 18" fill="none" xmlns="http://www.w3.org/2000/svg">
<rect width="18" height="18" fill="#00B67A"/>
<rect x="19" width="18" height="18" fill="#00B67A"/>
<rect x="38" width="18" height="18" fill="#00B67A"/>
<rect x="57" width="18" height="18" fill="#00B67A"/>
<rect x="76" width="18" height="18" fill="#00B67A"/>
<path fill-rule="evenodd" clip-rule="evenodd" d="M10.5579 7.58565H15.2903L11.463 10.4143L11.4636 10.4164L9.09331 12.1632L9.09244 12.1625L5.26511 15L6.73053 10.4143L2.9032 7.57687L7.63564 7.58565L9.10106 3L10.5579 7.58565ZM9.09539 12.1647L12.9198 15L11.9514 11.952L11.813 11.5162L9.09539 12.1647Z" fill="white"/>
<path fill-rule="evenodd" clip-rule="evenodd" d="M29.6547 7.58565H34.3871L30.5598 10.4143L30.5604 10.4164L28.1901 12.1632L28.1892 12.1625L24.3619 15L25.8273 10.4143L22 7.57687L26.7324 7.58565L28.1979 3L29.6547 7.58565ZM28.1922 12.1647L32.0166 15L31.0482 11.952L30.9098 11.5162L28.1922 12.1647Z" fill="white"/>
<path fill-rule="evenodd" clip-rule="evenodd" d="M48.6547 7.58565H53.3871L49.5598 10.4143L49.5604 10.4164L47.1901 12.1632L47.1892 12.1625L43.3619 15L44.8273 10.4143L41 7.57687L45.7324 7.58565L47.1979 3L48.6547 7.58565ZM47.1922 12.1647L51.0166 15L50.0482 11.952L49.9098 11.5162L47.1922 12.1647Z" fill="white"/>
<path fill-rule="evenodd" clip-rule="evenodd" d="M67.6547 7.58565H72.3871L68.5598 10.4143L68.5604 10.4164L66.1901 12.1632L66.1892 12.1625L62.3619 15L63.8273 10.4143L60 7.57687L64.7324 7.58565L66.1979 3L67.6547 7.58565ZM66.1922 12.1647L70.0166 15L69.0482 11.952L68.9098 11.5162L66.1922 12.1647Z" fill="white"/>
<path fill-rule="evenodd" clip-rule="evenodd" d="M86.6547 7.58565H91.3871L87.5598 10.4143L87.5604 10.4164L85.1901 12.1632L85.1892 12.1625L81.3619 15L82.8273 10.4143L79 7.57687L83.7324 7.58565L85.1979 3L86.6547 7.58565ZM85.1922 12.1647L89.0166 15L88.0482 11.952L87.9098 11.5162L85.1922 12.1647Z" fill="white"/>
</svg>
