<svg width="716" height="767" viewBox="0 0 716 767" fill="none" xmlns="http://www.w3.org/2000/svg">
<g clip-path="url(#clip0_25_103)">
<path d="M474.345 669.306C474.804 662.408 474.6 655.483 473.737 648.624C480.442 646.859 486.96 644.455 493.202 641.443C492.743 648.351 492.947 655.287 493.811 662.157C487.11 663.919 480.592 666.313 474.345 669.306Z" fill="url(#paint0_linear_25_103)"/>
<path style="mix-blend-mode:screen" d="M477.419 657.146L474.889 657.561C475.076 661.25 475.076 664.946 474.889 668.636C480.86 665.814 487.075 663.539 493.459 661.838C493.051 658.735 492.805 655.614 492.722 652.486C487.801 654.577 482.671 656.139 477.419 657.146Z" fill="url(#paint1_radial_25_103)"/>
<path d="M239.83 261.709C239.97 267.216 240.624 272.697 241.783 278.082C236.598 279.973 231.603 282.346 226.864 285.168C226.72 279.66 226.056 274.178 224.879 268.795C230.075 266.908 235.081 264.535 239.83 261.709Z" fill="url(#paint2_linear_25_103)"/>
<path style="mix-blend-mode:screen" d="M238.261 271.603L240.246 271.061C239.702 266.976 239.574 263.592 239.51 262.284C234.987 264.955 230.229 267.209 225.295 269.018C225.871 271.54 226.255 274.093 226.543 276.391C230.264 274.377 234.193 272.772 238.261 271.603Z" fill="url(#paint3_radial_25_103)"/>
<path d="M382.556 642.209C388.117 639.454 393.392 636.162 398.308 632.379C402.719 636.735 407.532 640.668 412.683 644.124C407.158 646.906 401.905 650.197 396.995 653.954C392.571 649.587 387.736 645.654 382.556 642.209Z" fill="url(#paint4_linear_25_103)"/>
<path style="mix-blend-mode:screen" d="M393.377 639.082C392.865 638.507 392.385 637.933 391.905 637.326C389.119 639.118 386.245 640.769 383.292 642.273C388.183 645.583 392.759 649.333 396.963 653.476C399.268 651.688 401.67 650.061 403.879 648.656C400.051 645.841 396.531 642.632 393.377 639.082Z" fill="url(#paint5_radial_25_103)"/>
<path d="M107.413 121.28C121.221 109.173 133.829 95.7704 145.063 81.2576C160.956 90.4312 177.691 98.0724 195.04 104.077C181.256 116.174 168.649 129.542 157.389 144.004C141.493 134.863 124.758 127.254 107.413 121.28Z" fill="url(#paint6_linear_25_103)"/>
<path style="mix-blend-mode:screen" d="M136.003 104.077C134.146 102.833 132.289 101.524 130.496 100.216C121.18 110.301 112.823 117.897 109.558 120.769C126.025 126.611 141.936 133.906 157.101 142.568C162.384 135.706 168.019 129.259 173.109 123.674C160.083 118.462 147.645 111.893 136.003 104.077Z" fill="url(#paint7_radial_25_103)"/>
<path d="M19.2095 250.73C22.5699 241.034 25.0033 231.042 26.477 220.889C36.7724 220.976 47.0528 220.089 57.1801 218.24C53.8197 227.937 51.3863 237.928 49.9126 248.082C39.6172 247.995 29.3368 248.882 19.2095 250.73Z" fill="url(#paint8_linear_25_103)"/>
<path style="mix-blend-mode:screen" d="M28.43 234.517C27.1494 234.517 25.9007 234.389 24.6841 234.134C22.9233 241.634 20.9383 247.634 20.1699 250.092C29.8207 248.408 39.6029 247.586 49.4003 247.634C50.0457 243.03 50.9219 238.46 52.0256 233.943C44.2028 234.965 36.2935 235.157 28.43 234.517Z" fill="url(#paint9_radial_25_103)"/>
<path d="M94.2223 223.698C103.864 208.663 112.054 192.751 118.682 176.175C136.05 180.499 153.793 183.16 171.668 184.122C162.049 199.159 153.88 215.071 147.272 231.645C129.88 227.335 112.117 224.674 94.2223 223.698Z" fill="url(#paint10_linear_25_103)"/>
<path style="mix-blend-mode:screen" d="M116.345 199.984C114.264 199.314 112.215 198.612 110.134 197.878C104.147 209.814 98.3843 219.166 96.1112 222.74C113.112 223.794 129.987 226.347 146.536 230.368C149.738 222.549 153.163 214.985 156.557 208.314C142.895 206.964 129.416 204.171 116.345 199.984Z" fill="url(#paint11_radial_25_103)"/>
<path d="M491.89 741.787C470.537 740.364 449.098 740.963 427.858 743.574C422.404 722.896 414.985 702.783 405.703 683.508C427.055 684.951 448.495 684.363 469.735 681.753C475.193 702.419 482.611 722.521 491.89 741.787Z" fill="url(#paint12_linear_25_103)"/>
<path style="mix-blend-mode:screen" d="M454.175 732.308C454.656 734.861 455.104 737.446 455.488 739.999C471.496 739.425 484.718 739.999 489.777 740.382C481.087 721.966 474.059 702.815 468.774 683.157C458.754 684.466 448.733 685.104 439.768 685.391C446.216 700.48 451.045 716.206 454.175 732.308Z" fill="url(#paint13_radial_25_103)"/>
<path d="M51.6094 222.996C46.8493 206.988 40.567 191.471 32.8481 176.654C46.5553 167.032 59.3124 156.132 70.9469 144.1C75.6834 160.116 81.9442 175.645 89.6441 190.473C75.964 200.093 63.2289 210.982 51.6094 222.996Z" fill="url(#paint14_linear_25_103)"/>
<path style="mix-blend-mode:screen" d="M48.3438 192.867C46.5829 193.92 44.8221 194.942 43.0292 196.059C47.8315 207.612 50.9371 217.41 52.0896 221.176C63.2569 209.834 75.406 199.496 88.3955 190.282C84.7137 183.324 81.5121 176.207 78.7908 169.696C69.4908 178.47 59.2849 186.237 48.3438 192.867Z" fill="url(#paint15_radial_25_103)"/>
<path d="M224.975 401.022C203.679 387.833 181.165 376.708 157.742 367.798C163.503 343.454 166.913 318.617 167.923 293.625C189.223 306.806 211.736 317.931 235.156 326.85C229.412 351.196 226.003 376.032 224.975 401.022Z" fill="url(#paint16_linear_25_103)"/>
<path style="mix-blend-mode:screen" d="M191.262 370.574C190.366 373.51 189.405 376.415 188.413 379.287C205.285 387.426 218.539 395.245 223.63 398.437C224.721 374.687 227.935 351.083 233.235 327.903C222.157 323.754 211.496 318.966 202.083 314.339C200.469 333.411 196.841 352.26 191.262 370.574Z" fill="url(#paint17_radial_25_103)"/>
<path d="M220.268 246.773C209.714 226.294 197.225 206.865 182.97 188.75C199.077 172.233 213.57 154.226 226.255 134.972C236.809 155.451 249.299 174.88 263.554 192.995C247.447 209.512 232.953 227.519 220.268 246.773Z" fill="url(#paint18_linear_25_103)"/>
<path style="mix-blend-mode:screen" d="M208.102 206.782C206.021 208.665 203.876 210.485 201.699 212.304C211.304 226.602 217.899 239.368 220.428 244.028C232.644 225.824 246.454 208.736 261.697 192.963C254.909 184.473 248.89 175.633 243.512 167.43C233.148 181.767 221.278 194.96 208.102 206.782Z" fill="url(#paint19_radial_25_103)"/>
<path d="M310.072 108.514C316.07 110.633 322.255 112.183 328.545 113.141C328.454 119.494 328.958 125.841 330.05 132.099C324.048 129.96 317.85 128.41 311.545 127.472C311.659 121.12 311.166 114.772 310.072 108.514Z" fill="url(#paint20_linear_25_103)"/>
<path style="mix-blend-mode:screen" d="M320.157 114.099C320.157 113.333 320.157 112.567 320.414 111.801C315.771 110.652 312.057 109.439 310.617 108.929C311.625 114.886 312.096 120.92 312.025 126.961C315.003 127.408 317.884 128.014 320.478 128.653C319.858 123.826 319.751 118.948 320.157 114.099Z" fill="url(#paint21_radial_25_103)"/>
<path d="M218.988 602.251C241.646 603.854 264.405 603.299 286.957 600.591C292.673 622.554 300.466 643.927 310.233 664.423C287.575 662.819 264.815 663.375 242.263 666.082C236.564 644.114 228.77 622.739 218.988 602.251Z" fill="url(#paint22_linear_25_103)"/>
<path style="mix-blend-mode:screen" d="M258.943 612.432C258.431 609.719 257.983 607.006 257.535 604.262C240.566 604.836 226.575 604.102 221.229 603.751C230.353 623.28 237.734 643.571 243.288 664.391C253.488 663.121 263.746 662.365 274.023 662.125C267.243 646.141 262.188 629.483 258.943 612.432Z" fill="url(#paint23_radial_25_103)"/>
<path d="M325.664 624.911C326.424 626.819 326.661 628.895 326.352 630.925C326.043 632.955 325.197 634.867 323.903 636.464C319.037 641.762 309.112 638.028 307.895 627.305C307.229 621.206 307.641 615.038 309.112 609.081C315.005 607.331 321.159 606.619 327.297 606.974C338.118 607.804 342.344 617.506 337.254 622.613C335.712 624.006 333.819 624.956 331.778 625.36C329.737 625.765 327.624 625.61 325.664 624.911Z" fill="url(#paint24_linear_25_103)"/>
<path style="mix-blend-mode:screen" d="M319.037 607.645C320.594 614.024 321.463 620.55 321.63 627.113C321.726 630.66 321.598 634.21 321.246 637.741C322.059 637.38 322.797 636.871 323.423 636.241C324.651 634.716 325.452 632.893 325.745 630.959C326.037 629.025 325.81 627.049 325.088 625.23L324.64 624.177L325.728 624.56C327.583 625.19 329.573 625.322 331.495 624.94C333.418 624.559 335.205 623.68 336.678 622.39C337.603 621.395 338.219 620.154 338.452 618.817C338.685 617.481 338.525 616.105 337.99 614.857C337.018 612.741 335.458 610.945 333.495 609.684C331.532 608.423 329.248 607.748 326.913 607.74C324.295 607.493 321.66 607.461 319.037 607.645Z" fill="url(#paint25_radial_25_103)"/>
<path d="M209.511 686.923C208.758 685.802 208.319 684.501 208.24 683.154C208.162 681.808 208.446 680.464 209.063 679.264C211.464 675.21 218.347 676.072 220.653 682.934C221.927 686.759 222.512 690.778 222.381 694.807C218.832 696.729 214.976 698.024 210.984 698.636C203.94 699.594 199.906 693.913 202.468 689.955C203.263 688.869 204.336 688.015 205.575 687.482C206.813 686.949 208.172 686.756 209.511 686.923Z" fill="url(#paint26_linear_25_103)"/>
<path style="mix-blend-mode:screen" d="M216.138 697.105C214.263 693.229 212.813 689.163 211.816 684.977C211.276 682.703 210.859 680.401 210.568 678.083C210.103 678.429 209.711 678.863 209.415 679.359C208.838 680.509 208.576 681.791 208.655 683.074C208.733 684.357 209.15 685.597 209.863 686.668L210.279 687.274H209.543C208.265 687.125 206.97 687.315 205.789 687.825C204.609 688.335 203.584 689.147 202.82 690.179C202.365 690.944 202.142 691.824 202.176 692.712C202.21 693.601 202.5 694.461 203.012 695.19C203.923 696.413 205.169 697.349 206.599 697.887C208.03 698.424 209.585 698.541 211.08 698.222C212.795 697.995 214.487 697.621 216.138 697.105Z" fill="url(#paint27_radial_25_103)"/>
<path d="M367.605 690.498C365.808 691.091 363.885 691.197 362.034 690.804C360.183 690.412 358.47 689.535 357.072 688.264C352.461 683.54 356.431 674.636 366.388 673.997C372.029 673.722 377.675 674.435 383.068 676.104C384.357 681.592 384.682 687.261 384.029 692.86C382.684 702.722 373.496 706.041 369.109 701.126C367.929 699.65 367.167 697.886 366.902 696.017C366.638 694.148 366.88 692.242 367.605 690.498Z" fill="url(#paint28_linear_25_103)"/>
<path style="mix-blend-mode:screen" d="M383.869 685.359C377.915 686.446 371.861 686.895 365.812 686.7C362.542 686.569 359.283 686.259 356.047 685.774C356.34 686.53 356.775 687.223 357.328 687.817C358.664 689.016 360.294 689.843 362.054 690.213C363.814 690.583 365.64 690.483 367.349 689.923L368.341 689.572L367.925 690.562C367.246 692.224 367.022 694.037 367.275 695.814C367.528 697.592 368.249 699.27 369.366 700.679C370.223 701.588 371.329 702.227 372.547 702.516C373.764 702.805 375.04 702.733 376.217 702.307C378.216 701.535 379.952 700.208 381.217 698.482C382.483 696.757 383.225 694.706 383.356 692.572C383.733 690.187 383.904 687.774 383.869 685.359Z" fill="url(#paint29_radial_25_103)"/>
<path d="M557.906 667.04C560.28 667.846 562.394 669.272 564.027 671.17C565.66 673.067 566.752 675.366 567.191 677.827C568.279 686.509 556.914 692.7 545.9 685.423C539.689 681.195 534.271 675.913 529.892 669.817C532.953 662.986 537.19 656.743 542.411 651.369C551.759 642.05 564.117 645.88 564.822 654.561C564.888 657.066 564.282 659.544 563.066 661.738C561.85 663.932 560.069 665.762 557.906 667.04Z" fill="url(#paint30_linear_25_103)"/>
<path style="mix-blend-mode:screen" d="M536.584 659.412C543.746 663.031 550.498 667.408 556.722 672.466C560.09 675.216 563.297 678.157 566.326 681.274C566.627 680.239 566.736 679.157 566.647 678.083V677.891C566.206 675.552 565.153 673.37 563.596 671.566C562.039 669.762 560.032 668.399 557.778 667.614L556.434 667.167L557.65 666.497C559.71 665.286 561.412 663.552 562.581 661.472C563.751 659.392 564.347 657.041 564.309 654.657V654.465C564.132 652.819 563.477 651.261 562.425 649.98C561.373 648.699 559.97 647.751 558.387 647.252C555.655 646.468 552.756 646.481 550.032 647.29C547.308 648.098 544.874 649.669 543.019 651.816C540.653 654.153 538.499 656.695 536.584 659.412Z" fill="url(#paint31_radial_25_103)"/>
<path d="M195.296 253.794C195.296 253.794 191.134 267.422 177.815 269.305C163.536 271.284 153.003 252.901 164.689 234.677C171.482 224.446 180.021 215.481 189.917 208.187C201.231 213 211.612 219.751 220.588 228.134C236.212 243.135 230.193 263.465 215.914 264.837C202.564 266.082 195.296 253.794 195.296 253.794Z" fill="url(#paint32_linear_25_103)"/>
<path style="mix-blend-mode:screen" d="M207.27 218.751C201.513 230.596 194.493 241.788 186.332 252.135C181.903 257.72 177.157 263.048 172.117 268.093C173.821 268.582 175.607 268.723 177.367 268.507H177.687C190.205 266.752 194.303 253.826 194.336 253.699L195.04 251.528L196.192 253.507C196.192 253.507 203.268 265.22 215.85 264.039H216.17C218.871 263.699 221.414 262.582 223.49 260.825C225.565 259.068 227.082 256.747 227.856 254.145C230.001 247.762 229.041 237.9 219.916 229.123C216.02 225.296 211.788 221.825 207.27 218.751Z" fill="url(#paint33_radial_25_103)"/>
<path d="M281.066 724.999C281.463 726.504 281.449 728.087 281.027 729.585C280.605 731.083 279.789 732.441 278.665 733.52C274.503 737.063 267.363 733.329 267.363 725.127C267.439 720.477 268.328 715.876 269.989 711.53C274.594 710.707 279.31 710.707 283.916 711.53C291.984 713.126 294.225 720.85 289.934 724.297C288.656 725.198 287.158 725.738 285.597 725.862C284.036 725.985 282.471 725.687 281.066 724.999Z" fill="url(#paint34_linear_25_103)"/>
<path style="mix-blend-mode:screen" d="M277.704 711.371C278.233 716.325 278.233 721.321 277.704 726.276C277.439 728.958 277.011 731.623 276.424 734.254C277.063 734.056 277.659 733.742 278.185 733.329C279.249 732.298 280.022 731.006 280.427 729.583C280.831 728.16 280.853 726.656 280.49 725.222L280.234 724.361L281.034 724.775C282.377 725.411 283.863 725.686 285.345 725.574C286.827 725.462 288.255 724.967 289.486 724.137C290.29 723.483 290.882 722.607 291.189 721.62C291.497 720.632 291.506 719.576 291.215 718.584C290.679 716.9 289.671 715.404 288.309 714.273C286.948 713.142 285.29 712.423 283.531 712.201C281.616 711.761 279.667 711.483 277.704 711.371Z" fill="url(#paint35_radial_25_103)"/>
<path d="M280.714 76.1191C280.714 76.1191 276.232 87.896 264.386 88.8854C251.58 89.779 243.512 72.9275 254.781 57.6079C261.357 48.9807 269.41 41.5795 278.569 35.7456C288.247 40.6551 296.99 47.2112 304.406 55.1185C317.212 69.2891 310.809 86.8428 298.003 87.1938C286.349 87.3853 280.714 76.1191 280.714 76.1191Z" fill="url(#paint36_linear_25_103)"/>
<path style="mix-blend-mode:screen" d="M293.328 45.9268C287.556 55.9961 280.708 65.4129 272.902 74.0126C268.644 78.6714 264.111 83.0729 259.328 87.1939C260.804 87.7235 262.371 87.9514 263.938 87.8641H264.226C275.335 87.0662 279.722 75.9276 279.786 75.7999L280.522 73.9169L281.418 75.7042C281.418 75.7042 287.053 86.4917 298.195 86.1726H298.483C300.887 86.0245 303.197 85.1864 305.134 83.7594C307.071 82.3324 308.552 80.3773 309.4 78.1298C311.673 72.6722 311.385 63.8953 303.893 55.5972C300.655 52.0792 297.12 48.8439 293.328 45.9268Z" fill="url(#paint37_radial_25_103)"/>
<path d="M20.7141 297.647C22.1458 297.934 23.4728 298.602 24.5549 299.579C25.637 300.557 26.4339 301.808 26.8612 303.2C28.1738 308.051 22.2189 312.455 15.3995 309.2C11.5458 307.299 8.05653 304.739 5.09045 301.636C6.27506 297.515 8.18281 293.636 10.7252 290.178C15.2715 284.114 22.6031 285.327 23.6916 290.178C23.8893 291.574 23.7187 292.996 23.1966 294.306C22.6744 295.616 21.8188 296.767 20.7141 297.647Z" fill="url(#paint38_linear_25_103)"/>
<path style="mix-blend-mode:screen" d="M8.03601 295.029C12.3876 296.507 16.5639 298.455 20.4901 300.838C22.6205 302.121 24.6731 303.527 26.6372 305.051C26.7485 304.45 26.7485 303.833 26.6372 303.232C26.1982 301.938 25.4258 300.783 24.3974 299.881C23.3691 298.979 22.121 298.363 20.7783 298.093H19.9779L20.6182 297.583C21.6881 296.731 22.5125 295.612 23.0074 294.339C23.5023 293.067 23.65 291.686 23.4356 290.338C23.2079 289.417 22.7128 288.584 22.0124 287.942C21.3119 287.301 20.4371 286.88 19.4976 286.731C17.8864 286.502 16.243 286.738 14.762 287.411C13.2811 288.084 12.0247 289.166 11.1415 290.529C9.9685 291.93 8.92883 293.437 8.03601 295.029Z" fill="url(#paint39_radial_25_103)"/>
<path d="M76.8378 575.824C75.7652 576.863 74.4355 577.599 72.9844 577.958C71.5333 578.317 70.0127 578.285 68.5777 577.867C63.6473 576.112 63.3911 568.292 70.2425 564.526C74.1602 562.368 78.4312 560.919 82.8567 560.25C85.6528 563.709 87.8199 567.63 89.2599 571.835C91.7571 579.303 86.3784 584.825 81.512 582.846C80.1791 582.193 79.044 581.199 78.2228 579.965C77.4015 578.731 76.9236 577.303 76.8378 575.824Z" fill="url(#paint40_linear_25_103)"/>
<path style="mix-blend-mode:screen" d="M86.4425 566.569C82.5794 569.385 78.4258 571.781 74.0524 573.718C71.6857 574.774 69.259 575.69 66.7848 576.463C67.2546 576.894 67.7963 577.239 68.3856 577.484C69.7547 577.872 71.2018 577.897 72.5833 577.555C73.9649 577.214 75.2328 576.518 76.2614 575.537L76.8377 574.931V575.761C76.9307 577.179 77.4007 578.548 78.1997 579.726C78.9987 580.904 80.0977 581.848 81.384 582.463C82.3171 582.805 83.3293 582.873 84.2999 582.658C85.2706 582.443 86.1587 581.954 86.8587 581.25C88.0027 580.006 88.767 578.462 89.0619 576.8C89.3568 575.138 89.17 573.427 88.5235 571.867C87.9876 570.043 87.2913 568.27 86.4425 566.569Z" fill="url(#paint41_radial_25_103)"/>
<path d="M198.498 487.131C196.749 489.038 194.522 490.446 192.046 491.209C189.569 491.972 186.934 492.063 184.411 491.471C175.734 488.886 174.518 475.513 185.979 468.205C192.552 464.115 199.789 461.199 207.366 459.587C212.584 465.304 216.765 471.88 219.724 479.024C224.718 491.79 215.978 501.78 207.43 498.812C205.034 497.832 202.943 496.233 201.373 494.18C199.803 492.127 198.81 489.694 198.498 487.131Z" fill="url(#paint42_linear_25_103)"/>
<path style="mix-blend-mode:screen" d="M214.505 470.151C208.107 475.416 201.163 479.985 193.791 483.779C189.798 485.806 185.693 487.607 181.497 489.173C182.342 489.899 183.321 490.452 184.379 490.801H184.571C186.975 491.343 189.481 491.245 191.835 490.517C194.19 489.788 196.311 488.455 197.985 486.652L198.946 485.567V487.003C199.251 489.44 200.196 491.753 201.686 493.709C203.176 495.665 205.157 497.194 207.43 498.142H207.622C209.262 498.656 211.017 498.683 212.672 498.218C214.327 497.753 215.809 496.817 216.939 495.524C218.808 493.265 219.988 490.519 220.34 487.612C220.692 484.704 220.2 481.757 218.924 479.12C217.715 476.008 216.237 473.007 214.505 470.151Z" fill="url(#paint43_radial_25_103)"/>
<path d="M278.537 177.803C277.711 178.551 276.704 179.072 275.615 179.312C274.525 179.553 273.391 179.506 272.326 179.175C268.644 177.771 268.58 171.994 273.799 169.218C276.799 167.664 280.05 166.648 283.403 166.218C285.483 168.858 287.087 171.838 288.142 175.026C289.871 180.643 285.773 184.601 282.155 183.133C281.132 182.644 280.258 181.892 279.623 180.956C278.987 180.019 278.612 178.931 278.537 177.803Z" fill="url(#paint44_linear_25_103)"/>
<path style="mix-blend-mode:screen" d="M286.061 171.037C283.115 173.078 279.96 174.8 276.648 176.175C274.863 176.922 273.035 177.562 271.173 178.09C271.521 178.42 271.921 178.69 272.358 178.888C273.409 179.255 274.542 179.327 275.631 179.096C276.721 178.865 277.726 178.341 278.537 177.579L278.985 177.164V177.771C279.023 178.827 279.339 179.855 279.901 180.751C280.463 181.647 281.251 182.38 282.187 182.877C282.874 183.152 283.627 183.223 284.354 183.082C285.081 182.94 285.752 182.592 286.285 182.079C287.17 181.167 287.776 180.022 288.031 178.778C288.287 177.534 288.181 176.244 287.725 175.058C287.283 173.674 286.727 172.329 286.061 171.037Z" fill="url(#paint45_radial_25_103)"/>
<path d="M360.753 753.212C360.753 753.212 356.143 765.979 343.401 767.096C329.762 768.309 320.638 750.34 332.612 733.616C339.551 724.23 348.077 716.119 357.808 709.647C368.315 714.765 377.848 721.666 385.982 730.042C400.101 745.042 393.441 764.064 379.771 764.67C367.028 765.053 360.753 753.212 360.753 753.212Z" fill="url(#paint46_linear_25_103)"/>
<path style="mix-blend-mode:screen" d="M373.752 720.339C367.713 731.27 360.51 741.521 352.269 750.914C347.826 756.003 343.079 760.821 338.054 765.34C339.65 765.876 341.336 766.093 343.017 765.979H343.305C355.247 764.894 359.793 752.829 359.825 752.702L360.561 750.659L361.586 752.606C361.586 752.606 367.765 764.064 379.739 763.521H380.059C382.638 763.312 385.103 762.367 387.158 760.8C389.213 759.232 390.772 757.108 391.649 754.681C393.986 748.744 393.537 739.297 385.245 730.552C381.72 726.821 377.874 723.403 373.752 720.339Z" fill="url(#paint47_radial_25_103)"/>
<path d="M199.714 112.312C190.494 120.769 185.883 125.237 174.102 129.131C184.187 136.376 187.228 141.898 193.311 152.845C202.916 169.76 220.108 163.824 222.669 152.142C223.159 149.368 222.878 146.512 221.856 143.885C220.835 141.258 219.112 138.959 216.875 137.238C222.222 138.7 227.396 140.733 232.306 143.302L233.715 133.184C228.257 134.175 222.707 134.571 217.163 134.365C219.886 133.387 222.284 131.676 224.092 129.423C225.9 127.17 227.048 124.462 227.408 121.599C228.592 109.854 214.121 99.0984 199.714 112.312Z" fill="#4D4D4D"/>
<path style="mix-blend-mode:screen" d="M222.061 151.983C222.077 151.696 222.077 151.408 222.061 151.121C222.061 151.121 222.061 150.866 222.061 150.706C210.36 142.298 199.961 132.223 191.198 120.801C186.587 124.586 181.326 127.505 175.67 129.419C184.603 136.121 187.804 141.706 193.439 151.472L193.983 152.43C198.209 159.739 204.292 163.377 210.664 162.388C213.396 162.006 215.948 160.807 217.983 158.95C220.018 157.092 221.44 154.663 222.061 151.983Z" fill="url(#paint48_radial_25_103)"/>
<path d="M262.849 92.5559C249.467 95.2687 242.647 96.8326 229.425 93.8645C234.739 106.28 234.387 113.269 234.099 126.865C233.619 148.153 252.924 152.175 261.889 142.823C263.949 140.475 265.317 137.604 265.843 134.529C266.368 131.453 266.03 128.293 264.866 125.397C269.036 129.756 272.708 134.562 275.816 139.727L282.891 131.27C277.271 129.138 271.903 126.398 266.883 123.099C269.951 123.719 273.131 123.484 276.073 122.42C279.016 121.355 281.608 119.504 283.563 117.067C291.343 106.535 283.756 88.343 262.849 92.5559Z" fill="#4D4D4D"/>
<path style="mix-blend-mode:screen" d="M261.248 142.185C261.473 141.929 261.697 141.706 261.889 141.451L262.177 141.1C256.002 126.645 251.989 111.364 250.267 95.7473C243.875 96.6849 237.364 96.4469 231.058 95.0452C235.604 106.343 235.444 113.333 235.188 125.652V126.865C234.996 136.057 238.613 142.823 245.113 145.536C247.833 146.632 250.818 146.899 253.691 146.302C256.563 145.706 259.194 144.273 261.248 142.185Z" fill="url(#paint49_radial_25_103)"/>
<path d="M215.946 567.112C193.183 572.346 181.561 575.346 158.862 570.814C168.467 591.814 168.211 603.751 168.467 627.049C168.467 663.433 201.731 669.466 216.682 652.933C226.031 642.624 223.47 629.922 221.005 623.028C226.831 629.188 237.012 640.422 240.214 647.029L251.932 632.284C244.728 630.592 231.41 623.251 224.046 619.007C231.346 619.836 244.344 619.39 252.284 607.964C264.962 589.676 251.484 558.909 215.946 567.112Z" fill="#4D4D4D"/>
<path style="mix-blend-mode:screen" d="M215.402 651.912C215.754 651.497 216.138 651.082 216.458 650.667L216.907 650.061C205.738 625.661 198.189 599.773 194.496 573.208C183.522 575.111 172.29 574.992 161.359 572.856C169.651 592.006 169.683 603.942 169.747 624.943V627.049C169.747 642.752 176.311 654.21 187.58 658.518C192.347 660.327 197.55 660.664 202.512 659.485C207.473 658.307 211.965 655.668 215.402 651.912Z" fill="url(#paint50_radial_25_103)"/>
<path d="M20.0419 402.873C12.102 404.947 8.03595 406.064 0 404.756C3.58576 412.033 3.61778 416.246 3.8739 424.448C4.29011 437.214 16.0079 439.033 21.1304 433.065C22.2939 431.59 23.0286 429.825 23.2544 427.962C23.4803 426.099 23.1885 424.21 22.411 422.501C25.0428 425.02 27.3839 427.825 29.3905 430.863L33.3604 425.565C29.9036 424.455 26.5763 422.978 23.4355 421.161C25.2968 421.438 27.1987 421.193 28.9287 420.455C30.6587 419.717 32.1488 418.513 33.2323 416.98C37.5224 410.341 32.496 399.617 20.0419 402.873Z" fill="#4D4D4D"/>
<path style="mix-blend-mode:screen" d="M20.7142 432.714C20.8487 432.579 20.9669 432.429 21.0664 432.267V432.044C16.9042 423.569 13.9927 414.54 12.4221 405.235C8.62807 405.957 4.73411 405.99 0.928467 405.33C3.52611 411.053 4.71172 417.313 4.38617 423.586V424.48C4.57826 430.001 6.97944 434.055 10.9814 435.395C12.6852 435.984 14.5281 436.042 16.2661 435.564C18.0041 435.085 19.5553 434.091 20.7142 432.714Z" fill="url(#paint51_radial_25_103)"/>
<path d="M710.749 525.238C707.437 525.145 704.206 524.199 701.369 522.493C701.592 525.788 700.963 529.084 699.544 532.068C697.431 537.908 702.393 540.845 705.755 539.057C706.549 538.598 707.2 537.929 707.635 537.123C708.07 536.317 708.273 535.407 708.22 534.493C708.971 536.096 709.54 537.776 709.917 539.504L712.67 537.813C711.31 536.694 710.075 535.431 708.989 534.047C709.77 534.52 710.667 534.77 711.582 534.77C712.496 534.77 713.394 534.52 714.175 534.047C717.153 531.749 716.832 526.004 710.749 525.238Z" fill="#4D4D4D"/>
<path style="mix-blend-mode:screen" d="M705.563 538.834H705.787C705.436 534.258 705.76 529.656 706.747 525.174C704.865 524.859 703.061 524.188 701.433 523.195C701.558 526.236 700.966 529.264 699.704 532.036V532.387C699.214 533.38 699.046 534.501 699.224 535.593C699.402 536.685 699.917 537.695 700.696 538.483C701.382 539.015 702.21 539.333 703.076 539.395C703.942 539.458 704.808 539.262 705.563 538.834Z" fill="url(#paint52_radial_25_103)"/>
<path d="M80.9038 392.979C69.2181 392.277 63.2311 392.054 52.9541 386.596C54.5549 398.054 52.73 403.767 49.4323 414.969C44.3098 432.491 59.3572 440.119 68.9299 434.278C71.165 432.796 72.9458 430.727 74.0757 428.3C75.2057 425.872 75.6408 423.181 75.3331 420.522C77.8086 425.063 79.7838 429.857 81.224 434.821L88.9718 429.395C84.7656 426.362 80.9012 422.884 77.4461 419.022C79.8503 420.215 82.5371 420.727 85.2131 420.502C87.8892 420.277 90.4519 419.324 92.6216 417.746C101.266 410.82 99.2488 394.096 80.9038 392.979Z" fill="#4D4D4D"/>
<path style="mix-blend-mode:screen" d="M68.5456 433.704L69.218 433.257L69.5061 433.033C67.6386 419.708 67.7249 406.184 69.7622 392.883C64.1722 392.242 58.747 390.587 53.7544 388C55.003 398.341 53.3062 404.118 50.3287 414.235L50.0406 415.256C47.8315 422.82 49.3042 429.267 54.1065 432.938C56.1558 434.5 58.6308 435.41 61.2073 435.546C63.7838 435.683 66.3416 435.041 68.5456 433.704Z" fill="url(#paint53_radial_25_103)"/>
<path d="M120.859 321.998C135.491 333.392 143.27 339.073 151.723 355.35C159.951 338.882 167.474 333.009 181.881 321.36C204.292 303.04 191.486 279.614 173.814 278.657C162.736 278.05 156.109 285.997 153.099 290.976C153.953 282.823 155.692 274.786 158.286 267.007H143.27C146.04 274.724 147.961 282.718 149.001 290.848C145.8 285.933 139.076 278.082 128.031 278.976C110.294 280.444 97.9362 304.157 120.859 321.998Z" fill="#4D4D4D"/>
<path style="mix-blend-mode:screen" d="M173.749 279.838H171.829C162.272 298.928 149.977 316.528 135.331 332.084C141.995 337.908 147.539 344.895 151.691 352.701C159.374 338.052 166.834 332.02 179.832 321.424L181.113 320.403C190.718 312.487 194.72 302.721 191.742 293.657C190.475 289.823 188.082 286.457 184.875 283.993C181.667 281.529 177.791 280.082 173.749 279.838Z" fill="url(#paint54_radial_25_103)"/>
<path d="M335.717 51.9271C344.137 41.8736 348.331 36.6075 360.049 30.9584C348.587 24.7987 344.649 19.373 336.678 8.96843C324.255 -7.30861 307.351 1.18098 306.263 13.6601C306.142 16.6554 306.848 19.6263 308.304 22.2489C309.761 24.8715 311.912 27.0451 314.523 28.5328C308.792 27.7308 303.167 26.3074 297.746 24.288L297.49 34.8521C303.016 33.0976 308.716 31.942 314.491 31.4052C311.819 32.7694 309.576 34.8398 308.006 37.3898C306.437 39.9398 305.601 42.8712 305.59 45.8631C306.07 58.3741 322.559 67.5977 335.717 51.9271Z" fill="#4D4D4D"/>
<path style="mix-blend-mode:screen" d="M307.127 13.7238C307.127 14.043 307.127 14.3621 307.127 14.6494V15.0643C320.418 22.2412 332.594 31.304 343.273 41.9693C347.555 37.4136 352.632 33.6718 358.256 30.9264C348.043 25.1816 343.945 19.8197 336.774 10.4046L336.165 9.57477C330.627 2.45755 323.807 -0.478705 317.308 1.40433C314.566 2.20055 312.128 3.80172 310.312 5.99917C308.496 8.19662 307.386 10.8884 307.127 13.7238Z" fill="url(#paint55_radial_25_103)"/>
<path d="M123.805 628.103C143.687 627.273 153.9 626.603 172.213 633.943C167.474 614.794 169.555 604.836 173.141 585.303C178.744 554.792 151.915 544.547 136.771 556.101C127.359 563.25 127.487 574.324 128.479 580.484C124.541 574.42 117.754 563.377 116.025 557.345L103.891 567.877C109.654 570.431 119.675 578.633 125.181 583.357C119.195 581.537 108.213 579.846 99.761 588.176C86.2504 601.549 92.8456 629.443 123.805 628.103Z" fill="url(#paint56_linear_25_103)"/>
<path style="mix-blend-mode:screen" d="M137.668 557.122L136.579 557.984L136.131 558.43C141.621 580.631 143.853 603.508 142.758 626.347C152.234 626.502 161.6 628.395 170.388 631.932C166.45 614.634 168.307 604.581 171.54 586.931L171.86 585.176C174.262 571.995 170.644 561.367 161.872 556.005C158.186 553.763 153.911 552.671 149.598 552.87C145.285 553.069 141.13 554.55 137.668 557.122Z" fill="url(#paint57_radial_25_103)"/>
<path d="M343.049 70.8212C353.198 81.5449 358.512 86.779 363.283 100.726C371.735 88.7897 378.362 85.1194 391.104 77.6192C410.986 65.938 403.718 45.9588 389.888 43.0863C386.547 42.5513 383.124 42.9411 379.99 44.213C376.857 45.485 374.134 47.5903 372.119 50.2993C373.783 44.0029 376.123 37.9037 379.098 32.1073L367.285 30.4158C368.533 36.8167 369.08 43.3338 368.917 49.8525C367.744 46.6874 365.719 43.9054 363.065 41.8112C360.411 39.717 357.23 38.3915 353.87 37.9798C339.751 36.8947 327.201 54.0654 343.049 70.8212Z" fill="#4D4D4D"/>
<path style="mix-blend-mode:screen" d="M389.696 44.0438L388.671 43.8523H388.191C378.379 57.7085 366.59 70.0626 353.198 80.5235C357.744 85.8962 361.27 92.0502 363.603 98.6836C371.415 88.0876 377.978 84.2577 389.471 77.4915L390.624 76.8213C399.204 71.7786 403.43 64.5656 402.182 57.0654C401.658 53.8939 400.186 50.9539 397.958 48.6304C395.73 46.3069 392.85 44.7083 389.696 44.0438Z" fill="url(#paint58_radial_25_103)"/>
<path d="M105.3 492.652C91.0848 503.823 83.9452 509.727 66.5287 514.068C80.2314 525.621 84.0093 534.047 91.7891 550.356C103.955 575.888 129.183 569.122 134.178 552.59C137.38 542.313 131.297 534.238 127.295 530.249C134.825 532.938 142.039 536.438 148.809 540.685L152.011 526.515C144.051 527.359 136.023 527.359 128.063 526.515C133.442 524.664 142.406 520.132 144.071 509.472C147.272 492.301 127.519 475.162 105.3 492.652Z" fill="#4D4D4D"/>
<path style="mix-blend-mode:screen" d="M133.057 552.143C133.057 551.728 133.282 551.313 133.378 550.898C133.474 550.483 133.378 550.515 133.378 550.324C117.509 536.936 103.682 521.314 92.3334 503.95C85.2742 508.906 77.3636 512.529 68.9939 514.642C81.1279 525.27 85.0018 533.791 92.1733 548.377L92.8456 549.845C98.1282 560.824 106.484 566.729 115.801 566.026C119.745 565.712 123.502 564.219 126.58 561.742C129.659 559.265 131.917 555.92 133.057 552.143Z" fill="url(#paint59_radial_25_103)"/>
<path d="M152.395 649.71C152.581 646.16 153.683 642.719 155.596 639.72C152.042 639.916 148.498 639.179 145.319 637.582C138.916 635.188 135.715 640.422 137.636 643.965C138.121 644.817 138.831 645.521 139.689 645.999C140.547 646.477 141.52 646.712 142.502 646.678C140.77 647.454 138.954 648.032 137.091 648.401L138.82 651.369C140.06 649.932 141.455 648.637 142.982 647.507C142.463 648.341 142.188 649.303 142.188 650.284C142.188 651.265 142.463 652.227 142.982 653.061C145.223 656.572 151.402 656.316 152.395 649.71Z" fill="#4D4D4D"/>
<path d="M682.672 560.76C681.82 560.824 680.992 561.063 680.238 561.463C681.121 560.615 681.725 559.521 681.97 558.324C682.215 557.127 682.089 555.885 681.61 554.76C681.132 553.636 680.322 552.683 679.288 552.028C678.254 551.373 677.045 551.045 675.82 551.09C674.613 551.205 673.467 551.677 672.531 552.447C671.594 553.216 670.91 554.246 670.566 555.406C670.222 556.566 670.233 557.802 670.599 558.955C670.965 560.108 671.668 561.126 672.619 561.877C671.831 561.539 670.979 561.375 670.121 561.399C668.985 561.428 667.879 561.775 666.93 562.399C665.98 563.024 665.226 563.901 664.751 564.931C664.277 565.961 664.102 567.103 664.246 568.228C664.39 569.353 664.847 570.414 665.566 571.293C666.284 572.172 667.236 572.832 668.312 573.198C669.388 573.565 670.545 573.624 671.653 573.368C672.761 573.112 673.775 572.552 674.579 571.751C675.384 570.949 675.947 569.939 676.204 568.835C676.018 571.989 675.492 575.113 674.636 578.155L680.046 577.867C678.873 574.936 678.025 571.886 677.517 568.771C677.903 569.798 678.566 570.698 679.433 571.372C680.3 572.046 681.338 572.467 682.431 572.589C683.523 572.711 684.629 572.529 685.624 572.063C686.619 571.598 687.466 570.866 688.07 569.95C688.674 569.034 689.012 567.97 689.046 566.874C689.08 565.779 688.809 564.695 688.264 563.743C687.718 562.792 686.919 562.009 685.954 561.483C684.99 560.956 683.898 560.706 682.8 560.76H682.672Z" fill="#4D4D4D"/>
<path style="mix-blend-mode:screen" d="M669.129 572.984C671.225 569.069 673.795 565.424 676.781 562.133C678.367 560.354 680.079 558.69 681.903 557.154V556.835C681.902 556.072 681.745 555.318 681.442 554.618C681.139 553.918 680.696 553.286 680.141 552.762C679.585 552.238 678.928 551.833 678.21 551.57C677.492 551.307 676.728 551.193 675.964 551.234C675.2 551.276 674.453 551.471 673.767 551.81C673.082 552.148 672.473 552.622 671.977 553.203C671.481 553.784 671.109 554.459 670.884 555.188C670.659 555.916 670.584 556.683 670.666 557.441C670.716 558.251 670.935 559.041 671.31 559.761C671.685 560.482 672.207 561.115 672.843 561.622L672.523 562.165C671.787 561.843 670.988 561.69 670.186 561.718C668.835 561.827 667.566 562.408 666.602 563.357C665.639 564.307 665.041 565.564 664.915 566.909C664.789 568.254 665.142 569.6 665.913 570.711C666.683 571.822 667.822 572.627 669.129 572.984Z" fill="url(#paint60_radial_25_103)"/>
<path d="M48.632 476.63C47.8297 477.802 47.2842 479.128 47.0312 480.524C46.9378 478.853 46.4205 477.232 45.5276 475.814C44.6348 474.396 43.3957 473.227 41.9263 472.417C40.4568 471.607 38.8051 471.181 37.1258 471.18C35.4465 471.18 33.7945 471.604 32.3244 472.413C30.8542 473.222 29.6141 474.39 28.7201 475.807C27.8261 477.224 27.3074 478.844 27.2126 480.516C27.1178 482.187 27.45 483.855 28.178 485.364C28.9061 486.872 30.0062 488.172 31.3755 489.141C32.524 489.988 33.8423 490.577 35.2402 490.869C36.6381 491.161 38.0827 491.148 39.4755 490.833C37.6851 491.818 36.24 493.326 35.3342 495.154C34.4284 496.982 34.1054 499.042 34.4084 501.058C34.7114 503.075 35.626 504.95 37.0294 506.433C38.4328 507.916 40.2578 508.936 42.2592 509.355C44.2607 509.774 46.3429 509.572 48.2261 508.777C50.1093 507.982 51.7035 506.632 52.7945 504.907C53.8856 503.183 54.4212 501.167 54.3296 499.13C54.2379 497.094 53.5233 495.134 52.2818 493.514C56.1543 497.044 59.6323 500.982 62.6549 505.259L67.8414 497.886C62.8322 496.283 58.0123 494.143 53.4663 491.503C55.1866 492.067 57.0297 492.147 58.7924 491.733C60.5551 491.319 62.1688 490.427 63.4554 489.157C64.742 487.886 65.6515 486.286 66.0835 484.533C66.5155 482.78 66.4532 480.942 65.9035 479.222C65.3538 477.502 64.3381 475.966 62.9684 474.785C61.5987 473.604 59.9284 472.823 58.1417 472.529C56.355 472.234 54.5214 472.438 52.8433 473.116C51.1652 473.795 49.7078 474.923 48.632 476.375V476.63Z" fill="#4D4D4D"/>
<path style="mix-blend-mode:screen" d="M50.1046 506.95C47.27 500.171 45.26 493.078 44.1177 485.822C43.5104 481.934 43.1575 478.011 43.0612 474.077L42.645 473.758C41.6625 472.967 40.5289 472.383 39.313 472.042C38.0972 471.701 36.8245 471.61 35.5724 471.775C34.3202 471.94 33.1147 472.356 32.0291 473C30.9436 473.643 30.0006 474.5 29.2574 475.518C28.5143 476.536 27.9866 477.694 27.7064 478.922C27.4261 480.15 27.3992 481.421 27.6272 482.66C27.8553 483.898 28.3335 485.077 29.0329 486.126C29.7323 487.174 30.6382 488.07 31.6956 488.758C32.7844 489.55 34.031 490.099 35.3511 490.369C36.6712 490.639 38.034 490.623 39.3474 490.322L39.6995 491.28C38.5297 491.914 37.5048 492.783 36.6901 493.833C35.5086 495.684 35.0008 497.884 35.2516 500.064C35.5024 502.244 36.4967 504.271 38.068 505.808C39.6392 507.344 41.6922 508.296 43.8833 508.504C46.0744 508.712 48.2707 508.164 50.1046 506.95Z" fill="url(#paint61_radial_25_103)"/>
<path d="M319.613 677.125C318.079 677.226 316.584 677.65 315.227 678.37C316.807 676.888 317.894 674.959 318.342 672.843C318.791 670.727 318.579 668.525 317.735 666.532C316.891 664.54 315.456 662.853 313.622 661.697C311.789 660.541 309.644 659.973 307.477 660.068C305.309 660.162 303.223 660.916 301.498 662.227C299.772 663.539 298.491 665.345 297.826 667.403C297.16 669.462 297.143 671.674 297.775 673.743C298.408 675.812 299.66 677.638 301.364 678.976C299.314 678.132 297.054 677.933 294.888 678.408C292.721 678.883 290.753 680.008 289.247 681.632C287.742 683.256 286.772 685.301 286.468 687.491C286.163 689.681 286.539 691.912 287.545 693.882C288.551 695.853 290.139 697.469 292.094 698.513C294.05 699.557 296.279 699.979 298.482 699.721C300.685 699.464 302.756 698.54 304.416 697.073C306.076 695.607 307.246 693.668 307.767 691.519C307.376 697.16 306.389 702.745 304.822 708.179L314.427 707.764C312.38 702.49 310.91 697.012 310.04 691.423C310.72 693.262 311.897 694.877 313.44 696.09C314.983 697.303 316.833 698.068 318.784 698.299C320.736 698.531 322.713 698.22 324.499 697.401C326.284 696.582 327.808 695.287 328.901 693.659C329.995 692.031 330.616 690.134 330.695 688.176C330.775 686.219 330.31 684.277 329.353 682.566C328.395 680.856 326.981 679.442 325.268 678.482C323.555 677.522 321.609 677.052 319.645 677.125H319.613Z" fill="#4D4D4D"/>
<path style="mix-blend-mode:screen" d="M294.865 698.956C298.702 691.986 303.367 685.503 308.76 679.646C311.653 676.507 314.743 673.554 318.012 670.806C318.028 670.625 318.028 670.444 318.012 670.263C317.92 668.593 317.41 666.972 316.528 665.549C315.646 664.126 314.421 662.945 312.965 662.115C311.508 661.284 309.866 660.831 308.188 660.795C306.511 660.759 304.851 661.143 303.36 661.911C301.869 662.679 300.595 663.807 299.653 665.191C298.712 666.576 298.133 668.174 297.969 669.838C297.806 671.503 298.063 673.182 298.718 674.723C299.372 676.263 300.403 677.616 301.716 678.657L301.172 679.615C299.608 678.935 297.894 678.67 296.196 678.844C294.499 679.017 292.875 679.624 291.482 680.606C290.088 681.588 288.972 682.911 288.241 684.448C287.51 685.985 287.189 687.684 287.309 689.381C287.395 691.567 288.171 693.671 289.528 695.39C290.886 697.11 292.753 698.358 294.865 698.956Z" fill="url(#paint62_radial_25_103)"/>
<path d="M115.417 336.456C114.386 337.052 113.491 337.856 112.791 338.818C113.202 337.692 113.366 336.491 113.272 335.296C113.178 334.102 112.829 332.941 112.247 331.892C111.569 330.677 110.596 329.652 109.416 328.91C108.237 328.168 106.889 327.733 105.497 327.645C104.106 327.558 102.714 327.82 101.45 328.409C100.187 328.997 99.0917 329.893 98.2658 331.013C97.4399 332.133 96.9096 333.442 96.7236 334.82C96.5376 336.198 96.7019 337.601 97.2013 338.899C97.7008 340.197 98.5194 341.349 99.582 342.249C100.645 343.15 101.917 343.77 103.283 344.052C102.087 344.112 100.919 344.427 99.8571 344.978C98.4522 345.706 97.2797 346.811 96.4722 348.169C95.6648 349.527 95.2546 351.083 95.2882 352.661C95.3217 354.239 95.7975 355.776 96.6619 357.099C97.5263 358.422 98.7447 359.477 100.179 360.145C101.614 360.813 103.207 361.067 104.78 360.88C106.352 360.692 107.84 360.069 109.076 359.082C110.311 358.095 111.245 356.783 111.772 355.295C112.298 353.806 112.396 352.2 112.055 350.659C113.765 354.764 115.01 359.045 115.769 363.425L122.428 359.755C119.154 356.77 116.213 353.442 113.656 349.829C114.771 350.881 116.157 351.605 117.66 351.921C119.162 352.237 120.723 352.132 122.17 351.619C123.616 351.105 124.892 350.203 125.856 349.011C126.82 347.82 127.435 346.385 127.632 344.867C127.829 343.349 127.602 341.806 126.974 340.409C126.346 339.012 125.343 337.815 124.075 336.951C122.807 336.087 121.325 335.59 119.791 335.514C118.257 335.438 116.732 335.786 115.385 336.52L115.417 336.456Z" fill="#4D4D4D"/>
<path style="mix-blend-mode:screen" d="M105.652 360.202C105.906 353.996 106.917 347.844 108.661 341.882C109.59 338.622 110.723 335.424 112.055 332.307L111.863 331.924C111.214 330.784 110.289 329.823 109.172 329.13C108.055 328.438 106.782 328.035 105.469 327.959C104.156 327.883 102.844 328.136 101.654 328.695C100.464 329.254 99.434 330.101 98.657 331.159C97.88 332.218 97.3812 333.453 97.2062 334.752C97.0312 336.052 97.1855 337.375 97.655 338.6C98.1245 339.825 98.8944 340.913 99.8942 341.765C100.894 342.617 102.092 343.206 103.379 343.478V344.308C102.263 344.394 101.176 344.697 100.177 345.201C98.4259 346.094 97.0621 347.594 96.3424 349.419C95.6227 351.244 95.5967 353.269 96.2693 355.112C96.9419 356.954 98.2667 358.489 99.9946 359.426C101.723 360.364 103.734 360.639 105.652 360.202Z" fill="url(#paint63_radial_25_103)"/>
<path d="M615.407 639.401C615.598 638.55 615.598 637.667 615.407 636.815C615.856 637.749 616.536 638.554 617.382 639.155C618.228 639.755 619.213 640.133 620.244 640.251C621.276 640.37 622.322 640.226 623.283 639.832C624.243 639.439 625.089 638.81 625.739 638.002C626.39 637.195 626.825 636.237 627.004 635.217C627.182 634.197 627.099 633.148 626.76 632.169C626.422 631.19 625.841 630.312 625.07 629.618C624.3 628.923 623.365 628.435 622.354 628.198C621.499 627.984 620.607 627.956 619.74 628.116C618.872 628.275 618.05 628.619 617.327 629.124C617.89 628.444 618.295 627.648 618.512 626.794C618.809 625.678 618.787 624.502 618.449 623.398C618.11 622.294 617.47 621.307 616.598 620.547C615.727 619.787 614.659 619.285 613.517 619.097C612.375 618.91 611.202 619.045 610.133 619.486C609.063 619.928 608.138 620.658 607.463 621.596C606.788 622.534 606.389 623.641 606.311 624.792C606.234 625.944 606.481 627.094 607.024 628.114C607.568 629.133 608.386 629.98 609.388 630.56C606.343 629.428 603.425 627.984 600.679 626.251L599.335 631.613C602.535 631.361 605.754 631.436 608.939 631.837C607.463 631.882 606.053 632.462 604.974 633.468C603.895 634.474 603.22 635.837 603.075 637.302C602.93 638.768 603.325 640.236 604.186 641.433C605.047 642.629 606.316 643.472 607.755 643.805C608.547 644.022 609.375 644.079 610.19 643.975C611.005 643.87 611.792 643.606 612.503 643.196C613.215 642.786 613.838 642.24 614.337 641.588C614.835 640.937 615.199 640.193 615.407 639.401Z" fill="#4D4D4D"/>
<path style="mix-blend-mode:screen" d="M607.467 622.358C610.69 625.579 613.507 629.18 615.855 633.082C617.127 635.132 618.261 637.264 619.248 639.465H619.537C621.023 639.833 622.594 639.598 623.906 638.81C625.218 638.023 626.163 636.749 626.532 635.268C626.901 633.786 626.665 632.22 625.876 630.912C625.086 629.604 623.808 628.662 622.322 628.294C621.503 628.104 620.653 628.085 619.827 628.239C619 628.393 618.215 628.716 617.52 629.188L617.103 628.709C617.643 628.084 618.027 627.34 618.224 626.539C618.527 625.184 618.34 623.766 617.695 622.537C617.049 621.307 615.988 620.345 614.699 619.821C613.41 619.297 611.976 619.245 610.652 619.674C609.328 620.103 608.2 620.986 607.467 622.166V622.358Z" fill="url(#paint64_radial_25_103)"/>
<path d="M99.5369 452.725C101.709 453.405 104.004 453.601 106.26 453.3C103.284 454.533 100.758 456.645 99.0217 459.351C97.2851 462.058 96.4213 465.229 96.5463 468.439C96.6712 471.65 97.779 474.745 99.7208 477.309C101.662 479.873 104.345 481.784 107.408 482.783C110.471 483.782 113.767 483.823 116.854 482.9C119.941 481.977 122.67 480.134 124.675 477.618C126.68 475.103 127.865 472.036 128.07 468.83C128.275 465.624 127.49 462.432 125.822 459.683C128.197 461.92 131.202 463.38 134.433 463.865C137.665 464.349 140.968 463.837 143.898 462.396C146.829 460.955 149.247 458.654 150.827 455.803C152.408 452.951 153.075 449.686 152.74 446.446C152.404 443.205 151.082 440.145 148.95 437.676C146.819 435.206 143.98 433.447 140.816 432.633C137.652 431.819 134.314 431.99 131.25 433.122C128.186 434.255 125.543 436.296 123.677 438.97C126.334 433.608 132.353 421.863 136.483 417.395L122.78 412.863C123.517 418.958 121.34 432.012 120.283 437.885C120.315 434.976 119.539 432.115 118.041 429.619C116.543 427.123 114.382 425.088 111.796 423.741C109.21 422.393 106.301 421.785 103.39 421.983C100.479 422.181 97.6795 423.179 95.3018 424.865C92.924 426.55 91.0604 428.859 89.9171 431.535C88.7738 434.211 88.3955 437.151 88.8239 440.028C89.2523 442.905 90.4708 445.608 92.3446 447.838C94.2184 450.067 96.6743 451.737 99.4408 452.662L99.5369 452.725Z" fill="#4D4D4D"/>
<path style="mix-blend-mode:screen" d="M145.351 435.587C136.345 443.254 126.444 449.812 115.865 455.119C110.191 457.955 104.342 460.428 98.3523 462.524C98.2423 462.773 98.1461 463.029 98.0642 463.29C97.3082 465.665 97.1616 468.191 97.638 470.637C98.1143 473.083 99.1982 475.372 100.791 477.292C102.383 479.213 104.433 480.705 106.753 481.632C109.074 482.559 111.59 482.891 114.072 482.599C116.555 482.306 118.924 481.397 120.963 479.956C123.002 478.515 124.646 476.587 125.745 474.348C126.844 472.11 127.362 469.633 127.252 467.143C127.143 464.654 126.409 462.232 125.117 460.098L126.398 459.077C127.951 460.516 129.796 461.604 131.809 462.268C135.271 463.34 139.003 463.152 142.339 461.736C145.675 460.321 148.399 457.771 150.025 454.541C151.651 451.31 152.074 447.609 151.218 444.097C150.362 440.585 148.283 437.49 145.351 435.363V435.587Z" fill="url(#paint65_radial_25_103)"/>
<path d="M50.777 286.731C54.333 287.749 58.0657 287.999 61.7264 287.466C56.9059 289.603 52.8442 293.14 50.0723 297.615C47.3003 302.09 45.9469 307.294 46.189 312.548C46.4311 317.802 48.2573 322.861 51.4291 327.063C54.6009 331.266 58.9707 334.417 63.9675 336.105C69.0368 337.575 74.4334 337.482 79.4493 335.841C84.4652 334.199 88.8663 331.084 92.0753 326.905C95.2843 322.726 97.1514 317.678 97.4317 312.423C97.712 307.167 96.3924 301.95 93.646 297.455C96.4126 299.984 99.6864 301.899 103.251 303.072C106.536 304.099 109.993 304.471 113.423 304.166C116.852 303.861 120.188 302.886 123.24 301.296C126.292 299.706 129 297.532 131.209 294.899C133.418 292.266 135.085 289.225 136.115 285.95C137.145 282.674 137.518 279.228 137.212 275.809C136.906 272.39 135.928 269.065 134.333 266.022C132.738 262.98 130.558 260.281 127.916 258.079C125.275 255.877 122.224 254.215 118.938 253.188C113.554 251.605 107.802 251.786 102.529 253.705C97.2554 255.624 92.7391 259.179 89.6441 263.848C93.8061 255.071 103.315 235.826 110.07 228.485L87.6591 221.496C89.0038 231.358 85.8022 252.582 84.1694 262.156C84.2923 256.598 82.632 251.146 79.4302 246.593C76.2284 242.041 71.6524 238.626 66.3686 236.847C59.7759 234.926 52.6903 235.661 46.6351 238.893C40.58 242.125 36.0388 247.597 33.9879 254.132C31.937 260.666 32.5402 267.743 35.6678 273.839C38.7953 279.935 44.1975 284.564 50.7129 286.731H50.777Z" fill="#4D4D4D"/>
<path style="mix-blend-mode:screen" d="M124.861 257.752C110.374 270.406 94.4243 281.292 77.35 290.178C68.218 294.943 58.7856 299.111 49.1121 302.657C48.952 303.072 48.7599 303.487 48.6318 303.902C46.7303 310.083 47.3056 316.758 50.2369 322.525C53.1682 328.292 58.2273 332.702 64.3516 334.829C69.1618 336.2 74.2747 336.095 79.0244 334.528C83.7741 332.962 87.9404 330.005 90.9808 326.045C94.0211 322.084 95.7945 317.302 96.07 312.322C96.3456 307.343 95.1104 302.395 92.5254 298.125L94.5744 296.466C97.1339 298.844 100.166 300.66 103.475 301.796C109.128 303.458 115.189 303.066 120.579 300.689C125.969 298.312 130.338 294.104 132.906 288.816C135.474 283.527 136.074 277.501 134.601 271.812C133.128 266.123 129.676 261.141 124.861 257.752Z" fill="url(#paint66_radial_25_103)"/>
<path d="M91.7571 140.876C92.5696 142.167 93.664 143.258 94.9586 144.068C92.9643 143.381 90.8071 143.319 88.7764 143.89C86.7457 144.461 84.9387 145.637 83.598 147.261C82.2574 148.886 81.4471 150.88 81.276 152.976C81.1049 155.072 81.5812 157.171 82.6409 158.99C83.7006 160.808 85.293 162.26 87.2044 163.151C89.1158 164.042 91.2548 164.328 93.3342 163.972C95.4136 163.616 97.334 162.634 98.8376 161.158C100.341 159.683 101.356 157.784 101.746 155.717C101.85 157.195 102.276 158.633 102.995 159.93C103.941 161.667 105.358 163.104 107.083 164.078C108.808 165.053 110.773 165.525 112.754 165.441C114.735 165.358 116.653 164.722 118.289 163.606C119.926 162.49 121.215 160.939 122.012 159.128C122.808 157.318 123.078 155.321 122.793 153.365C122.507 151.409 121.677 149.572 120.396 148.063C119.116 146.554 117.436 145.434 115.548 144.829C113.661 144.224 111.641 144.16 109.718 144.642C114.773 142.414 120.054 140.735 125.47 139.632L120.571 131.493C116.938 135.637 112.87 139.382 108.437 142.664C109.722 141.25 110.589 139.509 110.943 137.635C111.297 135.76 111.124 133.824 110.443 132.041C109.762 130.259 108.6 128.698 107.085 127.533C105.57 126.368 103.761 125.644 101.858 125.44C99.9553 125.236 98.0332 125.561 96.3042 126.378C94.5752 127.196 93.1067 128.474 92.0613 130.072C91.0158 131.669 90.434 133.524 90.3803 135.431C90.3266 137.338 90.8031 139.223 91.7571 140.876Z" fill="#4D4D4D"/>
<path style="mix-blend-mode:screen" d="M121.66 152.334C113.907 152.192 106.2 151.121 98.7046 149.142C94.6845 148.094 90.738 146.782 86.8908 145.217L86.4105 145.44C84.9878 146.269 83.7972 147.442 82.948 148.85C82.0989 150.258 81.6185 151.857 81.5512 153.498C81.4838 155.14 81.8316 156.772 82.5626 158.244C83.2935 159.717 84.3841 160.982 85.7342 161.925C87.0842 162.867 88.6502 163.456 90.2882 163.637C91.9262 163.818 93.5836 163.586 95.108 162.961C96.6323 162.337 97.9747 161.34 99.0116 160.063C100.048 158.786 100.747 157.27 101.042 155.653H102.13C102.246 157.034 102.661 158.374 103.347 159.579C104.594 161.552 106.493 163.028 108.717 163.751C110.941 164.475 113.348 164.4 115.522 163.54C117.696 162.68 119.5 161.089 120.621 159.042C121.742 156.995 122.11 154.622 121.66 152.334Z" fill="url(#paint67_radial_25_103)"/>
<path d="M180.249 552.143C183.2 553.1 186.324 553.404 189.405 553.037C185.338 554.65 181.863 557.465 179.447 561.104C177.031 564.743 175.789 569.031 175.889 573.394C175.989 577.757 177.426 581.984 180.006 585.51C182.586 589.035 186.186 591.689 190.323 593.115C194.46 594.541 198.936 594.672 203.15 593.488C207.363 592.305 211.113 589.865 213.895 586.496C216.677 583.127 218.359 578.99 218.714 574.641C219.069 570.292 218.081 565.938 215.882 562.165C218.103 564.334 220.753 566.018 223.662 567.111C227.506 568.537 231.674 568.861 235.693 568.046C239.713 567.231 243.423 565.311 246.404 562.503C249.385 559.694 251.517 556.11 252.56 552.155C253.602 548.201 253.513 544.034 252.302 540.128C251.092 536.221 248.808 532.731 245.709 530.052C242.611 527.372 238.822 525.612 234.771 524.969C230.721 524.326 226.571 524.826 222.791 526.414C219.011 528.001 215.753 530.612 213.385 533.951C217.067 526.706 225.519 510.812 231.346 504.812L212.777 498.429C213.673 506.727 210.471 524.408 208.871 532.387C208.969 528.423 207.965 524.51 205.969 521.08C203.974 517.651 201.065 514.838 197.565 512.955C194.065 511.072 190.11 510.191 186.139 510.411C182.168 510.63 178.335 511.941 175.065 514.198C171.795 516.455 169.216 519.57 167.612 523.198C166.009 526.827 165.444 530.827 165.981 534.755C166.518 538.684 168.135 542.388 170.653 545.457C173.171 548.526 176.492 550.84 180.249 552.143Z" fill="#4D4D4D"/>
<path style="mix-blend-mode:screen" d="M242.935 529.802C230.516 540.056 216.909 548.789 202.404 555.813C194.642 559.583 186.643 562.846 178.456 565.58C178.29 565.908 178.151 566.25 178.04 566.601C176.95 569.819 176.688 573.258 177.277 576.604C177.867 579.949 179.289 583.094 181.413 585.749C183.538 588.404 186.297 590.486 189.437 591.803C192.578 593.12 196 593.63 199.39 593.287C202.779 592.944 206.029 591.758 208.84 589.839C211.65 587.919 213.933 585.327 215.479 582.3C217.024 579.273 217.783 575.908 217.686 572.513C217.589 569.117 216.638 565.801 214.922 562.867L216.683 561.494C218.793 563.57 221.326 565.17 224.11 566.186C228.793 567.65 233.844 567.419 238.374 565.535C242.903 563.65 246.62 560.233 248.869 555.885C251.119 551.537 251.758 546.536 250.672 541.765C249.587 536.994 246.847 532.757 242.935 529.802Z" fill="url(#paint68_radial_25_103)"/>
<path d="M187.292 410.086C185.823 408.873 184.109 407.991 182.266 407.501C184.52 407.588 186.76 407.103 188.775 406.092C190.79 405.08 192.514 403.575 193.786 401.717C195.058 399.859 195.835 397.709 196.045 395.47C196.255 393.231 195.891 390.975 194.987 388.914C194.083 386.853 192.669 385.055 190.877 383.689C189.085 382.322 186.974 381.432 184.742 381.101C182.511 380.77 180.231 381.01 178.118 381.798C176.005 382.587 174.127 383.897 172.661 385.606C171.396 387.04 170.455 388.729 169.903 390.557C169.351 392.385 169.199 394.311 169.459 396.202C168.363 393.67 166.513 391.534 164.16 390.083C161.806 388.632 159.063 387.937 156.3 388.091C153.537 388.245 150.889 389.241 148.712 390.944C146.536 392.647 144.936 394.975 144.13 397.614C143.324 400.253 143.35 403.075 144.204 405.698C145.059 408.322 146.701 410.62 148.908 412.283C151.116 413.947 153.782 414.894 156.547 414.998C159.312 415.101 162.042 414.356 164.369 412.862C159.184 417.624 153.494 421.808 147.401 425.342L156.493 433.225C159.162 426.783 162.51 420.641 166.482 414.905C165.507 417.143 165.173 419.607 165.517 422.023C165.86 424.439 166.869 426.713 168.43 428.593C169.99 430.473 172.043 431.885 174.36 432.673C176.677 433.461 179.167 433.594 181.555 433.057C183.943 432.521 186.135 431.335 187.889 429.632C189.642 427.93 190.888 425.776 191.489 423.41C192.09 421.045 192.022 418.559 191.292 416.23C190.563 413.901 189.2 411.818 187.356 410.213L187.292 410.086Z" fill="#4D4D4D"/>
<path style="mix-blend-mode:screen" d="M146.408 408.522C155.842 405.529 165.602 403.676 175.478 403.001C180.808 402.645 186.156 402.645 191.486 403.001C191.486 403.001 191.806 402.681 191.934 402.49C193.287 400.91 194.222 399.017 194.653 396.985C195.084 394.952 194.998 392.844 194.403 390.854C193.808 388.863 192.722 387.052 191.245 385.587C189.768 384.121 187.946 383.048 185.946 382.464C183.946 381.88 181.831 381.804 179.795 382.244C177.758 382.684 175.864 383.625 174.285 384.981C172.707 386.337 171.494 388.066 170.757 390.009C170.02 391.952 169.783 394.049 170.068 396.107L168.755 396.49C168.018 394.827 166.926 393.346 165.553 392.149C163.232 390.198 160.291 389.133 157.254 389.143C154.218 389.153 151.284 390.239 148.976 392.206C146.668 394.173 145.137 396.894 144.654 399.882C144.172 402.871 144.771 405.933 146.344 408.522H146.408Z" fill="url(#paint69_radial_25_103)"/>
<path d="M27.5015 351.074C28.9266 351.166 30.3554 350.959 31.6955 350.467C30.0329 351.667 28.7741 353.34 28.0852 355.267C27.3963 357.195 27.3097 359.285 27.8368 361.262C28.3638 363.239 29.4798 365.011 31.0375 366.343C32.5952 367.675 34.5214 368.505 36.5619 368.723C39.2151 368.892 41.8299 368.023 43.8506 366.301C45.8713 364.578 47.1386 362.138 47.3832 359.499C47.5149 358.07 47.3372 356.63 46.8622 355.276C46.3872 353.921 45.6259 352.684 44.6299 351.648C46.42 352.714 48.4954 353.207 50.5753 353.059C52.6553 352.911 54.6395 352.13 56.2598 350.821C57.8801 349.513 59.0583 347.74 59.635 345.742C60.2118 343.745 60.1593 341.619 59.4847 339.652C58.8101 337.685 57.5459 335.972 55.863 334.744C54.1801 333.517 52.1597 332.834 50.075 332.788C47.9903 332.743 45.9417 333.336 44.2064 334.489C42.471 335.641 41.1325 337.297 40.3718 339.233C41.4234 334.039 43.0446 328.977 45.2062 324.137L36.1457 323.307C37.3911 328.452 38.0675 333.718 38.1627 339.009C37.7481 336.893 36.6682 334.963 35.0794 333.5C33.4906 332.037 31.4755 331.116 29.3264 330.871C26.6953 330.733 24.113 331.617 22.1221 333.337C20.1312 335.057 18.8868 337.48 18.6505 340.096C18.4143 342.712 19.2044 345.317 20.855 347.364C22.5056 349.411 24.888 350.741 27.5015 351.074Z" fill="#4D4D4D"/>
<path style="mix-blend-mode:screen" d="M53.1782 334.094C48.7274 340.075 43.5794 345.507 37.8426 350.276C34.8008 352.826 31.5921 355.172 28.2379 357.297V357.808C27.9956 360.314 28.7535 362.815 30.3475 364.768C31.9414 366.722 34.2432 367.971 36.7541 368.244C38.6938 368.391 40.6324 367.947 42.3134 366.971C43.9944 365.995 45.3386 364.534 46.168 362.78C46.9974 361.026 47.2731 359.062 46.9584 357.148C46.6438 355.235 45.7537 353.461 44.4059 352.063L45.0462 351.265C46.2136 351.949 47.511 352.384 48.8561 352.542C51.1703 352.784 53.4941 352.181 55.3958 350.844C57.2975 349.508 58.6477 347.528 59.1955 345.274C59.7433 343.019 59.4514 340.643 58.3741 338.587C57.2968 336.531 55.5074 334.934 53.3383 334.094H53.1782Z" fill="url(#paint70_radial_25_103)"/>
<path d="M215.434 69.8636C215.137 68.8863 214.635 67.9832 213.961 67.2146C214.959 67.9299 216.124 68.3798 217.345 68.5218C218.566 68.6639 219.804 68.4934 220.94 68.0265C222.077 67.5596 223.076 66.8117 223.842 65.8534C224.608 64.895 225.117 63.7578 225.32 62.549C225.523 61.3403 225.414 60.0999 225.003 58.9449C224.592 57.79 223.892 56.7585 222.97 55.9478C222.048 55.1372 220.934 54.5741 219.733 54.3117C218.532 54.0494 217.284 54.0964 216.106 54.4483C215.104 54.7315 214.173 55.2217 213.373 55.887C212.573 56.5523 211.923 57.3779 211.464 58.3101C211.706 57.26 211.706 56.1687 211.464 55.1185C211.129 53.8032 210.433 52.6073 209.452 51.666C208.472 50.7246 207.247 50.0753 205.916 49.7913C204.585 49.5073 203.201 49.6 201.92 50.0589C200.639 50.5177 199.512 51.3245 198.667 52.3881C197.821 53.4517 197.291 54.7298 197.136 56.0779C196.981 57.426 197.207 58.7905 197.789 60.0172C198.371 61.2439 199.285 62.2841 200.429 63.0201C201.572 63.7562 202.899 64.1588 204.26 64.1826C200.494 64.7889 196.672 64.9815 192.863 64.7571L194.592 71.1403C197.757 69.0161 201.137 67.2297 204.677 65.8103C203.571 66.5342 202.688 67.5489 202.125 68.742C201.561 69.9352 201.34 71.2604 201.485 72.571C201.631 73.8817 202.137 75.1268 202.948 76.1686C203.759 77.2103 204.843 78.0083 206.08 78.4741C207.318 78.9399 208.66 79.0554 209.96 78.8079C211.259 78.5604 212.464 77.9595 213.442 77.0716C214.42 76.1837 215.133 75.0435 215.501 73.7771C215.87 72.5106 215.88 71.1672 215.53 69.8955L215.434 69.8636Z" fill="#4D4D4D"/>
<path style="mix-blend-mode:screen" d="M197.441 56.9696C202.602 58.4376 207.567 60.5163 212.232 63.1613C214.733 64.5678 217.139 66.135 219.436 67.8529H219.788C220.698 67.6667 221.559 67.2964 222.32 66.7648C223.08 66.2333 223.723 65.5518 224.209 64.7627C224.694 63.9735 225.012 63.0934 225.143 62.1768C225.273 61.2602 225.214 60.3267 224.968 59.4339C224.722 58.5411 224.295 57.7081 223.714 56.9865C223.132 56.2649 222.408 55.6699 221.586 55.2385C220.764 54.807 219.863 54.5483 218.936 54.4783C218.01 54.4082 217.08 54.5283 216.202 54.8312C215.252 55.0879 214.368 55.5457 213.611 56.1736C212.854 56.8015 212.242 57.5846 211.816 58.4696L211.112 58.2462C211.304 57.2876 211.304 56.3005 211.112 55.3419C210.629 53.7881 209.613 52.4533 208.242 51.5713C206.871 50.6894 205.233 50.3166 203.614 50.5183C201.994 50.7201 200.498 51.4835 199.387 52.6747C198.276 53.866 197.621 55.409 197.537 57.0334L197.441 56.9696Z" fill="url(#paint71_radial_25_103)"/>
</g>
<defs>
<linearGradient id="paint0_linear_25_103" x1="473.737" y1="641.443" x2="494.525" y2="641.987" gradientUnits="userSpaceOnUse">
<stop stop-color="#00D1FF"/>
<stop offset="1" stop-color="#0866D5"/>
</linearGradient>
<radialGradient id="paint1_radial_25_103" cx="0" cy="0" r="1" gradientUnits="userSpaceOnUse" gradientTransform="translate(484.846 652.517) rotate(-146.033) scale(27.7635 27.731)">
<stop stop-color="#CDCBC2"/>
<stop offset="0.03" stop-color="#B9B7AF"/>
<stop offset="0.1" stop-color="#8E8D86"/>
<stop offset="0.17" stop-color="#686762"/>
<stop offset="0.26" stop-color="#474744"/>
<stop offset="0.34" stop-color="#2D2D2B"/>
<stop offset="0.44" stop-color="#191918"/>
<stop offset="0.54" stop-color="#0B0B0A"/>
<stop offset="0.67" stop-color="#030202"/>
<stop offset="0.89"/>
</radialGradient>
<linearGradient id="paint2_linear_25_103" x1="224.879" y1="261.709" x2="242.384" y2="262.167" gradientUnits="userSpaceOnUse">
<stop stop-color="#00D1FF"/>
<stop offset="1" stop-color="#0866D5"/>
</linearGradient>
<radialGradient id="paint3_radial_25_103" cx="0" cy="0" r="1" gradientUnits="userSpaceOnUse" gradientTransform="translate(229.909 277.888) rotate(29.0914) scale(22.4025 22.3657)">
<stop stop-color="#CDCBC2"/>
<stop offset="0.03" stop-color="#B9B7AF"/>
<stop offset="0.1" stop-color="#8E8D86"/>
<stop offset="0.17" stop-color="#686762"/>
<stop offset="0.26" stop-color="#474744"/>
<stop offset="0.34" stop-color="#2D2D2B"/>
<stop offset="0.44" stop-color="#191918"/>
<stop offset="0.54" stop-color="#0B0B0A"/>
<stop offset="0.67" stop-color="#030202"/>
<stop offset="0.89"/>
</radialGradient>
<linearGradient id="paint4_linear_25_103" x1="382.556" y1="632.379" x2="413.696" y2="633.957" gradientUnits="userSpaceOnUse">
<stop stop-color="#00D1FF"/>
<stop offset="1" stop-color="#0866D5"/>
</linearGradient>
<radialGradient id="paint5_radial_25_103" cx="0" cy="0" r="1" gradientUnits="userSpaceOnUse" gradientTransform="translate(383.417 633.263) rotate(-86.3587) scale(24.9616 25.0392)">
<stop stop-color="#CDCBC2"/>
<stop offset="0.03" stop-color="#B9B7AF"/>
<stop offset="0.1" stop-color="#8E8D86"/>
<stop offset="0.17" stop-color="#686762"/>
<stop offset="0.26" stop-color="#474744"/>
<stop offset="0.34" stop-color="#2D2D2B"/>
<stop offset="0.44" stop-color="#191918"/>
<stop offset="0.54" stop-color="#0B0B0A"/>
<stop offset="0.67" stop-color="#030202"/>
<stop offset="0.89"/>
</radialGradient>
<linearGradient id="paint6_linear_25_103" x1="107.413" y1="81.2576" x2="197.987" y2="85.8467" gradientUnits="userSpaceOnUse">
<stop stop-color="#00D1FF"/>
<stop offset="1" stop-color="#0866D5"/>
</linearGradient>
<radialGradient id="paint7_radial_25_103" cx="0" cy="0" r="1" gradientUnits="userSpaceOnUse" gradientTransform="translate(128.112 92.329) rotate(-101.114) scale(73.5827 73.796)">
<stop stop-color="#CDCBC2"/>
<stop offset="0.03" stop-color="#B9B7AF"/>
<stop offset="0.1" stop-color="#8E8D86"/>
<stop offset="0.17" stop-color="#686762"/>
<stop offset="0.26" stop-color="#474744"/>
<stop offset="0.34" stop-color="#2D2D2B"/>
<stop offset="0.44" stop-color="#191918"/>
<stop offset="0.54" stop-color="#0B0B0A"/>
<stop offset="0.67" stop-color="#030202"/>
<stop offset="0.89"/>
</radialGradient>
<linearGradient id="paint8_linear_25_103" x1="19.2095" y1="218.24" x2="58.4871" y2="219.906" gradientUnits="userSpaceOnUse">
<stop stop-color="#00D1FF"/>
<stop offset="1" stop-color="#0866D5"/>
</linearGradient>
<radialGradient id="paint9_radial_25_103" cx="0" cy="0" r="1" gradientUnits="userSpaceOnUse" gradientTransform="translate(14.7972 230.316) rotate(-130.719) scale(41.3836 41.4031)">
<stop stop-color="#CDCBC2"/>
<stop offset="0.03" stop-color="#B9B7AF"/>
<stop offset="0.1" stop-color="#8E8D86"/>
<stop offset="0.17" stop-color="#686762"/>
<stop offset="0.26" stop-color="#474744"/>
<stop offset="0.34" stop-color="#2D2D2B"/>
<stop offset="0.44" stop-color="#191918"/>
<stop offset="0.54" stop-color="#0B0B0A"/>
<stop offset="0.67" stop-color="#030202"/>
<stop offset="0.89"/>
</radialGradient>
<linearGradient id="paint10_linear_25_103" x1="94.2223" y1="176.175" x2="174.273" y2="180.23" gradientUnits="userSpaceOnUse">
<stop stop-color="#00D1FF"/>
<stop offset="1" stop-color="#0866D5"/>
</linearGradient>
<radialGradient id="paint11_radial_25_103" cx="0" cy="0" r="1" gradientUnits="userSpaceOnUse" gradientTransform="translate(97.0704 179.098) rotate(-117.123) scale(71.9492 72.081)">
<stop stop-color="#CDCBC2"/>
<stop offset="0.03" stop-color="#B9B7AF"/>
<stop offset="0.1" stop-color="#8E8D86"/>
<stop offset="0.17" stop-color="#686762"/>
<stop offset="0.26" stop-color="#474744"/>
<stop offset="0.34" stop-color="#2D2D2B"/>
<stop offset="0.44" stop-color="#191918"/>
<stop offset="0.54" stop-color="#0B0B0A"/>
<stop offset="0.67" stop-color="#030202"/>
<stop offset="0.89"/>
</radialGradient>
<linearGradient id="paint12_linear_25_103" x1="405.703" y1="681.753" x2="494.789" y2="686.259" gradientUnits="userSpaceOnUse">
<stop stop-color="#00D1FF"/>
<stop offset="1" stop-color="#0866D5"/>
</linearGradient>
<radialGradient id="paint13_radial_25_103" cx="0" cy="0" r="1" gradientUnits="userSpaceOnUse" gradientTransform="translate(460.036 760.523) rotate(124.109) scale(86.1178 86.2181)">
<stop stop-color="#CDCBC2"/>
<stop offset="0.03" stop-color="#B9B7AF"/>
<stop offset="0.1" stop-color="#8E8D86"/>
<stop offset="0.17" stop-color="#686762"/>
<stop offset="0.26" stop-color="#474744"/>
<stop offset="0.34" stop-color="#2D2D2B"/>
<stop offset="0.44" stop-color="#191918"/>
<stop offset="0.54" stop-color="#0B0B0A"/>
<stop offset="0.67" stop-color="#030202"/>
<stop offset="0.89"/>
</radialGradient>
<linearGradient id="paint14_linear_25_103" x1="32.8481" y1="144.1" x2="91.6646" y2="145.636" gradientUnits="userSpaceOnUse">
<stop stop-color="#00D1FF"/>
<stop offset="1" stop-color="#0866D5"/>
</linearGradient>
<radialGradient id="paint15_radial_25_103" cx="0" cy="0" r="1" gradientUnits="userSpaceOnUse" gradientTransform="translate(22.314 205.169) rotate(-166.38) scale(67.5024 67.315)">
<stop stop-color="#CDCBC2"/>
<stop offset="0.03" stop-color="#B9B7AF"/>
<stop offset="0.1" stop-color="#8E8D86"/>
<stop offset="0.17" stop-color="#686762"/>
<stop offset="0.26" stop-color="#474744"/>
<stop offset="0.34" stop-color="#2D2D2B"/>
<stop offset="0.44" stop-color="#191918"/>
<stop offset="0.54" stop-color="#0B0B0A"/>
<stop offset="0.67" stop-color="#030202"/>
<stop offset="0.89"/>
</radialGradient>
<linearGradient id="paint16_linear_25_103" x1="157.742" y1="293.625" x2="237.909" y2="295.722" gradientUnits="userSpaceOnUse">
<stop stop-color="#00D1FF"/>
<stop offset="1" stop-color="#0866D5"/>
</linearGradient>
<radialGradient id="paint17_radial_25_103" cx="0" cy="0" r="1" gradientUnits="userSpaceOnUse" gradientTransform="translate(165.131 407.655) rotate(152.123) scale(101.017 100.84)">
<stop stop-color="#CDCBC2"/>
<stop offset="0.03" stop-color="#B9B7AF"/>
<stop offset="0.1" stop-color="#8E8D86"/>
<stop offset="0.17" stop-color="#686762"/>
<stop offset="0.26" stop-color="#474744"/>
<stop offset="0.34" stop-color="#2D2D2B"/>
<stop offset="0.44" stop-color="#191918"/>
<stop offset="0.54" stop-color="#0B0B0A"/>
<stop offset="0.67" stop-color="#030202"/>
<stop offset="0.89"/>
</radialGradient>
<linearGradient id="paint18_linear_25_103" x1="182.97" y1="134.972" x2="266.42" y2="137.154" gradientUnits="userSpaceOnUse">
<stop stop-color="#00D1FF"/>
<stop offset="1" stop-color="#0866D5"/>
</linearGradient>
<radialGradient id="paint19_radial_25_103" cx="0" cy="0" r="1" gradientUnits="userSpaceOnUse" gradientTransform="translate(186.733 217.625) rotate(-176.969) scale(92.9383 92.6498)">
<stop stop-color="#CDCBC2"/>
<stop offset="0.03" stop-color="#B9B7AF"/>
<stop offset="0.1" stop-color="#8E8D86"/>
<stop offset="0.17" stop-color="#686762"/>
<stop offset="0.26" stop-color="#474744"/>
<stop offset="0.34" stop-color="#2D2D2B"/>
<stop offset="0.44" stop-color="#191918"/>
<stop offset="0.54" stop-color="#0B0B0A"/>
<stop offset="0.67" stop-color="#030202"/>
<stop offset="0.89"/>
</radialGradient>
<linearGradient id="paint20_linear_25_103" x1="310.072" y1="108.514" x2="330.755" y2="109.149" gradientUnits="userSpaceOnUse">
<stop stop-color="#00D1FF"/>
<stop offset="1" stop-color="#0866D5"/>
</linearGradient>
<radialGradient id="paint21_radial_25_103" cx="0" cy="0" r="1" gradientUnits="userSpaceOnUse" gradientTransform="translate(327.379 103.695) rotate(-39.8482) scale(25.5165 25.5023)">
<stop stop-color="#CDCBC2"/>
<stop offset="0.03" stop-color="#B9B7AF"/>
<stop offset="0.1" stop-color="#8E8D86"/>
<stop offset="0.17" stop-color="#686762"/>
<stop offset="0.26" stop-color="#474744"/>
<stop offset="0.34" stop-color="#2D2D2B"/>
<stop offset="0.44" stop-color="#191918"/>
<stop offset="0.54" stop-color="#0B0B0A"/>
<stop offset="0.67" stop-color="#030202"/>
<stop offset="0.89"/>
</radialGradient>
<linearGradient id="paint22_linear_25_103" x1="218.988" y1="600.591" x2="313.302" y2="605.358" gradientUnits="userSpaceOnUse">
<stop stop-color="#00D1FF"/>
<stop offset="1" stop-color="#0866D5"/>
</linearGradient>
<radialGradient id="paint23_radial_25_103" cx="0" cy="0" r="1" gradientUnits="userSpaceOnUse" gradientTransform="translate(257.524 586.537) rotate(-55.6726) scale(91.2911 91.3955)">
<stop stop-color="#CDCBC2"/>
<stop offset="0.03" stop-color="#B9B7AF"/>
<stop offset="0.1" stop-color="#8E8D86"/>
<stop offset="0.17" stop-color="#686762"/>
<stop offset="0.26" stop-color="#474744"/>
<stop offset="0.34" stop-color="#2D2D2B"/>
<stop offset="0.44" stop-color="#191918"/>
<stop offset="0.54" stop-color="#0B0B0A"/>
<stop offset="0.67" stop-color="#030202"/>
<stop offset="0.89"/>
</radialGradient>
<linearGradient id="paint24_linear_25_103" x1="307.586" y1="606.885" x2="340.51" y2="608.074" gradientUnits="userSpaceOnUse">
<stop stop-color="#00D1FF"/>
<stop offset="1" stop-color="#0866D5"/>
</linearGradient>
<radialGradient id="paint25_radial_25_103" cx="0" cy="0" r="1" gradientUnits="userSpaceOnUse" gradientTransform="translate(312.559 643.056) rotate(133.699) scale(50.3663 50.3737)">
<stop stop-color="#CDCBC2"/>
<stop offset="0.03" stop-color="#B9B7AF"/>
<stop offset="0.1" stop-color="#8E8D86"/>
<stop offset="0.17" stop-color="#686762"/>
<stop offset="0.26" stop-color="#474744"/>
<stop offset="0.34" stop-color="#2D2D2B"/>
<stop offset="0.44" stop-color="#191918"/>
<stop offset="0.54" stop-color="#0B0B0A"/>
<stop offset="0.67" stop-color="#030202"/>
<stop offset="0.89"/>
</radialGradient>
<linearGradient id="paint26_linear_25_103" x1="201.693" y1="676.828" x2="223.125" y2="677.563" gradientUnits="userSpaceOnUse">
<stop stop-color="#00D1FF"/>
<stop offset="1" stop-color="#0866D5"/>
</linearGradient>
<radialGradient id="paint27_radial_25_103" cx="0" cy="0" r="1" gradientUnits="userSpaceOnUse" gradientTransform="translate(220.22 674.337) rotate(-58.33) scale(32.8852 32.9315)">
<stop stop-color="#CDCBC2"/>
<stop offset="0.03" stop-color="#B9B7AF"/>
<stop offset="0.1" stop-color="#8E8D86"/>
<stop offset="0.17" stop-color="#686762"/>
<stop offset="0.26" stop-color="#474744"/>
<stop offset="0.34" stop-color="#2D2D2B"/>
<stop offset="0.44" stop-color="#191918"/>
<stop offset="0.54" stop-color="#0B0B0A"/>
<stop offset="0.67" stop-color="#030202"/>
<stop offset="0.89"/>
</radialGradient>
<linearGradient id="paint28_linear_25_103" x1="355.16" y1="673.94" x2="385.377" y2="675.027" gradientUnits="userSpaceOnUse">
<stop stop-color="#00D1FF"/>
<stop offset="1" stop-color="#0866D5"/>
</linearGradient>
<radialGradient id="paint29_radial_25_103" cx="0" cy="0" r="1" gradientUnits="userSpaceOnUse" gradientTransform="translate(367.358 690.372) rotate(-133.318) scale(46.0823 46.0909)">
<stop stop-color="#CDCBC2"/>
<stop offset="0.03" stop-color="#B9B7AF"/>
<stop offset="0.1" stop-color="#8E8D86"/>
<stop offset="0.17" stop-color="#686762"/>
<stop offset="0.26" stop-color="#474744"/>
<stop offset="0.34" stop-color="#2D2D2B"/>
<stop offset="0.44" stop-color="#191918"/>
<stop offset="0.54" stop-color="#0B0B0A"/>
<stop offset="0.67" stop-color="#030202"/>
<stop offset="0.89"/>
</radialGradient>
<linearGradient id="paint30_linear_25_103" x1="529.892" y1="645.965" x2="568.58" y2="647.195" gradientUnits="userSpaceOnUse">
<stop stop-color="#00D1FF"/>
<stop offset="1" stop-color="#0866D5"/>
</linearGradient>
<radialGradient id="paint31_radial_25_103" cx="0" cy="0" r="1" gradientUnits="userSpaceOnUse" gradientTransform="translate(567.023 676.304) rotate(84.2622) scale(61.022 61.2093)">
<stop stop-color="#CDCBC2"/>
<stop offset="0.03" stop-color="#B9B7AF"/>
<stop offset="0.1" stop-color="#8E8D86"/>
<stop offset="0.17" stop-color="#686762"/>
<stop offset="0.26" stop-color="#474744"/>
<stop offset="0.34" stop-color="#2D2D2B"/>
<stop offset="0.44" stop-color="#191918"/>
<stop offset="0.54" stop-color="#0B0B0A"/>
<stop offset="0.67" stop-color="#030202"/>
<stop offset="0.89"/>
</radialGradient>
<linearGradient id="paint32_linear_25_103" x1="159.672" y1="208.187" x2="232.234" y2="211.201" gradientUnits="userSpaceOnUse">
<stop stop-color="#00D1FF"/>
<stop offset="1" stop-color="#0866D5"/>
</linearGradient>
<radialGradient id="paint33_radial_25_103" cx="0" cy="0" r="1" gradientUnits="userSpaceOnUse" gradientTransform="translate(152.938 266.924) rotate(173.311) scale(100.893 100.587)">
<stop stop-color="#CDCBC2"/>
<stop offset="0.03" stop-color="#B9B7AF"/>
<stop offset="0.1" stop-color="#8E8D86"/>
<stop offset="0.17" stop-color="#686762"/>
<stop offset="0.26" stop-color="#474744"/>
<stop offset="0.34" stop-color="#2D2D2B"/>
<stop offset="0.44" stop-color="#191918"/>
<stop offset="0.54" stop-color="#0B0B0A"/>
<stop offset="0.67" stop-color="#030202"/>
<stop offset="0.89"/>
</radialGradient>
<linearGradient id="paint34_linear_25_103" x1="267.363" y1="710.913" x2="292.934" y2="711.87" gradientUnits="userSpaceOnUse">
<stop stop-color="#00D1FF"/>
<stop offset="1" stop-color="#0866D5"/>
</linearGradient>
<radialGradient id="paint35_radial_25_103" cx="0" cy="0" r="1" gradientUnits="userSpaceOnUse" gradientTransform="translate(265.39 741.242) rotate(140.798) scale(38.2931 38.2692)">
<stop stop-color="#CDCBC2"/>
<stop offset="0.03" stop-color="#B9B7AF"/>
<stop offset="0.1" stop-color="#8E8D86"/>
<stop offset="0.17" stop-color="#686762"/>
<stop offset="0.26" stop-color="#474744"/>
<stop offset="0.34" stop-color="#2D2D2B"/>
<stop offset="0.44" stop-color="#191918"/>
<stop offset="0.54" stop-color="#0B0B0A"/>
<stop offset="0.67" stop-color="#030202"/>
<stop offset="0.89"/>
</radialGradient>
<linearGradient id="paint36_linear_25_103" x1="249.417" y1="35.7456" x2="313.52" y2="38.456" gradientUnits="userSpaceOnUse">
<stop stop-color="#00D1FF"/>
<stop offset="1" stop-color="#0866D5"/>
</linearGradient>
<radialGradient id="paint37_radial_25_103" cx="0" cy="0" r="1" gradientUnits="userSpaceOnUse" gradientTransform="translate(261.301 77.9316) rotate(177.159) scale(88.7892 88.5134)">
<stop stop-color="#CDCBC2"/>
<stop offset="0.03" stop-color="#B9B7AF"/>
<stop offset="0.1" stop-color="#8E8D86"/>
<stop offset="0.17" stop-color="#686762"/>
<stop offset="0.26" stop-color="#474744"/>
<stop offset="0.34" stop-color="#2D2D2B"/>
<stop offset="0.44" stop-color="#191918"/>
<stop offset="0.54" stop-color="#0B0B0A"/>
<stop offset="0.67" stop-color="#030202"/>
<stop offset="0.89"/>
</radialGradient>
<linearGradient id="paint38_linear_25_103" x1="5.09045" y1="286.073" x2="27.816" y2="286.819" gradientUnits="userSpaceOnUse">
<stop stop-color="#00D1FF"/>
<stop offset="1" stop-color="#0866D5"/>
</linearGradient>
<radialGradient id="paint39_radial_25_103" cx="0" cy="0" r="1" gradientUnits="userSpaceOnUse" gradientTransform="translate(36.824 295.557) rotate(76.2186) scale(34.8748 34.9717)">
<stop stop-color="#CDCBC2"/>
<stop offset="0.03" stop-color="#B9B7AF"/>
<stop offset="0.1" stop-color="#8E8D86"/>
<stop offset="0.17" stop-color="#686762"/>
<stop offset="0.26" stop-color="#474744"/>
<stop offset="0.34" stop-color="#2D2D2B"/>
<stop offset="0.44" stop-color="#191918"/>
<stop offset="0.54" stop-color="#0B0B0A"/>
<stop offset="0.67" stop-color="#030202"/>
<stop offset="0.89"/>
</radialGradient>
<linearGradient id="paint40_linear_25_103" x1="64.9761" y1="560.25" x2="90.7564" y2="561.263" gradientUnits="userSpaceOnUse">
<stop stop-color="#00D1FF"/>
<stop offset="1" stop-color="#0866D5"/>
</linearGradient>
<radialGradient id="paint41_radial_25_103" cx="0" cy="0" r="1" gradientUnits="userSpaceOnUse" gradientTransform="translate(93.5448 562.87) rotate(-159.03) scale(36.3085 36.2242)">
<stop stop-color="#CDCBC2"/>
<stop offset="0.03" stop-color="#B9B7AF"/>
<stop offset="0.1" stop-color="#8E8D86"/>
<stop offset="0.17" stop-color="#686762"/>
<stop offset="0.26" stop-color="#474744"/>
<stop offset="0.34" stop-color="#2D2D2B"/>
<stop offset="0.44" stop-color="#191918"/>
<stop offset="0.54" stop-color="#0B0B0A"/>
<stop offset="0.67" stop-color="#030202"/>
<stop offset="0.89"/>
</radialGradient>
<linearGradient id="paint42_linear_25_103" x1="177.643" y1="459.587" x2="222.693" y2="461.378" gradientUnits="userSpaceOnUse">
<stop stop-color="#00D1FF"/>
<stop offset="1" stop-color="#0866D5"/>
</linearGradient>
<radialGradient id="paint43_radial_25_103" cx="0" cy="0" r="1" gradientUnits="userSpaceOnUse" gradientTransform="translate(190.535 479.076) rotate(-162.252) scale(63.2108 63.0501)">
<stop stop-color="#CDCBC2"/>
<stop offset="0.03" stop-color="#B9B7AF"/>
<stop offset="0.1" stop-color="#8E8D86"/>
<stop offset="0.17" stop-color="#686762"/>
<stop offset="0.26" stop-color="#474744"/>
<stop offset="0.34" stop-color="#2D2D2B"/>
<stop offset="0.44" stop-color="#191918"/>
<stop offset="0.54" stop-color="#0B0B0A"/>
<stop offset="0.67" stop-color="#030202"/>
<stop offset="0.89"/>
</radialGradient>
<linearGradient id="paint44_linear_25_103" x1="269.704" y1="166.218" x2="289.203" y2="166.992" gradientUnits="userSpaceOnUse">
<stop stop-color="#00D1FF"/>
<stop offset="1" stop-color="#0866D5"/>
</linearGradient>
<radialGradient id="paint45_radial_25_103" cx="0" cy="0" r="1" gradientUnits="userSpaceOnUse" gradientTransform="translate(229.413 159.387) rotate(-157.23) scale(27.7211 27.6605)">
<stop stop-color="#CDCBC2"/>
<stop offset="0.03" stop-color="#B9B7AF"/>
<stop offset="0.1" stop-color="#8E8D86"/>
<stop offset="0.17" stop-color="#686762"/>
<stop offset="0.26" stop-color="#474744"/>
<stop offset="0.34" stop-color="#2D2D2B"/>
<stop offset="0.44" stop-color="#191918"/>
<stop offset="0.54" stop-color="#0B0B0A"/>
<stop offset="0.67" stop-color="#030202"/>
<stop offset="0.89"/>
</radialGradient>
<linearGradient id="paint46_linear_25_103" x1="327.053" y1="709.647" x2="396.137" y2="712.558" gradientUnits="userSpaceOnUse">
<stop stop-color="#00D1FF"/>
<stop offset="1" stop-color="#0866D5"/>
</linearGradient>
<radialGradient id="paint47_radial_25_103" cx="0" cy="0" r="1" gradientUnits="userSpaceOnUse" gradientTransform="translate(340.109 752.937) rotate(176.182) scale(95.5151 95.2195)">
<stop stop-color="#CDCBC2"/>
<stop offset="0.03" stop-color="#B9B7AF"/>
<stop offset="0.1" stop-color="#8E8D86"/>
<stop offset="0.17" stop-color="#686762"/>
<stop offset="0.26" stop-color="#474744"/>
<stop offset="0.34" stop-color="#2D2D2B"/>
<stop offset="0.44" stop-color="#191918"/>
<stop offset="0.54" stop-color="#0B0B0A"/>
<stop offset="0.67" stop-color="#030202"/>
<stop offset="0.89"/>
</radialGradient>
<radialGradient id="paint48_radial_25_103" cx="0" cy="0" r="1" gradientUnits="userSpaceOnUse" gradientTransform="translate(203.099 119.955) rotate(-81.2431) scale(62.968 63.1561)">
<stop stop-color="#CDCBC2"/>
<stop offset="0.03" stop-color="#B9B7AF"/>
<stop offset="0.1" stop-color="#8E8D86"/>
<stop offset="0.17" stop-color="#686762"/>
<stop offset="0.26" stop-color="#474744"/>
<stop offset="0.34" stop-color="#2D2D2B"/>
<stop offset="0.44" stop-color="#191918"/>
<stop offset="0.54" stop-color="#0B0B0A"/>
<stop offset="0.67" stop-color="#030202"/>
<stop offset="0.89"/>
</radialGradient>
<radialGradient id="paint49_radial_25_103" cx="0" cy="0" r="1" gradientUnits="userSpaceOnUse" gradientTransform="translate(259.356 94.3056) rotate(-50.0518) scale(68.8236 68.8617)">
<stop stop-color="#CDCBC2"/>
<stop offset="0.03" stop-color="#B9B7AF"/>
<stop offset="0.1" stop-color="#8E8D86"/>
<stop offset="0.17" stop-color="#686762"/>
<stop offset="0.26" stop-color="#474744"/>
<stop offset="0.34" stop-color="#2D2D2B"/>
<stop offset="0.44" stop-color="#191918"/>
<stop offset="0.54" stop-color="#0B0B0A"/>
<stop offset="0.67" stop-color="#030202"/>
<stop offset="0.89"/>
</radialGradient>
<radialGradient id="paint50_radial_25_103" cx="0" cy="0" r="1" gradientUnits="userSpaceOnUse" gradientTransform="translate(205.627 553.654) rotate(-51.5228) scale(118.199 118.283)">
<stop stop-color="#CDCBC2"/>
<stop offset="0.03" stop-color="#B9B7AF"/>
<stop offset="0.1" stop-color="#8E8D86"/>
<stop offset="0.17" stop-color="#686762"/>
<stop offset="0.26" stop-color="#474744"/>
<stop offset="0.34" stop-color="#2D2D2B"/>
<stop offset="0.44" stop-color="#191918"/>
<stop offset="0.54" stop-color="#0B0B0A"/>
<stop offset="0.67" stop-color="#030202"/>
<stop offset="0.89"/>
</radialGradient>
<radialGradient id="paint51_radial_25_103" cx="0" cy="0" r="1" gradientUnits="userSpaceOnUse" gradientTransform="translate(26.4809 406.163) rotate(-53.19) scale(41.2874 41.324)">
<stop stop-color="#CDCBC2"/>
<stop offset="0.03" stop-color="#B9B7AF"/>
<stop offset="0.1" stop-color="#8E8D86"/>
<stop offset="0.17" stop-color="#686762"/>
<stop offset="0.26" stop-color="#474744"/>
<stop offset="0.34" stop-color="#2D2D2B"/>
<stop offset="0.44" stop-color="#191918"/>
<stop offset="0.54" stop-color="#0B0B0A"/>
<stop offset="0.67" stop-color="#030202"/>
<stop offset="0.89"/>
</radialGradient>
<radialGradient id="paint52_radial_25_103" cx="0" cy="0" r="1" gradientUnits="userSpaceOnUse" gradientTransform="translate(709.37 525.222) rotate(-31.3903) scale(20.1528 20.1241)">
<stop stop-color="#CDCBC2"/>
<stop offset="0.03" stop-color="#B9B7AF"/>
<stop offset="0.1" stop-color="#8E8D86"/>
<stop offset="0.17" stop-color="#686762"/>
<stop offset="0.26" stop-color="#474744"/>
<stop offset="0.34" stop-color="#2D2D2B"/>
<stop offset="0.44" stop-color="#191918"/>
<stop offset="0.54" stop-color="#0B0B0A"/>
<stop offset="0.67" stop-color="#030202"/>
<stop offset="0.89"/>
</radialGradient>
<radialGradient id="paint53_radial_25_103" cx="0" cy="0" r="1" gradientUnits="userSpaceOnUse" gradientTransform="translate(74.6603 389.827) rotate(-35.1576) scale(59.2281 59.166)">
<stop stop-color="#CDCBC2"/>
<stop offset="0.03" stop-color="#B9B7AF"/>
<stop offset="0.1" stop-color="#8E8D86"/>
<stop offset="0.17" stop-color="#686762"/>
<stop offset="0.26" stop-color="#474744"/>
<stop offset="0.34" stop-color="#2D2D2B"/>
<stop offset="0.44" stop-color="#191918"/>
<stop offset="0.54" stop-color="#0B0B0A"/>
<stop offset="0.67" stop-color="#030202"/>
<stop offset="0.89"/>
</radialGradient>
<radialGradient id="paint54_radial_25_103" cx="0" cy="0" r="1" gradientUnits="userSpaceOnUse" gradientTransform="translate(116.034 339.152) rotate(179.362) scale(94.2205 93.9264)">
<stop stop-color="#CDCBC2"/>
<stop offset="0.03" stop-color="#B9B7AF"/>
<stop offset="0.1" stop-color="#8E8D86"/>
<stop offset="0.17" stop-color="#686762"/>
<stop offset="0.26" stop-color="#474744"/>
<stop offset="0.34" stop-color="#2D2D2B"/>
<stop offset="0.44" stop-color="#191918"/>
<stop offset="0.54" stop-color="#0B0B0A"/>
<stop offset="0.67" stop-color="#030202"/>
<stop offset="0.89"/>
</radialGradient>
<radialGradient id="paint55_radial_25_103" cx="0" cy="0" r="1" gradientUnits="userSpaceOnUse" gradientTransform="translate(345.305 44.8038) rotate(91.284) scale(66.1117 66.3186)">
<stop stop-color="#CDCBC2"/>
<stop offset="0.03" stop-color="#B9B7AF"/>
<stop offset="0.1" stop-color="#8E8D86"/>
<stop offset="0.17" stop-color="#686762"/>
<stop offset="0.26" stop-color="#474744"/>
<stop offset="0.34" stop-color="#2D2D2B"/>
<stop offset="0.44" stop-color="#191918"/>
<stop offset="0.54" stop-color="#0B0B0A"/>
<stop offset="0.67" stop-color="#030202"/>
<stop offset="0.89"/>
</radialGradient>
<linearGradient id="paint56_linear_25_103" x1="93.1053" y1="551.479" x2="176.724" y2="554.451" gradientUnits="userSpaceOnUse">
<stop stop-color="#00D1FF"/>
<stop offset="1" stop-color="#0866D5"/>
</linearGradient>
<radialGradient id="paint57_radial_25_103" cx="0" cy="0" r="1" gradientUnits="userSpaceOnUse" gradientTransform="translate(114.996 646.839) rotate(139.099) scale(100.972 100.928)">
<stop stop-color="#CDCBC2"/>
<stop offset="0.03" stop-color="#B9B7AF"/>
<stop offset="0.1" stop-color="#8E8D86"/>
<stop offset="0.17" stop-color="#686762"/>
<stop offset="0.26" stop-color="#474744"/>
<stop offset="0.34" stop-color="#2D2D2B"/>
<stop offset="0.44" stop-color="#191918"/>
<stop offset="0.54" stop-color="#0B0B0A"/>
<stop offset="0.67" stop-color="#030202"/>
<stop offset="0.89"/>
</radialGradient>
<radialGradient id="paint58_radial_25_103" cx="0" cy="0" r="1" gradientUnits="userSpaceOnUse" gradientTransform="translate(348.402 77.2725) rotate(-171.935) scale(74.7355 74.5114)">
<stop stop-color="#CDCBC2"/>
<stop offset="0.03" stop-color="#B9B7AF"/>
<stop offset="0.1" stop-color="#8E8D86"/>
<stop offset="0.17" stop-color="#686762"/>
<stop offset="0.26" stop-color="#474744"/>
<stop offset="0.34" stop-color="#2D2D2B"/>
<stop offset="0.44" stop-color="#191918"/>
<stop offset="0.54" stop-color="#0B0B0A"/>
<stop offset="0.67" stop-color="#030202"/>
<stop offset="0.89"/>
</radialGradient>
<radialGradient id="paint59_radial_25_103" cx="0" cy="0" r="1" gradientUnits="userSpaceOnUse" gradientTransform="translate(93.138 487.07) rotate(-76.8403) scale(91.4599 91.7167)">
<stop stop-color="#CDCBC2"/>
<stop offset="0.03" stop-color="#B9B7AF"/>
<stop offset="0.1" stop-color="#8E8D86"/>
<stop offset="0.17" stop-color="#686762"/>
<stop offset="0.26" stop-color="#474744"/>
<stop offset="0.34" stop-color="#2D2D2B"/>
<stop offset="0.44" stop-color="#191918"/>
<stop offset="0.54" stop-color="#0B0B0A"/>
<stop offset="0.67" stop-color="#030202"/>
<stop offset="0.89"/>
</radialGradient>
<radialGradient id="paint60_radial_25_103" cx="0" cy="0" r="1" gradientUnits="userSpaceOnUse" gradientTransform="translate(679.139 563.097) rotate(-2.98068) scale(28.659 28.57)">
<stop stop-color="#CDCBC2"/>
<stop offset="0.03" stop-color="#B9B7AF"/>
<stop offset="0.1" stop-color="#8E8D86"/>
<stop offset="0.17" stop-color="#686762"/>
<stop offset="0.26" stop-color="#474744"/>
<stop offset="0.34" stop-color="#2D2D2B"/>
<stop offset="0.44" stop-color="#191918"/>
<stop offset="0.54" stop-color="#0B0B0A"/>
<stop offset="0.67" stop-color="#030202"/>
<stop offset="0.89"/>
</radialGradient>
<radialGradient id="paint61_radial_25_103" cx="0" cy="0" r="1" gradientUnits="userSpaceOnUse" gradientTransform="translate(33.5638 465.286) rotate(-53.8047) scale(47.2536 47.2985)">
<stop stop-color="#CDCBC2"/>
<stop offset="0.03" stop-color="#B9B7AF"/>
<stop offset="0.1" stop-color="#8E8D86"/>
<stop offset="0.17" stop-color="#686762"/>
<stop offset="0.26" stop-color="#474744"/>
<stop offset="0.34" stop-color="#2D2D2B"/>
<stop offset="0.44" stop-color="#191918"/>
<stop offset="0.54" stop-color="#0B0B0A"/>
<stop offset="0.67" stop-color="#030202"/>
<stop offset="0.89"/>
</radialGradient>
<radialGradient id="paint62_radial_25_103" cx="0" cy="0" r="1" gradientUnits="userSpaceOnUse" gradientTransform="translate(326.402 672.711) rotate(-2.78399) scale(51.1485 50.9896)">
<stop stop-color="#CDCBC2"/>
<stop offset="0.03" stop-color="#B9B7AF"/>
<stop offset="0.1" stop-color="#8E8D86"/>
<stop offset="0.17" stop-color="#686762"/>
<stop offset="0.26" stop-color="#474744"/>
<stop offset="0.34" stop-color="#2D2D2B"/>
<stop offset="0.44" stop-color="#191918"/>
<stop offset="0.54" stop-color="#0B0B0A"/>
<stop offset="0.67" stop-color="#030202"/>
<stop offset="0.89"/>
</radialGradient>
<radialGradient id="paint63_radial_25_103" cx="0" cy="0" r="1" gradientUnits="userSpaceOnUse" gradientTransform="translate(113.374 329.441) rotate(-28.7743) scale(39.8447 39.7781)">
<stop stop-color="#CDCBC2"/>
<stop offset="0.03" stop-color="#B9B7AF"/>
<stop offset="0.1" stop-color="#8E8D86"/>
<stop offset="0.17" stop-color="#686762"/>
<stop offset="0.26" stop-color="#474744"/>
<stop offset="0.34" stop-color="#2D2D2B"/>
<stop offset="0.44" stop-color="#191918"/>
<stop offset="0.54" stop-color="#0B0B0A"/>
<stop offset="0.67" stop-color="#030202"/>
<stop offset="0.89"/>
</radialGradient>
<radialGradient id="paint64_radial_25_103" cx="0" cy="0" r="1" gradientUnits="userSpaceOnUse" gradientTransform="translate(644.63 622.474) rotate(103.778) scale(28.7767 28.8565)">
<stop stop-color="#CDCBC2"/>
<stop offset="0.03" stop-color="#B9B7AF"/>
<stop offset="0.1" stop-color="#8E8D86"/>
<stop offset="0.17" stop-color="#686762"/>
<stop offset="0.26" stop-color="#474744"/>
<stop offset="0.34" stop-color="#2D2D2B"/>
<stop offset="0.44" stop-color="#191918"/>
<stop offset="0.54" stop-color="#0B0B0A"/>
<stop offset="0.67" stop-color="#030202"/>
<stop offset="0.89"/>
</radialGradient>
<radialGradient id="paint65_radial_25_103" cx="0" cy="0" r="1" gradientUnits="userSpaceOnUse" gradientTransform="translate(100.369 460.058) rotate(-161.768) scale(75.4351 75.2457)">
<stop stop-color="#CDCBC2"/>
<stop offset="0.03" stop-color="#B9B7AF"/>
<stop offset="0.1" stop-color="#8E8D86"/>
<stop offset="0.17" stop-color="#686762"/>
<stop offset="0.26" stop-color="#474744"/>
<stop offset="0.34" stop-color="#2D2D2B"/>
<stop offset="0.44" stop-color="#191918"/>
<stop offset="0.54" stop-color="#0B0B0A"/>
<stop offset="0.67" stop-color="#030202"/>
<stop offset="0.89"/>
</radialGradient>
<radialGradient id="paint66_radial_25_103" cx="0" cy="0" r="1" gradientUnits="userSpaceOnUse" gradientTransform="translate(52.5858 301.048) rotate(-162.651) scale(122.599 122.284)">
<stop stop-color="#CDCBC2"/>
<stop offset="0.03" stop-color="#B9B7AF"/>
<stop offset="0.1" stop-color="#8E8D86"/>
<stop offset="0.17" stop-color="#686762"/>
<stop offset="0.26" stop-color="#474744"/>
<stop offset="0.34" stop-color="#2D2D2B"/>
<stop offset="0.44" stop-color="#191918"/>
<stop offset="0.54" stop-color="#0B0B0A"/>
<stop offset="0.67" stop-color="#030202"/>
<stop offset="0.89"/>
</radialGradient>
<radialGradient id="paint67_radial_25_103" cx="0" cy="0" r="1" gradientUnits="userSpaceOnUse" gradientTransform="translate(72.7843 135.419) rotate(-120.179) scale(49.5739 49.6508)">
<stop stop-color="#CDCBC2"/>
<stop offset="0.03" stop-color="#B9B7AF"/>
<stop offset="0.1" stop-color="#8E8D86"/>
<stop offset="0.17" stop-color="#686762"/>
<stop offset="0.26" stop-color="#474744"/>
<stop offset="0.34" stop-color="#2D2D2B"/>
<stop offset="0.44" stop-color="#191918"/>
<stop offset="0.54" stop-color="#0B0B0A"/>
<stop offset="0.67" stop-color="#030202"/>
<stop offset="0.89"/>
</radialGradient>
<radialGradient id="paint68_radial_25_103" cx="0" cy="0" r="1" gradientUnits="userSpaceOnUse" gradientTransform="translate(174.564 564.353) rotate(-160.975) scale(102.765 102.513)">
<stop stop-color="#CDCBC2"/>
<stop offset="0.03" stop-color="#B9B7AF"/>
<stop offset="0.1" stop-color="#8E8D86"/>
<stop offset="0.17" stop-color="#686762"/>
<stop offset="0.26" stop-color="#474744"/>
<stop offset="0.34" stop-color="#2D2D2B"/>
<stop offset="0.44" stop-color="#191918"/>
<stop offset="0.54" stop-color="#0B0B0A"/>
<stop offset="0.67" stop-color="#030202"/>
<stop offset="0.89"/>
</radialGradient>
<radialGradient id="paint69_radial_25_103" cx="0" cy="0" r="1" gradientUnits="userSpaceOnUse" gradientTransform="translate(196.769 395.968) rotate(40.9913) scale(62.8409 62.8138)">
<stop stop-color="#CDCBC2"/>
<stop offset="0.03" stop-color="#B9B7AF"/>
<stop offset="0.1" stop-color="#8E8D86"/>
<stop offset="0.17" stop-color="#686762"/>
<stop offset="0.26" stop-color="#474744"/>
<stop offset="0.34" stop-color="#2D2D2B"/>
<stop offset="0.44" stop-color="#191918"/>
<stop offset="0.54" stop-color="#0B0B0A"/>
<stop offset="0.67" stop-color="#030202"/>
<stop offset="0.89"/>
</radialGradient>
<radialGradient id="paint70_radial_25_103" cx="0" cy="0" r="1" gradientUnits="userSpaceOnUse" gradientTransform="translate(31.8128 352.171) rotate(-174.754) scale(47.5492 47.4032)">
<stop stop-color="#CDCBC2"/>
<stop offset="0.03" stop-color="#B9B7AF"/>
<stop offset="0.1" stop-color="#8E8D86"/>
<stop offset="0.17" stop-color="#686762"/>
<stop offset="0.26" stop-color="#474744"/>
<stop offset="0.34" stop-color="#2D2D2B"/>
<stop offset="0.44" stop-color="#191918"/>
<stop offset="0.54" stop-color="#0B0B0A"/>
<stop offset="0.67" stop-color="#030202"/>
<stop offset="0.89"/>
</radialGradient>
<radialGradient id="paint71_radial_25_103" cx="0" cy="0" r="1" gradientUnits="userSpaceOnUse" gradientTransform="translate(230.689 83.8258) rotate(74.1505) scale(34.2182 34.3094)">
<stop stop-color="#CDCBC2"/>
<stop offset="0.03" stop-color="#B9B7AF"/>
<stop offset="0.1" stop-color="#8E8D86"/>
<stop offset="0.17" stop-color="#686762"/>
<stop offset="0.26" stop-color="#474744"/>
<stop offset="0.34" stop-color="#2D2D2B"/>
<stop offset="0.44" stop-color="#191918"/>
<stop offset="0.54" stop-color="#0B0B0A"/>
<stop offset="0.67" stop-color="#030202"/>
<stop offset="0.89"/>
</radialGradient>
<clipPath id="clip0_25_103">
<rect width="716" height="767" fill="white"/>
</clipPath>
</defs>
</svg>
