<svg width="265" height="250" viewBox="0 0 265 250" fill="none" xmlns="http://www.w3.org/2000/svg">
<path style="mix-blend-mode:multiply" d="M3.53088 211.5C3.53088 222.746 41.362 232 88.0363 232C134.711 232 172.531 222.826 172.531 211.5C172.531 200.174 134.711 191 88.0363 191C41.362 191 3.53088 200.19 3.53088 211.5Z" fill="url(#paint0_radial_11_3312)"/>
<path d="M144.413 226.58C143.343 227.276 142.04 227.518 140.791 227.253C139.541 226.988 138.449 226.238 137.753 225.168L52.2555 94.1211C51.5551 93.0563 51.3054 91.7574 51.5611 90.5088C51.8168 89.2603 52.5571 88.1641 53.6197 87.4604L138.78 31.9121C139.858 31.1937 141.176 30.9274 142.448 31.1705C143.721 31.4137 144.847 32.1468 145.585 33.2122L231.082 164.275C231.748 165.385 231.952 166.712 231.652 167.972C231.352 169.232 230.572 170.324 229.477 171.016L144.413 226.58Z" fill="#C9C4C4"/>
<path d="M144.189 227.591C143.121 228.283 141.823 228.525 140.578 228.264C139.333 228.002 138.242 227.258 137.544 226.195L52.0146 95.1322C51.3173 94.0636 51.0726 92.7619 51.3345 91.513C51.5963 90.2641 52.3431 89.1702 53.411 88.4716L138.683 32.9233C139.751 32.231 141.049 31.9893 142.294 32.2509C143.539 32.5125 144.63 33.2562 145.328 34.3196L230.825 165.382C231.523 166.451 231.767 167.753 231.505 169.001C231.244 170.25 230.497 171.344 229.429 172.043L144.189 227.591Z" fill="url(#paint1_radial_11_3312)"/>
<path d="M60.7458 92.3397L62.9928 90.8792L75.9771 105.019L74.2116 106.175L71.7881 103.414L68.9152 105.292L70.5202 108.598L68.6905 109.834L60.7458 92.3397ZM68.0646 103.671L70.5041 102.066L63.7793 94.5064L68.0646 103.671Z" fill="black"/>
<path d="M74.2116 110.283C74.661 113.67 72.6066 116.157 74.2116 118.629C75.303 120.234 77.9993 120.234 78.8339 117.409C81.8192 117.795 82.9106 115.339 81.8192 113.67C80.2945 111.31 77.1166 112.065 74.2116 110.283Z" fill="black"/>
<path d="M79.5401 121.422C79.8071 120.919 80.1996 120.493 80.6796 120.186C81.156 119.864 81.7104 119.675 82.2846 119.64C80.9373 119.317 79.7418 118.541 78.8981 117.442C79.5571 118.657 79.7835 120.061 79.5401 121.422Z" fill="black"/>
<path d="M221.934 168.4L219.703 169.86L206.719 155.704L208.484 154.565L210.908 157.293L213.78 155.415L212.175 152.125L213.957 150.969L221.934 168.4ZM214.567 157.068L212.127 158.673L218.932 166.233L214.567 157.068Z" fill="black"/>
<path d="M208.484 150.472C208.018 147.086 210.089 144.582 208.484 142.126C207.409 140.521 204.712 140.521 203.878 143.346C200.892 142.945 199.801 145.416 200.892 147.086C202.401 149.445 205.579 148.674 208.484 150.472Z" fill="black"/>
<path d="M203.156 139.333C202.884 139.833 202.492 140.258 202.016 140.569C201.538 140.886 200.984 141.069 200.411 141.099C201.753 141.434 202.945 142.208 203.798 143.298C203.13 142.091 202.903 140.689 203.156 139.333Z" fill="black"/>
<path d="M129.15 111.439C130.851 123.813 123.356 132.962 129.246 141.933C133.211 148.016 143.097 148.016 146.163 137.456C157.077 138.9 161.041 129.864 157.077 123.781C151.523 115.259 139.791 118.019 129.15 111.439Z" fill="black"/>
<path d="M148.699 152.254C149.676 150.431 151.101 148.885 152.838 147.763C154.576 146.64 156.57 145.976 158.633 145.834C153.729 144.624 149.375 141.797 146.275 137.809C148.692 142.212 149.546 147.303 148.699 152.254Z" fill="black"/>
<path style="mix-blend-mode:multiply" d="M155.327 0.0212301C161.747 1.16076 165.438 46.5656 163.545 101.616C161.651 156.667 154.862 200.194 148.426 199.055C141.99 197.915 138.298 152.51 140.208 97.5076C142.118 42.505 148.875 -1.10225 155.327 0.0212301Z" fill="url(#paint2_radial_11_3312)"/>
<path style="mix-blend-mode:multiply" d="M124.594 178.135C125.128 167.658 154.209 158.662 189.563 158.035C224.917 157.407 253.113 165.389 252.58 175.865C252.046 186.342 222.965 195.338 187.632 195.965C152.299 196.593 124.061 188.611 124.594 178.135Z" fill="url(#paint3_radial_11_3312)"/>
<path style="mix-blend-mode:multiply" d="M166.77 94.747C187.17 97.957 201.085 125.161 197.859 155.656C194.633 186.151 175.502 208.283 155.102 205.137C134.703 201.992 120.788 174.643 123.998 144.229C127.208 113.814 146.371 91.5852 166.77 94.747Z" fill="url(#paint4_radial_11_3312)"/>
<path d="M150.801 182.379C149.524 182.379 148.299 181.872 147.396 180.969C146.493 180.066 145.986 178.841 145.986 177.564L148.313 21.0305C148.334 19.7674 148.851 18.5632 149.752 17.6775C150.652 16.7919 151.865 16.2956 153.128 16.2958L254.788 17.7884C256.082 17.8049 257.32 18.3255 258.237 19.2395C259.154 20.1535 259.678 21.389 259.699 22.6836L257.388 179.137C257.325 180.428 256.763 181.645 255.819 182.528C254.875 183.412 253.625 183.894 252.332 183.872L150.801 182.379Z" fill="#C9C4C4"/>
<path d="M150.063 183.085C148.786 183.085 147.561 182.578 146.658 181.675C145.755 180.772 145.248 179.547 145.248 178.27L147.559 21.8169C147.58 20.5539 148.097 19.3497 148.997 18.464C149.898 17.5783 151.111 17.082 152.374 17.0822L254.242 18.5267C255.519 18.5267 256.744 19.034 257.647 19.937C258.549 20.8399 259.057 22.0646 259.057 23.3416L256.73 179.795C256.73 181.072 256.222 182.297 255.319 183.2C254.416 184.103 253.192 184.61 251.915 184.61L150.063 183.085Z" fill="url(#paint5_radial_11_3312)"/>
<path d="M201.904 116.125C194.585 105.709 185.469 103.286 185.629 92.436C185.758 83.7851 201.214 82.1641 202.241 93.0619C203.846 82.2122 218.981 84.1543 218.852 92.9335C218.708 103.237 209.158 105.918 201.904 116.125Z" fill="#FF0204"/>
<path d="M156.418 24.3046H159.099L161.956 43.2755H159.853L159.372 39.6482H155.937L155.391 43.2594H153.273L156.418 24.3046ZM156.21 37.8185H159.115L157.767 27.7874L156.21 37.8185Z" fill="#FF0204"/>
<path d="M157.397 57.8968C154.91 54.3498 151.796 53.5152 151.86 49.8719C151.86 46.9187 157.157 46.373 157.51 50.0805C158.072 46.3891 163.207 47.0471 163.159 50.0805C163.111 53.5152 159.869 54.43 157.397 57.8968Z" fill="#FF0204"/>
<path d="M247.646 177.58H244.965L242.108 158.593H244.211L244.692 162.22H248.127L248.673 158.609H250.791L247.646 177.58ZM247.854 164.066H244.949L246.297 174.097L247.854 164.066Z" fill="#FF0204"/>
<path d="M246.667 144.004C249.154 147.535 252.252 148.385 252.204 152.029C252.204 154.966 246.907 155.512 246.554 151.804C245.992 155.512 240.856 154.854 240.905 151.804C240.953 148.353 244.195 147.471 246.667 144.004Z" fill="#FF0204"/>
<path style="mix-blend-mode:multiply" d="M156.178 206.903C178.423 205.667 194.489 169.555 192.065 126.253C189.642 82.9505 169.692 48.8447 147.431 50.0805C125.17 51.3164 109.104 87.3642 111.527 130.699C113.951 174.033 133.949 208.139 156.178 206.903Z" fill="url(#paint6_radial_11_3312)"/>
<path style="mix-blend-mode:multiply" d="M259.329 210.428C262.243 188.649 240.115 164.539 209.87 156.572C179.625 148.604 152.772 159.765 149.847 181.56C146.921 203.355 169.061 227.465 199.306 235.432C229.551 243.4 256.358 232.207 259.329 210.428Z" fill="url(#paint7_radial_11_3312)"/>
<path style="mix-blend-mode:multiply" d="M263.647 202.249C267.756 180.341 236.539 156.122 193.911 148.097C151.283 140.072 113.405 151.307 109.28 173.215C105.156 195.123 136.372 219.374 179.001 227.383C221.629 235.391 259.522 224.124 263.647 202.249Z" fill="url(#paint8_radial_11_3312)"/>
<path style="mix-blend-mode:multiply" d="M243.537 192.859C247.662 170.968 216.445 146.748 173.817 138.724C131.188 130.699 93.2948 141.933 89.1861 163.841C85.0773 185.749 116.214 209.985 158.906 218.009C201.599 226.034 239.428 214.751 243.537 192.859Z" fill="url(#paint9_radial_11_3312)"/>
<path style="mix-blend-mode:multiply" d="M259.197 220.574C262.361 198.68 242.706 175.518 215.274 168.825C187.843 162.131 163.045 174.426 159.868 196.337C156.69 218.247 176.358 241.441 203.74 248.167C231.122 254.892 256.019 242.533 259.197 220.574Z" fill="url(#paint10_radial_11_3312)"/>
<path d="M60.4409 46.7261L60.0396 46.5496C58.852 45.7471 33.1081 32.1048 32.0809 31.5751C31.4563 31.1709 30.7746 30.8625 30.0586 30.6603C29.5674 30.5482 29.0572 30.5482 28.566 30.6603L24.1363 31.527C24.9962 31.4613 25.8538 31.6814 26.5758 32.1529L15.6138 46.8706C15.4042 47.135 15.2563 47.443 15.1811 47.772C15.1058 48.1009 15.1051 48.4426 15.179 48.7719C15.2528 49.1012 15.3994 49.4097 15.6079 49.6751C15.8165 49.9404 16.0817 50.1557 16.3842 50.3052L23.1251 53.8843L29.0636 57.0943L38.5811 62.1821L43.9899 65.1032L48.1468 67.318C47.7368 67.9983 47.1485 68.5534 46.4455 68.923C46.4455 68.923 49.2381 68.4415 51.0839 68.0242C51.4134 67.9406 51.7277 67.8052 52.0147 67.623L52.2394 67.4625C52.4826 67.2522 52.6888 67.0027 52.8493 66.7242L61.6446 50.4497C61.8154 50.1273 61.9197 49.7738 61.9515 49.4104C61.9832 49.0469 61.9418 48.6807 61.8295 48.3336C61.7173 47.9864 61.5366 47.6653 61.2981 47.3892C61.0595 47.1131 60.7681 46.8876 60.4409 46.7261Z" fill="#C4912B"/>
<path d="M82.5093 41.1248L82.7179 40.8038C83.3599 39.5358 99.4579 15.2685 100.164 14.2895C100.517 13.6376 100.966 13.0425 101.496 12.524C101.849 12.1933 102.271 11.9465 102.732 11.8018L107.098 10.4376C106.302 10.7716 105.649 11.3736 105.252 12.1388L121.912 19.8427C122.222 19.9731 122.499 20.1714 122.722 20.4231C122.945 20.6748 123.109 20.9734 123.202 21.297C123.294 21.6205 123.313 21.9606 123.256 22.2923C123.199 22.6239 123.069 22.9386 122.874 23.2132L118.686 29.6331L114.994 35.2666L109.072 44.2866L105.653 49.4867L103.069 53.4349C103.752 53.8454 104.536 54.0566 105.332 54.0448C105.332 54.0448 102.652 54.9597 100.838 55.4733C100.551 55.5124 100.259 55.5124 99.9714 55.4733H99.6986C99.3865 55.4063 99.0881 55.2869 98.8159 55.1202L83.2957 44.9286C82.989 44.7351 82.7245 44.4818 82.5179 44.1837C82.3114 43.8856 82.1671 43.549 82.0937 43.1939C82.0203 42.8388 82.0192 42.4725 82.0906 42.117C82.162 41.7614 82.3044 41.424 82.5093 41.1248Z" fill="#C4912B"/>
<path d="M125.25 35.5876L122.04 40.4026C142.6 52.1189 164.941 77.8788 169.804 107.266C172.869 125.723 170.302 153.505 140.722 181.095C140.068 181.722 139.259 182.165 138.379 182.379C137.224 182.669 136.006 182.567 134.915 182.09C133.824 181.613 132.923 180.787 132.352 179.743C131.781 178.698 131.573 177.494 131.76 176.318C131.947 175.142 132.52 174.062 133.387 173.247C154.348 153.698 163.015 132.079 159.211 109.048C154.621 81.2814 126.036 54.4782 109.633 45.2175L105.717 51.188C121.911 60.4167 141.46 81.0406 146.034 98.9843C149.252 113.791 146.597 129.269 138.63 142.157C130.662 155.045 118.004 164.338 103.32 168.079C88.6372 171.819 73.0753 169.715 59.9125 162.21C46.7498 154.704 37.0137 142.383 32.7549 127.842C28.2288 110.059 35.8685 83.095 45.4824 67.3181L38.6933 63.6908C29.0634 79.9493 18.1656 116.735 27.1535 142.656C34.8092 164.724 52.8332 179.57 80.519 186.728C81.2327 186.875 81.9091 187.165 82.5073 187.581C83.1054 187.997 83.6127 188.53 83.9985 189.148C84.3843 189.766 84.6404 190.456 84.7514 191.176C84.8623 191.896 84.8258 192.632 84.644 193.337C84.4622 194.043 84.1388 194.704 83.6937 195.28C83.2485 195.857 82.6908 196.337 82.0544 196.692C81.4179 197.047 80.7161 197.268 79.9914 197.343C79.2667 197.418 78.5343 197.345 77.8387 197.129C38.6612 187.033 23.125 163.841 16.994 146.171C7.36411 118.597 14.2816 86.0642 26.2708 65.9217L20.3323 62.7118C4.73194 87.0272 -1.12622 119.127 5.88753 146.973C11.7192 169.88 26.4118 189.533 46.7333 201.607C67.0548 213.681 91.3404 217.188 114.248 211.357C137.155 205.525 156.807 190.833 168.882 170.511C180.956 150.19 184.463 125.904 178.631 102.997C171.505 74.9738 150.785 49.4226 125.25 35.5876Z" fill="#C4912B"/>
<path d="M120.066 32.6023C140.609 44.3347 162.967 70.0785 167.83 99.4657C170.895 117.923 168.327 145.705 138.732 173.295C138.082 173.923 137.28 174.372 136.404 174.595C135.246 174.891 134.023 174.793 132.927 174.316C131.831 173.839 130.925 173.01 130.352 171.961C129.78 170.912 129.573 169.702 129.765 168.522C129.957 167.342 130.537 166.26 131.413 165.446C152.374 145.898 161.041 124.279 157.237 101.247C152.631 73.465 130.659 50.8669 114.159 41.6223L120.066 32.6023Z" fill="url(#paint11_linear_11_3312)"/>
<path d="M78.529 178.848C79.6851 179.145 80.7097 179.817 81.4414 180.76C82.173 181.703 82.5701 182.863 82.5701 184.056C82.5701 185.25 82.173 186.409 81.4414 187.352C80.7097 188.295 79.6851 188.968 78.529 189.264C77.6507 189.497 76.727 189.497 75.8487 189.264C36.6712 179.169 21.1511 155.993 15.004 138.306C5.37412 110.733 12.2916 78.1998 24.2808 57.9771L33.7983 63.0649C24.1684 79.3233 16.1435 108.871 25.1635 134.791C32.7551 156.908 50.795 171.738 78.529 178.848Z" fill="url(#paint12_linear_11_3312)"/>
<path d="M123.26 27.7553C148.795 41.5902 169.515 67.1415 176.641 95.1644C182.264 117.993 178.635 142.119 166.545 162.284C154.455 182.448 134.884 197.017 112.099 202.813C89.3134 208.609 65.1604 205.164 44.9044 193.228C24.6483 181.292 9.93148 161.833 3.96162 139.093C-3.11633 111.246 2.74184 79.1467 18.4064 54.8313L24.3448 58.0413C12.2915 78.2319 5.4703 110.765 15.0039 138.338C21.1509 155.993 36.6711 179.201 75.8486 189.296C76.7269 189.529 77.6506 189.529 78.5289 189.296C79.685 189 80.7096 188.327 81.4413 187.384C82.1729 186.441 82.57 185.282 82.57 184.088C82.57 182.895 82.1729 181.735 81.4413 180.792C80.7096 179.849 79.685 179.177 78.5289 178.88C50.7949 171.738 32.7549 156.908 25.1634 134.823C16.1755 108.903 24.1041 79.3554 33.7982 63.0969L39.2872 66.034C29.6573 81.811 26.1585 102.226 30.6845 120.009C34.5155 135.042 44.1612 147.937 57.4997 155.857C70.8381 163.778 86.7767 166.075 101.809 162.244C116.842 158.413 129.736 148.768 137.657 135.429C145.578 122.091 147.875 106.152 144.044 91.1199C139.486 73.1762 126.389 56.7733 110.243 47.5447L114.159 41.5742C130.578 50.8189 152.679 73.417 157.237 101.183C161.041 124.231 152.422 145.85 131.413 165.382C130.537 166.196 129.957 167.278 129.765 168.458C129.573 169.637 129.78 170.848 130.352 171.897C130.925 172.946 131.831 173.775 132.927 174.252C134.023 174.729 135.246 174.827 136.404 174.531C137.28 174.308 138.083 173.859 138.732 173.231C168.327 145.641 170.831 117.859 167.83 99.4016C163.015 70.0144 140.545 44.2705 120.066 32.5381L123.26 27.7553Z" fill="url(#paint13_linear_11_3312)"/>
<path style="mix-blend-mode:multiply" d="M39.2873 66.034L33.7983 63.0969C32.5785 65.1352 31.4069 67.3822 30.2673 69.7897C31.8105 71.5113 33.2572 73.317 34.6008 75.1985C35.9371 72.0333 37.5034 68.9703 39.2873 66.034Z" fill="url(#paint14_linear_11_3312)"/>
<path style="mix-blend-mode:multiply" d="M21.9855 62.1821C22.7237 60.7537 23.4941 59.3413 24.2806 58.0092L18.3421 54.7992C17.6039 55.9387 16.9137 57.1104 16.2396 58.282C18.2252 59.4753 20.1434 60.7773 21.9855 62.1821Z" fill="url(#paint15_linear_11_3312)"/>
<path style="mix-blend-mode:multiply" d="M123.26 27.7553L120.05 32.5702C122.631 34.0426 125.133 35.6498 127.545 37.3852C129.054 35.9086 130.643 34.5123 132.36 33.1962C129.424 31.2241 126.387 29.4079 123.26 27.7553Z" fill="url(#paint16_linear_11_3312)"/>
<path style="mix-blend-mode:multiply" d="M120.547 45.7149C118.485 44.2319 116.342 42.8655 114.127 41.6223L110.211 47.5928C112.465 48.8899 114.645 50.3098 116.743 51.846C117.877 49.722 119.148 47.674 120.547 45.7149Z" fill="url(#paint17_linear_11_3312)"/>
<g style="mix-blend-mode:screen">
<path d="M118.541 33.0035C139.101 44.7199 161.442 70.4798 166.305 99.8509C169.371 118.308 166.803 146.106 137.207 173.68C136.552 174.298 135.752 174.74 134.88 174.964C133.722 175.26 132.498 175.162 131.402 174.685C130.306 174.208 129.4 173.379 128.828 172.33C128.255 171.281 128.049 170.071 128.241 168.891C128.433 167.711 129.012 166.629 129.888 165.816C150.849 146.267 159.516 124.648 155.712 101.616C151.122 73.8502 129.054 51.2521 112.635 42.0075L118.541 33.0035Z" fill="#FCC571"/>
</g>
<g style="mix-blend-mode:multiply">
<path d="M120.066 32.6023C140.609 44.3347 162.967 70.0785 167.83 99.4657C170.895 117.923 168.327 145.705 138.732 173.295C138.082 173.923 137.28 174.372 136.404 174.595C135.246 174.891 134.023 174.793 132.927 174.316C131.831 173.839 130.925 173.01 130.352 171.961C129.78 170.912 129.573 169.702 129.765 168.522C129.957 167.342 130.537 166.26 131.413 165.446C152.374 145.898 161.041 124.279 157.237 101.247C152.631 73.465 130.659 50.8669 114.159 41.6223L120.066 32.6023Z" fill="#D4B474"/>
</g>
<g style="mix-blend-mode:screen">
<path d="M77.1808 179.249C77.8643 179.423 78.5066 179.73 79.0711 180.153C79.6355 180.576 80.1111 181.106 80.4704 181.713C80.8297 182.32 81.0657 182.991 81.165 183.689C81.2643 184.388 81.2248 185.099 81.0488 185.781C80.8042 186.715 80.3155 187.567 79.6329 188.25C78.9504 188.932 78.0985 189.421 77.1648 189.666C76.2919 189.898 75.3735 189.898 74.5005 189.666C35.323 179.554 19.7868 156.378 13.6558 138.724C4.02592 111.15 10.9273 78.601 22.9326 58.3943L32.434 63.45C22.8042 79.6924 14.7793 109.24 23.8153 135.177C31.455 157.245 49.4308 172.091 77.1808 179.249Z" fill="#FCC571"/>
</g>
<g style="mix-blend-mode:multiply">
<path d="M78.529 178.848C79.6851 179.145 80.7097 179.817 81.4414 180.76C82.173 181.703 82.5701 182.863 82.5701 184.056C82.5701 185.25 82.173 186.409 81.4414 187.352C80.7097 188.295 79.6851 188.968 78.529 189.264C77.6507 189.497 76.727 189.497 75.8487 189.264C36.6712 179.169 21.1511 155.993 15.004 138.306C5.37412 110.733 12.2916 78.1998 24.2808 57.9771L33.7983 63.0649C24.1684 79.3233 16.1435 108.871 25.1635 134.791C32.7551 156.908 50.795 171.738 78.529 178.848Z" fill="#D4B474"/>
</g>
<g style="mix-blend-mode:multiply">
<path d="M132.504 45.1532C132.678 45.771 132.662 46.4266 132.459 47.0352C132.256 47.6439 131.875 48.1778 131.366 48.568C130.857 48.9583 130.242 49.1869 129.601 49.2244C128.961 49.262 128.324 49.1067 127.772 48.7786C127.221 48.4506 126.781 47.9648 126.508 47.384C126.235 46.8032 126.143 46.154 126.243 45.5202C126.343 44.8864 126.63 44.2971 127.068 43.8283C127.507 43.3595 128.075 43.0327 128.701 42.8902C129.504 42.7072 130.347 42.8401 131.055 43.2613C131.763 43.6826 132.282 44.3599 132.504 45.1532Z" fill="#826E47"/>
</g>
<g style="mix-blend-mode:multiply">
<path d="M142.648 164.211C142.818 164.829 142.799 165.484 142.594 166.091C142.388 166.698 142.006 167.23 141.495 167.618C140.985 168.006 140.37 168.232 139.729 168.267C139.089 168.303 138.453 168.145 137.903 167.816C137.353 167.486 136.915 167 136.644 166.418C136.373 165.837 136.282 165.188 136.383 164.555C136.485 163.922 136.773 163.334 137.212 162.866C137.65 162.399 138.219 162.073 138.844 161.931C139.65 161.749 140.494 161.884 141.203 162.309C141.911 162.733 142.429 163.414 142.648 164.211Z" fill="#826E47"/>
</g>
<g style="mix-blend-mode:multiply">
<path d="M165.278 97.9251C165.45 98.5423 165.434 99.1969 165.231 99.8048C165.028 100.413 164.648 100.946 164.139 101.336C163.631 101.726 163.017 101.954 162.378 101.993C161.738 102.031 161.101 101.877 160.55 101.55C159.999 101.223 159.558 100.739 159.284 100.16C159.01 99.5805 158.916 98.9324 159.014 98.2991C159.111 97.6658 159.396 97.0762 159.832 96.6062C160.268 96.1363 160.834 95.8074 161.458 95.6621C162.264 95.4744 163.111 95.605 163.822 96.0267C164.534 96.4483 165.056 97.1284 165.278 97.9251Z" fill="#826E47"/>
</g>
<g style="mix-blend-mode:multiply">
<path d="M152.807 67.8155C152.981 68.4333 152.965 69.0888 152.762 69.6975C152.559 70.3062 152.178 70.8401 151.669 71.2303C151.159 71.6205 150.545 71.8492 149.904 71.8867C149.264 71.9242 148.627 71.769 148.075 71.4409C147.524 71.1129 147.083 70.6271 146.811 70.0463C146.538 69.4654 146.446 68.8163 146.546 68.1825C146.646 67.5487 146.933 66.9593 147.371 66.4906C147.809 66.0218 148.378 65.695 149.003 65.5525C149.807 65.3695 150.65 65.5023 151.358 65.9236C152.066 66.3449 152.585 67.0222 152.807 67.8155Z" fill="#826E47"/>
</g>
<g style="mix-blend-mode:multiply">
<path d="M19.3374 101.809C19.5098 102.426 19.4934 103.081 19.2905 103.689C19.0876 104.297 18.7074 104.83 18.1989 105.22C17.6903 105.61 17.0767 105.838 16.4371 105.877C15.7974 105.915 15.1609 105.761 14.6096 105.434C14.0583 105.107 13.6173 104.623 13.3435 104.044C13.0697 103.464 12.9756 102.816 13.0733 102.183C13.1709 101.55 13.4559 100.96 13.8915 100.49C14.3272 100.02 14.8935 99.6914 15.5176 99.546C16.3232 99.3584 17.1702 99.489 17.8819 99.9106C18.5935 100.332 19.115 101.012 19.3374 101.809Z" fill="#826E47"/>
</g>
<g style="mix-blend-mode:multiply">
<path d="M161.362 135.69C161.535 136.308 161.519 136.963 161.316 137.572C161.113 138.181 160.733 138.715 160.223 139.105C159.714 139.495 159.1 139.724 158.459 139.761C157.819 139.799 157.181 139.644 156.63 139.315C156.079 138.987 155.638 138.502 155.366 137.921C155.093 137.34 155.001 136.691 155.1 136.057C155.2 135.423 155.488 134.834 155.926 134.365C156.364 133.896 156.933 133.57 157.558 133.427C158.361 133.244 159.204 133.377 159.912 133.798C160.621 134.219 161.14 134.897 161.362 135.69Z" fill="#826E47"/>
</g>
<g style="mix-blend-mode:multiply">
<path d="M43.4121 165.703C43.5845 166.32 43.5681 166.975 43.3652 167.583C43.1623 168.191 42.7821 168.724 42.2736 169.114C41.765 169.504 41.1514 169.733 40.5118 169.771C39.8721 169.809 39.2356 169.655 38.6843 169.328C38.133 169.002 37.692 168.517 37.4182 167.938C37.1444 167.359 37.0503 166.711 37.148 166.077C37.2456 165.444 37.5306 164.854 37.9662 164.384C38.4019 163.914 38.9682 163.586 39.5923 163.44C40.3979 163.253 41.2449 163.383 41.9566 163.805C42.6682 164.226 43.1897 164.907 43.4121 165.703Z" fill="#826E47"/>
</g>
<g style="mix-blend-mode:multiply">
<path d="M22.7561 134.181C22.9293 134.799 22.9134 135.455 22.7105 136.063C22.5076 136.672 22.1269 137.206 21.6176 137.596C21.1082 137.986 20.4937 138.215 19.8531 138.253C19.2126 138.29 18.5755 138.135 18.0241 137.807C17.4727 137.479 17.0323 136.993 16.7596 136.412C16.487 135.831 16.3946 135.182 16.4945 134.548C16.5944 133.915 16.882 133.325 17.3201 132.856C17.7582 132.388 18.3267 132.061 18.9523 131.918C19.7568 131.714 20.6095 131.838 21.3229 132.262C22.0362 132.687 22.5518 133.377 22.7561 134.181Z" fill="#826E47"/>
</g>
<g style="mix-blend-mode:multiply">
<path d="M74.4844 181.544C74.6567 182.162 74.6404 182.816 74.4375 183.424C74.2346 184.032 73.8544 184.565 73.3458 184.955C72.8373 185.345 72.2237 185.574 71.584 185.612C70.9444 185.65 70.3079 185.496 69.7566 185.169C69.2053 184.843 68.7643 184.359 68.4905 183.779C68.2167 183.2 68.1226 182.552 68.2202 181.918C68.3179 181.285 68.6029 180.695 69.0385 180.225C69.4741 179.756 70.0404 179.427 70.6646 179.281C71.4702 179.094 72.3171 179.224 73.0288 179.646C73.7405 180.068 74.2619 180.748 74.4844 181.544Z" fill="#826E47"/>
</g>
<g style="mix-blend-mode:multiply">
<path d="M26.0943 72.2293C26.2676 72.8471 26.2517 73.5026 26.0488 74.1113C25.8458 74.72 25.4651 75.2539 24.9558 75.6441C24.4465 76.0343 23.8319 76.2629 23.1914 76.3005C22.5509 76.338 21.9138 76.1827 21.3624 75.8547C20.811 75.5266 20.3705 75.0408 20.0979 74.46C19.8252 73.8792 19.7329 73.23 19.8328 72.5962C19.9327 71.9624 20.2202 71.3731 20.6583 70.9043C21.0964 70.4355 21.6649 70.1088 22.2905 69.9663C23.0938 69.7832 23.9368 69.9161 24.6448 70.3374C25.3529 70.7586 25.8719 71.436 26.0943 72.2293Z" fill="#826E47"/>
</g>
<path d="M55.6741 47.6732C55.9892 47.8343 56.2693 48.0562 56.4982 48.3262C56.7271 48.5962 56.9003 48.9088 57.0077 49.246C57.1152 49.5832 57.1547 49.9384 57.1242 50.291C57.0936 50.6436 56.9935 50.9867 56.8297 51.3004L48.0825 67.6712C47.7455 68.3004 47.1728 68.7704 46.4898 68.978C45.8068 69.1856 45.0694 69.1139 44.4392 68.7786L39.3354 66.0341L33.8464 63.097L24.3289 58.0092L18.3904 54.7993L11.6816 51.2041C11.3795 51.0564 11.1144 50.8427 10.9058 50.5788C10.6973 50.315 10.5507 50.0076 10.4767 49.6795C10.4028 49.3514 10.4034 49.0109 10.4786 48.6831C10.5539 48.3553 10.7017 48.0486 10.9112 47.7855L22.1461 32.6827C22.6046 32.0973 23.2522 31.6892 23.9781 31.5282C24.7041 31.3672 25.4634 31.4633 26.1264 31.7999L55.6741 47.6732Z" fill="url(#paint18_linear_11_3312)"/>
<path d="M126.165 18.4946C126.477 18.6206 126.756 18.816 126.981 19.0659C127.206 19.3158 127.371 19.6137 127.464 19.937C127.557 20.2604 127.575 20.6005 127.516 20.9318C127.458 21.2631 127.325 21.5768 127.128 21.849L123.26 27.7553L120.05 32.5703L114.159 41.6223L110.243 47.5929L106.728 52.9214C106.535 53.2177 106.285 53.4727 105.993 53.6714C105.7 53.8701 105.371 54.0086 105.025 54.0789C104.678 54.1491 104.321 54.1496 103.974 54.0804C103.628 54.0112 103.298 53.8736 103.005 53.6757L87.5008 43.5002C87.2056 43.3043 86.9519 43.0521 86.7542 42.7581C86.5565 42.4641 86.4187 42.134 86.3486 41.7867C86.2786 41.4394 86.2777 41.0817 86.3459 40.734C86.4142 40.3864 86.5503 40.0556 86.7465 39.7606L105.156 11.7055C105.577 11.094 106.198 10.6478 106.913 10.4429C107.627 10.238 108.39 10.2872 109.072 10.5821L126.165 18.4946Z" fill="url(#paint19_linear_11_3312)"/>
<path d="M147.96 219.39V233.289C143.852 229.902 141.54 226.082 141.171 222.15V208.091C141.428 212.103 143.803 215.971 147.96 219.39Z" fill="#D8D6D6"/>
<path d="M175.213 230.737V244.652C163.208 242.245 153.802 238.232 147.928 233.321V219.422C153.802 224.285 163.208 228.345 175.213 230.737Z" fill="#002789"/>
<path d="M250.278 221.107V235.022C243.392 239.837 232.88 243.625 220.056 245.551V231.684C232.88 229.71 243.392 225.922 250.278 221.107Z" fill="#002789"/>
<path d="M259.282 220.577C259.538 225.778 256.248 230.753 250.278 234.926V221.059C256.04 217.014 259.298 212.264 259.298 207.272V220.577H259.282Z" fill="#D8D6D6"/>
<path d="M220.056 231.636V245.503C212.534 246.612 204.931 247.079 197.329 246.899C189.906 246.797 182.505 246.045 175.213 244.652V230.769C182.502 232.193 189.903 232.967 197.329 233.08C204.932 233.252 212.536 232.769 220.056 231.636Z" fill="#D8D6D6"/>
<path d="M147.96 219.293V219.39C143.803 215.971 141.428 212.103 141.187 208.155C141.052 206.335 141.349 204.509 142.054 202.826C142.121 202.649 142.201 202.478 142.295 202.313L160.286 205.202C160.376 207.521 161.326 209.724 162.951 211.381L147.96 219.293Z" fill="#EBEBEB"/>
<path d="M185.629 182.202L184.49 189.264C180.734 189.925 177.047 190.935 173.479 192.282L156.595 189.906C165.794 185.788 175.599 183.186 185.629 182.202Z" fill="#EBEBEB"/>
<path d="M244.612 190.195L226.38 192.522C222.972 191.179 219.447 190.153 215.851 189.457L215.37 189.361L215.032 182.202C225.269 183.202 235.266 185.903 244.612 190.195Z" fill="#EBEBEB"/>
<path d="M258.768 203.805C259.122 204.921 259.3 206.085 259.298 207.256C259.298 212.247 256.088 216.998 250.278 221.043V220.85L235.191 212.135C237.087 210.524 238.354 208.296 238.77 205.844L258.559 203.179C258.463 202.89 258.351 202.602 258.222 202.297C258.442 202.785 258.625 203.289 258.768 203.805Z" fill="white"/>
<path d="M220.056 231.556C212.535 232.678 204.931 233.151 197.329 232.968C189.903 232.855 182.502 232.081 175.213 230.657V230.576L190.107 221.524C191.953 221.733 193.879 221.878 195.837 221.926C196.543 222.006 197.233 222.006 197.955 222.022C200.668 222.022 203.3 222.022 205.9 221.781L220.056 231.556Z" fill="white"/>
<path d="M215.353 189.361L215.835 189.457L215.45 191.367C210.313 190.219 205.064 189.649 199.801 189.666C194.789 189.638 189.788 190.122 184.875 191.11L184.49 189.264L185.629 182.202C187.908 181.962 190.252 181.737 192.659 181.625C193.847 181.625 195.05 181.48 196.27 181.448C197.49 181.416 198.501 181.448 199.641 181.448H200.876C202.032 181.448 203.188 181.448 204.311 181.448C205.435 181.448 206.735 181.544 207.954 181.625C208.773 181.625 209.559 181.721 210.41 181.785C210.527 181.769 210.646 181.769 210.763 181.785C211.485 181.785 212.176 181.897 212.898 181.978C213.122 181.961 213.347 181.961 213.572 181.978L215.016 182.138L215.353 189.361Z" fill="#007DC6"/>
<path d="M166.738 209.343C170.606 214.462 180.734 218.507 193.798 219.422C194.521 219.422 195.227 219.518 195.933 219.534L195.837 222.054C193.879 222.054 191.953 221.861 190.107 221.653L175.213 230.785C169.702 229.825 164.296 228.342 159.067 226.355L157.863 225.858C154.259 224.186 150.922 221.99 147.96 219.342L162.951 211.317C161.326 209.659 160.376 207.457 160.286 205.138L142.295 202.249C142.407 201.96 142.551 201.687 142.696 201.398C143.101 200.659 143.551 199.947 144.044 199.263L144.542 198.621C144.766 198.332 145.007 198.06 145.248 197.803C145.433 197.583 145.632 197.374 145.842 197.177C146.195 196.824 146.564 196.487 146.917 196.118C149.821 193.607 153.062 191.516 156.547 189.906L173.431 192.282C176.999 190.935 180.685 189.925 184.441 189.264L184.827 191.11L184.136 191.254C182.073 191.665 180.036 192.201 178.038 192.859C171.2 195.235 166.257 198.766 165.198 202.891C164.936 203.854 164.903 204.865 165.101 205.844C165.354 207.126 165.916 208.327 166.738 209.343Z" fill="#007DC6"/>
<path d="M215.835 189.457C219.431 190.153 222.956 191.179 226.363 192.522L244.612 190.195C247.7 191.669 250.581 193.541 253.183 195.764L254.113 196.631C254.185 196.687 254.25 196.752 254.306 196.824C254.675 197.177 255.012 197.562 255.349 197.915L256.232 199.007C256.531 199.372 256.805 199.758 257.051 200.162C257.501 200.842 257.887 201.562 258.206 202.313C258.335 202.618 258.447 202.907 258.543 203.196L238.754 205.86C238.338 208.313 237.071 210.54 235.175 212.151L250.262 221.059C246.351 223.654 242.128 225.746 237.695 227.286C231.991 229.367 226.067 230.783 220.04 231.507L205.884 221.877C203.284 222.07 200.652 222.166 197.939 222.118C197.217 222.118 196.527 222.118 195.821 222.022L195.917 219.502C196.623 219.502 197.345 219.582 198.084 219.582C199.544 219.582 200.989 219.582 202.401 219.502C215.787 219.005 226.749 215.185 231.435 210.049C232.36 209.066 233.071 207.902 233.522 206.63C233.834 205.651 233.916 204.613 233.762 203.597C233.104 199.328 228.338 195.572 221.5 193.164C219.519 192.438 217.493 191.843 215.434 191.383L215.835 189.457Z" fill="#007DC6"/>
<path d="M221.517 193.148C228.354 195.62 233.121 199.311 233.779 203.581C233.932 204.597 233.85 205.635 233.538 206.614C233.087 207.886 232.376 209.05 231.451 210.033C226.765 215.169 215.803 218.988 202.417 219.486C201.005 219.566 199.56 219.566 198.1 219.566C197.362 219.566 196.639 219.566 195.933 219.486C195.227 219.406 194.521 219.486 193.799 219.374C180.734 218.459 170.607 214.414 166.739 209.294C165.944 208.308 165.394 207.148 165.134 205.908C164.936 204.929 164.969 203.918 165.23 202.955C166.305 198.83 171.249 195.299 178.07 192.924C180.068 192.265 182.105 191.729 184.169 191.319L184.859 191.174C189.772 190.186 194.773 189.702 199.785 189.73C205.048 189.713 210.297 190.283 215.434 191.431C217.497 191.87 219.529 192.443 221.517 193.148Z" fill="white"/>
<path style="mix-blend-mode:multiply" d="M258.768 203.805C255.558 192.859 240.873 187.868 231.13 185.236C218.568 181.967 205.562 180.742 192.611 181.609C179.402 182.267 165.326 184.915 153.578 191.431C148.49 194.272 143.065 198.381 141.492 204.271C139.919 210.161 143.595 215.827 147.912 219.277C154.082 224.319 161.377 227.799 169.178 229.421C178.738 231.691 188.516 232.913 198.341 233.064C207.926 233.265 217.504 232.387 226.893 230.448C230.877 229.603 234.793 228.466 238.61 227.045C241.053 226.121 243.438 225.049 245.752 223.836C247.036 223.145 249.652 222.118 250.342 220.882C251 220.882 252.846 219.165 253.552 218.459C255.009 217.14 256.278 215.628 257.324 213.965C258.28 212.468 258.904 210.784 259.153 209.026C259.402 207.268 259.271 205.476 258.768 203.773C258.624 203.324 259.137 204.961 258.768 203.805Z" fill="url(#paint20_linear_11_3312)"/>
<path style="mix-blend-mode:multiply" d="M250.278 221.107C243.392 225.922 232.88 229.71 220.056 231.636C212.535 232.758 204.932 233.231 197.33 233.048C189.903 232.935 182.502 232.161 175.213 230.737C163.208 228.345 153.803 224.317 147.928 219.39C143.771 215.971 141.396 212.103 141.155 208.155V222.182C141.476 226.115 143.836 229.934 147.944 233.321C153.786 238.216 163.192 242.245 175.229 244.652C182.52 246.061 189.921 246.829 197.346 246.947C204.947 247.127 212.55 246.66 220.072 245.551C232.912 243.625 243.408 239.837 250.294 235.022C256.264 230.849 259.555 225.874 259.298 220.674V207.368C259.298 212.312 256.04 217.062 250.278 221.107Z" fill="url(#paint21_linear_11_3312)"/>
<path d="M249.877 220.85C248.919 221.506 247.928 222.112 246.907 222.664L243.408 224.269C241.068 225.339 238.667 226.272 236.218 227.062C231.311 228.653 226.281 229.839 221.179 230.609L219.189 230.897L220.056 232.406L221.436 232.197C226.594 231.425 231.666 230.168 236.587 228.442C239.063 227.574 241.486 226.562 243.842 225.408L247.325 223.627C247.951 223.258 249.218 222.391 250.214 221.701L249.877 220.85Z" fill="#1DA7D1"/>
<path d="M219.189 230.978C209.612 232.226 199.935 232.522 190.3 231.86C185.548 231.52 180.817 230.931 176.128 230.095L175.213 231.523C180.158 232.476 185.152 233.156 190.171 233.562C200.141 234.352 210.169 233.991 220.056 232.486L219.189 230.978Z" fill="#EBE8E8"/>
<path d="M174.94 229.87C169.86 229.019 164.873 227.686 160.046 225.89C155.263 223.954 150.833 221.243 146.933 217.865C144.995 216.187 143.431 214.12 142.343 211.798C141.254 209.434 140.972 206.778 141.54 204.239C140.802 206.785 140.949 209.507 141.958 211.959C142.976 214.389 144.497 216.577 146.419 218.379C150.27 221.982 154.711 224.897 159.548 226.997C164.405 228.996 169.463 230.465 174.635 231.379L175.197 231.491L176.112 230.063L174.94 229.87Z" fill="#1DA7D1"/>
<path d="M258.768 203.805C259.2 205.455 259.288 207.175 259.025 208.859C258.763 210.544 258.156 212.156 257.243 213.596C256.349 215.031 255.27 216.342 254.033 217.496C253.423 218.074 252.765 218.651 252.123 219.197C251.802 219.47 251.481 219.743 251.144 219.984L249.876 220.85L250.278 221.701C250.984 221.203 251.546 220.802 251.69 220.722C252.045 220.454 252.383 220.165 252.701 219.855C253.343 219.261 253.953 218.668 254.563 218.042C255.813 216.799 256.892 215.396 257.773 213.869C258.637 212.356 259.172 210.677 259.344 208.943C259.515 207.209 259.319 205.458 258.768 203.805Z" fill="#EBE8E8"/>
<path style="mix-blend-mode:multiply" d="M258.768 203.805C259.137 204.961 258.624 203.324 258.768 203.805V203.805Z" fill="url(#paint22_linear_11_3312)"/>
<path style="mix-blend-mode:multiply" d="M193.526 193.453C180.349 194.127 165.294 184.931 153.626 191.431C148.538 194.272 143.113 198.381 141.54 204.271C141.039 207.363 140.915 210.505 141.171 213.628C141.171 216.405 140.995 219.245 141.171 222.022C141.508 227.8 146.227 232.326 150.801 235.359C159.693 241.346 176.047 245.968 193.574 246.771L187.298 232.486C200.844 202.329 193.526 193.453 193.526 193.453Z" fill="url(#paint23_linear_11_3312)"/>
<path d="M191.744 183.021C192.928 185.813 193.538 188.815 193.538 191.848C193.538 194.881 192.928 197.883 191.744 200.676L186.271 184.738C188.935 178.736 184.955 168.833 184.955 168.833C184.955 168.833 186.287 170.261 191.744 183.021Z" fill="#D8D6D6"/>
<path d="M173.993 219.486C167.4 223.619 160.411 227.081 153.128 229.822C145.926 232.649 138.465 234.767 130.851 236.146L123.565 222.182C130.91 220.774 138.11 218.689 145.071 215.955C152.373 213.187 159.41 209.765 166.097 205.731L173.993 219.486Z" fill="#D8D6D6"/>
<path d="M93.7442 221.332L99.9073 235.022C94.6911 233.144 90.8231 230.207 88.8009 226.436V226.323L83.4242 213.178C85.6767 217.132 89.377 220.055 93.7442 221.332Z" fill="#D8D6D6"/>
<path d="M191.648 200.595C187.86 207.192 184.827 211.156 173.993 219.502L166.081 205.667C176.754 198.942 183.077 191.656 186.223 184.674L191.648 200.595Z" fill="#891000"/>
<path d="M130.931 236.13C118.413 238.312 107.627 237.735 99.9073 234.894L93.7441 221.332C101.127 223.9 111.399 224.333 123.613 222.102L130.931 236.13Z" fill="#891000"/>
<path style="mix-blend-mode:multiply" d="M191.744 183.021C186.287 170.261 184.939 168.721 184.939 168.721C184.939 168.721 188.919 178.623 186.255 184.626C183.045 191.608 176.786 198.894 166.113 205.619C159.426 209.653 152.389 213.075 145.087 215.843C138.126 218.577 130.926 220.662 123.581 222.07C111.447 224.301 101.111 223.868 93.7121 221.3C89.3399 220.004 85.6442 217.056 83.4081 213.082L88.7848 226.227V226.339C90.8071 230.111 94.6751 233.048 99.8913 234.926C107.611 237.735 118.397 238.345 130.916 236.162C138.529 234.783 145.99 232.665 153.193 229.838C160.475 227.097 167.465 223.635 174.057 219.502C184.939 211.156 187.972 207.192 191.712 200.595C192.89 197.816 193.5 194.83 193.505 191.811C193.511 188.793 192.912 185.804 191.744 183.021Z" fill="url(#paint24_linear_11_3312)"/>
<path d="M116.214 183.663C114.617 184.706 113.08 185.837 111.608 187.049C106.52 191.271 103.326 195.925 103.695 199.889C103.775 200.815 104.066 201.71 104.546 202.505C105.212 203.509 106.102 204.344 107.146 204.945C112.474 208.155 123.308 208.155 135.714 204.207C136.388 204.003 137.063 203.779 137.737 203.533C138.411 203.292 139.053 203.035 139.727 202.762C141.075 202.265 142.359 201.719 143.643 201.157C155.488 195.764 163.256 188.542 164.652 182.636C164.948 181.494 164.948 180.295 164.652 179.153C164.406 178.246 163.949 177.411 163.32 176.713C160.64 173.664 154.926 172.46 148.121 172.861C146.178 172.969 144.243 173.194 142.327 173.535C133.04 175.158 124.166 178.6 116.214 183.663Z" fill="white"/>
<path d="M115.764 181.962L114.288 176.312C106.25 180.341 98.8427 185.521 92.2996 191.688L107.435 187.948C110.025 185.706 112.813 183.703 115.764 181.962Z" fill="#EBEBEB"/>
<path d="M142.022 171.85C145.26 171.206 148.545 170.825 151.844 170.711L165.487 163.248C156.261 163.187 147.074 164.44 138.202 166.971L141.412 171.963L142.022 171.85Z" fill="#EBEBEB"/>
<path d="M186.287 170.261C185.693 169.587 185.038 168.969 184.329 168.416C184.182 168.293 184.026 168.18 183.864 168.079L168.713 176.713C169.181 177.68 169.449 178.732 169.498 179.805C169.548 180.879 169.379 181.951 169.002 182.957L187.154 184.851L187.331 185.059C190.043 179.394 189.722 174.226 186.287 170.261Z" fill="white"/>
<path d="M147.912 201.911C145.578 203.106 143.184 204.177 140.738 205.121C140.016 205.41 139.293 205.683 138.571 205.924C136.806 206.566 135.024 207.112 133.275 207.625L123.099 222.327V222.471C138.296 219.468 152.852 213.836 166.113 205.828V205.683L147.912 201.911Z" fill="white"/>
<path d="M99.9233 203.469L82.8785 207.32C82.8785 207.513 82.8785 207.69 82.8785 207.882C82.6711 209.648 82.8687 211.437 83.4562 213.114V213.355C84.8365 217.031 88.1107 219.855 92.9577 221.621V221.412L104.401 208.075C102.362 207.187 100.754 205.532 99.9233 203.469Z" fill="#EBEBEB"/>
<path d="M169.002 182.925C169.378 181.921 169.547 180.852 169.498 179.781C169.448 178.711 169.181 177.661 168.713 176.697L183.864 168.047C183.467 167.752 183.054 167.478 182.628 167.228H182.531C182.373 167.12 182.207 167.023 182.034 166.939C181.551 166.664 181.053 166.418 180.541 166.201C180.156 166.007 179.759 165.835 179.354 165.687C178.986 165.534 178.611 165.4 178.23 165.286C177.832 165.131 177.425 165.003 177.01 164.901C173.285 163.88 169.445 163.341 165.583 163.296L151.941 170.759C148.641 170.867 145.356 171.243 142.118 171.882L141.492 172.011L138.282 167.019C136.774 167.421 135.233 167.87 133.708 168.351C131.247 169.122 128.775 169.989 126.293 170.952L125.763 171.16C124.752 171.545 123.773 171.963 122.794 172.364C122.184 172.621 121.59 172.861 121.013 173.134L119.761 173.712C118.397 174.306 117.032 174.948 115.716 175.622L114.336 176.344L115.813 182.01C112.859 183.771 110.071 185.796 107.483 188.061L92.2996 191.688C89.2275 194.589 86.6568 197.978 84.692 201.719C84.2929 202.52 83.9445 203.346 83.6487 204.191C83.5043 204.592 83.3919 204.993 83.2635 205.41C83.1352 205.828 82.9747 206.662 82.8784 207.256L99.9232 203.388C100.732 205.444 102.318 207.098 104.337 207.994L92.8934 221.348C96.7868 222.702 100.86 223.47 104.979 223.627H105.813C111.613 223.786 117.412 223.328 123.115 222.263L133.291 207.561C135.04 207.047 136.822 206.502 138.587 205.844C139.309 205.603 140.032 205.346 140.754 205.057C143.2 204.113 145.594 203.042 147.928 201.847L166.113 205.587C170.96 202.588 175.464 199.068 179.546 195.09L180.172 194.432C183.013 191.624 185.376 188.372 187.17 184.802L169.002 182.925ZM164.604 182.491C163.208 188.398 155.439 195.62 143.595 201.013C142.311 201.591 141.027 202.152 139.679 202.618C139.004 202.891 138.362 203.147 137.688 203.388L135.666 204.062C123.26 208.059 112.426 208.059 107.097 204.801C106.054 204.199 105.164 203.364 104.497 202.361C104.02 201.564 103.729 200.67 103.647 199.745C103.278 195.797 106.472 191.142 111.559 186.905C113.05 185.74 114.604 184.658 116.214 183.663C120.148 181.096 124.338 178.945 128.717 177.243C133.125 175.521 137.695 174.247 142.359 173.439C144.274 173.09 146.209 172.865 148.153 172.765C154.958 172.364 160.672 173.552 163.352 176.601C163.984 177.302 164.441 178.144 164.684 179.057C164.949 180.19 164.921 181.372 164.604 182.491Z" fill="#C61C00"/>
<path style="mix-blend-mode:multiply" d="M186.287 170.261C185.693 169.587 185.038 168.969 184.329 168.416C184.182 168.293 184.026 168.18 183.864 168.079C183.467 167.784 183.054 167.51 182.628 167.26H182.532C182.373 167.152 182.207 167.055 182.034 166.971C181.551 166.696 181.053 166.45 180.541 166.233C180.156 166.039 179.759 165.867 179.354 165.719C178.986 165.566 178.611 165.432 178.23 165.318C177.832 165.163 177.425 165.035 177.011 164.933C173.285 163.912 169.445 163.373 165.583 163.328C156.357 163.262 147.169 164.515 138.298 167.051C136.79 167.453 135.249 167.902 133.724 168.384C131.263 169.154 128.792 170.021 126.309 170.984L125.78 171.192C124.768 171.577 123.789 171.995 122.81 172.396C122.2 172.653 121.607 172.894 121.029 173.166L119.777 173.744C118.413 174.338 117.049 174.98 115.732 175.654L114.352 176.376C106.308 180.393 98.8863 185.55 92.3158 191.688C89.2437 194.589 86.6731 197.978 84.7082 201.719C84.3092 202.52 83.9607 203.346 83.665 204.191C83.5205 204.592 83.4082 204.993 83.2798 205.41C83.1514 205.828 82.9909 206.662 82.8946 207.256C82.8946 207.449 82.8946 207.625 82.8946 207.818C82.6872 209.583 82.8848 211.373 83.4724 213.05V213.291C84.8526 216.966 88.1268 219.791 92.9738 221.556V221.348C96.8412 222.696 100.887 223.464 104.979 223.627H105.814C111.613 223.786 117.413 223.328 123.115 222.263V222.407C138.312 219.404 152.869 213.772 166.129 205.764V205.619H166.049H166.129C170.976 202.62 175.48 199.1 179.562 195.122L180.188 194.464C183.02 191.649 185.383 188.398 187.186 184.835L187.363 185.043C190.043 179.394 189.722 174.226 186.287 170.261Z" fill="url(#paint25_linear_11_3312)"/>
<path d="M165.166 205.443C158.822 209.26 152.099 212.407 145.104 214.832C138.264 217.362 131.24 219.363 124.094 220.818L123.918 222.423C131.325 220.999 138.611 219.009 145.713 216.469C153.01 213.867 160.005 210.488 166.578 206.389L165.166 205.443Z" fill="#EBE8E8"/>
<path d="M189.128 175.157C188.833 173.659 188.208 172.246 187.297 171.022C186.386 169.797 185.213 168.792 183.864 168.079C185.142 168.845 186.237 169.884 187.069 171.121C187.901 172.358 188.45 173.763 188.679 175.237C188.962 178.177 188.405 181.138 187.074 183.775C186.929 184.112 186.769 184.433 186.592 184.77L186.817 186.375C187.202 185.653 187.555 184.899 187.892 184.144C189.14 181.324 189.568 178.209 189.128 175.157Z" fill="#EBE8E8"/>
<path d="M186.592 184.77C183.935 189.679 180.368 194.037 176.08 197.61C172.66 200.537 169.011 203.183 165.166 205.523L166.562 206.534C170.26 204.206 173.75 201.564 176.994 198.637C180.941 195.163 184.264 191.037 186.817 186.44L186.592 184.77Z" fill="#D11D1F"/>
<path d="M93.1825 220.995L92.8133 220.883C89.9918 220.001 87.4624 218.37 85.4946 216.164C83.6316 213.817 82.6797 210.876 82.8143 207.882C82.4889 210.927 83.3132 213.984 85.1255 216.453C87.0602 218.844 89.6138 220.66 92.5084 221.701C93.0701 221.91 93.6158 222.102 94.1134 222.279L93.1825 220.995Z" fill="#EBE8E8"/>
<path d="M110.388 222.664C104.603 223.205 98.7676 222.66 93.1824 221.059L94.1775 222.343C99.4671 223.828 104.968 224.419 110.452 224.092C114.979 223.881 119.484 223.344 123.934 222.487L124.11 220.882C119.579 221.771 114.996 222.366 110.388 222.664Z" fill="#D11D1F"/>
<defs>
<radialGradient id="paint0_radial_11_3312" cx="0" cy="0" r="1" gradientUnits="userSpaceOnUse" gradientTransform="translate(87.7811 213.679) rotate(180) scale(84.4436 20.6338)">
<stop stop-color="#B49E88"/>
<stop offset="0.18" stop-color="#CCBDAE"/>
<stop offset="0.34" stop-color="#E0D7CE"/>
<stop offset="0.49" stop-color="#F1EDE9"/>
<stop offset="0.57" stop-color="#F6F3F1"/>
<stop offset="0.69" stop-color="#FBF9F8"/>
<stop offset="0.85" stop-color="#FEFDFD"/>
<stop offset="1" stop-color="white"/>
</radialGradient>
<radialGradient id="paint1_radial_11_3312" cx="0" cy="0" r="1" gradientUnits="userSpaceOnUse" gradientTransform="translate(142.649 131.001) rotate(-33.2153) scale(148.384 148.384)">
<stop stop-color="white"/>
<stop offset="1" stop-color="#E0E0E0"/>
</radialGradient>
<radialGradient id="paint2_radial_11_3312" cx="0" cy="0" r="1" gradientUnits="userSpaceOnUse" gradientTransform="translate(150.767 94.6833) rotate(-88.1404) scale(99.6854 11.7023)">
<stop stop-color="#BCB7B5"/>
<stop offset="0.92" stop-color="white"/>
</radialGradient>
<radialGradient id="paint3_radial_11_3312" cx="0" cy="0" r="1" gradientUnits="userSpaceOnUse" gradientTransform="translate(187.075 178.667) rotate(178.84) scale(64.1036 18.7957)">
<stop stop-color="#BCB7B5"/>
<stop offset="0.92" stop-color="white"/>
</radialGradient>
<radialGradient id="paint4_radial_11_3312" cx="0" cy="0" r="1" gradientUnits="userSpaceOnUse" gradientTransform="translate(161.07 151.037) rotate(-84.0257) scale(55.5405 37.334)">
<stop stop-color="#BCB7B5"/>
<stop offset="0.22" stop-color="#D5D1D0"/>
<stop offset="0.49" stop-color="#ECEAEA"/>
<stop offset="0.73" stop-color="#FAFAFA"/>
<stop offset="0.92" stop-color="white"/>
</radialGradient>
<radialGradient id="paint5_radial_11_3312" cx="0" cy="0" r="1" gradientUnits="userSpaceOnUse" gradientTransform="translate(202.123 100.819) rotate(0.85) scale(147.77 147.77)">
<stop stop-color="white"/>
<stop offset="1" stop-color="#E0E0E0"/>
</radialGradient>
<radialGradient id="paint6_radial_11_3312" cx="0" cy="0" r="1" gradientUnits="userSpaceOnUse" gradientTransform="translate(150.576 143.074) rotate(86.6691) scale(78.6071 40.3277)">
<stop stop-color="#B49E88"/>
<stop offset="0.18" stop-color="#CCBDAE"/>
<stop offset="0.34" stop-color="#E0D7CE"/>
<stop offset="0.49" stop-color="#F1EDE9"/>
<stop offset="0.57" stop-color="#F6F3F1"/>
<stop offset="0.69" stop-color="#FBF9F8"/>
<stop offset="0.85" stop-color="#FEFDFD"/>
<stop offset="1" stop-color="white"/>
</radialGradient>
<radialGradient id="paint7_radial_11_3312" cx="0" cy="0" r="1" gradientUnits="userSpaceOnUse" gradientTransform="translate(206.172 213.352) rotate(14.7858) scale(56.6493 39.2944)">
<stop stop-color="#B49E88"/>
<stop offset="0.18" stop-color="#CCBDAE"/>
<stop offset="0.34" stop-color="#E0D7CE"/>
<stop offset="0.49" stop-color="#F1EDE9"/>
<stop offset="0.57" stop-color="#F6F3F1"/>
<stop offset="0.69" stop-color="#FBF9F8"/>
<stop offset="0.85" stop-color="#FEFDFD"/>
<stop offset="1" stop-color="white"/>
</radialGradient>
<radialGradient id="paint8_radial_11_3312" cx="0" cy="0" r="1" gradientUnits="userSpaceOnUse" gradientTransform="translate(188.728 205.175) rotate(10.6568) scale(78.5841 40.1465)">
<stop stop-color="#B49E88"/>
<stop offset="0.18" stop-color="#CCBDAE"/>
<stop offset="0.34" stop-color="#E0D7CE"/>
<stop offset="0.49" stop-color="#F1EDE9"/>
<stop offset="0.57" stop-color="#F6F3F1"/>
<stop offset="0.69" stop-color="#FBF9F8"/>
<stop offset="0.85" stop-color="#FEFDFD"/>
<stop offset="1" stop-color="white"/>
</radialGradient>
<radialGradient id="paint9_radial_11_3312" cx="0" cy="0" r="1" gradientUnits="userSpaceOnUse" gradientTransform="translate(168.642 195.821) rotate(10.6568) scale(78.5841 40.1465)">
<stop stop-color="#B49E88"/>
<stop offset="0.18" stop-color="#CCBDAE"/>
<stop offset="0.34" stop-color="#E0D7CE"/>
<stop offset="0.49" stop-color="#F1EDE9"/>
<stop offset="0.57" stop-color="#F6F3F1"/>
<stop offset="0.69" stop-color="#FBF9F8"/>
<stop offset="0.85" stop-color="#FEFDFD"/>
<stop offset="1" stop-color="white"/>
</radialGradient>
<radialGradient id="paint10_radial_11_3312" cx="0" cy="0" r="1" gradientUnits="userSpaceOnUse" gradientTransform="translate(209.939 224.781) rotate(13.6546) scale(51.0117 39.6928)">
<stop stop-color="#B49E88"/>
<stop offset="0.18" stop-color="#CCBDAE"/>
<stop offset="0.34" stop-color="#E0D7CE"/>
<stop offset="0.49" stop-color="#F1EDE9"/>
<stop offset="0.57" stop-color="#F6F3F1"/>
<stop offset="0.69" stop-color="#FBF9F8"/>
<stop offset="0.85" stop-color="#FEFDFD"/>
<stop offset="1" stop-color="white"/>
</radialGradient>
<linearGradient id="paint11_linear_11_3312" x1="156.652" y1="51.2006" x2="107.371" y2="164.429" gradientUnits="userSpaceOnUse">
<stop stop-color="#A86A18"/>
<stop offset="0.12" stop-color="#F5CE5B"/>
<stop offset="0.23" stop-color="#F1D99C"/>
<stop offset="0.33" stop-color="#F5F7BB"/>
<stop offset="0.58" stop-color="#DBB054"/>
<stop offset="0.74" stop-color="#F3C954"/>
<stop offset="0.84" stop-color="#F1CF65"/>
<stop offset="0.96" stop-color="#A86A18"/>
</linearGradient>
<linearGradient id="paint12_linear_11_3312" x1="1.85376" y1="67.1232" x2="82.8907" y2="187.972" gradientUnits="userSpaceOnUse">
<stop stop-color="#A86A18"/>
<stop offset="0.12" stop-color="#F5CE5B"/>
<stop offset="0.23" stop-color="#F1D99C"/>
<stop offset="0.33" stop-color="#F5F7BB"/>
<stop offset="0.58" stop-color="#DBB054"/>
<stop offset="0.74" stop-color="#F3C954"/>
<stop offset="0.84" stop-color="#F1CF65"/>
<stop offset="0.96" stop-color="#A86A18"/>
</linearGradient>
<linearGradient id="paint13_linear_11_3312" x1="-6.58967" y1="62.127" x2="241.639" y2="191.951" gradientUnits="userSpaceOnUse">
<stop stop-color="#A86A18"/>
<stop offset="0.12" stop-color="#F5CE5B"/>
<stop offset="0.23" stop-color="#F1D99C"/>
<stop offset="0.33" stop-color="#F5F7BB"/>
<stop offset="0.58" stop-color="#DBB054"/>
<stop offset="0.74" stop-color="#F3C954"/>
<stop offset="0.84" stop-color="#F1CF65"/>
<stop offset="0.96" stop-color="#A86A18"/>
</linearGradient>
<linearGradient id="paint14_linear_11_3312" x1="36.7441" y1="79.8468" x2="33.0963" y2="33.4202" gradientUnits="userSpaceOnUse">
<stop stop-color="white"/>
<stop offset="1" stop-color="#7A3300"/>
</linearGradient>
<linearGradient id="paint15_linear_11_3312" x1="23.0104" y1="80.9292" x2="19.3626" y2="34.5026" gradientUnits="userSpaceOnUse">
<stop stop-color="white"/>
<stop offset="1" stop-color="#7A3300"/>
</linearGradient>
<linearGradient id="paint16_linear_11_3312" x1="140.362" y1="26.1954" x2="95.4063" y2="43.9248" gradientUnits="userSpaceOnUse">
<stop stop-color="white"/>
<stop offset="1" stop-color="#7A3300"/>
</linearGradient>
<linearGradient id="paint17_linear_11_3312" x1="143.877" y1="35.0682" x2="98.91" y2="52.8171" gradientUnits="userSpaceOnUse">
<stop stop-color="white"/>
<stop offset="1" stop-color="#7A3300"/>
</linearGradient>
<linearGradient id="paint18_linear_11_3312" x1="20.398" y1="20.8045" x2="59.4251" y2="97.8921" gradientUnits="userSpaceOnUse">
<stop stop-color="#A86A18"/>
<stop offset="0.12" stop-color="#F5CE5B"/>
<stop offset="0.23" stop-color="#F1D99C"/>
<stop offset="0.33" stop-color="#F5F7BB"/>
<stop offset="0.58" stop-color="#DBB054"/>
<stop offset="0.74" stop-color="#F3C954"/>
<stop offset="0.84" stop-color="#F1CF65"/>
<stop offset="0.96" stop-color="#A86A18"/>
</linearGradient>
<linearGradient id="paint19_linear_11_3312" x1="77.0474" y1="49.7357" x2="149.495" y2="5.3962" gradientUnits="userSpaceOnUse">
<stop stop-color="#A86A18"/>
<stop offset="0.12" stop-color="#F5CE5B"/>
<stop offset="0.23" stop-color="#F1D99C"/>
<stop offset="0.33" stop-color="#F5F7BB"/>
<stop offset="0.58" stop-color="#DBB054"/>
<stop offset="0.74" stop-color="#F3C954"/>
<stop offset="0.84" stop-color="#F1CF65"/>
<stop offset="0.96" stop-color="#A86A18"/>
</linearGradient>
<linearGradient id="paint20_linear_11_3312" x1="205.675" y1="233.465" x2="194.473" y2="179.49" gradientUnits="userSpaceOnUse">
<stop stop-color="white"/>
<stop offset="1" stop-color="#DED0B3"/>
</linearGradient>
<linearGradient id="paint21_linear_11_3312" x1="200.235" y1="252.003" x2="200.235" y2="231.17" gradientUnits="userSpaceOnUse">
<stop stop-color="white"/>
<stop offset="1" stop-color="#D1C4A9"/>
</linearGradient>
<linearGradient id="paint22_linear_11_3312" x1="258.928" y1="204.014" x2="258.704" y2="203.918" gradientUnits="userSpaceOnUse">
<stop stop-color="#FFDF9E"/>
<stop offset="1" stop-color="#A1A1A1"/>
</linearGradient>
<linearGradient id="paint23_linear_11_3312" x1="148.008" y1="188.558" x2="207.425" y2="253.977" gradientUnits="userSpaceOnUse">
<stop stop-color="white"/>
<stop offset="1" stop-color="#A1A1A1"/>
</linearGradient>
<linearGradient id="paint24_linear_11_3312" x1="150.352" y1="240.511" x2="140.947" y2="209.134" gradientUnits="userSpaceOnUse">
<stop stop-color="white"/>
<stop offset="1" stop-color="#D1C4A9"/>
</linearGradient>
<linearGradient id="paint25_linear_11_3312" x1="153.337" y1="215.714" x2="109.955" y2="160.535" gradientUnits="userSpaceOnUse">
<stop stop-color="white"/>
<stop offset="1" stop-color="#DED0B3"/>
</linearGradient>
</defs>
</svg>
