<svg width="22" height="22" viewBox="0 0 22 22" fill="none" xmlns="http://www.w3.org/2000/svg">
<path d="M3.59187 20.7607L4.24747 20.4321L3.59187 20.7607ZM18.4081 20.7607L19.0637 21.0892L18.4081 20.7607ZM1.03107 8.4436H20.9689V6.97693H1.03107V8.4436ZM20.5333 8.008V8.65187H22V8.008H20.5333ZM18.1661 20.1769H3.83387V21.6436H18.1661V20.1769ZM1.46667 8.65187V8.008H0V8.65187H1.46667ZM4.24747 20.4321C2.41868 16.7745 1.46662 12.7412 1.46667 8.65187H0C0 12.9697 1.00467 17.2275 2.93627 21.0892L4.24747 20.4321ZM3.83387 20.1769C4.00987 20.1769 4.16973 20.2767 4.24747 20.4321L2.93627 21.0892C3.01977 21.2557 3.14793 21.3958 3.30644 21.4937C3.46495 21.5916 3.64756 21.6435 3.83387 21.6436V20.1769ZM17.7525 20.4321C17.791 20.3554 17.85 20.2908 17.9231 20.2458C17.9961 20.2007 18.0803 20.1768 18.1661 20.1769V21.6436C18.5475 21.6436 18.8936 21.4295 19.0637 21.0892L17.7525 20.4321ZM20.5333 8.65187C20.5333 12.7409 19.58 16.7743 17.7525 20.4321L19.0637 21.0892C20.9947 17.2276 22 12.9694 22 8.65187H20.5333ZM20.9689 8.4436C20.8534 8.4436 20.7426 8.39771 20.6609 8.31602C20.5792 8.23432 20.5333 8.12353 20.5333 8.008H22C22 7.73454 21.8914 7.47229 21.698 7.27893C21.5046 7.08556 21.2424 6.97693 20.9689 6.97693V8.4436ZM1.03107 6.97693C0.757611 6.97693 0.495355 7.08556 0.301992 7.27893C0.10863 7.47229 0 7.73454 0 8.008H1.46667C1.46667 8.12353 1.42077 8.23432 1.33908 8.31602C1.25739 8.39771 1.1466 8.4436 1.03107 8.4436V6.97693ZM5.76253 8.0872L10.1625 0.753867L8.90267 0L4.50267 7.33333L5.76107 8.0872H5.76253ZM11.8375 0.753867L16.2375 8.0872L17.4959 7.33333L13.0959 0L11.8375 0.753867V0.753867Z" fill="#06002B"/>
</svg>
