<svg width="799" height="334" viewBox="0 0 799 334" fill="none" xmlns="http://www.w3.org/2000/svg">
<path d="M145.922 73.0745C161.416 73.0745 173.862 76.3902 183.26 83.0218C192.658 89.3983 197.357 98.7079 197.357 110.951C197.357 119.623 194.817 127.785 189.737 135.436C184.911 142.833 178.561 149.592 170.687 155.714C162.813 161.58 154.177 166.681 144.779 171.017C135.635 175.098 126.872 178.286 118.49 180.582C129.92 180.837 140.207 182.622 149.351 185.938C158.495 189.254 165.734 194.1 171.068 200.477C176.656 206.853 179.45 214.76 179.45 224.197C179.45 238.225 175.513 250.978 167.639 262.456C160.019 273.934 149.732 284.008 136.778 292.68C123.824 301.607 109.346 309.004 93.3445 314.871C77.5965 320.992 61.5946 325.583 45.3387 328.644C29.3368 331.96 14.2239 333.745 0 334L1.90499 327.113C17.1449 326.093 33.0198 323.16 49.5297 318.314C66.0396 313.468 81.4065 306.581 95.6304 297.654C110.108 288.982 121.792 278.397 130.682 265.899C139.572 253.146 144.017 238.353 144.017 221.519C144.017 211.317 141.223 203.155 135.635 197.033C130.047 190.657 122.046 187.213 111.632 186.703C107.568 188.489 103.631 190.019 99.8214 191.294C96.2654 192.57 92.8365 193.207 89.5345 193.207C87.5025 193.207 85.7245 192.825 84.2005 192.06C82.6765 191.294 82.2955 189.764 83.0575 187.469C83.8195 183.898 86.6135 181.73 91.4395 180.964C96.2654 180.199 101.98 180.072 108.584 180.582C118.49 176.756 127.634 171.655 136.016 165.278C144.652 158.647 151.51 151.123 156.59 142.706C161.924 134.289 164.591 125.362 164.591 115.924C164.591 105.212 161.797 96.795 156.209 90.6735C150.621 84.5521 143.001 81.4914 133.349 81.4914C126.745 81.4914 119.887 82.8942 112.775 85.6999C105.663 88.5055 98.9324 92.3314 92.5825 97.1776C86.4865 102.024 81.5335 107.507 77.7236 113.629C73.9136 119.495 72.0086 125.489 72.0086 131.611C72.0086 137.732 73.6596 142.323 76.9616 145.384C80.5175 148.444 86.2325 149.975 94.1065 149.975C102.742 149.975 110.616 148.062 117.728 144.236L121.919 149.975C116.585 152.78 111.251 154.821 105.917 156.096C100.837 157.372 96.0114 158.009 91.4395 158.009C87.3755 158.009 83.0575 157.372 78.4855 156.096C74.1676 154.566 70.4846 152.015 67.4366 148.444C64.3886 144.619 62.8646 139.135 62.8646 131.993C62.8646 122.556 66.5476 113.374 73.9136 104.447C81.5335 95.5197 91.5665 88.1229 104.012 82.2566C116.712 76.1352 130.682 73.0745 145.922 73.0745Z" fill="black"/>
<path d="M415.041 0L417.327 7.65179C402.849 11.2226 388.244 17.4716 373.512 26.3986C359.034 35.3257 345.191 46.5483 331.983 60.0665C319.029 73.5846 307.345 88.8881 296.931 105.977C286.771 123.066 278.643 141.558 272.547 161.452C266.705 181.347 263.784 202.134 263.784 223.814C263.784 243.454 266.197 256.717 271.023 263.604C276.103 270.49 282.834 273.934 291.216 273.934C301.884 273.934 311.409 270.108 319.791 262.456C328.427 254.804 335.666 244.984 341.508 232.997C347.604 221.009 352.176 208.383 355.224 195.12C358.272 181.857 359.796 169.614 359.796 158.392C359.796 144.874 357.51 135.054 352.938 128.932C348.62 122.811 342.651 119.75 335.031 119.75C327.665 119.75 319.918 123.066 311.79 129.698C303.662 136.329 296.423 148.572 290.073 166.426L283.977 164.131C288.549 149.592 294.391 138.37 301.503 130.463C308.615 122.301 316.235 116.69 324.363 113.629C332.491 110.313 340.238 108.655 347.604 108.655C361.828 108.655 373.385 113.629 382.275 123.576C391.165 133.268 395.61 147.424 395.61 166.044C395.61 181.092 392.689 195.503 386.847 209.276C381.005 223.049 372.877 235.42 362.463 246.387C352.303 257.1 340.619 265.644 327.411 272.021C314.203 278.397 300.106 281.585 285.12 281.585C265.816 281.585 251.592 275.846 242.449 264.369C233.559 252.636 229.114 235.547 229.114 213.102C229.114 189.892 233.305 168.084 241.687 147.679C250.068 127.275 261.117 108.655 274.833 91.8213C288.549 74.7323 303.662 59.8114 320.172 47.0584C336.682 34.3055 353.192 23.9756 369.702 16.0687C386.212 7.90685 401.325 2.5506 415.041 0Z" fill="black"/>
<path d="M551.95 73.8396C571.508 73.8396 586.367 79.8335 596.526 91.8213C606.686 103.809 611.766 120.388 611.766 141.558C611.766 158.647 608.591 175.608 602.241 192.442C595.891 209.021 587.128 224.069 575.953 237.588C564.777 250.851 551.823 261.563 537.091 269.725C522.613 277.632 507.119 281.585 490.609 281.585C471.305 281.585 456.065 275.846 444.889 264.369C433.713 252.636 428.125 235.675 428.125 213.485C428.125 196.141 431.427 179.307 438.031 162.983C444.635 146.404 453.652 131.355 465.082 117.837C476.766 104.319 489.974 93.6067 504.706 85.6999C519.692 77.7931 535.44 73.8396 551.95 73.8396ZM544.711 80.7262C534.297 80.7262 524.137 84.5521 514.231 92.2039C504.579 99.6006 495.816 109.675 487.942 122.428C480.322 135.181 474.226 149.72 469.654 166.044C465.336 182.367 463.177 199.329 463.177 216.928C463.177 238.608 466.479 253.656 473.083 262.073C479.687 270.49 487.942 274.699 497.848 274.699C509.024 274.699 519.311 270.745 528.709 262.838C538.361 254.677 546.743 243.964 553.855 230.701C560.967 217.183 566.555 202.262 570.619 185.938C574.683 169.359 576.715 152.653 576.715 135.819C576.715 115.159 573.794 100.876 567.952 92.9691C562.11 84.8072 554.363 80.7262 544.711 80.7262Z" fill="black"/>
<path d="M735.754 26.016C735.754 39.2791 730.801 52.5422 720.895 65.8053C710.99 78.8133 697.274 89.6533 679.748 98.3253L677.843 92.9691C689.781 85.5724 699.306 77.538 706.417 68.866C713.529 60.194 717.466 51.522 718.228 42.85C715.18 45.4005 712.005 47.6961 708.703 49.7366C705.401 51.522 701.973 52.4147 698.417 52.4147C695.115 52.4147 692.448 51.2669 690.416 48.9714C688.638 46.4208 687.749 43.105 687.749 39.0241C687.749 33.4128 689.273 27.929 692.321 22.5727C695.369 17.2165 699.306 12.753 704.131 9.18215C708.957 5.35625 713.911 3.4433 718.99 3.4433C724.832 3.4433 729.023 5.48378 731.563 9.56473C734.357 13.6457 735.754 19.1294 735.754 26.016ZM799 26.016C799 39.2791 794.047 52.5422 784.141 65.8053C774.235 78.8133 760.519 89.6533 742.993 98.3253L741.088 92.9691C753.026 85.5724 762.551 77.538 769.663 68.866C776.775 60.194 780.712 51.522 781.474 42.85C778.426 45.4005 775.251 47.6961 771.949 49.7366C768.647 51.522 765.218 52.4147 761.662 52.4147C758.36 52.4147 755.693 51.2669 753.661 48.9714C751.883 46.4208 750.994 43.105 750.994 39.0241C750.994 33.4128 752.518 27.929 755.566 22.5727C758.614 17.2165 762.551 12.753 767.377 9.18215C772.203 5.35625 777.156 3.4433 782.236 3.4433C788.078 3.4433 792.269 5.48378 794.809 9.56473C797.603 13.6457 799 19.1294 799 26.016Z" fill="black"/>
</svg>
