<svg width="1614" height="228" viewBox="0 0 1614 228" fill="none" xmlns="http://www.w3.org/2000/svg">
<path d="M186.409 24.4587C183.588 31.7682 180.674 40.6708 177.666 51.1665C174.658 61.4747 171.556 74.1258 168.36 89.1196H162.156C163.66 79.3736 164.13 71.2207 163.566 64.6609C163.19 57.9137 161.78 52.1973 159.336 47.5117C155.763 40.3896 150.593 34.9544 143.825 31.2059C137.245 27.4575 130.101 25.5832 122.392 25.5832C112.616 25.5832 103.122 28.4883 93.9093 34.2984C84.697 39.9211 76.1427 47.6054 68.2464 57.3514C60.3501 67.0974 53.3939 78.1554 47.3777 90.5253C41.3615 102.708 36.6613 115.453 33.2772 128.76C29.8931 141.879 28.201 154.718 28.201 167.275C28.201 185.642 31.7731 199.418 38.9174 208.602C46.2496 217.785 56.12 222.377 68.5284 222.377C76.4247 222.377 84.979 220.503 94.1913 216.755C103.592 213.006 111.77 207.571 118.726 200.449C123.802 195.388 128.127 189.485 131.699 182.737C135.459 175.803 139.595 166.9 144.107 156.03H150.311C145.611 173.085 141.945 186.861 139.313 197.356C136.869 207.665 134.989 216.38 133.673 223.502H127.468C128.033 219.566 128.315 216.38 128.315 213.943C128.315 209.633 127.562 207.29 126.058 206.915C124.554 206.353 122.204 207.102 119.008 209.164C113.932 212.538 108.856 215.63 103.78 218.441C98.7035 221.065 93.1573 223.221 87.1411 224.908C81.1249 226.594 73.9806 227.438 65.7083 227.438C45.0276 227.438 28.859 221.909 17.2026 210.851C5.7342 199.605 0 183.112 0 161.371C0 148.626 1.97407 135.694 5.92221 122.575C9.87035 109.268 15.5105 96.5228 22.8428 84.3403C30.1751 72.1578 38.9174 61.2873 49.0697 51.7287C59.2221 42.1702 70.5025 34.5795 82.9109 28.9568C95.3194 23.3341 108.668 20.5228 122.956 20.5228C131.041 20.5228 137.621 21.4599 142.697 23.3342C147.773 25.021 152.003 27.27 155.387 30.0814C158.96 32.7053 162.156 35.6104 164.976 38.7966C167.608 41.4205 170.052 41.7953 172.308 39.9211C174.752 37.8594 177.478 32.7053 180.486 24.4587H186.409Z" fill="black"/>
<path d="M260.273 80.6856C254.257 80.6856 248.429 83.1221 242.789 87.9951C237.336 92.6806 232.26 99.1467 227.56 107.393C223.048 115.453 219.006 124.543 215.434 134.663C212.049 144.784 209.417 155.28 207.537 166.15C205.657 177.021 204.717 187.423 204.717 197.356C204.717 205.79 206.033 211.975 208.665 215.911C211.485 219.847 215.528 221.815 220.792 221.815C226.808 221.815 232.542 219.472 237.994 214.787C243.635 209.914 248.805 203.448 253.505 195.388C258.205 187.142 262.247 177.958 265.631 167.837C269.015 157.716 271.648 147.314 273.528 136.631C275.408 125.761 276.348 115.265 276.348 105.144C276.348 96.5228 275.032 90.3379 272.4 86.5894C269.767 82.6535 265.725 80.6856 260.273 80.6856ZM180.464 183.3C180.464 175.053 181.592 166.057 183.848 156.311C186.105 146.565 189.489 136.912 194.001 127.354C198.513 117.795 203.965 109.08 210.357 101.208C216.938 93.3366 224.552 87.0579 233.2 82.3724C241.848 77.4994 251.437 75.0629 261.965 75.0629C273.622 75.0629 282.928 78.7176 289.884 86.0271C297.028 93.1492 300.601 104.207 300.601 119.201C300.601 127.448 299.473 136.444 297.216 146.19C294.96 155.936 291.576 165.588 287.064 175.147C282.552 184.705 277.006 193.42 270.425 201.292C264.033 209.164 256.513 215.536 247.865 220.409C239.216 225.095 229.628 227.438 219.1 227.438C207.443 227.438 198.043 223.783 190.899 216.474C183.942 209.164 180.464 198.106 180.464 183.3Z" fill="black"/>
<path d="M341.007 199.605C339.503 205.041 339.033 209.351 339.597 212.538C340.161 215.536 342.229 217.036 345.801 217.036C349.562 217.036 353.04 214.974 356.236 210.851C359.62 206.54 363.192 199.043 366.952 188.36L370.618 177.958H375.977L368.926 198.481C366.482 205.603 363.474 211.319 359.902 215.63C356.518 219.753 352.758 222.752 348.622 224.626C344.485 226.501 339.973 227.438 335.085 227.438C328.881 227.438 324.275 226.219 321.267 223.783C318.446 221.534 316.66 218.441 315.908 214.506C315.344 210.57 315.438 206.353 316.19 201.855C317.13 197.169 318.258 192.577 319.575 188.079L365.542 35.9852C367.422 29.6128 367.234 24.9272 364.978 21.9285C362.722 18.9297 356.988 17.4303 347.776 17.4303L349.75 11.5265C360.09 11.3391 369.208 10.3083 377.105 8.43402C385.001 6.37238 392.615 3.56103 399.947 0L341.007 199.605Z" fill="black"/>
<path d="M419.221 199.605C417.717 205.041 417.247 209.351 417.811 212.538C418.375 215.536 420.443 217.036 424.015 217.036C427.775 217.036 431.253 214.974 434.45 210.851C437.834 206.54 441.406 199.043 445.166 188.36L448.832 177.958H454.19L447.14 198.481C444.696 205.603 441.688 211.319 438.116 215.63C434.732 219.753 430.971 222.752 426.835 224.626C422.699 226.501 418.187 227.438 413.299 227.438C407.095 227.438 402.488 226.219 399.48 223.783C396.66 221.534 394.874 218.441 394.122 214.506C393.558 210.57 393.652 206.353 394.404 201.855C395.344 197.169 396.472 192.577 397.788 188.079L443.756 35.9852C445.636 29.6128 445.448 24.9272 443.192 21.9285C440.936 18.9297 435.202 17.4303 425.989 17.4303L427.963 11.5265C438.304 11.3391 447.422 10.3083 455.318 8.43402C463.215 6.37238 470.829 3.56103 478.161 0L419.221 199.605Z" fill="black"/>
<path d="M505.895 218.441C510.407 218.441 515.577 215.63 521.405 210.007C527.234 204.197 533.156 196.419 539.172 186.673C545.188 176.927 550.735 165.869 555.811 153.499C560.887 141.129 564.929 128.291 567.937 114.984L563.143 145.346C555.999 165.213 548.854 181.238 541.71 193.42C534.566 205.416 527.328 214.131 519.995 219.566C512.663 224.814 505.237 227.438 497.717 227.438C488.88 227.438 482.206 224.252 477.694 217.879C473.37 211.507 471.208 203.354 471.208 193.42C471.208 184.424 472.712 174.678 475.72 164.182C478.728 153.499 482.864 142.91 488.128 132.414C493.581 121.919 499.785 112.36 506.741 103.739C513.697 95.1171 521.217 88.1825 529.302 82.9347C537.574 77.6868 545.94 75.0629 554.401 75.0629C560.981 75.0629 565.963 78.3428 569.347 84.9026C572.919 91.275 573.671 100.271 571.603 111.891L568.501 113.578C569.817 103.645 569.159 95.6794 566.527 89.6819C563.895 83.4969 559.571 80.4044 553.555 80.4044C548.666 80.4044 543.496 82.8409 538.044 87.7139C532.78 92.3995 527.61 98.8656 522.534 107.112C517.645 115.171 513.133 124.261 508.997 134.382C505.049 144.503 501.853 154.999 499.409 165.869C497.153 176.552 496.025 186.861 496.025 196.794C496.025 204.853 496.871 210.476 498.563 213.662C500.443 216.848 502.887 218.441 505.895 218.441ZM576.961 78.9988C581.474 78.8113 585.986 78.4365 590.498 77.8742C595.01 77.312 599.146 76.3748 602.906 75.0629L567.655 199.324C567.279 201.011 566.715 203.26 565.963 206.072C565.399 208.695 565.399 211.132 565.963 213.381C566.715 215.63 568.689 216.755 571.885 216.755C575.645 216.755 579.312 214.693 582.884 210.57C586.456 206.446 590.028 198.949 593.6 188.079L596.984 177.677H602.342L595.292 198.2C592.66 205.697 589.464 211.6 585.704 215.911C582.132 220.035 578.372 222.94 574.423 224.626C570.475 226.501 566.621 227.438 562.861 227.438C555.529 227.438 550.359 225.001 547.35 220.128C544.906 215.818 544.248 210.851 545.376 205.228C546.504 199.418 547.82 193.608 549.324 187.798L576.961 78.9988Z" fill="black"/>
<path d="M710.194 84.0592C705.305 84.0592 699.759 87.5265 693.555 94.4612C687.539 101.208 681.335 110.486 674.942 122.293C668.738 133.914 662.816 147.033 657.176 161.652C651.723 176.271 647.117 191.453 643.357 207.196L648.151 176.834C656.236 152.281 664.038 132.602 671.558 117.795C679.266 102.801 686.881 91.9309 694.401 85.1837C702.109 78.4365 710.1 75.0629 718.372 75.0629C727.208 75.0629 734.258 78.3428 739.523 84.9026C744.975 91.4624 747.701 101.396 747.701 114.703C747.701 123.137 746.479 132.414 744.035 142.535C741.779 152.656 738.301 162.683 733.6 172.617C729.088 182.55 723.448 191.734 716.68 200.168C710.099 208.414 702.485 215.068 693.837 220.128C685.189 225.001 675.6 227.438 665.072 227.438C659.432 227.438 654.356 225.751 649.843 222.377C645.519 219.004 642.605 214.131 641.101 207.758L643.357 202.136C645.989 209.07 648.997 213.943 652.381 216.755C655.954 219.566 660.09 220.972 664.79 220.972C671.182 220.972 677.292 218.535 683.121 213.662C688.949 208.602 694.307 201.948 699.195 193.702C704.083 185.455 708.313 176.365 711.886 166.432C715.646 156.311 718.466 146.284 720.346 136.35C722.414 126.229 723.448 116.952 723.448 108.518C723.448 100.271 722.226 94.18 719.782 90.2441C717.526 86.1208 714.33 84.0592 710.194 84.0592ZM644.485 206.072C639.973 209.633 635.461 213.287 630.949 217.036C626.437 220.597 621.924 224.252 617.412 228L613.182 226.032C614.498 223.408 615.532 220.784 616.284 218.16C617.224 215.349 617.976 212.538 618.54 209.726L667.892 35.9852C669.396 29.6128 669.114 24.9272 667.046 21.9285C664.978 18.9297 659.338 17.4303 650.125 17.4303L651.535 11.5265C661.876 11.3391 670.994 10.3083 678.89 8.43402C686.787 6.37238 694.213 3.56103 701.169 0L644.485 206.072Z" fill="black"/>
<path d="M844.122 80.6856C838.106 80.6856 832.277 83.1221 826.637 87.9951C821.185 92.6806 816.109 99.1467 811.409 107.393C806.896 115.453 802.854 124.543 799.282 134.663C795.898 144.784 793.266 155.28 791.386 166.15C789.506 177.021 788.566 187.423 788.566 197.356C788.566 205.79 789.882 211.975 792.514 215.911C795.334 219.847 799.376 221.815 804.64 221.815C810.657 221.815 816.391 219.472 821.843 214.787C827.483 209.914 832.653 203.448 837.354 195.388C842.054 187.142 846.096 177.958 849.48 167.837C852.864 157.716 855.496 147.314 857.376 136.631C859.256 125.761 860.196 115.265 860.196 105.144C860.196 96.5228 858.88 90.3379 856.248 86.5894C853.616 82.6535 849.574 80.6856 844.122 80.6856ZM764.313 183.3C764.313 175.053 765.441 166.057 767.697 156.311C769.953 146.565 773.337 136.912 777.849 127.354C782.362 117.795 787.814 109.08 794.206 101.208C800.786 93.3366 808.401 87.0579 817.049 82.3724C825.697 77.4994 835.286 75.0629 845.814 75.0629C857.47 75.0629 866.777 78.7176 873.733 86.0271C880.877 93.1492 884.449 104.207 884.449 119.201C884.449 127.448 883.321 136.444 881.065 146.19C878.809 155.936 875.425 165.588 870.913 175.147C866.401 184.705 860.854 193.42 854.274 201.292C847.882 209.164 840.362 215.536 831.713 220.409C823.065 225.095 813.477 227.438 802.948 227.438C791.292 227.438 781.892 223.783 774.747 216.474C767.791 209.164 764.313 198.106 764.313 183.3Z" fill="black"/>
<path d="M930.214 223.502H905.679L939.521 102.895C941.401 96.5228 941.965 92.0247 941.213 89.4007C940.649 86.7768 938.768 85.4649 935.572 85.4649C931.436 85.4649 927.676 87.6202 924.292 91.931C920.908 96.2417 917.336 103.645 913.576 114.141L909.909 124.543H904.551L911.602 104.02C914.422 96.148 917.712 90.1504 921.472 86.0271C925.42 81.9038 929.462 79.0925 933.598 77.5931C937.922 75.9063 941.965 75.0629 945.725 75.0629C951.365 75.0629 955.313 76.2811 957.569 78.7176C960.013 81.1541 961.329 84.3403 961.517 88.2762C961.893 92.2121 961.611 96.5228 960.671 101.208C959.919 105.707 958.979 110.111 957.851 114.422L930.214 223.502ZM1002.69 82.0912C998.367 82.0912 993.854 84.1529 989.154 88.2762C984.642 92.2121 979.942 98.0222 975.054 105.707C970.354 113.203 965.559 122.293 960.671 132.977C955.971 143.472 951.271 155.186 946.571 168.118C942.059 181.051 937.64 195.014 933.316 210.007L940.367 174.022C946.571 155.655 952.305 140.192 957.569 127.635C963.021 115.078 968.38 104.957 973.644 97.2725C978.908 89.4007 984.266 83.7781 989.718 80.4044C995.358 76.8434 1001.28 75.0629 1007.48 75.0629C1012.75 75.0629 1016.79 76.5623 1019.61 79.561C1022.62 82.5598 1024.12 86.402 1024.12 91.0875C1024.12 94.836 1023.18 98.3033 1021.3 101.49C1019.42 104.488 1016.98 106.925 1013.97 108.799C1011.15 110.486 1007.95 111.329 1004.38 111.329C1001.19 111.329 998.461 110.486 996.204 108.799C994.136 106.925 993.102 104.395 993.102 101.208C993.102 98.2096 993.666 95.5857 994.794 93.3366C995.922 90.9001 997.427 88.8385 999.307 87.1517C1001.19 85.4649 1003.35 84.1529 1005.79 83.2158C1005.42 82.8409 1004.95 82.5598 1004.38 82.3724C1004.01 82.185 1003.44 82.0912 1002.69 82.0912Z" fill="black"/>
<path d="M1047.88 218.441C1052.39 218.441 1057.57 215.63 1063.39 210.007C1069.22 204.197 1075.14 196.419 1081.16 186.673C1087.18 176.927 1092.72 165.869 1097.8 153.499C1102.87 141.129 1106.92 128.291 1109.93 114.984L1105.13 145.346C1097.99 165.213 1090.84 181.238 1083.7 193.42C1076.55 205.416 1069.32 214.131 1061.98 219.566C1054.65 224.814 1047.22 227.438 1039.7 227.438C1030.87 227.438 1024.19 224.252 1019.68 217.879C1015.36 211.507 1013.2 203.354 1013.2 193.42C1013.2 184.424 1014.7 174.678 1017.71 164.182C1020.72 153.499 1024.85 142.91 1030.12 132.414C1035.57 121.919 1041.77 112.36 1048.73 103.739C1055.69 95.1171 1063.21 88.1825 1071.29 82.9347C1079.56 77.6868 1087.93 75.0629 1096.39 75.0629C1102.97 75.0629 1107.95 78.3428 1111.34 84.9026C1114.91 91.275 1115.66 100.271 1113.59 111.891L1110.49 113.578C1111.81 103.645 1111.15 95.6794 1108.51 89.6819C1105.88 83.4969 1101.56 80.4044 1095.54 80.4044C1090.65 80.4044 1085.48 82.8409 1080.03 87.7139C1074.77 92.3995 1069.6 98.8656 1064.52 107.112C1059.63 115.171 1055.12 124.261 1050.98 134.382C1047.04 144.503 1043.84 154.999 1041.4 165.869C1039.14 176.552 1038.01 186.861 1038.01 196.794C1038.01 204.853 1038.86 210.476 1040.55 213.662C1042.43 216.848 1044.87 218.441 1047.88 218.441ZM1118.95 78.9988C1123.46 78.8113 1127.97 78.4365 1132.49 77.8742C1137 77.312 1141.13 76.3748 1144.89 75.0629L1109.64 199.324C1109.27 201.011 1108.7 203.26 1107.95 206.072C1107.39 208.695 1107.39 211.132 1107.95 213.381C1108.7 215.63 1110.68 216.755 1113.87 216.755C1117.63 216.755 1121.3 214.693 1124.87 210.57C1128.44 206.446 1132.02 198.949 1135.59 188.079L1138.97 177.677H1144.33L1137.28 198.2C1134.65 205.697 1131.45 211.6 1127.69 215.911C1124.12 220.035 1120.36 222.94 1116.41 224.626C1112.46 226.501 1108.61 227.438 1104.85 227.438C1097.52 227.438 1092.35 225.001 1089.34 220.128C1086.89 215.818 1086.24 210.851 1087.36 205.228C1088.49 199.418 1089.81 193.608 1091.31 187.798L1118.95 78.9988Z" fill="black"/>
<path d="M1264.03 78.9988L1263.18 84.6215H1175.47L1176.88 78.9988H1264.03ZM1192.4 199.605C1190.7 205.79 1191.08 210.289 1193.52 213.1C1196.16 215.724 1199.54 217.036 1203.68 217.036C1207.81 217.036 1211.95 215.255 1216.08 211.694C1220.41 208.133 1224.64 200.543 1228.77 188.922L1232.72 177.958H1238.08L1232.16 195.67C1228.02 207.852 1222.66 216.192 1216.08 220.691C1209.69 225.189 1202.17 227.438 1193.52 227.438C1185.82 227.438 1179.89 225.845 1175.76 222.658C1171.81 219.285 1169.46 214.599 1168.71 208.602C1167.95 202.604 1168.71 195.763 1170.96 188.079L1214.67 36.2663C1219.19 36.0789 1223.6 35.7041 1227.93 35.1418C1232.44 34.5795 1236.48 33.6424 1240.05 32.3305L1192.4 199.605Z" fill="black"/>
<path d="M1338.74 80.6856C1332.72 80.6856 1326.9 83.1221 1321.26 87.9951C1315.8 92.6806 1310.73 99.1467 1306.03 107.393C1301.52 115.453 1297.47 124.543 1293.9 134.663C1290.52 144.784 1287.89 155.28 1286 166.15C1284.12 177.021 1283.18 187.423 1283.18 197.356C1283.18 205.79 1284.5 211.975 1287.13 215.911C1289.95 219.847 1294 221.815 1299.26 221.815C1305.28 221.815 1311.01 219.472 1316.46 214.787C1322.1 209.914 1327.27 203.448 1331.97 195.388C1336.67 187.142 1340.71 177.958 1344.1 167.837C1347.48 157.716 1350.12 147.314 1352 136.631C1353.88 125.761 1354.82 115.265 1354.82 105.144C1354.82 96.5228 1353.5 90.3379 1350.87 86.5894C1348.24 82.6535 1344.19 80.6856 1338.74 80.6856ZM1258.93 183.3C1258.93 175.053 1260.06 166.057 1262.32 156.311C1264.57 146.565 1267.96 136.912 1272.47 127.354C1276.98 117.795 1282.43 109.08 1288.83 101.208C1295.41 93.3366 1303.02 87.0579 1311.67 82.3724C1320.32 77.4994 1329.9 75.0629 1340.43 75.0629C1352.09 75.0629 1361.4 78.7176 1368.35 86.0271C1375.5 93.1492 1379.07 104.207 1379.07 119.201C1379.07 127.448 1377.94 136.444 1375.68 146.19C1373.43 155.936 1370.04 165.588 1365.53 175.147C1361.02 184.705 1355.47 193.42 1348.89 201.292C1342.5 209.164 1334.98 215.536 1326.33 220.409C1317.68 225.095 1308.1 227.438 1297.57 227.438C1285.91 227.438 1276.51 223.783 1269.37 216.474C1262.41 209.164 1258.93 198.106 1258.93 183.3Z" fill="black"/>
<path d="M1424.83 223.502H1400.3L1434.14 102.895C1436.02 96.5228 1436.58 92.0247 1435.83 89.4007C1435.27 86.7768 1433.39 85.4649 1430.19 85.4649C1426.06 85.4649 1422.3 87.6202 1418.91 91.931C1415.53 96.2417 1411.95 103.645 1408.19 114.141L1404.53 124.543H1399.17L1406.22 104.02C1409.04 96.148 1412.33 90.1504 1416.09 86.0271C1420.04 81.9038 1424.08 79.0925 1428.22 77.5931C1432.54 75.9063 1436.58 75.0629 1440.34 75.0629C1445.98 75.0629 1449.93 76.2811 1452.19 78.7176C1454.63 81.1541 1455.95 84.3403 1456.14 88.2762C1456.51 92.2121 1456.23 96.5228 1455.29 101.208C1454.54 105.707 1453.6 110.111 1452.47 114.422L1424.83 223.502ZM1497.31 82.0912C1492.99 82.0912 1488.47 84.1529 1483.77 88.2762C1479.26 92.2121 1474.56 98.0222 1469.67 105.707C1464.97 113.203 1460.18 122.293 1455.29 132.977C1450.59 143.472 1445.89 155.186 1441.19 168.118C1436.68 181.051 1432.26 195.014 1427.94 210.007L1434.99 174.022C1441.19 155.655 1446.92 140.192 1452.19 127.635C1457.64 115.078 1463 104.957 1468.26 97.2725C1473.53 89.4007 1478.89 83.7781 1484.34 80.4044C1489.98 76.8434 1495.9 75.0629 1502.1 75.0629C1507.37 75.0629 1511.41 76.5623 1514.23 79.561C1517.24 82.5598 1518.74 86.402 1518.74 91.0875C1518.74 94.836 1517.8 98.3033 1515.92 101.49C1514.04 104.488 1511.6 106.925 1508.59 108.799C1505.77 110.486 1502.57 111.329 1499 111.329C1495.81 111.329 1493.08 110.486 1490.82 108.799C1488.76 106.925 1487.72 104.395 1487.72 101.208C1487.72 98.2096 1488.29 95.5857 1489.41 93.3366C1490.54 90.9001 1492.05 88.8385 1493.93 87.1517C1495.81 85.4649 1497.97 84.1529 1500.41 83.2158C1500.04 82.8409 1499.57 82.5598 1499 82.3724C1498.63 82.185 1498.06 82.0912 1497.31 82.0912Z" fill="black"/>
<path d="M1527.42 219.285C1528.93 220.035 1530.53 220.691 1532.22 221.253C1534.1 221.628 1536.82 221.815 1540.4 221.815C1548.67 221.815 1555.44 219.379 1560.7 214.506C1566.15 209.445 1568.88 202.229 1568.88 192.858C1568.88 187.048 1567.75 181.332 1565.49 175.709C1563.43 169.899 1559.67 163.245 1554.21 155.748C1549.89 149.751 1545.75 143.66 1541.81 137.475C1537.86 131.102 1535.88 123.605 1535.88 114.984C1535.88 106.925 1537.86 99.9901 1541.81 94.18C1545.75 88.1825 1551.02 83.4969 1557.6 80.1233C1564.37 76.7497 1571.7 75.0629 1579.59 75.0629C1585.05 75.0629 1590.41 75.7189 1595.67 77.0308C1600.93 78.3428 1605.26 80.7793 1608.64 84.3403C1612.21 87.7139 1614 92.7744 1614 99.5216C1614 101.208 1613.53 103.27 1612.59 105.707C1611.84 107.956 1610.52 109.924 1608.64 111.61C1606.76 113.297 1604.22 114.141 1601.03 114.141C1598.02 114.141 1595.39 113.11 1593.13 111.048C1590.88 108.799 1589.75 105.894 1589.75 102.333C1589.75 98.9593 1590.41 95.7731 1591.72 92.7744C1593.23 89.5882 1595.2 86.4957 1597.64 83.4969C1594.07 81.2478 1589.37 80.1233 1583.54 80.1233C1576.59 80.1233 1570.76 82.4661 1566.06 87.1517C1561.36 91.8372 1559.01 98.397 1559.01 106.831C1559.01 111.142 1559.67 114.984 1560.98 118.358C1562.3 121.544 1564.18 124.917 1566.62 128.478C1569.25 132.039 1572.36 136.538 1575.93 141.973C1580.63 149.095 1584.58 155.936 1587.77 162.496C1590.97 169.055 1592.57 175.99 1592.57 183.3C1592.57 191.921 1590.31 199.605 1585.8 206.353C1581.47 212.912 1575.65 218.067 1568.31 221.815C1560.98 225.564 1552.9 227.438 1544.06 227.438C1537.67 227.438 1531.56 226.501 1525.73 224.626C1519.9 222.752 1515.11 219.847 1511.35 215.911C1507.78 211.788 1505.99 206.353 1505.99 199.605C1505.99 196.982 1506.84 194.264 1508.53 191.453C1510.03 188.454 1512.85 186.954 1516.99 186.954C1521.5 186.954 1524.7 188.829 1526.58 192.577C1528.46 196.138 1529.4 200.168 1529.4 204.666C1529.4 207.665 1529.12 210.382 1528.55 212.819C1528.18 215.068 1527.8 217.223 1527.42 219.285Z" fill="black"/>
</svg>
