<svg width="1100" height="228" viewBox="0 0 1100 228" fill="none" xmlns="http://www.w3.org/2000/svg">
<path d="M133.367 136.66C132.431 139.152 131.495 142.033 130.559 145.303C129.623 148.574 128.609 152.078 127.517 155.816C126.737 158.775 125.724 163.057 124.476 168.664C123.228 174.115 122.136 179.799 121.2 185.717C113.245 185.406 104.276 185.25 94.2927 185.25C84.3097 185.094 75.4185 185.016 67.6193 185.016C64.1876 185.016 59.7421 185.016 54.2826 185.016C48.9791 185.016 43.2077 185.094 36.9683 185.25C30.729 185.25 24.4116 185.328 18.0162 185.484C11.6208 185.484 5.61544 185.561 0 185.717L1.16988 181.045C6.47336 180.734 10.6069 180.111 13.5707 179.176C16.5344 178.242 18.7961 176.373 20.356 173.57C22.0718 170.766 23.7097 166.561 25.2695 160.955L56.3884 45.0861C57.9483 39.3238 58.5722 35.1188 58.2602 32.4713C58.1042 29.668 56.7784 27.7992 54.2826 26.8648C51.9429 25.7746 48.1212 25.1516 42.8178 24.9959L43.9876 20.3238C47.2633 20.4795 51.5529 20.6352 56.8564 20.791C62.1598 20.9467 67.8533 21.0246 73.9367 21.0246C79.3961 21.0246 84.7776 20.9467 90.0811 20.791C95.5405 20.6352 100.064 20.4795 103.652 20.3238L102.482 24.9959C97.1784 25.1516 93.0448 25.7746 90.0811 26.8648C87.1174 27.7992 84.7776 29.668 83.0618 32.4713C81.3459 35.1188 79.7081 39.3238 78.1483 45.0861L47.0293 160.955C45.4695 166.561 44.7676 170.766 44.9235 173.57C45.2355 176.373 46.6394 178.242 49.1351 179.176C51.6309 179.955 55.5305 180.344 60.834 180.344H77.9143C87.7413 180.344 95.5405 178.943 101.312 176.139C107.239 173.336 112.153 168.742 116.053 162.357C120.108 155.971 124.086 147.406 127.985 136.66H133.367Z" fill="black"/>
<path d="M164.939 132.689C173.674 129.73 181.551 126.848 188.571 124.045C195.746 121.086 201.439 117.971 205.651 114.701C211.266 110.184 215.712 104.734 218.988 98.3484C222.263 91.9631 223.901 84.9549 223.901 77.3238C223.901 72.8074 223.589 69.9262 222.965 68.6803C222.341 67.4344 221.405 66.8115 220.158 66.8115C216.258 66.8115 212.046 68.5246 207.523 71.9508C202.999 75.3771 198.554 80.127 194.186 86.2008C189.819 92.1189 185.763 98.8934 182.019 106.525C178.432 114.156 175.546 122.332 173.362 131.053C171.178 139.619 170.087 148.184 170.087 156.75C170.087 164.693 171.568 170.455 174.532 174.037C177.496 177.463 181.395 179.176 186.231 179.176C191.846 179.176 197.774 177.463 204.013 174.037C210.253 170.611 216.336 164.537 222.263 155.816L226.007 157.684C223.043 162.824 219.144 167.807 214.308 172.635C209.473 177.463 204.013 181.434 197.93 184.549C192.002 187.508 185.685 188.988 178.978 188.988C172.738 188.988 167.279 187.742 162.599 185.25C157.92 182.758 154.332 179.098 151.836 174.271C149.341 169.287 148.093 163.213 148.093 156.049C148.093 149.352 149.341 141.877 151.836 133.623C154.332 125.213 157.842 116.881 162.365 108.627C167.045 100.217 172.582 92.5082 178.978 85.5C185.373 78.4918 192.47 72.8852 200.27 68.6803C208.069 64.4754 216.414 62.373 225.305 62.373C230.141 62.373 234.196 63.6967 237.472 66.3443C240.904 68.8361 242.619 72.6516 242.619 77.791C242.619 84.0205 240.748 89.8607 237.004 95.3115C233.416 100.607 228.581 105.512 222.497 110.029C216.57 114.389 210.097 118.283 203.077 121.709C196.058 125.135 189.195 128.094 182.487 130.586C175.78 133.078 169.853 135.102 164.705 136.66L164.939 132.689Z" fill="black"/>
<path d="M276.478 181.512C280.222 181.512 284.512 179.176 289.347 174.504C294.183 169.676 299.096 163.213 304.088 155.115C309.079 147.016 313.681 137.828 317.892 127.549C322.104 117.271 325.457 106.602 327.953 95.5451L323.976 120.775C318.048 137.283 312.121 150.598 306.193 160.721C300.266 170.689 294.261 177.93 288.177 182.447C282.094 186.807 275.932 188.988 269.693 188.988C262.362 188.988 256.824 186.34 253.081 181.045C249.493 175.75 247.699 168.975 247.699 160.721C247.699 153.246 248.947 145.148 251.443 136.426C253.939 127.549 257.37 118.75 261.738 110.029C266.261 101.307 271.409 93.3648 277.18 86.2008C282.952 79.0369 289.191 73.2746 295.898 68.9139C302.762 64.5533 309.703 62.373 316.722 62.373C322.182 62.373 326.315 65.0984 329.123 70.5492C332.087 75.8443 332.711 83.3197 330.995 92.9754L328.421 94.377C329.513 86.1229 328.967 79.5041 326.783 74.5205C324.6 69.3811 321.012 66.8115 316.02 66.8115C311.965 66.8115 307.675 68.8361 303.152 72.8852C298.784 76.7787 294.495 82.1516 290.283 89.0041C286.227 95.7008 282.484 103.254 279.052 111.664C275.776 120.074 273.125 128.795 271.097 137.828C269.225 146.705 268.289 155.27 268.289 163.525C268.289 170.221 268.991 174.893 270.395 177.541C271.955 180.189 273.983 181.512 276.478 181.512ZM335.44 65.6434C339.184 65.4877 342.928 65.1762 346.671 64.709C350.415 64.2418 353.847 63.4631 356.966 62.373L327.719 165.627C327.407 167.029 326.939 168.898 326.315 171.234C325.847 173.414 325.847 175.439 326.315 177.307C326.939 179.176 328.577 180.111 331.229 180.111C334.349 180.111 337.39 178.398 340.354 174.971C343.318 171.545 346.281 165.316 349.245 156.283L352.053 147.639H356.498L350.649 164.693C348.465 170.922 345.813 175.828 342.694 179.41C339.73 182.836 336.61 185.25 333.335 186.652C330.059 188.209 326.861 188.988 323.742 188.988C317.658 188.988 313.369 186.963 310.873 182.914C308.845 179.332 308.299 175.205 309.235 170.533C310.171 165.705 311.263 160.877 312.511 156.049L335.44 65.6434Z" fill="black"/>
<path d="M454.403 165.861C453.311 169.443 452.843 172.791 452.999 175.906C453.311 178.865 455.183 180.344 458.615 180.344C461.734 180.344 464.62 178.631 467.272 175.205C469.924 171.623 472.731 165.393 475.695 156.516L478.503 147.873H482.948L477.567 164.926C475.695 171.156 473.199 176.061 470.08 179.643C466.96 183.07 463.684 185.484 460.253 186.885C456.821 188.287 453.545 188.988 450.425 188.988C441.066 188.988 436.153 184.549 435.685 175.672C435.529 173.18 435.685 170.299 436.153 167.029C436.777 163.758 437.635 160.176 438.727 156.283L472.419 29.9016C473.823 24.6066 473.589 20.7131 471.717 18.2213C469.846 15.7295 465.088 14.4836 457.445 14.4836L458.849 9.57787C467.428 9.42213 474.993 8.56557 481.544 7.00819C488.096 5.29508 494.335 2.95902 500.263 0L454.403 165.861ZM401.992 181.512C405.892 181.512 410.259 179.254 415.095 174.738C420.086 170.066 425.078 163.836 430.07 156.049C435.217 148.107 439.897 139.152 444.108 129.184C448.476 119.061 451.907 108.627 454.403 97.8811L450.893 123.111C444.81 139.152 438.727 152 432.643 161.656C426.716 171.311 420.632 178.32 414.393 182.68C408.31 186.885 401.914 188.988 395.207 188.988C390.371 188.988 386.082 187.898 382.338 185.717C378.751 183.381 375.943 179.955 373.915 175.439C371.887 170.922 370.873 165.16 370.873 158.152C370.873 150.676 372.043 142.656 374.383 134.09C376.879 125.369 380.388 116.803 384.912 108.393C389.436 99.9836 394.817 92.3525 401.056 85.5C407.452 78.4918 414.471 72.8852 422.114 68.6803C429.758 64.4754 437.869 62.373 446.448 62.373C450.035 62.373 453.389 63.7746 456.509 66.5779C459.629 69.2254 461.344 73.2746 461.656 78.7254L459.785 83.3975C459.161 77.791 457.601 73.8197 455.105 71.4836C452.609 68.9918 449.802 67.7459 446.682 67.7459C440.754 67.7459 434.983 69.7705 429.368 73.8197C423.908 77.8689 418.917 83.2418 414.393 89.9385C409.87 96.6352 405.892 104.111 402.46 112.365C399.029 120.463 396.377 128.795 394.505 137.361C392.633 145.77 391.697 153.713 391.697 161.189C391.697 168.041 392.555 173.18 394.271 176.607C395.987 179.877 398.561 181.512 401.992 181.512Z" fill="black"/>
<path d="M514.533 132.689C523.268 129.73 531.146 126.848 538.165 124.045C545.34 121.086 551.034 117.971 555.245 114.701C560.861 110.184 565.306 104.734 568.582 98.3484C571.858 91.9631 573.495 84.9549 573.495 77.3238C573.495 72.8074 573.184 69.9262 572.56 68.6803C571.936 67.4344 571 66.8115 569.752 66.8115C565.852 66.8115 561.641 68.5246 557.117 71.9508C552.594 75.3771 548.148 80.127 543.78 86.2008C539.413 92.1189 535.357 98.8934 531.614 106.525C528.026 114.156 525.14 122.332 522.956 131.053C520.773 139.619 519.681 148.184 519.681 156.75C519.681 164.693 521.163 170.455 524.126 174.037C527.09 177.463 530.99 179.176 535.825 179.176C541.441 179.176 547.368 177.463 553.607 174.037C559.847 170.611 565.93 164.537 571.858 155.816L575.601 157.684C572.638 162.824 568.738 167.807 563.902 172.635C559.067 177.463 553.607 181.434 547.524 184.549C541.597 187.508 535.279 188.988 528.572 188.988C522.333 188.988 516.873 187.742 512.194 185.25C507.514 182.758 503.926 179.098 501.431 174.271C498.935 169.287 497.687 163.213 497.687 156.049C497.687 149.352 498.935 141.877 501.431 133.623C503.926 125.213 507.436 116.881 511.96 108.627C516.639 100.217 522.177 92.5082 528.572 85.5C534.967 78.4918 542.065 72.8852 549.864 68.6803C557.663 64.4754 566.008 62.373 574.899 62.373C579.735 62.373 583.79 63.6967 587.066 66.3443C590.498 68.8361 592.214 72.6516 592.214 77.791C592.214 84.0205 590.342 89.8607 586.598 95.3115C583.01 100.607 578.175 105.512 572.092 110.029C566.164 114.389 559.691 118.283 552.672 121.709C545.652 125.135 538.789 128.094 532.082 130.586C525.374 133.078 519.447 135.102 514.299 136.66L514.533 132.689Z" fill="black"/>
<path d="M623.499 185.717H603.143L631.22 85.5C632.78 80.2049 633.248 76.4672 632.624 74.2869C632.156 72.1066 630.596 71.0164 627.944 71.0164C624.513 71.0164 621.393 72.8074 618.585 76.3893C615.778 79.9713 612.814 86.1229 609.694 94.8443L606.653 103.488H602.207L608.056 86.4344C610.396 79.8934 613.126 74.9098 616.246 71.4836C619.521 68.0574 622.875 65.7213 626.307 64.4754C629.894 63.0738 633.248 62.373 636.368 62.373C641.047 62.373 644.323 63.3853 646.195 65.4098C648.222 67.4344 649.314 70.082 649.47 73.3525C649.782 76.623 649.548 80.2049 648.768 84.0984C648.144 87.8361 647.365 91.4959 646.429 95.0779L623.499 185.717ZM683.631 68.2131C680.043 68.2131 676.3 69.9262 672.4 73.3525C668.656 76.623 664.757 81.4508 660.701 87.8361C656.802 94.0656 652.824 101.619 648.768 110.496C644.869 119.217 640.969 128.951 637.07 139.697C633.326 150.443 629.66 162.045 626.073 174.504L631.922 144.602C637.07 129.34 641.827 116.492 646.195 106.057C650.718 95.6229 655.164 87.2131 659.531 80.8279C663.899 74.2869 668.344 69.6148 672.868 66.8115C677.548 63.8525 682.461 62.373 687.609 62.373C691.976 62.373 695.33 63.6189 697.669 66.1107C700.165 68.6025 701.413 71.7951 701.413 75.6885C701.413 78.8033 700.633 81.6844 699.073 84.332C697.513 86.8238 695.486 88.8484 692.99 90.4057C690.65 91.8074 687.998 92.5082 685.035 92.5082C682.383 92.5082 680.121 91.8074 678.249 90.4057C676.534 88.8484 675.676 86.7459 675.676 84.0984C675.676 81.6066 676.144 79.4262 677.08 77.5574C678.016 75.5328 679.263 73.8197 680.823 72.418C682.383 71.0164 684.177 69.9262 686.205 69.1475C685.893 68.8361 685.503 68.6024 685.035 68.4467C684.723 68.291 684.255 68.2131 683.631 68.2131Z" fill="black"/>
<path d="M708.615 182.213C709.863 182.836 711.189 183.381 712.593 183.848C714.153 184.16 716.414 184.316 719.378 184.316C726.242 184.316 731.857 182.291 736.224 178.242C740.748 174.037 743.01 168.041 743.01 160.254C743.01 155.426 742.074 150.676 740.202 146.004C738.486 141.176 735.367 135.648 730.843 129.418C727.255 124.434 723.824 119.373 720.548 114.234C717.272 108.939 715.635 102.709 715.635 95.5451C715.635 88.8484 717.272 83.0861 720.548 78.2582C723.824 73.2746 728.191 69.3811 733.651 66.5779C739.266 63.7746 745.35 62.373 751.901 62.373C756.424 62.373 760.87 62.918 765.238 64.0082C769.605 65.0984 773.193 67.123 776.001 70.082C778.964 72.8852 780.446 77.0902 780.446 82.6967C780.446 84.0984 780.056 85.8115 779.276 87.8361C778.652 89.7049 777.56 91.3402 776.001 92.7418C774.441 94.1434 772.335 94.8443 769.683 94.8443C767.187 94.8443 765.004 93.9877 763.132 92.2746C761.26 90.4057 760.324 87.9918 760.324 85.0328C760.324 82.2295 760.87 79.582 761.962 77.0902C763.21 74.4426 764.848 71.8729 766.875 69.3811C763.912 67.5123 760.012 66.5779 755.177 66.5779C749.405 66.5779 744.57 68.5246 740.67 72.418C736.771 76.3115 734.821 81.7623 734.821 88.7705C734.821 92.3525 735.367 95.5451 736.458 98.3484C737.55 100.996 739.11 103.799 741.138 106.758C743.322 109.717 745.896 113.455 748.859 117.971C752.759 123.889 756.035 129.574 758.686 135.025C761.338 140.475 762.664 146.238 762.664 152.311C762.664 159.475 760.792 165.861 757.048 171.467C753.461 176.918 748.625 181.201 742.542 184.316C736.458 187.43 729.751 188.988 722.42 188.988C717.116 188.988 712.047 188.209 707.211 186.652C702.376 185.094 698.398 182.68 695.279 179.41C692.315 175.984 690.833 171.467 690.833 165.861C690.833 163.68 691.535 161.422 692.939 159.086C694.187 156.594 696.526 155.348 699.958 155.348C703.702 155.348 706.353 156.906 707.913 160.02C709.473 162.98 710.253 166.328 710.253 170.066C710.253 172.557 710.019 174.816 709.551 176.84C709.239 178.709 708.927 180.5 708.615 182.213Z" fill="black"/>
<path d="M802.173 185.717H781.817L828.144 29.9016C829.704 24.6066 829.47 20.7131 827.443 18.2213C825.571 15.7295 820.813 14.4836 813.17 14.4836L814.574 9.57787C823.153 9.42213 830.874 8.56557 837.738 7.00819C844.601 5.29508 850.918 2.95902 856.69 0L802.173 185.717ZM808.724 151.143C814.652 134.791 820.267 120.93 825.571 109.561C831.03 98.1926 836.412 89.082 841.715 82.2295C847.019 75.2213 852.478 70.1598 858.094 67.0451C863.709 63.9303 869.558 62.373 875.642 62.373C882.973 62.373 887.965 64.1639 890.616 67.7459C893.424 71.1721 894.672 75.6107 894.36 81.0615C894.048 86.5123 892.956 92.041 891.084 97.6475L868.388 165.861C867.141 169.91 866.595 173.336 866.751 176.139C866.907 178.943 868.7 180.344 872.132 180.344C875.096 180.344 877.982 178.709 880.789 175.439C883.753 172.168 886.873 165.861 890.148 156.516L893.19 147.873H897.636L891.786 164.926C889.602 171.467 886.873 176.451 883.597 179.877C880.477 183.303 877.124 185.639 873.536 186.885C870.104 188.287 866.751 188.988 863.475 188.988C857.236 188.988 852.868 187.586 850.372 184.783C847.877 181.98 846.785 178.086 847.097 173.102C847.565 168.119 848.812 162.512 850.84 156.283L873.068 89.4713C873.848 87.1352 874.55 84.4098 875.174 81.2951C875.798 78.1803 875.642 75.5328 874.706 73.3525C873.926 71.0164 871.664 69.8484 867.921 69.8484C864.021 69.8484 859.809 71.6393 855.286 75.2213C850.918 78.6475 846.395 83.6311 841.715 90.1721C837.036 96.7131 832.434 104.578 827.91 113.766C823.387 122.955 819.019 133.234 814.808 144.602C810.752 155.816 806.931 167.963 803.343 181.045L808.724 151.143Z" fill="black"/>
<path d="M953.587 23.127C954.367 19.0779 956.395 15.5738 959.671 12.6147C963.102 9.65573 966.768 8.17622 970.667 8.17622C974.723 8.17622 977.843 9.65573 980.026 12.6147C982.366 15.5738 983.146 19.0779 982.366 23.127C981.586 27.1762 979.481 30.6803 976.049 33.6393C972.773 36.5984 969.108 38.0779 965.052 38.0779C961.152 38.0779 958.033 36.5984 955.693 33.6393C953.509 30.6803 952.807 27.1762 953.587 23.127ZM946.334 85.5C949.61 75.8443 948.518 71.0164 943.058 71.0164C939.471 71.0164 936.273 72.9631 933.465 76.8566C930.657 80.75 927.694 86.7459 924.574 94.8443L921.298 103.488H916.853L922.936 86.4344C925.276 79.8934 928.084 74.9098 931.359 71.4836C934.635 68.0574 938.067 65.7213 941.654 64.4754C945.398 63.0738 948.83 62.373 951.949 62.373C956.941 62.373 960.606 63.3853 962.946 65.4098C965.286 67.4344 966.69 70.082 967.158 73.3525C967.626 76.623 967.47 80.2049 966.69 84.0984C965.91 87.8361 964.896 91.4959 963.648 95.0779L938.613 165.861C937.053 170.377 936.507 173.959 936.975 176.607C937.599 179.098 939.393 180.344 942.356 180.344C945.476 180.344 948.44 178.631 951.247 175.205C954.055 171.779 957.175 165.549 960.606 156.516L963.882 147.873H968.328L962.244 164.926C960.06 171 957.409 175.828 954.289 179.41C951.169 182.836 947.816 185.25 944.228 186.652C940.64 188.209 937.053 188.988 933.465 188.988C926.758 188.988 922.234 187.43 919.894 184.316C917.555 181.201 916.697 177.152 917.321 172.168C917.945 167.184 919.271 161.889 921.298 156.283L946.334 85.5Z" fill="black"/>
<path d="M1068.88 69.8484C1064.83 69.8484 1060.22 72.7295 1055.08 78.4918C1050.08 84.0984 1044.94 91.8074 1039.63 101.619C1034.49 111.275 1029.57 122.176 1024.89 134.324C1020.37 146.471 1016.55 159.086 1013.43 172.168L1017.64 146.939C1024.35 126.537 1030.82 110.184 1037.06 97.8811C1043.3 85.4221 1049.54 76.3893 1055.78 70.7828C1062.17 65.1762 1068.8 62.373 1075.67 62.373C1083 62.373 1088.85 65.0984 1093.21 70.5492C1097.74 76 1100 84.2541 1100 95.3115C1100 102.32 1098.99 110.029 1096.96 118.439C1095.09 126.848 1092.2 135.18 1088.3 143.434C1084.56 151.689 1079.88 159.32 1074.26 166.328C1068.8 173.18 1062.49 178.709 1055.31 182.914C1048.14 186.963 1040.18 188.988 1031.44 188.988C1026.77 188.988 1022.55 187.586 1018.81 184.783C1015.22 181.98 1012.8 177.93 1011.56 172.635L1013.43 167.963C1015.61 173.725 1018.11 177.775 1020.92 180.111C1023.88 182.447 1027.31 183.615 1031.21 183.615C1036.51 183.615 1041.58 181.59 1046.42 177.541C1051.25 173.336 1055.7 167.807 1059.76 160.955C1063.81 154.102 1067.32 146.549 1070.28 138.295C1073.4 129.885 1075.74 121.553 1077.3 113.299C1079.02 104.889 1079.88 97.1803 1079.88 90.1721C1079.88 83.3197 1078.86 78.2582 1076.84 74.9877C1074.96 71.5615 1072.31 69.8484 1068.88 69.8484ZM1033.78 29.9016C1037.53 29.7459 1041.19 29.4344 1044.78 28.9672C1048.53 28.5 1051.96 27.7213 1055.08 26.6311L1003.6 206.275C1001.73 212.816 1002.67 217.254 1006.41 219.59C1010.15 221.926 1015.53 223.094 1022.55 223.094L1021.15 228C1018.03 227.844 1013.58 227.611 1007.81 227.299C1002.2 227.143 996.192 227.066 989.797 227.066C984.961 227.066 980.048 227.143 975.056 227.299C970.065 227.611 966.321 227.844 963.825 228L965.229 223.094C970.845 223.094 974.9 222.004 977.396 219.824C979.892 217.799 981.92 214.061 983.479 208.611L1033.78 29.9016ZM985.117 102.32C991.201 96.4016 996.894 90.5615 1002.2 84.7992C1007.5 78.8811 1012.65 71.873 1017.64 63.7746C1022.63 55.6762 1027.7 45.4754 1032.85 33.1721L1033.55 36.9098C1030.12 47.5 1025.99 56.8443 1021.15 64.9426C1016.47 72.8852 1011.32 80.1271 1005.71 86.668C1000.09 93.0533 994.086 99.2828 987.691 105.357L985.117 102.32Z" fill="black"/>
</svg>
