<svg width="1310" height="228" viewBox="0 0 1310 228" fill="none" xmlns="http://www.w3.org/2000/svg">
<path d="M115.138 25.6465C106.484 25.6465 97.9238 28.2769 89.4578 33.5377C81.1799 38.6106 73.4664 45.7503 66.3173 54.9567C59.1682 63.9753 52.8657 74.403 47.4098 86.2398C41.9539 97.8887 37.6268 110.383 34.4285 123.723C31.4184 137.063 29.9133 150.497 29.9133 164.025C29.9133 182.438 33.4879 196.905 40.637 207.426C47.9742 217.76 57.3809 222.927 68.8571 222.927C77.5113 222.927 85.9773 220.391 94.2552 215.318C102.721 210.057 110.529 202.917 117.678 193.899C124.827 184.692 131.129 174.265 136.585 162.616C142.041 150.779 146.274 138.19 149.284 124.85C152.483 111.511 154.082 98.0766 154.082 84.5488C154.082 66.136 150.413 51.7627 143.076 41.4289C135.927 30.9073 126.614 25.6465 115.138 25.6465ZM0 160.361C0 147.96 1.78727 135.184 5.36182 122.032C8.93637 108.88 14.1101 96.2917 20.8829 84.267C27.6557 72.2423 35.8396 61.4388 45.4344 51.8566C55.2174 42.2744 66.1292 34.665 78.1697 29.0284C90.2103 23.3918 103.38 20.5735 117.678 20.5735C138.561 20.5735 154.834 26.492 166.499 38.3288C178.351 49.9777 184.277 66.6996 184.277 88.4944C184.277 100.895 182.396 113.671 178.633 126.823C175.059 139.787 169.885 152.282 163.112 164.307C156.339 176.331 148.062 187.135 138.279 196.717C128.684 206.299 117.772 213.909 105.543 219.545C93.5027 225.182 80.4273 228 66.3173 228C45.4344 228 29.1608 222.176 17.4965 210.527C5.83216 198.69 0 181.968 0 160.361Z" fill="black"/>
<path d="M302.383 126.541C295.61 145.33 289.12 161.206 282.911 174.171C276.703 187.135 270.494 197.562 264.286 205.454C258.266 213.345 252.057 219.075 245.661 222.645C239.452 226.215 232.962 228 226.189 228C217.911 228 211.89 226.121 208.128 222.363C204.365 218.606 202.484 213.533 202.484 207.145C202.484 200.756 203.801 193.523 206.435 185.444L233.808 103.15C235.689 97.513 236.348 93.1916 235.784 90.1854C235.219 87.1792 233.056 85.6761 229.293 85.6761C225.718 85.6761 222.144 87.6489 218.569 91.5946C215.183 95.5402 211.514 103.15 207.563 114.423L203.895 124.85H198.533L205.588 104.277C208.41 96.3857 211.702 90.3733 215.465 86.2398C219.416 82.1063 223.461 79.288 227.6 77.7849C231.927 76.0939 235.972 75.2485 239.734 75.2485C248.012 75.2485 253.468 77.2213 256.102 81.1669C258.924 84.9246 259.959 89.8096 259.206 95.822C258.642 101.834 257.231 108.129 254.973 114.705L228.164 195.308C222.896 211.09 224.966 218.981 234.373 218.981C238.888 218.981 243.685 217.009 248.765 213.063C253.844 208.93 259.018 203.105 264.286 195.59C269.554 187.886 274.727 178.774 279.807 168.252C285.075 157.543 290.06 145.706 294.764 132.742C299.655 119.59 304.076 105.498 308.027 90.4672L302.383 126.541ZM301.536 200.099C300.219 205.172 299.561 209.399 299.561 212.781C299.749 215.975 301.725 217.572 305.487 217.572C309.626 217.572 313.389 215.412 316.775 211.09C320.35 206.581 323.924 199.159 327.499 188.826L331.168 178.398H336.529L329.474 198.972C326.84 206.863 323.548 212.875 319.597 217.009C315.835 221.142 311.79 223.96 307.463 225.464C303.324 227.154 299.279 228 295.328 228C292.318 228 289.496 227.342 286.862 226.027C284.228 224.712 282.253 222.833 280.936 220.391C279.431 217.197 278.866 213.157 279.242 208.272C279.807 203.387 281.124 196.811 283.193 188.544L310.849 79.1941C315.552 79.0062 320.068 78.6304 324.395 78.0667C328.91 77.5031 332.955 76.5637 336.529 75.2485L301.536 200.099Z" fill="black"/>
<path d="M384.612 224.054H360.06L393.924 103.15C395.806 96.7614 396.37 92.2522 395.617 89.6217C395.053 86.9913 393.172 85.6761 389.973 85.6761C385.834 85.6761 382.072 87.8368 378.685 92.1582C375.299 96.4796 371.724 103.901 367.962 114.423L364.293 124.85H358.931L365.986 104.277C368.808 96.3857 372.101 90.3733 375.863 86.2398C379.814 82.1063 383.859 79.288 387.998 77.7849C392.325 76.0939 396.37 75.2485 400.133 75.2485C405.777 75.2485 409.727 76.4697 411.985 78.9122C414.431 81.3548 415.748 84.5488 415.936 88.4944C416.312 92.44 416.03 96.7614 415.089 101.459C414.337 105.968 413.396 110.383 412.267 114.705L384.612 224.054ZM457.137 82.2942C452.81 82.2942 448.295 84.3609 443.592 88.4944C439.076 92.44 434.373 98.2645 429.482 105.968C424.778 113.483 419.981 122.596 415.089 133.305C410.386 143.827 405.683 155.57 400.979 168.534C396.464 181.498 392.043 195.496 387.716 210.527L394.771 174.452C400.979 156.04 406.717 140.539 411.985 127.951C417.441 115.362 422.803 105.216 428.071 97.513C433.338 89.6217 438.7 83.9852 444.156 80.6032C449.8 77.0334 455.726 75.2485 461.935 75.2485C467.202 75.2485 471.247 76.7515 474.069 79.7577C477.079 82.7639 478.585 86.6156 478.585 91.3127C478.585 95.0705 477.644 98.5463 475.763 101.74C473.881 104.747 471.435 107.189 468.425 109.068C465.603 110.759 462.405 111.604 458.83 111.604C455.632 111.604 452.904 110.759 450.647 109.068C448.577 107.189 447.542 104.653 447.542 101.459C447.542 98.4524 448.107 95.822 449.236 93.5674C450.364 91.1248 451.869 89.0581 453.751 87.3671C455.632 85.6761 457.796 84.3609 460.242 83.4215C459.865 83.0457 459.395 82.7639 458.83 82.576C458.454 82.3881 457.89 82.2942 457.137 82.2942Z" fill="black"/>
<path d="M633.149 80.885C626 80.885 618.851 83.7973 611.702 89.6217C604.741 95.4462 598.344 103.431 592.512 113.577C586.68 123.723 581.977 135.278 578.402 148.242C575.016 161.206 573.323 174.828 573.323 189.108C573.323 198.69 575.11 205.642 578.684 209.963C582.447 214.096 587.245 216.163 593.077 216.163C599.85 216.163 606.81 214.096 613.96 209.963C621.109 205.829 628.258 198.502 635.407 187.98L641.051 190.235C637.476 196.435 632.773 202.447 626.941 208.272C621.109 214.096 614.524 218.888 607.187 222.645C600.038 226.215 592.418 228 584.328 228C573.04 228 564.01 224.524 557.237 217.572C550.464 210.621 547.078 200.287 547.078 186.571C547.078 177.928 548.301 168.628 550.747 158.67C553.38 148.524 557.049 138.566 561.752 128.796C566.644 118.838 572.57 109.913 579.531 102.022C586.492 93.9431 594.394 87.4611 603.236 82.576C612.078 77.691 621.767 75.2485 632.303 75.2485C640.581 75.2485 647.73 77.4091 653.75 81.7305C659.77 85.864 662.78 91.6885 662.78 99.2039C662.78 102.774 661.934 106.344 660.241 109.913C658.735 113.295 656.478 116.114 653.468 118.368C650.458 120.623 646.883 121.75 642.744 121.75C638.793 121.75 635.877 120.717 633.996 118.65C632.115 116.396 631.174 113.765 631.174 110.759C631.174 105.31 633.337 100.707 637.664 96.9493C641.992 93.0037 646.883 90.5612 652.339 89.6217C650.458 86.9913 648.012 84.9246 645.002 83.4215C641.992 81.7305 638.041 80.885 633.149 80.885Z" fill="black"/>
<path d="M692.592 200.099C691.087 205.548 690.617 209.869 691.181 213.063C691.746 216.069 693.815 217.572 697.39 217.572C701.152 217.572 704.633 215.506 707.831 211.372C711.218 207.051 714.792 199.535 718.555 188.826L722.223 178.398H727.585L720.53 198.972C718.084 206.111 715.074 211.842 711.5 216.163C708.113 220.297 704.351 223.303 700.212 225.182C696.073 227.061 691.558 228 686.666 228C680.458 228 675.848 226.779 672.838 224.336C670.016 222.082 668.229 218.981 667.476 215.036C666.912 211.09 667.006 206.863 667.759 202.354C668.699 197.656 669.828 193.053 671.145 188.544L717.144 36.0742C719.025 29.686 718.837 24.9889 716.579 21.9827C714.322 18.9765 708.584 17.4734 699.365 17.4734L701.341 11.555C711.688 11.3671 720.812 10.3337 728.714 8.45487C736.616 6.38813 744.235 3.56984 751.572 0L692.592 200.099Z" fill="black"/>
<path d="M795.411 27.9011C796.351 23.0161 798.797 18.7886 802.748 15.2188C806.887 11.6489 811.308 9.86402 816.011 9.86402C820.903 9.86402 824.665 11.6489 827.299 15.2188C830.121 18.7886 831.062 23.0161 830.121 27.9011C829.181 32.7862 826.641 37.0136 822.502 40.5834C818.551 44.1533 814.13 45.9382 809.238 45.9382C804.535 45.9382 800.772 44.1533 797.95 40.5834C795.317 37.0136 794.47 32.7862 795.411 27.9011ZM786.662 103.15C790.613 91.5006 789.296 85.6761 782.711 85.6761C778.384 85.6761 774.528 88.0247 771.141 92.7219C767.755 97.419 764.18 104.653 760.418 114.423L756.467 124.85H751.105L758.442 104.277C761.264 96.3857 764.651 90.3733 768.601 86.2398C772.552 82.1063 776.691 79.288 781.018 77.7849C785.533 76.0939 789.672 75.2485 793.435 75.2485C799.455 75.2485 803.877 76.4697 806.699 78.9122C809.521 81.3548 811.214 84.5488 811.778 88.4944C812.343 92.44 812.154 96.7614 811.214 101.459C810.273 105.968 809.05 110.383 807.545 114.705L777.35 200.099C775.468 205.548 774.81 209.869 775.374 213.063C776.127 216.069 778.29 217.572 781.865 217.572C785.628 217.572 789.202 215.506 792.589 211.372C795.975 207.239 799.738 199.723 803.877 188.826L807.827 178.398H813.189L805.852 198.972C803.218 206.299 800.02 212.124 796.257 216.445C792.494 220.578 788.45 223.491 784.122 225.182C779.795 227.061 775.468 228 771.141 228C763.051 228 757.596 226.121 754.774 222.363C751.952 218.606 750.917 213.721 751.669 207.708C752.422 201.696 754.021 195.308 756.467 188.544L786.662 103.15Z" fill="black"/>
<path d="M850.936 160.079C861.471 156.509 870.972 153.033 879.438 149.651C888.092 146.082 894.959 142.324 900.039 138.378C906.812 132.93 912.173 126.354 916.124 118.65C920.075 110.947 922.051 102.492 922.051 93.2855C922.051 87.8368 921.674 84.3609 920.922 82.8578C920.169 81.3548 919.04 80.6032 917.535 80.6032C912.832 80.6032 907.752 82.67 902.296 86.8035C896.841 90.937 891.479 96.6675 886.211 103.995C880.943 111.135 876.052 119.308 871.537 128.514C867.209 137.721 863.729 147.585 861.095 158.106C858.461 168.44 857.144 178.774 857.144 189.108C857.144 198.69 858.932 205.642 862.506 209.963C866.081 214.096 870.784 216.163 876.616 216.163C883.389 216.163 890.538 214.096 898.063 209.963C905.589 205.829 912.926 198.502 920.075 187.98L924.59 190.235C921.016 196.435 916.312 202.447 910.48 208.272C904.648 214.096 898.063 218.888 890.726 222.645C883.577 226.215 875.958 228 867.868 228C860.343 228 853.758 226.497 848.114 223.491C842.47 220.485 838.143 216.069 835.133 210.245C832.122 204.232 830.617 196.905 830.617 188.262C830.617 180.183 832.122 171.164 835.133 161.206C838.143 151.061 842.376 141.009 847.832 131.051C853.476 120.905 860.154 111.604 867.868 103.15C875.581 94.6947 884.142 87.9308 893.548 82.8578C902.955 77.7849 913.02 75.2485 923.744 75.2485C929.576 75.2485 934.467 76.8455 938.418 80.0395C942.557 83.0457 944.627 87.6489 944.627 93.8492C944.627 101.365 942.369 108.41 937.854 114.986C933.527 121.375 927.695 127.293 920.357 132.742C913.208 138.002 905.401 142.7 896.935 146.833C888.469 150.967 880.191 154.536 872.101 157.543C864.011 160.549 856.862 162.991 850.654 164.87L850.936 160.079Z" fill="black"/>
<path d="M982.642 224.054H958.091L991.955 103.15C992.707 100.895 993.272 98.4524 993.648 95.822C994.212 93.0037 994.118 90.6551 993.366 88.7763C992.613 86.7095 990.732 85.6761 987.722 85.6761C983.583 85.6761 979.914 87.7429 976.716 91.8764C973.518 95.822 969.943 103.337 965.992 114.423L962.324 124.85H956.962L964.017 104.277C968.156 92.44 973.236 84.6428 979.256 80.885C985.464 77.1273 991.579 75.2485 997.599 75.2485C1003.24 75.2485 1007.29 76.4697 1009.73 78.9122C1012.37 81.3548 1013.78 84.5488 1013.97 88.4944C1014.34 92.2522 1014.06 96.4796 1013.12 101.177C1012.37 105.686 1011.43 110.195 1010.3 114.705L982.642 224.054ZM995.623 165.434C1002.21 148.524 1008.6 134.339 1014.81 122.878C1021.02 111.417 1027.14 102.21 1033.16 95.2583C1039.18 88.1187 1045.29 83.0457 1051.5 80.0395C1057.9 76.8455 1064.48 75.2485 1071.25 75.2485C1080.1 75.2485 1086.12 77.4091 1089.31 81.7305C1092.7 85.864 1094.21 91.2188 1093.83 97.7948C1093.45 104.183 1092.14 110.853 1089.88 117.805L1062.51 200.099C1060.81 205.172 1060.06 209.399 1060.25 212.781C1060.62 215.975 1062.88 217.572 1067.02 217.572C1070.59 217.572 1074.08 215.6 1077.46 211.654C1081.04 207.708 1084.8 200.099 1088.75 188.826L1092.42 178.398H1097.78L1090.73 198.972C1088.09 206.863 1084.8 212.875 1080.85 217.009C1077.09 221.142 1073.04 223.96 1068.71 225.464C1064.57 227.154 1060.53 228 1056.58 228C1052.06 228 1048.3 227.248 1045.29 225.745C1042.47 224.242 1040.31 222.269 1038.8 219.827C1036.73 216.445 1036.07 212.03 1036.82 206.581C1037.58 201.132 1039.08 195.12 1041.34 188.544L1068.15 107.941C1069.09 105.31 1069.84 102.21 1070.41 98.6403C1071.16 94.8826 1071.07 91.5946 1070.12 88.7763C1069.18 85.7701 1066.46 84.267 1061.94 84.267C1057.43 84.267 1052.63 86.2398 1047.55 90.1854C1042.47 94.131 1037.2 99.7676 1031.75 107.095C1026.29 114.235 1020.93 122.878 1015.66 133.023C1010.39 142.981 1005.31 154.067 1000.42 166.279C995.718 178.304 991.39 191.174 987.44 204.89L995.623 165.434Z" fill="black"/>
<path d="M1217.74 79.1941L1216.89 84.8306H1129.13L1130.54 79.1941H1217.74ZM1146.06 200.099C1144.37 206.299 1144.74 210.808 1147.19 213.627C1149.82 216.257 1153.21 217.572 1157.35 217.572C1161.49 217.572 1165.62 215.787 1169.76 212.218C1174.09 208.648 1178.32 201.038 1182.46 189.389L1186.41 178.398H1191.78L1185.85 196.153C1181.71 208.366 1176.35 216.727 1169.76 221.236C1163.37 225.745 1155.84 228 1147.19 228C1139.47 228 1133.55 226.403 1129.41 223.209C1125.46 219.827 1123.11 215.13 1122.35 209.117C1121.6 203.105 1122.35 196.247 1124.61 188.544L1168.35 36.356C1172.87 36.1681 1177.29 35.7923 1181.62 35.2287C1186.13 34.665 1190.18 33.7256 1193.75 32.4104L1146.06 200.099Z" fill="black"/>
<path d="M1223.36 219.827C1224.87 220.578 1226.47 221.236 1228.16 221.8C1230.04 222.176 1232.77 222.363 1236.35 222.363C1244.62 222.363 1251.4 219.921 1256.66 215.036C1262.12 209.963 1264.85 202.729 1264.85 193.335C1264.85 187.51 1263.72 181.78 1261.46 176.143C1259.39 170.319 1255.63 163.649 1250.17 156.133C1245.85 150.121 1241.71 144.015 1237.76 137.815C1233.81 131.426 1231.83 123.911 1231.83 115.268C1231.83 107.189 1233.81 100.237 1237.76 94.4129C1241.71 88.4005 1246.98 83.7033 1253.56 80.3214C1260.33 76.9394 1267.67 75.2485 1275.57 75.2485C1281.03 75.2485 1286.39 75.9061 1291.66 77.2213C1296.92 78.5365 1301.25 80.979 1304.64 84.5488C1308.21 87.9308 1310 93.0037 1310 99.7676C1310 101.459 1309.53 103.525 1308.59 105.968C1307.84 108.222 1306.52 110.195 1304.64 111.886C1302.76 113.577 1300.22 114.423 1297.02 114.423C1294.01 114.423 1291.37 113.389 1289.12 111.323C1286.86 109.068 1285.73 106.156 1285.73 102.586C1285.73 99.2039 1286.39 96.0099 1287.71 93.0037C1289.21 89.8096 1291.19 86.7095 1293.63 83.7033C1290.06 81.4487 1285.35 80.3214 1279.52 80.3214C1272.56 80.3214 1266.73 82.67 1262.03 87.3671C1257.32 92.0643 1254.97 98.6403 1254.97 107.095C1254.97 111.417 1255.63 115.268 1256.95 118.65C1258.26 121.844 1260.14 125.226 1262.59 128.796C1265.22 132.366 1268.33 136.875 1271.9 142.324C1276.61 149.464 1280.56 156.321 1283.76 162.897C1286.95 169.473 1288.55 176.425 1288.55 183.753C1288.55 192.396 1286.3 200.099 1281.78 206.863C1277.45 213.439 1271.62 218.606 1264.28 222.363C1256.95 226.121 1248.86 228 1240.01 228C1233.62 228 1227.5 227.061 1221.67 225.182C1215.84 223.303 1211.04 220.391 1207.28 216.445C1203.7 212.311 1201.92 206.863 1201.92 200.099C1201.92 197.468 1202.76 194.744 1204.46 191.926C1205.96 188.92 1208.78 187.417 1212.92 187.417C1217.44 187.417 1220.64 189.295 1222.52 193.053C1224.4 196.623 1225.34 200.663 1225.34 205.172C1225.34 208.178 1225.06 210.902 1224.49 213.345C1224.12 215.6 1223.74 217.76 1223.36 219.827Z" fill="black"/>
</svg>
