<svg width="1422" height="228" viewBox="0 0 1422 228" fill="none" xmlns="http://www.w3.org/2000/svg">
<path d="M98.3823 13.5685C90.9876 13.5685 83.6732 15.83 76.4392 20.3528C69.366 24.7141 62.775 30.8523 56.6663 38.7673C50.5576 46.5207 45.1723 55.4857 40.5104 65.6621C35.8485 75.6769 32.1511 86.4187 29.4182 97.8874C26.8462 109.356 25.5601 120.905 25.5601 132.536C25.5601 148.366 28.6145 160.803 34.7232 169.849C40.9926 178.733 49.0304 183.175 58.8365 183.175C66.2312 183.175 73.4652 180.995 80.5385 176.633C87.7725 172.111 94.4438 165.972 100.553 158.219C106.661 150.304 112.047 141.339 116.708 131.324C121.37 121.148 124.987 110.325 127.559 98.8565C130.292 87.3879 131.659 75.8385 131.659 64.2083C131.659 48.3783 128.524 36.0213 122.255 27.1371C116.146 18.0914 108.188 13.5685 98.3823 13.5685ZM0 129.386C0 118.725 1.52718 107.741 4.58153 96.4336C7.63588 85.1265 12.0567 74.3039 17.8439 63.966C23.6311 53.6281 30.6239 44.3401 38.8224 36.102C47.1817 27.864 56.5055 21.322 66.7939 16.4761C77.0822 11.6302 88.3351 9.20722 100.553 9.20722C118.396 9.20722 132.302 14.2954 142.269 24.4718C152.396 34.4867 157.46 48.8629 157.46 67.6004C157.46 78.2614 155.852 89.2455 152.637 100.553C149.583 111.698 145.162 122.44 139.375 132.778C133.588 143.116 126.515 152.404 118.155 160.642C109.957 168.88 100.633 175.422 90.1838 180.268C79.8955 185.114 68.723 187.537 56.6663 187.537C38.8224 187.537 24.9171 182.529 14.9503 172.514C4.98342 162.338 0 147.962 0 129.386Z" fill="black"/>
<path d="M258.378 100.31C252.591 116.463 247.045 130.113 241.74 141.258C236.435 152.404 231.13 161.369 225.825 168.153C220.681 174.937 215.376 179.864 209.91 182.933C204.605 186.002 199.059 187.537 193.272 187.537C186.199 187.537 181.055 185.921 177.839 182.691C174.624 179.46 173.017 175.099 173.017 169.607C173.017 164.115 174.142 157.896 176.393 150.95L199.783 80.1998C201.39 75.3539 201.953 71.6387 201.471 69.0542C200.988 66.4697 199.14 65.1775 195.924 65.1775C192.87 65.1775 189.816 66.8735 186.761 70.2657C183.868 73.6578 180.733 80.1998 177.357 89.8916L174.222 98.8565H169.641L175.669 81.169C178.081 74.3847 180.894 69.2157 184.109 65.6621C187.485 62.1084 190.941 59.6854 194.478 58.3932C198.175 56.9394 201.631 56.2125 204.846 56.2125C211.92 56.2125 216.582 57.9086 218.832 61.3007C221.243 64.5313 222.128 68.7311 221.485 73.9001C221.002 79.0691 219.797 84.4803 217.868 90.1339L194.96 159.43C190.459 172.999 192.227 179.783 200.265 179.783C204.123 179.783 208.222 178.087 212.563 174.695C216.903 171.141 221.324 166.134 225.825 159.673C230.326 153.05 234.747 145.216 239.087 136.17C243.588 126.963 247.848 116.786 251.867 105.641C256.047 94.3337 259.825 82.2189 263.201 69.2965L258.378 100.31ZM257.655 163.549C256.529 167.911 255.967 171.545 255.967 174.453C256.127 177.199 257.815 178.572 261.03 178.572C264.567 178.572 267.782 176.714 270.676 172.999C273.73 169.122 276.784 162.742 279.839 153.858L282.974 144.893H287.555L281.527 162.58C279.276 169.365 276.463 174.533 273.087 178.087C269.872 181.641 266.416 184.064 262.718 185.356C259.182 186.81 255.725 187.537 252.35 187.537C249.778 187.537 247.366 186.971 245.116 185.841C242.865 184.71 241.177 183.095 240.052 180.995C238.766 178.249 238.284 174.776 238.605 170.576C239.087 166.376 240.213 160.723 241.981 153.615L265.612 59.6047C269.631 59.4431 273.489 59.1201 277.186 58.6355C281.044 58.1509 284.501 57.3433 287.555 56.2125L257.655 163.549Z" fill="black"/>
<path d="M328.64 184.145H307.661L336.597 80.1998C338.205 74.7078 338.687 70.831 338.044 68.5696C337.562 66.3082 335.954 65.1775 333.222 65.1775C329.685 65.1775 326.47 67.0351 323.576 70.7503C320.683 74.4655 317.628 80.8459 314.413 89.8916L311.278 98.8565H306.697L312.725 81.169C315.137 74.3847 317.95 69.2157 321.165 65.6621C324.541 62.1084 327.997 59.6854 331.534 58.3932C335.231 56.9394 338.687 56.2125 341.902 56.2125C346.725 56.2125 350.101 57.2625 352.03 59.3624C354.12 61.4623 355.245 64.2083 355.406 67.6004C355.727 70.9926 355.486 74.7078 354.682 78.746C354.039 82.6227 353.236 86.4187 352.271 90.1339L328.64 184.145ZM390.611 62.2699C386.914 62.2699 383.056 64.0468 379.037 67.6004C375.179 70.9926 371.16 76 366.98 82.6227C362.961 89.084 358.862 96.9182 354.682 106.125C350.663 115.171 346.645 125.267 342.626 136.412C338.768 147.558 334.99 159.592 331.292 172.514L337.321 141.501C342.626 125.671 347.529 112.344 352.03 101.522C356.692 90.6992 361.273 81.9766 365.775 75.3539C370.276 68.5696 374.857 63.7237 379.519 60.8162C384.342 57.7471 389.406 56.2125 394.71 56.2125C399.212 56.2125 402.668 57.5048 405.079 60.0893C407.651 62.6738 408.937 65.9851 408.937 70.0234C408.937 73.254 408.134 76.2423 406.526 78.9883C404.918 81.5728 402.829 83.6727 400.257 85.288C397.845 86.7418 395.112 87.4687 392.058 87.4687C389.325 87.4687 386.994 86.7418 385.065 85.288C383.297 83.6727 382.413 81.492 382.413 78.746C382.413 76.1615 382.895 73.9001 383.859 71.9617C384.824 69.8618 386.11 68.085 387.718 66.6312C389.325 65.1775 391.174 64.0468 393.264 63.2391C392.942 62.916 392.54 62.6738 392.058 62.5122C391.737 62.3507 391.254 62.2699 390.611 62.2699Z" fill="black"/>
<path d="M511.349 100.31L512.796 95.4644H554.512L553.065 100.31H511.349ZM535.945 95.4644C541.25 95.4644 545.59 94.4145 548.966 92.3146C552.342 90.0531 555.075 87.2264 557.165 83.8342C559.415 80.4421 561.264 76.9692 562.711 73.4155C564.157 69.7003 565.524 66.3889 566.81 63.4814H572.356C569.302 72.6886 567.131 79.7152 565.845 84.5611C564.72 89.407 563.595 93.8491 562.469 97.8874C561.826 100.472 561.103 103.299 560.299 106.368C559.656 109.275 558.852 112.829 557.888 117.029C557.084 121.067 556.039 126.155 554.753 132.293H549.207C549.689 128.417 550.172 124.621 550.654 120.905C551.136 117.029 551.056 113.556 550.413 110.487C549.931 107.418 548.484 104.995 546.072 103.218C543.661 101.279 539.803 100.31 534.498 100.31L535.945 95.4644ZM599.845 56.2125C601.453 46.6823 602.096 39.1711 601.774 33.6791C601.453 28.0255 599.443 24.068 595.746 21.8066C592.209 19.3836 586.181 18.1722 577.661 18.1722H560.058C554.592 18.1722 550.332 18.6567 547.278 19.6259C544.385 20.4336 542.054 22.2912 540.285 25.1987C538.517 27.9447 536.829 32.3061 535.221 38.2827L503.151 158.461C501.543 164.276 500.82 168.638 500.98 171.545C501.302 174.453 502.749 176.391 505.321 177.36C507.893 178.168 511.912 178.572 517.378 178.572H534.98C545.108 178.572 553.146 177.199 559.094 174.453C565.042 171.707 570.025 167.265 574.044 161.126C578.063 154.827 582.001 146.346 585.859 135.685H591.405C590.602 137.785 589.718 140.37 588.753 143.439C587.788 146.508 586.904 149.739 586.101 153.131C585.297 156.2 584.252 160.642 582.966 166.457C581.68 172.111 580.554 178.006 579.59 184.145C571.391 183.821 562.148 183.66 551.86 183.66C541.571 183.498 532.408 183.418 524.37 183.418C520.834 183.418 516.252 183.418 510.626 183.418C505.16 183.418 499.212 183.498 492.782 183.66C486.352 183.66 479.841 183.741 473.25 183.902C466.659 183.902 460.47 183.983 454.683 184.145L455.889 179.299C461.354 178.976 465.614 178.329 468.669 177.36C471.723 176.391 474.054 174.453 475.662 171.545C477.43 168.638 479.118 164.276 480.725 158.461L512.796 38.2827C514.404 32.3061 515.047 27.9447 514.725 25.1987C514.564 22.2912 513.198 20.3528 510.626 19.3836C508.215 18.2529 504.276 17.6068 498.81 17.4453L500.016 12.5994C505.964 12.7609 512.233 12.9224 518.824 13.084C525.415 13.084 531.926 13.1647 538.356 13.3262C544.786 13.3262 550.734 13.3262 556.2 13.3262C561.826 13.3262 566.408 13.3262 569.945 13.3262C577.018 13.3262 584.975 13.3262 593.817 13.3262C602.819 13.1647 610.857 12.9224 617.93 12.5994C615.84 18.2529 613.992 23.745 612.384 29.0755C610.776 34.4059 609.571 38.4442 608.767 41.1902C607.963 44.0978 607.24 46.9246 606.597 49.6706C606.115 52.2551 605.713 54.4357 605.391 56.2125H599.845Z" fill="black"/>
<path d="M687.943 165.245C688.586 169.445 689.551 172.353 690.837 173.968C692.284 175.583 694.052 176.391 696.142 176.391C698.553 176.391 701.045 175.018 703.617 172.272C706.189 169.365 709.083 163.307 712.298 154.1L715.433 145.135H720.014L713.986 162.823C711.735 169.284 709.083 174.291 706.028 177.845C703.135 181.398 700 183.902 696.624 185.356C693.409 186.81 690.033 187.537 686.497 187.537C681.513 187.537 677.173 185.921 673.475 182.691C669.778 179.46 667.447 173.645 666.483 165.245L656.837 78.5037C656.194 74.3039 655.149 71.3964 653.703 69.7811C652.417 68.1658 650.729 67.3581 648.639 67.3581C647.031 67.3581 645.343 67.9235 643.575 69.0542C641.967 70.1849 640.279 72.3656 638.511 75.5962C636.743 78.8268 634.733 83.5112 632.483 89.6493L629.348 98.6142H624.767L630.795 80.9267C633.206 74.4655 635.859 69.458 638.752 65.9044C641.646 62.3507 644.781 59.847 648.156 58.3932C651.532 56.9394 654.908 56.2125 658.284 56.2125C663.911 56.2125 668.412 57.8278 671.788 61.0584C675.163 64.1275 677.334 69.9426 678.298 78.5037L687.943 165.245ZM708.199 70.9926C703.215 75.5154 698.875 80.7651 695.177 86.7418C691.48 92.7184 688.345 98.7758 685.773 104.914C683.201 110.891 681.031 116.383 679.263 121.39C679.263 121.39 678.459 121.39 676.851 121.39C675.244 121.228 674.44 121.148 674.44 121.148C675.565 117.917 676.851 114.363 678.298 110.487C679.745 106.448 681.513 102.249 683.603 97.8874C685.693 93.526 688.185 89.084 691.078 84.5611C694.133 79.8767 697.589 75.3539 701.447 70.9926C706.109 65.6621 710.289 61.8661 713.986 59.6047C717.683 57.3433 721.541 56.2125 725.56 56.2125C728.615 56.2125 731.106 57.0202 733.035 58.6355C735.125 60.2508 736.17 62.4315 736.17 65.1775C736.17 68.2465 734.964 70.9926 732.553 73.4155C730.303 75.6769 727.248 76.8077 723.39 76.8077C719.853 76.8077 716.799 76.1615 714.227 74.8693C711.655 73.4155 709.646 72.1233 708.199 70.9926ZM629.83 172.757C637.386 165.811 644.057 157.654 649.844 148.285C655.632 138.916 660.052 130.274 663.107 122.359C663.107 122.359 663.75 122.521 665.036 122.844C666.483 123.167 667.206 123.328 667.206 123.328C665.599 127.69 663.509 132.536 660.937 137.866C658.525 143.197 655.391 148.769 651.532 154.584C647.674 160.4 642.932 166.376 637.306 172.514C632.483 177.522 628.142 181.318 624.284 183.902C620.426 186.325 616.648 187.537 612.951 187.537C609.414 187.537 606.762 186.729 604.994 185.114C603.065 183.498 602.1 181.318 602.1 178.572C602.1 175.503 603.306 172.837 605.717 170.576C608.128 168.153 611.102 166.942 614.639 166.942C618.336 166.942 621.391 167.588 623.802 168.88C626.213 170.172 628.223 171.464 629.83 172.757Z" fill="black"/>
<path d="M828.854 63.966C824.674 63.966 819.932 66.9543 814.627 72.9309C809.483 78.746 804.178 86.7418 798.712 96.9182C793.407 106.933 788.343 118.24 783.521 130.84C778.859 143.439 774.92 156.523 771.705 170.091L776.046 143.923C782.958 122.763 789.629 105.802 796.06 93.0415C802.49 80.119 808.92 70.7503 815.35 64.9352C821.941 59.1201 828.773 56.2125 835.847 56.2125C843.402 56.2125 849.43 59.0393 853.932 64.6929C858.594 70.3464 860.924 78.9075 860.924 90.3762C860.924 97.6451 859.88 105.641 857.79 114.363C855.861 123.086 852.887 131.728 848.868 140.289C845.01 148.85 840.187 156.765 834.4 164.034C828.773 171.141 822.263 176.876 814.868 181.237C807.473 185.437 799.275 187.537 790.272 187.537C785.45 187.537 781.109 186.083 777.251 183.175C773.554 180.268 771.062 176.068 769.776 170.576L771.705 165.73C773.956 171.707 776.528 175.906 779.422 178.329C782.476 180.752 786.012 181.964 790.031 181.964C795.497 181.964 800.722 179.864 805.705 175.664C810.688 171.303 815.27 165.569 819.45 158.461C823.629 151.354 827.246 143.52 830.301 134.959C833.516 126.236 835.927 117.594 837.535 109.033C839.303 100.31 840.187 92.3146 840.187 85.0457C840.187 77.9384 839.142 72.6886 837.052 69.2965C835.123 65.7428 832.39 63.966 828.854 63.966ZM792.684 22.5335C796.542 22.3719 800.32 22.0489 804.017 21.5643C807.875 21.0797 811.412 20.2721 814.627 19.1413L761.578 205.467C759.648 212.251 760.613 216.854 764.471 219.277C768.329 221.7 773.875 222.912 781.109 222.912L779.663 228C776.448 227.838 771.866 227.596 765.918 227.273C760.131 227.112 753.942 227.031 747.351 227.031C742.367 227.031 737.304 227.112 732.159 227.273C727.015 227.596 723.157 227.838 720.585 228L722.032 222.912C727.819 222.912 731.999 221.781 734.571 219.52C737.143 217.42 739.233 213.543 740.84 207.889L792.684 22.5335ZM742.528 97.6451C748.798 91.5069 754.665 85.4495 760.131 79.4729C765.596 73.3348 770.901 66.0659 776.046 57.6663C781.19 49.2667 786.414 38.6865 791.719 25.9256L792.443 29.8023C788.906 40.7864 784.646 50.4782 779.663 58.8778C774.84 67.1158 769.535 74.627 763.748 81.4113C757.961 88.034 751.772 94.4952 745.181 100.795L742.528 97.6451Z" fill="black"/>
<path d="M890.29 129.143C899.292 126.074 907.41 123.086 914.644 120.179C922.039 117.109 927.907 113.879 932.247 110.487C938.034 105.802 942.616 100.149 945.992 93.526C949.368 86.9033 951.056 79.6344 951.056 71.7194C951.056 67.0351 950.734 64.0468 950.091 62.7545C949.448 61.4623 948.483 60.8162 947.197 60.8162C943.178 60.8162 938.838 62.593 934.176 66.1467C929.514 69.7003 924.933 74.627 920.432 80.9267C915.931 87.0648 911.751 94.0914 907.893 102.006C904.195 109.921 901.221 118.402 898.971 127.447C896.72 136.332 895.595 145.216 895.595 154.1C895.595 162.338 897.122 168.315 900.176 172.03C903.231 175.583 907.25 177.36 912.233 177.36C918.02 177.36 924.129 175.583 930.559 172.03C936.989 168.476 943.259 162.176 949.368 153.131L953.226 155.069C950.171 160.4 946.153 165.569 941.169 170.576C936.186 175.583 930.559 179.702 924.29 182.933C918.181 186.002 911.67 187.537 904.758 187.537C898.328 187.537 892.701 186.244 887.879 183.66C883.056 181.075 879.359 177.279 876.787 172.272C874.214 167.103 872.928 160.803 872.928 153.373C872.928 146.427 874.214 138.674 876.787 130.113C879.359 121.39 882.976 112.748 887.638 104.187C892.46 95.4644 898.167 87.4687 904.758 80.1998C911.349 72.9309 918.663 67.1158 926.701 62.7545C934.739 58.3932 943.339 56.2125 952.502 56.2125C957.486 56.2125 961.665 57.5856 965.041 60.3316C968.578 62.916 970.346 66.8735 970.346 72.204C970.346 78.6653 968.417 84.7226 964.559 90.3762C960.862 95.8682 955.878 100.956 949.609 105.641C943.5 110.164 936.829 114.202 929.595 117.756C922.361 121.309 915.287 124.378 908.375 126.963C901.462 129.547 895.354 131.647 890.049 133.262L890.29 129.143Z" fill="black"/>
<path d="M1002.59 184.145H981.61L1010.55 80.1998C1012.15 74.7078 1012.64 70.831 1011.99 68.5696C1011.51 66.3082 1009.9 65.1775 1007.17 65.1775C1003.63 65.1775 1000.42 67.0351 997.525 70.7503C994.631 74.4655 991.577 80.8459 988.362 89.8916L985.227 98.8565H980.645L986.674 81.169C989.085 74.3847 991.898 69.2157 995.113 65.6621C998.489 62.1084 1001.95 59.6854 1005.48 58.3932C1009.18 56.9394 1012.64 56.2125 1015.85 56.2125C1020.67 56.2125 1024.05 57.2625 1025.98 59.3624C1028.07 61.4623 1029.19 64.2083 1029.35 67.6004C1029.68 70.9926 1029.43 74.7078 1028.63 78.746C1027.99 82.6227 1027.18 86.4187 1026.22 90.1339L1002.59 184.145ZM1064.56 62.2699C1060.86 62.2699 1057 64.0468 1052.99 67.6004C1049.13 70.9926 1045.11 76 1040.93 82.6227C1036.91 89.084 1032.81 96.9182 1028.63 106.125C1024.61 115.171 1020.59 125.267 1016.57 136.412C1012.72 147.558 1008.94 159.592 1005.24 172.514L1011.27 141.501C1016.57 125.671 1021.48 112.344 1025.98 101.522C1030.64 90.6992 1035.22 81.9766 1039.72 75.3539C1044.22 68.5696 1048.81 63.7237 1053.47 60.8162C1058.29 57.7471 1063.35 56.2125 1068.66 56.2125C1073.16 56.2125 1076.62 57.5048 1079.03 60.0893C1081.6 62.6738 1082.89 65.9851 1082.89 70.0234C1082.89 73.254 1082.08 76.2423 1080.47 78.9883C1078.87 81.5728 1076.78 83.6727 1074.2 85.288C1071.79 86.7418 1069.06 87.4687 1066.01 87.4687C1063.27 87.4687 1060.94 86.7418 1059.01 85.288C1057.25 83.6727 1056.36 81.492 1056.36 78.746C1056.36 76.1615 1056.84 73.9001 1057.81 71.9617C1058.77 69.8618 1060.06 68.085 1061.67 66.6312C1063.27 65.1775 1065.12 64.0468 1067.21 63.2391C1066.89 62.916 1066.49 62.6738 1066.01 62.5122C1065.68 62.3507 1065.2 62.2699 1064.56 62.2699Z" fill="black"/>
<path d="M1166.51 59.6047L1165.78 64.4506H1090.79L1092 59.6047H1166.51ZM1105.26 163.549C1103.81 168.88 1104.13 172.757 1106.22 175.18C1108.47 177.441 1111.37 178.572 1114.9 178.572C1118.44 178.572 1121.98 177.037 1125.51 173.968C1129.21 170.899 1132.83 164.357 1136.36 154.342L1139.74 144.893H1144.32L1139.26 160.157C1135.72 170.657 1131.14 177.845 1125.51 181.722C1120.05 185.598 1113.62 187.537 1106.22 187.537C1099.63 187.537 1094.57 186.164 1091.03 183.418C1087.66 180.51 1085.65 176.472 1085 171.303C1084.36 166.134 1085 160.238 1086.93 153.615L1124.31 22.7758C1128.17 22.6142 1131.94 22.2912 1135.64 21.8066C1139.5 21.322 1142.96 20.5144 1146.01 19.3836L1105.26 163.549Z" fill="black"/>
<path d="M1202.66 15.5069C1203.46 11.3071 1205.55 7.67269 1208.93 4.60361C1212.47 1.53454 1216.24 0 1220.26 0C1224.44 0 1227.66 1.53454 1229.91 4.60361C1232.32 7.67269 1233.12 11.3071 1232.32 15.5069C1231.52 19.7067 1229.35 23.3411 1225.81 26.4102C1222.43 29.4793 1218.66 31.0138 1214.48 31.0138C1210.46 31.0138 1207.24 29.4793 1204.83 26.4102C1202.58 23.3411 1201.86 19.7067 1202.66 15.5069ZM1195.19 80.1998C1198.56 70.1849 1197.44 65.1775 1191.81 65.1775C1188.11 65.1775 1184.82 67.1966 1181.92 71.2349C1179.03 75.2731 1175.98 81.492 1172.76 89.8916L1169.38 98.8565H1164.8L1171.07 81.169C1173.48 74.3847 1176.38 69.2157 1179.75 65.6621C1183.13 62.1084 1186.67 59.6854 1190.36 58.3932C1194.22 56.9394 1197.76 56.2125 1200.97 56.2125C1206.12 56.2125 1209.9 57.2625 1212.31 59.3624C1214.72 61.4623 1216.16 64.2083 1216.65 67.6004C1217.13 70.9926 1216.97 74.7078 1216.16 78.746C1215.36 82.6227 1214.32 86.4187 1213.03 90.1339L1187.23 163.549C1185.62 168.234 1185.06 171.949 1185.54 174.695C1186.18 177.279 1188.03 178.572 1191.09 178.572C1194.3 178.572 1197.36 176.795 1200.25 173.241C1203.14 169.688 1206.36 163.226 1209.9 153.858L1213.27 144.893H1217.85L1211.58 162.58C1209.33 168.88 1206.6 173.887 1203.38 177.603C1200.17 181.156 1196.71 183.66 1193.02 185.114C1189.32 186.729 1185.62 187.537 1181.92 187.537C1175.01 187.537 1170.35 185.921 1167.94 182.691C1165.53 179.46 1164.64 175.26 1165.29 170.091C1165.93 164.922 1167.29 159.43 1169.38 153.615L1195.19 80.1998Z" fill="black"/>
<path d="M1244.08 180.51C1245.36 181.156 1246.73 181.722 1248.18 182.206C1249.78 182.529 1252.12 182.691 1255.17 182.691C1262.24 182.691 1268.03 180.591 1272.53 176.391C1277.19 172.03 1279.52 165.811 1279.52 157.734C1279.52 152.727 1278.56 147.8 1276.63 142.954C1274.86 137.947 1271.65 132.213 1266.99 125.751C1263.29 120.582 1259.75 115.333 1256.38 110.002C1253 104.51 1251.31 98.0489 1251.31 90.6185C1251.31 83.6727 1253 77.6961 1256.38 72.6886C1259.75 67.5197 1264.25 63.4814 1269.88 60.5739C1275.67 57.6663 1281.94 56.2125 1288.69 56.2125C1293.35 56.2125 1297.93 56.7779 1302.43 57.9086C1306.93 59.0393 1310.63 61.1392 1313.52 64.2083C1316.58 67.1158 1318.11 71.4771 1318.11 77.2922C1318.11 78.746 1317.7 80.5229 1316.9 82.6227C1316.26 84.5611 1315.13 86.2572 1313.52 87.7109C1311.92 89.1647 1309.75 89.8916 1307.01 89.8916C1304.44 89.8916 1302.19 89.0032 1300.26 87.2264C1298.33 85.288 1297.37 82.7843 1297.37 79.7152C1297.37 76.8076 1297.93 74.0616 1299.06 71.4771C1300.34 68.7311 1302.03 66.0659 1304.12 63.4814C1301.07 61.543 1297.05 60.5739 1292.06 60.5739C1286.12 60.5739 1281.13 62.593 1277.11 66.6312C1273.09 70.6695 1271.08 76.3231 1271.08 83.5919C1271.08 87.3071 1271.65 90.6185 1272.77 93.526C1273.9 96.272 1275.51 99.1796 1277.6 102.249C1279.85 105.318 1282.5 109.194 1285.55 113.879C1289.57 120.017 1292.95 125.913 1295.68 131.566C1298.41 137.22 1299.78 143.197 1299.78 149.496C1299.78 156.927 1297.85 163.549 1293.99 169.365C1290.29 175.018 1285.31 179.46 1279.04 182.691C1272.77 185.921 1265.86 187.537 1258.3 187.537C1252.84 187.537 1247.61 186.729 1242.63 185.114C1237.65 183.498 1233.55 180.995 1230.33 177.603C1227.28 174.049 1225.75 169.365 1225.75 163.549C1225.75 161.288 1226.47 158.946 1227.92 156.523C1229.21 153.938 1231.62 152.646 1235.16 152.646C1239.01 152.646 1241.75 154.261 1243.35 157.492C1244.96 160.561 1245.77 164.034 1245.77 167.911C1245.77 170.495 1245.52 172.837 1245.04 174.937C1244.72 176.876 1244.4 178.733 1244.08 180.51Z" fill="black"/>
<path d="M1341.94 129.143C1350.95 126.074 1359.06 123.086 1366.3 120.179C1373.69 117.109 1379.56 113.879 1383.9 110.487C1389.69 105.802 1394.27 100.149 1397.65 93.526C1401.02 86.9033 1402.71 79.6344 1402.71 71.7194C1402.71 67.0351 1402.39 64.0468 1401.74 62.7545C1401.1 61.4623 1400.14 60.8162 1398.85 60.8162C1394.83 60.8162 1390.49 62.593 1385.83 66.1467C1381.17 69.7003 1376.59 74.627 1372.09 80.9267C1367.58 87.0648 1363.4 94.0914 1359.55 102.006C1355.85 109.921 1352.88 118.402 1350.62 127.447C1348.37 136.332 1347.25 145.216 1347.25 154.1C1347.25 162.338 1348.78 168.315 1351.83 172.03C1354.88 175.583 1358.9 177.36 1363.89 177.36C1369.67 177.36 1375.78 175.583 1382.21 172.03C1388.64 168.476 1394.91 162.176 1401.02 153.131L1404.88 155.069C1401.83 160.4 1397.81 165.569 1392.82 170.576C1387.84 175.583 1382.21 179.702 1375.94 182.933C1369.83 186.002 1363.32 187.537 1356.41 187.537C1349.98 187.537 1344.36 186.244 1339.53 183.66C1334.71 181.075 1331.01 177.279 1328.44 172.272C1325.87 167.103 1324.58 160.803 1324.58 153.373C1324.58 146.427 1325.87 138.674 1328.44 130.113C1331.01 121.39 1334.63 112.748 1339.29 104.187C1344.11 95.4644 1349.82 87.4687 1356.41 80.1998C1363 72.9309 1370.32 67.1158 1378.35 62.7545C1386.39 58.3932 1394.99 56.2125 1404.16 56.2125C1409.14 56.2125 1413.32 57.5856 1416.69 60.3316C1420.23 62.916 1422 66.8735 1422 72.204C1422 78.6653 1420.07 84.7226 1416.21 90.3762C1412.52 95.8682 1407.53 100.956 1401.26 105.641C1395.15 110.164 1388.48 114.202 1381.25 117.756C1374.01 121.309 1366.94 124.378 1360.03 126.963C1353.12 129.547 1347.01 131.647 1341.7 133.262L1341.94 129.143Z" fill="black"/>
</svg>
