<svg width="1230" height="228" viewBox="0 0 1230 228" fill="none" xmlns="http://www.w3.org/2000/svg">
<path d="M126.481 5.57609C116.975 5.57609 107.571 8.46739 98.2712 14.25C89.1777 19.8261 80.7043 27.6739 72.8509 37.7935C64.9974 47.7065 58.074 59.1685 52.0806 72.1794C46.0872 84.9837 41.3338 98.7174 37.8204 113.38C34.5137 128.043 32.8604 142.81 32.8604 157.679C32.8604 177.918 36.7871 193.821 44.6405 205.386C52.7006 216.745 63.0341 222.424 75.6409 222.424C85.1477 222.424 94.4478 219.636 103.541 214.06C112.841 208.277 121.418 200.429 129.272 190.516C137.125 180.397 144.048 168.935 150.042 156.13C156.035 143.12 160.685 129.283 163.992 114.62C167.505 99.9565 169.262 85.1902 169.262 70.3207C169.262 50.0815 165.232 34.2826 157.172 22.9239C149.318 11.3587 139.088 5.57609 126.481 5.57609ZM0 153.652C0 140.022 1.96336 125.978 5.89007 111.522C9.81678 97.0652 15.5002 83.2283 22.9403 70.0109C30.3804 56.7935 39.3705 44.9185 49.9106 34.3859C60.6574 23.8533 72.6442 15.4891 85.871 9.29349C99.0978 3.09783 113.565 0 129.272 0C152.212 0 170.089 6.50544 182.902 19.5163C195.922 32.3207 202.432 50.7011 202.432 74.6576C202.432 88.288 200.366 102.332 196.232 116.788C192.306 131.038 186.622 144.772 179.182 157.989C171.742 171.207 162.649 183.082 151.902 193.614C141.362 204.147 129.375 212.511 115.941 218.707C102.715 224.902 88.351 228 72.8509 228C49.9106 228 32.0337 221.598 19.2202 208.793C6.40674 195.783 0 177.402 0 153.652Z" fill="black"/>
<path d="M332.174 116.478C324.734 137.13 317.604 154.582 310.783 168.832C303.963 183.082 297.143 194.543 290.323 203.217C283.71 211.891 276.89 218.19 269.863 222.114C263.043 226.038 255.913 228 248.473 228C239.379 228 232.766 225.935 228.633 221.804C224.499 217.674 222.432 212.098 222.432 205.076C222.432 198.054 223.879 190.103 226.772 181.223L256.843 90.7663C258.91 84.5707 259.633 79.8207 259.013 76.5163C258.393 73.212 256.016 71.5598 251.883 71.5598C247.956 71.5598 244.029 73.7283 240.103 78.0652C236.383 82.4022 232.353 90.7663 228.012 103.158L223.982 114.62H218.092L225.842 92.0054C228.943 83.3315 232.559 76.7228 236.693 72.1794C241.033 67.6359 245.476 64.538 250.023 62.8859C254.776 61.0272 259.22 60.0978 263.353 60.0978C272.446 60.0978 278.44 62.2663 281.333 66.6033C284.433 70.7337 285.57 76.1033 284.743 82.712C284.123 89.3207 282.573 96.2391 280.093 103.467L250.643 192.065C244.856 209.413 247.129 218.087 257.463 218.087C262.423 218.087 267.693 215.918 273.273 211.582C278.853 207.038 284.536 200.636 290.323 192.375C296.11 183.908 301.793 173.891 307.373 162.326C313.16 150.554 318.637 137.543 323.804 123.293C329.177 108.837 334.034 93.3478 338.374 76.8261L332.174 116.478ZM331.244 197.332C329.797 202.908 329.074 207.554 329.074 211.272C329.28 214.783 331.45 216.538 335.584 216.538C340.13 216.538 344.264 214.163 347.984 209.413C351.911 204.457 355.837 196.299 359.764 184.94L363.794 173.478H369.684L361.934 196.092C359.041 204.766 355.424 211.375 351.084 215.918C346.951 220.462 342.507 223.56 337.754 225.212C333.207 227.071 328.764 228 324.424 228C321.117 228 318.017 227.277 315.124 225.832C312.23 224.386 310.06 222.321 308.613 219.636C306.96 216.125 306.34 211.685 306.753 206.315C307.373 200.946 308.82 193.717 311.093 184.63L341.474 64.4348C346.641 64.2283 351.601 63.8152 356.354 63.1957C361.314 62.5761 365.757 61.5435 369.684 60.0978L331.244 197.332Z" fill="black"/>
<path d="M422.503 223.663H395.533L432.734 90.7663C434.8 83.7446 435.42 78.788 434.594 75.8967C433.974 73.0054 431.907 71.5598 428.394 71.5598C423.847 71.5598 419.713 73.9348 415.993 78.6848C412.273 83.4348 408.347 91.5924 404.213 103.158L400.183 114.62H394.293L402.043 92.0054C405.143 83.3315 408.76 76.7228 412.893 72.1794C417.233 67.6359 421.677 64.538 426.223 62.8859C430.977 61.0272 435.42 60.0978 439.554 60.0978C445.754 60.0978 450.094 61.4402 452.574 64.125C455.26 66.8098 456.707 70.3207 456.914 74.6576C457.327 78.9946 457.017 83.7446 455.984 88.9076C455.157 93.8641 454.124 98.7174 452.884 103.467L422.503 223.663ZM502.174 67.8424C497.421 67.8424 492.461 70.1141 487.294 74.6576C482.334 78.9946 477.167 85.3968 471.794 93.8641C466.627 102.125 461.357 112.141 455.984 123.913C450.817 135.478 445.65 148.386 440.484 162.636C435.524 176.886 430.667 192.272 425.914 208.793L433.664 169.141C440.484 148.902 446.787 131.864 452.574 118.027C458.567 104.19 464.457 93.038 470.244 84.5707C476.031 75.8967 481.921 69.7011 487.914 65.9837C494.114 62.0598 500.624 60.0978 507.444 60.0978C513.231 60.0978 517.675 61.75 520.775 65.0544C524.081 68.3587 525.735 72.5924 525.735 77.7554C525.735 81.8859 524.701 85.7065 522.635 89.2174C520.568 92.5217 517.881 95.2065 514.575 97.2717C511.475 99.1304 507.961 100.06 504.034 100.06C500.521 100.06 497.524 99.1304 495.044 97.2717C492.771 95.2065 491.634 92.4185 491.634 88.9076C491.634 85.6033 492.254 82.712 493.494 80.2337C494.734 77.5489 496.388 75.2772 498.454 73.4185C500.521 71.5598 502.898 70.1141 505.584 69.0815C505.171 68.6685 504.654 68.3587 504.034 68.1522C503.621 67.9457 503.001 67.8424 502.174 67.8424Z" fill="black"/>
<path d="M711.647 64.4348L710.717 70.6304H614.306L615.856 64.4348H711.647ZM632.906 197.332C631.046 204.147 631.46 209.103 634.146 212.201C637.04 215.092 640.76 216.538 645.306 216.538C649.853 216.538 654.4 214.576 658.947 210.652C663.7 206.728 668.35 198.364 672.897 185.56L677.237 173.478H683.127L676.617 192.995C672.07 206.418 666.18 215.609 658.947 220.565C651.92 225.522 643.653 228 634.146 228C625.673 228 619.163 226.245 614.616 222.734C610.276 219.016 607.693 213.853 606.866 207.245C606.039 200.636 606.866 193.098 609.346 184.63L657.397 17.3478C662.357 17.1413 667.213 16.7283 671.967 16.1087C676.927 15.4891 681.37 14.4565 685.297 13.0109L632.906 197.332Z" fill="black"/>
<path d="M725.578 153.342C737.151 149.418 747.588 145.598 756.888 141.88C766.395 137.957 773.939 133.826 779.519 129.489C786.959 123.5 792.849 116.272 797.189 107.804C801.529 99.337 803.699 90.0435 803.699 79.9239C803.699 73.9348 803.286 70.1141 802.459 68.462C801.632 66.8098 800.392 65.9837 798.739 65.9837C793.572 65.9837 787.992 68.2554 781.999 72.7989C776.005 77.3424 770.115 83.6413 764.328 91.6957C758.542 99.5435 753.168 108.527 748.208 118.647C743.455 128.766 739.632 139.609 736.738 151.174C733.845 162.533 732.398 173.891 732.398 185.25C732.398 195.783 734.361 203.424 738.288 208.174C742.215 212.717 747.382 214.989 753.788 214.989C761.228 214.989 769.082 212.717 777.349 208.174C785.615 203.63 793.675 195.576 801.529 184.011L806.489 186.489C802.562 193.304 797.396 199.913 790.989 206.315C784.582 212.717 777.349 217.984 769.289 222.114C761.435 226.038 753.065 228 744.178 228C735.911 228 728.678 226.348 722.478 223.043C716.278 219.739 711.525 214.886 708.218 208.484C704.911 201.875 703.258 193.821 703.258 184.321C703.258 175.44 704.911 165.527 708.218 154.582C711.525 143.429 716.175 132.38 722.168 121.435C728.368 110.283 735.705 100.06 744.178 90.7663C752.652 81.4728 762.055 74.038 772.389 68.462C782.722 62.8859 793.779 60.0978 805.559 60.0978C811.966 60.0978 817.339 61.8533 821.679 65.3641C826.226 68.6685 828.499 73.7283 828.499 80.5435C828.499 88.8044 826.019 96.5489 821.059 103.777C816.306 110.799 809.899 117.304 801.839 123.293C793.985 129.076 785.409 134.239 776.109 138.783C766.808 143.326 757.715 147.25 748.828 150.554C739.942 153.859 732.088 156.543 725.268 158.609L725.578 153.342Z" fill="black"/>
<path d="M873.36 218.087C878.32 218.087 884.004 214.989 890.41 208.793C896.817 202.391 903.327 193.821 909.941 183.082C916.554 172.342 922.651 160.158 928.231 146.527C933.811 132.897 938.254 118.75 941.561 104.087L936.291 137.543C928.437 159.435 920.584 177.092 912.731 190.516C904.877 203.734 896.92 213.337 888.86 219.326C880.8 225.109 872.637 228 864.37 228C854.657 228 847.32 224.489 842.36 217.467C837.606 210.446 835.23 201.462 835.23 190.516C835.23 180.603 836.883 169.864 840.19 158.299C843.496 146.527 848.043 134.859 853.83 123.293C859.823 111.728 866.643 101.196 874.29 91.6957C881.937 82.1957 890.204 74.5544 899.09 68.7718C908.184 62.9891 917.381 60.0978 926.681 60.0978C933.914 60.0978 939.391 63.712 943.111 70.9402C947.038 77.962 947.864 87.875 945.591 100.679L942.181 102.538C943.628 91.5924 942.904 82.8152 940.011 76.2065C937.117 69.3913 932.364 65.9837 925.751 65.9837C920.377 65.9837 914.694 68.6685 908.701 74.0381C902.914 79.2011 897.23 86.3261 891.65 95.413C886.277 104.293 881.317 114.31 876.77 125.462C872.43 136.614 868.917 148.179 866.23 160.158C863.75 171.929 862.51 183.288 862.51 194.234C862.51 203.114 863.44 209.31 865.3 212.821C867.367 216.332 870.053 218.087 873.36 218.087ZM951.481 64.4348C956.441 64.2283 961.401 63.8152 966.361 63.1957C971.321 62.5761 975.868 61.5435 980.001 60.0978L941.251 197.022C940.838 198.88 940.218 201.359 939.391 204.457C938.771 207.348 938.771 210.033 939.391 212.511C940.218 214.989 942.388 216.228 945.901 216.228C950.034 216.228 954.064 213.957 957.991 209.413C961.918 204.87 965.845 196.609 969.771 184.63L973.491 173.168H979.381L971.631 195.783C968.738 204.043 965.225 210.549 961.091 215.299C957.164 219.842 953.031 223.043 948.691 224.902C944.351 226.967 940.114 228 935.981 228C927.921 228 922.237 225.315 918.931 219.946C916.244 215.196 915.521 209.723 916.761 203.527C918.001 197.125 919.447 190.723 921.101 184.321L951.481 64.4348Z" fill="black"/>
<path d="M1032.22 223.663H1005.25L1042.45 90.7663C1043.07 88.9076 1043.58 86.5326 1044 83.6413C1044.62 80.5435 1044.62 77.7554 1044 75.2772C1043.38 72.7989 1041.41 71.5598 1038.11 71.5598C1033.56 71.5598 1029.43 73.9348 1025.71 78.6848C1021.99 83.4348 1018.06 91.5924 1013.93 103.158L1009.9 114.62H1004.01L1011.76 92.0054C1014.86 83.3315 1018.47 76.7228 1022.61 72.1794C1026.95 67.6359 1031.39 64.538 1035.94 62.8859C1040.69 61.0272 1045.13 60.0978 1049.27 60.0978C1055.47 60.0978 1059.91 61.5435 1062.6 64.4348C1065.28 67.1196 1066.73 70.7337 1066.94 75.2772C1067.35 79.6141 1067.04 84.2609 1066.01 89.2174C1064.97 94.1739 1063.84 98.9239 1062.6 103.467L1032.22 223.663ZM1119.95 96.0326C1121.4 91.6957 1122.33 87.5652 1122.74 83.6413C1123.36 79.7174 1123.05 76.5163 1121.81 74.0381C1120.78 71.3533 1118.3 70.0109 1114.37 70.0109C1108.58 70.0109 1102.18 73.625 1095.15 80.8533C1088.33 87.875 1081.3 97.7881 1074.07 110.592C1067.04 123.19 1060.22 137.957 1053.61 154.891C1046.99 171.62 1041.1 189.587 1035.94 208.793L1046.17 159.228C1055.67 134.446 1064.56 114.826 1072.83 100.37C1081.09 85.913 1089.36 75.587 1097.63 69.3913C1106.1 63.1957 1115.09 60.0978 1124.6 60.0978C1131.21 60.0978 1135.97 61.6468 1138.86 64.7446C1141.96 67.6359 1143.82 71.4565 1144.44 76.2065C1145.06 80.9565 1144.85 86.0163 1143.82 91.3859C1142.99 96.7554 1141.96 101.918 1140.72 106.875L1109.1 223.663H1081.2L1119.95 96.0326ZM1197.45 96.0326C1199.52 89.6304 1200.55 83.7446 1200.55 78.375C1200.55 72.7989 1198.28 70.0109 1193.73 70.0109C1187.53 70.0109 1181.02 73.625 1174.2 80.8533C1167.38 88.0815 1160.35 98.4076 1153.12 111.832C1145.89 125.049 1138.65 140.641 1131.42 158.609C1124.39 176.37 1117.57 195.989 1110.96 217.467L1118.09 177.815C1126.15 156.337 1133.59 138.163 1140.41 123.293C1147.23 108.217 1153.95 96.0326 1160.56 86.7391C1167.17 77.4457 1173.99 70.7337 1181.02 66.6033C1188.05 62.2663 1195.69 60.0978 1203.96 60.0978C1212.64 60.0978 1218.53 62.5761 1221.63 67.5326C1224.73 72.4891 1225.97 78.5815 1225.35 85.8098C1224.94 92.8315 1223.59 99.8533 1221.32 106.875L1191.25 197.332C1189.18 203.734 1188.46 208.587 1189.08 211.891C1189.7 214.989 1192.08 216.538 1196.21 216.538C1200.14 216.538 1203.96 214.37 1207.68 210.033C1211.61 205.696 1215.74 197.332 1220.08 184.94L1224.11 173.478H1230L1222.25 196.092C1219.36 204.766 1215.74 211.375 1211.4 215.918C1207.27 220.462 1202.82 223.56 1198.07 225.212C1193.52 227.071 1189.08 228 1184.74 228C1179.57 228 1175.44 227.174 1172.34 225.522C1169.45 224.076 1167.17 222.114 1165.52 219.636C1163.04 215.712 1162.21 210.859 1163.04 205.076C1163.87 199.087 1165.52 192.272 1168 184.63L1197.45 96.0326Z" fill="black"/>
</svg>
