<svg width="1002" height="228" viewBox="0 0 1002 228" fill="none" xmlns="http://www.w3.org/2000/svg">
<path d="M101.963 4.50989C94.2988 4.50989 86.7182 6.84835 79.221 11.5253C71.8903 16.0352 65.0595 22.3824 58.7285 30.567C52.3975 38.5846 46.8162 47.8549 41.9846 58.378C37.1531 68.7341 33.3211 79.8418 30.4888 91.7011C27.8231 103.56 26.4903 115.503 26.4903 127.53C26.4903 143.899 29.6558 156.76 35.9868 166.114C42.4844 175.301 50.8147 179.895 60.9777 179.895C68.6415 179.895 76.1388 177.64 83.4694 173.13C90.9667 168.453 97.8808 162.105 104.212 154.088C110.543 145.903 116.124 136.633 120.956 126.277C125.787 115.754 129.536 104.563 132.202 92.7033C135.034 80.844 136.45 68.9011 136.45 56.8747C136.45 40.5055 133.201 27.7275 126.704 18.5407C120.373 9.18682 112.126 4.50989 101.963 4.50989ZM0 124.273C0 113.248 1.58275 101.89 4.74826 90.1978C7.91377 78.5055 12.4954 67.3143 18.4932 56.6242C24.491 45.9341 31.7384 36.3297 40.2353 27.811C48.8988 19.2923 58.5619 12.5275 69.2246 7.51649C79.8874 2.5055 91.5498 0 104.212 0C122.705 0 137.116 5.26154 147.446 15.7846C157.942 26.1407 163.19 41.0066 163.19 60.3824C163.19 71.4066 161.524 82.7648 158.192 94.4571C155.027 105.982 150.445 117.09 144.447 127.78C138.449 138.47 131.119 148.075 122.455 156.593C113.958 165.112 104.295 171.877 93.4658 176.888C82.803 181.899 71.2239 184.404 58.7285 184.404C40.2353 184.404 25.8239 179.226 15.4943 168.87C5.16477 158.347 0 143.481 0 124.273Z" fill="black"/>
<path d="M267.781 94.2066C261.783 110.91 256.035 125.024 250.537 136.549C245.039 148.075 239.541 157.345 234.043 164.36C228.712 171.376 223.214 176.47 217.549 179.644C212.051 182.818 206.303 184.404 200.306 184.404C192.975 184.404 187.643 182.734 184.311 179.393C180.979 176.053 179.313 171.543 179.313 165.864C179.313 160.185 180.479 153.754 182.812 146.571L207.053 73.411C208.719 68.4 209.302 64.5582 208.802 61.8857C208.303 59.2132 206.387 57.8769 203.055 57.8769C199.889 57.8769 196.723 59.6308 193.558 63.1385C190.559 66.6462 187.31 73.411 183.812 83.433L180.563 92.7033H175.814L182.062 74.4132C184.561 67.3978 187.477 62.0528 190.809 58.378C194.308 54.7033 197.89 52.1978 201.555 50.8615C205.387 49.3582 208.969 48.6066 212.301 48.6066C219.632 48.6066 224.463 50.3604 226.796 53.8681C229.295 57.2088 230.211 61.5517 229.545 66.8967C229.045 72.2418 227.795 77.8374 225.796 83.6835L202.055 155.341C197.39 169.371 199.223 176.387 207.553 176.387C211.551 176.387 215.8 174.633 220.298 171.125C224.797 167.451 229.378 162.273 234.043 155.591C238.708 148.743 243.29 140.642 247.788 131.288C252.453 121.767 256.868 111.244 261.033 99.7187C265.365 88.0264 269.28 75.4989 272.779 62.1363L267.781 94.2066ZM267.031 159.6C265.865 164.11 265.282 167.868 265.282 170.875C265.448 173.714 267.198 175.134 270.53 175.134C274.195 175.134 277.527 173.213 280.526 169.371C283.692 165.363 286.857 158.765 290.023 149.578L293.271 140.308H298.02L291.772 158.598C289.44 165.613 286.524 170.958 283.025 174.633C279.693 178.308 276.111 180.813 272.279 182.149C268.614 183.653 265.032 184.404 261.533 184.404C258.867 184.404 256.368 183.82 254.036 182.651C251.703 181.481 249.954 179.811 248.788 177.64C247.455 174.8 246.955 171.209 247.288 166.866C247.788 162.523 248.954 156.677 250.787 149.327L275.278 52.1143C279.443 51.9473 283.442 51.6132 287.274 51.1121C291.272 50.611 294.854 49.7758 298.02 48.6066L267.031 159.6Z" fill="black"/>
<path d="M340.6 180.897H318.858L348.847 73.411C350.513 67.7319 351.013 63.7231 350.346 61.3846C349.846 59.0462 348.18 57.8769 345.348 57.8769C341.683 57.8769 338.351 59.7978 335.352 63.6396C332.353 67.4813 329.187 74.0791 325.855 83.433L322.606 92.7033H317.858L324.106 74.4132C326.605 67.3978 329.521 62.0528 332.853 58.378C336.351 54.7033 339.933 52.1978 343.599 50.8615C347.431 49.3582 351.013 48.6066 354.345 48.6066C359.343 48.6066 362.842 49.6923 364.841 51.8637C367.007 54.0352 368.173 56.8747 368.34 60.3824C368.673 63.8901 368.423 67.7319 367.59 71.9077C366.923 75.9165 366.09 79.8418 365.091 83.6835L340.6 180.897ZM404.826 54.8703C400.994 54.8703 396.996 56.7077 392.831 60.3824C388.832 63.8901 384.667 69.0681 380.335 75.9165C376.17 82.5978 371.922 90.6989 367.59 100.22C363.425 109.574 359.26 120.013 355.094 131.538C351.096 143.064 347.181 155.508 343.349 168.87L349.596 136.8C355.094 120.431 360.176 106.651 364.841 95.4593C369.672 84.2681 374.421 75.2484 379.086 68.4C383.751 61.3846 388.499 56.3736 393.33 53.367C398.329 50.1934 403.577 48.6066 409.075 48.6066C413.74 48.6066 417.322 49.9429 419.821 52.6154C422.486 55.2879 423.819 58.7121 423.819 62.8879C423.819 66.2286 422.986 69.3187 421.32 72.1582C419.654 74.8308 417.488 77.0022 414.823 78.6725C412.324 80.1758 409.491 80.9275 406.326 80.9275C403.493 80.9275 401.078 80.1758 399.078 78.6725C397.246 77.0022 396.329 74.7473 396.329 71.9077C396.329 69.2352 396.829 66.8967 397.829 64.8923C398.828 62.7209 400.161 60.8835 401.827 59.3802C403.493 57.8769 405.409 56.7077 407.575 55.8725C407.242 55.5385 406.826 55.2879 406.326 55.1209C405.992 54.9538 405.493 54.8703 404.826 54.8703Z" fill="black"/>
<path d="M494.721 177.138C496.054 177.807 497.47 178.391 498.969 178.892C500.636 179.226 503.051 179.393 506.217 179.393C513.547 179.393 519.545 177.222 524.21 172.879C529.042 168.369 531.458 161.938 531.458 153.587C531.458 148.409 530.458 143.314 528.459 138.303C526.626 133.125 523.294 127.196 518.462 120.514C514.63 115.169 510.965 109.741 507.466 104.229C503.968 98.5495 502.218 91.8681 502.218 84.1846C502.218 77.0022 503.968 70.822 507.466 65.644C510.965 60.2989 515.63 56.1231 521.461 53.1165C527.459 50.1099 533.957 48.6066 540.954 48.6066C545.786 48.6066 550.534 49.1912 555.199 50.3604C559.864 51.5297 563.696 53.7011 566.695 56.8747C569.86 59.8813 571.443 64.3912 571.443 70.4044C571.443 71.9077 571.026 73.7451 570.193 75.9165C569.527 77.9209 568.361 79.6747 566.695 81.178C565.029 82.6813 562.779 83.433 559.947 83.433C557.281 83.433 554.949 82.5143 552.95 80.6769C550.95 78.6725 549.951 76.0835 549.951 72.9099C549.951 69.9033 550.534 67.0637 551.7 64.3912C553.033 61.5517 554.782 58.7956 556.948 56.1231C553.783 54.1187 549.618 53.1165 544.453 53.1165C538.288 53.1165 533.124 55.2044 528.958 59.3802C524.793 63.5561 522.711 69.4022 522.711 76.9187C522.711 80.7604 523.294 84.1846 524.46 87.1912C525.626 90.0308 527.292 93.0374 529.458 96.211C531.791 99.3846 534.54 103.393 537.705 108.237C541.87 114.585 545.369 120.681 548.201 126.527C551.034 132.374 552.45 138.554 552.45 145.068C552.45 152.752 550.451 159.6 546.452 165.613C542.62 171.459 537.455 176.053 530.958 179.393C524.46 182.734 517.296 184.404 509.466 184.404C503.801 184.404 498.386 183.569 493.222 181.899C488.057 180.229 483.808 177.64 480.476 174.132C477.311 170.457 475.728 165.613 475.728 159.6C475.728 157.262 476.478 154.84 477.977 152.334C479.31 149.662 481.809 148.325 485.474 148.325C489.473 148.325 492.305 149.996 493.971 153.336C495.637 156.51 496.47 160.101 496.47 164.11C496.47 166.782 496.221 169.204 495.721 171.376C495.387 173.38 495.054 175.301 494.721 177.138Z" fill="black"/>
<path d="M668.872 52.1143L668.122 57.1253H590.401L591.65 52.1143H668.872ZM605.395 159.6C603.896 165.112 604.229 169.121 606.395 171.626C608.727 173.965 611.726 175.134 615.392 175.134C619.057 175.134 622.722 173.547 626.388 170.374C630.22 167.2 633.968 160.435 637.633 150.079L641.132 140.308H645.88L640.632 156.092C636.967 166.949 632.219 174.382 626.388 178.391C620.723 182.4 614.059 184.404 606.395 184.404C599.564 184.404 594.316 182.985 590.651 180.145C587.152 177.138 585.069 172.963 584.403 167.618C583.737 162.273 584.403 156.176 586.402 149.327L625.138 14.0308C629.137 13.8637 633.052 13.5297 636.884 13.0286C640.882 12.5275 644.464 11.6923 647.63 10.5231L605.395 159.6Z" fill="black"/>
<path d="M735.082 53.6176C729.751 53.6176 724.586 55.789 719.588 60.1319C714.756 64.3077 710.258 70.0703 706.093 77.4198C702.094 84.6022 698.512 92.7033 695.347 101.723C692.348 110.743 690.015 120.097 688.349 129.785C686.683 139.473 685.85 148.743 685.85 157.596C685.85 165.112 687.016 170.624 689.349 174.132C691.848 177.64 695.43 179.393 700.095 179.393C705.426 179.393 710.508 177.305 715.339 173.13C720.338 168.787 724.919 163.024 729.084 155.842C733.25 148.492 736.832 140.308 739.831 131.288C742.829 122.268 745.162 112.998 746.828 103.477C748.494 93.789 749.327 84.4352 749.327 75.4154C749.327 67.7319 748.161 62.2198 745.828 58.8791C743.496 55.3714 739.914 53.6176 735.082 53.6176ZM664.358 145.068C664.358 137.719 665.358 129.701 667.357 121.015C669.356 112.33 672.355 103.727 676.354 95.2088C680.352 86.6901 685.184 78.9231 690.848 71.9077C696.68 64.8923 703.427 59.2967 711.091 55.1209C718.755 50.778 727.252 48.6066 736.582 48.6066C746.911 48.6066 755.158 51.8638 761.323 58.378C767.654 64.7253 770.819 74.5802 770.819 87.9429C770.819 95.2923 769.819 103.31 767.82 111.996C765.821 120.681 762.822 129.284 758.823 137.802C754.825 146.321 749.91 154.088 744.079 161.103C738.414 168.119 731.75 173.798 724.086 178.141C716.422 182.316 707.925 184.404 698.596 184.404C688.266 184.404 679.936 181.147 673.605 174.633C667.44 168.119 664.358 158.264 664.358 145.068Z" fill="black"/>
<path d="M811.375 180.897H789.633L819.622 73.411C821.288 67.7319 821.787 63.7231 821.121 61.3846C820.621 59.0462 818.955 57.8769 816.123 57.8769C812.457 57.8769 809.125 59.7978 806.126 63.6396C803.128 67.4813 799.962 74.0791 796.63 83.433L793.381 92.7033H788.633L794.881 74.4132C797.38 67.3978 800.295 62.0528 803.627 58.378C807.126 54.7033 810.708 52.1978 814.373 50.8615C818.205 49.3582 821.787 48.6066 825.12 48.6066C830.118 48.6066 833.616 49.6923 835.616 51.8637C837.782 54.0352 838.948 56.8747 839.114 60.3824C839.448 63.8901 839.198 67.7319 838.365 71.9077C837.698 75.9165 836.865 79.8418 835.866 83.6835L811.375 180.897ZM875.601 54.8703C871.769 54.8703 867.771 56.7077 863.605 60.3824C859.607 63.8901 855.442 69.0681 851.11 75.9165C846.945 82.5978 842.696 90.6989 838.365 100.22C834.2 109.574 830.034 120.013 825.869 131.538C821.871 143.064 817.955 155.508 814.124 168.87L820.371 136.8C825.869 120.431 830.951 106.651 835.616 95.4593C840.447 84.2681 845.195 75.2484 849.86 68.4C854.525 61.3846 859.274 56.3736 864.105 53.367C869.103 50.1934 874.352 48.6066 879.849 48.6066C884.514 48.6066 888.096 49.9429 890.596 52.6154C893.261 55.2879 894.594 58.7121 894.594 62.8879C894.594 66.2286 893.761 69.3187 892.095 72.1582C890.429 74.8308 888.263 77.0022 885.597 78.6725C883.098 80.1758 880.266 80.9275 877.1 80.9275C874.268 80.9275 871.852 80.1758 869.853 78.6725C868.021 77.0022 867.104 74.7473 867.104 71.9077C867.104 69.2352 867.604 66.8967 868.604 64.8923C869.603 62.7209 870.936 60.8835 872.602 59.3802C874.268 57.8769 876.184 56.7077 878.35 55.8725C878.017 55.5385 877.6 55.2879 877.1 55.1209C876.767 54.9538 876.267 54.8703 875.601 54.8703Z" fill="black"/>
<path d="M958.266 170.875L941.522 189.165L922.529 73.9121C921.696 68.7341 920.696 65.1429 919.53 63.1385C918.364 61.1341 916.698 60.1319 914.532 60.1319C912.699 60.1319 910.617 61.6352 908.284 64.6418C905.952 67.4813 903.12 73.6615 899.787 83.1824L896.539 92.4528H891.79L898.038 74.1626C901.537 63.9736 905.869 57.2088 911.033 53.8681C916.198 50.3604 921.446 48.6066 926.778 48.6066C931.942 48.6066 935.941 50.2769 938.773 53.6176C941.605 56.7912 943.605 62.8044 944.771 71.6572L958.266 170.875ZM903.536 216.224C910.7 212.382 918.281 207.121 926.278 200.44C934.441 193.925 942.855 185.073 951.519 173.881C961.348 161.354 970.262 147.323 978.259 131.789C986.422 116.088 992.087 100.303 995.252 84.4352C992.587 82.9319 989.671 81.0945 986.506 78.9231C983.507 76.5846 981.008 73.9121 979.008 70.9055C977.009 67.7319 976.093 64.2242 976.259 60.3824C976.593 56.5407 977.925 53.6176 980.258 51.6132C982.59 49.6088 985.506 48.6066 989.005 48.6066C993.503 48.6066 996.752 50.3604 998.751 53.8681C1000.92 57.2088 1002 62.2198 1002 68.9011C1002 77.4198 1000.58 86.6066 997.752 96.4615C994.919 106.149 991.087 116.004 986.256 126.026C981.591 136.048 976.343 145.736 970.511 155.09C964.68 164.277 958.766 172.629 952.768 180.145C950.102 183.486 946.437 187.662 941.772 192.673C937.107 197.684 931.526 202.778 925.028 207.956C918.697 213.301 911.533 217.895 903.536 221.736C898.538 224.075 894.206 225.662 890.541 226.497C887.042 227.499 884.126 228 881.794 228C878.462 228 875.546 227.081 873.047 225.244C870.548 223.574 869.299 221.068 869.299 217.727C869.299 214.053 870.715 211.213 873.547 209.209C876.213 207.371 879.295 206.453 882.794 206.453C886.626 206.453 890.208 207.455 893.54 209.459C897.038 211.464 900.371 213.719 903.536 216.224Z" fill="black"/>
</svg>
