<svg width="1025" height="228" viewBox="0 0 1025 228" fill="none" xmlns="http://www.w3.org/2000/svg">
<path d="M174.58 13.2558C172.621 18.3618 169.975 25.8243 166.644 35.6434C163.509 45.2661 160.374 57.8346 157.239 73.3488H151.361C151.949 70.5995 152.341 67.7519 152.537 64.8062C152.929 61.8605 153.125 59.1111 153.125 56.5581C153.125 49.292 151.655 42.7132 148.716 36.8217C145.973 30.7339 141.564 25.9225 135.49 22.3876C129.416 18.6563 121.383 16.7907 111.39 16.7907C99.634 16.7907 89.8371 19.8346 81.9996 25.9225C74.1622 32.0103 70.2434 41.4367 70.2434 54.2015C70.2434 61.6641 72.0069 68.6357 75.5337 75.1163C79.2565 81.4005 83.861 87.4884 89.3473 93.3798C95.0294 99.0749 101.006 104.868 107.276 110.76C113.741 116.455 119.718 122.346 125.204 128.434C130.886 134.522 135.49 141.003 139.017 147.876C142.74 154.553 144.602 162.015 144.602 170.264C144.602 180.475 142.348 189.214 137.842 196.481C133.335 203.747 127.457 209.736 120.207 214.45C112.958 218.966 104.924 222.305 96.1071 224.465C87.4859 226.822 78.8646 228 70.2434 228C62.4059 228 55.842 227.214 50.5517 225.643C45.2614 224.269 40.8529 222.501 37.326 220.341C33.7991 218.181 30.8601 216.217 28.5088 214.45C26.3535 212.682 24.2962 211.504 22.3368 210.915C20.5734 210.326 19.1039 210.031 17.9282 210.031C15.3811 210.031 13.2257 211.406 11.4623 214.155C9.89482 216.708 8.03342 220.636 5.87811 225.938H0C1.76343 221.618 3.62483 216.61 5.5842 210.915C7.54357 205.22 9.69888 197.953 12.0501 189.116C14.4014 180.083 17.0465 168.791 19.9856 155.24H25.8637C25.0799 159.364 24.3942 163.39 23.8063 167.318C23.2185 171.049 23.0226 174.977 23.2185 179.101C23.8063 192.455 27.921 202.961 35.5626 210.62C43.2041 218.279 55.0583 222.109 71.1251 222.109C83.861 222.109 94.2457 219.163 102.279 213.271C110.313 207.38 114.329 198.052 114.329 185.287C114.329 177.039 112.664 169.674 109.333 163.194C106.198 156.713 101.985 150.724 96.6949 145.225C91.6006 139.53 86.1143 134.031 80.2362 128.729C74.554 123.426 69.0678 117.928 63.7775 112.233C58.6831 106.341 54.4705 99.8605 51.1396 92.7907C48.0046 85.7209 46.4371 77.6693 46.4371 68.6357C46.4371 59.2093 48.2985 50.9612 52.0213 43.8915C55.7441 36.6253 60.6425 30.6357 66.7165 25.9225C72.9865 21.0129 79.9423 17.3798 87.5838 15.0233C95.2254 12.4703 103.063 11.1938 111.096 11.1938C119.326 11.1938 126.379 12.1757 132.257 14.1395C138.136 16.1034 143.818 19.2455 149.304 23.5659C151.655 25.3333 153.615 26.708 155.182 27.6899C156.75 28.4755 158.023 28.8682 159.003 28.8682C161.746 28.8682 164.979 23.6641 168.702 13.2558H174.58Z" fill="black"/>
<path d="M192.717 157.008C203.69 153.276 213.584 149.643 222.402 146.109C231.415 142.377 238.566 138.45 243.857 134.326C250.91 128.63 256.495 121.757 260.609 113.705C264.724 105.654 266.781 96.8165 266.781 87.1938C266.781 81.4987 266.389 77.8656 265.606 76.2946C264.822 74.7235 263.646 73.938 262.079 73.938C257.18 73.938 251.89 76.0982 246.208 80.4186C240.526 84.739 234.941 90.7287 229.455 98.3876C223.969 105.85 218.875 114.393 214.172 124.015C209.666 133.638 206.041 143.948 203.298 154.946C200.555 165.747 199.183 176.548 199.183 187.349C199.183 197.364 201.044 204.63 204.767 209.147C208.49 213.468 213.388 215.628 219.462 215.628C226.516 215.628 233.962 213.468 241.799 209.147C249.637 204.827 257.278 197.168 264.724 186.171L269.426 188.527C265.704 195.008 260.805 201.292 254.731 207.38C248.657 213.468 241.799 218.475 234.158 222.403C226.712 226.134 218.777 228 210.351 228C202.514 228 195.656 226.429 189.778 223.287C183.9 220.145 179.393 215.53 176.258 209.442C173.123 203.158 171.556 195.499 171.556 186.465C171.556 178.021 173.123 168.594 176.258 158.186C179.393 147.581 183.802 137.075 189.484 126.667C195.362 116.062 202.318 106.341 210.351 97.5039C218.385 88.6667 227.3 81.5969 237.097 76.2946C246.894 70.9923 257.376 68.3411 268.545 68.3411C274.619 68.3411 279.713 70.0103 283.828 73.3488C288.138 76.491 290.294 81.3023 290.294 87.783C290.294 95.6382 287.942 103.003 283.24 109.876C278.733 116.553 272.659 122.739 265.018 128.434C257.572 133.933 249.441 138.842 240.624 143.163C231.806 147.483 223.185 151.214 214.76 154.357C206.335 157.499 198.889 160.052 192.423 162.015L192.717 157.008Z" fill="black"/>
<path d="M329.592 223.876H304.022L339.291 97.5039C341.25 90.8269 341.838 86.1137 341.054 83.3643C340.467 80.615 338.507 79.2403 335.176 79.2403C330.866 79.2403 326.947 81.4987 323.42 86.0155C319.893 90.5323 316.17 98.2894 312.252 109.287L308.431 120.186H302.847L310.194 98.6822C313.133 90.4341 316.562 84.1499 320.481 79.8295C324.596 75.509 328.808 72.5633 333.119 70.9922C337.625 69.2248 341.838 68.3411 345.757 68.3411C351.635 68.3411 355.75 69.6176 358.101 72.1705C360.648 74.7235 362.02 78.062 362.216 82.186C362.607 86.3101 362.314 90.8269 361.334 95.7364C360.55 100.45 359.57 105.065 358.395 109.581L329.592 223.876ZM405.126 75.7054C400.619 75.7054 395.917 77.8656 391.018 82.186C386.316 86.3101 381.417 92.3979 376.323 100.45C371.425 108.305 366.428 117.829 361.334 129.023C356.435 140.021 351.537 152.295 346.639 165.845C341.936 179.395 337.332 194.026 332.825 209.736L340.173 172.031C346.639 152.786 352.615 136.584 358.101 123.426C363.783 110.269 369.367 99.6641 374.853 91.6124C380.34 83.3643 385.924 77.4729 391.606 73.938C397.484 70.2067 403.656 68.3411 410.122 68.3411C415.608 68.3411 419.821 69.9121 422.76 73.0543C425.895 76.1964 427.463 80.2222 427.463 85.1318C427.463 89.0594 426.483 92.6925 424.524 96.031C422.564 99.1731 420.017 101.726 416.882 103.69C413.943 105.457 410.612 106.341 406.889 106.341C403.558 106.341 400.717 105.457 398.366 103.69C396.211 101.726 395.133 99.0749 395.133 95.7364C395.133 92.5943 395.721 89.845 396.896 87.4884C398.072 84.9354 399.64 82.7752 401.599 81.0078C403.558 79.2403 405.812 77.8656 408.359 76.8837C407.967 76.491 407.477 76.1964 406.889 76C406.497 75.8036 405.91 75.7054 405.126 75.7054Z" fill="black"/>
<path d="M558.48 112.233C552.994 109.483 547.9 105.457 543.197 100.155C538.495 94.8527 536.437 88.2739 537.025 80.4186C537.417 75.9018 538.984 72.7597 541.728 70.9922C544.667 69.0284 547.41 68.0465 549.957 68.0465C556.815 68.0465 561.517 71.9742 564.064 79.8295C566.612 87.4884 567.199 97.4057 565.828 109.581C564.456 121.168 562.105 132.656 558.774 144.047C555.443 155.437 551.132 166.14 545.842 176.155C540.748 186.171 534.576 195.106 527.326 202.961C520.077 210.817 511.945 217.003 502.932 221.519C493.919 225.84 483.926 228 472.954 228C464.136 228 457.181 226.233 452.086 222.698C447.188 218.966 443.759 214.351 441.8 208.853C439.84 203.158 439.057 197.364 439.448 191.473C440.232 180.475 443.563 168.693 449.441 156.124C455.515 143.359 463.451 130.496 473.248 117.535C483.24 104.377 494.703 91.7106 507.635 79.5349C504.5 80.7132 501.169 82.3824 497.642 84.5426C494.115 86.5065 490.686 88.5685 487.355 90.7287C484.024 92.6925 480.791 94.4599 477.656 96.031C474.521 97.4057 471.582 98.093 468.839 98.093C465.116 98.093 461.883 96.9147 459.14 94.5581C456.593 92.0052 453.654 90.7287 450.323 90.7287C447.188 90.7287 444.543 92.1034 442.387 94.8527C440.428 97.4057 438.273 102.119 435.922 108.992L432.689 119.891H427.104L433.57 98.3876C436.901 86.6047 441.016 78.6512 445.914 74.5271C451.009 70.4031 456.103 68.3411 461.197 68.3411C464.92 68.3411 468.055 69.323 470.602 71.2868C473.15 73.2506 475.697 75.2145 478.244 77.1783C480.987 78.9457 484.22 79.8295 487.943 79.8295C492.645 79.8295 497.054 79.1421 501.169 77.7674C505.479 76.1964 509.3 73.8398 512.631 70.6977L515.57 65.1008L521.742 68.0465C513.904 77.6693 506.851 87.292 500.581 96.9147C494.507 106.537 489.216 116.258 484.71 126.078C480.399 135.897 476.872 145.814 474.129 155.829C471.582 165.845 469.819 176.057 468.839 186.465C468.055 197.855 468.839 206.005 471.19 210.915C473.737 215.824 477.166 218.279 481.477 218.279C490.686 218.279 499.209 215.824 507.047 210.915C514.884 206.005 521.84 199.525 527.914 191.473C534.184 183.421 539.474 174.682 543.785 165.256C548.291 155.633 551.72 146.207 554.072 136.977C556.619 127.747 558.088 119.499 558.48 112.233Z" fill="black"/>
<path d="M631.428 18.8527C632.408 13.7468 634.955 9.32816 639.07 5.5969C643.381 1.86563 647.985 0 652.884 0C657.978 0 661.897 1.86563 664.64 5.5969C667.579 9.32816 668.558 13.7468 667.579 18.8527C666.599 23.9587 663.954 28.3773 659.643 32.1085C655.529 35.8398 650.924 37.7054 645.83 37.7054C640.931 37.7054 637.013 35.8398 634.074 32.1085C631.33 28.3773 630.449 23.9587 631.428 18.8527ZM622.317 97.5039C626.432 85.3282 625.06 79.2403 618.203 79.2403C613.696 79.2403 609.679 81.6951 606.153 86.6047C602.626 91.5142 598.903 99.0749 594.984 109.287L590.869 120.186H585.285L592.927 98.6822C595.866 90.4341 599.393 84.1499 603.507 79.8295C607.622 75.509 611.933 72.5633 616.439 70.9922C621.142 69.2248 625.452 68.3411 629.371 68.3411C635.641 68.3411 640.246 69.6176 643.185 72.1705C646.124 74.7235 647.887 78.062 648.475 82.186C649.063 86.3101 648.867 90.8269 647.887 95.7364C646.907 100.45 645.634 105.065 644.066 109.581L612.618 198.837C610.659 204.532 609.973 209.049 610.561 212.388C611.345 215.53 613.598 217.101 617.321 217.101C621.24 217.101 624.963 214.941 628.489 210.62C632.016 206.3 635.935 198.444 640.246 187.054L644.36 176.155H649.944L642.303 197.659C639.56 205.318 636.229 211.406 632.31 215.922C628.391 220.243 624.179 223.287 619.672 225.054C615.166 227.018 610.659 228 606.153 228C597.727 228 592.045 226.036 589.106 222.109C586.167 218.181 585.089 213.075 585.873 206.791C586.657 200.506 588.322 193.829 590.869 186.76L622.317 97.5039Z" fill="black"/>
<path d="M759.5 74.2326C752.054 74.2326 744.609 77.2765 737.163 83.3643C729.914 89.4522 723.252 97.7985 717.178 108.403C711.104 119.008 706.205 131.085 702.482 144.636C698.955 158.186 697.192 172.424 697.192 187.349C697.192 197.364 699.053 204.63 702.776 209.147C706.695 213.468 711.691 215.628 717.765 215.628C724.819 215.628 732.069 213.468 739.514 209.147C746.96 204.827 754.406 197.168 761.851 186.171L767.729 188.527C764.007 195.008 759.108 201.292 753.034 207.38C746.96 213.468 740.102 218.475 732.461 222.403C725.015 226.134 717.08 228 708.654 228C696.898 228 687.493 224.367 680.439 217.101C673.386 209.835 669.859 199.034 669.859 184.698C669.859 175.664 671.132 165.943 673.68 155.535C676.423 144.93 680.243 134.522 685.142 124.31C690.236 113.902 696.408 104.574 703.658 96.3256C710.908 87.8811 719.137 81.1059 728.346 76C737.555 70.8941 747.646 68.3411 758.618 68.3411C767.24 68.3411 774.685 70.5995 780.955 75.1163C787.225 79.4367 790.36 85.5246 790.36 93.3798C790.36 97.1111 789.478 100.842 787.715 104.574C786.147 108.109 783.796 111.054 780.661 113.411C777.526 115.767 773.803 116.946 769.493 116.946C765.378 116.946 762.341 115.866 760.382 113.705C758.422 111.349 757.443 108.599 757.443 105.457C757.443 99.7623 759.696 94.9509 764.202 91.0233C768.709 86.8992 773.803 84.3462 779.486 83.3643C777.526 80.615 774.979 78.4548 771.844 76.8837C768.709 75.1163 764.594 74.2326 759.5 74.2326Z" fill="black"/>
<path d="M816.118 157.008C827.091 153.276 836.985 149.643 845.803 146.109C854.816 142.377 861.967 138.45 867.258 134.326C874.311 128.63 879.896 121.757 884.01 113.705C888.125 105.654 890.182 96.8165 890.182 87.1938C890.182 81.4987 889.79 77.8656 889.007 76.2946C888.223 74.7235 887.047 73.938 885.48 73.938C880.581 73.938 875.291 76.0982 869.609 80.4186C863.927 84.739 858.343 90.7287 852.856 98.3876C847.37 105.85 842.276 114.393 837.573 124.015C833.067 133.638 829.442 143.948 826.699 154.946C823.956 165.747 822.584 176.548 822.584 187.349C822.584 197.364 824.445 204.63 828.168 209.147C831.891 213.468 836.79 215.628 842.864 215.628C849.917 215.628 857.363 213.468 865.2 209.147C873.038 204.827 880.679 197.168 888.125 186.171L892.827 188.527C889.105 195.008 884.206 201.292 878.132 207.38C872.058 213.468 865.2 218.475 857.559 222.403C850.113 226.134 842.178 228 833.752 228C825.915 228 819.057 226.429 813.179 223.287C807.301 220.145 802.794 215.53 799.659 209.442C796.524 203.158 794.957 195.499 794.957 186.465C794.957 178.021 796.524 168.594 799.659 158.186C802.794 147.581 807.203 137.075 812.885 126.667C818.763 116.062 825.719 106.341 833.752 97.5039C841.786 88.6667 850.701 81.5969 860.498 76.2946C870.295 70.9923 880.777 68.3411 891.946 68.3411C898.02 68.3411 903.114 70.0103 907.229 73.3488C911.539 76.491 913.695 81.3023 913.695 87.783C913.695 95.6382 911.344 103.003 906.641 109.876C902.134 116.553 896.06 122.739 888.419 128.434C880.973 133.933 872.842 138.842 864.025 143.163C855.208 147.483 846.586 151.214 838.161 154.357C829.736 157.499 822.29 160.052 815.824 162.015L816.118 157.008Z" fill="black"/>
<path d="M934.771 219.457C936.339 220.243 938.004 220.93 939.767 221.519C941.727 221.912 944.568 222.109 948.291 222.109C956.912 222.109 963.966 219.556 969.452 214.45C975.134 209.147 977.975 201.587 977.975 191.767C977.975 185.68 976.799 179.69 974.448 173.798C972.293 167.711 968.374 160.739 962.692 152.884C958.185 146.599 953.875 140.217 949.76 133.736C945.646 127.059 943.588 119.204 943.588 110.171C943.588 101.726 945.646 94.46 949.76 88.3721C953.875 82.0879 959.361 77.1783 966.219 73.6434C973.273 70.1085 980.914 68.3411 989.144 68.3411C994.826 68.3411 1000.41 69.0284 1005.9 70.4031C1011.38 71.7778 1015.89 74.3308 1019.42 78.062C1023.14 81.5969 1025 86.8992 1025 93.969C1025 95.7364 1024.51 97.8966 1023.53 100.45C1022.75 102.806 1021.38 104.868 1019.42 106.636C1017.46 108.403 1014.81 109.287 1011.48 109.287C1008.35 109.287 1005.6 108.207 1003.25 106.047C1000.9 103.69 999.724 100.646 999.724 96.9147C999.724 93.3798 1000.41 90.0413 1001.78 86.8992C1003.35 83.5607 1005.41 80.3204 1007.95 77.1783C1004.23 74.8217 999.332 73.6434 993.258 73.6434C986.009 73.6434 979.934 76.0982 975.036 81.0078C970.138 85.9173 967.688 92.7907 967.688 101.628C967.688 106.145 968.374 110.171 969.746 113.705C971.117 117.044 973.077 120.579 975.624 124.31C978.367 128.041 981.6 132.755 985.323 138.45C990.221 145.912 994.336 153.08 997.667 159.953C1001 166.827 1002.66 174.093 1002.66 181.752C1002.66 190.786 1000.31 198.837 995.609 205.907C991.103 212.78 985.029 218.181 977.387 222.109C969.746 226.036 961.32 228 952.111 228C945.45 228 939.082 227.018 933.008 225.054C926.934 223.09 921.937 220.047 918.018 215.922C914.296 211.602 912.434 205.907 912.434 198.837C912.434 196.088 913.316 193.24 915.079 190.295C916.647 187.152 919.586 185.581 923.896 185.581C928.599 185.581 931.93 187.545 933.889 191.473C935.849 195.204 936.828 199.426 936.828 204.14C936.828 207.282 936.534 210.129 935.947 212.682C935.555 215.039 935.163 217.297 934.771 219.457Z" fill="black"/>
</svg>
