<svg width="20" height="20" viewBox="0 0 20 20" fill="none" xmlns="http://www.w3.org/2000/svg">
<path d="M6.38069 3.0077L6.42069 3.0028L6.48276 3L6.53449 3.0021L6.62139 3.014L6.69794 3.035L6.77449 3.0658L6.84208 3.10221L6.9138 3.15401L6.97036 3.20511L10.7635 7.0553C10.8872 7.18128 10.959 7.35032 10.9644 7.5281C10.9697 7.70587 10.9082 7.87904 10.7923 8.01245C10.6765 8.14585 10.5149 8.22948 10.3404 8.24634C10.166 8.26321 9.9918 8.21205 9.85318 8.10325L9.78835 8.04515L7.17243 5.39062V16.3007C7.17224 16.4791 7.10493 16.6507 6.98426 16.7804C6.86358 16.9102 6.69866 16.9883 6.52318 16.9987C6.3477 17.0092 6.17491 16.9512 6.04011 16.8367C5.90531 16.7222 5.81868 16.5597 5.79792 16.3826L5.79309 16.3007V5.39062L3.17717 8.04515C3.05842 8.16568 2.90041 8.23809 2.7328 8.24878C2.5652 8.25948 2.3995 8.20774 2.26681 8.10325L2.20198 8.04515C2.08323 7.92461 2.0119 7.76423 2.00136 7.59411C1.99082 7.42398 2.0418 7.2558 2.14474 7.12111L2.20198 7.0553L5.99516 3.20511C6.01924 3.18059 6.04506 3.15789 6.07241 3.13721L6.14827 3.0875L6.22689 3.0497L6.29931 3.0252L6.38069 3.0077ZM13.5174 3C13.6863 3.00002 13.8494 3.06297 13.9756 3.17691C14.1018 3.29085 14.1825 3.44785 14.2022 3.61813L14.2071 3.70003V14.6101L16.823 11.9555L16.8878 11.8974C17.0205 11.793 17.1862 11.7414 17.3538 11.7521C17.5213 11.7628 17.6793 11.8352 17.798 11.9557C17.9167 12.0762 17.9881 12.2366 17.9986 12.4067C18.0092 12.5767 17.9583 12.7449 17.8554 12.8796L17.7982 12.9454L14.005 16.7956L13.9746 16.8243L13.9278 16.8635L13.8519 16.9132L13.7733 16.951L13.7008 16.9755L13.6202 16.993L13.5581 17H13.4767L13.4353 16.9958L13.3567 16.9818L13.2815 16.9587L13.2257 16.9349L13.1581 16.8985L13.0919 16.8516C13.0701 16.8342 13.0494 16.8155 13.0298 16.7956L9.23662 12.9454L9.17937 12.8796C9.08553 12.7568 9.0346 12.6059 9.0346 12.4505C9.0346 12.2951 9.08553 12.1441 9.17937 12.0213L9.23662 11.9555L9.30144 11.8974C9.42239 11.8022 9.57113 11.7505 9.72421 11.7505C9.8773 11.7505 10.026 11.8022 10.147 11.8974L10.2118 11.9555L12.8277 14.6101V3.70003L12.8326 3.61813C12.8523 3.44785 12.933 3.29085 13.0592 3.17691C13.1854 3.06297 13.3485 3.00002 13.5174 3Z" fill="#323C47"/>
</svg>
