<svg width="28" height="28" viewBox="0 0 28 28" fill="none" xmlns="http://www.w3.org/2000/svg">
<path fill-rule="evenodd" clip-rule="evenodd" d="M14.5 4C13.4718 4 12.5049 4.36649 11.808 4.99004C11.1148 5.61032 10.75 6.42621 10.75 7.25C10.75 8.07379 11.1148 8.88968 11.808 9.50996C12.5049 10.1335 13.4718 10.5 14.5 10.5C15.5282 10.5 16.4951 10.1335 17.192 9.50996C17.8852 8.88968 18.25 8.07379 18.25 7.25C18.25 6.42621 17.8852 5.61032 17.192 4.99004C16.4951 4.36649 15.5282 4 14.5 4ZM10.4744 3.49955C11.5591 2.52905 13.0087 2 14.5 2C15.9913 2 17.4409 2.52905 18.5256 3.49955C19.6139 4.47333 20.25 5.81945 20.25 7.25C20.25 8.68055 19.6139 10.0267 18.5256 11.0004C17.4409 11.971 15.9913 12.5 14.5 12.5C13.0087 12.5 11.5591 11.971 10.4744 11.0004C9.38611 10.0267 8.75 8.68055 8.75 7.25C8.75 5.81945 9.38611 4.47333 10.4744 3.49955Z" fill="#009EF7"/>
<path fill-rule="evenodd" clip-rule="evenodd" d="M11.3333 16.75C9.94271 16.75 8.59334 17.3425 7.58676 18.4232C6.57795 19.5064 6 20.9897 6 22.55C6 22.9366 6.3134 23.25 6.7 23.25H22.3C22.6866 23.25 23 22.9366 23 22.55C23 20.9897 22.4221 19.5064 21.4132 18.4232C20.4067 17.3425 19.0573 16.75 17.6667 16.75H11.3333ZM6.12322 17.0601C7.4921 15.5904 9.36454 14.75 11.3333 14.75H17.6667C19.6355 14.75 21.5079 15.5904 22.8768 17.0601C24.2434 18.5275 25 20.5033 25 22.55C25 24.0412 23.7912 25.25 22.3 25.25H6.7C5.20883 25.25 4 24.0412 4 22.55C4 20.5033 4.75657 18.5275 6.12322 17.0601Z" fill="#009EF7"/>
</svg>
