<svg xmlns="http://www.w3.org/2000/svg" viewBox="0 0 801.57 388.21"><defs><style>.cls-1{opacity:0.63;}.cls-2{fill:#b5e2e2;}.cls-3{fill:#e4f3f7;}.cls-4{fill:#fff;}.cls-10,.cls-5{fill:#336672;}.cls-5,.cls-9{opacity:0.1;}.cls-6,.cls-8{fill:#345670;}.cls-6,.cls-7{opacity:0.17;}</style></defs><g id="Слой_2" data-name="Слой 2"><g id="Layer_1" data-name="Layer 1"><g class="cls-1"><path class="cls-2" d="M122.43,383.74c-.36-1.49-1.5-3.61-5-4.83-2.65-.93-4.27-.27-5.19.82-.42-1.11-1.53-2.58-4.42-3.45a7,7,0,0,0-2.12-.31,8.2,8.2,0,0,0-2.37-8.21c-2.07-1.75-5-2.38-6.91-1.52a8.75,8.75,0,0,0-7.19-2.05c-7.32.78-10.88,8-8.85,12.48a3.49,3.49,0,0,0-3.7,2.4,4.5,4.5,0,0,0-4-3.41c-2.19-.26-4,.68-4.56,2.42a7.41,7.41,0,0,0-4.58-1.18,6.57,6.57,0,0,0-1.63.19,7.81,7.81,0,0,0-4.49-8.72,10.72,10.72,0,0,0-9.28-.12c-.71-1.06-3.47-3.26-9-3.12-8,.21-13.61,6.53-12.4,11.87-1.19-.77-3.9-1.81-7.54,1.14,0,0,.62-2.79-5.89-2.63-4.6.1-5.63,4.08-5,6.51C6,381.45.42,380.92.06,384.43c0,0-.94,2.64,4.6,3.16,5,.47,49.74.62,50.05.62s13.79-.15,26-.15,29.91-.32,34.09-.63,11.42.43,11.89-1.42C127.1,384.45,124.33,383,122.43,383.74Z"/><path class="cls-3" d="M122.43,382.72c-.36-1.49-1.5-3.61-5-4.83-2.65-.93-4.27-.27-5.19.82-.42-1.11-1.53-2.58-4.42-3.45a6.44,6.44,0,0,0-2.12-.31,8.2,8.2,0,0,0-2.37-8.21c-2.07-1.75-5-2.38-6.91-1.52a8.72,8.72,0,0,0-7.19-2.05c-7.32.78-10.88,8-8.85,12.48a3.49,3.49,0,0,0-3.7,2.4,4.5,4.5,0,0,0-4-3.41c-2.19-.26-4,.68-4.56,2.42a7.41,7.41,0,0,0-4.58-1.18,6.6,6.6,0,0,0-1.63.18,7.8,7.8,0,0,0-4.49-8.71,10.72,10.72,0,0,0-9.28-.12c-.71-1.06-3.47-3.26-9-3.12-8,.21-13.61,6.53-12.4,11.87-1.19-.77-3.9-1.82-7.54,1.14,0,0,.62-2.79-5.89-2.64-4.6.11-5.63,4.09-5,6.52C6,380.42.42,379.9.06,383.4c0,0-.94,2.65,4.6,3.17,5,.47,49.74.62,50.05.62s13.79-.16,26-.16,29.91-.31,34.09-.62,11.42.43,11.89-1.43C127.1,383.43,124.33,382,122.43,382.72Z"/><path class="cls-4" d="M117.46,377.89c-2.65-.93-4.27-.27-5.19.82-.42-1.11-1.53-2.58-4.42-3.45a6.44,6.44,0,0,0-2.12-.31,8.2,8.2,0,0,0-2.37-8.21c-2.07-1.75-5-2.38-6.91-1.52a8.72,8.72,0,0,0-7.19-2.05c-7.32.78-10.88,8-8.85,12.48a3.49,3.49,0,0,0-3.7,2.4,4.5,4.5,0,0,0-4-3.41c-2.19-.26-4,.68-4.56,2.42a7.41,7.41,0,0,0-4.58-1.18,6.6,6.6,0,0,0-1.63.18,7.8,7.8,0,0,0-4.49-8.71,10.72,10.72,0,0,0-9.28-.12c-.71-1.06-3.47-3.26-9-3.12A14.55,14.55,0,0,0,33,365.63a12.71,12.71,0,0,1,7.48-.35c5.93,1.8,5.75,3.42,5.75,3.42s-1.89,1.52-2.07,2.51a10.49,10.49,0,0,1,10.25-2.42c6.47,1.7,6.11,8.71,6.11,8.71a6.07,6.07,0,0,1,4.4-.36,13.13,13.13,0,0,1,2.88,1A3.79,3.79,0,0,1,72,375.89a3.66,3.66,0,0,1,3.24,3.59,9.3,9.3,0,0,1,4-.27,4.39,4.39,0,0,0-2-1.17A3.83,3.83,0,0,1,81,376.6a5.12,5.12,0,0,1,3.59,1.62s-.36-1.71-3.14-2.51c0,0-1.44-8.09,4.58-9.89a8.69,8.69,0,0,1,9.35,2.52,7.55,7.55,0,0,0-3.87,1.16c-1.62,1.17-1.71,2.07-1.71,2.07a7.68,7.68,0,0,1,6-2.07c3.59.45,4.85,2.25,4.85,2.25s-.36-2.16-3.78-3.5c0,0,.54-1.89,4.14-.54s4,6.47,3,7.82A4.61,4.61,0,0,0,102,376a16,16,0,0,1,6.47,1.79c3.59,1.8,3.77,3.24,3.77,3.24a2.72,2.72,0,0,0,.16-1.88c.62-.44,1.94-.95,4.48-.23a10.87,10.87,0,0,1,5.48,3.38C121.83,380.84,120.6,379,117.46,377.89Z"/><path class="cls-5" d="M122.57,383.46s0,.87-3.31.87a21.46,21.46,0,0,1-7.22-1.74s-1.82,1.65-6.09,1.48a10.25,10.25,0,0,1-6.61-2.61c1.22-.35,2.52-2.35,2.52-2.35a14.13,14.13,0,0,1-10.35.69,10.07,10.07,0,0,0,5.66,1.31s-.79,2-4.79,2.17a11.46,11.46,0,0,1-6.87-2s.34,1.57-3.92,2.44a15.67,15.67,0,0,1-7.91-.52,5.35,5.35,0,0,0,3.56-1.92s-1.21.7-5,.7-5.11-1.8-5.11-1.8a8.93,8.93,0,0,0,2.63,2.63s-1,1-4.6,1a12,12,0,0,1-6.23-1.8s-2.14,2.13-8.21,1.48c-4.22-.46-6.45-1.63-7.43-2.3,4-.25,5-2.6,5-2.6a9.05,9.05,0,0,1-5,1A8.72,8.72,0,0,1,38,377.87a5,5,0,0,0,3.85,3.25c-1.12.47-3.71,1.23-9.54,1.85-9.19,1-11-2.79-8-4.59a5.85,5.85,0,0,1,5.75-.17,10.28,10.28,0,0,1-1.48-7.71,8,8,0,0,1,.62-2A8.52,8.52,0,0,0,26.77,376c-1.19-.77-3.9-1.82-7.54,1.14,0,0,.62-2.79-5.89-2.64-4.6.11-5.63,4.09-5,6.52C6,380.42.42,379.9.06,383.4c0,0-.94,2.65,4.6,3.17,5,.47,49.74.62,50.05.62s13.79-.16,26-.16,29.91-.31,34.09-.62,11.42.43,11.89-1.43a1.11,1.11,0,0,0,0-.48A5.58,5.58,0,0,1,122.57,383.46Z"/><path class="cls-3" d="M19.23,377.12s.62-2.79-5.89-2.64a5,5,0,0,0-4.27,2.09,5.49,5.49,0,0,1,3.2-.81A6.33,6.33,0,0,1,18,379.6,4.7,4.7,0,0,1,20.66,378a4.57,4.57,0,0,1,4-2.84A7.1,7.1,0,0,0,19.23,377.12Z"/><path class="cls-6" d="M121.58,384.8s-.32.76-3.48.76a30.81,30.81,0,0,1-6.3-.76,13,13,0,0,1-6.63,1.2,17.1,17.1,0,0,1-6.85-1.74s-1,1.09-5,1.52a9.46,9.46,0,0,1-6.52-1.52s-2.07,2.39-7.72,2-7.39-1.63-7.39-1.63-1.2.86-4.67,1.19a21.43,21.43,0,0,1-7.72-1.19s-.33,1-6.42,1a26,26,0,0,1-10.21-1.95s-3.26,1.95-9.57,2.17a28.92,28.92,0,0,1-10.32-1.3s-2.94,1.85-8,.76-7.06-3.05-7.06-3.05a4.41,4.41,0,0,0,1.19,2.5,16.07,16.07,0,0,1-6.74-.32C.56,383.91.35,383,.58,382a2.63,2.63,0,0,0-.52,1.36s-.94,2.65,4.6,3.17c5,.47,49.74.62,50.05.62s13.79-.16,26-.16,29.91-.31,34.09-.62,11,.39,11.82-1.26C124.64,385.81,121.58,384.8,121.58,384.8Z"/></g><g class="cls-1"><path class="cls-3" d="M799.47,301.24a10,10,0,0,0,1.54-4.38c.62-4.72-5-9-10.89-8.7a12.11,12.11,0,0,0-1.66-13.76c-5-5.87-14.46-6.08-19.47-2.42-1.69-1.67-5.25-3.77-11.58-2.07a11.29,11.29,0,0,0-8.26,10.63,11,11,0,0,0-9,2.32c-3.38,2.55-5.64,7.71-4.57,11.45-2.3-.12-6.76.33-8.12,5.46-.14.52-5.15-3.57-9.11.79s-.66,7.4,3.17,8.06a5.11,5.11,0,0,0,4-.92A5,5,0,0,0,729,309h.78c.62.8,2,1.75,4.77,2.5a10.82,10.82,0,0,0,9.48-2c1.75,1.32,5,3,10.86,3.81,6.55.92,10.4-.77,12.58-2.45a18.58,18.58,0,0,0,7.11.47l.86-.08c1.09,1,3.23,2.07,7.46,2.33,5.82.36,9.58-1.29,11.52-3a6.15,6.15,0,0,0,4.86-1C802.15,307.39,802.43,303.33,799.47,301.24Z"/><path class="cls-5" d="M799.47,301.24a10,10,0,0,0,1.54-4.38c-.75,5.48-5.57,5.17-5.57,5.17s0,4.16-5.42,6.33a15,15,0,0,1-10.3.18c4.52-1.09,4.34-4.34,4.34-4.34s-.55,3.07-8.68,3.07-10.3-4-10.3-4a9.83,9.83,0,0,0,6.15-3.25c-6.87,3.61-14.82-1.09-14.82-1.09,2.17,3.07,6.33,3.62,6.33,3.62-3.62,9.21-16.59,7.25-21.32.9-3.66-4.91-1.16-8.3-1.16-8.3-4.13-2.94-3.52-8.31-.38-12.13-3.25,2.61-5.39,7.61-4.34,11.26-2.3-.12-6.76.33-8.12,5.46-.14.52-5.15-3.57-9.11.79s-.66,7.4,3.17,8.06a5.11,5.11,0,0,0,4-.92A5,5,0,0,0,729,309h.78c.62.8,2,1.75,4.77,2.5a10.82,10.82,0,0,0,9.48-2c1.75,1.32,5,3,10.86,3.81,6.55.92,10.4-.77,12.58-2.45a18.58,18.58,0,0,0,7.11.47l.86-.08c1.09,1,3.23,2.07,7.46,2.33,5.82.36,9.58-1.29,11.52-3a6.15,6.15,0,0,0,4.86-1C802.15,307.39,802.43,303.33,799.47,301.24Z"/><path class="cls-4" d="M790.12,288.16a12.11,12.11,0,0,0-1.66-13.76c-5-5.87-14.46-6.08-19.47-2.42-1.69-1.67-5.25-3.77-11.58-2.07a11.29,11.29,0,0,0-8.26,10.63,10.47,10.47,0,0,0-6.61.84,16.64,16.64,0,0,1,1.91-.06c8.3.26,9.71,6.77,9.71,6.77a4.33,4.33,0,0,0-2.55,4.6s1.78-4.21,7.53-3.32,6,4.73,6,4.73.25-4.73-3.83-6.26c0,0,.42-5.47,8.47-4.32s9.79,8.15,9.79,11.6c0,0,4.29-10.65-6.75-14.33a11.55,11.55,0,0,0-14.58,5.64s-.51-4.72-7.67-6.13c0,0-.87-7.52,7.92-8.82,10-1.47,10.48,5.37,10.48,5.37a15.91,15.91,0,0,1,7.67.89s-1.41-1.53-5.88-2.55c0,0,1.44-4.27,7.28-3.71,7.92.77,11.81,8.7,8.56,16,0,0-2.68.9-3.58,2.18,0,0,13.26-2.29,18,6C800.65,291.43,795.54,287.91,790.12,288.16Z"/><g class="cls-7"><path class="cls-8" d="M779.29,309.08h0Z"/><path class="cls-8" d="M795.39,308.88a7.76,7.76,0,0,0,1-2.78s-2.2,3.93-9.29,5.47-9.77-1-9.77-1l2-1.53c-.07.05-.75.42-5.74.95-5.37.58-10.93-2.58-10.93-2.58a10.46,10.46,0,0,0,2,1.6s-.39,1.53-9.46,1.78-12.26-3.32-12.26-3.32-1.92,2.17-8.18.77-7.15-5.11-7.15-5.11a6.68,6.68,0,0,1-8.18.89c-1.51-.95-1.89-1.88-1.7-2.78-3,4,.15,6.71,3.77,7.34a5.11,5.11,0,0,0,4-.92A5,5,0,0,0,729,309h.78c.62.8,2,1.75,4.77,2.5a10.82,10.82,0,0,0,9.48-2c1.75,1.32,5,3,10.86,3.81,6.55.92,10.4-.77,12.58-2.45a18.58,18.58,0,0,0,7.11.47l.86-.08c1.09,1,3.23,2.07,7.46,2.33,5.82.36,9.58-1.29,11.52-3a6.15,6.15,0,0,0,4.86-1,5.82,5.82,0,0,0,2.25-4.09A6.65,6.65,0,0,1,795.39,308.88Z"/></g><path class="cls-3" d="M735,294.3c-2.18,0-5.62.6-7.17,4.29l0,.12a5.58,5.58,0,0,1,6.31-1.8c4.19,1.57,4.1,3.82,4.1,3.82A5.29,5.29,0,0,0,735,294.3Z"/><path class="cls-4" d="M790.41,293.27c-5-2.12-7.89.54-9,2a9.28,9.28,0,0,1,8.34-.55c4.93,1.86,4.93,4.61,4.93,4.61S795.35,295.35,790.41,293.27Z"/><path class="cls-2" d="M755.82,312.33c-9.82-.09-12.12-3.25-12.12-3.25s-.48,1.53-6.51,1.82a10,10,0,0,1-8.82-4.17,2.65,2.65,0,0,0,1,1.53s-.15,0-1.3-.19a4.72,4.72,0,0,1-1.93-.79,2.6,2.6,0,0,0,.77-1.54c-.58.77-2.7,2.51-7.42.87a5.13,5.13,0,0,1-2.93-2.31c0,2.32,2.35,3.87,5,4.32a5.11,5.11,0,0,0,4-.92A5,5,0,0,0,729,309h.78c.62.8,2,1.75,4.77,2.5a10.82,10.82,0,0,0,9.48-2c1.75,1.32,5,3,10.86,3.81,6.55.92,10.4-.77,12.58-2.45l.78.21a5.78,5.78,0,0,1-1.61-.9S765.64,312.43,755.82,312.33Z"/><path class="cls-2" d="M771.06,311c-4.2-.39-5-1.3-5-1.3,1.13,1.34,3.38,2,6.8,2.08s4.32-1.56,4.32-1.56S775.26,311.43,771.06,311Z"/><path class="cls-2" d="M798.57,309.4a5.07,5.07,0,0,1-3.31.13,7.32,7.32,0,0,0,.89-2.34c-1,2.9-6.49,6.1-12.5,6.06s-7.79-2.25-7.79-2.25l-.84.35.43,0c1.09,1,3.23,2.07,7.46,2.33,5.82.36,9.58-1.29,11.52-3a5.7,5.7,0,0,0,6.76-3.51A5.09,5.09,0,0,1,798.57,309.4Z"/></g><g class="cls-1"><path class="cls-2" d="M663.77,40.82s1.31,2.38,8.09,1.31,8.56-5.35,8.21-6.66S663.77,40.82,663.77,40.82Z"/><path class="cls-2" d="M624.41,44.86l.12,4.64s7.49,3.81,18.67,3,21.59-6.17,23-11.53S624.41,44.86,624.41,44.86Z"/><path class="cls-3" d="M672.24,26a16.37,16.37,0,0,0-8.11,0c-.52-1.94-1.82-5.88-8.36-8a17.17,17.17,0,0,0-7-.34c-.69-2.35-2.94-6.71-10.24-9.57A17.74,17.74,0,0,0,623.7,9.27c-1.06-2-4.54-6.8-14-8.85-10-2.18-18.63,4.64-21.1,10.19-1-.78-3-1.57-6.83-1a4.57,4.57,0,0,0-3.88,3c-1.44-1.08-4.51-2.12-11-1.56a9.5,9.5,0,0,0-9.15,9.14,17.17,17.17,0,0,0-8.11,1.23c-3.34,1.24-4.16,3.59-4.13,5.53-5-1-18.74-2.88-21.86,3.89,0,0-2.41,4.34,8.7,5.9.6.09,1.18.16,1.73.22a13.6,13.6,0,0,0,8.41,6,16.89,16.89,0,0,0,8.66.08c1,1.7,3.2,3.72,8.25,5.29a23.38,23.38,0,0,0,10.87.78,23.69,23.69,0,0,0,8.15,2.77,20.35,20.35,0,0,0,12.13-2c3.31,2.19,9.24,4.19,19.72,3.44,7.57-.54,12.93-2.51,16.71-4.82a30.69,30.69,0,0,0,11.85,2.81c14.89.73,24.64-4.46,27.41-10.35a14.54,14.54,0,0,0,11.18-1.88C684.33,34.8,678.79,27.92,672.24,26Z"/><g class="cls-9"><path class="cls-10" d="M562.78,28Z"/><path class="cls-10" d="M674.28,37.81c-5.72,1.46-7.82-1-7.82-1s-4.71,8.55-19.17,9.43-14.76-4.87-14.76-4.87c6.4-2.83,7.73-6.3,7.73-6.3-7.73,6.3-21.53,4.18-21.53,4.18a20.75,20.75,0,0,0,8.07,2.89s-2.49,3-18.31,4.59-19.58-4.57-19.58-4.57c3.67-.74,6.61-4.22,6.61-4.22s-3.89,1.66-11.92,1.3-9.23-3.33-9.23-3.33c.27,3.44,4.66,5.46,4.66,5.46s-2,3.24-13.3,1.31-15-6.69-14.87-13.35,6.36-5.6,6.36-5.6c1.17,2.49,5.48,4.26,5.56,4.29-.14-.06-2.35-1.11-3.77-8a7.72,7.72,0,0,1,1.19-5.88,9.58,9.58,0,0,0-2.44,6,17.17,17.17,0,0,0-8.11,1.23c-3.34,1.24-4.16,3.59-4.13,5.53-5-1-18.74-2.88-21.86,3.89,0,0-2.41,4.34,8.7,5.9.6.09,1.18.16,1.73.22a13.6,13.6,0,0,0,8.41,6,16.89,16.89,0,0,0,8.66.08c1,1.7,3.2,3.72,8.25,5.29a23.38,23.38,0,0,0,10.87.78,23.69,23.69,0,0,0,8.15,2.77,20.35,20.35,0,0,0,12.13-2c3.31,2.19,9.24,4.19,19.72,3.44,7.57-.54,12.93-2.51,16.71-4.82a30.69,30.69,0,0,0,11.85,2.81c14.89.73,24.64-4.46,27.41-10.35a14.54,14.54,0,0,0,11.18-1.88c2.82-1.74,3.56-3.92,3-6C679.77,34.66,678.12,36.84,674.28,37.81Z"/></g><path class="cls-4" d="M664.13,26c-.52-1.94-1.82-5.88-8.36-8a17.17,17.17,0,0,0-7-.34c-.69-2.35-2.94-6.71-10.24-9.57A17.74,17.74,0,0,0,623.7,9.27c-1.06-2-4.54-6.8-14-8.85a19.41,19.41,0,0,0-17,4.81,22,22,0,0,1,13.62-2.14C618,4.72,619.92,14.73,619.92,14.73s-5.28,2-7.21,5.41c0,0,10.56-5.84,21.09,1.31a13.26,13.26,0,0,0-8.56-6.78s3-7.34,12.9-4.41,9.64,12,9.64,12a14.51,14.51,0,0,1,10.74,2c5.56,3.47,6.33,7.77,6.33,7.77l-.26-4.52s6.6-1.68,12.42.86A14.84,14.84,0,0,0,672.24,26,16.37,16.37,0,0,0,664.13,26Z"/><path class="cls-4" d="M582.74,8.66c-8.61,2.5-8,9.48-8,9.48,1.43-3.52,6.72-6.34,13.16-5.87S596.8,16,596.8,16C596.41,14.18,591.34,6.16,582.74,8.66Z"/><path class="cls-4" d="M560.2,14.12s8.2-5.83,17.27-.8l1.44-1.85S570.39,6.1,560.2,14.12Z"/><path class="cls-3" d="M525.25,28.66a16.2,16.2,0,0,1,11-1.33c8.3,2.28,10.35,4.58,10.35,4.58s-1.18-1.58-1.15-5C541.06,26,530,24.47,525.25,28.66Z"/><path class="cls-6" d="M627.8,44.57s-2.27,3.79-19.81,5.27S583,43,583,43c.38,1.79,2.91,3.91,2.91,3.91s-1.59,1.45-5.89,1.32-8.45-2.93-8.45-2.93-1.06,1.27-9.48.48S550,39.84,550,39.84s-1.06.9-6.27-.46a9.92,9.92,0,0,1-6.7-6.18s-2,.56-9.5-.78a11.78,11.78,0,0,1-4-1.35c-.31,1-.55,4.29,8.81,5.6.6.09,1.18.16,1.73.22a13.6,13.6,0,0,0,8.41,6,16.89,16.89,0,0,0,8.66.08c1,1.7,3.2,3.72,8.25,5.29a23.38,23.38,0,0,0,10.87.78,23.69,23.69,0,0,0,8.15,2.77,20.35,20.35,0,0,0,12.13-2c3.31,2.19,9.24,4.19,19.72,3.44,7.57-.54,12.93-2.51,16.71-4.82a30.69,30.69,0,0,0,11.85,2.81c11.89.59,20.5-2.61,24.9-6.92-3.52,2.11-9.29,3.86-17.44,4.61A28.28,28.28,0,0,1,627.8,44.57Z"/><path class="cls-4" d="M611,18.68c-5.35-1.63-13,.35-13.83,7.44,0,0,1-5.23,9.18-5.58S617,25.19,617,25.19A8.52,8.52,0,0,0,611,18.68Z"/><path class="cls-2" d="M726.21,41.05c-2.5-1.78-17.72-.23-18.2-.23s-15.22-4.4-15.22-4.4-3.92,4.16.48,7a8.92,8.92,0,0,0,7.24,1,11.15,11.15,0,0,0,7.15,3.26,19.46,19.46,0,0,0,10.65-2,6.29,6.29,0,0,0,4.57.62C727.16,45.34,728.71,42.84,726.21,41.05Z"/><path class="cls-3" d="M721.09,38.06h0A6.25,6.25,0,0,0,723.36,35c1-3.42,1.6-8.2-8.54-8.2-6.67,0-10.52,3.7-11.73,6.82a10.7,10.7,0,0,0-6-.44c-5.35,1-7.51,7.74-3.18,10.13a11,11,0,0,0,7.19.77,10.25,10.25,0,0,0,5.1,2.07c4.65.67,9.53,0,11.89-1.12,2.36.56,5.29.87,7.35-.24C729.4,42.61,727.46,38.63,721.09,38.06Z"/><path class="cls-5" d="M719.08,40.81s-1.47.49-6.83.49-7.32-2.2-7.32-2.2-2.93,1.95-8.78,0c-2.76-.92-2.81-2.81-2.09-4.56-3,2.37-3.57,6.89-.18,8.76a11,11,0,0,0,7.19.77,10.25,10.25,0,0,0,5.1,2.07c4.65.67,9.53,0,11.89-1.12,2.36.56,5.29.87,7.35-.24,1.69-.92,2.31-2.17,2-3.34C724.83,44.18,719.08,40.81,719.08,40.81Z"/><path class="cls-4" d="M721.05,38.06A6.25,6.25,0,0,0,723.36,35c1-3.42,1.6-8.2-8.54-8.2a14.29,14.29,0,0,0-7.31,1.86c2.63-.71,6.19-1,8.76,1.37,4.58,4.21,1.29,8.06,1.1,8.34s5.33-.14,9.1,1.65a9.22,9.22,0,0,0-5.38-1.95Z"/><path class="cls-6" d="M717.83,42.12S716,44,709.67,44.23s-8-2.11-8-2.11-1.83,1.37-7.24.27a5,5,0,0,1-2.55-1.24,4.28,4.28,0,0,0,2,2.15,11,11,0,0,0,7.19.77,10.25,10.25,0,0,0,5.1,2.07c4.65.67,9.53,0,11.89-1.12,2.36.56,5.29.87,7.35-.24a5.2,5.2,0,0,0,1.22-.89C723.05,45.44,717.83,42.12,717.83,42.12Z"/><path class="cls-2" d="M742.82,39.15c-2.1-.59-11.94-1.89-11.94-1.89-.39-.25-2,4.27,1.75,6.18a9.48,9.48,0,0,0,6.13.55,8.48,8.48,0,0,0,4.1.4C747.14,43.79,744.93,39.75,742.82,39.15Z"/><path class="cls-3" d="M742.26,38.63a8.13,8.13,0,0,0-1.31-.08c-.38-1.28-1.77-3.1-5-3.68,0,0-3.87-.79-5.12,2.39s.34,5.7,4.66,6.15a10.57,10.57,0,0,0,3.61-.13,8,8,0,0,0,3.68.48C746.47,43.3,745.56,39.09,742.26,38.63Z"/><path class="cls-6" d="M743.32,41.83a3.3,3.3,0,0,1-3.59-1.43s-2.17,2.06-6.34.68a3.48,3.48,0,0,1-2.73-3.19c-.81,2.89.85,5.1,4.88,5.52a10.57,10.57,0,0,0,3.61-.13,8,8,0,0,0,3.68.48c2.26-.29,2.77-2,2-3.4C744.87,41,744.47,41.59,743.32,41.83Z"/><path class="cls-4" d="M741,38.55c-.38-1.28-1.77-3.1-5-3.68a6.26,6.26,0,0,0-2.67.14c-.49.44-.65,1.13.29,2.2,2.23,2.51,5.53,2,6.22,1.2a2.72,2.72,0,0,0,2.62,1.93c1.18.12,1.63-.33,1.79-.79a3.59,3.59,0,0,0-2-.92A8.13,8.13,0,0,0,741,38.55Z"/><path class="cls-3" d="M754.86,38.18s-4.4-.37-4.31,1.92,6,3.39,8.15,1.28S758.25,36.62,754.86,38.18Z"/><path class="cls-6" d="M753.59,40.46c-2.34-.39-2.77-1-2.58-1.48a1.41,1.41,0,0,0-.46,1.12c.09,2.29,6,3.39,8.15,1.28a2.08,2.08,0,0,0,.75-2.05C759.05,40.23,757.56,41.11,753.59,40.46Z"/><path class="cls-2" d="M539.38,41.17A7.05,7.05,0,0,1,534.5,35c-.71,2.62.6,6.3,6.66,8.21s10-.22,10-.22S544.25,43.08,539.38,41.17Z"/><path class="cls-2" d="M534.5,35s-1.78.72-6.42-.24-4.53-3.68-4.53-3.68c-.49,6.19,11.55,7,11.55,7A6.49,6.49,0,0,1,534.5,35Z"/><path class="cls-2" d="M605,52.71c-11.78-.23-15.11-3.21-15.11-3.21s-3.81,2.86-10.58,2S570.18,48,570.18,48s-3.69,1.78-10.47,0-8.55-5-8.55-5,1.3,4,6.89,5.92a22.55,22.55,0,0,0,11.53.36s1.43,2.5,8.33,3.69a21.34,21.34,0,0,0,12.6-1.9s5.12,3.21,17.27,3.22S627,48.49,627,48.49A58.35,58.35,0,0,1,605,52.71Z"/></g></g></g></svg>