<svg xmlns="http://www.w3.org/2000/svg" viewBox="0 0 365.28 164.54"><defs><style>.cls-1{opacity:0.63;}.cls-2{fill:#b5e2e2;}.cls-3{fill:#e4f3f7;}.cls-4{fill:#fff;}.cls-10,.cls-5{fill:#336672;}.cls-5,.cls-9{opacity:0.1;}.cls-6,.cls-8{fill:#345670;}.cls-6,.cls-7{opacity:0.17;}</style></defs><g id="Слой_2" data-name="Слой 2"><g id="Layer_1" data-name="Layer 1"><g class="cls-1"><path class="cls-2" d="M239.92,160.07c-.36-1.49-1.51-3.61-5-4.83-2.65-.93-4.28-.27-5.2.82-.42-1.11-1.52-2.58-4.41-3.45a7,7,0,0,0-2.13-.31,8.19,8.19,0,0,0-2.36-8.21c-2.07-1.75-4.95-2.38-6.92-1.52a8.73,8.73,0,0,0-7.18-2c-7.32.78-10.89,8-8.85,12.48a3.49,3.49,0,0,0-3.7,2.4,4.5,4.5,0,0,0-4-3.41c-2.19-.26-4,.68-4.57,2.42a7.38,7.38,0,0,0-4.57-1.18,6.57,6.57,0,0,0-1.63.19,7.81,7.81,0,0,0-4.49-8.72,10.72,10.72,0,0,0-9.28-.12c-.72-1.06-3.48-3.26-9-3.11-8,.21-13.61,6.52-12.4,11.86-1.19-.77-3.91-1.81-7.54,1.14,0,0,.61-2.79-5.89-2.63-4.6.1-5.64,4.08-5,6.51-2.38-.57-7.94-1.1-8.3,2.41,0,0-.94,2.64,4.6,3.16,5,.47,49.74.62,50,.62s13.79-.15,26-.15,29.9-.31,34.08-.62,11.43.43,11.89-1.43C244.59,160.78,241.82,159.31,239.92,160.07Z"/><path class="cls-3" d="M239.92,159.05c-.36-1.49-1.51-3.61-5-4.83-2.65-.93-4.28-.27-5.2.82-.42-1.11-1.52-2.58-4.41-3.45a6.46,6.46,0,0,0-2.13-.31,8.19,8.19,0,0,0-2.36-8.21c-2.07-1.75-4.95-2.38-6.92-1.52a8.73,8.73,0,0,0-7.18-2.05c-7.32.78-10.89,8-8.85,12.48a3.49,3.49,0,0,0-3.7,2.4,4.5,4.5,0,0,0-4-3.41c-2.19-.26-4,.68-4.57,2.42a7.38,7.38,0,0,0-4.57-1.18,6.6,6.6,0,0,0-1.63.18,7.8,7.8,0,0,0-4.49-8.71,10.72,10.72,0,0,0-9.28-.12c-.72-1.06-3.48-3.26-9-3.12-8,.21-13.61,6.53-12.4,11.87-1.19-.77-3.91-1.82-7.54,1.14,0,0,.61-2.79-5.89-2.64a5,5,0,0,0-5,6.52c-2.38-.57-7.94-1.1-8.3,2.4,0,0-.94,2.65,4.6,3.17,5,.47,49.74.62,50,.62s13.79-.16,26-.16,29.9-.31,34.08-.62,11.43.43,11.89-1.43C244.59,159.76,241.82,158.29,239.92,159.05Z"/><path class="cls-4" d="M235,154.22c-2.65-.93-4.28-.27-5.2.82-.42-1.11-1.52-2.58-4.41-3.45a6.46,6.46,0,0,0-2.13-.31,8.19,8.19,0,0,0-2.36-8.21c-2.07-1.75-4.95-2.38-6.92-1.52a8.73,8.73,0,0,0-7.18-2.05c-7.32.78-10.89,8-8.85,12.48a3.49,3.49,0,0,0-3.7,2.4,4.5,4.5,0,0,0-4-3.41c-2.19-.26-4,.68-4.57,2.42a7.38,7.38,0,0,0-4.57-1.18,6.6,6.6,0,0,0-1.63.18,7.8,7.8,0,0,0-4.49-8.71,10.72,10.72,0,0,0-9.28-.12c-.72-1.06-3.48-3.26-9-3.12a14.63,14.63,0,0,0-6.18,1.52,12.8,12.8,0,0,1,7.48-.35c5.94,1.8,5.76,3.42,5.76,3.42s-1.89,1.52-2.07,2.51a10.46,10.46,0,0,1,10.24-2.42c6.47,1.7,6.11,8.71,6.11,8.71a6.09,6.09,0,0,1,4.41-.36,13.1,13.1,0,0,1,2.87,1,3.79,3.79,0,0,1,4.23-2.24,3.66,3.66,0,0,1,3.23,3.59,9.36,9.36,0,0,1,4-.27,4.39,4.39,0,0,0-2-1.17,3.82,3.82,0,0,1,3.68-1.44,5.13,5.13,0,0,1,3.6,1.62s-.36-1.71-3.15-2.51c0,0-1.44-8.09,4.59-9.89a8.67,8.67,0,0,1,9.34,2.52,7.5,7.5,0,0,0-3.86,1.16c-1.62,1.17-1.71,2.07-1.71,2.07a7.67,7.67,0,0,1,6-2.07c3.6.45,4.85,2.25,4.85,2.25s-.36-2.15-3.77-3.5c0,0,.54-1.89,4.13-.54s4.05,6.47,3,7.82a4.64,4.64,0,0,0-2.07.45,16,16,0,0,1,6.47,1.79c3.6,1.8,3.78,3.24,3.78,3.24a2.79,2.79,0,0,0,.16-1.88c.61-.44,1.93-1,4.47-.23a10.76,10.76,0,0,1,5.48,3.38C239.32,157.17,238.09,155.32,235,154.22Z"/><path class="cls-5" d="M240.06,159.79s0,.87-3.31.87a21.38,21.38,0,0,1-7.22-1.74s-1.83,1.65-6.09,1.48a10.21,10.21,0,0,1-6.61-2.61c1.21-.35,2.52-2.35,2.52-2.35a14.13,14.13,0,0,1-10.35.69,10,10,0,0,0,5.65,1.31s-.78,2-4.78,2.17a11.48,11.48,0,0,1-6.88-2s.35,1.57-3.91,2.44a15.7,15.7,0,0,1-7.92-.52,5.39,5.39,0,0,0,3.57-1.92s-1.22.7-5,.7-5.1-1.8-5.1-1.8a9,9,0,0,0,2.62,2.63s-1,1-4.59,1a12.05,12.05,0,0,1-6.24-1.8s-2.13,2.13-8.2,1.48c-4.22-.46-6.46-1.63-7.43-2.3,4-.25,4.95-2.6,4.95-2.6s-1.57,1-5,1a8.79,8.79,0,0,1-5.24-1.65,5,5,0,0,0,3.85,3.24c-1.11.47-3.7,1.23-9.54,1.85-9.19,1-11-2.79-8-4.59a5.83,5.83,0,0,1,5.74-.17,10.3,10.3,0,0,1-1.47-7.71,7.64,7.64,0,0,1,.62-2,8.49,8.49,0,0,0-2.37,7.46c-1.19-.77-3.91-1.82-7.54,1.14,0,0,.61-2.79-5.89-2.64a5,5,0,0,0-5,6.52c-2.38-.57-7.94-1.1-8.3,2.4,0,0-.94,2.65,4.6,3.17,5,.47,49.74.62,50,.62s13.79-.16,26-.16,29.9-.31,34.08-.62,11.43.43,11.89-1.43a1.29,1.29,0,0,0,0-.48A5.58,5.58,0,0,1,240.06,159.79Z"/><path class="cls-3" d="M136.72,153.45s.61-2.79-5.89-2.64a5,5,0,0,0-4.27,2.09,5.49,5.49,0,0,1,3.2-.81,6.33,6.33,0,0,1,5.77,3.84,4.65,4.65,0,0,1,2.62-1.57,4.57,4.57,0,0,1,4-2.84A7.1,7.1,0,0,0,136.72,153.45Z"/><path class="cls-6" d="M239.07,161.13s-.33.77-3.48.77a30.59,30.59,0,0,1-6.31-.77,12.91,12.91,0,0,1-6.62,1.2,17,17,0,0,1-6.85-1.74s-1,1.09-5,1.52a9.48,9.48,0,0,1-6.53-1.52s-2.06,2.39-7.71,2-7.4-1.63-7.4-1.63-1.19.87-4.67,1.19a21.43,21.43,0,0,1-7.72-1.19s-.32,1-6.41,1a25.93,25.93,0,0,1-10.22-2s-3.26,2-9.56,2.17a29,29,0,0,1-10.33-1.3s-2.93,1.85-8,.76-7.07-3-7.07-3a4.46,4.46,0,0,0,1.2,2.5,16.07,16.07,0,0,1-6.74-.32c-1.56-.46-1.77-1.42-1.54-2.33a2.61,2.61,0,0,0-.52,1.36s-.94,2.65,4.6,3.17c5,.47,49.74.62,50,.62s13.79-.16,26-.16,29.9-.31,34.08-.62,11,.39,11.83-1.26C242.12,162.14,239.07,161.13,239.07,161.13Z"/></g><g class="cls-1"><path class="cls-3" d="M83,87.57a10.09,10.09,0,0,0,1.55-4.38c.62-4.72-5-9-10.89-8.7a12.12,12.12,0,0,0-1.67-13.76c-5-5.87-14.46-6.08-19.46-2.42-1.69-1.67-5.25-3.77-11.58-2.07a11.29,11.29,0,0,0-8.26,10.63,11,11,0,0,0-9,2.32C20.21,71.74,18,76.9,19,80.64c-2.3-.12-6.76.33-8.11,5.46-.14.52-5.15-3.57-9.12.79S1.13,94.29,5,95A5.13,5.13,0,0,0,9,94a5,5,0,0,0,3.54,1.31h.79c.62.8,2,1.75,4.76,2.51a10.84,10.84,0,0,0,9.48-2c1.76,1.32,5,3,10.87,3.81,6.55.92,10.39-.77,12.58-2.45a18.55,18.55,0,0,0,7.1.47l.87-.08c1.08,1,3.23,2.07,7.46,2.33,5.82.36,9.57-1.29,11.51-3a6.17,6.17,0,0,0,4.87-1C85.64,93.72,85.92,89.66,83,87.57Z"/><path class="cls-5" d="M83,87.57a10.09,10.09,0,0,0,1.55-4.38c-.75,5.48-5.58,5.17-5.58,5.17s0,4.16-5.42,6.33a14.89,14.89,0,0,1-10.3.18c4.52-1.09,4.34-4.34,4.34-4.34S67,93.6,58.87,93.6s-10.3-4-10.3-4a9.82,9.82,0,0,0,6.14-3.25C47.85,90,39.9,85.29,39.9,85.29c2.17,3.07,6.32,3.62,6.32,3.62-3.61,9.21-16.58,7.25-21.32.9-3.65-4.91-1.15-8.3-1.15-8.3-4.14-2.94-3.53-8.31-.39-12.13C20.11,72,18,77,19,80.64c-2.3-.12-6.76.33-8.11,5.46-.14.52-5.15-3.57-9.12.79S1.13,94.29,5,95A5.13,5.13,0,0,0,9,94a5,5,0,0,0,3.54,1.31h.79c.62.8,2,1.75,4.76,2.51a10.84,10.84,0,0,0,9.48-2c1.76,1.32,5,3,10.87,3.81,6.55.92,10.39-.77,12.58-2.45a18.55,18.55,0,0,0,7.1.47l.87-.08c1.08,1,3.23,2.07,7.46,2.33,5.82.36,9.57-1.29,11.51-3a6.17,6.17,0,0,0,4.87-1C85.64,93.72,85.92,89.66,83,87.57Z"/><path class="cls-4" d="M73.61,74.49a12.12,12.12,0,0,0-1.67-13.76c-5-5.87-14.46-6.08-19.46-2.42-1.69-1.67-5.25-3.77-11.58-2.07a11.29,11.29,0,0,0-8.26,10.63,10.5,10.5,0,0,0-6.62.84,16.89,16.89,0,0,1,1.92-.06c8.3.26,9.71,6.77,9.71,6.77A4.35,4.35,0,0,0,35.09,79s1.79-4.21,7.54-3.32,6,4.73,6,4.73.26-4.73-3.83-6.26c0,0,.42-5.47,8.47-4.32s9.8,8.15,9.8,11.6c0,0,4.28-10.65-6.76-14.33a11.55,11.55,0,0,0-14.58,5.64s-.51-4.72-7.66-6.13c0,0-.87-7.52,7.92-8.82,10-1.47,10.48,5.37,10.48,5.37a15.87,15.87,0,0,1,7.66.89s-1.4-1.53-5.87-2.55c0,0,1.44-4.27,7.28-3.71,7.92.77,11.8,8.7,8.56,16,0,0-2.69.9-3.58,2.18,0,0,13.26-2.29,18,6C84.14,77.76,79,74.24,73.61,74.49Z"/><g class="cls-7"><path class="cls-8" d="M62.77,95.41h0Z"/><path class="cls-8" d="M78.88,95.21a7.72,7.72,0,0,0,1-2.77s-2.21,3.92-9.3,5.46-9.77-1-9.77-1l2-1.53c-.06,0-.74.42-5.74,1-5.36.58-10.92-2.58-10.92-2.58a10.17,10.17,0,0,0,2,1.6s-.38,1.53-9.45,1.78S26.4,93.84,26.4,93.84s-1.91,2.17-8.17.77-7.16-5.11-7.16-5.11a6.67,6.67,0,0,1-8.17.89c-1.51-1-1.89-1.88-1.71-2.78-3,4,.16,6.71,3.77,7.34A5.13,5.13,0,0,0,9,94a5,5,0,0,0,3.54,1.31h.79c.62.8,2,1.75,4.76,2.51a10.84,10.84,0,0,0,9.48-2c1.76,1.32,5,3,10.87,3.81,6.55.92,10.39-.77,12.58-2.45a18.55,18.55,0,0,0,7.1.47l.87-.08c1.08,1,3.23,2.07,7.46,2.33,5.82.36,9.57-1.29,11.51-3a6.17,6.17,0,0,0,4.87-1A5.82,5.82,0,0,0,85,91.91,6.65,6.65,0,0,1,78.88,95.21Z"/></g><path class="cls-3" d="M18.48,80.63c-2.18,0-5.62.6-7.17,4.29l0,.12a5.58,5.58,0,0,1,6.31-1.8c4.19,1.57,4.09,3.82,4.09,3.82A5.29,5.29,0,0,0,18.48,80.63Z"/><path class="cls-4" d="M73.9,79.6c-5-2.12-7.89.55-9,2A9.26,9.26,0,0,1,73.24,81c4.94,1.86,4.94,4.61,4.94,4.61S78.83,81.68,73.9,79.6Z"/><path class="cls-2" d="M39.31,98.66c-9.83-.09-12.12-3.25-12.12-3.25s-.48,1.53-6.52,1.82a10,10,0,0,1-8.81-4.17,2.65,2.65,0,0,0,1,1.53s-.14,0-1.29-.19a4.8,4.8,0,0,1-1.94-.79,2.57,2.57,0,0,0,.78-1.54c-.58.77-2.7,2.51-7.42.87A5.19,5.19,0,0,1,0,90.63C0,93,2.36,94.5,5,95A5.13,5.13,0,0,0,9,94a5,5,0,0,0,3.54,1.31h.79c.62.8,2,1.75,4.76,2.51a10.84,10.84,0,0,0,9.48-2c1.76,1.32,5,3,10.87,3.81,6.55.92,10.39-.77,12.58-2.45l.77.21a5.79,5.79,0,0,1-1.6-.9S49.13,98.76,39.31,98.66Z"/><path class="cls-2" d="M54.55,97.37c-4.2-.39-5-1.3-5-1.3,1.13,1.34,3.38,2,6.79,2.08s4.33-1.56,4.33-1.56S58.74,97.76,54.55,97.37Z"/><path class="cls-2" d="M82.06,95.73a5.07,5.07,0,0,1-3.31.13,7.59,7.59,0,0,0,.89-2.34c-1,2.9-6.49,6.1-12.5,6.06s-7.79-2.25-7.79-2.25l-.85.35.44,0c1.08,1,3.23,2.07,7.46,2.33,5.82.36,9.57-1.29,11.51-3a5.71,5.71,0,0,0,6.77-3.51A5.13,5.13,0,0,1,82.06,95.73Z"/></g><g class="cls-1"><path class="cls-2" d="M284.84,34.3s1.1,2,6.8,1.1,7.19-4.5,6.89-5.6S284.84,34.3,284.84,34.3Z"/><path class="cls-2" d="M251.76,37.69l.1,3.9a32.13,32.13,0,0,0,15.69,2.5c9.4-.7,18.15-5.18,19.37-9.68S251.76,37.69,251.76,37.69Z"/><path class="cls-3" d="M292,21.84a13.89,13.89,0,0,0-6.81,0c-.44-1.62-1.53-4.94-7-6.73a14.31,14.31,0,0,0-5.9-.29c-.59-2-2.48-5.64-8.61-8a14.88,14.88,0,0,0-12.45,1c-.88-1.66-3.8-5.71-11.71-7.44-8.37-1.83-15.66,3.9-17.74,8.57-.86-.66-2.55-1.33-5.73-.88a3.84,3.84,0,0,0-3.26,2.5c-1.21-.91-3.79-1.78-9.27-1.31a8,8,0,0,0-7.69,7.67,14.62,14.62,0,0,0-6.81,1c-2.81,1-3.5,3-3.47,4.64-4.23-.8-15.74-2.42-18.37,3.28,0,0-2,3.64,7.31,4.95l1.46.19a11.41,11.41,0,0,0,7.06,5,14.2,14.2,0,0,0,7.28.06c.8,1.43,2.69,3.13,6.93,4.45a19.58,19.58,0,0,0,9.13.65,19.66,19.66,0,0,0,6.85,2.33,17.06,17.06,0,0,0,10.19-1.64c2.79,1.84,7.77,3.52,16.57,2.9,6.36-.46,10.87-2.12,14-4.06a25.48,25.48,0,0,0,10,2.36c12.51.62,20.71-3.74,23-8.69a12.23,12.23,0,0,0,9.4-1.58C302.12,29.24,297.46,23.46,292,21.84Z"/><g class="cls-9"><path class="cls-10" d="M200,23.51Z"/><path class="cls-10" d="M293.67,31.77c-4.81,1.22-6.57-.88-6.57-.88s-4,7.19-16.11,7.93-12.4-4.09-12.4-4.09c5.37-2.38,6.49-5.29,6.49-5.29C258.59,34.73,247,33,247,33a17.4,17.4,0,0,0,6.78,2.42s-2.09,2.53-15.38,3.86-16.45-3.84-16.45-3.84c3.08-.62,5.55-3.54,5.55-3.54s-3.26,1.39-10,1.09-7.75-2.8-7.75-2.8c.23,2.89,3.91,4.58,3.91,4.58s-1.7,2.73-11.17,1.11S189.84,30.2,190,24.61s5.34-4.7,5.34-4.7c1,2.09,4.6,3.57,4.67,3.6-.12-.05-2-.93-3.17-6.71a6.53,6.53,0,0,1,1-4.94,8.12,8.12,0,0,0-2.05,5,14.62,14.62,0,0,0-6.81,1c-2.81,1-3.5,3-3.47,4.64-4.23-.8-15.74-2.42-18.37,3.28,0,0-2,3.64,7.31,4.95l1.46.19a11.41,11.41,0,0,0,7.06,5,14.2,14.2,0,0,0,7.28.06c.8,1.43,2.69,3.13,6.93,4.45a19.58,19.58,0,0,0,9.13.65,19.66,19.66,0,0,0,6.85,2.33,17.06,17.06,0,0,0,10.19-1.64c2.79,1.84,7.77,3.52,16.57,2.9,6.36-.46,10.87-2.12,14-4.06a25.48,25.48,0,0,0,10,2.36c12.51.62,20.71-3.74,23-8.69a12.23,12.23,0,0,0,9.4-1.58c2.37-1.47,3-3.3,2.52-5.06C298.28,29.12,296.89,31,293.67,31.77Z"/></g><path class="cls-4" d="M285.14,21.86c-.44-1.62-1.53-4.94-7-6.73a14.31,14.31,0,0,0-5.9-.29c-.59-2-2.48-5.64-8.61-8a14.88,14.88,0,0,0-12.45,1c-.88-1.66-3.8-5.71-11.71-7.44a16.33,16.33,0,0,0-14.27,4A18.47,18.47,0,0,1,236.62,2.6C246.4,4,248,12.38,248,12.38s-4.45,1.71-6.07,4.55c0,0,8.88-4.92,17.72,1.09a11.16,11.16,0,0,0-7.19-5.7S255,6.16,263.3,8.62s8.1,10.08,8.1,10.08a12.21,12.21,0,0,1,9,1.73c4.67,2.92,5.31,6.52,5.31,6.52l-.21-3.8s5.54-1.4,10.44.73a12.61,12.61,0,0,0-4-2A13.89,13.89,0,0,0,285.14,21.86Z"/><path class="cls-4" d="M216.75,7.28c-7.23,2.1-6.69,8-6.69,8,1.19-3,5.64-5.33,11.05-4.93s7.46,3.15,7.46,3.15C228.24,11.92,224,5.18,216.75,7.28Z"/><path class="cls-4" d="M197.81,11.86s6.89-4.89,14.51-.67l1.22-1.56S206.38,5.13,197.81,11.86Z"/><path class="cls-3" d="M168.45,24.08A13.62,13.62,0,0,1,177.72,23c7,1.92,8.7,3.85,8.7,3.85a7.37,7.37,0,0,1-1-4.23C181.73,21.87,172.44,20.56,168.45,24.08Z"/><path class="cls-6" d="M254.62,37.45S252.7,40.63,238,41.88s-21-5.75-21-5.75c.32,1.5,2.45,3.28,2.45,3.28s-1.34,1.21-4.95,1.11a15.49,15.49,0,0,1-7.11-2.47s-.89,1.07-8,.41-10.14-5-10.14-5-.89.77-5.27-.38a8.33,8.33,0,0,1-5.63-5.2s-1.65.47-8-.65A10,10,0,0,1,167,26.11c-.26.84-.46,3.6,7.4,4.7l1.46.19a11.41,11.41,0,0,0,7.06,5,14.2,14.2,0,0,0,7.28.06c.8,1.43,2.69,3.13,6.93,4.45a19.58,19.58,0,0,0,9.13.65,19.66,19.66,0,0,0,6.85,2.33,17.06,17.06,0,0,0,10.19-1.64c2.79,1.84,7.77,3.52,16.57,2.9,6.36-.46,10.87-2.12,14-4.06a25.48,25.48,0,0,0,10,2.36c10,.5,17.22-2.19,20.92-5.81-2.95,1.77-7.81,3.24-14.65,3.87A23.69,23.69,0,0,1,254.62,37.45Z"/><path class="cls-4" d="M240.49,15.69C236,14.33,229.55,16,228.87,22c0,0,.88-4.4,7.71-4.69s9,3.9,9,3.9A7.17,7.17,0,0,0,240.49,15.69Z"/><path class="cls-2" d="M337.3,34.5c-2.1-1.5-14.89-.2-15.29-.2s-12.79-3.7-12.79-3.7-3.3,3.5.4,5.9a7.5,7.5,0,0,0,6.09.86,9.32,9.32,0,0,0,6,2.73,16.4,16.4,0,0,0,9-1.71,5.28,5.28,0,0,0,3.84.51C338.1,38.09,339.4,36,337.3,34.5Z"/><path class="cls-3" d="M333,32h0a5.31,5.31,0,0,0,2-2.58c.86-2.87,1.34-6.89-7.18-6.89-5.6,0-8.84,3.11-9.86,5.73a9,9,0,0,0-5.06-.37c-4.49.86-6.31,6.5-2.68,8.51a9.29,9.29,0,0,0,6.05.65,8.59,8.59,0,0,0,4.29,1.74c3.9.56,8,0,10-.94,2,.47,4.45.73,6.18-.2C340,35.81,338.35,32.46,333,32Z"/><path class="cls-5" d="M331.31,34.29s-1.23.41-5.74.41-6.15-1.84-6.15-1.84-2.46,1.63-7.38,0c-2.31-.78-2.36-2.37-1.75-3.84-2.51,2-3,5.79-.16,7.36a9.29,9.29,0,0,0,6.05.65,8.59,8.59,0,0,0,4.29,1.74c3.9.56,8,0,10-.94,2,.47,4.45.73,6.18-.2,1.42-.78,1.94-1.82,1.67-2.81C336.14,37.12,331.31,34.29,331.31,34.29Z"/><path class="cls-4" d="M333,32a5.31,5.31,0,0,0,2-2.58c.86-2.87,1.34-6.89-7.18-6.89a12,12,0,0,0-6.14,1.57c2.21-.6,5.2-.85,7.36,1.14,3.85,3.55,1.08,6.78.93,7s4.47-.11,7.64,1.39A7.72,7.72,0,0,0,333,32Z"/><path class="cls-6" d="M330.26,35.39s-1.54,1.54-6.85,1.77-6.7-1.77-6.7-1.77-1.54,1.15-6.09.23a4.26,4.26,0,0,1-2.14-1,3.63,3.63,0,0,0,1.65,1.81,9.29,9.29,0,0,0,6.05.65,8.59,8.59,0,0,0,4.29,1.74c3.9.56,8,0,10-.94,2,.47,4.45.73,6.18-.2a4.21,4.21,0,0,0,1-.75C334.65,38.18,330.26,35.39,330.26,35.39Z"/><path class="cls-2" d="M351.26,32.9c-1.77-.5-10-1.59-10-1.59-.32-.21-1.72,3.59,1.48,5.19a8,8,0,0,0,5.15.46,7.1,7.1,0,0,0,3.44.34C354.89,36.8,353,33.4,351.26,32.9Z"/><path class="cls-3" d="M350.79,32.46a6.59,6.59,0,0,0-1.1-.07c-.32-1.07-1.49-2.6-4.17-3.09,0,0-3.25-.67-4.3,2s.29,4.78,3.92,5.17a9.37,9.37,0,0,0,3-.11,6.77,6.77,0,0,0,3.1.4C354.33,36.38,353.56,32.84,350.79,32.46Z"/><path class="cls-6" d="M351.68,35.15a2.77,2.77,0,0,1-3-1.21s-1.82,1.73-5.32.58a2.93,2.93,0,0,1-2.3-2.68c-.68,2.42.71,4.28,4.1,4.64a9.37,9.37,0,0,0,3-.11,6.77,6.77,0,0,0,3.1.4c1.9-.24,2.32-1.7,1.7-2.86C353,34.45,352.65,35,351.68,35.15Z"/><path class="cls-4" d="M349.69,32.39c-.32-1.07-1.49-2.6-4.17-3.09a5.19,5.19,0,0,0-2.24.12c-.41.37-.55.94.25,1.84,1.87,2.11,4.65,1.68,5.22,1A2.3,2.3,0,0,0,351,33.9c1,.1,1.37-.28,1.5-.66a3,3,0,0,0-1.67-.78A6.59,6.59,0,0,0,349.69,32.39Z"/><path class="cls-3" d="M361.37,32.08s-3.69-.31-3.62,1.61,5,2.85,6.85,1.08S364.22,30.77,361.37,32.08Z"/><path class="cls-6" d="M360.31,34c-2-.32-2.33-.81-2.17-1.23a1.13,1.13,0,0,0-.39.93c.08,1.93,5,2.85,6.85,1.08a1.75,1.75,0,0,0,.63-1.72C364.89,33.81,363.65,34.54,360.31,34Z"/><path class="cls-2" d="M180.32,34.6a5.94,5.94,0,0,1-4.1-5.2c-.6,2.2.5,5.3,5.6,6.9s8.4-.19,8.4-.19S184.41,36.2,180.32,34.6Z"/><path class="cls-2" d="M176.22,29.4s-1.5.6-5.4-.2-3.8-3.09-3.8-3.09c-.42,5.19,9.7,5.89,9.7,5.89A5.51,5.51,0,0,1,176.22,29.4Z"/><path class="cls-2" d="M235.48,44.29c-9.9-.2-12.69-2.7-12.69-2.7s-3.2,2.4-8.9,1.7-7.69-3-7.69-3-3.1,1.5-8.8,0-7.18-4.18-7.18-4.18,1.09,3.38,5.79,5a19,19,0,0,0,9.69.3s1.2,2.1,7,3.1a17.93,17.93,0,0,0,10.59-1.6s4.3,2.7,14.51,2.71,16.14-4.86,16.14-4.86A49,49,0,0,1,235.48,44.29Z"/></g></g></g></svg>