<svg xmlns="http://www.w3.org/2000/svg" xmlns:xlink="http://www.w3.org/1999/xlink" viewBox="0 0 714.41 435.54"><defs><style>.cls-1{mask:url(#mask);filter:url(#luminosity-noclip-10);}.cls-10,.cls-100,.cls-101,.cls-12,.cls-123,.cls-14,.cls-16,.cls-18,.cls-2,.cls-25,.cls-29,.cls-39,.cls-4,.cls-44,.cls-58,.cls-6,.cls-76,.cls-77,.cls-8,.cls-87,.cls-96{mix-blend-mode:multiply;}.cls-2{fill:url(#linear-gradient);}.cls-3{mask:url(#mask-2);filter:url(#luminosity-noclip-15);}.cls-4{fill:url(#linear-gradient-2);}.cls-5{mask:url(#mask-3);filter:url(#luminosity-noclip-16);}.cls-6{fill:url(#linear-gradient-3);}.cls-7{mask:url(#mask-4);filter:url(#luminosity-noclip-17);}.cls-8{fill:url(#linear-gradient-4);}.cls-9{mask:url(#mask-5);filter:url(#luminosity-noclip-18);}.cls-10{fill:url(#linear-gradient-5);}.cls-11{mask:url(#mask-6);filter:url(#luminosity-noclip-11);}.cls-12{fill:url(#linear-gradient-6);}.cls-13{mask:url(#mask-7);filter:url(#luminosity-noclip-12);}.cls-14{fill:url(#linear-gradient-7);}.cls-15{mask:url(#mask-8);filter:url(#luminosity-noclip-13);}.cls-16{fill:url(#linear-gradient-8);}.cls-17{mask:url(#mask-9);filter:url(#luminosity-noclip-14);}.cls-18{fill:url(#linear-gradient-9);}.cls-19{fill:none;}.cls-20{isolation:isolate;}.cls-21{fill:#667f7d;}.cls-22{fill:#966c33;}.cls-23{clip-path:url(#clip-path);}.cls-24{fill:#99402b;}.cls-101,.cls-25,.cls-29,.cls-58{fill:#614e68;}.cls-25,.cls-50,.cls-83{opacity:0.6;}.cls-26{fill:#605147;}.cls-27{fill:#3f362c;}.cls-28{fill:#7b9b98;}.cls-100,.cls-29,.cls-97{opacity:0.3;}.cls-30{fill:#d59c24;}.cls-31,.cls-33{fill:#fff7db;}.cls-122,.cls-31,.cls-33,.cls-41,.cls-50,.cls-57,.cls-65,.cls-70,.cls-74,.cls-81,.cls-83,.cls-88,.cls-91,.cls-95,.cls-97,.cls-99{mix-blend-mode:overlay;}.cls-123,.cls-31{opacity:0.7;}.cls-32{fill:#415957;}.cls-101,.cls-113,.cls-33,.cls-57,.cls-87{opacity:0.4;}.cls-34{fill:#c49c37;}.cls-35{fill:#634228;}.cls-36{fill:url(#linear-gradient-10);}.cls-37{fill:#ffc61b;}.cls-38{fill:#c65c2e;}.cls-39,.cls-44,.cls-58,.cls-77,.cls-78,.cls-88{opacity:0.5;}.cls-40{mask:url(#mask-10);}.cls-41{fill:url(#linear-gradient-11);}.cls-42{fill:#9b7623;}.cls-43{fill:#42392b;}.cls-44{fill:#3d3028;}.cls-45{fill:#604f35;}.cls-46{fill:url(#linear-gradient-12);}.cls-47{fill:#f9d12b;}.cls-48{fill:#f4c78c;}.cls-49{fill:#ea7a2f;}.cls-50,.cls-57{fill:#fffac6;}.cls-51{fill:#a06b47;}.cls-52{fill:url(#linear-gradient-13);}.cls-53{fill:url(#linear-gradient-14);}.cls-54{fill:url(#linear-gradient-15);}.cls-55{fill:#89cec8;}.cls-56{fill:url(#linear-gradient-16);}.cls-59{fill:url(#linear-gradient-17);}.cls-60{fill:url(#linear-gradient-18);}.cls-61{fill:#a35b2b;}.cls-62{fill:url(#linear-gradient-19);}.cls-63{fill:url(#linear-gradient-20);}.cls-64{mask:url(#mask-11);}.cls-65{fill:url(#linear-gradient-21);}.cls-66{fill:#526866;}.cls-67{fill:url(#linear-gradient-22);}.cls-68{fill:#bfbf84;}.cls-69{mask:url(#mask-12);}.cls-70{fill:url(#linear-gradient-23);}.cls-71{fill:#8d8e75;}.cls-72{fill:#afaf91;}.cls-73{mask:url(#mask-13);}.cls-74{fill:url(#linear-gradient-24);}.cls-75{fill:url(#linear-gradient-25);}.cls-76{opacity:0.8;}.cls-77{fill:#001525;}.cls-79{fill:url(#linear-gradient-26);}.cls-80{mask:url(#mask-14);}.cls-81{fill:url(#linear-gradient-27);}.cls-82{fill:#5b4f33;}.cls-83{fill:#d7eed8;}.cls-84{fill:#3a3022;}.cls-85{fill:url(#linear-gradient-28);}.cls-86{fill:#aa8022;}.cls-100,.cls-87,.cls-89{fill:#514735;}.cls-88{fill:#ffebbe;}.cls-90{mask:url(#mask-15);}.cls-91{fill:url(#linear-gradient-29);}.cls-92,.cls-96{fill:#8fb7b3;}.cls-93{fill:#705e42;}.cls-94{mask:url(#mask-16);}.cls-95{fill:url(#linear-gradient-30);}.cls-97{fill:#ffd9a5;}.cls-98{mask:url(#mask-17);}.cls-99{fill:url(#linear-gradient-31);}.cls-102{fill:#4f2e26;}.cls-103{fill:#493a26;}.cls-104{fill:#2d4951;}.cls-105{fill:url(#linear-gradient-32);}.cls-106{fill:#375860;}.cls-107{fill:#a5722f;}.cls-108{fill:#db9261;}.cls-109{fill:#457582;}.cls-110{fill:#f7ac74;}.cls-111,.cls-113{fill:#754e34;}.cls-112{fill:#513420;}.cls-114{fill:#564438;}.cls-115{fill:#d67254;}.cls-116{fill:#5a93a0;}.cls-117{fill:#633f1a;}.cls-118{fill:#3d250f;}.cls-119{fill:#756151;}.cls-120{fill:#c4972a;}.cls-121{mask:url(#mask-18);}.cls-122{fill:url(#linear-gradient-33);}.cls-123,.cls-124{fill:#22214e;}.cls-125{fill:#666296;}.cls-126{fill:#ccd3e3;}.cls-127{fill:#454173;}.cls-128{fill:url(#Безымянный_градиент_13);}.cls-129{fill:url(#Безымянный_градиент_13-2);}.cls-130{fill:#e26700;}.cls-131{fill:#d9b500;}.cls-132{fill:#ffc180;}.cls-133{fill:#bc0300;}.cls-134{fill:#7c510c;}.cls-135{fill:#2e4466;}.cls-136{fill:#cc792f;}.cls-137{fill:#970100;}.cls-138{fill:#998000;}.cls-139{fill:#ffd500;}.cls-140{fill:#eb9843;}.cls-141{fill:#dcdcdc;}.cls-142{fill:#fff;}.cls-143{fill:#ffb568;}.cls-144{fill:#fafafa;}.cls-145{fill:#ff392e;}.cls-146{fill:#3f9487;}.cls-147{fill:#7dc5bc;}.cls-148{fill:url(#Безымянный_градиент_135);}.cls-149{fill:#750037;}.cls-150{fill:#ad0031;}.cls-151{fill:#cae8e3;}.cls-152,.cls-161{fill:#fff3f2;}.cls-152,.cls-160{mix-blend-mode:screen;opacity:0.85;}.cls-153{fill:#444363;}.cls-154{fill:#660030;}.cls-155{fill:#ff9b05;}.cls-156{fill:#fcfcfc;}.cls-157{fill:#defffa;}.cls-158{fill:#e36104;}.cls-159{fill:#ffd699;}.cls-162{fill:#f0fffd;}.cls-163{fill:#ffd5bf;}.cls-164{filter:url(#luminosity-noclip-9);}.cls-165{filter:url(#luminosity-noclip-8);}.cls-166{filter:url(#luminosity-noclip-7);}.cls-167{filter:url(#luminosity-noclip-6);}.cls-168{filter:url(#luminosity-noclip-5);}.cls-169{filter:url(#luminosity-noclip-4);}.cls-170{filter:url(#luminosity-noclip-3);}.cls-171{filter:url(#luminosity-noclip-2);}.cls-172{filter:url(#luminosity-noclip);}</style><filter id="luminosity-noclip" x="123.27" y="-4228.12" width="29.13" height="32766" filterUnits="userSpaceOnUse" color-interpolation-filters="sRGB"><feFlood flood-color="#fff" result="bg"/><feBlend in="SourceGraphic" in2="bg"/></filter><mask id="mask" x="123.27" y="-4228.12" width="29.13" height="32766" maskUnits="userSpaceOnUse"><g class="cls-172"/></mask><linearGradient id="linear-gradient" x1="121.21" y1="263.59" x2="154.06" y2="263.59" gradientUnits="userSpaceOnUse"><stop offset="0.01" stop-color="#fff"/><stop offset="0.99"/></linearGradient><filter id="luminosity-noclip-2" x="8.11" y="-4228.12" width="51.08" height="32766" filterUnits="userSpaceOnUse" color-interpolation-filters="sRGB"><feFlood flood-color="#fff" result="bg"/><feBlend in="SourceGraphic" in2="bg"/></filter><mask id="mask-2" x="8.11" y="-4228.12" width="51.08" height="32766" maskUnits="userSpaceOnUse"><g class="cls-171"/></mask><linearGradient id="linear-gradient-2" x1="365.66" y1="176.93" x2="258.45" y2="130.7" gradientTransform="translate(-260.17 231.63) rotate(3.82)" xlink:href="#linear-gradient"/><filter id="luminosity-noclip-3" x="8.9" y="-4228.12" width="16.37" height="32766" filterUnits="userSpaceOnUse" color-interpolation-filters="sRGB"><feFlood flood-color="#fff" result="bg"/><feBlend in="SourceGraphic" in2="bg"/></filter><mask id="mask-3" x="8.9" y="-4228.12" width="16.37" height="32766" maskUnits="userSpaceOnUse"><g class="cls-170"/></mask><linearGradient id="linear-gradient-3" x1="268.32" y1="129.07" x2="311.97" y2="129.07" gradientTransform="translate(-260.17 231.63) rotate(3.82)" xlink:href="#linear-gradient"/><filter id="luminosity-noclip-4" x="8.97" y="-4228.12" width="50.22" height="32766" filterUnits="userSpaceOnUse" color-interpolation-filters="sRGB"><feFlood flood-color="#fff" result="bg"/><feBlend in="SourceGraphic" in2="bg"/></filter><mask id="mask-4" x="8.97" y="-4228.12" width="50.22" height="32766" maskUnits="userSpaceOnUse"><g class="cls-169"/></mask><linearGradient id="linear-gradient-4" x1="295.83" y1="140.55" x2="272.63" y2="128.5" gradientTransform="translate(-260.17 231.63) rotate(3.82)" xlink:href="#linear-gradient"/><filter id="luminosity-noclip-5" x="430.31" y="-4228.12" width="46.41" height="32766" filterUnits="userSpaceOnUse" color-interpolation-filters="sRGB"><feFlood flood-color="#fff" result="bg"/><feBlend in="SourceGraphic" in2="bg"/></filter><mask id="mask-5" x="430.31" y="-4228.12" width="46.41" height="32766" maskUnits="userSpaceOnUse"><g class="cls-168"/></mask><linearGradient id="linear-gradient-5" x1="-240.78" y1="-120.26" x2="-181.02" y2="-120.26" gradientTransform="translate(697.37 533.09) rotate(-1.47) scale(1.18)" xlink:href="#linear-gradient"/><filter id="luminosity-noclip-6" x="136.74" y="-4228.12" width="34.62" height="32766" filterUnits="userSpaceOnUse" color-interpolation-filters="sRGB"><feFlood flood-color="#fff" result="bg"/><feBlend in="SourceGraphic" in2="bg"/></filter><mask id="mask-6" x="136.74" y="-4228.12" width="34.62" height="32766" maskUnits="userSpaceOnUse"><g class="cls-167"/></mask><linearGradient id="linear-gradient-6" x1="548.01" y1="1111.31" x2="607.77" y2="1111.31" gradientTransform="translate(-384.35 -562.63) rotate(-1.47) scale(0.88)" xlink:href="#linear-gradient"/><filter id="luminosity-noclip-7" x="122.61" y="-4228.12" width="62.43" height="32766" filterUnits="userSpaceOnUse" color-interpolation-filters="sRGB"><feFlood flood-color="#fff" result="bg"/><feBlend in="SourceGraphic" in2="bg"/></filter><mask id="mask-7" x="122.61" y="-4228.12" width="62.43" height="32766" maskUnits="userSpaceOnUse"><g class="cls-166"/></mask><linearGradient id="linear-gradient-7" x1="95.06" y1="291.52" x2="199.16" y2="364.51" gradientUnits="userSpaceOnUse"><stop offset="0.01" stop-color="#fff"/><stop offset="0.72" stop-color="#757575"/><stop offset="0.99"/></linearGradient><filter id="luminosity-noclip-8" x="302.03" y="-4228.12" width="41.06" height="32766" filterUnits="userSpaceOnUse" color-interpolation-filters="sRGB"><feFlood flood-color="#fff" result="bg"/><feBlend in="SourceGraphic" in2="bg"/></filter><mask id="mask-8" x="302.03" y="-4228.12" width="41.06" height="32766" maskUnits="userSpaceOnUse"><g class="cls-165"/></mask><linearGradient id="linear-gradient-8" x1="262.73" y1="244.35" x2="347.75" y2="311.12" xlink:href="#linear-gradient-7"/><filter id="luminosity-noclip-9" x="35.49" y="-4228.12" width="54.13" height="32766" filterUnits="userSpaceOnUse" color-interpolation-filters="sRGB"><feFlood flood-color="#fff" result="bg"/><feBlend in="SourceGraphic" in2="bg"/></filter><mask id="mask-9" x="35.49" y="-4228.12" width="54.13" height="32766" maskUnits="userSpaceOnUse"><g class="cls-164"/></mask><linearGradient id="linear-gradient-9" x1="303.47" y1="123.71" x2="383.14" y2="102.31" gradientTransform="translate(-260.17 231.63) rotate(3.82)" xlink:href="#linear-gradient"/><clipPath id="clip-path"><path class="cls-19" d="M403.48,418.05a191,191,0,0,0,48.46-127.41c0-105.91-85.87-191.77-191.78-191.77S68.38,184.73,68.38,290.64a191,191,0,0,0,48.46,127.41Z"/></clipPath><linearGradient id="linear-gradient-10" x1="134.65" y1="263.36" x2="135.51" y2="263.36" gradientUnits="userSpaceOnUse"><stop offset="0" stop-color="#eac324"/><stop offset="0.99" stop-color="#cb8924"/></linearGradient><filter id="luminosity-noclip-10" x="123.27" y="261.08" width="29.13" height="5.02" filterUnits="userSpaceOnUse" color-interpolation-filters="sRGB"><feFlood flood-color="#fff" result="bg"/><feBlend in="SourceGraphic" in2="bg"/></filter><mask id="mask-10" x="123.27" y="261.08" width="29.13" height="5.02" maskUnits="userSpaceOnUse"><g class="cls-1"><path class="cls-2" d="M152.37,263.08a1.71,1.71,0,0,0-.39-1.42,1.67,1.67,0,0,0-1.34-.58l-25.55,1.11a1.93,1.93,0,0,0-1.38.69,1.9,1.9,0,0,0-.43,1.47l.24,1.76,28.75-2.52Z"/></g></mask><linearGradient id="linear-gradient-11" x1="121.21" y1="263.59" x2="154.06" y2="263.59" gradientUnits="userSpaceOnUse"><stop offset="0.01" stop-color="#fff2c8"/><stop offset="0.99" stop-color="#ffae67"/></linearGradient><linearGradient id="linear-gradient-12" x1="549.25" y1="239.28" x2="565.11" y2="239.28" gradientTransform="translate(-232.87) scale(0.92 1)" xlink:href="#linear-gradient-10"/><linearGradient id="linear-gradient-13" x1="-8410.54" y1="-1116.86" x2="-8405.28" y2="-1116.86" gradientTransform="matrix(-1.06, -0.41, -0.31, 0.8, -9063.37, -2324.35)" xlink:href="#linear-gradient-10"/><linearGradient id="linear-gradient-14" x1="-7797.29" y1="272.53" x2="-7793.47" y2="294.73" gradientTransform="matrix(-1, 0.01, 0.01, 1, -7604.83, 38.29)" xlink:href="#linear-gradient-10"/><linearGradient id="linear-gradient-15" x1="-7518.32" y1="-454.06" x2="-7513.06" y2="-454.06" gradientTransform="matrix(-1.23, -0.2, -0.16, 0.99, -9128.35, -797.3)" xlink:href="#linear-gradient-10"/><linearGradient id="linear-gradient-16" x1="171.19" y1="343.84" x2="289.81" y2="252.6" gradientUnits="userSpaceOnUse"><stop offset="0.02" stop-color="#4f7770"/><stop offset="0.89" stop-color="#3f362c"/></linearGradient><linearGradient id="linear-gradient-17" x1="94.41" y1="304.8" x2="343.8" y2="304.8" xlink:href="#linear-gradient-16"/><linearGradient id="linear-gradient-18" x1="-7762.05" y1="314.07" x2="-7758.61" y2="326.58" gradientTransform="matrix(-1, 0, 0, 1, -7503.99, 0)" xlink:href="#linear-gradient-10"/><linearGradient id="linear-gradient-19" x1="123.17" y1="342.32" x2="372.56" y2="342.32" xlink:href="#linear-gradient-16"/><linearGradient id="linear-gradient-20" x1="108.79" y1="373.41" x2="358.18" y2="373.41" gradientUnits="userSpaceOnUse"><stop offset="0.02" stop-color="#4f7770"/><stop offset="0.54" stop-color="#44483f"/><stop offset="0.89" stop-color="#3f362c"/></linearGradient><filter id="luminosity-noclip-11" x="136.74" y="385.78" width="34.62" height="28.2" filterUnits="userSpaceOnUse" color-interpolation-filters="sRGB"><feFlood flood-color="#fff" result="bg"/><feBlend in="SourceGraphic" in2="bg"/></filter><mask id="mask-11" x="136.74" y="385.78" width="34.62" height="28.2" maskUnits="userSpaceOnUse"><g class="cls-11"><path class="cls-12" d="M169.64,396.06a36.85,36.85,0,0,0,1.72-3.81c-4.53-3.92-9.84-6.61-15.17-6.47-13.23.34-19.24,17-19.45,27.2C148.37,416.72,162.49,409.73,169.64,396.06Z"/></g></mask><linearGradient id="linear-gradient-21" x1="548.01" y1="1111.31" x2="607.77" y2="1111.31" gradientTransform="translate(-384.35 -562.63) rotate(-1.47) scale(0.88)" xlink:href="#linear-gradient-11"/><linearGradient id="linear-gradient-22" x1="411.4" y1="169.78" x2="477.72" y2="127.47" gradientUnits="userSpaceOnUse"><stop offset="0" stop-color="#c1552f"/><stop offset="1" stop-color="#ccb637"/></linearGradient><filter id="luminosity-noclip-12" x="122.61" y="294.87" width="62.43" height="76.15" filterUnits="userSpaceOnUse" color-interpolation-filters="sRGB"><feFlood flood-color="#fff" result="bg"/><feBlend in="SourceGraphic" in2="bg"/></filter><mask id="mask-12" x="122.61" y="294.87" width="62.43" height="76.15" maskUnits="userSpaceOnUse"><g class="cls-13"><path class="cls-14" d="M143.14,366.64c2.49,1.87,16.9,4.05,27.17-1.87,9.62-4.12,10.58-10.14,12.86-21.15,2-11.88,2.2-29.62,1.5-48.75-6.34,3-14.91,8-19.06,1.19-7.49,6-15.76,14.11-22.4,8.3-4.88,9.32-16.38,12.86-20.6,7.75,2.88,22.81,3,38.11,1,58.91C130.36,365.47,139.41,368.68,143.14,366.64Z"/></g></mask><linearGradient id="linear-gradient-23" x1="95.06" y1="291.52" x2="199.16" y2="364.51" gradientUnits="userSpaceOnUse"><stop offset="0.01" stop-color="#fff2c8"/><stop offset="0.72" stop-color="#ffcd94"/><stop offset="0.99" stop-color="#ffae67"/></linearGradient><filter id="luminosity-noclip-13" x="302.03" y="263.14" width="41.06" height="56.4" filterUnits="userSpaceOnUse" color-interpolation-filters="sRGB"><feFlood flood-color="#fff" result="bg"/><feBlend in="SourceGraphic" in2="bg"/></filter><mask id="mask-13" x="302.03" y="263.14" width="41.06" height="56.4" maskUnits="userSpaceOnUse"><g class="cls-15"><polygon class="cls-16" points="302.45 276.82 343.09 263.14 341.85 313.32 302.03 319.54 302.45 276.82"/></g></mask><linearGradient id="linear-gradient-24" x1="262.73" y1="244.35" x2="347.75" y2="311.12" xlink:href="#linear-gradient-23"/><linearGradient id="linear-gradient-25" x1="289.97" y1="339.89" x2="360.48" y2="313.35" gradientUnits="userSpaceOnUse"><stop offset="0.02" stop-color="#4f7770"/><stop offset="1" stop-color="#605147"/></linearGradient><linearGradient id="linear-gradient-26" x1="293.74" y1="160.12" x2="346.02" y2="160.12" gradientTransform="translate(-260.17 231.63) rotate(3.82)" gradientUnits="userSpaceOnUse"><stop offset="0.02" stop-color="#8e7d5a"/><stop offset="0.99" stop-color="#5b4f33"/></linearGradient><filter id="luminosity-noclip-14" x="35.49" y="352.94" width="54.13" height="30.4" filterUnits="userSpaceOnUse" color-interpolation-filters="sRGB"><feFlood flood-color="#fff" result="bg"/><feBlend in="SourceGraphic" in2="bg"/></filter><mask id="mask-14" x="35.49" y="352.94" width="54.13" height="30.4" maskUnits="userSpaceOnUse"><g class="cls-17"><polygon class="cls-18" points="89.62 355.05 88.28 352.94 50.98 380.78 50.6 379.55 46.83 378.45 45.43 375.11 47.72 373.61 35.49 374.43 52.63 383.34 89.62 355.05"/></g></mask><linearGradient id="linear-gradient-27" x1="303.47" y1="123.71" x2="383.14" y2="102.31" gradientTransform="translate(-260.17 231.63) rotate(3.82)" xlink:href="#linear-gradient-11"/><linearGradient id="linear-gradient-28" x1="299.49" y1="158" x2="302.22" y2="181.25" xlink:href="#linear-gradient-26"/><filter id="luminosity-noclip-15" x="8.11" y="395.86" width="51.08" height="14.22" filterUnits="userSpaceOnUse" color-interpolation-filters="sRGB"><feFlood flood-color="#fff" result="bg"/><feBlend in="SourceGraphic" in2="bg"/></filter><mask id="mask-15" x="8.11" y="395.86" width="51.08" height="14.22" maskUnits="userSpaceOnUse"><g class="cls-3"><polygon class="cls-4" points="59.19 395.86 9.78 396.16 8.11 397.22 11.26 410.08 48.95 409.15 49.6 408.94 49.95 399.21 59.19 395.86"/></g></mask><linearGradient id="linear-gradient-29" x1="365.66" y1="176.93" x2="258.45" y2="130.7" gradientTransform="translate(-260.17 231.63) rotate(3.82)" xlink:href="#linear-gradient-11"/><filter id="luminosity-noclip-16" x="8.9" y="363.09" width="16.37" height="33.08" filterUnits="userSpaceOnUse" color-interpolation-filters="sRGB"><feFlood flood-color="#fff" result="bg"/><feBlend in="SourceGraphic" in2="bg"/></filter><mask id="mask-16" x="8.9" y="363.09" width="16.37" height="33.08" maskUnits="userSpaceOnUse"><g class="cls-5"><path class="cls-6" d="M25.28,363.09C17.12,363.9,8.6,368.5,8.91,373l3.58,23.15,8.23-30.63Z"/></g></mask><linearGradient id="linear-gradient-30" x1="268.32" y1="129.07" x2="311.97" y2="129.07" gradientTransform="translate(-260.17 231.63) rotate(3.82)" xlink:href="#linear-gradient-11"/><filter id="luminosity-noclip-17" x="8.97" y="395.86" width="50.22" height="3.35" filterUnits="userSpaceOnUse" color-interpolation-filters="sRGB"><feFlood flood-color="#fff" result="bg"/><feBlend in="SourceGraphic" in2="bg"/></filter><mask id="mask-17" x="8.97" y="395.86" width="50.22" height="3.35" maskUnits="userSpaceOnUse"><g class="cls-7"><polygon class="cls-8" points="49.95 399.21 59.19 395.86 8.97 397.55 49.95 399.21"/></g></mask><linearGradient id="linear-gradient-31" x1="295.83" y1="140.55" x2="272.63" y2="128.5" gradientTransform="translate(-260.17 231.63) rotate(3.82)" xlink:href="#linear-gradient-11"/><linearGradient id="linear-gradient-32" x1="281.9" y1="349.41" x2="269.1" y2="421.96" xlink:href="#linear-gradient-10"/><filter id="luminosity-noclip-18" x="430.31" y="378.99" width="46.41" height="37.81" filterUnits="userSpaceOnUse" color-interpolation-filters="sRGB"><feFlood flood-color="#fff" result="bg"/><feBlend in="SourceGraphic" in2="bg"/></filter><mask id="mask-18" x="430.31" y="378.99" width="46.41" height="37.81" maskUnits="userSpaceOnUse"><g class="cls-9"><path class="cls-10" d="M474.41,392.78a48.36,48.36,0,0,0,2.31-5.11c-6.07-5.25-13.2-8.86-20.34-8.67-17.73.46-25.78,22.73-26.07,36.45C445.89,420.47,464.82,411.1,474.41,392.78Z"/></g></mask><linearGradient id="linear-gradient-33" x1="-240.78" y1="-120.26" x2="-181.02" y2="-120.26" gradientTransform="translate(697.37 533.09) rotate(-1.47) scale(1.18)" xlink:href="#linear-gradient-11"/><linearGradient id="Безымянный_градиент_13" x1="-6891.04" y1="382.75" x2="-6884.69" y2="396.32" gradientTransform="matrix(-1, 0, 0, 1, -6322.39, 0)" gradientUnits="userSpaceOnUse"><stop offset="0" stop-color="#ffd705"/><stop offset="1" stop-color="#e26700"/></linearGradient><linearGradient id="Безымянный_градиент_13-2" x1="-6881.29" y1="390.43" x2="-6873.2" y2="399.17" xlink:href="#Безымянный_градиент_13"/><linearGradient id="Безымянный_градиент_135" x1="-6843.89" y1="399.04" x2="-6952.69" y2="422.27" gradientTransform="matrix(-1, 0, 0, 1, -6322.39, 0)" gradientUnits="userSpaceOnUse"><stop offset="0" stop-color="#c12746"/><stop offset="0.21" stop-color="#b30046"/><stop offset="0.39" stop-color="#af0046"/><stop offset="0.57" stop-color="#a30046"/><stop offset="0.75" stop-color="#8f0045"/><stop offset="0.93" stop-color="#730044"/><stop offset="1" stop-color="#604"/></linearGradient></defs><g class="cls-20"><g id="Слой_2" data-name="Слой 2"><g id="Layer_1" data-name="Layer 1"><polygon class="cls-21" points="409.61 82.01 323.46 0 322.48 1.78 408.61 83.76 409.61 82.01"/><polygon class="cls-22" points="341.11 48.5 334.51 40.7 329.63 44.83 336.23 52.64 341.11 48.5"/><g class="cls-23"><rect class="cls-24" x="99.68" y="323.28" width="48.28" height="101.03"/><rect class="cls-24" x="56.76" y="285.73" width="48.28" height="101.03"/><rect class="cls-24" x="302.63" y="359.93" width="48.28" height="63.48"/><rect class="cls-24" x="345.54" y="336.69" width="48.28" height="91.19"/><rect class="cls-24" x="351.8" y="258.9" width="48.28" height="122.49"/><rect class="cls-24" x="357.17" y="249.96" width="37.55" height="122.49"/><rect class="cls-24" x="362.53" y="239.68" width="26.82" height="122.49"/><polygon class="cls-24" points="444.78 285.73 429.58 277.68 417.96 285.73 417.96 394.36 444.78 394.36 444.78 285.73"/><rect class="cls-24" x="367.89" y="226.72" width="16.09" height="122.49"/><rect class="cls-24" x="60.34" y="276.79" width="41.13" height="101.03"/><rect class="cls-24" x="60.34" y="258.9" width="41.13" height="13.41"/><rect class="cls-24" x="67.49" y="259.17" width="26.82" height="21.37"/><rect class="cls-24" x="86.27" y="242.81" width="2.68" height="53.64"/><rect class="cls-24" x="437.63" y="270.53" width="2.68" height="53.64"/></g><polygon class="cls-21" points="414.86 94.64 413.24 94.27 443.44 180.07 445.83 180.08 414.86 94.64"/><path class="cls-25" d="M483.85,412.42c0-2-22.59-3.56-50.46-3.56s-50.46,1.59-50.46,3.56a.27.27,0,0,0,.06.16c-21.08-1.77-61.24-3-107.34-3-67.95,0-123,2.6-123,5.8s55.08,5.81,123,5.81c40.77,0,76.89-.94,99.28-2.38-4.79,1.06-7.57,2.31-7.57,3.65,0,3.81,22.46,6.9,50.18,6.9s50.19-3.09,50.19-6.9c0-3-14.15-5.6-33.83-6.53C461.53,416,483.85,414.37,483.85,412.42Z"/><rect class="cls-26" x="261.41" y="222.24" width="70.5" height="2.49" transform="translate(66.11 514.7) rotate(-88.62)"/><rect class="cls-26" x="255.61" y="232.61" width="70.5" height="2.49" transform="translate(50.03 518.97) rotate(-88.61)"/><rect class="cls-26" x="266.39" y="243.81" width="70.5" height="2.49" transform="translate(49.3 540.63) rotate(-88.6)"/><rect class="cls-26" x="198.68" y="178.06" width="1.91" height="66.02" transform="translate(-15.67 16.01) rotate(-4.42)"/><rect class="cls-26" x="193.53" y="188.75" width="1.91" height="66.02" transform="translate(-16.37 15.5) rotate(-4.38)"/><rect class="cls-26" x="208.84" y="196.65" width="1.91" height="66.02" transform="translate(-16.83 16.59) rotate(-4.35)"/><polygon class="cls-26" points="363.15 374.45 358.84 418.5 366.75 418.83 371.31 374.45 363.15 374.45"/><polygon class="cls-26" points="348.22 373.41 343.91 417.46 351.82 417.79 356.39 373.41 348.22 373.41"/><polygon class="cls-26" points="331.01 372.58 326.7 416.63 334.61 416.96 339.17 372.58 331.01 372.58"/><rect class="cls-27" x="250.62" y="322.58" width="187.88" height="3.68" transform="translate(9.62 658.77) rotate(-88.23)"/><rect class="cls-27" x="241.99" y="327.75" width="172.89" height="6.21" transform="translate(-12.36 648.97) rotate(-88.24)"/><polygon class="cls-28" points="324.98 166.44 319.48 163.77 312.29 168.75 306.78 395.58 315.71 395.94 324.98 166.44"/><polygon class="cls-29" points="321.09 262.87 324.98 166.44 319.48 163.77 319.24 163.93 314.7 263.3 321.09 262.87"/><polygon class="cls-28" points="238.64 131.71 234.04 128.72 229.69 131.71 229.69 231.09 238.64 231.09 238.64 131.71"/><polygon class="cls-29" points="239.05 232.34 239.05 132.95 234.45 129.97 234.25 130.11 234.25 232.34 239.05 232.34"/><path class="cls-30" d="M438.61,197.76l.13-7.86L324.43,8.2s-12,5.65-13.19,6.08-5.75,15.09-5.75,15.09L431.93,196.76Z"/><polygon class="cls-21" points="450.08 345.85 391.01 349.13 390.92 356.69 449.86 356.99 450.08 345.85"/><polygon class="cls-21" points="447.74 332.35 389.91 339.9 389.83 347.41 447.53 343.37 447.74 332.35"/><polygon class="cls-21" points="445.46 319.18 388.83 330.83 388.75 338.28 445.25 330.09 445.46 319.18"/><polygon class="cls-31" points="388.83 330.83 388.75 338.28 438.71 331.04 443.95 319.49 388.83 330.83"/><polygon class="cls-31" points="389.91 339.9 389.83 347.41 432.64 344.41 437.51 333.69 389.91 339.9"/><polygon class="cls-31" points="391.01 349.13 390.92 356.69 426.99 356.87 431.52 346.88 391.01 349.13"/><polygon class="cls-32" points="451.05 399.58 432.55 395.21 421.06 408.29 420.97 413.96 447.13 414.12 451.05 399.58"/><polygon class="cls-32" points="415.26 407.19 399.06 395.38 379.03 398.46 381.95 414.26 414.08 413.57 415.26 407.19"/><polygon class="cls-32" points="394.83 384.48 399.56 398.94 413.83 406.12 423.99 407.25 439.93 400.23 444.56 386.36 394.83 384.48"/><polygon class="cls-21" points="178.28 174.62 173.28 171.44 169.36 175.21 184.35 401.46 193.28 400.87 178.28 174.62"/><polygon class="cls-29" points="184.02 261.16 178.28 174.62 173.28 171.44 172.35 172.34 179.09 263.72 184.02 261.16"/><polygon class="cls-21" points="269.57 176.03 266.39 173.51 263.43 175.89 258.33 395.74 264.48 395.88 269.57 176.03"/><polygon class="cls-29" points="267.98 244.85 269.57 176.03 266.46 173.57 265.35 244.85 267.98 244.85"/><polygon class="cls-30" points="418.69 152.62 403.67 145.13 403.79 368.43 425.8 367.89 418.69 152.62"/><polygon class="cls-30" points="454.86 363.85 434.12 357.28 387.86 372.65 392.01 391.95 449.88 394.42 454.86 363.85"/><polygon class="cls-30" points="402.01 132.09 409.42 81.05 411.92 82.4 405.53 132.38 402.01 132.09"/><polygon class="cls-30" points="414.35 154.27 410.05 90.21 412.84 90.62 418.2 153.78 414.35 154.27"/><polygon class="cls-33" points="443.48 371.13 416.45 364.15 411.85 163.19 403.68 159.67 403.79 367.35 387.86 372.65 392.01 391.95 400.04 392.3 394.66 374.92 443.48 371.13"/><rect class="cls-34" x="133.03" y="236.62" width="1.83" height="11.97" transform="translate(-123.11 139.07) rotate(-39.16)"/><rect class="cls-35" x="112.94" y="238.42" width="0.62" height="64.68"/><rect class="cls-36" x="134.65" y="262.71" width="0.86" height="1.29"/><polygon class="cls-37" points="141.98 237.27 138.1 236.41 133.79 264.01 141.98 264.01 141.98 237.27"/><polygon class="cls-38" points="141.98 252.26 135.62 252.26 134.82 257.43 141.98 257.43 141.98 252.26"/><g class="cls-39"><polygon class="cls-34" points="137.67 263.29 141.98 262.33 141.98 240.57 139.83 240.78 137.67 263.29"/></g><polygon class="cls-37" points="137.62 234.25 117.13 235.12 117.13 237.7 137.94 239.43 137.62 234.25"/><polygon class="cls-34" points="137.94 239.43 137.76 236.55 117.13 236.55 117.13 236.6 117.61 237.74 137.94 239.43"/><path class="cls-34" d="M135.94,237.7a3.89,3.89,0,1,0,3.89-3.88A3.89,3.89,0,0,0,135.94,237.7Z"/><path class="cls-34" d="M118.7,237.7a3.67,3.67,0,1,0-3.67,3.67A3.67,3.67,0,0,0,118.7,237.7Z"/><path class="cls-34" d="M152.37,263.08a1.71,1.71,0,0,0-.39-1.42,1.67,1.67,0,0,0-1.34-.58l-25.55,1.11a1.92,1.92,0,0,0-1.38.68,1.89,1.89,0,0,0-.43,1.48l.69,5.16,27.5-1.69Z"/><path class="cls-37" d="M117.62,237.7a2.59,2.59,0,1,0-2.59,2.6A2.59,2.59,0,0,0,117.62,237.7Z"/><path class="cls-37" d="M136.75,237.7a3.08,3.08,0,1,0,3.08-3.07A3.08,3.08,0,0,0,136.75,237.7Z"/><g class="cls-40"><path class="cls-41" d="M152.37,263.08a1.71,1.71,0,0,0-.39-1.42,1.67,1.67,0,0,0-1.34-.58l-25.55,1.11a1.93,1.93,0,0,0-1.38.69,1.9,1.9,0,0,0-.43,1.47l.24,1.76,28.75-2.52Z"/></g><rect class="cls-42" x="129.12" y="268.97" width="2.01" height="2.73" transform="translate(-20.04 10.6) rotate(-4.33)"/><rect class="cls-42" x="145.72" y="268.11" width="2.01" height="2.73" transform="matrix(1, -0.08, 0.08, 1, -22.28, 13.38)"/><path class="cls-42" d="M114.71,301.09a2,2,0,0,0-3,.22c-.66,1-.11,3.77,1.72,5.28C115.14,304.54,115.47,302,114.71,301.09Z"/><path class="cls-34" d="M114.71,306.92a1.19,1.19,0,1,0-1.19,1.18A1.19,1.19,0,0,0,114.71,306.92Z"/><path class="cls-43" d="M115.84,314.3v0c-2.83-1.42-1.57-6.29-2.18-6.29s-1.09,1.41-1.09,3.15a8.69,8.69,0,0,0,.1,1.3,3.69,3.69,0,0,0,.36,1.25,1,1,0,0,0,0,.1,3.28,3.28,0,0,0,2.88,1.82,3.46,3.46,0,0,0,3.32-3.59C118.33,311.43,118.32,314.84,115.84,314.3Z"/><polygon class="cls-44" points="151.47 266.31 123.73 268.32 123.73 269.9 151.47 267.89 151.47 266.31"/><path class="cls-45" d="M137.35,237.7a2.48,2.48,0,1,0,2.48-2.48A2.48,2.48,0,0,0,137.35,237.7Z"/><path class="cls-45" d="M113,237.7a2.09,2.09,0,1,0,2.08-2.08A2.08,2.08,0,0,0,113,237.7Z"/><path class="cls-46" d="M289.06,234.92l-2.56-7.85,0-.09h0l0,0-.1,0-7.23-.77c-1.62,3-2.65,6.12-4.14,12.61-.82,1.82-.68,13.42,0,13.42h2.07a29.12,29.12,0,0,1,0-13l3.85.47c.77,4.77,1.56,8.08,0,12.72H283c1.35-4.35.56-8.64,0-14.17-.22-4,.57-5.67,2.45-7.74l1.67,5.11Z"/><path class="cls-29" d="M275.16,244a25.88,25.88,0,0,0,1.26,8.24H277a28.83,28.83,0,0,1,0-13l3.88.47c.77,4.78,1.57,8.08,0,12.72h2.09c1.35-4.35.56-8.64,0-14.17-.23-4,.57-5.67,2.46-7.74l1.68,5.11,2-.65-2.5-7.6a6.16,6.16,0,0,0-2-.34C278.9,227,275.16,235.18,275.16,244Z"/><path class="cls-47" d="M279.11,226.19c-1.52.44-1.81,1.5-1.38,3.14.23,2.27.58,4.1,2,5.81l1.46-1.56A17.35,17.35,0,0,1,279.11,226.19Z"/><rect class="cls-48" x="288.02" y="234.78" width="1.34" height="4.54" transform="translate(-55.72 92.44) rotate(-16.61)"/><rect class="cls-48" x="281.44" y="233.39" width="1.34" height="6.08" transform="translate(-85.67 221.56) rotate(-37.65)"/><path class="cls-48" d="M286.12,225.78a2.8,2.8,0,1,0-2.8,2.58A2.69,2.69,0,0,0,286.12,225.78Z"/><path class="cls-29" d="M281.42,226a2.56,2.56,0,0,0,1.61,2.32l.29,0a2.69,2.69,0,0,0,2.8-2.58,2.56,2.56,0,0,0-1.61-2.32,2.85,2.85,0,0,0-.29,0A2.7,2.7,0,0,0,281.42,226Z"/><path class="cls-44" d="M285.79,227a2.34,2.34,0,0,0,.33-1.19,2.56,2.56,0,0,0-1.61-2.32,3.09,3.09,0,0,0-1.19-.25,2.69,2.69,0,0,0-2.79,2.57,2.42,2.42,0,0,0,.31,1.16A8.36,8.36,0,0,0,285.79,227Z"/><path class="cls-49" d="M287,225.67a3.85,3.85,0,0,0-4-3.58,3.53,3.53,0,0,0-3.28,3.14C279.71,227.79,287,227.24,287,225.67Z"/><path class="cls-50" d="M285.91,223.23a3.57,3.57,0,0,0-2.92-1.14,3.53,3.53,0,0,0-3.28,3.14,1.36,1.36,0,0,0,.74,1.16,8.22,8.22,0,0,0,1.7-.33A6,6,0,0,0,285.91,223.23Z"/><polygon class="cls-48" points="185.75 229.6 186.94 229.89 187.43 232.88 186.47 233.21 185.75 229.6"/><rect class="cls-51" x="185.81" y="229.51" width="0.86" height="2.68" transform="translate(-2.08 1.69) rotate(-0.52)"/><path class="cls-52" d="M187.6,232.52c.24,1.68,1.14,2.54,3.57,2.54.36.81.21,1.19-.57,1.46a4.45,4.45,0,0,1-4.43-3.78Z"/><path class="cls-53" d="M188.7,245.59l-.52-10.9,5.12-1.2,1.21,11.66c-.17,4.42.26,8.12,1.74,10.52l-2.18.33c-1.21-1.82-1.72-6.35-1.71-10.69l-1.36.1c-.49,4.37-.69,7.84.21,11.07l-2.3,0a41.39,41.39,0,0,1-.21-10.91Z"/><path class="cls-54" d="M186,233.73c.62,1.85,1.51,2.45,4.13,1.83.56.83.48,1.29-.29,1.8a4.74,4.74,0,0,1-5.6-3.17Z"/><path class="cls-48" d="M193.61,232.17a2.72,2.72,0,1,1-2.71-2.23A2.49,2.49,0,0,1,193.61,232.17Z"/><rect class="cls-51" x="183.21" y="227.52" width="3.92" height="2.58" transform="translate(-2.31 1.89) rotate(-0.58)"/><polygon class="cls-48" points="184.84 229.85 186.14 230.16 185.56 234.08 184.49 234.5 184.84 229.85"/><rect class="cls-51" x="182.76" y="228.11" width="0.86" height="1.47" transform="translate(-2.32 1.88) rotate(-0.58)"/><rect class="cls-51" x="180.53" y="228.76" width="2.65" height="0.32" transform="translate(-2.3 1.84) rotate(-0.58)"/><path class="cls-49" d="M187.75,230.22a3.11,3.11,0,0,1,4.17-1.27c1.79.75,2.88,2.68,2.31,4s-2.27,1.12-4.06.36S187.19,231.55,187.75,230.22Z"/><path class="cls-50" d="M191.37,230.68a3.5,3.5,0,0,1,2.38,1.64.06.06,0,0,1,0,0c-.47,1.13-1.92.94-3.44.3a4,4,0,0,1-2-1.46A3.12,3.12,0,0,1,191.37,230.68Z"/><path class="cls-29" d="M191,245.8c-.46,4.19-.62,7.55.25,10.68h-.41A17.43,17.43,0,0,1,191,245.8Z"/><polygon class="cls-55" points="372.01 280.44 243.72 216.3 123.1 279.89 123.51 284.45 242.06 310.86 372.56 285.49 372.01 280.44"/><polygon class="cls-56" points="372.56 285.42 244.27 221.28 123.17 284.32 242.61 315.83 372.56 285.42"/><polygon class="cls-21" points="170.79 281.55 244.41 248.78 321.75 283.62 317.98 306.58 173.31 305.82 170.79 281.55"/><polygon class="cls-57" points="244.82 258.6 230.31 266 230.31 274.08 219.63 278.03 219.73 268.9 171.56 288.74 173.04 307.29 243.44 308.51 244.82 258.6"/><polygon class="cls-21" points="184.89 264.75 180.95 262.68 175.36 265.77 178.16 308.06 187.09 307.48 184.89 264.75"/><polygon class="cls-29" points="187 305.83 184.89 264.75 180.95 262.68 180.29 263.05 183.14 306.09 187 305.83"/><polygon class="cls-29" points="317.98 306.58 321.75 283.62 244.41 248.78 243.6 306.19 317.98 306.58"/><polygon class="cls-29" points="251.46 258.32 251.74 274.64 269.15 281.55 269.43 265.24 251.46 258.32"/><polygon class="cls-58" points="251.74 262.75 251.6 271.74 267.08 277.26 266.67 268.56 251.74 262.75"/><polygon class="cls-29" points="288.51 271.32 288.78 287.63 306.2 294.55 306.48 278.23 288.51 271.32"/><polygon class="cls-55" points="372.01 312.86 243.72 269.39 122.61 312.11 123.72 315.56 242.06 333.48 372.56 316.18 372.01 312.86"/><polygon class="cls-59" points="372.56 316.24 244.27 272.76 123.17 315.49 242.61 336.85 372.56 316.24"/><polygon class="cls-21" points="171.13 316.39 244.27 291.78 318.1 318.46 317.98 341.97 173.31 341.2 171.13 316.39"/><polygon class="cls-57" points="243.58 311.93 237.77 314.42 237.88 320.17 209.73 326.13 206.62 318.57 201.9 340.65 243.99 347.49 243.58 311.93"/><path class="cls-60" d="M254.79,318.9a12.59,12.59,0,0,1,1-6.26l-3.67-4.09,1.2-1,3.92,3.41,4.52,1a13.21,13.21,0,0,0-1.57,9.25h0l1.16,7.87-1.71.23-1.23-8.38-2-.32-.43,8-1.73-.09.52-9.63Z"/><path class="cls-61" d="M258.1,307.85a3.05,3.05,0,0,1,4.19-.1,2.77,2.77,0,0,1,.2,4C261.39,312.91,257,309,258.1,307.85Z"/><path class="cls-48" d="M257.8,309.85a2.52,2.52,0,1,1,2.49,2.14A2.34,2.34,0,0,1,257.8,309.85Z"/><path class="cls-49" d="M260.89,309.17a5.93,5.93,0,0,0-2.69-1.4,3,3,0,0,1,4.09,0,2.78,2.78,0,0,1,.27,3.94A5.68,5.68,0,0,0,260.89,309.17Z"/><path class="cls-29" d="M255,315.49a13.6,13.6,0,0,1,.87-2.85l-3.67-4.09,1.2-1,3.92,3.41,1.11.24a1.84,1.84,0,0,1-.31-2.3c-.19-.43-.21-.8,0-1l.1-.08h0a3,3,0,0,1,2-.79h.08a2.49,2.49,0,0,1,.47,0l.18,0,.36.1.29.14.22.1a3.27,3.27,0,0,1,.48.35,3.31,3.31,0,0,1,.4.44,1.48,1.48,0,0,1,.13.21l.16.26c0,.12.09.24.13.35l.06.16a2.54,2.54,0,0,1,.07.47s0,0,0,.06a2.29,2.29,0,0,1-.62,1.93c-.17.18-.38.59-.68.55a15.87,15.87,0,0,0-1.69,3.68,11.06,11.06,0,0,0-3.34-.64A7.87,7.87,0,0,0,255,315.49Z"/><polygon class="cls-47" points="256.16 310.34 257.01 309.04 262.01 312.06 261.17 313.36 256.16 310.34"/><polygon class="cls-48" points="249.89 304.38 253.26 307.77 252.43 308.54 249.06 305.14 249.89 304.38"/><polygon class="cls-29" points="250.27 305.22 253.26 307.77 252.43 308.54 249.06 305.14 250.27 305.22"/><polygon class="cls-48" points="252.86 306.73 256.98 309.25 256.36 310.18 252.24 307.66 252.86 306.73"/><polygon class="cls-29" points="317.98 341.97 318.1 318.46 244.27 291.09 242.75 339.06 317.98 341.97"/><polygon class="cls-55" points="371.73 346.04 244.62 318.46 123.1 345.42 123.2 349.05 242.06 360.19 372.35 349.46 371.73 346.04"/><polygon class="cls-29" points="192.15 338.64 194.36 329.52 150.54 339.34 149.85 342.38 192.15 338.64"/><polygon class="cls-62" points="372.56 349.44 244.27 322.36 123.17 348.98 242.61 362.29 372.56 349.44"/><polygon class="cls-21" points="171.13 349.63 246.52 336.65 318.1 349.95 317.98 383.03 173.31 382.26 171.13 349.63"/><polygon class="cls-57" points="245.65 352.88 212.47 356.41 200.45 375.07 243.58 381.5 245.65 352.88"/><polygon class="cls-29" points="246.76 336.57 245.65 383.16 318.23 383.57 318.23 349.84 246.76 336.57"/><polygon class="cls-55" points="371.94 372.38 243.16 358.07 123.31 371.96 123.1 375.28 242.06 383.13 372.35 375.59 371.94 372.38"/><path class="cls-29" d="M178.47,371.13c4.57-1.93,6.2-3.32,7.46-6.36l-50.32,5.4-.27,4.28Z"/><polygon class="cls-63" points="372.56 375.56 244.27 363.25 123.17 375.35 242.75 383.57 372.56 375.56"/><path class="cls-35" d="M183.92,414c-.26-10.07-14-28.53-27.73-28.18s-19.71,18.33-19.45,28.4C148,415.08,183.37,417.51,183.92,414Z"/><g class="cls-64"><path class="cls-65" d="M169.64,396.06a36.85,36.85,0,0,0,1.72-3.81c-4.53-3.92-9.84-6.61-15.17-6.47-13.23.34-19.24,17-19.45,27.2C148.37,416.72,162.49,409.73,169.64,396.06Z"/></g><polygon class="cls-66" points="157.66 378 242.94 370.6 333.3 377.63 333.91 418.08 160.29 417.17 157.66 378"/><polygon class="cls-29" points="242.94 370.6 246.07 416.75 320.72 418.83 324.45 376.11 242.94 370.6"/><path class="cls-33" d="M321.13,24.42l4.34-14.57-1-1.65s-12,5.65-13.19,6.08-5.75,15.09-5.75,15.09L401.88,157l8.28.16Z"/><polygon class="cls-30" points="335.65 57.83 333.46 57.83 333.32 280.21 335.48 280.22 335.65 57.83"/><polygon class="cls-67" points="424.4 148.01 414.81 149.6 411.53 169.54 419.84 178.42 430.21 175.79 432.7 157.96 424.4 148.01"/><path class="cls-68" d="M188,293.16c1,21.55,1,42-1.24,55.16-2.27,11-3.24,17-12.86,21.15-10.26,5.92-24.67,3.74-27.16,1.87C143,373.4,132.11,376,124.8,376a3.58,3.58,0,0,1-3.58-4c2.33-21.18,4.3-36.88,1.39-59.94,8.56,1.6,15.72,1.57,20.6-7.75,8.75.94,14.91-2.33,22.4-8.29C174.94,298.8,179.81,297.61,188,293.16Z"/><g class="cls-69"><path class="cls-70" d="M143.14,366.64c2.49,1.87,16.9,4.05,27.17-1.87,9.62-4.12,10.58-10.14,12.86-21.15,2-11.88,2.2-29.62,1.5-48.75-6.34,3-14.91,8-19.06,1.19-7.49,6-15.76,14.11-22.4,8.3-4.88,9.32-16.38,12.86-20.6,7.75,2.88,22.81,3,38.11,1,58.91C130.36,365.47,139.41,368.68,143.14,366.64Z"/></g><path class="cls-68" d="M145.53,330.09a44.7,44.7,0,0,1-.64,9.7c-1.84,10.82-6.83,19-11.34,18.91,1.43,2.67,3.22,4.27,5.17,4.27,4.7,0,8.5-9.22,8.5-20.59A42.38,42.38,0,0,0,145.53,330.09Z"/><path class="cls-26" d="M187.87,294.06a2.15,2.15,0,1,0-2.14,2.14A2.14,2.14,0,0,0,187.87,294.06Z"/><path class="cls-26" d="M167.06,296.76a2.15,2.15,0,1,0-2.14,2.14A2.14,2.14,0,0,0,167.06,296.76Z"/><path class="cls-26" d="M146.32,296.06a2.14,2.14,0,1,0-2.14,2.14A2.14,2.14,0,0,0,146.32,296.06Z"/><polygon class="cls-29" points="285.47 311.13 285.74 327.45 303.99 331.32 303.44 318.05 285.47 311.13"/><polygon class="cls-58" points="285.53 314.88 285.74 327.45 301.37 330.76 300.95 320.81 285.53 314.88"/><polygon class="cls-58" points="288.78 275.74 288.65 284.73 304.13 290.26 303.71 281.55 288.78 275.74"/><polygon class="cls-58" points="172.25 417.58 168.1 382.74 184.27 381.5 190.49 418 172.25 417.58"/><polygon class="cls-29" points="173.49 387.31 176.81 417.17 190.49 418 183.86 386.89 173.49 387.31"/><polygon class="cls-58" points="204.59 416.34 200.45 381.5 216.62 380.26 222.84 416.75 204.59 416.34"/><polygon class="cls-29" points="205.84 386.06 209.16 415.92 222.84 416.75 216.21 385.65 205.84 386.06"/><rect class="cls-71" x="292.1" y="409.7" width="20.32" height="9.95"/><rect class="cls-71" x="294.18" y="399.33" width="20.32" height="9.95"/><rect class="cls-71" x="304.54" y="390.21" width="20.32" height="9.95"/><rect class="cls-71" x="309.94" y="410.12" width="20.32" height="9.95"/><rect class="cls-71" x="314.5" y="399.33" width="20.32" height="9.95"/><rect class="cls-71" x="321.76" y="391.45" width="20.32" height="9.95"/><rect class="cls-71" x="335.86" y="401.2" width="12.44" height="9.95"/><rect class="cls-71" x="331.09" y="410.53" width="12.44" height="9.95"/><rect class="cls-71" x="315.95" y="412.19" width="12.44" height="9.95"/><rect class="cls-71" x="297.49" y="402.03" width="9.95" height="9.95"/><rect class="cls-72" x="293.35" y="399.96" width="4.15" height="9.95"/><rect class="cls-71" x="320.1" y="400.58" width="12.44" height="9.95"/><rect class="cls-71" x="323.62" y="390.21" width="12.44" height="9.95"/><rect class="cls-71" x="327.56" y="412.19" width="12.44" height="9.95"/><rect class="cls-71" x="329.43" y="402.44" width="12.44" height="9.95"/><rect class="cls-71" x="327.98" y="397.88" width="12.44" height="9.95"/><rect class="cls-71" x="340" y="410.32" width="12.44" height="9.95"/><rect class="cls-72" x="303.51" y="411.98" width="12.44" height="9.95"/><rect class="cls-72" x="307.65" y="400.99" width="12.44" height="9.95"/><rect class="cls-72" x="315.53" y="390.62" width="8.29" height="9.13"/><polygon class="cls-33" points="412.9 161.16 411.58 169.21 426.48 167.08 412.9 161.16"/><polygon class="cls-58" points="424.54 148.56 426.47 167.08 430.07 175.66 432.83 158.24 424.54 148.56"/><rect class="cls-71" x="195.33" y="410.67" width="17.15" height="9.12"/><path class="cls-27" d="M204,408.62c-2-2.5-7.06-1.78-11.29,1.61s-6,8.16-4,10.67,7.06,1.78,11.29-1.61S206,411.12,204,408.62Zm-4.69,9.84c-3.46,2.78-7.6,3.37-9.24,1.32s-.17-6,3.29-8.74,7.61-3.36,9.25-1.31S202.81,415.69,199.34,418.46Z"/><path class="cls-27" d="M201.21,407.64c-2-2.5-7.06-1.78-11.29,1.61s-6,8.17-4,10.67,7.06,1.78,11.29-1.61S203.21,410.14,201.21,407.64Zm-4.69,9.84c-3.46,2.78-7.6,3.36-9.25,1.32s-.16-6,3.3-8.73,7.61-3.37,9.25-1.32S200,414.71,196.52,417.48Z"/><polygon class="cls-58" points="212.68 346.25 213.72 361.39 227.2 359.73 225.95 344.38 212.68 346.25"/><polygon class="cls-58" points="216.06 361.1 227.2 359.73 226.13 346.57 215.17 348.12 216.06 361.1"/><polygon class="cls-58" points="279.87 304.36 280.07 325.93 248.76 319.08 248.35 293.16 279.87 304.36"/><polygon class="cls-58" points="276.55 303.32 248.35 293.31 248.76 318.77 276.76 324.89 276.55 303.32"/><polygon class="cls-58" points="282.98 343.55 283.39 362.22 251.67 359 251.39 337.4 282.98 343.55"/><polygon class="cls-58" points="279.76 343.03 251.39 337.54 251.67 358.69 280.18 361.8 279.76 343.03"/><polygon class="cls-58" points="284.08 376.94 286.83 416.67 254.96 417.68 251.16 373.75 284.08 376.94"/><polygon class="cls-58" points="280.83 376.85 251.18 373.9 254.91 417.37 283.58 416.69 280.83 376.85"/><polygon class="cls-58" points="237.63 294.27 237.82 320.02 206.51 327.01 206.67 303.81 237.63 294.27"/><polygon class="cls-58" points="237.78 295.13 209.99 302.56 209.78 326.24 237.82 319.96 237.78 295.13"/><polygon class="cls-58" points="219.63 277.83 230.23 274.15 230.17 260.31 219.77 264.12 219.63 277.83"/><polygon class="cls-55" points="302.45 276.82 343.09 263.14 341.85 313.32 302.03 319.54 302.45 276.82"/><g class="cls-73"><polygon class="cls-74" points="302.45 276.82 343.09 263.14 341.85 313.32 302.03 319.54 302.45 276.82"/></g><polygon class="cls-21" points="342.89 262.72 370.05 286.36 366.73 326.8 341.64 313.11 342.89 262.72"/><polygon class="cls-75" points="302.03 319.54 333.55 329.49 366.73 326.8 341.64 313.11 302.03 319.54"/><polygon class="cls-58" points="312.4 285.12 311.16 303.78 330.24 300.05 329.41 278.48 312.4 285.12"/><g class="cls-76"><polygon class="cls-77" points="312.98 303.42 330.24 300.05 329.51 281.16 314.06 287.19 312.98 303.42"/></g><polygon class="cls-58" points="440.85 397.12 441.4 393.81 397.44 391.87 399.11 396.03 400.31 413.87 414.08 413.57 415.26 407.19 413.72 406.06 413.83 406.12 422.16 407.04 421.06 408.29 420.97 413.96 425.54 413.99 429.52 396.85 440.85 397.12"/><polygon class="cls-25" points="404.94 363.46 412.59 341.48 412.79 359.11 404.94 363.46"/><polygon class="cls-25" points="404.94 358.27 404.94 326.96 411.71 338.99 404.94 358.27"/><polygon class="cls-25" points="405.14 317.84 405.14 286.53 411.91 298.55 405.14 317.84"/><polygon class="cls-25" points="405.33 276.16 405.33 244.85 412.1 256.87 405.33 276.16"/><polygon class="cls-25" points="405.22 232.55 405.22 203.85 411.43 214.88 405.22 232.55"/><polygon class="cls-25" points="405.33 323.23 412.3 335.88 411.81 303.32 405.33 323.23"/><polygon class="cls-25" points="404.94 282.38 411.91 295.03 411.42 262.47 404.94 282.38"/><polygon class="cls-25" points="404.81 239.49 411.44 251.53 410.98 220.54 404.81 239.49"/><polygon class="cls-25" points="404.23 196.36 410.86 208.4 410.39 177.41 404.23 196.36"/><polygon class="cls-25" points="405.14 166.46 405.14 188.44 409.16 176.21 405.14 166.46"/><g class="cls-78"><polygon class="cls-25" points="404.91 158.58 404.63 150.72 410.09 159 404.91 158.58"/><polygon class="cls-25" points="403.98 158.6 396.85 149.03 403.6 150.28 403.98 158.6"/><polygon class="cls-25" points="394.56 145.71 384.73 132.49 393.32 134.84 394.56 145.71"/><polygon class="cls-25" points="380.96 127.12 366.36 107.41 378.07 111.94 380.96 127.12"/><polygon class="cls-25" points="358.98 97.66 336.75 67.72 352.92 76.18 358.98 97.66"/><polygon class="cls-25" points="396.12 147.57 403.24 149.02 394.67 136.97 396.12 147.57"/><polygon class="cls-25" points="383.07 130.54 392.24 133.24 379.98 115.96 383.07 130.54"/><polygon class="cls-25" points="362.84 103.63 375.04 108.64 356.58 82.54 362.84 103.63"/><polygon class="cls-25" points="328.06 58.47 347.16 69.08 320.3 27.46 328.06 58.47"/><polygon class="cls-25" points="310.07 31.61 324.13 50.43 318.92 28.01 310.07 31.61"/></g><polygon class="cls-33" points="408.85 86.14 403.46 124.09 404.29 125.95 410.71 87.17 408.85 86.14"/><path class="cls-21" d="M415.61,84.78c0-3.06-1.63-5.55-3.74-5.55S408,81.71,408,84.77s1.63,5.54,3.74,5.54S415.57,87.84,415.61,84.78Z"/><path class="cls-58" d="M415.14,84.54c0-2.74-.83-5-1.9-5s-1.95,2.22-2,5,.83,5,1.9,5S415.12,87.27,415.14,84.54Z"/><polygon class="cls-33" points="411.96 91.32 415.9 140.26 414.03 141.3 410.92 92.15 411.96 91.32"/><path class="cls-68" d="M154.14,369.47s10-4.14,12.44-14.65c0,0,2.21,12.16-3.6,15.21S154.14,369.47,154.14,369.47Z"/><path class="cls-68" d="M164.92,302.29s-3.32,7.19,7.19,14.37C172.11,316.66,165.75,307.82,164.92,302.29Z"/><path class="cls-68" d="M128.7,308.5s5.8,8.3,13.55-5.25C142.25,303.25,137.27,311,128.7,308.5Z"/><path class="cls-68" d="M158,315.69s8.57,9.68,1.1,32.07C159.11,347.76,161.05,322.88,158,315.69Z"/><polygon class="cls-30" points="436.01 189.06 442.65 180.36 445.83 180.08 438.61 197.76 436.01 189.06"/><polygon class="cls-29" points="425.37 179.25 437.81 196.12 432.56 195.56 421.5 180.08 425.37 179.25"/><path class="cls-79" d="M74.43,414.18a8,8,0,0,0-8.59-8.47L22.23,411.3l-.29,7.91,45.45,2.42a6.89,6.89,0,0,0,7-6.43Z"/><path class="cls-43" d="M69.81,414.91a5.52,5.52,0,0,0-2-4.53,7.14,7.14,0,0,0-5.15-1.68l-35.87,3.77-.19,5.75,37.45,2c3,.06,5.52-2,5.7-4.62Z"/><polygon class="cls-34" points="90.75 351.1 42.78 386.9 49.35 393.47 94.41 355.29 90.75 351.1"/><rect class="cls-34" x="54.9" y="381.7" width="23.7" height="3.6" transform="translate(-316.12 313.26) rotate(-69.73)"/><polygon class="cls-34" points="48.78 373.54 32.67 374.62 38.58 395.05 54.9 393.74 48.78 373.54"/><g class="cls-80"><polygon class="cls-81" points="89.62 355.05 88.28 352.94 50.98 380.78 50.6 379.55 46.83 378.45 45.43 375.11 47.72 373.61 35.49 374.43 52.63 383.34 89.62 355.05"/></g><rect class="cls-34" x="90.87" y="351.45" width="2.62" height="28.42" transform="matrix(0.07, -1, 1, 0.07, -278.8, 433.28)"/><polygon class="cls-37" points="116.86 373.44 92.76 349.11 88.92 354.42 113.61 376.29 116.86 373.44"/><polygon class="cls-34" points="113.61 376.29 115.16 374.93 91.19 351.27 88.96 354.37 89.62 355.05 113.61 376.29"/><path class="cls-82" d="M135.94,383.19c-5.64-8.65-13.38-11.57-23.89-9.86L123,400.56l4.9,1C133,395.38,134.89,391,135.94,383.19Z"/><path class="cls-83" d="M132.85,379.55c-.23-.34-.47-.67-.7-1-5.18-5-11.77-6.57-20.1-5.22l10.28,26.09.55,1.23C128.08,394.5,131.79,387.36,132.85,379.55Z"/><polygon class="cls-84" points="62.66 403.18 61.23 413.9 47.5 421.63 13.81 418.66 13.51 405.19 62.66 403.18"/><path class="cls-85" d="M57.28,419.06a5.31,5.31,0,0,0-1.75-4.24,6.68,6.68,0,0,0-4.66-1.71L5.62,414.23A5.47,5.47,0,0,0,0,419.55l.05,2a5.14,5.14,0,0,0,5,4.73l43.26,2.89c4.56.3,8.47-2.77,8.75-6.87Z"/><path class="cls-86" d="M14.67,378.38l-7.58,2.18A4.26,4.26,0,0,0,4,385L6.8,405.7l11.52.23Z"/><rect class="cls-87" x="5.57" y="387.6" width="6.95" height="1.32" transform="translate(-3.75 0.11) rotate(-0.55)"/><rect class="cls-87" x="6.08" y="390.8" width="6.95" height="1.32" transform="translate(-3.83 0.11) rotate(-0.56)"/><rect class="cls-87" x="6.62" y="393.54" width="6.95" height="1.32" transform="translate(-3.85 0.12) rotate(-0.56)"/><path class="cls-88" d="M15.39,383.83l-.72-5.45-7.58,2.18A4.26,4.26,0,0,0,4,385l.06.46L14.62,385Z"/><polygon class="cls-34" points="8.11 397.22 11.26 410.08 48.95 409.15 65.74 403.7 67.71 390.68 13.28 394.12 8.11 397.22"/><path class="cls-89" d="M53.65,421.38A3.29,3.29,0,0,0,52,418.55a7.82,7.82,0,0,0-4.29-1.21l-41.38,0c-2.92,0-5.17,1.52-5,3.43L1.34,422c.1,1.65,2.12,3.05,4.66,3.22l39.63,2.64c4.17.28,7.7-1.68,7.88-4.39Z"/><g class="cls-90"><polygon class="cls-91" points="59.19 395.86 9.78 396.16 8.11 397.22 11.26 410.08 48.95 409.15 49.6 408.94 49.95 399.21 59.19 395.86"/></g><path class="cls-37" d="M8.91,373l3.58,23.15,25.42-.1L48.55,393,38.06,367.2C31.62,358,8.4,365.61,8.91,373Z"/><path class="cls-84" d="M38.82,369.06l-.76-1.86C31.62,358,8.4,365.61,8.91,373l.29,1.85,17.37-3.35Z"/><path class="cls-92" d="M10.85,372.08l2.82,22.54,18.42-.57-7.63-23.28C18.22,367.41,15,368.45,10.85,372.08Z"/><path class="cls-83" d="M132.15,378.55c-5.18-5-11.77-6.57-20.1-5.22l.25.64c7.21-.71,13,1,17.71,5.52l.71,1a40.65,40.65,0,0,1-8.33,19.05l.49,1.11c5.2-6.15,8.91-13.29,10-21.1C132.62,379.21,132.38,378.88,132.15,378.55Z"/><path class="cls-82" d="M116.17,374.61a2.74,2.74,0,1,0-2.92,2.55A2.74,2.74,0,0,0,116.17,374.61Z"/><path class="cls-34" d="M95.45,352.84a3.62,3.62,0,1,0-3.83,3.1A3.49,3.49,0,0,0,95.45,352.84Z"/><path class="cls-82" d="M95,353.27a3.05,3.05,0,1,0-3.25,2.84A3.06,3.06,0,0,0,95,353.27Z"/><path class="cls-84" d="M9.24,419.11c-3.83-1.72-6.64.44-4.28,4.24C8.08,424.83,10.85,422.4,9.24,419.11Z"/><path class="cls-84" d="M49.43,420.8c-4-1.81-7,.45-4.48,4.44C48.22,426.79,51.12,424.24,49.43,420.8Z"/><path class="cls-88" d="M52.8,413.37a6.56,6.56,0,0,0-1.93-.26L5.62,414.23A5.83,5.83,0,0,0,.75,416.9l49.18-1.12Z"/><polygon class="cls-84" points="15.13 423.2 13.02 416.93 18.31 413.32 36.19 412.83 33.2 417.01 33.84 423.73 15.13 423.2"/><polygon class="cls-93" points="12.93 421.97 10.82 415.7 16.11 412.09 33.59 412.17 31 415.79 31.64 422.5 12.93 421.97"/><path class="cls-87" d="M36.52,396.07h1.39L48.55,393,38.06,367.2a8.5,8.5,0,0,0-1.33-1.47L26.45,367.9Z"/><g class="cls-94"><path class="cls-95" d="M25.28,363.09C17.12,363.9,8.6,368.5,8.91,373l3.58,23.15,8.23-30.63Z"/></g><polygon class="cls-34" points="49.95 399.21 10.84 398.28 50.06 403.06 49.95 399.21"/><path class="cls-82" d="M70.71,376.32a2.16,2.16,0,1,0-2.29,1.89A2.1,2.1,0,0,0,70.71,376.32Z"/><polygon class="cls-92" points="29.16 372.22 38.4 370.68 46.42 390.92 37.39 392.96 29.16 372.22"/><path class="cls-96" d="M31.92,394l-2.43-7.37-5-15.78a7.34,7.34,0,0,0-2.89-1.33C17,367.78,14.14,369,10.67,372l2.82,22.54h.27ZM12.48,372.91c3-2.69,5.65-3.88,9.33-3L23.2,376l-10,2.58Z"/><path class="cls-96" d="M38.4,370.68l-9.24,1.54.6,1.4h0L37.39,393l8.16-1.84.87-.2Zm-7.81,1.37,7-1.15,1.13,3.4-6.77.09Z"/><polygon class="cls-97" points="21.55 369.5 15.1 393.88 19.81 393.47 23.03 370.5 21.55 369.5"/><path class="cls-88" d="M48.27,421.74c-2.13-1-3.69.24-2.38,2.35C47.63,424.92,49.17,423.56,48.27,421.74Z"/><path class="cls-88" d="M8.35,419.9c-2.13-1-3.7.24-2.38,2.36C7.71,423.08,9.25,421.72,8.35,419.9Z"/><polygon class="cls-89" points="42.83 413.27 40.18 415.98 40.68 417.57 42.24 417.56 41.74 416.08 44.51 413.26 42.83 413.27"/><polygon class="cls-89" points="48.97 413.02 46.04 416.37 46.54 417.96 48.1 417.95 47.6 416.47 50.53 413.12 48.97 413.02"/><polygon class="cls-89" points="37.72 413.29 34.75 416.34 35.25 417.93 36.81 417.92 36.31 416.44 39.15 413.39 37.72 413.29"/><polygon class="cls-89" points="9.29 414.03 6.99 416.4 7.37 417.63 8.59 417.62 8.2 416.48 10.41 414.11 9.29 414.03"/><polygon class="cls-89" points="5.58 413.9 3.27 416.27 3.95 417.88 4.87 417.5 4.48 416.35 6.7 413.98 5.58 413.9"/><g class="cls-98"><polygon class="cls-99" points="49.95 399.21 59.19 395.86 8.97 397.55 49.95 399.21"/></g><polygon class="cls-82" points="112.36 377.06 121.71 401.65 120.86 406.28 123.05 405.89 125.11 402.06 126.68 402.71 125.9 406.44 127.92 405.85 130.86 396.86 124.56 399.5 113.61 376.29 112.36 377.06"/><path class="cls-34" d="M115.37,374.55a1.94,1.94,0,1,0-2.07,1.81A1.94,1.94,0,0,0,115.37,374.55Z"/><path class="cls-34" d="M94.09,353.2a2.16,2.16,0,1,0-2.3,2A2.15,2.15,0,0,0,94.09,353.2Z"/><path class="cls-34" d="M70.33,376.29a1.73,1.73,0,0,0-1.66-1.8,1.69,1.69,0,1,0,1.66,1.8Z"/><polygon class="cls-83" points="112.23 376.15 121.42 400.55 121.21 406.48 123.19 401.03 112.23 376.15"/><polygon class="cls-100" points="51.71 398.51 50.23 399.13 49.73 409.09 50.96 408.38 51.71 398.51"/><path class="cls-101" d="M305.39,427.9c0-4.22-10.39-7.64-23.21-7.64S259,423.68,259,427.9s10.39,7.64,23.22,7.64S305.39,432.12,305.39,427.9Z"/><path class="cls-102" d="M274.86,336.74c3.66-4.61,5.07-9.78,2.95-11.46-1-.72-6.95.78-10.61,5.39s-3.88,10.11-2.85,11.43C266.47,343.78,271.21,341.35,274.86,336.74Z"/><rect class="cls-103" x="266.64" y="420.2" width="6.37" height="1.94" transform="translate(-158.93 678.79) rotate(-88.35)"/><rect class="cls-103" x="284.02" y="413.42" width="1.95" height="7.12" transform="translate(-19.73 14.19) rotate(-2.76)"/><polygon class="cls-104" points="288.7 331.61 285.44 329.55 277.15 344.96 281.19 350.81 288.7 331.61"/><path class="cls-105" d="M282.89,415.65l3.51.21a404.22,404.22,0,0,0-2-43l.07,0c-.32-16-2.29-24.82-6.44-29.5l-11,5.06a2.57,2.57,0,0,0-1.45,2.83c1.46,7.45,2.77,14.51,2.39,21h-.12c0,.3,0,.61.05.92s0,.38-.05.56l.07,0c.63,12.9.7,28.08-.07,45.68l3.61.21c1.84-20.29,2.72-33,3.3-40.5,1.27-1.39,2.61-1.43,4-1.57C281,391.39,282.66,402.82,282.89,415.65Z"/><path class="cls-106" d="M271.57,353.3c-.44-2.36-1.93-4.06-3.31-3.8s-2.13,2.38-1.69,4.74,1.92,4.06,3.31,3.8S272,355.66,271.57,353.3Z"/><path class="cls-106" d="M272.66,356.54l6.94-3c-.16-4.19-1.28-8.66-3.17-9.48l-7.22,3.31C272.34,347.69,272.58,353.52,272.66,356.54Z"/><rect class="cls-107" x="268.08" y="415.98" width="3.27" height="4.95" transform="translate(-162.99 664.67) rotate(-86.84)"/><rect class="cls-107" x="283.15" y="412.19" width="3.27" height="4.95" transform="translate(-141.98 680.98) rotate(-87.48)"/><polygon class="cls-106" points="269.21 347.4 270.3 344 273.49 343.58 278.38 345.06 277.79 346.5 269.21 347.4"/><path class="cls-108" d="M273.38,341.5l-3.62-.05.7,5.63a3.28,3.28,0,0,0,4.09-.37Z"/><polygon class="cls-108" points="274.55 346.71 276.04 350.17 271.84 347.77 274.55 346.71"/><polygon class="cls-109" points="270.03 344 272.96 347.03 272.05 349.26 269.45 346.44 270.03 344"/><rect class="cls-109" x="285.67" y="327.94" width="2.99" height="5.11" transform="translate(-136.41 441.32) rotate(-63.67)"/><path class="cls-101" d="M278.57,342.33l-.56,1h0l-2.08,1-2.05-.63-.49-2.19-3.62-.05.32,2.61L270,344l-.58,2.44.05.06-.29.9-2.23,1a2.57,2.57,0,0,0-1.45,2.83c.11.59.23,1.18.34,1.76a14,14,0,0,0,7-2.18C276.91,348.37,279.3,344.74,278.57,342.33Z"/><path class="cls-110" d="M279.49,336.45c0-3.4-2.19-10.2-5.69-10.2s-8.66,5-8.66,8.4,4.53,8,8,8S279.54,340.92,279.49,336.45Z"/><path class="cls-111" d="M270.14,341.5s-7.76,1.12-7.34-6.7c0,0,1.28-6.74,7.6-8.29C270.4,326.51,264.5,335.76,270.14,341.5Z"/><path class="cls-110" d="M268.71,337.39a1.36,1.36,0,1,0-1.11,1.52A1.34,1.34,0,0,0,268.71,337.39Z"/><path class="cls-111" d="M269.76,328a8.24,8.24,0,0,0,.64,9.41l-1.22.16s-2.66-1.65-3.3-4.09C265.88,333.43,266.1,330.34,269.76,328Z"/><path class="cls-112" d="M278.54,336.32a.56.56,0,0,0-.28-.4.53.53,0,0,0-.49,0,10.59,10.59,0,0,1-3.62.91.82.82,0,0,0-.63.38.84.84,0,0,0-.09.74l.33.95a.44.44,0,0,0,.4.29,4.9,4.9,0,0,0,4.29-1.83.75.75,0,0,0,.15-.56Z"/><path class="cls-113" d="M277.67,339.6c-.06-.17-.42-.22-.79-.09s-.63.37-.57.55.42.22.79.1S277.73,339.78,277.67,339.6Z"/><path class="cls-114" d="M273.5,333.05c-.18-.57-.51-1-.74-.9s-.25.59-.06,1.17.51,1,.74.9S273.69,333.63,273.5,333.05Z"/><path class="cls-114" d="M277.51,331.67c-.19-.57-.52-1-.75-.9s-.25.59-.06,1.16.51,1,.74.91S277.69,332.24,277.51,331.67Z"/><path class="cls-115" d="M276.64,332.63a1.63,1.63,0,0,0-1.77-.51l-.36.11,1.54,2.9a.69.69,0,0,0,.9.3l.78-.36a.56.56,0,0,0,.33-.4.6.6,0,0,0-.12-.5Z"/><path class="cls-110" d="M277.64,336.82l-.08-.48-.11,0a8.66,8.66,0,0,1-3.05.77.77.77,0,0,0-.45.22l.24.67Z"/><path class="cls-110" d="M277.25,333.92c-.24-.31-.53-.48-.65-.38s0,.41.2.72.52.47.65.38S277.48,334.22,277.25,333.92Z"/><path class="cls-111" d="M272.62,330.26l-1,.63a1.26,1.26,0,0,0-.54.81,1.28,1.28,0,0,0,.18,1l.06.09,2-1.33Z"/><path class="cls-111" d="M275.5,329.05l.93-.15a1,1,0,0,1,.79.26,1.4,1.4,0,0,1,.44.84l0,.12-1.95.31Z"/><path class="cls-101" d="M278.27,330.8c-1-2.45-2.52-4.55-4.47-4.55a4.74,4.74,0,0,0-.74.07c-2.81,2.25-8.09,6.77-10.17,10.48.56,3.52,3.26,4.48,5.21,4.7A16,16,0,0,1,278.27,330.8Z"/><path class="cls-49" d="M264.29,342.05c.43-2.81,2.26-6.54,5.18-10.09a24.07,24.07,0,0,1,8.23-6.75C266,321.09,257.31,330.49,264.29,342.05Z"/><path class="cls-109" d="M285.87,347.72,284.31,344c-4.67,2.9-9.28,3.92-15.77,5.43a2.78,2.78,0,0,0-2.12,2.27,4.22,4.22,0,0,0,.27,2.33,2.18,2.18,0,0,0,2.65,1.24A64.67,64.67,0,0,0,285.87,347.72Z"/><rect class="cls-116" x="283.36" y="343.49" width="2.99" height="5.11" transform="translate(-109.76 133.52) rotate(-22.23)"/><path class="cls-117" d="M268.84,375.84,263.73,378l2.39,12.76c1.35.73,2.11.22,3.11-.48Z"/><path class="cls-50" d="M275.08,325.36a15.25,15.25,0,0,0-7.72-.13c-5.14,2.32-7.43,8.43-3.76,15.56a26.34,26.34,0,0,1,3.86-8A24.14,24.14,0,0,1,275.08,325.36Z"/><path class="cls-50" d="M264.85,331.67c.74-1.5,2.22-3.12,1.59-3.43s-2.56.73-3.3,2.23-.76,3.44-.13,3.75S264.11,333.17,264.85,331.67Z"/><path class="cls-50" d="M268.53,326.81c-.11-.24-.52-.3-.92-.12s-.65.51-.54.75.52.3.92.12S268.64,327.05,268.53,326.81Z"/><path class="cls-101" d="M268.12,337.65a.84.84,0,1,0-.84.8A.82.82,0,0,0,268.12,337.65Z"/><polygon class="cls-117" points="271.85 373.11 268.04 376.39 268.61 377.05 272.42 373.78 271.85 373.11"/><path class="cls-45" d="M270.35,371.19c-.57.05-1.14.08-1.76.1l-.31,2.8c.72,0,1.41-.1,2.07-.17Z"/><path class="cls-45" d="M274.13,370.62c-.9.2-1.83.36-2.82.48v2.72c1.09-.13,2.11-.3,3.1-.51Z"/><path class="cls-45" d="M277.73,369.53c-.92.34-1.82.64-2.74.88l.28,2.7a28.63,28.63,0,0,0,2.79-.83Z"/><path class="cls-45" d="M282.2,370.54c.55-.26,1.11-.54,1.7-.84l-.08-2.79-1.94.89Z"/><path class="cls-45" d="M281.12,368.14c-.83.37-1.62.71-2.39,1l.33,2.76c.77-.29,1.56-.63,2.38-1Z"/><path class="cls-50" d="M263.73,378l2.39,12.76a2.44,2.44,0,0,0,1.43.34L266.19,377Z"/><path class="cls-118" d="M268,377l-3.59,1.49.56,1.3c1.62.1,2.2-.56,3.27-1.26Z"/><rect class="cls-119" x="264.85" y="374.96" width="1.67" height="4.38" transform="translate(-57.34 47.78) rotate(-9.28)"/><rect class="cls-50" x="265.4" y="376.2" width="0.81" height="3.14" transform="translate(-66.62 57.05) rotate(-10.9)"/><polygon class="cls-119" points="266.56 373.25 263.04 373.69 263.47 375.94 266.84 374.92 266.56 373.25"/><path class="cls-119" d="M263.16,373.15l-2.3.14a6,6,0,0,0,1,3.87l2-.66A3.39,3.39,0,0,0,263.16,373.15Z"/><path class="cls-119" d="M269.39,375.16s-.67-2.27-4.06-1.4l.23,1.12C267.34,374,269.37,375.19,269.39,375.16Z"/><path class="cls-50" d="M266.62,373.57l-.06-.32-3.06.38c-.1-.16-.22-.32-.34-.48l-2.3.14a5.7,5.7,0,0,0,.28,2.4l6.59-2A4.1,4.1,0,0,0,266.62,373.57Z"/><polygon class="cls-50" points="262.82 374.74 261.15 375.13 261.29 375.75 262.97 375.36 262.82 374.74"/><polygon class="cls-50" points="266.62 373.8 263.66 374.49 263.8 375.11 266.6 374.24 266.62 373.8"/><path class="cls-117" d="M267.48,382.5a.84.84,0,1,0-.84.83A.83.83,0,0,0,267.48,382.5Z"/><polygon class="cls-110" points="296.26 312.3 294.35 311.98 286.09 329.02 288.83 330.31 296.26 312.3"/><path class="cls-110" d="M298.17,329.84c-3.82,7.26-7.62,10.34-12.59,14.11l1.33,3.08c5.64-5.11,8.37-8.34,12.54-16.16Z"/><path class="cls-110" d="M300.8,329.53c.57-1.5.44-2.95-.31-3.23s-1.81.7-2.38,2.2-.44,2.95.3,3.23S300.22,331,300.8,329.53Z"/><path class="cls-110" d="M298.89,326.49c-.23-1.66-1.27-2.57-1.62-2.52s.27,1,.51,2.68,0,3.37.34,3.32S299.12,328.14,298.89,326.49Z"/><path class="cls-110" d="M300.28,325.67c.4-1.49.5-3.64.18-3.73s-.5,1.29-.9,2.78-.46,2.77-.14,2.85S299.88,327.15,300.28,325.67Z"/><path class="cls-110" d="M301.55,325.78c.66-1.4,1.14-3.49.83-3.63s-.71,1.18-1.37,2.58-.94,2.64-.64,2.78S300.9,327.17,301.55,325.78Z"/><path class="cls-110" d="M302.1,327.52c1-1.21,2.12-3.16,1.86-3.38s-1.06,1-2.1,2.17-1.69,2.36-1.43,2.59S301.05,328.72,302.1,327.52Z"/><path class="cls-110" d="M296.89,311.83c.58-1.5.44-2.95-.3-3.23s-1.82.7-2.39,2.2-.44,2.95.3,3.23S296.32,313.33,296.89,311.83Z"/><path class="cls-110" d="M295,308.79c-.24-1.66-1.27-2.57-1.62-2.52s.27,1,.5,2.68,0,3.37.34,3.32S295.22,310.45,295,308.79Z"/><path class="cls-110" d="M296.37,308c.4-1.48.5-3.63.18-3.71s-.5,1.29-.9,2.77-.46,2.77-.14,2.85S296,309.46,296.37,308Z"/><path class="cls-110" d="M297.64,308.08c.66-1.4,1.14-3.49.84-3.63s-.72,1.18-1.37,2.58-.95,2.64-.65,2.78S297,309.47,297.64,308.08Z"/><path class="cls-110" d="M298.2,309.82c1-1.21,2.11-3.16,1.85-3.38s-1.05,1-2.1,2.17-1.69,2.36-1.43,2.59S297.15,311,298.2,309.82Z"/><path class="cls-103" d="M271.78,431c0-1.67-.54-7.81-1.91-7.81s-3,6.14-3,7.81,1,1.43,2.39,1.43S271.78,432.68,271.78,431Z"/><path class="cls-120" d="M271.78,430.21c0-1.67-.54-7.81-1.91-7.81s-3,6.14-3,7.81,1,1.44,2.39,1.44S271.78,431.89,271.78,430.21Z"/><path class="cls-50" d="M269.85,428.86c.17-1-.18-1.84-.78-1.94s-1.24.59-1.41,1.56.18,1.84.79,1.95S269.68,429.83,269.85,428.86Z"/><rect class="cls-103" x="268.91" y="422.08" width="1.59" height="2.55"/><rect class="cls-103" x="268.38" y="425.27" width="2.34" height="0.74"/><path class="cls-103" d="M289.48,421.07c-2.3-.29-5.22-2.3-5.4-.9a.28.28,0,0,1,0,.09,7,7,0,0,0-.43,2.73,1.63,1.63,0,0,0,1.8,1.37,2.22,2.22,0,0,0,1.06-.26l.3,0c2.3.29,8,.93,8.2-.47S294.69,420.64,289.48,421.07Z"/><path class="cls-120" d="M289.48,420.33c-2.3-.29-5.22-2.3-5.4-.9a.22.22,0,0,1,0,.08,7,7,0,0,0-.43,2.73,1.64,1.64,0,0,0,1.8,1.38,2.11,2.11,0,0,0,1.06-.27l.3.06c2.3.29,8,.92,8.2-.47S294.69,419.9,289.48,420.33Z"/><polygon class="cls-103" points="285.87 418.73 284.64 418.68 286.98 420.37 287.47 419.69 285.87 418.73"/><path class="cls-50" d="M293.84,422c0-.35-.8-.69-1.82-.75s-1.87.18-1.9.53.8.69,1.82.75S293.82,422.38,293.84,422Z"/><rect class="cls-103" x="287.52" y="420.27" width="1.38" height="0.74" transform="translate(-208.5 535.92) rotate(-68.65)"/><path class="cls-35" d="M493.55,416.77c-.35-13.5-18.72-38.25-37.17-37.77S430,403.57,430.31,417.07C445.46,418.27,492.81,421.53,493.55,416.77Z"/><g class="cls-121"><path class="cls-122" d="M474.41,392.78a48.36,48.36,0,0,0,2.31-5.11c-6.07-5.25-13.2-8.86-20.34-8.67-17.73.46-25.78,22.73-26.07,36.45C445.89,420.47,464.82,411.1,474.41,392.78Z"/></g><ellipse class="cls-123" cx="637.19" cy="419.01" rx="77.22" ry="3.12"/><path class="cls-124" d="M596.57,422.26,514,420.88l2.1-31.86c14.87-1.3,36.78-2.29,50.18-1.39l31.93,13.22C601.55,409.82,601.68,417.28,596.57,422.26Z"/><path class="cls-124" d="M554.94,403.37h0a6.93,6.93,0,0,1,1.37-.16c4.82,0,8.12,5.56,7.37,12.42s-5.29,12.42-10.11,12.42h-4.92a5.37,5.37,0,0,1-3.58-1.32,16.1,16.1,0,0,1-5.51-12.31C539.54,401.3,554.94,403.37,554.94,403.37Z"/><path class="cls-124" d="M587.67,428.06h-4.92a5.36,5.36,0,0,1-3.57-1.32,16.07,16.07,0,0,1-5.51-12.31c0-13.13,15.37-11.06,15.37-11.06Z"/><path class="cls-125" d="M580.3,415.64c-.75,6.86,2.55,12.42,7.37,12.42s9.36-5.56,10.11-12.42-2.54-12.42-7.37-12.42S581.06,408.78,580.3,415.64Z"/><path class="cls-126" d="M587.67,423.57c1.93,0,5.09-3.28,5.66-8.42.36-3.3-.54-5.63-1.5-6.7a1.79,1.79,0,0,0-1.42-.74c-1.92,0-5.08,3.28-5.65,8.42-.36,3.3.54,5.63,1.5,6.7A1.78,1.78,0,0,0,587.67,423.57Z"/><path class="cls-125" d="M591.8,416.3c.36-3.19-.5-5.43-1.41-6.45a1.49,1.49,0,0,0-1.18-.63,3.66,3.66,0,0,0-2.34,1.31,4.2,4.2,0,0,1,2.74-1.75,1.49,1.49,0,0,1,1.18.63c.92,1,1.77,3.25,1.42,6.45a11.81,11.81,0,0,1-3,6.83A12.06,12.06,0,0,0,591.8,416.3Z"/><path class="cls-124" d="M585.25,418.94a4.81,4.81,0,0,1,.94-.46.48.48,0,0,1,.45,0,.5.5,0,0,1,.11.34,11,11,0,0,1-.08,1.72,4.21,4.21,0,0,1-.36,1.62.56.56,0,0,1-.34.29,7.5,7.5,0,0,1-1.16-3.16A2.17,2.17,0,0,1,585.25,418.94Z"/><path class="cls-124" d="M586,411.72a1.68,1.68,0,0,1,.19.31,4.84,4.84,0,0,1,.65,2.18,2.36,2.36,0,0,1-1,1.68,5,5,0,0,1-1.1.57c0-.11,0-.21,0-.33A13.36,13.36,0,0,1,586,411.72Z"/><path class="cls-124" d="M589.44,413.58a1.26,1.26,0,0,1-.38.47.48.48,0,0,1-.56,0,.7.7,0,0,1-.17-.38,8.64,8.64,0,0,1,.24-4.34h0a1.28,1.28,0,0,1,1.11-.15,2.66,2.66,0,0,1,.94.73A10.11,10.11,0,0,1,589.44,413.58Z"/><path class="cls-124" d="M588.62,419.41a1.33,1.33,0,0,1,.35-.93,1.17,1.17,0,0,1,1.26,0,12.26,12.26,0,0,0,1.09.67,12.41,12.41,0,0,1-2,3.48A6.64,6.64,0,0,1,588.62,419.41Z"/><path class="cls-124" d="M589.77,416.75a.67.67,0,0,1-.34-.3.7.7,0,0,1,0-.47,5.29,5.29,0,0,1,2.45-2.82,6.68,6.68,0,0,1-.27,4.12A5,5,0,0,1,589.77,416.75Z"/><path class="cls-127" d="M589.19,407.7a3,3,0,0,1,1.36-.33,2.52,2.52,0,0,1,1.37.4,4.2,4.2,0,0,1,1.64,2.23,11.48,11.48,0,0,1,.56,2.65,12.26,12.26,0,0,1-3.69,9.93,13.33,13.33,0,0,0,3.15-9.84,11.54,11.54,0,0,0-.5-2.54,3.92,3.92,0,0,0-1.36-2.07,2.43,2.43,0,0,0-2.41-.22,7.3,7.3,0,0,0-2.2,1.59A7.05,7.05,0,0,1,589.19,407.7Zm-6.18,2a14,14,0,0,1,2.93-3.33,7.25,7.25,0,0,1,3.85-1.58,5,5,0,0,1,3.7,1.18,7.53,7.53,0,0,1,2.17,3.35,17.26,17.26,0,0,1-3.18,16.19,16.27,16.27,0,0,0,4.49-7.74,15.84,15.84,0,0,0-.3-8.87,8.1,8.1,0,0,0-2.59-3.77,6,6,0,0,0-2.1-1.05,6.16,6.16,0,0,0-2.34-.1,7.56,7.56,0,0,0-4,2.05A13.07,13.07,0,0,0,583,409.67Z"/><path class="cls-124" d="M528.47,428.06h-5.08a6.48,6.48,0,0,1-3.89-1.32,18.89,18.89,0,0,1-7.44-12.31c-1.89-13.13,14.31-11.06,14.31-11.06Z"/><ellipse class="cls-125" cx="528.12" cy="415.64" rx="9.02" ry="12.43" transform="translate(-23.98 32.43) rotate(-3.44)"/><path class="cls-126" d="M527.83,423.57c2,0,4.79-3.28,4.64-8.42a9.71,9.71,0,0,0-2.49-6.7,2.18,2.18,0,0,0-1.57-.74c-2,0-4.79,3.28-4.64,8.42a9.66,9.66,0,0,0,2.5,6.7A2.15,2.15,0,0,0,527.83,423.57Z"/><path class="cls-125" d="M531.07,416.3a9.35,9.35,0,0,0-2.38-6.45,1.8,1.8,0,0,0-1.31-.63,3.21,3.21,0,0,0-2.23,1.31,3.61,3.61,0,0,1,2.58-1.75,1.8,1.8,0,0,1,1.31.63,9.33,9.33,0,0,1,2.38,6.45,10.06,10.06,0,0,1-2.12,6.83A10.39,10.39,0,0,0,531.07,416.3Z"/><path class="cls-124" d="M524.67,418.94a4.09,4.09,0,0,1,.91-.46.4.4,0,0,1,.62.35,10.12,10.12,0,0,1,.17,1.72,3.79,3.79,0,0,1-.14,1.62.5.5,0,0,1-.31.29,8.39,8.39,0,0,1-1.65-3.16A1.72,1.72,0,0,1,524.67,418.94Z"/><path class="cls-124" d="M524.45,411.72a3.43,3.43,0,0,1,.24.31,5.55,5.55,0,0,1,1,2.18,2,2,0,0,1-.83,1.68,4.25,4.25,0,0,1-1.05.57c0-.11,0-.21,0-.33A11.65,11.65,0,0,1,524.45,411.72Z"/><path class="cls-124" d="M528.23,413.58a1,1,0,0,1-.32.47.51.51,0,0,1-.58,0,.78.78,0,0,1-.23-.38,8.42,8.42,0,0,1-.37-4.34h0a1.28,1.28,0,0,1,1.12-.15,3.38,3.38,0,0,1,1.08.73A8.74,8.74,0,0,1,528.23,413.58Z"/><path class="cls-124" d="M528.22,419.41a1.18,1.18,0,0,1,.23-.93,1.22,1.22,0,0,1,1.29,0c.44.21.78.5,1.23.67a10.25,10.25,0,0,1-1.52,3.48A7.24,7.24,0,0,1,528.22,419.41Z"/><path class="cls-124" d="M529,416.75a.84.84,0,0,1-.39-.3.64.64,0,0,1,0-.47,4.41,4.41,0,0,1,2.13-2.82,6.46,6.46,0,0,1,.3,4.12A5.93,5.93,0,0,1,529,416.75Z"/><path class="cls-127" d="M527.14,407.7a2.91,2.91,0,0,1,1.36-.33,3,3,0,0,1,1.47.4,5.07,5.07,0,0,1,2,2.23,12.05,12.05,0,0,1,1,2.65,10.76,10.76,0,0,1-2.4,9.93,11.83,11.83,0,0,0,1.85-9.84,12.5,12.5,0,0,0-.87-2.54,4.77,4.77,0,0,0-1.7-2.07,2.69,2.69,0,0,0-2.53-.22,6.14,6.14,0,0,0-2,1.59A5.81,5.81,0,0,1,527.14,407.7Zm-6.1,2a11.19,11.19,0,0,1,2.55-3.33,6.59,6.59,0,0,1,3.75-1.58,5.86,5.86,0,0,1,4,1.18,9,9,0,0,1,2.72,3.35,16,16,0,0,1-1,16.19,13.58,13.58,0,0,0,3.54-7.74,16.1,16.1,0,0,0-1.57-8.87,10,10,0,0,0-3.21-3.77,7.42,7.42,0,0,0-2.33-1.05,6.56,6.56,0,0,0-6.31,1.95A10.54,10.54,0,0,0,521,409.67Z"/><path class="cls-124" d="M486.26,403.37h0a7.22,7.22,0,0,1,1.39-.16c5,0,9.19,5.56,9.39,12.42s-3.69,12.42-8.68,12.42h-5.08a6.45,6.45,0,0,1-3.89-1.32A18.89,18.89,0,0,1,472,414.43C470.05,401.3,486.26,403.37,486.26,403.37Z"/><path class="cls-128" d="M581.48,391.55c-2.57,2.8-15.68,2.15-34.13.15a10.58,10.58,0,0,1,7.89-4c9-.22,18.06,0,27,.64A4,4,0,0,1,581.48,391.55Z"/><path class="cls-129" d="M546.26,391.59c.55-.76,2.42-3.23,3.57-3.68,4.43-1.77,20.32-.7,21.91,1.43l-5.47,4C560.73,393.05,553.94,392.43,546.26,391.59Z"/><path class="cls-130" d="M562.33,393.08c.72-.48,6.44-4.2,8.7-4.05s-1,4.26-1.13,4.39C567.64,393.39,565.11,393.27,562.33,393.08Z"/><path class="cls-131" d="M556.28,372.88a1.87,1.87,0,0,1,1.27-.94,1.9,1.9,0,0,1,1.54.4,3.37,3.37,0,0,1,.9,2.5,12.88,12.88,0,0,1-.58,4.78c-.31.92-.75,1.79-1,2.72a4.45,4.45,0,0,0-.08,2.86,3.31,3.31,0,0,1-1.5-1.48,7.75,7.75,0,0,1-.64-2.05C555.61,378.81,554.93,375.45,556.28,372.88Z"/><path class="cls-132" d="M555.83,387.75a13.66,13.66,0,0,1-.28-3.72,10.73,10.73,0,0,0,2-9.13,3.88,3.88,0,0,0-1.59-2.62,3.09,3.09,0,0,0-2-.31,5.23,5.23,0,0,0-3.36,2.17A7.7,7.7,0,0,0,549.3,378a15.21,15.21,0,0,0,.31,4.09c.25,1.28.58,2.79,1.82,3.46a2.87,2.87,0,0,0,1.68.31,14.33,14.33,0,0,1-.72,2.56,2,2,0,0,0,1.8.8A2.47,2.47,0,0,0,555.83,387.75Z"/><path class="cls-133" d="M551.06,383.34a.3.3,0,0,0-.12.21.32.32,0,0,0,.1.21,3.37,3.37,0,0,0,.71.09,2.07,2.07,0,0,0,.61-.05,1,1,0,0,0,.57-.49C552.34,383.19,551.49,383,551.06,383.34Z"/><path class="cls-134" d="M550.93,379.22l-1.5-.13A1.35,1.35,0,0,1,550.93,379.22Z"/><path class="cls-134" d="M554.76,378.85a19,19,0,0,0-2.26.35A2.67,2.67,0,0,1,554.76,378.85Z"/><path class="cls-135" d="M553.22,380.49c0,.07.09.14.17.13s.12-.09.15-.16a1.22,1.22,0,0,0,.13-.38.5.5,0,0,0-.11-.37.26.26,0,0,0-.43.06A1,1,0,0,0,553.22,380.49Z"/><path class="cls-135" d="M550.43,380.63a.12.12,0,0,0,.11.07.16.16,0,0,0,.09-.09,1.29,1.29,0,0,0,.1-.42.65.65,0,0,0,0-.24c-.07-.19-.36-.28-.44-.06A.89.89,0,0,0,550.43,380.63Z"/><path class="cls-136" d="M552.06,381.46a1.54,1.54,0,0,1-.57.8.2.2,0,0,1-.21,0l-.08-.08,0,0-.12-.22a1.57,1.57,0,0,1-.13-.47,3.89,3.89,0,0,0,.28.39l.14.18,0,0h0A6.29,6.29,0,0,0,552.06,381.46Z"/><path class="cls-137" d="M550.82,383.34a1.92,1.92,0,0,1,.39-.52l.23.17c.09-.06.16-.16.26-.22a3.19,3.19,0,0,1,1.25.54A6.09,6.09,0,0,1,550.82,383.34Z"/><path class="cls-131" d="M551.49,376a5.43,5.43,0,0,0-1.9,2.92,10.72,10.72,0,0,0-.13,3.3A17.89,17.89,0,0,0,550,386a17.88,17.88,0,0,1-1.11-8.68,8.37,8.37,0,0,1,1-3.05,5.47,5.47,0,0,1,2.21-2.21,4,4,0,0,1,3.07-.28,13.54,13.54,0,0,1-1.83,2.25A19.23,19.23,0,0,1,551.49,376Z"/><path class="cls-131" d="M556.43,382.78a2.46,2.46,0,0,0-.53-.82.32.32,0,0,0,.27,0,.31.31,0,0,0,.19-.21,5.4,5.4,0,0,1,.48-1,2,2,0,0,0,.31-1.05.63.63,0,0,0-.34-.57.59.59,0,0,0-.58.12,1.7,1.7,0,0,0-.38.5A12.11,12.11,0,0,1,554.3,386a12.66,12.66,0,0,0-.87-8.22,3.76,3.76,0,0,0-1.93-2.08,5.38,5.38,0,0,1,1.62-2.14c.67-.63,1.34-1.26,2-1.88a2.16,2.16,0,0,1,1.51.81,4.58,4.58,0,0,1,.82,1.58A10,10,0,0,1,556.43,382.78Z"/><path class="cls-138" d="M556.36,381.76a.31.31,0,0,1-.19.21.32.32,0,0,1-.27,0,2.46,2.46,0,0,1,.53.82,10,10,0,0,0,1-8.7,5.74,5.74,0,0,0-.38-.92c.32,2.43,1.25,5.09-1.24,6.25,0,.42,0,.84,0,1.25,0-.3,0-.6,0-.9a1.7,1.7,0,0,1,.38-.5.59.59,0,0,1,.58-.12.63.63,0,0,1,.34.57,2,2,0,0,1-.31,1.05A5.4,5.4,0,0,0,556.36,381.76Z"/><path class="cls-135" d="M550.91,379.88a5.47,5.47,0,0,1-1.07,0A1.22,1.22,0,0,1,550.91,379.88Z"/><path class="cls-135" d="M554,379.7a10.73,10.73,0,0,1-1.14.07A1.28,1.28,0,0,1,554,379.7Z"/><path class="cls-139" d="M551,375.32a4.53,4.53,0,0,0-1.2,1.53,6.79,6.79,0,0,0-.57,1.79,18.5,18.5,0,0,0-.08,3.88,10.94,10.94,0,0,1-.22-3.94,5.58,5.58,0,0,1,.68-1.85A3.91,3.91,0,0,1,551,375.32Z"/><path class="cls-139" d="M551.1,375.15a14,14,0,0,0-1,1,13.73,13.73,0,0,0-.9,1.12A2.91,2.91,0,0,1,551.1,375.15Z"/><path class="cls-139" d="M551.05,374.94a3.47,3.47,0,0,1-1.47.94A2.09,2.09,0,0,1,551.05,374.94Z"/><path class="cls-139" d="M550.83,374.71a1.74,1.74,0,0,1-1,.56A.87.87,0,0,1,550.83,374.71Z"/><path class="cls-139" d="M550.77,374.39a.65.65,0,0,1-.66.3A.44.44,0,0,1,550.77,374.39Z"/><path class="cls-139" d="M554.57,384.41a10.88,10.88,0,0,0-.1-4.69,10.72,10.72,0,0,0-2.06-4.22,8.67,8.67,0,0,1,2.16,8.91Z"/><path class="cls-139" d="M553.94,377.52a18.66,18.66,0,0,0-1.59-2.45A3.18,3.18,0,0,1,553.94,377.52Z"/><path class="cls-139" d="M553.78,376.31c-.51-.54-.88-.95-1.38-1.51A1.92,1.92,0,0,1,553.78,376.31Z"/><path class="cls-139" d="M553.64,375.49a2.89,2.89,0,0,1-.87-.87A.94.94,0,0,1,553.64,375.49Z"/><path class="cls-139" d="M553.92,375.24a1.27,1.27,0,0,1-.88-.85A1.36,1.36,0,0,1,553.92,375.24Z"/><path class="cls-139" d="M554,375a1,1,0,0,1-.71-.79A1.05,1.05,0,0,1,554,375Z"/><path class="cls-139" d="M554,374.41a.47.47,0,0,1-.46-.43A.37.37,0,0,1,554,374.41Z"/><path class="cls-139" d="M554.25,374.19c-.27,0-.39-.07-.37-.34C554.14,373.83,554.25,373.93,554.25,374.19Z"/><path class="cls-139" d="M554.83,384.24a25.31,25.31,0,0,0,.24-5.22A8,8,0,0,1,554.83,384.24Z"/><path class="cls-139" d="M557.44,378.44a19.17,19.17,0,0,0-.23-3.52,5.8,5.8,0,0,0-.58-1.6,4,4,0,0,0-1.15-1.34,3.48,3.48,0,0,1,1.35,1.23,4.9,4.9,0,0,1,.68,1.66A10.2,10.2,0,0,1,557.44,378.44Z"/><path class="cls-139" d="M556.6,373.77c-.21-.3-.4-.54-.6-.79s-.38-.49-.62-.75A1.65,1.65,0,0,1,556.6,373.77Z"/><path class="cls-139" d="M556.19,373.55a3.94,3.94,0,0,1-.9-1.09A1.16,1.16,0,0,1,556.19,373.55Z"/><path class="cls-139" d="M555.7,373.29a.51.51,0,0,1-.47-.57A.55.55,0,0,1,555.7,373.29Z"/><path class="cls-139" d="M555.45,373.38c-.25.05-.33,0-.26-.28C555.41,373.07,555.5,373.15,555.45,373.38Z"/><path class="cls-139" d="M558,381.28a18,18,0,0,0,1.23-4.88,10,10,0,0,0,0-2.45,2.17,2.17,0,0,0-.5-1.11,1.57,1.57,0,0,0-1.1-.57,1.58,1.58,0,0,1,1.2.48,2.35,2.35,0,0,1,.62,1.16,5.06,5.06,0,0,1,.13,1.28c0,.42,0,.84-.07,1.26A12.76,12.76,0,0,1,558,381.28Z"/><path class="cls-139" d="M559.18,374.62a2.3,2.3,0,0,0-.35-1.33,2.22,2.22,0,0,0-1.08-.85,1.52,1.52,0,0,1,1.43,2.18Z"/><path class="cls-139" d="M559,374.2c-.14-.26-.27-.46-.39-.67l-.19-.31c-.08-.1-.11-.24-.25-.29a.31.31,0,0,1,.23,0,1.22,1.22,0,0,1,.19.12,1,1,0,0,1,.28.31A1.07,1.07,0,0,1,559,374.2Z"/><path class="cls-139" d="M558.62,373.89a1.92,1.92,0,0,1-.26-.32,1.76,1.76,0,0,1-.13-.39A.47.47,0,0,1,558.62,373.89Z"/><path class="cls-136" d="M556.07,381a.91.91,0,0,0,.31-.62.49.49,0,0,0-.06-.3.24.24,0,0,0-.11-.09h-.06s-.15,0-.3.12c0-.1.14-.27.2-.36a1.37,1.37,0,0,1,.13-.2.66.66,0,0,1,.43-.23.4.4,0,0,1,.43.23.61.61,0,0,1,0,.46.63.63,0,0,0,0-.43.3.3,0,0,0-.34-.14.49.49,0,0,0-.33.21.57.57,0,0,0-.12.18s0,0,0,0h0l.11,0a.36.36,0,0,1,.15.15.6.6,0,0,1,.05.39A.86.86,0,0,1,556.07,381Z"/><path class="cls-140" d="M553.08,385.83a4.06,4.06,0,0,0,1.5-1.1,5.76,5.76,0,0,1-1.24,3.38A19.4,19.4,0,0,1,553.08,385.83Z"/><path class="cls-141" d="M550,388.6a31.75,31.75,0,0,0-2.11,11.15,6.18,6.18,0,0,0,1.51.78,44.25,44.25,0,0,0,1.5-11.1C550.91,389.07,550.31,388.78,550,388.6Z"/><path class="cls-142" d="M552,388.19a4.49,4.49,0,0,1,.62-.83,4.29,4.29,0,0,0,.64,1.17c.79-.54,1.55-1,2.34-1.55.14.29.26.63.41.91a15,15,0,0,0,2.5.25c.28.21.26.58.26.92a3.88,3.88,0,0,1-2.07,3.32,21,21,0,0,1-2.16,4.32,12.15,12.15,0,0,1,2.64,5.31,5.35,5.35,0,0,1-4,.89,12.91,12.91,0,0,1-3.74-1.31,17.13,17.13,0,0,1,.29-6.48,3.94,3.94,0,0,1-1.36-1.7,37,37,0,0,0,1.79-3.36,7.93,7.93,0,0,1-.14-1.47C550.68,388.5,551.42,388.27,552,388.19Z"/><path class="cls-141" d="M552.35,389.87a7.36,7.36,0,0,1,.92-1,2.74,2.74,0,0,1,.41,1.17,2.07,2.07,0,0,0-.64-.29A.78.78,0,0,0,552.35,389.87Z"/><path class="cls-141" d="M548.68,393.48A6.63,6.63,0,0,0,552,394,5.63,5.63,0,0,0,555,393c-.37.46-.7,1-1.06,1.47a3.45,3.45,0,0,1-.52.56,3.23,3.23,0,0,1-1.68.49c.08.2.15.4.23.59l-.2.07a.59.59,0,0,1-.36.38,9.27,9.27,0,0,0-.25,2.73,25.38,25.38,0,0,0-.83-3.87l.13-.13A5.44,5.44,0,0,1,548.68,393.48Z"/><path class="cls-141" d="M551.45,402.09a5.9,5.9,0,0,0,5.51-.16,25.83,25.83,0,0,0-2.4-4.93,2.57,2.57,0,0,0-.68,0,1.15,1.15,0,0,1,.5-.2.83.83,0,0,0-.4-.11v0c.08-.12.26-.12.41-.08a3.83,3.83,0,0,1,.45-.75,4,4,0,0,1-1.4.89l.3.08-.32.37,1,.11c.33.73.62,1.5.89,2.26a4.52,4.52,0,0,1,.35,1.61,1.23,1.23,0,0,1-.32.85,1.4,1.4,0,0,1-.79.3A9.56,9.56,0,0,1,551.45,402.09Z"/><path class="cls-141" d="M554.92,395.59a29.63,29.63,0,0,0,1.73-3.7,2.19,2.19,0,0,1-.24-.9A20.27,20.27,0,0,1,554.92,395.59Z"/><path class="cls-141" d="M556.45,390.5a3.92,3.92,0,0,1,1.43-2,3,3,0,0,1-1.35-.19c.24.07.33.38.36.63a1.48,1.48,0,0,1-.16.74A8.45,8.45,0,0,0,556.45,390.5Z"/><path class="cls-141" d="M549.75,396.47a16.69,16.69,0,0,0-.09,4.89l.91.58a4.26,4.26,0,0,1-1-2.55A13.6,13.6,0,0,1,549.75,396.47Z"/><path class="cls-141" d="M550.77,393.26l2-2.94A10.11,10.11,0,0,1,550.77,393.26Z"/><path class="cls-141" d="M555.52,388.35a8.18,8.18,0,0,1-1.66,1.56A9.07,9.07,0,0,1,555.52,388.35Z"/><path class="cls-141" d="M552.21,389.65a1.6,1.6,0,0,1-.05-1.14A3.37,3.37,0,0,1,552.21,389.65Z"/><path class="cls-143" d="M552.11,399.82c-.29,0-.58-.07-.86-.12a7,7,0,0,0-2.27-1.45,5.67,5.67,0,0,0-1.39,1,1.08,1.08,0,0,0,.47.62,3.17,3.17,0,0,0,.48,1.21,7.48,7.48,0,0,0,1.8.42,2.67,2.67,0,0,0,1-.9,5.74,5.74,0,0,1,.91-.22C552.19,400.2,552.17,400,552.11,399.82Z"/><path class="cls-140" d="M548.63,400.92a2.6,2.6,0,0,1-.44-1l.59-.57a3.77,3.77,0,0,0-.64.39l-.29-.18a9.65,9.65,0,0,0,1-.59,5.14,5.14,0,0,0,.76,1.47A4.94,4.94,0,0,1,548.63,400.92Z"/><path class="cls-140" d="M551.87,400.37l-.59.12a2.88,2.88,0,0,1-1,.85c-.13.07-.35,0-.49-.07a3.06,3.06,0,0,0,1.39-.88Z"/><path class="cls-144" d="M556.6,398.29c.14-2.28,0-6.82,0-6.82a4.75,4.75,0,0,1,1.76-3,.17.17,0,0,1,.24,0,.63.63,0,0,1,.19.24,17.4,17.4,0,0,1,.67,1.72s-1.07,6.74-1.14,10.11a36.63,36.63,0,0,1-6.45.37,2.85,2.85,0,0,0-.27-1.34C553.17,399.11,555,398.86,556.6,398.29Z"/><path class="cls-141" d="M558.08,389.09a19,19,0,0,0-1.31,2.33s.16,4.63.14,6.94l.11.21-.23-.1.37.63a.44.44,0,0,0,0-.28l.13,0a1.06,1.06,0,0,0-.19-.58A56.7,56.7,0,0,1,558.08,389.09Z"/><path class="cls-141" d="M552.39,399.85l.09.81,5.43-.27a10.17,10.17,0,0,0,.29-2.75c-.11.45-.14.9-.23,1.36a1.69,1.69,0,0,1-.67,1.18,2.06,2.06,0,0,1-.81.24,16.35,16.35,0,0,1-3.28-.05,1.23,1.23,0,0,1-.51-.11C552.55,400.18,552.36,400,552.39,399.85Z"/><path class="cls-145" d="M470.28,399a91,91,0,0,1,27.88-11.61,255.89,255.89,0,0,1,36.4.11,7.41,7.41,0,0,1,4.68,2,6.16,6.16,0,0,1,1.08,1.4c22.1,2.58,38.27,3.79,41.16.64a4,4,0,0,0,.8-3.2c8.52,1,16.26,2.9,22.35,6.73a31.43,31.43,0,0,1,3.53,14.9l.17.09a1.48,1.48,0,0,1,.76,1.49c-.88,7-2.85,10-7.74,10.44-1.5.1-3.1.19-4.78.26,2.46-3.47,3.84-18.09-2.89-18.85-12.76-1.44-12,19.25-12,19.26-12.76.16-28.16,0-45.06-.39,0,0,5.69-17.52-3.84-18.94-15.61-2.33-14.42,18.48-14.42,18.48-15-.41-30.66-.91-46.43-1.42a4.45,4.45,0,0,1-3.91-2.65C465.12,411.21,465.36,402,470.28,399Z"/><path class="cls-146" d="M547,375.05l-2.58,16.33-4-.47a7.2,7.2,0,0,0-3-2.56A33,33,0,0,1,547,375.05Z"/><polygon class="cls-147" points="546.26 379.41 538.44 388.84 539.56 389.85 545.43 384.63 546.26 379.41"/><path class="cls-125" d="M537.62,388.35h0a7.73,7.73,0,0,0-3.06-.85,255.89,255.89,0,0,0-36.4-.11,106,106,0,0,1,16.26-11.54c10-2.76,20.88-2.79,32.53-.8C542.16,379.48,539,383.92,537.62,388.35Z"/><path class="cls-148" d="M514.94,421.73c.34-1.07.64-9.44-5.28-18.92,3.05-4.23,6.64-8.49,23.5-15.39l1.4.08a7.41,7.41,0,0,1,4.68,2,6.16,6.16,0,0,1,1.08,1.4c22.1,2.58,38.27,3.79,41.16.64a4,4,0,0,0,.8-3.2c8.52,1,16.26,2.9,22.35,6.73a31.43,31.43,0,0,1,3.53,14.9l.17.09a1.48,1.48,0,0,1,.76,1.49c-.88,7-2.85,10-7.74,10.44-1.5.1-3.1.19-4.78.26,2.46-3.47,3.84-18.09-2.89-18.85-12.76-1.44-12,19.25-12,19.26-12.76.16-28.16,0-45.06-.39,0,0,5.69-17.52-3.84-18.94-15.61-2.33-14.42,18.48-14.42,18.48Z"/><path class="cls-149" d="M564.86,397.9c0,.79,1.08,1.6,3.55,1.83s5.35-.22,5.37-1-1.27-1.61-3.73-1.84S564.88,397.1,564.86,397.9Z"/><path class="cls-150" d="M565.41,397.71c0,.65,1,1.32,3.23,1.51s4.84-.15,4.86-.81-1.15-1.32-3.39-1.52S565.43,397.06,565.41,397.71Z"/><path class="cls-149" d="M566.47,397.34c-.19.08-.3.16-.3.22,0,.46.83,1,2.7,1.2a10.26,10.26,0,0,0,1.12.05c1.89,0,3-.38,3-.59a.53.53,0,0,0-.19-.35c.3.19.43.39.42.53s-1.24.62-3.33.62c-.43,0-.85,0-1.25,0-2.07-.18-3-.78-3-1.25C565.67,397.62,565.94,397.47,566.47,397.34Z"/><path class="cls-145" d="M569,397.2c0,.18.43.41,1.43.57s2.2.18,2.21,0-.5-.42-1.5-.58S569,397,569,397.2Z"/><path class="cls-124" d="M494.32,411.71c2.39-.27,4.85-.61,7.36-1a7.06,7.06,0,0,1,6.93,3.05l2.82,4.17a.75.75,0,0,1-.68,1.17c-3.19-.23-6.36-.44-9.47-.63a1.75,1.75,0,0,1-1-.4c-1.95-1.55-4.57-3.81-6.25-5.44A.54.54,0,0,1,494.32,411.71Z"/><path class="cls-124" d="M469.81,411.54a.89.89,0,0,1,.58.66q.69,2.55,1.19,5.12c.06.36-.15.76-.46.75C468.41,417.94,466.14,410.63,469.81,411.54Z"/><path class="cls-124" d="M472,411.87c4.56.91,11.06.91,18.52.24a1.59,1.59,0,0,1,1.27.45,40.16,40.16,0,0,1,4.06,4.63.59.59,0,0,1-.5.94,172.56,172.56,0,0,0-21.15-.1,1.09,1.09,0,0,1-1.11-.69c-.57-1.51-1.24-3.41-1.68-4.8A.52.52,0,0,1,472,411.87Z"/><path class="cls-124" d="M534.56,387.5a260.39,260.39,0,0,0-35.07-.2h-.06c5.2-4.3,10.2-8.31,15-11.05a62.73,62.73,0,0,1,16.73-2,79.87,79.87,0,0,1,13.18,1.2c-4.28,4.15-7.11,8.26-8.42,12.23A8.21,8.21,0,0,0,534.56,387.5Z"/><path class="cls-147" d="M536,387.72c1.31-3.88,4.06-7.89,8.18-11.93a78.67,78.67,0,0,0-12.83-1.15,62.75,62.75,0,0,0-16.69,1.95c-4.69,2.66-9.58,6.57-14.59,10.71,4.9-.32,9.78-.47,14.91-.47,6.22,0,12.68.23,19.75.7A8.12,8.12,0,0,1,536,387.72Z"/><path class="cls-149" d="M599.4,394.28c.48-1,5.23.8,5.23.8a33.5,33.5,0,0,1,3.17,9.67C602.92,401.93,598.92,395.24,599.4,394.28Z"/><path class="cls-151" d="M521.42,379.37A176.45,176.45,0,0,0,505,387c-1.66.07-3.33.15-5,.26,5-4.14,9.9-8.05,14.59-10.71a62.75,62.75,0,0,1,16.69-1.95c2.22,0,4.28.11,6.31.3A72.39,72.39,0,0,0,521.42,379.37Z"/><path class="cls-146" d="M532.17,384.63a65.42,65.42,0,0,0,7.88-4.28,25.8,25.8,0,0,0-4.1,7.37,8.12,8.12,0,0,0-1.27-.19c-3.9-.26-7.61-.44-11.2-.56A46.68,46.68,0,0,0,532.17,384.63Z"/><path class="cls-124" d="M547,375.05a35.19,35.19,0,0,0-9.59,13.3A53.51,53.51,0,0,1,547,375.05Z"/><path class="cls-145" d="M536.27,388.23c0,1.61,2.82,2.6,5.85,2.6s6.57-1.08,7-4.44c.35-2.68-3.57-3.22-6.52-2.53C539.37,384.62,536.27,386.61,536.27,388.23Z"/><path class="cls-150" d="M547.85,387.79s-6,1.87-8.53.29-2-1.06-2-1.06-.77,1.47.63,2.07,5.19,1.75,7.62.34S547.85,387.79,547.85,387.79Z"/><path class="cls-150" d="M537.46,387a1.46,1.46,0,0,0-.39.84c0,1.07,2.38,2,5.21,2,1.37,0,5.9-.28,6.37-3.88h0a1.62,1.62,0,0,1,0,.44c-.49,3.74-5.12,4-6.53,4-3,0-5.37-1-5.37-2.12A2,2,0,0,1,537.46,387Z"/><path class="cls-145" d="M538,387.07a1.64,1.64,0,0,1,2.14,1.19c.22,1.22-1,2.25-3,3.19a2,2,0,0,1-2.49-.56l-.09-.12a2,2,0,0,1,1.1-3Z"/><path class="cls-150" d="M534.83,389.25a1.55,1.55,0,0,1,.4-.63,1.45,1.45,0,0,0-.18.35,1.21,1.21,0,0,0,.15,1.11l.07.1a1.32,1.32,0,0,0,1.07.51,1.48,1.48,0,0,0,.62-.14c1.83-.91,2.71-1.74,2.62-2.47a1.14,1.14,0,0,1,.09.26c.14.83-.74,1.71-2.71,2.68a1.51,1.51,0,0,1-1.89-.42l-.07-.1A1.35,1.35,0,0,1,534.83,389.25Z"/><path class="cls-152" d="M548.25,384.63a5.23,5.23,0,0,0-2.8-.69,11.56,11.56,0,0,0-6.13,1.54c-2.22,1.16,3.19-.62,5.13-.64S548.77,385,548.25,384.63Z"/><path class="cls-152" d="M537,388c0,.22.56.29,1.12.16s1-.44.93-.66-.56-.3-1.13-.16S536.91,387.81,537,388Z"/><path class="cls-153" d="M494.32,411.71l1.25-.16a11.37,11.37,0,0,1,5,1.27,16,16,0,0,1,4.77,3.81,2.62,2.62,0,0,1,.86,2.16l-4.92-.32a1.75,1.75,0,0,1-1-.4c-1.95-1.55-4.57-3.81-6.25-5.44A.54.54,0,0,1,494.32,411.71Z"/><path class="cls-153" d="M476.75,414.46a8.9,8.9,0,0,0,2.06.37c2.53.27,5.07.52,7.59,1a36.42,36.42,0,0,1,6.47,1.68,4.08,4.08,0,0,1,1.3.6,164.19,164.19,0,0,0-20,0,1.09,1.09,0,0,1-1.11-.69c-.57-1.51-1.24-3.41-1.68-4.8C471.28,412.16,475.91,414.17,476.75,414.46Z"/><path class="cls-153" d="M468.15,414.68a3.76,3.76,0,0,1,.3-1c.1-.21.25-.44.49-.46s.53.31.66.6c.32.76.62,1.53.89,2.31.17.5.64,1.34.39,1.88C469.69,417.8,468.62,416.23,468.15,414.68Z"/><path class="cls-154" d="M605.06,397a33.84,33.84,0,0,0-3.76-.21,6.63,6.63,0,0,0,2.09,3.22c.71.58,1.82.37,2.74.33A19.68,19.68,0,0,0,605.06,397Z"/><path class="cls-145" d="M534.61,403a22.42,22.42,0,0,0-6.51-1.69,11,11,0,0,0-6.51,1.37,12.68,12.68,0,0,0-4.66,5.66,16.7,16.7,0,0,0-1.64,6.26,10.63,10.63,0,0,0,1.59,6.2c.3.07.55,0,.85.09a28.41,28.41,0,0,1,1.28-9.63,14.68,14.68,0,0,1,5.75-7.58A11.24,11.24,0,0,1,534.61,403Z"/><path class="cls-145" d="M592.36,403a9.22,9.22,0,0,0-7.57,2.79,14.46,14.46,0,0,0-3.68,7.38,34.62,34.62,0,0,0-.42,8.33,3.18,3.18,0,0,1-1.37.14,6,6,0,0,0-1.45-2.62,28.18,28.18,0,0,1,1.58-8.07,14.16,14.16,0,0,1,4.74-6.77A9.77,9.77,0,0,1,592.36,403Z"/><path class="cls-149" d="M546.26,418.25c4.19.06,8.29,0,12.33-.26,2-.12,4-.28,6-.46a28.22,28.22,0,0,0,6-1.1,13.85,13.85,0,0,0,2.78-1.25,12.23,12.23,0,0,0,2.39-1.91,16.11,16.11,0,0,0,3.31-5.11c1.58-3.79,1.91-8,2.21-12.11-.48,4.16-1,8.31-2.61,12a15.77,15.77,0,0,1-3.32,4.91,12.21,12.21,0,0,1-5,3,29.21,29.21,0,0,1-5.84,1.08c-2,.22-4,.4-6,.56C554.47,417.9,550.41,418.13,546.26,418.25Z"/><path class="cls-149" d="M545.05,415.69a70,70,0,0,0-4.44-21.12A199.77,199.77,0,0,1,545.05,415.69Z"/><path class="cls-149" d="M577.42,419.13a8.12,8.12,0,0,1,1.56,2.6c-13.37.19-26.53-.33-39.88-1.1a22.84,22.84,0,0,0-.5-12.27c1.58,3.59,1.65,7.33,1.16,11.46C544.52,420.13,573.75,420.24,577.42,419.13Z"/><path class="cls-149" d="M607.75,411.64a8.25,8.25,0,0,1-8.46,8.81,14.54,14.54,0,0,0,.33-4.65,4.94,4.94,0,0,0,4.71-.59A14.53,14.53,0,0,0,607.75,411.64Z"/><path class="cls-149" d="M598.92,408c2.67.64,5,1.13,7.7,1.62A16.1,16.1,0,0,0,598.92,408Z"/><path class="cls-150" d="M497.57,398.9c3.5-2.6,7.42-4,11.25-5.49s7.67-3.07,11.64-4.82c-4.12,1.42-8,2.84-11.87,4.33-1.93.75-3.86,1.52-5.73,2.47A24.81,24.81,0,0,0,497.57,398.9Z"/><path class="cls-150" d="M475.09,400.85a124.67,124.67,0,0,1,22.42-12.5A68.83,68.83,0,0,0,475.09,400.85Z"/><path class="cls-150" d="M473.12,409.16a34.86,34.86,0,0,0,20.45-.37c-3.55.39-6.9.57-10.25.63S476.64,409.4,473.12,409.16Z"/><path class="cls-150" d="M466.67,406a5,5,0,0,0,5,2.31A15.84,15.84,0,0,0,466.67,406Z"/><path class="cls-150" d="M494.93,408.33a23,23,0,0,0,15.79-3.47,78.27,78.27,0,0,1-7.84,2.1C500.3,407.52,497.71,408,494.93,408.33Z"/><path class="cls-126" d="M473,408.34c.68-.92.48-3.06-.63-6.7,4.17,2.7,13.22,1.83,23.72-.23-1.86,3.07-2.43,5-1.78,6.22.26.47-.81,1.26-1.91,1.39a67.2,67.2,0,0,1-17.82.18C473.86,409.08,472.89,408.55,473,408.34Z"/><path class="cls-147" d="M471.81,408.54a25.3,25.3,0,0,1-5.44-2.64,10.12,10.12,0,0,1,3.14-6.33,16.46,16.46,0,0,1,2.53,2C473.41,406,473.61,408.69,471.81,408.54Z"/><path class="cls-147" d="M510.58,404.76A76.57,76.57,0,0,1,497,408.34c-3.57.15-3.17-2.59-.45-7a52,52,0,0,1,18.84-4.49A19.3,19.3,0,0,1,510.58,404.76Z"/><path class="cls-155" d="M509.91,397.39c2.27,1.37.23,5.35-1.86,8.25.89-.28,1.74-.57,2.53-.88a19.25,19.25,0,0,0,4.81-7.92A46.62,46.62,0,0,0,509.91,397.39Z"/><path class="cls-146" d="M504.3,405.08a9.19,9.19,0,0,0,2.2-.67,4.33,4.33,0,0,0,1.77-1.49,2.87,2.87,0,0,0,.44-2.3,2.16,2.16,0,0,0-1.58-1.61,2.15,2.15,0,0,1,1.18,1.7,2.8,2.8,0,0,1-.5,1.92A7.82,7.82,0,0,1,504.3,405.08Z"/><path class="cls-146" d="M500.79,404.94a2,2,0,0,0,1.09-1.64,1.34,1.34,0,0,0-.36-1,1.05,1.05,0,0,0-1-.33,1.13,1.13,0,0,1,.63.58,1.45,1.45,0,0,1,.15.74A4,4,0,0,1,500.79,404.94Z"/><path class="cls-146" d="M469.67,405.71a8,8,0,0,1-1-1.59,8.74,8.74,0,0,1-.67-1.75A2.75,2.75,0,0,0,469.67,405.71Z"/><path class="cls-146" d="M509.66,402.21a13.16,13.16,0,0,1-1.69,2.84c-3.19.92-6.41,1.75-9.67,2.42a3.28,3.28,0,0,1-2,0,1.18,1.18,0,0,1-.66-1.61,6.86,6.86,0,0,0,2.37-.4C501.86,404.26,505.85,403.41,509.66,402.21Z"/><path class="cls-146" d="M472.43,405.76a3.08,3.08,0,0,1,.17,1.24,1.05,1.05,0,0,1-.72.92,1.4,1.4,0,0,1-.91-.17,12.1,12.1,0,0,1-3.91-2.73c.15-.53.36-1.07.51-1.61a10.56,10.56,0,0,0,3.37,2.79,1.51,1.51,0,0,0,.75.24C472,406.44,472.37,406,472.43,405.76Z"/><path class="cls-151" d="M504.71,399.53a3.68,3.68,0,0,1,1.82-.47,2,2,0,0,1,1.05.32,1.63,1.63,0,0,1,.68,1,2.93,2.93,0,0,1-.37,1.95,5,5,0,0,1-1.13,1.44,4.79,4.79,0,0,1-3.3,1.21,5.29,5.29,0,0,0,2.71-1.78,4.67,4.67,0,0,0,.79-1.29,2.33,2.33,0,0,0,.24-1.27c-.06-.3-.28-.47-.73-.54a3.29,3.29,0,0,0-1.42.18,4.89,4.89,0,0,0-2.55,2A4.38,4.38,0,0,1,504.71,399.53Zm-7.25,3.68a7.82,7.82,0,0,1,1.53-.41,1.48,1.48,0,0,1,1.05.25.75.75,0,0,1,.23.33,1.89,1.89,0,0,1,.09.62,1.54,1.54,0,0,1-.52,1.33,1.15,1.15,0,0,0,.83-.38,2,2,0,0,0,.49-.8,2.09,2.09,0,0,0,.11-1,1.49,1.49,0,0,0-.57-1,1.89,1.89,0,0,0-2-.17A3.47,3.47,0,0,0,497.46,403.21Zm-27,2.75a4.19,4.19,0,0,1-1.25-1.53,4,4,0,0,1-.31-.86,2.77,2.77,0,0,1-.08-.83c0-.26.1-.37.23-.41a1,1,0,0,1,.67.19,3.66,3.66,0,0,1,1.32,1.45,3,3,0,0,0-.95-1.93,1.48,1.48,0,0,0-1.19-.46,1,1,0,0,0-.67.43,1.46,1.46,0,0,0-.23.65A3.35,3.35,0,0,0,470.5,406Z"/><path class="cls-156" d="M488.37,402.72a3.2,3.2,0,0,1,1.11,2.27c0,2-2.35,3.7-5.91,4.71a52.89,52.89,0,0,1-8.95-.5c-.76-.12-1.73-.65-1.58-.86.68-.92.48-3.06-.63-6.7C475.51,403.64,481.3,403.68,488.37,402.72Z"/><path class="cls-157" d="M495.26,406.41a5.18,5.18,0,0,1,1.83-3.94,13.87,13.87,0,0,1,4-1.84,58.86,58.86,0,0,1,8.69-2.32,33.52,33.52,0,0,0-8.9,1.82c-.7.25-1.4.51-2.09.82a6.85,6.85,0,0,0-1.94,1.23A5.13,5.13,0,0,0,495.26,406.41Z"/><path class="cls-157" d="M466.89,405.73a11.74,11.74,0,0,1,1.79-4.09,6.48,6.48,0,0,1,.65-.83c.22-.22.42-.22.73,0,.6.44,1.23.89,1.89,1.33-.55-.58-1.08-1.12-1.65-1.66a1.13,1.13,0,0,0-.62-.3,1,1,0,0,0-.69.25,4.6,4.6,0,0,0-.77.91A7.67,7.67,0,0,0,466.89,405.73Z"/><path class="cls-158" d="M511.68,399.8a44.72,44.72,0,0,1-2.34,4.89c.42-.06.93,0,1.21-.35a21.19,21.19,0,0,0,3.49-5.81C513.29,399,512.43,399.35,511.68,399.8Z"/><path class="cls-159" d="M513.9,397.83a8.56,8.56,0,0,0-2,.61c-.22-.21-.4-.45-.62-.66A11.27,11.27,0,0,1,513.9,397.83Z"/><path class="cls-125" d="M481.88,409.4a48.09,48.09,0,0,1-7.37-.52,3.22,3.22,0,0,1-1.25-.51c.58-1,.44-2.9-.46-6.06a16.88,16.88,0,0,0,7.53,1.34,81,81,0,0,0,14.82-1.79c-1.62,2.84-2.07,4.73-1.41,5.92,0,.19-.71.81-1.66.93a82.81,82.81,0,0,1-10.2.69Zm-8.47-5.85a32,32,0,0,0,10.17.9A73.57,73.57,0,0,0,493.69,403c-3.5.43-6.83.87-10.17,1.06A41.59,41.59,0,0,1,473.41,403.55Zm.09.78a34.13,34.13,0,0,0,10,.84,74.22,74.22,0,0,0,10-1.33c-3.45.38-6.73.76-10,.93A46.41,46.41,0,0,1,473.5,404.33Zm.1.79a37.88,37.88,0,0,0,9.84.78,74.84,74.84,0,0,0,9.81-1.21C486.47,405.35,480.28,406,473.6,405.12Zm.09.79a41.93,41.93,0,0,0,9.68.71,73.82,73.82,0,0,0,9.65-1.08C486.35,406.12,480.27,406.63,473.69,405.91Zm.09.79a57.29,57.29,0,0,0,19-.31A116.32,116.32,0,0,1,473.78,406.7Zm.09.79a63.42,63.42,0,0,0,18.71-.24A153.92,153.92,0,0,1,473.87,407.49Zm.09.79a71.72,71.72,0,0,0,18.4-.18C486,408.42,480.24,408.46,474,408.28Z"/><g class="cls-160"><path class="cls-161" d="M469.67,399.43a96.24,96.24,0,0,1,27.95-11.94,72.22,72.22,0,0,0-27.95,11.94Z"/></g><path class="cls-152" d="M468.74,418.79a30.77,30.77,0,0,1-2.39-12.61A19.46,19.46,0,0,0,468.74,418.79Z"/><path class="cls-152" d="M496,411.52c1.57-.14,3.64-.58,4.67-.64a11,11,0,0,1,4.46.44,7.93,7.93,0,0,1,3.61,2.56,26.25,26.25,0,0,1,2.57,3.92,21.7,21.7,0,0,0-2.34-4.13,7.83,7.83,0,0,0-3.74-2.75,10.34,10.34,0,0,0-4.62-.35C499,410.85,497.47,411.13,496,411.52Z"/><path class="cls-152" d="M472.39,412a65.17,65.17,0,0,0,12.71.69c1,0,2.09-.11,3.13-.21a6.9,6.9,0,0,1,3,0,3.64,3.64,0,0,1,1.17,1l1.08,1.17,2.21,2.37c-.7-.84-1.4-1.67-2.08-2.5l-1-1.22a3.69,3.69,0,0,0-1.24-1.07,3.4,3.4,0,0,0-1.63-.24c-.54,0-1.05.08-1.57.12l-3.13.18A97.76,97.76,0,0,1,472.39,412Z"/><path class="cls-152" d="M468,414.09a5.61,5.61,0,0,1,0-1.16,1.67,1.67,0,0,1,.43-.95,1,1,0,0,1,1.6.27,5.54,5.54,0,0,1,.34,1c.11.36.21.72.32,1.08.23.73.47,1.45.74,2.19-.14-.77-.29-1.53-.45-2.27-.08-.38-.16-.74-.24-1.11a5.19,5.19,0,0,0-.36-1.12,1.29,1.29,0,0,0-1-.71,1.28,1.28,0,0,0-1.16.46,1.77,1.77,0,0,0-.37,1.14A4.52,4.52,0,0,0,468,414.09Z"/><path class="cls-150" d="M470.67,419.29c13,.69,24.81.92,37.85.77A232.62,232.62,0,0,0,470.67,419.29Z"/><path class="cls-162" d="M504.34,385.55a46.64,46.64,0,0,1,7.55-6.26,17,17,0,0,1,4.34-1.92,30.51,30.51,0,0,1,4.68-.8,80.73,80.73,0,0,1,19.39.13,66.14,66.14,0,0,0-19.51-.66,27.91,27.91,0,0,0-4.77.85,17.22,17.22,0,0,0-4.4,2.08A41.52,41.52,0,0,0,504.34,385.55Z"/><path class="cls-145" d="M540.55,390.89c7.64,1.22,15,2.16,22.32,2.66a103,103,0,0,0,11.13.21c.46,0,.93-.06,1.4-.1s.94-.06,1.41-.15.94-.13,1.41-.23.93-.23,1.38-.41a4.79,4.79,0,0,0,2.3-1.74,3.16,3.16,0,0,0,.36-2.78,3.1,3.1,0,0,1-.52,2.68,4.64,4.64,0,0,1-2.28,1.51c-.44.15-.91.21-1.35.32s-.93.11-1.39.16-.93.06-1.4.09-.92.05-1.39,0c-3.72,0-7.41-.18-11.08-.42C555.5,392.23,548.18,391.56,540.55,390.89Z"/><path class="cls-163" d="M600.32,422.08a11.09,11.09,0,0,0,3.85-1.05,6.81,6.81,0,0,0,2.72-2.6,15.14,15.14,0,0,0,1.44-3.6c.18-.63.35-1.27.5-1.93.07-.33.14-.66.19-1a2.34,2.34,0,0,0,0-1,2.42,2.42,0,0,1,.12,1c0,.35,0,.69-.09,1a19.42,19.42,0,0,1-.34,2,12.28,12.28,0,0,1-1.38,3.78,6.5,6.5,0,0,1-3,2.68A9.58,9.58,0,0,1,600.32,422.08Z"/><path class="cls-163" d="M608.17,410a18.35,18.35,0,0,0-.41-3.87c-.23-1.25-.51-2.49-.79-3.72s-.61-2.44-1-3.67a21.53,21.53,0,0,0-1.36-3.65,16.68,16.68,0,0,1,1.65,3.57,35.23,35.23,0,0,1,1.08,3.69c.29,1.24.53,2.49.7,3.76A14.87,14.87,0,0,1,608.17,410Z"/><path class="cls-163" d="M604.64,395.07a51,51,0,0,0-10.87-4.33c-3.71-1-7.52-1.62-11.49-2.4a86.44,86.44,0,0,1,11.64,2A39.54,39.54,0,0,1,604.64,395.07Z"/></g></g></g></svg>