<svg width="1440" height="1152" viewBox="0 0 1440 1152" fill="none" xmlns="http://www.w3.org/2000/svg">
<path d="M1440 0H0V1152H1440V0Z" fill="#D7EDF6"/>
<path d="M769.728 0H518.848L716.864 551.936L769.728 0Z" fill="#BFE6FF"/>
<path d="M733.312 597.658L927.168 1152H1237.63L733.312 597.658Z" fill="#BFE6FF"/>
<path d="M747.712 585.626L1440 966.4V722.074L747.712 585.626Z" fill="#BFE6FF"/>
<path d="M749.056 569.344L1440 516.506V298.138L749.056 569.344Z" fill="#BFE6FF"/>
<path d="M736.704 555.878L1417.6 0H1046.02L736.704 555.878Z" fill="#BFE6FF"/>
<path d="M399.744 1152H664.576L712.512 599.45L399.744 1152Z" fill="#BFE6FF"/>
<path d="M0 431.155V634.061L689.792 574.259L0 431.155Z" fill="#BFE6FF"/>
<path d="M198.08 0H0V184.32L698.368 559.206L198.08 0Z" fill="#BFE6FF"/>
<path d="M0 855.654V1152H18.56L695.424 589.978L0 855.654Z" fill="#BFE6FF"/>
<path d="M566.976 1152H720V576L566.976 1152Z" fill="#B7E1FF"/>
<path d="M0 636.518V763.136L720 576L0 636.518Z" fill="#B7E1FF"/>
<path d="M720 576L1243.14 1152H1440V1094.66L720 576Z" fill="#B7E1FF"/>
<path d="M720 576L873.024 1152H1040.58L720 576Z" fill="#B7E1FF"/>
<path d="M720 576L0 908.544V1094.6L720 576Z" fill="#B7E1FF"/>
<path d="M720 576L196.864 1152H399.424L720 576Z" fill="#B7E1FF"/>
<path d="M720 576L1440 388.864V243.456L720 576Z" fill="#B7E1FF"/>
<path d="M720 576L1440 57.344V0H1243.14L720 576Z" fill="#B7E1FF"/>
<path d="M720 576L1040.58 0H873.024L720 576Z" fill="#B7E1FF"/>
<path d="M720 576L1440 908.544V763.136L720 576Z" fill="#B7E1FF"/>
<path d="M1440 636.518V515.482L720 576L1440 636.518Z" fill="#B7E1FF"/>
<path d="M720 576L0 57.3952V243.456L720 576Z" fill="#B7E1FF"/>
<path d="M0 388.864V515.482L720 576L0 388.864Z" fill="#B7E1FF"/>
<path d="M720 0H566.976L720 576V0Z" fill="#B7E1FF"/>
<path d="M720 576L399.424 0H196.864L720 576Z" fill="#B7E1FF"/>
</svg>
