<svg width="24" height="26" viewBox="0 0 24 26" fill="none" xmlns="http://www.w3.org/2000/svg">
<path d="M20.9926 4.54797L14.9576 1.00819C14.1309 0.522353 13.1887 0.266113 12.2289 0.266113C11.2692 0.266113 10.3269 0.522353 9.50019 1.00819L3.46673 4.54797C2.663 5.0225 1.99663 5.69685 1.53284 6.50505C1.06904 7.31324 0.823716 8.22759 0.820852 9.15862V11.8358C0.764143 12.4964 0.764143 13.1607 0.820852 13.8213V16.3721C0.824017 17.3032 1.06964 18.2176 1.53368 19.0258C1.99773 19.834 2.66431 20.5083 3.46823 20.9827L9.50019 24.5255C10.3272 25.0104 11.2693 25.2661 12.2289 25.2661C13.1885 25.2661 14.1306 25.0104 14.9576 24.5255L20.9896 20.9827C21.7933 20.5082 22.4597 19.8338 22.9235 19.0256C23.3873 18.2174 23.6326 17.3031 23.6355 16.3721V9.16309C23.6329 8.232 23.3877 7.31753 22.9239 6.50929C22.46 5.70104 21.7935 5.02675 20.9896 4.55244M22.4819 16.3825C22.4801 17.1145 22.2876 17.8336 21.9232 18.4692C21.5588 19.1049 21.035 19.6353 20.4031 20.0085L14.3756 23.5468C13.7258 23.9285 12.9854 24.1298 12.2311 24.1298C11.4769 24.1298 10.7364 23.9285 10.0867 23.5468L4.05471 20.0041C3.42233 19.6312 2.89807 19.1009 2.53337 18.4652C2.16867 17.8296 1.97605 17.1103 1.97441 16.378V13.7767C1.9177 13.1498 1.9177 12.5192 1.97441 11.8923V9.16309C1.97608 8.43062 2.16871 7.71116 2.5334 7.07523C2.89808 6.4393 3.42232 5.90874 4.05471 5.53555L10.0867 1.99278C10.7366 1.61154 11.477 1.41051 12.2311 1.41051C12.9853 1.41051 13.7257 1.61154 14.3756 1.99278L20.4091 5.53555C21.0411 5.90903 21.5649 6.43971 21.9293 7.0756C22.2937 7.71149 22.4862 8.4308 22.4879 9.16309L22.4819 16.3825Z" fill="#006AAB"/>
<path d="M21.2327 16.8181C21.016 17.3794 20.751 17.921 20.4407 18.4369C20.8637 17.9901 21.14 17.4254 21.2327 16.8181Z" fill="#006AAB"/>
<path d="M21.063 8.08034C20.8814 8.02056 20.6888 8.00184 20.499 8.02551C20.3093 8.04917 20.1273 8.11464 19.9661 8.21717L14.2535 11.9131C13.7532 12.2271 13.341 12.6622 13.0552 13.178C12.7695 13.6938 12.6195 14.2733 12.6194 14.8625L12.6865 21.4721C12.693 21.7337 12.7885 21.9853 12.9575 22.1856C13.1265 22.3859 13.3588 22.5229 13.6163 22.5741C13.6625 22.5489 13.7118 22.5295 13.7655 22.5013L19.7975 18.96C20.0384 18.8169 20.258 18.6406 20.4496 18.4365C20.7595 17.9213 21.0241 17.3804 21.2405 16.8198C21.2641 16.6722 21.276 16.523 21.2764 16.3736V9.1631C21.275 8.79249 21.2047 8.42535 21.0689 8.08034M18.6902 11.1635C19.0647 11.1635 19.3692 11.6945 19.3692 12.3534C19.3692 13.0123 19.0707 13.5432 18.6902 13.5432C18.3096 13.5432 18.0097 13.0123 18.0097 12.3534C18.0097 11.6945 18.3081 11.1635 18.6902 11.1635ZM18.6902 15.3652C19.0647 15.3652 19.3692 15.8961 19.3692 16.555C19.3692 17.2139 19.0707 17.7449 18.6902 17.7449C18.3096 17.7449 18.0097 17.2154 18.0097 16.555C18.0097 15.8947 18.3081 15.3652 18.6902 15.3652ZM15.6787 13.1654C16.0547 13.1654 16.3577 13.6949 16.3577 14.3553C16.3577 15.0156 16.0592 15.5451 15.6787 15.5451C15.2981 15.5451 14.9996 15.0142 14.9996 14.3553C14.9996 13.6964 15.2981 13.1654 15.6787 13.1654ZM15.6787 17.3656C16.0547 17.3656 16.3577 17.8966 16.3577 18.5554C16.3577 19.2143 16.0592 19.7453 15.6787 19.7453C15.2981 19.7453 14.9996 19.2143 14.9996 18.5554C14.9996 17.8966 15.2981 17.3656 15.6787 17.3656Z" fill="#006AAB"/>
<path d="M19.8856 6.65097C19.8528 6.62866 19.8214 6.60337 19.7871 6.58255L13.7671 3.03978C13.3048 2.76808 12.7779 2.62479 12.2412 2.62479C11.7045 2.62479 11.1776 2.76808 10.7153 3.03978L4.68331 6.58255C4.51628 6.68149 4.35978 6.79711 4.21621 6.92761C4.1924 7.14131 4.23082 7.35733 4.32688 7.54986C4.42294 7.74239 4.57258 7.90329 4.75793 8.01334L4.77583 8.02673L10.1392 11.211C10.7662 11.5787 11.4816 11.7695 12.209 11.7629C12.9364 11.7564 13.6483 11.5528 14.2685 11.1739L19.414 7.98657C19.4723 7.9475 19.5277 7.90426 19.5797 7.85717C19.7487 7.71165 19.8693 7.51836 19.9255 7.30294C19.9818 7.08751 19.971 6.86013 19.8945 6.65097M12.509 7.84974C11.651 7.84974 10.957 7.45411 10.957 6.96628C10.957 6.47844 11.651 6.08282 12.509 6.08282C13.3671 6.08282 14.0611 6.47844 14.0611 6.96628C14.0611 7.45411 13.3656 7.84974 12.509 7.84974Z" fill="#006AAB"/>
</svg>
