<svg width="201" height="45" viewBox="0 0 201 45" fill="none" xmlns="http://www.w3.org/2000/svg">
<path d="M66 36H71.6V25.08H72.64C73 25.92 73.32 26.52 73.72 27.12L79.68 36H86.28L78.44 24.56C82.68 23.64 85.16 20.9201 85.16 16.48C85.16 11.0001 81.32 7.92005 75.04 7.96005L66 8.00005V36ZM71.6 20.04V13.0401H74.72C77.76 13.0401 79.48 14.28 79.48 16.52C79.48 18.8 77.76 20.04 74.72 20.04H71.6Z" fill="#121212"/>
<path d="M87.6313 36H93.0312V24.6C93.0312 21 95.0712 19.44 97.3512 19.44C100.031 19.44 101.831 21 101.831 24.6V36H107.231V23.28C107.231 18.04 103.791 14.72 99.3112 14.72C96.1912 14.72 94.1512 15.84 93.0312 18.08V6.80005H87.6313V36Z" fill="#121212"/>
<path d="M111.353 44.3601C116.233 44.3601 118.833 41.52 120.593 37.32L129.793 15.2H123.393L119.353 27.08C118.993 28.08 118.673 29.3201 118.473 30.4001C118.273 29.3201 117.953 28.08 117.593 27.08L113.553 15.2H107.033L115.273 35.0401L114.993 35.92C114.393 37.76 113.073 39.0801 110.993 39.0801C110.113 39.0801 109.353 39 108.553 38.8L107.753 43.96C108.833 44.28 110.273 44.3601 111.353 44.3601Z" fill="#121212"/>
<path d="M139.261 36H142.221V31.2001H139.981C138.941 31.2001 138.301 30.6 138.301 29.28V19.8H142.701V15.2H138.301V10.44L132.901 11V15.2H129.981V19.8H132.901V29.56C132.901 34.08 135.141 36 139.261 36Z" fill="#121212"/>
<path d="M144.506 36H149.906V24.6C149.906 21 151.946 19.44 154.226 19.44C156.906 19.44 158.706 21 158.706 24.6V36H164.106V23.28C164.106 18.04 160.666 14.72 156.186 14.72C153.066 14.72 151.026 15.84 149.906 18.08V6.80005H144.506V36Z" fill="#121212"/>
<path d="M167.123 36H172.523V24.6C172.523 21 174.563 19.44 176.843 19.44C179.523 19.44 181.323 21 181.323 24.6V36H186.723V24.6C186.723 20.6 188.443 19.44 190.963 19.44C193.403 19.44 195.123 21 195.123 24.6V36H200.523V23.28C200.523 18.04 197.083 14.72 192.603 14.72C188.963 14.72 186.963 16.12 185.563 18.64C184.203 16.12 181.723 14.72 178.803 14.72C175.603 14.72 173.523 15.92 172.443 18.24V15.2H167.123V36Z" fill="#121212"/>
<path fill-rule="evenodd" clip-rule="evenodd" d="M20.2139 21.0374C19.6652 31.5241 10.8456 39.878 0 40V0C10.8456 0.122093 19.6652 8.47586 20.2139 18.9626C20.7553 8.6141 29.3512 0.342718 40 0.00914923V39.991C29.3512 39.6574 20.7553 31.386 20.2139 21.0374Z" fill="#FF6428"/>
</svg>
