<svg width="32" height="32" viewBox="0 0 32 32" fill="none" xmlns="http://www.w3.org/2000/svg">
<path d="M18.0825 28.1905C23.9477 27.3032 28.4444 22.2139 28.4444 16.0685C28.4444 9.29808 22.9865 3.80957 16.254 3.80957C9.52134 3.80957 4.06348 9.29808 4.06348 16.0685C4.06348 22.2139 8.56023 27.3032 14.4254 28.1905L14.4254 19.7462H12.5968C11.5869 19.7462 10.7682 18.9229 10.7682 17.9074C10.7682 16.8918 11.5869 16.0685 12.5968 16.0685H14.4254V13.6167C14.4254 11.2471 16.3356 9.32609 18.692 9.32609H19.3016C20.3114 9.32609 21.1301 10.1494 21.1301 11.1649C21.1301 12.1805 20.3114 13.0038 19.3016 13.0038H18.692C18.3555 13.0038 18.0825 13.2782 18.0825 13.6167V16.0685H19.9111C20.921 16.0685 21.7397 16.8918 21.7397 17.9074C21.7397 18.9229 20.921 19.7462 19.9111 19.7462H18.0825V28.1905Z" fill="white"/>
</svg>
