<svg width="32" height="32" viewBox="0 0 32 32" fill="none" xmlns="http://www.w3.org/2000/svg">
<path d="M21.6085 4C25.3488 4 28.381 7.03215 28.381 10.7725V21.6085C28.381 25.3488 25.3488 28.381 21.6085 28.381H10.7725C7.03215 28.381 4 25.3488 4 21.6085L4 10.7725C4 7.03215 7.03215 4 10.7725 4L21.6085 4ZM16.1905 10.7725C13.1982 10.7725 10.7725 13.1982 10.7725 16.1905C10.7725 19.1827 13.1982 21.6085 16.1905 21.6085C19.1827 21.6085 21.6085 19.1827 21.6085 16.1905C21.6085 13.1982 19.1827 10.7725 16.1905 10.7725ZM16.1905 13.4815C17.6867 13.4815 18.8995 14.6943 18.8995 16.1905C18.8995 17.6867 17.6867 18.8995 16.1905 18.8995C14.6943 18.8995 13.4815 17.6867 13.4815 16.1905C13.4815 14.6943 14.6943 13.4815 16.1905 13.4815ZM22.2857 8.74074C21.5376 8.74074 20.9312 9.34718 20.9312 10.0952C20.9312 10.8433 21.5376 11.4497 22.2857 11.4497C23.0338 11.4497 23.6402 10.8433 23.6402 10.0952C23.6402 9.34718 23.0338 8.74074 22.2857 8.74074Z" fill="white"/>
</svg>
