<svg width="32" height="32" viewBox="0 0 32 32" fill="none" xmlns="http://www.w3.org/2000/svg">
<circle cx="16.19" cy="16.19" r="12.19" fill="white"/>
<path d="M12.6099 13.8003H10.1953V21.5004H12.6099V13.8003Z" fill="black"/>
<path d="M19.1405 13.6334C19.0514 13.6223 18.9569 13.6167 18.8623 13.6112C17.5103 13.5555 16.7481 14.3567 16.481 14.7016C16.4087 14.7962 16.3753 14.8519 16.3753 14.8519V13.8226H14.0664V21.5227H16.3753H16.481C16.481 20.7382 16.481 19.9593 16.481 19.1748C16.481 18.752 16.481 18.3291 16.481 17.9063C16.481 17.3833 16.4421 16.8269 16.7036 16.3485C16.9261 15.9479 17.3267 15.7476 17.7774 15.7476C19.1126 15.7476 19.1405 16.9549 19.1405 17.0662C19.1405 17.0717 19.1405 17.0773 19.1405 17.0773V21.5561H21.5551V16.5321C21.5551 14.8129 20.6816 13.8003 19.1405 13.6334Z" fill="black"/>
<path d="M11.402 12.8041C12.1764 12.8041 12.8041 12.1764 12.8041 11.402C12.8041 10.6277 12.1764 10 11.402 10C10.6277 10 10 10.6277 10 11.402C10 12.1764 10.6277 12.8041 11.402 12.8041Z" fill="black"/>
</svg>
