<svg width="32" height="32" viewBox="0 0 32 32" fill="none" xmlns="http://www.w3.org/2000/svg">
<path fill-rule="evenodd" clip-rule="evenodd" d="M15.9993 2.6665C8.63555 2.6665 2.66602 8.63604 2.66602 15.9998C2.66602 18.5193 3.36608 20.879 4.58276 22.8909L3.39376 26.9334C3.09299 27.9561 4.04314 28.9062 5.06568 28.6054L9.10829 27.4164C11.1201 28.6332 13.4799 29.3332 15.9993 29.3332C23.3631 29.3332 29.3327 23.3636 29.3327 15.9998C29.3327 8.63604 23.3631 2.6665 15.9993 2.6665ZM12.9836 19.0168C15.6803 21.7134 18.2553 22.0689 19.1645 22.1024C20.5475 22.1533 21.894 21.0972 22.4189 19.8721C22.5476 19.5721 22.5155 19.2112 22.3 18.935C21.5703 18.0005 20.5824 17.3309 19.6172 16.6644C19.2001 16.3758 18.6267 16.4652 18.3195 16.8738L17.5185 18.094C17.4296 18.2293 17.2529 18.2758 17.1124 18.1954C16.5704 17.8856 15.7801 17.3572 15.2116 16.7886C14.6437 16.2208 14.1475 15.4662 13.8689 14.9592C13.7957 14.8258 13.8363 14.6612 13.9583 14.5705L15.1896 13.6561C15.5568 13.3382 15.6213 12.7983 15.3511 12.4029C14.7527 11.5274 14.0556 10.4148 13.0467 9.67885C12.7711 9.47784 12.4225 9.45528 12.1347 9.57861C10.9083 10.1042 9.847 11.4504 9.89799 12.8358C9.93146 13.745 10.287 16.3201 12.9836 19.0168Z" fill="white"/>
</svg>
