<svg width="139" height="261" viewBox="0 0 139 261" fill="none" xmlns="http://www.w3.org/2000/svg">
<path opacity="0.1" d="M-128.504 251.468C-141.165 238.758 -141.165 218.181 -128.504 205.471L66.684 9.53217C79.3449 -3.17739 99.8435 -3.17739 112.504 9.53217C125.165 22.2417 125.165 42.8191 112.504 55.5287L-82.8348 251.468C-95.3449 264.177 -115.843 264.177 -128.504 251.468Z" fill="url(#paint0_linear_227_2)"/>
<path opacity="0.8" d="M-56.3878 226.502C-59.8707 223.02 -59.8707 217.418 -56.3878 214.087L123.97 33.6117C127.453 30.1294 133.056 30.1294 136.388 33.6117C139.871 37.0941 139.871 42.696 136.388 46.027L-43.9702 226.502C-47.3017 229.833 -52.9048 229.833 -56.3878 226.502Z" fill="url(#paint1_linear_227_2)"/>
<defs>
<linearGradient id="paint0_linear_227_2" x1="-128.522" y1="251.457" x2="113.368" y2="10.4936" gradientUnits="userSpaceOnUse">
<stop stop-color="#5E5749"/>
<stop offset="1" stop-color="#9F9B89"/>
</linearGradient>
<linearGradient id="paint1_linear_227_2" x1="-58.9818" y1="130.03" x2="139.091" y2="130.03" gradientUnits="userSpaceOnUse">
<stop stop-color="#888071"/>
<stop offset="1" stop-color="#C9C6B9"/>
</linearGradient>
</defs>
</svg>
