<svg width="732" height="488" fill="none" xmlns="http://www.w3.org/2000/svg"><g clip-path="url(#clip0_4375_41927)"><path d="M397.495 268.877c-38.224 90.076-140.055 140.536-228.364 126.919-14.374-2.217-53.763-8.813-88.635-39.942-67.144-59.913-81.504-178.56-27.343-262.168C92.57 32.833 163.237-1.665 230.381.055c14.46.37 69.885 2.658 118.606 42.856 7.159 5.899 22.94 19.928 37.158 42.188 33.395 52.266 36.264 125.086 11.35 183.777z" fill="#E5F0C9"/><path d="M225.192 350.988c100.541-4.417 178.73-83.558 174.641-176.766-4.089-93.208-88.908-165.187-189.449-160.77C109.843 17.87 31.654 97.01 35.743 190.218c4.089 93.207 88.908 165.187 189.449 160.77z" fill="#BCCD90"/><path d="M355.265 70.29c4.006 6.424 7.088 13.66 6.505 21.207-.667 8.742-5.085 16.929-5.312 25.685-.383 14.869 11.079 27.306 14.659 41.734 3.991 16.133-11.079 34.498-17.074 43.51-5.994 9.011-3.423-7.307-7.059-13.66-3.637-6.354-11.492 26.751-23.764 34.029-6.577 3.894-14.304 6.496-19.034 12.508-6.903 8.77-4.986 21.236-3.949 32.352 1.037 11.115-.511 24.662-10.511 29.594-5.895 2.914-13.38 1.919-18.693 5.785-9.332 6.78-4.872 21.563-8.579 32.494-4.02 11.883-12.003 12.04-24.332 14.57-12.344 2.516 1.548-24.605-4.219-34.086-3.04-4.989-7.67-8.941-10.071-14.271-3.324-7.377-2.386-17.242-8.835-22.132-4.829-3.667-11.562-2.672-17.613-2.729-6.051-.057-13.438-2.687-14.119-8.713-.611-5.345 4.744-9.609 9.971-10.86 5.241-1.237 10.809-.654 15.951-2.232 14.702-4.534 21.563-25.131 36.932-26.097 13.125-.825 24.119 13.916 37.03 11.343 7.188-1.436 12.117-7.804 17.458-12.836 6.86-6.467 15.369-11.314 20.809-19.004 5.44-7.69 6.378-19.985-1.378-25.358-5.753-3.98-13.934-2.374-19.616 1.719-5.682 4.08-9.56 10.15-13.736 15.764-1.292 1.734-2.741 3.539-4.815 4.179-5.554 1.734-9.602-6.069-8.267-11.741 1.335-5.671 5.327-10.646 5.511-16.46.327-10.249-10.695-16.759-20.383-20.142-9.673-3.383-21.079-7.405-23.934-17.256-1.009-3.482-.739-7.306-2.273-10.589-5.085-10.874-31.903-16.304-25.497-22.615 6.407-6.311 26.761-7.676 30.724-20.384 1.421-4.548 2.884-10.56 7.614-11.001 7.727-.711 12.13 8.84 18.608 10.49 3.068.781 3.366 5.998 3.252 12.437-.085 4.662 3.623 8.514 8.282 8.6a8.442 8.442 0 008.593-8.287 13.174 13.174 0 00-.98-5.231c-1.25-3.056-3.608-5.5-6.008-7.79-9.958-9.523-39.687-19.97-33.466-24.022 6.222-4.05 36.093-15.237 40.554-9.054 4.46 6.183-2.912.952-4.716 8.258-1.804 7.32 22.102 6.34 33.153 9.51 1.818.526 3.849 1.037 5.554.199 1.903-.924 2.713-3.156 3.75-5.004 5.553-9.921 24.005-3.482 24.005-3.482s5.738 3.326 9.318 9.069zm-83.479-45.017c2.685 5.003-5.298 4.918-6.094 10.547-7.187.782-10.127-10.547-17.23-11.87-4.005-.752-7.897 2.133-10.07 5.573-2.174 3.454-3.196 7.505-5.043 11.13-4.133 8.145-12.684 13.887-21.789 14.626-1.975.157-4.162.029-5.654-1.28-4.332-3.823 1.861-10.987.256-16.53-1.832-6.34-10.966-5.373-17.145-7.704-1.704-.64-14.786-4.137-15-5.942-.369-3.198 5.696-5.245 12.5-6.993 11.506-2.957 31.761-2.843 41.662-1.948 13.167 1.208 35.113.256 43.607 10.39zM52.158 240.506a166.327 166.327 0 01.725-56.516c.923-4.961 3.096-10.889 8.082-11.599 5.781-.825 12.855 5.813 16.477 1.236 1.591-2.018.966-4.975.057-7.391a49.006 49.006 0 00-10.88-17.071c-2.955-3.014-6.35-5.686-8.623-9.24-4.872-7.604-1.448-18.72 5.44-24.548 6.904-5.828 15.796 4.62 23.054.469 7.259-4.15 7.486-14.214 8.85-22.458 1.008-6.112 5.511-22.658 10.483-14.598 4.971 8.06-6.634 40.155-19.688 55.535-1.576 1.862-3.31 3.937-3.181 6.368.312 5.799 8.764 5.543 14.46 6.737 7.031 1.465 17.826-2.302 11.874 9.979-3.139 6.467-18.139 15.337-14.105 19.658 4.034 4.321 16.421 16.873 22.23 27.022 5.81 10.149 8.636 22.785 4.247 33.631-4.389 10.845-17.57 18.322-28.323 13.759-5.043-2.132-10.526-6.581-15.213-3.752-4.233 2.558-3.608 8.727-3.409 13.674.213 4.946-2.642 11.527-7.457 10.362-1.591-.384-2.827-1.592-3.906-2.815-6.776-7.789-9.56-18.251-11.194-28.442z" fill="#81A332"/><path opacity=".24" d="M227.653 305.209c78.974 0 142.995-60.521 142.995-135.178S306.627 34.853 227.653 34.853 84.658 95.374 84.658 170.031s64.021 135.178 142.995 135.178z" fill="#fff"/><g opacity=".68" fill="#fff"><path opacity=".68" d="M168.748 185.127c0 14.854.525 29.707 1.662 44.519 1.122 14.811 2.812 29.58 5.355 44.206a323.3 323.3 0 004.517 21.791c1.775 7.206 3.835 14.342 6.363 21.307 2.543 6.951 5.512 13.788 9.517 19.985 2.017 3.07 4.304 5.999 7.074 8.387 1.378 1.179 2.898 2.217 4.531 2.97 1.634.754 3.395 1.223 5.185 1.265 1.79.057 3.579-.312 5.241-.995 1.676-.682 3.21-1.663 4.631-2.8 2.826-2.302 5.17-5.188 7.216-8.244 2.045-3.056 3.806-6.325 5.397-9.666a124.726 124.726 0 004.276-10.248c2.557-6.951 4.645-14.087 6.434-21.279 1.79-7.192 3.296-14.47 4.574-21.791 2.557-14.626 4.276-29.395 5.398-44.206 1.108-14.811 1.619-29.665 1.591-44.519.028-14.854-.327-29.708-1.279-44.533-.951-14.826-2.443-29.623-4.73-44.292-1.15-7.335-2.5-14.64-4.147-21.876-1.648-7.235-3.566-14.413-5.966-21.435-1.208-3.511-2.529-6.965-4.034-10.348-1.506-3.383-3.196-6.68-5.185-9.794-1.989-3.098-4.275-6.055-7.116-8.4-1.421-1.166-2.969-2.175-4.659-2.858-1.691-.696-3.509-1.051-5.327-.994-1.818.042-3.608.54-5.284 1.279-1.662.753-3.196 1.777-4.616 2.956-2.827 2.346-5.199 5.231-7.287 8.273-2.088 3.056-3.906 6.283-5.54 9.609-1.648 3.312-3.111 6.723-4.46 10.177-2.685 6.908-4.886 14.016-6.804 21.18-1.903 7.178-3.508 14.427-4.886 21.72-2.756 14.597-4.617 29.352-5.838 44.149-1.264 14.797-1.833 29.651-1.804 44.505zm-1.818 0c.085-29.794 2.4-59.644 8.139-88.91 1.449-7.307 3.125-14.585 5.099-21.763 1.989-7.178 4.261-14.3 7.031-21.222 1.392-3.468 2.898-6.88 4.574-10.206 1.69-3.326 3.551-6.58 5.682-9.651 2.145-3.056 4.559-5.97 7.486-8.344 1.463-1.18 3.053-2.232 4.786-2.985 1.733-.767 3.594-1.237 5.497-1.293a13.575 13.575 0 015.569.995c1.761.696 3.38 1.72 4.843 2.913 2.926 2.388 5.284 5.373 7.33 8.486 2.045 3.142 3.778 6.454 5.326 9.85 1.549 3.398 2.912 6.88 4.162 10.392 2.486 7.036 4.475 14.228 6.193 21.477 1.719 7.25 3.139 14.57 4.361 21.919 2.429 14.697 4.062 29.523 5.142 44.391.54 7.434.937 14.868 1.222 22.316.255 7.449.454 14.897.411 22.345-.071 14.897-.667 29.808-1.874 44.662-1.222 14.854-3.026 29.665-5.696 44.334-1.336 7.335-2.884 14.626-4.73 21.862-1.847 7.22-3.992 14.384-6.62 21.378-1.321 3.497-2.755 6.951-4.375 10.319-1.633 3.369-3.423 6.667-5.539 9.766-2.117 3.098-4.517 6.055-7.486 8.429-1.477 1.179-3.111 2.217-4.901 2.928-1.775.711-3.707 1.094-5.639 1.037-1.931-.042-3.835-.54-5.582-1.321-1.747-.796-3.338-1.877-4.787-3.099-2.898-2.459-5.255-5.444-7.329-8.557-2.06-3.142-3.85-6.439-5.441-9.822-1.605-3.383-3.025-6.837-4.318-10.334-2.599-7.008-4.715-14.172-6.548-21.393-1.832-7.235-3.366-14.527-4.687-21.861-5.227-29.409-7.259-59.259-7.301-89.038z"/><path opacity=".68" d="M93.92 185.127c.042 18.99 2.428 37.994 7.457 56.317 5.057 18.293 12.67 35.948 23.125 51.811 5.227 7.931 11.15 15.394 17.798 22.174 6.647 6.78 13.977 12.907 21.988 17.995 8.025 5.06 16.69 9.112 25.767 11.883a97.567 97.567 0 0028.025 4.265c9.488-.043 18.963-1.507 28.025-4.279 9.076-2.772 17.727-6.823 25.752-11.897 8.012-5.089 15.341-11.229 21.96-17.995 6.634-6.795 12.557-14.257 17.77-22.189 10.44-15.863 18.039-33.503 23.068-51.797 2.5-9.154 4.332-18.493 5.568-27.888a223.173 223.173 0 001.875-28.386c-.029-9.495-.625-18.976-1.861-28.386-1.222-9.41-3.04-18.749-5.54-27.903-5.028-18.294-12.613-35.948-23.039-51.825-5.213-7.932-11.136-15.408-17.756-22.203-6.633-6.78-13.962-12.92-21.974-18.023-8.025-5.075-16.69-9.169-25.766-11.926-9.077-2.772-18.565-4.236-28.068-4.265a97.279 97.279 0 00-28.068 4.25c-9.091 2.758-17.755 6.838-25.781 11.912-8.025 5.103-15.355 11.23-22.002 18.024-6.648 6.752-12.585 14.228-17.798 22.16-10.455 15.877-18.054 33.546-23.097 51.839-5.014 18.323-7.386 37.341-7.428 56.332zm-2.088 0c.113-19.176 2.57-38.351 7.713-56.829 5.212-18.45 13.082-36.19 23.749-52.11 5.341-7.96 11.378-15.437 18.139-22.23 6.747-6.795 14.219-12.893 22.315-17.982 8.111-5.075 16.875-9.125 26.051-11.897a98.889 98.889 0 0128.295-4.25c9.574.014 19.133 1.464 28.295 4.221 9.162 2.758 17.94 6.809 26.065 11.883 8.111 5.09 15.582 11.187 22.343 17.981 6.762 6.795 12.813 14.272 18.168 22.232 10.696 15.92 18.565 33.673 23.806 52.123a204.73 204.73 0 015.767 28.173 225.374 225.374 0 011.946 28.699c-.085 19.175-2.528 38.378-7.684 56.871-5.228 18.45-13.083 36.204-23.778 52.152-5.341 7.96-11.392 15.451-18.154 22.246-6.761 6.794-14.232 12.892-22.357 17.995-8.125 5.089-16.903 9.154-26.079 11.912a98.182 98.182 0 01-28.338 4.207c-9.588-.014-19.162-1.464-28.338-4.236-9.176-2.772-17.94-6.837-26.065-11.926-8.11-5.117-15.582-11.215-22.329-18.009-6.761-6.795-12.798-14.3-18.125-22.26-10.667-15.934-18.508-33.688-23.72-52.138-5.129-18.493-7.586-37.668-7.685-56.828z"/><path opacity=".68" d="M365.663 119.94l-37.983.256-37.982.142-75.965.114-75.965-.128-37.982-.157-37.983-.27c-.056 0-.085-.042-.085-.099s.043-.085.085-.085l37.983-.271 37.982-.156 75.965-.128 75.965.114 37.982.142 37.983.256c.071 0 .142.057.142.142 0 .057-.071.128-.142.128zm-44.062-63.666l-26.96.256-26.96.142c-8.991.057-17.982.057-26.96.071l-26.959.043-53.934-.128-26.96-.157c-8.992-.1-17.983-.142-26.96-.27-.057 0-.085-.042-.085-.1 0-.056.042-.084.085-.084 8.991-.128 17.983-.185 26.96-.27l26.96-.157 53.934-.128 26.959.043c8.992.014 17.983.014 26.96.07l26.96.143 26.96.256c.071 0 .142.057.142.142 0 .071-.071.128-.142.128zm57.257 127.317l-41.277.256-41.278.142-82.556.114-82.555-.128-41.278-.156-41.278-.27c-.057 0-.085-.043-.085-.1 0-.057.042-.085.085-.085l41.278-.27 41.278-.157 82.555-.127 82.556.113 41.278.142 41.277.256c.072 0 .143.057.143.142 0 .071-.057.128-.143.128zm-13.195 63.666l-37.983.256-37.982.142-75.965.114-75.965-.128-37.982-.157-37.983-.27c-.056 0-.085-.042-.085-.099s.043-.086.085-.086l37.983-.27 37.982-.156 75.965-.128 75.965.114 37.982.142 37.983.256c.071 0 .142.057.142.142 0 .057-.071.128-.142.128zm-49.488 63.993H100.454a.48.48 0 01-.483-.484.48.48 0 01.483-.483h215.721c.27 0 .483.213.483.483a.488.488 0 01-.483.484z"/></g><path d="M246.944 115.946c10.951 0 19.829-8.884 19.829-19.843 0-10.96-8.878-19.843-19.829-19.843-10.952 0-19.83 8.884-19.83 19.843s8.878 19.843 19.83 19.843z" fill="url(#paint0_linear_4375_41927)"/><path d="M266.743 95.05h-39.63s-1.576 11.017 16.122 41.18c.767 1.322 2.188 2.103 3.707 2.103 1.52 0 2.941-.767 3.708-2.089 17.698-30.177 16.093-41.193 16.093-41.193z" fill="url(#paint1_linear_4375_41927)"/><path opacity=".8" d="M246.942 138.973v.114c-1.732 0-3.338-.953-4.204-2.431-10.341-17.64-14.133-28.784-15.497-35.024a20.301 20.301 0 01-.682-4.278c-.113-1.479-.028-2.104-.014-2.161l.057-.313c.795-10.66 9.659-18.962 20.34-18.962 10.824 0 19.773 8.415 20.37 19.161.014.143.042.498.028 1.095v.07c0 1.948-.27 3.881-.824 5.743-1.406 6.241-5.213 17.271-15.383 34.612-.853 1.479-2.415 2.374-4.191 2.374zm-19.289-43.04c0 .298 0 .724.057 1.364a20.04 20.04 0 00.639 4.051v.028c1.335 6.155 5.085 17.171 15.369 34.683a3.75 3.75 0 003.21 1.834v.568-.582c1.193 0 2.543-.711 3.21-1.848 10.1-17.228 13.878-28.173 15.256-34.328l.014-.042c.512-1.763.668-3.582.668-5.43l-.114-.086c0-.568.1-.88.085-.966l.057-.029c-.568-10.149-8.977-18.08-19.19-18.08-10.199 0-18.622 8.06-19.204 18.294l-.014.582h-.043v-.014z" fill="#fff"/><path d="M247.014 107.502c6.323 0 11.448-5.129 11.448-11.456 0-6.328-5.125-11.457-11.448-11.457s-11.449 5.13-11.449 11.457c0 6.327 5.126 11.456 11.449 11.456z" fill="url(#paint2_linear_4375_41927)"/><path d="M247.014 108.142c-6.662 0-12.088-5.429-12.088-12.096 0-6.666 5.426-12.096 12.088-12.096 6.662 0 12.088 5.43 12.088 12.096 0 6.667-5.426 12.096-12.088 12.096zm0-22.913c-5.966 0-10.81 4.847-10.81 10.817s4.844 10.817 10.81 10.817c5.965 0 10.809-4.847 10.809-10.817s-4.844-10.817-10.809-10.817zm-10.867-1.109a.175.175 0 01-.142-.07.198.198 0 01.014-.271 17.729 17.729 0 0111.577-4.293c.099 0 .199.086.199.2a.194.194 0 01-.199.198 17.392 17.392 0 00-11.321 4.194.229.229 0 01-.128.042zm-6.122 13.348a.204.204 0 01-.199-.2c0-3.311.923-6.552 2.656-9.367a.2.2 0 01.27-.056c.086.056.114.17.057.27a17.337 17.337 0 00-2.599 9.154c0 .113-.086.199-.185.199z" fill="#941759"/><path d="M337.179 79.58c10.951 0 19.829-8.884 19.829-19.843s-8.878-19.843-19.829-19.843c-10.952 0-19.829 8.884-19.829 19.843 0 10.96 8.877 19.843 19.829 19.843z" fill="url(#paint3_linear_4375_41927)"/><path d="M356.979 58.685h-39.63s-1.577 11.016 16.121 41.179c.768 1.322 2.188 2.104 3.708 2.104s2.94-.768 3.707-2.09c17.699-30.177 16.094-41.193 16.094-41.193z" fill="url(#paint4_linear_4375_41927)"/><path opacity=".8" d="M337.178 102.607v.114c-1.733 0-3.338-.952-4.205-2.431-10.34-17.64-14.133-28.784-15.497-35.024a20.362 20.362 0 01-.681-4.278c-.114-1.478-.029-2.104-.015-2.16l.057-.313c.796-10.661 9.659-18.962 20.341-18.962 10.824 0 19.772 8.415 20.369 19.16.014.143.042.498.028 1.095v.071c0 1.948-.27 3.88-.824 5.743-1.406 6.24-5.213 17.27-15.383 34.612-.852 1.478-2.415 2.373-4.19 2.373zm-19.29-43.04c0 .298 0 .724.057 1.364.071 1.365.284 2.687.639 4.051v.028c1.336 6.155 5.085 17.171 15.369 34.683a3.753 3.753 0 003.211 1.834v.569-.583c1.193 0 2.542-.711 3.21-1.848 10.099-17.228 13.877-28.173 15.255-34.328l.014-.042c.512-1.763.668-3.582.668-5.43l-.114-.085c0-.569.1-.882.086-.967l.057-.028c-.569-10.15-8.978-18.08-19.191-18.08-10.198 0-18.622 8.059-19.204 18.293l-.014.583h-.043v-.015z" fill="#fff"/><path d="M337.249 71.137c6.323 0 11.449-5.13 11.449-11.457 0-6.328-5.126-11.457-11.449-11.457-6.323 0-11.449 5.13-11.449 11.457 0 6.327 5.126 11.457 11.449 11.457z" fill="url(#paint5_linear_4375_41927)"/><path d="M337.249 71.777c-6.662 0-12.088-5.43-12.088-12.097 0-6.666 5.426-12.096 12.088-12.096 6.662 0 12.088 5.43 12.088 12.096 0 6.667-5.426 12.097-12.088 12.097zm0-22.914c-5.966 0-10.809 4.847-10.809 10.817s4.843 10.817 10.809 10.817c5.966 0 10.81-4.847 10.81-10.817s-4.844-10.817-10.81-10.817zm-10.866-1.108a.174.174 0 01-.142-.072.198.198 0 01.014-.27 17.724 17.724 0 0111.576-4.292c.1 0 .199.085.199.199a.194.194 0 01-.199.199 17.396 17.396 0 00-11.321 4.193.227.227 0 01-.127.042zm-6.123 13.347a.203.203 0 01-.198-.2c0-3.311.923-6.552 2.656-9.366a.2.2 0 01.27-.057.2.2 0 01.056.27 17.336 17.336 0 00-2.599 9.154c0 .114-.085.199-.185.199z" fill="#941759"/><path d="M279.48 239.44c10.952 0 19.829-8.884 19.829-19.843 0-10.96-8.877-19.844-19.829-19.844-10.951 0-19.829 8.884-19.829 19.844 0 10.959 8.878 19.843 19.829 19.843z" fill="url(#paint6_linear_4375_41927)"/><path d="M299.28 218.544h-39.63s-1.577 11.017 16.122 41.179c.767 1.322 2.187 2.104 3.707 2.104s2.94-.768 3.707-2.09c17.699-30.176 16.094-41.193 16.094-41.193z" fill="url(#paint7_linear_4375_41927)"/><path opacity=".8" d="M279.479 262.467v.113c-1.733 0-3.338-.952-4.204-2.43-10.341-17.64-14.134-28.784-15.497-35.024a20.303 20.303 0 01-.682-4.279c-.114-1.478-.029-2.103-.014-2.16l.056-.313c.796-10.661 9.659-18.962 20.341-18.962 10.824 0 19.773 8.415 20.369 19.161.014.142.043.497.029 1.094v.072c0 1.947-.27 3.88-.824 5.742-1.407 6.24-5.213 17.27-15.384 34.612-.852 1.478-2.414 2.374-4.19 2.374zm-19.289-43.041c0 .298 0 .725.056 1.364.071 1.365.284 2.687.64 4.051v.029c1.335 6.155 5.085 17.171 15.369 34.683a3.749 3.749 0 003.21 1.833v.569-.583c1.193 0 2.542-.711 3.21-1.848 10.099-17.227 13.878-28.172 15.256-34.327l.014-.043c.511-1.762.667-3.582.667-5.43l-.113-.085c0-.569.099-.881.085-.967l.057-.028c-.568-10.149-8.977-18.081-19.19-18.081-10.199 0-18.622 8.06-19.205 18.294l-.014.583h-.042v-.014z" fill="#fff"/><path d="M279.55 230.996c6.323 0 11.449-5.129 11.449-11.457 0-6.327-5.126-11.456-11.449-11.456-6.323 0-11.448 5.129-11.448 11.456 0 6.328 5.125 11.457 11.448 11.457z" fill="url(#paint8_linear_4375_41927)"/><path d="M279.55 231.636c-6.662 0-12.088-5.43-12.088-12.096 0-6.667 5.426-12.097 12.088-12.097 6.662 0 12.088 5.43 12.088 12.097 0 6.666-5.426 12.096-12.088 12.096zm0-22.913c-5.966 0-10.809 4.847-10.809 10.817s4.843 10.817 10.809 10.817c5.966 0 10.81-4.847 10.81-10.817s-4.844-10.817-10.81-10.817zm-10.866-1.109a.176.176 0 01-.142-.071.198.198 0 01.014-.27 17.726 17.726 0 0111.577-4.293c.099 0 .198.085.198.199a.194.194 0 01-.198.199 17.39 17.39 0 00-11.321 4.193.228.228 0 01-.128.043zm-6.122 13.347a.203.203 0 01-.199-.199c0-3.312.923-6.553 2.656-9.367a.2.2 0 01.27-.057.2.2 0 01.057.27 17.33 17.33 0 00-2.6 9.154c0 .114-.085.199-.184.199z" fill="#941759"/><path d="M91.547 156.214c10.951 0 19.829-8.884 19.829-19.843s-8.878-19.843-19.829-19.843-19.83 8.884-19.83 19.843 8.879 19.843 19.83 19.843z" fill="url(#paint9_linear_4375_41927)"/><path d="M111.347 135.319H71.716s-1.576 11.016 16.123 41.179c.767 1.322 2.187 2.103 3.707 2.103s2.94-.767 3.707-2.089c17.699-30.177 16.094-41.193 16.094-41.193z" fill="url(#paint10_linear_4375_41927)"/><path opacity=".8" d="M91.546 179.241v.114c-1.733 0-3.338-.953-4.205-2.431-10.34-17.64-14.133-28.784-15.496-35.024a20.326 20.326 0 01-.682-4.278c-.114-1.479-.029-2.104-.014-2.161l.056-.313c.796-10.66 9.66-18.961 20.341-18.961 10.824 0 19.772 8.414 20.369 19.16.014.143.043.498.028 1.095v.071c0 1.947-.269 3.88-.823 5.743-1.407 6.24-5.213 17.27-15.384 34.611-.852 1.479-2.415 2.374-4.19 2.374zM72.256 136.2c0 .299 0 .725.057 1.365a20.04 20.04 0 00.64 4.051v.028c1.335 6.155 5.085 17.171 15.369 34.683a3.75 3.75 0 003.21 1.834v.568-.582c1.193 0 2.542-.711 3.21-1.848 10.099-17.228 13.878-28.173 15.255-34.328l.015-.042c.511-1.763.667-3.582.667-5.43l-.113-.086c0-.568.099-.881.085-.966l.057-.029c-.569-10.149-8.977-18.08-19.19-18.08-10.2 0-18.622 8.059-19.205 18.294l-.014.582h-.043v-.014z" fill="#fff"/><path d="M91.617 147.77c6.323 0 11.449-5.129 11.449-11.456 0-6.328-5.126-11.457-11.449-11.457-6.323 0-11.449 5.129-11.449 11.457 0 6.327 5.126 11.456 11.45 11.456z" fill="url(#paint11_linear_4375_41927)"/><path d="M91.617 148.411c-6.662 0-12.088-5.43-12.088-12.097 0-6.666 5.426-12.096 12.088-12.096 6.662 0 12.088 5.43 12.088 12.096 0 6.667-5.426 12.097-12.088 12.097zm0-22.914c-5.966 0-10.81 4.847-10.81 10.817s4.844 10.817 10.81 10.817 10.81-4.847 10.81-10.817-4.844-10.817-10.81-10.817zm-10.867-1.109a.174.174 0 01-.141-.071.198.198 0 01.014-.27 17.725 17.725 0 0111.576-4.293c.1 0 .2.086.2.199a.194.194 0 01-.2.199 17.392 17.392 0 00-11.32 4.194.231.231 0 01-.128.042zm-6.121 13.348a.204.204 0 01-.2-.199c0-3.312.924-6.553 2.657-9.368a.199.199 0 01.27-.056c.085.056.113.17.057.27a17.331 17.331 0 00-2.6 9.154c0 .113-.085.199-.184.199z" fill="#941759"/></g><g clip-path="url(#clip1_4375_41927)"><rect y="260" width="629" height="208" rx="4" fill="url(#paint12_linear_4375_41927)"/><path d="M19.36 291.117h4.976V293h-7.32v-11.375h2.343v9.492zm10.07 2.039c-1.24 0-2.25-.38-3.032-1.14-.776-.761-1.164-1.774-1.164-3.039v-.219c0-.849.164-1.607.493-2.274.328-.672.791-1.187 1.39-1.546.604-.365 1.292-.547 2.063-.547 1.156 0 2.065.364 2.726 1.093.667.73 1 1.763 1 3.102v.922h-5.383c.073.552.292.995.657 1.328.37.333.836.5 1.398.5.87 0 1.55-.315 2.04-.945l1.109 1.242a3.422 3.422 0 01-1.375 1.125 4.559 4.559 0 01-1.922.398zm-.258-6.937c-.448 0-.813.151-1.094.453-.276.302-.453.734-.531 1.297h3.14v-.18c-.01-.5-.145-.885-.406-1.156-.26-.276-.63-.414-1.11-.414zm7.726-3.75v2.078h1.446v1.656h-1.446v4.219c0 .312.06.536.18.672.12.135.35.203.688.203.25 0 .471-.018.664-.055v1.711a4.629 4.629 0 01-1.367.203c-1.584 0-2.391-.799-2.422-2.398v-4.555h-1.235v-1.656h1.235v-2.078h2.257zm5.407 0v2.078h1.445v1.656h-1.445v4.219c0 .312.06.536.18.672.12.135.348.203.687.203.25 0 .471-.018.664-.055v1.711a4.628 4.628 0 01-1.367.203c-1.584 0-2.39-.799-2.422-2.398v-4.555h-1.234v-1.656h1.234v-2.078h2.258zm6.593 10.687c-1.24 0-2.25-.38-3.03-1.14-.777-.761-1.165-1.774-1.165-3.039v-.219c0-.849.164-1.607.492-2.274.328-.672.792-1.187 1.39-1.546.605-.365 1.293-.547 2.063-.547 1.157 0 2.066.364 2.727 1.093.667.73 1 1.763 1 3.102v.922h-5.383c.073.552.292.995.656 1.328.37.333.836.5 1.399.5.87 0 1.55-.315 2.039-.945l1.11 1.242a3.421 3.421 0 01-1.376 1.125 4.558 4.558 0 01-1.922.398zm-.257-6.937c-.448 0-.813.151-1.094.453-.276.302-.453.734-.531 1.297h3.14v-.18c-.01-.5-.146-.885-.406-1.156-.26-.276-.63-.414-1.11-.414zm9.773.445a6.07 6.07 0 00-.812-.062c-.855 0-1.414.289-1.68.867V293h-2.258v-8.453h2.133l.062 1.008c.453-.776 1.081-1.164 1.883-1.164.25 0 .485.033.703.101l-.03 2.172zm12.688 2.188c0 1.302-.297 2.346-.891 3.132-.589.782-1.385 1.172-2.39 1.172-.855 0-1.545-.297-2.071-.89v3.984h-2.258v-11.703h2.094l.078.828c.547-.656 1.26-.984 2.14-.984 1.042 0 1.852.385 2.43 1.156.579.771.868 1.833.868 3.187v.118zm-2.258-.164c0-.787-.14-1.394-.422-1.821-.276-.427-.68-.64-1.211-.64-.708 0-1.195.27-1.461.812v3.461c.276.557.768.836 1.477.836 1.078 0 1.617-.883 1.617-2.648zm8.726 3.453c-.557.677-1.328 1.015-2.312 1.015-.906 0-1.6-.26-2.078-.781-.474-.521-.717-1.284-.727-2.289v-5.539h2.258v5.461c0 .88.401 1.32 1.203 1.32.766 0 1.292-.266 1.578-.797v-5.984h2.266V293h-2.125l-.063-.859zm8.64-5.477a6.07 6.07 0 00-.812-.062c-.854 0-1.414.289-1.68.867V293h-2.257v-8.453h2.133l.062 1.008c.453-.776 1.081-1.164 1.883-1.164.25 0 .484.033.703.101l-.031 2.172zm8.704 2.188c0 1.302-.297 2.346-.89 3.132-.59.782-1.386 1.172-2.391 1.172-.854 0-1.544-.297-2.07-.89v3.984h-2.258v-11.703h2.093l.079.828c.546-.656 1.26-.984 2.14-.984 1.042 0 1.852.385 2.43 1.156.578.771.867 1.833.867 3.187v.118zm-2.258-.164c0-.787-.14-1.394-.422-1.821-.276-.427-.68-.64-1.21-.64-.709 0-1.196.27-1.462.812v3.461c.276.557.769.836 1.477.836 1.078 0 1.617-.883 1.617-2.648zm3.313.007c0-.838.161-1.586.484-2.242a3.551 3.551 0 011.39-1.523c.61-.36 1.316-.539 2.118-.539 1.141 0 2.07.349 2.789 1.047.724.697 1.128 1.645 1.211 2.843l.016.578c0 1.297-.362 2.339-1.086 3.125-.724.782-1.696 1.172-2.914 1.172-1.22 0-2.193-.39-2.922-1.172-.724-.781-1.086-1.843-1.086-3.187v-.102zm2.258.164c0 .802.15 1.417.453 1.844.302.422.734.633 1.297.633.546 0 .974-.208 1.281-.625.307-.422.461-1.094.461-2.016 0-.786-.154-1.396-.461-1.828-.307-.432-.74-.648-1.297-.648-.552 0-.98.216-1.281.648-.302.427-.453 1.091-.453 1.992zm11.718 1.805c0-.276-.138-.492-.414-.648-.271-.162-.708-.305-1.312-.43-2.011-.422-3.016-1.276-3.016-2.563 0-.75.31-1.375.93-1.875.625-.505 1.44-.757 2.445-.757 1.073 0 1.93.252 2.57.757.646.506.969 1.162.969 1.969h-2.258c0-.323-.104-.588-.312-.797-.208-.213-.534-.32-.977-.32-.38 0-.674.086-.882.258a.812.812 0 00-.313.656c0 .25.117.453.352.609.239.151.64.284 1.203.399a9.457 9.457 0 011.422.375c1.192.437 1.789 1.195 1.789 2.273 0 .771-.331 1.396-.993 1.875-.661.474-1.515.711-2.562.711-.708 0-1.339-.125-1.891-.375-.547-.255-.976-.601-1.289-1.039a2.434 2.434 0 01-.468-1.43h2.14c.021.402.169.709.445.922.276.214.646.321 1.11.321.432 0 .758-.081.976-.243a.771.771 0 00.336-.648zm7.547 2.492c-1.239 0-2.25-.38-3.031-1.14-.776-.761-1.164-1.774-1.164-3.039v-.219c0-.849.164-1.607.492-2.274.328-.672.792-1.187 1.391-1.546.604-.365 1.291-.547 2.062-.547 1.156 0 2.065.364 2.727 1.093.666.73 1 1.763 1 3.102v.922h-5.383c.073.552.292.995.656 1.328.37.333.836.5 1.399.5.869 0 1.549-.315 2.039-.945l1.109 1.242a3.419 3.419 0 01-1.375 1.125 4.559 4.559 0 01-1.922.398zm-.258-6.937c-.448 0-.812.151-1.093.453-.276.302-.453.734-.532 1.297h3.141v-.18c-.01-.5-.146-.885-.406-1.156-.261-.276-.63-.414-1.11-.414z" fill="#555A64"/><g filter="url(#filter0_dd_4375_41927)"><rect x="16" y="310" width="214" height="61" rx="6" fill="#fff"/><circle cx="47" cy="341" r="12" fill="#fff"/><path d="M47.518 333.321l2.16 4.374 4.827.703a.576.576 0 01.32.984l-3.494 3.402.825 4.809a.58.58 0 01-.838.609L47 345.935l-4.318 2.269a.58.58 0 01-.838-.61l.825-4.806-3.494-3.402a.575.575 0 01.32-.984l4.828-.706 2.159-4.374a.578.578 0 011.036-.001z" fill="#F39C12"/><path d="M80.701 342.773h-3.574L76.324 345h-1.16l3.258-8.531h.984L82.67 345h-1.154l-.815-2.227zm-3.234-.925h2.9l-1.453-3.991-1.447 3.991zm7.201-3.188l.03.703c.464-.547 1.091-.82 1.88-.82.887 0 1.49.34 1.81 1.019.212-.304.485-.55.821-.738.34-.187.74-.281 1.201-.281 1.39 0 2.098.736 2.121 2.209V345h-1.084v-4.184c0-.453-.103-.791-.31-1.013-.207-.227-.555-.34-1.043-.34-.403 0-.737.121-1.002.363-.266.238-.42.561-.463.967V345h-1.09v-4.154c0-.922-.451-1.383-1.353-1.383-.711 0-1.198.303-1.46.908V345h-1.083v-6.34h1.025zM98.086 345c-.063-.125-.113-.348-.152-.668-.504.523-1.106.785-1.805.785-.625 0-1.139-.176-1.541-.527a1.73 1.73 0 01-.598-1.348c0-.66.25-1.172.75-1.535.504-.367 1.211-.551 2.121-.551h1.055v-.498c0-.379-.113-.679-.34-.902-.226-.227-.56-.34-1.002-.34-.386 0-.71.098-.972.293-.262.195-.393.432-.393.709h-1.09c0-.316.112-.621.334-.914.227-.297.531-.531.914-.703.387-.172.81-.258 1.272-.258.73 0 1.302.184 1.717.551.413.363.628.865.644 1.506v2.918c0 .582.074 1.044.223 1.388V345h-1.137zm-1.799-.826c.34 0 .662-.088.967-.264.305-.176.525-.404.662-.685v-1.301h-.85c-1.328 0-1.992.388-1.992 1.166 0 .34.114.605.34.797.227.191.518.287.873.287zm5.432-.059h3.709V345h-5.033v-.797l3.498-4.646h-3.446v-.897h4.805v.768l-3.533 4.687zm4.552-2.344c0-.621.122-1.179.364-1.675a2.765 2.765 0 011.019-1.149 2.797 2.797 0 011.494-.404c.864 0 1.561.299 2.092.896.535.598.803 1.393.803 2.385v.076c0 .618-.119 1.172-.357 1.664-.235.489-.573.87-1.014 1.143-.438.273-.942.41-1.512.41-.859 0-1.556-.299-2.092-.896-.531-.598-.797-1.389-.797-2.373v-.077zm1.09.129c0 .704.162 1.268.487 1.694.328.426.765.638 1.312.638.551 0 .988-.214 1.313-.644.324-.434.486-1.039.486-1.817 0-.695-.166-1.257-.498-1.687a1.563 1.563 0 00-1.313-.65c-.535 0-.966.212-1.294.638-.329.426-.493 1.035-.493 1.828zm7.067-3.24l.035.797c.484-.609 1.117-.914 1.898-.914 1.34 0 2.016.756 2.028 2.268V345h-1.084v-4.195c-.004-.457-.11-.795-.317-1.014-.203-.219-.521-.328-.955-.328-.351 0-.66.094-.926.281a1.928 1.928 0 00-.621.738V345h-1.084v-6.34h1.026zm11.871 2.889h-2.004V345h-1.131v-8.531h2.824c.961 0 1.7.219 2.215.656.52.437.779 1.074.779 1.91 0 .531-.144.994-.433 1.389-.285.394-.684.689-1.195.885l2.003 3.621v.07h-1.207l-1.851-3.451zm-2.004-.92h1.728c.559 0 1.002-.145 1.331-.434.332-.289.498-.675.498-1.16 0-.527-.159-.931-.475-1.213-.313-.281-.766-.424-1.359-.427h-1.723v3.234zm8.73 4.488c-.859 0-1.558-.281-2.097-.844-.539-.566-.809-1.322-.809-2.267v-.199c0-.629.119-1.19.358-1.682a2.814 2.814 0 011.007-1.16 2.54 2.54 0 011.407-.422c.824 0 1.464.271 1.921.814.458.543.686 1.321.686 2.332v.452h-4.295c.016.625.197 1.13.545 1.517.352.383.797.574 1.336.574.383 0 .707-.078.973-.234.265-.156.498-.363.697-.621l.662.516c-.531.816-1.328 1.224-2.391 1.224zm-.134-5.683c-.438 0-.805.16-1.102.48-.297.316-.48.762-.551 1.336h3.176v-.082c-.031-.551-.18-.977-.445-1.277-.266-.305-.625-.457-1.078-.457zm5.877 4.095l1.57-4.869h1.107l-2.273 6.34h-.826l-2.297-6.34h1.107l1.612 4.869zm4.898 1.471h-1.084v-6.34h1.084V345zm-1.172-8.021c0-.176.053-.325.158-.446.11-.121.27-.181.481-.181.211 0 .371.06.48.181.11.121.164.27.164.446a.616.616 0 01-.164.439c-.109.117-.269.176-.48.176-.211 0-.371-.059-.481-.176a.634.634 0 01-.158-.439zm5.543 8.138c-.859 0-1.558-.281-2.098-.844-.539-.566-.808-1.322-.808-2.267v-.199c0-.629.119-1.19.357-1.682a2.81 2.81 0 011.008-1.16 2.537 2.537 0 011.406-.422c.825 0 1.465.271 1.922.814.457.543.686 1.321.686 2.332v.452h-4.295c.015.625.197 1.13.545 1.517.351.383.797.574 1.336.574.383 0 .707-.078.972-.234.266-.156.498-.363.698-.621l.662.516c-.532.816-1.328 1.224-2.391 1.224zm-.135-5.683c-.437 0-.804.16-1.101.48-.297.316-.481.762-.551 1.336h3.176v-.082c-.031-.551-.18-.977-.446-1.277-.265-.305-.625-.457-1.078-.457zm9.481 4.072l1.219-4.846h1.084L157.84 345h-.879l-1.541-4.805-1.5 4.805h-.879l-1.84-6.34h1.078l1.248 4.746 1.477-4.746h.873l1.506 4.846zm9.685-1.957h-2.004V345h-1.13v-8.531h2.824c.961 0 1.699.219 2.215.656.519.437.779 1.074.779 1.91 0 .531-.145.994-.434 1.389-.285.394-.683.689-1.195.885l2.004 3.621v.07h-1.207l-1.852-3.451zm-2.004-.92h1.729c.559 0 1.002-.145 1.33-.434.332-.289.498-.675.498-1.16 0-.527-.158-.931-.475-1.213-.312-.281-.765-.424-1.359-.427h-1.723v3.234zm8.731 4.488c-.859 0-1.559-.281-2.098-.844-.539-.566-.808-1.322-.808-2.267v-.199c0-.629.119-1.19.357-1.682a2.81 2.81 0 011.008-1.16 2.537 2.537 0 011.406-.422c.824 0 1.465.271 1.922.814.457.543.686 1.321.686 2.332v.452h-4.295c.015.625.197 1.13.545 1.517.351.383.796.574 1.336.574.382 0 .707-.078.972-.234.266-.156.498-.363.697-.621l.663.516c-.532.816-1.329 1.224-2.391 1.224zm-.135-5.683c-.437 0-.805.16-1.101.48-.297.316-.481.762-.551 1.336h3.176v-.082c-.032-.551-.18-.977-.446-1.277-.265-.305-.625-.457-1.078-.457zm3.604 2.343c0-.996.228-1.783.685-2.361.457-.582 1.071-.873 1.84-.873.75 0 1.342.252 1.775.756l.047-.639h.996v8.778h-1.084v-3.024c-.437.469-1.019.703-1.746.703-.765 0-1.377-.297-1.834-.89-.453-.598-.679-1.389-.679-2.373v-.077zm1.084.123c0 .727.152 1.297.457 1.711a1.47 1.47 0 001.242.621c.644 0 1.137-.285 1.476-.855v-3.106c-.343-.558-.832-.837-1.464-.837-.524 0-.94.209-1.248.627-.309.414-.463 1.027-.463 1.839zm9.914 2.473c-.422.496-1.041.744-1.858.744-.675 0-1.191-.195-1.547-.586-.351-.394-.529-.976-.533-1.746v-4.125h1.084v4.096c0 .961.391 1.441 1.172 1.441.828 0 1.379-.308 1.652-.926v-4.611h1.084V345h-1.031l-.023-.627zm5.338.744c-.86 0-1.559-.281-2.098-.844-.539-.566-.809-1.322-.809-2.267v-.199c0-.629.119-1.19.358-1.682a2.81 2.81 0 011.008-1.16 2.535 2.535 0 011.406-.422c.824 0 1.465.271 1.922.814.457.543.685 1.321.685 2.332v.452h-4.295c.016.625.198 1.13.545 1.517.352.383.797.574 1.336.574.383 0 .707-.078.973-.234.265-.156.498-.363.697-.621l.662.516c-.531.816-1.328 1.224-2.39 1.224zm-.135-5.683c-.438 0-.805.16-1.102.48-.297.316-.48.762-.551 1.336h3.176v-.082c-.031-.551-.179-.977-.445-1.277-.266-.305-.625-.457-1.078-.457zm7.558 3.884c0-.293-.111-.519-.334-.679-.218-.164-.603-.305-1.154-.422-.547-.117-.982-.258-1.306-.422-.321-.164-.559-.359-.715-.586a1.411 1.411 0 01-.229-.809c0-.519.219-.959.656-1.318.442-.359 1.004-.539 1.688-.539.719 0 1.301.186 1.746.557.449.371.674.845.674 1.423h-1.09c0-.296-.127-.552-.381-.767-.25-.215-.566-.322-.949-.322-.395 0-.703.086-.926.257a.812.812 0 00-.334.674c0 .262.104.459.311.592.207.133.58.26 1.119.381.543.121.982.266 1.318.433.336.168.584.372.744.61.164.234.246.521.246.861 0 .567-.226 1.022-.679 1.365-.453.34-1.041.51-1.764.51-.508 0-.957-.09-1.348-.269-.39-.18-.697-.43-.92-.75a1.847 1.847 0 01-.328-1.049h1.084c.02.363.164.652.434.867.273.211.633.316 1.078.316.41 0 .738-.082.984-.246.25-.168.375-.39.375-.668zm3.967-6.193v1.535h1.184v.838h-1.184v3.932c0 .254.053.445.158.574.106.125.286.187.54.187.124 0 .296-.023.515-.07V345a3.144 3.144 0 01-.832.117c-.484 0-.85-.146-1.096-.439-.246-.293-.369-.709-.369-1.248v-3.932h-1.154v-.838h1.154v-1.535h1.084z" fill="#000"/><rect x="17" y="311" width="212" height="59" rx="5" stroke="#81A332" stroke-width="2"/></g><g filter="url(#filter1_d_4375_41927)"><rect x="16" y="387" width="214" height="61" rx="6" fill="#fff"/><path d="M59 418c0 6.627-5.373 12-12 12s-12-5.373-12-12 5.373-12 12-12 12 5.373 12 12z" fill="#fff"/><path d="M50 415a1 1 0 11-2 0 1 1 0 012 0z" fill="#C4C4C4"/><path fill-rule="evenodd" clip-rule="evenodd" d="M51 413h-8a1 1 0 00-1 1v6.614l1.3-2.816c.673-1.458 2.704-1.568 3.53-.191l1.175 1.958c.776-1.047 2.396-1.01 3.108.129l.887 1.419V414a1 1 0 00-1-1zm-.18 10h-7.718l2.014-4.364 1.27 2.116c.698 1.165 2.343 1.217 3.126.155L50.821 423zM43 411a3 3 0 00-3 3v8a3 3 0 003 3h8a3 3 0 003-3v-8a3 3 0 00-3-3h-8zm7 4a1 1 0 11-2 0 1 1 0 012 0z" fill="#81A332"/><path d="M57 422a5 5 0 11-10 0 5 5 0 0110 0z" fill="#fff"/><path d="M52.194 419.121l.81 1.64 1.81.263a.217.217 0 01.12.369l-1.31 1.276.31 1.803a.216.216 0 01-.314.229l-1.62-.85-1.62.85a.216.216 0 01-.314-.228l.31-1.802-1.31-1.276a.217.217 0 01.12-.369l1.81-.265.81-1.64a.217.217 0 01.388 0z" fill="#F39C12"/><path d="M73.115 418.66V422H71.99v-8.531h3.147c.933 0 1.664.238 2.191.715.531.476.797 1.107.797 1.892 0 .828-.26 1.467-.78 1.916-.515.446-1.255.668-2.22.668h-2.01zm0-.92h2.022c.601 0 1.062-.14 1.382-.422.32-.285.481-.695.481-1.23 0-.508-.16-.914-.48-1.219-.32-.305-.76-.463-1.319-.474h-2.086v3.345zm9.34-1.107a3.178 3.178 0 00-.533-.041c-.711 0-1.194.303-1.447.908v4.5H79.39v-6.34h1.054l.018.733c.355-.567.86-.85 1.512-.85.21 0 .37.027.48.082v1.008zm.598 2.138c0-.621.12-1.179.363-1.675a2.764 2.764 0 011.02-1.149 2.795 2.795 0 011.494-.404c.863 0 1.56.299 2.091.896.536.598.803 1.393.803 2.385v.076c0 .618-.119 1.172-.357 1.664-.235.489-.573.87-1.014 1.143-.437.273-.941.41-1.512.41-.859 0-1.556-.299-2.091-.896-.532-.598-.797-1.389-.797-2.373v-.077zm1.09.129c0 .704.162 1.268.486 1.694.328.426.765.638 1.312.638.551 0 .989-.214 1.313-.644.324-.434.486-1.039.486-1.817 0-.695-.166-1.257-.498-1.687a1.562 1.562 0 00-1.312-.65c-.536 0-.967.212-1.295.638-.328.426-.492 1.035-.492 1.828zm5.777-.123c0-.972.23-1.754.691-2.343.461-.594 1.065-.891 1.81-.891.743 0 1.331.254 1.764.762V413h1.084v9h-.996l-.052-.68c-.434.532-1.037.797-1.81.797-.735 0-1.335-.301-1.8-.902-.46-.602-.691-1.387-.691-2.356v-.082zm1.084.123c0 .719.148 1.282.445 1.688.297.406.707.609 1.23.609.688 0 1.19-.308 1.507-.926v-2.912c-.325-.597-.823-.896-1.495-.896-.53 0-.945.205-1.242.615-.297.41-.445 1.018-.445 1.822zm9.867 2.473c-.422.496-1.04.744-1.857.744-.676 0-1.192-.195-1.547-.586-.352-.394-.53-.976-.533-1.746v-4.125h1.084v4.096c0 .961.39 1.441 1.171 1.441.829 0 1.379-.308 1.653-.926v-4.611h1.084V422h-1.031l-.024-.627zm5.25-.141c.387 0 .725-.117 1.014-.351.289-.235.449-.527.48-.879h1.026c-.02.363-.145.709-.375 1.037-.231.328-.539.59-.926.785a2.637 2.637 0 01-1.219.293c-.863 0-1.551-.287-2.062-.861-.508-.578-.762-1.367-.762-2.367v-.182c0-.617.113-1.166.34-1.646.226-.481.551-.854.972-1.12.426-.265.928-.398 1.506-.398.711 0 1.301.213 1.77.639.472.425.724.978.756 1.658h-1.026a1.475 1.475 0 00-.469-1.008 1.43 1.43 0 00-1.031-.398c-.551 0-.978.199-1.283.597-.301.395-.451.967-.451 1.717v.205c0 .731.15 1.293.451 1.688.301.394.73.591 1.289.591zm5.209-7.107v1.535h1.184v.838h-1.184v3.932c0 .254.053.445.158.574.106.125.285.187.539.187.125 0 .297-.023.516-.07V422a3.15 3.15 0 01-.832.117c-.484 0-.85-.146-1.096-.439-.246-.293-.369-.709-.369-1.248v-3.932h-1.154v-.838h1.154v-1.535h1.084zm8.731 4.424h-2.004V422h-1.131v-8.531h2.824c.961 0 1.699.219 2.215.656.519.437.779 1.074.779 1.91 0 .531-.144.994-.433 1.389-.286.394-.684.689-1.196.885l2.004 3.621v.07h-1.207l-1.851-3.451zm-2.004-.92h1.728c.559 0 1.002-.145 1.33-.434.332-.289.498-.675.498-1.16 0-.527-.158-.931-.474-1.213-.313-.281-.766-.424-1.36-.427h-1.722v3.234zm8.73 4.488c-.859 0-1.558-.281-2.098-.844-.539-.566-.808-1.322-.808-2.267v-.199c0-.629.119-1.19.357-1.682a2.81 2.81 0 011.008-1.16 2.537 2.537 0 011.406-.422c.825 0 1.465.271 1.922.814.457.543.686 1.321.686 2.332v.452h-4.295c.015.625.197 1.13.545 1.517.351.383.797.574 1.336.574.383 0 .707-.078.972-.234.266-.156.498-.363.698-.621l.662.516c-.532.816-1.328 1.224-2.391 1.224zm-.135-5.683c-.437 0-.804.16-1.101.48-.297.316-.481.762-.551 1.336h3.176v-.082c-.031-.551-.18-.977-.446-1.277-.265-.305-.625-.457-1.078-.457zm5.877 4.095l1.571-4.869h1.107l-2.273 6.34h-.827l-2.296-6.34h1.107l1.611 4.869zm4.899 1.471h-1.084v-6.34h1.084V422zm-1.172-8.021c0-.176.053-.325.158-.446.109-.121.27-.181.481-.181.21 0 .371.06.48.181.109.121.164.27.164.446a.62.62 0 01-.164.439c-.109.117-.27.176-.48.176-.211 0-.372-.059-.481-.176a.634.634 0 01-.158-.439zm5.543 8.138c-.86 0-1.559-.281-2.098-.844-.539-.566-.808-1.322-.808-2.267v-.199c0-.629.119-1.19.357-1.682a2.81 2.81 0 011.008-1.16 2.535 2.535 0 011.406-.422c.824 0 1.465.271 1.922.814.457.543.685 1.321.685 2.332v.452h-4.294c.015.625.197 1.13.544 1.517.352.383.797.574 1.336.574.383 0 .707-.078.973-.234.266-.156.498-.363.697-.621l.662.516c-.531.816-1.328 1.224-2.39 1.224zm-.135-5.683c-.437 0-.805.16-1.102.48-.296.316-.48.762-.55 1.336h3.176v-.082c-.032-.551-.18-.977-.446-1.277-.265-.305-.625-.457-1.078-.457zm9.481 4.072l1.218-4.846h1.084l-1.845 6.34h-.879l-1.541-4.805-1.5 4.805h-.879l-1.84-6.34h1.078l1.248 4.746 1.477-4.746h.873l1.506 4.846zm9.685-1.957h-2.004V422h-1.131v-8.531h2.825c.96 0 1.699.219 2.214.656.52.437.78 1.074.78 1.91 0 .531-.145.994-.434 1.389-.285.394-.684.689-1.195.885l2.004 3.621v.07h-1.207l-1.852-3.451zm-2.004-.92h1.729c.558 0 1.002-.145 1.33-.434.332-.289.498-.675.498-1.16 0-.527-.158-.931-.475-1.213-.312-.281-.765-.424-1.359-.427h-1.723v3.234zm8.731 4.488c-.86 0-1.559-.281-2.098-.844-.539-.566-.809-1.322-.809-2.267v-.199c0-.629.12-1.19.358-1.682a2.81 2.81 0 011.008-1.16 2.535 2.535 0 011.406-.422c.824 0 1.465.271 1.922.814.457.543.685 1.321.685 2.332v.452h-4.295c.016.625.198 1.13.545 1.517.352.383.797.574 1.336.574.383 0 .707-.078.973-.234.266-.156.498-.363.697-.621l.662.516c-.531.816-1.328 1.224-2.39 1.224zm-.135-5.683c-.438 0-.805.16-1.102.48-.297.316-.48.762-.55 1.336h3.175v-.082c-.031-.551-.179-.977-.445-1.277-.266-.305-.625-.457-1.078-.457zm3.603 2.343c0-.996.229-1.783.686-2.361.457-.582 1.07-.873 1.84-.873.75 0 1.342.252 1.775.756l.047-.639h.996v8.778h-1.084v-3.024c-.437.469-1.019.703-1.746.703-.766 0-1.377-.297-1.834-.89-.453-.598-.68-1.389-.68-2.373v-.077zm1.084.123c0 .727.153 1.297.457 1.711.309.414.723.621 1.243.621.644 0 1.136-.285 1.476-.855v-3.106c-.344-.558-.832-.837-1.465-.837-.523 0-.939.209-1.248.627-.308.414-.463 1.027-.463 1.839zm9.914 2.473c-.421.496-1.041.744-1.857.744-.676 0-1.191-.195-1.547-.586-.351-.394-.529-.976-.533-1.746v-4.125h1.084v4.096c0 .961.391 1.441 1.172 1.441.828 0 1.379-.308 1.652-.926v-4.611h1.084V422h-1.031l-.024-.627zm5.338.744c-.859 0-1.558-.281-2.097-.844-.539-.566-.809-1.322-.809-2.267v-.199c0-.629.119-1.19.357-1.682a2.824 2.824 0 011.008-1.16 2.54 2.54 0 011.407-.422c.824 0 1.464.271 1.921.814.457.543.686 1.321.686 2.332v.452h-4.295c.016.625.197 1.13.545 1.517.352.383.797.574 1.336.574.383 0 .707-.078.973-.234.265-.156.498-.363.697-.621l.662.516c-.531.816-1.328 1.224-2.391 1.224zm-.134-5.683c-.438 0-.805.16-1.102.48-.297.316-.48.762-.551 1.336h3.176v-.082c-.031-.551-.18-.977-.445-1.277-.266-.305-.625-.457-1.078-.457zm7.558 3.884c0-.293-.111-.519-.334-.679-.219-.164-.603-.305-1.154-.422-.547-.117-.983-.258-1.307-.422-.32-.164-.558-.359-.715-.586a1.418 1.418 0 01-.228-.809c0-.519.219-.959.656-1.318.442-.359 1.004-.539 1.688-.539.718 0 1.3.186 1.746.557.449.371.674.845.674 1.423h-1.09c0-.296-.127-.552-.381-.767-.25-.215-.567-.322-.949-.322-.395 0-.703.086-.926.257a.812.812 0 00-.334.674c0 .262.103.459.31.592.207.133.58.26 1.12.381.543.121.982.266 1.318.433.336.168.584.372.744.61.164.234.246.521.246.861 0 .567-.226 1.022-.68 1.365-.453.34-1.041.51-1.763.51-.508 0-.957-.09-1.348-.269-.39-.18-.697-.43-.92-.75a1.84 1.84 0 01-.328-1.049h1.084c.02.363.164.652.434.867.273.211.632.316 1.078.316.41 0 .738-.082.984-.246.25-.168.375-.39.375-.668zm3.967-6.193v1.535h1.184v.838h-1.184v3.932c0 .254.053.445.158.574.106.125.285.187.539.187.125 0 .297-.023.516-.07V422a3.15 3.15 0 01-.832.117c-.485 0-.85-.146-1.096-.439-.246-.293-.369-.709-.369-1.248v-3.932h-1.154v-.838h1.154v-1.535h1.084z" fill="#000"/></g><g filter="url(#filter2_dd_4375_41927)"><rect x="243" y="310" width="214" height="61" rx="6" fill="#fff"/><path d="M286 341c0 6.627-5.373 12-12 12s-12-5.373-12-12 5.373-12 12-12 12 5.373 12 12z" fill="#fff"/><path fill-rule="evenodd" clip-rule="evenodd" d="M273.377 334.019a.88.88 0 011.245 0l4.661 4.66v5.799c0 .972-.789 1.761-1.761 1.761h-7.044a1.761 1.761 0 01-1.761-1.761v-5.798l4.66-4.661zm-6.421 6.422l-.258.257a.88.88 0 11-1.245-1.245l6.679-6.679a2.641 2.641 0 013.736 0l6.679 6.679a.88.88 0 11-1.245 1.245l-.258-.258v4.038a3.522 3.522 0 01-3.522 3.522h-7.044a3.522 3.522 0 01-3.522-3.522v-4.037z" fill="#81A332"/><path d="M283 346a5 5 0 11-10.001-.001A5 5 0 01283 346z" fill="#fff"/><path d="M278.194 343.121l.81 1.64 1.811.263a.216.216 0 01.12.369l-1.311 1.276.309 1.803a.216.216 0 01-.314.229l-1.619-.85-1.619.85a.216.216 0 01-.314-.228l.309-1.802-1.311-1.276a.216.216 0 01.12-.369l1.811-.265.81-1.64a.215.215 0 01.388 0z" fill="#F39C12"/><path d="M301.504 340.197c-.965-.277-1.668-.617-2.109-1.019a1.968 1.968 0 01-.657-1.5c0-.672.268-1.227.803-1.664.539-.442 1.238-.662 2.098-.662.586 0 1.107.113 1.564.339.461.227.817.539 1.067.938.253.398.38.834.38 1.307h-1.13c0-.516-.165-.92-.493-1.213-.328-.297-.791-.446-1.388-.446-.555 0-.989.123-1.301.369-.309.243-.463.581-.463 1.014 0 .348.146.643.439.885.297.238.799.457 1.506.656.711.199 1.266.42 1.664.662.403.239.7.518.891.838.195.32.293.697.293 1.131 0 .691-.27 1.246-.809 1.664-.539.414-1.259.621-2.162.621a4.029 4.029 0 01-1.64-.334c-.508-.226-.901-.535-1.178-.926a2.258 2.258 0 01-.41-1.33h1.131c0 .516.189.924.568 1.225.383.297.893.445 1.529.445.594 0 1.049-.121 1.365-.363.317-.242.475-.572.475-.99 0-.418-.146-.74-.439-.967-.293-.231-.825-.457-1.594-.68zm5.912-4.072v1.535h1.184v.838h-1.184v3.932c0 .254.053.445.158.574.106.125.285.187.539.187.125 0 .297-.023.516-.07V344a3.15 3.15 0 01-.832.117c-.485 0-.85-.146-1.096-.439-.246-.293-.369-.709-.369-1.248v-3.932h-1.154v-.838h1.154v-1.535h1.084zm2.051 4.646c0-.621.121-1.179.363-1.675a2.76 2.76 0 011.02-1.149 2.792 2.792 0 011.494-.404c.863 0 1.56.299 2.092.896.535.598.802 1.393.802 2.385v.076c0 .618-.119 1.172-.357 1.664-.235.489-.572.87-1.014 1.143-.437.273-.941.41-1.512.41-.859 0-1.556-.299-2.091-.896-.532-.598-.797-1.389-.797-2.373v-.077zm1.09.129c0 .704.162 1.268.486 1.694.328.426.766.638 1.312.638.551 0 .989-.214 1.313-.644.324-.434.486-1.039.486-1.817 0-.695-.166-1.257-.498-1.687a1.561 1.561 0 00-1.312-.65c-.535 0-.967.212-1.295.638-.328.426-.492 1.035-.492 1.828zm9.105-2.267a3.178 3.178 0 00-.533-.041c-.711 0-1.193.303-1.447.908v4.5h-1.084v-6.34h1.054l.018.733c.355-.567.859-.85 1.512-.85.211 0 .371.027.48.082v1.008zm3.516 5.484c-.86 0-1.559-.281-2.098-.844-.539-.566-.809-1.322-.809-2.267v-.199c0-.629.12-1.19.358-1.682a2.81 2.81 0 011.008-1.16 2.535 2.535 0 011.406-.422c.824 0 1.465.271 1.922.814.457.543.685 1.321.685 2.332v.452h-4.295c.016.625.198 1.13.545 1.517.352.383.797.574 1.336.574.383 0 .707-.078.973-.234.266-.156.498-.363.697-.621l.662.516c-.531.816-1.328 1.224-2.39 1.224zm-.135-5.683c-.438 0-.805.16-1.102.48-.296.316-.48.762-.55 1.336h3.175v-.082c-.031-.551-.179-.977-.445-1.277-.266-.305-.625-.457-1.078-.457zm10.143 2.115h-2.004V344h-1.131v-8.531h2.824c.961 0 1.699.219 2.215.656.519.437.779 1.074.779 1.91 0 .531-.144.994-.433 1.389-.286.394-.684.689-1.196.885l2.004 3.621v.07h-1.207l-1.851-3.451zm-2.004-.92h1.728c.559 0 1.002-.145 1.33-.434.332-.289.498-.675.498-1.16 0-.527-.158-.931-.474-1.213-.313-.281-.766-.424-1.36-.427h-1.722v3.234zm8.73 4.488c-.859 0-1.558-.281-2.098-.844-.539-.566-.808-1.322-.808-2.267v-.199c0-.629.119-1.19.357-1.682a2.81 2.81 0 011.008-1.16 2.537 2.537 0 011.406-.422c.825 0 1.465.271 1.922.814.457.543.686 1.321.686 2.332v.452h-4.295c.015.625.197 1.13.545 1.517.351.383.797.574 1.336.574.383 0 .707-.078.972-.234.266-.156.498-.363.698-.621l.662.516c-.532.816-1.328 1.224-2.391 1.224zm-.135-5.683c-.437 0-.804.16-1.101.48-.297.316-.481.762-.551 1.336h3.176v-.082c-.031-.551-.18-.977-.446-1.277-.265-.305-.625-.457-1.078-.457zm5.877 4.095l1.571-4.869h1.107l-2.273 6.34h-.827l-2.296-6.34h1.107l1.611 4.869zm4.899 1.471h-1.084v-6.34h1.084V344zm-1.172-8.021c0-.176.053-.325.158-.446.109-.121.27-.181.481-.181.21 0 .371.06.48.181.109.121.164.27.164.446a.62.62 0 01-.164.439c-.109.117-.27.176-.48.176-.211 0-.372-.059-.481-.176a.634.634 0 01-.158-.439zm5.543 8.138c-.86 0-1.559-.281-2.098-.844-.539-.566-.808-1.322-.808-2.267v-.199c0-.629.119-1.19.357-1.682a2.81 2.81 0 011.008-1.16 2.535 2.535 0 011.406-.422c.824 0 1.465.271 1.922.814.457.543.685 1.321.685 2.332v.452h-4.294c.015.625.197 1.13.544 1.517.352.383.797.574 1.336.574.383 0 .707-.078.973-.234.266-.156.498-.363.697-.621l.662.516c-.531.816-1.328 1.224-2.39 1.224zm-.135-5.683c-.437 0-.805.16-1.101.48-.297.316-.481.762-.551 1.336h3.175v-.082c-.031-.551-.179-.977-.445-1.277-.265-.305-.625-.457-1.078-.457zm9.481 4.072l1.218-4.846h1.084l-1.845 6.34h-.879l-1.541-4.805-1.5 4.805h-.879l-1.84-6.34h1.078l1.248 4.746 1.477-4.746h.873l1.506 4.846zm9.685-1.957h-2.004V344h-1.131v-8.531h2.825c.96 0 1.699.219 2.214.656.52.437.78 1.074.78 1.91 0 .531-.145.994-.434 1.389-.285.394-.684.689-1.195.885l2.004 3.621v.07h-1.207l-1.852-3.451zm-2.004-.92h1.729c.558 0 1.002-.145 1.33-.434.332-.289.498-.675.498-1.16 0-.527-.158-.931-.475-1.213-.312-.281-.765-.424-1.359-.427h-1.723v3.234zm8.731 4.488c-.86 0-1.559-.281-2.098-.844-.539-.566-.809-1.322-.809-2.267v-.199c0-.629.12-1.19.358-1.682a2.81 2.81 0 011.008-1.16 2.535 2.535 0 011.406-.422c.824 0 1.465.271 1.922.814.457.543.685 1.321.685 2.332v.452h-4.295c.016.625.198 1.13.545 1.517.352.383.797.574 1.336.574.383 0 .707-.078.973-.234.266-.156.498-.363.697-.621l.662.516c-.531.816-1.328 1.224-2.39 1.224zm-.135-5.683c-.438 0-.805.16-1.102.48-.297.316-.48.762-.55 1.336h3.175v-.082c-.031-.551-.179-.977-.445-1.277-.266-.305-.625-.457-1.078-.457zm3.603 2.343c0-.996.229-1.783.686-2.361.457-.582 1.07-.873 1.84-.873.75 0 1.342.252 1.775.756l.047-.639h.996v8.778h-1.084v-3.024c-.437.469-1.019.703-1.746.703-.766 0-1.377-.297-1.834-.89-.453-.598-.68-1.389-.68-2.373v-.077zm1.084.123c0 .727.153 1.297.457 1.711.309.414.723.621 1.243.621.644 0 1.136-.285 1.476-.855v-3.106c-.344-.558-.832-.837-1.465-.837-.523 0-.939.209-1.248.627-.308.414-.463 1.027-.463 1.839zm9.914 2.473c-.421.496-1.041.744-1.857.744-.676 0-1.191-.195-1.547-.586-.351-.394-.529-.976-.533-1.746v-4.125h1.084v4.096c0 .961.391 1.441 1.172 1.441.828 0 1.379-.308 1.652-.926v-4.611h1.084V344h-1.031l-.024-.627zm5.338.744c-.859 0-1.558-.281-2.097-.844-.539-.566-.809-1.322-.809-2.267v-.199c0-.629.119-1.19.358-1.682a2.814 2.814 0 011.007-1.16 2.54 2.54 0 011.407-.422c.824 0 1.464.271 1.921.814.457.543.686 1.321.686 2.332v.452h-4.295c.016.625.197 1.13.545 1.517.352.383.797.574 1.336.574.383 0 .707-.078.973-.234.265-.156.498-.363.697-.621l.662.516c-.531.816-1.328 1.224-2.391 1.224zm-.134-5.683c-.438 0-.805.16-1.102.48-.297.316-.48.762-.551 1.336h3.176v-.082c-.031-.551-.18-.977-.445-1.277-.266-.305-.625-.457-1.078-.457zm7.558 3.884c0-.293-.111-.519-.334-.679-.219-.164-.603-.305-1.154-.422-.547-.117-.983-.258-1.307-.422-.32-.164-.558-.359-.715-.586a1.418 1.418 0 01-.228-.809c0-.519.219-.959.656-1.318.442-.359 1.004-.539 1.688-.539.718 0 1.3.186 1.746.557.449.371.674.845.674 1.423h-1.09c0-.296-.127-.552-.381-.767-.25-.215-.567-.322-.949-.322-.395 0-.704.086-.926.257a.812.812 0 00-.334.674c0 .262.103.459.31.592.207.133.58.26 1.12.381.543.121.982.266 1.318.433.336.168.584.372.744.61.164.234.246.521.246.861 0 .567-.226 1.022-.68 1.365-.453.34-1.041.51-1.763.51-.508 0-.957-.09-1.348-.269a2.227 2.227 0 01-.92-.75 1.84 1.84 0 01-.328-1.049h1.084c.02.363.164.652.434.867.273.211.632.316 1.078.316.41 0 .738-.082.984-.246.25-.168.375-.39.375-.668zm3.967-6.193v1.535h1.184v.838h-1.184v3.932c0 .254.053.445.158.574.106.125.285.187.539.187.125 0 .297-.023.516-.07V344a3.15 3.15 0 01-.832.117c-.485 0-.85-.146-1.096-.439-.246-.293-.369-.709-.369-1.248v-3.932h-1.154v-.838h1.154v-1.535h1.084z" fill="#000"/></g><g filter="url(#filter3_d_4375_41927)"><rect x="243" y="387" width="214" height="61" rx="6" fill="#fff"/><circle cx="274" cy="418" r="12" fill="#fff"/><path fill-rule="evenodd" clip-rule="evenodd" d="M278 411h-8a1 1 0 00-1 1v12a1 1 0 001 1h8a1 1 0 001-1v-12a1 1 0 00-1-1zm-8-2a3 3 0 00-3 3v12a3 3 0 003 3h8a3 3 0 003-3v-12a3 3 0 00-3-3h-8zm3 6a1 1 0 112 0 1 1 0 01-2 0zm0 3a1 1 0 012 0v3a1 1 0 01-2 0v-3z" fill="#81A332"/><path d="M300.115 420.66V424h-1.125v-8.531h3.147c.933 0 1.664.238 2.191.715.531.476.797 1.107.797 1.892 0 .828-.26 1.467-.779 1.916-.516.446-1.256.668-2.221.668h-2.01zm0-.92h2.022c.601 0 1.062-.14 1.383-.422.32-.285.48-.695.48-1.23 0-.508-.16-.914-.48-1.219-.321-.305-.76-.463-1.319-.474h-2.086v3.345zm9.34-1.107a3.178 3.178 0 00-.533-.041c-.711 0-1.193.303-1.447.908v4.5h-1.084v-6.34h1.054l.018.733c.355-.567.859-.85 1.512-.85.211 0 .371.027.48.082v1.008zm.598 2.138c0-.621.121-1.179.363-1.675a2.76 2.76 0 011.02-1.149 2.792 2.792 0 011.494-.404c.863 0 1.56.299 2.091.896.536.598.803 1.393.803 2.385v.076c0 .618-.119 1.172-.357 1.664-.235.489-.572.87-1.014 1.143-.437.273-.941.41-1.512.41-.859 0-1.556-.299-2.091-.896-.532-.598-.797-1.389-.797-2.373v-.077zm1.09.129c0 .704.162 1.268.486 1.694.328.426.766.638 1.312.638.551 0 .989-.214 1.313-.644.324-.434.486-1.039.486-1.817 0-.695-.166-1.257-.498-1.687a1.561 1.561 0 00-1.312-.65c-.535 0-.967.212-1.295.638-.328.426-.492 1.035-.492 1.828zm5.777-.123c0-.972.23-1.754.691-2.343.461-.594 1.065-.891 1.811-.891.742 0 1.33.254 1.764.762V415h1.084v9h-.997l-.052-.68c-.434.532-1.037.797-1.811.797-.734 0-1.334-.301-1.799-.902-.461-.602-.691-1.387-.691-2.356v-.082zm1.084.123c0 .719.148 1.282.445 1.688.297.406.707.609 1.231.609.687 0 1.189-.308 1.506-.926v-2.912c-.325-.597-.823-.896-1.495-.896-.531 0-.945.205-1.242.615-.297.41-.445 1.018-.445 1.822zm9.867 2.473c-.422.496-1.041.744-1.857.744-.676 0-1.192-.195-1.547-.586-.352-.394-.529-.976-.533-1.746v-4.125h1.084v4.096c0 .961.39 1.441 1.171 1.441.829 0 1.379-.308 1.653-.926v-4.611h1.084V424h-1.031l-.024-.627zm5.25-.141c.387 0 .725-.117 1.014-.351.289-.235.449-.527.48-.879h1.026c-.02.363-.145.709-.375 1.037-.231.328-.539.59-.926.785a2.637 2.637 0 01-1.219.293c-.863 0-1.551-.287-2.062-.861-.508-.578-.762-1.367-.762-2.367v-.182c0-.617.113-1.166.34-1.646.226-.481.551-.854.972-1.12.426-.265.928-.398 1.506-.398.711 0 1.301.213 1.77.639.472.425.724.978.756 1.658h-1.026a1.475 1.475 0 00-.469-1.008 1.43 1.43 0 00-1.031-.398c-.551 0-.978.199-1.283.597-.301.395-.451.967-.451 1.717v.205c0 .731.15 1.293.451 1.688.301.394.73.591 1.289.591zm5.209-7.107v1.535h1.184v.838h-1.184v3.932c0 .254.053.445.158.574.106.125.285.187.539.187.125 0 .297-.023.516-.07V424a3.15 3.15 0 01-.832.117c-.484 0-.85-.146-1.096-.439-.246-.293-.369-.709-.369-1.248v-3.932h-1.154v-.838h1.154v-1.535h1.084zm6.609 7.875h-1.084v-6.34h1.084V424zm-1.171-8.021c0-.176.052-.325.158-.446.109-.121.269-.181.48-.181.211 0 .371.06.481.181.109.121.164.27.164.446a.62.62 0 01-.164.439c-.11.117-.27.176-.481.176-.211 0-.371-.059-.48-.176a.63.63 0 01-.158-.439zm3.937 1.681l.035.797c.485-.609 1.117-.914 1.899-.914 1.34 0 2.015.756 2.027 2.268V424h-1.084v-4.195c-.004-.457-.109-.795-.316-1.014-.204-.219-.522-.328-.955-.328-.352 0-.661.094-.926.281a1.91 1.91 0 00-.621.738V424h-1.084v-6.34h1.025zm9.287 4.658c0-.293-.111-.519-.334-.679-.219-.164-.603-.305-1.154-.422-.547-.117-.983-.258-1.307-.422-.32-.164-.558-.359-.715-.586a1.418 1.418 0 01-.228-.809c0-.519.219-.959.656-1.318.442-.359 1.004-.539 1.688-.539.718 0 1.3.186 1.746.557.449.371.674.845.674 1.423h-1.09c0-.296-.127-.552-.381-.767-.25-.215-.567-.322-.949-.322-.395 0-.703.086-.926.257a.812.812 0 00-.334.674c0 .262.103.459.31.592.207.133.581.26 1.12.381.543.121.982.266 1.318.433.336.168.584.372.744.61.164.234.246.521.246.861 0 .567-.226 1.022-.68 1.365-.453.34-1.041.51-1.763.51-.508 0-.957-.09-1.348-.269-.39-.18-.697-.43-.92-.75a1.84 1.84 0 01-.328-1.049h1.084c.02.363.164.652.434.867.273.211.633.316 1.078.316.41 0 .738-.082.984-.246.25-.168.375-.39.375-.668zm3.967-6.193v1.535h1.184v.838h-1.184v3.932c0 .254.053.445.158.574.106.125.285.187.539.187.125 0 .297-.023.516-.07V424a3.15 3.15 0 01-.832.117c-.485 0-.85-.146-1.096-.439-.246-.293-.369-.709-.369-1.248v-3.932h-1.154v-.838h1.154v-1.535h1.084zm5.52 2.508a3.19 3.19 0 00-.534-.041c-.711 0-1.193.303-1.447.908v4.5h-1.084v-6.34h1.055l.017.733c.356-.567.86-.85 1.512-.85.211 0 .371.027.481.082v1.008zm4.916 4.74c-.422.496-1.041.744-1.858.744-.676 0-1.191-.195-1.547-.586-.351-.394-.529-.976-.533-1.746v-4.125h1.084v4.096c0 .961.391 1.441 1.172 1.441.828 0 1.379-.308 1.652-.926v-4.611h1.084V424h-1.031l-.023-.627zm5.25-.141c.386 0 .724-.117 1.013-.351a1.24 1.24 0 00.481-.879h1.025a1.957 1.957 0 01-.375 1.037c-.23.328-.539.59-.926.785a2.636 2.636 0 01-1.218.293c-.864 0-1.551-.287-2.063-.861-.508-.578-.762-1.367-.762-2.367v-.182c0-.617.114-1.166.34-1.646.227-.481.551-.854.973-1.12.426-.265.928-.398 1.506-.398.711 0 1.3.213 1.769.639.473.425.725.978.756 1.658h-1.025a1.483 1.483 0 00-.469-1.008 1.43 1.43 0 00-1.031-.398c-.551 0-.979.199-1.284.597-.3.395-.451.967-.451 1.717v.205c0 .731.151 1.293.451 1.688.301.394.731.591 1.29.591zm5.209-7.107v1.535h1.183v.838h-1.183v3.932c0 .254.052.445.158.574.105.125.285.187.539.187.125 0 .297-.023.515-.07V424a3.144 3.144 0 01-.832.117c-.484 0-.849-.146-1.095-.439-.246-.293-.369-.709-.369-1.248v-3.932h-1.155v-.838h1.155v-1.535h1.084zm3.632 7.875h-1.084v-6.34h1.084V424zm-1.172-8.021c0-.176.053-.325.159-.446.109-.121.269-.181.48-.181.211 0 .371.06.481.181.109.121.164.27.164.446a.62.62 0 01-.164.439c-.11.117-.27.176-.481.176-.211 0-.371-.059-.48-.176a.63.63 0 01-.159-.439zm2.625 4.792c0-.621.122-1.179.364-1.675a2.765 2.765 0 011.019-1.149 2.797 2.797 0 011.494-.404c.864 0 1.561.299 2.092.896.535.598.803 1.393.803 2.385v.076c0 .618-.119 1.172-.357 1.664-.235.489-.573.87-1.014 1.143-.438.273-.942.41-1.512.41-.859 0-1.557-.299-2.092-.896-.531-.598-.797-1.389-.797-2.373v-.077zm1.09.129c0 .704.162 1.268.487 1.694.328.426.765.638 1.312.638.551 0 .988-.214 1.313-.644.324-.434.486-1.039.486-1.817 0-.695-.166-1.257-.498-1.687a1.563 1.563 0 00-1.313-.65c-.535 0-.966.212-1.295.638-.328.426-.492 1.035-.492 1.828zm7.067-3.24l.035.797c.484-.609 1.117-.914 1.898-.914 1.34 0 2.016.756 2.028 2.268V424h-1.084v-4.195c-.004-.457-.11-.795-.317-1.014-.203-.219-.521-.328-.955-.328-.351 0-.66.094-.926.281a1.928 1.928 0 00-.621.738V424h-1.084v-6.34h1.026zm9.287 4.658a.788.788 0 00-.334-.679c-.219-.164-.604-.305-1.154-.422-.547-.117-.983-.258-1.307-.422-.32-.164-.559-.359-.715-.586a1.418 1.418 0 01-.228-.809c0-.519.218-.959.656-1.318.441-.359 1.004-.539 1.687-.539.719 0 1.301.186 1.746.557.45.371.674.845.674 1.423h-1.09c0-.296-.127-.552-.38-.767-.25-.215-.567-.322-.95-.322-.394 0-.703.086-.926.257a.813.813 0 00-.333.674c0 .262.103.459.31.592.207.133.58.26 1.119.381.543.121.983.266 1.319.433.335.168.584.372.744.61.164.234.246.521.246.861 0 .567-.227 1.022-.68 1.365-.453.34-1.041.51-1.764.51-.507 0-.957-.09-1.347-.269a2.227 2.227 0 01-.92-.75 1.84 1.84 0 01-.328-1.049h1.084c.019.363.164.652.433.867.274.211.633.316 1.078.316.411 0 .739-.082.985-.246.25-.168.375-.39.375-.668z" fill="#000"/></g></g><g filter="url(#filter4_dd_4375_41927)"><rect x="470" y="310" width="214" height="61" rx="6" fill="url(#paint13_linear_4375_41927)"/><path d="M513 341c0 6.627-5.373 12-12 12s-12-5.373-12-12 5.373-12 12-12 12 5.373 12 12z" fill="#fff"/><path fill-rule="evenodd" clip-rule="evenodd" d="M497 334h8a1 1 0 011 1v12a1 1 0 01-1 1h-8a1 1 0 01-1-1v-12a1 1 0 011-1zm-3 1a3 3 0 013-3h8a3 3 0 013 3v12a3 3 0 01-3 3h-8a3 3 0 01-3-3v-12zm4.5 1.5a1 1 0 000 2h5a1 1 0 000-2h-5zm0 3.5a1 1 0 000 2h5a1 1 0 000-2h-5zm0 3.5a1 1 0 000 2h5a1 1 0 000-2h-5z" fill="#81A332"/><path d="M527.83 342.311l.164 1.125.24-1.014 1.688-5.953h.949l1.647 5.953.234 1.031.182-1.148 1.324-5.836h1.131L533.32 345h-1.025l-1.758-6.217-.135-.65-.134.65-1.823 6.217h-1.025l-2.063-8.531h1.125l1.348 5.842zM540.188 345c-.063-.125-.114-.348-.153-.668-.504.523-1.105.785-1.805.785-.625 0-1.138-.176-1.541-.527a1.73 1.73 0 01-.597-1.348c0-.66.25-1.172.75-1.535.504-.367 1.211-.551 2.121-.551h1.055v-.498c0-.379-.114-.679-.34-.902-.227-.227-.561-.34-1.002-.34-.387 0-.711.098-.973.293-.262.195-.392.432-.392.709h-1.09c0-.316.111-.621.334-.914a2.31 2.31 0 01.914-.703c.386-.172.81-.258 1.271-.258.731 0 1.303.184 1.717.551.414.363.629.865.645 1.506v2.918c0 .582.074 1.044.222 1.388V345h-1.136zm-1.799-.826c.34 0 .662-.088.966-.264.305-.176.526-.404.663-.685v-1.301h-.85c-1.328 0-1.992.388-1.992 1.166 0 .34.113.605.34.797.226.191.517.287.873.287zm7.476-4.541a3.178 3.178 0 00-.533-.041c-.711 0-1.193.303-1.447.908v4.5h-1.084v-6.34h1.054l.018.733c.356-.567.859-.85 1.512-.85.211 0 .371.027.48.082v1.008zm4.067 0a3.182 3.182 0 00-.534-.041c-.71 0-1.193.303-1.447.908v4.5h-1.084v-6.34h1.055l.017.733c.356-.567.86-.85 1.512-.85.211 0 .371.027.481.082v1.008zm2.179 5.367h-1.084v-6.34h1.084V345zm-1.172-8.021c0-.176.053-.325.159-.446.109-.121.269-.181.48-.181.211 0 .371.06.481.181.109.121.164.27.164.446a.62.62 0 01-.164.439c-.11.117-.27.176-.481.176-.211 0-.371-.059-.48-.176a.63.63 0 01-.159-.439zm6.827 8.021c-.063-.125-.114-.348-.153-.668-.504.523-1.105.785-1.804.785-.625 0-1.139-.176-1.541-.527a1.728 1.728 0 01-.598-1.348c0-.66.25-1.172.75-1.535.504-.367 1.211-.551 2.121-.551h1.055v-.498c0-.379-.114-.679-.34-.902-.227-.227-.561-.34-1.002-.34-.387 0-.711.098-.973.293-.261.195-.392.432-.392.709h-1.09c0-.316.111-.621.334-.914a2.31 2.31 0 01.914-.703c.387-.172.81-.258 1.271-.258.731 0 1.303.184 1.717.551.414.363.629.865.645 1.506v2.918c0 .582.074 1.044.222 1.388V345h-1.136zm-1.799-.826c.34 0 .662-.088.967-.264.304-.176.525-.404.662-.685v-1.301h-.85c-1.328 0-1.992.388-1.992 1.166 0 .34.113.605.34.797.226.191.517.287.873.287zm5.437-5.514l.035.797c.485-.609 1.118-.914 1.899-.914 1.34 0 2.016.756 2.027 2.268V345h-1.084v-4.195c-.004-.457-.109-.795-.316-1.014-.203-.219-.522-.328-.955-.328-.352 0-.66.094-.926.281a1.91 1.91 0 00-.621.738V345h-1.084v-6.34h1.025zm7.067-1.535v1.535h1.183v.838h-1.183v3.932c0 .254.052.445.158.574.105.125.285.187.539.187.125 0 .297-.023.516-.07V345a3.155 3.155 0 01-.832.117c-.485 0-.85-.146-1.096-.439-.246-.293-.369-.709-.369-1.248v-3.932h-1.155v-.838h1.155v-1.535h1.084zm4.529 6.287l1.477-4.752h1.16l-2.549 7.319c-.395 1.054-1.022 1.582-1.881 1.582l-.205-.018-.404-.076v-.879l.293.023c.367 0 .652-.074.855-.222.207-.149.377-.42.51-.815l.24-.644-2.262-6.27h1.184l1.582 4.752zm9.129.82c.387 0 .725-.117 1.014-.351.289-.235.449-.527.48-.879h1.025a1.957 1.957 0 01-.375 1.037c-.23.328-.539.59-.925.785a2.637 2.637 0 01-1.219.293c-.863 0-1.551-.287-2.063-.861-.507-.578-.761-1.367-.761-2.367v-.182c0-.617.113-1.166.34-1.646a2.59 2.59 0 01.972-1.12c.426-.265.928-.398 1.506-.398.711 0 1.301.213 1.77.639.472.425.724.978.755 1.658h-1.025a1.475 1.475 0 00-.469-1.008 1.43 1.43 0 00-1.031-.398c-.551 0-.978.199-1.283.597-.301.395-.451.967-.451 1.717v.205c0 .731.15 1.293.451 1.688.301.394.73.591 1.289.591zm3.451-2.461c0-.621.121-1.179.363-1.675a2.76 2.76 0 011.02-1.149 2.792 2.792 0 011.494-.404c.863 0 1.561.299 2.092.896.535.598.803 1.393.803 2.385v.076a3.77 3.77 0 01-.358 1.664c-.234.489-.572.87-1.014 1.143-.437.273-.941.41-1.511.41-.86 0-1.557-.299-2.092-.896-.531-.598-.797-1.389-.797-2.373v-.077zm1.09.129c0 .704.162 1.268.486 1.694.328.426.766.638 1.313.638.551 0 .988-.214 1.312-.644.324-.434.487-1.039.487-1.817 0-.695-.166-1.257-.498-1.687a1.564 1.564 0 00-1.313-.65c-.535 0-.967.212-1.295.638-.328.426-.492 1.035-.492 1.828zm7.066-3.24l.035.797c.485-.609 1.118-.914 1.899-.914 1.34 0 2.016.756 2.027 2.268V345h-1.084v-4.195c-.004-.457-.109-.795-.316-1.014-.203-.219-.522-.328-.955-.328-.352 0-.66.094-.926.281a1.91 1.91 0 00-.621.738V345h-1.084v-6.34h1.025zm5.332 3.117c0-.972.231-1.754.692-2.343.461-.594 1.064-.891 1.81-.891.742 0 1.33.254 1.764.762V336h1.084v9h-.996l-.053-.68c-.433.532-1.037.797-1.81.797-.735 0-1.334-.301-1.799-.902-.461-.602-.692-1.387-.692-2.356v-.082zm1.084.123c0 .719.149 1.282.446 1.688.297.406.707.609 1.23.609.688 0 1.19-.308 1.506-.926v-2.912c-.324-.597-.822-.896-1.494-.896-.531 0-.945.205-1.242.615-.297.41-.446 1.018-.446 1.822zm7.131 3.1h-1.084v-6.34h1.084V345zm-1.172-8.021c0-.176.053-.325.159-.446.109-.121.269-.181.48-.181.211 0 .371.06.48.181a.64.64 0 01.165.446.617.617 0 01-.165.439c-.109.117-.269.176-.48.176-.211 0-.371-.059-.48-.176a.63.63 0 01-.159-.439zm4.383.146v1.535h1.184v.838h-1.184v3.932c0 .254.053.445.158.574.106.125.286.187.539.187.125 0 .297-.023.516-.07V345a3.144 3.144 0 01-.832.117c-.484 0-.85-.146-1.096-.439-.246-.293-.369-.709-.369-1.248v-3.932h-1.154v-.838h1.154v-1.535h1.084zm3.633 7.875h-1.084v-6.34h1.084V345zm-1.172-8.021c0-.176.053-.325.158-.446.11-.121.27-.181.481-.181.211 0 .371.06.48.181.11.121.164.27.164.446a.616.616 0 01-.164.439c-.109.117-.269.176-.48.176-.211 0-.371-.059-.481-.176a.634.634 0 01-.158-.439zm2.625 4.792c0-.621.121-1.179.363-1.675a2.76 2.76 0 011.02-1.149 2.792 2.792 0 011.494-.404c.863 0 1.561.299 2.092.896.535.598.803 1.393.803 2.385v.076a3.77 3.77 0 01-.358 1.664c-.234.489-.572.87-1.014 1.143-.437.273-.941.41-1.511.41-.86 0-1.557-.299-2.092-.896-.531-.598-.797-1.389-.797-2.373v-.077zm1.09.129c0 .704.162 1.268.486 1.694.328.426.766.638 1.313.638.551 0 .988-.214 1.312-.644.324-.434.487-1.039.487-1.817 0-.695-.166-1.257-.498-1.687a1.564 1.564 0 00-1.313-.65c-.535 0-.967.212-1.295.638-.328.426-.492 1.035-.492 1.828zm7.066-3.24l.035.797c.485-.609 1.118-.914 1.899-.914 1.34 0 2.016.756 2.027 2.268V345h-1.084v-4.195c-.004-.457-.109-.795-.316-1.014-.203-.219-.522-.328-.955-.328-.352 0-.66.094-.926.281a1.91 1.91 0 00-.621.738V345h-1.084v-6.34h1.025zm9.287 4.658c0-.293-.111-.519-.334-.679-.218-.164-.603-.305-1.154-.422-.547-.117-.982-.258-1.306-.422-.321-.164-.559-.359-.715-.586a1.411 1.411 0 01-.229-.809c0-.519.219-.959.656-1.318.442-.359 1.004-.539 1.688-.539.719 0 1.301.186 1.746.557.449.371.674.845.674 1.423h-1.09c0-.296-.127-.552-.381-.767-.25-.215-.566-.322-.949-.322-.395 0-.703.086-.926.257a.812.812 0 00-.334.674c0 .262.104.459.311.592.207.133.58.26 1.119.381.543.121.982.266 1.318.433.336.168.584.372.744.61.164.234.246.521.246.861 0 .567-.226 1.022-.679 1.365-.453.34-1.041.51-1.764.51-.508 0-.957-.09-1.348-.269-.39-.18-.697-.43-.92-.75a1.847 1.847 0 01-.328-1.049h1.084c.02.363.164.652.434.867.273.211.633.316 1.078.316.41 0 .738-.082.984-.246.25-.168.375-.39.375-.668z" fill="#000"/></g><g filter="url(#filter5_d_4375_41927)"><rect x="470" y="387" width="214" height="61" rx="6" fill="url(#paint14_linear_4375_41927)"/><circle cx="501" cy="418" r="12" fill="#fff"/><path fill-rule="evenodd" clip-rule="evenodd" d="M508 412h-14a1 1 0 00-1 1v.382l8 4 8-4V413a1 1 0 00-1-1zm3 1.98V413a3 3 0 00-3-3h-14a3 3 0 00-3 3v10a3 3 0 003 3h7.174a6.509 6.509 0 01-.155-2H494a1 1 0 01-1-1v-7.382l7.553 3.776a.998.998 0 00.894 0l7.553-3.776v2.556a6.44 6.44 0 012 .848v-5.003a.254.254 0 000-.039z" fill="#81A332"/><path d="M508.227 421.875l1.898 1.898-3.727 3.727a.855.855 0 01-.375.217l-1.918.523a.28.28 0 01-.345-.345l.523-1.919a.847.847 0 01.217-.374l3.727-3.727zm2.659-.761a1.341 1.341 0 010 1.897l-.364.364-1.897-1.898.363-.363a1.342 1.342 0 011.898 0z" fill="#F39C12"/><path d="M533.266 419.293c-.106.902-.44 1.6-1.002 2.092-.559.488-1.303.732-2.233.732-1.008 0-1.816-.361-2.426-1.084-.605-.722-.908-1.689-.908-2.9v-.821c0-.792.141-1.49.422-2.091.285-.602.688-1.063 1.207-1.383.52-.324 1.121-.486 1.805-.486.906 0 1.633.253 2.18.761.546.504.865 1.203.955 2.098h-1.131c-.098-.68-.311-1.172-.639-1.477-.324-.304-.779-.457-1.365-.457-.719 0-1.283.266-1.693.797-.407.531-.61 1.287-.61 2.268v.826c0 .926.193 1.662.58 2.209.387.547.928.82 1.623.82.625 0 1.104-.14 1.436-.422.336-.285.558-.779.668-1.482h1.131zm5.285 2.08c-.422.496-1.041.744-1.858.744-.675 0-1.191-.195-1.547-.586-.351-.394-.529-.976-.533-1.746v-4.125h1.084v4.096c0 .961.391 1.441 1.172 1.441.828 0 1.379-.308 1.652-.926v-4.611h1.084V422h-1.031l-.023-.627zm6.398-1.055c0-.293-.111-.519-.334-.679-.219-.164-.603-.305-1.154-.422-.547-.117-.982-.258-1.307-.422-.32-.164-.558-.359-.715-.586a1.418 1.418 0 01-.228-.809c0-.519.219-.959.656-1.318.442-.359 1.004-.539 1.688-.539.718 0 1.3.186 1.746.557.449.371.674.845.674 1.423h-1.09c0-.296-.127-.552-.381-.767-.25-.215-.566-.322-.949-.322-.395 0-.703.086-.926.257a.812.812 0 00-.334.674c0 .262.103.459.31.592.207.133.581.26 1.12.381.543.121.982.266 1.318.433.336.168.584.372.744.61.164.234.246.521.246.861 0 .567-.226 1.022-.679 1.365-.454.34-1.042.51-1.764.51-.508 0-.957-.09-1.348-.269-.39-.18-.697-.43-.92-.75a1.847 1.847 0 01-.328-1.049h1.084c.02.363.164.652.434.867.273.211.633.316 1.078.316.41 0 .738-.082.984-.246.25-.168.375-.39.375-.668zm3.967-6.193v1.535h1.184v.838h-1.184v3.932c0 .254.053.445.158.574.106.125.285.187.539.187.125 0 .297-.023.516-.07V422a3.15 3.15 0 01-.832.117c-.485 0-.85-.146-1.096-.439-.246-.293-.369-.709-.369-1.248v-3.932h-1.154v-.838h1.154v-1.535h1.084zm2.051 4.646c0-.621.121-1.179.363-1.675a2.76 2.76 0 011.02-1.149 2.792 2.792 0 011.494-.404c.863 0 1.56.299 2.092.896.535.598.802 1.393.802 2.385v.076c0 .618-.119 1.172-.357 1.664-.235.489-.572.87-1.014 1.143-.437.273-.941.41-1.512.41-.859 0-1.556-.299-2.091-.896-.532-.598-.797-1.389-.797-2.373v-.077zm1.09.129c0 .704.162 1.268.486 1.694.328.426.766.638 1.312.638.551 0 .989-.214 1.313-.644.324-.434.486-1.039.486-1.817 0-.695-.166-1.257-.498-1.687a1.561 1.561 0 00-1.312-.65c-.535 0-.967.212-1.295.638-.328.426-.492 1.035-.492 1.828zm7.06-3.24l.029.703c.465-.547 1.092-.82 1.881-.82.887 0 1.491.34 1.811 1.019a2.42 2.42 0 01.82-.738c.34-.187.74-.281 1.201-.281 1.391 0 2.098.736 2.121 2.209V422h-1.084v-4.184c0-.453-.103-.791-.31-1.013-.207-.227-.555-.34-1.043-.34-.402 0-.736.121-1.002.363-.266.238-.42.561-.463.967V422h-1.09v-4.154c0-.922-.451-1.383-1.353-1.383-.711 0-1.197.303-1.459.908V422h-1.084v-6.34h1.025z" fill="#000"/></g><path fill="url(#paint15_linear_4375_41927)" d="M318 255h414v221H318z"/><defs><linearGradient id="paint0_linear_4375_41927" x1="227.119" y1="96.109" x2="266.782" y2="96.109" gradientUnits="userSpaceOnUse"><stop stop-color="#941759"/><stop offset="1" stop-color="#D35598"/></linearGradient><linearGradient id="paint1_linear_4375_41927" x1="227.081" y1="116.69" x2="266.783" y2="116.69" gradientUnits="userSpaceOnUse"><stop stop-color="#95165B"/><stop offset="1" stop-color="#D35598"/></linearGradient><linearGradient id="paint2_linear_4375_41927" x1="235.562" y1="96.045" x2="258.464" y2="96.045" gradientUnits="userSpaceOnUse"><stop stop-color="#D671A6"/><stop offset="1" stop-color="#F88DC5"/></linearGradient><linearGradient id="paint3_linear_4375_41927" x1="317.354" y1="59.743" x2="357.017" y2="59.743" gradientUnits="userSpaceOnUse"><stop stop-color="#941759"/><stop offset="1" stop-color="#D35598"/></linearGradient><linearGradient id="paint4_linear_4375_41927" x1="317.317" y1="80.324" x2="357.018" y2="80.324" gradientUnits="userSpaceOnUse"><stop stop-color="#95165B"/><stop offset="1" stop-color="#D35598"/></linearGradient><linearGradient id="paint5_linear_4375_41927" x1="325.797" y1="59.679" x2="348.7" y2="59.679" gradientUnits="userSpaceOnUse"><stop stop-color="#D671A6"/><stop offset="1" stop-color="#F88DC5"/></linearGradient><linearGradient id="paint6_linear_4375_41927" x1="259.655" y1="219.603" x2="299.318" y2="219.603" gradientUnits="userSpaceOnUse"><stop stop-color="#941759"/><stop offset="1" stop-color="#D35598"/></linearGradient><linearGradient id="paint7_linear_4375_41927" x1="259.618" y1="240.183" x2="299.319" y2="240.183" gradientUnits="userSpaceOnUse"><stop stop-color="#95165B"/><stop offset="1" stop-color="#D35598"/></linearGradient><linearGradient id="paint8_linear_4375_41927" x1="268.099" y1="219.538" x2="291.001" y2="219.538" gradientUnits="userSpaceOnUse"><stop stop-color="#D671A6"/><stop offset="1" stop-color="#F88DC5"/></linearGradient><linearGradient id="paint9_linear_4375_41927" x1="71.722" y1="136.377" x2="111.385" y2="136.377" gradientUnits="userSpaceOnUse"><stop stop-color="#941759"/><stop offset="1" stop-color="#D35598"/></linearGradient><linearGradient id="paint10_linear_4375_41927" x1="71.685" y1="156.958" x2="111.386" y2="156.958" gradientUnits="userSpaceOnUse"><stop stop-color="#95165B"/><stop offset="1" stop-color="#D35598"/></linearGradient><linearGradient id="paint11_linear_4375_41927" x1="80.166" y1="136.313" x2="103.068" y2="136.313" gradientUnits="userSpaceOnUse"><stop stop-color="#D671A6"/><stop offset="1" stop-color="#F88DC5"/></linearGradient><linearGradient id="paint12_linear_4375_41927" x1="0" y1="260" x2="769.356" y2="451.704" gradientUnits="userSpaceOnUse"><stop stop-color="#fff"/><stop offset=".979" stop-color="#fff" stop-opacity=".29"/><stop offset="1" stop-color="#fff" stop-opacity="0"/></linearGradient><linearGradient id="paint13_linear_4375_41927" x1="470" y1="328.5" x2="705.5" y2="350" gradientUnits="userSpaceOnUse"><stop stop-color="#fff"/><stop offset="1" stop-color="#fff" stop-opacity=".64"/></linearGradient><linearGradient id="paint14_linear_4375_41927" x1="470" y1="405.5" x2="705.5" y2="427" gradientUnits="userSpaceOnUse"><stop stop-color="#fff"/><stop offset="1" stop-color="#fff" stop-opacity=".64"/></linearGradient><linearGradient id="paint15_linear_4375_41927" x1="712" y1="463" x2="362" y2="279.5" gradientUnits="userSpaceOnUse"><stop stop-color="#F2FBDD" stop-opacity=".31"/><stop offset="1" stop-color="#F2FBDD" stop-opacity="0"/></linearGradient><filter id="filter0_dd_4375_41927" x="-15" y="288" width="276" height="123" filterUnits="userSpaceOnUse" color-interpolation-filters="sRGB"><feFlood flood-opacity="0" result="BackgroundImageFix"/><feColorMatrix in="SourceAlpha" values="0 0 0 0 0 0 0 0 0 0 0 0 0 0 0 0 0 0 127 0" result="hardAlpha"/><feOffset dy="1.127"/><feGaussianBlur stdDeviation="1.941"/><feColorMatrix values="0 0 0 0 0 0 0 0 0 0 0 0 0 0 0 0 0 0 0.035 0"/><feBlend in2="BackgroundImageFix" result="effect1_dropShadow_4375_41927"/><feColorMatrix in="SourceAlpha" values="0 0 0 0 0 0 0 0 0 0 0 0 0 0 0 0 0 0 127 0" result="hardAlpha"/><feOffset dy="9"/><feGaussianBlur stdDeviation="15.5"/><feColorMatrix values="0 0 0 0 0 0 0 0 0 0 0 0 0 0 0 0 0 0 0.07 0"/><feBlend in2="effect1_dropShadow_4375_41927" result="effect2_dropShadow_4375_41927"/><feBlend in="SourceGraphic" in2="effect2_dropShadow_4375_41927" result="shape"/></filter><filter id="filter1_d_4375_41927" x="-15" y="365" width="276" height="123" filterUnits="userSpaceOnUse" color-interpolation-filters="sRGB"><feFlood flood-opacity="0" result="BackgroundImageFix"/><feColorMatrix in="SourceAlpha" values="0 0 0 0 0 0 0 0 0 0 0 0 0 0 0 0 0 0 127 0" result="hardAlpha"/><feOffset dy="9"/><feGaussianBlur stdDeviation="15.5"/><feColorMatrix values="0 0 0 0 0 0 0 0 0 0 0 0 0 0 0 0 0 0 0.05 0"/><feBlend in2="BackgroundImageFix" result="effect1_dropShadow_4375_41927"/><feBlend in="SourceGraphic" in2="effect1_dropShadow_4375_41927" result="shape"/></filter><filter id="filter2_dd_4375_41927" x="212" y="288" width="276" height="123" filterUnits="userSpaceOnUse" color-interpolation-filters="sRGB"><feFlood flood-opacity="0" result="BackgroundImageFix"/><feColorMatrix in="SourceAlpha" values="0 0 0 0 0 0 0 0 0 0 0 0 0 0 0 0 0 0 127 0" result="hardAlpha"/><feOffset dy="1.127"/><feGaussianBlur stdDeviation="1.941"/><feColorMatrix values="0 0 0 0 0 0 0 0 0 0 0 0 0 0 0 0 0 0 0.035 0"/><feBlend in2="BackgroundImageFix" result="effect1_dropShadow_4375_41927"/><feColorMatrix in="SourceAlpha" values="0 0 0 0 0 0 0 0 0 0 0 0 0 0 0 0 0 0 127 0" result="hardAlpha"/><feOffset dy="9"/><feGaussianBlur stdDeviation="15.5"/><feColorMatrix values="0 0 0 0 0 0 0 0 0 0 0 0 0 0 0 0 0 0 0.07 0"/><feBlend in2="effect1_dropShadow_4375_41927" result="effect2_dropShadow_4375_41927"/><feBlend in="SourceGraphic" in2="effect2_dropShadow_4375_41927" result="shape"/></filter><filter id="filter3_d_4375_41927" x="212" y="365" width="276" height="123" filterUnits="userSpaceOnUse" color-interpolation-filters="sRGB"><feFlood flood-opacity="0" result="BackgroundImageFix"/><feColorMatrix in="SourceAlpha" values="0 0 0 0 0 0 0 0 0 0 0 0 0 0 0 0 0 0 127 0" result="hardAlpha"/><feOffset dy="9"/><feGaussianBlur stdDeviation="15.5"/><feColorMatrix values="0 0 0 0 0 0 0 0 0 0 0 0 0 0 0 0 0 0 0.02 0"/><feBlend in2="BackgroundImageFix" result="effect1_dropShadow_4375_41927"/><feBlend in="SourceGraphic" in2="effect1_dropShadow_4375_41927" result="shape"/></filter><filter id="filter4_dd_4375_41927" x="439" y="288" width="276" height="123" filterUnits="userSpaceOnUse" color-interpolation-filters="sRGB"><feFlood flood-opacity="0" result="BackgroundImageFix"/><feColorMatrix in="SourceAlpha" values="0 0 0 0 0 0 0 0 0 0 0 0 0 0 0 0 0 0 127 0" result="hardAlpha"/><feOffset dy="1.127"/><feGaussianBlur stdDeviation="1.941"/><feColorMatrix values="0 0 0 0 0 0 0 0 0 0 0 0 0 0 0 0 0 0 0.035 0"/><feBlend in2="BackgroundImageFix" result="effect1_dropShadow_4375_41927"/><feColorMatrix in="SourceAlpha" values="0 0 0 0 0 0 0 0 0 0 0 0 0 0 0 0 0 0 127 0" result="hardAlpha"/><feOffset dy="9"/><feGaussianBlur stdDeviation="15.5"/><feColorMatrix values="0 0 0 0 0 0 0 0 0 0 0 0 0 0 0 0 0 0 0.02 0"/><feBlend in2="effect1_dropShadow_4375_41927" result="effect2_dropShadow_4375_41927"/><feBlend in="SourceGraphic" in2="effect2_dropShadow_4375_41927" result="shape"/></filter><filter id="filter5_d_4375_41927" x="439" y="365" width="276" height="123" filterUnits="userSpaceOnUse" color-interpolation-filters="sRGB"><feFlood flood-opacity="0" result="BackgroundImageFix"/><feColorMatrix in="SourceAlpha" values="0 0 0 0 0 0 0 0 0 0 0 0 0 0 0 0 0 0 127 0" result="hardAlpha"/><feOffset dy="9"/><feGaussianBlur stdDeviation="15.5"/><feColorMatrix values="0 0 0 0 0 0 0 0 0 0 0 0 0 0 0 0 0 0 0.02 0"/><feBlend in2="BackgroundImageFix" result="effect1_dropShadow_4375_41927"/><feBlend in="SourceGraphic" in2="effect1_dropShadow_4375_41927" result="shape"/></filter><clipPath id="clip0_4375_41927"><path fill="#fff" transform="translate(20)" d="M0 0h394v398H0z"/></clipPath><clipPath id="clip1_4375_41927"><rect y="260" width="629" height="208" rx="4" fill="#fff"/></clipPath></defs></svg>