<svg width="670" height="462" fill="none" xmlns="http://www.w3.org/2000/svg"><path opacity=".12" fill-rule="evenodd" clip-rule="evenodd" d="M73.395 93.505C116.616 59.553 187.61 56.027 249.114 40.48c53.977-13.646 105.01-37.727 161.498-32.226 57.357 5.585 101.317 34.216 142.422 61.822 42.587 28.601 82.411 59.558 97.46 99.283 16.537 43.651 26.902 94.315-9.649 132.511-36.011 37.631-111.244 41.798-172.472 57.804-54.863 14.343-107.31 30.263-165.687 30.599-69.239.398-143.434.417-197.545-28.509-57.683-30.836-93.351-79.859-99.306-130.179-5.83-49.258 19.649-100.443 67.56-138.079z" fill="url(#paint0_linear_5099_44515)"/><g clip-path="url(#clip0_5099_44515)"><rect x="181.347" y="25.223" width="451.018" height="414.373" rx="3.758" fill="#fff"/><path fill="url(#paint1_linear_5099_44515)" d="M199.2 40.257h451.018v415.312H199.2z"/><path d="M197.467 54.257V43.569h3.157c.944 0 1.781.21 2.51.631a4.296 4.296 0 011.703 1.791c.402.773.602 1.66.602 2.657v.536c0 1.013-.203 1.904-.609 2.672a4.221 4.221 0 01-1.725 1.777c-.744.416-1.598.624-2.562.624h-3.076zm1.858-9.19v7.707h1.211c.974 0 1.72-.303 2.239-.91.523-.612.79-1.488.8-2.628v-.595c0-1.16-.252-2.045-.756-2.657-.504-.612-1.236-.918-2.195-.918h-1.299zm11.29 9.337c-1.131 0-2.048-.355-2.753-1.065-.7-.714-1.05-1.664-1.05-2.848v-.22c0-.793.152-1.5.455-2.122a3.516 3.516 0 011.292-1.46 3.407 3.407 0 011.85-.522c1.082 0 1.916.345 2.503 1.035.592.69.889 1.667.889 2.93v.719h-5.19c.053.656.271 1.174.653 1.556.387.382.871.573 1.453.573.818 0 1.483-.33 1.997-.991l.962.917a3.231 3.231 0 01-1.278 1.109c-.528.259-1.123.389-1.783.389zm-.213-6.805c-.49 0-.886.171-1.189.514-.299.342-.49.82-.573 1.431h3.399v-.132c-.039-.597-.198-1.047-.477-1.35-.279-.31-.666-.463-1.16-.463zm6.687 6.658h-1.784V42.98h1.784v11.276zm3.847 0h-1.784v-7.943h1.784v7.943zm-1.894-10.006c0-.274.086-.501.257-.682.176-.181.426-.272.749-.272s.572.09.748.272a.937.937 0 01.265.682c0 .27-.088.495-.265.676-.176.176-.425.264-.748.264s-.573-.088-.749-.264a.946.946 0 01-.257-.676zm6.643 7.745l1.681-5.682h1.843l-2.753 7.943h-1.549l-2.775-7.943h1.85l1.703 5.682zm8.038 2.408c-1.13 0-2.048-.355-2.752-1.065-.7-.714-1.05-1.664-1.05-2.848v-.22c0-.793.152-1.5.455-2.122a3.51 3.51 0 011.292-1.46 3.407 3.407 0 011.85-.522c1.081 0 1.916.345 2.503 1.035.592.69.888 1.667.888 2.93v.719h-5.19c.054.656.272 1.174.654 1.556.386.382.871.573 1.453.573.817 0 1.483-.33 1.997-.991l.962.917a3.238 3.238 0 01-1.278 1.109c-.528.259-1.123.389-1.784.389zm-.212-6.805c-.49 0-.886.171-1.19.514-.298.342-.489.82-.572 1.431h3.399v-.132c-.04-.597-.199-1.047-.478-1.35-.279-.31-.665-.463-1.159-.463zm8.948.345a4.41 4.41 0 00-.727-.059c-.817 0-1.368.313-1.651.94v5.432h-1.784v-7.943H240l.044.888c.431-.69 1.028-1.035 1.791-1.035.255 0 .465.035.631.103l-.007 1.674zm4.037 3.758l1.615-5.388h1.902l-3.157 9.147c-.484 1.336-1.307 2.004-2.466 2.004-.26 0-.546-.044-.859-.132v-1.38l.337.022c.451 0 .788-.084 1.013-.25.23-.162.412-.436.544-.822l.257-.683-2.79-7.906h1.923l1.681 5.388zm12.744.397a.807.807 0 00-.396-.727c-.26-.166-.693-.313-1.3-.44-.607-.128-1.113-.29-1.519-.485-.891-.43-1.336-1.055-1.336-1.872 0-.685.288-1.258.866-1.718.577-.46 1.312-.69 2.202-.69.95 0 1.715.235 2.298.705.587.47.881 1.08.881 1.828h-1.784c0-.343-.127-.627-.382-.852-.254-.23-.592-.345-1.013-.345-.391 0-.712.09-.961.272a.858.858 0 00-.367.727c0 .274.115.487.345.638.23.152.694.306 1.394.463.7.151 1.248.335 1.645.55.401.21.697.465.888.764.196.298.293.66.293 1.086 0 .715-.296 1.295-.888 1.74-.592.44-1.368.66-2.327.66-.651 0-1.231-.117-1.74-.352-.509-.235-.905-.558-1.189-.969a2.293 2.293 0 01-.426-1.328h1.733c.024.42.183.746.477.976.294.225.683.338 1.167.338.47 0 .827-.088 1.072-.265a.838.838 0 00.367-.704zm6.812 2.305c-1.13 0-2.048-.355-2.753-1.065-.699-.714-1.049-1.664-1.049-2.848v-.22c0-.793.151-1.5.455-2.122a3.51 3.51 0 011.292-1.46 3.404 3.404 0 011.85-.522c1.081 0 1.916.345 2.503 1.035.592.69.888 1.667.888 2.93v.719h-5.19c.054.656.272 1.174.654 1.556.386.382.871.573 1.453.573.817 0 1.483-.33 1.997-.991l.961.917a3.228 3.228 0 01-1.277 1.109c-.528.259-1.123.389-1.784.389zm-.213-6.805c-.489 0-.885.171-1.189.514-.298.342-.489.82-.572 1.431h3.398v-.132c-.039-.597-.198-1.047-.477-1.35-.279-.31-.665-.463-1.16-.463zm7.026-3.215v1.93h1.402v1.321h-1.402v4.434c0 .304.058.524.176.661.122.132.337.198.646.198.205 0 .413-.024.624-.073v1.38a4.399 4.399 0 01-1.175.169c-1.37 0-2.055-.756-2.055-2.269v-4.5h-1.307v-1.32h1.307v-1.931h1.784zm5.006 0v1.93h1.402v1.321h-1.402v4.434c0 .304.059.524.176.661.122.132.338.198.646.198.206 0 .414-.024.624-.073v1.38a4.392 4.392 0 01-1.174.169c-1.371 0-2.056-.756-2.056-2.269v-4.5h-1.307v-1.32h1.307v-1.931h1.784zm4.669 9.873h-1.784v-7.943h1.784v7.943zm-1.894-10.006a.95.95 0 01.257-.682c.176-.181.425-.272.748-.272s.573.09.749.272a.94.94 0 01.264.682.93.93 0 01-.264.676c-.176.176-.426.264-.749.264s-.572-.088-.748-.264a.942.942 0 01-.257-.676zm5.498 2.063l.051.918c.588-.71 1.358-1.065 2.313-1.065 1.654 0 2.496.947 2.525 2.841v5.249h-1.784V49.11c0-.504-.11-.876-.33-1.116-.215-.245-.57-.367-1.065-.367-.719 0-1.255.325-1.607.976v5.653h-1.784v-7.943h1.681zm6.401 3.913c0-1.233.289-2.217.866-2.951.583-.74 1.354-1.109 2.313-1.109.905 0 1.617.316 2.136.947l.081-.8h1.607v7.7c0 1.043-.325 1.865-.976 2.467-.646.602-1.52.903-2.621.903a4.219 4.219 0 01-1.71-.367c-.553-.24-.974-.556-1.263-.947l.844-1.072c.549.651 1.224.977 2.027.977.592 0 1.059-.162 1.402-.485.342-.318.513-.788.513-1.41v-.535c-.513.572-1.198.859-2.055.859-.93 0-1.691-.37-2.283-1.109-.587-.739-.881-1.762-.881-3.068zm1.777.154c0 .798.161 1.426.484 1.886.328.456.781.683 1.358.683.72 0 1.253-.308 1.6-.925v-3.494c-.337-.602-.866-.903-1.585-.903-.587 0-1.045.233-1.373.697-.323.465-.484 1.15-.484 2.056zm11.517 1.718a.807.807 0 00-.396-.727c-.259-.166-.693-.313-1.299-.44-.607-.128-1.114-.29-1.52-.485-.891-.43-1.336-1.055-1.336-1.872 0-.685.289-1.258.866-1.718.578-.46 1.312-.69 2.203-.69.949 0 1.715.235 2.297.705.587.47.881 1.08.881 1.828h-1.784a1.09 1.09 0 00-.381-.852c-.255-.23-.593-.345-1.013-.345-.392 0-.713.09-.962.272a.858.858 0 00-.367.727c0 .274.115.487.345.638.23.152.695.306 1.395.463.699.151 1.248.335 1.644.55.401.21.697.465.888.764.196.298.294.66.294 1.086 0 .715-.296 1.295-.888 1.74-.593.44-1.368.66-2.327.66-.651 0-1.231-.117-1.74-.352-.509-.235-.906-.558-1.189-.969a2.293 2.293 0 01-.426-1.328h1.732c.025.42.184.746.477.976.294.225.683.338 1.168.338.469 0 .827-.088 1.071-.265a.838.838 0 00.367-.704z" fill="#333945"/><g opacity=".8" filter="url(#filter0_dd_5099_44515)"><rect x="302.558" y="78.781" width="251.818" height="42.283" rx="5.638" fill="#fff"/><path d="M322.274 103.996h-1.194v-7.92l-2.396.88v-1.079l3.404-1.278h.186v9.397zm6.578-3.533c0-1.066.252-1.922.758-2.569.505-.65 1.166-.976 1.984-.976.814 0 1.458.278 1.934.835V94.13h1.188v9.866h-1.092l-.058-.745c-.475.582-1.137.874-1.984.874-.806 0-1.463-.33-1.972-.99-.506-.659-.758-1.52-.758-2.582v-.09zm1.188.135c0 .788.163 1.405.488 1.85.326.445.775.668 1.349.668.754 0 1.304-.338 1.651-1.015v-3.192c-.356-.655-.902-.983-1.638-.983-.583 0-1.036.225-1.362.675-.325.45-.488 1.115-.488 1.997zm10.817 3.398c-.069-.137-.125-.381-.167-.732-.553.574-1.212.861-1.979.861-.685 0-1.248-.193-1.689-.579a1.892 1.892 0 01-.655-1.477c0-.724.274-1.285.822-1.683.552-.402 1.327-.603 2.325-.603h1.156v-.546c0-.416-.124-.746-.372-.99-.249-.248-.615-.372-1.099-.372-.424 0-.779.107-1.066.321-.287.214-.43.473-.43.777h-1.195c0-.347.122-.68.366-1.002a2.547 2.547 0 011.002-.77 3.394 3.394 0 011.394-.283c.801 0 1.428.201 1.882.603.454.399.689.949.707 1.651v3.199c0 .638.081 1.145.244 1.522v.103h-1.246zm-1.972-.906a2.09 2.09 0 001.06-.289c.334-.192.575-.443.725-.751v-1.426h-.931c-1.456 0-2.184.426-2.184 1.278 0 .373.124.664.373.874.248.21.567.314.957.314zm7.007-.835l1.619-5.209h1.272l-2.794 8.023c-.433 1.156-1.12 1.734-2.062 1.734l-.225-.019-.443-.084v-.963l.321.025c.403 0 .715-.081.938-.244.227-.162.413-.46.559-.892l.263-.707-2.479-6.873h1.297l1.734 5.209z" fill="#333945"/><path d="M524.805 98.098l3.261 3.275 3.262-3.275" stroke="#79808D" stroke-width="1.409" stroke-linecap="round" stroke-linejoin="round"/></g><g opacity=".8" filter="url(#filter1_dd_5099_44515)"><g clip-path="url(#clip1_5099_44515)"><rect x="302.558" y="141.735" width="310.075" height="42.283" rx="5.638" fill="#fff"/><path d="M318.677 166.95v-9.352h2.64c.814 0 1.533.18 2.158.54a3.624 3.624 0 011.446 1.535c.342.663.516 1.426.52 2.286v.598c0 .882-.171 1.655-.514 2.319a3.564 3.564 0 01-1.458 1.528c-.629.356-1.364.538-2.203.546h-2.589zm1.234-8.337v7.329h1.297c.951 0 1.689-.296 2.216-.887.531-.591.797-1.432.797-2.524v-.546c0-1.062-.251-1.886-.752-2.473-.497-.591-1.203-.891-2.12-.899h-1.438zm10.097 8.466c-.942 0-1.709-.309-2.3-.925-.591-.621-.886-1.45-.886-2.486v-.218c0-.69.131-1.304.392-1.844a3.075 3.075 0 011.105-1.272 2.78 2.78 0 011.541-.462c.904 0 1.606.297 2.107.893.501.595.751 1.447.751 2.556v.495h-4.708c.017.685.216 1.239.598 1.663.385.42.873.63 1.464.63.42 0 .775-.086 1.066-.257.291-.171.546-.398.765-.681l.725.565c-.582.895-1.455 1.343-2.62 1.343zm-.148-6.231c-.48 0-.882.176-1.207.527-.326.347-.527.835-.604 1.464h3.481v-.09c-.034-.603-.197-1.07-.488-1.4-.291-.334-.685-.501-1.182-.501zm5.53 6.102h-1.188v-9.866h1.188v9.866zm3.199 0h-1.188V160h1.188v6.95zm-1.284-8.793c0-.193.057-.356.173-.488.12-.133.295-.199.527-.199.231 0 .406.066.526.199a.7.7 0 01.18.488.68.68 0 01-.18.482c-.12.128-.295.192-.526.192-.232 0-.407-.064-.527-.192a.692.692 0 01-.173-.482zm5.485 7.181l1.721-5.338h1.214l-2.492 6.95h-.905L339.81 160h1.214l1.766 5.338zm6.873 1.741c-.942 0-1.709-.309-2.3-.925-.591-.621-.886-1.45-.886-2.486v-.218c0-.69.13-1.304.392-1.844a3.08 3.08 0 011.104-1.272c.476-.308.99-.462 1.542-.462.904 0 1.606.297 2.107.893.501.595.751 1.447.751 2.556v.495h-4.708c.017.685.216 1.239.598 1.663.385.42.873.63 1.464.63.42 0 .775-.086 1.066-.257.291-.171.546-.398.765-.681l.725.565c-.582.895-1.455 1.343-2.62 1.343zm-.148-6.231c-.48 0-.882.176-1.208.527-.325.347-.526.835-.603 1.464h3.481v-.09c-.034-.603-.197-1.07-.488-1.4-.291-.334-.685-.501-1.182-.501zm7.599.219a3.564 3.564 0 00-.585-.045c-.779 0-1.308.331-1.586.995v4.933h-1.189V160h1.157l.019.803c.389-.621.942-.931 1.657-.931.231 0 .407.03.527.09v1.105zm3.854 6.012c-.942 0-1.709-.309-2.3-.925-.591-.621-.886-1.45-.886-2.486v-.218c0-.69.13-1.304.392-1.844a3.08 3.08 0 011.104-1.272 2.783 2.783 0 011.542-.462c.903 0 1.606.297 2.107.893.501.595.751 1.447.751 2.556v.495h-4.708c.017.685.216 1.239.597 1.663.386.42.874.63 1.465.63.419 0 .775-.086 1.066-.257.291-.171.546-.398.764-.681l.726.565c-.582.895-1.456 1.343-2.62 1.343zm-.148-6.231c-.48 0-.882.176-1.208.527-.325.347-.526.835-.603 1.464h3.481v-.09c-.034-.603-.197-1.07-.488-1.4-.291-.334-.685-.501-1.182-.501zm3.95 2.569c0-1.066.253-1.922.758-2.569.505-.651 1.167-.976 1.985-.976.813 0 1.458.278 1.933.835v-3.623h1.189v9.866h-1.092l-.058-.745c-.476.582-1.137.874-1.985.874-.805 0-1.462-.33-1.972-.99-.505-.659-.758-1.52-.758-2.582v-.09zm1.188.135c0 .788.163 1.405.489 1.85.325.446.775.668 1.348.668.754 0 1.304-.338 1.651-1.015v-3.192c-.355-.655-.901-.983-1.638-.983-.582 0-1.036.225-1.361.675-.326.449-.489 1.115-.489 1.997z" fill="#333945"/></g></g><g opacity=".8" filter="url(#filter2_dd_5099_44515)"><rect x="196.381" y="262.946" width="357.996" height="42.283" rx="5.638" fill="#fff"/><path d="M216.097 288.161h-1.195v-7.92l-2.396.88v-1.079l3.405-1.278h.186v9.397zm8.145-9.358v1.008h-.219c-.925.017-1.661.291-2.209.822-.548.531-.865 1.278-.951 2.242.493-.565 1.165-.848 2.017-.848.814 0 1.462.287 1.946.861.488.573.732 1.314.732 2.222 0 .964-.263 1.734-.79 2.312-.522.579-1.224.868-2.106.868-.895 0-1.621-.343-2.178-1.028-.557-.69-.835-1.576-.835-2.659v-.456c0-1.722.366-3.036 1.098-3.944.737-.912 1.831-1.379 3.283-1.4h.212zm-1.561 4.213c-.407 0-.782.122-1.124.366-.343.244-.58.551-.713.919v.437c0 .77.173 1.391.52 1.862.347.471.779.707 1.298.707.535 0 .954-.197 1.259-.591.308-.394.462-.91.462-1.548 0-.642-.156-1.161-.469-1.554-.308-.399-.719-.598-1.233-.598zm7.631 4.522c0-.205.06-.377.179-.514.125-.137.309-.205.553-.205.244 0 .428.068.552.205a.721.721 0 01.193.514.683.683 0 01-.193.495c-.124.132-.308.199-.552.199-.244 0-.428-.067-.553-.199a.715.715 0 01-.179-.495zm.006-5.672a.75.75 0 01.18-.513c.124-.137.308-.206.552-.206.244 0 .428.069.553.206a.722.722 0 01.192.513.686.686 0 01-.192.495c-.125.133-.309.199-.553.199-.244 0-.428-.066-.552-.199a.712.712 0 01-.18-.495zm12.223 2.306c0 1.392-.237 2.426-.713 3.103-.475.676-1.218 1.015-2.228 1.015-.998 0-1.737-.33-2.216-.99-.48-.663-.728-1.652-.746-2.967v-1.587c0-1.374.238-2.395.713-3.063.476-.668 1.221-1.002 2.236-1.002 1.006 0 1.747.323 2.222.969.475.643.719 1.636.732 2.981v1.541zm-1.188-1.625c0-1.006-.141-1.738-.424-2.196-.283-.463-.73-.694-1.342-.694-.608 0-1.052.229-1.33.687-.278.458-.422 1.163-.43 2.113v1.902c0 1.01.145 1.757.436 2.241.296.48.741.72 1.337.72.586 0 1.021-.227 1.303-.681.287-.454.437-1.169.45-2.146v-1.946zm8.575 1.625c0 1.392-.238 2.426-.713 3.103-.475.676-1.218 1.015-2.229 1.015-.998 0-1.736-.33-2.216-.99-.479-.663-.728-1.652-.745-2.967v-1.587c0-1.374.238-2.395.713-3.063.475-.668 1.22-1.002 2.235-1.002 1.007 0 1.747.323 2.223.969.475.643.719 1.636.732 2.981v1.541zm-1.188-1.625c0-1.006-.142-1.738-.424-2.196-.283-.463-.73-.694-1.343-.694-.608 0-1.051.229-1.329.687-.279.458-.422 1.163-.431 2.113v1.902c0 1.01.146 1.757.437 2.241.296.48.741.72 1.336.72.587 0 1.021-.227 1.304-.681.287-.454.437-1.169.45-2.146v-1.946z" fill="#333945"/><path d="M531.121 285.027h-3.759a.704.704 0 01-.704-.704v-5.638a.705.705 0 111.409 0v4.933h3.054a.705.705 0 010 1.409zm-3.054-10.805c-5.188 0-9.396 4.207-9.396 9.396 0 5.188 4.208 9.396 9.396 9.396a9.396 9.396 0 000-18.792z" fill="#81A332"/></g><g opacity=".8"><rect x="251.818" y="359.728" width="46.041" height="42.283" rx="5.638" fill="#81A332"/><path d="M272.691 382.534c0-.411-.145-.728-.437-.951-.286-.223-.807-.447-1.56-.674-.754-.227-1.354-.48-1.799-.758-.852-.536-1.278-1.234-1.278-2.094 0-.754.306-1.375.918-1.863.617-.488 1.416-.732 2.396-.732.651 0 1.231.12 1.741.359.51.24.91.583 1.201 1.028.291.441.437.932.437 1.471h-1.619c0-.488-.154-.869-.462-1.143-.304-.279-.741-.418-1.311-.418-.531 0-.944.114-1.239.341-.291.227-.437.543-.437.95 0 .343.158.63.475.861.317.227.84.45 1.568.668.728.214 1.312.46 1.753.739.441.274.764.591.97.95.206.356.308.773.308 1.253 0 .779-.299 1.4-.899 1.863-.595.458-1.404.687-2.428.687a4.61 4.61 0 01-1.869-.373c-.565-.252-1.006-.599-1.323-1.04-.313-.441-.469-.955-.469-1.542h1.625c0 .531.175.942.527 1.233.351.292.854.437 1.509.437.565 0 .989-.113 1.272-.34.287-.231.43-.535.43-.912zm7.111 1.728c-.458.539-1.109.809-1.953.809-.754 0-1.325-.221-1.715-.662-.385-.441-.578-1.079-.578-1.914v-4.503h1.561v4.484c0 .882.366 1.323 1.098 1.323.758 0 1.27-.272 1.535-.816v-4.991h1.561v6.95h-1.471l-.038-.68z" fill="#F9F9F9"/></g><g opacity=".8" filter="url(#filter3_dd_5099_44515)"><rect x="303.498" y="359.728" width="49.8" height="42.283" rx="5.638" fill="#fff"/><path d="M321.21 375.59l3.058 7.631 3.057-7.631h1.599v9.352h-1.233V381.3l.116-3.931-3.07 7.573h-.945l-3.064-7.553.123 3.911v3.642h-1.234v-9.352h1.593zm9.391 5.813c0-.681.133-1.293.398-1.837.27-.544.642-.963 1.118-1.259a3.06 3.06 0 011.638-.443c.946 0 1.71.328 2.293.983.586.655.88 1.526.88 2.614v.084c0 .676-.131 1.284-.392 1.824a2.928 2.928 0 01-1.111 1.252c-.48.3-1.032.45-1.657.45-.943 0-1.707-.328-2.294-.983-.582-.655-.873-1.522-.873-2.601v-.084zm1.195.142c0 .77.177 1.389.533 1.856.359.467.839.7 1.439.7.603 0 1.083-.236 1.438-.707.356-.475.533-1.139.533-1.991 0-.762-.182-1.379-.546-1.85a1.713 1.713 0 00-1.438-.713c-.587 0-1.06.234-1.42.7-.36.467-.539 1.135-.539 2.005z" fill="#000"/></g><g opacity=".8" filter="url(#filter4_dd_5099_44515)"><rect x="358.935" y="359.728" width="45.102" height="42.283" rx="5.638" fill="#fff"/><path d="M381.516 376.605h-3.006v8.337h-1.226v-8.337h-3v-1.015h7.232v1.015zm4.876 7.65c-.463.544-1.141.816-2.036.816-.741 0-1.307-.214-1.696-.642-.386-.433-.58-1.071-.585-1.915v-4.522h1.189v4.49c0 1.054.428 1.58 1.284 1.58.908 0 1.512-.338 1.812-1.014v-5.056h1.188v6.95h-1.131l-.025-.687z" fill="#000"/></g><g opacity=".8" filter="url(#filter5_dd_5099_44515)"><rect x="409.675" y="359.728" width="48.86" height="42.283" rx="5.638" fill="#fff"/><path d="M427.811 381.994l.18 1.233.264-1.111 1.849-6.526h1.041l1.805 6.526.257 1.131.199-1.259 1.452-6.398h1.239l-2.267 9.352h-1.124l-1.927-6.815-.148-.713-.148.713-1.997 6.815h-1.124l-2.261-9.352h1.233l1.477 6.404zm12.153 3.077c-.942 0-1.709-.308-2.299-.925-.591-.621-.887-1.45-.887-2.486v-.218c0-.69.131-1.304.392-1.844a3.088 3.088 0 011.105-1.272 2.78 2.78 0 011.541-.462c.904 0 1.606.298 2.107.893.501.595.752 1.447.752 2.556v.495h-4.709c.018.685.217 1.24.598 1.663.385.42.873.63 1.464.63.42 0 .775-.086 1.067-.257.291-.171.546-.398.764-.681l.726.565c-.583.895-1.456 1.343-2.621 1.343zm-.148-6.231a1.58 1.58 0 00-1.207.527c-.326.347-.527.835-.604 1.465h3.481v-.09c-.034-.604-.197-1.071-.488-1.401-.291-.334-.685-.501-1.182-.501z" fill="#000"/></g><g opacity=".8" filter="url(#filter6_dd_5099_44515)"><rect x="464.173" y="359.728" width="46.041" height="42.283" rx="5.638" fill="#fff"/><path d="M486.754 376.605h-3.006v8.337h-1.227v-8.337h-2.999v-1.015h7.232v1.015zm2.39 2.229c.526-.647 1.212-.97 2.055-.97 1.469 0 2.21.829 2.223 2.486v4.592h-1.189v-4.599c-.004-.501-.12-.871-.347-1.111-.222-.24-.571-.36-1.047-.36a1.71 1.71 0 00-1.014.309 2.076 2.076 0 00-.681.809v4.952h-1.189v-9.866h1.189v3.758z" fill="#000"/></g><g opacity=".8" filter="url(#filter7_dd_5099_44515)"><rect x="515.852" y="359.728" width="42.283" height="42.283" rx="5.638" fill="#fff"/><path d="M537.13 380.812h-3.925v4.13h-1.233v-9.352h5.793v1.015h-4.56v3.199h3.925v1.008zm5.119-1.753a3.564 3.564 0 00-.585-.045c-.779 0-1.308.332-1.586.995v4.933h-1.188v-6.95h1.156l.019.803c.39-.621.942-.931 1.657-.931.231 0 .407.03.527.09v1.105z" fill="#000"/></g><g opacity=".8"><rect x="562.833" y="359.728" width="46.041" height="42.283" rx="5.638" fill="#81A332"/><path d="M583.706 382.534c0-.411-.146-.728-.437-.951-.287-.223-.807-.447-1.561-.674-.753-.227-1.353-.48-1.798-.758-.852-.536-1.278-1.234-1.278-2.094 0-.754.306-1.375.918-1.863.617-.488 1.415-.732 2.396-.732.651 0 1.231.12 1.741.359.509.24.91.583 1.201 1.028.291.441.437.932.437 1.471h-1.619c0-.488-.154-.869-.463-1.143-.304-.279-.74-.418-1.31-.418-.531 0-.944.114-1.24.341-.291.227-.436.543-.436.95 0 .343.158.63.475.861.317.227.839.45 1.567.668.728.214 1.313.46 1.754.739.441.274.764.591.97.95.205.356.308.773.308 1.253 0 .779-.3 1.4-.899 1.863-.596.458-1.405.687-2.428.687a4.61 4.61 0 01-1.869-.373c-.566-.252-1.007-.599-1.324-1.04-.312-.441-.468-.955-.468-1.542h1.625c0 .531.175.942.526 1.233.351.292.855.437 1.51.437.565 0 .989-.113 1.272-.34.286-.231.43-.535.43-.912zm7.053 2.408c-.069-.132-.129-.349-.18-.648a2.431 2.431 0 01-1.825.777c-.697 0-1.267-.199-1.708-.598a1.91 1.91 0 01-.662-1.477c0-.741.274-1.308.823-1.702.552-.398 1.34-.597 2.363-.597h.957v-.456c0-.36-.1-.647-.302-.861-.201-.218-.507-.328-.918-.328-.356 0-.647.09-.874.27a.816.816 0 00-.34.675h-1.561c0-.382.126-.737.379-1.067a2.511 2.511 0 011.028-.783 3.636 3.636 0 011.458-.283c.813 0 1.462.206 1.946.617.484.406.732.98.745 1.721v3.135c0 .625.088 1.124.263 1.496v.109h-1.592zm-1.715-1.124c.308 0 .597-.075.867-.224.274-.15.479-.352.616-.604v-1.311h-.841c-.578 0-1.013.101-1.304.302-.291.202-.437.486-.437.855 0 .299.099.539.296.719.201.176.469.263.803.263z" fill="#F9F9F9"/></g><g opacity=".8" filter="url(#filter8_dd_5099_44515)"><rect x="565.652" y="262.946" width="43.223" height="43.223" rx="5.638" fill="#fff"/><path fill-rule="evenodd" clip-rule="evenodd" d="M587.968 278.921a.704.704 0 10-1.409 0v4.933h-4.933a.704.704 0 100 1.409h4.933v4.933a.705.705 0 101.409 0v-4.933h4.933a.705.705 0 000-1.409h-4.933v-4.933z" fill="#81A332"/></g><g opacity=".8" filter="url(#filter9_dd_5099_44515)"><rect x="569.41" y="78.781" width="43.223" height="43.223" rx="5.638" fill="#fff"/><path fill-rule="evenodd" clip-rule="evenodd" d="M591.726 94.755a.704.704 0 10-1.409 0v4.934h-4.933a.705.705 0 000 1.409h4.933v4.933a.705.705 0 101.409 0v-4.933h4.933a.705.705 0 100-1.41h-4.933v-4.933z" fill="#81A332"/></g><path fill-rule="evenodd" clip-rule="evenodd" d="M226.448 371.473a.938.938 0 00-.939.939v1.88h-1.879a.94.94 0 00-.94.939v11.745a2.819 2.819 0 002.819 2.819h11.275a2.819 2.819 0 002.819-2.819v-11.745a.94.94 0 00-.94-.939h-1.879v-1.88a.938.938 0 00-.939-.939h-.94a.94.94 0 00-.94.939v1.88h-5.637v-1.88a.94.94 0 00-.94-.939h-.94zm10.336 9.866h-11.275v5.637h11.275v-5.637z" fill="#79808D"/><path d="M199.948 100.065c-.983-.283-1.698-.629-2.148-1.038a2.003 2.003 0 01-.668-1.527c0-.684.273-1.249.817-1.694.549-.45 1.261-.674 2.136-.674.596 0 1.127.115 1.592.346.469.23.831.549 1.086.954.258.406.387.85.387 1.33h-1.151c0-.525-.167-.936-.501-1.234-.334-.302-.805-.454-1.413-.454-.565 0-1.006.126-1.324.376-.314.247-.472.59-.472 1.032 0 .354.15.654.448.9.302.243.813.466 1.533.669.723.203 1.288.427 1.694.674.409.242.711.527.906.853.199.326.298.709.298 1.151 0 .704-.274 1.268-.823 1.694-.548.421-1.282.632-2.201.632a4.108 4.108 0 01-1.67-.34c-.517-.231-.916-.545-1.198-.943a2.295 2.295 0 01-.418-1.353h1.151c0 .524.193.94.579 1.246.389.302.908.453 1.556.453.605 0 1.068-.123 1.39-.369.322-.247.483-.583.483-1.008 0-.426-.149-.754-.447-.984-.298-.235-.839-.466-1.622-.692zm7.199 3.99c-.875 0-1.587-.286-2.136-.859-.548-.577-.823-1.346-.823-2.308v-.203c0-.64.122-1.21.364-1.712a2.871 2.871 0 011.026-1.18c.441-.287.918-.43 1.431-.43.839 0 1.492.276 1.957.829.465.553.698 1.344.698 2.374v.459h-4.372c.016.636.2 1.151.554 1.545.358.389.812.584 1.36.584.39 0 .72-.079.99-.238.271-.159.507-.37.71-.633l.674.525c-.541.831-1.352 1.247-2.433 1.247zm-.138-5.786c-.445 0-.819.163-1.121.49-.302.322-.489.775-.561 1.359h3.233v-.083c-.032-.56-.183-.994-.453-1.3-.271-.31-.636-.466-1.098-.466zm4.981-.787l.035.811c.494-.62 1.138-.93 1.933-.93 1.364 0 2.052.77 2.064 2.308v4.265h-1.104v-4.271c-.004-.465-.111-.81-.322-1.032-.207-.222-.531-.334-.972-.334a1.59 1.59 0 00-.942.286 1.94 1.94 0 00-.633.752v4.599h-1.103v-6.454h1.044zm5.427 3.173c0-.99.235-1.785.704-2.386.469-.604 1.084-.906 1.843-.906.756 0 1.354.258 1.795.775v-3.364h1.104v9.162h-1.014l-.054-.692c-.441.54-1.056.811-1.843.811-.747 0-1.358-.306-1.831-.919-.469-.612-.704-1.411-.704-2.397v-.084zm1.104.125c0 .732.151 1.305.453 1.718.302.414.72.62 1.252.62.7 0 1.211-.314 1.533-.942v-2.964c-.33-.609-.837-.913-1.521-.913-.54 0-.962.209-1.264.626-.302.418-.453 1.036-.453 1.855zm14.171-.859h-3.763V103h4.371v.937h-5.517v-8.685h5.458v.943h-4.312v2.791h3.763v.936zm2.899-2.439l.03.716c.473-.557 1.111-.835 1.914-.835.903 0 1.517.346 1.843 1.038a2.46 2.46 0 01.835-.752c.346-.19.754-.286 1.223-.286 1.415 0 2.135.75 2.159 2.248v4.325h-1.103v-4.259c0-.461-.106-.805-.317-1.032-.21-.23-.564-.346-1.061-.346-.41 0-.75.123-1.02.37-.271.243-.428.57-.471.984v4.283h-1.11v-4.23c0-.938-.459-1.407-1.377-1.407-.724 0-1.219.308-1.486.925v4.712h-1.103v-6.454h1.044zm13.658 6.454c-.063-.128-.115-.354-.155-.68-.513.532-1.125.799-1.837.799-.636 0-1.159-.179-1.569-.537a1.76 1.76 0 01-.608-1.372c0-.672.255-1.193.764-1.562.512-.374 1.232-.561 2.159-.561h1.073v-.507c0-.386-.115-.692-.346-.919-.23-.23-.57-.346-1.02-.346-.393 0-.723.1-.99.299-.266.199-.399.44-.399.721h-1.11c0-.322.114-.632.34-.93a2.36 2.36 0 01.931-.716 3.149 3.149 0 011.294-.262c.744 0 1.326.187 1.748.56.421.37.64.881.656 1.533v2.971c0 .592.075 1.063.226 1.413v.096h-1.157zm-1.831-.841c.346 0 .674-.09.984-.269a1.62 1.62 0 00.674-.698v-1.324h-.865c-1.352 0-2.027.396-2.027 1.187 0 .346.115.616.345.811.231.195.527.293.889.293zm5.69.841h-1.103v-6.454h1.103v6.454zm-1.193-8.166c0-.179.054-.33.161-.453.112-.123.275-.185.489-.185.215 0 .378.062.49.185a.653.653 0 01.167.453.632.632 0 01-.167.448c-.112.119-.275.179-.49.179-.214 0-.377-.06-.489-.18a.645.645 0 01-.161-.447zm4.163 8.166h-1.103v-9.162h1.103v9.162zm9.77-2.267h-3.638l-.817 2.267h-1.181l3.316-8.685h1.002l3.322 8.685h-1.175l-.829-2.267zm-3.292-.942h2.952l-1.479-4.062-1.473 4.062zm6.835 3.209v-5.601h-1.02v-.853h1.02v-.662c0-.692.185-1.227.555-1.604.369-.378.892-.567 1.568-.567a2.9 2.9 0 01.758.101l-.06.895a3.178 3.178 0 00-.596-.054c-.358 0-.635.106-.829.317-.195.206-.293.504-.293.894v.68h1.378v.853h-1.378v5.601h-1.103zm5.201-8.017v1.563h1.205v.853h-1.205v4.002c0 .259.054.453.161.585.107.127.29.19.549.19.127 0 .302-.023.525-.071v.895a3.227 3.227 0 01-.847.119c-.493 0-.865-.149-1.116-.447-.25-.299-.375-.722-.375-1.271v-4.002h-1.175v-.853h1.175V95.92h1.103zm5.177 8.136c-.875 0-1.587-.286-2.135-.859-.549-.577-.823-1.346-.823-2.308v-.203c0-.64.121-1.21.364-1.712a2.862 2.862 0 011.025-1.18c.442-.287.919-.43 1.432-.43.839 0 1.491.276 1.956.829.465.553.698 1.344.698 2.374v.459h-4.372c.016.636.201 1.151.555 1.545.358.389.811.584 1.36.584.389 0 .719-.079.99-.238.27-.159.507-.37.71-.633l.673.525c-.54.831-1.351 1.247-2.433 1.247zm-.137-5.786c-.446 0-.819.163-1.121.49-.303.322-.49.775-.561 1.359h3.233v-.083c-.032-.56-.183-.994-.454-1.3-.27-.31-.636-.466-1.097-.466zm7.056.203a3.3 3.3 0 00-.543-.042c-.724 0-1.215.309-1.473.925v4.581h-1.104v-6.454h1.074l.018.746c.362-.577.875-.865 1.539-.865.214 0 .377.028.489.083v1.026zm-87.648 65.831l.154 1.057.226-.952 1.586-5.594h.891l1.548 5.594.22.969.17-1.079 1.245-5.484h1.062l-1.943 8.016h-.964l-1.651-5.841-.127-.611-.127.611-1.712 5.841h-.963l-1.938-8.016h1.057l1.266 5.489zm9.139-2.709c.452-.554 1.039-.831 1.762-.831 1.259 0 1.894.71 1.905 2.131v3.936h-1.018v-3.942c-.004-.429-.103-.747-.298-.952-.191-.206-.49-.309-.897-.309-.331 0-.62.088-.87.265-.25.176-.444.407-.584.693v4.245h-1.018v-8.457h1.018v3.221zm7.664 5.346c-.807 0-1.464-.264-1.971-.793-.506-.532-.76-1.242-.76-2.13v-.187c0-.591.112-1.118.336-1.581.228-.466.543-.829.947-1.09a2.385 2.385 0 011.321-.396c.775 0 1.377.255 1.806.765.43.51.644 1.241.644 2.191v.424h-4.035c.015.588.185 1.063.512 1.426.33.36.749.54 1.255.54.36 0 .665-.074.914-.22.25-.147.468-.342.655-.584l.622.485c-.499.767-1.248 1.15-2.246 1.15zm-.127-5.34c-.411 0-.756.15-1.035.451-.279.298-.451.716-.517 1.255h2.984v-.077c-.029-.517-.169-.917-.418-1.2-.25-.286-.588-.429-1.014-.429zm4.598-.727l.033.749c.455-.573 1.049-.859 1.784-.859 1.258 0 1.893.71 1.904 2.131v3.936h-1.018v-3.942c-.004-.429-.103-.747-.297-.952-.191-.206-.49-.309-.898-.309-.33 0-.62.088-.87.265a1.793 1.793 0 00-.583.693v4.245h-1.019v-5.957h.964zm14.38 2.208c0 .785-.132 1.472-.396 2.059-.264.583-.639 1.029-1.123 1.338-.485.308-1.05.462-1.696.462-.631 0-1.191-.154-1.679-.462-.488-.312-.868-.755-1.14-1.327-.268-.576-.405-1.243-.413-1.999v-.578c0-.771.134-1.451.402-2.042.268-.591.646-1.043 1.134-1.355a3.058 3.058 0 011.685-.473c.642 0 1.208.156 1.696.468.492.308.87.758 1.134 1.349.264.587.396 1.271.396 2.053v.507zm-1.051-.518c0-.95-.191-1.679-.573-2.185-.382-.511-.916-.766-1.602-.766-.668 0-1.195.255-1.58.766-.382.506-.578 1.211-.589 2.114v.589c0 .921.192 1.646.578 2.174.389.525.923.788 1.602.788.683 0 1.211-.248 1.586-.743.374-.5.567-1.214.578-2.142v-.595zm5.357-.776a3.032 3.032 0 00-.501-.039c-.668 0-1.122.285-1.36.854v4.228h-1.019v-5.957h.991l.017.688c.334-.532.807-.798 1.42-.798.198 0 .349.026.452.077v.947zm.583 2.015c0-.914.217-1.648.65-2.202.433-.558 1-.837 1.701-.837.698 0 1.25.238 1.657.716v-3.106h1.019v8.457h-.936l-.05-.639c-.407.5-.974.749-1.701.749-.69 0-1.253-.282-1.69-.848-.433-.565-.65-1.303-.65-2.213v-.077zm1.019.116c0 .675.139 1.204.418 1.585.279.382.665.573 1.156.573.646 0 1.118-.29 1.415-.87v-2.736c-.304-.562-.772-.843-1.404-.843-.499 0-.888.193-1.167.578-.279.386-.418.957-.418 1.713zm8.065 3.022c-.807 0-1.464-.264-1.971-.793-.506-.532-.759-1.242-.759-2.13v-.187c0-.591.112-1.118.336-1.581.227-.466.543-.829.946-1.09a2.386 2.386 0 011.322-.396c.774 0 1.376.255 1.806.765.429.51.644 1.241.644 2.191v.424h-4.036c.015.588.186 1.063.512 1.426.331.36.749.54 1.256.54.359 0 .664-.074.913-.22.25-.147.468-.342.656-.584l.622.485c-.499.767-1.248 1.15-2.247 1.15zm-.126-5.34c-.411 0-.756.15-1.035.451-.279.298-.452.716-.518 1.255h2.984v-.077c-.029-.517-.169-.917-.418-1.2-.25-.286-.587-.429-1.013-.429zm6.513.187a3.014 3.014 0 00-.501-.039c-.668 0-1.121.285-1.36.854v4.228h-1.018v-5.957h.991l.016.688c.334-.532.808-.798 1.42-.798.199 0 .349.026.452.077v.947zm5.032 5.043h-1.057v-8.016h1.057v8.016zm5.247-1.58a.743.743 0 00-.314-.639c-.205-.154-.567-.286-1.085-.396-.513-.11-.923-.242-1.227-.396-.301-.155-.525-.338-.672-.551a1.33 1.33 0 01-.215-.76c0-.488.206-.901.617-1.239.415-.337.943-.506 1.586-.506.675 0 1.222.174 1.64.523.422.349.633.795.633 1.338h-1.024c0-.279-.119-.52-.358-.721-.234-.202-.532-.303-.891-.303-.371 0-.661.081-.87.242a.762.762 0 00-.314.633c0 .246.097.431.292.556.194.125.545.244 1.051.358.51.114.923.25 1.239.407.316.158.549.349.699.573.154.22.231.49.231.809 0 .533-.212.96-.638 1.283-.426.32-.978.479-1.657.479-.478 0-.9-.084-1.267-.253a2.087 2.087 0 01-.864-.705 1.722 1.722 0 01-.308-.985h1.018c.019.341.154.613.408.815.256.198.594.297 1.013.297.385 0 .693-.077.925-.231.234-.158.352-.367.352-.628zm-63.595 62.442h-3.359l-.754 2.092h-1.09l3.061-8.016h.925l3.067 8.016h-1.085l-.765-2.092zm-3.039-.87h2.725l-1.365-3.749-1.36 3.749zm7.091-4.437v1.442h1.112v.787h-1.112v3.695c0 .238.049.418.149.539.099.118.268.176.506.176.118 0 .279-.022.485-.066v.826c-.268.074-.529.11-.782.11-.455 0-.799-.137-1.03-.413-.231-.275-.347-.666-.347-1.172v-3.695h-1.084v-.787h1.084v-1.442h1.019zm-2.312 110.767c0 .786-.133 1.472-.397 2.059-.264.584-.638 1.03-1.123 1.338-.484.308-1.05.462-1.696.462-.631 0-1.191-.154-1.679-.462-.488-.312-.868-.754-1.14-1.327-.268-.576-.405-1.242-.412-1.998v-.578c0-.771.133-1.452.401-2.043.268-.591.646-1.042 1.135-1.354.491-.316 1.053-.474 1.684-.474.643 0 1.208.156 1.696.468.492.308.87.758 1.134 1.349.264.587.397 1.272.397 2.054v.506zm-1.052-.517c0-.951-.191-1.68-.573-2.186-.381-.51-.915-.765-1.602-.765-.668 0-1.194.255-1.58.765-.382.506-.578 1.211-.589 2.114v.589c0 .921.193 1.646.578 2.175.389.525.923.787 1.602.787.683 0 1.212-.248 1.586-.743.374-.499.567-1.213.578-2.142v-.594zm3.441-1.691l.033.749c.455-.573 1.05-.859 1.784-.859 1.259 0 1.894.71 1.905 2.131v3.936h-1.019v-3.942c-.003-.429-.103-.747-.297-.952-.191-.206-.49-.308-.897-.308-.331 0-.621.088-.87.264-.25.176-.444.407-.584.694v4.244h-1.018v-5.957h.963z" fill="#79808D"/><path d="M515.532 335.509c-.09.777-.378 1.378-.863 1.802-.481.42-1.122.631-1.922.631-.868 0-1.565-.311-2.09-.934-.521-.622-.782-1.455-.782-2.498v-.707c0-.683.121-1.283.363-1.801a2.74 2.74 0 011.04-1.191c.447-.28.966-.419 1.554-.419.781 0 1.407.218 1.878.656.471.434.745 1.036.822 1.807h-.974c-.084-.586-.267-1.01-.55-1.272-.279-.263-.671-.394-1.176-.394-.619 0-1.105.229-1.458.687-.35.457-.525 1.108-.525 1.953v.711c0 .798.167 1.432.5 1.903.333.471.799.706 1.398.706.538 0 .95-.121 1.236-.363.289-.246.481-.671.575-1.277h.974zm4.553 1.792c-.364.427-.897.641-1.6.641-.582 0-1.026-.168-1.333-.505-.302-.34-.455-.841-.459-1.504v-3.553h.934v3.528c0 .828.336 1.241 1.009 1.241.713 0 1.188-.265 1.423-.797v-3.972h.934v5.461h-.888l-.02-.54zm5.511-.909a.678.678 0 00-.288-.585c-.188-.141-.52-.262-.994-.363-.471-.101-.846-.222-1.126-.364-.275-.141-.481-.309-.615-.504a1.217 1.217 0 01-.197-.697c0-.447.188-.826.565-1.135.38-.31.865-.465 1.454-.465.619 0 1.12.16 1.504.48.386.319.58.728.58 1.226h-.939c0-.256-.109-.476-.328-.661-.215-.185-.488-.278-.817-.278-.34 0-.606.074-.798.222a.699.699 0 00-.287.581c0 .225.089.395.267.51.178.114.5.223.964.328.468.104.846.228 1.135.373.29.145.503.32.641.525.142.202.212.449.212.742 0 .488-.195.88-.585 1.176-.39.292-.897.439-1.519.439-.438 0-.824-.078-1.161-.232-.336-.155-.6-.37-.792-.646a1.584 1.584 0 01-.283-.904h.934a.978.978 0 00.373.747c.236.182.545.273.929.273.353 0 .636-.071.848-.212.215-.145.323-.337.323-.576zm3.416-5.334v1.322h1.02v.722h-1.02v3.386c0 .219.046.384.137.495.091.108.245.161.464.161.108 0 .256-.02.444-.06v.757a2.719 2.719 0 01-.717.101c-.417 0-.731-.126-.943-.379-.212-.252-.318-.61-.318-1.075v-3.386h-.994v-.722h.994v-1.322h.933zm1.767 4.002c0-.535.104-1.016.313-1.443.212-.428.504-.757.878-.99a2.405 2.405 0 011.287-.348c.743 0 1.344.258 1.801.772.461.515.692 1.2.692 2.054v.066c0 .532-.103 1.009-.308 1.433a2.296 2.296 0 01-.873.984 2.402 2.402 0 01-1.302.354c-.74 0-1.341-.258-1.802-.772-.457-.515-.686-1.196-.686-2.044v-.066zm.939.111c0 .606.139 1.092.418 1.459.283.366.66.55 1.131.55.474 0 .851-.185 1.13-.555.28-.374.419-.895.419-1.565 0-.599-.143-1.083-.429-1.453a1.345 1.345 0 00-1.13-.561c-.461 0-.833.184-1.116.55-.282.367-.423.892-.423 1.575zm6.081-2.791l.025.606c.4-.471.941-.707 1.62-.707.764 0 1.284.293 1.56.878.181-.262.417-.474.706-.635.293-.162.638-.243 1.035-.243 1.198 0 1.806.634 1.827 1.903v3.659h-.934v-3.604c0-.39-.089-.681-.267-.873-.179-.195-.478-.292-.899-.292-.346 0-.634.104-.863.313-.229.205-.361.482-.398.832v3.624h-.939v-3.578c0-.794-.389-1.191-1.166-1.191-.612 0-1.031.26-1.257.782v3.987h-.933v-5.461h.883zm10.452 5.562c-.74 0-1.343-.242-1.807-.727-.464-.488-.696-1.139-.696-1.953v-.172c0-.541.102-1.024.307-1.448a2.43 2.43 0 01.868-.999 2.182 2.182 0 011.212-.364c.71 0 1.261.234 1.655.702.394.467.591 1.137.591 2.008v.389h-3.7c.014.538.17.974.47 1.307.302.33.686.495 1.15.495.33 0 .609-.068.838-.202.229-.135.429-.313.601-.535l.57.444c-.458.703-1.144 1.055-2.059 1.055zm-.116-4.896c-.377 0-.693.138-.949.414-.256.273-.414.656-.474 1.151h2.735v-.071c-.027-.474-.155-.841-.384-1.1-.228-.262-.538-.394-.928-.394zm5.97.172a2.744 2.744 0 00-.459-.035c-.613 0-1.028.26-1.247.782v3.876h-.933v-5.461h.908l.015.631c.306-.488.74-.732 1.302-.732.182 0 .32.024.414.071v.868zm1.514-2.569l-.106 1.857h-.651l.005-2.417h.752v.56zm4.012 5.743a.68.68 0 00-.287-.585c-.189-.141-.52-.262-.995-.363-.471-.101-.846-.222-1.125-.364-.276-.141-.481-.309-.616-.504a1.224 1.224 0 01-.197-.697c0-.447.189-.826.566-1.135.38-.31.864-.465 1.453-.465.619 0 1.121.16 1.504.48.387.319.581.728.581 1.226h-.939c0-.256-.11-.476-.328-.661-.216-.185-.488-.278-.818-.278-.34 0-.605.074-.797.222a.7.7 0 00-.288.581c0 .225.089.395.268.51.178.114.499.223.964.328.467.104.846.228 1.135.373.289.145.503.32.641.525.141.202.212.449.212.742 0 .488-.195.88-.585 1.176-.391.292-.897.439-1.52.439-.437 0-.824-.078-1.16-.232a1.914 1.914 0 01-.793-.646 1.59 1.59 0 01-.282-.904h.933a.979.979 0 00.374.747c.235.182.545.273.928.273.354 0 .636-.071.848-.212.216-.145.323-.337.323-.576zm5.728 1.449h-.933v-7.752h.933v7.752zm1.252-2.781c0-.535.104-1.016.313-1.443.212-.428.505-.757.878-.99a2.405 2.405 0 011.287-.348c.744 0 1.344.258 1.802.772.461.515.691 1.2.691 2.054v.066c0 .532-.103 1.009-.308 1.433a2.296 2.296 0 01-.873.984 2.402 2.402 0 01-1.302.354c-.74 0-1.341-.258-1.802-.772-.457-.515-.686-1.196-.686-2.044v-.066zm.939.111c0 .606.139 1.092.419 1.459.282.366.659.55 1.13.55.474 0 .851-.185 1.131-.555.279-.374.418-.895.418-1.565 0-.599-.143-1.083-.429-1.453a1.345 1.345 0 00-1.13-.561c-.461 0-.833.184-1.115.55-.283.367-.424.892-.424 1.575zm7.393 2.009c.333 0 .624-.101.873-.303.249-.202.387-.454.414-.757h.883a1.679 1.679 0 01-.323.893 2.112 2.112 0 01-.797.676c-.33.169-.68.253-1.05.253-.743 0-1.335-.248-1.776-.742-.438-.498-.656-1.178-.656-2.039v-.156c0-.532.097-1.005.292-1.419a2.25 2.25 0 01.838-.964c.367-.228.799-.343 1.297-.343.613 0 1.121.184 1.524.55.407.367.624.843.651 1.429h-.883a1.267 1.267 0 00-.404-.868 1.23 1.23 0 00-.888-.344c-.474 0-.843.172-1.105.515-.259.34-.389.833-.389 1.479v.176c0 .63.13 1.114.389 1.454.259.34.629.51 1.11.51zm6.591.661c-.053-.108-.097-.3-.131-.576-.434.451-.952.677-1.554.677-.539 0-.981-.152-1.328-.454a1.491 1.491 0 01-.514-1.161c0-.569.215-1.01.646-1.322.434-.317 1.043-.475 1.827-.475h.908v-.429c0-.326-.098-.585-.293-.777-.195-.195-.482-.293-.863-.293-.333 0-.612.084-.837.253-.226.168-.339.371-.339.61h-.938c0-.272.096-.535.287-.787.196-.256.458-.458.788-.606a2.666 2.666 0 011.095-.222c.629 0 1.122.158 1.479.475.356.313.541.745.555 1.297v2.513c0 .501.064.9.191 1.196v.081h-.979zm-1.549-.712c.293 0 .57-.075.833-.227.262-.151.452-.348.57-.59v-1.121h-.732c-1.144 0-1.716.335-1.716 1.005 0 .292.098.521.293.686.195.165.446.247.752.247zm4.815.712h-.934v-7.752h.934v7.752zm5.329-6.783v1.322h1.02v.722h-1.02v3.386c0 .219.046.384.136.495.091.108.246.161.465.161.107 0 .255-.02.444-.06v.757a2.725 2.725 0 01-.717.101c-.417 0-.732-.126-.944-.379-.212-.252-.318-.61-.318-1.075v-3.386h-.994v-.722h.994v-1.322h.934zm3.129 6.783h-.934v-5.461h.934v5.461zm-1.009-6.909c0-.152.045-.279.136-.384.094-.104.232-.156.414-.156.182 0 .319.052.414.156a.553.553 0 01.141.384.534.534 0 01-.141.378c-.095.101-.232.152-.414.152-.182 0-.32-.051-.414-.152a.543.543 0 01-.136-.378zm3.386 1.448l.025.606c.401-.471.941-.707 1.62-.707.764 0 1.284.293 1.56.878.182-.262.417-.474.706-.635.293-.162.638-.243 1.035-.243 1.198 0 1.807.634 1.827 1.903v3.659h-.934v-3.604c0-.39-.089-.681-.267-.873-.179-.195-.478-.292-.899-.292-.346 0-.634.104-.863.313-.228.205-.361.482-.398.832v3.624h-.939v-3.578c0-.794-.389-1.191-1.166-1.191-.612 0-1.031.26-1.256.782v3.987h-.934v-5.461h.883zm10.452 5.562c-.74 0-1.342-.242-1.807-.727-.464-.488-.696-1.139-.696-1.953v-.172c0-.541.102-1.024.308-1.448.208-.427.498-.76.868-.999a2.177 2.177 0 011.211-.364c.71 0 1.262.234 1.655.702.394.467.591 1.137.591 2.008v.389h-3.7c.014.538.17.974.47 1.307.303.33.686.495 1.151.495.329 0 .608-.068.837-.202.229-.135.429-.313.601-.535l.57.444c-.457.703-1.144 1.055-2.059 1.055zm-.116-4.896c-.377 0-.693.138-.949.414-.256.273-.414.656-.474 1.151h2.735v-.071c-.027-.474-.155-.841-.383-1.1-.229-.262-.539-.394-.929-.394z" fill="#C5C5C5"/><path d="M202.745 247.664h-2.286l-1.136 6.551h-.944l1.136-6.551h-2.286l.141-.797h5.516l-.141.797zm2.357.989c.457.007.849.131 1.176.374.326.242.567.577.721 1.004.158.424.212.888.162 1.393l-.01.111a3.677 3.677 0 01-.475 1.443 2.779 2.779 0 01-.979 1c-.4.239-.839.351-1.317.338-.454-.007-.846-.131-1.176-.374a2.086 2.086 0 01-.717-.989 3.187 3.187 0 01-.161-1.378c.05-.565.204-1.073.459-1.524.256-.451.584-.799.984-1.044a2.365 2.365 0 011.333-.354zm-1.858 2.927a3.183 3.183 0 000 .662c.034.397.152.713.354.948.205.236.478.359.817.369.303.01.582-.064.838-.222.256-.162.471-.404.646-.727.175-.323.288-.681.338-1.075.027-.31.032-.57.015-.782-.04-.407-.163-.729-.368-.964-.205-.236-.478-.36-.818-.374-.471-.01-.871.175-1.201.555-.329.381-.533.879-.61 1.494l-.011.116zm10.513 1.156c.05-.377-.156-.642-.621-.797l-.949-.278c-.8-.276-1.187-.733-1.16-1.373.023-.481.242-.874.656-1.181.417-.309.906-.46 1.468-.454.552.007 1 .169 1.343.485.346.313.513.721.499 1.226l-.908-.005a.853.853 0 00-.257-.666c-.179-.172-.416-.261-.712-.268a1.334 1.334 0 00-.818.233.85.85 0 00-.368.595c-.044.316.15.547.58.692l.46.126c.625.161 1.07.371 1.332.631.262.259.384.58.363.963-.02.34-.131.636-.333.889a1.923 1.923 0 01-.807.58 2.737 2.737 0 01-1.075.182c-.579-.007-1.057-.175-1.433-.505-.377-.333-.559-.76-.545-1.282l.913.005c0 .306.098.552.293.737.195.185.462.278.802.278a1.6 1.6 0 00.863-.207c.242-.148.38-.35.414-.606zm4.199 1.58c-.68-.014-1.211-.264-1.595-.752-.383-.488-.545-1.112-.484-1.873l.025-.217a3.656 3.656 0 01.479-1.483c.266-.448.589-.784.969-1.01.38-.228.791-.338 1.232-.328.562.014 1.002.2 1.322.56.32.36.495.848.525 1.464.01.219.003.437-.02.656l-.056.419h-3.568c-.061.495.02.915.242 1.262.226.346.56.526 1.005.54.538.013 1.036-.229 1.493-.727l.525.444c-.228.33-.525.589-.888.777-.36.185-.762.275-1.206.268zm.58-4.901a1.342 1.342 0 00-.989.384c-.279.266-.501.661-.666 1.186l2.655.005.02-.081c.054-.424-.015-.775-.207-1.055a.955.955 0 00-.813-.439zm3.407 4.8h-.909l1.343-7.752h.913l-1.347 7.752zm3.856.101c-.68-.014-1.212-.264-1.595-.752-.384-.488-.545-1.112-.485-1.873l.026-.217a3.656 3.656 0 01.479-1.483c.266-.448.589-.784.969-1.01a2.25 2.25 0 011.231-.328c.562.014 1.003.2 1.323.56.319.36.494.848.525 1.464.01.219.003.437-.021.656l-.055.419h-3.568c-.061.495.02.915.242 1.262.225.346.56.526 1.004.54.539.013 1.037-.229 1.494-.727l.525.444c-.229.33-.525.589-.888.777-.36.185-.762.275-1.206.268zm.58-4.901a1.341 1.341 0 00-.989.384c-.279.266-.501.661-.666 1.186l2.654.005.02-.081c.054-.424-.015-.775-.206-1.055a.956.956 0 00-.813-.439zm4.724 4.144c.326.006.621-.088.883-.283.262-.198.434-.457.515-.777l.863-.005a1.948 1.948 0 01-.414.939 2.277 2.277 0 01-.843.661c-.34.158-.688.232-1.045.222-.454-.007-.839-.125-1.155-.353a2.021 2.021 0 01-.692-.964c-.148-.414-.198-.879-.151-1.393l.025-.253c.064-.525.217-.994.459-1.408.243-.414.559-.735.949-.964a2.35 2.35 0 011.292-.328c.572.014 1.03.206 1.373.576.343.37.515.839.515 1.408l-.853-.005c-.007-.357-.106-.645-.298-.863-.192-.222-.451-.34-.777-.354-.475-.01-.87.167-1.186.53-.313.364-.508.872-.586 1.524l-.015.132c-.02.215-.023.437-.01.666.024.393.135.705.333.933.199.229.471.349.818.359zm5.405-6.127l-.232 1.322h.994l-.126.722h-.989l-.571 3.396c-.01.088-.011.169-.005.243.024.262.167.393.429.393.111 0 .259-.017.444-.05l-.07.762a2.51 2.51 0 01-.666.091c-.364-.007-.636-.14-.818-.399-.182-.262-.252-.614-.212-1.055l.555-3.381h-.964l.126-.722h.964l.232-1.322h.909zm5.864 0l-.232 1.322h.994l-.126.722h-.989l-.57 3.396a1.18 1.18 0 00-.005.243c.023.262.166.393.429.393.111 0 .259-.017.444-.05l-.071.762a2.51 2.51 0 01-.666.091c-.363-.007-.636-.14-.818-.399-.181-.262-.252-.614-.212-1.055l.556-3.381h-.964l.126-.722h.964l.232-1.322h.908zm2.625 1.988c.477-.521 1.027-.775 1.65-.762.511.007.89.184 1.135.53.249.343.342.826.278 1.449l-.596 3.578h-.913l.601-3.593c.02-.165.021-.318.005-.46-.058-.471-.335-.711-.833-.721-.559-.014-1.04.279-1.443.878l-.677 3.896h-.913l1.347-7.752h.914l-.555 2.957zm6.227 4.896c-.679-.014-1.211-.264-1.594-.752-.384-.488-.545-1.112-.485-1.873l.025-.217a3.657 3.657 0 01.48-1.483c.266-.448.589-.784.969-1.01.38-.228.79-.338 1.231-.328.562.014 1.003.2 1.322.56.32.36.495.848.525 1.464.01.219.004.437-.02.656l-.055.419h-3.569c-.06.495.021.915.243 1.262.225.346.56.526 1.004.54.538.013 1.036-.229 1.494-.727l.525.444c-.229.33-.525.589-.888.777-.36.185-.763.275-1.207.268zm.581-4.901a1.341 1.341 0 00-.989.384c-.28.266-.502.661-.667 1.186l2.655.005.02-.081c.054-.424-.015-.775-.207-1.055a.953.953 0 00-.812-.439zm5.213 2.059c.067-.555.22-1.056.459-1.504.239-.447.534-.782.884-1.004a2.018 2.018 0 011.155-.318c.609.014 1.077.236 1.403.666l.525-2.851h.914l-1.343 7.752h-.833l.096-.586c-.43.471-.962.7-1.594.687-.505-.014-.907-.211-1.207-.591-.299-.383-.461-.896-.484-1.539a4.913 4.913 0 01.025-.712zm.878.525c-.01.481.076.855.258 1.121.181.265.447.402.797.408.528.024.998-.242 1.408-.797l.434-2.523c-.202-.498-.569-.754-1.1-.767a1.382 1.382 0 00-.954.328c-.272.225-.481.543-.626.953a3.99 3.99 0 00-.217 1.277zm6.924 2.317c-.679-.014-1.211-.264-1.594-.752-.384-.488-.545-1.112-.485-1.873l.025-.217a3.657 3.657 0 01.48-1.483c.266-.448.589-.784.969-1.01.38-.228.79-.338 1.231-.328.562.014 1.003.2 1.322.56.32.36.495.848.525 1.464.01.219.004.437-.02.656l-.055.419h-3.568c-.061.495.02.915.242 1.262.225.346.56.526 1.004.54.538.013 1.036-.229 1.494-.727l.525.444c-.229.33-.525.589-.888.777-.36.185-.762.275-1.207.268zm.581-4.901a1.341 1.341 0 00-.989.384c-.28.266-.502.661-.667 1.186l2.655.005.02-.081c.054-.424-.015-.775-.207-1.055a.953.953 0 00-.812-.439zm3.406 4.8h-.908l1.342-7.752h.914l-1.348 7.752zm2.483 0h-.908l.949-5.461h.908l-.949 5.461zm.752-7.454a.508.508 0 01.54.53.54.54 0 01-.54.55.504.504 0 01-.388-.137.493.493 0 01-.147-.383.576.576 0 01.152-.394.53.53 0 01.383-.166zm2.726 6.177l1.968-4.184h.964l-2.751 5.461h-.696l-1.07-5.461h.898l.687 4.184zm5.213 1.378c-.68-.014-1.211-.264-1.595-.752-.383-.488-.545-1.112-.484-1.873l.025-.217a3.656 3.656 0 01.479-1.483c.266-.448.589-.784.969-1.01a2.254 2.254 0 011.232-.328c.562.014 1.002.2 1.322.56.32.36.495.848.525 1.464.01.219.003.437-.02.656l-.056.419h-3.568c-.06.495.02.915.242 1.262.226.346.561.526 1.005.54.538.013 1.036-.229 1.494-.727l.524.444a2.4 2.4 0 01-.888.777c-.36.185-.762.275-1.206.268zm.58-4.901a1.344 1.344 0 00-.989.384c-.279.266-.501.661-.666 1.186l2.655.005.02-.081c.054-.424-.015-.775-.207-1.055a.955.955 0 00-.813-.439zm5.814.172l-.429-.045c-.585 0-1.046.264-1.383.792l-.671 3.881h-.913l.949-5.461.883-.005-.137.636c.387-.508.843-.755 1.368-.742.111 0 .256.025.434.076l-.101.868zm2.095 3.25l1.943-4.083h1.009l-3.24 6.369c-.451.885-1.03 1.323-1.736 1.312a2.933 2.933 0 01-.55-.09l.081-.757.237.025a1.18 1.18 0 00.747-.197c.212-.141.398-.372.56-.691l.328-.626-.944-5.345h.954l.611 4.083zm7.782-5.405l-.232 1.322h.994l-.126.722h-.989l-.571 3.396c-.01.088-.011.169-.005.243.024.262.167.393.429.393.111 0 .259-.017.444-.05l-.07.762c-.219.06-.441.091-.667.091-.363-.007-.635-.14-.817-.399-.182-.262-.252-.614-.212-1.055l.555-3.381h-.964l.126-.722h.964l.232-1.322h.909zm1.908 6.783h-.909l.949-5.461h.908l-.948 5.461zm.752-7.454a.486.486 0 01.383.141.51.51 0 01.157.389.545.545 0 01-.54.55.505.505 0 01-.389-.137.49.49 0 01-.146-.383.571.571 0 01.151-.394.532.532 0 01.384-.166zm2.543 1.988l-.116.611c.458-.485 1.011-.72 1.66-.707.347.007.64.086.879.237.242.152.408.366.499.641.512-.598 1.116-.891 1.812-.878.545.014.947.197 1.206.55.259.354.355.828.288 1.424l-.601 3.588h-.908l.595-3.599a1.825 1.825 0 000-.479c-.064-.458-.363-.691-.898-.701a1.38 1.38 0 00-.908.312c-.27.212-.443.492-.52.838l-.621 3.629h-.918l.605-3.593c.044-.374-.013-.662-.171-.863-.155-.202-.397-.307-.727-.313-.569-.014-1.021.245-1.358.777l-.691 3.992h-.914l.949-5.461.858-.005zm9.402 5.567c-.679-.014-1.211-.264-1.595-.752-.383-.488-.545-1.112-.484-1.873l.025-.217a3.642 3.642 0 01.48-1.483c.265-.448.588-.784.969-1.01.38-.228.79-.338 1.231-.328.562.014 1.003.2 1.322.56.32.36.495.848.525 1.464.01.219.004.437-.02.656l-.056.419h-3.568c-.06.495.021.915.243 1.262.225.346.56.526 1.004.54.538.013 1.036-.229 1.494-.727l.525.444a2.41 2.41 0 01-.889.777c-.36.185-.762.275-1.206.268zm.581-4.901a1.345 1.345 0 00-.99.384c-.279.266-.501.661-.666 1.186l2.655.005.02-.081c.054-.424-.015-.775-.207-1.055a.953.953 0 00-.812-.439zm2.215 6.268l-.525-.378c.391-.481.633-.959.727-1.433l.131-.762h.894l-.106.681c-.122.767-.495 1.398-1.121 1.892zm5.017-4.209c.067-.555.22-1.056.459-1.504.239-.447.533-.782.883-1.004.35-.222.735-.328 1.156-.318.609.014 1.077.236 1.403.666l.525-2.851h.913l-1.342 7.752h-.833l.096-.586c-.431.471-.962.7-1.595.687-.505-.014-.907-.211-1.206-.591-.299-.383-.461-.896-.485-1.539a4.93 4.93 0 01.026-.712zm.878.525c-.01.481.076.855.257 1.121.182.265.448.402.798.408.528.024.997-.242 1.408-.797l.434-2.523c-.202-.498-.569-.754-1.101-.767a1.38 1.38 0 00-.953.328c-.273.225-.481.543-.626.953a3.963 3.963 0 00-.217 1.277zm6.924 2.317c-.68-.014-1.211-.264-1.595-.752-.383-.488-.545-1.112-.484-1.873l.025-.217a3.656 3.656 0 01.479-1.483c.266-.448.589-.784.969-1.01a2.254 2.254 0 011.232-.328c.562.014 1.002.2 1.322.56.32.36.495.848.525 1.464.01.219.003.437-.02.656l-.056.419h-3.568c-.06.495.02.915.242 1.262.226.346.561.526 1.005.54.538.013 1.036-.229 1.494-.727l.524.444a2.4 2.4 0 01-.888.777c-.36.185-.762.275-1.206.268zm.58-4.901a1.344 1.344 0 00-.989.384c-.279.266-.501.661-.666 1.186l2.655.005.02-.081c.054-.424-.015-.775-.207-1.055a.954.954 0 00-.813-.439zm5.759 4.8a1.208 1.208 0 01-.036-.288l.016-.287c-.502.464-1.033.689-1.595.676-.481-.007-.873-.158-1.176-.454-.3-.3-.436-.673-.409-1.121.034-.579.286-1.029.757-1.352.475-.327 1.097-.49 1.867-.49l.954.005.061-.434c.034-.326-.03-.584-.192-.772-.158-.192-.397-.291-.717-.298a1.41 1.41 0 00-.832.232.972.972 0 00-.439.631l-.919.005c.03-.319.155-.602.374-.848.218-.249.499-.44.842-.575a2.713 2.713 0 011.065-.197c.569.014 1.011.187 1.328.52.316.33.449.769.398 1.317l-.444 2.705-.025.389c-.007.185.013.368.061.55l-.011.086h-.928zm-1.433-.707c.292.007.568-.062.827-.207.263-.148.488-.351.676-.61l.197-1.126-.691-.005c-.575 0-1.016.091-1.322.273-.307.181-.48.439-.52.772-.03.256.028.469.176.641.152.168.371.256.657.262zm5.909.051a1.401 1.401 0 001.398-1.06l.863-.005a1.93 1.93 0 01-.414.939 2.281 2.281 0 01-.842.661c-.34.158-.688.232-1.045.222-.454-.007-.84-.125-1.156-.353a2.02 2.02 0 01-.691-.964c-.148-.414-.199-.879-.152-1.393l.026-.253c.064-.525.217-.994.459-1.408.242-.414.558-.735.949-.964a2.35 2.35 0 011.292-.328c.572.014 1.029.206 1.372.576.344.37.515.839.515 1.408l-.853-.005c-.006-.357-.106-.645-.297-.863-.192-.222-.451-.34-.778-.354a1.466 1.466 0 00-1.186.53c-.313.364-.508.872-.585 1.524l-.015.132c-.02.215-.024.437-.01.666.023.393.134.705.333.933.198.229.471.349.817.359zm5.405-6.127l-.232 1.322h.994l-.126.722h-.989l-.57 3.396a1.18 1.18 0 00-.005.243c.023.262.166.393.429.393.111 0 .259-.017.444-.05l-.071.762a2.5 2.5 0 01-.666.091c-.363-.007-.636-.14-.817-.399-.182-.262-.253-.614-.212-1.055l.555-3.381h-.964l.126-.722h.964l.232-1.322h.908zm1.908 6.783h-.908l.948-5.461h.909l-.949 5.461zm.752-7.454a.508.508 0 01.54.53.54.54 0 01-.54.55.506.506 0 01-.389-.137.496.496 0 01-.146-.383.572.572 0 01.152-.394.53.53 0 01.383-.166zm2.725 6.177l1.969-4.184h.964l-2.751 5.461h-.696l-1.07-5.461h.898l.686 4.184zm6.183 1.277a1.208 1.208 0 01-.036-.288l.015-.287c-.501.464-1.032.689-1.594.676-.481-.007-.873-.158-1.176-.454-.3-.3-.436-.673-.409-1.121.034-.579.286-1.029.757-1.352.474-.327 1.097-.49 1.867-.49l.954.005.061-.434c.033-.326-.031-.584-.192-.772-.158-.192-.397-.291-.717-.298a1.408 1.408 0 00-.832.232.968.968 0 00-.439.631l-.919.005c.03-.319.155-.602.373-.848.219-.249.5-.44.843-.575a2.706 2.706 0 011.065-.197c.569.014 1.011.187 1.327.52.317.33.45.769.399 1.317l-.444 2.705-.025.389a1.9 1.9 0 00.06.55l-.01.086h-.928zm-1.434-.707c.293.007.569-.062.828-.207.262-.148.488-.351.676-.61l.197-1.126-.691-.005c-.576 0-1.016.091-1.323.273-.306.181-.479.439-.519.772-.031.256.028.469.176.641.152.168.37.256.656.262zm6.016-6.076l-.232 1.322h.994l-.126.722h-.989l-.57 3.396a1.18 1.18 0 00-.005.243c.023.262.166.393.429.393.111 0 .259-.017.444-.05l-.071.762a2.51 2.51 0 01-.666.091c-.364-.007-.636-.14-.818-.399-.181-.262-.252-.614-.212-1.055l.555-3.381h-.964l.127-.722h.964l.232-1.322h.908zm3.281 6.884c-.68-.014-1.212-.264-1.595-.752-.384-.488-.545-1.112-.485-1.873l.026-.217a3.656 3.656 0 01.479-1.483c.266-.448.589-.784.969-1.01a2.25 2.25 0 011.231-.328c.562.014 1.003.2 1.323.56.319.36.494.848.525 1.464.01.219.003.437-.021.656l-.055.419h-3.568c-.061.495.02.915.242 1.262.225.346.56.526 1.004.54.539.013 1.037-.229 1.494-.727l.525.444c-.229.33-.525.589-.888.777-.36.185-.762.275-1.206.268zm.58-4.901a1.341 1.341 0 00-.989.384c-.279.266-.502.661-.666 1.186l2.654.005.02-.081c.054-.424-.015-.775-.207-1.055a.953.953 0 00-.812-.439zm7.363-1.983l-.232 1.322h.994l-.126.722h-.989l-.57 3.396a1.18 1.18 0 00-.005.243c.023.262.166.393.429.393.111 0 .259-.017.444-.05l-.071.762a2.51 2.51 0 01-.666.091c-.363-.007-.636-.14-.818-.399-.181-.262-.252-.614-.212-1.055l.555-3.381h-.963l.126-.722h.964l.232-1.322h.908zm2.625 1.988c.477-.521 1.027-.775 1.65-.762.511.007.89.184 1.135.53.249.343.342.826.278 1.449l-.596 3.578h-.913l.601-3.593c.02-.165.021-.318.005-.46-.058-.471-.335-.711-.833-.721-.559-.014-1.04.279-1.444.878l-.676 3.896h-.913l1.347-7.752h.914l-.555 2.957zm6.227 4.896c-.679-.014-1.211-.264-1.594-.752-.384-.488-.546-1.112-.485-1.873l.025-.217a3.642 3.642 0 01.48-1.483c.266-.448.589-.784.969-1.01.38-.228.79-.338 1.231-.328.562.014 1.003.2 1.322.56.32.36.495.848.525 1.464.01.219.004.437-.02.656l-.055.419h-3.569c-.06.495.021.915.243 1.262.225.346.56.526 1.004.54.538.013 1.036-.229 1.494-.727l.525.444a2.41 2.41 0 01-.889.777c-.36.185-.762.275-1.206.268zm.581-4.901a1.341 1.341 0 00-.989.384c-.28.266-.502.661-.667 1.186l2.655.005.02-.081c.054-.424-.015-.775-.207-1.055a.953.953 0 00-.812-.439zm6.778-2.215l-.419 1.756-.556.005.404-2.538.687.045-.116.732zm1.322 0l-.419 1.756h-.555l.403-2.533.687.045-.116.732zm4.38 5.122c.074-.538-.205-.932-.837-1.181l-.873-.318-.293-.126c-.983-.447-1.442-1.076-1.378-1.887.034-.407.173-.767.419-1.08.246-.313.57-.554.974-.722a3.117 3.117 0 011.297-.242c.444.01.839.109 1.186.298.35.188.616.452.797.792.182.336.263.717.243 1.14l-.954-.005c.033-.45-.067-.799-.303-1.044-.236-.249-.572-.377-1.009-.384-.461-.007-.847.101-1.156.323-.31.222-.488.525-.535.909-.067.501.241.881.924 1.14l.751.268.379.161c.949.438 1.388 1.087 1.317 1.948a1.954 1.954 0 01-.419 1.075c-.242.3-.572.532-.989.697a3.399 3.399 0 01-1.337.232 2.848 2.848 0 01-1.267-.293 2.08 2.08 0 01-.868-.797 1.983 1.983 0 01-.262-1.146l.948.005c-.03.437.088.786.354 1.045.269.255.647.387 1.135.393.488.007.89-.099 1.206-.318.317-.218.5-.513.55-.883zm6.682-.812a4.33 4.33 0 01-.449 1.499c-.232.444-.52.777-.863.999a1.983 1.983 0 01-1.14.313c-.633-.014-1.117-.227-1.454-.641l-.489 2.634h-.914l1.312-7.56.828-.005-.101.611c.451-.485.991-.72 1.62-.707.525.014.934.207 1.226.581.293.373.448.888.465 1.544a5.34 5.34 0 01-.026.626l-.015.106zm-.898-.106l.025-.424c0-.491-.094-.867-.282-1.126-.185-.262-.455-.4-.808-.413-.528-.014-.984.237-1.368.752l-.459 2.619c.205.484.574.733 1.105.747.455.01.84-.167 1.156-.53.32-.367.53-.909.631-1.625zm5.032-1.817l-.429-.045c-.586 0-1.047.264-1.383.792l-.671 3.881h-.914l.949-5.461.883-.005-.136.636c.387-.508.843-.755 1.368-.742.111 0 .255.025.434.076l-.101.868zm2.306 4.729c-.68-.014-1.211-.264-1.595-.752-.383-.488-.545-1.112-.484-1.873l.025-.217a3.656 3.656 0 01.479-1.483c.266-.448.589-.784.969-1.01a2.254 2.254 0 011.232-.328c.562.014 1.002.2 1.322.56.32.36.495.848.525 1.464.01.219.003.437-.02.656l-.056.419h-3.568c-.06.495.02.915.242 1.262.226.346.561.526 1.005.54.538.013 1.036-.229 1.494-.727l.524.444a2.4 2.4 0 01-.888.777c-.36.185-.762.275-1.206.268zm.58-4.901a1.344 1.344 0 00-.989.384c-.279.266-.501.661-.666 1.186l2.655.005.02-.081c.054-.424-.015-.775-.207-1.055a.954.954 0 00-.813-.439zm5.759 4.8a1.206 1.206 0 01-.035-.288l.015-.287c-.502.464-1.033.689-1.595.676-.481-.007-.873-.158-1.176-.454-.299-.3-.436-.673-.409-1.121.034-.579.286-1.029.757-1.352.475-.327 1.097-.49 1.868-.49l.953.005.061-.434c.034-.326-.03-.584-.192-.772-.158-.192-.397-.291-.717-.298a1.41 1.41 0 00-.832.232.972.972 0 00-.439.631l-.919.005c.03-.319.155-.602.374-.848.218-.249.499-.44.842-.575a2.713 2.713 0 011.065-.197c.569.014 1.011.187 1.328.52.316.33.449.769.398 1.317l-.444 2.705-.025.389c-.007.185.013.368.061.55l-.011.086h-.928zm-1.433-.707c.292.007.568-.062.827-.207.263-.148.488-.351.676-.61l.197-1.126-.691-.005c-.575 0-1.016.091-1.322.273-.307.181-.48.439-.52.772-.03.256.028.469.176.641.152.168.371.256.657.262zm3.865-2.034a4.266 4.266 0 01.46-1.504c.239-.447.533-.782.883-1.004.35-.222.735-.328 1.156-.318.609.014 1.076.236 1.403.666l.524-2.851h.914l-1.343 7.752h-.832l.096-.586c-.431.471-.963.7-1.595.687-.505-.014-.907-.211-1.206-.591-.3-.383-.461-.896-.485-1.539a4.913 4.913 0 01.025-.712zm.879.525c-.011.481.075.855.257 1.121.182.265.447.402.797.408.529.024.998-.242 1.408-.797l.434-2.523c-.201-.498-.568-.754-1.1-.767a1.382 1.382 0 00-.954.328c-.272.225-.481.543-.625.953a3.936 3.936 0 00-.217 1.277zm9.457 2.317c-.679-.014-1.211-.264-1.595-.752-.383-.488-.545-1.112-.484-1.873l.025-.217a3.642 3.642 0 01.48-1.483c.265-.448.588-.784.969-1.01.38-.228.79-.338 1.231-.328.562.014 1.003.2 1.322.56.32.36.495.848.525 1.464.01.219.004.437-.02.656l-.056.419h-3.568c-.06.495.021.915.243 1.262.225.346.56.526 1.004.54.538.013 1.036-.229 1.494-.727l.525.444a2.41 2.41 0 01-.889.777c-.36.185-.762.275-1.206.268zm.581-4.901a1.345 1.345 0 00-.99.384c-.279.266-.501.661-.666 1.186l2.655.005.02-.081c.054-.424-.015-.775-.207-1.055a.953.953 0 00-.812-.439zm4.219-.666l-.116.611c.457-.485 1.011-.72 1.66-.707.347.007.639.086.878.237.242.152.409.366.5.641.511-.598 1.115-.891 1.812-.878.545.014.947.197 1.206.55.259.354.355.828.287 1.424l-.6 3.588h-.909l.596-3.599c.02-.174.02-.334 0-.479-.064-.458-.363-.691-.898-.701a1.385 1.385 0 00-.909.312 1.435 1.435 0 00-.52.838l-.62 3.629h-.919l.606-3.593c.044-.374-.014-.662-.172-.863-.155-.202-.397-.307-.727-.313-.568-.014-1.021.245-1.357.777l-.692 3.992h-.913l.949-5.461.858-.005zm10.381 5.466a1.206 1.206 0 01-.035-.288l.015-.287c-.502.464-1.033.689-1.595.676-.481-.007-.873-.158-1.176-.454-.299-.3-.436-.673-.409-1.121.034-.579.286-1.029.757-1.352.475-.327 1.097-.49 1.868-.49l.953.005.061-.434c.034-.326-.03-.584-.192-.772-.158-.192-.397-.291-.716-.298a1.411 1.411 0 00-.833.232.972.972 0 00-.439.631l-.919.005c.031-.319.155-.602.374-.848a2.13 2.13 0 01.843-.575 2.705 2.705 0 011.064-.197c.569.014 1.012.187 1.328.52.316.33.449.769.398 1.317l-.444 2.705-.025.389a1.9 1.9 0 00.061.55l-.01.086h-.929zm-1.433-.707c.292.007.568-.062.827-.207.263-.148.488-.351.677-.61l.196-1.126-.691-.005c-.575 0-1.016.091-1.322.273-.306.181-.48.439-.52.772-.03.256.029.469.177.641.151.168.37.256.656.262zm4.592.707h-.908l.949-5.461h.908l-.949 5.461zm.752-7.454a.508.508 0 01.54.53.54.54 0 01-.54.55.504.504 0 01-.388-.137.493.493 0 01-.147-.383.576.576 0 01.152-.394.53.53 0 01.383-.166zm1.731 7.454h-.908l1.342-7.752h.914l-1.348 7.752zm4.875-1.479c.051-.377-.156-.642-.62-.797l-.949-.278c-.801-.276-1.188-.733-1.161-1.373.024-.481.242-.874.656-1.181.417-.309.907-.46 1.469-.454.552.007.999.169 1.342.485.347.313.513.721.5 1.226l-.908-.005a.857.857 0 00-.258-.666c-.178-.172-.415-.261-.711-.268a1.332 1.332 0 00-.818.233.847.847 0 00-.368.595c-.044.316.149.547.58.692l.459.126c.626.161 1.07.371 1.333.631.262.259.383.58.363.963-.02.34-.131.636-.333.889a1.92 1.92 0 01-.808.58 2.731 2.731 0 01-1.075.182c-.578-.007-1.056-.175-1.433-.505-.377-.333-.558-.76-.545-1.282l.914.005c0 .306.097.552.292.737.195.185.463.278.803.278.333.006.62-.063.863-.207.242-.148.38-.35.413-.606zm3.664-5.536l-.418 1.756-.556.005.404-2.538.687.045-.117.732zm1.323 0l-.419 1.756h-.555l.403-2.533.687.045-.116.732zm6.026 5.536c.05-.377-.157-.642-.621-.797l-.949-.278c-.801-.276-1.188-.733-1.161-1.373.024-.481.243-.874.656-1.181.418-.309.907-.46 1.469-.454.552.007.999.169 1.342.485.347.313.514.721.5 1.226l-.908-.005a.854.854 0 00-.258-.666c-.178-.172-.415-.261-.711-.268a1.332 1.332 0 00-.818.233.847.847 0 00-.368.595c-.044.316.149.547.58.692l.459.126c.626.161 1.07.371 1.333.631.262.259.383.58.363.963-.02.34-.131.636-.333.889a1.92 1.92 0 01-.808.58 2.731 2.731 0 01-1.075.182c-.578-.007-1.056-.175-1.433-.505-.377-.333-.558-.76-.545-1.282l.914.005c0 .306.097.552.292.737.195.185.463.278.803.278a1.6 1.6 0 00.863-.207c.242-.148.38-.35.414-.606zm4.199 1.58c-.68-.014-1.212-.264-1.595-.752-.384-.488-.545-1.112-.485-1.873l.025-.217a3.657 3.657 0 01.48-1.483c.266-.448.589-.784.969-1.01a2.25 2.25 0 011.231-.328c.562.014 1.003.2 1.323.56.319.36.494.848.524 1.464a4.11 4.11 0 01-.02.656l-.055.419h-3.568c-.061.495.02.915.242 1.262.225.346.56.526 1.004.54.539.013 1.037-.229 1.494-.727l.525.444c-.229.33-.525.589-.888.777-.36.185-.762.275-1.206.268zm.58-4.901a1.341 1.341 0 00-.989.384c-.28.266-.502.661-.666 1.186l2.654.005.02-.081c.054-.424-.015-.775-.207-1.055a.953.953 0 00-.812-.439zm4.83-1.983l-.232 1.322h.994l-.126.722h-.99l-.57 3.396a1.18 1.18 0 00-.005.243c.024.262.167.393.429.393.111 0 .259-.017.444-.05l-.07.762c-.219.06-.441.091-.667.091-.363-.007-.636-.14-.817-.399-.182-.262-.253-.614-.212-1.055l.555-3.381h-.964l.126-.722h.964l.232-1.322h.909zm3.331 0l-.233 1.322h.995l-.127.722h-.989l-.57 3.396a1.18 1.18 0 00-.005.243c.024.262.167.393.429.393.111 0 .259-.017.444-.05l-.071.762a2.5 2.5 0 01-.666.091c-.363-.007-.636-.14-.817-.399-.182-.262-.253-.614-.212-1.055l.555-3.381h-.964l.126-.722h.964l.232-1.322h.909zm1.907 6.783h-.908l.949-5.461h.908l-.949 5.461zm.752-7.454a.508.508 0 01.54.53.54.54 0 01-.54.55.504.504 0 01-.388-.137.493.493 0 01-.147-.383.576.576 0 01.152-.394.53.53 0 01.383-.166zm2.554 1.988l-.131.692c.491-.539 1.049-.801 1.675-.788.515.014.895.192 1.141.535.245.343.336.826.272 1.449l-.595 3.578h-.914l.601-3.593c.02-.165.022-.318.005-.46-.057-.471-.335-.711-.833-.721-.548-.011-1.029.282-1.443.878l-.676 3.896h-.914l.949-5.461.863-.005zm4.037 2.725c.081-.595.241-1.112.48-1.549.242-.441.535-.765.878-.974a2.035 2.035 0 011.135-.303c.633.014 1.111.253 1.434.717l.181-.611h.838l-.908 5.345c-.098.696-.38 1.253-.848 1.67-.468.421-1.045.621-1.731.601a2.47 2.47 0 01-1.065-.263 2.02 2.02 0 01-.797-.691l.519-.56c.33.488.766.738 1.308.752.434.013.8-.108 1.1-.364.303-.255.503-.619.6-1.09l.101-.484c-.444.444-.964.659-1.559.646a1.625 1.625 0 01-.888-.273 1.696 1.696 0 01-.581-.752 3.1 3.1 0 01-.227-1.1 5.584 5.584 0 01.03-.717zm.884.52c-.011.481.072.855.247 1.121.178.262.446.4.802.413.545.014 1.015-.254 1.408-.802l.429-2.508c-.202-.498-.567-.757-1.095-.777-.494-.014-.902.188-1.221.605-.316.417-.503.981-.56 1.691l-.01.257zm10.098-3.341c.458.007.85.131 1.176.374.326.242.567.577.722 1.004.158.424.212.888.161 1.393l-.01.111a3.692 3.692 0 01-.474 1.443 2.795 2.795 0 01-.979 1c-.401.239-.84.351-1.318.338-.454-.007-.846-.131-1.175-.374a2.073 2.073 0 01-.717-.989 3.202 3.202 0 01-.162-1.378 3.727 3.727 0 01.46-1.524c.255-.451.583-.799.984-1.044a2.364 2.364 0 011.332-.354zm-1.857 2.927a3.051 3.051 0 000 .662c.034.397.151.713.353.948.205.236.478.359.818.369.303.01.582-.064.838-.222.255-.162.471-.404.646-.727.175-.323.287-.681.338-1.075.027-.31.032-.57.015-.782-.041-.407-.163-.729-.369-.964-.205-.236-.477-.36-.817-.374-.471-.01-.872.175-1.201.555-.33.381-.534.879-.611 1.494l-.01.116zm6.409-2.831l-.131.692c.491-.539 1.05-.801 1.676-.788.514.014.895.192 1.14.535.246.343.337.826.273 1.449l-.596 3.578h-.913l.6-3.593c.021-.165.022-.318.005-.46-.057-.471-.334-.711-.832-.721-.549-.011-1.03.282-1.444.878l-.676 3.896h-.913l.948-5.461.863-.005zm8.716-1.317l-.232 1.322h.994l-.126.722h-.989l-.57 3.396a1.18 1.18 0 00-.005.243c.023.262.166.393.429.393.111 0 .259-.017.444-.05l-.071.762a2.51 2.51 0 01-.666.091c-.364-.007-.636-.14-.818-.399-.181-.262-.252-.614-.212-1.055l.555-3.381h-.963l.126-.722h.964l.232-1.322h.908zm2.625 1.988c.477-.521 1.027-.775 1.65-.762.511.007.89.184 1.135.53.249.343.342.826.278 1.449l-.596 3.578h-.913l.6-3.593c.021-.165.022-.318.006-.46-.058-.471-.335-.711-.833-.721-.559-.014-1.04.279-1.444.878l-.676 3.896h-.913l1.347-7.752h.914l-.555 2.957zm6.227 4.896c-.679-.014-1.211-.264-1.595-.752-.383-.488-.545-1.112-.484-1.873l.025-.217a3.642 3.642 0 01.48-1.483c.265-.448.588-.784.969-1.01.38-.228.79-.338 1.231-.328.562.014 1.003.2 1.322.56.32.36.495.848.525 1.464.01.219.004.437-.02.656l-.056.419h-3.568c-.06.495.021.915.243 1.262.225.346.56.526 1.004.54.538.013 1.036-.229 1.494-.727l.525.444a2.41 2.41 0 01-.889.777c-.36.185-.762.275-1.206.268zm.581-4.901a1.345 1.345 0 00-.99.384c-.279.266-.501.661-.666 1.186l2.655.005.02-.081c.054-.424-.015-.775-.207-1.055a.953.953 0 00-.812-.439zm10.694 2.458c-.142.761-.486 1.363-1.035 1.807-.545.444-1.199.656-1.963.636a2.303 2.303 0 01-1.191-.333 2.137 2.137 0 01-.792-.924 3.454 3.454 0 01-.313-1.337 4.242 4.242 0 01.035-.808l.086-.605c.158-1.104.545-1.974 1.161-2.61.619-.639 1.371-.95 2.256-.933.689.013 1.236.237 1.64.671.403.431.617 1.03.641 1.797h-.944c-.044-1.03-.448-1.585-1.211-1.666l-.167-.01c-.636-.017-1.167.221-1.595.712-.424.488-.698 1.155-.822 2.003l-.111.762-.031.444c-.02.62.09 1.112.328 1.479.243.364.601.552 1.075.565.512.017.934-.106 1.267-.368.337-.262.592-.685.767-1.267l.919-.015zm4.179 2.342a1.208 1.208 0 01-.036-.288l.015-.287c-.501.464-1.033.689-1.594.676-.482-.007-.874-.158-1.176-.454-.3-.3-.436-.673-.409-1.121.034-.579.286-1.029.757-1.352.474-.327 1.097-.49 1.867-.49l.954.005.061-.434c.033-.326-.031-.584-.192-.772-.158-.192-.397-.291-.717-.298a1.413 1.413 0 00-.833.232.975.975 0 00-.439.631l-.918.005c.03-.319.155-.602.373-.848.219-.249.5-.44.843-.575a2.706 2.706 0 011.065-.197c.569.014 1.011.187 1.327.52.317.33.45.769.399 1.317l-.444 2.705-.025.389a1.9 1.9 0 00.06.55l-.01.086h-.928zm-1.434-.707c.293.007.569-.062.828-.207.262-.148.488-.351.676-.61l.197-1.126-.691-.005c-.576 0-1.016.091-1.323.273-.306.181-.479.439-.519.772-.031.256.028.469.176.641.152.168.37.256.656.262zm5.405-4.759l-.116.611c.458-.485 1.011-.72 1.661-.707.346.007.639.086.878.237.242.152.409.366.499.641.512-.598 1.116-.891 1.812-.878.545.014.947.197 1.206.55.26.354.355.828.288 1.424l-.6 3.588h-.909l.596-3.599c.02-.174.02-.334 0-.479-.064-.458-.364-.691-.899-.701a1.38 1.38 0 00-.908.312 1.43 1.43 0 00-.52.838l-.621 3.629h-.918l.605-3.593c.044-.374-.013-.662-.171-.863-.155-.202-.397-.307-.727-.313-.569-.014-1.021.245-1.357.777l-.692 3.992h-.913l.948-5.461.858-.005zm11.987 2.761a4.352 4.352 0 01-.45 1.499c-.232.444-.519.777-.863.999a1.983 1.983 0 01-1.14.313c-.633-.014-1.117-.227-1.454-.641l-.489 2.634h-.914l1.312-7.56.828-.005-.101.611c.451-.485.991-.72 1.62-.707.525.014.934.207 1.227.581.292.373.447.888.464 1.544a5.57 5.57 0 01-.025.626l-.015.106zm-.899-.106l.025-.424c0-.491-.094-.867-.282-1.126-.185-.262-.454-.4-.808-.413-.528-.014-.984.237-1.367.752l-.46 2.619c.206.484.574.733 1.106.747.454.01.839-.167 1.155-.53.32-.367.53-.909.631-1.625zm4.976 2.811a1.26 1.26 0 01-.035-.288l.015-.287c-.501.464-1.033.689-1.595.676-.481-.007-.873-.158-1.176-.454-.299-.3-.435-.673-.408-1.121.033-.579.286-1.029.757-1.352.474-.327 1.096-.49 1.867-.49l.954.005.06-.434c.034-.326-.03-.584-.191-.772-.159-.192-.397-.291-.717-.298a1.411 1.411 0 00-.833.232.972.972 0 00-.439.631l-.918.005c.03-.319.154-.602.373-.848.219-.249.5-.44.843-.575a2.706 2.706 0 011.065-.197c.568.014 1.011.187 1.327.52.316.33.449.769.399 1.317l-.444 2.705-.026.389c-.006.185.014.368.061.55l-.01.086h-.929zm-1.433-.707c.293.007.569-.062.828-.207.262-.148.488-.351.676-.61l.197-1.126-.692-.005c-.575 0-1.016.091-1.322.273-.306.181-.479.439-.52.772-.03.256.029.469.177.641.151.168.37.256.656.262zm4.593.707h-.909l.949-5.461h.908l-.948 5.461zm.752-7.454a.486.486 0 01.383.141.51.51 0 01.157.389.545.545 0 01-.54.55.505.505 0 01-.389-.137.49.49 0 01-.146-.383.571.571 0 01.151-.394.532.532 0 01.384-.166zm1.009 4.713c.081-.595.24-1.112.479-1.549.243-.441.535-.765.879-.974a2.035 2.035 0 011.135-.303c.633.014 1.11.253 1.433.717l.182-.611h.838l-.909 5.345c-.097.696-.38 1.253-.848 1.67-.467.421-1.044.621-1.731.601a2.462 2.462 0 01-1.064-.263 2.016 2.016 0 01-.798-.691l.52-.56c.33.488.765.738 1.307.752.434.013.801-.108 1.1-.364.303-.255.503-.619.601-1.09l.101-.484c-.444.444-.964.659-1.56.646a1.627 1.627 0 01-.888-.273 1.695 1.695 0 01-.58-.752 3.08 3.08 0 01-.227-1.1 5.584 5.584 0 01.03-.717zm.883.52c-.01.481.072.855.247 1.121.179.262.446.4.803.413.545.014 1.014-.254 1.408-.802l.429-2.508c-.202-.498-.567-.757-1.095-.777-.495-.014-.902.188-1.222.605-.316.417-.503.981-.56 1.691l-.01.257zm6.344-3.245l-.131.692c.491-.539 1.049-.801 1.675-.788.515.014.895.192 1.141.535.245.343.336.826.272 1.449l-.595 3.578h-.914l.601-3.593c.02-.165.022-.318.005-.46-.057-.471-.335-.711-.833-.721-.548-.011-1.029.282-1.443.878l-.676 3.896h-.914l.949-5.461.863-.005zm7.151 3.987c.051-.377-.156-.642-.621-.797l-.948-.278c-.801-.276-1.188-.733-1.161-1.373.023-.481.242-.874.656-1.181.417-.309.907-.46 1.469-.454.551.007.999.169 1.342.485.347.313.513.721.5 1.226l-.909-.005a.853.853 0 00-.257-.666c-.178-.172-.416-.261-.712-.268a1.329 1.329 0 00-.817.233.851.851 0 00-.369.595c-.043.316.15.547.581.692l.459.126c.626.161 1.07.371 1.332.631.263.259.384.58.364.963-.021.34-.132.636-.333.889a1.92 1.92 0 01-.808.58 2.734 2.734 0 01-1.075.182c-.579-.007-1.056-.175-1.433-.505-.377-.333-.559-.76-.545-1.282l.913.005c0 .306.098.552.293.737.195.185.463.278.802.278a1.6 1.6 0 00.863-.207c.243-.148.381-.35.414-.606zm9.317-1.226a4.33 4.33 0 01-.45 1.499c-.232.444-.519.777-.863.999a1.983 1.983 0 01-1.14.313c-.633-.014-1.117-.227-1.454-.641l-.489 2.634h-.914l1.313-7.56.827-.005-.101.611c.451-.485.991-.72 1.62-.707.525.014.934.207 1.227.581.292.373.447.888.464 1.544a5.57 5.57 0 01-.025.626l-.015.106zm-.899-.106l.026-.424c0-.491-.095-.867-.283-1.126-.185-.262-.454-.4-.808-.413-.528-.014-.984.237-1.367.752l-.46 2.619c.206.484.574.733 1.106.747.454.01.839-.167 1.155-.53.32-.367.53-.909.631-1.625zm4.976 2.811a1.26 1.26 0 01-.035-.288l.015-.287c-.501.464-1.033.689-1.595.676-.481-.007-.873-.158-1.175-.454-.3-.3-.436-.673-.409-1.121.033-.579.286-1.029.757-1.352.474-.327 1.097-.49 1.867-.49l.954.005.06-.434c.034-.326-.03-.584-.191-.772-.158-.192-.397-.291-.717-.298a1.413 1.413 0 00-.833.232.972.972 0 00-.439.631l-.918.005c.03-.319.155-.602.373-.848.219-.249.5-.44.843-.575a2.706 2.706 0 011.065-.197c.569.014 1.011.187 1.327.52.316.33.449.769.399 1.317l-.444 2.705-.025.389a1.9 1.9 0 00.06.55l-.01.086h-.929zm-1.433-.707c.293.007.569-.062.828-.207.262-.148.488-.351.676-.61l.197-1.126-.692-.005c-.575 0-1.016.091-1.322.273-.306.181-.479.439-.52.772-.03.256.029.469.177.641.151.168.37.256.656.262zm3.871-2.034c.081-.595.241-1.112.479-1.549.243-.441.535-.765.879-.974a2.035 2.035 0 011.135-.303c.633.014 1.11.253 1.433.717l.182-.611h.838l-.909 5.345c-.097.696-.38 1.253-.847 1.67-.468.421-1.045.621-1.731.601a2.466 2.466 0 01-1.065-.263 2.016 2.016 0 01-.798-.691l.52-.56c.33.488.766.738 1.307.752.434.013.801-.108 1.1-.364.303-.255.503-.619.601-1.09l.101-.484c-.444.444-.964.659-1.56.646a1.63 1.63 0 01-.888-.273 1.695 1.695 0 01-.58-.752 3.08 3.08 0 01-.227-1.1 5.584 5.584 0 01.03-.717zm.883.52c-.01.481.073.855.248 1.121.178.262.445.4.802.413.545.014 1.014-.254 1.408-.802l.429-2.508c-.202-.498-.567-.757-1.095-.777-.495-.014-.902.188-1.221.605-.317.417-.503.981-.561 1.691l-.01.257zm6.894 2.322c-.68-.014-1.211-.264-1.595-.752-.383-.488-.545-1.112-.484-1.873l.025-.217a3.642 3.642 0 01.48-1.483c.265-.448.588-.784.969-1.01.38-.228.79-.338 1.231-.328.562.014 1.003.2 1.322.56.32.36.495.848.525 1.464.01.219.003.437-.02.656l-.056.419h-3.568c-.06.495.02.915.243 1.262.225.346.56.526 1.004.54.538.013 1.036-.229 1.494-.727l.525.444a2.41 2.41 0 01-.889.777c-.36.185-.762.275-1.206.268zm.581-4.901a1.345 1.345 0 00-.99.384c-.279.266-.501.661-.666 1.186l2.655.005.02-.081c.054-.424-.015-.775-.207-1.055a.953.953 0 00-.812-.439z" fill="#79808D"/><path d="M521.586 255.224h75.863v.505h-75.863v-.505z" fill="#79808D"/><path fill-rule="evenodd" clip-rule="evenodd" d="M282.826 170.864a7.517 7.517 0 100-15.034 7.517 7.517 0 000 15.034zm-1.409-11.276s0-.94 1.409-.94c1.41 0 1.41.94 1.41.94l-.392 4.701a1.021 1.021 0 01-2.035 0l-.392-4.701zm.47 7.517a.94.94 0 111.879-.001.94.94 0 01-1.879.001zm-57.318 66.713a7.517 7.517 0 100-15.034 7.517 7.517 0 000 15.034zm-1.409-11.276s0-.939 1.409-.939c1.41 0 1.41.939 1.41.939l-.392 4.702a1.021 1.021 0 01-2.035 0l-.392-4.702zm.47 7.517a.938.938 0 111.877-.001.938.938 0 01-1.877.001zm4.698 110.876a7.517 7.517 0 100-15.034 7.517 7.517 0 000 15.034zm-1.409-11.276s0-.939 1.409-.939c1.41 0 1.41.939 1.41.939l-.392 4.702a1.021 1.021 0 01-2.036 0l-.391-4.702zm.469 7.517a.94.94 0 111.879 0 .94.94 0 01-1.879 0z" fill="#DADADA"/></g><ellipse opacity=".1" cx="85.975" cy="442.415" rx="80.338" ry="18.792" fill="#81A332"/><path d="M136.655 427.732l18.852 5.757s3.759 1.409 5.638 2.819c1.007.755 1.863 2.516 2.442 3.988.453 1.156-.433 2.336-1.675 2.336h-38.41v-15.175l12.51-3.895.643 4.17z" fill="#351E19"/><path d="M132.479 240.697s12.49 90.237 12.055 95.934c-.428 5.696-7.878 91.107-7.878 91.107h-13.113s-10.442-63.57-3.12-86.12c-5.595-29.868-17.222-94.033-17.222-94.033l29.278-6.888z" fill="#2B2B2B"/><path d="M66.332 427.732l22.462 7.166s.47 0 4.228 2.349c1.951 1.22 2.89 2.698 3.34 3.837.383.965-.422 1.822-1.46 1.822H51.679v-15.174l13.3-3.427 1.353 3.427z" fill="#351E19"/><path d="M125.557 246.299l-13.91 15.496s-8.3 73.142-11.473 79.822c-3.172 6.68-33.843 86.121-33.843 86.121H51.685s12.357-80.076 22.431-89.595c-1.372-23.709 1.372-104.722 1.372-104.722l50.069 12.878z" fill="#232323"/><path d="M172.681 204.029l4.103.743s1.305-2.985 5.408-2.611c4.103.375 6.714 2.611 6.714 2.611s-5.221 10.201-6.714 11.721c-1.493 1.519-5.964-3.682-5.964-3.682l-5.783-1.633 2.236-7.149z" fill="#FFE3CA"/><path d="M124.399 132.916s19.284 67.044 50.363 69.514c-2.222 7.891-3.206 10.361-3.206 10.361s-22.043 1.975-47.157-29.847c-1.928-35.027 0-50.028 0-50.028z" fill="#662648"/><path d="M140.109 201.559s5.208-6.011 8.414-6.814c3.206-.803 12.223-3.808 12.223-3.808s-.603 1.405-1.801 2.403c-1.205 1.004-5.81 3.808-5.81 3.808s.402 8.213-.201 9.217c-.602 1.004-15.228 4.806-15.228 4.806l2.403-9.612z" fill="#FFE3CA"/><path d="M163.075 168.962h34.974l3.969 1.546-25.596 62.653-37.076 1.546-.937-1.546 24.666-64.199z" fill="#81A332"/><path d="M164.012 170.508h38.007l-24.66 64.199h-38.013l24.666-64.199z" fill="#96C036"/><path d="M175.711 205.705c1.573-3.83 1.532-7.476-.093-8.143-1.624-.667-4.216 1.897-5.789 5.727-1.573 3.83-1.531 7.475.093 8.142 1.624.668 4.216-1.896 5.789-5.726z" fill="#F7F7F7"/><path d="M86.667 128.605s-20.215 6.259-22.719 7.932c-2.51 1.674 13.649 74.387 13.649 74.387l-8.36 29.251c4.176 3.903 35.101 20.898 67.418 2.785-2.785-18.669-12.256-110.044-12.256-110.044l-37.732-4.311z" fill="#941759"/><path d="M124.48 80.183c1.84 5.04 2.088 14.866-2.705 14.866-5.281-4.05 2.705-14.866 2.705-14.866zM97.517 65.744c-13.48 3.581-17.57 14.345-16.279 25.75 1.292 11.407 2.912 23.248 7.377 24.975 4.464 1.72 16.198-15.282 16.198-15.282l-7.296-35.443z" fill="#0D1C27"/><path d="M104.813 118.11v15.91c-1.78 6.413-10.375 7.571-13.795 1.861l-4.351-7.276 1.948-22.43 16.198 11.935z" fill="#FCD2B1"/><path d="M122.906 83.824s1.125 29.272-6.754 34.894c-7.878 5.63-20.262 0-28.14-11.258-4.505-15.757 3.38-28.14 7.878-30.396 4.505-2.243 27.016 6.76 27.016 6.76z" fill="#FFE3CA"/><path d="M122.967 84.701c10.228-1.773 10.074-14.384 6.7-20.013-4.504 3.38-10.134 5.629-10.134 5.629s4.505-2.25 3.38-5.63c-4.504 1.125-23.641-2.249-30.395 3.38-6.754 5.63-3.38 16.889 0 18.013 3.373 1.125 30.449-1.379 30.449-1.379z" fill="#0D1C27"/><path d="M96.332 82.794l-9.665 15.657s-2.477-18.836-1.915-19.024c.563-.187 11.58 3.367 11.58 3.367z" fill="#0D1C27"/><path d="M87.859 97.487c-1.64-2.55-4.626-1.54-4.96-.697-.81 2.089.843 9.653 5.642 11.206 2.671-2.858-.682-10.51-.682-10.51z" fill="#FFE3CA"/><path d="M63.942 136.537c-6.339 7.725-9.826 103.297 77.76 74.601v-11.48s-58.998 26.3-65.21-48.957c-3.246-11.982-12.55-14.164-12.55-14.164z" fill="#662648"/><path d="M192.025 196.706s-7.356-.207-8.113.663c-.756.87-3.614 12.31-2.47 13.561 1.145 1.252 7.27 1.5 7.27 1.5l5.147-14.358-1.834-1.366z" fill="#FCD2B1"/><defs><filter id="filter0_dd_5099_44515" x="273.43" y="58.11" width="310.075" height="100.54" filterUnits="userSpaceOnUse" color-interpolation-filters="sRGB"><feFlood flood-opacity="0" result="BackgroundImageFix"/><feColorMatrix in="SourceAlpha" values="0 0 0 0 0 0 0 0 0 0 0 0 0 0 0 0 0 0 127 0" result="hardAlpha"/><feOffset dy="1.059"/><feGaussianBlur stdDeviation="1.824"/><feColorMatrix values="0 0 0 0 0 0 0 0 0 0 0 0 0 0 0 0 0 0 0.035 0"/><feBlend in2="BackgroundImageFix" result="effect1_dropShadow_5099_44515"/><feColorMatrix in="SourceAlpha" values="0 0 0 0 0 0 0 0 0 0 0 0 0 0 0 0 0 0 127 0" result="hardAlpha"/><feOffset dy="8.457"/><feGaussianBlur stdDeviation="14.564"/><feColorMatrix values="0 0 0 0 0 0 0 0 0 0 0 0 0 0 0 0 0 0 0.07 0"/><feBlend in2="effect1_dropShadow_5099_44515" result="effect2_dropShadow_5099_44515"/><feBlend in="SourceGraphic" in2="effect2_dropShadow_5099_44515" result="shape"/></filter><filter id="filter1_dd_5099_44515" x="273.43" y="121.064" width="368.331" height="100.54" filterUnits="userSpaceOnUse" color-interpolation-filters="sRGB"><feFlood flood-opacity="0" result="BackgroundImageFix"/><feColorMatrix in="SourceAlpha" values="0 0 0 0 0 0 0 0 0 0 0 0 0 0 0 0 0 0 127 0" result="hardAlpha"/><feOffset dy="1.059"/><feGaussianBlur stdDeviation="1.824"/><feColorMatrix values="0 0 0 0 0 0 0 0 0 0 0 0 0 0 0 0 0 0 0.035 0"/><feBlend in2="BackgroundImageFix" result="effect1_dropShadow_5099_44515"/><feColorMatrix in="SourceAlpha" values="0 0 0 0 0 0 0 0 0 0 0 0 0 0 0 0 0 0 127 0" result="hardAlpha"/><feOffset dy="8.457"/><feGaussianBlur stdDeviation="14.564"/><feColorMatrix values="0 0 0 0 0 0 0 0 0 0 0 0 0 0 0 0 0 0 0.07 0"/><feBlend in2="effect1_dropShadow_5099_44515" result="effect2_dropShadow_5099_44515"/><feBlend in="SourceGraphic" in2="effect2_dropShadow_5099_44515" result="shape"/></filter><filter id="filter2_dd_5099_44515" x="167.253" y="242.275" width="416.252" height="100.54" filterUnits="userSpaceOnUse" color-interpolation-filters="sRGB"><feFlood flood-opacity="0" result="BackgroundImageFix"/><feColorMatrix in="SourceAlpha" values="0 0 0 0 0 0 0 0 0 0 0 0 0 0 0 0 0 0 127 0" result="hardAlpha"/><feOffset dy="1.059"/><feGaussianBlur stdDeviation="1.824"/><feColorMatrix values="0 0 0 0 0 0 0 0 0 0 0 0 0 0 0 0 0 0 0.035 0"/><feBlend in2="BackgroundImageFix" result="effect1_dropShadow_5099_44515"/><feColorMatrix in="SourceAlpha" values="0 0 0 0 0 0 0 0 0 0 0 0 0 0 0 0 0 0 127 0" result="hardAlpha"/><feOffset dy="8.457"/><feGaussianBlur stdDeviation="14.564"/><feColorMatrix values="0 0 0 0 0 0 0 0 0 0 0 0 0 0 0 0 0 0 0.07 0"/><feBlend in2="effect1_dropShadow_5099_44515" result="effect2_dropShadow_5099_44515"/><feBlend in="SourceGraphic" in2="effect2_dropShadow_5099_44515" result="shape"/></filter><filter id="filter3_dd_5099_44515" x="274.369" y="339.056" width="108.056" height="100.54" filterUnits="userSpaceOnUse" color-interpolation-filters="sRGB"><feFlood flood-opacity="0" result="BackgroundImageFix"/><feColorMatrix in="SourceAlpha" values="0 0 0 0 0 0 0 0 0 0 0 0 0 0 0 0 0 0 127 0" result="hardAlpha"/><feOffset dy="1.059"/><feGaussianBlur stdDeviation="1.824"/><feColorMatrix values="0 0 0 0 0 0 0 0 0 0 0 0 0 0 0 0 0 0 0.035 0"/><feBlend in2="BackgroundImageFix" result="effect1_dropShadow_5099_44515"/><feColorMatrix in="SourceAlpha" values="0 0 0 0 0 0 0 0 0 0 0 0 0 0 0 0 0 0 127 0" result="hardAlpha"/><feOffset dy="8.457"/><feGaussianBlur stdDeviation="14.564"/><feColorMatrix values="0 0 0 0 0 0 0 0 0 0 0 0 0 0 0 0 0 0 0.07 0"/><feBlend in2="effect1_dropShadow_5099_44515" result="effect2_dropShadow_5099_44515"/><feBlend in="SourceGraphic" in2="effect2_dropShadow_5099_44515" result="shape"/></filter><filter id="filter4_dd_5099_44515" x="329.807" y="339.056" width="103.359" height="100.54" filterUnits="userSpaceOnUse" color-interpolation-filters="sRGB"><feFlood flood-opacity="0" result="BackgroundImageFix"/><feColorMatrix in="SourceAlpha" values="0 0 0 0 0 0 0 0 0 0 0 0 0 0 0 0 0 0 127 0" result="hardAlpha"/><feOffset dy="1.059"/><feGaussianBlur stdDeviation="1.824"/><feColorMatrix values="0 0 0 0 0 0 0 0 0 0 0 0 0 0 0 0 0 0 0.035 0"/><feBlend in2="BackgroundImageFix" result="effect1_dropShadow_5099_44515"/><feColorMatrix in="SourceAlpha" values="0 0 0 0 0 0 0 0 0 0 0 0 0 0 0 0 0 0 127 0" result="hardAlpha"/><feOffset dy="8.457"/><feGaussianBlur stdDeviation="14.564"/><feColorMatrix values="0 0 0 0 0 0 0 0 0 0 0 0 0 0 0 0 0 0 0.07 0"/><feBlend in2="effect1_dropShadow_5099_44515" result="effect2_dropShadow_5099_44515"/><feBlend in="SourceGraphic" in2="effect2_dropShadow_5099_44515" result="shape"/></filter><filter id="filter5_dd_5099_44515" x="380.547" y="339.056" width="107.117" height="100.54" filterUnits="userSpaceOnUse" color-interpolation-filters="sRGB"><feFlood flood-opacity="0" result="BackgroundImageFix"/><feColorMatrix in="SourceAlpha" values="0 0 0 0 0 0 0 0 0 0 0 0 0 0 0 0 0 0 127 0" result="hardAlpha"/><feOffset dy="1.059"/><feGaussianBlur stdDeviation="1.824"/><feColorMatrix values="0 0 0 0 0 0 0 0 0 0 0 0 0 0 0 0 0 0 0.035 0"/><feBlend in2="BackgroundImageFix" result="effect1_dropShadow_5099_44515"/><feColorMatrix in="SourceAlpha" values="0 0 0 0 0 0 0 0 0 0 0 0 0 0 0 0 0 0 127 0" result="hardAlpha"/><feOffset dy="8.457"/><feGaussianBlur stdDeviation="14.564"/><feColorMatrix values="0 0 0 0 0 0 0 0 0 0 0 0 0 0 0 0 0 0 0.07 0"/><feBlend in2="effect1_dropShadow_5099_44515" result="effect2_dropShadow_5099_44515"/><feBlend in="SourceGraphic" in2="effect2_dropShadow_5099_44515" result="shape"/></filter><filter id="filter6_dd_5099_44515" x="435.045" y="339.056" width="104.298" height="100.54" filterUnits="userSpaceOnUse" color-interpolation-filters="sRGB"><feFlood flood-opacity="0" result="BackgroundImageFix"/><feColorMatrix in="SourceAlpha" values="0 0 0 0 0 0 0 0 0 0 0 0 0 0 0 0 0 0 127 0" result="hardAlpha"/><feOffset dy="1.059"/><feGaussianBlur stdDeviation="1.824"/><feColorMatrix values="0 0 0 0 0 0 0 0 0 0 0 0 0 0 0 0 0 0 0.035 0"/><feBlend in2="BackgroundImageFix" result="effect1_dropShadow_5099_44515"/><feColorMatrix in="SourceAlpha" values="0 0 0 0 0 0 0 0 0 0 0 0 0 0 0 0 0 0 127 0" result="hardAlpha"/><feOffset dy="8.457"/><feGaussianBlur stdDeviation="14.564"/><feColorMatrix values="0 0 0 0 0 0 0 0 0 0 0 0 0 0 0 0 0 0 0.07 0"/><feBlend in2="effect1_dropShadow_5099_44515" result="effect2_dropShadow_5099_44515"/><feBlend in="SourceGraphic" in2="effect2_dropShadow_5099_44515" result="shape"/></filter><filter id="filter7_dd_5099_44515" x="486.724" y="339.056" width="100.539" height="100.54" filterUnits="userSpaceOnUse" color-interpolation-filters="sRGB"><feFlood flood-opacity="0" result="BackgroundImageFix"/><feColorMatrix in="SourceAlpha" values="0 0 0 0 0 0 0 0 0 0 0 0 0 0 0 0 0 0 127 0" result="hardAlpha"/><feOffset dy="1.059"/><feGaussianBlur stdDeviation="1.824"/><feColorMatrix values="0 0 0 0 0 0 0 0 0 0 0 0 0 0 0 0 0 0 0.035 0"/><feBlend in2="BackgroundImageFix" result="effect1_dropShadow_5099_44515"/><feColorMatrix in="SourceAlpha" values="0 0 0 0 0 0 0 0 0 0 0 0 0 0 0 0 0 0 127 0" result="hardAlpha"/><feOffset dy="8.457"/><feGaussianBlur stdDeviation="14.564"/><feColorMatrix values="0 0 0 0 0 0 0 0 0 0 0 0 0 0 0 0 0 0 0.07 0"/><feBlend in2="effect1_dropShadow_5099_44515" result="effect2_dropShadow_5099_44515"/><feBlend in="SourceGraphic" in2="effect2_dropShadow_5099_44515" result="shape"/></filter><filter id="filter8_dd_5099_44515" x="536.524" y="242.275" width="101.479" height="101.479" filterUnits="userSpaceOnUse" color-interpolation-filters="sRGB"><feFlood flood-opacity="0" result="BackgroundImageFix"/><feColorMatrix in="SourceAlpha" values="0 0 0 0 0 0 0 0 0 0 0 0 0 0 0 0 0 0 127 0" result="hardAlpha"/><feOffset dy="1.059"/><feGaussianBlur stdDeviation="1.824"/><feColorMatrix values="0 0 0 0 0 0 0 0 0 0 0 0 0 0 0 0 0 0 0.035 0"/><feBlend in2="BackgroundImageFix" result="effect1_dropShadow_5099_44515"/><feColorMatrix in="SourceAlpha" values="0 0 0 0 0 0 0 0 0 0 0 0 0 0 0 0 0 0 127 0" result="hardAlpha"/><feOffset dy="8.457"/><feGaussianBlur stdDeviation="14.564"/><feColorMatrix values="0 0 0 0 0 0 0 0 0 0 0 0 0 0 0 0 0 0 0.07 0"/><feBlend in2="effect1_dropShadow_5099_44515" result="effect2_dropShadow_5099_44515"/><feBlend in="SourceGraphic" in2="effect2_dropShadow_5099_44515" result="shape"/></filter><filter id="filter9_dd_5099_44515" x="540.282" y="58.11" width="101.479" height="101.479" filterUnits="userSpaceOnUse" color-interpolation-filters="sRGB"><feFlood flood-opacity="0" result="BackgroundImageFix"/><feColorMatrix in="SourceAlpha" values="0 0 0 0 0 0 0 0 0 0 0 0 0 0 0 0 0 0 127 0" result="hardAlpha"/><feOffset dy="1.059"/><feGaussianBlur stdDeviation="1.824"/><feColorMatrix values="0 0 0 0 0 0 0 0 0 0 0 0 0 0 0 0 0 0 0.035 0"/><feBlend in2="BackgroundImageFix" result="effect1_dropShadow_5099_44515"/><feColorMatrix in="SourceAlpha" values="0 0 0 0 0 0 0 0 0 0 0 0 0 0 0 0 0 0 127 0" result="hardAlpha"/><feOffset dy="8.457"/><feGaussianBlur stdDeviation="14.564"/><feColorMatrix values="0 0 0 0 0 0 0 0 0 0 0 0 0 0 0 0 0 0 0.07 0"/><feBlend in2="effect1_dropShadow_5099_44515" result="effect2_dropShadow_5099_44515"/><feBlend in="SourceGraphic" in2="effect2_dropShadow_5099_44515" result="shape"/></filter><linearGradient id="paint0_linear_5099_44515" x1="0" y1="17.173" x2="343.451" y2="579.995" gradientUnits="userSpaceOnUse"><stop stop-color="#A0CA3F"/><stop offset="1" stop-color="#7B9C30"/></linearGradient><linearGradient id="paint1_linear_5099_44515" x1="726.797" y1="485.705" x2="347.413" y2="164.945" gradientUnits="userSpaceOnUse"><stop stop-color="#F2FBDD"/><stop offset="1" stop-color="#F2FBDD" stop-opacity="0"/></linearGradient><clipPath id="clip0_5099_44515"><rect x="181.347" y="25.223" width="451.018" height="414.373" rx="3.758" fill="#fff"/></clipPath><clipPath id="clip1_5099_44515"><rect x="302.558" y="141.735" width="310.075" height="42.283" rx="5.638" fill="#fff"/></clipPath></defs></svg>