<svg width="16" height="22" viewBox="0 0 16 22" fill="none" xmlns="http://www.w3.org/2000/svg">
<g clip-path="url(#clip0)">
<path d="M15.4543 4.43783C15.1014 3.21919 14.394 2.1452 13.4302 1.36464C12.4663 0.584068 11.2937 0.135553 10.0747 0.0812171H9.94479C9.78897 0.0725295 9.63282 0.0725295 9.477 0.0812171C9.13682 0.0184241 8.7915 -0.00882655 8.44614 -0.00013048H8.35085C7.12981 0.0811626 5.9609 0.545955 4.9977 1.33318C4.0345 2.1204 3.32206 3.19323 2.95399 4.41072C2.15895 7.16232 2.24103 10.1088 3.18788 12.8076C3.84625 14.8774 5.61344 17.7246 7.03412 20.0385C7.42394 20.6622 7.77911 21.2406 8.06498 21.7287L8.16893 21.8643C8.19896 21.9038 8.23715 21.9357 8.28066 21.9576C8.32416 21.9795 8.37185 21.9909 8.42015 21.9908C8.48765 21.985 8.5515 21.9565 8.60207 21.9095H9.99676C10.0381 21.91 10.079 21.8995 10.1154 21.879C10.1518 21.8584 10.1825 21.8284 10.2047 21.792C10.5079 21.2858 10.8804 20.6802 11.2875 19.9843C12.7342 17.6613 14.536 14.769 15.1771 12.7534C16.1265 10.0852 16.2237 7.16834 15.4543 4.43783ZM13.3406 15.718C13.0203 15.6983 12.6992 15.6983 12.379 15.718L12.6822 15.1396H13.6524L13.3406 15.718ZM12.7602 16.7484H11.8333L12.1798 16.1338C12.5696 16.1338 12.8381 16.0796 13.15 16.0796L12.7602 16.7484ZM10.4645 20.5085H9.96211H9.52031L9.81485 20.0385L9.89281 19.9119L10.8111 19.8848L10.4645 20.5085ZM13.1586 1.80759H12.4223C12.2764 1.655 12.1231 1.5102 11.9632 1.37374H12.0412H12.5782C12.7808 1.5047 12.9747 1.64964 13.1586 1.80759ZM13.947 2.63011H13.5225H13.1067C12.9854 2.44331 12.8555 2.26555 12.7169 2.09683H12.7948H13.5225C13.6702 2.26033 13.809 2.43233 13.9383 2.61203L13.947 2.63011ZM14.4927 3.45262H14.0769H13.5658C13.4907 3.29595 13.4099 3.14531 13.3232 3.00069H13.5571C13.7641 2.97396 13.9723 2.95888 14.1808 2.9555C14.2935 3.10915 14.3974 3.27185 14.4927 3.43454V3.45262ZM15.359 6.00151H14.3454C14.3454 5.82074 14.2848 5.63997 14.2501 5.46823H15.2637C15.2723 5.62189 15.307 5.80266 15.333 5.98343L15.359 6.00151ZM15.4976 8.96618H14.4667C14.4667 8.74925 14.4667 8.54136 14.4667 8.32444H15.4976C15.5062 8.52329 15.4889 8.73118 15.4716 8.9481L15.4976 8.96618ZM15.4976 7.97193H14.4667C14.4667 7.71885 14.4667 7.47481 14.4667 7.22173H15.4889C15.4976 7.45673 15.5062 7.70981 15.5062 7.95385L15.4976 7.97193ZM14.2848 10.34H15.3157C15.3157 10.5479 15.2377 10.7649 15.1944 10.9818H14.1722C14.2155 10.7468 14.2588 10.5389 14.2935 10.322L14.2848 10.34ZM15.3676 9.94235H14.3368C14.3368 9.72542 14.3974 9.51753 14.4147 9.30061H15.4456C15.4283 9.51753 15.3936 9.72542 15.3676 9.94235ZM15.4543 6.87826H14.4321C14.4321 6.69749 14.4321 6.50767 14.3801 6.3269H15.3936C15.4196 6.51671 15.4369 6.69749 15.4543 6.87826ZM14.1375 5.12477C14.0856 4.93496 14.0336 4.74514 13.9816 4.55533H14.9865C15.0385 4.71803 15.0818 4.88976 15.1251 5.05246L14.1375 5.12477ZM14.8565 4.2209H14.7266C14.4494 4.2209 14.1808 4.2209 13.8603 4.2209C13.817 4.09436 13.765 3.96782 13.7131 3.84128H14.0856H14.666C14.7266 3.92263 14.7959 4.05821 14.8565 4.20283V4.2209ZM11.5387 1.05739C11.3686 0.933088 11.1922 0.818433 11.0103 0.71392C11.3443 0.788786 11.6695 0.900907 11.9805 1.04835L11.5387 1.05739ZM11.0623 19.5504H10.7937H10.1094L10.4819 18.9539H11.4174L11.0623 19.5504ZM11.634 18.6465H10.6898L11.0536 18.05H11.9805L11.634 18.6465ZM12.1971 17.7427H11.2615L11.6167 17.1461H12.5349L12.1971 17.7427ZM13.8603 14.7871H12.8901L13.176 14.1905H14.1549L13.8603 14.7871ZM14.3194 13.838H13.3319C13.4185 13.6301 13.5052 13.4313 13.5745 13.2414H14.1635H14.5793C14.4754 13.4132 14.3888 13.6211 14.2935 13.829L14.3194 13.838ZM14.7266 12.6539L14.6486 12.8889H14.0769H13.6351V12.7895C13.6871 12.6268 13.7304 12.4641 13.7737 12.3014H14.7872C14.8219 12.4009 14.7959 12.5093 14.7266 12.6539ZM14.9172 11.967H13.9036C13.9643 11.7501 14.0076 11.5422 14.0596 11.3253H15.0818C15.0731 11.506 15.0125 11.7501 14.9605 11.9308L14.9172 11.967ZM7.57121 19.6589C6.16785 17.3992 4.42665 14.5882 3.79427 12.5997C2.89473 10.0381 2.81269 7.24183 3.56038 4.62764C3.88604 3.54246 4.51705 2.58459 5.37139 1.87856C6.22572 1.17252 7.26386 0.75098 8.35085 0.668727H8.48079C9.58272 0.723353 10.6412 1.13355 11.5102 1.84268C12.3791 2.55181 13.0156 3.52491 13.3319 4.62764C14.0796 7.24183 13.9975 10.0381 13.098 12.5997C12.4743 14.5701 10.6205 17.5438 9.2691 19.7131L8.40283 21.0599L7.57121 19.6589ZM9.90147 21.4214H8.97456L9.28642 20.9152H9.96211H10.2307L9.90147 21.4214Z" fill="white"/>
<path d="M12.0672 7.09506C12.0723 6.34668 11.8643 5.61356 11.4696 4.9887C11.0749 4.36383 10.5112 3.87535 9.84997 3.58523C9.18879 3.29511 8.45992 3.21641 7.75581 3.35912C7.0517 3.50182 6.40407 3.8595 5.89506 4.38679C5.38605 4.91407 5.0386 5.58721 4.89676 6.32083C4.75492 7.05445 4.8251 7.81549 5.09838 8.50744C5.37167 9.19939 5.83575 9.79106 6.43177 10.2074C7.02779 10.6238 7.7289 10.8461 8.44617 10.8461C9.40204 10.8461 10.3191 10.4518 10.9975 9.74909C11.6758 9.04641 12.0603 8.09238 12.0672 7.09506ZM6.00329 8.84855H7.20741C7.31187 9.0503 7.43059 9.24366 7.56258 9.42702H6.49706C6.30709 9.25685 6.13829 9.06251 5.99463 8.84855H6.00329ZM5.57016 7.87238H6.83491C6.89025 8.08505 6.95972 8.29344 7.04281 8.49604H5.79539C5.69893 8.29726 5.62341 8.08815 5.57016 7.87238ZM7.55391 4.25693H7.25938C7.39692 4.19451 7.53882 4.14314 7.68385 4.10327L7.55391 4.25693ZM6.68764 4.6004H7.3027C7.15894 4.80124 7.03419 5.01616 6.9302 5.24214L6.06393 5.26925C6.2418 5.00405 6.45806 4.76926 6.70497 4.57328L6.68764 4.6004ZM5.82137 5.64888H6.83491C6.76856 5.86984 6.72216 6.09679 6.69631 6.32677H5.56149C5.62009 6.08154 5.70737 5.84476 5.82137 5.62176V5.64888ZM5.4662 7.09506C5.45844 6.96563 5.45844 6.83582 5.4662 6.70639H6.64433C6.63026 6.89894 6.63026 7.09232 6.64433 7.28487C6.64433 7.36621 6.64433 7.44756 6.68764 7.52891H5.43155C5.43335 7.38362 5.44492 7.23865 5.4662 7.09506ZM7.79647 9.73433C7.93419 9.8948 8.08177 10.0458 8.23827 10.1863C7.77636 10.1536 7.32829 10.008 6.9302 9.76145L7.79647 9.73433ZM11.4001 7.08602C11.3978 7.81003 11.1533 8.51047 10.7089 9.06654C10.2645 9.62261 9.6481 9.99944 8.96593 10.132C8.48336 9.79979 8.07498 9.36306 7.76855 8.8515C7.46213 8.33994 7.26483 7.76555 7.19008 7.16736C7.11368 6.56371 7.19581 5.94974 7.42771 5.39098C7.65962 4.83223 8.03259 4.34967 8.50681 3.99481C9.28358 4.01366 10.0226 4.34831 10.5663 4.92744C11.11 5.50657 11.4154 6.28436 11.4175 7.09506L11.4001 7.08602Z" fill="white"/>
<path d="M3.80297 16.9745L3.62971 16.6401L3.46512 16.2695L3.0753 15.3656C2.92803 15.0673 2.84141 14.7239 2.7028 14.3985C2.56624 14.056 2.44767 13.706 2.34763 13.35L2.02711 12.2473L1.79322 11.1265C1.71545 10.763 1.66047 10.3947 1.62863 10.0238L1.56799 9.49955C1.53939 9.3475 1.52201 9.19339 1.51601 9.03858V8.13471V7.71894V7.33932V6.72469C1.51601 6.38122 1.51601 6.18237 1.51601 6.18237C1.51601 6.18237 1.4727 6.37218 1.4034 6.70661L1.28212 7.3122L1.21282 7.68278C1.21282 7.81836 1.21282 7.96298 1.21282 8.1076L1.16084 9.03858C1.15352 9.3977 1.16799 9.75695 1.20416 10.1142C1.2185 10.4968 1.26195 10.8776 1.3341 11.253L1.55933 12.419L1.90583 13.5579C2.01698 13.9231 2.15304 14.2795 2.31298 14.6244C2.44306 14.9551 2.59055 15.2779 2.75478 15.5916L3.22256 16.4141C3.30053 16.5406 3.36117 16.6672 3.43047 16.7756L3.6557 17.0829L4.01087 17.5801L4.33139 18.0049C4.33139 18.0049 4.24476 17.8241 4.08883 17.5258L3.80297 16.9745Z" fill="white"/>
<path d="M1.35139 15.1577L1.14349 14.5702C1.06552 14.3623 1.01355 14.1273 0.935584 13.9013C0.85762 13.6753 0.788318 13.4313 0.736342 13.1782L0.563088 12.428L0.433147 11.6597C0.381171 11.4067 0.363846 11.1626 0.329195 10.9186C0.294544 10.6745 0.259894 10.4486 0.259894 10.2226V9.59893C0.259894 9.21027 0.259894 8.87584 0.259894 8.64987V8.28833L0.207917 8.64987L0.0693142 9.03854C0.0385951 9.21459 0.0212159 9.39291 0.017338 9.57181V10.2136C0.00593942 10.4514 0.00593942 10.6897 0.017338 10.9276C0.0289815 11.2035 0.0579191 11.4782 0.103965 11.7501L0.225243 12.5365L0.415822 13.3048C0.476331 13.5534 0.551552 13.7979 0.641052 14.0369C0.713872 14.2641 0.797719 14.4874 0.89227 14.7057L1.16081 15.2842C1.23258 15.4475 1.31658 15.6047 1.41203 15.7542L1.61994 16.1067L1.81052 16.414L1.73255 16.0344C1.61127 15.8175 1.46401 15.5283 1.35139 15.1577Z" fill="white"/>
<path d="M12.379 9.87908C11.9704 10.7369 11.2937 11.4238 10.4606 11.8263C9.62752 12.2289 8.68779 12.3232 7.79646 12.0935C7.58855 12.0483 7.44129 12.3195 7.69251 12.3737C8.67504 12.6274 9.71103 12.5248 10.6303 12.083C11.5497 11.6412 12.2977 10.8863 12.7515 9.94235C12.8468 9.77061 12.4657 9.71638 12.379 9.87908Z" fill="white"/>
<path d="M12.0325 11.8226C11.8104 12.1293 11.5321 12.3871 11.214 12.581C10.8958 12.7749 10.5439 12.9012 10.1787 12.9524C9.92748 12.9524 10.0661 13.2687 10.2826 13.2326C11.1084 13.1133 11.8557 12.6585 12.3617 11.9672C12.5003 11.7502 12.1278 11.6779 12.0325 11.8226Z" fill="white"/>
</g>
<defs>
<clipPath id="clip0">
<rect width="16" height="22" fill="white"/>
</clipPath>
</defs>
</svg>
