<svg width="32" height="23" viewBox="0 0 32 23" fill="none" xmlns="http://www.w3.org/2000/svg">
<g clip-path="url(#clip0)">
<path d="M31.3058 0.488846C30.9049 0.167082 30.4037 -0.00580151 29.8885 -0.000107871C29.2142 0.0049916 28.5517 0.176283 27.9602 0.498433C26.273 1.39964 25.6559 3.26917 25.0678 5.08118C24.8557 5.72353 24.6339 6.38505 24.364 6.99864L23.0913 5.08118L22.9178 4.83191C22.7924 4.65264 22.6041 4.5266 22.3899 4.47867C22.1757 4.43075 21.9512 4.46442 21.7608 4.57305L7.83851 12.9715C7.6445 13.0888 7.50513 13.2777 7.45091 13.497C7.3967 13.7162 7.43207 13.9478 7.54927 14.1412L8.15668 15.1575L8.67732 16.0107C8.07955 16.0107 7.33716 16.0107 6.60441 16.0107H5.41851C3.92908 15.8714 2.44244 16.3035 1.26304 17.2187C0.797336 17.5679 0.441845 18.0424 0.238543 18.586C0.0352409 19.1296 -0.00738217 19.7197 0.115707 20.2867C0.270706 20.6698 0.536843 20.9983 0.880236 21.2305C1.22363 21.4627 1.62874 21.588 2.044 21.5906C2.28842 21.5933 2.53096 21.5477 2.75747 21.4563C3.26421 21.2157 3.65796 20.7898 3.85659 20.2675C3.91834 20.1195 3.96361 19.9651 3.99157 19.8073C4.20752 19.9627 4.45353 20.072 4.71407 20.1281C4.97461 20.1842 5.24402 20.1859 5.50528 20.1333C5.83124 20.0581 6.12877 19.8918 6.3628 19.6539C6.59683 19.4161 6.7576 19.1167 6.82616 18.7911C7.10406 18.9191 7.40692 18.9845 7.71318 18.9828C8.13963 18.9849 8.55543 18.8504 8.89907 18.5993C9.26318 18.3409 9.52562 17.9647 9.64147 17.5351C10.702 19.2704 11.8108 21.0057 13.0256 22.6452C13.1064 22.7523 13.2113 22.8393 13.3317 22.8992C13.4522 22.9591 13.5851 22.9903 13.7198 22.9903C13.8468 22.9889 13.972 22.9594 14.0862 22.904C19.1019 20.5138 23.8604 17.6227 28.288 14.2754C28.461 14.1438 28.5772 13.9517 28.613 13.7381C28.6488 13.5244 28.6016 13.3052 28.4809 13.1249C27.5167 11.7444 26.4562 10.1049 25.3088 8.3888C25.4275 8.39872 25.5469 8.39872 25.6656 8.3888C26.0449 8.39344 26.4172 8.28673 26.7358 8.08201C27.0452 7.87304 27.2914 7.58399 27.4477 7.24606C27.604 6.90814 27.6646 6.53418 27.6228 6.16454C27.9482 6.20126 28.2776 6.14717 28.5738 6.00832C28.8701 5.86947 29.1217 5.65135 29.3004 5.37838C29.438 5.1609 29.5303 4.91813 29.5717 4.66449C29.6131 4.41086 29.6028 4.15154 29.5414 3.90193C29.6729 3.91374 29.8052 3.91374 29.9367 3.90193C30.2332 3.9051 30.5272 3.84806 30.8008 3.73431C31.0743 3.62056 31.3216 3.4525 31.5276 3.24041C31.8384 2.86999 32.003 2.39965 31.9904 1.91736C31.9809 1.64529 31.9152 1.37808 31.7975 1.13232C31.6797 0.88657 31.5124 0.667538 31.3058 0.488846ZM23.8819 7.43007L24.0265 7.65058L24.1037 7.66975C25.3956 9.58722 26.6683 11.5047 27.7288 13.0674C25.4438 12.0224 23.0913 11.0828 20.7195 10.2487L22.7731 5.75229L23.8819 7.43007ZM22.0693 5.12911C22.1104 5.11812 22.1536 5.11812 22.1946 5.12911C22.2257 5.13028 22.2563 5.13767 22.2845 5.15085C22.3126 5.16403 22.3378 5.18272 22.3586 5.20581L18.608 13.3742C18.4101 13.7989 18.0804 14.1492 17.6673 14.3735C17.2542 14.5979 16.7796 14.6845 16.3134 14.6206L8.27238 13.4222L22.0693 5.12911ZM8.57127 18.1008C8.30351 18.2946 7.9776 18.3926 7.64669 18.3786C7.31577 18.3647 6.99936 18.2397 6.74903 18.0241L6.18983 17.5159V18.2733C6.21344 18.5483 6.13684 18.8226 5.97401 19.0461C5.81117 19.2697 5.57295 19.4275 5.30281 19.4909C5.0192 19.5448 4.72569 19.5068 4.46539 19.3826C4.20509 19.2584 3.99171 19.0544 3.85659 18.8006V18.7431L3.28775 19.002C3.40923 19.3101 3.40923 19.6525 3.28775 19.9607C3.14231 20.3352 2.855 20.6381 2.48751 20.8044C2.3373 20.8639 2.17674 20.8932 2.01507 20.8907C1.72627 20.8931 1.44336 20.8094 1.20279 20.6505C0.962222 20.4916 0.775009 20.2647 0.66527 19.9991C0.580494 19.5455 0.625979 19.0774 0.796509 18.6484C0.967039 18.2194 1.25571 17.8468 1.62942 17.5735C2.69726 16.7719 4.02911 16.3989 5.36066 16.5284H6.52728C7.27931 16.5284 8.06991 16.5284 8.68696 16.5284C8.5703 16.5682 8.45113 16.6002 8.33023 16.6243C8.17471 16.6652 8.01697 16.6972 7.8578 16.7202C7.14433 16.8448 6.15126 16.864 5.15819 16.9599C4.90751 16.9599 4.66648 17.0174 4.42544 17.0845C4.18758 17.132 3.95259 17.1929 3.72161 17.2667C3.50748 17.3399 3.29817 17.4263 3.09492 17.5255C2.91218 17.6115 2.73788 17.7142 2.57428 17.8323L2.35253 17.9857L2.17898 18.1583C2.0802 18.2427 1.99271 18.3394 1.91866 18.4459L1.72583 18.7239L1.93794 18.4555C2.0161 18.355 2.10681 18.2648 2.2079 18.1871L2.39109 18.0337L2.61284 17.8898C2.77768 17.7846 2.95197 17.6947 3.13348 17.6214C3.37247 17.5794 3.61407 17.5538 3.85659 17.5447C4.08211 17.4874 4.31064 17.4426 4.54114 17.4105C4.77253 17.4105 5.02321 17.353 5.26425 17.3338C6.22839 17.3338 7.19254 17.3338 7.99278 17.2475C8.16746 17.2349 8.34129 17.2125 8.51342 17.1804C8.64687 17.1599 8.7789 17.1311 8.90872 17.0941H9.05334C9.04197 17.2911 8.98886 17.4835 8.89747 17.6586C8.80608 17.8337 8.67849 17.9877 8.52306 18.1104L8.57127 18.1008ZM8.67732 14.8411L8.20489 14.0549L13.1124 14.7548C12.8085 17.1215 12.8344 19.5185 13.1895 21.8782C11.5698 19.6252 10.1043 17.1996 8.67732 14.8411ZM13.8644 22.3096C13.4733 19.8414 13.4279 17.3312 13.7294 14.8507L16.2073 15.2054C16.3389 15.2149 16.471 15.2149 16.6026 15.2054C17.1406 15.2049 17.6671 15.0511 18.1199 14.7622C18.5727 14.4734 18.9328 14.0616 19.1576 13.5755L20.4206 10.8336C22.9178 11.706 25.386 12.7031 27.777 13.8056C23.4438 17.0955 18.7894 19.9445 13.8837 22.3096H13.8644ZM31.0455 2.9432C30.8936 3.09257 30.7126 3.20956 30.5137 3.28703C30.3148 3.36451 30.1021 3.40084 29.8885 3.39381C29.5678 3.40432 29.2547 3.29485 29.0112 3.08701L28.5773 3.52803C28.7742 3.73992 28.8966 4.00962 28.9261 4.2966C28.9557 4.58358 28.8908 4.87235 28.7412 5.11953C28.5861 5.34764 28.3551 5.51406 28.0888 5.58947C27.8225 5.66488 27.538 5.64445 27.2853 5.53178L26.5815 5.23457L26.8708 5.93445C26.9811 6.22919 26.9898 6.55204 26.8956 6.85226C26.8014 7.15248 26.6095 7.41306 26.3501 7.59306C26.1308 7.7296 25.8761 7.79957 25.6174 7.79439C25.3637 7.79378 25.1145 7.72771 24.8943 7.60264C25.0013 7.52884 25.0985 7.44187 25.1835 7.34379C25.3143 7.21087 25.4367 7.06999 25.5499 6.92194C25.6559 6.75896 25.7909 6.58639 25.897 6.39464C26.018 6.18668 26.1275 5.97224 26.2248 5.75229C26.408 5.32086 26.6008 4.86067 26.8129 4.41006C26.919 4.18955 27.0154 3.94987 27.1214 3.73895L27.4974 3.11577L27.9602 2.62682C28.0866 2.46921 28.2252 2.32175 28.3748 2.1858C28.4935 2.06374 28.619 1.94851 28.7508 1.84066L29.069 1.60098L29.339 1.39005L29.0497 1.5818L28.7219 1.80231C28.584 1.90343 28.4521 2.01226 28.3266 2.12828C28.168 2.25725 28.0197 2.39829 27.8831 2.55012L27.43 3.06784L26.9961 3.67184C26.8611 3.89235 26.7551 4.11286 26.6394 4.33336C26.3983 4.78397 26.1766 5.22499 25.9741 5.64683C25.8753 5.84429 25.7659 6.03632 25.6463 6.22207C25.5402 6.40423 25.4053 6.54804 25.2992 6.69185C25.2408 6.76727 25.1763 6.83781 25.1064 6.90277C25.3185 6.37546 25.5017 5.8194 25.6849 5.28251C26.273 3.50885 26.8322 1.83107 28.3266 1.0545C28.7059 0.801446 29.1485 0.658437 29.6049 0.641503C30.0613 0.624569 30.5134 0.73438 30.9105 0.958625C31.0484 1.07937 31.1604 1.22649 31.24 1.3912C31.3195 1.55591 31.3648 1.73485 31.3733 1.91736C31.3917 2.10153 31.3721 2.28748 31.3157 2.46386C31.2593 2.64024 31.1674 2.80335 31.0455 2.9432Z" fill="white"/>
</g>
<defs>
<clipPath id="clip0">
<rect width="32" height="23" fill="white"/>
</clipPath>
</defs>
</svg>
