<svg width="54" height="54" fill="none" xmlns="http://www.w3.org/2000/svg"><g clip-path="url(#clip0_681_0)"><rect width="54" height="54" rx="8" fill="#81A332"/><path fill-rule="evenodd" clip-rule="evenodd" d="M33.133 46.928c1.391-1.621 2.493-3.567 3.074-5.606.27-1 .928-1.74 1.691-2.301 1.164-.912 2.394-1.5 3.728-1.907l.83-.236c.088.023.136-.022.203-.085a.822.822 0 01.159-.124l.077-.286c.038-.143-.067-.324-.067-.324-.06-.104-.085-.148-.123-.174a.357.357 0 00-.124-.045l-.143-.039c-1.142-.307-2.828-.301-3.943-.141-.178.01-.309.011-.42.012a2.98 2.98 0 00-.304.011c1.866-.319 4.085-1.597 4.958-2.1 2.575-1.605 4.172-4.697 5.017-7.839.778-3.465.557-7.2-.53-10.555-.237-.829-.474-1.658-.672-2.63-.198-.972-.434-1.801-.67-2.63-.094-.791-.122-1.258.098-1.505.22-.247.724-.418 1.438-.226l.286.077c.143.038.324-.066.324-.066s.22-.247.258-.39l.077-.285c.23-.857.28-1.61.224-2.543-.093-.791-.33-1.62-.748-2.345l-.208-.362-.429-.116c-.856-.23-1.79-.175-2.724-.12-1.257.122-2.449.567-3.289 1.413-.878.989-1.47 2.054-1.673 3.378-.07.712-.025 1.359.024 2.063.013.181.026.366.037.556.066.324.132.649.055.934.698 3.097 1.298 7.699.597 10.879-.444 2.79-2.267 4.443-6.99 3.786l-1.18-.164c-.846-.115-1.694-.256-2.533-.395-3.703-.617-7.206-1.2-9.346.722 1.313.813 2.28 2.91 2.78 5.035-.824-2.059-3.64-3.613-4.551-3.983-1.901-.772-3.83-.72-5.708 0-.868.379-1.774.901-2.433 1.643-1.422 1.302-2.35 3.043-2.848 4.9-.126.462-.382 1.518-.395 2.037l-.014.278c-.08 1.575-.198 3.899.563 6.385l-.044.037c.033.055.07.116.113.182.867 2.661 2.765 5.488 6.807 7.769.652.456 1.296.796 1.909.96l.059.027c-6.156-.708-8.866-4.51-10.469-6.758-.21-.294-.4-.56-.576-.791-1.757.89-3.77 1.439-5.365 1.439V54h34.576c.018-.03.038-.059.057-.088.316-.468.619-.918-1.5-6.983z" fill="#fff"/></g><defs><clipPath id="clip0_681_0"><rect width="54" height="54" rx="8" fill="#fff"/></clipPath></defs></svg>