<svg width="66" height="38" fill="none" xmlns="http://www.w3.org/2000/svg"><rect width="66" height="38" rx="10" fill="#fff"/><path d="M0 0h18.898v38H0V0zm47.102 0H66v38H47.11l-.008-38zM23.125 18.362l-1.105.356 5.099 4.267c.389 1.092-.133 1.41-.467 1.99l5.527-.668-.133 5.306 1.153-.03-.257-5.269 5.542.63c-.342-.69-.646-1.053-.334-2.151l5.09-4.045-.887-.312c-.732-.534.312-2.575.467-3.867 0 0-2.966.972-3.16.46l-.763-1.388-2.701 2.836c-.296.066-.42-.045-.49-.282l1.245-5.923-1.978 1.061c-.163.074-.326.015-.435-.17L32.63 7.525l-1.962 3.777c-.147.134-.295.149-.42.06l-1.884-1.01 1.137 5.871c-.094.238-.312.297-.56.17l-2.593-2.797c-.335.52-.56 1.358-1.012 1.551-.444.178-1.946-.356-2.95-.564.342 1.18 1.416 3.14.74 3.785v-.007z" fill="#D52B1E"/></svg>