<svg width="66" height="38" fill="none" xmlns="http://www.w3.org/2000/svg"><rect width="66" height="38" rx="10" fill="#fff"/><path d="M0 0h66v38H0V0z" fill="#012169"/><path d="M13.246 0l19.672 14.33L52.51 0H65.4L39.45 19.08 64.8 38H52.35L33 23.83 13.73 38H1.8l24.669-18.842L1.198 0h12.047z" fill="#fff"/><path d="M41.385 22.246L63 38h-4.2L36.95 22.246h4.435zM26.55 23.829l.484 2.771L11.554 38H7.2l19.35-14.17zM58.8 0v.237L38.724 15.122l.162-3.484L54.769 0H58.8zM7.2 0l19.27 13.933h-4.838L3 0h4.2z" fill="#C8102E"/><path d="M26.63 0v38h12.9V0h-12.9zM0 12.667v12.666h66V12.667H0z" fill="#fff"/><path d="M0 15.28v7.6h66v-7.6H0zM29.21 0v38h7.74V0h-7.74z" fill="#C8102E"/></svg>