<svg width="66" height="38" fill="none" xmlns="http://www.w3.org/2000/svg"><rect width="66" height="38" rx="10" fill="#fff"/><path d="M0 0h66v38H0V0z" fill="#F93"/><path d="M0 13.063h66V38H0V13.062z" fill="#fff"/><path d="M0 24.938h66V38H0V24.937z" fill="#128807"/><path d="M32.4 24.068c2.827 0 5.12-2.269 5.12-5.067s-2.293-5.066-5.12-5.066c-2.828 0-5.12 2.268-5.12 5.066s2.292 5.067 5.12 5.067z" fill="#008"/><path d="M32.4 23.435c2.474 0 4.48-1.985 4.48-4.433 0-2.449-2.006-4.434-4.48-4.434-2.474 0-4.48 1.985-4.48 4.434 0 2.448 2.006 4.433 4.48 4.433z" fill="#fff"/><path d="M32.399 19.508A.51.51 0 0032.91 19a.51.51 0 00-.512-.507.51.51 0 00-.512.507c0 .28.229.506.512.506z" fill="#008"/><path d="M32.425 23.433l.154-2.66-.154-1.266-.153 1.266.153 2.66zm-1.673-.313l1.132-2.418.33-1.233-.613 1.122-.849 2.53zm4.828-1.1l-1.792-1.988-1.013-.788.796 1.003 2.01 1.774zm-1.367.937l-.93-2.501-.649-1.103.37 1.223 1.21 2.381zm-6.294-3.93l2.688.152 1.28-.152-1.28-.152-2.688.152zm.284-1.645l2.442 1.12 1.247.323-1.133-.608-2.556-.835zm1.041 4.674l2.01-1.774.796-1.003-1.014.788-1.792 1.989zm-.934-1.376l2.527-.915 1.113-.643-1.236.362-2.404 1.197zm4.115-6.112l-.154 2.66.154 1.266.153-1.267-.154-2.66zm1.627.307l-1.132 2.419-.33 1.233.614-1.122.848-2.53zm-4.808.875l1.792 1.99 1.014.787-.797-1.003-2.01-1.773zm1.406-.934l.93 2.501.65 1.103-.37-1.222-1.21-2.382zm6.23 4.209l-2.688-.152-1.28.152 1.28.152 2.688-.152zm-.345 1.616l-2.442-1.12-1.247-.323 1.133.608 2.556.835zm-.955-4.854l-2.01 1.773-.796 1.003 1.014-.788 1.792-1.988zm.948 1.371l-2.527.916-1.113.643 1.236-.362 2.404-1.197z" fill="#008"/></svg>