<svg width="65" height="38" fill="none" xmlns="http://www.w3.org/2000/svg"><g clip-path="url(#clip0_5391_44884)"><rect width="65" height="38" rx="10" fill="#fff"/><path fill-rule="evenodd" clip-rule="evenodd" d="M-7.09 0h72.091v2.924h-72.09V0zm0 5.848h72.091v2.925h-72.09V5.848zm0 5.842h72.091v2.931h-72.09V11.69zm0 5.848h72.091v2.924h-72.09v-2.924zm0 5.848h72.091v2.925h-72.09v-2.925zm0 5.841h72.091v2.925h-72.09v-2.925zm0 5.849h72.091V38h-72.09v-2.924z" fill="#BD3D44"/><path fill-rule="evenodd" clip-rule="evenodd" d="M0 0h27.182v20.188H0V0z" fill="#192F5D"/><path fill-rule="evenodd" clip-rule="evenodd" d="M2.232 1.188l.253.779h.798l-.644.479.245.787-.652-.487-.644.48.245-.78-.651-.48h.812l.238-.778zm4.547 0l.245.779h.805l-.651.479.245.787-.644-.487-.652.48.245-.78-.644-.48h.798l.253-.778zm4.539 0l.252.779h.791l-.644.479.245.787-.651-.487-.645.48.245-.78-.651-.48h.806l.252-.778zm4.546 0l.245.779h.805l-.65.479.251.787-.651-.487-.652.48.252-.78-.65-.48h.798l.252-.778zm4.539 0l.252.779h.799l-.645.479.245.787-.651-.487-.644.48.245-.78-.645-.48h.799l.245-.778zm4.546 0l.245.779H26l-.652.479.253.787-.652-.487-.651.48.252-.78-.652-.48h.806l.245-.778zM4.51 3.16l.245.78h.806l-.652.479.238.78-.63-.48-.651.48.23-.78-.63-.48h.799l.245-.779zm4.54 0l.251.78h.799l-.652.479.253.78-.652-.48-.651.48.252-.78-.652-.48h.806l.245-.779zm4.545 0l.245.78h.806l-.652.479.246.78-.645-.48-.651.48.245-.78-.645-.48h.8l.251-.779zm4.54 0l.252.78h.798l-.651.479.252.78-.652-.48-.644.48.245-.78-.651-.48h.812l.238-.779zm4.546 0l.245.78h.805l-.651.479.245.78-.645-.48-.65.48.244-.78-.644-.48h.798l.253-.779zM2.232 5.128l.253.793h.798l-.644.48.245.779-.652-.486-.644.486.245-.787-.651-.479h.812l.238-.786zm4.547 0l.245.786h.805l-.651.48.245.779-.644-.487-.652.487.245-.787-.644-.479h.798l.253-.78zm4.539 0l.252.786h.791l-.644.48.245.779-.651-.487-.645.487.245-.787-.651-.479h.806l.252-.78zm4.546 0l.245.786h.805l-.65.48.251.779-.651-.487-.652.487.252-.787-.65-.479h.798l.252-.78zm4.539 0l.252.786h.799l-.645.48.245.779-.651-.487-.644.487.245-.787-.645-.479h.799l.245-.78zm4.546 0l.245.786H26l-.652.48.253.779-.652-.487-.651.487.252-.787-.652-.479h.806l.245-.78zM4.51 7.1l.245.78h.806l-.652.479.245.786-.644-.486-.652.48.246-.78-.645-.48h.799L4.51 7.1zm4.54 0l.251.78h.799l-.652.479.253.786-.652-.486-.651.48.252-.78-.652-.48h.806l.245-.779zm4.545 0l.245.78h.806l-.652.479.246.786-.645-.486-.651.48.245-.78-.645-.48h.8l.251-.779zm4.54 0l.252.78h.798l-.644.479.245.786-.652-.486-.644.48.245-.78-.651-.48h.812l.238-.779zm4.546 0l.245.78h.805l-.651.479.245.786-.645-.486-.65.48.244-.78-.644-.48h.798l.253-.779zM2.232 9.075l.253.78h.798l-.644.478.245.787-.652-.486-.644.479.245-.78-.651-.479h.812l.238-.78zm4.547 0l.245.78h.805l-.651.478.245.78-.644-.48-.652.48.245-.78-.644-.479h.798l.253-.78zm4.539 0l.252.78h.791l-.644.478.245.787-.651-.486-.645.479.245-.78-.651-.479h.806l.252-.78zm4.546 0l.245.78h.805l-.65.478.251.787-.651-.486-.652.479.252-.78-.65-.479h.798l.252-.78zm4.539 0l.252.78h.799l-.645.478.245.787-.651-.486-.644.479.245-.78-.645-.479h.799l.245-.78zm4.546 0l.245.78H26l-.652.478.253.787-.652-.486-.651.479.252-.78-.652-.479h.806l.245-.78zM4.51 11.048l.245.78h.806l-.652.479.245.78-.644-.487-.652.486.246-.786-.645-.48h.799l.252-.772zm4.54 0l.251.78h.799l-.652.479.253.78-.652-.487-.651.486.252-.786-.652-.48h.806l.245-.772zm4.545 0l.245.78h.806l-.652.479.246.78-.645-.487-.651.486.245-.786-.645-.48h.8l.251-.772zm4.54 0l.252.78h.798l-.644.479.245.78-.652-.487-.644.486.245-.786-.651-.48h.812l.238-.772zm4.546 0l.245.78h.805l-.651.479.245.78-.645-.487-.65.486.244-.786-.644-.48h.798l.253-.772zM2.232 13.015l.253.786h.798l-.644.48.245.772-.652-.48-.644.48.245-.78-.651-.479h.812l.238-.78zm4.547 0l.245.786h.805l-.651.48.252.772-.651-.48-.652.48.252-.78-.651-.479h.798l.253-.78zm4.539 0l.252.786h.791l-.644.48.245.772-.651-.48-.645.48.245-.78-.651-.479h.806l.252-.78zm4.546 0l.245.786h.805l-.65.48.251.772-.651-.48-.652.48.252-.78-.65-.479h.798l.252-.78zm4.539 0l.252.786h.799l-.645.48.245.772-.651-.48-.644.48.245-.78-.645-.479h.799l.245-.78zm4.546 0l.245.786H26l-.652.48.253.772-.652-.48-.651.48.252-.78-.652-.479h.806l.245-.78zM4.51 14.988l.245.78h.806l-.652.479.245.787-.644-.487-.652.48.246-.78-.645-.48h.799l.252-.779zm4.54 0l.251.78h.799l-.652.479.253.787-.652-.487-.651.48.252-.78-.652-.48h.806l.245-.779zm4.545 0l.245.78h.806l-.652.479.246.787-.645-.487-.651.48.245-.78-.645-.48h.8l.251-.779zm4.54 0l.252.78h.798l-.644.479.245.787-.652-.487-.644.48.245-.78-.651-.48h.812l.238-.779zm4.546 0l.245.78h.805l-.651.479.245.787-.645-.487-.65.48.244-.78-.644-.48h.798l.253-.779zM2.232 16.962l.253.78h.798l-.644.479.245.779-.652-.48-.644.48.245-.787-.651-.479h.812l.238-.772zm4.547 0l.245.78h.805l-.651.479.252.779-.651-.48-.652.48.252-.787-.651-.479h.798l.253-.772zm4.539 0l.252.78h.791l-.63.479.245.779-.651-.48-.645.48.245-.787-.651-.479h.806l.238-.772zm4.546 0l.245.78h.805l-.65.479.251.779-.651-.48-.652.48.252-.787-.65-.479h.798l.252-.772zm4.539 0l.252.78h.799l-.645.479.245.779-.651-.48-.644.48.245-.787-.645-.479h.799l.245-.772zm4.546 0l.245.78H26l-.652.479.253.779-.652-.48-.651.48.252-.787-.652-.479h.806l.245-.772z" fill="#fff"/></g><defs><clipPath id="clip0_5391_44884"><rect width="65" height="38" rx="10" fill="#fff"/></clipPath></defs></svg>