<svg width="25" height="26" viewBox="0 0 25 26" fill="none" xmlns="http://www.w3.org/2000/svg">
<path d="M18.2869 24.2002C16.3877 24.2002 11.7705 21.7713 7.89395 16.5572C4.26816 11.6807 2.50488 8.15801 2.50488 5.7877C2.50488 3.92129 3.79395 3.03066 4.48613 2.55176L4.65723 2.43223C5.42207 1.88535 6.61191 1.70801 7.06816 1.70801C7.86816 1.70801 8.20488 2.17598 8.40879 2.58379C8.58223 2.9291 10.0189 6.01348 10.1643 6.39707C10.3877 6.98691 10.3143 7.84629 9.62363 8.34082L9.50254 8.42519C9.15957 8.66269 8.52207 9.1041 8.43379 9.6416C8.39082 9.90254 8.47832 10.176 8.70098 10.476C9.8127 11.9744 13.3635 16.3744 14.0033 16.9713C14.5049 17.44 15.14 17.5064 15.5729 17.1416C16.0205 16.7643 16.2197 16.5416 16.2213 16.5385L16.2674 16.4939C16.3049 16.4619 16.6549 16.1846 17.2268 16.1846C17.6393 16.1846 18.0588 16.3268 18.4736 16.6072C19.5502 17.3346 21.9791 18.9596 21.9791 18.9596L22.0182 18.9893C22.3291 19.2557 22.7783 20.0229 22.2541 21.0213C21.7111 22.058 20.0275 24.1979 18.2861 24.1979L18.2869 24.2002ZM7.06738 2.54238C6.67285 2.54238 5.70332 2.70879 5.14082 3.11113L4.95957 3.2377C4.31348 3.68457 3.3377 4.35879 3.3377 5.78848C3.3377 7.97363 5.04707 11.3338 8.56191 16.0611C12.401 21.2244 16.79 23.3682 18.2861 23.3682C19.5588 23.3682 21.0182 21.59 21.5166 20.6385C21.8229 20.0541 21.5721 19.7244 21.4854 19.6354C21.2041 19.4471 19.0135 17.9814 18.0064 17.301C17.7322 17.115 17.4689 17.0213 17.226 17.0213C17.0049 17.0213 16.8596 17.0994 16.8104 17.1307C16.7291 17.2174 16.5057 17.4471 16.108 17.7814C15.365 18.4072 14.2346 18.3314 13.433 17.583C12.7119 16.9096 9.06973 12.3752 8.02988 10.9744C7.67051 10.49 7.5291 9.99629 7.60957 9.50801C7.75566 8.62285 8.58223 8.0502 9.02598 7.74238L9.13691 7.66504C9.53379 7.38145 9.44941 6.86816 9.38379 6.69473C9.26113 6.37129 7.84238 3.31816 7.66269 2.95957C7.51582 2.66582 7.40019 2.54316 7.06582 2.54316L7.06738 2.54238Z" fill="white"/>
</svg>
