<svg width="25" height="26" viewBox="0 0 25 26" fill="none" xmlns="http://www.w3.org/2000/svg">
<path d="M4.5 2.45508C3.12524 2.45508 2 3.58032 2 4.95508V20.9551C2 22.3298 3.12524 23.4551 4.5 23.4551H12.916C12.97 23.464 13.0251 23.464 13.0791 23.4551H15.916C15.97 23.464 16.0251 23.464 16.0791 23.4551H20.5C21.8748 23.4551 23 22.3298 23 20.9551V4.95508C23 3.58032 21.8748 2.45508 20.5 2.45508H4.5ZM4.5 3.45508H20.5C21.3342 3.45508 22 4.12084 22 4.95508V20.9551C22 21.7893 21.3342 22.4551 20.5 22.4551H16.5V15.4551H18.4102L19.1104 11.9551H16.5V10.9551C16.5 10.6763 16.5265 10.6545 16.6201 10.5938C16.7137 10.533 17.0029 10.4551 17.5 10.4551H19V7.63965L18.7148 7.50391C18.7148 7.50391 17.5663 6.95508 16 6.95508C14.875 6.95508 13.9508 7.4033 13.3594 8.14258C12.768 8.88185 12.5 9.87174 12.5 10.9551V11.9551H11V15.4551H12.5V22.4551H4.5C3.66576 22.4551 3 21.7893 3 20.9551V4.95508C3 4.12084 3.66576 3.45508 4.5 3.45508ZM16 7.95508C17.0395 7.95508 17.6937 8.18431 18 8.30566V9.45508H17.5C16.9246 9.45508 16.4635 9.50268 16.0752 9.75488C15.6869 10.0071 15.5 10.4858 15.5 10.9551V12.9551H17.8896L17.5898 14.4551H15.5V22.4551H13.5V14.4551H12V12.9551H13.5V10.9551C13.5 10.0384 13.732 9.2783 14.1406 8.76758C14.5492 8.25685 15.125 7.95508 16 7.95508Z" fill="white"/>
</svg>
