<svg width="27" height="22" viewBox="0 0 27 22" fill="none" xmlns="http://www.w3.org/2000/svg">
<g clip-path="url(#clip0_79_1289)">
<path d="M0.458008 16.0231C0.458008 13.1579 2.78092 10.835 5.64658 10.835H11.1491V21.2112H5.64658C2.78092 21.2112 0.458466 18.8883 0.458466 16.0231H0.458008Z" fill="#71C23E" stroke="#121214" stroke-width="0.915254"/>
<path d="M16.3359 16.0331C16.3359 13.1684 18.6589 10.835 21.5241 10.835H27.0266V15.6881C27.0266 18.7386 24.554 21.2112 21.5035 21.2112C18.6497 21.2112 16.3359 18.8874 16.3359 16.0331Z" fill="#01A6BC" stroke="#121214" stroke-width="0.915254"/>
<path d="M11.1486 5.65763C11.1486 2.79197 8.82572 0.458984 5.96052 0.458984H0.458008V5.31212C0.458008 8.36266 2.93102 10.8357 5.98111 10.8357C8.83487 10.8357 11.1486 8.51139 11.1486 5.65763Z" fill="#FA547C" stroke="#121214" stroke-width="0.915254"/>
<path d="M21.5251 5.6471C21.5251 8.51231 19.2022 10.8352 16.337 10.8352C13.4718 10.8352 11.1484 8.51231 11.1484 5.6471C11.1484 2.7819 13.4714 0.458984 16.3366 0.458984C19.2018 0.458984 21.5251 2.78236 21.5251 5.6471Z" fill="#FAA525" stroke="#121214" stroke-width="0.915254"/>
<path d="M27.027 5.6471C27.027 2.7819 24.7041 0.458984 21.8384 0.458984H16.3359V10.8352H21.8384C24.7041 10.8352 27.0266 8.51231 27.0266 5.6471H27.027Z" fill="#FFD800" stroke="#121214" stroke-width="0.915254"/>
<path d="M16.3362 16.0231C16.3362 18.8883 14.0133 21.2112 11.1481 21.2112C8.28288 21.2112 5.95996 18.8883 5.95996 16.0231C5.95996 13.1579 8.28288 10.835 11.1481 10.835C14.0133 10.835 16.3362 13.1579 16.3362 16.0231Z" fill="#121214" stroke="#121214" stroke-width="0.915254"/>
</g>
<defs>
<clipPath id="clip0_79_1289">
<rect width="27" height="21.5085" fill="white"/>
</clipPath>
</defs>
</svg>
