<svg width="146" height="44" viewBox="0 0 146 44" fill="none" xmlns="http://www.w3.org/2000/svg">
<path d="M51.9511 3.44603H58.1358V42.0383H51.9511V3.44603Z" fill="white"/>
<path d="M87.0772 30.4606C87.0772 34.2209 85.9723 37.173 83.7623 39.317C81.5523 41.461 78.6826 42.5331 75.1532 42.5331C71.6238 42.5331 68.7542 41.461 66.5442 39.317C64.3342 37.173 63.2292 34.2209 63.2292 30.4606V16.5575H69.4139V30.4606C69.4139 32.3737 69.9416 33.8745 70.9971 34.963C72.0527 36.0186 73.438 36.5463 75.1532 36.5463C76.8355 36.5463 78.2043 36.0186 79.2598 34.963C80.3483 33.8745 80.8926 32.3737 80.8926 30.4606V16.5575H87.0772V30.4606Z" fill="white"/>
<path d="M91.3899 28.2836C91.3899 24.4904 92.5279 21.5052 94.8038 19.3282C97.0798 17.1512 100.048 16.0627 103.71 16.0627C107.338 16.0627 110.29 17.1512 112.566 19.3282C114.875 21.5052 116.03 24.4904 116.03 28.2836V42.0383H109.845V28.432C109.845 26.42 109.268 24.8697 108.113 23.7812C106.992 22.6597 105.524 22.099 103.71 22.099C101.896 22.099 100.411 22.6597 99.2568 23.7812C98.1353 24.8697 97.5745 26.42 97.5745 28.432V42.0383H91.3899V28.2836Z" fill="white"/>
<path d="M131.85 42.5331C128.254 42.5331 125.236 41.2796 122.795 38.7728C120.387 36.2659 119.183 33.1159 119.183 29.3226C119.183 25.4964 120.453 22.3298 122.993 19.823C125.566 17.3162 128.815 16.0627 132.74 16.0627C136.533 16.0627 139.683 17.2832 142.19 19.724C144.73 22.1649 146 25.2325 146 28.9268V42.0383H140.261V37.8822C138.348 40.9828 135.544 42.5331 131.85 42.5331ZM137.688 34.5177C139.04 33.1324 139.716 31.4007 139.716 29.3226C139.716 27.2446 139.04 25.5294 137.688 24.177C136.368 22.7916 134.67 22.099 132.592 22.099C130.547 22.099 128.848 22.7916 127.496 24.177C126.143 25.5294 125.467 27.2446 125.467 29.3226C125.467 31.4007 126.143 33.1324 127.496 34.5177C128.848 35.8701 130.547 36.5463 132.592 36.5463C134.67 36.5463 136.368 35.8701 137.688 34.5177Z" fill="white"/>
<path d="M42.0557 22C42.0557 33.6133 32.6412 43.0278 21.0278 43.0278C9.41448 43.0278 0 33.6133 0 22C0 10.3866 9.41448 0.972168 21.0278 0.972168C32.6412 0.972168 42.0557 10.3866 42.0557 22Z" fill="white"/>
</svg>
