<svg width="31" height="30" viewBox="0 0 31 30" fill="none" xmlns="http://www.w3.org/2000/svg">
<path d="M17.6176 16.25H12.6176C10.9606 16.252 9.37206 16.9111 8.20039 18.0828C7.02872 19.2544 6.3696 20.843 6.36761 22.5V26.25H23.8676V22.5C23.8656 20.843 23.2065 19.2544 22.0348 18.0828C20.8632 16.9111 19.2746 16.252 17.6176 16.25ZM21.3676 23.75H8.86761V22.5C8.86761 21.5054 9.2627 20.5516 9.96596 19.8483C10.6692 19.1451 11.6231 18.75 12.6176 18.75H17.6176C18.6122 18.75 19.566 19.1451 20.2693 19.8483C20.9725 20.5516 21.3676 21.5054 21.3676 22.5V23.75Z" fill="url(#paint0_linear_26_314)"/>
<path d="M15.1176 15C16.3537 15 17.5621 14.6334 18.5899 13.9467C19.6177 13.2599 20.4188 12.2838 20.8919 11.1418C21.3649 9.99974 21.4887 8.74307 21.2475 7.53069C21.0064 6.31831 20.4111 5.20466 19.537 4.33059C18.663 3.45651 17.5493 2.86125 16.3369 2.62009C15.1245 2.37894 13.8679 2.50271 12.7258 2.97576C11.5838 3.4488 10.6077 4.24988 9.92093 5.27769C9.23417 6.3055 8.86761 7.51387 8.86761 8.75C8.8696 10.407 9.52872 11.9956 10.7004 13.1672C11.8721 14.3389 13.4606 14.998 15.1176 15ZM15.1176 5C15.8593 5 16.5843 5.21994 17.201 5.63199C17.8177 6.04405 18.2983 6.62972 18.5822 7.31494C18.866 8.00016 18.9403 8.75416 18.7956 9.48159C18.6509 10.209 18.2937 10.8772 17.7693 11.4017C17.2448 11.9261 16.5766 12.2833 15.8492 12.4279C15.1218 12.5726 14.3678 12.4984 13.6826 12.2146C12.9973 11.9307 12.4117 11.4501 11.9996 10.8334C11.5875 10.2167 11.3676 9.49168 11.3676 8.75C11.3676 7.75544 11.7627 6.80161 12.466 6.09835C13.1692 5.39509 14.1231 5 15.1176 5Z" fill="url(#paint1_linear_26_314)"/>
<defs>
<linearGradient id="paint0_linear_26_314" x1="6.36761" y1="16.25" x2="24.4297" y2="17.3968" gradientUnits="userSpaceOnUse">
<stop stop-color="#00D1FF"/>
<stop offset="1" stop-color="#0866D5"/>
</linearGradient>
<linearGradient id="paint1_linear_26_314" x1="8.86761" y1="2.5" x2="21.8041" y2="2.96935" gradientUnits="userSpaceOnUse">
<stop stop-color="#00D1FF"/>
<stop offset="1" stop-color="#0866D5"/>
</linearGradient>
</defs>
</svg>
