<svg width="40" height="40" fill="none" xmlns="http://www.w3.org/2000/svg"><rect x="13" y="13" width="27" height="27" rx="4" fill="#CDE890"/><path d="M20 7.5c6.904 0 12.5 5.596 12.5 12.5S26.904 32.5 20 32.5a12.45 12.45 0 01-5.734-1.39l-4.782 1.334a1.563 1.563 0 01-1.925-1.925l1.334-4.779A12.45 12.45 0 017.5 20c0-6.904 5.596-12.5 12.5-12.5zm0 1.875C14.132 9.375 9.375 14.132 9.375 20c0 1.837.466 3.604 1.341 5.172l.189.337-1.391 4.98 4.983-1.39.337.188A10.571 10.571 0 0020 30.625c5.868 0 10.625-4.757 10.625-10.625S25.868 9.375 20 9.375zM15.937 21.25h5.623a.937.937 0 01.128 1.866l-.128.009h-5.622a.937.937 0 01-.128-1.866l.127-.009h5.623-5.622zm0-4.375h8.131a.937.937 0 01.127 1.866l-.127.009h-8.13a.937.937 0 01-.128-1.866l.127-.009h8.131-8.13z" fill="#941759"/></svg>