<svg width="40" height="40" fill="none" xmlns="http://www.w3.org/2000/svg"><rect x="13" y="13" width="27" height="27" rx="4" fill="#CDE890"/><path d="M18.778 9.998a8.092 8.092 0 00-.886 1.877h-7.58c-1.208 0-2.187.98-2.187 2.188v10.624c0 1.209.98 2.188 2.188 2.188h2.81l.002 4.688 6.267-4.688h7.796c1.208 0 2.187-.98 2.187-2.188l.001-3.103a8.147 8.147 0 001.875-1.347l-.001 4.45a4.062 4.062 0 01-4.063 4.063h-7.171l-6.268 4.688a1.562 1.562 0 01-2.498-1.25l-.001-3.438h-.937a4.062 4.062 0 01-4.062-4.063V14.063A4.062 4.062 0 0110.313 10l8.465-.002zM25.625 7.5a6.875 6.875 0 110 13.75 6.875 6.875 0 010-13.75zm3.308 3.933l-5.115 5.116-1.443-1.924a.625.625 0 10-1 .75l1.875 2.5a.625.625 0 00.942.067l5.625-5.625a.625.625 0 00-.884-.884z" fill="#941759"/></svg>