<svg width="40" height="40" fill="none" xmlns="http://www.w3.org/2000/svg"><rect x="13" y="13" width="27" height="27" rx="4" fill="#CDE890"/><path d="M23.438 23.75c1.208 0 2.187.98 2.187 2.188l-.001 1.202c.146 2.736-1.89 4.121-5.54 4.121-3.637 0-5.709-1.362-5.709-4.073v-1.25c0-1.209.98-2.188 2.188-2.188h6.875zm0 1.875h-6.875a.312.312 0 00-.313.313v1.25c0 1.47 1.108 2.198 3.834 2.198 2.71 0 3.744-.704 3.666-2.196v-1.253a.312.312 0 00-.313-.312zM9.688 17.5h5.47a5.01 5.01 0 00-.12 1.874l-5.35.001a.312.312 0 00-.313.313v1.25c0 1.47 1.108 2.198 3.834 2.198.577 0 1.078-.032 1.509-.096a3.429 3.429 0 00-1.466 1.97l-.043.001c-3.637 0-5.709-1.362-5.709-4.073v-1.25c0-1.209.98-2.188 2.188-2.188zm20.624 0c1.209 0 2.188.98 2.188 2.188l-.001 1.202c.145 2.736-1.89 4.121-5.54 4.121l-.21-.002a3.446 3.446 0 00-1.524-2.008c.484.09 1.06.135 1.733.135 2.71 0 3.745-.704 3.667-2.196v-1.253a.312.312 0 00-.313-.312l-5.35-.001a5.04 5.04 0 00-.12-1.874h5.47zM20 15a3.75 3.75 0 110 7.5 3.75 3.75 0 010-7.5zm0 1.875a1.875 1.875 0 100 3.75 1.875 1.875 0 000-3.75zM13.125 8.75a3.75 3.75 0 110 7.5 3.75 3.75 0 010-7.5zm13.75 0a3.75 3.75 0 110 7.5 3.75 3.75 0 010-7.5zm-13.75 1.875a1.875 1.875 0 100 3.75 1.875 1.875 0 000-3.75zm13.75 0a1.875 1.875 0 100 3.75 1.875 1.875 0 000-3.75z" fill="#941759"/></svg>