<svg width="40" height="40" fill="none" xmlns="http://www.w3.org/2000/svg"><rect x="13" y="13" width="27" height="27" rx="4" fill="#CDE890"/><path fill-rule="evenodd" clip-rule="evenodd" d="M15.625 11.563a2.813 2.813 0 012.813-2.813h3.125a2.813 2.813 0 012.812 2.813v2.212h4.063a2.813 2.813 0 012.812 2.812v13.75c0 .518-.42.938-.938.938H9.688a.937.937 0 01-.937-.938v-10a2.813 2.813 0 012.813-2.812h4.062v-5.962zM17.5 29.4h5V11.563a.937.937 0 00-.938-.938h-3.125a.937.937 0 00-.937.938V29.4zm-1.875-10h-4.063a.937.937 0 00-.937.938V29.4h5v-10zm8.75 10V15.65h4.063c.517 0 .937.42.937.937V29.4h-5z" fill="#941759"/></svg>