<svg width="40" height="40" fill="none" xmlns="http://www.w3.org/2000/svg"><rect x="13" y="13" width="27" height="27" rx="4" fill="#CDE890"/><path d="M20.002 7.5c6.905 0 12.502 5.597 12.502 12.502s-5.597 12.502-12.502 12.502S7.5 26.907 7.5 20.002 13.097 7.5 20.002 7.5zm3.674 18.127h-7.348c.815 3.017 2.232 5.002 3.674 5.002 1.442 0 2.858-1.985 3.674-5.002zm-9.289 0h-3.403a10.664 10.664 0 005.118 4.263c-.653-1.024-1.192-2.307-1.588-3.769l-.127-.494zm14.633 0h-3.403c-.405 1.668-.99 3.125-1.716 4.264a10.66 10.66 0 004.887-3.91l.232-.354zm-15.151-8.126H9.672l-.006.022c-.19.795-.291 1.625-.291 2.479 0 1.32.24 2.584.68 3.75h3.967a25.373 25.373 0 01-.272-3.75c0-.855.04-1.692.119-2.5zm10.38 0h-8.493a23.714 23.714 0 00.169 6.251h8.154c.192-1.163.3-2.426.3-3.75 0-.863-.046-1.7-.13-2.5zm6.084 0h-4.198a26.11 26.11 0 01-.153 6.25l3.966.001a10.6 10.6 0 00.68-3.75c0-.862-.102-1.7-.295-2.502zm-14.23-7.388l-.028.011a10.665 10.665 0 00-5.76 5.503h3.81c.392-2.19 1.075-4.098 1.978-5.514zm3.899-.738l-.145.007c-1.581.144-3.11 2.647-3.82 6.245h7.929c-.708-3.588-2.23-6.087-3.806-6.244l-.158-.008zm3.9.739l.133.217c.837 1.39 1.472 3.216 1.844 5.296h3.81a10.668 10.668 0 00-5.423-5.362l-.364-.152z" fill="#941759"/></svg>