<svg xmlns="http://www.w3.org/2000/svg" xmlns:xlink="http://www.w3.org/1999/xlink" viewBox="0 0 1920 61"><defs><style>.cls-1{fill:url(#linear-gradient);}.cls-2{fill:#e8ac8e;}.cls-3{fill:#cf9278;}</style><linearGradient id="linear-gradient" x1="960" x2="960" y2="63.13" gradientUnits="userSpaceOnUse"><stop offset="0.16" stop-color="#cf9278"/><stop offset="0.46" stop-color="#ba836e"/><stop offset="0.74" stop-color="#ac7967"/><stop offset="1" stop-color="#a87665"/></linearGradient></defs><g id="Слой_2" data-name="Слой 2"><g id="Layer_1" data-name="Layer 1"><rect class="cls-1" width="1920" height="61"/><path class="cls-2" d="M719.46,9.43,740,27.29l2.76,2.4a19.91,19.91,0,0,0,13.07,4.89h23.31a16.44,16.44,0,0,1,10.79,4l3.23,2.81a22.23,22.23,0,0,0,14.57,5.45H914.68a29.6,29.6,0,0,0,19.43-7.27l34.7-30.17Z"/><path class="cls-3" d="M940.71,9.43a10.56,10.56,0,0,0-8.4,4.17L911.19,41.42c-2.67,3.51-6.08,5.45-9.62,5.45h13.11a29.6,29.6,0,0,0,19.43-7.27l34.7-30.17Z"/><path class="cls-3" d="M844.1,46.87H811.44a20.89,20.89,0,0,1-15.76-6.67l-3.83-3.44a17.82,17.82,0,0,0-11.67-4.94H759.57c-4.8,0-9.82-2.13-14.13-6l-16.71-15c-.54-.48-1.09-.95-1.64-1.41h54.67l3.15,3.78,7.41,8.85c3.22,3.87,6.84,6,10.21,6h10.83c3.74,0,6.39,2.08,9.42,4.94,1.53,1.45,3.91,4,5.23,5.32C834.74,44.9,840.35,46.87,844.1,46.87Z"/></g></g></svg>