<svg width="191" height="165" viewBox="0 0 191 165" fill="none" xmlns="http://www.w3.org/2000/svg">
<path d="M56.7697 40.2195C56.7697 42.3523 57.617 44.3978 59.1251 45.9059C60.6332 47.414 62.6787 48.2613 64.8115 48.2613H110.743C111.8 48.2599 112.846 48.4669 113.822 48.8706C114.799 49.2742 115.686 49.8665 116.433 50.6135C117.18 51.3606 117.772 52.2476 118.176 53.2239C118.579 54.2002 118.786 55.2466 118.785 56.303C118.786 57.3595 118.579 58.4058 118.176 59.3821C117.772 60.3585 117.18 61.2455 116.433 61.9926C115.686 62.7396 114.799 63.3319 113.822 63.7355C112.846 64.1392 111.8 64.3462 110.743 64.3448H83.5863C81.4535 64.3448 79.408 65.1921 77.8999 66.7002C76.3918 68.2083 75.5445 70.2538 75.5445 72.3866C75.5431 73.443 75.7501 74.4894 76.1538 75.4657C76.5574 76.442 77.1497 77.3291 77.8968 78.0761C78.6438 78.8231 79.5308 79.4154 80.5072 79.8191C81.4835 80.2227 82.5298 80.4298 83.5863 80.4284H154.377C155.434 80.4298 156.48 80.2227 157.456 79.8191C158.433 79.4154 159.32 78.8231 160.067 78.0761C160.814 77.3291 161.406 76.442 161.81 75.4657C162.213 74.4894 162.42 73.443 162.419 72.3866C162.419 70.2538 161.572 68.2083 160.064 66.7002C158.556 65.1921 156.51 64.3448 154.377 64.3448H151.367C150.31 64.3462 149.264 64.1392 148.288 63.7355C147.312 63.3319 146.424 62.7396 145.677 61.9926C144.93 61.2455 144.338 60.3585 143.934 59.3821C143.531 58.4058 143.324 57.3595 143.325 56.303C143.324 55.2466 143.531 54.2002 143.934 53.2239C144.338 52.2476 144.93 51.3606 145.677 50.6135C146.424 49.8665 147.312 49.2742 148.288 48.8706C149.264 48.4669 150.31 48.2599 151.367 48.2613H182.726C184.858 48.2613 186.904 47.414 188.412 45.9059C189.92 44.3978 190.767 42.3523 190.767 40.2195C190.769 39.163 190.562 38.1167 190.158 37.1404C189.754 36.1641 189.162 35.277 188.415 34.53C187.668 33.783 186.781 33.1907 185.805 32.787C184.828 32.3834 183.782 32.1763 182.726 32.1777H167.919C165.785 32.1749 163.739 31.3253 162.231 29.8155C160.724 28.3057 159.877 26.2591 159.877 24.1253C159.88 21.9934 160.728 19.9495 162.235 18.442C163.743 16.9345 165.787 16.0864 167.919 16.0835H168.387C169.443 16.0849 170.489 15.8779 171.466 15.4743C172.442 15.0706 173.329 14.4783 174.076 13.7313C174.823 12.9843 175.415 12.0972 175.819 11.1209C176.223 10.1446 176.43 9.09823 176.428 8.04177C176.428 5.90896 175.581 3.86351 174.073 2.35538C172.565 0.847256 170.519 0 168.387 0L131.443 0C129.31 -1.86178e-06 127.263 0.846914 125.753 2.35473C124.243 3.86255 123.394 5.90798 123.391 8.04177C123.391 9.09873 123.599 10.1453 124.004 11.1217C124.409 12.0981 125.002 12.985 125.75 13.7319C126.498 14.4788 127.386 15.0709 128.363 15.4745C129.34 15.878 130.386 16.0849 131.443 16.0835H138.592C140.724 16.0864 142.767 16.9345 144.275 18.442C145.782 19.9495 146.631 21.9934 146.633 24.1253C146.633 26.2591 145.786 28.3057 144.279 29.8155C142.771 31.3253 140.725 32.1749 138.592 32.1777H64.8115C63.755 32.1763 62.7087 32.3834 61.7324 32.787C60.7561 33.1907 59.869 33.783 59.122 34.53C58.3749 35.277 57.7827 36.1641 57.379 37.1404C56.9754 38.1167 56.7683 39.163 56.7697 40.2195Z" fill="#3D2C62"/>
<path d="M27.964 136.625V137.997C27.9654 138.963 27.7763 139.92 27.4075 140.813C27.0388 141.706 26.4976 142.518 25.8149 143.202C25.1322 143.885 24.3214 144.428 23.4289 144.798C22.5365 145.168 21.5798 145.358 20.6136 145.358C19.6466 145.357 18.6888 145.546 17.795 145.916C16.9013 146.285 16.0893 146.827 15.4055 147.511C14.7217 148.195 14.1795 149.007 13.8101 149.901C13.4407 150.794 13.2512 151.752 13.2526 152.719V154.081C13.2526 156.033 14.0282 157.905 15.4086 159.286C16.7891 160.666 18.6614 161.442 20.6136 161.442H69.9599C71.9122 161.442 73.7845 160.666 75.1649 159.286C76.5454 157.905 77.3209 156.033 77.3209 154.081V152.719C77.3209 150.767 76.5454 148.895 75.1649 147.514C73.7845 146.134 71.9122 145.358 69.9599 145.358H63.0882C62.1221 145.358 61.1654 145.168 60.2729 144.798C59.3804 144.428 58.5697 143.885 57.887 143.202C57.2043 142.518 56.6631 141.706 56.2943 140.813C55.9256 139.92 55.7365 138.963 55.7379 137.997V136.625C55.7365 135.659 55.9256 134.702 56.2943 133.809C56.6631 132.916 57.2043 132.104 57.887 131.421C58.5697 130.737 59.3804 130.195 60.2729 129.825C61.1654 129.455 62.1221 129.264 63.0882 129.264H95.1064C96.0726 129.265 97.0295 129.076 97.9225 128.708C98.8155 128.339 99.6271 127.798 100.311 127.115C100.994 126.432 101.537 125.622 101.907 124.729C102.277 123.837 102.467 122.88 102.467 121.914V120.542C102.467 118.589 101.692 116.717 100.311 115.337C98.9309 113.956 97.0587 113.181 95.1064 113.181H7.59362C5.64137 113.181 3.76907 113.956 2.38862 115.337C1.00817 116.717 0.232635 118.589 0.232635 120.542L0.232635 121.914C0.232634 122.88 0.423109 123.837 0.793163 124.729C1.16322 125.622 1.70559 126.432 2.38926 127.115C3.07293 127.798 3.88448 128.339 4.7775 128.708C5.67051 129.076 6.62747 129.265 7.59362 129.264H20.6136C21.5798 129.264 22.5365 129.455 23.4289 129.825C24.3214 130.195 25.1322 130.737 25.8149 131.421C26.4976 132.104 27.0388 132.916 27.4075 133.809C27.7763 134.702 27.9654 135.659 27.964 136.625Z" fill="#3D2C62"/>
<path d="M168.02 87.6895C167.975 46.4955 134.545 13.1371 93.3507 13.1816C52.1567 13.226 18.7983 46.6564 18.8428 87.8505C18.8872 129.045 52.3177 162.403 93.5117 162.358C134.706 162.314 168.064 128.884 168.02 87.6895Z" fill="#AC501B"/>
<path d="M158.249 50.8354C166.836 68.2345 168.305 88.2943 162.347 106.759C156.388 125.224 143.47 140.641 126.333 149.738C109.196 158.836 89.1881 160.9 70.555 155.49C51.9218 150.081 36.1293 137.625 26.5279 120.765C30.9456 129.717 37.115 137.691 44.6706 144.215C52.2261 150.738 61.0143 155.68 70.5143 158.745C80.0143 161.811 90.033 162.939 99.9769 162.062C109.921 161.185 119.587 158.322 128.404 153.641C137.221 148.96 145.009 142.557 151.307 134.812C157.604 127.066 162.283 118.136 165.066 108.549C167.849 98.9624 168.679 88.9147 167.509 79.0012C166.338 69.0876 163.189 59.5099 158.249 50.8354Z" fill="#82492C"/>
<path d="M20.5498 90.2466C20.5432 75.7059 24.7868 61.4804 32.7587 49.3198C40.7305 37.1592 52.0829 27.5939 65.4196 21.8004C78.7562 16.0068 93.4954 14.2378 107.824 16.7108C122.153 19.1839 135.446 25.7912 146.07 35.7199C139.232 28.4311 130.999 22.591 121.86 18.5465C112.721 14.502 102.862 12.3356 92.8691 12.1761C82.8763 12.0166 72.9534 13.8672 63.6899 17.618C54.4263 21.3687 46.0112 26.9431 38.9443 34.01C31.8774 41.0768 26.303 49.492 22.5523 58.7555C18.8015 68.0191 16.9509 77.942 17.1105 87.9348C17.27 97.9276 19.4363 107.786 23.4808 116.925C27.5253 126.065 33.3654 134.298 40.6543 141.135C27.7254 127.346 20.5363 109.149 20.5498 90.2466Z" fill="#D47D39"/>
<path d="M93.4257 162.878C78.5683 162.878 64.0445 158.472 51.691 150.218C39.3376 141.963 29.7092 130.231 24.0235 116.505C18.3378 102.778 16.8502 87.674 19.7487 73.1021C22.6473 58.5302 29.8018 45.145 40.3076 34.6392C50.8133 24.1335 64.1985 16.9789 78.7704 14.0804C93.3423 11.1819 108.447 12.6695 122.173 18.3552C135.899 24.0409 147.632 33.6692 155.886 46.0227C164.14 58.3762 168.546 72.9 168.546 87.7574C168.526 107.674 160.606 126.77 146.522 140.854C132.438 154.937 113.343 162.858 93.4257 162.878V162.878ZM93.4257 13.7114C78.7782 13.7114 64.4597 18.055 52.2809 26.1929C40.1021 34.3308 30.6101 45.8975 25.0053 59.4302C19.4004 72.9629 17.9344 87.8538 20.7928 102.22C23.6512 116.586 30.7054 129.781 41.0635 140.138C51.4216 150.494 64.6182 157.547 78.9845 160.403C93.3507 163.259 108.241 161.791 121.773 156.184C135.305 150.578 146.871 141.084 155.007 128.904C163.143 116.724 167.484 102.405 167.482 87.7574C167.46 68.1242 159.65 49.3018 145.766 35.4201C131.882 21.5383 113.059 13.7311 93.4257 13.7114V13.7114Z" fill="#34255F"/>
<path d="M24.5708 69.3655H24.4325C24.2982 69.3236 24.185 69.232 24.1158 69.1095C24.0466 68.9869 24.0268 68.8427 24.0602 68.706C26.6703 59.1601 31.2168 50.2533 37.4168 42.5399C43.6168 34.8265 51.3378 28.4714 60.0993 23.8699C60.1614 23.8371 60.2295 23.8168 60.2995 23.8103C60.3694 23.8038 60.44 23.8111 60.5072 23.8318C60.5744 23.8526 60.6368 23.8863 60.6909 23.9312C60.745 23.9761 60.7898 24.0312 60.8226 24.0933C60.8554 24.1555 60.8757 24.2235 60.8822 24.2935C60.8888 24.3635 60.8815 24.4341 60.8607 24.5012C60.84 24.5684 60.8062 24.6308 60.7613 24.685C60.7165 24.7391 60.6614 24.7838 60.5992 24.8167C51.9656 29.3462 44.3573 35.6052 38.2485 43.2037C32.1397 50.8023 27.6611 59.5775 25.092 68.9826C25.0593 69.0948 24.9905 69.1931 24.8963 69.2624C24.8021 69.3316 24.6877 69.3678 24.5708 69.3655Z" fill="white"/>
<path d="M22.0922 88.0977C21.9512 88.0977 21.8159 88.0417 21.7161 87.9419C21.6164 87.8422 21.5604 87.7069 21.5604 87.5658C21.5583 85.1537 21.679 82.743 21.922 80.3431C21.9273 80.2736 21.9465 80.2059 21.9785 80.1439C22.0104 80.0819 22.0545 80.027 22.1081 79.9824C22.1616 79.9377 22.2236 79.9043 22.2903 79.8841C22.357 79.8638 22.4271 79.8571 22.4964 79.8645C22.5664 79.8711 22.6344 79.8915 22.6964 79.9246C22.7584 79.9577 22.8133 80.0027 22.8578 80.0571C22.9023 80.1115 22.9356 80.1742 22.9557 80.2416C22.9759 80.3089 22.9825 80.3796 22.9751 80.4495C22.7411 82.8003 22.6241 85.1937 22.6241 87.5658C22.6241 87.6357 22.6103 87.7048 22.5836 87.7694C22.5569 87.8339 22.5177 87.8925 22.4683 87.9419C22.4189 87.9913 22.3603 88.0305 22.2958 88.0572C22.2312 88.0839 22.1621 88.0977 22.0922 88.0977Z" fill="white"/>
<path d="M93.5002 87.619L70.5768 28.3269L84.884 24.6357L93.5002 87.619Z" fill="#E43632"/>
<path d="M93.5002 87.619L57.5143 35.2092L70.5875 28.3163L93.5002 87.619Z" fill="#434786"/>
<path d="M93.5001 87.6192L46.3983 44.9212L57.5355 35.1987L93.5001 87.6192Z" fill="#E43632"/>
<path d="M93.5002 87.6191L37.8247 56.9413L46.4196 44.9105L93.5002 87.6191Z" fill="#434786"/>
<path d="M93.5002 87.6192L32.2508 70.6102L37.8354 56.92L93.5002 87.6192Z" fill="#E43632"/>
<path d="M93.5001 87.6191L29.9744 85.1938L32.2507 70.5889L93.5001 87.6191Z" fill="#434786"/>
<path d="M93.5001 87.6191L31.1338 99.9051L29.9744 85.1619L93.5001 87.6191Z" fill="#E43632"/>
<path d="M93.5003 87.6191L35.6442 113.957L31.1234 99.8839L93.5003 87.6191Z" fill="#434786"/>
<path d="M93.5001 87.6191L43.2816 126.594L35.6334 113.936L93.5001 87.6191Z" fill="#E43632"/>
<path d="M93.5001 87.6191L53.621 137.125L43.2603 126.573L93.5001 87.6191Z" fill="#434786"/>
<path d="M93.5002 87.6191L66.1092 144.986L53.5998 137.114L93.5002 87.6191Z" fill="#E43632"/>
<path d="M93.5002 87.6191L80.0759 149.762L66.0879 144.975L93.5002 87.6191Z" fill="#434786"/>
<path d="M93.5002 87.6191L94.7661 151.177L80.0547 149.751L93.5002 87.6191Z" fill="#E43632"/>
<path d="M93.5002 87.6191L109.392 149.177L94.7448 151.177L93.5002 87.6191Z" fill="#434786"/>
<path d="M93.5002 87.6191L123.157 143.848L109.371 149.177L93.5002 87.6191Z" fill="#E43632"/>
<path d="M93.5002 87.6191L135.326 135.497L123.146 143.858L93.5002 87.6191Z" fill="#434786"/>
<path d="M93.5002 87.6191L145.24 124.552L135.315 135.508L93.5002 87.6191Z" fill="#E43632"/>
<path d="M93.5002 87.6191L152.367 111.627L145.229 124.573L93.5002 87.6191Z" fill="#434786"/>
<path d="M93.5002 87.6191L156.313 97.4054L152.356 111.649L93.5002 87.6191Z" fill="#E43632"/>
<path d="M93.5002 87.6191L156.877 82.6515L156.313 97.4266L93.5002 87.6191Z" fill="#434786"/>
<path d="M93.5002 87.6191L154.026 68.1742L156.877 82.6834L93.5002 87.6191Z" fill="#E43632"/>
<path d="M93.5002 87.619L147.91 54.7393L154.037 68.1954L93.5002 87.619Z" fill="#434786"/>
<path d="M93.5002 87.6192L138.858 43.0809L147.92 54.7606L93.5002 87.6192Z" fill="#E43632"/>
<path d="M93.5002 87.619L127.369 33.8157L138.879 43.0914L93.5002 87.619Z" fill="#434786"/>
<path d="M93.5002 87.6191L114.051 27.4547L127.391 33.8264L93.5002 87.6191Z" fill="#E43632"/>
<path d="M93.5002 87.6191L99.6166 24.338L114.073 27.4654L93.5002 87.6191Z" fill="#434786"/>
<path d="M93.5002 87.6192L84.8628 24.636L99.6379 24.3488L93.5002 87.6192Z" fill="#88AF34"/>
<path d="M132.202 126.406C153.517 105.092 153.517 70.5335 132.202 49.2188C110.887 27.904 76.3292 27.904 55.0145 49.2188C33.6998 70.5335 33.6998 105.092 55.0145 126.406C76.3293 147.721 110.887 147.721 132.202 126.406Z" fill="#88AF34"/>
<path d="M93.6172 142.933C83.3086 142.936 73.2058 140.048 64.4566 134.596C55.7074 129.145 48.6625 121.349 44.1222 112.094C39.582 102.839 37.7285 92.4966 38.7723 82.2411C39.816 71.9855 43.7153 62.2282 50.0269 54.0778C56.3386 45.9274 64.8096 39.7106 74.4777 36.1337C84.1458 32.5568 94.6233 31.7631 104.72 33.8429C114.816 35.9228 124.127 40.7927 131.595 47.8994C139.062 55.0061 144.386 64.0647 146.963 74.046V74.046C150.615 88.1984 148.495 103.222 141.07 115.811C133.645 128.401 121.523 137.525 107.371 141.178C102.877 142.333 98.257 142.923 93.6172 142.933V142.933ZM93.7023 33.7521C89.1158 33.7552 84.5482 34.3378 80.1078 35.4859C69.7623 38.1613 60.4422 43.8439 53.3258 51.8154C46.2094 59.7869 41.6162 69.6894 40.1269 80.2709C38.6376 90.8525 40.319 101.638 44.9586 111.264C49.5982 120.89 56.9877 128.925 66.1928 134.352C75.398 139.779 86.0056 142.355 96.6745 141.754C107.343 141.153 117.595 137.403 126.133 130.977C134.67 124.551 141.111 115.738 144.641 105.652C148.171 95.5656 148.631 84.6595 145.963 74.3119V74.3119C142.972 62.7255 136.222 52.4585 126.77 45.1189C117.319 37.7793 105.701 33.7816 93.7342 33.7521H93.7023Z" fill="#34255F"/>
<path d="M93.5003 88.151C93.3926 88.1503 93.2875 88.1175 93.1985 88.0569C93.1094 87.9963 93.0405 87.9105 93.0003 87.8106L70.077 28.5185C70.0455 28.4501 70.0292 28.3757 70.0292 28.3004C70.0292 28.2251 70.0455 28.1507 70.077 28.0823C70.109 28.0144 70.1564 27.955 70.2155 27.9088C70.2747 27.8626 70.3438 27.831 70.4174 27.8164L84.7352 24.1146C84.8075 24.0979 84.8824 24.0958 84.9555 24.1086C85.0286 24.1214 85.0984 24.1488 85.1607 24.1891C85.2235 24.2314 85.2768 24.2864 85.3171 24.3505C85.3574 24.4146 85.3838 24.4865 85.3947 24.5614L94.0109 87.5446C94.0257 87.6731 93.9942 87.8026 93.9221 87.9098C93.8499 88.0171 93.7418 88.0951 93.6173 88.1297C93.5798 88.1436 93.5402 88.1508 93.5003 88.151V88.151ZM71.279 28.7206L92.3621 83.194L84.4373 25.2954L71.279 28.7206Z" fill="#34255F"/>
<path d="M93.5002 88.1509C93.4138 88.1511 93.3287 88.1298 93.2526 88.0889C93.1765 88.0481 93.1117 87.989 93.0641 87.9169L57.0782 35.5177C57.0352 35.4546 57.0063 35.383 56.9935 35.3077C56.9806 35.2325 56.9841 35.1553 57.0038 35.0816C57.0198 35.0086 57.052 34.9401 57.0981 34.8812C57.1441 34.8223 57.2027 34.7744 57.2697 34.7412L70.3429 27.8482C70.4113 27.8167 70.4857 27.8004 70.561 27.8004C70.6362 27.8004 70.7106 27.8167 70.779 27.8482C70.8487 27.876 70.9119 27.9177 70.965 27.9708C71.018 28.0238 71.0597 28.0871 71.0875 28.1567L94.0002 87.4275C94.0458 87.5497 94.0451 87.6843 93.998 87.8059C93.9509 87.9275 93.8609 88.0275 93.7449 88.087C93.6703 88.1294 93.5859 88.1514 93.5002 88.1509V88.1509ZM58.2909 35.4007L91.3728 83.5769L70.311 29.0715L58.2909 35.4007Z" fill="#34255F"/>
<path d="M93.5001 88.151C93.4354 88.1524 93.371 88.1408 93.3108 88.1171C93.2505 88.0933 93.1956 88.0579 93.1491 88.0127L46.0473 45.3148C45.9909 45.2658 45.9458 45.2054 45.9148 45.1375C45.8838 45.0696 45.8678 44.9958 45.8678 44.9212C45.8678 44.8466 45.8838 44.7728 45.9148 44.7049C45.9458 44.637 45.9909 44.5765 46.0473 44.5276L57.1845 34.7945C57.2417 34.7471 57.3081 34.7122 57.3796 34.6921C57.451 34.6719 57.5259 34.667 57.5994 34.6775C57.6742 34.6843 57.7466 34.708 57.811 34.7467C57.8755 34.7853 57.9304 34.8381 57.9717 34.9009L93.9363 87.3213C93.9942 87.4001 94.0288 87.4935 94.0361 87.591C94.0434 87.6885 94.0232 87.786 93.9777 87.8726C93.9322 87.9591 93.8633 88.0311 93.7789 88.0803C93.6944 88.1296 93.5978 88.1541 93.5001 88.151V88.151ZM47.1961 44.9318L90.4898 84.1727L57.4292 35.9965L47.1961 44.9318Z" fill="#34255F"/>
<path d="M93.5002 88.1509C93.4113 88.1501 93.3238 88.1282 93.2449 88.0871L37.5695 57.4411C37.5016 57.4092 37.4421 57.3618 37.3959 57.3026C37.3498 57.2435 37.3181 57.1744 37.3036 57.1007C37.2877 57.0278 37.2871 56.9523 37.3017 56.8791C37.3164 56.8059 37.346 56.7365 37.3887 56.6753L45.9729 44.602C46.0158 44.5406 46.0711 44.489 46.1353 44.4506C46.1994 44.4121 46.271 44.3875 46.3452 44.3786C46.4203 44.3702 46.4962 44.3782 46.5679 44.4021C46.6395 44.426 46.7051 44.4651 46.7601 44.5169L93.8406 87.2255C93.9367 87.3131 93.9974 87.433 94.0111 87.5624C94.0249 87.6917 93.9907 87.8217 93.9151 87.9275C93.8683 87.9947 93.8064 88.05 93.7343 88.0888C93.6623 88.1276 93.5821 88.1489 93.5002 88.1509ZM38.6013 56.7604L89.7772 84.9597L46.5048 45.7402L38.6013 56.7604Z" fill="#34255F"/>
<path d="M93.5001 88.151H93.3618L32.1444 71.1207C32.0022 71.0757 31.8836 70.9763 31.8146 70.8441C31.7831 70.7757 31.7668 70.7013 31.7668 70.6261C31.7668 70.5508 31.7831 70.4764 31.8146 70.408L37.3992 56.7178C37.4271 56.6495 37.469 56.5877 37.5221 56.5365C37.5752 56.4852 37.6384 56.4455 37.7077 56.42C37.776 56.3885 37.8504 56.3722 37.9257 56.3722C38.001 56.3722 38.0754 56.3885 38.1438 56.42L93.7554 87.1511C93.8598 87.2074 93.9423 87.297 93.9899 87.4057C94.0375 87.5143 94.0475 87.6357 94.0181 87.7507C93.9888 87.8656 93.9218 87.9674 93.828 88.04C93.7341 88.1125 93.6187 88.1516 93.5001 88.151ZM32.9634 70.2059L89.2665 85.8959L38.1012 57.6752L32.9634 70.2059Z" fill="#34255F"/>
<path d="M93.5001 88.151L29.9531 85.7257C29.879 85.7195 29.8069 85.6984 29.7411 85.6637C29.6753 85.629 29.6171 85.5813 29.5702 85.5236C29.5228 85.4665 29.4879 85.4 29.4678 85.3286C29.4476 85.2571 29.4426 85.1822 29.4532 85.1088L31.7296 70.5038C31.7391 70.4299 31.7651 70.359 31.8056 70.2965C31.8461 70.2339 31.9001 70.1812 31.9636 70.1421C32.0267 70.0991 32.0983 70.0702 32.1735 70.0574C32.2488 70.0445 32.3259 70.048 32.3997 70.0677L93.6491 87.0873C93.7725 87.1261 93.8784 87.207 93.9484 87.3158C94.0183 87.4247 94.0479 87.5546 94.032 87.683C94.0142 87.8118 93.9506 87.9299 93.853 88.0158C93.7554 88.1017 93.6302 88.1497 93.5001 88.151V88.151ZM30.5914 84.6833L88.9793 86.9171L32.6869 71.2697L30.5914 84.6833Z" fill="#34255F"/>
<path d="M31.0807 100.437C30.9655 100.438 30.8533 100.4 30.7616 100.331C30.7039 100.284 30.6562 100.226 30.6215 100.16C30.5868 100.094 30.5657 100.022 30.5595 99.9477L29.4426 85.2045C29.4371 85.1304 29.4476 85.056 29.4733 84.9863C29.499 84.9166 29.5393 84.8531 29.5915 84.8003C29.6415 84.7437 29.7042 84.6997 29.7744 84.672C29.8447 84.6443 29.9205 84.6335 29.9957 84.6407L93.5214 87.0873C93.651 87.0943 93.7737 87.1475 93.8674 87.2373C93.9611 87.3271 94.0195 87.4475 94.032 87.5766C94.0424 87.7064 94.0048 87.8354 93.9264 87.9393C93.848 88.0432 93.7342 88.1148 93.6065 88.1404L31.2296 100.426L31.0807 100.437ZM30.5488 85.7257L31.6126 99.267L88.9368 87.9808L30.5488 85.7257Z" fill="#34255F"/>
<path d="M35.644 114.489C35.574 114.505 35.5013 114.505 35.4313 114.489C35.3622 114.456 35.3003 114.411 35.2492 114.354C35.1981 114.297 35.1587 114.231 35.1335 114.159L30.6233 100.043C30.592 99.9768 30.5757 99.9042 30.5757 99.8307C30.5757 99.7571 30.592 99.6845 30.6233 99.6179C30.6594 99.5522 30.7096 99.4952 30.7703 99.4511C30.831 99.407 30.9006 99.3768 30.9743 99.3626L93.3938 87.0978C93.4636 87.0762 93.537 87.0685 93.6098 87.0752C93.6827 87.082 93.7534 87.103 93.8181 87.137C93.8828 87.1711 93.9402 87.2176 93.9869 87.2738C94.0336 87.3301 94.0688 87.395 94.0905 87.4648C94.1121 87.5347 94.1198 87.6081 94.1131 87.6809C94.1064 87.7537 94.0854 87.8245 94.0513 87.8892C94.0172 87.9539 93.9707 88.0113 93.9145 88.058C93.8582 88.1047 93.7934 88.1399 93.7235 88.1616L35.8674 114.446C35.7967 114.476 35.7206 114.49 35.644 114.489V114.489ZM31.8146 100.288L35.9632 113.223L89.1495 89.0126L31.8146 100.288Z" fill="#34255F"/>
<path d="M43.2817 127.126H43.1753C43.1029 127.112 43.0341 127.084 42.9736 127.041C42.9131 126.999 42.8622 126.945 42.8243 126.881L35.1761 114.223C35.1385 114.158 35.1144 114.085 35.1053 114.01C35.0962 113.935 35.1022 113.859 35.1229 113.787C35.146 113.717 35.1835 113.652 35.2329 113.597C35.2824 113.542 35.3427 113.498 35.4101 113.468L93.2769 87.1512C93.3949 87.0926 93.5307 87.0809 93.657 87.1184C93.7833 87.1559 93.8907 87.2398 93.9576 87.3533C94.0249 87.466 94.049 87.5992 94.0255 87.7283C94.002 87.8573 93.9326 87.9735 93.83 88.0553L43.6008 127.009C43.5109 127.083 43.3983 127.125 43.2817 127.126V127.126ZM36.3994 114.18L43.42 125.807L89.5857 89.9807L36.3994 114.18Z" fill="#34255F"/>
<path d="M53.621 137.657C53.5497 137.658 53.4789 137.644 53.413 137.617C53.3471 137.589 53.2876 137.549 53.2381 137.497L42.888 126.945C42.8096 126.842 42.7718 126.713 42.7817 126.583C42.7857 126.508 42.807 126.434 42.8438 126.367C42.8807 126.301 42.9322 126.244 42.9944 126.201L93.1704 87.2256C93.2667 87.1523 93.3844 87.1125 93.5054 87.1125C93.6265 87.1125 93.7442 87.1523 93.8405 87.2256C93.928 87.3216 93.9764 87.4468 93.9764 87.5766C93.9764 87.7065 93.928 87.8317 93.8405 87.9277L54.0359 137.455C53.9877 137.514 53.9279 137.562 53.8602 137.597C53.7925 137.632 53.7183 137.652 53.6423 137.657H53.621ZM44.0581 126.583L53.5785 136.285L90.2345 90.821L44.0581 126.583Z" fill="#34255F"/>
<path d="M66.1092 145.518C66.007 145.519 65.9068 145.49 65.822 145.433L53.3125 137.561C53.25 137.521 53.1968 137.468 53.1564 137.406C53.1161 137.343 53.0895 137.273 53.0785 137.199C53.0635 137.125 53.0653 137.048 53.0837 136.975C53.1021 136.901 53.1367 136.832 53.1849 136.774L93.0853 87.2893C93.1304 87.2351 93.1858 87.1904 93.2483 87.1577C93.3109 87.1251 93.3792 87.1052 93.4495 87.0993C93.5198 87.0934 93.5906 87.1015 93.6577 87.1231C93.7248 87.1448 93.787 87.1796 93.8405 87.2255C93.9503 87.2958 94.0305 87.404 94.0658 87.5295C94.1011 87.655 94.0891 87.7891 94.032 87.9063L66.5878 145.22C66.5563 145.287 66.5105 145.347 66.4535 145.395C66.3966 145.442 66.3299 145.477 66.2581 145.496L66.1092 145.518ZM54.4082 137.008L65.9071 144.252L91.0642 91.4804L54.4082 137.008Z" fill="#34255F"/>
<path d="M80.0759 150.294C80.0196 150.304 79.962 150.304 79.9057 150.294L65.9177 145.507C65.8465 145.486 65.781 145.449 65.7258 145.4C65.6706 145.35 65.6271 145.288 65.5986 145.22C65.5696 145.151 65.5547 145.077 65.5547 145.002C65.5547 144.927 65.5696 144.853 65.5986 144.784L93.0215 87.3851C93.0772 87.268 93.1745 87.1759 93.2945 87.1267C93.4145 87.0775 93.5485 87.0748 93.6703 87.1192C93.7945 87.1607 93.8991 87.2467 93.9638 87.3605C94.0286 87.4744 94.0491 87.6081 94.0214 87.7361L80.5971 149.868C80.581 149.941 80.5501 150.01 80.5061 150.071C80.4622 150.131 80.4063 150.182 80.3418 150.219C80.2604 150.265 80.1692 150.291 80.0759 150.294ZM66.8325 144.667L79.6823 149.06L92.0216 91.9485L66.8325 144.667Z" fill="#34255F"/>
<path d="M94.766 151.708L80.0121 150.283C79.9378 150.276 79.8659 150.253 79.8011 150.216C79.7362 150.179 79.6799 150.129 79.6358 150.068C79.5916 150.008 79.5606 149.939 79.5449 149.866C79.5291 149.793 79.5288 149.718 79.5441 149.645L92.979 87.502C93.0128 87.3776 93.0883 87.2685 93.1928 87.193C93.2974 87.1175 93.4246 87.0802 93.5534 87.0871C93.6823 87.1023 93.8016 87.1633 93.8894 87.2589C93.9772 87.3546 94.0278 87.4786 94.032 87.6084L95.2979 151.166C95.3021 151.242 95.289 151.318 95.2595 151.388C95.23 151.458 95.1849 151.52 95.1277 151.57C95.0796 151.616 95.0229 151.652 94.9608 151.676C94.8987 151.7 94.8325 151.711 94.766 151.708V151.708ZM80.7036 149.283L94.2235 150.592L93.064 92.1717L80.7036 149.283Z" fill="#34255F"/>
<path d="M94.7447 151.709C94.6196 151.708 94.4988 151.663 94.4043 151.581C94.3478 151.531 94.3017 151.471 94.2688 151.404C94.2359 151.336 94.2169 151.263 94.2128 151.187L92.9683 87.6298C92.967 87.5007 93.0127 87.3756 93.0969 87.2778C93.181 87.1799 93.2979 87.116 93.4257 87.0979C93.5561 87.078 93.6893 87.1072 93.7994 87.1799C93.9095 87.2526 93.9886 87.3637 94.0214 87.4915L109.913 149.039C109.931 149.111 109.933 149.186 109.92 149.259C109.908 149.332 109.88 149.402 109.839 149.464C109.797 149.527 109.742 149.58 109.678 149.621C109.613 149.661 109.542 149.687 109.467 149.698L94.8192 151.709H94.7447ZM94.1277 92.14L95.2659 150.56L108.733 148.73L94.1277 92.14Z" fill="#34255F"/>
<path d="M109.371 149.709C109.287 149.708 109.203 149.69 109.126 149.656C109.062 149.619 109.005 149.57 108.959 149.512C108.914 149.454 108.88 149.387 108.86 149.315L92.9895 87.7575C92.9541 87.6304 92.9672 87.4948 93.0262 87.3769C93.0851 87.259 93.1858 87.1671 93.3086 87.1192C93.4305 87.0711 93.5661 87.0706 93.6883 87.1179C93.8105 87.1652 93.9105 87.2568 93.9682 87.3745L123.625 143.603C123.654 143.672 123.669 143.746 123.669 143.821C123.669 143.896 123.654 143.97 123.625 144.039C123.599 144.11 123.558 144.174 123.504 144.227C123.451 144.281 123.387 144.322 123.316 144.348L109.488 149.666L109.371 149.709ZM95.1489 91.8847L109.733 148.464L122.412 143.571L95.1489 91.8847Z" fill="#34255F"/>
<path d="M123.136 144.39H123.008C122.863 144.346 122.741 144.246 122.668 144.114L93.0321 87.8637C92.972 87.7483 92.9562 87.6148 92.9878 87.4885C93.0195 87.3623 93.0963 87.252 93.2038 87.1786C93.3113 87.1052 93.442 87.0737 93.5711 87.0902C93.7002 87.1067 93.8188 87.1699 93.9044 87.268L135.73 135.136C135.779 135.192 135.816 135.258 135.838 135.329C135.86 135.401 135.867 135.476 135.858 135.551C135.847 135.624 135.822 135.695 135.783 135.759C135.745 135.823 135.694 135.879 135.634 135.923L123.444 144.284C123.354 144.349 123.247 144.386 123.136 144.39V144.39ZM96.085 91.3952L123.338 143.082L134.539 135.391L96.085 91.3952Z" fill="#34255F"/>
<path d="M135.326 136.04C135.173 136.034 135.028 135.969 134.922 135.859L93.0959 87.9702C93.0191 87.8678 92.9818 87.7411 92.9909 87.6134C93 87.4857 93.0548 87.3656 93.1453 87.275C93.2359 87.1845 93.356 87.1297 93.4837 87.1206C93.6114 87.1115 93.7381 87.1488 93.8405 87.2256L145.58 124.169C145.642 124.212 145.693 124.267 145.732 124.331C145.77 124.395 145.795 124.467 145.804 124.541C145.811 124.616 145.803 124.692 145.779 124.763C145.755 124.835 145.716 124.901 145.665 124.956L135.741 135.912C135.684 135.961 135.618 135.997 135.546 136.019C135.475 136.041 135.4 136.048 135.326 136.04V136.04ZM96.8934 90.6934L135.326 134.71L144.453 124.637L96.8934 90.6934Z" fill="#34255F"/>
<path d="M145.229 125.105C145.119 125.106 145.011 125.072 144.921 125.009L93.1917 88.0552C93.0851 87.9796 93.0101 87.8674 92.981 87.74C92.9518 87.6126 92.9706 87.479 93.0338 87.3645C93.0969 87.2501 93.1999 87.1629 93.3232 87.1196C93.4465 87.0763 93.5815 87.08 93.7023 87.1298L152.569 111.138C152.637 111.166 152.699 111.208 152.75 111.261C152.802 111.314 152.841 111.377 152.867 111.447C152.898 111.515 152.915 111.589 152.915 111.665C152.915 111.74 152.898 111.814 152.867 111.883L145.729 124.828C145.694 124.896 145.644 124.954 145.583 125C145.522 125.046 145.452 125.078 145.378 125.094L145.229 125.105ZM97.5104 89.8316L145.048 123.796L151.612 111.893L97.5104 89.8316Z" fill="#34255F"/>
<path d="M152.345 112.181C152.279 112.196 152.21 112.196 152.143 112.181L93.298 88.1084C93.2282 88.0895 93.1627 88.0571 93.1054 88.013C93.0481 87.9688 93 87.9138 92.964 87.8511C92.8912 87.7244 92.8717 87.574 92.9097 87.4329C92.9478 87.2919 93.0404 87.1717 93.1671 87.0989C93.2937 87.0261 93.4442 87.0066 93.5852 87.0447L156.398 96.831C156.472 96.8405 156.543 96.8665 156.606 96.907C156.668 96.9475 156.721 97.0015 156.76 97.065C156.802 97.1286 156.829 97.2006 156.84 97.276C156.851 97.3513 156.846 97.4282 156.824 97.5011L152.867 111.734C152.848 111.807 152.814 111.876 152.766 111.934C152.718 111.993 152.658 112.041 152.59 112.074C152.518 112.128 152.434 112.165 152.345 112.181V112.181ZM97.9039 88.8424L152.005 110.936L155.643 97.8628L97.9039 88.8424Z" fill="#34255F"/>
<path d="M156.313 97.9586H156.228L93.415 88.1404C93.2863 88.122 93.1691 88.0562 93.0865 87.9558C93.0038 87.8554 92.9616 87.7278 92.9683 87.5979C92.9753 87.4684 93.0285 87.3456 93.1183 87.252C93.208 87.1583 93.3284 87.0999 93.4576 87.0874L156.834 82.1304C156.985 82.12 157.135 82.1697 157.249 82.2687C157.303 82.321 157.345 82.3841 157.372 82.4537C157.4 82.5234 157.412 82.5981 157.409 82.6729L156.845 97.448C156.841 97.5231 156.822 97.5966 156.789 97.6642C156.756 97.7318 156.71 97.7921 156.654 97.8416C156.556 97.9161 156.436 97.9571 156.313 97.9586V97.9586ZM98.0954 87.8L155.803 96.7992L156.324 83.226L98.0954 87.8Z" fill="#34255F"/>
<path d="M93.5002 88.1511C93.3776 88.1511 93.2588 88.1088 93.1638 88.0312C93.0688 87.9537 93.0035 87.8457 92.979 87.7256C92.9542 87.5964 92.9773 87.4626 93.0438 87.3491C93.1103 87.2356 93.2158 87.1501 93.3407 87.1086L153.867 67.6744C153.933 67.6431 154.006 67.6268 154.079 67.6268C154.153 67.6268 154.226 67.6431 154.292 67.6744C154.358 67.7105 154.415 67.7607 154.459 67.8214C154.503 67.8821 154.533 67.9517 154.548 68.0254L157.398 82.5346C157.414 82.6079 157.413 82.6837 157.397 82.7567C157.38 82.8298 157.348 82.8985 157.303 82.958C157.257 83.0176 157.2 83.0667 157.133 83.1019C157.067 83.1371 156.994 83.1577 156.92 83.1622L93.5428 88.1511H93.5002ZM153.622 68.8657L97.9892 86.7363L156.249 82.1942L153.622 68.8657Z" fill="#34255F"/>
<path d="M93.5002 88.151C93.3991 88.1515 93.3 88.1227 93.215 88.0679C93.13 88.0131 93.0628 87.9348 93.0215 87.8425C92.9678 87.7237 92.9586 87.5895 92.9957 87.4644C93.0328 87.3394 93.1137 87.2319 93.2236 87.1617L147.633 54.25C147.705 54.2187 147.783 54.2025 147.862 54.2025C147.941 54.2025 148.018 54.2187 148.091 54.25C148.162 54.273 148.228 54.3103 148.285 54.3596C148.342 54.409 148.388 54.4694 148.42 54.5372L154.473 67.9721C154.504 68.0408 154.52 68.1152 154.52 68.1905C154.52 68.2658 154.505 68.3403 154.475 68.4093C154.445 68.4784 154.401 68.5404 154.346 68.5915C154.29 68.6426 154.225 68.6816 154.154 68.706L93.6598 88.1297L93.5002 88.151ZM147.676 55.5052L97.6806 85.7257L153.314 67.8763L147.676 55.5052Z" fill="#34255F"/>
<path d="M93.5002 88.1509C93.4201 88.1513 93.3411 88.1333 93.2691 88.0983C93.1972 88.0632 93.1343 88.0121 93.0853 87.9488C92.9971 87.8511 92.9483 87.7241 92.9483 87.5925C92.9483 87.4608 92.9971 87.3339 93.0853 87.2361L138.517 42.6979C138.568 42.6428 138.63 42.5988 138.698 42.5687C138.767 42.5386 138.841 42.5231 138.916 42.5231C138.991 42.5231 139.065 42.5386 139.134 42.5687C139.202 42.5988 139.264 42.6428 139.315 42.6979L148.378 54.3989C148.422 54.4596 148.453 54.5287 148.469 54.6018C148.486 54.6749 148.487 54.7507 148.474 54.8244C148.461 54.8985 148.432 54.9691 148.39 55.0315C148.348 55.0938 148.293 55.1465 148.229 55.186L93.7767 88.0765C93.6935 88.1272 93.5976 88.153 93.5002 88.1509ZM138.804 43.8786L97.1168 84.8108L147.112 54.6116L138.804 43.8786Z" fill="#34255F"/>
<path d="M93.5001 88.151C93.3803 88.1495 93.2644 88.1083 93.1704 88.034C93.0676 87.9521 92.9988 87.835 92.9771 87.7054C92.9555 87.5758 92.9827 87.4427 93.0534 87.3319L126.922 33.5393C126.961 33.4743 127.013 33.4186 127.076 33.3763C127.138 33.334 127.209 33.3061 127.284 33.2946C127.357 33.2797 127.432 33.2816 127.504 33.3C127.576 33.3184 127.642 33.353 127.699 33.401L139.208 42.6767C139.265 42.7266 139.31 42.788 139.341 42.8567C139.372 42.9255 139.389 43.0001 139.389 43.0756C139.389 43.151 139.372 43.2256 139.341 43.2944C139.31 43.3632 139.265 43.4246 139.208 43.4745L93.8405 88.0021C93.7487 88.091 93.6278 88.1439 93.5001 88.151V88.151ZM127.539 34.6136L96.3722 84.0344L138.081 43.1128L127.539 34.6136Z" fill="#34255F"/>
<path d="M93.5002 88.1509C93.416 88.1503 93.3333 88.1297 93.2586 88.0909C93.184 88.0521 93.1196 87.9961 93.0709 87.9276C93.0221 87.8591 92.9902 87.78 92.9779 87.6967C92.9656 87.6135 92.9733 87.5286 93.0002 87.4489L113.541 27.2845C113.595 27.1437 113.702 27.0294 113.839 26.9654C113.908 26.9364 113.982 26.9215 114.057 26.9215C114.132 26.9215 114.206 26.9364 114.275 26.9654L127.614 33.3477C127.682 33.382 127.743 33.4299 127.793 33.4884C127.842 33.5469 127.879 33.6149 127.901 33.6881C127.922 33.7594 127.927 33.8344 127.916 33.9079C127.905 33.9814 127.878 34.0516 127.837 34.1136L93.9469 87.9063C93.9004 87.9826 93.8346 88.0454 93.7562 88.0883C93.6778 88.1312 93.5895 88.1528 93.5002 88.1509V88.1509ZM114.36 28.1993L95.468 83.5131L126.625 34.0392L114.36 28.1993Z" fill="#34255F"/>
<path d="M93.5002 88.151H93.3938C93.2653 88.123 93.1514 88.0494 93.0731 87.9437C92.9948 87.8381 92.9576 87.7076 92.9683 87.5766L99.0954 24.3061C99.0987 24.2301 99.1196 24.156 99.1565 24.0895C99.1934 24.023 99.2454 23.9661 99.3081 23.9232C99.3694 23.8805 99.4388 23.8509 99.512 23.8362C99.5852 23.8216 99.6607 23.8222 99.7336 23.8381L114.179 26.9548C114.253 26.9708 114.323 27.0029 114.384 27.0489C114.445 27.0948 114.495 27.1535 114.53 27.2207C114.561 27.2873 114.578 27.3599 114.578 27.4335C114.578 27.507 114.561 27.5796 114.53 27.6462L94.0001 87.7893C93.9662 87.895 93.8994 87.987 93.8094 88.0521C93.7195 88.1171 93.6112 88.1518 93.5002 88.151V88.151ZM100.095 24.9869L94.4682 83.1514L113.371 27.8377L100.095 24.9869Z" fill="#34255F"/>
<path d="M93.5001 88.1511C93.3723 88.152 93.2485 88.106 93.1524 88.0216C93.0563 87.9373 92.9946 87.8206 92.9789 87.6937L84.3415 24.7104C84.3309 24.6364 84.3362 24.5609 84.3568 24.489C84.3775 24.4171 84.413 24.3504 84.4612 24.2931C84.5094 24.2359 84.5691 24.1895 84.6365 24.1569C84.7038 24.1244 84.7773 24.1064 84.852 24.1041L99.6272 23.8169C99.7025 23.8168 99.7771 23.8318 99.8465 23.8611C99.916 23.8903 99.9788 23.9332 100.031 23.9871C100.084 24.0392 100.124 24.1028 100.148 24.1729C100.172 24.2431 100.18 24.3178 100.17 24.3913L94.032 87.6724C94.0168 87.8013 93.9558 87.9206 93.8602 88.0084C93.7645 88.0962 93.6406 88.1469 93.5108 88.1511H93.5001ZM85.469 25.1572L93.415 83.0452L99.0528 24.8913L85.469 25.1572Z" fill="#34255F"/>
<path d="M114.587 122.828C133.931 111.242 140.219 86.1689 128.633 66.8258C117.048 47.4826 91.9747 41.194 72.6315 52.7798C53.2883 64.3657 46.9998 89.4385 58.5856 108.782C70.1714 128.125 95.2443 134.413 114.587 122.828Z" fill="#F7A12F"/>
<path d="M133.135 77.652C131.696 72.0644 129.085 66.8467 125.476 62.345C131.05 71.1458 133.049 81.7447 131.063 91.9713C129.077 102.198 123.257 111.278 114.795 117.354C106.332 123.429 95.8673 126.04 85.5427 124.651C75.2181 123.262 65.8151 117.979 59.2589 109.883C64.5075 118.035 72.4862 124.054 81.767 126.861C91.0477 129.668 101.024 129.08 109.911 125.202C118.798 121.325 126.015 114.412 130.27 105.699C134.525 96.987 135.541 87.0446 133.135 77.652Z" fill="#D47D39"/>
<path d="M93.6066 129.168C83.1006 129.165 72.9905 125.159 65.3332 117.966C57.6758 110.773 53.0464 100.933 52.3867 90.4476C51.727 79.9623 55.0866 69.6196 61.7819 61.5234C68.4773 53.4273 78.0056 48.1859 88.4283 46.8656C98.851 45.5453 109.385 48.2453 117.888 54.4163C126.39 60.5872 132.223 69.7656 134.198 80.0842C136.174 90.4027 134.144 101.086 128.522 109.962C122.901 118.837 114.109 125.237 103.935 127.86C100.561 128.729 97.0908 129.168 93.6066 129.168V129.168ZM93.6066 47.5167C85.2036 47.5168 77.0108 50.1439 70.1748 55.0305C63.3387 59.9171 58.2014 66.8186 55.4817 74.7693C52.7621 82.72 52.5961 91.322 55.007 99.3717C57.418 107.421 62.2852 114.516 68.9277 119.663C75.5702 124.809 83.6555 127.75 92.0522 128.075C100.449 128.399 108.737 126.09 115.756 121.471C122.776 116.852 128.176 110.153 131.2 102.314C134.225 94.4738 134.723 85.8846 132.624 77.7478C130.442 69.0668 125.411 61.3692 118.334 55.8879C111.258 50.4065 102.547 47.4588 93.5959 47.5167H93.6066Z" fill="#34255F"/>
<path d="M63.3329 69.3762C63.2314 69.3728 63.1326 69.3435 63.0457 69.2911C62.9277 69.2146 62.8441 69.0954 62.8124 68.9585C62.7806 68.8216 62.8032 68.6777 62.8755 68.5571C67.7915 60.6844 75.5516 55.0081 84.5436 52.7076C84.6113 52.69 84.6819 52.686 84.7512 52.6957C84.8205 52.7055 84.8872 52.7288 84.9475 52.7644C85.0078 52.7999 85.0605 52.8471 85.1025 52.903C85.1445 52.959 85.1751 53.0227 85.1924 53.0906C85.2099 53.1576 85.2138 53.2275 85.204 53.2961C85.1941 53.3647 85.1707 53.4306 85.135 53.4901C85.0993 53.5495 85.0522 53.6012 84.9963 53.6422C84.9404 53.6832 84.8769 53.7126 84.8095 53.7288C76.0807 55.9761 68.5507 61.495 63.7796 69.1422C63.7303 69.2151 63.6637 69.2747 63.5858 69.3155C63.5078 69.3564 63.4209 69.3772 63.3329 69.3762Z" fill="white"/>
<path d="M119.129 94.2504C122.683 80.1514 114.135 65.8405 100.036 62.286C85.9374 58.7315 71.6265 67.2795 68.072 81.3784C64.5175 95.4774 73.0655 109.788 87.1644 113.343C101.263 116.897 115.574 108.349 119.129 94.2504Z" fill="#FFC202"/>
<path d="M119.104 81.2368C117.891 76.5119 115.382 72.2199 111.86 68.8444C114.387 71.8395 116.205 75.3666 117.179 79.1625C118.606 84.7113 118.184 90.5742 115.977 95.8615C113.77 101.149 109.899 105.572 104.95 108.459C100.001 111.347 94.2461 112.541 88.5572 111.861C82.8683 111.181 77.5564 108.664 73.4278 104.692C77.2567 109.297 82.541 112.46 88.4091 113.659C94.2772 114.858 100.379 114.021 105.707 111.286C111.035 108.551 115.273 104.082 117.72 98.6153C120.167 93.1488 120.678 87.0114 119.168 81.2155L119.104 81.2368Z" fill="#F7A12F"/>
<path d="M93.564 114.691C88.5397 114.685 83.6177 113.27 79.3569 110.607C75.0961 107.945 71.6672 104.141 69.4596 99.6272C67.2521 95.1137 66.3542 90.0718 66.8679 85.0737C67.3817 80.0757 69.2865 75.3218 72.3662 71.3519C75.4458 67.3819 79.5768 64.355 84.2902 62.6148C89.0036 60.8745 94.1105 60.4906 99.031 61.5068C103.952 62.5229 108.489 64.8983 112.127 68.3633C115.766 71.8283 118.36 76.244 119.615 81.1091V81.1091C121.383 88.005 120.345 95.3208 116.728 101.452C113.111 107.584 107.21 112.031 100.319 113.819C98.1125 114.391 95.8432 114.684 93.564 114.691V114.691ZM93.564 62.0152C88.1823 62.015 82.9351 63.6974 78.5568 66.8269C74.1785 69.9564 70.8882 74.3764 69.1462 79.4685C67.4043 84.5605 67.2979 90.0698 68.842 95.2253C70.3861 100.381 73.5034 104.925 77.7576 108.221C82.0118 111.517 87.1901 113.401 92.5679 113.608C97.9457 113.816 103.254 112.337 107.749 109.378C112.245 106.42 115.703 102.13 117.64 97.1084C119.577 92.0873 119.895 86.5862 118.551 81.3751C117.125 75.839 113.9 70.9336 109.383 67.4293C104.866 63.9251 99.3128 62.0207 93.5959 62.0152H93.564Z" fill="#34255F"/>
<path d="M93.6066 153.474C80.5241 153.468 67.7372 149.583 56.8626 142.31C45.988 135.037 37.5139 124.703 32.5118 112.615C27.5098 100.526 26.2043 87.2261 28.7604 74.3957C31.3165 61.5654 37.6195 49.781 46.8725 40.5325C56.1254 31.284 67.9128 24.9867 80.7444 22.4368C93.576 19.8868 106.876 21.1987 118.962 26.2067C131.048 31.2146 141.377 39.6936 148.645 50.5717C155.913 61.4499 159.792 74.2386 159.792 87.3211C159.772 104.866 152.792 121.685 140.383 134.088C127.974 146.491 111.151 153.463 93.6066 153.474ZM93.6066 25.7527C81.4295 25.7527 69.5259 29.3636 59.401 36.1288C49.2761 42.894 41.3847 52.5097 36.7248 63.7599C32.0648 75.0101 30.8455 87.3894 33.2212 99.3325C35.5968 111.276 41.4606 122.246 50.0711 130.857C58.6816 139.467 69.6521 145.331 81.5952 147.707C93.5383 150.082 105.918 148.863 117.168 144.203C128.418 139.543 138.034 131.652 144.799 121.527C151.564 111.402 155.175 99.4982 155.175 87.3211C155.158 70.9973 148.666 55.347 137.123 43.8043C125.581 32.2616 109.93 25.7695 93.6066 25.7527Z" fill="#FFC202"/>
<path d="M93.6065 154.006C80.4174 154.006 67.5246 150.095 56.5583 142.768C45.592 135.44 37.0448 125.026 31.9976 112.841C26.9503 100.655 25.6298 87.2473 28.2028 74.3117C30.7759 61.376 37.127 49.4939 46.4531 40.1678C55.7791 30.8418 67.6613 24.4907 80.5969 21.9176C93.5325 19.3445 106.941 20.6651 119.126 25.7124C131.311 30.7596 141.726 39.3068 149.053 50.2731C156.38 61.2394 160.291 74.1322 160.291 87.3213C160.272 105.001 153.24 121.951 140.738 134.453C128.237 146.955 111.286 153.987 93.6065 154.006ZM93.6065 21.7C80.6278 21.7 67.9406 25.5486 57.1493 32.7592C46.3579 39.9697 37.947 50.2184 32.9803 62.2091C28.0136 74.1998 26.7141 87.3941 29.2461 100.123C31.7781 112.853 38.0279 124.545 47.2052 133.723C56.3825 142.9 68.0751 149.15 80.8044 151.682C93.5337 154.214 106.728 152.914 118.719 147.947C130.709 142.981 140.958 134.57 148.169 123.779C155.379 112.987 159.228 100.3 159.228 87.3213C159.211 69.9226 152.292 53.2414 139.989 40.9387C127.686 28.636 111.005 21.7169 93.6065 21.7V21.7ZM93.6065 149.422C81.3242 149.422 69.3177 145.779 59.1054 138.956C48.893 132.132 40.9335 122.433 36.2332 111.086C31.533 99.7387 30.3032 87.2524 32.6994 75.2061C35.0955 63.1598 41.01 52.0946 49.6949 43.4097C58.3798 34.7248 69.445 28.8103 81.4913 26.4142C93.5376 24.018 106.024 25.2478 117.371 29.948C128.719 34.6483 138.417 42.6078 145.241 52.8202C152.065 63.0325 155.707 75.039 155.707 87.3213C155.687 103.785 149.138 119.569 137.496 131.211C125.854 142.853 110.07 149.402 93.6065 149.422V149.422ZM93.6065 26.2846C81.5346 26.2846 69.7338 29.8644 59.6964 36.5712C49.6589 43.278 41.8357 52.8106 37.216 63.9636C32.5963 75.1166 31.3876 87.389 33.7427 99.2289C36.0978 111.069 41.911 121.945 50.4471 130.481C58.9832 139.017 69.8589 144.83 81.6988 147.185C93.5388 149.54 105.811 148.331 116.964 143.712C128.117 139.092 137.65 131.269 144.357 121.231C151.063 111.194 154.643 99.3932 154.643 87.3213C154.626 71.1385 148.19 55.6234 136.747 44.1805C125.304 32.7376 109.789 26.3015 93.6065 26.2846V26.2846Z" fill="#34255F"/>
<path d="M92.1889 81.1766C92.2369 81.1286 92.2849 81.1126 92.3329 81.1286C92.3809 81.1446 92.4049 81.1846 92.4049 81.2486V81.7286V84.9926H87.4849H86.3809H85.2769H80.3809V81.0566C80.3809 80.2406 80.5329 79.4726 80.8369 78.7526C81.1569 78.0326 81.5809 77.4086 82.1089 76.8806C82.6369 76.3526 83.2609 75.9366 83.9809 75.6326C84.7009 75.3126 85.4689 75.1526 86.2849 75.1526H86.3809H87.4849C87.9329 75.1526 88.3169 75.0006 88.6369 74.6966C88.9569 74.3766 89.1169 73.9846 89.1169 73.5206C89.1169 73.0566 88.9569 72.6726 88.6369 72.3686C88.3169 72.0486 87.9329 71.8886 87.4849 71.8886H86.3809H85.2769C85.0529 71.8886 84.8369 71.9366 84.6289 72.0326C84.4689 72.1126 84.3169 72.2806 84.1729 72.5366C84.0289 72.7766 84.0449 73.0486 84.2209 73.3526C84.2689 73.4646 84.2369 73.5206 84.1249 73.5206H83.6449H80.3809C80.3809 72.8486 80.5089 72.2166 80.7649 71.6246C81.0209 71.0166 81.3649 70.4886 81.7969 70.0406C82.2449 69.5926 82.7649 69.2406 83.3569 68.9846C83.9649 68.7286 84.6049 68.6006 85.2769 68.6006H86.3809H87.4849C88.1569 68.6006 88.7889 68.7286 89.3809 68.9846C89.9889 69.2406 90.5169 69.5926 90.9649 70.0406C91.4129 70.4886 91.7649 71.0166 92.0209 71.6246C92.2769 72.2166 92.4049 72.8486 92.4049 73.5206C92.4049 74.1926 92.2769 74.8326 92.0209 75.4406C91.7649 76.0326 91.4129 76.5526 90.9649 77.0006C90.5169 77.4486 89.9889 77.8006 89.3809 78.0566C88.7889 78.3126 88.1569 78.4406 87.4849 78.4406H86.3809H86.2849C85.9169 78.4406 85.5729 78.5126 85.2529 78.6566C84.9329 78.7846 84.6529 78.9686 84.4129 79.2086C84.1729 79.4486 83.9809 79.7286 83.8369 80.0486C83.7089 80.3686 83.6449 80.7046 83.6449 81.0566V81.7286H85.2769H86.3809H87.4849H90.1969C91.2369 81.7286 91.9009 81.5446 92.1889 81.1766ZM104.876 82.7846C104.876 83.8246 105.06 84.4886 105.428 84.7766C105.476 84.8246 105.492 84.8726 105.476 84.9206C105.46 84.9686 105.42 84.9926 105.356 84.9926H101.132C101.068 84.9926 101.028 84.9686 101.012 84.9206C100.996 84.8726 101.012 84.8246 101.06 84.7766C101.428 84.4886 101.612 83.8246 101.612 82.7846V79.2566H93.4997L96.0917 72.8486C96.5717 71.6486 96.6517 70.7766 96.3317 70.2326C96.2517 70.1206 96.2757 70.0646 96.4037 70.0646H100.748L100.628 70.3526L99.8837 72.2006L98.5877 75.4166L98.3717 75.9686H101.612V70.7606C101.612 69.7526 101.428 69.0886 101.06 68.7686C101.012 68.7366 100.996 68.6966 101.012 68.6486C101.028 68.6006 101.068 68.5766 101.132 68.5766H103.796H105.356C105.42 68.5766 105.46 68.6006 105.476 68.6486C105.492 68.6966 105.476 68.7366 105.428 68.7686C105.06 69.0886 104.876 69.7526 104.876 70.7606V71.8646V74.0486V75.9686V79.2566V81.5366V82.7846Z" fill="#34255F"/>
<path d="M94.513 106.98C94.0252 108.306 93.9643 109.144 94.3301 109.495C94.3758 109.525 94.3911 109.563 94.3758 109.609C94.3606 109.655 94.3225 109.678 94.2615 109.678H90.146L94.9246 97.1708H90.5575C89.7039 97.1708 89.0866 97.4071 88.7055 97.8796C88.675 97.9253 88.6369 97.9482 88.5912 97.9482C88.5607 97.9329 88.5378 97.9025 88.5226 97.8567L87.4023 94.0613H99.4745L94.513 106.98Z" fill="#34255F"/>
<path d="M78.8282 88.5977H108.442" stroke="#34255F" stroke-width="1.52" stroke-miterlimit="10"/>
<path d="M30.017 17.3813C30.0198 17.5978 30.0652 17.8117 30.1507 18.0106C30.2361 18.2096 30.3599 18.3898 30.515 18.541C30.67 18.6921 30.8534 18.8112 31.0545 18.8915C31.2556 18.9717 31.4706 19.0116 31.6871 19.0088H34.8038C35.0198 19.0046 35.2345 19.0431 35.4356 19.1222C35.6367 19.2013 35.8201 19.3194 35.9753 19.4697C36.1305 19.62 36.2545 19.7995 36.3401 19.9979C36.4256 20.1963 36.4711 20.4096 36.4739 20.6256C36.4711 20.8422 36.4257 21.056 36.3403 21.255C36.2548 21.454 36.131 21.6342 35.9759 21.7853C35.8209 21.9365 35.6375 22.0556 35.4364 22.1358C35.2353 22.2161 35.0203 22.256 34.8038 22.2531H20.0818C19.8653 22.256 19.6504 22.2161 19.4492 22.1358C19.2481 22.0556 19.0648 21.9365 18.9097 21.7853C18.7546 21.6342 18.6308 21.454 18.5454 21.255C18.46 21.056 18.4146 20.8422 18.4118 20.6256C18.4146 20.4096 18.46 20.1963 18.5456 19.9979C18.6312 19.7995 18.7551 19.62 18.9104 19.4697C19.0656 19.3194 19.249 19.2013 19.4501 19.1222C19.6511 19.0431 19.8658 19.0046 20.0818 19.0088H23.1986C23.4151 19.0116 23.63 18.9717 23.8312 18.8915C24.0323 18.8112 24.2156 18.6921 24.3707 18.541C24.5258 18.3898 24.6496 18.2096 24.735 18.0106C24.8204 17.8117 24.8658 17.5978 24.8686 17.3813C24.8658 17.1648 24.8204 16.9509 24.735 16.7519C24.6496 16.5529 24.5258 16.3727 24.3707 16.2216C24.2156 16.0705 24.0323 15.9514 23.8312 15.8711C23.63 15.7908 23.4151 15.751 23.1986 15.7538H16.1886C15.9726 15.758 15.7579 15.7195 15.5568 15.6404C15.3558 15.5613 15.1723 15.4432 15.0171 15.2929C14.8619 15.1426 14.7379 14.9631 14.6524 14.7647C14.5668 14.5663 14.5213 14.353 14.5186 14.1369C14.5213 13.9204 14.5667 13.7065 14.6522 13.5076C14.7376 13.3086 14.8614 13.1284 15.0165 12.9772C15.1716 12.8261 15.3549 12.707 15.556 12.6267C15.7571 12.5465 15.9721 12.5066 16.1886 12.5094H38.7077C38.9237 12.5066 39.1381 12.5466 39.3387 12.627C39.5392 12.7074 39.7218 12.8266 39.876 12.9779C40.0303 13.1292 40.1531 13.3094 40.2373 13.5084C40.3216 13.7073 40.3657 13.9209 40.3671 14.1369C40.3643 14.352 40.3192 14.5645 40.2343 14.7622C40.1494 14.9599 40.0264 15.1389 39.8723 15.2891C39.7182 15.4392 39.536 15.5575 39.3362 15.6373C39.1364 15.717 38.9228 15.7566 38.7077 15.7538H31.7084C31.4901 15.7481 31.2728 15.7859 31.0693 15.8649C30.8657 15.9439 30.6798 16.0625 30.5225 16.2139C30.3651 16.3654 30.2394 16.5465 30.1526 16.7469C30.0659 16.9473 30.0198 17.1629 30.017 17.3813Z" fill="#3D2C62"/>
</svg>
