<svg width="227" height="165" viewBox="0 0 227 165" fill="none" xmlns="http://www.w3.org/2000/svg">
<path d="M163.629 49.0079C163.629 51.6068 162.597 54.0992 160.759 55.9368C158.921 57.7745 156.429 58.8069 153.83 58.8069H97.8229C96.5356 58.8052 95.2606 59.0575 94.071 59.5493C92.8814 60.0412 91.8005 60.7629 90.8902 61.6731C89.9799 62.5834 89.2582 63.6643 88.7664 64.854C88.2745 66.0436 88.0222 67.3186 88.0239 68.6059C88.0222 69.8932 88.2745 71.1682 88.7664 72.3578C89.2582 73.5475 89.9799 74.6284 90.8902 75.5386C91.8005 76.4489 92.8814 77.1706 94.071 77.6624C95.2606 78.1543 96.5356 78.4066 97.8229 78.4049H130.914C133.513 78.4049 136.005 79.4373 137.843 81.2749C139.681 83.1126 140.713 85.605 140.713 88.2039C140.715 89.4912 140.462 90.7662 139.971 91.9558C139.479 93.1454 138.757 94.2263 137.847 95.1366C136.936 96.0469 135.856 96.7686 134.666 97.2604C133.476 97.7523 132.201 98.0046 130.914 98.0029H44.6543C43.367 98.0046 42.0921 97.7523 40.9024 97.2604C39.7128 96.7686 38.6319 96.0469 37.7216 95.1366C36.8113 94.2263 36.0896 93.1454 35.5978 91.9558C35.1059 90.7662 34.8536 89.4912 34.8554 88.2039C34.8554 85.605 35.8877 83.1126 37.7254 81.2749C39.5631 79.4373 42.0555 78.4049 44.6543 78.4049H48.2706C49.5579 78.4066 50.8329 78.1543 52.0226 77.6624C53.2122 77.1706 54.2931 76.4489 55.2034 75.5386C56.1136 74.6284 56.8354 73.5475 57.3272 72.3578C57.819 71.1682 58.0713 69.8932 58.0696 68.6059C58.0713 67.3186 57.819 66.0436 57.3272 64.854C56.8354 63.6643 56.1136 62.5834 55.2034 61.6731C54.2931 60.7629 53.2122 60.0412 52.0226 59.5493C50.8329 59.0575 49.5579 58.8052 48.2706 58.8069H10.1116C7.51381 58.8035 5.02339 57.77 3.18647 55.9331C1.34954 54.0961 0.316052 51.6057 0.312622 49.0079H0.312622C0.312622 46.4091 1.34501 43.9166 3.18268 42.079C5.02035 40.2413 7.51276 39.2089 10.1116 39.2089H28.1542C30.7452 39.1918 33.2243 38.1505 35.0504 36.3123C36.8765 34.474 37.9014 31.9881 37.9013 29.397C37.8979 26.7992 36.8644 24.3087 35.0275 22.4718C33.1906 20.6349 30.7001 19.6014 28.1023 19.598H27.532C26.2447 19.5997 24.9697 19.3474 23.7801 18.8556C22.5905 18.3637 21.5096 17.642 20.5993 16.7317C19.689 15.8215 18.9673 14.7406 18.4755 13.5509C17.9836 12.3613 17.7313 11.0863 17.733 9.79899C17.733 8.51217 17.9865 7.23795 18.4789 6.04908C18.9714 4.86021 19.6932 3.77998 20.6031 2.87006C22.4408 1.03239 24.9332 0 27.532 0L72.6126 0C75.2104 0.00342944 77.7008 1.03692 79.5377 2.87385C81.3746 4.71077 82.4081 7.20119 82.4116 9.79899C82.4116 12.3978 81.3792 14.8903 79.5415 16.7279C77.7038 18.5656 75.2114 19.598 72.6126 19.598H63.9024C61.3023 19.598 58.8086 20.63 56.9688 22.4672C55.1291 24.3045 54.0938 26.7969 54.0904 29.397C54.0904 31.9993 55.1242 34.495 56.9643 36.3351C58.8044 38.1752 61.3001 39.2089 63.9024 39.2089H153.791C155.082 39.2021 156.361 39.4506 157.555 39.9401C158.749 40.4297 159.835 41.1506 160.749 42.0614C161.664 42.9721 162.389 44.0548 162.883 45.247C163.377 46.4391 163.631 47.7173 163.629 49.0079Z" fill="#3D2C62"/>
<path d="M174.711 134.93C174.715 132.333 175.748 129.842 177.585 128.005C179.422 126.168 181.912 125.135 184.51 125.132H189.332C191.926 125.132 194.415 124.103 196.252 122.271C198.089 120.439 199.124 117.953 199.131 115.358C199.131 112.76 198.099 110.267 196.261 108.43C194.423 106.592 191.931 105.559 189.332 105.559H77.7194C76.4321 105.558 75.1571 105.81 73.9675 106.302C72.7778 106.794 71.6969 107.515 70.7867 108.426C69.8764 109.336 69.1547 110.417 68.6628 111.607C68.171 112.796 67.9187 114.071 67.9204 115.358C67.9187 116.646 68.171 117.921 68.6628 119.11C69.1547 120.3 69.8764 121.381 70.7867 122.291C71.6969 123.201 72.7778 123.923 73.9675 124.415C75.1571 124.907 76.4321 125.159 77.7194 125.157H105.159C107.757 125.161 110.247 126.194 112.084 128.031C113.921 129.868 114.955 132.359 114.958 134.956C114.958 137.555 113.926 140.048 112.088 141.885C110.25 143.723 107.758 144.755 105.159 144.755H102.813C101.525 144.755 100.25 145.009 99.0602 145.503C97.8705 145.996 96.7897 146.719 95.8796 147.63C94.9695 148.541 94.248 149.623 93.7563 150.813C93.2646 152.004 93.0124 153.279 93.0141 154.567C93.0141 157.166 94.0465 159.659 95.8842 161.496C97.7219 163.334 100.214 164.366 102.813 164.366H216.875C219.475 164.366 221.969 163.334 223.809 161.497C225.649 159.66 226.684 157.167 226.687 154.567C226.687 151.965 225.654 149.469 223.814 147.629C221.973 145.789 219.478 144.755 216.875 144.755H184.51C183.221 144.755 181.945 144.501 180.754 144.007C179.564 143.513 178.482 142.789 177.572 141.876C176.662 140.964 175.941 139.88 175.45 138.688C174.959 137.497 174.708 136.219 174.711 134.93Z" fill="#3D2C62"/>
<path d="M196.266 15.7225C196.277 15.1907 196.496 14.6844 196.877 14.3132C197.258 13.942 197.77 13.7358 198.301 13.7394H202.112C202.643 13.7463 203.155 13.543 203.536 13.1739C203.917 12.8048 204.137 12.2998 204.147 11.7692C204.144 11.5053 204.088 11.2448 203.984 11.0023C203.88 10.7598 203.729 10.5403 203.54 10.3561C203.351 10.172 203.128 10.0268 202.883 9.92902C202.638 9.83121 202.376 9.78263 202.112 9.78606H184.134C183.871 9.78263 183.609 9.83121 183.364 9.92902C183.119 10.0268 182.895 10.172 182.706 10.3561C182.517 10.5403 182.366 10.7598 182.262 11.0023C182.158 11.2448 182.103 11.5053 182.099 11.7692C182.11 12.2998 182.329 12.8048 182.711 13.1739C183.092 13.543 183.604 13.7463 184.134 13.7394H187.945C188.477 13.7358 188.989 13.942 189.37 14.3132C189.751 14.6844 189.97 15.1907 189.98 15.7225C189.97 16.2542 189.751 16.7606 189.37 17.1317C188.989 17.5029 188.477 17.7091 187.945 17.7056H179.416C179.153 17.7005 178.892 17.7474 178.647 17.8438C178.402 17.9402 178.178 18.0841 177.989 18.2672C177.8 18.4503 177.649 18.6691 177.544 18.9108C177.44 19.1526 177.385 19.4125 177.381 19.6758C177.385 19.9396 177.44 20.2002 177.544 20.4427C177.648 20.6851 177.799 20.9047 177.988 21.0888C178.177 21.273 178.4 21.4181 178.646 21.5159C178.891 21.6138 179.153 21.6623 179.416 21.6589H206.83C207.094 21.6623 207.356 21.6138 207.601 21.5159C207.846 21.4181 208.07 21.273 208.258 21.0888C208.447 20.9047 208.598 20.6851 208.702 20.4427C208.806 20.2002 208.862 19.9396 208.865 19.6758C208.862 19.4125 208.806 19.1526 208.702 18.9108C208.598 18.6691 208.447 18.4503 208.258 18.2672C208.069 18.0841 207.845 17.9402 207.6 17.8438C207.355 17.7474 207.093 17.7005 206.83 17.7056H198.301C197.77 17.7091 197.258 17.5029 196.877 17.1317C196.496 16.7606 196.277 16.2542 196.266 15.7225Z" fill="#3D2C62"/>
<path d="M106.688 19.6966L43.1869 123.892C42.3412 125.279 42.7806 127.09 44.1682 127.936L91.3958 156.718C92.7834 157.564 94.5938 157.124 95.4395 155.737L158.941 51.5416C159.786 50.154 159.347 48.3436 157.959 47.498L110.732 18.7153C109.344 17.8697 107.534 18.309 106.688 19.6966Z" fill="#4D9C31"/>
<path d="M106.861 27.4183L49.4969 121.187C49.0465 121.924 49.2782 122.886 50.0145 123.336L92.3543 149.238C93.0906 149.688 94.0525 149.457 94.5029 148.72L151.867 54.9514C152.318 54.2152 152.086 53.2532 151.35 52.8028L109.01 26.9008C108.274 26.4504 107.312 26.6821 106.861 27.4183Z" fill="#1E682F"/>
<path d="M139.663 51.2891L139.948 50.8743L116.099 36.2925L115.866 36.7332C114.693 38.6543 112.805 40.0311 110.618 40.5609C108.43 41.0908 106.122 40.7303 104.2 39.5588L104.083 39.481L59.625 112.481H59.7417C61.6649 113.652 63.0444 115.538 63.5768 117.726C64.1091 119.913 63.7507 122.223 62.5803 124.146C62.4895 124.302 62.3858 124.432 62.2951 124.574L86.1445 139.104C86.2223 138.962 86.3 138.806 86.3908 138.663C87.5614 136.74 89.448 135.361 91.6356 134.828C93.8233 134.296 96.1328 134.654 98.0562 135.825L142.502 62.9675C140.577 61.7944 139.198 59.9055 138.665 57.7157C138.133 55.526 138.492 53.2145 139.663 51.2891Z" fill="#88AF34"/>
<path d="M86.1446 139.817C86.0267 139.813 85.9114 139.782 85.8076 139.726L61.9582 125.183C61.883 125.138 61.8178 125.078 61.7665 125.007C61.7153 124.935 61.679 124.854 61.66 124.769C61.641 124.682 61.6404 124.592 61.6582 124.505C61.6761 124.418 61.712 124.335 61.7637 124.263L61.8415 124.146C61.9094 124.061 61.9701 123.97 62.023 123.874C63.106 122.1 63.4414 119.968 62.9554 117.946C62.4695 115.925 61.202 114.179 59.4306 113.09C59.2717 112.998 59.1506 112.852 59.0889 112.679C59.0272 112.505 59.0289 112.316 59.0936 112.144L103.513 39.1959C103.606 39.0522 103.752 38.9503 103.918 38.9116C104.085 38.8729 104.261 38.9005 104.407 38.9885C104.451 39.0066 104.491 39.033 104.524 39.0662C106.299 40.1493 108.43 40.4846 110.452 39.9987C112.473 39.5128 114.22 38.2452 115.308 36.4739L115.464 36.1888V36.0591C115.553 35.9047 115.696 35.7891 115.866 35.7351C116.038 35.6963 116.218 35.7241 116.371 35.8129L140.298 50.3169C140.375 50.3631 140.442 50.4251 140.493 50.4988C140.545 50.5725 140.58 50.6563 140.596 50.7447C140.615 50.8315 140.615 50.9212 140.597 51.0082C140.579 51.0951 140.544 51.1775 140.493 51.2502L140.415 51.3668C140.415 51.4446 140.298 51.5353 140.233 51.6261C139.15 53.4007 138.815 55.5324 139.301 57.5538C139.787 59.5753 141.054 61.3216 142.826 62.4101C142.899 62.4541 142.963 62.5122 143.014 62.581C143.065 62.6499 143.102 62.7282 143.122 62.8113C143.143 62.8945 143.147 62.9809 143.134 63.0656C143.121 63.1502 143.091 63.2314 143.046 63.3045L98.6136 136.227C98.5229 136.374 98.3791 136.481 98.2118 136.525C98.1287 136.545 98.0423 136.548 97.9578 136.535C97.8732 136.522 97.7922 136.492 97.7193 136.447C95.9446 135.364 93.813 135.029 91.7915 135.514C89.7701 136 88.0237 137.268 86.9352 139.039L86.7797 139.324V139.441C86.7391 139.52 86.6824 139.59 86.6132 139.646C86.544 139.702 86.4638 139.742 86.3779 139.765L86.1446 139.817ZM63.2025 124.432L85.8594 138.262C87.0825 136.329 88.9851 134.924 91.1922 134.325C93.3993 133.725 95.7511 133.973 97.7841 135.021L141.594 63.1619C139.731 61.8363 138.432 59.8612 137.952 57.6253C137.472 55.3895 137.847 53.055 139.002 51.0817L116.332 37.2386C115.098 39.1921 113.171 40.6065 110.938 41.1979C108.704 41.7894 106.33 41.514 104.291 40.4272L60.5065 112.261C62.4082 113.575 63.7428 115.56 64.2428 117.817C64.7428 120.074 64.3712 122.437 63.2025 124.432V124.432Z" fill="#34255F"/>
<path d="M93.6363 149.992C93.2294 149.991 92.8305 149.879 92.4828 149.668L49.9557 123.745C49.4538 123.439 49.094 122.946 48.9555 122.375C48.8169 121.803 48.9109 121.201 49.2168 120.699L106.598 26.5065C106.904 26.0046 107.397 25.6449 107.968 25.5063C108.539 25.3678 109.142 25.4618 109.644 25.7677L152.171 51.6909C152.673 51.9969 153.033 52.4897 153.171 53.0609C153.31 53.6322 153.216 54.235 152.91 54.7369V54.7369L95.5158 148.929C95.32 149.253 95.0443 149.52 94.7152 149.706C94.386 149.893 94.0145 149.991 93.6363 149.992V149.992ZM108.503 26.7398C108.345 26.7389 108.189 26.779 108.05 26.8562C107.912 26.9334 107.795 27.0451 107.713 27.1805L50.3056 121.373C50.2379 121.477 50.1921 121.595 50.1711 121.717C50.1501 121.84 50.1543 121.966 50.1834 122.087C50.2125 122.209 50.2659 122.323 50.3404 122.423C50.4148 122.523 50.5089 122.606 50.6167 122.669L93.1438 148.592C93.2484 148.66 93.3658 148.706 93.4886 148.727C93.6115 148.748 93.7373 148.743 93.8586 148.714C93.9798 148.685 94.0938 148.632 94.1937 148.557C94.2937 148.483 94.3774 148.389 94.44 148.281L151.847 54.0888C151.915 53.9842 151.96 53.8669 151.981 53.744C152.003 53.6211 151.998 53.4953 151.969 53.3741C151.94 53.2529 151.887 53.1388 151.812 53.0389C151.738 52.939 151.644 52.8552 151.536 52.7927L109.009 26.8694C108.856 26.7803 108.681 26.7355 108.503 26.7398V26.7398Z" fill="#34255F"/>
<path d="M108.737 75.1773C111.249 76.7091 113.251 78.9516 114.49 81.6211C115.728 84.2906 116.147 87.2674 115.693 90.175C115.24 93.0826 113.935 95.7905 111.942 97.9563C109.95 100.122 107.36 101.649 104.501 102.343C101.641 103.037 98.6397 102.867 95.8763 101.856C93.1129 100.844 90.7114 99.036 88.9756 96.6597C87.2397 94.2835 86.2475 91.4459 86.1242 88.5057C86.001 85.5655 86.7523 82.6548 88.2831 80.1416C90.339 76.7732 93.6477 74.3584 97.4827 73.4276C101.318 72.4968 105.365 73.1261 108.737 75.1773Z" fill="#4D9C31"/>
<path d="M91.8735 81.3603L92.9623 82.0213C93.4041 81.4233 93.9327 80.8947 94.5307 80.4529C95.0705 80.0725 95.692 79.8239 96.3453 79.7271C96.8392 79.6509 97.3419 79.6509 97.8359 79.7271C98.2364 79.7711 98.6242 79.8945 98.9765 80.09C99.1386 80.1885 99.2794 80.3183 99.3906 80.4719C99.5019 80.6255 99.5815 80.7997 99.6246 80.9844C99.6868 81.252 99.6745 81.5315 99.589 81.7926C99.5036 82.0537 99.3482 82.2864 99.1398 82.4654C98.9314 82.6444 98.6779 82.7629 98.4069 82.808C98.1359 82.8531 97.8577 82.8231 97.6026 82.7212C97.157 82.585 96.6837 82.5672 96.2291 82.6694C95.7746 82.7717 95.3545 82.9906 95.0102 83.3045L99.1968 85.8968C99.7578 85.3157 100.351 84.7661 100.973 84.2507C101.458 83.8784 102.007 83.5974 102.593 83.4212C103.209 83.2338 103.859 83.1807 104.498 83.2656C105.164 83.3661 105.804 83.5997 106.378 83.9526C107.131 84.4098 107.759 85.0466 108.205 85.8061C108.654 86.5952 108.883 87.4906 108.866 88.3984C108.844 89.4196 108.587 90.422 108.114 91.3277L110.616 92.8572C110.914 93.0218 111.182 93.2367 111.407 93.4923C111.475 93.5916 111.511 93.7091 111.511 93.8293C111.511 93.9496 111.475 94.0671 111.407 94.1663C111.357 94.2688 111.282 94.357 111.189 94.4227C111.096 94.4884 110.988 94.5295 110.875 94.5422C110.595 94.5316 110.324 94.4367 110.098 94.27L107.35 92.5461C106.85 93.2137 106.241 93.7922 105.548 94.2571C104.957 94.6513 104.298 94.9325 103.604 95.0866C103.003 95.214 102.385 95.2403 101.776 95.1644C101.244 95.0825 100.734 94.8976 100.273 94.62C100.11 94.5195 99.9684 94.3875 99.8571 94.2317C99.7459 94.0759 99.6668 93.8994 99.6246 93.7127C99.5722 93.5135 99.5625 93.3054 99.596 93.1022C99.6295 92.899 99.7055 92.7051 99.819 92.5332C99.9752 92.259 100.21 92.0378 100.493 91.8981C100.77 91.8012 101.072 91.8012 101.348 91.8981C102.01 92.0536 102.515 92.1443 102.891 92.1962C103.27 92.2158 103.649 92.1585 104.006 92.0277C104.463 91.8777 104.88 91.625 105.224 91.2889L100.545 88.4373C99.8764 89.094 99.1424 89.6803 98.3543 90.1871C97.6894 90.5961 96.9308 90.8281 96.1509 90.8611C95.0961 90.8231 94.0794 90.4567 93.2429 89.813C92.4064 89.1694 91.7917 88.2806 91.4847 87.2708C91.2362 85.9387 91.4657 84.5617 92.1327 83.3823L91.0699 82.7342C90.5125 82.3842 90.357 82.0083 90.6162 81.5806C90.8755 81.1529 91.3291 81.0233 91.8735 81.3603ZM97.9914 86.843L94.1029 84.497C93.9374 85.0514 93.8932 85.6349 93.9733 86.2079C94.0292 86.4707 94.1432 86.7177 94.3069 86.9308C94.4706 87.1438 94.6799 87.3176 94.9195 87.4393C95.1304 87.5912 95.3713 87.6963 95.6261 87.7478C95.8809 87.7992 96.1438 87.7956 96.3971 87.7374C96.982 87.5467 97.5238 87.2428 97.9914 86.843ZM101.75 87.3745L106.144 90.0575C106.425 89.4068 106.475 88.6798 106.287 87.9966C106.117 87.4008 105.728 86.8913 105.198 86.5708C104.956 86.4066 104.681 86.2962 104.393 86.247C104.105 86.1978 103.809 86.211 103.526 86.2857C102.867 86.5247 102.262 86.8951 101.75 87.3745Z" fill="#88AF34"/>
<path d="M100.96 103.369C98.552 103.378 96.1751 102.828 94.0161 101.762C91.8572 100.696 89.9751 99.144 88.5182 97.2271C87.0612 95.3103 86.0692 93.0814 85.6202 90.7159C85.1711 88.3504 85.2774 85.913 85.9306 83.5956C86.5838 81.2782 87.766 79.1441 89.3842 77.3613C91.0025 75.5785 93.0125 74.1957 95.256 73.3219C97.4995 72.448 99.9153 72.1069 102.313 72.3254C104.711 72.544 107.025 73.3162 109.074 74.5813V74.5813C111.684 76.1875 113.762 78.5293 115.046 81.3124C116.33 84.0956 116.763 87.1962 116.291 90.2247C115.819 93.2533 114.462 96.0748 112.392 98.3349C110.321 100.595 107.629 102.193 104.654 102.928C103.444 103.222 102.204 103.37 100.96 103.369ZM100.96 73.5573C99.8196 73.561 98.6839 73.7002 97.5767 73.9721C94.3707 74.7506 91.5339 76.6169 89.5498 79.2528C87.5657 81.8887 86.5572 85.1311 86.6961 88.4274C86.835 91.7237 88.1127 94.8697 90.3115 97.3294C92.5103 99.7891 95.494 101.41 98.7541 101.916C102.014 102.422 105.349 101.782 108.19 100.105C111.031 98.4275 113.202 95.8168 114.334 92.7178C115.466 89.6187 115.488 86.2232 114.396 83.1098C113.304 79.9964 111.167 77.358 108.348 75.6441V75.6441C106.133 74.3088 103.597 73.6009 101.012 73.5962L100.96 73.5573Z" fill="#34255F"/>
<path d="M86.5463 111.548C87.2515 111.98 87.813 112.611 88.1597 113.362C88.5065 114.113 88.623 114.95 88.4947 115.767C88.3663 116.584 87.9987 117.345 87.4384 117.954C86.878 118.562 86.15 118.991 85.3462 119.186C84.5424 119.381 83.6988 119.334 82.9219 119.05C82.145 118.766 81.4696 118.258 80.9809 117.591C80.4922 116.923 80.2122 116.126 80.1762 115.3C80.1401 114.473 80.3497 113.655 80.7784 112.948C81.0642 112.476 81.4404 112.065 81.8854 111.74C82.3304 111.414 82.8354 111.179 83.3714 111.049C83.9074 110.919 84.4638 110.896 85.0086 110.982C85.5534 111.067 86.076 111.26 86.5463 111.548Z" fill="#1E682F"/>
<path d="M121.618 61.7983C122.301 59.5895 121.065 57.2446 118.856 56.5609C116.647 55.8772 114.303 57.1135 113.619 59.3223C112.935 61.5311 114.171 63.8759 116.38 64.5597C118.589 65.2434 120.934 64.0071 121.618 61.7983Z" fill="#1E682F"/>
<path d="M92.9234 157.795C92.2651 157.8 91.6185 157.62 91.057 157.276L43.8378 128.489C43.0258 127.994 42.4429 127.198 42.2169 126.275C41.9909 125.352 42.1403 124.377 42.6323 123.563L106.144 19.3647C106.639 18.5532 107.434 17.9699 108.356 17.7417C109.279 17.5135 110.254 17.6589 111.07 18.1464L158.302 46.9212C159.11 47.4222 159.688 48.2214 159.911 49.1457C160.135 50.0699 159.985 51.0449 159.494 51.8595L95.9824 156.058C95.7365 156.464 95.4131 156.817 95.0305 157.097C94.6479 157.377 94.2138 157.579 93.753 157.691C93.4814 157.757 93.203 157.792 92.9234 157.795V157.795ZM109.19 18.937C108.797 18.9362 108.41 19.0373 108.067 19.2303C107.724 19.4234 107.437 19.7019 107.233 20.0387L43.7211 124.237C43.5631 124.494 43.4575 124.779 43.4105 125.077C43.3634 125.375 43.3758 125.679 43.4469 125.972C43.518 126.264 43.6464 126.54 43.8247 126.783C44.0031 127.026 44.2278 127.231 44.4859 127.387L91.7051 156.162C91.9619 156.32 92.2478 156.426 92.546 156.473C92.8443 156.52 93.1489 156.506 93.4419 156.434C93.7355 156.366 94.0122 156.239 94.2552 156.061C94.4981 155.883 94.7021 155.657 94.8547 155.397L158.444 51.1985C158.602 50.9419 158.708 50.6565 158.755 50.3588C158.802 50.0611 158.79 49.7571 158.719 49.4642C158.648 49.1714 158.519 48.8955 158.341 48.6526C158.163 48.4096 157.938 48.2044 157.68 48.0488L110.396 19.2611C110.031 19.045 109.614 18.9329 109.19 18.937Z" fill="#34255F"/>
<path d="M131.752 24.2954L59.2745 122.459C58.3093 123.766 58.5866 125.608 59.8939 126.573L104.387 159.425C105.695 160.39 107.537 160.113 108.502 158.805L180.98 60.6422C181.945 59.3349 181.668 57.4927 180.361 56.5275L135.867 23.676C134.56 22.7108 132.718 22.9881 131.752 24.2954Z" fill="#4D9C31"/>
<path d="M131.596 31.4464L66.0704 120.194C65.5559 120.89 65.7037 121.872 66.4005 122.387L106.473 151.974C107.17 152.488 108.152 152.341 108.666 151.644L174.192 62.8966C174.706 62.1998 174.559 61.2178 173.862 60.7033L133.789 31.1162C133.093 30.6017 132.111 30.7495 131.596 31.4464Z" fill="#1E682F"/>
<path d="M161.801 58.6774C161.905 58.5348 162.022 58.4181 162.126 58.2885L139.65 41.6976C139.567 41.8407 139.476 41.9792 139.378 42.1124C138.038 43.9249 136.034 45.1315 133.805 45.4669C131.576 45.8023 129.306 45.2391 127.492 43.9011L127.337 43.8104L76.6047 112.507L76.7214 112.585C78.5337 113.914 79.7452 115.907 80.0902 118.128C80.4352 120.349 79.8856 122.616 78.5619 124.432C78.4582 124.574 78.3416 124.704 78.2379 124.834L100.713 141.424L100.986 140.997C102.325 139.184 104.33 137.978 106.558 137.642C108.787 137.307 111.058 137.87 112.871 139.208L163.59 70.5113C161.79 69.1748 160.591 67.1803 160.256 64.9631C159.921 62.746 160.476 60.4863 161.801 58.6774Z" fill="#88AF34"/>
<path d="M100.713 142.124C100.574 142.121 100.438 142.076 100.325 141.995L77.8491 125.404C77.7082 125.297 77.615 125.138 77.5899 124.963C77.5814 124.875 77.5908 124.786 77.6175 124.701C77.6443 124.616 77.6878 124.538 77.7454 124.47L77.8361 124.354L78.0306 124.108C78.6444 123.279 79.0887 122.338 79.3382 121.337C79.5877 120.337 79.6374 119.297 79.4845 118.277C79.3316 117.257 78.9791 116.278 78.4471 115.394C77.9152 114.511 77.2142 113.741 76.3844 113.129C76.2289 113.021 76.1183 112.859 76.0734 112.675C76.0074 112.504 76.0074 112.315 76.0734 112.144L126.805 43.4474C126.856 43.378 126.92 43.3193 126.993 43.2748C127.066 43.2303 127.148 43.2009 127.233 43.1881C127.317 43.1764 127.403 43.1818 127.486 43.2041C127.568 43.2264 127.645 43.265 127.712 43.3178L127.816 43.3955C129.492 44.6284 131.588 45.1474 133.645 44.8389C135.703 44.5304 137.554 43.4195 138.795 41.7494L139.002 41.4772V41.3606C139.05 41.2857 139.113 41.2216 139.187 41.1722C139.261 41.1228 139.344 41.0891 139.432 41.0733C139.52 41.0575 139.609 41.0599 139.696 41.0803C139.783 41.1007 139.864 41.1388 139.935 41.1921L162.411 57.7829C162.482 57.835 162.541 57.9009 162.586 57.9766C162.63 58.0524 162.659 58.1364 162.67 58.2236C162.684 58.4018 162.628 58.5785 162.514 58.7162L162.424 58.8199L162.216 59.0791C161.009 60.7623 160.517 62.8547 160.847 64.8994C161.178 66.9442 162.304 68.7752 163.979 69.9928C164.047 70.0439 164.105 70.1078 164.148 70.1811C164.191 70.2543 164.22 70.3353 164.232 70.4196C164.244 70.5039 164.239 70.5896 164.218 70.6721C164.197 70.7545 164.16 70.832 164.109 70.9001L113.39 139.597C113.339 139.665 113.275 139.722 113.202 139.766C113.128 139.809 113.047 139.837 112.963 139.849C112.879 139.861 112.793 139.857 112.711 139.836C112.628 139.815 112.551 139.777 112.483 139.726C111.654 139.115 110.712 138.673 109.713 138.426C108.713 138.179 107.674 138.131 106.656 138.285C105.638 138.439 104.66 138.792 103.778 139.324C102.896 139.856 102.128 140.556 101.517 141.385C101.449 141.467 101.389 141.553 101.336 141.645L101.258 141.774C101.154 141.917 101.002 142.019 100.83 142.059L100.713 142.124ZM79.1712 124.756L100.558 140.543C101.937 138.714 103.957 137.475 106.212 137.073C108.467 136.672 110.79 137.138 112.716 138.378L162.696 70.6668C160.959 69.1802 159.841 67.0973 159.563 64.8279C159.285 62.5586 159.866 60.2673 161.192 58.4051L139.806 42.6178C138.404 44.4548 136.359 45.6927 134.081 46.0823C131.804 46.4719 129.463 45.9843 127.531 44.7176L77.5639 112.403C79.3392 113.881 80.491 115.974 80.789 118.264C81.0871 120.555 80.5092 122.873 79.1712 124.756V124.756Z" fill="#34255F"/>
<path d="M107.402 152.947C106.934 152.95 106.479 152.8 106.105 152.52L66.0151 122.902C65.5427 122.553 65.2282 122.031 65.1407 121.45C65.0532 120.869 65.1999 120.277 65.5485 119.804L131.069 31.108C131.421 30.6385 131.943 30.3262 132.523 30.2389C133.102 30.1515 133.693 30.2961 134.167 30.6414L174.245 60.2328C174.713 60.5847 175.024 61.1058 175.113 61.6845C175.158 61.9718 175.146 62.2652 175.077 62.5477C175.008 62.8302 174.884 63.0963 174.711 63.3306L109.19 152.027C109.02 152.263 108.804 152.462 108.554 152.611C108.304 152.76 108.027 152.857 107.739 152.895C107.629 152.925 107.515 152.943 107.402 152.947V152.947ZM132.858 31.4839H132.716C132.594 31.4965 132.476 31.5355 132.371 31.5981C132.266 31.6608 132.175 31.7457 132.106 31.8468L66.5854 120.543C66.4442 120.743 66.3856 120.989 66.4218 121.23C66.4581 121.472 66.5864 121.69 66.7798 121.839L106.857 151.444C106.953 151.518 107.064 151.572 107.183 151.601C107.301 151.63 107.424 151.634 107.544 151.612C107.664 151.598 107.779 151.558 107.882 151.495C107.984 151.433 108.073 151.349 108.14 151.249L173.661 62.514C173.806 62.3158 173.866 62.0686 173.83 61.8261C173.794 61.5835 173.663 61.365 173.467 61.2179L133.403 31.6394C133.244 31.5241 133.054 31.4606 132.858 31.458V31.4839Z" fill="#34255F"/>
<path d="M127.734 104.391C134.768 100.14 137.023 90.9923 132.772 83.9592C128.521 76.9261 119.373 74.6708 112.34 78.9218C105.307 83.1728 103.052 92.3203 107.303 99.3534C111.554 106.386 120.701 108.642 127.734 104.391Z" fill="#4D9C31"/>
<path d="M111.536 84.406L112.56 85.1577C113.055 84.6004 113.627 84.116 114.258 83.719C114.835 83.3945 115.477 83.204 116.138 83.1617C116.631 83.1077 117.13 83.134 117.615 83.2394C118.015 83.3092 118.395 83.4639 118.73 83.6931C118.882 83.8045 119.01 83.946 119.106 84.1087C119.202 84.2714 119.264 84.4519 119.287 84.6393C119.321 84.8318 119.314 85.029 119.267 85.2187C119.22 85.4083 119.134 85.5862 119.015 85.741C118.808 86.033 118.502 86.2399 118.154 86.3234C117.806 86.4068 117.44 86.3611 117.123 86.1947C116.685 86.0073 116.205 85.941 115.733 86.0026C115.261 86.0641 114.815 86.2513 114.44 86.5446L118.328 89.448C119.119 88.8259 119.78 88.3463 120.298 88.0093C120.813 87.6817 121.385 87.4531 121.983 87.3353C122.611 87.1992 123.261 87.1992 123.889 87.3353C124.552 87.4876 125.175 87.7792 125.716 88.1908C126.42 88.7115 126.985 89.3969 127.362 90.1869C127.735 90.9969 127.883 91.8923 127.79 92.7792C127.687 93.797 127.34 94.7751 126.779 95.6307L129.138 97.3806C129.419 97.5693 129.665 97.8063 129.864 98.0805C129.921 98.1882 129.943 98.3112 129.927 98.4321C129.911 98.553 129.857 98.6657 129.773 98.7545C129.715 98.8508 129.633 98.9309 129.536 98.9875C129.439 99.0441 129.329 99.0754 129.216 99.0785C128.94 99.0358 128.68 98.9194 128.464 98.7415L125.872 96.8491C125.314 97.4717 124.657 97.9973 123.928 98.4045C123.303 98.7404 122.622 98.96 121.919 99.0526C121.305 99.1357 120.681 99.1049 120.078 98.9619C119.554 98.8442 119.059 98.6191 118.626 98.3008C118.323 98.0656 118.123 97.7216 118.069 97.3417C118.037 97.1392 118.046 96.9323 118.098 96.7338C118.149 96.5353 118.241 96.3495 118.367 96.1881C118.547 95.93 118.8 95.7315 119.093 95.6178C119.37 95.521 119.671 95.521 119.948 95.6178C120.445 95.7926 120.952 95.9397 121.465 96.0585C121.854 96.1422 122.256 96.1422 122.644 96.0585C123.119 95.9547 123.563 95.7417 123.941 95.4363L119.56 92.2089C118.835 92.7993 118.053 93.316 117.226 93.7513C116.531 94.1085 115.752 94.274 114.971 94.2309C113.922 94.1049 112.938 93.6514 112.161 92.9347C111.384 92.218 110.852 91.2747 110.642 90.2387C110.492 88.8644 110.847 87.4826 111.64 86.3502L110.629 85.6114C110.111 85.2226 109.981 84.8337 110.279 84.4319C110.577 84.0301 111.018 84.0171 111.536 84.406ZM117.149 90.3942L113.519 87.7112C113.303 88.259 113.206 88.8467 113.234 89.4351C113.343 89.9493 113.633 90.4071 114.052 90.7239C114.472 91.0407 114.991 91.1953 115.516 91.159C116.103 91.0073 116.656 90.748 117.149 90.3942ZM120.843 91.2627L124.99 94.3216C125.316 93.6963 125.43 92.9822 125.315 92.2866C125.209 91.6634 124.865 91.1057 124.355 90.7312C124.129 90.5447 123.864 90.4098 123.579 90.3359C123.295 90.262 122.998 90.251 122.709 90.3035C122.033 90.4943 121.402 90.8206 120.856 91.2627H120.843Z" fill="#88AF34"/>
<path d="M120.026 107.18C116.526 107.181 113.128 106.002 110.381 103.833C107.634 101.664 105.699 98.632 104.889 95.2272C104.079 91.8224 104.44 88.2438 105.915 85.0699C107.39 81.896 109.893 79.3125 113.018 77.7369C116.143 76.1613 119.709 75.6858 123.138 76.3873C126.567 77.0888 129.659 78.9262 131.914 81.6026C134.169 84.2789 135.456 87.6377 135.566 91.1359C135.677 94.6341 134.604 98.0672 132.521 100.88C131.083 102.842 129.202 104.435 127.03 105.53C124.858 106.625 122.458 107.19 120.026 107.18V107.18ZM120.026 77.3678C119.306 77.366 118.586 77.4223 117.875 77.5363C114.289 78.097 111.059 80.0248 108.864 82.9152C106.669 85.8056 105.679 89.4339 106.101 93.0387C106.523 96.6435 108.326 99.9447 111.129 102.249C113.933 104.554 117.521 105.683 121.139 105.4C124.758 105.116 128.126 103.443 130.536 100.73C132.947 98.0165 134.214 94.475 134.07 90.8484C133.926 87.2218 132.383 83.7919 129.764 81.2785C127.146 78.7651 123.656 77.3635 120.026 77.3678V77.3678Z" fill="#34255F"/>
<path d="M103.552 113.985C104.223 114.476 104.733 115.155 105.018 115.936C105.302 116.717 105.349 117.565 105.151 118.372C104.953 119.18 104.52 119.91 103.907 120.472C103.293 121.033 102.527 121.399 101.706 121.525C100.884 121.65 100.043 121.529 99.2903 121.176C98.5374 120.824 97.9062 120.256 97.4765 119.544C97.0469 118.832 96.8381 118.009 96.8767 117.178C96.9153 116.348 97.1995 115.548 97.6934 114.879C98.3531 113.985 99.34 113.39 100.438 113.222C101.536 113.054 102.656 113.329 103.552 113.985Z" fill="#1E682F"/>
<path d="M141.517 62.5787C142.185 63.0722 142.692 63.7528 142.973 64.5344C143.254 65.316 143.298 66.1635 143.097 66.9697C142.897 67.7758 142.462 68.5045 141.848 69.0635C141.233 69.6225 140.467 69.9866 139.645 70.1099C138.824 70.2333 137.984 70.1102 137.232 69.7563C136.481 69.4023 135.851 68.8335 135.423 68.1217C134.995 67.4098 134.787 66.587 134.827 65.7572C134.866 64.9275 135.151 64.1281 135.645 63.4601C136.307 62.5649 137.297 61.9692 138.398 61.8039C139.499 61.6386 140.621 61.9173 141.517 62.5787Z" fill="#1E682F"/>
<path d="M106.131 160.633C105.365 160.638 104.619 160.392 104.006 159.933L59.5084 127.089C58.7443 126.523 58.2361 125.676 58.0952 124.736C57.9542 123.796 58.1921 122.838 58.7566 122.073L131.225 23.9012C131.504 23.5214 131.856 23.2006 132.259 22.9572C132.663 22.7138 133.111 22.5525 133.577 22.4826C134.043 22.4128 134.518 22.4357 134.976 22.5501C135.433 22.6646 135.863 22.8682 136.241 23.1494L180.738 55.9941C181.119 56.2724 181.441 56.6232 181.686 57.0263C181.93 57.4295 182.093 57.877 182.164 58.3432C182.235 58.8094 182.213 59.285 182.1 59.7427C181.986 60.2004 181.784 60.6312 181.503 61.0103V61.0103L109.022 159.182C108.689 159.635 108.254 160.003 107.751 160.256C107.249 160.508 106.694 160.637 106.131 160.633V160.633ZM134.128 23.7456C133.769 23.7421 133.413 23.8236 133.091 23.9835C132.769 24.1434 132.489 24.3773 132.275 24.6659L59.7935 122.837C59.6151 123.081 59.4867 123.358 59.4155 123.651C59.3443 123.945 59.3318 124.25 59.3787 124.548C59.4202 124.846 59.5206 125.132 59.6742 125.39C59.8278 125.648 60.0314 125.873 60.2731 126.052L104.77 158.896C105.259 159.256 105.87 159.408 106.47 159.318C107.07 159.228 107.61 158.904 107.972 158.417L180.479 60.2456C180.659 60.0032 180.79 59.7277 180.863 59.4348C180.937 59.1419 180.951 58.8374 180.907 58.5387C180.862 58.2401 180.759 57.9532 180.604 57.6945C180.448 57.4358 180.243 57.2103 180 57.0311L135.476 24.1863C135.086 23.8991 134.613 23.7447 134.128 23.7456V23.7456Z" fill="#34255F"/>
<path d="M156.213 30.534L66.9871 113.768C65.7989 114.876 65.7342 116.738 66.8426 117.926L104.569 158.369C105.678 159.557 107.539 159.622 108.728 158.513L197.953 75.2796C199.142 74.1712 199.206 72.3093 198.098 71.1211L160.371 30.6785C159.263 29.4903 157.401 29.4256 156.213 30.534Z" fill="#4D9C31"/>
<path d="M154.75 37.5355L74.0827 112.785C73.4494 113.376 73.4149 114.368 74.0057 115.002L107.983 151.426C108.574 152.059 109.567 152.094 110.2 151.503L190.867 76.2531C191.501 75.6622 191.535 74.6698 190.944 74.0364L156.967 37.6125C156.376 36.9791 155.383 36.9446 154.75 37.5355Z" fill="#1E682F"/>
<path d="M179.468 69.8373L179.857 69.5132L160.803 49.0987C160.687 49.2153 160.57 49.3449 160.454 49.4486C159.638 50.2098 158.681 50.8028 157.637 51.1939C156.592 51.585 155.481 51.7665 154.366 51.728C153.252 51.6895 152.156 51.4317 151.141 50.9694C150.126 50.5072 149.212 49.8495 148.451 49.0339C148.414 49.0057 148.383 48.9704 148.36 48.9302L85.8594 107.193L85.9501 107.296C87.4763 108.935 88.2931 111.111 88.2227 113.349C88.1523 115.587 87.2004 117.707 85.5742 119.247L85.1854 119.571L104.239 139.999L104.589 139.636C105.404 138.875 106.361 138.281 107.406 137.89C108.45 137.499 109.561 137.318 110.676 137.356C111.791 137.395 112.887 137.653 113.902 138.115C114.917 138.577 115.831 139.235 116.591 140.05L179.053 81.8527C177.515 80.2042 176.695 78.0123 176.773 75.7591C176.851 73.5059 177.82 71.3758 179.468 69.8373Z" fill="#88AF34"/>
<path d="M116.591 140.75C116.505 140.751 116.42 140.732 116.342 140.696C116.263 140.661 116.194 140.608 116.138 140.543C115.437 139.786 114.592 139.176 113.653 138.749C112.714 138.322 111.699 138.086 110.668 138.054C108.591 137.998 106.574 138.751 105.043 140.154L104.835 140.374L104.719 140.491C104.585 140.601 104.423 140.673 104.252 140.698C104.164 140.699 104.077 140.681 103.996 140.645C103.916 140.609 103.844 140.557 103.785 140.491L84.7187 120.064C84.5974 119.934 84.5322 119.761 84.5373 119.584C84.552 119.404 84.6356 119.237 84.7706 119.117L84.8872 119.027L85.1335 118.819C86.6545 117.401 87.5499 115.437 87.6228 113.359C87.6958 111.28 86.9402 109.258 85.5223 107.737C85.391 107.594 85.3092 107.412 85.289 107.219C85.2853 107.042 85.3399 106.869 85.4446 106.726L147.92 48.4635C147.979 48.4005 148.052 48.3516 148.132 48.3202C148.213 48.2888 148.3 48.2758 148.386 48.2821C148.56 48.2953 148.722 48.3741 148.84 48.5024C149.538 49.2737 150.383 49.8986 151.325 50.3408C152.266 50.7831 153.287 51.0337 154.326 51.0784C155.366 51.123 156.404 50.9606 157.38 50.6008C158.356 50.2409 159.251 49.6906 160.013 48.982L160.233 48.7487L160.337 48.645C160.392 48.5764 160.464 48.5227 160.546 48.4887C160.627 48.4548 160.716 48.4417 160.803 48.4506C160.892 48.4475 160.98 48.4645 161.061 48.5005C161.142 48.5364 161.213 48.5903 161.27 48.6579L180.324 69.0725C180.447 69.2062 180.512 69.3833 180.505 69.565C180.498 69.6537 180.473 69.7399 180.43 69.818C180.388 69.8962 180.329 69.9645 180.259 70.0187L180.155 70.1094L179.909 70.3168C178.39 71.739 177.497 73.7048 177.424 75.7841C177.351 77.8635 178.105 79.887 179.52 81.412C179.582 81.4702 179.631 81.5404 179.665 81.6185C179.699 81.6965 179.716 81.7806 179.716 81.8656C179.716 81.9507 179.699 82.0348 179.665 82.1128C179.631 82.1908 179.582 82.2611 179.52 82.3193L117.045 140.582C116.918 140.688 116.757 140.748 116.591 140.75V140.75ZM110.383 136.758H110.707C112.905 136.836 115.003 137.7 116.617 139.195L178.146 81.8008C176.696 80.0276 175.97 77.7712 176.114 75.4848C176.258 73.1984 177.262 71.0512 178.924 69.4743L160.778 50.0319C159.005 51.6274 156.68 52.4691 154.297 52.3779C152.044 52.2895 149.904 51.3654 148.295 49.7856L86.8055 107.232C88.284 109.009 89.035 111.28 88.9075 113.588C88.7801 115.896 87.7837 118.071 86.1186 119.675L104.265 139.117C105.939 137.596 108.121 136.754 110.383 136.758V136.758Z" fill="#34255F"/>
<path d="M109.19 152.571H109.112C108.527 152.547 107.974 152.296 107.57 151.871L73.5328 115.436C73.326 115.229 73.1632 114.982 73.0541 114.71C72.945 114.439 72.8918 114.148 72.8977 113.855C72.9211 113.265 73.1719 112.708 73.5976 112.3L154.271 37.1221C154.703 36.7241 155.276 36.513 155.863 36.5349C156.451 36.5567 157.006 36.8097 157.407 37.2388L191.38 73.6609C191.778 74.0935 191.989 74.6659 191.967 75.2533C191.945 75.8408 191.692 76.3958 191.263 76.7977V76.7977L110.642 151.975C110.248 152.346 109.731 152.559 109.19 152.571V152.571ZM155.852 37.7572C155.619 37.7619 155.397 37.8545 155.23 38.0165L74.5179 113.259C74.3466 113.427 74.2449 113.654 74.2327 113.894C74.2268 114.015 74.2456 114.136 74.2879 114.25C74.3302 114.363 74.3953 114.467 74.479 114.555L108.451 150.977C108.62 151.157 108.853 151.264 109.099 151.275C109.221 151.282 109.342 151.263 109.456 151.221C109.569 151.179 109.673 151.113 109.761 151.029L190.421 75.8515C190.589 75.6775 190.682 75.4451 190.682 75.2034C190.682 74.9616 190.589 74.7293 190.421 74.5553L156.435 38.1331C156.297 37.9365 156.088 37.8016 155.852 37.7572V37.7572Z" fill="#34255F"/>
<path d="M143.253 84.4709C145.259 86.624 146.582 89.3234 147.053 92.228C147.525 95.1325 147.125 98.1117 145.904 100.789C144.683 103.466 142.695 105.721 140.192 107.269C137.69 108.817 134.784 109.588 131.844 109.484C128.903 109.381 126.059 108.408 123.671 106.689C121.283 104.969 119.458 102.58 118.428 99.824C117.398 97.0677 117.208 94.0677 117.882 91.2035C118.556 88.3392 120.065 85.7391 122.217 83.7321C123.645 82.3972 125.323 81.3572 127.155 80.6718C128.986 79.9863 130.934 79.6688 132.888 79.7374C134.842 79.8061 136.764 80.2595 138.542 81.0717C140.321 81.884 141.922 83.0391 143.253 84.4709Z" fill="#4D9C31"/>
<path d="M125.34 85.9226L126.209 86.8558C126.794 86.3939 127.445 86.0225 128.14 85.7541C128.763 85.5348 129.429 85.4638 130.084 85.5467C130.583 85.591 131.072 85.709 131.536 85.8967C131.91 86.0411 132.25 86.2618 132.534 86.5447C132.791 86.8323 132.925 87.2086 132.908 87.5936C132.891 87.9786 132.724 88.3418 132.443 88.6056C132.191 88.8626 131.853 89.0169 131.494 89.0384C131.135 89.06 130.78 88.9473 130.499 88.7223C130.107 88.4511 129.649 88.2932 129.173 88.2657C128.697 88.2383 128.223 88.3425 127.803 88.5668L131.147 92.1442C132.029 91.6775 132.767 91.3276 133.338 91.0943C133.902 90.8648 134.504 90.7417 135.114 90.7313C135.759 90.7136 136.4 90.8375 136.993 91.0943C137.618 91.3624 138.175 91.7651 138.626 92.2738C139.24 92.9052 139.686 93.6807 139.922 94.5291C140.162 95.4031 140.162 96.3253 139.922 97.1992C139.623 98.1714 139.099 99.0594 138.393 99.7915L140.298 101.969C140.55 102.203 140.753 102.485 140.894 102.799C140.93 102.914 140.927 103.038 140.888 103.152C140.848 103.266 140.773 103.365 140.674 103.434C140.599 103.519 140.504 103.583 140.398 103.622C140.291 103.66 140.177 103.671 140.065 103.654C139.8 103.56 139.567 103.394 139.391 103.175L137.226 100.854C136.567 101.372 135.821 101.767 135.023 102.021C134.352 102.248 133.643 102.34 132.936 102.293C132.319 102.266 131.713 102.125 131.147 101.878C130.658 101.661 130.218 101.348 129.851 100.958C129.721 100.82 129.62 100.657 129.556 100.479C129.491 100.3 129.464 100.11 129.475 99.9211C129.477 99.7154 129.522 99.5122 129.607 99.3247C129.691 99.1373 129.814 98.9695 129.968 98.8324C130.197 98.6127 130.485 98.4642 130.797 98.4046C131.089 98.3634 131.386 98.4228 131.64 98.5731C132.094 98.8301 132.561 99.0637 133.04 99.2731C133.411 99.419 133.808 99.4853 134.206 99.4675C134.661 99.4301 135.102 99.2977 135.502 99.0786L131.769 95.0735C130.943 95.5209 130.075 95.8856 129.177 96.1623C128.382 96.4198 127.527 96.434 126.724 96.2031C125.92 95.9722 125.204 95.5066 124.666 94.8661C124.237 94.432 123.901 93.915 123.678 93.3468C123.456 92.7786 123.351 92.1709 123.37 91.5609C123.484 90.1831 124.086 88.8913 125.068 87.9187L124.213 87.0114C123.759 86.5318 123.72 86.117 124.083 85.7152C124.446 85.3134 124.9 85.456 125.34 85.9226ZM129.747 92.8441L126.675 89.5518C126.356 90.043 126.14 90.5944 126.04 91.172C126.029 91.4407 126.077 91.7086 126.18 91.9571C126.283 92.2055 126.439 92.4286 126.637 92.6108C126.794 92.8068 126.991 92.968 127.214 93.084C127.437 93.2 127.682 93.2684 127.933 93.2848C128.561 93.2582 129.177 93.1085 129.747 92.8441ZM133.221 94.3736L136.747 98.1454C137.181 97.5894 137.422 96.9068 137.434 96.2012C137.432 95.5804 137.196 94.9832 136.773 94.5291C136.583 94.3038 136.347 94.1222 136.081 93.9969C135.815 93.8716 135.524 93.8055 135.23 93.8033C134.529 93.8551 133.845 94.0492 133.221 94.3736Z" fill="#88AF34"/>
<path d="M132.379 110.174H131.834C129.271 110.097 126.767 109.388 124.544 108.11C122.321 106.832 120.449 105.024 119.094 102.847C117.739 100.671 116.943 98.1927 116.777 95.6339C116.611 93.0752 117.08 90.5152 118.142 88.1816C119.205 85.848 120.828 83.8132 122.867 82.2585C124.906 80.7037 127.297 79.6771 129.829 79.2701C132.361 78.8631 134.954 79.0882 137.377 79.9255C139.801 80.7628 141.98 82.1862 143.72 84.0691V84.0691C145.766 86.2852 147.124 89.0483 147.627 92.022C148.131 94.9957 147.76 98.0517 146.558 100.818C145.356 103.584 143.376 105.942 140.858 107.603C138.341 109.264 135.395 110.157 132.379 110.174ZM132.379 80.3621C129.099 80.351 125.915 81.471 123.365 83.5334C120.814 85.5958 119.053 88.4745 118.378 91.6842C117.702 94.8938 118.154 98.2382 119.657 101.153C121.16 104.069 123.623 106.377 126.629 107.688C129.635 109 133.002 109.235 136.161 108.353C139.321 107.472 142.079 105.528 143.973 102.85C145.866 100.172 146.778 96.9224 146.555 93.65C146.332 90.3777 144.987 87.2823 142.748 84.8857C141.418 83.4625 139.811 82.3269 138.025 81.5489C136.24 80.7709 134.313 80.367 132.366 80.3621H132.379Z" fill="#34255F"/>
<path d="M112.068 113.557C112.632 114.163 113.003 114.922 113.135 115.739C113.268 116.556 113.155 117.394 112.811 118.147C112.467 118.9 111.908 119.534 111.204 119.969C110.5 120.405 109.683 120.622 108.856 120.593C108.029 120.564 107.229 120.29 106.557 119.807C105.885 119.323 105.372 118.652 105.082 117.876C104.792 117.101 104.738 116.258 104.927 115.452C105.116 114.646 105.54 113.914 106.144 113.349C106.547 112.974 107.019 112.681 107.535 112.488C108.05 112.295 108.599 112.205 109.149 112.224C109.699 112.244 110.24 112.371 110.741 112.6C111.242 112.829 111.693 113.154 112.068 113.557Z" fill="#1E682F"/>
<path d="M158.807 69.9927C159.371 70.5987 159.743 71.3581 159.875 72.1751C160.007 72.9922 159.894 73.83 159.551 74.583C159.207 75.3359 158.648 75.97 157.944 76.4053C157.24 76.8406 156.423 77.0574 155.596 77.0285C154.769 76.9995 153.969 76.726 153.297 76.2426C152.625 75.7592 152.112 75.0875 151.821 74.3123C151.531 73.5372 151.477 72.6935 151.666 71.8878C151.855 71.082 152.279 70.3504 152.884 69.7853C153.699 69.0326 154.779 68.6322 155.888 68.671C156.997 68.7099 158.046 69.1848 158.807 69.9927Z" fill="#1E682F"/>
<path d="M106.715 159.946H106.598C106.126 159.93 105.663 159.821 105.234 159.625C104.804 159.429 104.418 159.151 104.096 158.806L66.4169 118.366C65.7692 117.667 65.4247 116.74 65.4587 115.788C65.4927 114.835 65.9025 113.935 66.5983 113.285L155.852 30.058C156.549 29.4111 157.474 29.0669 158.424 29.1009C159.374 29.135 160.271 29.5444 160.92 30.2394L198.625 70.6797C198.95 71.0222 199.203 71.4257 199.37 71.8667C199.537 72.3077 199.615 72.7775 199.6 73.2489C199.584 73.7203 199.475 74.1839 199.279 74.6128C199.083 75.0418 198.803 75.4275 198.457 75.7477L109.19 158.987C108.519 159.613 107.632 159.956 106.715 159.946V159.946ZM158.224 30.395C157.647 30.3915 157.09 30.6095 156.669 31.0042L67.4279 114.231C66.984 114.649 66.724 115.226 66.7045 115.836C66.6851 116.446 66.9079 117.038 67.3242 117.484L105.043 157.924C105.459 158.365 106.031 158.626 106.637 158.65C107.245 158.662 107.834 158.439 108.283 158.028L197.511 74.8015C197.733 74.5978 197.913 74.352 198.04 74.0784C198.167 73.8047 198.238 73.5086 198.25 73.2072C198.268 72.5979 198.044 72.0061 197.627 71.5611L159.909 31.1079C159.694 30.8779 159.432 30.6957 159.142 30.5729C158.852 30.4501 158.539 30.3895 158.224 30.395V30.395Z" fill="#34255F"/>
<path d="M178.503 49.1873L73.0971 110.658C71.6934 111.477 71.219 113.278 72.0377 114.682L99.9 162.458C100.719 163.862 102.52 164.336 103.924 163.518L209.33 102.047C210.734 101.228 211.208 99.4267 210.389 98.023L182.527 50.2467C181.708 48.8429 179.907 48.3686 178.503 49.1873Z" fill="#4D9C31"/>
<path d="M175.53 55.6928L80.2344 111.267C79.4861 111.704 79.2333 112.664 79.6697 113.412L104.763 156.441C105.2 157.189 106.16 157.442 106.908 157.006L202.204 101.431C202.952 100.995 203.205 100.035 202.768 99.2864L177.674 56.2575C177.238 55.5092 176.278 55.2564 175.53 55.6928Z" fill="#1E682F"/>
<path d="M192.495 92.6625C192.637 92.5718 192.793 92.507 192.935 92.4292L178.872 68.3076L178.444 68.5798C177.479 69.1499 176.41 69.5232 175.299 69.6779C174.189 69.8327 173.059 69.766 171.974 69.4816C170.889 69.1971 169.872 68.7007 168.98 68.0209C168.088 67.3411 167.34 66.4914 166.779 65.5208C166.755 65.479 166.733 65.4357 166.714 65.3912L92.9753 108.424L93.0531 108.54C93.6214 109.506 93.9933 110.575 94.1471 111.685C94.301 112.796 94.2338 113.925 93.9496 115.009C93.6653 116.093 93.1695 117.111 92.4906 118.003C91.8118 118.894 90.9634 119.643 89.9941 120.206L89.5534 120.426L103.617 144.522C103.754 144.424 103.897 144.333 104.045 144.25C105.01 143.678 106.078 143.303 107.189 143.148C108.3 142.992 109.431 143.058 110.516 143.343C111.601 143.627 112.619 144.124 113.511 144.805C114.402 145.486 115.15 146.337 115.71 147.309L189.488 104.276C188.922 103.316 188.551 102.254 188.395 101.151C188.24 100.048 188.304 98.9245 188.583 97.8459C188.863 96.7672 189.352 95.7542 190.023 94.8648C190.694 93.9754 191.534 93.227 192.495 92.6625Z" fill="#88AF34"/>
<path d="M115.671 147.957H115.503C115.34 147.91 115.201 147.804 115.114 147.659C114.064 145.86 112.344 144.55 110.331 144.017C109.335 143.752 108.296 143.687 107.274 143.828C106.253 143.968 105.27 144.31 104.382 144.833L104.109 145.002L103.993 145.093C103.843 145.188 103.661 145.221 103.487 145.183C103.401 145.162 103.319 145.124 103.248 145.07C103.177 145.017 103.117 144.949 103.072 144.872L88.9831 120.725C88.9181 120.558 88.9181 120.373 88.9831 120.206C89.0083 120.123 89.0499 120.046 89.1056 119.979C89.1613 119.912 89.2298 119.857 89.3072 119.817H89.4368C89.5345 119.771 89.6297 119.719 89.7219 119.662C90.6153 119.139 91.3963 118.444 92.0199 117.618C92.6435 116.792 93.0973 115.85 93.3552 114.848C93.613 113.845 93.6699 112.801 93.5223 111.777C93.3748 110.752 93.0259 109.767 92.4957 108.878C92.3923 108.712 92.3552 108.513 92.392 108.32C92.4191 108.142 92.5115 107.981 92.6513 107.867L166.442 64.8083C166.593 64.7283 166.768 64.7053 166.934 64.7434C167.103 64.792 167.247 64.9033 167.336 65.0545V65.1712C168.388 66.9649 170.108 68.2691 172.119 68.7986C174.13 69.3281 176.269 69.0398 178.068 67.9968L178.341 67.8153L178.457 67.7376C178.608 67.6444 178.789 67.6119 178.963 67.6468C179.049 67.6681 179.131 67.7066 179.202 67.76C179.273 67.8135 179.333 67.8808 179.377 67.9579L193.454 92.0795C193.518 92.2419 193.518 92.4226 193.454 92.585C193.431 92.6709 193.39 92.7511 193.334 92.8203C193.279 92.8895 193.209 92.9463 193.13 92.9868H193L192.715 93.1294C190.921 94.1817 189.617 95.9013 189.088 97.9124C188.558 99.9235 188.846 102.062 189.889 103.862C189.974 104.01 189.998 104.185 189.954 104.35C189.91 104.515 189.803 104.656 189.656 104.743L115.879 147.776C115.823 147.85 115.752 147.912 115.671 147.957V147.957ZM108.322 142.435C109.813 142.447 111.28 142.819 112.596 143.521C113.912 144.223 115.038 145.234 115.879 146.466L188.567 104.069C187.56 102.018 187.358 99.6632 188.001 97.4702C188.644 95.2772 190.085 93.4047 192.041 92.2221L178.652 69.2152C176.634 70.343 174.265 70.6678 172.018 70.1247C169.771 69.5816 167.812 68.2107 166.533 66.2859L93.8567 108.67C94.9078 110.728 95.1405 113.107 94.508 115.329C93.8755 117.551 92.4248 119.451 90.4478 120.647L103.837 143.615C105.201 142.842 106.741 142.436 108.309 142.435H108.322Z" fill="#34255F"/>
<path d="M106.118 157.873C105.926 157.873 105.734 157.847 105.548 157.795C104.999 157.636 104.534 157.268 104.252 156.771L79.1064 113.738C78.809 113.231 78.7253 112.627 78.8736 112.058C79.0218 111.489 79.39 111.003 79.897 110.705L175.191 55.1387C175.698 54.8414 176.302 54.7576 176.871 54.9059C177.44 55.0542 177.927 55.4223 178.224 55.9294L203.318 98.962C203.612 99.4716 203.696 100.076 203.551 100.647C203.386 101.197 203.014 101.662 202.514 101.943V101.943L107.233 157.574C106.893 157.768 106.509 157.87 106.118 157.873V157.873ZM176.306 56.1367C176.143 56.1385 175.983 56.1785 175.839 56.2534L80.5581 111.833C80.4467 111.892 80.3488 111.973 80.2706 112.072C80.1924 112.171 80.1357 112.285 80.104 112.407C80.0723 112.529 80.0663 112.656 80.0865 112.78C80.1066 112.905 80.1525 113.023 80.2211 113.129L105.302 156.123C105.428 156.33 105.627 156.482 105.859 156.55C106.097 156.609 106.348 156.572 106.559 156.447L201.866 100.88C202.076 100.752 202.23 100.548 202.294 100.31C202.355 100.078 202.323 99.831 202.203 99.623L177.109 56.5904C177.027 56.4507 176.909 56.3352 176.768 56.2556C176.627 56.1759 176.468 56.1349 176.306 56.1367V56.1367Z" fill="#34255F"/>
<path d="M149.71 118.563C156.41 113.804 157.985 104.515 153.227 97.815C148.468 91.1147 139.179 89.5402 132.479 94.2984C125.779 99.0566 124.204 108.346 128.962 115.046C133.721 121.746 143.01 123.321 149.71 118.563Z" fill="#4D9C31"/>
<path d="M117.11 120.414C117.528 121.131 117.723 121.957 117.672 122.786C117.621 123.615 117.325 124.41 116.821 125.071C116.318 125.732 115.63 126.229 114.845 126.498C114.059 126.768 113.211 126.799 112.408 126.587C111.605 126.375 110.883 125.929 110.333 125.307C109.783 124.684 109.43 123.913 109.319 123.09C109.207 122.266 109.343 121.429 109.707 120.683C110.072 119.936 110.65 119.315 111.368 118.897C111.844 118.618 112.371 118.436 112.917 118.361C113.464 118.286 114.021 118.32 114.554 118.461C115.088 118.602 115.588 118.847 116.027 119.182C116.466 119.517 116.834 119.936 117.11 120.414Z" fill="#1E682F"/>
<path d="M172.313 88.2167C172.733 88.9346 172.93 89.7607 172.879 90.5905C172.829 91.4204 172.533 92.2165 172.03 92.8782C171.526 93.5398 170.838 94.0371 170.051 94.3072C169.265 94.5772 168.416 94.6078 167.613 94.395C166.809 94.1823 166.087 93.7358 165.537 93.1121C164.987 92.4884 164.635 91.7156 164.525 90.8916C164.415 90.0676 164.552 89.2294 164.918 88.4832C165.285 87.7371 165.865 87.1165 166.584 86.7002C167.06 86.4231 167.586 86.2425 168.131 86.1687C168.677 86.095 169.231 86.1295 169.763 86.2704C170.296 86.4112 170.795 86.6556 171.232 86.9896C171.67 87.3236 172.037 87.7406 172.313 88.2167Z" fill="#1E682F"/>
<path d="M102.437 164.613C101.809 164.612 101.192 164.448 100.647 164.137C100.101 163.826 99.6461 163.377 99.3265 162.837L71.4719 115.008C70.9947 114.185 70.8597 113.208 71.096 112.286C71.3568 111.391 71.9567 110.633 72.7681 110.174L178.172 48.6968C178.577 48.4551 179.027 48.2973 179.495 48.2327C179.962 48.1682 180.438 48.1981 180.894 48.3209C181.8 48.5489 182.581 49.1208 183.072 49.9152L210.939 97.6917C211.177 98.0993 211.332 98.5498 211.395 99.0173C211.459 99.4849 211.43 99.9604 211.309 100.417C211.189 100.873 210.98 101.301 210.694 101.676C210.408 102.052 210.051 102.367 209.643 102.604V102.604L104.239 164.081C103.695 164.413 103.074 164.596 102.437 164.613V164.613ZM179.987 49.4874C179.581 49.4862 179.183 49.5936 178.833 49.7985L73.4162 111.224C73.1548 111.375 72.9262 111.576 72.7436 111.816C72.5611 112.057 72.4284 112.331 72.3533 112.623C72.2024 113.211 72.2861 113.834 72.5866 114.36L100.454 162.137C100.762 162.661 101.266 163.041 101.854 163.194C102.442 163.347 103.066 163.261 103.591 162.953L208.995 101.489C209.255 101.338 209.483 101.137 209.666 100.897C209.849 100.657 209.982 100.384 210.059 100.093C210.136 99.8016 210.155 99.4981 210.115 99.1995C210.075 98.9009 209.976 98.6132 209.824 98.3527L181.97 50.5503C181.766 50.205 181.476 49.9184 181.129 49.7185C180.781 49.5186 180.388 49.4122 179.987 49.4097V49.4874Z" fill="#34255F"/>
<path d="M129.282 105.832C129.333 105.802 129.368 105.802 129.386 105.833C129.415 105.858 129.419 105.89 129.4 105.929C129.287 106.257 129.423 106.751 129.807 107.411L130.221 108.124L130.392 108.418C130.422 108.469 130.424 108.509 130.399 108.538C130.368 108.556 130.334 108.555 130.295 108.536C129.957 108.429 129.462 108.565 128.812 108.943L125.283 110.995L126.102 112.403L126.507 113.1L128.612 111.876C129.283 111.486 129.645 111.123 129.699 110.788C129.712 110.739 129.737 110.711 129.774 110.703C129.811 110.696 129.841 110.712 129.865 110.754L130.036 111.048L130.45 111.76L131.269 113.169L131.449 113.478C131.473 113.519 131.473 113.554 131.448 113.583C131.423 113.611 131.386 113.619 131.337 113.606C131.013 113.476 130.516 113.607 129.845 113.997L127.74 115.221L128.154 115.933L128.973 117.341L129.378 118.038C129.762 118.698 130.127 119.066 130.474 119.14C130.517 119.143 130.542 119.163 130.55 119.2C130.562 119.22 130.542 119.246 130.491 119.276L127.782 120.851C127.73 120.881 127.693 120.888 127.671 120.874C127.643 120.849 127.643 120.814 127.672 120.769C127.785 120.441 127.647 119.942 127.257 119.271L126.852 118.574L122.748 111.515C122.364 110.855 122.001 110.493 121.66 110.429C121.607 110.432 121.577 110.415 121.569 110.378C121.561 110.341 121.583 110.308 121.635 110.278L129.282 105.832Z" fill="#34255F"/>
<path d="M143.014 111.829C143.057 111.832 143.082 111.852 143.09 111.889C143.097 111.926 143.081 111.956 143.039 111.98L140.315 113.564C140.273 113.588 140.239 113.588 140.21 113.563C140.182 113.538 140.177 113.506 140.196 113.467C140.32 113.133 140.189 112.636 139.805 111.975L139.391 111.263L139.184 110.907C139.016 110.618 138.801 110.378 138.537 110.186C138.284 109.988 138.005 109.853 137.701 109.781C137.391 109.699 137.077 109.681 136.759 109.728C136.435 109.765 136.129 109.867 135.84 110.035L135.499 110.233L136.111 111.286L136.93 112.694L137.344 113.406C137.728 114.067 138.091 114.429 138.432 114.493C138.475 114.496 138.5 114.516 138.508 114.553C138.526 114.584 138.509 114.614 138.457 114.644L138.163 114.815L137.451 115.229L135.733 116.228C135.691 116.252 135.657 116.252 135.628 116.227C135.6 116.202 135.6 116.167 135.63 116.122C135.737 115.784 135.601 115.289 135.223 114.639L130.714 106.884C130.33 106.223 129.968 105.861 129.627 105.797C129.567 105.79 129.534 105.768 129.526 105.731C129.519 105.694 129.535 105.664 129.577 105.64L131.295 104.641L133.571 103.318C133.983 103.078 134.418 102.935 134.876 102.89C135.337 102.829 135.783 102.86 136.213 102.983C136.648 103.089 137.051 103.283 137.421 103.564C137.797 103.829 138.104 104.168 138.344 104.581C138.602 105.025 138.755 105.502 138.803 106.013C138.852 106.523 138.787 107.017 138.608 107.493C139.232 107.711 139.755 107.993 140.178 108.341C140.605 108.673 140.981 109.117 141.305 109.674L141.512 110.03L141.926 110.742C142.31 111.403 142.673 111.765 143.014 111.829ZM135.848 107.234C136.095 107.09 136.259 106.885 136.338 106.617C136.412 106.34 136.373 106.072 136.223 105.814C136.079 105.567 135.869 105.406 135.591 105.333C135.314 105.259 135.051 105.294 134.804 105.438L133.24 106.347L133.249 106.363L133.312 106.471L134.275 108.128L134.284 108.143L135.848 107.234Z" fill="#34255F"/>
<path d="M150.207 105.928C150.597 106.599 150.963 106.966 151.304 107.03C151.347 107.033 151.372 107.053 151.38 107.089C151.392 107.11 151.372 107.135 151.32 107.165L143.673 111.611C143.622 111.641 143.585 111.649 143.562 111.634C143.544 111.604 143.545 111.569 143.564 111.53C143.677 111.202 143.538 110.703 143.148 110.032L142.743 109.335L138.639 102.276C138.093 101.337 137.588 101.003 137.124 101.273L145.173 96.5926C145.225 96.5626 145.26 96.5631 145.278 96.594C145.306 96.619 145.311 96.6508 145.292 96.6894C145.179 97.0175 145.314 97.5118 145.698 98.1723L146.112 98.8844L146.292 99.194C146.316 99.2352 146.316 99.27 146.291 99.2984C146.266 99.3267 146.231 99.3262 146.186 99.2969C145.858 99.1839 145.364 99.3194 144.704 99.7034L141.174 101.755L141.579 102.452L142.398 103.861L144.519 102.628C145.179 102.244 145.542 101.881 145.606 101.54C145.608 101.497 145.628 101.472 145.665 101.464C145.702 101.456 145.733 101.473 145.757 101.515L145.928 101.809L146.342 102.521L147.161 103.929L147.341 104.239C147.365 104.28 147.364 104.315 147.339 104.343C147.314 104.372 147.282 104.376 147.244 104.357C146.899 104.24 146.402 104.37 145.752 104.748L143.631 105.981L144.036 106.678L144.864 108.102L148.394 106.05C149.044 105.672 149.403 105.304 149.471 104.947C149.474 104.904 149.494 104.879 149.531 104.871C149.568 104.863 149.598 104.88 149.622 104.922L149.802 105.231L150.207 105.928Z" fill="#34255F"/>
<path d="M158.643 101.023C159.033 101.694 159.398 102.062 159.739 102.126C159.782 102.128 159.807 102.148 159.815 102.185C159.827 102.206 159.807 102.231 159.756 102.261L152.109 106.707C152.057 106.737 152.02 106.745 151.998 106.73C151.98 106.699 151.98 106.664 151.999 106.626C152.112 106.298 151.974 105.798 151.584 105.127L151.179 104.431L147.075 97.372C146.529 96.4329 146.024 96.0983 145.559 96.3683L153.609 91.6883C153.66 91.6583 153.695 91.6588 153.713 91.6897C153.741 91.7147 153.746 91.7465 153.727 91.7851C153.614 92.1132 153.75 92.6075 154.134 93.268L154.548 93.9801L154.728 94.2897C154.752 94.3309 154.751 94.3657 154.726 94.3941C154.701 94.4224 154.666 94.4219 154.622 94.3926C154.294 94.2796 153.799 94.4151 153.139 94.7991L149.609 96.8511L150.014 97.5477L150.833 98.9563L152.954 97.7233C153.615 97.3393 153.977 96.9768 154.041 96.6358C154.044 96.5928 154.063 96.5675 154.1 96.5598C154.137 96.5521 154.168 96.5689 154.192 96.6102L154.363 96.9043L154.777 97.6164L155.596 99.0251L155.776 99.3347C155.8 99.376 155.799 99.4108 155.774 99.4391C155.749 99.4674 155.718 99.4721 155.679 99.4531C155.335 99.3358 154.837 99.4661 154.187 99.8441L152.066 101.077L152.471 101.774L153.299 103.198L156.829 101.146C157.479 100.768 157.838 100.4 157.907 100.043C157.909 99.9999 157.929 99.9745 157.966 99.9669C158.003 99.9592 158.034 99.976 158.058 100.017L158.238 100.327L158.643 101.023Z" fill="#34255F"/>
</svg>
