<svg width="202" height="165" viewBox="0 0 202 165" fill="none" xmlns="http://www.w3.org/2000/svg">
<path d="M56.7999 35.6986V33.972C56.7999 32.7442 56.5579 31.5285 56.0877 30.3943C55.6175 29.2602 54.9284 28.2298 54.0597 27.3622C53.191 26.4945 52.1598 25.8066 51.0251 25.3378C49.8903 24.869 48.6743 24.6285 47.4465 24.63H35.1659C33.9381 24.63 32.7224 24.388 31.5882 23.9178C30.454 23.4476 29.4237 22.7584 28.556 21.8897C27.6884 21.0211 27.0005 19.9899 26.5317 18.8551C26.0629 17.7204 25.8224 16.5043 25.8239 15.2766V13.55C25.8239 11.0713 26.8077 8.69391 28.5594 6.94013C30.311 5.18635 32.6872 4.19956 35.1659 4.19653H115.562C118.043 4.19653 120.422 5.18198 122.176 6.93609C123.93 8.6902 124.915 11.0693 124.915 13.55V15.2766C124.915 16.5049 124.673 17.7212 124.203 18.856C123.733 19.9908 123.044 21.0219 122.176 21.8904C121.307 22.759 120.276 23.448 119.141 23.918C118.006 24.3881 116.79 24.63 115.562 24.63H105.968C103.491 24.63 101.115 25.6142 99.3625 27.3662C97.6106 29.1182 96.6263 31.4943 96.6263 33.972V35.6986C96.6248 36.9264 96.8654 38.1424 97.3342 39.2771C97.803 40.4119 98.4909 41.4431 99.3585 42.3118C100.226 43.1805 101.256 43.8696 102.391 44.3398C103.525 44.81 104.741 45.052 105.968 45.052H177.548C180.101 45.0671 182.544 46.0918 184.344 47.9021C186.143 49.7125 187.153 52.1615 187.153 54.7142V55.8005C187.153 58.3661 186.134 60.8266 184.32 62.6407C182.506 64.4549 180.045 65.474 177.48 65.474H119.69C118.462 65.474 117.246 65.7161 116.112 66.1863C114.978 66.6565 113.948 67.3456 113.08 68.2143C112.212 69.083 111.524 70.1142 111.056 71.2489C110.587 72.3837 110.346 73.5997 110.348 74.8275V75.9023C110.346 77.1301 110.587 78.3461 111.056 79.4809C111.524 80.6156 112.212 81.6468 113.08 82.5155C113.948 83.3842 114.978 84.0733 116.112 84.5435C117.246 85.0137 118.462 85.2557 119.69 85.2557H140.844C143.321 85.2557 145.697 86.24 147.449 87.992C149.201 89.7439 150.186 92.1201 150.186 94.5977V97.7422C150.186 100.22 149.201 102.596 147.449 104.348C145.697 106.1 143.321 107.084 140.844 107.084H39.7397C37.262 107.084 34.8858 106.1 33.1339 104.348C31.3819 102.596 30.3977 100.22 30.3977 97.7422V94.5977C30.3977 92.1201 31.3819 89.7439 33.1339 87.992C34.8858 86.24 37.262 85.2557 39.7397 85.2557H66.485C67.7133 85.2557 68.9296 85.0138 70.0644 84.5438C71.1992 84.0737 72.2303 83.3847 73.0988 82.5162C73.9674 81.6476 74.6564 80.6165 75.1264 79.4817C75.5965 78.3469 75.8384 77.1306 75.8384 75.9023V74.8275C75.8384 72.3468 74.853 69.9677 73.0988 68.2136C71.3447 66.4595 68.9657 65.474 66.485 65.474H11.2106C8.7398 65.4589 6.37538 64.4668 4.63362 62.7144C2.89186 60.9619 1.91426 58.5914 1.91431 56.1206V54.394C1.91428 51.9243 2.89224 49.555 4.63432 47.8043C6.37641 46.0537 8.74084 45.0641 11.2106 45.052H47.4808C49.9556 45.043 52.3258 44.0535 54.0725 42.3004C55.8192 40.5472 56.8 38.1733 56.7999 35.6986V35.6986Z" fill="#3D2C62"/>
<path d="M167.063 5.39709C167.063 4.91991 167.252 4.4621 167.588 4.12362C167.924 3.78513 168.381 3.59346 168.858 3.59044H172.288C172.765 3.59044 173.221 3.4013 173.558 3.06463C173.895 2.72796 174.084 2.27134 174.084 1.79522V1.79522C174.084 1.3191 173.895 0.862476 173.558 0.525807C173.221 0.189138 172.765 0 172.288 0L156.395 0C155.918 0 155.462 0.189138 155.125 0.525807C154.788 0.862476 154.599 1.3191 154.599 1.79522V1.79522C154.599 2.27134 154.788 2.72796 155.125 3.06463C155.462 3.4013 155.918 3.59044 156.395 3.59044H159.711C160.19 3.59044 160.649 3.78078 160.988 4.11959C161.327 4.4584 161.517 4.91793 161.517 5.39709V5.39709C161.514 5.87426 161.322 6.33085 160.984 6.6672C160.646 7.00354 160.188 7.19231 159.711 7.1923H152.164C151.688 7.1923 151.231 7.38144 150.894 7.71811C150.558 8.05478 150.369 8.5114 150.369 8.98752V8.98752C150.369 9.46364 150.558 9.92026 150.894 10.2569C151.231 10.5936 151.688 10.7827 152.164 10.7827H176.405C176.881 10.7827 177.338 10.5936 177.674 10.2569C178.011 9.92026 178.2 9.46364 178.2 8.98752V8.98752C178.2 8.5114 178.011 8.05478 177.674 7.71811C177.338 7.38144 176.881 7.1923 176.405 7.1923H168.858C168.383 7.18931 167.928 6.9992 167.592 6.66318C167.256 6.32716 167.066 5.87228 167.063 5.39709V5.39709Z" fill="#3D2C62"/>
<path d="M170.71 87.0394H164.193C159.542 73.234 150.676 61.2362 138.844 52.7372C127.013 44.2382 112.812 39.6665 98.2443 39.6665C83.6765 39.6665 69.476 44.2382 57.6444 52.7372C45.8128 61.2362 36.9467 73.234 32.2958 87.0394H25.7667C23.9471 87.0394 22.202 87.7622 20.9154 89.0488C19.6288 90.3355 18.9059 92.0805 18.9059 93.9001V132.56C18.9059 134.38 19.6288 136.125 20.9154 137.411C22.202 138.698 23.9471 139.421 25.7667 139.421H170.71C172.53 139.421 174.275 138.698 175.562 137.411C176.848 136.125 177.571 134.38 177.571 132.56V93.9115C177.573 93.0096 177.396 92.1162 177.052 91.2825C176.708 90.4488 176.203 89.6912 175.566 89.0529C174.929 88.4146 174.172 87.9082 173.339 87.5627C172.505 87.2172 171.612 87.0394 170.71 87.0394Z" fill="#FFC202"/>
<path d="M171.442 87.0853V125.482C171.442 127.302 170.719 129.047 169.433 130.334C168.146 131.62 166.401 132.343 164.582 132.343H19.6378C19.3862 132.343 19.1461 132.343 18.9059 132.343V132.606C18.9059 134.426 19.6288 136.171 20.9154 137.457C22.202 138.744 23.9471 139.467 25.7667 139.467H170.71C172.53 139.467 174.275 138.744 175.562 137.457C176.848 136.171 177.571 134.426 177.571 132.606V93.9117C177.572 92.218 176.947 90.5837 175.816 89.3235C174.684 88.0632 173.126 87.266 171.442 87.0853V87.0853Z" fill="#F7A12F"/>
<path d="M87.3986 46.9959L98.2385 101.287L109.399 45.3951C107.455 45.235 105.477 45.1321 103.487 45.1321C98.0703 45.1317 92.6717 45.7571 87.3986 46.9959Z" fill="#625BAE"/>
<path d="M110.336 40.7183L113.264 26.0707H83.2136L86.1409 40.7183C90.1352 40.0156 94.1829 39.6598 98.2386 39.6549C102.295 39.6536 106.343 40.0094 110.336 40.7183Z" fill="#625BAE"/>
<path d="M73.643 28.6436L47.6523 43.6685L56.4226 53.6623C63.0217 48.6817 70.4562 44.918 78.3769 42.5479L73.643 28.6436Z" fill="#625BAE"/>
<path d="M61.2937 59.2309L98.2386 101.287L80.538 48.9856C73.6269 51.3733 67.1332 54.8304 61.2937 59.2309V59.2309Z" fill="#625BAE"/>
<path d="M50.1222 59.0136L40.6202 50.6664L25.5952 76.6913L35.143 79.9273C38.7937 72.0861 43.8735 64.9939 50.1222 59.0136V59.0136Z" fill="#625BAE"/>
<path d="M41.6035 82.1112L98.2386 101.287L55.6565 63.9075C50.0086 69.1664 45.2612 75.3159 41.6035 82.1112V82.1112Z" fill="#625BAE"/>
<path d="M117.803 46.6185L99.2906 101.287L139.757 55.2287C132.98 51.1348 125.556 48.2232 117.803 46.6185V46.6185Z" fill="#625BAE"/>
<path d="M149.911 43.6685L123.886 28.6436L119.084 42.8452C126.902 45.3039 134.223 49.1288 140.706 54.1425L149.911 43.6685Z" fill="#625BAE"/>
<path d="M149.923 62.6955C148.779 61.7007 147.636 60.7631 146.492 59.8483L99.2906 101.287L171.945 76.6913L156.92 50.6664L146.858 59.4595C147.91 60.5344 148.939 61.5978 149.923 62.6955Z" fill="#625BAE"/>
<path d="M61.2937 59.2308L56.3997 53.6622C54.2013 55.3179 52.105 57.1049 50.1222 59.0136L55.6565 63.9075C57.4533 62.2521 59.3349 60.6911 61.2937 59.2308V59.2308Z" fill="#FBE948"/>
<path d="M146.469 59.8483L146.858 59.5052C144.916 57.5972 142.862 55.8064 140.706 54.1425L139.757 55.2287C142.081 56.6392 144.322 58.1816 146.469 59.8483V59.8483Z" fill="#FBE948"/>
<path d="M87.3986 46.9959L86.1408 40.7184C83.5125 41.1796 80.9126 41.7904 78.3539 42.5479L80.5379 48.9855C82.7887 48.2036 85.0787 47.5395 87.3986 46.9959V46.9959Z" fill="#FBE948"/>
<path d="M32.2958 87.0394H25.7667C23.9471 87.0394 22.202 87.7622 20.9154 89.0488C19.6288 90.3355 18.9059 92.0805 18.9059 93.9001V132.56C18.9058 133.952 19.3289 135.311 20.1193 136.457C20.9097 137.603 22.0299 138.481 23.3311 138.975V99.9489C23.3311 98.1081 24.0624 96.3427 25.364 95.0411C26.6656 93.7394 28.431 93.0082 30.2718 93.0082H36.8581C38.1285 89.248 39.716 85.6026 41.6034 82.1111L35.1429 79.9271C34.0596 82.2419 33.109 84.6165 32.2958 87.0394V87.0394Z" fill="#FBE948"/>
<path d="M119.084 42.8452C116.217 41.9486 113.295 41.2382 110.336 40.7184L109.399 45.3951C112.222 45.632 115.029 46.0406 117.803 46.6186L119.084 42.8452Z" fill="#FBE948"/>
<path d="M98.2385 39.6549C94.1828 39.6598 90.1352 40.0156 86.1408 40.7183L87.3986 46.9959C92.6717 45.757 98.0703 45.1316 103.487 45.132C105.477 45.132 107.455 45.235 109.399 45.395L110.336 40.7183C106.343 40.0095 102.294 39.6536 98.2385 39.6549V39.6549Z" fill="#45469D"/>
<path d="M80.538 48.9856L78.354 42.548C70.4333 44.9181 62.9988 48.6818 56.3997 53.6623L61.2937 59.2309C67.1332 54.8305 73.6269 51.3733 80.538 48.9856V48.9856Z" fill="#45469D"/>
<path d="M55.6565 63.9075L50.0879 59.0135C43.8514 64.9968 38.7835 72.0889 35.143 79.9273L41.6035 82.1112C45.2612 75.3159 50.0085 69.1664 55.6565 63.9075V63.9075Z" fill="#45469D"/>
<path d="M139.757 55.2289L140.706 54.1426C134.223 49.129 126.902 45.304 119.084 42.8453L117.803 46.6187C125.556 48.2234 132.98 51.135 139.757 55.2289V55.2289Z" fill="#45469D"/>
<path d="M149.923 62.6955C148.939 61.552 147.91 60.5344 146.858 59.5052L146.469 59.8483C147.647 60.763 148.802 61.7464 149.923 62.6955Z" fill="#FBE948"/>
<path d="M170.711 140.015H25.7667C23.7945 140.012 21.904 139.227 20.5105 137.831C19.117 136.435 18.3343 134.544 18.3343 132.572V93.9115C18.3343 91.9392 19.117 90.0476 20.5105 88.6519C21.904 87.2563 23.7945 86.4707 25.7667 86.4676H31.8842C36.631 72.6413 45.578 60.643 57.4752 52.1487C69.3725 43.6543 83.6259 39.0883 98.2443 39.0883C112.863 39.0883 127.116 43.6543 139.013 52.1487C150.911 60.643 159.858 72.6413 164.605 86.4676H170.711C172.684 86.4707 174.575 87.2559 175.971 88.6512C177.366 90.0466 178.151 91.9382 178.154 93.9115V132.572C178.151 134.545 177.366 136.436 175.971 137.832C174.575 139.227 172.684 140.012 170.711 140.015V140.015ZM25.7667 87.6111C24.0977 87.6141 22.4981 88.2792 21.319 89.4605C20.14 90.6417 19.4777 92.2425 19.4777 93.9115V132.572C19.4777 134.241 20.14 135.841 21.319 137.023C22.4981 138.204 24.0977 138.869 25.7667 138.872H170.711C172.382 138.872 173.984 138.208 175.166 137.027C176.347 135.845 177.011 134.243 177.011 132.572V93.9115C177.011 93.0841 176.848 92.2648 176.531 91.5004C176.215 90.736 175.751 90.0415 175.166 89.4564C174.581 88.8714 173.886 88.4073 173.122 88.0907C172.357 87.774 171.538 87.6111 170.711 87.6111H164.193C164.072 87.6126 163.954 87.5758 163.855 87.5059C163.757 87.4361 163.683 87.3368 163.644 87.2223C159.036 73.5258 150.245 61.6213 138.51 53.188C126.776 44.7547 112.689 40.2182 98.2386 40.2182C83.7878 40.2182 69.7017 44.7547 57.9669 53.188C46.2321 61.6213 37.4409 73.5258 32.8332 87.2223C32.7967 87.3359 32.7249 87.4348 32.6282 87.5048C32.5316 87.5747 32.4151 87.6119 32.2958 87.6111H25.7667Z" fill="#34255F"/>
<path d="M52.2262 40.5468L56.9715 46.7557C57.3241 47.212 57.6487 47.6893 57.9434 48.185C58.1953 48.6184 58.3876 49.0838 58.5151 49.5686C58.7452 50.41 58.6848 51.3043 58.3436 52.1071C57.9485 53.0221 57.3122 53.8126 56.5027 54.394C55.8365 54.9429 55.0546 55.3338 54.2158 55.5374C53.4484 55.7032 52.6483 55.6232 51.9289 55.3087C51.4976 55.1177 51.0907 54.8759 50.7168 54.5884C50.3284 54.3066 49.9853 53.9673 49.6991 53.5821C49.5656 53.4419 49.4647 53.274 49.4036 53.0903C49.3424 52.9066 49.3226 52.7116 49.3456 52.5194C49.3685 52.3271 49.4336 52.1423 49.5363 51.9781C49.6389 51.814 49.7765 51.6745 49.9393 51.5696C50.0633 51.4571 50.2105 51.3731 50.3706 51.3237C50.5306 51.2743 50.6996 51.2607 50.8655 51.2838C51.2508 51.3915 51.6041 51.5917 51.8946 51.8669C52.2236 52.1442 52.5671 52.4037 52.9237 52.6445C53.238 52.8539 53.6129 52.9529 53.9896 52.926C54.3663 52.8991 54.7234 52.7478 55.0048 52.4958C56.072 51.6878 56.0072 50.5024 54.8104 48.9397L49.7906 42.3877C49.4652 42.0173 49.2827 41.5429 49.2761 41.0499C49.3028 40.8471 49.3693 40.6515 49.4718 40.4744C49.5742 40.2973 49.7106 40.1422 49.8732 40.0179C50.0357 39.8936 50.2211 39.8026 50.4189 39.7502C50.6166 39.6977 50.8228 39.6847 51.0255 39.7121C51.5172 39.8278 51.9464 40.1262 52.2262 40.5468V40.5468Z" fill="white"/>
<path d="M69.7095 44.0572L68.2345 42.7193L62.8374 45.4751L63.0775 47.499C63.1425 48.0536 63.1425 48.6138 63.0775 49.1684C63.0341 49.345 62.9493 49.5087 62.8299 49.6459C62.7106 49.7831 62.5603 49.8899 62.3914 49.9574C62.2169 50.0496 62.0251 50.1043 61.8282 50.1181C61.6313 50.1319 61.4337 50.1044 61.248 50.0374C61.075 49.9943 60.9132 49.9149 60.7732 49.8045C60.6333 49.6942 60.5184 49.5553 60.4361 49.3971C60.3393 49.2068 60.2736 49.0022 60.2418 48.7911C60.187 48.4731 60.1488 48.1525 60.1274 47.8306L59.1212 37.4709C59.1212 37.1736 59.0526 36.8191 59.0183 36.3961C58.9786 36.0351 58.9786 35.6708 59.0183 35.3098C59.0556 35.0026 59.1654 34.7087 59.3384 34.4522C59.5506 34.1548 59.8335 33.9151 60.1617 33.7547C60.4862 33.584 60.847 33.4938 61.2137 33.4917C61.5223 33.4994 61.8244 33.5818 62.0942 33.7318C62.3657 33.8766 62.619 34.0531 62.8488 34.2578C63.0851 34.4484 63.3939 34.7228 63.775 35.0811L71.6648 41.8732C72.1155 42.21 72.5027 42.6243 72.8083 43.0967C72.8797 43.2608 72.9166 43.4379 72.9166 43.617C72.9166 43.796 72.8797 43.9731 72.8083 44.1372C72.7502 44.322 72.6555 44.4932 72.5297 44.6406C72.404 44.7879 72.2498 44.9084 72.0765 44.9948C71.8891 45.0931 71.6819 45.1478 71.4705 45.1549C71.285 45.158 71.1012 45.1189 70.933 45.0405C70.7024 44.9275 70.4872 44.7853 70.2927 44.6175L69.7095 44.0572ZM62.5172 43.0853L66.485 41.0613L61.6711 36.5904L62.5172 43.0853Z" fill="white"/>
<path d="M85.3862 35.9501C85.486 36.4713 85.486 37.0068 85.3862 37.528C85.1732 38.9719 84.4063 40.2761 83.248 41.1642C82.5185 41.7006 81.6911 42.089 80.8124 42.3076C80.115 42.5029 79.3977 42.618 78.6742 42.6507C78.0415 42.678 77.4086 42.6047 76.7989 42.4334C76.1845 42.2586 75.6045 41.9801 75.0837 41.6101C74.5673 41.256 74.1018 40.8328 73.7002 40.3523C73.2538 39.8601 72.8698 39.3147 72.5567 38.7286C72.2456 38.0988 71.9966 37.4401 71.8135 36.7619C71.5151 35.7069 71.399 34.6086 71.4704 33.5145C71.5504 32.5538 71.8267 31.6198 72.2823 30.7702C72.7339 29.9557 73.349 29.2433 74.089 28.6777C74.8528 28.1078 75.7181 27.6887 76.6388 27.4428C77.7124 27.1285 78.8459 27.0775 79.9434 27.2941C80.877 27.463 81.7558 27.8553 82.5047 28.4376C83.0917 28.8773 83.5273 29.4887 83.7511 30.1871C83.7973 30.3486 83.811 30.5177 83.7914 30.6845C83.7717 30.8513 83.7192 31.0126 83.6368 31.159C83.5655 31.3099 83.462 31.4434 83.3336 31.5501C83.2052 31.6568 83.055 31.734 82.8935 31.7765C82.6001 31.8947 82.2722 31.8947 81.9788 31.7765C81.6524 31.5752 81.3592 31.3244 81.1097 31.0332C80.6273 30.4818 80.0195 30.0544 79.3374 29.7869C78.671 29.5786 77.957 29.5786 77.2906 29.7869C76.7342 29.9175 76.2174 30.18 75.7836 30.5521C75.3498 30.9242 75.0117 31.3951 74.7979 31.9251C74.3291 33.2768 74.3291 34.747 74.7979 36.0987C75.0227 37.0579 75.4346 37.9632 76.0099 38.7629C76.4657 39.3508 77.087 39.7888 77.7937 40.0207C78.5033 40.2266 79.2567 40.2266 79.9663 40.0207C80.7335 39.859 81.4299 39.4588 81.9559 38.8773C82.4456 38.2497 82.7327 37.488 82.7792 36.6933C82.7854 36.3333 82.8551 35.9772 82.985 35.6413C83.0571 35.4836 83.1667 35.346 83.3042 35.2404C83.4418 35.1347 83.603 35.0643 83.774 35.0353C83.938 34.9899 84.1095 34.9776 84.2783 34.9992C84.4472 35.0208 84.61 35.0758 84.7573 35.1611C84.9105 35.2426 85.0454 35.3547 85.1536 35.4904C85.2617 35.6261 85.3409 35.7825 85.3862 35.9501V35.9501Z" fill="white"/>
<path d="M90.829 26.8139L91.1035 32.0166L96.6606 25.4989C96.8662 25.2412 97.0959 25.0038 97.3467 24.79C97.5768 24.6255 97.8528 24.5375 98.1357 24.5384C98.3246 24.5172 98.5157 24.5336 98.6982 24.5866C98.8808 24.6395 99.051 24.7281 99.1991 24.8472C99.3357 24.9586 99.4471 25.0978 99.5259 25.2555C99.6048 25.4132 99.6493 25.5858 99.6565 25.7619C99.6648 26.0161 99.6203 26.2693 99.5258 26.5055C99.4313 26.7416 99.2889 26.9557 99.1076 27.1341L95.6773 30.8731L100.251 36.5904C100.528 36.9211 100.773 37.2771 100.983 37.6538C101.145 37.9289 101.239 38.2385 101.257 38.5571C101.268 38.719 101.243 38.8812 101.186 39.033C101.129 39.1848 101.04 39.3228 100.926 39.4376C100.65 39.7145 100.276 39.8708 99.8852 39.8721C99.5256 39.9077 99.1635 39.8361 98.8446 39.6663C98.5595 39.4901 98.3141 39.2565 98.1243 38.9802L97.5983 38.2027L93.7105 32.9314L91.3322 35.4469L91.5151 38.5228C91.5833 39.0218 91.4608 39.5281 91.1721 39.9407C91.0364 40.0939 90.8713 40.2184 90.6867 40.3068C90.5021 40.3951 90.3017 40.4456 90.0972 40.4553C89.8365 40.4629 89.5778 40.408 89.3426 40.2952C89.1086 40.1746 88.9082 39.9978 88.7594 39.7806C88.6502 39.5783 88.5804 39.3572 88.5536 39.1289C88.5536 38.8773 88.485 38.5114 88.4621 37.9854L87.8103 26.9168C87.7447 26.4284 87.8584 25.9327 88.1305 25.5218C88.2593 25.3625 88.421 25.233 88.6046 25.1422C88.7881 25.0514 88.9892 25.0015 89.1939 24.9958C89.4012 24.9748 89.6107 24.9986 89.808 25.0657C90.0053 25.1328 90.1858 25.2415 90.3374 25.3846C90.684 25.7772 90.8608 26.2912 90.829 26.8139V26.8139Z" fill="white"/>
<path d="M109.845 35.0239L107.112 34.5894L106.46 38.763C106.405 39.2458 106.178 39.6926 105.82 40.0208C105.662 40.151 105.478 40.2451 105.281 40.2964C105.083 40.3478 104.877 40.3552 104.676 40.3181C104.471 40.2937 104.274 40.2248 104.098 40.1162C103.922 40.0076 103.772 39.8618 103.659 39.6892C103.416 39.2628 103.342 38.7608 103.453 38.2827L105.236 26.9283C105.263 26.6724 105.341 26.4247 105.467 26.2004C105.593 25.9762 105.763 25.7802 105.968 25.6247C106.426 25.3767 106.96 25.3075 107.466 25.4303L111.297 26.0249C112.18 26.1364 113.045 26.3632 113.87 26.6996C114.422 26.9444 114.91 27.312 115.299 27.7744C115.681 28.2349 115.947 28.7797 116.076 29.3638C116.204 30.0094 116.204 30.6736 116.076 31.3191C116.017 31.9613 115.814 32.5818 115.481 33.1343C115.149 33.6868 114.695 34.1568 114.155 34.5093C112.822 35.1785 111.298 35.3606 109.845 35.0239ZM110.176 28.1632L108.164 27.8545L107.466 32.3596L109.467 32.6684C110.063 32.7761 110.672 32.7954 111.274 32.7256C111.705 32.6659 112.106 32.4695 112.417 32.1653C112.743 31.8218 112.945 31.3789 112.989 30.9075C113.101 30.3305 112.986 29.7327 112.669 29.238C111.997 28.5859 111.111 28.1999 110.176 28.1518V28.1632Z" fill="white"/>
<path d="M127.797 30.2557C129.12 30.7054 130.303 31.4938 131.227 32.5426C132.035 33.5139 132.518 34.7132 132.611 35.9729C132.704 37.3749 132.473 38.7796 131.936 40.0779C131.558 41.0735 131.025 42.0034 130.358 42.8336C129.739 43.5723 128.972 44.1723 128.106 44.5946C127.263 45.0116 126.336 45.2306 125.396 45.2349C124.329 45.2403 123.272 45.0344 122.285 44.6289C121.281 44.2546 120.357 43.6918 119.564 42.9709C118.876 42.3342 118.337 41.5533 117.986 40.684C117.65 39.7863 117.51 38.8273 117.574 37.8711C117.643 36.8128 117.874 35.7714 118.26 34.7838C118.636 33.7819 119.177 32.8503 119.861 32.028C120.467 31.2902 121.223 30.6899 122.08 30.2671C122.914 29.8642 123.828 29.6532 124.755 29.6497C125.798 29.6604 126.83 29.866 127.797 30.2557ZM129.032 38.9573C129.403 38.0593 129.583 37.0932 129.558 36.1216C129.553 35.2989 129.289 34.4986 128.803 33.8347C128.382 33.2974 127.842 32.8664 127.224 32.5764C126.606 32.2864 125.929 32.1456 125.247 32.1652C124.69 32.188 124.145 32.3407 123.658 32.6112C123.109 32.9264 122.627 33.3459 122.24 33.8461C121.759 34.4512 121.373 35.1259 121.096 35.8472C120.804 36.5785 120.623 37.3493 120.559 38.1341C120.524 38.7749 120.618 39.4162 120.833 40.0208C121.022 40.5567 121.327 41.0446 121.725 41.4501C122.132 41.8515 122.619 42.1631 123.154 42.3648C123.876 42.6609 124.669 42.7353 125.433 42.5785C126.196 42.4216 126.896 42.0407 127.442 41.4844C128.145 40.7642 128.687 39.9028 129.032 38.9573V38.9573Z" fill="white"/>
<path d="M144.846 42.4792L142.067 40.7068L136.258 49.8544C136.01 50.3029 135.601 50.6416 135.115 50.8035C134.921 50.8521 134.72 50.8599 134.523 50.8265C134.326 50.793 134.138 50.719 133.971 50.6091C133.796 50.5052 133.644 50.3646 133.528 50.1969C133.411 50.0291 133.333 49.8382 133.297 49.6372C133.237 49.1409 133.373 48.6409 133.674 48.2422L139.483 39.0946L136.842 37.3337C136.48 37.1357 136.2 36.8155 136.053 36.4303C136.016 36.2651 136.012 36.0942 136.041 35.9275C136.071 35.7607 136.133 35.6015 136.225 35.459C136.316 35.3165 136.435 35.1936 136.574 35.0973C136.713 35.001 136.87 34.9333 137.036 34.8981C137.445 34.8665 137.851 34.9843 138.179 35.2297L146.286 40.3752C146.657 40.5673 146.94 40.895 147.075 41.29C147.116 41.4539 147.122 41.6242 147.095 41.7907C147.067 41.9572 147.006 42.1164 146.915 42.2586C146.824 42.4008 146.706 42.5231 146.566 42.618C146.426 42.7129 146.269 42.7785 146.103 42.8108C145.882 42.8412 145.657 42.8276 145.441 42.7707C145.226 42.7137 145.023 42.6147 144.846 42.4792V42.4792Z" fill="white"/>
<path d="M53.4268 56.1893C52.8334 56.1875 52.2463 56.067 51.7002 55.8348C51.2211 55.6326 50.7712 55.3672 50.3623 55.0459C49.9325 54.7167 49.5481 54.3322 49.2189 53.9024C49.0414 53.7012 48.9082 53.4649 48.8281 53.2088C48.748 52.9528 48.7228 52.6827 48.7541 52.4162C48.7854 52.1497 48.8725 51.8928 49.0097 51.6623C49.1469 51.4317 49.3312 51.2327 49.5505 51.0781C49.741 50.9161 49.9644 50.7975 50.2053 50.7304C50.4461 50.6633 50.6987 50.6492 50.9455 50.6893C51.4314 50.8298 51.8726 51.0937 52.2262 51.4554C52.5335 51.7243 52.8581 51.9726 53.1981 52.1987C53.3974 52.3225 53.6267 52.3897 53.8613 52.3931C54.1438 52.3833 54.4126 52.2692 54.616 52.0729C54.7837 51.9655 54.9204 51.8162 55.0127 51.6397C55.1049 51.4632 55.1495 51.2657 55.142 51.0667C55.041 50.4166 54.7552 49.8093 54.3187 49.3172L49.3104 42.7652C48.8938 42.2913 48.666 41.6809 48.67 41.05C48.6934 40.7655 48.778 40.4894 48.9182 40.2407C49.0583 39.992 49.2506 39.7766 49.4819 39.6093C49.6998 39.4219 49.9558 39.284 50.2322 39.2051C50.5085 39.1261 50.7987 39.108 51.0827 39.1519C51.6983 39.3045 52.2358 39.6792 52.5921 40.2039L57.3374 46.4128C57.7079 46.8822 58.0478 47.3749 58.3551 47.8879C58.6309 48.3689 58.8423 48.884 58.984 49.4201C59.2459 50.3827 59.1774 51.4053 58.7896 52.3244C58.3694 53.342 57.6819 54.227 56.8 54.8858C56.0621 55.4885 55.1986 55.9182 54.2729 56.1436C53.9938 56.1932 53.7097 56.2085 53.4268 56.1893V56.1893ZM50.6711 51.8442C50.5184 51.8531 50.3732 51.9135 50.2594 52.0157C50.1704 52.0871 50.0963 52.1754 50.0413 52.2754C49.9864 52.3755 49.9517 52.4854 49.9393 52.5989C49.9312 52.7191 49.9473 52.8397 49.9866 52.9536C50.0259 53.0675 50.0875 53.1724 50.168 53.2621C50.4353 53.5956 50.7425 53.8951 51.0827 54.154C51.4342 54.4196 51.8185 54.6387 52.2262 54.8057C52.8195 55.0654 53.4791 55.1333 54.1129 55.0001C54.8725 54.814 55.58 54.4582 56.1825 53.9596C56.9149 53.4419 57.4921 52.7343 57.8519 51.9128C58.1472 51.2262 58.1957 50.4586 57.9892 49.7403C57.8837 49.3023 57.7142 48.8823 57.486 48.4939C57.1992 48.0195 56.8862 47.5614 56.5484 47.1217L51.7917 40.9242C51.6075 40.622 51.3185 40.3981 50.9798 40.2953C50.8538 40.2763 50.7251 40.2848 50.6027 40.3204C50.4803 40.3559 50.3671 40.4176 50.2709 40.5012C50.1666 40.5692 50.0794 40.6602 50.016 40.7673C49.9525 40.8743 49.9145 40.9945 49.905 41.1186C49.922 41.4723 50.0638 41.8086 50.3052 42.0677L55.3135 48.6197C55.8995 49.2827 56.2704 50.1081 56.3769 50.9866C56.3947 51.3715 56.3149 51.7547 56.145 52.1005C55.975 52.4463 55.7205 52.7436 55.405 52.9648C54.9865 53.3132 54.4628 53.5106 53.9185 53.5251C53.4811 53.5084 53.0556 53.3783 52.6836 53.1477C52.2809 52.9045 51.8985 52.6292 51.5401 52.3244C51.3204 52.1131 51.054 51.9564 50.7626 51.8671L50.6711 51.8442Z" fill="#34255F"/>
<path d="M61.7969 50.6892C61.5868 50.6885 61.3783 50.6537 61.1794 50.5863C60.9356 50.5182 60.7084 50.4009 60.5118 50.2416C60.3151 50.0823 60.1532 49.8844 60.0359 49.6601C59.9164 49.4139 59.8318 49.1522 59.7844 48.8826C59.7844 48.6539 59.7043 48.3108 59.67 47.8763L58.5266 36.4418C58.4869 36.0388 58.4869 35.6328 58.5266 35.2298C58.5785 34.8213 58.7233 34.4302 58.9497 34.0863C59.2096 33.7077 59.5645 33.404 59.9788 33.2059C60.4107 32.99 60.8918 32.8914 61.3738 32.92C61.7731 32.9366 62.1638 33.042 62.5172 33.2287C62.8214 33.3991 63.1086 33.5982 63.3748 33.8233L64.3124 34.658L72.1451 41.4501C72.6525 41.8262 73.0834 42.2958 73.4143 42.8337C73.5268 43.0613 73.5919 43.3095 73.6057 43.563C73.6195 43.8166 73.5816 44.0703 73.4944 44.3088C73.3201 44.8097 72.954 45.221 72.4767 45.4522C72.2262 45.5847 71.9489 45.6586 71.6657 45.6685C71.3825 45.6784 71.1007 45.624 70.8415 45.5094C70.5697 45.3744 70.3161 45.2053 70.0869 45.0063C69.8239 44.789 69.5952 44.6061 69.4122 44.4345L68.1316 43.4512L63.4434 45.841L63.6607 47.4304C63.7434 48.0412 63.7434 48.6605 63.6607 49.2713C63.6006 49.5269 63.4799 49.7642 63.3087 49.9632C63.1375 50.1622 62.921 50.3171 62.6773 50.4148C62.4105 50.5764 62.1083 50.6706 61.7969 50.6892V50.6892ZM61.2251 34.0634C60.9684 34.0843 60.7186 34.1568 60.4906 34.2766C60.2627 34.3965 60.0614 34.5612 59.8987 34.7609C59.7747 34.9458 59.6963 35.1574 59.67 35.3784C59.6355 35.6976 59.6355 36.0197 59.67 36.3389L60.8135 47.7734C60.8309 48.08 60.8653 48.3854 60.9164 48.6882C60.9344 48.844 60.981 48.9951 61.0536 49.1341C61.1024 49.2251 61.1709 49.304 61.2539 49.3653C61.337 49.4266 61.4326 49.4687 61.5339 49.4886C61.6378 49.5367 61.7509 49.5617 61.8655 49.5617C61.98 49.5617 62.0931 49.5367 62.1971 49.4886C62.4258 49.3742 62.5515 49.2485 62.5744 49.1113C62.6224 48.5964 62.6032 48.0775 62.5172 47.5676L62.2771 45.5323C62.2675 45.4173 62.2916 45.302 62.3465 45.2005C62.4013 45.099 62.4845 45.0156 62.5858 44.9605L67.9829 42.2048C68.0885 42.1542 68.2067 42.1359 68.3226 42.1521C68.4386 42.1684 68.5471 42.2186 68.6347 42.2963L70.1097 43.6341L70.7615 44.1715C70.916 44.3127 71.0891 44.432 71.2761 44.526C71.37 44.5659 71.4713 44.5854 71.5734 44.5832C71.6939 44.5749 71.8111 44.5397 71.9164 44.4803C72.0243 44.4301 72.1201 44.357 72.1971 44.2662C72.2741 44.1754 72.3305 44.069 72.3623 43.9543C72.4049 43.8589 72.4269 43.7557 72.4269 43.6513C72.4269 43.5469 72.4049 43.4436 72.3623 43.3483C72.0864 42.9522 71.7509 42.6011 71.3675 42.3077L63.5235 35.5042L62.5172 34.6923C62.3159 34.513 62.0932 34.3594 61.854 34.235C61.6564 34.1299 61.4374 34.0713 61.2137 34.0634H61.2251ZM62.5172 43.657C62.3772 43.6636 62.2399 43.6163 62.1336 43.5249C62.0272 43.4334 61.96 43.3048 61.9455 43.1653L61.1108 36.6819C61.0957 36.5648 61.1172 36.4458 61.1725 36.3413C61.2278 36.2369 61.3141 36.1522 61.4195 36.0988C61.5234 36.0415 61.6431 36.0195 61.7606 36.036C61.8781 36.0525 61.9871 36.1066 62.0713 36.1903L66.8738 40.6497C66.9518 40.709 67.013 40.7877 67.0511 40.878C67.0892 40.9683 67.103 41.067 67.091 41.1643C67.0797 41.2566 67.0455 41.3447 66.9916 41.4206C66.9377 41.4965 66.8658 41.5577 66.7823 41.5988L62.8145 43.6227C62.7212 43.664 62.6175 43.676 62.5172 43.657V43.657ZM62.4486 38.0998L62.9746 42.2162L65.4902 40.9241L62.4486 38.0998Z" fill="#34255F"/>
<path d="M78.3769 43.2567C77.7741 43.2594 77.1738 43.1786 76.5931 43.0166C75.915 42.8221 75.2736 42.5169 74.695 42.1133C74.1465 41.7256 73.6473 41.2725 73.2085 40.764C72.7593 40.2324 72.3754 39.6489 72.065 39.026C71.7307 38.3615 71.4663 37.664 71.2761 36.9449C70.9539 35.8318 70.8338 34.67 70.9216 33.5145C71.0013 32.476 71.3015 31.4664 71.802 30.553C72.2812 29.6585 72.9482 28.8784 73.7574 28.2661C74.5802 27.6451 75.5162 27.1907 76.5131 26.9282C77.6728 26.5933 78.8955 26.5384 80.0806 26.7682C81.1089 26.9585 82.0748 27.3983 82.8935 28.0488C83.5705 28.5641 84.0733 29.2744 84.3343 30.0842C84.4593 30.5489 84.4021 31.0438 84.1742 31.4677C83.9434 31.8863 83.564 32.2031 83.1109 32.3556C82.6579 32.508 82.1641 32.485 81.7272 32.291C81.3505 32.0528 81.0081 31.7643 80.7095 31.4334C80.2933 30.9486 79.7627 30.5753 79.1659 30.3472C78.612 30.1688 78.016 30.1688 77.4621 30.3472C76.9889 30.4568 76.5493 30.6795 76.1809 30.9961C75.8125 31.3127 75.5263 31.7139 75.3467 32.1652C74.9251 33.3916 74.9251 34.7237 75.3467 35.9501C75.5675 36.8385 75.9556 37.6768 76.4902 38.4199C76.8606 38.9503 77.3887 39.3504 77.9996 39.5634C78.6034 39.7466 79.2481 39.7466 79.8519 39.5634C80.5016 39.4227 81.0853 39.0685 81.5099 38.5571C81.9358 37.9894 82.1682 37.3001 82.1731 36.5904C82.1926 36.1979 82.2776 35.8114 82.4247 35.447C82.5259 35.2102 82.6826 35.0014 82.8817 34.8382C83.0807 34.675 83.3162 34.5622 83.5682 34.5093C84.0452 34.3809 84.5534 34.4424 84.986 34.6808C85.204 34.8017 85.3953 34.9652 85.5485 35.1617C85.7018 35.3581 85.8138 35.5835 85.8779 35.8243V35.8243C86.0222 36.4155 86.0494 37.0293 85.958 37.6309C85.8445 38.3534 85.6045 39.0501 85.249 39.6892C84.8344 40.4434 84.2656 41.1018 83.5796 41.6216C82.7773 42.2313 81.8591 42.671 80.881 42.9137C80.1357 43.1247 79.3681 43.2475 78.5941 43.2796L78.3769 43.2567ZM78.6399 27.763C77.1255 27.7851 75.6553 28.2765 74.432 29.1694C73.7631 29.6853 73.21 30.3359 72.8083 31.079C72.3858 31.8557 72.1325 32.713 72.065 33.5946C71.9917 34.6231 72.1001 35.6566 72.3852 36.6476C72.5589 37.2872 72.7964 37.9078 73.0941 38.5C73.3621 39.0432 73.6921 39.5535 74.0775 40.0208C74.4502 40.4544 74.8767 40.8387 75.3467 41.1642C75.8217 41.494 76.3469 41.745 76.9018 41.9075C77.4563 42.0598 78.031 42.1254 78.6056 42.1018C79.2828 42.0658 79.954 41.9546 80.6066 41.7702C81.4353 41.5687 82.2137 41.199 82.8935 40.684C83.9296 39.887 84.6244 38.7263 84.8374 37.4366C84.9267 36.9912 84.9267 36.5326 84.8374 36.0873V36.0873C84.8171 35.9921 84.7758 35.9026 84.7165 35.8254C84.6571 35.7482 84.5812 35.6853 84.4944 35.6413C84.4109 35.5915 84.3179 35.5596 84.2215 35.5478C84.125 35.536 84.0271 35.5445 83.9341 35.5727C83.591 35.6642 83.5453 35.79 83.5224 35.8357C83.4191 36.1144 83.3612 36.4078 83.3509 36.7047C83.3056 37.6165 82.9779 38.4916 82.4133 39.2089C81.8233 39.9106 81.0203 40.4004 80.1264 40.6039C79.3137 40.8501 78.4463 40.8501 77.6336 40.6039C76.8109 40.3321 76.0921 39.813 75.5754 39.1174C74.9484 38.2575 74.4977 37.2821 74.249 36.2474C73.7314 34.7667 73.7314 33.1542 74.249 31.6736C74.4948 31.0622 74.8838 30.5188 75.3832 30.0891C75.8826 29.6593 76.4779 29.3556 77.1191 29.2037C77.8927 28.9568 78.7239 28.9568 79.4975 29.2037C80.2676 29.4943 80.9547 29.9693 81.4985 30.5873C81.7069 30.8382 81.954 31.0543 82.2303 31.2276C82.39 31.28 82.5623 31.28 82.722 31.2276C82.8067 31.2033 82.8852 31.1611 82.9523 31.1039C83.0194 31.0467 83.0734 30.9758 83.1108 30.896C83.1606 30.8126 83.1925 30.7196 83.2043 30.6231C83.2161 30.5266 83.2076 30.4287 83.1794 30.3357C82.9815 29.7545 82.6104 29.2477 82.116 28.8835C81.4492 28.3567 80.6644 27.9996 79.8291 27.843C79.4364 27.7758 79.038 27.749 78.6399 27.763V27.763Z" fill="#34255F"/>
<path d="M90.0172 41.0498C89.6948 41.0472 89.3775 40.9688 89.091 40.8211C88.7581 40.6619 88.4768 40.4123 88.2791 40.1008C88.1263 39.8333 88.029 39.5377 87.9932 39.2317C87.9364 38.8529 87.902 38.4711 87.8903 38.0883L87.2386 27.0197C87.1598 26.3955 87.3146 25.7643 87.6731 25.2473C87.8559 25.0305 88.0807 24.8529 88.334 24.7252C88.5872 24.5975 88.8637 24.5223 89.1467 24.5041C89.4298 24.486 89.7135 24.5252 89.981 24.6195C90.2485 24.7139 90.4942 24.8613 90.7032 25.0529C91.1476 25.5221 91.3934 26.1448 91.3893 26.791L91.6066 30.5872L96.2604 25.1559C96.4919 24.8779 96.7442 24.618 97.0151 24.3783C97.3463 24.134 97.7469 24.0018 98.1585 24.001C98.6898 23.9493 99.2199 24.1096 99.6336 24.4469C99.821 24.6097 99.9727 24.8096 100.079 25.0339C100.185 25.2583 100.244 25.5023 100.251 25.7504C100.256 26.0822 100.191 26.4112 100.061 26.7164C99.9312 27.0217 99.7388 27.2963 99.4964 27.5228L96.3862 30.8731L100.651 36.2931C100.948 36.6497 101.212 37.0324 101.44 37.4365C101.637 37.7879 101.754 38.1783 101.783 38.58C101.801 38.8216 101.766 39.0643 101.681 39.2912C101.596 39.5182 101.463 39.7241 101.292 39.8949C100.914 40.271 100.406 40.488 99.8737 40.501C99.3965 40.5482 98.9165 40.4442 98.5016 40.2037C98.1465 39.9944 97.8419 39.7094 97.6097 39.3689L97.0722 38.5685L93.6419 33.8804L91.9153 35.6756L92.0868 38.5114C92.169 39.1568 91.9967 39.8088 91.6066 40.3294C91.4233 40.5443 91.1977 40.7191 90.944 40.8431C90.6902 40.967 90.4136 41.0374 90.1315 41.0498H90.0172ZM89.3082 25.6475H89.2282C89.1046 25.6444 88.982 25.6707 88.8707 25.7244C88.7593 25.7781 88.6623 25.8576 88.5878 25.9563C88.4046 26.2577 88.3319 26.6134 88.382 26.9625L89.0338 38.0311C89.0338 38.4885 89.0338 38.8315 89.1253 39.0716C89.1414 39.2242 89.1881 39.372 89.2625 39.5062C89.3411 39.6359 89.4565 39.7394 89.5941 39.8035C89.7382 39.8794 89.9002 39.915 90.0629 39.9064C90.1901 39.9048 90.3155 39.8753 90.4301 39.82C90.5447 39.7647 90.6457 39.6849 90.7261 39.5862C90.921 39.2894 90.9984 38.9307 90.9434 38.58L90.7604 35.5041C90.7569 35.4264 90.7693 35.3488 90.7968 35.276C90.8243 35.2033 90.8664 35.1369 90.9205 35.081L93.2074 32.5768C93.2635 32.5121 93.3343 32.4617 93.4139 32.4299C93.4934 32.3981 93.5795 32.3857 93.6648 32.3939C93.748 32.3974 93.8294 32.4198 93.9027 32.4594C93.976 32.4991 94.0393 32.5549 94.0878 32.6226L97.9641 37.8939L98.5016 38.6943C98.6452 38.8994 98.8278 39.0742 99.039 39.2089C99.2628 39.3169 99.5122 39.3604 99.7594 39.3346C100.004 39.3341 100.239 39.2447 100.423 39.0831C100.54 38.9598 100.606 38.796 100.606 38.6257C100.579 38.3922 100.505 38.1666 100.388 37.9625C100.191 37.6168 99.965 37.288 99.7136 36.9791L95.1398 31.1704C95.0512 31.0668 95.0026 30.9351 95.0026 30.7988C95.0026 30.6625 95.0512 30.5307 95.1398 30.4272L98.5702 26.7338C98.7025 26.6195 98.8103 26.4794 98.887 26.3222C98.9636 26.1649 99.0076 25.9938 99.0161 25.8191C99.0144 25.7217 98.9909 25.626 98.9474 25.539C98.9039 25.4519 98.8414 25.3757 98.7645 25.3159C98.6732 25.2399 98.5672 25.1834 98.4531 25.15C98.339 25.1165 98.2193 25.1069 98.1014 25.1215C97.9364 25.1294 97.7757 25.1765 97.6325 25.2588C97.4113 25.4489 97.2084 25.6595 97.0265 25.8877L91.4693 32.4053C91.3957 32.492 91.2979 32.5548 91.1884 32.5856C91.0788 32.6164 90.9626 32.6139 90.8546 32.5783C90.7465 32.5427 90.6516 32.4756 90.5818 32.3858C90.5121 32.2959 90.4708 32.1872 90.4631 32.0737L90.1544 26.8482C90.1692 26.4941 90.0509 26.1474 89.8228 25.8762C89.6819 25.7443 89.5006 25.6637 89.3082 25.6475V25.6475Z" fill="#34255F"/>
<path d="M104.928 40.9471H104.596C104.309 40.9042 104.034 40.7991 103.791 40.6391C103.548 40.4792 103.343 40.2682 103.19 40.0209C102.869 39.4766 102.767 38.8309 102.904 38.2142L104.676 26.8598C104.705 26.5257 104.802 26.201 104.961 25.906C105.121 25.6109 105.339 25.3518 105.602 25.1446C106.179 24.8078 106.861 24.7016 107.512 24.8473L111.343 25.4533C112.277 25.5713 113.191 25.8096 114.064 26.1622C114.699 26.4605 115.258 26.8983 115.699 27.4429C116.129 27.9747 116.433 28.5959 116.591 29.261C116.73 29.9785 116.73 30.716 116.591 31.4336C116.522 32.1598 116.29 32.861 115.912 33.4847C115.534 34.1085 115.019 34.6386 114.407 35.0354C112.957 35.7738 111.294 35.9802 109.707 35.6186L107.535 35.287L107.02 38.8774C106.958 39.5139 106.655 40.1026 106.174 40.524C105.822 40.8074 105.38 40.9572 104.928 40.9471V40.9471ZM106.86 25.9564C106.644 25.9412 106.428 25.9931 106.243 26.1051C105.98 26.3526 105.824 26.6932 105.808 27.0541L104.036 38.4086C103.951 38.7468 103.992 39.1043 104.15 39.4148C104.22 39.5189 104.311 39.6066 104.417 39.6718C104.524 39.737 104.644 39.7781 104.768 39.7922C104.89 39.8126 105.016 39.8069 105.136 39.7754C105.256 39.7439 105.369 39.6872 105.465 39.6092C105.717 39.3642 105.868 39.0338 105.888 38.683L106.54 34.5094C106.565 34.3606 106.648 34.2274 106.769 34.1378C106.891 34.0482 107.042 34.0093 107.192 34.0292L109.925 34.4523C111.247 34.7665 112.637 34.6129 113.858 34.0178C114.329 33.711 114.723 33.2995 115.008 32.8156C115.294 32.3316 115.464 31.7882 115.505 31.2277C115.62 30.6541 115.62 30.0633 115.505 29.4897C115.39 28.9974 115.167 28.5367 114.853 28.1404C114.517 27.7419 114.095 27.4251 113.618 27.2142C112.84 26.9051 112.025 26.6976 111.194 26.5968L107.363 25.9907L106.86 25.9564ZM110.622 33.3317C110.212 33.3281 109.803 33.2937 109.399 33.2288L107.386 32.9086C107.237 32.8833 107.104 32.8012 107.015 32.6796C106.925 32.5581 106.886 32.4065 106.906 32.2568L107.615 27.7516C107.626 27.6767 107.652 27.6048 107.691 27.54C107.731 27.4752 107.782 27.4189 107.844 27.3743C107.967 27.2888 108.118 27.2521 108.267 27.2714L110.279 27.5916C111.382 27.6367 112.426 28.1033 113.195 28.8951C113.602 29.5113 113.754 30.2616 113.618 30.9876C113.534 31.5856 113.257 32.1398 112.829 32.5656C112.415 32.9573 111.886 33.2058 111.32 33.2745C111.089 33.3103 110.856 33.3294 110.622 33.3317V33.3317ZM108.118 31.8681L109.559 32.0968C110.097 32.1802 110.645 32.1802 111.183 32.0968C111.511 32.0676 111.82 31.9309 112.063 31.708C112.309 31.3997 112.457 31.0253 112.49 30.6324C112.522 30.2394 112.438 29.8457 112.246 29.5011C112.109 29.3067 111.628 28.918 110.085 28.6778L108.644 28.4492L108.118 31.8681Z" fill="#34255F"/>
<path d="M125.304 45.8524C124.198 45.8318 123.104 45.6069 122.079 45.1892C121.008 44.8026 120.022 44.2124 119.175 43.4512C118.394 42.7413 117.788 41.8609 117.403 40.8784C117.043 39.907 116.891 38.8707 116.957 37.8368C117.029 36.719 117.276 35.6193 117.689 34.578C118.089 33.5196 118.66 32.5345 119.381 31.6622C120.037 30.8629 120.856 30.2121 121.782 29.7526C122.696 29.3143 123.696 29.0839 124.709 29.078C125.823 29.0884 126.925 29.3096 127.957 29.7298V29.7298C129.357 30.228 130.602 31.0833 131.57 32.2111C132.441 33.2666 132.968 34.5635 133.079 35.9273C133.174 37.4191 132.928 38.9129 132.359 40.2953C131.965 41.3494 131.406 42.3337 130.701 43.2111C130.05 44.009 129.24 44.6632 128.323 45.1321C127.399 45.5931 126.382 45.8356 125.35 45.841L125.304 45.8524ZM124.812 30.2215C123.969 30.2225 123.136 30.414 122.377 30.7817C121.594 31.1717 120.9 31.7209 120.341 32.394C119.704 33.1721 119.198 34.0488 118.844 34.9896C118.479 35.9226 118.259 36.9059 118.192 37.9054C118.131 38.7783 118.252 39.6543 118.546 40.4782C118.859 41.278 119.347 41.9971 119.976 42.5822C120.714 43.256 121.576 43.7802 122.514 44.1258C123.435 44.4924 124.416 44.6862 125.407 44.6975C126.264 44.6942 127.109 44.4947 127.877 44.1144C128.655 43.7173 129.341 43.1601 129.889 42.4792C130.515 41.6977 131.013 40.8216 131.364 39.8836C131.867 38.6643 132.086 37.3466 132.005 36.0302C131.913 34.8928 131.474 33.8111 130.747 32.9314C129.905 31.9601 128.825 31.2234 127.614 30.7932V30.7932C126.724 30.4293 125.774 30.2354 124.812 30.2215V30.2215ZM124.641 43.2682C124.054 43.2695 123.472 43.1609 122.926 42.9481C122.319 42.7154 121.767 42.3613 121.302 41.9075C120.84 41.4426 120.488 40.8799 120.273 40.2609C120.044 39.5688 119.959 38.8375 120.021 38.1113C120.161 36.4481 120.776 34.8602 121.794 33.5375C122.227 32.9757 122.767 32.5054 123.383 32.1539C123.947 31.8484 124.572 31.6726 125.213 31.6393C125.868 31.6094 126.523 31.7185 127.134 31.9595C127.981 32.2728 128.723 32.8199 129.272 33.5375C129.809 34.2854 130.108 35.1781 130.129 36.0988C130.156 37.149 129.961 38.1931 129.558 39.1632C129.193 40.2103 128.595 41.1606 127.808 41.9418C127.155 42.5983 126.317 43.0409 125.407 43.2111C125.154 43.2516 124.897 43.2707 124.641 43.2682V43.2682ZM125.418 32.7713H125.27C124.801 32.7942 124.344 32.9232 123.932 33.1487C123.446 33.4204 123.021 33.7903 122.686 34.235C122.25 34.7964 121.903 35.4211 121.656 36.0874C121.385 36.7558 121.215 37.4611 121.153 38.1799C121.104 38.7484 121.174 39.3209 121.359 39.8607C121.512 40.3189 121.766 40.737 122.102 41.0842C122.457 41.4271 122.877 41.6953 123.337 41.8732C123.957 42.1286 124.639 42.1921 125.296 42.0555C125.952 41.9189 126.553 41.5886 127.019 41.1071C127.679 40.4359 128.182 39.6278 128.494 38.7402V38.7402C128.838 37.9148 129.005 37.0269 128.986 36.1331C128.975 35.4422 128.751 34.7714 128.346 34.2121C127.931 33.6639 127.367 33.247 126.722 33.0115C126.301 32.8536 125.856 32.7723 125.407 32.7713H125.418Z" fill="#34255F"/>
<path d="M134.84 51.4553C134.435 51.4605 134.037 51.3451 133.697 51.1237C133.455 50.9769 133.247 50.7809 133.085 50.5485C132.924 50.3161 132.813 50.0524 132.759 49.7744C132.683 49.1347 132.85 48.4896 133.228 47.9678L138.728 39.3119L136.441 37.8482C135.956 37.5797 135.589 37.1392 135.412 36.6133C135.345 36.3673 135.329 36.1099 135.367 35.8576C135.405 35.6053 135.495 35.3638 135.632 35.1484C135.769 34.933 135.949 34.7487 136.161 34.6071C136.373 34.4656 136.613 34.3699 136.864 34.3264C137.406 34.2731 137.95 34.415 138.397 34.7266L146.492 39.8836C146.989 40.1495 147.366 40.5954 147.544 41.13C147.607 41.3698 147.618 41.6203 147.577 41.8647C147.535 42.1092 147.442 42.342 147.304 42.5478C147.178 42.7652 147.005 42.9513 146.797 43.0919C146.589 43.2325 146.352 43.3241 146.103 43.3597C145.552 43.4153 145 43.2691 144.548 42.948V42.948L142.261 41.4844L136.841 50.1632C136.527 50.7118 136.016 51.1206 135.412 51.3067C135.23 51.3844 135.037 51.4345 134.84 51.4553ZM137.127 35.447H137.059C136.969 35.4559 136.882 35.488 136.808 35.5401C136.734 35.5922 136.675 35.6625 136.636 35.7443C136.58 35.8143 136.542 35.8963 136.525 35.9837C136.507 36.071 136.509 36.1613 136.533 36.2474C136.646 36.4946 136.839 36.6962 137.082 36.8191L139.86 38.5915C139.987 38.6719 140.078 38.7993 140.112 38.946C140.13 39.0199 140.132 39.0969 140.118 39.1718C140.105 39.2467 140.075 39.3179 140.032 39.3805L134.234 48.5281C134.015 48.8071 133.905 49.1569 133.926 49.5114C133.948 49.6341 133.998 49.7501 134.071 49.851C134.144 49.9519 134.239 50.0352 134.349 50.0946C134.447 50.1681 134.561 50.2186 134.682 50.2424C134.803 50.2661 134.927 50.2625 135.046 50.2318C135.377 50.0972 135.646 49.8446 135.801 49.5229L141.61 40.3753C141.695 40.2473 141.826 40.1572 141.976 40.1237C142.122 40.0988 142.272 40.1272 142.399 40.2038L145.189 41.9761C145.408 42.1771 145.692 42.2945 145.989 42.3077C146.076 42.2924 146.158 42.2577 146.229 42.2062C146.3 42.1547 146.359 42.0878 146.401 42.0104C146.453 41.9366 146.488 41.8522 146.504 41.7633C146.519 41.6744 146.515 41.5831 146.492 41.4959C146.386 41.2417 146.191 41.0346 145.943 40.9127L137.836 35.7672C137.637 35.5989 137.396 35.4881 137.139 35.447H137.127Z" fill="#34255F"/>
<path d="M182.488 158.174H170.002C169.078 158.174 168.193 157.807 167.54 157.154C166.887 156.501 166.52 155.615 166.52 154.692C166.52 153.768 166.887 152.883 167.54 152.23C168.193 151.577 169.078 151.21 170.002 151.21H182.58C183.834 151.207 185.036 150.707 185.924 149.82C186.811 148.933 187.31 147.731 187.313 146.476V75.9709C187.313 75.046 187.681 74.1589 188.335 73.5049C188.989 72.8508 189.876 72.4834 190.801 72.4834C191.726 72.4834 192.613 72.8508 193.267 73.5049C193.921 74.1589 194.288 75.046 194.288 75.9709V146.476C194.286 148.02 193.977 149.548 193.382 150.973C192.787 152.397 191.916 153.69 190.819 154.777C189.723 155.864 188.422 156.724 186.993 157.307C185.563 157.89 184.032 158.184 182.488 158.174V158.174Z" fill="#625BAE"/>
<path d="M182.488 158.745H170.002C169.451 158.775 168.9 158.691 168.383 158.501C167.866 158.31 167.393 158.016 166.993 157.637C166.593 157.258 166.275 156.801 166.057 156.295C165.839 155.788 165.727 155.243 165.727 154.692C165.727 154.141 165.839 153.595 166.057 153.089C166.275 152.582 166.593 152.126 166.993 151.746C167.393 151.367 167.866 151.073 168.383 150.883C168.9 150.692 169.451 150.609 170.002 150.638H182.579C183.682 150.635 184.739 150.196 185.519 149.416C186.299 148.636 186.739 147.579 186.742 146.476V75.9709C186.742 74.8943 187.169 73.8618 187.931 73.1005C188.692 72.3393 189.724 71.9116 190.801 71.9116C191.877 71.9116 192.91 72.3393 193.671 73.1005C194.432 73.8618 194.86 74.8943 194.86 75.9709V146.476C194.857 148.095 194.534 149.698 193.91 151.192C193.286 152.685 192.373 154.041 191.224 155.181C190.074 156.322 188.71 157.223 187.211 157.835C185.712 158.446 184.107 158.756 182.488 158.745V158.745ZM169.91 151.782C169.513 151.757 169.114 151.813 168.739 151.948C168.365 152.083 168.022 152.294 167.731 152.566C167.441 152.839 167.21 153.168 167.052 153.534C166.893 153.899 166.812 154.293 166.812 154.692C166.812 155.09 166.893 155.484 167.052 155.85C167.21 156.215 167.441 156.544 167.731 156.817C168.022 157.09 168.365 157.3 168.739 157.435C169.114 157.57 169.513 157.627 169.91 157.602H182.488C185.44 157.602 188.271 156.43 190.359 154.344C192.447 152.258 193.622 149.428 193.625 146.476V75.9709C193.625 75.1976 193.318 74.4559 192.771 73.9091C192.224 73.3623 191.483 73.0551 190.709 73.0551C189.936 73.0551 189.194 73.3623 188.648 73.9091C188.101 74.4559 187.794 75.1976 187.794 75.9709V146.476C187.794 147.883 187.235 149.233 186.24 150.228C185.245 151.223 183.895 151.782 182.488 151.782H169.91Z" fill="#34255F"/>
<path d="M190.938 90.4241C196.331 90.4241 200.703 86.0521 200.703 80.659C200.703 75.2659 196.331 70.8939 190.938 70.8939C185.545 70.8939 181.173 75.2659 181.173 80.659C181.173 86.0521 185.545 90.4241 190.938 90.4241Z" fill="#E43632"/>
<path d="M196.427 72.5747C197.696 74.456 198.272 76.7204 198.055 78.9796C197.837 81.2388 196.841 83.352 195.236 84.9569C193.631 86.5618 191.518 87.5583 189.259 87.7755C187 87.9927 184.735 87.4171 182.854 86.1475C183.664 87.332 184.725 88.3234 185.962 89.0512C187.199 89.779 188.581 90.2253 190.01 90.3582C191.438 90.4912 192.879 90.3076 194.229 89.8205C195.579 89.3335 196.805 88.5549 197.819 87.5401C198.834 86.5254 199.613 85.2995 200.1 83.9497C200.587 82.5998 200.77 81.1592 200.637 79.7304C200.505 78.3015 200.058 76.9195 199.33 75.6827C198.603 74.4459 197.611 73.3848 196.427 72.5747V72.5747Z" fill="#AF131B"/>
<path d="M190.938 90.9957C188.903 90.9957 186.913 90.3921 185.221 89.2613C183.528 88.1305 182.209 86.5233 181.43 84.6429C180.652 82.7624 180.448 80.6932 180.845 78.697C181.242 76.7007 182.222 74.867 183.661 73.4278C185.101 71.9885 186.934 71.0084 188.93 70.6113C190.927 70.2142 192.996 70.418 194.876 71.1969C196.757 71.9758 198.364 73.2949 199.495 74.9872C200.626 76.6796 201.229 78.6693 201.229 80.7046C201.229 82.0561 200.963 83.3943 200.446 84.6429C199.929 85.8914 199.171 87.0259 198.215 87.9815C197.259 88.9371 196.125 89.6952 194.876 90.2123C193.628 90.7295 192.29 90.9957 190.938 90.9957ZM190.938 71.4656C189.129 71.4656 187.36 72.0021 185.856 73.0072C184.352 74.0124 183.179 75.441 182.487 77.1125C181.795 78.784 181.613 80.6233 181.966 82.3978C182.319 84.1722 183.191 85.8022 184.47 87.0815C185.749 88.3608 187.379 89.232 189.154 89.585C190.928 89.938 192.767 89.7568 194.439 89.0644C196.11 88.3721 197.539 87.1996 198.544 85.6953C199.549 84.191 200.086 82.4224 200.086 80.6132C200.086 78.1871 199.122 75.8603 197.407 74.1448C195.691 72.4293 193.364 71.4656 190.938 71.4656Z" fill="#34255F"/>
<path d="M183.792 78.2234C183.72 78.2341 183.646 78.2341 183.574 78.2234C183.434 78.1629 183.324 78.0501 183.266 77.909C183.208 77.768 183.208 77.6099 183.266 77.4687C183.955 75.8567 185.103 74.4827 186.567 73.5172C188.03 72.5516 189.745 72.0371 191.498 72.0374C191.65 72.0374 191.795 72.0976 191.903 72.2048C192.01 72.312 192.07 72.4574 192.07 72.6091C192.07 72.7607 192.01 72.9061 191.903 73.0134C191.795 73.1206 191.65 73.1808 191.498 73.1808C189.97 73.1779 188.475 73.6239 187.199 74.4635C185.922 75.3031 184.92 76.4992 184.318 77.9033C184.27 78.0012 184.195 78.0835 184.101 78.1402C184.008 78.1969 183.901 78.2258 183.792 78.2234Z" fill="white"/>
<path d="M183.117 81.5281C182.966 81.5252 182.823 81.464 182.716 81.3574C182.609 81.2508 182.548 81.1071 182.545 80.9564C182.543 80.4776 182.581 79.9994 182.66 79.5271C182.685 79.3789 182.767 79.2467 182.889 79.159C183.011 79.0713 183.163 79.0351 183.311 79.0582C183.46 79.0836 183.593 79.1656 183.683 79.2872C183.773 79.4088 183.812 79.5603 183.792 79.71C183.734 80.1228 183.711 80.5397 183.723 80.9564C183.723 81.0344 183.707 81.1117 183.676 81.1834C183.646 81.2551 183.6 81.3197 183.544 81.3733C183.487 81.4268 183.42 81.4682 183.346 81.4948C183.273 81.5215 183.195 81.5328 183.117 81.5281Z" fill="white"/>
<path d="M73.8488 92.814H42.4954C41.466 92.814 40.6315 93.6484 40.6315 94.6778V143.24C40.6315 144.269 41.466 145.104 42.4954 145.104H73.8488C74.8781 145.104 75.7126 144.269 75.7126 143.24V94.6778C75.7126 93.6484 74.8781 92.814 73.8488 92.814Z" fill="white"/>
<path d="M73.8488 92.814H73.5858V140.484C73.5843 140.734 73.5333 140.981 73.4357 141.211C73.3381 141.441 73.1958 141.649 73.0171 141.823C72.8384 141.998 72.6268 142.135 72.3947 142.227C72.1626 142.319 71.9145 142.364 71.6648 142.36H40.6316V143.229C40.6301 143.474 40.6772 143.718 40.7701 143.945C40.8631 144.173 41.0002 144.38 41.1734 144.554C41.3466 144.728 41.5526 144.867 41.7795 144.961C42.0064 145.055 42.2497 145.104 42.4954 145.104H73.8488C74.0945 145.104 74.3378 145.055 74.5647 144.961C74.7916 144.867 74.9976 144.728 75.1708 144.554C75.344 144.38 75.4811 144.173 75.5741 143.945C75.667 143.718 75.7141 143.474 75.7126 143.229V94.6892C75.7141 94.4435 75.667 94.1999 75.5741 93.9725C75.4811 93.745 75.344 93.5382 75.1708 93.3639C74.9976 93.1896 74.7916 93.0513 74.5647 92.9569C74.3378 92.8626 74.0945 92.814 73.8488 92.814V92.814Z" fill="#D9F4FF"/>
<path d="M73.8488 145.676H42.4954C41.8484 145.673 41.2289 145.414 40.7725 144.955C40.316 144.496 40.0598 143.876 40.0598 143.229V94.6893C40.0598 94.0423 40.316 93.4216 40.7725 92.963C41.2289 92.5045 41.8484 92.2453 42.4954 92.2423H73.8488C74.4888 92.2543 75.0983 92.5178 75.5455 92.9757C75.9927 93.4336 76.2417 94.0492 76.2386 94.6893V143.229C76.2417 143.869 75.9927 144.484 75.5455 144.942C75.0983 145.4 74.4888 145.664 73.8488 145.676ZM42.4954 93.3858C42.1516 93.3888 41.823 93.5274 41.581 93.7716C41.339 94.0157 41.2033 94.3455 41.2033 94.6893V143.229C41.2033 143.573 41.339 143.902 41.581 144.146C41.823 144.391 42.1516 144.529 42.4954 144.532H73.8488C74.1855 144.52 74.5042 144.377 74.737 144.134C74.9698 143.89 75.0983 143.566 75.0951 143.229V94.6893C75.0967 94.5187 75.0643 94.3494 75.0001 94.1913C74.9358 94.0332 74.8409 93.8894 74.7208 93.7682C74.6006 93.647 74.4577 93.5509 74.3002 93.4852C74.1426 93.4196 73.9737 93.3858 73.803 93.3858H42.4954Z" fill="#34255F"/>
<path d="M51.4944 136.574C51.3024 136.575 51.1124 136.535 50.9369 136.458C50.7613 136.38 50.6041 136.267 50.4756 136.124C50.3471 135.982 50.2502 135.814 50.1912 135.631C50.1323 135.448 50.1127 135.255 50.1336 135.064C50.4437 132.165 51.0412 129.304 51.9174 126.523C52.7685 123.798 53.8511 121.151 55.1534 118.61C56.1858 116.598 57.399 114.685 58.7781 112.893C59.144 112.413 59.4871 111.978 59.8187 111.578C59.9985 111.377 60.1153 111.128 60.1545 110.861C60.1936 110.595 60.1533 110.322 60.0387 110.078C59.924 109.835 59.7401 109.63 59.5098 109.49C59.2796 109.35 59.0131 109.281 58.7438 109.291H52.8665C52.6149 109.291 52.4548 109.371 52.3977 109.508C52.3405 109.645 52.3062 109.817 52.2605 110L51.643 113.316C51.5928 113.618 51.4429 113.895 51.217 114.103C50.9911 114.31 50.7023 114.435 50.3966 114.459L45.8228 114.814C45.6342 114.828 45.4446 114.803 45.2661 114.741C45.0875 114.678 44.9239 114.579 44.7853 114.45C44.6468 114.321 44.5364 114.165 44.4611 113.992C44.3858 113.818 44.3473 113.631 44.3478 113.442V102.716C44.3478 102.352 44.4923 102.003 44.7497 101.746C45.007 101.489 45.356 101.344 45.7199 101.344H70.6014C70.7826 101.343 70.9622 101.377 71.13 101.445C71.2978 101.513 71.4504 101.614 71.5791 101.742C71.7077 101.869 71.8098 102.021 71.8795 102.188C71.9491 102.356 71.985 102.535 71.985 102.716V107.896C71.9858 108.235 71.8593 108.561 71.6305 108.811C70.1146 110.508 68.7379 112.324 67.5141 114.242C66.1732 116.389 65.0252 118.65 64.0837 121C63.1116 123.435 62.3466 125.948 61.7968 128.512C61.3141 130.734 61.0044 132.989 60.8706 135.259C60.856 135.611 60.7065 135.944 60.4532 136.188C60.1999 136.433 59.8622 136.571 59.5099 136.574H51.4944Z" fill="#E43632"/>
<path d="M51.643 113.316L52.2262 110C52.2262 109.817 52.3176 109.657 52.3634 109.508C52.4091 109.36 52.5806 109.291 52.8322 109.291H58.3322C58.3232 108.936 58.1759 108.599 57.9217 108.351C57.6675 108.103 57.3265 107.964 56.9715 107.965H51.0827C50.8312 107.965 50.6711 108.033 50.6139 108.182C50.5567 108.331 50.5224 108.491 50.4767 108.674L49.9393 111.99C49.8891 112.292 49.7391 112.569 49.5132 112.776C49.2873 112.983 48.9985 113.109 48.6929 113.133L44.405 113.465C44.4076 113.652 44.4485 113.837 44.5251 114.007C44.6018 114.178 44.7127 114.332 44.8509 114.458C44.989 114.584 45.1516 114.681 45.3286 114.742C45.5056 114.804 45.6933 114.828 45.88 114.814L50.4538 114.459C50.7492 114.424 51.025 114.293 51.2395 114.086C51.454 113.88 51.5956 113.61 51.643 113.316V113.316Z" fill="#AF131B"/>
<path d="M70.6014 101.344H70.2355V106.57C70.238 106.905 70.111 107.229 69.881 107.473C66.6674 111.075 64.0955 115.202 62.2771 119.674C61.3049 122.109 60.5399 124.622 59.9902 127.186C59.5066 129.407 59.1969 131.663 59.064 133.932C59.0493 134.284 58.8998 134.617 58.6465 134.862C58.3932 135.107 58.0555 135.245 57.7033 135.247H50.1336C50.1426 135.602 50.2899 135.94 50.5441 136.187C50.7983 136.435 51.1393 136.574 51.4943 136.574H59.3956C59.7478 136.571 60.0855 136.433 60.3388 136.188C60.5921 135.944 60.7416 135.611 60.7563 135.259C60.89 132.989 61.1997 130.734 61.6825 128.512C62.2322 125.948 62.9972 123.435 63.9694 121C64.9108 118.65 66.0588 116.389 67.3997 114.242C68.671 112.318 70.0975 110.502 71.6648 108.811C71.8935 108.561 72.0201 108.235 72.0193 107.896V102.716C72.0194 102.532 71.9824 102.35 71.9106 102.18C71.8388 102.011 71.7336 101.857 71.6013 101.729C71.469 101.601 71.3123 101.501 71.1405 101.435C70.9687 101.369 70.7854 101.338 70.6014 101.344V101.344Z" fill="#AF131B"/>
<path d="M59.3956 137.146H51.4944C51.2201 137.145 50.9491 137.086 50.699 136.974C50.4488 136.862 50.225 136.698 50.0422 136.494C49.8616 136.292 49.7255 136.054 49.6428 135.796C49.56 135.538 49.5325 135.265 49.5619 134.996C49.8852 132.063 50.4902 129.168 51.3686 126.351C52.2307 123.594 53.3286 120.916 54.6503 118.347C55.6962 116.29 56.9246 114.331 58.3208 112.493C58.6867 112.013 59.0411 111.578 59.3727 111.178C59.4673 111.06 59.5261 110.918 59.5424 110.768C59.5586 110.618 59.5315 110.467 59.4642 110.332C59.4018 110.194 59.3004 110.077 59.1724 109.995C59.0444 109.914 58.8954 109.872 58.7439 109.874H52.8894L52.8208 110.126L52.2262 113.43C52.147 113.85 51.9316 114.233 51.6132 114.518C51.2949 114.803 50.8914 114.976 50.4653 115.008L45.8915 115.351C45.624 115.376 45.3544 115.344 45.1003 115.257C44.8461 115.171 44.6131 115.031 44.4164 114.848C44.2222 114.664 44.0673 114.443 43.9611 114.197C43.855 113.951 43.7998 113.687 43.799 113.419V102.716C43.799 102.201 44.0037 101.706 44.3683 101.342C44.7328 100.977 45.2273 100.772 45.7428 100.772H70.6014C71.118 100.772 71.6137 100.977 71.98 101.341C72.3464 101.705 72.5537 102.2 72.5567 102.716V107.896C72.5546 108.374 72.3754 108.835 72.0536 109.188C68.8828 112.732 66.3489 116.798 64.564 121.206C63.5918 123.61 62.8267 126.093 62.2771 128.627C61.7926 130.817 61.4866 133.042 61.3624 135.282C61.3416 135.787 61.1245 136.265 60.7572 136.613C60.39 136.961 59.9015 137.152 59.3956 137.146V137.146ZM52.8665 108.719H58.7439C59.109 108.724 59.4654 108.831 59.7724 109.029C60.0794 109.227 60.3245 109.507 60.4796 109.837C60.6348 110.168 60.6937 110.535 60.6496 110.898C60.6055 111.26 60.4602 111.603 60.2303 111.887L59.2241 113.202C57.8692 114.999 56.6753 116.912 55.6565 118.919C54.3706 121.435 53.2995 124.055 52.4549 126.752C51.5971 129.493 51.0074 132.312 50.694 135.167C50.681 135.277 50.6917 135.387 50.7252 135.492C50.7588 135.596 50.8144 135.692 50.8883 135.773C50.9652 135.858 51.0586 135.926 51.1628 135.974C51.2671 136.021 51.3799 136.046 51.4944 136.048H59.3956C59.602 136.045 59.7993 135.963 59.9463 135.818C60.0934 135.673 60.1787 135.477 60.1846 135.27C60.3142 132.962 60.6316 130.667 61.1337 128.41C61.7044 125.812 62.4962 123.268 63.5006 120.806C64.4675 118.416 65.6501 116.12 67.0339 113.945C68.2693 111.991 69.6653 110.144 71.2075 108.422C71.3359 108.277 71.4088 108.09 71.4133 107.896V102.716C71.4133 102.61 71.3922 102.505 71.3513 102.407C71.3103 102.309 71.2504 102.221 71.1748 102.146C71.0993 102.072 71.0097 102.013 70.9113 101.974C70.8128 101.934 70.7075 101.914 70.6014 101.916H45.7428C45.5305 101.916 45.3269 102 45.1768 102.15C45.0267 102.3 44.9424 102.504 44.9424 102.716V113.419C44.9416 113.528 44.9636 113.637 45.0069 113.737C45.0502 113.837 45.1139 113.928 45.194 114.002C45.2748 114.078 45.3703 114.136 45.4745 114.173C45.5787 114.211 45.6895 114.226 45.8 114.219L50.3738 113.865C50.5483 113.847 50.7122 113.773 50.8403 113.653C50.9684 113.533 51.0535 113.375 51.0827 113.202L51.7002 109.886C51.7422 109.683 51.7995 109.485 51.8717 109.291C51.9539 109.102 52.0951 108.943 52.2744 108.84C52.4536 108.737 52.6613 108.695 52.8665 108.719V108.719Z" fill="#34255F"/>
<path d="M53.9414 128.798H53.7584C53.6837 128.778 53.6141 128.742 53.5537 128.693C53.4933 128.645 53.4434 128.584 53.407 128.516C53.3707 128.447 53.3486 128.372 53.3422 128.295C53.3357 128.218 53.3451 128.14 53.3696 128.067C53.564 127.461 53.7698 126.923 53.9757 126.283C54 126.213 54.038 126.148 54.0876 126.093C54.1371 126.037 54.1971 125.993 54.2641 125.961C54.3311 125.929 54.4038 125.91 54.478 125.907C54.5521 125.903 54.6263 125.914 54.696 125.94C54.8379 125.989 54.9547 126.092 55.021 126.227C55.0873 126.362 55.0979 126.518 55.0505 126.66C54.8447 127.232 54.6503 127.804 54.4559 128.421C54.4187 128.529 54.3495 128.623 54.2576 128.69C54.1657 128.758 54.0553 128.795 53.9414 128.798V128.798ZM55.485 124.522C55.4135 124.538 55.3393 124.538 55.2678 124.522C55.1287 124.464 55.0183 124.353 54.9605 124.214C54.9026 124.075 54.9021 123.918 54.959 123.779C55.4965 122.475 56.1025 121.229 56.6742 120.085C57.7174 118.026 58.946 116.067 60.3447 114.231C60.3885 114.166 60.4451 114.111 60.5109 114.069C60.5767 114.027 60.6505 113.999 60.7275 113.987C60.8046 113.975 60.8834 113.978 60.959 113.998C61.0346 114.017 61.1055 114.051 61.1673 114.099C61.2291 114.147 61.2804 114.207 61.3182 114.275C61.356 114.343 61.3794 114.419 61.3869 114.496C61.3945 114.574 61.3861 114.652 61.3622 114.727C61.3383 114.801 61.2994 114.87 61.248 114.928C59.8931 116.726 58.6993 118.639 57.6804 120.646C57.0672 121.814 56.5138 123.012 56.0224 124.236C55.9679 124.329 55.8888 124.404 55.794 124.455C55.6992 124.505 55.5922 124.528 55.485 124.522V124.522ZM46.3374 108.514C46.1858 108.514 46.0404 108.453 45.9331 108.346C45.8259 108.239 45.7657 108.093 45.7657 107.942V104.397C45.7657 104.246 45.8259 104.1 45.9331 103.993C46.0404 103.886 46.1858 103.825 46.3374 103.825C46.489 103.825 46.6345 103.886 46.7417 103.993C46.8489 104.1 46.9091 104.246 46.9091 104.397V107.942C46.9157 108.088 46.866 108.231 46.7703 108.342C46.6746 108.452 46.5401 108.522 46.3946 108.536L46.3374 108.514Z" fill="white"/>
<path d="M153.982 92.814H122.628C121.599 92.814 120.765 93.6484 120.765 94.6778V143.24C120.765 144.269 121.599 145.104 122.628 145.104H153.982C155.011 145.104 155.846 144.269 155.846 143.24V94.6778C155.846 93.6484 155.011 92.814 153.982 92.814Z" fill="white"/>
<path d="M153.993 92.814H153.719V140.484C153.719 140.98 153.523 141.455 153.174 141.806C152.824 142.158 152.35 142.357 151.855 142.36H120.765V143.229C120.763 143.474 120.81 143.718 120.903 143.945C120.996 144.173 121.133 144.38 121.306 144.554C121.48 144.728 121.686 144.867 121.912 144.961C122.139 145.055 122.383 145.104 122.628 145.104H153.993C154.239 145.104 154.482 145.055 154.709 144.961C154.936 144.867 155.142 144.728 155.315 144.554C155.488 144.38 155.625 144.173 155.718 143.945C155.811 143.718 155.859 143.474 155.857 143.229V94.6892C155.859 94.4435 155.811 94.1999 155.718 93.9725C155.625 93.745 155.488 93.5382 155.315 93.3639C155.142 93.1896 154.936 93.0513 154.709 92.9569C154.482 92.8626 154.239 92.814 153.993 92.814Z" fill="#D9F4FF"/>
<path d="M153.993 145.676H122.628C121.981 145.673 121.362 145.414 120.906 144.955C120.449 144.496 120.193 143.876 120.193 143.229V94.6893C120.193 94.0423 120.449 93.4216 120.906 92.963C121.362 92.5045 121.981 92.2453 122.628 92.2423H153.993C154.64 92.2453 155.26 92.5045 155.716 92.963C156.173 93.4216 156.429 94.0423 156.429 94.6893V143.229C156.429 143.876 156.173 144.496 155.716 144.955C155.26 145.414 154.64 145.673 153.993 145.676ZM122.628 93.3858C122.285 93.3888 121.956 93.5274 121.714 93.7716C121.472 94.0157 121.336 94.3455 121.336 94.6893V143.229C121.336 143.573 121.472 143.902 121.714 144.146C121.956 144.391 122.285 144.529 122.628 144.532H153.993C154.337 144.529 154.666 144.391 154.908 144.146C155.15 143.902 155.285 143.573 155.285 143.229V94.6893C155.285 94.3455 155.15 94.0157 154.908 93.7716C154.666 93.5274 154.337 93.3888 153.993 93.3858H122.628Z" fill="#34255F"/>
<path d="M131.627 136.574C131.435 136.577 131.244 136.539 131.068 136.462C130.891 136.385 130.733 136.271 130.604 136.128C130.475 135.985 130.379 135.816 130.32 135.633C130.262 135.449 130.244 135.256 130.267 135.064C130.579 132.166 131.172 129.306 132.039 126.523C132.894 123.797 133.98 121.15 135.286 118.61C136.315 116.599 137.525 114.685 138.9 112.893C139.266 112.413 139.62 111.978 139.94 111.578C140.12 111.377 140.237 111.128 140.276 110.861C140.315 110.595 140.275 110.322 140.16 110.078C140.046 109.835 139.862 109.63 139.631 109.49C139.401 109.35 139.135 109.281 138.865 109.291H132.999C132.736 109.291 132.588 109.371 132.531 109.508C132.47 109.668 132.424 109.832 132.393 110L131.776 113.316C131.726 113.618 131.576 113.895 131.35 114.103C131.124 114.31 130.835 114.435 130.53 114.459L125.956 114.814C125.767 114.828 125.578 114.803 125.399 114.741C125.221 114.678 125.057 114.579 124.918 114.45C124.78 114.321 124.669 114.165 124.594 113.992C124.519 113.818 124.48 113.631 124.481 113.442V102.716C124.479 102.536 124.514 102.356 124.582 102.189C124.651 102.022 124.752 101.87 124.879 101.743C125.007 101.615 125.159 101.514 125.326 101.445C125.493 101.377 125.672 101.343 125.853 101.344H150.712C150.892 101.343 151.071 101.377 151.238 101.445C151.406 101.514 151.557 101.615 151.685 101.743C151.813 101.87 151.914 102.022 151.982 102.189C152.051 102.356 152.085 102.536 152.084 102.716V107.896C152.083 108.232 151.961 108.557 151.741 108.811C150.225 110.508 148.848 112.324 147.624 114.242C146.283 116.389 145.135 118.65 144.194 121C143.202 123.434 142.418 125.947 141.85 128.512C141.356 130.732 141.046 132.988 140.924 135.259C140.909 135.611 140.759 135.944 140.506 136.188C140.253 136.433 139.915 136.571 139.563 136.574H131.627Z" fill="#E43632"/>
<path d="M131.776 113.316L132.393 110C132.424 109.832 132.47 109.668 132.531 109.508C132.531 109.371 132.737 109.291 133 109.291H138.499C138.488 108.935 138.338 108.598 138.082 108.35C137.826 108.103 137.483 107.964 137.127 107.965H131.261C130.998 107.965 130.85 108.033 130.793 108.182C130.732 108.341 130.686 108.506 130.655 108.674L130.038 111.99C129.988 112.292 129.838 112.569 129.612 112.776C129.386 112.983 129.097 113.109 128.792 113.133L124.504 113.465C124.506 113.652 124.547 113.837 124.624 114.007C124.701 114.178 124.811 114.332 124.95 114.458C125.088 114.584 125.25 114.681 125.427 114.742C125.604 114.804 125.792 114.828 125.979 114.814L130.553 114.459C130.854 114.431 131.138 114.303 131.359 114.096C131.58 113.889 131.727 113.615 131.776 113.316V113.316Z" fill="#AF131B"/>
<path d="M150.734 101.344H150.368V106.57C150.371 106.903 150.248 107.225 150.025 107.473C146.812 111.075 144.24 115.202 142.421 119.674C141.449 122.109 140.684 124.622 140.135 127.186C139.64 129.405 139.33 131.662 139.208 133.932C139.194 134.284 139.044 134.617 138.791 134.862C138.538 135.107 138.2 135.245 137.848 135.247H130.324C130.333 135.602 130.48 135.94 130.734 136.187C130.988 136.435 131.329 136.574 131.684 136.574H139.586C139.938 136.571 140.276 136.433 140.529 136.188C140.782 135.944 140.932 135.611 140.946 135.259C141.069 132.988 141.379 130.732 141.873 128.512C142.441 125.947 143.225 123.434 144.217 121C145.158 118.65 146.306 116.389 147.647 114.242C148.871 112.324 150.248 110.508 151.763 108.811C151.984 108.557 152.106 108.232 152.107 107.896V102.716C152.108 102.536 152.074 102.356 152.005 102.189C151.937 102.022 151.836 101.87 151.708 101.743C151.58 101.615 151.428 101.514 151.261 101.445C151.094 101.377 150.915 101.343 150.734 101.344V101.344Z" fill="#AF131B"/>
<path d="M139.529 137.146H131.627C131.353 137.145 131.082 137.086 130.832 136.974C130.582 136.862 130.358 136.698 130.175 136.494C129.995 136.292 129.858 136.054 129.776 135.796C129.693 135.538 129.665 135.265 129.695 134.996C130.007 132.061 130.612 129.165 131.502 126.351C132.365 123.596 133.459 120.919 134.772 118.347C135.823 116.29 137.055 114.331 138.454 112.493C138.82 112.013 139.174 111.578 139.494 111.178C139.593 111.063 139.656 110.921 139.674 110.77C139.693 110.62 139.666 110.467 139.597 110.332C139.532 110.194 139.428 110.077 139.298 109.996C139.169 109.915 139.018 109.873 138.865 109.874H133.022L132.954 110.126L132.336 113.442C132.255 113.861 132.039 114.242 131.721 114.527C131.403 114.812 131.001 114.985 130.575 115.02L126.002 115.363C125.734 115.387 125.465 115.355 125.21 115.269C124.956 115.182 124.723 115.043 124.527 114.86C124.332 114.676 124.177 114.454 124.071 114.208C123.965 113.963 123.91 113.698 123.909 113.43V102.716C123.909 102.201 124.114 101.706 124.478 101.342C124.843 100.977 125.337 100.772 125.853 100.772H150.712C151.227 100.772 151.722 100.977 152.086 101.342C152.451 101.706 152.655 102.201 152.655 102.716V107.896C152.658 108.373 152.482 108.834 152.164 109.188C150.67 110.865 149.312 112.658 148.104 114.551C146.77 116.669 145.622 118.9 144.674 121.217C143.707 123.623 142.942 126.105 142.387 128.638C141.903 130.828 141.597 133.054 141.472 135.293C141.449 135.793 141.234 136.264 140.872 136.609C140.51 136.954 140.029 137.146 139.529 137.146V137.146ZM132.999 108.719H138.865C139.233 108.718 139.594 108.82 139.906 109.015C140.219 109.21 140.469 109.49 140.628 109.822C140.787 110.154 140.849 110.524 140.806 110.889C140.764 111.255 140.618 111.601 140.386 111.887L139.357 113.202C138.002 114.999 136.808 116.912 135.79 118.919C134.504 121.435 133.433 124.055 132.588 126.752C131.73 129.493 131.14 132.312 130.827 135.167C130.814 135.277 130.825 135.387 130.858 135.492C130.892 135.596 130.947 135.692 131.021 135.773C131.098 135.858 131.192 135.926 131.296 135.974C131.4 136.021 131.513 136.046 131.627 136.048H139.529C139.734 136.042 139.93 135.959 140.076 135.815C140.223 135.67 140.309 135.476 140.318 135.27C140.449 132.962 140.763 130.668 141.255 128.41C141.831 125.812 142.627 123.268 143.634 120.806C144.598 118.415 145.781 116.118 147.167 113.945C148.403 111.995 149.795 110.148 151.329 108.422C151.462 108.279 151.536 108.091 151.535 107.896V102.716C151.535 102.504 151.45 102.3 151.3 102.15C151.15 102 150.947 101.916 150.734 101.916H125.876C125.664 101.916 125.46 102 125.31 102.15C125.16 102.3 125.075 102.504 125.075 102.716V113.419C125.075 113.528 125.097 113.637 125.14 113.737C125.183 113.837 125.247 113.928 125.327 114.002C125.408 114.078 125.503 114.136 125.607 114.173C125.712 114.211 125.822 114.226 125.933 114.219L130.507 113.865C130.684 113.853 130.852 113.782 130.984 113.664C131.117 113.546 131.206 113.388 131.239 113.213L131.856 109.897C131.856 109.68 131.959 109.486 132.016 109.303C132.097 109.114 132.236 108.956 132.413 108.851C132.59 108.746 132.795 108.7 132.999 108.719Z" fill="#34255F"/>
<path d="M134.063 128.798H133.891C133.747 128.751 133.628 128.649 133.559 128.514C133.491 128.379 133.479 128.222 133.525 128.078C133.72 127.472 133.914 126.935 134.12 126.294C134.172 126.152 134.278 126.036 134.415 125.971C134.552 125.907 134.709 125.9 134.852 125.951C134.994 126.001 135.111 126.104 135.177 126.239C135.243 126.374 135.254 126.529 135.206 126.672C135.001 127.243 134.806 127.815 134.612 128.432C134.569 128.543 134.494 128.637 134.395 128.703C134.297 128.768 134.181 128.802 134.063 128.798ZM135.618 124.522C135.547 124.538 135.472 124.538 135.401 124.522C135.331 124.494 135.267 124.453 135.214 124.4C135.16 124.348 135.118 124.285 135.089 124.216C135.06 124.146 135.046 124.072 135.046 123.997C135.047 123.922 135.062 123.848 135.092 123.779C135.629 122.475 136.235 121.229 136.796 120.085C137.847 118.028 139.079 116.069 140.478 114.231C140.574 114.121 140.708 114.053 140.852 114.038C140.997 114.024 141.142 114.066 141.257 114.155C141.372 114.244 141.449 114.373 141.472 114.517C141.495 114.661 141.463 114.808 141.381 114.928C140.028 116.727 138.834 118.64 137.813 120.646C137.23 121.789 136.67 122.933 136.144 124.247C136.09 124.337 136.012 124.41 135.919 124.458C135.827 124.507 135.722 124.529 135.618 124.522V124.522ZM126.47 108.514C126.319 108.514 126.173 108.453 126.066 108.346C125.959 108.239 125.899 108.093 125.899 107.942V104.397C125.899 104.246 125.959 104.1 126.066 103.993C126.173 103.886 126.319 103.825 126.47 103.825C126.622 103.825 126.767 103.886 126.875 103.993C126.982 104.1 127.042 104.246 127.042 104.397V107.942C127.049 108.084 127.003 108.225 126.912 108.335C126.821 108.445 126.692 108.517 126.55 108.536L126.47 108.514Z" fill="white"/>
<path d="M118.386 78.4865H78.4455C77.132 78.4865 76.0671 79.5513 76.0671 80.8648V142.714C76.0671 144.028 77.132 145.092 78.4455 145.092H118.386C119.7 145.092 120.765 144.028 120.765 142.714V80.8648C120.765 79.5513 119.7 78.4865 118.386 78.4865Z" fill="white"/>
<path d="M118.386 78.4865H117.757V139.707C117.757 140.339 117.507 140.945 117.061 141.393C116.616 141.84 116.011 142.094 115.379 142.097H76.0671V142.714C76.0671 143.345 76.3177 143.95 76.7638 144.396C77.2098 144.842 77.8147 145.092 78.4455 145.092H118.386C119.017 145.092 119.622 144.842 120.068 144.396C120.514 143.95 120.765 143.345 120.765 142.714V80.8648C120.765 80.234 120.514 79.6291 120.068 79.1831C119.622 78.737 119.017 78.4865 118.386 78.4865V78.4865Z" fill="#D9F4FF"/>
<path d="M118.386 145.664H78.4455C77.664 145.661 76.9154 145.349 76.3628 144.797C75.8102 144.244 75.4984 143.496 75.4954 142.714V80.8648C75.4984 80.0833 75.8102 79.3347 76.3628 78.7821C76.9154 78.2295 77.664 77.9177 78.4455 77.9147H118.386C119.168 77.9177 119.916 78.2295 120.469 78.7821C121.022 79.3347 121.333 80.0833 121.336 80.8648V142.714C121.333 143.496 121.022 144.244 120.469 144.797C119.916 145.349 119.168 145.661 118.386 145.664ZM78.4455 79.0581C77.9664 79.0581 77.5068 79.2485 77.168 79.5873C76.8292 79.9261 76.6389 80.3856 76.6389 80.8648V142.714C76.6389 143.193 76.8292 143.653 77.168 143.992C77.5068 144.33 77.9664 144.521 78.4455 144.521H118.386C118.865 144.521 119.325 144.33 119.664 143.992C120.003 143.653 120.193 143.193 120.193 142.714V80.8648C120.193 80.3856 120.003 79.9261 119.664 79.5873C119.325 79.2485 118.865 79.0581 118.386 79.0581H78.4455Z" fill="#34255F"/>
<path d="M89.96 134.23C89.7151 134.231 89.4726 134.181 89.2484 134.082C89.0241 133.984 88.823 133.839 88.6581 133.658C88.4932 133.477 88.3681 133.263 88.291 133.031C88.2139 132.799 88.1865 132.552 88.2105 132.309C88.6113 128.617 89.3773 124.975 90.4974 121.435C91.5501 117.959 92.9006 114.581 94.5338 111.338C95.8383 108.757 97.3689 106.296 99.1076 103.985C99.5764 103.379 100.022 102.842 100.434 102.316C100.641 102.063 100.771 101.756 100.811 101.432C100.852 101.107 100.799 100.778 100.661 100.482C100.522 100.186 100.303 99.9346 100.028 99.7574C99.7537 99.5803 99.4345 99.4842 99.1076 99.4803H91.6523C91.3207 99.4803 91.1263 99.5717 91.0577 99.7547C90.9841 99.9556 90.9267 100.162 90.8862 100.372L90.0972 104.603C90.0239 104.982 89.8291 105.326 89.5422 105.584C89.2554 105.842 88.8922 105.999 88.5078 106.032L82.7105 106.478C82.4686 106.499 82.225 106.469 81.9953 106.39C81.7656 106.312 81.5547 106.186 81.3762 106.021C81.1976 105.857 81.0553 105.657 80.9583 105.434C80.8612 105.212 80.8115 104.971 80.8124 104.729V91.0988C80.8124 90.6348 80.9967 90.1898 81.3248 89.8617C81.6529 89.5336 82.0979 89.3493 82.5619 89.3493H114.235C114.466 89.3478 114.694 89.392 114.907 89.4794C115.12 89.5667 115.313 89.6956 115.476 89.8583C115.639 90.0211 115.767 90.2145 115.855 90.4275C115.942 90.6404 115.986 90.8686 115.985 91.0988V97.6965C115.981 98.1173 115.827 98.5229 115.55 98.8399C113.617 101.008 111.861 103.329 110.302 105.781C108.57 108.495 107.089 111.362 105.877 114.345C104.605 117.442 103.607 120.645 102.892 123.916C102.274 126.745 101.891 129.622 101.749 132.515C101.726 132.964 101.531 133.387 101.206 133.697C100.881 134.007 100.449 134.182 99.9995 134.184L89.96 134.23Z" fill="#E43632"/>
<path d="M90.0972 104.603L90.8862 100.372C90.9267 100.162 90.9841 99.9556 91.0577 99.7547C91.1263 99.5717 91.3207 99.4803 91.6523 99.4803H98.6616C98.6497 99.0273 98.4613 98.5969 98.1367 98.2808C97.812 97.9646 97.3767 97.7878 96.9236 97.788H89.434C89.1138 97.788 88.9194 97.8794 88.8508 98.0624C88.7732 98.2629 88.712 98.4694 88.6679 98.6799L87.8789 102.911C87.8092 103.291 87.6154 103.638 87.3279 103.896C87.0403 104.155 86.6752 104.311 86.2895 104.34L80.8124 104.763C80.8148 105.001 80.8662 105.237 80.9633 105.454C81.0605 105.672 81.2014 105.867 81.3773 106.028C81.5532 106.189 81.7603 106.312 81.9857 106.389C82.2111 106.467 82.45 106.497 82.6876 106.478L88.4849 106.032C88.8734 106.004 89.2418 105.849 89.5332 105.591C89.8246 105.332 90.0228 104.985 90.0972 104.603V104.603Z" fill="#AF131B"/>
<path d="M114.247 89.3493H113.778V96.0499C113.778 96.4734 113.619 96.8814 113.332 97.1934C109.254 101.773 105.99 107.017 103.681 112.699C102.42 115.799 101.422 119.001 100.697 122.269C100.084 125.1 99.7012 127.975 99.5536 130.868C99.5331 131.316 99.3413 131.739 99.0178 132.05C98.6944 132.36 98.264 132.535 97.8155 132.537H88.1648C88.1797 132.999 88.3769 133.437 88.7133 133.754C89.0497 134.071 89.4979 134.242 89.96 134.23H100.011C100.461 134.227 100.892 134.053 101.218 133.743C101.543 133.432 101.737 133.009 101.76 132.56C101.902 129.667 102.285 126.791 102.904 123.962C103.612 120.675 104.607 117.458 105.877 114.345C107.091 111.35 108.576 108.471 110.313 105.746C111.873 103.295 113.628 100.974 115.562 98.8056C115.839 98.4886 115.993 98.083 115.996 97.6622V91.0988C115.998 90.8686 115.954 90.6404 115.866 90.4275C115.779 90.2145 115.65 90.0211 115.487 89.8583C115.325 89.6956 115.131 89.5667 114.918 89.4794C114.705 89.392 114.477 89.3478 114.247 89.3493V89.3493Z" fill="#AF131B"/>
<path d="M99.9652 134.801H89.96C89.6304 134.8 89.3047 134.73 89.0036 134.597C88.7024 134.463 88.4323 134.268 88.2105 134.024C87.9967 133.783 87.8363 133.499 87.7397 133.192C87.6432 132.885 87.6127 132.56 87.6502 132.24C88.0537 128.512 88.8196 124.831 89.9371 121.252C91.0328 117.747 92.4252 114.343 94.0993 111.075C95.4348 108.46 96.9998 105.969 98.776 103.631C99.2448 103.025 99.6908 102.488 100.102 101.962C100.263 101.789 100.365 101.57 100.397 101.337C100.428 101.103 100.386 100.866 100.277 100.657C100.168 100.447 99.9976 100.277 99.7882 100.169C99.5788 100.061 99.3411 100.02 99.1076 100.052H91.5608C91.5146 100.195 91.4764 100.34 91.4465 100.487L90.6575 104.717C90.5689 105.222 90.3133 105.682 89.9318 106.025C89.5503 106.367 89.0649 106.571 88.5535 106.604L82.7562 107.05C82.4382 107.08 82.1173 107.044 81.8142 106.942C81.5112 106.841 81.2327 106.678 80.9968 106.462C80.7609 106.247 80.5727 105.984 80.4444 105.691C80.3162 105.399 80.2507 105.083 80.2521 104.763V91.0988C80.2521 90.4923 80.493 89.9106 80.9219 89.4817C81.3508 89.0528 81.9325 88.8119 82.539 88.8119H114.213C114.819 88.8119 115.401 89.0528 115.83 89.4817C116.259 89.9106 116.499 90.4923 116.499 91.0988V97.6965C116.504 98.2657 116.296 98.8161 115.916 99.2402C114.001 101.381 112.265 103.676 110.725 106.101C109.009 108.799 107.54 111.646 106.334 114.608C105.084 117.68 104.093 120.85 103.373 124.087C102.77 126.889 102.387 129.733 102.229 132.595C102.209 133.183 101.962 133.741 101.54 134.152C101.118 134.563 100.554 134.796 99.9652 134.801V134.801ZM91.6523 98.9086H99.1076C99.5516 98.8927 99.9905 99.0066 100.371 99.2362C100.751 99.4657 101.056 99.8011 101.249 100.201C101.442 100.602 101.514 101.049 101.457 101.49C101.399 101.93 101.215 102.345 100.926 102.682C100.514 103.185 100.068 103.734 99.6107 104.34C97.8712 106.618 96.3405 109.048 95.0369 111.601C93.3928 114.815 92.0234 118.162 90.9434 121.606C89.831 125.109 89.065 128.713 88.6565 132.366C88.6385 132.526 88.6546 132.689 88.7039 132.842C88.7532 132.996 88.8344 133.138 88.9423 133.258C89.0546 133.383 89.192 133.484 89.3457 133.553C89.4994 133.622 89.6658 133.658 89.8342 133.658H99.8851C100.188 133.658 100.479 133.538 100.694 133.323C100.908 133.109 101.029 132.818 101.029 132.515C101.171 129.591 101.553 126.685 102.172 123.824C102.901 120.525 103.907 117.293 105.179 114.162C106.415 111.137 107.919 108.229 109.673 105.472C111.292 102.994 113.112 100.653 115.116 98.4741C115.309 98.2614 115.415 97.9838 115.413 97.6965V91.0988C115.413 90.7955 115.293 90.5047 115.078 90.2902C114.864 90.0758 114.573 89.9553 114.27 89.9553H82.5733C82.27 89.9553 81.9792 90.0758 81.7648 90.2902C81.5503 90.5047 81.4299 90.7955 81.4299 91.0988V104.729C81.427 104.892 81.4592 105.054 81.5243 105.204C81.5894 105.354 81.6858 105.488 81.8072 105.598C81.9253 105.71 82.066 105.795 82.2198 105.848C82.3736 105.902 82.537 105.921 82.6991 105.906L88.4964 105.461C88.7586 105.448 89.0085 105.346 89.2042 105.171C89.3999 104.996 89.5295 104.759 89.5712 104.5L90.3602 100.269C90.4068 100.023 90.4757 99.7823 90.566 99.5489C90.6551 99.3402 90.8086 99.1656 91.004 99.0504C91.1994 98.9351 91.4266 98.8855 91.6523 98.9086Z" fill="#34255F"/>
<path d="M93.013 124.167H92.8415C92.6975 124.12 92.5781 124.018 92.5095 123.883C92.4409 123.748 92.4287 123.591 92.4756 123.447C92.7157 122.67 92.9787 121.915 93.2303 121.16C93.2803 121.009 93.3885 120.883 93.5311 120.811C93.6737 120.739 93.839 120.727 93.9907 120.777C94.1423 120.827 94.2678 120.935 94.3397 121.078C94.4115 121.221 94.4238 121.386 94.3737 121.537C94.1107 122.269 93.8592 123.013 93.619 123.824C93.5699 123.94 93.4839 124.037 93.3743 124.099C93.2647 124.161 93.1377 124.185 93.013 124.167ZM94.9912 118.725C94.9197 118.741 94.8454 118.741 94.7739 118.725C94.6349 118.666 94.5245 118.556 94.4666 118.417C94.4088 118.277 94.4083 118.121 94.4652 117.981C95.1513 116.312 95.8831 114.734 96.6378 113.282C97.9682 110.67 99.5295 108.183 101.303 105.849C101.347 105.785 101.403 105.73 101.469 105.688C101.535 105.646 101.609 105.618 101.686 105.606C101.763 105.593 101.842 105.597 101.917 105.616C101.993 105.635 102.064 105.67 102.126 105.718C102.187 105.765 102.239 105.825 102.277 105.894C102.314 105.962 102.338 106.037 102.345 106.115C102.353 106.193 102.344 106.271 102.321 106.345C102.297 106.42 102.258 106.488 102.206 106.547C100.47 108.831 98.939 111.265 97.6326 113.819C96.8893 115.237 96.1689 116.781 95.4943 118.393C95.4496 118.49 95.3789 118.572 95.29 118.63C95.2011 118.689 95.0976 118.722 94.9912 118.725V118.725ZM83.408 98.3369C83.2564 98.3369 83.111 98.2766 83.0038 98.1694C82.8965 98.0622 82.8363 97.9168 82.8363 97.7652V93.1914C82.8363 93.0397 82.8965 92.8943 83.0038 92.7871C83.111 92.6799 83.2564 92.6196 83.408 92.6196C83.5597 92.6196 83.7051 92.6799 83.8123 92.7871C83.9195 92.8943 83.9798 93.0397 83.9798 93.1914V97.7652C83.9798 97.9168 83.9195 98.0622 83.8123 98.1694C83.7051 98.2766 83.5597 98.3369 83.408 98.3369Z" fill="white"/>
<path d="M172.311 145.481H24.1773C21.266 145.481 18.9059 147.841 18.9059 150.753V159.157C18.9059 162.068 21.266 164.428 24.1773 164.428H172.311C175.223 164.428 177.583 162.068 177.583 159.157V150.753C177.583 147.841 175.223 145.481 172.311 145.481Z" fill="#E43632"/>
<path d="M173.318 145.573C173.377 145.905 173.408 146.242 173.409 146.579V154.995C173.409 155.687 173.273 156.373 173.008 157.012C172.743 157.652 172.355 158.233 171.865 158.722C171.376 159.212 170.795 159.6 170.155 159.865C169.515 160.13 168.83 160.266 168.138 160.266H20.0037C19.6657 160.267 19.3285 160.232 18.9975 160.163C19.2332 161.364 19.8786 162.446 20.8233 163.224C21.7681 164.002 22.9536 164.427 24.1773 164.428H172.288C172.981 164.428 173.666 164.292 174.306 164.027C174.945 163.762 175.526 163.374 176.016 162.884C176.505 162.395 176.894 161.814 177.159 161.174C177.423 160.535 177.56 159.849 177.56 159.157V150.753C177.56 149.532 177.137 148.349 176.364 147.405C175.591 146.461 174.514 145.813 173.318 145.573V145.573Z" fill="#AF131B"/>
<path d="M172.288 165H24.1773C23.41 165 22.6502 164.849 21.9413 164.555C21.2324 164.261 20.5882 163.831 20.0457 163.288C19.5031 162.746 19.0727 162.102 18.7791 161.393C18.4854 160.684 18.3343 159.924 18.3343 159.157V150.752C18.3343 149.203 18.9499 147.717 20.0457 146.621C21.1415 145.525 22.6277 144.909 24.1773 144.909H172.288C173.837 144.912 175.322 145.529 176.417 146.624C177.512 147.719 178.128 149.204 178.132 150.752V159.157C178.128 160.706 177.512 162.19 176.417 163.285C175.322 164.38 173.837 164.997 172.288 165ZM24.1773 146.053C22.9309 146.053 21.7356 146.548 20.8542 147.429C19.9729 148.311 19.4777 149.506 19.4777 150.752V159.157C19.4777 159.774 19.5993 160.385 19.8355 160.955C20.0717 161.525 20.4178 162.044 20.8542 162.48C21.2906 162.916 21.8087 163.262 22.3789 163.499C22.949 163.735 23.5602 163.856 24.1773 163.856H172.288C173.534 163.853 174.728 163.357 175.608 162.477C176.489 161.596 176.985 160.402 176.988 159.157V150.752C176.985 149.507 176.489 148.313 175.608 147.433C174.728 146.552 173.534 146.056 172.288 146.053H24.1773Z" fill="#34255F"/>
</svg>
