<svg width="20" height="20" viewBox="0 0 20 20" fill="none" xmlns="http://www.w3.org/2000/svg">
<path d="M7.25 17.5C7.05109 17.5 6.86032 17.421 6.71967 17.2803C6.57902 17.1397 6.5 16.9489 6.5 16.75C6.5 16.5511 6.57902 16.3603 6.71967 16.2197C6.86032 16.079 7.05109 16 7.25 16H13.5C14.0304 16 14.5391 15.7893 14.9142 15.4142C15.2893 15.0391 15.5 14.5304 15.5 14V6C15.5 5.46957 15.2893 4.96086 14.9142 4.58579C14.5391 4.21071 14.0304 4 13.5 4H7.25C7.05109 4 6.86032 3.92098 6.71967 3.78033C6.57902 3.63968 6.5 3.44891 6.5 3.25C6.5 3.05109 6.57902 2.86032 6.71967 2.71967C6.86032 2.57902 7.05109 2.5 7.25 2.5H13.5C14.4283 2.5 15.3185 2.86875 15.9749 3.52513C16.6313 4.1815 17 5.07174 17 6V14C17 14.9283 16.6313 15.8185 15.9749 16.4749C15.3185 17.1313 14.4283 17.5 13.5 17.5H7.25ZM6.259 6.199C6.18665 6.13214 6.10184 6.08019 6.0094 6.04612C5.91697 6.01205 5.81873 5.99652 5.7203 6.00042C5.62187 6.00432 5.52516 6.02757 5.43572 6.06885C5.34627 6.11013 5.26583 6.16863 5.199 6.241L2.199 9.491C2.07095 9.62957 1.99983 9.81132 1.99983 10C1.99983 10.1887 2.07095 10.3704 2.199 10.509L5.199 13.759C5.33413 13.905 5.52172 13.9913 5.72051 13.999C5.9193 14.0067 6.113 13.9351 6.259 13.8C6.405 13.6649 6.49134 13.4773 6.49903 13.2785C6.50672 13.0797 6.43513 12.886 6.3 12.74L4.462 10.749H12.25C12.4489 10.749 12.6397 10.67 12.7803 10.5293C12.921 10.3887 13 10.1979 13 9.999C13 9.80009 12.921 9.60932 12.7803 9.46867C12.6397 9.32802 12.4489 9.249 12.25 9.249H4.463L6.301 7.258C6.36786 7.18565 6.41981 7.10084 6.45388 7.0084C6.48795 6.91597 6.50348 6.81773 6.49958 6.7193C6.49568 6.62086 6.47243 6.52416 6.43115 6.43472C6.38987 6.34527 6.33137 6.26483 6.259 6.198V6.199Z" fill="#009EF7"/>
</svg>
