<svg width="24" height="24" viewBox="0 0 24 24" fill="none" xmlns="http://www.w3.org/2000/svg">
<path fill-rule="evenodd" clip-rule="evenodd" d="M2.5 10.5C2.5 6.08172 6.08173 2.5 10.5 2.5C14.9183 2.5 18.5 6.08172 18.5 10.5C18.5 14.9183 14.9183 18.5 10.5 18.5C6.08173 18.5 2.5 14.9183 2.5 10.5ZM10.5 3.5C6.63401 3.5 3.5 6.63401 3.5 10.5C3.5 14.366 6.63401 17.5 10.5 17.5C14.366 17.5 17.5 14.366 17.5 10.5C17.5 6.63401 14.366 3.5 10.5 3.5Z" fill="#7387A3"/>
<path fill-rule="evenodd" clip-rule="evenodd" d="M15.4482 15.4456C15.6435 15.2504 15.96 15.2504 16.1553 15.4456L21.3553 20.6456C21.5506 20.8409 21.5506 21.1575 21.3553 21.3527C21.1601 21.548 20.8435 21.548 20.6482 21.3527L15.4482 16.1527C15.2529 15.9575 15.2529 15.6409 15.4482 15.4456Z" fill="#7387A3"/>
</svg>
