<svg width="40" height="40" fill="none" xmlns="http://www.w3.org/2000/svg"><g clip-path="url(#clip0_4059_39069)"><path d="M38 0H2C1 0 0 1 0 2v36c0 1 1 2 2 2h36c1 0 2-1 2-2V2c0-1-1-2-2-2zm-6.565 15.395c.348 7.695-5.39 16.275-15.55 16.275-3.09 0-5.965-.905-8.387-2.458 2.904.341 5.8-.464 8.1-2.265a5.475 5.475 0 01-5.11-3.8 5.5 5.5 0 002.47-.094c-2.631-.528-4.446-2.898-4.388-5.433.737.41 1.582.657 2.477.685A5.481 5.481 0 019.353 11a15.534 15.534 0 0011.277 5.717C19.832 13.295 22.43 10 25.962 10c1.571 0 2.995.663 3.991 1.728 1.247-.245 2.419-.7 3.477-1.326a5.494 5.494 0 01-2.405 3.026 10.962 10.962 0 003.142-.861 11.1 11.1 0 01-2.732 2.828z" fill="#555A64"/></g><defs><clipPath id="clip0_4059_39069"><rect width="40" height="40" rx="4" fill="#fff"/></clipPath></defs></svg>