<svg width="40" height="40" fill="none" xmlns="http://www.w3.org/2000/svg"><g clip-path="url(#clip0_4059_39066)"><path d="M16.667 15.555l8.888 4.437-8.888 4.453v-8.89zM40 2v36c0 1-1 2-2 2H2c-1 0-2-1-2-2V2c0-1 1-2 2-2h36c1 0 2 1 2 2zm-6.667 18c-.033-6.872-.538-9.5-4.871-9.795-4.005-.273-12.924-.272-16.922 0C7.21 10.5 6.7 13.117 6.667 20c.033 6.872.538 9.5 4.871 9.795 3.999.272 12.917.273 16.922 0 4.33-.295 4.84-2.912 4.873-9.795z" fill="#555A64"/></g><defs><clipPath id="clip0_4059_39066"><path fill="#fff" d="M0 0h40v40H0z"/></clipPath></defs></svg>