<svg width="47" height="42" fill="none" xmlns="http://www.w3.org/2000/svg"><path d="M0 4.958C0 2.22 2.242 0 5.008 0h34.497c2.766 0 5.008 2.22 5.008 4.958v22.588c0-6.694-5.48-12.12-12.241-12.12-6.76 0-12.241 5.426-12.241 12.12a12 12 0 002.798 7.713H5.008C2.242 35.259 0 33.039 0 30.301V4.958z" fill="#81A332"/><path d="M40.575 33.19a9.805 9.805 0 001.851-5.746c0-5.477-4.484-9.917-10.015-9.917-5.532 0-10.016 4.44-10.016 9.917 0 5.477 4.485 9.917 10.016 9.917 2.163 0 4.166-.68 5.803-1.834l5.814 5.757a1.68 1.68 0 002.36 0 1.641 1.641 0 000-2.337l-5.813-5.757zm-1.487-5.746c0 3.651-2.99 6.611-6.677 6.611-3.688 0-6.677-2.96-6.677-6.611s2.99-6.611 6.677-6.611c3.688 0 6.677 2.96 6.677 6.61z" fill="#941759"/></svg>