<svg width="44" height="45" viewBox="0 0 44 45" fill="none" xmlns="http://www.w3.org/2000/svg">
<path d="M39.0508 44.9988V40.0488H34.1008L39.0508 44.9988Z" fill="#941759"/>
<path fill-rule="evenodd" clip-rule="evenodd" d="M12.65 13.6484C11.7387 13.6484 11 14.3872 11 15.2984V38.3984C11 39.3097 11.7387 40.0484 12.65 40.0484H42.35C43.2613 40.0484 44 39.3097 44 38.3984V15.2984C44 14.3872 43.2613 13.6484 42.35 13.6484H12.65ZM17.6008 31.7984C16.6895 31.7984 15.9508 32.5372 15.9508 33.4484C15.9508 34.3597 16.6895 35.0984 17.6008 35.0984H37.4008C38.3121 35.0984 39.0508 34.3597 39.0508 33.4484C39.0508 32.5372 38.3121 31.7984 37.4008 31.7984H17.6008ZM15.9508 26.8517C15.9508 25.9404 16.6895 25.2017 17.6008 25.2017H37.4008C38.3121 25.2017 39.0508 25.9404 39.0508 26.8517C39.0508 27.7629 38.3121 28.5017 37.4008 28.5017H17.6008C16.6895 28.5017 15.9508 27.7629 15.9508 26.8517ZM17.6008 18.5984C16.6895 18.5984 15.9508 19.3372 15.9508 20.2484C15.9508 21.1597 16.6895 21.8984 17.6008 21.8984H37.4008C38.3121 21.8984 39.0508 21.1597 39.0508 20.2484C39.0508 19.3372 38.3121 18.5984 37.4008 18.5984H17.6008Z" fill="#941759"/>
<circle cx="15" cy="14.998" r="13.5" fill="white"/>
<path fill-rule="evenodd" clip-rule="evenodd" d="M15 3.33333C8.55668 3.33333 3.33333 8.55668 3.33333 15C3.33333 21.4433 8.55668 26.6667 15 26.6667C21.4433 26.6667 26.6667 21.4433 26.6667 15C26.6667 8.55668 21.4433 3.33333 15 3.33333ZM0 15C0 6.71573 6.71573 0 15 0C23.2843 0 30 6.71573 30 15C30 23.2843 23.2843 30 15 30C6.71573 30 0 23.2843 0 15Z" fill="#9FBD55"/>
<path d="M11.6659 12.5C11.6659 13.8807 10.9197 15 9.99919 15C9.07871 15 8.33252 13.8807 8.33252 12.5C8.33252 11.1193 9.07871 10 9.99919 10C10.9197 10 11.6659 11.1193 11.6659 12.5Z" fill="#9FBD55"/>
<path d="M21.6668 12.5C21.6668 13.8807 20.9206 15 20.0002 15C19.0797 15 18.3335 13.8807 18.3335 12.5C18.3335 11.1193 19.0797 10 20.0002 10C20.9206 10 21.6668 11.1193 21.6668 12.5Z" fill="#9FBD55"/>
<path fill-rule="evenodd" clip-rule="evenodd" d="M18.6536 19.5756C18.6536 19.5756 18.6531 19.5765 18.652 19.5781C19.1626 18.8122 20.1973 18.6053 20.9632 19.1159C21.7291 19.6264 21.9361 20.6612 21.4255 21.4271C20.8715 22.258 19.9162 22.8399 18.9072 23.2121C17.8496 23.6022 16.5395 23.8359 15.0387 23.8359C11.9933 23.8359 10.0482 22.8691 8.86021 21.6811C8.20934 21.0302 8.20934 19.975 8.86021 19.3241C9.51109 18.6732 10.5664 18.6732 11.2172 19.3241C11.6959 19.8028 12.7508 20.5026 15.0387 20.5026C16.2046 20.5026 17.1167 20.3197 17.7536 20.0848C18.0719 19.9674 18.3036 19.8436 18.4592 19.7375C18.6051 19.638 18.6533 19.5754 18.6536 19.5756Z" fill="#9FBD55"/>
</svg>
