<svg width="547" height="460" fill="none" xmlns="http://www.w3.org/2000/svg"><path fill-rule="evenodd" clip-rule="evenodd" d="M59.246 94.44C95.76 54.71 154.66 52.58 205.943 35.637c45.007-14.87 87.79-42.438 134.484-34.096 47.412 8.47 83.25 44.386 116.743 78.978 34.7 35.839 67.062 74.441 78.715 122.895 12.805 53.245 20.351 114.776-10.722 159.835-30.613 44.392-93.039 47.171-144.103 64.676-45.757 15.685-89.543 33.349-137.923 32.004-57.381-1.596-118.861-3.8-163.103-40.377C32.87 380.559 4.323 320.25.424 259.266c-3.817-59.697 18.348-120.784 58.822-164.825z" fill="#E5F1C9"/></svg>