<svg width="48" height="48" viewBox="0 0 48 48" fill="none" xmlns="http://www.w3.org/2000/svg">
<circle cx="18" cy="26" r="15" fill="#9FBD55"/>
<path fill-rule="evenodd" clip-rule="evenodd" d="M15.905 27.2012L38.1547 10.7627C33.7664 10.3652 26.8242 10.9446 22.0564 14.4672C20.7046 15.4659 19.4506 16.7734 18.3485 18.147L13.6037 17.4343L6.18708 22.9138L14.4938 24.1615C14.3688 24.4115 14.259 24.6412 14.1654 24.8467L15.905 27.2012ZM15.905 27.2019L38.1548 10.7634C37.2455 15.0749 34.6521 21.5405 29.8843 25.063C28.5319 26.0623 26.9128 26.8771 25.2752 27.5272L24.563 32.2685L17.1464 37.748L18.3937 29.4442C18.1189 29.4901 17.8679 29.5274 17.6445 29.5564L15.905 27.2019ZM14.8458 27.9861L13.6716 26.3968C11.8804 27.7202 11.2794 29.3345 10.8394 30.5163L10.8394 30.5163C10.7589 30.7326 10.6838 30.9344 10.6077 31.1172L14.8458 27.9861ZM14.8458 27.9874L16.02 29.5767C14.2288 30.9001 12.5091 31.0003 11.2503 31.0736L11.2502 31.0736C11.0198 31.0871 10.8049 31.0996 10.6078 31.1186L14.8458 27.9874Z" fill="#941759"/>
<circle cx="27.8358" cy="18.3044" r="1.88369" transform="rotate(-6.45758 27.8358 18.3044)" fill="white"/>
</svg>
