<svg width="48" height="48" viewBox="0 0 48 48" fill="none" xmlns="http://www.w3.org/2000/svg">
<path d="M20.0182 4C21.2726 4.01388 22.5221 4.15305 23.7465 4.41524C24.281 4.5297 24.6807 4.95756 24.7414 5.48015L25.0323 7.98575C25.164 9.13619 26.1756 10.0075 27.3816 10.0088C27.7057 10.0093 28.0264 9.94443 28.326 9.81718L30.7197 8.80749C31.2176 8.5975 31.7992 8.71198 32.1709 9.09313C33.9008 10.8671 35.1891 12.9947 35.939 15.3159C36.1006 15.8164 35.9145 16.3603 35.4752 16.6712L33.3535 18.1729C32.7482 18.5999 32.3908 19.278 32.3908 19.9992C32.3908 20.7203 32.7482 21.3984 33.3548 21.8263L35.4784 23.3285C35.9179 23.6394 36.1041 24.1834 35.9424 24.684C35.1928 27.0048 33.9052 29.1322 32.1763 30.9065C31.805 31.2876 31.2238 31.4024 30.726 31.1929L28.3225 30.1818C27.6349 29.8929 26.8452 29.9352 26.1953 30.2958C25.5455 30.6564 25.1131 31.2923 25.0305 32.0087L24.7415 34.514C24.6819 35.0306 24.2908 35.4556 23.7642 35.5759C21.2887 36.1414 18.7096 36.1414 16.2341 35.5759C15.7075 35.4556 15.3164 35.0306 15.2568 34.514L14.9682 32.0124C14.8835 31.2974 14.4504 30.6634 13.8011 30.304C13.1518 29.9447 12.3634 29.9025 11.678 30.1898L9.27403 31.2011C8.77609 31.4106 8.19469 31.2957 7.82339 30.9144C6.09356 29.1381 4.8059 27.0081 4.05734 24.6848C3.89611 24.1844 4.0824 23.6409 4.5216 23.3302L6.64653 21.827C7.25177 21.4 7.60923 20.7219 7.60923 20.0008C7.60923 19.2796 7.25177 18.6015 6.64574 18.174L4.52214 16.6734C4.08229 16.3626 3.89583 15.8183 4.05763 15.3175C4.80748 12.9964 6.09581 10.8688 7.82569 9.09477C8.19735 8.71363 8.77902 8.59914 9.27688 8.80914L11.6702 9.81864C12.3589 10.1088 13.1506 10.065 13.8034 9.69879C14.4534 9.33677 14.8861 8.70027 14.9696 7.98383L15.2603 5.48015C15.321 4.95729 15.7211 4.5293 16.2559 4.41509C17.4818 4.1533 18.7326 4.0142 20.0182 4ZM19.9969 15.0769C17.1652 15.0769 14.8697 17.281 14.8697 20C14.8697 22.7189 17.1652 24.923 19.9969 24.923C22.8285 24.923 25.124 22.7189 25.124 20C25.124 17.281 22.8285 15.0769 19.9969 15.0769Z" fill="#9FBD55"/>
<circle cx="32.5" cy="31.5" r="11.5" fill="#941759"/>
<path fill-rule="evenodd" clip-rule="evenodd" d="M33 25C33.5523 25 34 25.3838 34 25.8571V32.2122L28.7071 36.7489C28.3166 37.0837 27.6834 37.0837 27.2929 36.7489C26.9024 36.4142 26.9024 35.8715 27.2929 35.5368L32 31.5021V25.8571C32 25.3838 32.4477 25 33 25Z" fill="white"/>
</svg>
