<svg width="48" height="48" viewBox="0 0 48 48" fill="none" xmlns="http://www.w3.org/2000/svg">
<path fill-rule="evenodd" clip-rule="evenodd" d="M34.9136 37.0349C31.9607 39.5098 28.1544 41 24 41C14.6112 41 7 33.3888 7 24C7 19.8456 8.49016 16.0393 10.9651 13.0864L34.9136 37.0349ZM37.0349 34.9136L13.0864 10.9651C16.0393 8.49016 19.8456 7 24 7C33.3888 7 41 14.6112 41 24C41 28.1544 39.5098 31.9607 37.0349 34.9136ZM44 24C44 35.0457 35.0457 44 24 44C12.9543 44 4 35.0457 4 24C4 12.9543 12.9543 4 24 4C35.0457 4 44 12.9543 44 24Z" fill="#941759"/>
<path d="M24 10L11 19.5588L24 27.2059V15.7353V10Z" fill="#9FBD55"/>
<path d="M24 10L37 19.5588L24 27.2059V10Z" fill="#9FBD55"/>
<path d="M11 32.5586V19.5586L24 29.1174L37 19.5586V32.5586C37 33.4033 36.3153 34.088 35.4706 34.088H12.5294C11.6847 34.088 11 33.4033 11 32.5586Z" fill="#9FBD55"/>
<path d="M37 19.5586H11L24 29.1174L37 19.5586Z" fill="#5D7624"/>
<path d="M14.8232 14.2052C14.8232 13.3605 15.508 12.6758 16.3527 12.6758H31.6468C32.4914 12.6758 33.1762 13.3605 33.1762 14.2052V22.3657L23.9997 29.117L14.8232 22.3864V14.2052Z" fill="#F9F9F9"/>
</svg>
