<svg width="48" height="48" fill="none" xmlns="http://www.w3.org/2000/svg"><rect x="9" y="5" width="39" height="30" rx="2" fill="#941759"/><path d="M32 46v-7h-6l6 7z" fill="#81A332"/><path fill-rule="evenodd" clip-rule="evenodd" d="M1.95 8C.873 8 0 8.891 0 9.991v27.874c0 1.1.873 1.991 1.95 1.991h35.1c1.077 0 1.95-.891 1.95-1.99V9.99C39 8.891 38.127 8 37.05 8H1.95zM7.8 29.901c-1.077 0-1.95.891-1.95 1.991s.873 1.991 1.95 1.991h23.4c1.077 0 1.95-.891 1.95-1.99 0-1.1-.873-1.992-1.95-1.992H7.8zm-1.95-5.972c0-1.1.873-1.991 1.95-1.991h23.4c1.077 0 1.95.891 1.95 1.99 0 1.1-.873 1.992-1.95 1.992H7.8c-1.077 0-1.95-.892-1.95-1.991zm1.95-9.957c-1.077 0-1.95.892-1.95 1.991 0 1.1.873 1.991 1.95 1.991h23.4c1.077 0 1.95-.891 1.95-1.99 0-1.1-.873-1.992-1.95-1.992H7.8z" fill="#81A332"/></svg>