<svg width="32" height="32" fill="none" xmlns="http://www.w3.org/2000/svg"><g clip-path="url(#clip0_4059_39102)"><path d="M31.306 4.49A2.225 2.225 0 0029.888 4a4.097 4.097 0 00-1.928.499c-1.687.9-2.304 2.77-2.892 4.582-.212.643-.434 1.304-.704 1.918L23.091 9.08l-.173-.249a.878.878 0 00-1.157-.259l-13.922 8.4a.854.854 0 00-.29 1.17l.608 1.016.52.853H5.42a5.885 5.885 0 00-4.156 1.208 3.023 3.023 0 00-1.147 3.068c.155.383.42.712.764.944a2.1 2.1 0 001.164.36 1.85 1.85 0 00.713-.134 2.175 2.175 0 001.1-1.19 2.21 2.21 0 00.135-.46 1.934 1.934 0 001.513.327 1.757 1.757 0 001.321-1.343c.278.128.58.194.887.192.427.002.842-.132 1.186-.383.364-.259.627-.635.742-1.065 1.061 1.736 2.17 3.471 3.385 5.11a.868.868 0 00.694.346.863.863 0 00.366-.087 82.159 82.159 0 0014.202-8.628.853.853 0 00.193-1.15c-.964-1.381-2.025-3.02-3.172-4.737.118.01.238.01.357 0 .379.005.751-.102 1.07-.307a2.046 2.046 0 00.887-1.917 1.774 1.774 0 001.677-.786 1.911 1.911 0 00.241-1.477c.132.012.264.012.396 0a2.19 2.19 0 001.59-.661c.311-.37.476-.841.463-1.323a1.977 1.977 0 00-.684-1.429zm-7.424 6.94l.144.22.078.02c1.292 1.918 2.564 3.835 3.625 5.398a83.432 83.432 0 00-7.01-2.819l2.054-4.496 1.109 1.677zm-1.813-2.3a.242.242 0 01.126 0 .233.233 0 01.164.076l-3.751 8.169a2.191 2.191 0 01-.94.999 2.21 2.21 0 01-1.355.247l-8.04-1.199L22.068 9.13zM8.571 22.1a1.471 1.471 0 01-1.822-.077l-.56-.508v.758a1.14 1.14 0 01-.215.772 1.157 1.157 0 01-.671.445 1.356 1.356 0 01-1.446-.69v-.058l-.57.26a1.3 1.3 0 010 .958 1.537 1.537 0 01-.8.844c-.15.06-.31.088-.472.086a1.452 1.452 0 01-1.35-.892 2.442 2.442 0 01.964-2.425 5.354 5.354 0 013.732-1.045h3.326c-.117.04-.236.071-.357.096a4.43 4.43 0 01-.472.095c-.714.125-1.707.144-2.7.24-.25 0-.492.058-.733.125a6.486 6.486 0 00-.703.182c-.215.073-.424.16-.627.259a3.264 3.264 0 00-.52.307l-.222.153-.174.172a1.52 1.52 0 00-.26.288l-.193.278.212-.268a1.5 1.5 0 01.27-.269l.183-.153.222-.144c.165-.105.339-.195.52-.268a5.34 5.34 0 01.724-.077c.225-.057.454-.102.684-.134.232 0 .482-.058.723-.077.964 0 1.929 0 2.729-.086.174-.013.348-.035.52-.067.134-.02.266-.05.396-.087h.144a1.394 1.394 0 01-.53 1.017l.048-.01zm.106-3.26l-.472-.786 4.907.7a25.792 25.792 0 00.078 7.123c-1.62-2.253-3.086-4.678-4.513-7.037zm5.187 7.469a26.91 26.91 0 01-.135-7.46l2.478.356c.132.01.264.01.396 0a2.821 2.821 0 002.555-1.63l1.263-2.742a82.943 82.943 0 017.356 2.972 81.523 81.523 0 01-13.893 8.504h-.02zM31.045 6.943a1.573 1.573 0 01-1.157.451 1.29 1.29 0 01-.877-.307l-.434.441a1.329 1.329 0 01.164 1.592 1.176 1.176 0 01-1.456.412l-.704-.297.29.7a1.412 1.412 0 01-.52 1.658 1.34 1.34 0 01-.734.202 1.478 1.478 0 01-.723-.192 1.52 1.52 0 00.29-.259c.13-.133.253-.274.366-.422.106-.163.24-.335.347-.527.121-.208.23-.423.328-.642.183-.432.376-.892.588-1.343.106-.22.202-.46.308-.67l.376-.624.463-.489c.127-.158.265-.305.415-.44a4.39 4.39 0 01.376-.346l.318-.24.27-.21-.29.191-.327.22a4.42 4.42 0 00-.395.327c-.159.129-.307.27-.444.421l-.453.518-.434.604c-.135.22-.24.441-.357.662-.24.45-.462.891-.665 1.313-.099.198-.208.39-.328.575-.106.183-.24.326-.347.47a1.75 1.75 0 01-.193.211c.212-.527.396-1.083.579-1.62.588-1.774 1.147-3.452 2.642-4.228a2.468 2.468 0 012.583-.096 1.364 1.364 0 01.463.959 1.353 1.353 0 01-.328 1.025z" fill="#fff"/></g><defs><clipPath id="clip0_4059_39102"><path fill="#fff" transform="translate(0 4)" d="M0 0h32v23H0z"/></clipPath></defs></svg>