<svg width="48" height="44" fill="none" xmlns="http://www.w3.org/2000/svg"><path fill-rule="evenodd" clip-rule="evenodd" d="M10.286 34.857c5.68 0 10.285-4.605 10.285-10.285s-4.605-10.286-10.286-10.286C4.606 14.286 0 18.891 0 24.572c0 5.68 4.605 10.285 10.286 10.285zm6.496-12.66a1.714 1.714 0 10-2.706-2.105L9.193 26.37l-2.919-2.56a1.714 1.714 0 10-2.26 2.578l4.285 3.758a1.714 1.714 0 002.484-.236l6-7.714z" fill="#941759"/><path fill-rule="evenodd" clip-rule="evenodd" d="M20.571.572a3.429 3.429 0 00-3.428 3.429v36a3.429 3.429 0 003.428 3.428h24A3.429 3.429 0 0047.999 40V11.412L36.69.572H20.57zm0 3.429h13.714v6.428a3.429 3.429 0 003.429 3.429h6.857V40h-24V4zm17.143 2.303v4.125-4.125z" fill="#81A332"/><path fill-rule="evenodd" clip-rule="evenodd" d="M24 19.428c0-.947.767-1.714 1.714-1.714h13.714a1.714 1.714 0 010 3.428H25.714A1.714 1.714 0 0124 19.428zm0 6.86c0-.947.767-1.715 1.714-1.715h13.714a1.714 1.714 0 010 3.429H25.714A1.714 1.714 0 0124 26.288zm0 6.854c0-.947.767-1.714 1.714-1.714h13.714a1.714 1.714 0 010 3.428H25.714A1.714 1.714 0 0124 33.142z" fill="#81A332"/></svg>