<svg width="32" height="32" fill="none" xmlns="http://www.w3.org/2000/svg"><g clip-path="url(#clip0_4059_39109)" fill="#fff"><path d="M23.454 9.438a6.15 6.15 0 00-2.024-3.074 5.735 5.735 0 00-3.355-1.283h-.13a4.203 4.203 0 00-.468 0A4.987 4.987 0 0016.446 5h-.095a5.918 5.918 0 00-3.353 1.333 6.338 6.338 0 00-2.044 3.077 13.824 13.824 0 00.234 8.397c.658 2.07 2.425 4.917 3.846 7.231.39.624.745 1.202 1.03 1.69l.105.136a.323.323 0 00.25.127.305.305 0 00.183-.082h1.395c.04 0 .082-.01.118-.03a.246.246 0 00.09-.087c.303-.506.675-1.112 1.082-1.808 1.447-2.323 3.249-5.215 3.89-7.23a13.738 13.738 0 00.277-8.316zm-2.114 11.28c-.32-.02-.641-.02-.961 0l.303-.579h.97l-.312.579zm-.58 1.03h-.927l.347-.614c.39 0 .658-.055.97-.055l-.39.67zm-2.296 3.76h-.944l.295-.47.078-.126.918-.027-.347.623zm2.694-18.7h-.736a6.252 6.252 0 00-.459-.434h.615c.203.13.396.275.58.433zm.789.822h-.841a5.911 5.911 0 00-.39-.533h.807c.148.163.287.335.416.515l.009.018zm.546.822h-.929A5.51 5.51 0 0021.323 8h.234c.207-.026.415-.041.624-.045.112.154.216.317.311.48v.017zm.866 2.55h-1.014c0-.182-.06-.362-.095-.534h1.013c.01.154.044.334.07.515l.026.018zm.138 2.964h-1.03v-.642h1.03a4.96 4.96 0 01-.026.624l.026.018zm0-.994h-1.03v-.75h1.022c.008.235.017.488.017.732l-.009.018zm-1.212 2.368h1.03c0 .208-.078.425-.12.642h-1.023c.043-.236.087-.443.121-.66l-.008.018zm1.082-.398h-1.03c0-.217.06-.425.078-.642h1.03c-.017.217-.052.425-.078.642zm.087-3.064h-1.022c0-.18 0-.37-.052-.551h1.013c.026.19.044.37.061.551zm-1.317-1.754l-.156-.569h1.005c.052.163.095.335.139.497l-.988.072zm.72-.903h-.997c-.043-.127-.095-.253-.147-.38h.952c.061.081.13.217.191.362v.018zm-3.319-3.164a5.755 5.755 0 00-.528-.343c.334.075.66.187.97.334l-.442.01zm-.476 18.493h-.953l.373-.596h.935l-.355.596zm.572-.904h-.945l.364-.596h.927l-.346.596zm.563-.904h-.936l.355-.596h.919l-.338.596zm1.663-2.955h-.97l.286-.597h.979l-.295.597zm.46-.95h-.988c.086-.207.173-.406.242-.596h1.005c-.104.172-.19.38-.286.588l.026.009zm.406-1.183l-.078.235h-1.013v-.1c.052-.162.095-.325.138-.488h1.014c.035.1.009.208-.06.353zm.19-.687h-1.013c.061-.217.104-.425.156-.642h1.022c-.008.18-.069.425-.12.606l-.044.036zm-7.345 7.692c-1.403-2.26-3.145-5.071-3.777-7.06a13.175 13.175 0 01-.234-7.972 5.68 5.68 0 011.811-2.749 5.305 5.305 0 012.98-1.21h.13a5.196 5.196 0 013.029 1.174 5.572 5.572 0 011.822 2.785c.747 2.615.665 5.41-.234 7.972-.624 1.97-2.478 4.945-3.83 7.114l-.865 1.347-.832-1.401zm2.33 1.762h-.927l.312-.506h.944l-.329.506z"/><path d="M20.066 12.095a3.897 3.897 0 00-.597-2.106 3.662 3.662 0 00-1.62-1.404 3.482 3.482 0 00-2.094-.226c-.704.143-1.352.5-1.861 1.028a3.831 3.831 0 00-.998 1.934 3.932 3.932 0 00.201 2.187 3.75 3.75 0 001.334 1.7 3.516 3.516 0 002.014.638c.956 0 1.873-.394 2.551-1.097a3.86 3.86 0 001.07-2.654zm-6.064 1.754h1.204c.105.201.224.395.356.578h-1.066a3.085 3.085 0 01-.502-.578h.008zm-.433-.976h1.265c.055.212.125.42.208.623h-1.248a3.174 3.174 0 01-.225-.623zm1.984-3.616h-.295c.138-.062.28-.114.425-.153l-.13.153zm-.866.344h.615a3.91 3.91 0 00-.373.641l-.866.027c.178-.265.394-.5.64-.695l-.016.027zm-.867 1.048h1.014a3.846 3.846 0 00-.139.678H13.56a3.24 3.24 0 01.26-.705v.027zm-.355 1.446a3.231 3.231 0 010-.388h1.178a3.961 3.961 0 000 .578c0 .082 0 .163.044.244H13.43a3.23 3.23 0 01.034-.434zm2.33 2.64c.138.16.286.311.442.452a2.867 2.867 0 01-1.308-.425l.866-.027zm3.604-2.649a3.192 3.192 0 01-.691 1.98 2.957 2.957 0 01-1.743 1.066 4.126 4.126 0 01-1.197-1.28 4.322 4.322 0 01-.579-1.684 3.495 3.495 0 01.238-1.777 3.339 3.339 0 011.079-1.396 2.923 2.923 0 012.06.933c.543.579.848 1.357.85 2.167l-.017-.009zm-7.597 9.888l-.173-.335-.165-.37-.39-.904c-.147-.298-.233-.642-.372-.967a10.515 10.515 0 01-.355-1.049l-.32-1.102-.235-1.121a8.914 8.914 0 01-.164-1.103l-.06-.524a3.152 3.152 0 01-.053-.461v-2.856s-.043.19-.112.524l-.122.606-.069.37v.425l-.052.93c-.007.36.007.72.043 1.076.015.383.058.764.13 1.14l.226 1.165.346 1.14c.111.364.247.72.407 1.066.13.33.278.653.442.967l.468.822c.078.127.138.253.208.362l.225.307.355.497.32.425s-.086-.18-.242-.479l-.286-.551zM9.35 20.157l-.207-.587c-.078-.208-.13-.443-.208-.669a5.816 5.816 0 01-.2-.723l-.173-.75-.13-.768c-.052-.254-.07-.498-.104-.742-.034-.244-.07-.47-.07-.696V13.29l-.051.36-.139.39c-.03.175-.048.354-.052.533v.641a7.46 7.46 0 00.087 1.537l.121.786.19.768c.061.25.137.494.226.733.073.227.157.45.251.669l.269.578c.072.163.156.32.251.47l.208.352.19.308-.077-.38a4.363 4.363 0 01-.382-.877zm11.027-5.278a4.121 4.121 0 01-1.918 1.947 3.883 3.883 0 01-2.664.267c-.208-.045-.355.226-.104.28a4.292 4.292 0 002.938-.29 4.553 4.553 0 002.12-2.14c.096-.173-.285-.227-.372-.064zm-.346 1.943a2.83 2.83 0 01-.818.759c-.318.194-.67.32-1.035.371-.252 0-.113.316.104.28a3.138 3.138 0 002.079-1.265c.138-.217-.234-.29-.33-.145z"/></g><defs><clipPath id="clip0_4059_39109"><path fill="#fff" transform="translate(8 5)" d="M0 0h16v22H0z"/></clipPath></defs></svg>