<svg width="42" height="48" fill="none" xmlns="http://www.w3.org/2000/svg"><path fill-rule="evenodd" clip-rule="evenodd" d="M21 4.375c-6.765 0-12.25 5.485-12.25 12.25s5.485 12.25 12.25 12.25 12.25-5.485 12.25-12.25S27.765 4.375 21 4.375zM5.25 16.625C5.25 7.927 12.302.875 21 .875s15.75 7.052 15.75 15.75-7.052 15.75-15.75 15.75-15.75-7.052-15.75-15.75z" fill="#81A332"/><path d="M17.499 14c0 1.45-.784 2.625-1.75 2.625s-1.75-1.175-1.75-2.625.784-2.625 1.75-2.625 1.75 1.175 1.75 2.625zM28 14c0 1.45-.784 2.625-1.75 2.625S24.5 15.45 24.5 14s.784-2.625 1.75-2.625S28 12.55 28 14z" fill="#81A332"/><path fill-rule="evenodd" clip-rule="evenodd" d="M17.204 23.723l.001-.002a1.75 1.75 0 11-2.912-1.942c.582-.872 1.585-1.483 2.644-1.874 1.11-.41 2.486-.655 4.062-.655 3.198 0 5.24 1.015 6.488 2.263a1.75 1.75 0 11-2.475 2.474c-.503-.502-1.61-1.237-4.013-1.237-1.224 0-2.182.192-2.85.439a3.45 3.45 0 00-.741.364c-.154.105-.204.17-.204.17z" fill="#81A332"/><path fill-rule="evenodd" clip-rule="evenodd" d="M0 28.125a1 1 0 011-1h40a1 1 0 011 1v19a1 1 0 01-1 1H1a1 1 0 01-1-1v-19zm7.875 15.626c0 1.75 1.75 1.75 1.75 1.75s1.75 0 1.75-1.75h-3.5zM22.75 32.375a1.75 1.75 0 100 3.5H38.5a1.75 1.75 0 100-3.5H22.75zM21 41.125c0-.966.783-1.75 1.75-1.75h10.5a1.75 1.75 0 110 3.5h-10.5a1.75 1.75 0 01-1.75-1.75zM7.875 30.75v1.938c-3.14 1.215-4.189 5.716-4.352 9.189a.963.963 0 00.976.998h10.25a.963.963 0 00.976-.998c-.163-3.472-1.21-7.973-4.35-9.188V30.75a1 1 0 00-1-1h-1.5a1 1 0 00-1 1z" fill="#941759"/></svg>