<svg width="43" height="29" viewBox="0 0 43 29" fill="none" xmlns="http://www.w3.org/2000/svg">
<rect x="0.5" y="0.5" width="37.5" height="24" rx="2" fill="#941759"/>
<rect x="5" y="15" width="8" height="5" rx="1" fill="white"/>
<rect x="30.5" y="17" width="9" height="9" fill="white"/>
<path fill-rule="evenodd" clip-rule="evenodd" d="M42.5 21.5C42.5 25.6421 39.1421 29 35 29C30.8579 29 27.5 25.6421 27.5 21.5C27.5 17.3579 30.8579 14 35 14C39.1421 14 42.5 17.3579 42.5 21.5ZM38.125 18.375C38.4702 18.7202 38.4702 19.2798 38.125 19.625L36.25 21.5L38.125 23.375C38.4702 23.7202 38.4702 24.2798 38.125 24.625C37.7798 24.9702 37.2202 24.9702 36.875 24.625L35 22.75L33.1251 24.6249C32.7799 24.97 32.2203 24.97 31.8751 24.6249C31.5299 24.2797 31.5299 23.7201 31.8751 23.3749L33.75 21.5L31.8751 19.6251C31.53 19.2799 31.53 18.7203 31.8751 18.3751C32.2203 18.0299 32.7799 18.0299 33.1251 18.3751L35 20.25L36.875 18.375C37.2202 18.0298 37.7798 18.0298 38.125 18.375Z" fill="#9FBD55"/>
</svg>
