<svg width="48" height="48" fill="none" xmlns="http://www.w3.org/2000/svg"><rect y="4" width="39" height="39" rx="5" fill="#81A332"/><path d="M29.5 11.313c0-1.333 1.109-2.415 2.476-2.415h11.55C44.893 8.898 46 9.98 46 11.313v11.27C46 23.918 44.893 25 43.526 25s-2.475-1.082-2.475-2.415v-5.44l-13.1 12.782a2.506 2.506 0 01-1.75.708 2.507 2.507 0 01-1.75-.708l-4.85-4.732-7.325 7.147a2.519 2.519 0 01-3.5 0 2.374 2.374 0 010-3.415l9.075-8.855a2.506 2.506 0 011.75-.708c.656 0 1.286.255 1.75.708l4.85 4.732 11.35-11.075h-5.575c-1.367 0-2.475-1.08-2.475-2.415z" fill="#941759"/></svg>