<svg width="60" height="43" fill="none" xmlns="http://www.w3.org/2000/svg"><path d="M48.6 22.1l-5.55.9c-2.6 0-4.95-.85-7.05-2.55-2-1.8-3-4.35-3-7.65 0-3.4 1.1-6.25 3.3-8.55C38.5 1.95 41.55.8 45.45.8c4 0 7.25 1.5 9.75 4.5 2.6 3 3.9 6.9 3.9 11.7 0 4.7-1.85 9.4-5.55 14.1-3.6 4.7-8.8 8.6-15.6 11.7l-1.05-2.55C46.3 35.05 51 29.8 51 24.5c0-1.6-.8-2.4-2.4-2.4zm-33 0l-5.55.9c-2.6 0-4.95-.85-7.05-2.55-2-1.8-3-4.35-3-7.65 0-3.4 1.1-6.25 3.3-8.55C5.5 1.95 8.55.8 12.45.8c4 0 7.25 1.5 9.75 4.5 2.6 3 3.9 6.9 3.9 11.7 0 4.7-1.85 9.4-5.55 14.1-3.6 4.7-8.8 8.6-15.6 11.7L3.9 40.25C13.3 35.05 18 29.8 18 24.5c0-1.6-.8-2.4-2.4-2.4z" fill="#AFDD44"/></svg>