<svg width="60" height="43" fill="none" xmlns="http://www.w3.org/2000/svg"><path d="M10.5 21.5l5.55-.9c2.6 0 4.9.9 6.9 2.7 2.1 1.7 3.15 4.25 3.15 7.65 0 3.3-1.1 6.1-3.3 8.4-2.2 2.3-5.3 3.45-9.3 3.45-3.9 0-7.15-1.5-9.75-4.5C1.25 35.3 0 31.45 0 26.75c0-4.8 1.8-9.55 5.4-14.25C9.1 7.8 14.35 3.9 21.15.8l1.05 2.55C12.8 8.55 8.1 13.8 8.1 19.1c0 1.6.8 2.4 2.4 2.4zm33 0l5.55-.9c2.6 0 4.9.9 6.9 2.7 2.1 1.7 3.15 4.25 3.15 7.65 0 3.3-1.1 6.1-3.3 8.4-2.2 2.3-5.3 3.45-9.3 3.45-3.9 0-7.15-1.5-9.75-4.5-2.5-3-3.75-6.85-3.75-11.55 0-4.8 1.8-9.55 5.4-14.25C42.1 7.8 47.35 3.9 54.15.8l1.05 2.55C45.8 8.55 41.1 13.8 41.1 19.1c0 1.6.8 2.4 2.4 2.4z" fill="#AFDD44"/></svg>