<svg width="306" height="42" fill="none" xmlns="http://www.w3.org/2000/svg"><path d="M20.049 6.163c.3-.921 1.603-.921 1.902 0l2.364 7.275a3 3 0 002.853 2.073h7.649c.968 0 1.371 1.24.588 1.809l-6.189 4.496a3 3 0 00-1.09 3.354l2.364 7.274c.3.922-.755 1.688-1.538 1.118l-6.189-4.496a3 3 0 00-3.526 0l-6.188 4.496c-.784.57-1.839-.196-1.54-1.118l2.364-7.274a3 3 0 00-1.09-3.354L6.596 17.32c-.783-.57-.38-1.81.588-1.81h7.65a3 3 0 002.852-2.072l2.364-7.275zm66 0c.3-.921 1.603-.921 1.902 0l2.364 7.275a3 3 0 002.853 2.073h7.649c.969 0 1.371 1.24.588 1.809l-6.189 4.496a3 3 0 00-1.09 3.354l2.364 7.274c.3.922-.755 1.688-1.538 1.118l-6.189-4.496a3 3 0 00-3.526 0l-6.188 4.496c-.784.57-1.839-.196-1.54-1.118l2.364-7.274a3 3 0 00-1.09-3.354l-6.188-4.496c-.783-.57-.38-1.81.588-1.81h7.65a3 3 0 002.852-2.072l2.364-7.275zm66 0c.299-.921 1.603-.921 1.902 0l2.364 7.275a2.999 2.999 0 002.853 2.073h7.649c.969 0 1.371 1.24.588 1.809l-6.189 4.496a3 3 0 00-1.089 3.354l2.363 7.274c.3.922-.755 1.688-1.539 1.118l-6.188-4.496a2.999 2.999 0 00-3.526 0l-6.188 4.496c-.784.57-1.839-.196-1.539-1.118l2.363-7.274a3 3 0 00-1.089-3.354l-6.189-4.496c-.783-.57-.381-1.81.588-1.81h7.649c1.3 0 2.452-.836 2.853-2.072l2.364-7.275zm66 0c.299-.921 1.603-.921 1.902 0l2.364 7.275a2.999 2.999 0 002.853 2.073h7.649c.969 0 1.371 1.24.588 1.809l-6.189 4.496a3 3 0 00-1.089 3.354l2.363 7.274c.3.922-.755 1.688-1.539 1.118l-6.188-4.496a2.999 2.999 0 00-3.526 0l-6.188 4.496c-.784.57-1.839-.196-1.539-1.118l2.363-7.274a3 3 0 00-1.089-3.354l-6.189-4.496c-.783-.57-.381-1.81.588-1.81h7.649c1.3 0 2.452-.836 2.853-2.072l2.364-7.275zm66 0c.299-.921 1.603-.921 1.902 0l2.364 7.275a2.999 2.999 0 002.853 2.073h7.649c.969 0 1.371 1.24.588 1.809l-6.189 4.496a3 3 0 00-1.089 3.354l2.363 7.274c.3.922-.755 1.688-1.539 1.118l-6.188-4.496a2.999 2.999 0 00-3.526 0l-6.188 4.496c-.784.57-1.839-.196-1.539-1.118l2.363-7.274a3 3 0 00-1.089-3.354l-6.189-4.496c-.783-.57-.381-1.81.588-1.81h7.649c1.3 0 2.452-.836 2.853-2.072l2.364-7.275z" stroke="#F39C12" stroke-width="2"/></svg>