<svg width="32" height="22" fill="none" xmlns="http://www.w3.org/2000/svg"><g clip-path="url(#clip0_4059_39093)" fill="#fff"><path d="M4.07 9.695a28.9 28.9 0 00-2.644.974.26.26 0 00-.162.257.263.263 0 00.028.104c.151.33.354.635.6.902a.26.26 0 00.368 0l2.061-1.804a.262.262 0 00-.25-.451v.018zm-1.963 1.669c-.078-.1-.15-.206-.215-.316l1.05-.406-.835.722zm5.389.623a.267.267 0 00-.331.046 26.939 26.939 0 00-1.793 2.165.262.262 0 00.054.38c.293.208.616.37.959.478h.072a.259.259 0 00.25-.181l.897-2.59a.264.264 0 00-.108-.298zm-1.219 2.455a2.88 2.88 0 01-.34-.172c.227-.294.463-.595.708-.902l-.368 1.074zm4.483-.568a.263.263 0 00-.26-.262.262.262 0 00-.26.262c-.143.902-.25 1.877-.314 2.815a.263.263 0 00.156.259.261.261 0 00.104.021h.081c.33 0 .66-.049.977-.144a.26.26 0 00.18-.316l-.664-2.635zm-.278 2.58c0-.378.063-.748.108-1.127l.269 1.074-.377.054zM31.48 20.85a.607.607 0 01-.349.488 1.205 1.205 0 01-1.112 0 3.609 3.609 0 01-1.156-1.552l-.17-.262c-.539-1.038-1.148-1.598-1.875-1.706a3.165 3.165 0 00-1.712.415 2.203 2.203 0 01-1.57.307c-.708-.253-.896-1.227-.896-2.049v-.46c.178-.792.1-1.621-.224-2.365-.646-1.056-1.973-1.21-3.147-1.156a5.533 5.533 0 00.278-1.615 7.06 7.06 0 00-1.614-4.333 13.896 13.896 0 00-3.74-3.186A31.195 31.195 0 009.12.812 8.756 8.756 0 005.533.01 6.016 6.016 0 001.74 1.724 7.23 7.23 0 00.099 4.432 1.244 1.244 0 00.61 5.957l1.578.966 1.64.993c.198.125.423.196.655.208a1.328 1.328 0 00.996-.443 3.75 3.75 0 00.977-2.708 14.54 14.54 0 017.756 4.514 3.674 3.674 0 00-1.48 1.642 1.516 1.516 0 00.637 1.95l1.426.813 1.488.848a1.542 1.542 0 001.403.056c.204-.093.386-.23.534-.4.333-.392.605-.833.807-1.308 1.076-.081 2.349 0 2.896.903.289.641.37 1.358.233 2.049v.47c-.054 1.01.233 2.229 1.22 2.58.67.16 1.375.046 1.963-.315a2.74 2.74 0 011.452-.37c.547.08 1.032.55 1.489 1.426l.125.244a3.97 3.97 0 001.354 1.805 1.694 1.694 0 001.623.036 1.122 1.122 0 00.628-.903l-.53-.162zM4.484 7.583a.82.82 0 01-.42-.117l-1.597-.993-1.569-.975a.712.712 0 01-.296-.903l.18-.424c.806.46 1.569.903 2.304 1.39.735.487 1.488.948 2.295 1.408-.08.12-.166.234-.26.343a.807.807 0 01-.637.271zm10.266 2.21a.26.26 0 00.15-.184.264.264 0 00-.06-.23 15.059 15.059 0 00-8.608-4.974h-.045a.258.258 0 00-.258.199.263.263 0 00-.002.117c.098.616 0 1.247-.278 1.805-.798-.46-1.56-.903-2.295-1.39C2.618 4.648 1.794 4.17.987 3.7a5.245 5.245 0 011.111-1.589A5.489 5.489 0 015.55.532a8.372 8.372 0 013.417.768 30.653 30.653 0 015.012 2.527 13.41 13.41 0 013.586 3.06 6.525 6.525 0 011.47 3.999 5.056 5.056 0 01-.313 1.66h-.153v.28c-.062.145-.134.28-.206.416-1.614-.903-3.2-1.607-4.868-2.347.316-.48.76-.862 1.282-1.102h-.027zm1.793 4.46l-1.48-.84-1.407-.776a.973.973 0 01-.43-1.21h.053c1.65.731 3.22 1.417 4.797 2.311-.072.1-.152.208-.233.298a1.055 1.055 0 01-1.282.216h-.018z"/></g><defs><clipPath id="clip0_4059_39093"><path fill="#fff" d="M0 0h32v22H0z"/></clipPath></defs></svg>