<svg width="48" height="48" fill="none" xmlns="http://www.w3.org/2000/svg"><path d="M33.5 24C39.851 24 45 29.149 45 35.5S39.851 47 33.5 47 22 41.851 22 35.5 27.149 24 33.5 24zm-5.822 5.413l-.145.12-.12.145a1.047 1.047 0 000 1.19l.12.144 4.489 4.488-4.489 4.488-.12.145a1.047 1.047 0 000 1.189l.12.145.145.12c.357.247.833.247 1.19 0l.144-.12 4.488-4.489 4.488 4.489.145.12c.356.247.832.247 1.189 0l.145-.12.12-.145a1.047 1.047 0 000-1.19l-.12-.144-4.489-4.488 4.489-4.488.12-.145a1.047 1.047 0 000-1.189l-.12-.145-.145-.12a1.047 1.047 0 00-1.19 0l-.144.12-4.488 4.489-4.488-4.489-.145-.12a1.047 1.047 0 00-1.03-.091l-.159.09z" fill="#81A332"/><path d="M23.5 2c3.653 0 6.639 2.88 6.84 6.51l.011.391H41.42c.873 0 1.581.713 1.581 1.593a1.59 1.59 0 01-1.367 1.578l-.214.014h-1.68L38.686 22.89a13.526 13.526 0 00-3.078-.994l.956-9.809h-26.13l2.67 27.334a2.645 2.645 0 002.355 2.381l.268.014h5.1A13.854 13.854 0 0023.099 45h-7.37c-2.858 0-5.27-2.093-5.722-4.898l-.048-.37-2.701-27.646H5.581c-.8 0-1.462-.599-1.567-1.376L4 10.494a1.59 1.59 0 011.367-1.578L5.58 8.9h11.07C16.649 5.09 19.716 2 23.5 2zm0 3.185c-1.936 0-3.523 1.502-3.677 3.411l-.012.305h7.378c0-2.052-1.651-3.716-3.689-3.716z" fill="#941759" stroke="#941759" stroke-width=".7"/><path stroke="#fff" stroke-width="3" stroke-linecap="round" d="M28.121 30L39 40.879M38.879 30l-10.88 10.879"/></svg>