<svg width="24" height="24" viewBox="0 0 24 24" fill="none" xmlns="http://www.w3.org/2000/svg">
<path d="M1.17207 23.9996C0.940265 23.9996 0.713658 23.9309 0.520908 23.8022C0.328159 23.6734 0.177927 23.4904 0.0892143 23.2762C0.00050198 23.0621 -0.0227049 22.8264 0.0225292 22.5991C0.0677632 22.3717 0.179406 22.1629 0.343336 21.999L21.9991 0.343271C22.2189 0.123478 22.517 0 22.8278 0C23.1386 0 23.4367 0.123478 23.6565 0.343271C23.8763 0.563064 23.9998 0.861167 23.9998 1.172C23.9998 1.48284 23.8763 1.78094 23.6565 2.00073L2.0008 23.6565C1.89207 23.7654 1.76288 23.8518 1.62066 23.9107C1.47844 23.9696 1.32599 23.9998 1.17207 23.9996Z" fill="white"/>
<path d="M22.828 23.9996C22.674 23.9998 22.5216 23.9696 22.3794 23.9107C22.2372 23.8518 22.108 23.7654 21.9992 23.6565L0.343515 2.00073C0.123723 1.78094 0.000244141 1.48284 0.000244141 1.172C0.000244141 0.861167 0.123723 0.563064 0.343515 0.343271C0.563308 0.123478 0.861411 0 1.17225 0C1.48308 0 1.78118 0.123478 2.00098 0.343271L23.6567 21.999C23.8206 22.1629 23.9323 22.3717 23.9775 22.5991C24.0227 22.8264 23.9995 23.0621 23.9108 23.2762C23.8221 23.4904 23.6719 23.6734 23.4791 23.8022C23.2864 23.9309 23.0598 23.9996 22.828 23.9996Z" fill="white"/>
</svg>
