<svg width="24" height="24" viewBox="0 0 24 24" fill="none" xmlns="http://www.w3.org/2000/svg">
<path d="M2.84308 19.1553V20.3609C2.84308 22.0529 6.44734 23.4248 10.8914 23.4248C11.9889 23.4248 13.0281 23.3416 13.9802 23.192C16.8985 22.7263 18.9438 21.6372 18.9438 20.3609V19.1512C17.4514 20.5729 14.1589 21.3046 10.8914 21.3046C7.62798 21.3046 4.33551 20.5729 2.84308 19.1553Z" fill="white"/>
<path d="M5.6492 15.6259C5.43718 15.5677 5.22932 15.5053 5.02979 15.4388V16.3451C5.02979 18.0371 8.63404 19.4089 13.0781 19.4089C14.1756 19.4089 15.2149 19.3258 16.1668 19.1761C19.0852 18.7105 21.1305 17.6214 21.1305 16.3451V15.1354C19.6381 16.5571 16.3456 17.2888 13.0781 17.2888C10.2096 17.2888 7.32039 16.7234 5.6492 15.6259Z" fill="white"/>
<path d="M13.8055 15.9876C12.7787 16.1497 11.6937 16.2329 10.5837 16.2329C10.3883 16.2329 10.1888 16.2287 9.99341 16.2246C10.9413 16.3742 11.9847 16.4574 13.078 16.4574C17.522 16.4574 21.1263 15.0855 21.1263 13.3935C21.1263 12.691 20.5069 12.0425 19.4676 11.527V12.3376C19.4676 14.0587 17.3516 15.4222 13.8055 15.9876Z" fill="white"/>
<path d="M10.5849 15.4C11.6824 15.4 12.7217 15.3168 13.6737 15.1672C16.592 14.7016 18.6374 13.6124 18.6374 12.3362V11.1264C17.1449 12.5481 13.8524 13.2798 10.5849 13.2798C7.32153 13.2798 4.02906 12.5481 2.53662 11.1306V12.3362C2.53662 14.0281 6.14088 15.4 10.5849 15.4Z" fill="white"/>
<path d="M10.5837 12.4457C14.637 12.4457 17.9918 11.3066 18.553 9.8225C17.971 9.99296 17.3308 10.1343 16.6324 10.2465C15.6056 10.4087 14.5206 10.4877 13.4106 10.4877C9.43635 10.4877 5.41222 9.39847 4.65561 7.31158C3.34195 7.85617 2.53546 8.57952 2.53546 9.38185C2.53546 11.0738 6.13972 12.4457 10.5837 12.4457Z" fill="white"/>
<path d="M13.4121 7.53696C10.1487 7.53696 6.85627 6.80529 5.36383 5.38771V6.59329C5.36383 8.28524 8.96809 9.65713 13.4121 9.65713C14.5096 9.65713 15.5489 9.57398 16.5009 9.42433C19.4192 8.9587 21.4646 7.86952 21.4646 6.59329V5.38354C19.9721 6.80529 16.6797 7.53696 13.4121 7.53696Z" fill="white"/>
<path d="M13.4124 6.7046C17.8581 6.7046 21.4621 5.33248 21.4621 3.6399C21.4621 1.94731 17.8581 0.575195 13.4124 0.575195C8.96665 0.575195 5.36267 1.94731 5.36267 3.6399C5.36267 5.33248 8.96665 6.7046 13.4124 6.7046Z" fill="white"/>
<path d="M2.85559 17.4093C2.85559 19.1013 6.45985 20.4731 10.9039 20.4731C12.072 20.4731 13.1861 20.3775 14.188 20.2071C13.8222 20.232 13.4522 20.2403 13.0781 20.2403C8.6673 20.2403 4.19835 18.9018 4.19835 16.3451V15.7173C3.35029 16.1996 2.85559 16.7857 2.85559 17.4093Z" fill="white"/>
</svg>
