<svg width="60" height="57" viewBox="0 0 60 57" fill="none" xmlns="http://www.w3.org/2000/svg">
<g clip-path="url(#clip0_28_3432)">
<path d="M0 17.988L31.8887 56.7322C31.8887 56.7322 59.96 17.2385 59.96 17.988H0Z" fill="#1871A0"/>
<path d="M60 18.008H0L7.72485 7.23517H54.5636L60 18.008Z" fill="#1871A0"/>
<path d="M51.9853 17.3284L8.72412 17.998L12.1918 7.23517H48.7075L51.9853 17.3284Z" fill="#0B79B2"/>
<path d="M45.0999 17.4983L16.449 17.3284L22.0353 7.23517H40.2031L45.0999 17.4983Z" fill="#38AAE5"/>
<path d="M34.9768 17.3585L24.4138 17.3784L27.0021 7.14526H33.2279L34.9768 17.3585Z" fill="#71CEFF"/>
<path d="M24.1739 19.2272C22.3951 16.1192 32.9581 16.8088 34.537 18.4477C35.6163 19.5569 35.2565 21.3957 35.2565 22.8347C35.2565 26.1226 35.0667 29.3804 34.7569 32.6482C34.1873 38.7541 33.078 44.7202 32.2985 50.7761C32.0787 52.455 31.8688 54.0939 31.519 55.6928C29.6303 47.968 27.3118 40.383 26.1326 32.4383C25.4231 27.6515 24.6836 22.8547 24.024 18.2178C23.8741 18.0779 23.9241 18.2678 23.7942 18.3577L24.1739 19.2272Z" fill="#0B79B2"/>
<path d="M34.2572 17.988C34.8369 15.7195 39.9235 15.9893 41.6423 16.1193C42.7716 16.1892 44.1906 16.0693 44.9701 17.1186C45.7496 18.1679 45.2399 19.7968 44.7303 20.976C42.4418 26.2725 39.9734 31.509 37.9748 36.9154C35.9761 42.3218 33.5577 47.4684 32.1786 52.9647C32.0066 54.0544 31.7425 55.1275 31.3892 56.1726C31.4728 53.9577 31.7673 51.7559 32.2686 49.5969C32.6883 46.8987 33.0481 44.1905 33.4778 41.4923C34.0619 38.0328 34.4489 34.5428 34.637 31.0393C34.7669 28.3411 34.8868 25.6729 34.8868 22.9647C34.8868 21.6756 35.2866 18.6776 34.1373 17.8281L34.2572 17.988Z" fill="#38AAE5"/>
<path d="M23.6743 17.6083C25.673 15.9694 30.6097 14.8701 33.0481 15.8295C34.4072 16.3691 35.0467 16.9387 35.2566 18.2678C35.5305 20.8348 35.4902 23.4255 35.1367 25.9827C34.617 31.1493 34.5071 36.3358 33.6677 41.4824C33.2779 43.8708 32.7882 46.2792 32.5184 48.6776C32.3086 50.4864 32.4085 53.5343 31.639 55.1832C31.6349 55.2064 31.6349 55.23 31.639 55.2532C31.639 47.5883 33.6377 40.0233 33.7476 32.3584C33.7476 28.7209 34.5271 23.984 33.2879 20.5263C33.0048 19.5041 32.3999 18.6003 31.5629 17.9488C30.726 17.2972 29.7014 16.9325 28.641 16.9087C27.6876 16.7963 26.7222 16.8402 25.7829 17.0387C25.3664 17.1909 24.9593 17.3678 24.5637 17.5683C24.154 17.7282 23.9142 18.1979 23.9142 17.7882L23.6743 17.6083Z" fill="#71CEFF"/>
<path d="M35.6263 18.7275C35.7162 17.7282 38.4644 17.1186 39.3738 16.9487C40.1441 16.7594 40.9521 16.7912 41.7052 17.0405C42.4582 17.2897 43.1257 17.7463 43.631 18.3578C44.7802 20.0466 43.7509 22.3551 43.1013 24.0839C42.1911 26.5605 41.1469 28.9858 39.9734 31.3491C38.1523 35.1816 36.5703 39.1231 35.2365 43.1512C34.527 45.1499 33.9074 47.1486 33.2379 49.1472C32.5683 51.1459 32.2385 53.2445 31.509 55.0533C33.4078 47.918 36.8854 40.8528 39.8435 34.0673C41.4324 30.4097 43.2812 26.922 44.8401 23.2945C45.7395 21.2358 46.8888 18.4577 44.5603 16.9287C42.7312 15.9175 40.5789 15.6629 38.5643 16.2192C37.6349 16.529 35.4664 17.968 35.3365 18.4577L35.6263 18.7275Z" fill="#71CEFF"/>
<path d="M45.1 17.4883C47.4585 16.1592 50.9461 16.6989 51.206 19.7168C51.6257 24.6036 48.108 30.2798 45.9395 34.427C42.5158 41.0493 38.4489 47.3187 33.7976 53.1446C33.4107 53.7393 32.9355 54.2717 32.3885 54.7235C31.9888 53.7242 32.4684 52.485 32.3885 51.4057C32.3716 52.9632 32.1362 54.5106 31.689 56.0027C34.3072 52.7948 36.7756 49.437 39.2439 46.1092C41.7123 42.7815 44.3105 39.6735 46.569 36.3358C48.8275 32.998 51.146 30.0799 53.5644 27.0719C55.2832 24.9434 57.4518 22.6649 58.701 20.2365C60.4498 16.8088 56.4225 16.3691 53.9341 16.2392C52.5122 16.2131 51.0916 16.3404 49.697 16.6189C49.0289 16.618 48.3614 16.6581 47.6983 16.7388C46.9888 16.9287 46.3392 17.4084 45.6996 17.3584L45.1 17.4883Z" fill="#065C89"/>
<g style="mix-blend-mode:multiply" opacity="0.3">
<path d="M45.4698 17.4884C49.2973 21.5557 45.8595 29.7802 44.0907 34.0573C42.9445 36.8758 41.609 39.6136 40.0934 42.2519C39.3639 43.521 37.7749 47.3485 36.2859 47.6183C36.3449 46.0872 36.2881 44.5539 36.116 43.0313C34.687 44.2106 33.8276 48.028 33.2979 49.8468C32.6424 51.7835 32.2558 53.801 32.1487 55.8428C32.9382 53.8441 34.8968 51.7555 36.236 50.0167C37.7649 48.018 39.0641 45.9694 40.4731 43.9008C42.7916 40.523 45.0601 37.1353 47.0887 33.5776C48.6077 30.9394 56.2326 16.9787 49.2173 16.589C48.0281 16.529 46.3192 16.519 45.7296 17.4684L45.4698 17.4884Z" fill="#065C89"/>
</g>
<path d="M15.9893 17.6083C17.878 21.5256 18.9873 26.1526 20.5062 30.3198C21.9453 34.2172 23.6042 38.0047 25.0832 41.8721C26.1725 44.7302 27.4416 47.4783 28.6708 50.2465C29.4903 52.1053 30.0899 54.7535 31.5389 56.1925C31.7388 54.2438 30.5396 51.8354 30.0599 49.9667C29.4003 47.5583 28.7108 45.1899 28.0612 42.7815C27.5515 40.8428 27.2118 38.8641 26.7221 36.9154C26.4728 35.3848 25.9979 33.8996 25.313 32.5083C25.2131 34.8967 26.3124 37.3951 26.0426 39.7535C24.5779 36.8231 23.3449 33.7825 22.355 30.6596C21.4056 27.9114 19.9466 25.1232 19.6168 22.2152C19.427 20.5463 19.6168 18.6875 21.6155 18.4777C23.3543 18.2978 24.0039 19.9467 24.3537 21.4757C24.3537 20.5463 24.5136 18.6576 24.0139 17.8681C23.5142 17.0786 22.1551 16.8188 21.2657 16.499C19.6768 15.9294 16.2691 15.4997 16.1392 17.7981C16.1247 17.6572 16.0804 17.5209 16.0092 17.3984L15.9893 17.6083Z" fill="#38AAE5"/>
<g style="mix-blend-mode:multiply" opacity="0.3">
<path d="M17.0686 21.0959C16.0693 19.6069 13.6309 17.4883 11.8621 19.487C9.33379 22.3251 13.521 28.1712 14.8601 30.6595C17.2085 35.1365 19.2772 39.8534 22.2152 43.9906C24.2738 46.9687 26.3824 49.9667 28.6309 52.7648C29.3442 53.8494 30.1718 54.8545 31.0993 55.7628C27.4817 52.1952 25.0033 47.4683 21.3358 43.8707C18.3552 40.9253 15.8232 37.5583 13.8208 33.8774C12.1419 30.8094 10.2532 27.8314 8.75418 24.6635C8.10461 23.3044 6.30581 19.6669 7.12527 18.1179C7.94472 16.5689 11.972 16.8288 13.481 16.8387C14.4204 16.8387 15.6796 16.7088 16.2991 17.4883C16.9187 18.2678 16.9787 20.4863 17.4584 21.6655C17.3804 21.5056 17.2902 21.3519 17.1886 21.2058L17.0686 21.0959Z" fill="#1871A0"/>
</g>
<path opacity="0.3" d="M14.3305 20.3465C14.1706 20.2865 14.1507 20.2065 13.9708 20.2365C13.621 22.8148 15.7696 26.4224 16.8489 28.6709C18.208 31.489 19.667 34.2472 21.0561 37.0553C22.3152 39.5836 23.7243 41.962 25.1333 44.3904C25.8529 45.6196 26.4924 46.8788 27.132 48.1279C27.6617 49.1273 28.2413 50.9561 29.1307 51.6156C25.5631 44.4004 22.1353 36.9554 19.2972 29.4404C18.4078 27.1119 17.7383 24.6136 16.7189 22.3451C16.4591 21.7755 13.8808 18.3478 13.7209 20.4764L14.3305 20.3465Z" fill="#38AAE5"/>
<path opacity="0.3" d="M19.3072 18.9874C18.3079 20.5263 19.4571 23.8541 19.9068 25.463C20.5564 27.8614 21.4558 30.2299 22.2753 32.5683C22.9848 34.567 23.6843 36.6856 24.5138 38.6742C25.3432 40.6629 26.4425 44.9501 28.3912 46.1393C28.611 44.0606 27.5218 41.2725 27.182 39.1439C27.0048 37.066 26.5337 35.0236 25.7829 33.078C25.8167 33.6877 25.7696 34.2993 25.643 34.8968C24.114 34.587 23.2346 29.5803 23.0447 28.1912C22.7449 25.9727 23.8242 24.7235 23.9242 22.6749C23.9941 21.2159 23.7343 19.3471 22.3052 18.5976C21.2359 18.038 18.7276 18.4177 19.1873 19.8368L19.3072 18.9874Z" fill="#38AAE5"/>
<path d="M24.1739 17.6083C23.2445 15.4997 19.7368 16.6589 19.0273 18.2578C17.7582 21.1359 19.1172 24.5037 19.3171 27.4117C18.4877 23.954 16.5889 15.6995 11.1326 17.6182C13.6209 16.1592 15.03 17.2185 17.1785 18.5676C17.6382 15.6196 24.4837 14.2305 24.1739 18.0779V17.6083Z" fill="#71CEFF"/>
<path d="M6.60571 8.88409C6.85555 7.58495 10.9628 7.79481 11.6024 9.21387C11.8722 7.82479 15.5997 7.43505 16.7989 7.39508C17.9981 7.3551 20.7963 7.62492 21.4658 9.004C22.5851 8.13458 25.663 7.58495 26.8922 8.49434C28.3212 6.66556 32.1287 7.6649 33.4278 9.24384C34.9568 8.76416 35.7563 8.24451 37.4851 8.24451C38.7643 8.24451 40.0834 8.24451 40.9928 9.24384C42.8915 7.68488 47.8182 6.72552 49.8469 8.49434C50.7663 7.8148 52.3152 7.99468 53.4445 7.99468C55.2533 7.99468 54.8336 7.67489 54.2939 6.27582C51.6276 6.15665 48.9938 5.64134 46.4791 4.74684C42.7516 3.63758 38.3146 3.99734 34.3572 3.99734C30.3999 3.99734 26.6623 3.7575 22.8249 3.99734C19.727 4.2172 16.639 4.55697 13.5511 4.68688C10.633 4.8068 8.61437 4.9667 7.19532 7.68488C7.05929 7.92376 6.94555 8.17465 6.85555 8.43438L6.60571 8.88409Z" fill="#38AAE5"/>
<path d="M8.72412 5.86611L13.7008 2.61827L20.3064 0.78949H42.1318L49.9566 3.9274L54.2937 6.29582H8.72412V5.86611Z" fill="#38AAE5"/>
<path opacity="0.3" d="M7.99473 8.76414C6.16594 8.99398 4.84682 16.9887 4.85682 18.7375C4.85682 21.7355 6.73556 24.3238 7.92477 26.972C6.46574 25.433 5.3265 23.2745 3.92744 21.5956C3.21791 20.6862 0.609649 18.6875 0.709582 17.7082C0.849489 16.3591 7.81485 8.16453 7.47507 7.89471L7.99473 8.76414Z" fill="#38AAE5"/>
<path d="M42.8715 1.16922C42.8715 1.80879 37.605 2.32845 31.0993 2.32845C24.5936 2.32845 19.3271 1.80879 19.3271 1.16922C19.3271 0.529647 24.6036 0 31.0993 0C37.595 0 42.8715 0.519653 42.8715 1.16922Z" fill="#6CCCFF"/>
<g style="mix-blend-mode:multiply">
<path d="M21.1758 8.14457C22.1052 6.99534 24.9832 6.99534 26.0325 7.99467C26.6921 6.99534 28.0312 6.76549 29.1205 6.66556C30.8393 6.50566 31.4689 7.15523 32.898 7.78481C33.5675 8.08461 33.2477 8.01466 34.0072 8.03465C34.4769 8.03465 35.0865 7.92472 35.5962 7.88474C36.3821 7.7565 37.1798 7.71628 37.9746 7.76482C38.6558 7.97271 39.3233 8.22304 39.9732 8.51433C40.7627 8.71419 40.4229 8.60427 41.2524 8.36443C41.909 8.16136 42.5762 7.99455 43.2511 7.86476C44.5928 7.44006 46.0219 7.37119 47.3983 7.66489C47.835 7.8856 48.3181 7.99868 48.8074 7.99467C49.357 7.99467 50.0066 7.70486 50.6062 7.6549C51.7854 7.55496 53.4842 7.57495 54.4336 6.93538C52.3073 6.19779 50.231 5.3232 48.2178 4.31712C46.369 3.31779 44.5502 2.14857 42.7614 1.18921C41.7621 5.74617 35.4862 5.52632 31.7687 5.65623C29.8835 5.60054 27.9983 5.76827 26.1525 6.1559C24.6035 6.62558 23.1045 7.48501 21.4456 7.505C21.4456 7.38508 21.4456 7.27515 21.4456 7.15523L21.1758 8.14457Z" fill="#38AAE5"/>
</g>
<g style="mix-blend-mode:multiply">
<path d="M13.8308 2.78813C12.863 3.6203 11.8191 4.35972 10.7129 4.99666C9.71357 5.56628 8.19459 6.06595 7.60498 6.99533C8.95408 7.06528 10.3531 6.80546 11.0827 8.15456C13.2812 5.42637 19.0773 6.66555 21.6356 8.10459C17.6383 8.25449 15.7396 4.24716 18.7675 1.64889C16.9225 1.57776 15.1036 2.10343 13.581 3.14789L13.8308 2.78813Z" fill="#38AAE5"/>
</g>
<g style="mix-blend-mode:multiply" opacity="0.3">
<path d="M54.1939 8.45439C54.1939 13.581 49.2772 19.9567 45.9294 23.4444C42.3662 27.2058 37.9815 30.0925 33.118 31.8788C26.9421 34.0173 20.6463 33.8774 14.1306 33.8774C18.038 36.4058 21.7156 41.0826 24.8135 44.8701C27.4118 48.078 28.6909 52.3551 31.579 55.3131C33.4577 53.8042 34.8968 50.5663 36.5757 48.6076C38.7956 45.9896 40.8643 43.247 42.7715 40.3931C45.7695 36.036 49.2472 32.0986 52.4151 27.9114C54.3338 25.3731 57.7316 22.1752 58.4111 19.0873C58.8108 17.2785 58.0713 15.8894 57.3018 14.2205C56.5323 12.5517 55.3731 8.8941 53.9641 8.07465L54.1939 8.45439Z" fill="#0B79B2"/>
</g>
</g>
<defs>
<clipPath id="clip0_28_3432">
<rect width="60" height="56.7322" fill="white"/>
</clipPath>
</defs>
</svg>
