<svg width="598" height="503" viewBox="0 0 598 503" fill="none" xmlns="http://www.w3.org/2000/svg">
<path opacity="0.3" fill-rule="evenodd" clip-rule="evenodd" d="M64.7703 103.269C104.687 59.8242 169.08 57.4947 225.144 38.9675C274.348 22.7073 321.119 -7.43752 372.167 1.68429C424 10.9462 463.179 50.2191 499.794 88.0445C537.729 127.234 573.109 169.444 585.849 222.428C599.847 280.65 608.097 347.933 574.127 397.204C540.659 445.746 472.413 448.784 416.588 467.925C366.566 485.077 318.697 504.392 265.806 502.921C203.075 501.176 135.863 498.766 87.4955 458.77C35.9345 416.133 4.7259 350.186 0.463149 283.502C-3.7097 218.224 20.5219 151.427 64.7703 103.269Z" fill="#9FBD55"/>
</svg>
