<svg width="598" height="503" viewBox="0 0 598 503" fill="none" xmlns="http://www.w3.org/2000/svg">
<path opacity="0.3" fill-rule="evenodd" clip-rule="evenodd" d="M533.23 103.269C493.313 59.8242 428.92 57.4947 372.856 38.9675C323.652 22.7073 276.881 -7.43752 225.833 1.68429C174 10.9462 134.821 50.2191 98.2059 88.0445C60.2706 127.234 24.8908 169.444 12.1515 222.428C-1.8471 280.65 -10.0975 347.933 23.8728 397.204C57.3406 445.746 125.587 448.784 181.412 467.925C231.434 485.077 279.303 504.392 332.194 502.921C394.925 501.176 462.137 498.766 510.505 458.77C562.066 416.133 593.274 350.186 597.537 283.502C601.71 218.224 577.478 151.427 533.23 103.269Z" fill="#9FBD55"/>
</svg>
