<svg width="121" height="107" fill="none" xmlns="http://www.w3.org/2000/svg"><circle cx="67.5" cy="53.5" r="53.5" fill="#fff" fill-opacity=".1"/><circle cx="32" cy="32" r="32" fill="#AFD260"/><path d="M39.73 40.155V44H22.71v-3.281l8.05-8.63c.808-.9 1.446-1.692 1.913-2.376.468-.695.804-1.316 1.009-1.863.216-.558.324-1.088.324-1.59 0-.751-.125-1.395-.376-1.93a2.801 2.801 0 00-1.11-1.265c-.479-.296-1.071-.444-1.778-.444-.752 0-1.401.182-1.948.547-.535.364-.946.871-1.23 1.52-.274.65-.41 1.385-.41 2.205h-4.94c0-1.481.354-2.837 1.06-4.067.706-1.242 1.703-2.228 2.99-2.957 1.288-.74 2.815-1.11 4.58-1.11 1.744 0 3.214.284 4.41.854 1.208.558 2.12 1.367 2.734 2.427.627 1.048.94 2.301.94 3.76 0 .82-.13 1.623-.393 2.409a10.88 10.88 0 01-1.128 2.324 18.71 18.71 0 01-1.743 2.324 52.281 52.281 0 01-2.273 2.444l-4.324 4.854h10.665z" fill="#5D7624"/></svg>