<svg width="118" height="107" fill="none" xmlns="http://www.w3.org/2000/svg"><circle cx="64.5" cy="53.5" r="53.5" fill="#fff" fill-opacity=".1"/><circle cx="32" cy="32" r="32" fill="#AFD260"/><path d="M27.75 29.422h2.632c.843 0 1.538-.142 2.085-.427a2.811 2.811 0 001.214-1.23c.273-.536.41-1.157.41-1.863 0-.638-.126-1.202-.376-1.692a2.548 2.548 0 00-1.111-1.162c-.501-.285-1.134-.427-1.897-.427a3.91 3.91 0 00-1.675.359 3.062 3.062 0 00-1.23 1.008c-.308.433-.462.957-.462 1.572h-4.939c0-1.367.365-2.558 1.094-3.572.74-1.014 1.732-1.805 2.974-2.375 1.242-.57 2.609-.855 4.101-.855 1.687 0 3.162.274 4.427.82 1.264.536 2.25 1.328 2.956 2.376.706 1.048 1.06 2.347 1.06 3.897 0 .786-.183 1.55-.547 2.29-.365.729-.889 1.39-1.572 1.982-.673.581-1.493 1.048-2.461 1.401-.969.342-2.057.513-3.264.513H27.75v-2.615zm0 3.743v-2.546h3.419c1.355 0 2.546.154 3.571.461 1.026.308 1.886.752 2.58 1.333a5.542 5.542 0 011.573 2.034c.353.774.53 1.635.53 2.58 0 1.163-.222 2.2-.667 3.11a6.51 6.51 0 01-1.88 2.29c-.797.627-1.731 1.106-2.802 1.436-1.071.32-2.239.479-3.504.479-1.048 0-2.079-.143-3.093-.427a9.205 9.205 0 01-2.734-1.316 6.77 6.77 0 01-1.949-2.222c-.478-.9-.717-1.965-.717-3.196h4.939c0 .638.16 1.208.478 1.71.32.5.758.894 1.316 1.178a4.18 4.18 0 001.897.428c.786 0 1.458-.143 2.017-.428a3.084 3.084 0 001.299-1.23c.307-.536.46-1.157.46-1.863 0-.911-.164-1.64-.495-2.187a2.94 2.94 0 00-1.418-1.23c-.615-.263-1.345-.394-2.188-.394H27.75z" fill="#5D7624"/></svg>