<svg width="48" height="48" fill="none" xmlns="http://www.w3.org/2000/svg"><rect x="12" y="12" width="36" height="36" rx="18" fill="#CDE890"/><path d="M15.177 26.066l9.385-12.714a1.042 1.042 0 011.853.854l-.046.148-5.806 14.698a3.105 3.105 0 11-5.604-2.647l.103-.173.115-.166 9.385-12.714-9.386 12.714zm5.7-3.935l-3.89 5.271-.06.094a.856.856 0 00.334 1.164l.1.047a.855.855 0 001.048-.356l.062-.125 2.407-6.095zm-2.624-2.889l-1.84 2.49c-.456.15-.898.368-1.312.658a4.98 4.98 0 00-2.123 3.88 1.125 1.125 0 11-2.248-.097 7.229 7.229 0 013.081-5.627 7.208 7.208 0 014.442-1.303zm6.25 4.128c.42.879.654 1.829.695 2.799a1.125 1.125 0 01-2.064.666l1.37-3.465zm-3.35-8.054L19.7 17.282a9.33 9.33 0 00-7.104 1.53 9.313 9.313 0 00-3.628 5.085 1.125 1.125 0 11-2.163-.62 11.563 11.563 0 014.5-6.309 11.585 11.585 0 019.848-1.652zm5.264 3.207a11.595 11.595 0 012.7 4.73 1.125 1.125 0 01-2.16.624 9.343 9.343 0 00-1.328-2.767l-.152-.207.94-2.38zm-2.343-6.81l-.132.082c-.184.123-.354.27-.505.442l-.144.179-.812 1.1a13.708 13.708 0 00-12.39 1.718 13.655 13.655 0 00-4.917 6.257 1.125 1.125 0 11-2.097-.815A15.905 15.905 0 018.8 13.391c4.638-3.248 10.402-3.688 15.274-1.677zm3.943 2.344a15.97 15.97 0 013.033 3.257 16.012 16.012 0 011.799 3.352 1.125 1.125 0 01-2.096.82 13.764 13.764 0 00-1.546-2.882 13.781 13.781 0 00-1.944-2.226l.572-1.445c.113-.287.173-.583.182-.876z" fill="#941759"/></svg>