<svg width="48" height="48" fill="none" xmlns="http://www.w3.org/2000/svg"><rect x="12" y="12" width="36" height="36" rx="18" fill="#CDE890"/><path fill-rule="evenodd" clip-rule="evenodd" d="M4.5 12.375A4.875 4.875 0 019.375 7.5h17.25a4.875 4.875 0 014.875 4.875v17.25a4.875 4.875 0 01-4.875 4.875H9.375A4.875 4.875 0 014.5 29.625v-17.25zM9.375 9.75a2.625 2.625 0 00-2.625 2.625v17.25a2.625 2.625 0 002.625 2.625H13.5V9.75H9.375zm6.375 0V24h13.5V12.375a2.625 2.625 0 00-2.625-2.625H15.75zm13.5 16.5h-13.5v6h10.875a2.625 2.625 0 002.625-2.625V26.25z" fill="#941759"/></svg>