<svg width="48" height="48" fill="none" xmlns="http://www.w3.org/2000/svg"><rect x="12" y="12" width="36" height="36" rx="18" fill="#CDE890"/><path d="M19.497 6.006a4.497 4.497 0 014.491 4.228l.008.264 3.376.002c1.301 0 2.38.946 2.589 2.187l.027.222.01.216-.002 5.626h-2.997c-1.115 0-2.049.815-2.22 1.859l-.022.198-.008.194c0 1.115.815 2.049 1.859 2.22l.198.022.193.008h2.997l.001 5.626a2.625 2.625 0 01-2.41 2.617l-.215.008h-3.376l-.006.259a4.501 4.501 0 01-3.958 4.204l-.27.023-.265.008a4.5 4.5 0 01-4.492-4.23l-.008-.264h-3.375c-1.3 0-2.38-.946-2.589-2.187l-.027-.222-.009-.215-.001-3.378-.245-.007a4.501 4.501 0 01-4.204-3.957l-.024-.271-.007-.264a4.5 4.5 0 014.235-4.493l.245-.008.001-3.377c0-1.3.946-2.38 2.188-2.588l.222-.028.215-.008 3.374-.002.009-.257a4.501 4.501 0 013.957-4.204l.27-.024.265-.007zm0 2.25a2.25 2.25 0 00-2.24 2.034l-.01.217-.002 2.241-5.623.002a.375.375 0 00-.365.289l-.01.086-.001 5.626h-2.23a2.25 2.25 0 00-.217 4.49l.217.01h2.23l.001 5.627c0 .178.124.327.29.366l.085.01 5.623-.001.002 2.244a2.25 2.25 0 004.49.218l.01-.217-.002-2.245h5.627a.375.375 0 00.365-.288l.01-.086-.001-3.38-.784.002-.27-.01c-2.267-.153-4.056-1.976-4.184-4.262l-.008-.265.01-.27a4.5 4.5 0 014.228-4.185l.261-.008h.747l.001-3.377a.375.375 0 00-.195-.329l-.094-.036-.086-.01h-5.627l.002-2.243a2.25 2.25 0 00-2.25-2.25z" fill="#941759"/></svg>