<svg width="591" height="332" viewBox="0 0 591 332" fill="none" xmlns="http://www.w3.org/2000/svg">
<path opacity="0.2" fill-rule="evenodd" clip-rule="evenodd" d="M147.216 61.5317C173.85 39.8527 216.814 38.6902 254.221 29.445C287.051 21.3311 318.258 6.28863 352.319 10.8405C386.903 15.4622 413.044 35.0597 437.475 53.9347C462.786 73.4903 486.392 94.5535 494.892 120.993C504.232 150.046 509.737 183.621 487.072 208.207C464.741 232.43 419.205 233.946 381.958 243.498C348.581 252.056 316.642 261.695 281.352 260.96C239.497 260.09 194.651 258.887 162.379 238.929C127.976 217.653 107.153 184.745 104.309 151.469C101.525 118.895 117.693 85.563 147.216 61.5317Z" fill="#9FBD55"/>
<path d="M201.933 40.299C194.26 45.9725 183.136 48.9943 173.555 48.9943C160.131 48.9943 148.039 44.0211 138.892 35.7403C138.171 35.0892 138.814 34.2022 139.676 34.7043C149.548 40.4607 161.755 43.9267 174.361 43.9267C182.868 43.9267 192.216 42.1587 200.82 38.5026C202.116 37.9506 203.203 39.3587 201.933 40.299Z" fill="#EC912D"/>
<path d="M205.128 36.6456C204.148 35.3858 198.641 36.0498 196.169 36.3457C195.42 36.4373 195.301 35.7802 195.977 35.3049C200.371 32.2137 207.568 33.1055 208.404 34.1415C209.246 35.1843 208.183 42.4182 204.067 45.8687C203.434 46.3985 202.83 46.1161 203.112 45.4151C204.039 43.097 206.112 37.9075 205.131 36.6456" fill="#EC912D"/>
<path d="M196.342 13.4615V10.4559C196.34 10.3551 196.358 10.2549 196.395 10.1613C196.433 10.0677 196.489 9.98267 196.56 9.91129C196.631 9.84032 196.716 9.78458 196.809 9.74748C196.902 9.71039 197.001 9.69273 197.102 9.69558H210.537C210.967 9.69558 211.313 10.007 211.313 10.4519V13.0301C211.31 13.4615 210.945 14.025 210.301 14.9208L203.342 24.8793C205.925 24.82 208.658 25.2083 211.004 26.5287C211.534 26.8267 211.677 27.2695 211.718 27.7016V30.908C211.718 31.3509 211.234 31.8612 210.728 31.5942C206.594 29.4251 201.104 29.1865 196.533 31.6225C196.064 31.8699 195.576 31.3664 195.576 30.9235V27.8788C195.576 27.3902 195.584 26.5557 196.075 25.8129L204.139 14.2192H197.119C196.689 14.2192 196.344 13.9131 196.342 13.4615ZM147.329 32.2272H143.241C143.057 32.2186 142.881 32.144 142.747 32.0169C142.613 31.8898 142.529 31.7188 142.51 31.5349L142.512 10.5085C142.512 10.0879 142.866 9.75086 143.302 9.75086H147.109C147.507 9.77243 147.826 10.0731 147.852 10.4559V13.2007H147.927C148.92 10.5483 150.791 9.30801 153.308 9.30801C155.865 9.30801 157.467 10.5462 158.611 13.2007C159.605 10.5483 161.856 9.30801 164.259 9.30801C165.976 9.30801 167.846 10.0158 168.991 11.6085C170.288 13.3786 170.021 15.9461 170.021 18.2021L170.017 31.4709C170.013 31.6765 169.927 31.8718 169.778 32.0142C169.631 32.1557 169.433 32.2326 169.229 32.2272H165.147C164.951 32.2186 164.766 32.1355 164.629 31.9949C164.493 31.8543 164.415 31.6668 164.413 31.4709V20.3247C164.413 19.4397 164.489 17.2275 164.298 16.3883C163.994 14.9714 163.076 14.5724 161.893 14.5724C160.901 14.5724 159.872 15.2363 159.451 16.2986C159.032 17.3609 159.069 19.129 159.069 20.3247V31.4709C159.064 31.6764 158.978 31.8717 158.83 32.0142C158.682 32.1557 158.485 32.2326 158.281 32.2272H154.198C154.002 32.2184 153.818 32.1352 153.681 31.9946C153.545 31.8541 153.467 31.6667 153.465 31.4709L153.46 20.3247C153.46 17.981 153.842 14.5285 150.942 14.5285C148.004 14.5285 148.121 17.8914 148.121 20.3254L148.117 31.4709C148.112 31.6765 148.026 31.8718 147.877 32.0142C147.73 32.1557 147.532 32.2326 147.329 32.2272H147.329ZM222.916 13.5997C219.901 13.5997 219.712 17.7135 219.712 20.2809C219.712 22.8443 219.673 28.3318 222.879 28.3318C226.047 28.3318 226.2 23.9067 226.2 21.2104C226.2 19.4404 226.122 17.3171 225.588 15.6347C225.129 14.174 224.214 13.5997 222.918 13.5997H222.916ZM222.879 9.30598C228.946 9.30598 232.228 14.5285 232.228 21.1666C232.228 27.5809 228.603 32.6693 222.879 32.6693C216.925 32.6693 213.683 27.4468 213.683 20.9449C213.683 14.3951 216.965 9.30801 222.879 9.30801V9.30598ZM240.096 32.2272H236.021C235.826 32.2178 235.642 32.1343 235.506 31.9938C235.37 31.8533 235.293 31.6663 235.29 31.4709L235.281 10.4384C235.304 10.2468 235.396 10.0705 235.542 9.9437C235.687 9.81695 235.874 9.74891 236.067 9.75288L239.859 9.75086C240.217 9.7704 240.511 10.0137 240.586 10.34V13.5559H240.662C241.808 10.6797 243.41 9.30801 246.234 9.30801C248.064 9.30801 249.859 9.97194 251.003 11.7858C252.071 13.4683 252.071 16.2986 252.071 18.3363V31.5652C252.043 31.7516 251.948 31.9215 251.804 32.0433C251.66 32.165 251.477 32.2304 251.289 32.2272H247.191C247.011 32.2192 246.84 32.1487 246.707 32.0278C246.574 31.9069 246.487 31.7433 246.462 31.5652V20.1508C246.462 17.8503 246.731 14.4854 243.907 14.4854C242.913 14.4854 241.997 15.1493 241.541 16.1658C240.968 17.4512 240.89 18.7333 240.89 20.1502V31.4715C240.883 31.6763 240.796 31.8701 240.647 32.0114C240.499 32.1528 240.301 32.2304 240.096 32.2278V32.2272ZM189.75 32.1746C189.619 32.288 189.455 32.3579 189.282 32.3748C189.109 32.3917 188.936 32.3547 188.784 32.269C187.428 31.1379 187.185 30.6169 186.44 29.539C184.198 31.8308 182.609 32.5184 179.703 32.5184C176.261 32.5184 173.584 30.389 173.584 26.1324C173.584 22.8073 175.382 20.5465 177.942 19.4377C180.161 18.4603 183.261 18.283 185.631 18.0181V17.4856C185.631 16.5089 185.707 15.3563 185.132 14.5151C184.634 13.7601 183.679 13.4507 182.837 13.4507C181.279 13.4507 179.894 14.2502 179.553 15.911C179.481 16.2791 179.212 16.6451 178.844 16.6646L174.88 16.2332C174.546 16.1584 174.174 15.8895 174.272 15.3785C175.183 10.559 179.523 9.10444 183.41 9.10444C185.401 9.10444 188.001 9.63694 189.568 11.1441C191.556 13.0059 191.365 15.4904 191.365 18.1981V24.5773C191.365 26.4984 192.161 27.3396 192.906 28.3736C193.169 28.7464 193.227 29.1906 192.895 29.4622C192.06 30.1632 190.577 31.456 189.761 32.1833L189.75 32.1746ZM185.631 22.1851H185.629V21.3001C182.672 21.3001 179.551 21.933 179.551 25.4226C179.551 27.1974 180.467 28.3931 182.034 28.3931C183.182 28.3931 184.213 27.6834 184.865 26.5314C185.667 25.1119 185.631 23.784 185.631 22.1851ZM136.166 32.1746C136.034 32.2878 135.871 32.3577 135.698 32.3746C135.525 32.3915 135.352 32.3546 135.201 32.269C133.842 31.1379 133.598 30.6169 132.856 29.539C130.614 31.8308 129.025 32.5184 126.119 32.5184C122.676 32.5184 120 30.389 120 26.1324C120 22.8073 121.797 20.5465 124.358 19.4377C126.577 18.4603 129.677 18.283 132.044 18.0181V17.4856C132.044 16.5089 132.122 15.3563 131.547 14.5151C131.05 13.7601 130.093 13.4507 129.253 13.4507C127.694 13.4507 126.307 14.2502 125.969 15.911C125.897 16.2791 125.628 16.6451 125.257 16.6646L121.296 16.2332C120.962 16.1584 120.59 15.8895 120.686 15.3785C121.598 10.559 125.936 9.10444 129.826 9.10444C131.816 9.10444 134.417 9.63694 135.984 11.1441C137.972 13.0059 137.781 15.4904 137.781 18.1981V24.5773C137.781 26.4984 138.576 27.3396 139.322 28.3736C139.583 28.7464 139.643 29.1906 139.311 29.4622C138.255 30.3569 137.209 31.264 136.175 32.1833L136.166 32.1746ZM132.044 22.1851V21.3001C129.09 21.3001 125.964 21.933 125.964 25.4226C125.964 27.1974 126.883 28.3931 128.45 28.3931C129.598 28.3931 130.629 27.6834 131.28 26.5314C132.083 25.1119 132.044 23.784 132.044 22.1851ZM269.745 31.425C272.165 31.425 274.103 30.8427 275.56 29.6772C277.016 28.5111 277.746 26.9433 277.746 24.9737C277.746 23.5871 277.388 22.4547 276.674 21.5825C275.96 20.7103 274.79 19.9506 273.168 19.313L269.951 18.0646C268.66 17.5645 267.794 17.1075 267.353 16.6909C266.913 16.2743 266.694 15.7048 266.694 14.9842C266.694 13.1811 268.013 12.2786 270.652 12.2786C272.467 12.2786 274.447 12.625 276.591 13.3193V10.406C274.665 9.51785 272.567 9.06317 270.447 9.07411C268.191 9.07411 266.37 9.62818 264.981 10.739C263.592 11.8492 262.899 13.3065 262.899 15.1089C262.899 17.8563 264.425 19.797 267.477 20.9361L270.982 22.268C272.111 22.6846 272.886 23.1005 273.311 23.517C273.737 23.9329 273.952 24.4742 273.952 25.1402C273.952 26.1391 273.6 26.9015 272.899 27.4293C272.198 27.9577 271.176 28.2206 269.828 28.2206C267.629 28.2206 265.238 27.7912 262.652 26.9298V29.8437C264.66 30.8973 267.023 31.425 269.745 31.425ZM288.449 31.425C291.307 31.425 293.728 30.8845 295.707 29.8019V26.8469C293.449 27.7076 291.238 28.137 289.065 28.137C286.73 28.137 285.006 27.5674 283.891 26.4303C282.775 25.2939 282.193 23.5299 282.139 21.1444H295.831C296.048 20.0908 296.161 18.9099 296.161 17.6063C296.161 14.8878 295.46 12.7868 294.055 11.2992C292.651 9.81219 290.647 9.07344 288.036 9.07344C284.929 9.07344 282.51 10.0508 280.778 12.0096C279.046 13.9677 278.18 16.7037 278.18 20.2283C278.18 23.9201 279.046 26.7087 280.778 28.5947C282.51 30.4807 285.067 31.4257 288.449 31.4257V31.425ZM292.408 18.3976H282.139C282.276 16.3444 282.825 14.7982 283.789 13.7574C284.753 12.7167 286.098 12.1956 287.83 12.1956C289.34 12.1956 290.489 12.625 291.273 13.4858C292.056 14.3466 292.449 15.6219 292.449 17.3151C292.449 17.8146 292.434 18.1758 292.406 18.3976H292.408ZM302.861 31.0092C303.933 31.0092 304.924 30.8427 305.83 30.5097V27.554C305.271 27.6361 304.706 27.678 304.14 27.6793C303.536 27.6793 303.102 27.5324 302.842 27.2412C302.581 26.9493 302.451 26.4856 302.451 25.8479V0H298.366V26.0973C298.366 27.6793 298.752 28.8926 299.521 29.7386C300.289 30.5838 301.405 31.0092 302.864 31.0092H302.861ZM311.912 31.0092C312.987 31.0092 313.974 30.8427 314.884 30.5097V27.554C314.323 27.6362 313.758 27.6781 313.191 27.6793C312.587 27.6793 312.156 27.5324 311.893 27.2412C311.63 26.9493 311.502 26.4856 311.502 25.8479V0H307.419V26.0973C307.419 27.6793 307.803 28.8926 308.574 29.7386C309.344 30.5838 310.456 31.0092 311.914 31.0092H311.912ZM325.667 31.425C328.528 31.425 330.946 30.8845 332.925 29.8019V26.8469C330.672 27.7076 328.458 28.137 326.286 28.137C323.95 28.137 322.225 27.5674 321.111 26.4303C319.998 25.2939 319.414 23.5299 319.357 21.1444H333.049C333.27 20.0908 333.379 18.9099 333.379 17.6063C333.379 14.8878 332.678 12.7868 331.276 11.2992C329.874 9.81219 327.868 9.07344 325.255 9.07344C322.151 9.07344 319.729 10.0508 317.996 12.0096C316.264 13.9677 315.398 16.7037 315.398 20.2283C315.398 23.9201 316.266 26.7087 317.996 28.5947C319.726 30.4807 322.285 31.4257 325.667 31.4257V31.425ZM329.626 18.3976H319.36C319.496 16.3444 320.046 14.7982 321.009 13.7574C321.973 12.7167 323.316 12.1956 325.048 12.1956C326.561 12.1956 327.71 12.625 328.493 13.4858C329.275 14.3466 329.667 15.6219 329.667 17.3151C329.667 17.8146 329.654 18.1758 329.627 18.3976H329.626ZM339.669 30.8009V15.2336C341.236 13.9017 343.12 13.2357 345.319 13.2357C346.064 13.2458 346.807 13.3018 347.546 13.4029V9.65649C346.986 9.57628 346.421 9.53516 345.855 9.53179C345.058 9.53179 344.314 9.64099 343.628 9.86478C342.908 10.1037 342.227 10.4468 341.607 10.8833C340.947 11.3416 340.233 11.9874 339.463 12.8198L339.009 9.69828H335.587V30.8009H339.669ZM365.32 31.2592C367.411 31.2592 369.251 30.8427 370.847 30.0102V27.0545C369.088 27.6092 367.465 27.8876 365.98 27.8876C363.753 27.8876 362.125 27.2958 361.092 26.1175C360.059 24.9386 359.547 23.0877 359.547 20.562V20.0207C359.547 17.4398 360.055 15.5605 361.072 14.3796C362.09 13.2007 363.753 12.6115 366.063 12.6115C367.632 12.6208 369.19 12.8736 370.682 13.3611V10.4054C369.06 9.62871 367.283 9.23045 365.485 9.24061C362.241 9.24061 359.734 10.2045 357.96 12.1323C356.185 14.0601 355.299 16.7873 355.299 20.3119C355.299 23.8628 356.159 26.5773 357.877 28.4504C359.596 30.3236 362.075 31.2586 365.32 31.2586V31.2592ZM381.261 31.425C384.119 31.425 386.54 30.8845 388.519 29.8019V26.8469C386.262 27.7076 384.05 28.137 381.877 28.137C379.542 28.137 377.819 27.5674 376.703 26.4303C375.587 25.2939 375.005 23.5299 374.951 21.1444H388.643C388.86 20.0908 388.973 18.9099 388.973 17.6063C388.973 14.8878 388.272 12.7868 386.867 11.2992C385.463 9.81219 383.46 9.07344 380.848 9.07344C377.74 9.07344 375.323 10.0508 373.59 12.0096C371.858 13.9677 370.992 16.7037 370.992 20.2283C370.992 23.9201 371.858 26.7087 373.59 28.5947C375.323 30.4807 377.879 31.4257 381.261 31.4257V31.425ZM385.22 18.3976H374.951C375.088 16.3444 375.637 14.7982 376.601 13.7574C377.565 12.7167 378.91 12.1956 380.642 12.1956C382.153 12.1956 383.301 12.625 384.085 13.4858C384.869 14.3466 385.262 15.6219 385.262 17.3151C385.262 17.8146 385.246 18.1758 385.218 18.3976H385.22ZM395.261 30.8009V14.5265C397.351 13.111 399.481 12.4033 401.653 12.4033C402.918 12.4033 403.845 12.7497 404.438 13.444C405.028 14.1383 405.323 15.2188 405.323 16.6909V30.8009H409.406V15.3172C409.406 13.291 408.885 11.7467 407.839 10.675C406.793 9.60391 405.269 9.07411 403.262 9.07411C400.374 9.07411 397.624 10.0596 395.014 12.0292L394.601 9.69828H391.178V30.8009H395.261ZM419.903 31.0921C421.608 31.0921 423.135 30.8292 424.483 30.3014V27.3463C423.39 27.6231 422.267 27.7629 421.14 27.7622C420.041 27.7622 419.265 27.5546 418.811 27.1381C418.358 26.7215 418.13 25.9989 418.13 24.9737V12.9445H424.315V9.69828H418.13V3.78751H414.789L414.17 9.78119L410.253 10.2807V12.9445H414.047V25.182C414.047 29.1231 416 31.0921 419.903 31.0921ZM429.905 30.8009V15.2336C431.472 13.9017 433.356 13.2357 435.555 13.2357C436.299 13.2458 437.044 13.3018 437.782 13.4029V9.65649C437.221 9.57644 436.655 9.53477 436.089 9.53179C435.292 9.53179 434.55 9.64099 433.864 9.86478C433.144 10.1037 432.464 10.4468 431.843 10.8833C431.183 11.3416 430.467 11.9874 429.698 12.8198L429.243 9.69828H425.822V30.8009H429.905ZM443.616 31.3421C444.799 31.3421 445.989 31.1055 447.185 30.6344C448.383 30.1605 449.492 29.4847 450.462 28.6365L450.792 30.8009H454.173V15.7338C454.173 13.4858 453.555 11.8121 452.318 10.7168C451.081 9.62144 449.158 9.07344 446.544 9.07344C445.09 9.07344 443.645 9.21836 442.214 9.51157C440.783 9.80546 439.575 10.2126 438.585 10.7383V13.6523C441.087 12.7915 443.508 12.3621 445.843 12.3621C447.467 12.3621 448.615 12.6688 449.288 13.2775C449.961 13.8889 450.297 14.9424 450.297 16.4408V19.1883C448.43 18.7171 446.696 18.4805 445.101 18.4805C442.683 18.4805 440.76 19.0831 439.327 20.2897C437.894 21.4969 437.182 23.116 437.182 25.1402C437.182 27.0262 437.769 28.5313 438.936 29.655C440.104 30.7786 441.665 31.3421 443.616 31.3421ZM444.606 28.2206C443.534 28.2206 442.709 27.9355 442.132 27.3659C441.554 26.7963 441.265 25.9861 441.265 24.9326C441.265 22.5181 442.82 21.3109 445.926 21.3109C447.41 21.3109 448.869 21.4908 450.297 21.8521V26.0973C448.374 27.5128 446.477 28.2206 444.606 28.2206ZM462.031 31.0092C463.103 31.0092 464.093 30.8427 465 30.5097V27.554C464.44 27.6361 463.875 27.678 463.309 27.6793C462.703 27.6793 462.271 27.5324 462.009 27.2412C461.746 26.9493 461.618 26.4856 461.618 25.8479V0H457.536V26.0973C457.536 27.6793 457.92 28.8926 458.69 29.7386C459.461 30.5838 460.574 31.0092 462.031 31.0092Z" fill="#002F36"/>
<g filter="url(#filter0_dd_9945_64024)">
<rect x="31" y="74" width="218" height="218" rx="24" fill="white"/>
<path d="M93.5388 232.101C93.7102 231.692 94.2898 231.692 94.4612 232.101L96.5395 237.063C96.6116 237.235 96.7735 237.353 96.9595 237.368L102.321 237.811C102.763 237.848 102.942 238.399 102.606 238.689L98.5289 242.199C98.3875 242.32 98.3257 242.511 98.3685 242.692L99.6037 247.928C99.7056 248.36 99.2366 248.701 98.8575 248.47L94.2596 245.678C94.1001 245.581 93.8999 245.581 93.7404 245.678L89.1425 248.47C88.7634 248.701 88.2944 248.36 88.3963 247.928L89.6315 242.692C89.6743 242.511 89.6125 242.32 89.4711 242.199L85.3941 238.689C85.058 238.399 85.2371 237.848 85.6792 237.811L91.0405 237.368C91.2265 237.353 91.3884 237.235 91.4605 237.063L93.5388 232.101Z" fill="#FF9F0A"/>
<path d="M117.539 232.101C117.71 231.692 118.29 231.692 118.461 232.101L120.539 237.063C120.612 237.235 120.773 237.353 120.959 237.368L126.321 237.811C126.763 237.848 126.942 238.399 126.606 238.689L122.529 242.199C122.388 242.32 122.326 242.511 122.369 242.692L123.604 247.928C123.706 248.36 123.237 248.701 122.858 248.47L118.26 245.678C118.1 245.581 117.9 245.581 117.74 245.678L113.142 248.47C112.763 248.701 112.294 248.36 112.396 247.928L113.631 242.692C113.674 242.511 113.612 242.32 113.471 242.199L109.394 238.689C109.058 238.399 109.237 237.848 109.679 237.811L115.041 237.368C115.227 237.353 115.388 237.235 115.461 237.063L117.539 232.101Z" fill="#FF9F0A"/>
<path d="M141.539 232.101C141.71 231.692 142.29 231.692 142.461 232.101L144.539 237.063C144.612 237.235 144.773 237.353 144.959 237.368L150.321 237.811C150.763 237.848 150.942 238.399 150.606 238.689L146.529 242.199C146.388 242.32 146.326 242.511 146.369 242.692L147.604 247.928C147.706 248.36 147.237 248.701 146.858 248.47L142.26 245.678C142.1 245.581 141.9 245.581 141.74 245.678L137.142 248.47C136.763 248.701 136.294 248.36 136.396 247.928L137.631 242.692C137.674 242.511 137.612 242.32 137.471 242.199L133.394 238.689C133.058 238.399 133.237 237.848 133.679 237.811L139.041 237.368C139.227 237.353 139.388 237.235 139.461 237.063L141.539 232.101Z" fill="#FF9F0A"/>
<path d="M165.539 232.101C165.71 231.692 166.29 231.692 166.461 232.101L168.539 237.063C168.612 237.235 168.773 237.353 168.959 237.368L174.321 237.811C174.763 237.848 174.942 238.399 174.606 238.689L170.529 242.199C170.388 242.32 170.326 242.511 170.369 242.692L171.604 247.928C171.706 248.36 171.237 248.701 170.858 248.47L166.26 245.678C166.1 245.581 165.9 245.581 165.74 245.678L161.142 248.47C160.763 248.701 160.294 248.36 160.396 247.928L161.631 242.692C161.674 242.511 161.612 242.32 161.471 242.199L157.394 238.689C157.058 238.399 157.237 237.848 157.679 237.811L163.041 237.368C163.227 237.353 163.388 237.235 163.461 237.063L165.539 232.101Z" fill="#FF9F0A"/>
<path fill-rule="evenodd" clip-rule="evenodd" d="M188.847 232.812C189.275 231.789 190.724 231.789 191.153 232.812L192.907 237L197.431 237.374C198.536 237.465 198.984 238.843 198.144 239.567L194.703 242.529L195.746 246.948C196 248.027 194.828 248.879 193.88 248.303L190 245.946L186.119 248.303C185.172 248.879 183.999 248.027 184.254 246.948L185.296 242.529L181.856 239.567C181.015 238.843 181.463 237.465 182.568 237.374L187.093 237L188.847 232.812ZM190 233.942L188.418 237.719C188.238 238.149 187.833 238.444 187.368 238.482L183.287 238.819L186.39 241.491C186.744 241.796 186.898 242.271 186.791 242.726L185.851 246.711L189.351 244.585C189.75 244.343 190.25 244.343 190.649 244.585L194.149 246.711L193.208 242.726C193.101 242.271 193.256 241.796 193.61 241.491L196.713 238.819L192.632 238.482C192.167 238.444 191.762 238.149 191.582 237.719L190 233.942Z" fill="#FF9F0A"/>
<path d="M194 242V238H192.5L190 233L187.5 237.5L182 238L186 242L185 248L190 245L194 247.5L195 247L194 243V242Z" fill="#FF9F0A"/>
<path d="M61.3262 134V127.52H64.5527C64.5892 128.704 64.8991 129.579 65.4824 130.145C66.0658 130.701 66.7311 130.979 67.4785 130.979C68.0618 130.979 68.554 130.778 68.9551 130.377C69.3561 129.967 69.5566 129.488 69.5566 128.941C69.5566 128.358 69.3607 127.87 68.9688 127.479C68.5768 127.077 67.8613 126.622 66.8223 126.111C64.6257 125.045 63.1309 124.106 62.3379 123.295C61.554 122.484 61.1621 121.39 61.1621 120.014C61.1621 118.355 61.6816 117.07 62.7207 116.158C63.7598 115.247 64.9401 114.791 66.2617 114.791C67.7747 114.791 68.946 115.379 69.7754 116.555V114.982H72.9883V120.766H69.7754C69.6751 119.872 69.3652 119.184 68.8457 118.701C68.3353 118.209 67.7383 117.963 67.0547 117.963C66.526 117.963 66.0794 118.104 65.7148 118.387C65.3503 118.669 65.168 119.038 65.168 119.494C65.168 119.886 65.3184 120.26 65.6191 120.615C65.9199 120.962 66.7995 121.458 68.2578 122.105C69.6615 122.734 70.737 123.304 71.4844 123.814C72.2409 124.316 72.8379 124.972 73.2754 125.783C73.7129 126.585 73.9316 127.515 73.9316 128.572C73.9316 130.45 73.3848 131.863 72.291 132.811C71.1973 133.758 69.903 134.232 68.4082 134.232C66.7402 134.232 65.4551 133.617 64.5527 132.387V134H61.3262ZM90.8027 130.951V134H84.4453V132.961C83.306 133.781 82.1029 134.191 80.8359 134.191C79.5234 134.191 78.3887 133.818 77.4316 133.07C76.4837 132.323 76.0098 131.32 76.0098 130.062C76.0098 128.796 76.5111 127.734 77.5137 126.877C78.5163 126.02 79.8105 125.592 81.3965 125.592C82.2806 125.592 83.2969 125.815 84.4453 126.262V125.455C84.4453 124.781 84.2174 124.229 83.7617 123.801C83.306 123.363 82.6953 123.145 81.9297 123.145C80.9818 123.145 80.1706 123.491 79.4961 124.184L76.0918 123.568C77.0762 121.481 79.2135 120.438 82.5039 120.438C83.7799 120.438 84.8372 120.583 85.6758 120.875C86.5143 121.158 87.1387 121.527 87.5488 121.982C87.959 122.438 88.2461 122.939 88.4102 123.486C88.5833 124.024 88.6699 124.904 88.6699 126.125V130.951H90.8027ZM84.4453 129.105C83.4245 128.467 82.6087 128.148 81.998 128.148C81.515 128.148 81.0729 128.29 80.6719 128.572C80.2799 128.855 80.084 129.265 80.084 129.803C80.084 130.286 80.2435 130.701 80.5625 131.047C80.8815 131.393 81.2917 131.566 81.793 131.566C82.5768 131.566 83.4609 131.106 84.4453 130.186V129.105ZM108.234 120.766V123.828H106.047V133.604C106.047 137.969 103.741 140.152 99.1289 140.152C96.4857 140.152 94.5169 139.674 93.2227 138.717L95.2734 135.914C96.3398 136.57 97.4108 136.898 98.4863 136.898C99.4251 136.898 100.214 136.657 100.852 136.174C101.499 135.691 101.822 134.752 101.822 133.357V132.346C100.446 133.576 99.1061 134.191 97.8027 134.191C96.2715 134.191 94.9635 133.553 93.8789 132.277C92.8034 130.992 92.2656 129.356 92.2656 127.369C92.2656 125.373 92.8216 123.742 93.9336 122.475C95.0456 121.199 96.4036 120.561 98.0078 120.561C99.5482 120.561 100.82 121.167 101.822 122.379V120.766H108.234ZM101.836 127.424C101.836 126.357 101.599 125.514 101.125 124.895C100.651 124.275 100.004 123.965 99.1836 123.965C98.3451 123.965 97.7025 124.284 97.2559 124.922C96.8184 125.56 96.5996 126.38 96.5996 127.383C96.5996 128.385 96.8275 129.206 97.2832 129.844C97.748 130.473 98.3815 130.787 99.1836 130.787C99.9219 130.787 100.546 130.495 101.057 129.912C101.576 129.32 101.836 128.49 101.836 127.424ZM119.787 130.008L123.068 131.061C121.692 133.221 119.541 134.301 116.615 134.301C114.282 134.301 112.459 133.686 111.146 132.455C109.843 131.225 109.191 129.607 109.191 127.602C109.191 125.56 109.866 123.855 111.215 122.488C112.564 121.121 114.282 120.438 116.369 120.438C117.882 120.438 119.19 120.82 120.293 121.586C121.396 122.352 122.161 123.304 122.59 124.443C123.018 125.583 123.232 126.854 123.232 128.258H113.375C113.439 129.461 113.817 130.313 114.51 130.814C115.212 131.316 115.95 131.566 116.725 131.566C117.736 131.566 118.757 131.047 119.787 130.008ZM118.98 125.906C118.88 125.168 118.589 124.539 118.105 124.02C117.632 123.5 116.98 123.24 116.15 123.24C114.601 123.24 113.699 124.129 113.443 125.906H118.98ZM124.941 134V130.787H127.402V118.195H124.941V114.982H134.471L138.654 126.139L142.852 114.982H152.572V118.195H150.111V130.787H152.572V134H143.002V130.787H145.299V118.195H144.848L138.955 134H136.904L130.943 118.195H130.492V130.787H132.98V134H124.941ZM169.279 130.951V134H162.922V132.961C161.783 133.781 160.579 134.191 159.312 134.191C158 134.191 156.865 133.818 155.908 133.07C154.96 132.323 154.486 131.32 154.486 130.062C154.486 128.796 154.988 127.734 155.99 126.877C156.993 126.02 158.287 125.592 159.873 125.592C160.757 125.592 161.773 125.815 162.922 126.262V125.455C162.922 124.781 162.694 124.229 162.238 123.801C161.783 123.363 161.172 123.145 160.406 123.145C159.458 123.145 158.647 123.491 157.973 124.184L154.568 123.568C155.553 121.481 157.69 120.438 160.98 120.438C162.257 120.438 163.314 120.583 164.152 120.875C164.991 121.158 165.615 121.527 166.025 121.982C166.436 122.438 166.723 122.939 166.887 123.486C167.06 124.024 167.146 124.904 167.146 126.125V130.951H169.279ZM162.922 129.105C161.901 128.467 161.085 128.148 160.475 128.148C159.992 128.148 159.549 128.29 159.148 128.572C158.757 128.855 158.561 129.265 158.561 129.803C158.561 130.286 158.72 130.701 159.039 131.047C159.358 131.393 159.768 131.566 160.27 131.566C161.053 131.566 161.938 131.106 162.922 130.186V129.105ZM172.711 116.979C172.711 116.34 172.934 115.794 173.381 115.338C173.837 114.882 174.383 114.654 175.021 114.654C175.669 114.654 176.215 114.882 176.662 115.338C177.109 115.794 177.332 116.34 177.332 116.979C177.332 117.617 177.104 118.163 176.648 118.619C176.202 119.066 175.66 119.289 175.021 119.289C174.393 119.289 173.85 119.061 173.395 118.605C172.939 118.15 172.711 117.607 172.711 116.979ZM170.852 123.828V120.766H177.086V130.951H179.055V134H170.852V130.951H172.861V123.828H170.852ZM180.627 134V130.951H182.705V118.031H180.627V114.982H186.93V130.951H188.83V134H180.627ZM201.189 130.008L204.471 131.061C203.094 133.221 200.943 134.301 198.018 134.301C195.684 134.301 193.861 133.686 192.549 132.455C191.245 131.225 190.594 129.607 190.594 127.602C190.594 125.56 191.268 123.855 192.617 122.488C193.966 121.121 195.684 120.438 197.771 120.438C199.285 120.438 200.592 120.82 201.695 121.586C202.798 122.352 203.564 123.304 203.992 124.443C204.421 125.583 204.635 126.854 204.635 128.258H194.777C194.841 129.461 195.219 130.313 195.912 130.814C196.614 131.316 197.352 131.566 198.127 131.566C199.139 131.566 200.16 131.047 201.189 130.008ZM200.383 125.906C200.283 125.168 199.991 124.539 199.508 124.02C199.034 123.5 198.382 123.24 197.553 123.24C196.003 123.24 195.101 124.129 194.846 125.906H200.383ZM215.641 130.951V134H206.33V130.951H208.777V123.828H206.48V120.766H212.646V124.129C212.883 123.163 213.421 122.329 214.26 121.627C215.107 120.916 216.105 120.561 217.254 120.561C217.445 120.561 217.673 120.565 217.938 120.574V124.566C216.871 124.566 216.001 124.685 215.326 124.922C214.652 125.159 214.096 125.678 213.658 126.48C213.221 127.283 213.002 128.23 213.002 129.324V130.951H215.641Z" fill="#333945"/>
<path d="M114.992 204.296V200.808L125.552 186.6H130.992L120.656 200.808L118.128 200.072H135.76V204.296H114.992ZM127.056 209V204.296L127.216 200.072V195.88H132.112V209H127.056ZM140.88 209.256C140.026 209.256 139.29 208.968 138.672 208.392C138.074 207.795 137.776 207.037 137.776 206.12C137.776 205.203 138.074 204.467 138.672 203.912C139.29 203.336 140.026 203.048 140.88 203.048C141.754 203.048 142.49 203.336 143.088 203.912C143.685 204.467 143.984 205.203 143.984 206.12C143.984 207.037 143.685 207.795 143.088 208.392C142.49 208.968 141.754 209.256 140.88 209.256ZM154.183 186.216C156.252 186.216 158.033 186.643 159.527 187.496C161.02 188.349 162.172 189.597 162.983 191.24C163.793 192.861 164.199 194.888 164.199 197.32C164.199 199.901 163.708 202.088 162.727 203.88C161.767 205.672 160.433 207.037 158.727 207.976C157.02 208.915 155.036 209.384 152.775 209.384C151.601 209.384 150.471 209.256 149.383 209C148.295 208.744 147.356 208.36 146.567 207.848L148.487 204.04C149.105 204.467 149.767 204.765 150.471 204.936C151.175 205.085 151.911 205.16 152.679 205.16C154.599 205.16 156.124 204.573 157.255 203.4C158.407 202.227 158.983 200.488 158.983 198.184C158.983 197.8 158.972 197.373 158.951 196.904C158.929 196.435 158.876 195.965 158.791 195.496L160.199 196.84C159.836 197.672 159.324 198.376 158.663 198.952C158.001 199.507 157.233 199.933 156.359 200.232C155.484 200.509 154.503 200.648 153.415 200.648C151.985 200.648 150.684 200.36 149.511 199.784C148.359 199.208 147.431 198.397 146.727 197.352C146.044 196.307 145.703 195.08 145.703 193.672C145.703 192.136 146.076 190.813 146.823 189.704C147.591 188.595 148.615 187.741 149.895 187.144C151.196 186.525 152.625 186.216 154.183 186.216ZM154.503 190.088C153.756 190.088 153.105 190.227 152.551 190.504C151.996 190.76 151.559 191.144 151.239 191.656C150.919 192.147 150.759 192.733 150.759 193.416C150.759 194.44 151.1 195.261 151.783 195.88C152.487 196.477 153.415 196.776 154.567 196.776C155.313 196.776 155.975 196.637 156.551 196.36C157.148 196.061 157.607 195.656 157.927 195.144C158.247 194.632 158.407 194.056 158.407 193.416C158.407 192.776 158.247 192.211 157.927 191.72C157.628 191.208 157.191 190.813 156.615 190.536C156.039 190.237 155.335 190.088 154.503 190.088Z" fill="#333945"/>
</g>
<g filter="url(#filter1_dd_9945_64024)">
<rect x="342" y="74" width="218" height="218" rx="24" fill="white"/>
<path d="M402.539 232.101C402.71 231.692 403.29 231.692 403.461 232.101L405.539 237.063C405.612 237.235 405.773 237.353 405.959 237.368L411.321 237.811C411.763 237.848 411.942 238.399 411.606 238.689L407.529 242.199C407.388 242.32 407.326 242.511 407.369 242.692L408.604 247.928C408.706 248.36 408.237 248.701 407.858 248.47L403.26 245.678C403.1 245.581 402.9 245.581 402.74 245.678L398.142 248.47C397.763 248.701 397.294 248.36 397.396 247.928L398.631 242.692C398.674 242.511 398.612 242.32 398.471 242.199L394.394 238.689C394.058 238.399 394.237 237.848 394.679 237.811L400.041 237.368C400.227 237.353 400.388 237.235 400.461 237.063L402.539 232.101Z" fill="#FF9F0A"/>
<path d="M426.539 232.101C426.71 231.692 427.29 231.692 427.461 232.101L429.539 237.063C429.612 237.235 429.773 237.353 429.959 237.368L435.321 237.811C435.763 237.848 435.942 238.399 435.606 238.689L431.529 242.199C431.388 242.32 431.326 242.511 431.369 242.692L432.604 247.928C432.706 248.36 432.237 248.701 431.858 248.47L427.26 245.678C427.1 245.581 426.9 245.581 426.74 245.678L422.142 248.47C421.763 248.701 421.294 248.36 421.396 247.928L422.631 242.692C422.674 242.511 422.612 242.32 422.471 242.199L418.394 238.689C418.058 238.399 418.237 237.848 418.679 237.811L424.041 237.368C424.227 237.353 424.388 237.235 424.461 237.063L426.539 232.101Z" fill="#FF9F0A"/>
<path d="M450.539 232.101C450.71 231.692 451.29 231.692 451.461 232.101L453.539 237.063C453.612 237.235 453.773 237.353 453.959 237.368L459.321 237.811C459.763 237.848 459.942 238.399 459.606 238.689L455.529 242.199C455.388 242.32 455.326 242.511 455.369 242.692L456.604 247.928C456.706 248.36 456.237 248.701 455.858 248.47L451.26 245.678C451.1 245.581 450.9 245.581 450.74 245.678L446.142 248.47C445.763 248.701 445.294 248.36 445.396 247.928L446.631 242.692C446.674 242.511 446.612 242.32 446.471 242.199L442.394 238.689C442.058 238.399 442.237 237.848 442.679 237.811L448.041 237.368C448.227 237.353 448.388 237.235 448.461 237.063L450.539 232.101Z" fill="#FF9F0A"/>
<path d="M474.539 232.101C474.71 231.692 475.29 231.692 475.461 232.101L477.539 237.063C477.612 237.235 477.773 237.353 477.959 237.368L483.321 237.811C483.763 237.848 483.942 238.399 483.606 238.689L479.529 242.199C479.388 242.32 479.326 242.511 479.369 242.692L480.604 247.928C480.706 248.36 480.237 248.701 479.858 248.47L475.26 245.678C475.1 245.581 474.9 245.581 474.74 245.678L470.142 248.47C469.763 248.701 469.294 248.36 469.396 247.928L470.631 242.692C470.674 242.511 470.612 242.32 470.471 242.199L466.394 238.689C466.058 238.399 466.237 237.848 466.679 237.811L472.041 237.368C472.227 237.353 472.388 237.235 472.461 237.063L474.539 232.101Z" fill="#FF9F0A"/>
<path fill-rule="evenodd" clip-rule="evenodd" d="M497.847 232.812C498.275 231.789 499.724 231.789 500.153 232.812L501.907 237L506.431 237.374C507.536 237.465 507.984 238.843 507.144 239.567L503.703 242.529L504.746 246.948C505 248.027 503.828 248.879 502.88 248.303L499 245.946L495.119 248.303C494.172 248.879 492.999 248.027 493.254 246.948L494.296 242.529L490.856 239.567C490.015 238.843 490.463 237.465 491.568 237.374L496.093 237L497.847 232.812ZM499 233.942L497.418 237.719C497.238 238.149 496.833 238.444 496.368 238.482L492.287 238.819L495.39 241.491C495.744 241.796 495.898 242.271 495.791 242.726L494.851 246.711L498.351 244.585C498.75 244.343 499.25 244.343 499.649 244.585L503.149 246.711L502.208 242.726C502.101 242.271 502.256 241.796 502.61 241.491L505.713 238.819L501.632 238.482C501.167 238.444 500.762 238.149 500.582 237.719L499 233.942Z" fill="#FF9F0A"/>
<path d="M497.5 245.5V236.5L496.5 237.5L491 238.5L495 242.5L494 247.5L497.5 245.5Z" fill="#FF9F0A"/>
<path d="M355.793 134V130.787H358.514V118.195H355.793V114.982H372.814V120.848H369.178V118.195H363.463V122.598H367.578V125.811H363.463V130.787H366.389V134H355.793ZM381.947 130.008L385.229 131.061C383.852 133.221 381.701 134.301 378.775 134.301C376.442 134.301 374.619 133.686 373.307 132.455C372.003 131.225 371.352 129.607 371.352 127.602C371.352 125.56 372.026 123.855 373.375 122.488C374.724 121.121 376.442 120.438 378.529 120.438C380.042 120.438 381.35 120.82 382.453 121.586C383.556 122.352 384.322 123.304 384.75 124.443C385.178 125.583 385.393 126.854 385.393 128.258H375.535C375.599 129.461 375.977 130.313 376.67 130.814C377.372 131.316 378.11 131.566 378.885 131.566C379.896 131.566 380.917 131.047 381.947 130.008ZM381.141 125.906C381.04 125.168 380.749 124.539 380.266 124.02C379.792 123.5 379.14 123.24 378.311 123.24C376.761 123.24 375.859 124.129 375.604 125.906H381.141ZM397.998 130.008L401.279 131.061C399.903 133.221 397.752 134.301 394.826 134.301C392.493 134.301 390.67 133.686 389.357 132.455C388.054 131.225 387.402 129.607 387.402 127.602C387.402 125.56 388.077 123.855 389.426 122.488C390.775 121.121 392.493 120.438 394.58 120.438C396.093 120.438 397.401 120.82 398.504 121.586C399.607 122.352 400.372 123.304 400.801 124.443C401.229 125.583 401.443 126.854 401.443 128.258H391.586C391.65 129.461 392.028 130.313 392.721 130.814C393.423 131.316 394.161 131.566 394.936 131.566C395.947 131.566 396.968 131.047 397.998 130.008ZM397.191 125.906C397.091 125.168 396.799 124.539 396.316 124.02C395.842 123.5 395.191 123.24 394.361 123.24C392.812 123.24 391.91 124.129 391.654 125.906H397.191ZM419.395 130.951V134H412.996V132.428C411.82 133.604 410.544 134.191 409.168 134.191C407.518 134.191 406.151 133.521 405.066 132.182C403.982 130.842 403.439 129.219 403.439 127.314C403.439 125.382 403.995 123.755 405.107 122.434C406.219 121.103 407.577 120.438 409.182 120.438C410.722 120.438 411.993 121.035 412.996 122.229V118.031H410.932V114.982H417.221V130.951H419.395ZM413.037 127.355C413.037 126.089 412.764 125.186 412.217 124.648C411.679 124.111 411.064 123.842 410.371 123.842C409.542 123.842 408.899 124.165 408.443 124.812C407.997 125.451 407.773 126.294 407.773 127.342C407.773 128.335 407.997 129.174 408.443 129.857C408.89 130.532 409.537 130.869 410.385 130.869C411.087 130.869 411.702 130.596 412.23 130.049C412.768 129.493 413.037 128.595 413.037 127.355ZM426.805 114.982V122.256C427.862 121.044 429.115 120.438 430.564 120.438C432.26 120.438 433.636 121.08 434.693 122.365C435.76 123.65 436.293 125.296 436.293 127.301C436.293 129.443 435.76 131.129 434.693 132.359C433.636 133.581 432.296 134.191 430.674 134.191C429.215 134.191 427.926 133.622 426.805 132.482V134H420.283V130.951H422.58V118.031H420.283V114.982H426.805ZM431.959 127.273C431.959 126.143 431.727 125.291 431.262 124.717C430.797 124.143 430.182 123.855 429.416 123.855C428.687 123.855 428.062 124.138 427.543 124.703C427.023 125.268 426.764 126.189 426.764 127.465C426.764 128.54 427.005 129.383 427.488 129.994C427.98 130.605 428.609 130.91 429.375 130.91C430.113 130.91 430.729 130.614 431.221 130.021C431.713 129.429 431.959 128.513 431.959 127.273ZM453.314 130.951V134H446.957V132.961C445.818 133.781 444.615 134.191 443.348 134.191C442.035 134.191 440.9 133.818 439.943 133.07C438.995 132.323 438.521 131.32 438.521 130.062C438.521 128.796 439.023 127.734 440.025 126.877C441.028 126.02 442.322 125.592 443.908 125.592C444.792 125.592 445.809 125.815 446.957 126.262V125.455C446.957 124.781 446.729 124.229 446.273 123.801C445.818 123.363 445.207 123.145 444.441 123.145C443.493 123.145 442.682 123.491 442.008 124.184L438.604 123.568C439.588 121.481 441.725 120.438 445.016 120.438C446.292 120.438 447.349 120.583 448.188 120.875C449.026 121.158 449.65 121.527 450.061 121.982C450.471 122.438 450.758 122.939 450.922 123.486C451.095 124.024 451.182 124.904 451.182 126.125V130.951H453.314ZM446.957 129.105C445.936 128.467 445.12 128.148 444.51 128.148C444.027 128.148 443.585 128.29 443.184 128.572C442.792 128.855 442.596 129.265 442.596 129.803C442.596 130.286 442.755 130.701 443.074 131.047C443.393 131.393 443.803 131.566 444.305 131.566C445.089 131.566 445.973 131.106 446.957 130.186V129.105ZM468.381 120.766V126.139H465.373C464.689 124.662 463.618 123.924 462.16 123.924C461.23 123.924 460.488 124.234 459.932 124.854C459.385 125.464 459.111 126.285 459.111 127.314C459.111 128.563 459.403 129.488 459.986 130.09C460.57 130.682 461.285 130.979 462.133 130.979C462.807 130.979 463.445 130.787 464.047 130.404C464.648 130.012 465.132 129.497 465.496 128.859L468.777 130.309C467.556 132.97 465.414 134.301 462.352 134.301C460.046 134.301 458.204 133.672 456.828 132.414C455.461 131.156 454.777 129.475 454.777 127.369C454.777 125.264 455.447 123.605 456.787 122.393C458.136 121.171 459.704 120.561 461.49 120.561C462.921 120.561 464.257 120.993 465.496 121.859V120.766H468.381ZM470.008 134V130.951H472.141V118.031H470.008V114.982H476.352V127L480.904 123.295H478.102V120.766H486.1V123.445H484.773L480.904 126.754L484.432 130.951H486.264V134H482.203L476.352 127V131.102H477.951V134H470.008ZM487.945 134V130.787H490.666V118.195H487.945V114.982H504.967V120.848H501.33V118.195H495.615V122.598H499.73V125.811H495.615V130.787H498.541V134H487.945ZM508.289 116.979C508.289 116.34 508.512 115.794 508.959 115.338C509.415 114.882 509.962 114.654 510.6 114.654C511.247 114.654 511.794 114.882 512.24 115.338C512.687 115.794 512.91 116.34 512.91 116.979C512.91 117.617 512.682 118.163 512.227 118.619C511.78 119.066 511.238 119.289 510.6 119.289C509.971 119.289 509.428 119.061 508.973 118.605C508.517 118.15 508.289 117.607 508.289 116.979ZM506.43 123.828V120.766H512.664V130.951H514.633V134H506.43V130.951H508.439V123.828H506.43ZM521.51 134.191L517.039 123.828H515.125V120.766H523.15V123.828H521.51L523.574 129.844L526.008 123.828H524.271V120.766H531.285V123.828H529.398L525.105 134.191H521.51ZM542.182 130.008L545.463 131.061C544.087 133.221 541.936 134.301 539.01 134.301C536.676 134.301 534.854 133.686 533.541 132.455C532.238 131.225 531.586 129.607 531.586 127.602C531.586 125.56 532.26 123.855 533.609 122.488C534.958 121.121 536.676 120.438 538.764 120.438C540.277 120.438 541.585 120.82 542.688 121.586C543.79 122.352 544.556 123.304 544.984 124.443C545.413 125.583 545.627 126.854 545.627 128.258H535.77C535.833 129.461 536.212 130.313 536.904 130.814C537.606 131.316 538.344 131.566 539.119 131.566C540.131 131.566 541.152 131.047 542.182 130.008ZM541.375 125.906C541.275 125.168 540.983 124.539 540.5 124.02C540.026 123.5 539.374 123.24 538.545 123.24C536.995 123.24 536.093 124.129 535.838 125.906H541.375Z" fill="#333945"/>
<path d="M423.992 204.296V200.808L434.552 186.6H439.992L429.656 200.808L427.128 200.072H444.76V204.296H423.992ZM436.056 209V204.296L436.216 200.072V195.88H441.112V209H436.056ZM449.88 209.256C449.026 209.256 448.29 208.968 447.672 208.392C447.074 207.795 446.776 207.037 446.776 206.12C446.776 205.203 447.074 204.467 447.672 203.912C448.29 203.336 449.026 203.048 449.88 203.048C450.754 203.048 451.49 203.336 452.088 203.912C452.685 204.467 452.984 205.203 452.984 206.12C452.984 207.037 452.685 207.795 452.088 208.392C451.49 208.968 450.754 209.256 449.88 209.256ZM455.055 204.296V200.808L465.615 186.6H471.055L460.719 200.808L458.191 200.072H475.823V204.296H455.055ZM467.119 209V204.296L467.279 200.072V195.88H472.175V209H467.119Z" fill="#333945"/>
</g>
<defs>
<filter id="filter0_dd_9945_64024" x="0" y="52" width="280" height="280" filterUnits="userSpaceOnUse" color-interpolation-filters="sRGB">
<feFlood flood-opacity="0" result="BackgroundImageFix"/>
<feColorMatrix in="SourceAlpha" type="matrix" values="0 0 0 0 0 0 0 0 0 0 0 0 0 0 0 0 0 0 127 0" result="hardAlpha"/>
<feOffset dy="1.12694"/>
<feGaussianBlur stdDeviation="1.94084"/>
<feColorMatrix type="matrix" values="0 0 0 0 0 0 0 0 0 0 0 0 0 0 0 0 0 0 0.035 0"/>
<feBlend mode="normal" in2="BackgroundImageFix" result="effect1_dropShadow_9945_64024"/>
<feColorMatrix in="SourceAlpha" type="matrix" values="0 0 0 0 0 0 0 0 0 0 0 0 0 0 0 0 0 0 127 0" result="hardAlpha"/>
<feOffset dy="9"/>
<feGaussianBlur stdDeviation="15.5"/>
<feColorMatrix type="matrix" values="0 0 0 0 0 0 0 0 0 0 0 0 0 0 0 0 0 0 0.07 0"/>
<feBlend mode="normal" in2="effect1_dropShadow_9945_64024" result="effect2_dropShadow_9945_64024"/>
<feBlend mode="normal" in="SourceGraphic" in2="effect2_dropShadow_9945_64024" result="shape"/>
</filter>
<filter id="filter1_dd_9945_64024" x="311" y="52" width="280" height="280" filterUnits="userSpaceOnUse" color-interpolation-filters="sRGB">
<feFlood flood-opacity="0" result="BackgroundImageFix"/>
<feColorMatrix in="SourceAlpha" type="matrix" values="0 0 0 0 0 0 0 0 0 0 0 0 0 0 0 0 0 0 127 0" result="hardAlpha"/>
<feOffset dy="1.12694"/>
<feGaussianBlur stdDeviation="1.94084"/>
<feColorMatrix type="matrix" values="0 0 0 0 0 0 0 0 0 0 0 0 0 0 0 0 0 0 0.035 0"/>
<feBlend mode="normal" in2="BackgroundImageFix" result="effect1_dropShadow_9945_64024"/>
<feColorMatrix in="SourceAlpha" type="matrix" values="0 0 0 0 0 0 0 0 0 0 0 0 0 0 0 0 0 0 127 0" result="hardAlpha"/>
<feOffset dy="9"/>
<feGaussianBlur stdDeviation="15.5"/>
<feColorMatrix type="matrix" values="0 0 0 0 0 0 0 0 0 0 0 0 0 0 0 0 0 0 0.07 0"/>
<feBlend mode="normal" in2="effect1_dropShadow_9945_64024" result="effect2_dropShadow_9945_64024"/>
<feBlend mode="normal" in="SourceGraphic" in2="effect2_dropShadow_9945_64024" result="shape"/>
</filter>
</defs>
</svg>
