<svg width="570" height="355" fill="none" xmlns="http://www.w3.org/2000/svg"><path opacity=".12" fill-rule="evenodd" clip-rule="evenodd" d="M60.98 72.883c37.58-30.661 98.204-32.305 150.986-45.381C258.29 16.026 302.324-5.25 350.385 1.189c48.799 6.536 85.685 34.254 120.157 60.95 35.715 27.658 69.024 57.449 81.018 94.843 13.179 41.091 20.947 88.577-11.035 123.351-31.509 34.259-95.761 36.403-148.319 49.913-47.095 12.105-92.162 25.737-141.957 24.698-59.06-1.231-122.338-2.932-167.875-31.16C33.831 293.693 4.45 247.149.436 200.086c-3.929-46.071 18.885-93.214 60.543-127.203z" fill="url(#paint0_linear_5391_44375)"/><path fill-rule="evenodd" clip-rule="evenodd" d="M387.635 294.805c-.476-6.502-.7-12.823-.672-18.962 0-6.236.284-12.242.851-18.019 1.93-21.641 7.185-40.306 15.017-56.258a127.567 127.567 0 0133.546-42.517 145.166 145.166 0 0142.27-23.955 190.326 190.326 0 0152.041-10.952 224.724 224.724 0 0118.248-.578c6.106.051 12.356.365 18.478.91a2.55 2.55 0 012.296 2.729v.179c-.247 2.381-5.757 53.512-30.663 99.702-25.196 46.726-70.162 88.436-149.405 70.06a2.484 2.484 0 01-1.386-.851 2.541 2.541 0 01-.561-1.471l-.06-.017zM566.887 128.47c-2.968 1.157-15.145 6.114-32.245 15.766 6.667 1.19 21.777 3.996 28.571 6.165 2.245-10.859 3.308-18.81 3.674-21.931zm-4.184 24.303c-7.84-2.551-28.282-6.122-31.326-6.65a366.243 366.243 0 00-28.266 18.172l53.045 13.954a319.612 319.612 0 006.573-25.467l-.026-.009zm-7.279 27.772l-54.889-14.456a365.65 365.65 0 00-29.448 23.674c10.885 3.316 62.926 19.269 71.744 23.724a272.618 272.618 0 0012.593-32.967v.025zm-13.605 35.153c-8.886-4.549-66.369-22.058-72.832-24.013a359.03 359.03 0 00-24.022 24.005l81.752 26.097c.099.031.194.077.28.136 3.521-5.23 6.735-10.613 9.677-16.072 1.82-3.401 3.521-6.743 5.102-10.136l.043-.017zm-16.199 28.257l-82.415-26.309a334.506 334.506 0 00-18.129 22.108c13.316 4.507 81.547 25.74 81.751 25.8.182.056.349.155.485.289a149.806 149.806 0 0018.308-21.888zm-20.213 23.665c-7.228-2.245-71.088-22.109-81.879-25.85a327.31 327.31 0 00-14.66 21.522c16.157 7.959 70.306 22.032 70.468 22.109a1.2 1.2 0 01.74.561 117.357 117.357 0 0025.331-18.299v-.043zm-28.061 19.719c-8.682-2.287-55.043-14.651-69.728-21.981a331.506 331.506 0 00-8.741 15.119c6.19 2.441 33.911 13.078 51.819 14.915a1.22 1.22 0 011.046.85 109.526 109.526 0 0025.604-8.928v.025zm-30.901 9.932c-18.342-2.865-43.436-12.559-48.716-14.651a333.41 333.41 0 00-6.199 12.262c20.595 4.609 38.809 5.102 54.915 2.389zm-56.335-5.025a315.222 315.222 0 015.739-11.242c-2.474-6.862-4.311-18.75-5.204-25.416-.085.85-.161 1.641-.238 2.466a211.406 211.406 0 00-.808 17.789c0 5.278.17 10.745.511 16.403zm1.275-42.883a1.218 1.218 0 011.055 1.063c0 .06 1.93 17.509 4.991 27.653a295.443 295.443 0 018.435-14.456 236.057 236.057 0 01-7.993-42.865 161.425 161.425 0 00-6.488 28.639v-.034zm7.866-32.661a1.225 1.225 0 01.85 1.054 231.369 231.369 0 007.526 43.061 303.364 303.364 0 0114.183-20.705c-1.428-4.201-9.685-29.261-10.833-47.883a126 126 0 00-5.765 10.485 137.435 137.435 0 00-5.953 13.988h-.008zm13.452-27.279a1.23 1.23 0 01.57.986c.646 16.845 7.908 40.179 10.263 47.347a361.673 361.673 0 0117.858-21.718c-10.868-23.018-12.5-41.768-12.755-46.437a124.326 124.326 0 00-15.97 19.822h.034zm17.993-21.82a1.183 1.183 0 01.349.85c0 .06.23 19.983 12.126 45.655a351.807 351.807 0 0124.098-24.082c-4.872-10.977-9.583-38.265-10.204-42.04a134.401 134.401 0 00-19.03 13.086 126.43 126.43 0 00-7.33 6.539l-.009-.008zm28.538-20.842c.068.122.114.254.136.391 0 .085 4.804 29.201 9.796 41.148a367.963 367.963 0 0129.813-24.013c-3.529-14.065-3.402-29.32-3.402-31.778a174.975 174.975 0 00-16.029 5.034 152.61 152.61 0 00-20.314 9.218zm38.733-14.855c.013.107.013.215 0 .323 0 0-.408 15.799 3.103 30.544a367.458 367.458 0 0128.784-18.563 87.305 87.305 0 01-.34-17.347 196.66 196.66 0 00-31.573 5.051l.026-.008zm34.013-5.23v.187a85.665 85.665 0 00.179 16.029 284.29 284.29 0 0132.313-16.046 232.279 232.279 0 00-15.553-.672 221.08 221.08 0 00-16.981.502h.042z" fill="#A6C86B"/><path fill-rule="evenodd" clip-rule="evenodd" d="M230.45 191.597c-2.253-4.915-6.887-12.568-16.156-20.681-15.706-13.767-26.522-30.943-19.184-39.642 7.084-8.385 29.337 11.139 43.742 55.807l-8.376 4.499-.026.017z" fill="#8EB438"/><path fill-rule="evenodd" clip-rule="evenodd" d="M198.876 135.732a.696.696 0 01-.305-.446.712.712 0 01.101-.532.713.713 0 01.986-.204 51.499 51.499 0 014.958 3.861l-1.582-3.75a.468.468 0 01.851-.366l2.355 5.578a86.418 86.418 0 014.515 4.448l-1.114-4.771a.467.467 0 01.708-.509.479.479 0 01.211.297l1.496 6.394c1.701 1.829 3.402 3.886 5.179 6.191l-.85-4.175a.474.474 0 01.374-.553.454.454 0 01.482.197.486.486 0 01.071.169l1.19 6.096a106.026 106.026 0 015.425 8.172l-.34-4.064a.465.465 0 01.255-.462.482.482 0 01.519.058.462.462 0 01.161.319l.511 6.046a110.465 110.465 0 014.693 9.26l.332-2.398a.468.468 0 01.182-.316.453.453 0 01.354-.084.459.459 0 01.309.181.466.466 0 01.09.346l-.544 3.92c1.1 2.551 2.132 5.241 3.096 8.07l.425-2.381a.477.477 0 01.838-.171.475.475 0 01.097.333l-.74 4.098c.451 1.403.851 2.832 1.284 4.303l-1.284.689a109.2 109.2 0 00-1.275-4.311c-1.021-.579-3.495-1.914-4.822-2.033a.476.476 0 01.094-.944c1.515.336 2.968.91 4.303 1.701a129.25 129.25 0 00-1.123-3.231 20.143 20.143 0 00-5.884-1.701.472.472 0 01-.364-.14.473.473 0 01.224-.798.477.477 0 01.199-.006c1.851.205 3.662.681 5.374 1.412-.85-2.16-1.7-4.252-2.551-6.208-1.7-.314-7.006-1.258-9.523-.986a.462.462 0 01-.519-.417.476.476 0 01.417-.518c2.364-.264 6.972.484 9.141.85-.97-2.1-1.982-4.107-3.019-6.012-1.65-.357-7.066-1.412-11.352-1.02a.48.48 0 01-.519-.426.46.46 0 01.11-.346.462.462 0 01.324-.164 42.306 42.306 0 0110.842.851 91.502 91.502 0 00-1.582-2.73 46.153 46.153 0 00-13.605-1.556.463.463 0 01-.339-.119.473.473 0 01.288-.825 46.606 46.606 0 0112.967 1.344 100.442 100.442 0 00-5.875-8.538c-2.126-.051-10.383-.187-14.533.578a.476.476 0 01-.17-.935c3.844-.706 11.055-.655 13.954-.604a90.163 90.163 0 00-4.345-5.102c-2.041.153-9.558.723-11.378.97a.482.482 0 01-.388-.062.484.484 0 01-.21-.333.487.487 0 01.113-.377.479.479 0 01.358-.164c1.701-.229 7.968-.714 10.689-.918a86.647 86.647 0 00-5.102-5.034c-1.905.272-6.514.91-7.653 1.148a.475.475 0 01-.485-.193.47.47 0 01.289-.726c1.012-.212 4.736-.748 6.93-1.046a52.952 52.952 0 00-5.289-4.175z" fill="#D2DBF0"/><path fill-rule="evenodd" clip-rule="evenodd" d="M252.457 242.056c-6.632-7.925-20.195-20.876-44.915-32.721-39.115-18.708-69.898-45.519-59.2-64.065 10.51-18.206 67.823 9.711 120.552 87.934a99.855 99.855 0 01-16.437 8.852z" fill="#AFDD44"/><path fill-rule="evenodd" clip-rule="evenodd" d="M258.987 233.845c-2.479.175-4.914.75-7.21 1.701a.475.475 0 01-.727-.195.467.467 0 01.024-.418.48.48 0 01.345-.237c2.21-.9 4.539-1.473 6.914-1.701a308.151 308.151 0 00-2.772-3.801c-1.642.119-6.922.51-8.886.799a.471.471 0 01-.481-.224.48.48 0 01-.064-.175.486.486 0 01.4-.536c1.811-.272 6.293-.612 8.367-.765a385.637 385.637 0 00-5.178-6.752 109.038 109.038 0 00-11.828 2.015.48.48 0 01-.517-.176.478.478 0 01-.012-.545.476.476 0 01.316-.206c3.75-.867 7.542-1.545 11.361-2.032a289.07 289.07 0 00-5.188-6.377 154.826 154.826 0 00-16.896 2.865.466.466 0 01-.561-.348.48.48 0 01.055-.359.46.46 0 01.294-.211 158.424 158.424 0 0116.377-2.823 329.771 329.771 0 00-6.726-7.747c-2.279.111-11.701.748-18.546 3.674a.482.482 0 01-.527-.276.478.478 0 01.153-.575c6.377-2.729 14.915-3.503 18.121-3.707a282.768 282.768 0 00-8.104-8.572c-3.078.468-15.434 2.551-20.876 7.237a.473.473 0 01-.775-.394.47.47 0 01.163-.321c5.28-4.532 16.675-6.7 20.663-7.347a268.625 268.625 0 00-8.35-8.01 98.545 98.545 0 00-19.907 9.192.47.47 0 01-.65-.148.474.474 0 01.149-.651 99.629 99.629 0 0119.608-9.116 301.128 301.128 0 00-4.796-4.251c-2.117.646-11.122 3.605-22.746 10.638a.478.478 0 01-.718-.335.475.475 0 01.088-.35.448.448 0 01.137-.123 109.5 109.5 0 0122.364-10.527 212.109 212.109 0 00-10.876-8.631c-2.653 1.156-16.055 7.134-22.9 12.449a.487.487 0 01-.663-.085.477.477 0 01.085-.664c6.573-5.102 19.039-10.774 22.593-12.338a212.276 212.276 0 00-5.952-4.184 139.012 139.012 0 00-21.896 12.381.491.491 0 01-.35.075.49.49 0 01-.305-.185.477.477 0 01.111-.664 138.884 138.884 0 0121.513-12.219 158.757 158.757 0 00-12.653-7.577c-2.262.766-12.466 4.354-19.889 9.643a.477.477 0 01-.664-.11.484.484 0 01.111-.664c6.803-4.855 15.944-8.29 19.294-9.472-1.598-.851-3.146-1.599-4.617-2.305a73.18 73.18 0 00-17.364 6.199.478.478 0 01-.681-.391.463.463 0 01.116-.347.464.464 0 01.148-.112 76.505 76.505 0 0116.386-6.004c-11.905-5.459-19.03-6.462-19.09-6.471a.7.7 0 01-.602-.526.7.7 0 01.276-.751.714.714 0 01.539-.117c2.98.519 5.91 1.293 8.758 2.313a43.755 43.755 0 00-4.532-4.354.469.469 0 01-.221-.629.469.469 0 01.629-.221c.901.442 4.745 4.481 6.063 5.875 2.27.851 4.847 1.846 7.73 3.13l-5.511-8.793a.483.483 0 01.145-.655.476.476 0 01.655.154l6.267 10.008c1.972.918 4.07 1.964 6.292 3.138l-6.037-10.476a.476.476 0 01.178-.647.488.488 0 01.647.17l6.802 11.803a156.379 156.379 0 0110.638 6.369l-5.4-10.935a.478.478 0 01.575-.644.475.475 0 01.276.219l6.114 12.398c1.7 1.133 3.461 2.352 5.28 3.656l-4.634-9.881a.473.473 0 01.256-.56.477.477 0 01.594.16l5.366 11.429a206.724 206.724 0 0110.374 8.155l-3.707-9.72a.456.456 0 01.007-.363.471.471 0 01.265-.249.478.478 0 01.612.272l4.311 11.318a257.114 257.114 0 014.294 3.759l-2.261-7.475a.47.47 0 11.901-.272l2.721 8.971a252.614 252.614 0 018.231 7.866l-2.236-8.359a.472.472 0 11.91-.247l2.661 9.941a257.745 257.745 0 017.432 7.832l-1.649-7.458a.477.477 0 01.711-.475c.103.06.18.157.215.271l1.99 9.082a312.798 312.798 0 016.624 7.61l-.688-6.803a.463.463 0 01.086-.374.482.482 0 01.334-.189.5.5 0 01.196.021.487.487 0 01.285.257c.028.06.042.126.043.192l.85 8.189a459.716 459.716 0 014.855 5.952l.187-5.876a.48.48 0 01.472-.412.475.475 0 01.472.412l-.221 6.999a391.749 391.749 0 014.515 5.858l.332-3.818a.467.467 0 01.328-.405.469.469 0 01.588.308.45.45 0 01.019.182l-.416 4.864a331.276 331.276 0 013.401 4.626l1.267-3.231a.475.475 0 01.885.349l-1.497 3.792a352.858 352.858 0 012.781 3.912c-.417.246-.851.476-1.242.705a356.139 356.139 0 01-2.696-3.716z" fill="#fff"/><path fill-rule="evenodd" clip-rule="evenodd" d="M259.541 332.361c.304-7.56.131-15.132-.519-22.67-3.248-36.378-18.112-62.339-39.175-79.728-21.063-17.389-48.24-26.131-76.208-28.18a183.815 183.815 0 00-29.762.263.989.989 0 00-.892 1.072v.085c.221 2.092 10.085 95.629 69.447 129.158h77.109z" fill="#AFDD44"/><path fill-rule="evenodd" clip-rule="evenodd" d="M119.251 206.995a.894.894 0 00-.354-.066.903.903 0 00-.896.941.903.903 0 00.295.64c.09.082.194.145.309.186.085 0 10.076 3.741 25 12.168-5.103.91-16.778 3.078-21.846 4.728a.917.917 0 00-.586 1.156.904.904 0 00.8.632.912.912 0 00.356-.045c5.952-1.939 21.463-4.643 23.81-5.043a277.758 277.758 0 0121.445 13.785l-40.272 10.595a.918.918 0 10.468 1.768l41.734-10.977a276.966 276.966 0 0122.313 18.001c-8.282 2.551-48.001 14.703-54.506 18.044a.915.915 0 00-.387 1.238.919.919 0 001.237.387c6.709-3.444 50.331-16.735 55.272-18.232a266.652 266.652 0 0118.231 18.206l-62.032 19.805a.906.906 0 00-.537.455.92.92 0 00.742 1.337c.12.01.241-.004.356-.041l62.823-20.051a258.935 258.935 0 0113.759 16.752c-10.102 3.401-61.879 19.558-62.075 19.558a.928.928 0 00-.687.794.935.935 0 00.216.692.907.907 0 00.649.321.912.912 0 00.366-.056c.153-.051 53.971-16.794 62.636-19.778a254.766 254.766 0 0111.131 16.335c-12.236 6.037-53.35 16.709-53.478 16.743a.915.915 0 00-.628 1.11.92.92 0 001.087.667c.128 0 41.667-10.816 53.989-16.956a268.064 268.064 0 016.624 11.471c-3.095 1.225-13.325 5.162-23.81 8.096h6.429c8.503-2.671 15.952-5.545 18.282-6.472a219.737 219.737 0 013.325 6.472h2.049a251.11 251.11 0 00-3.945-7.696c2.704-7.509 4.404-22.959 4.404-22.959a.915.915 0 00-.815-.944.917.917 0 00-1.004.74s-1.463 13.282-3.784 20.978a251.538 251.538 0 00-6.403-10.995 177.184 177.184 0 006.216-34.677.916.916 0 00-.846-.974.924.924 0 00-.663.222.903.903 0 00-.311.624 175.793 175.793 0 01-5.714 32.67 245.058 245.058 0 00-10.766-15.714c1.114-3.291 7.747-23.401 8.291-37.645a.928.928 0 00-.85-.952.918.918 0 00-.953.85c-.493 12.756-6.003 30.485-7.789 35.927a246.996 246.996 0 00-13.605-16.479c9.524-20.179 9.702-36.038 9.702-36.08a.918.918 0 10-1.837-.043c0 .043-.17 15.17-9.2 34.643a262.692 262.692 0 00-18.283-18.274c3.963-8.928 7.79-32.151 7.798-32.219a.903.903 0 00-.419-.925.91.91 0 00-1.014.034.93.93 0 00-.37.593c0 .068-3.648 22.16-7.44 31.225a280.854 280.854 0 00-22.619-18.223c2.917-11.633 2.551-24.328 2.551-24.371a.92.92 0 00-.938-.982.912.912 0 00-.671.315.93.93 0 00-.185.332.929.929 0 00-.034.378 102.855 102.855 0 01-2.356 23.18 278.799 278.799 0 00-21.837-14.09 66.53 66.53 0 00.247-13.325.916.916 0 00-.997-.806.92.92 0 00-.831.976c.33 4.049.284 8.12-.136 12.16-15.604-8.878-26.14-12.789-26.233-12.84z" fill="#fff"/><path fill-rule="evenodd" clip-rule="evenodd" d="M275.194 174.049a139.464 139.464 0 01-42.67-46.42c-18.036-32.152 35.987 1.36 75.145 38.903l-25.51 7.517h-6.965z" fill="#0E2D34"/><path fill-rule="evenodd" clip-rule="evenodd" d="M223.069 249.009c8.375 11.275 31.318 34.864 53.248 59.524l25.986 15.68 8.393-16.114c-14.098-34.779-34.609-71.344-54.507-91.667-34.906-35.604-62.542-7.015-33.12 32.577z" fill="#AFDD44"/><path fill-rule="evenodd" clip-rule="evenodd" d="M302.721 323.387c-23.232-56.726-76.65-108.606-76.837-108.801a.867.867 0 00-.303-.188.879.879 0 00-.697.032.894.894 0 00-.284.215 1.056 1.056 0 00.059 1.42c.196.187 52.722 51.242 75.987 107.084l1.701 1.029.374-.791z" fill="#0E2D34"/><path fill-rule="evenodd" clip-rule="evenodd" d="M265.289 332.887a159.53 159.53 0 01-48.827-53.104c-20.638-36.794 41.182 1.548 85.978 44.507l-29.183 8.597h-7.968z" fill="#0E2D34"/><path fill-rule="evenodd" clip-rule="evenodd" d="M276.599 61.515c5.187 13.759 13.061 46.157 22.356 79.66a62.708 62.708 0 01-24.057 33.572c-20.799-31.463-39.115-67.738-45.824-96.327-13.155-55.952 27.772-69.294 47.525-16.905z" fill="#A6C86B"/><path fill-rule="evenodd" clip-rule="evenodd" d="M286.921 163.665c-29.294-53.146-42.917-117.713-42.976-117.976a1.127 1.127 0 01.773-1.344 1.04 1.04 0 011.102.457c.076.12.126.254.148.393.06.23 13.495 64.065 42.407 116.727-.493.578-.97 1.165-1.454 1.743z" fill="#5F9850"/><path fill-rule="evenodd" clip-rule="evenodd" d="M294.744 326.701a101.861 101.861 0 00-10.468-25.263c-11.904-19.839-32.16-20.851-36.734-15.085-3.291 4.132-7.696 21.258-.851 41.199h38.742a50.93 50.93 0 009.311-.851z" fill="#A6C86B"/><path fill-rule="evenodd" clip-rule="evenodd" d="M283.553 327.553a164.298 164.298 0 00-2.415-4.048c.196-3.605.638-13.741-.136-19.235-.059-.391-.315-.646-.578-.561a.755.755 0 00-.383.85c.672 4.754.391 13.206.187 17.483a141.533 141.533 0 00-11.836-16.156 97.006 97.006 0 00-1.795-17.466c-.085-.383-.365-.587-.629-.459a.848.848 0 00-.306.918 92.735 92.735 0 011.701 15.834 117.174 117.174 0 00-17.492-16.438c-.485-.365-1.08-.076-1.326.647a1.834 1.834 0 00.433 1.955 109.841 109.841 0 019.073 7.654 22.392 22.392 0 00-7.874 2.687.849.849 0 00-.272.952c.102.366.383.553.638.4a22.04 22.04 0 018.852-2.747 125.072 125.072 0 0111.879 13.461 62.262 62.262 0 00-19.558 9.354.897.897 0 00-.221.969c.119.357.417.51.655.323a61.713 61.713 0 0120.068-9.447 147.732 147.732 0 018.75 13.07h2.585z" fill="#5F9850"/><path fill-rule="evenodd" clip-rule="evenodd" d="M498.979 132.789c-12.381 1.854-33.886 4.439-36.564 3.512-3.614-1.259-23.988-22.406-25.757-27.883 0 0-.162-.603.561-.714.723-.11 3.257.204 4.048-.723.791-.927 1.352-.187 1.913 1.004.561 1.19 16.837 14.94 21.063 17.678 4.226 2.738 29.167-8.75 32.441-9.753 15.161-4.618 20.612 14.124 2.295 16.879z" fill="#698B1D"/><path d="M439.498 10.164H307.406c-12.159 0-22.015 9.857-22.015 22.015v273.359c0 12.159 9.856 22.016 22.015 22.016h132.092c12.159 0 22.015-9.857 22.015-22.016V32.179c0-12.158-9.856-22.015-22.015-22.015z" fill="#00000F"/><path d="M432.252 10.164H300.16c-12.159 0-22.015 9.857-22.015 22.015v273.359c0 12.159 9.856 22.016 22.015 22.016h132.092c12.158 0 22.015-9.857 22.015-22.016V32.179c0-12.158-9.857-22.015-22.015-22.015z" fill="#00000F"/><path d="M432.261 13.658H300.16c-10.224 0-18.512 8.288-18.512 18.512v273.368c0 10.223 8.288 18.511 18.512 18.511h132.101c10.224 0 18.512-8.288 18.512-18.511V32.17c0-10.224-8.288-18.512-18.512-18.512z" fill="#3B3D42"/><path d="M432.26 20.66h-132.1c-6.359 0-11.514 5.154-11.514 11.513V305.54c0 6.359 5.155 11.514 11.514 11.514h132.1c6.359 0 11.514-5.155 11.514-11.514V32.173c0-6.359-5.155-11.514-11.514-11.514z" fill="#fff"/><path fill-rule="evenodd" clip-rule="evenodd" d="M366.215 31.157h-39.489a5.102 5.102 0 01-5.103-5.102v-1.887a5.1 5.1 0 00-4.812-3.504l4.812-1.751v-1.846h89.133v1.837l4.813 1.752a5.1 5.1 0 00-4.813 3.512v1.939a5.105 5.105 0 01-5.059 5.102l-39.482-.052z" fill="#3B3D42"/><path fill-rule="evenodd" clip-rule="evenodd" d="M356.258 24.169a1.387 1.387 0 010-2.773h25.723a1.385 1.385 0 110 2.773h-25.723zm-4.634-2.773a1.385 1.385 0 110 2.773h-1.173a1.387 1.387 0 01-.981-2.367c.26-.26.613-.405.981-.405h1.173z" fill="#00000F"/><path fill-rule="evenodd" clip-rule="evenodd" d="M427.346 297.39h-9.26a1.649 1.649 0 00-1.157.485 1.622 1.622 0 00-.476 1.156v9.464c0 .273 0 .426.332.528.493.221.51.042.672-.264a5.901 5.901 0 011.513-1.752 2.602 2.602 0 011.556-.569h.715v.603a1.348 1.348 0 001.352 1.352h5.059a1.81 1.81 0 011.072.4c.431.336.795.752 1.071 1.225v.051c.153.306.281.433.68.263a.43.43 0 00.323-.518c.068-2.288 0-4.745 0-7.033a1.326 1.326 0 00-.399-.952 1.354 1.354 0 00-.868-.451h-.51v-2.364a1.642 1.642 0 00-1.632-1.641l-.043.017zm-7.959 5.867h-.553a.3.3 0 01-.225-.089.319.319 0 01-.068-.103.321.321 0 01.293-.437h.553a.314.314 0 01.314.315.302.302 0 01-.314.314zm1.19-.629h5.102a.32.32 0 01.22.095.32.32 0 01.095.22.31.31 0 01-.092.222.311.311 0 01-.223.092h-5.102a.31.31 0 01-.222-.092.31.31 0 01-.092-.222.323.323 0 01.314-.315zm5.468-2.432h.553a.327.327 0 01.271.319.325.325 0 01-.271.319h-.553a.319.319 0 01-.194-.11.32.32 0 010-.418.324.324 0 01.194-.11zm-1.19.638h-6.021a.319.319 0 01-.194-.11.32.32 0 010-.418.324.324 0 01.194-.11h6.021a.324.324 0 010 .638zm-2.552 5.57h5.034a1.702 1.702 0 001.157-.477 1.622 1.622 0 00.476-1.156v-2.33h.51a.286.286 0 01.213.094.305.305 0 01.085.212v5.527a4.62 4.62 0 00-.425-.365 2.873 2.873 0 00-1.701-.595h-5.059a.277.277 0 01-.213-.094.305.305 0 01-.085-.213v-.603h.008zm-4.251-7.96h9.26a.615.615 0 01.417.171c.109.111.17.26.17.416v5.749a.595.595 0 01-.587.586h-6.803a3.666 3.666 0 00-2.177.766c-.308.235-.593.5-.85.79v-7.882a.595.595 0 01.604-.596h-.034zm-33.368-5.705a3.818 3.818 0 00-3.523 2.351 3.81 3.81 0 00.828 4.154 3.814 3.814 0 005.357 0 3.808 3.808 0 00-2.696-6.505h.034zm-4.251 13.665v-.374a4.252 4.252 0 011.224-2.968 4.257 4.257 0 016.51.651c.467.692.72 1.507.727 2.343v3.069c0 .06-.021.117-.06.162a.266.266 0 01-.162.059h-8.044a.229.229 0 01-.153-.059.223.223 0 01-.068-.162v-2.695l.026-.026zm-1.046 0v2.721a1.283 1.283 0 001.224 1.276h8.104c.338-.001.662-.136.901-.374.238-.24.372-.564.374-.902v-3.069a5.294 5.294 0 00-3.268-4.883 5.29 5.29 0 00-5.762 1.15 5.266 5.266 0 00-1.522 3.707v.349l-.051.025zm3.376-11.828a2.77 2.77 0 013.911 0 2.775 2.775 0 010 3.912 2.773 2.773 0 01-3.886 0 2.774 2.774 0 010-3.912h-.025zm-38.844 3.402a4.751 4.751 0 00-.952.433c-.304.175-.589.38-.851.612l-1.08-.629h-.042a.854.854 0 00-.561-.051.78.78 0 00-.494.374l-.986 1.701a.853.853 0 00-.085.612.85.85 0 00.383.485l1.071.621-.051.323a7.265 7.265 0 000 .723 7.426 7.426 0 000 .731l.051.323-1.071.621a.786.786 0 00-.298 1.097l.986 1.7a.783.783 0 00.494.375.765.765 0 00.603-.077l1.08-.629c.264.23.549.435.851.612.3.179.62.324.952.434v1.25a.848.848 0 00.808.808h1.973a.852.852 0 00.569-.239l.043-.051a.803.803 0 00.196-.518v-1.25c.332-.11.651-.255.952-.434.3-.179.585-.384.85-.612l1.072.629h.051c.176.08.373.098.561.051a.77.77 0 00.493-.374l.986-1.701a.785.785 0 00-.057-.943.795.795 0 00-.266-.205l-1.08-.621c.026-.106.043-.214.051-.323a5.251 5.251 0 000-1.454 1.852 1.852 0 00-.051-.314l1.08-.63a.844.844 0 00.383-.484.856.856 0 00-.085-.613l-.986-1.7a.85.85 0 00-1.106-.298l-1.071.629a5.463 5.463 0 00-.851-.612c-.3-.179-.62-.324-.952-.433v-1.25a.854.854 0 00-.85-.851h-1.973a.85.85 0 00-.57.238l-.042.051a.799.799 0 00-.196.519v1.344h.068zm-.425 1.335c.329-.188.68-.334 1.046-.434a.53.53 0 00.425-.519v-1.386h1.488v1.386a.555.555 0 00.391.51c.382.097.748.246 1.089.443.338.196.65.436.927.714a.524.524 0 00.646.093l1.207-.697.74 1.293-1.173.68a.511.511 0 00-.272.604c.048.19.085.383.11.578.057.392.057.79 0 1.182a4.909 4.909 0 01-.11.578.524.524 0 00.022.336.526.526 0 00.224.251l1.199.697-.74 1.293-1.207-.698a.532.532 0 00-.638.085 4.34 4.34 0 01-1.99 1.157.54.54 0 00-.304.184.54.54 0 00-.121.335v1.386h-1.488v-1.386a.534.534 0 00-.391-.511 4.64 4.64 0 01-1.08-.442 4.467 4.467 0 01-.927-.714.53.53 0 00-.646-.094l-1.208.698-.74-1.293 1.165-.672a.52.52 0 00.281-.612 4.937 4.937 0 01-.119-.578v-1.182c.028-.195.068-.388.119-.578a.517.517 0 00-.247-.587l-1.199-.697.74-1.293 1.208.697a.525.525 0 00.638-.085c.277-.282.592-.525.935-.722zm2.219 1.054a2.766 2.766 0 011.948.791 2.8 2.8 0 01.826 1.981 2.782 2.782 0 01-.826 1.981 2.826 2.826 0 01-1.982.851 2.81 2.81 0 01-2.587-1.733 2.804 2.804 0 01.606-3.055 2.816 2.816 0 011.981-.85l.034.034zm-1.216 1.522a1.748 1.748 0 011.229-.507c.46 0 .902.183 1.229.507a1.752 1.752 0 01-.57 2.853 1.759 1.759 0 01-2.423-1.628 1.75 1.75 0 01.535-1.225zm-41.581-.509a4.644 4.644 0 000 6.565 4.656 4.656 0 003.316 1.343 4.59 4.59 0 002.891-1.012l1.939 1.948a.529.529 0 00.748-.749l-1.947-1.939a4.639 4.639 0 00-.474-6.463 4.644 4.644 0 00-6.473.307zm5.833 5.816a3.595 3.595 0 01-5.051 0 3.612 3.612 0 01-1.054-2.551 3.594 3.594 0 013.25-3.565 3.598 3.598 0 012.898 6.116h-.043z" fill="#8EB438"/><path fill-rule="evenodd" clip-rule="evenodd" d="M416.777 300.424a2.763 2.763 0 10.015-5.526 2.763 2.763 0 00-.015 5.526z" fill="#941759"/><path fill-rule="evenodd" clip-rule="evenodd" d="M417.126 298.98h-.536v-2.041a1.8 1.8 0 01-.697.408v-.493c.167-.057.322-.143.459-.255.152-.117.269-.272.34-.451h.434v2.832z" fill="#fff"/><path fill-rule="evenodd" clip-rule="evenodd" d="M299.056 26.526a.466.466 0 01-.531-.464.477.477 0 01.16-.352.475.475 0 01.371-.111h10.204a.466.466 0 01.489.27.477.477 0 010 .387.477.477 0 01-.292.254.466.466 0 01-.197.016h-10.204zm0 6.683a.453.453 0 01-.33-.13.46.46 0 01-.001-.66.469.469 0 01.331-.136h10.204a.469.469 0 01.432.645.46.46 0 01-.432.282h-10.204zm0-3.341a.466.466 0 01-.489-.27.478.478 0 010-.387.476.476 0 01.292-.255.466.466 0 01.197-.015h10.204a.466.466 0 01.489.27.478.478 0 010 .387.476.476 0 01-.292.254.466.466 0 01-.197.016h-10.204zM421.181 27h5.952v4.822h-5.952a.479.479 0 01-.34-.136.511.511 0 01-.145-.34v-3.86a.489.489 0 01.145-.34.459.459 0 01.34-.145zm11.242-.935h-11.242a1.405 1.405 0 00-.995.417 1.435 1.435 0 00-.416 1.003v3.844a1.42 1.42 0 001.411 1.412h11.242c.361 0 .709-.14.969-.392a1.405 1.405 0 00.417-.994v-3.87a1.44 1.44 0 00-.417-1.003 1.403 1.403 0 00-.969-.417z" fill="#F2FBDD"/><path fill-rule="evenodd" clip-rule="evenodd" d="M26.189 334.544h-4.6a3.502 3.502 0 01-3.495-3.494 3.502 3.502 0 013.495-3.495h4.6a3.502 3.502 0 013.495 3.495 3.502 3.502 0 01-3.495 3.494z" fill="#3B3D42"/><path d="M371.318 199.458h-69.864c-.709 0-1.284.575-1.284 1.284v2.483c0 .709.575 1.284 1.284 1.284h69.864c.709 0 1.284-.575 1.284-1.284v-2.483c0-.709-.575-1.284-1.284-1.284zm0-9.426h-69.864c-.709 0-1.284.575-1.284 1.284v2.483c0 .709.575 1.284 1.284 1.284h69.864c.709 0 1.284-.575 1.284-1.284v-2.483c0-.709-.575-1.284-1.284-1.284zm0-9.418h-69.864c-.709 0-1.284.575-1.284 1.284v2.483c0 .709.575 1.284 1.284 1.284h69.864c.709 0 1.284-.575 1.284-1.284v-2.483c0-.709-.575-1.284-1.284-1.284z" fill="#F2FBDD"/><path fill-rule="evenodd" clip-rule="evenodd" d="M549.335 334.544h-4.6a3.503 3.503 0 01-3.495-3.494 3.501 3.501 0 013.495-3.495h4.6a3.501 3.501 0 013.495 3.495 3.5 3.5 0 01-3.495 3.494z" fill="#00000F"/><path fill-rule="evenodd" clip-rule="evenodd" d="M303.827 107.58h127.346a4.25 4.25 0 014.252 4.252v13.529a4.25 4.25 0 01-1.241 2.993 4.251 4.251 0 01-2.96 1.216H303.827a4.25 4.25 0 01-4.235-4.243v-13.512a4.252 4.252 0 014.251-4.252l-.016.017zm127.346 1.157H303.827a3.072 3.072 0 00-2.169.901 3.092 3.092 0 00-.901 2.177v13.546a3.09 3.09 0 001.895 2.844 3.06 3.06 0 001.175.234h127.346a3.042 3.042 0 002.143-.85 3.063 3.063 0 00.902-2.177v-13.597a3.076 3.076 0 00-3.07-3.078h.025z" fill="#F29C94"/><path fill-rule="evenodd" clip-rule="evenodd" d="M339.982 115.867h4.515a.676.676 0 01.646.46.678.678 0 01-.246.756l-3.682 2.662 1.411 4.311a.67.67 0 01-1.037.757l-3.665-2.67-3.631 2.662a.673.673 0 01-1.038-.757l1.412-4.312-3.682-2.661a.668.668 0 01.002-1.09.675.675 0 01.398-.126h4.54l1.387-4.32a.667.667 0 01.244-.342.666.666 0 01.402-.125.65.65 0 01.638.467l1.386 4.328zm19.703.001h4.541a.671.671 0 01.391 1.216l-3.673 2.662 1.411 4.311a.664.664 0 01-.246.757.657.657 0 01-.791 0l-3.673-2.671-3.665 2.671a.657.657 0 01-.791 0 .666.666 0 01-.247-.757l1.412-4.311-3.674-2.662a.667.667 0 01-.245-.75.666.666 0 01.636-.466h4.541l1.395-4.32a.666.666 0 01.243-.342.666.666 0 01.798 0 .671.671 0 01.243.342l1.394 4.32zm19.677.001h4.541a.67.67 0 01.644.462.668.668 0 01-.244.754l-3.682 2.662 1.411 4.311a.67.67 0 01-1.037.757l-3.665-2.67-3.665 2.67a.674.674 0 01-.798.005.675.675 0 01-.239-.762l1.411-4.311-3.682-2.662a.677.677 0 01.002-1.092.673.673 0 01.398-.124h4.541l1.394-4.319a.672.672 0 011.276 0l1.394 4.319zm19.718 0h4.541a.67.67 0 01.391 1.216l-3.673 2.661 1.411 4.311a.662.662 0 01-.246.757.658.658 0 01-.791 0l-3.665-2.67-3.674 2.67a.653.653 0 01-.79 0 .663.663 0 01-.247-.757l1.412-4.311-3.674-2.661a.664.664 0 01-.247-.757.652.652 0 01.638-.459h4.541l1.395-4.32a.662.662 0 01.646-.468.656.656 0 01.638.468l1.394 4.32z" fill="#FCC100"/><path fill-rule="evenodd" clip-rule="evenodd" d="M418.784 115.867h4.532a.675.675 0 01.644.462.668.668 0 01-.244.754l-3.682 2.662 1.42 4.311a.678.678 0 01-.247.757.661.661 0 01-.799 0l-3.631-2.679-3.665 2.67a.671.671 0 01-1.037-.756l1.411-4.312-3.682-2.661a.68.68 0 01-.246-.757.67.67 0 01.646-.459h4.541l1.394-4.32a.66.66 0 01.638-.468.668.668 0 01.646.468l1.361 4.328z" fill="#76838F"/><path fill-rule="evenodd" clip-rule="evenodd" d="M320.288 115.867h4.54a.665.665 0 01.638.46.65.65 0 01-.246.756l-3.682 2.653 1.411 4.312a.657.657 0 01-.246.756.651.651 0 01-.791 0l-3.674-2.67-3.665 2.67a.646.646 0 01-.395.133.646.646 0 01-.395-.133.66.66 0 01-.247-.756l1.412-4.312-3.674-2.661a.676.676 0 01-.003-1.087.673.673 0 01.394-.129h4.541l1.395-4.32a.652.652 0 01.637-.468.673.673 0 01.402.126.675.675 0 01.245.342l1.403 4.328z" fill="#FCC100"/><path d="M433.546 209.568H301.454c-.709 0-1.284.575-1.284 1.284v2.483c0 .71.575 1.284 1.284 1.284h132.092c.709 0 1.284-.574 1.284-1.284v-2.483c0-.709-.575-1.284-1.284-1.284zm1.641-127.828h-9.499l-2.848-12.96c-.136-.542-.353-1.62-.651-3.234a84.242 84.242 0 01-.631-4.048 55.99 55.99 0 01-.529 3.295 110.812 110.812 0 01-.732 3.601c-.231 1.099-1.214 5.547-2.95 13.344h-9.499L400.484 52h7.75l3.235 14.911c.732 3.296 1.234 5.92 1.505 7.872.176-1.383.488-3.261.936-5.634.461-2.373.888-4.34 1.281-5.9L417.815 52h7.445l2.543 11.249c.434 1.803.875 3.885 1.322 6.244.448 2.36.746 4.123.895 5.29.177-1.506.658-4.117 1.445-7.832L434.76 52h7.75l-7.323 29.74z" fill="#F2FBDD"/><path d="M433.546 75.723H301.454c-.709 0-1.284.575-1.284 1.284v2.483c0 .709.575 1.284 1.284 1.284h132.092c.709 0 1.284-.575 1.284-1.284v-2.483c0-.71-.575-1.284-1.284-1.284z" fill="#F2FBDD"/><path fill-rule="evenodd" clip-rule="evenodd" d="M409.124 191.568a22.718 22.718 0 0022.285-27.142 22.712 22.712 0 00-44.989 4.438 22.745 22.745 0 0022.704 22.704z" fill="#941759"/><path fill-rule="evenodd" clip-rule="evenodd" d="M409.125 180.973l9.625-11.506c7.475-8.937-5.102-14.719-9.625-7.959-4.507-6.76-17.101-.978-9.626 7.959l9.626 11.506z" fill="#fff"/><path fill-rule="evenodd" clip-rule="evenodd" d="M541.411 14.864h-49.694a6.582 6.582 0 00-6.565 6.556v46.301a.72.72 0 00.451.68.731.731 0 00.799-.16l11.157-11.183h43.826a6.58 6.58 0 006.565-6.565V21.42a6.58 6.58 0 00-6.539-6.556z" fill="#941759"/><path fill-rule="evenodd" clip-rule="evenodd" d="M532.058 40.638a4.686 4.686 0 10.016-9.371 4.686 4.686 0 00-.016 9.371zm-15.494 0a4.684 4.684 0 00.909-9.281 4.685 4.685 0 10-.909 9.281zm-15.502 0a4.686 4.686 0 10-4.677-4.676 4.693 4.693 0 004.677 4.677z" fill="#fff"/><path d="M352.041 222.813H304.83a4.66 4.66 0 00-4.66 4.66v36.293a4.66 4.66 0 004.66 4.66h47.211a4.66 4.66 0 004.66-4.66v-36.293a4.66 4.66 0 00-4.66-4.66z" fill="#AFDD44"/><path d="M371.318 171.188h-69.864c-.709 0-1.284.575-1.284 1.284v2.483c0 .71.575 1.285 1.284 1.285h69.864c.709 0 1.284-.575 1.284-1.285v-2.483c0-.709-.575-1.284-1.284-1.284zm0-9.428h-69.864c-.709 0-1.284.575-1.284 1.284v2.483c0 .709.575 1.284 1.284 1.284h69.864c.709 0 1.284-.575 1.284-1.284v-2.483c0-.709-.575-1.284-1.284-1.284zm0-9.419h-69.864c-.709 0-1.284.575-1.284 1.284v2.483c0 .709.575 1.284 1.284 1.284h69.864c.709 0 1.284-.575 1.284-1.284v-2.483c0-.709-.575-1.284-1.284-1.284z" fill="#F2FBDD"/><path d="M369.328 133.837h-65.884a3.274 3.274 0 00-3.274 3.274v6.36a3.274 3.274 0 003.274 3.274h65.884a3.274 3.274 0 003.274-3.274v-6.36a3.274 3.274 0 00-3.274-3.274z" fill="#F5C890"/><path fill-rule="evenodd" clip-rule="evenodd" d="M37.413 334.544h506.565a3.5 3.5 0 003.495-3.494 3.506 3.506 0 00-3.495-3.495H37.413a3.502 3.502 0 00-3.495 3.495 3.502 3.502 0 003.495 3.494z" fill="#3B3D42"/><path fill-rule="evenodd" clip-rule="evenodd" d="M321.597 240.646a7.49 7.49 0 013.129-3.555 5.146 5.146 0 002.551-3.401 20.18 20.18 0 00.485-5.289.69.69 0 01.689-.68h2.024c.155.001.31.024.459.068a3.836 3.836 0 011.913 1.819c.593 1.073.9 2.279.893 3.504a8.05 8.05 0 01-.374 2.406c-.553 1.761-.612 2.713-.417 3.189.111.272.434.332.791.332h5.102a6.206 6.206 0 011.599.204c.69.163 1.315.531 1.794 1.054.547.654.831 1.487.799 2.339a6.88 6.88 0 01-.204 1.564c.34.851 1.335 3.759-.604 5.536.085.85.094 3.061-1.522 4.09a4.553 4.553 0 01-1.641 2.469 4.554 4.554 0 01-2.814.932h-9.354c-1.854 0-3.708-1.284-4.873-2.278v.272a2.1 2.1 0 01-.629 1.505l-.042.042a2.116 2.116 0 01-1.463.587h-4.252a2.134 2.134 0 01-2.134-2.134V241.87c0-.566.223-1.11.621-1.513l.051-.043a2.135 2.135 0 011.462-.578h4.252a2.142 2.142 0 011.709.859v.051zm.425 12.483c.621.655 2.823 2.78 4.873 2.78h9.303a3.273 3.273 0 002.071-.756 3.277 3.277 0 001.126-1.897.678.678 0 01.365-.467c1.361-.689 1.072-2.866 1.021-3.172a.691.691 0 01.263-.697c1.701-1.259.579-3.946.409-4.32a.71.71 0 01-.06-.502c.138-.47.212-.956.221-1.445a2.088 2.088 0 00-.459-1.437 2.246 2.246 0 00-1.122-.638 4.726 4.726 0 00-1.242-.145h-5.102a1.953 1.953 0 01-2.058-1.182c-.314-.756-.28-2.015.374-4.115a6.67 6.67 0 00.315-2.007 5.815 5.815 0 00-.714-2.832 2.555 2.555 0 00-1.131-1.182h-1.395a19.375 19.375 0 01-.536 4.975 6.456 6.456 0 01-3.205 4.209c-2.636 1.429-3.274 5.051-3.351 5.536v9.302l.034-.008zm-2.134-11.973h-4.252a.779.779 0 00-.518.196.789.789 0 00-.221.544v13.35c.001.203.08.398.221.544.145.143.34.222.544.222h4.252a.775.775 0 00.51-.196.76.76 0 00.229-.544v-13.351a.764.764 0 00-.765-.765z" fill="#fff"/><path d="M433.546 273.48H301.454c-.709 0-1.284.575-1.284 1.284v2.483c0 .71.575 1.284 1.284 1.284h132.092c.709 0 1.284-.574 1.284-1.284v-2.483c0-.709-.575-1.284-1.284-1.284zm0 8.875H301.454c-.709 0-1.284.575-1.284 1.284v2.483c0 .71.575 1.284 1.284 1.284h132.092c.709 0 1.284-.574 1.284-1.284v-2.483c0-.709-.575-1.284-1.284-1.284zm-.009-18.98h-69.864c-.709 0-1.284.575-1.284 1.284v2.483c0 .709.575 1.284 1.284 1.284h69.864c.709 0 1.284-.575 1.284-1.284v-2.483c0-.709-.575-1.284-1.284-1.284zm0-9.419h-69.864c-.709 0-1.284.575-1.284 1.284v2.483c0 .709.575 1.284 1.284 1.284h69.864c.709 0 1.284-.575 1.284-1.284v-2.483c0-.709-.575-1.284-1.284-1.284zm0-9.433h-69.864c-.709 0-1.284.575-1.284 1.284v2.483c0 .71.575 1.284 1.284 1.284h69.864c.709 0 1.284-.574 1.284-1.284v-2.483c0-.709-.575-1.284-1.284-1.284z" fill="#F2FBDD"/><path d="M430.628 222.813h-64.047a4.192 4.192 0 00-4.192 4.193v8.137a4.192 4.192 0 004.192 4.193h64.047a4.193 4.193 0 004.193-4.193v-8.137a4.193 4.193 0 00-4.193-4.193z" fill="#8EB438"/><path fill-rule="evenodd" clip-rule="evenodd" d="M301.981 84.6a1.156 1.156 0 011.148 1.157v17.355a1.155 1.155 0 01-1.591 1.069 1.16 1.16 0 01-.714-1.069V85.757a1.159 1.159 0 011.157-1.156zm5.417 0a1.161 1.161 0 01.818.34 1.16 1.16 0 01.338.817v17.355a1.157 1.157 0 01-1.156 1.157 1.154 1.154 0 01-1.148-1.157V85.757a1.157 1.157 0 011.148-1.156z" fill="#F2FBDD"/><path d="M312.865 84.6a1.147 1.147 0 011.148 1.149v17.363a1.148 1.148 0 01-1.965.81 1.157 1.157 0 01-.339-.818V85.757a1.159 1.159 0 011.156-1.156zm5.459 0a1.153 1.153 0 011.061.71c.058.138.087.288.087.439v17.363a1.156 1.156 0 01-1.968.821 1.152 1.152 0 01-.336-.812V85.757a1.149 1.149 0 011.148-1.148l.008-.008z" fill="#F2FBDD"/><path fill-rule="evenodd" clip-rule="evenodd" d="M323.783 84.6a1.152 1.152 0 011.068.715c.058.14.088.29.088.442v17.355a1.16 1.16 0 01-1.156 1.157 1.156 1.156 0 01-1.148-1.157V85.757a1.156 1.156 0 011.148-1.156z" fill="#F2FBDD"/><path d="M329.25 84.6a1.147 1.147 0 011.148 1.149v17.364a1.156 1.156 0 01-1.968.82 1.152 1.152 0 01-.336-.812V85.757a1.145 1.145 0 01.712-1.07 1.15 1.15 0 01.444-.086z" fill="#F2FBDD"/><path fill-rule="evenodd" clip-rule="evenodd" d="M334.71 84.6a1.157 1.157 0 011.157 1.157v17.355a1.16 1.16 0 01-1.157 1.157 1.154 1.154 0 01-1.147-1.157V85.757a1.152 1.152 0 011.147-1.156z" fill="#F2FBDD"/><path d="M340.178 84.6a1.15 1.15 0 011.148 1.149v17.363a1.148 1.148 0 01-1.148 1.148 1.156 1.156 0 01-1.157-1.156V85.757a1.146 1.146 0 011.148-1.148l.009-.008z" fill="#F2FBDD"/><path fill-rule="evenodd" clip-rule="evenodd" d="M345.636 84.6a1.161 1.161 0 011.069.715c.058.14.088.29.088.442v17.355a1.16 1.16 0 01-1.157 1.157 1.154 1.154 0 01-1.148-1.157V85.757a1.157 1.157 0 011.148-1.156zm5.47 0a1.156 1.156 0 011.148 1.157v17.355a1.155 1.155 0 01-1.591 1.069 1.16 1.16 0 01-.714-1.069V85.757a1.159 1.159 0 011.157-1.156zm5.459 0a1.148 1.148 0 011.148 1.157v17.355a1.151 1.151 0 01-1.148 1.157 1.16 1.16 0 01-1.157-1.157V85.757a1.159 1.159 0 011.157-1.156zm5.458 0a1.161 1.161 0 01.818.34 1.16 1.16 0 01.338.817v17.355a1.157 1.157 0 01-1.156 1.157 1.154 1.154 0 01-1.148-1.157V85.757a1.157 1.157 0 011.148-1.156zm5.434 0a1.156 1.156 0 011.148 1.157v17.355a1.154 1.154 0 01-1.148 1.157 1.158 1.158 0 01-1.156-1.157V85.757a1.159 1.159 0 011.156-1.156zm5.494 0a1.152 1.152 0 011.068.715c.058.14.088.29.088.442v17.355a1.16 1.16 0 01-1.156 1.157 1.154 1.154 0 01-1.148-1.157V85.757a1.156 1.156 0 011.148-1.156zm5.467 0a1.156 1.156 0 011.148 1.157v17.355a1.155 1.155 0 01-1.59 1.069 1.148 1.148 0 01-.626-.626 1.16 1.16 0 01-.088-.443V85.757a1.159 1.159 0 011.156-1.156zm5.458 0a1.157 1.157 0 011.157 1.157v17.355a1.16 1.16 0 01-1.157 1.157 1.154 1.154 0 01-1.147-1.157V85.757a1.156 1.156 0 011.147-1.156zm5.468 0a1.156 1.156 0 011.148 1.157v17.355a1.155 1.155 0 01-1.591 1.069 1.155 1.155 0 01-.713-1.069V85.757a1.16 1.16 0 011.156-1.156zm5.459 0a1.148 1.148 0 011.148 1.157v17.355a1.151 1.151 0 01-1.148 1.157 1.163 1.163 0 01-.818-.339 1.157 1.157 0 01-.339-.818V85.757a1.16 1.16 0 011.157-1.156zm5.46 0a1.161 1.161 0 011.069.715c.058.14.088.29.088.442v17.355a1.16 1.16 0 01-1.157 1.157 1.154 1.154 0 01-1.148-1.157V85.757a1.157 1.157 0 011.148-1.156zm5.46 0a1.156 1.156 0 011.148 1.157v17.355a1.155 1.155 0 01-1.148 1.157 1.157 1.157 0 01-1.157-1.157V85.757a1.159 1.159 0 011.157-1.156zm5.468 0a1.152 1.152 0 011.068.715c.058.14.088.29.088.442v17.355a1.16 1.16 0 01-1.156 1.157 1.154 1.154 0 01-1.148-1.157V85.757a1.157 1.157 0 011.148-1.156zm5.465 0a1.157 1.157 0 011.148 1.157v17.355a1.154 1.154 0 01-1.59 1.069 1.144 1.144 0 01-.375-.251 1.144 1.144 0 01-.339-.818V85.757a1.159 1.159 0 011.156-1.156zm5.461 0a1.152 1.152 0 011.068.715c.058.14.088.29.088.442v17.355a1.16 1.16 0 01-1.156 1.157 1.156 1.156 0 01-1.148-1.157V85.757a1.156 1.156 0 011.148-1.156z" fill="#F2FBDD"/><path d="M427.584 84.6a1.147 1.147 0 011.148 1.149v17.363a1.148 1.148 0 01-1.59 1.06 1.161 1.161 0 01-.626-.625 1.163 1.163 0 01-.088-.443V85.757a1.159 1.159 0 011.156-1.156zm5.459 0a1.156 1.156 0 011.156 1.157v17.364a1.157 1.157 0 01-1.156 1.156 1.144 1.144 0 01-1.148-1.148V85.757a1.135 1.135 0 01.333-.817 1.136 1.136 0 01.815-.34z" fill="#F2FBDD"/><path fill-rule="evenodd" clip-rule="evenodd" d="M94.15 215.555c13.673-7.271 17.142 8.546 11.828 21.641-5.315 13.095-32.602 57.143-34.014 74.609-.553 6.803-1.82 6.037-2.9 1.284-5.4-23.682 6.259-87.526 25.085-97.534z" fill="#8EB438"/><path fill-rule="evenodd" clip-rule="evenodd" d="M65.186 155.554c-15.68-14.116-25.51 5.646-22.773 24.71 2.739 19.065 24.252 86.284 20.409 109.847-1.505 9.133.408 8.572 3.401 2.653 14.898-29.532 20.553-117.772-1.037-137.21z" fill="#8EB438"/><path fill-rule="evenodd" clip-rule="evenodd" d="M62.458 296.662c.34.85 1.08.442 2.083-1.02 16.343-54.422-9.116-135.774-9.2-136.055a.85.85 0 00-1.625.502c.085.28 25.893 82.729 8.742 136.573z" fill="#8EB438"/><path fill-rule="evenodd" clip-rule="evenodd" d="M30.943 200.786c-15.196-6.616-17.585 10.553-10.816 24.065 6.768 13.511 39.532 58.239 42.517 76.76 1.156 7.177 2.44 6.284 3.197 1.122 3.767-25.697-13.988-92.84-34.898-101.947z" fill="#A6C86B"/><path fill-rule="evenodd" clip-rule="evenodd" d="M64.022 306.574c.468.57.918.06 1.3-1.275-1.377-44.617-40.552-98.869-40.705-99.048a.674.674 0 00-.91-.117.672.672 0 00-.178.9c.127.17 39.864 55.161 40.493 99.54z" fill="#5F9850"/><path fill-rule="evenodd" clip-rule="evenodd" d="M52.337 296.692h29.192l7.619 6.88-6.225 23.979H50.942l-6.233-23.979 7.627-6.88z" fill="#3B3D42"/><path d="M89.149 287.762h-44.44a2.415 2.415 0 00-2.414 2.415v10.969a2.415 2.415 0 002.415 2.415h44.439a2.415 2.415 0 002.415-2.415v-10.969a2.415 2.415 0 00-2.415-2.415z" fill="#3B3D42"/><path fill-rule="evenodd" clip-rule="evenodd" d="M89.148 303.571l-1.284 4.924H45.993l-1.284-4.924h44.439z" fill="#101537"/><path fill-rule="evenodd" clip-rule="evenodd" d="M528.927 320.552s-1.012-1.786-2.551-.986c-1.539.799-1.769.705-3.189-.239-1.42-.943-4.37.145-4.37.145s-8.606 2.968-9.711 3.444c-1.106.476-1.999 1.36-1.999 3.962l1.199 1.267h20.29s1.02-.892 1.062-1.649c.043-.757.069-4.813-.731-5.944z" fill="#941759"/><path d="M529.667 326.551h-22.576a.706.706 0 00-.706.706v1.037c0 .39.316.706.706.706h22.576c.39 0 .706-.316.706-.706v-1.037a.706.706 0 00-.706-.706z" fill="#fff"/><path fill-rule="evenodd" clip-rule="evenodd" d="M479.082 320.085s-1.08-1.896-2.662-1.046c-1.582.85-1.871.748-3.401-.247-1.531-.995-4.609.145-4.609.145s-9.065 3.138-10.204 3.631c-1.14.493-2.101 1.445-2.101 4.175l1.259 1.344h21.386s1.071-.944 1.122-1.744c.052-.799.043-5.051-.79-6.258z" fill="#941759"/><path d="M479.847 326.414h-23.784a.748.748 0 00-.749.748v1.089c0 .413.335.748.749.748h23.784a.748.748 0 00.748-.748v-1.089a.748.748 0 00-.748-.748z" fill="#fff"/><path fill-rule="evenodd" clip-rule="evenodd" d="M437.577 122.196a6.022 6.022 0 01-1.565-4.014c.21-1.67.115-3.364-.281-5-.654-2.253-1.394-1.513-1.598-.161a19.702 19.702 0 01-.851 3.07s-3.401-2.866-4.753-4.176c-1.352-1.309-2.704-1.19-2.619-.127.085 1.063.493 1.071.085 1.233a.855.855 0 00-.68.784.856.856 0 00.059.364l.17.74s-.901.119-.943.85c.046.574.242 1.125.569 1.599 0 0-1.02.535-.85 1.02a19.378 19.378 0 004.252 4.252c1.7 1.114 4.43 2.466 5.246 3.529.817 1.062 3.759-3.963 3.759-3.963z" fill="#F5AC83"/><path fill-rule="evenodd" clip-rule="evenodd" d="M490.042 183.123c-1.624-.408-3.12-.85-3.665 1.207a345.468 345.468 0 00-10.927 62.688c-.595 9.056 7.152 11.224 10.205 9.617 9.064-4.83 27.287-62.143 27.329-62.466 1.301-9.124-22.942-11.046-22.942-11.046z" fill="#941759"/><path fill-rule="evenodd" clip-rule="evenodd" d="M496.709 186.583c-1.701.11-3.231.17-3.104 2.287a345.316 345.316 0 009.158 62.968c2.254 8.792 10.298 8.435 12.67 5.952 7.109-7.406 6.556-67.542 6.505-67.874-1.573-9.073-25.229-3.333-25.229-3.333zm-21.828 65.256c-.511 15.451.289 48.767-4.108 67.347 1.327 1.616 5.587 2.798 7.458 1.114 1.65-1.488 10.34-44.073 12.041-67.764 0 0 .569-8.452-2.551-11.411-3.121-2.959-12.271-2.67-12.84 10.714z" fill="#941759"/><path fill-rule="evenodd" clip-rule="evenodd" d="M503.733 256.594c4.107 14.073 14.345 43.07 16.76 62.245.723 5.689 7.194 1.701 7.39 1.386 1.105-1.93-3.546-44.728-9.312-67.764 0 0-2.091-8.214-5.952-10.051-3.861-1.836-12.509 1.293-8.886 14.184z" fill="#941759"/><path fill-rule="evenodd" clip-rule="evenodd" d="M522.073 190.632c-5.212 12.44-35.493 10.799-38.129 5.646-.85-1.7-.374-4.251 0-6.581 5.102-29.363-7.542-65.026 12.985-75.145l2.823-1.386a6.526 6.526 0 00-.451-3.503c2.305-.4 4.303 2.891 6.803 2.993l2.373-.902c16.53 8.733 7.78 31.667 10.348 52.645 1.114 9.099 5.621 20.587 3.248 26.233z" fill="#8EB438"/><path fill-rule="evenodd" clip-rule="evenodd" d="M501.666 141.081c-13.724 3.223-29.762 7.5-32.823 6.803-3.954-.85-31.267-15.306-36.123-21.454-.085-.094 3.13-4.133 3.546-4.677.851-1.046.204-1.701.936-.57.731 1.131 26.802 10.562 31.777 12.934 4.974 2.373 23.478-9.439 27.024-10.808 16.598-6.36 25.969 13.002 5.663 17.772z" fill="#8EB438"/><path fill-rule="evenodd" clip-rule="evenodd" d="M479.184 85.691l-.987 5.953s4.864 14.932 7.347 17.466c2.483 2.534 4.516 3.401 8.019 2.075 3.503-1.327 2.406-7.033 2.389-8.759-.017-1.726-5.025-16.726-16.768-16.735z" fill="#F5AC83"/><path fill-rule="evenodd" clip-rule="evenodd" d="M492.644 103.801l-3.402 2.109s5.893 11.054 6.616 11.36c.723.306 12.755-5.212 11.607-6.743-1.148-1.531-2.611-2.781-3.461-4.524a44.196 44.196 0 01-1.701-4.175l-9.659 1.973z" fill="#F5AC83"/><path fill-rule="evenodd" clip-rule="evenodd" d="M494.676 115.632a1.714 1.714 0 00-.349 1.259c.103.434.341 1.607.494 2.355.068.374.127.647.127.647s.978.79 4.252-.851 9.09-5.374 9.43-6.012c.34-.637-1.301-3.342-1.301-3.342s-8.155 4.618-12.653 5.944z" fill="#fff"/><path fill-rule="evenodd" clip-rule="evenodd" d="M478.195 91.635s1.582-3.58 4.32-1.046c2.738 2.534 1.973 7.713 2.33 8.308.357.596.663-3.401 2.67-3.24 2.007.162 1.106 5.222.851 7.118-.256 1.896 2.644 3.809 4.676 4.906 2.033 1.097 10.026-.748 10.961-1.7.936-.953 4.065-14.456.417-23.69-3.648-9.236-13.231-9.788-18.988-5.834-5.102 3.486-5.221-1.225-9.26 2.746-3.512 3.461-.808 10.442 2.023 12.432z" fill="#070725"/><path fill-rule="evenodd" clip-rule="evenodd" d="M478.266 90.63a.212.212 0 01.111.255.197.197 0 01-.247.11s-5.306-1.887-4.821-8.8a.194.194 0 01.204-.18.197.197 0 01.17.137c.008.025.011.05.008.076-.467 6.608 4.558 8.402 4.575 8.402zm11.641-14.42a.187.187 0 01.272 0 .18.18 0 01.059.135.188.188 0 01-.059.136s-3.877 4.082-9.991.85a.172.172 0 01-.062-.043.174.174 0 01-.023-.212.182.182 0 01.113-.1.186.186 0 01.15.015c5.825 3.087 9.541-.773 9.541-.782z" fill="#070725"/><path fill-rule="evenodd" clip-rule="evenodd" d="M478.298 89.142s-.264 6.105-.221 7.228c.042 1.122 1.003 1.896 1.258 3.452.255 1.556-.11 4.796-.042 5.604.068.808 1.905.365 2.389.799a796.02 796.02 0 013.988 5.102c1.412 3.401 4.805.731 6.633-.306l-5.357-6.42-4.694-18.537c-1.956.697-3.495 1.692-3.954 3.078z" fill="#F5AC83"/><path fill-rule="evenodd" clip-rule="evenodd" d="M270.355 197.637c.128 3.147.46 4.201 1.761 5.426 1.811 1.7-.851 3.273-.536 5.102.128.714 1.08.093 1.701-.409.62-.501-.715 1.557.178 1.225a4.74 4.74 0 001.59-1.199s-.289 1.556.306 1.352c2.764-.986 1.701-8.172.485-9.915-.093-.162-3.189-4.141-4.753-5.153-.936-.604-.663 1.522-.663 1.522l-.069 2.049z" fill="#ED7C67"/><path fill-rule="evenodd" clip-rule="evenodd" d="M270.986 191.976c4.711 6.216 5.885 5.544 5.715 9.923v2.551c.059 2.687-2.305.791-2.169-2.866a6.286 6.286 0 01-3.035-5.102c-.154-3.605-.494-4.447-.494-4.447l-.017-.059z" fill="#FCB187"/><path d="M322.567 103.113a19.14 19.14 0 00-27.226 25.855 19.14 19.14 0 0032.827-.762 19.142 19.142 0 002.222-12.704 19.065 19.065 0 00-7.823-12.389z" fill="#F2FBDD"/><path fill-rule="evenodd" clip-rule="evenodd" d="M314.566 113.022h7.075a1.058 1.058 0 011.011.723 1.073 1.073 0 01-.382 1.19l-5.748 4.15 2.193 6.709a1.044 1.044 0 01-.357 1.182 1.096 1.096 0 01-1.258 0l-5.698-4.175-5.722 4.175a1.093 1.093 0 01-1.25 0 1.04 1.04 0 01-.366-1.182l2.202-6.709-5.748-4.15a1.1 1.1 0 01-.383-1.19 1.058 1.058 0 011.012-.723h7.075l2.169-6.735a1.01 1.01 0 011.011-.723 1 1 0 01.987.723l2.177 6.735z" fill="#FCC100"/><path fill-rule="evenodd" clip-rule="evenodd" d="M297.6 130.333h29.159a19.128 19.128 0 01-26.259 4.056 19.367 19.367 0 01-4.039-3.852 3.38 3.38 0 011.139-.204z" fill="#F5C890"/><path fill-rule="evenodd" clip-rule="evenodd" d="M260.102 116.295a10.45 10.45 0 001.7 12.262c9.142 9.966 11.778 27.211-4.855 22.959-16.633-4.252-14.405-21.165-12.925-23.946 1.479-2.78.416-13.214 3.894-13.767 3.478-.552 12.186 2.551 12.186 2.551v-.059z" fill="#282A2D"/><path fill-rule="evenodd" clip-rule="evenodd" d="M220.602 316.445l-.85.757s1.088 8.767.451 12.024h1.845l1.335-9.354-2.781-3.427zm-36.215-5.219l-.85 1.071s1.089 12.338.468 16.93h1.811l1.335-13.163-2.764-4.838z" fill="#070725"/><path fill-rule="evenodd" clip-rule="evenodd" d="M240.757 223.817s-11.37 25.944-13.325 29.583c-1.956 3.64-19.201 29.762-25.102 42.628-5.902 12.865-6.165 12.687-6.106 16.267a55.135 55.135 0 001.48 9.234c.059.417.85 4.609.289 4.754-.561.144-5.612-5.009-5.612-5.009s-2.679-3.486-3.164-4.387c-.484-.902-3.469-3.24-3.469-3.24l-2.211-4.915a13.506 13.506 0 006.65-5.68c2.551-4.354 21.607-49.796 23.716-53.019 2.109-3.223 8.911-12.687 10.952-16.684 2.041-3.996 1.743-18.036 1.743-18.036l14.159 8.504z" fill="#ED7C67"/><path fill-rule="evenodd" clip-rule="evenodd" d="M235.297 218.205s-3.087 24.26-3.402 26.93c-.314 2.67-4.915 59.447-4.345 62.534.57 3.087 4.771 13.384 7.509 15.986 2.738 2.602-1.42 3.155-2.39 3.215-.969.059-11.718-11.412-12.126-11.99a2.238 2.238 0 01-.433-1.25s1.896-6.667 1.828-7.781c-.068-1.114-2.798-44.303-2.245-48.665.553-4.362 1.403-11.905 1.548-14.158.144-2.253-1.131-29.447-.851-31.131.281-1.684 14.864 6.31 14.864 6.31h.043z" fill="#FCB187"/><path fill-rule="evenodd" clip-rule="evenodd" d="M250.109 166.653l-2.61 6.862s.918 2.551.348 7.857c-.569 5.306-4.056 36.565-2.1 53.419 0 0-24.66 12.338-48.231-9.958 0 0 8.137-9.821 11.488-22.568 3.35-12.746 12.755-36.743 22.721-40.178 9.966-3.436 18.384 4.566 18.384 4.566z" fill="#698B1D"/><path fill-rule="evenodd" clip-rule="evenodd" d="M252.193 134.04s-4.464 4.626-5.246 9.354c-.783 4.728 4.328 30.348 4.532 31.811.204 1.463 17.525 24.294 17.525 24.294l3.784-5.774s-14.039-19.727-14.566-22.415c-.527-2.687.221-20.144.221-20.144l-.638-12.1-5.612-5.026z" fill="#941759"/><path fill-rule="evenodd" clip-rule="evenodd" d="M251.276 112.494l.935 5.825s-3.69 5.612-2.194 10.204c1.497 4.592-9.218-2.61-12.16-5.952s-1.7-5.043-1.7-5.043 5.102-4.447 6.309-9.268c1.208-4.822 8.844 4.251 8.844 4.251l-.034-.017z" fill="#fff" stroke="#1E1F31" stroke-width=".57" stroke-miterlimit="10"/><path fill-rule="evenodd" clip-rule="evenodd" d="M254.675 126.743c-.059-.561-.127-4.141-.127-4.141s.561-3.92 2.245-4.626c1.683-.706-4.456-3.92-4.456-3.92s-6.131-1.114-6.803-.306c-.671.808-1.479 4.677-1.479 4.677s.578 6.233 1.556 6.36c.978.128 9.081 1.956 9.081 1.956h-.017z" fill="#ED7C67"/><path fill-rule="evenodd" clip-rule="evenodd" d="M260.723 93.751c1.156.85 2.712 1.88 3.257 4.448.586 2.899.042 7.474.586 9.523.749 2.815 1.522 3.232 1.369 3.784-.153.553-.943.4-1.811.91-.493.306-.51 1.59-.672 2.135-.68 2.219.222 5.051-5.884 4.37a22.951 22.951 0 01-12.049-5.17c-3.291-2.704-3.954-11.904-1.174-14.455 2.781-2.552 8.937-9.652 16.378-5.536v-.009z" fill="#FCB187"/><path fill-rule="evenodd" clip-rule="evenodd" d="M244.039 118.431s-11.25 8.503-12.755 15.893c-1.505 7.389 3.002 20.051-2.738 28.46a8.167 8.167 0 00-1.191 1.701c0 .357 9.354 12.976 20.681 12.279a1.127 1.127 0 00.45-.748c.043-.451 7.653-16.216 9.89-19.031 2.236-2.815 4.133-7.16 4.413-9.354.281-2.194-6.335-12.168-7.032-15.127a92.979 92.979 0 01-1.233-9.839 12.995 12.995 0 01-10.51-4.175l.025-.059z" fill="#941759"/><path fill-rule="evenodd" clip-rule="evenodd" d="M254.548 122.607a12.51 12.51 0 01-8.444-2.398 8.931 8.931 0 01-1.377.238c-.434-.042-6.106 4.303 2.831 6.726 5.953 1.582 6.964 1.999 7.441.953l-.451-5.519z" fill="#fff"/><path fill-rule="evenodd" clip-rule="evenodd" d="M262.916 165.852s-13.087-25.808-14.949-29.099c-1.862-3.291-6.692-4.524-9.209-2.857-2.517 1.667-1.088 9.949 3.401 16.514 4.49 6.564 16.038 20.961 17.237 21.437 1.199.476 2.959.153 3.495-.851.535-1.003.62-4.2.068-5.153l-.043.009z" fill="#941759"/><path d="M302.881 135.292l-8.742 16.156a1.249 1.249 0 00-.133.964 1.237 1.237 0 00.603.763 1.235 1.235 0 00.967.095c.16-.05.307-.132.435-.24.127-.109.23-.242.305-.391l8.818-16.327a7.634 7.634 0 01-2.253-1.054v.034z" fill="#1E1F31"/><path fill-rule="evenodd" clip-rule="evenodd" d="M287.763 148.489c-5.706 3.402-26.089 15.247-27.619 16.199-1.76 1.097-3.733 4.898-1.063 6.965 2.67 2.066 7.653-.621 10.051-2.415 2.092-1.54 15.842-13.266 19.966-16.667a5.534 5.534 0 01-1.335-4.056v-.026z" fill="#941759"/><path fill-rule="evenodd" clip-rule="evenodd" d="M302.355 144.134a11.36 11.36 0 00-1.369-3.231c-.442-.553-.919-1.377-2.798-1.105s-2.364.28-3.18.791c-.817.51-5.051 6.394-5.782 6.998-.094.076-.621.391-1.463.901a5.534 5.534 0 001.335 4.056l1.131-.935c.536-.383 3.546-.561 4.133-.85.586-.289 1.904-3.036 2.491-3.402.587-.365 1.896.613 1.752 1.063.416-.15.791-.394 1.097-.714.159-.339.265-.7.314-1.072.337-.056.662-.168.961-.331.132-.247.222-.514.264-.791a3.243 3.243 0 001.114-1.386v.008z" fill="#FCB187"/><path fill-rule="evenodd" clip-rule="evenodd" d="M263.961 98.07s2.5-7.058-1.004-9.626c-3.843-2.832-19.668-8.367-20.127.85 0 0-5.102-.093-6.514 4.09-1.412 4.184.85 8.87-5.57 12.849-6.42 3.98-17.007 14.456-12.559 25.306 4.447 10.851 18.461 13.818 26.887 7.653 8.427-6.165 6.931-11.573 6.625-14.787-.306-3.214 2.423-6.216 5.476-8.503 3.053-2.288 3.461-5.392 1.377-8.453-2.083-3.061 1.165-8.146 5.409-9.353v-.026zm-66.249 223.461a9.101 9.101 0 011.828.51c.621.298 4.371 3.512 4.805 3.844.433.332 1.632 3.342-1.624 3.342h-5.885c-1.19 0-4.736-4.481-6.02-6.284-1.284-1.803-7.509-9.652-7.857-10.204-.349-.553-.893-4.167.586-4.039 0 0 11.208 13.928 11.446 14.192.48.413 1.072.673 1.701.748 1.037.213 1.003-.85 1.003-2.143l.017.034zm36.759 1.465a7.934 7.934 0 011.846.128c.612.17 4.371 2.636 4.796 2.874.425.238 1.7 3.231-1.616 3.231h-7.951c-1.624 0-2.67-1.896-3.962-3.401-1.293-1.505-7.5-8.138-7.857-8.589-.358-.45-.851-3.988.595-4.158 0 0 11.207 11.684 11.445 11.905a2.55 2.55 0 001.701.399c1.029 0 .987-1.037.987-2.338l.016-.051z" fill="#3B3D42"/><path fill-rule="evenodd" clip-rule="evenodd" d="M323.562 101.699a20.86 20.86 0 108.503 13.512 20.76 20.76 0 00-8.503-13.512zm-15.119-.85a18.18 18.18 0 11-11.761 7.423 18.05 18.05 0 0111.761-7.423z" fill="#1E1F31"/><defs><linearGradient id="paint0_linear_5391_44375" x1="0" y1="0" x2="320.33" y2="508.016" gradientUnits="userSpaceOnUse"><stop stop-color="#A0CA3F"/><stop offset="1" stop-color="#7B9C30"/></linearGradient></defs></svg>