<svg width="570" height="364" fill="none" xmlns="http://www.w3.org/2000/svg"><path opacity=".12" fill-rule="evenodd" clip-rule="evenodd" d="M475.195 268.74c-35.573 28.99-92.957 30.544-142.919 42.907-43.849 10.85-85.53 30.964-131.022 24.878-46.192-6.181-81.107-32.386-113.737-57.626-33.806-26.15-65.336-54.315-76.689-89.67-12.475-38.85-19.827-83.746 10.446-116.623 29.825-32.39 90.644-34.418 140.393-47.19 44.579-11.445 87.237-24.333 134.372-23.351 55.904 1.164 115.801 2.772 158.904 29.46 45.95 28.45 73.761 72.455 77.56 116.951 3.719 43.558-17.875 88.13-57.308 120.264z" fill="url(#paint0_linear_5061_42817)"/><path d="M315.49 313.33c0 2.263-39.919 4.097-89.16 4.097-49.242 0-89.168-1.834-89.168-4.097 0-2.264 39.919-4.098 89.168-4.098 49.248 0 89.16 1.834 89.16 4.098z" fill="#000" opacity=".2"/><path fill-rule="evenodd" clip-rule="evenodd" d="M150.721 209.309c-74.881-1.456-68.208-52.509-38.34-73.506 12.766-8.973 83.695-30.101 133.388-70.121 49.692-40.02 118.307-37.03 150.293 14.22 31.986 51.251.728 94.037-49.918 109.189-39.766 11.914-146.582 21.171-195.423 20.218z" fill="#AFDD44"/><path opacity=".5" fill-rule="evenodd" clip-rule="evenodd" d="M396.062 79.902c-23.718-38.027-67.618-49.49-108.992-36.498 16.011-2.096 32.204-1.609 48.244 4.002 28.187 10.386 53.288 39.752 50.981 76.461-.83 10.414-6.601 18.791-15.705 20.094-12.518 1.79-24.286-3.392-37.117-3.639-35.283.924-60.937 28.616-92.493 43.419-30.043 13.224-61.345 13.573-93.986 8.632-8.922-1.456-18.194-5.633-22.983-14.556-8.289-17.35 4.585-32.917 16.804-40.843 30.567-18.711 67.08-29.206 89.808-60.07-47.888 32.822-106.736 50.813-118.249 58.906-29.84 20.989-36.542 72.05 38.339 73.505 48.827.954 155.657-8.304 195.423-20.217 50.654-15.16 81.883-57.946 49.926-109.196z" fill="#8EB438"/><path d="M339.092 42.21a70.055 70.055 0 017.015 1.857 76.004 76.004 0 016.783 2.532.267.267 0 01.141.142.267.267 0 01.005.2.27.27 0 01-.342.139c-2.227-.903-4.498-1.674-6.783-2.38a68.125 68.125 0 00-6.958-1.761.372.372 0 01-.298-.422.367.367 0 01.151-.24.37.37 0 01.278-.059l.008-.007zM353.851 47c.377.103.746.23 1.107.378.363.15.71.337 1.033.56a.278.278 0 01.125.184.288.288 0 01-.045.217.291.291 0 01-.313.116c-.378-.102-.728-.276-1.091-.407a8.691 8.691 0 01-1.041-.524.277.277 0 01-.129-.182.29.29 0 01.041-.219.306.306 0 01.313-.124zm3.26 1.448c.404.077.782.255 1.099.517a.3.3 0 01-.255.51 2.127 2.127 0 01-.575-.183 2.11 2.11 0 01-.51-.327.316.316 0 01-.067-.099.293.293 0 010-.233.316.316 0 01.067-.098.325.325 0 01.241-.087zm2.563 1.23c.142.018.28.06.407.123.125.07.236.16.328.27a.309.309 0 01-.066.444.275.275 0 01-.196.058 1.127 1.127 0 01-.728-.386.317.317 0 01-.065-.238.333.333 0 01.04-.119.34.34 0 01.083-.094.387.387 0 01.197-.058zm1.738.939a.436.436 0 01.262.051.4.4 0 01.189.19.354.354 0 01-.203.473h-.073a.414.414 0 01-.255-.044.47.47 0 01-.189-.19.377.377 0 01-.03-.14c0-.048.009-.096.027-.14a.38.38 0 01.199-.2h.073zm1.493.814a.43.43 0 01.255.059.47.47 0 01.153.182.37.37 0 01-.001.286.35.35 0 01-.211.194h-.065a.401.401 0 01-.255-.058.384.384 0 01-.174-.197.363.363 0 01.203-.48l.095.014zm.923.437c1.034.633 2.074 1.244 3.093 1.885l2.999 2.045c1.011.655 1.928 1.456 2.911 2.183.982.728 1.921 1.456 2.802 2.293a.272.272 0 010 .371.254.254 0 01-.364 0c-.888-.808-1.878-1.456-2.831-2.183-.954-.728-1.885-1.456-2.911-2.11l-2.984-2.002c-1.019-.626-2.06-1.223-3.086-1.834a.378.378 0 01-.146-.51.367.367 0 01.503-.124l.014-.014zm12.584 9.082c.33.218.641.461.932.729.294.256.568.533.822.83a.267.267 0 01-.044.4.282.282 0 01-.334 0 7.426 7.426 0 01-.932-.728 7.94 7.94 0 01-.815-.822.298.298 0 01-.069-.216.285.285 0 01.105-.2.287.287 0 01.335.008zm2.65 2.366c.178.099.34.224.48.371.146.145.271.309.372.488a.282.282 0 01.023.233.287.287 0 01-.154.175.3.3 0 01-.262 0 2.028 2.028 0 01-.481-.372 2.093 2.093 0 01-.371-.487.307.307 0 01.131-.408.274.274 0 01.262 0zm1.987 2.002c.265.117.475.33.589.597a.297.297 0 01-.018.24.304.304 0 01-.186.153.349.349 0 01-.211 0 1.245 1.245 0 01-.349-.24 1.266 1.266 0 01-.233-.35.327.327 0 01-.02-.124.321.321 0 01.107-.221.31.31 0 01.11-.062.349.349 0 01.211.007zm1.411 1.426c.091.013.174.06.233.131a.454.454 0 01.101.24.374.374 0 01-.017.145.373.373 0 01-.332.248h-.065a.441.441 0 01-.226-.138.495.495 0 01-.109-.233.356.356 0 01.083-.266.35.35 0 01.252-.12l.08-.007zm1.099 1.288a.455.455 0 01.327.386.35.35 0 01-.021.143.352.352 0 01-.336.236h-.072a.418.418 0 01-.219-.131.464.464 0 01-.109-.248.362.362 0 01.216-.347.367.367 0 01.141-.031.248.248 0 01.073-.008z" fill="#fff"/><path d="M384.294 68.752c.772.925 1.58 1.842 2.307 2.78.728.94 1.456 1.907 2.184 2.912 1.455 1.943 2.787 3.937 4.104 5.953.026.028.045.06.056.096a.264.264 0 01-.317.333.265.265 0 01-.168-.138c-1.354-1.987-2.744-3.945-4.206-5.822-.728-.968-1.456-1.907-2.184-2.853-.728-.946-1.55-1.827-2.329-2.737a.385.385 0 010-.524.379.379 0 01.524.044l.029-.044zm9.205 12.49c.264.296.507.61.728.939.21.331.397.677.561 1.033a.29.29 0 01-.161.379.304.304 0 01-.327-.08 8.32 8.32 0 01-1.245-1.966.282.282 0 01.102-.36.283.283 0 01.371.055h-.029zm1.879 3.005c.148.141.275.303.378.48.11.174.194.363.248.56a.291.291 0 01-.042.227.298.298 0 01-.191.13.311.311 0 01-.255-.073 1.926 1.926 0 01-.378-.472 2.34 2.34 0 01-.248-.56.298.298 0 01.488-.292zm1.411 2.431c.113.088.205.2.27.328a.938.938 0 01.138.4.321.321 0 01-.079.23.31.31 0 01-.22.105.35.35 0 01-.196-.058c-.113-.09-.207-.2-.277-.328a1.051 1.051 0 01-.131-.4.308.308 0 01.299-.335.275.275 0 01.196.058zm.99 1.746c.083.04.149.107.189.19.042.08.057.172.044.262a.356.356 0 01-.155.233.357.357 0 01-.275.05.17.17 0 01-.065 0 .418.418 0 01-.233-.443.35.35 0 01.422-.291h.073zm.772 1.515a.507.507 0 01.189.182.44.44 0 01.044.262.348.348 0 01-.157.236.353.353 0 01-.279.047h-.066a.397.397 0 01-.189-.189.424.424 0 01-.044-.255.356.356 0 01.43-.291l.072.008z" fill="#fff"/><path d="M399.104 90.798c1.063 2.183 2.074 4.366 2.948 6.623l.64 1.695.582 1.71c.408 1.143.728 2.308 1.063 3.472a.26.26 0 01-.023.195.259.259 0 01-.152.125.273.273 0 01-.2-.024.27.27 0 01-.127-.158c-.357-1.142-.692-2.292-1.114-3.413l-.611-1.688-.677-1.667c-.881-2.227-1.907-4.367-2.977-6.55a.386.386 0 01-.049-.14.37.37 0 01.197-.372.368.368 0 01.29-.017.363.363 0 01.21.201v.008zm5.539 14.504c.15.364.272.739.364 1.121.096.378.167.762.211 1.15a.294.294 0 01-.011.114.29.29 0 01-.147.17.286.286 0 01-.111.029.305.305 0 01-.284-.182 7.95 7.95 0 01-.364-1.106 7.737 7.737 0 01-.204-1.15.287.287 0 01.207-.32.283.283 0 01.339.174zm.822 3.457a2.436 2.436 0 01.24 1.193.274.274 0 01-.036.111.293.293 0 01-.428.092.32.32 0 01-.096-.101 2.37 2.37 0 01-.197-.575 2.11 2.11 0 01-.036-.604.3.3 0 01.327-.269.31.31 0 01.132.049.303.303 0 01.094.104zm.516 2.773a1.236 1.236 0 01.146.829.302.302 0 01-.153.186.296.296 0 01-.24.018.291.291 0 01-.168-.124 1.032 1.032 0 01-.138-.393 1.034 1.034 0 010-.422.315.315 0 01.393-.218.295.295 0 01.16.124zm.271 2.001c.064.064.102.15.109.24a.441.441 0 01-.051.262.37.37 0 01-.232.162.367.367 0 01-.278-.053l-.058-.043a.473.473 0 01-.102-.24.478.478 0 01.051-.255.351.351 0 01.225-.17.362.362 0 01.277.046l.059.051zm.189 1.674c.059.07.095.157.102.248a.414.414 0 01-.051.255.367.367 0 01-.233.161.372.372 0 01-.145-.001.365.365 0 01-.132-.059.214.214 0 01-.058-.05.444.444 0 01-.051-.495.358.358 0 01.509-.102l.059.043zm.196 1.011a85.8 85.8 0 01.153 3.639v1.812c0 .604 0 1.209-.073 1.813-.094 1.208-.167 2.416-.364 3.638l-.247 1.791-.349 1.783a.263.263 0 01-.107.164.258.258 0 01-.192.04.263.263 0 01-.164-.107.278.278 0 01-.039-.092.28.28 0 01-.001-.1l.27-1.783.211-1.783c.167-1.186.211-2.387.284-3.581.043-.589.058-1.193.05-1.79v-1.79a82.556 82.556 0 00-.189-3.581.363.363 0 01.078-.27.351.351 0 01.25-.13.368.368 0 01.271.088.358.358 0 01.129.254l.029-.015zm-1.07 15.51a5.747 5.747 0 01-.19 1.164 8.637 8.637 0 01-.356 1.121.288.288 0 01-.163.153.286.286 0 01-.351-.127.296.296 0 01-.039-.172c.038-.385.106-.767.203-1.142.095-.379.211-.728.342-1.114a.28.28 0 01.151-.162.276.276 0 01.221-.005.307.307 0 01.182.284zm-.844 3.434a2.232 2.232 0 01-.364 1.158.3.3 0 01-.475.008.303.303 0 01-.064-.169c.004-.202.038-.404.102-.596a2.12 2.12 0 01.255-.553.302.302 0 01.189-.131.307.307 0 01.226.043.29.29 0 01.131.24zm-.836 2.694c.012.145-.005.291-.051.429a1.092 1.092 0 01-.226.364.318.318 0 01-.451 0 .331.331 0 01-.08-.189 1.107 1.107 0 01.065-.415 1.29 1.29 0 01.204-.364.3.3 0 01.343-.073.294.294 0 01.101.073.329.329 0 01.095.175zm-.685 1.877a.44.44 0 01-.182.473.355.355 0 01-.403-.029.357.357 0 01-.092-.109.364.364 0 010-.066.45.45 0 010-.262.464.464 0 01.168-.211.372.372 0 01.502.131.9.9 0 01.007.073zm-.59 1.594c.03.085.03.177 0 .262a.469.469 0 01-.175.204.35.35 0 01-.28.03.363.363 0 01-.215-.183.364.364 0 010-.066.393.393 0 010-.262.443.443 0 01.175-.196.364.364 0 01.279-.033.37.37 0 01.216.178v.066zm-.35.975c-.502 1.099-.953 2.227-1.535 3.29-.583 1.062-1.078 2.183-1.718 3.187-1.208 2.096-2.547 4.112-3.944 6.077a.278.278 0 01-.372.066.275.275 0 01-.069-.075.269.269 0 01-.034-.096.27.27 0 01.052-.193c1.354-1.98 2.635-4.003 3.792-6.106.619-1.019 1.121-2.111 1.667-3.173.546-1.063 1.004-2.183 1.492-3.261a.379.379 0 01.487-.203.364.364 0 01.223.346.36.36 0 01-.034.141h-.007zm-7.802 13.442a7.251 7.251 0 01-.626.997 6.191 6.191 0 01-.727.888.299.299 0 01-.415 0 .29.29 0 01-.037-.327c.192-.338.401-.666.626-.983.223-.314.466-.613.728-.895a.309.309 0 01.415 0 .281.281 0 01.036.32zm-2.138 2.81c-.082.186-.19.36-.32.516a1.874 1.874 0 01-.444.422.288.288 0 01-.109.044.288.288 0 01-.224-.047.285.285 0 01-.082-.084.313.313 0 010-.269c.08-.186.185-.36.313-.517.126-.162.276-.304.444-.422a.307.307 0 01.415.087.33.33 0 01.007.27zm-1.769 2.19a1.077 1.077 0 01-.219.364c-.091.11-.205.199-.334.262a.351.351 0 01-.123.029.316.316 0 01-.299-.197.277.277 0 010-.204.943.943 0 01.211-.363c.095-.105.208-.191.334-.255a.322.322 0 01.245-.01.308.308 0 01.177.17.33.33 0 01.008.204zm-1.332 1.499a.455.455 0 01-.102.248.471.471 0 01-.225.131.362.362 0 01-.274-.062.37.37 0 01-.149-.237.357.357 0 010-.08.461.461 0 01.11-.24.408.408 0 01.225-.131.351.351 0 01.373.163.355.355 0 01.049.135.224.224 0 01-.007.073zm-1.127 1.259a.521.521 0 01-.109.247.417.417 0 01-.226.131.333.333 0 01-.144-.002.338.338 0 01-.226-.167.332.332 0 01-.045-.209.466.466 0 01.109-.248.48.48 0 01.226-.131.363.363 0 01.368.171.34.34 0 01.047.208zm-256.397 41.564c.366.02.73.061 1.091.124.363.064.72.154 1.07.269.408.153.553.371.32.488a.965.965 0 01-.414.073 7.098 7.098 0 01-1.107-.11 6.05 6.05 0 01-1.07-.291c-.407-.16-.538-.378-.305-.495a.992.992 0 01.415-.058zm4.118.713c.368-.002.736.025 1.099.081a9.01 9.01 0 011.078.225c.414.131.567.342.334.473a.986.986 0 01-.407.087 5.606 5.606 0 01-1.106-.065 7.052 7.052 0 01-1.085-.24c-.415-.138-.553-.357-.327-.48.131-.054.272-.081.414-.081zm4.142.546a7.854 7.854 0 011.106.036c.366.034.729.097 1.084.189.423.124.575.32.35.466a1.033 1.033 0 01-.4.102 7.054 7.054 0 01-1.107 0 6.955 6.955 0 01-1.091-.189c-.422-.124-.575-.342-.35-.466.126-.072.264-.119.408-.138zm7.408.612a8.781 8.781 0 012.184.109c.422.087.589.291.371.436a.978.978 0 01-.393.124 6.79 6.79 0 01-2.184-.109c-.422-.102-.589-.298-.363-.444a.903.903 0 01.385-.116zm5.285.21c.217-.051.439-.073.662-.066.226.003.451.035.669.095.423.138.481.371.124.517a.672.672 0 01-.138.051c-.22.047-.445.069-.67.065a2.645 2.645 0 01-.662-.094c-.429-.139-.488-.372-.131-.517l.146-.051zm4.475.081c.216-.053.439-.078.662-.073a2.64 2.64 0 01.669.08c.423.131.488.364.139.517l-.139.051a2.734 2.734 0 01-1.339 0c-.422-.131-.487-.364-.138-.517l.146-.058zm-58.95-20.582a29.357 29.357 0 005.881 7.008 35.127 35.127 0 007.656 5.029 57.336 57.336 0 008.573 3.385 108.51 108.51 0 008.908 2.51c.415.102.728.299.67.452-.058.152-.393.189-.801.102a91.67 91.67 0 01-8.988-2.409 57.448 57.448 0 01-8.689-3.392 36.193 36.193 0 01-7.788-5.182 28.758 28.758 0 01-5.91-7.241c-.218-.378-.283-.728-.138-.801.146-.072.415.204.626.539zm-1.463-1.667a3.67 3.67 0 01-.495-.852 5.365 5.365 0 01-.299-.895c-.087-.429.066-.64.292-.465.09.071.171.154.24.247.168.259.314.532.436.815.102.291.226.575.313.873.102.415 0 .641-.262.481a1.043 1.043 0 01-.225-.204zm-1.346-3.304a3.518 3.518 0 01-.364-.873 4.963 4.963 0 01-.19-.925c0-.436.146-.633.35-.422.08.082.146.175.196.277.14.275.251.562.335.859.086.296.154.597.204.902.058.429-.08.633-.313.451a.945.945 0 01-.218-.269zm-.946-3.443c-.168-.611-.284-1.237-.4-1.863a18.441 18.441 0 01-.248-1.892 24.602 24.602 0 01-.065-3.806c0-.43.189-.728.342-.655.153.073.21.335.225.662.059 1.252.088 2.496.226 3.734 0 .625.138 1.237.197 1.855.058.619.181 1.23.276 1.849.073.415 0 .728-.167.728-.168 0-.291-.284-.386-.612zm-.524-10.778a1.918 1.918 0 010-.575c.019-.191.07-.378.153-.553.203-.407.45-.378.553.051a1.82 1.82 0 010 .561c-.023.187-.07.37-.139.545-.196.408-.444.401-.56 0l-.007-.029zm.582-3.769a1.845 1.845 0 01.262-1.106c.262-.379.502-.306.546.123.01.189-.01.378-.058.561a2.094 2.094 0 01-.197.524c-.24.378-.487.349-.553-.095v-.007z" fill="#fff"/><path clip-rule="evenodd" d="M296.487 194.607c-46.039 6.55-109.421 11.2-144.289 10.516-16.856-.327-30.298-3.238-39.97-8.624-8.085-4.534-13.165-10.574-15.101-17.976-3.537-13.551 4.184-30.145 18.74-40.384 3.639-2.54 12.882-6.398 24.614-11.281 28.849-12.016 72.443-30.166 106.765-57.807 17.088-13.74 36.84-22.583 57.116-25.48 36.389-5.189 69.015 9.272 87.37 38.667 11.484 18.413 14.934 36.163 10.261 52.771-3.202 11.383-10.072 21.637-20.421 30.487-10.007 8.558-23.049 15.4-37.706 19.795-10.524 3.203-26.906 6.39-47.379 9.316z" stroke="#fff" stroke-width=".73" stroke-miterlimit="10"/><path d="M107.993 303.33h288.368s.844-22.073-19.352-14.803c0 0 8.413-19.402-10.917-23.813-19.329-4.41-31.163 17.423-31.163 17.423s-.473-35.908-22.015-40.457c-21.543-4.548-31.113 30.742-31.113 30.742s-8.406-51.178-34.103-48.871c-25.698 2.307-21.07 43.216-21.07 43.216s-53.397-38.216-67.152-21.761c-13.755 16.455 1.259 30.996 1.259 30.996s-22.306-24.861-31.134-20.05 1.681 26.928 1.681 26.928-13.042-7.693-16.404-1.303 4.629 14.039 4.629 14.039-11.245-1.812-11.514 7.714z" fill="#8EB438"/><path d="M120.358 282.195a.685.685 0 01.422-.072.722.722 0 01.4.167.604.604 0 010 .655.431.431 0 01-.167.189.784.784 0 01-.393.073.773.773 0 01-.364-.16.608.608 0 01-.022-.67.445.445 0 01.124-.182zm1.55.234a.722.722 0 01.422 0 .637.637 0 01.364.218.592.592 0 010 .648.386.386 0 01-.189.174.716.716 0 01-.4 0 .726.726 0 01-.35-.203.628.628 0 010-.648.38.38 0 01.153-.189zm1.492.385a.838.838 0 01.422 0 .728.728 0 01.342.241.609.609 0 01-.073.647.4.4 0 01-.204.16.76.76 0 01-.407 0 .652.652 0 01-.328-.232.625.625 0 01.044-.648.436.436 0 01.204-.168zm2.547.932a.651.651 0 01.415.044c.131.056.242.15.321.269a.604.604 0 01-.131.64.406.406 0 01-.212.139.727.727 0 01-.407-.044.733.733 0 01-.313-.262.625.625 0 01.116-.64.391.391 0 01.211-.146zm1.754.815a.35.35 0 01.135-.028.35.35 0 01.135.028.321.321 0 01.167.211.77.77 0 01-.054.405.768.768 0 01-.252.323l-.072.043a.333.333 0 01-.27 0 .32.32 0 01-.16-.211.732.732 0 01.291-.728l.08-.043zm1.441.728a.325.325 0 01.134-.028c.047 0 .093.009.135.028a.32.32 0 01.153.226.732.732 0 01-.342.727l-.08.044a.29.29 0 01-.362-.106.287.287 0 01-.046-.127.725.725 0 01.321-.728l.087-.036zm-6.943 8.442a15.812 15.812 0 01-2.322-2.46 17.118 17.118 0 01-1.819-2.911 7.778 7.778 0 01-.852-3.399v-.458c0-.153.066-.306.095-.459.069-.304.174-.6.313-.88.072-.176.181-.335.32-.466.144-.126.313-.223.495-.284.303-.099.62-.148.939-.145.167 0 .298.189.291.422-.008.233-.109.407-.24.429a2.189 2.189 0 00-.663.146.444.444 0 00-.174.116.116.116 0 00-.037.058.766.766 0 00-.058.146 3.007 3.007 0 00-.204.669c0 .117-.043.233-.058.35v.364a6.902 6.902 0 00.801 2.911 16.945 16.945 0 001.659 2.736 20.453 20.453 0 002.096 2.475c.102.109.058.334-.109.502-.168.167-.364.233-.473.138zm1.084-.007c.12.011.233.063.321.145a.548.548 0 01.16.32.667.667 0 01-.386.568.457.457 0 01-.531-.102.53.53 0 01-.16-.313.656.656 0 01.385-.567.46.46 0 01.211-.051zm.91.88a.57.57 0 01.328.146.542.542 0 01.16.32.65.65 0 01-.386.561.486.486 0 01-.211.051.531.531 0 01-.48-.466.649.649 0 01.589-.612zm.917.874a7.625 7.625 0 011.951 1.87.438.438 0 01-.16.517.413.413 0 01-.43.102 8.074 8.074 0 01-1.055-.852 6.99 6.99 0 01-.895-1.026.435.435 0 01.167-.516.384.384 0 01.422-.095zm2.781 2.67a.295.295 0 01.232.058.246.246 0 01.059.226.835.835 0 01-.575.611.233.233 0 01-.288-.157.229.229 0 01-.003-.119.824.824 0 01.575-.611v-.008zm.997.925a.229.229 0 01.119-.002.237.237 0 01.172.279.835.835 0 01-.575.611.269.269 0 01-.233-.058.24.24 0 01-.057-.105.233.233 0 01-.001-.12.803.803 0 01.567-.605h.008zm15.974-32.583c.213.079.41.195.582.342.176.149.322.329.43.532a.444.444 0 01.025.369.444.444 0 01-.101.159.438.438 0 01-.477.105 1.674 1.674 0 01-.583-.342 1.793 1.793 0 01-.429-.524.46.46 0 01.226-.641.569.569 0 01.327 0zm1.922 1.652c.216.079.416.197.589.35.173.147.319.325.43.524a.447.447 0 01-.081.53.458.458 0 01-.16.103.475.475 0 01-.32 0 1.978 1.978 0 01-1.011-.873.455.455 0 01-.023-.371.478.478 0 01.255-.27.549.549 0 01.321.007zm1.928 1.659c.215.075.413.191.582.342.176.146.322.324.43.524a.458.458 0 01-.075.534.46.46 0 01-.158.107.53.53 0 01-.32 0 2.073 2.073 0 01-.59-.342 1.932 1.932 0 01-.429-.531.453.453 0 01.08-.531.452.452 0 01.48-.103zm3.42 2.919c.217.072.417.186.59.335.177.146.325.324.436.524a.447.447 0 01.029.37.454.454 0 01-.254.271.533.533 0 01-.321 0 1.742 1.742 0 01-.589-.335 1.933 1.933 0 01-.437-.524.461.461 0 01.226-.641.488.488 0 01.32 0zm2.46 2.046c.142.014.276.07.386.16a.815.815 0 01.24.349.526.526 0 01-.429.655h-.11a.73.73 0 01-.625-.517.497.497 0 01.062-.42.503.503 0 01.36-.227h.116zm2.089 1.724a.719.719 0 01.626.502.508.508 0 01-.056.426.524.524 0 01-.359.236h-.109a.755.755 0 01-.393-.16.813.813 0 01-.24-.349.52.52 0 01-.019-.218.518.518 0 01.229-.361.505.505 0 01.321-.076zm-27.117-9.606a15.277 15.277 0 01-.094-5.75 5.09 5.09 0 01.589-1.455 2.814 2.814 0 011.281-1.099 2.58 2.58 0 01.844-.139c.262 0 .517.051.779.081.248.03.492.086.728.167.233.08.488.138.728.233a23.885 23.885 0 014.876 3.013 99.333 99.333 0 014.33 3.639.441.441 0 01.066.626.461.461 0 01-.619 0 201.483 201.483 0 00-4.367-3.436 22.937 22.937 0 00-4.657-2.823 5.106 5.106 0 00-.612-.204 2.382 2.382 0 00-.604-.153l-.597-.073a1.69 1.69 0 00-.509.073h-.08l-.102.073a1.092 1.092 0 00-.211.153 2.17 2.17 0 00-.357.414c-.21.346-.367.722-.465 1.114a15.47 15.47 0 00-.066 5.378.45.45 0 01-.364.51.447.447 0 01-.329-.064.45.45 0 01-.122-.12.458.458 0 01-.066-.158zm.96 1.164c.112.156.189.335.226.524.04.187.04.381 0 .568a.469.469 0 01-.424.36.448.448 0 01-.195-.026.55.55 0 01-.211-.152 1.414 1.414 0 01-.225-1.121.461.461 0 01.242-.298.463.463 0 01.587.145zm.445 2.074c.12.15.207.324.255.51.04.189.04.385 0 .575a.472.472 0 01-.409.374.465.465 0 01-.196-.018.435.435 0 01-.218-.138 1.452 1.452 0 01-.262-.524 1.219 1.219 0 010-.582.475.475 0 01.223-.311.462.462 0 01.381-.039c.088.03.166.083.226.153zm.545 2.067c.306.728.524 1.419.779 2.132.255.713.466 1.456.633 2.184a.43.43 0 01-.043.341.431.431 0 01-.277.204.442.442 0 01-.48-.247 15.427 15.427 0 01-.866-2.14 15.717 15.717 0 01-.568-2.241.435.435 0 01.364-.517.454.454 0 01.458.284zm2.104 6.099a.53.53 0 01.24.269.533.533 0 010 .357.536.536 0 01-.304.345.557.557 0 01-.46-.011.54.54 0 01-.247-.269.55.55 0 01.135-.586.545.545 0 01.592-.105h.044zm.916 2.081a.55.55 0 01.248.254.533.533 0 010 .357.563.563 0 01-.503.403.557.557 0 01-.225-.032.548.548 0 01-.216-.704.549.549 0 01.682-.278h.014zm237.51-9.57c.233.089.445.223.626.393.178.176.321.383.423.612a.445.445 0 01-.313.611.504.504 0 01-.313-.044 1.87 1.87 0 01-.546-.385 2.015 2.015 0 01-.422-.532.46.46 0 01.056-.535.453.453 0 01.155-.112.523.523 0 01.334-.008zm1.871 2.038c.2.151.366.342.488.56.131.221.206.471.218.728a.452.452 0 01-.022.193.455.455 0 01-.266.269.448.448 0 01-.192.026.49.49 0 01-.291-.131 3.098 3.098 0 01-.4-.532 2.164 2.164 0 01-.24-.626.452.452 0 01.727-.473l-.022-.014zm1.18 2.489a2.1 2.1 0 01.327.662c.047.24.047.487 0 .728a.436.436 0 01-.069.18.434.434 0 01-.321.197.432.432 0 01-.192-.021.501.501 0 01-.255-.203 1.945 1.945 0 01-.255-.626 1.995 1.995 0 01-.072-.67.473.473 0 01.531-.436.464.464 0 01.306.189zm.588 4.774c.078.234.106.482.081.728a2.049 2.049 0 01-.19.728.442.442 0 01-.662.167.543.543 0 01-.182-.269 1.838 1.838 0 01-.058-.684c.022-.23.076-.455.16-.67a.47.47 0 01.27-.255.465.465 0 01.37.029.535.535 0 01.211.226zm-.429 3.37a.732.732 0 010 .444.788.788 0 01-.211.393.501.501 0 01-.772-.102.516.516 0 01-.058-.102.801.801 0 010-.429.821.821 0 01.204-.372.49.49 0 01.401-.153.499.499 0 01.37.219.495.495 0 01.066.102zm-.763 2.765a.732.732 0 010 .444.829.829 0 01-.262.364.523.523 0 01-.197.077.51.51 0 01-.531-.274l-.044-.109a.816.816 0 010-.422.73.73 0 01.248-.35.498.498 0 01.42-.102.523.523 0 01.202.092.51.51 0 01.142.171l.022.109zm-26.156-14.446a24.665 24.665 0 015.095-2.984 20.303 20.303 0 015.756-1.455 19.291 19.291 0 015.932.393 17.548 17.548 0 015.516 2.183.423.423 0 01.222.272.425.425 0 01-.054.347.468.468 0 01-.612.102 17.874 17.874 0 00-5.291-1.9 18.169 18.169 0 00-5.611-.32c-1.878.173-3.72.624-5.465 1.339a27.262 27.262 0 00-4.993 2.722.459.459 0 01-.64-.073.465.465 0 01.145-.626zm-.626 1.418a1.448 1.448 0 01-.371.459 1.593 1.593 0 01-.517.276.468.468 0 01-.596-.378.564.564 0 01.043-.269c.087-.186.217-.348.379-.473.157-.132.341-.229.538-.284a.461.461 0 01.575.407.535.535 0 01-.051.262zm-1.675 1.42a1.362 1.362 0 01-.342.48 1.39 1.39 0 01-.502.313.45.45 0 01-.385-.029.453.453 0 01-.226-.313.556.556 0 010-.269c.077-.189.197-.358.349-.495.148-.139.325-.246.517-.313a.454.454 0 01.527.178c.037.056.06.12.069.186a.45.45 0 01-.007.262zm-1.578 1.528c-.473.634-1.004 1.209-1.499 1.805a22.133 22.133 0 01-1.587 1.74.415.415 0 01-.144.1.424.424 0 01-.344 0 .428.428 0 01-.145-.1.454.454 0 01-.036-.553 15.76 15.76 0 013.144-3.639.435.435 0 01.329-.115.445.445 0 01.311.158.474.474 0 01-.029.604zm-4.265 5.145a.627.627 0 01-.102.357.58.58 0 01-.299.218.543.543 0 01-.727-.458.641.641 0 01.102-.364.57.57 0 01.305-.218.533.533 0 01.481.05.535.535 0 01.247.415h-.007zm-1.282 1.973a.547.547 0 01-.08.357.567.567 0 01-.276.24.546.546 0 01-.728-.408.569.569 0 01.08-.371.553.553 0 01.284-.24.52.52 0 01.237-.038.525.525 0 01.491.46h-.008zm53.02 12.416a.206.206 0 01.175.109.223.223 0 01-.051.204 1.27 1.27 0 01-.583.269.614.614 0 01-.218 0 .183.183 0 01-.099-.03.192.192 0 01-.068-.079.192.192 0 01.051-.189 1.4 1.4 0 01.575-.284.665.665 0 01.218 0zm.225.59a.198.198 0 01.16.123.195.195 0 01-.058.197 1.355 1.355 0 01-.589.247.576.576 0 01-.219 0 .16.16 0 01-.174-.216.16.16 0 01.072-.082c.169-.135.37-.225.583-.262a.654.654 0 01.225-.007zm.189.603c.038 0 .074.013.104.035a.184.184 0 01.062.09.177.177 0 01-.071.195 1.244 1.244 0 01-.597.226.796.796 0 01-.218 0 .171.171 0 01-.1-.033.171.171 0 01-.059-.19.17.17 0 01.064-.083c.175-.13.381-.212.597-.24a.724.724 0 01.218 0zm.292 1.077c.035.01.068.027.096.051.028.024.05.054.064.088a.22.22 0 01-.08.189 1.274 1.274 0 01-.612.189.665.665 0 01-.218 0 .2.2 0 01-.093-.041.206.206 0 01-.06-.083.187.187 0 01.08-.182c.181-.119.389-.191.604-.211a.67.67 0 01.219 0zm.173.779c.102 0 .117.043.138.073.022.029 0 .072-.102.123a1.77 1.77 0 01-.727.16h-.08c-.102 0-.117-.043-.139-.072-.022-.03 0-.066.102-.117.227-.112.475-.172.728-.175l.08.008zm.095.662a.164.164 0 01.139.08c0 .037 0 .066-.102.117-.23.097-.478.147-.728.145h-.08c-.102 0-.117-.043-.131-.072-.015-.029 0-.066.102-.117.229-.099.477-.149.728-.145l.072-.008zm-4.782-8.289c.443.188.859.433 1.238.728.371.308.713.652 1.019 1.026.29.379.55.781.778 1.201.216.418.396.854.539 1.302 0 .059-.146.182-.364.27-.218.087-.393.109-.422.058-.219-.378-.43-.728-.655-1.121a8.075 8.075 0 00-.728-1.033 6.273 6.273 0 00-.837-.924 8.36 8.36 0 00-.975-.786c-.044-.037 0-.226.116-.437.117-.211.226-.335.291-.284zm-.625.495a.196.196 0 01-.076.051.188.188 0 01-.091.007.17.17 0 01-.054-.071.171.171 0 01-.012-.089c.022-.228.096-.447.219-.641a.672.672 0 01.116-.145.181.181 0 01.182-.051c.03.017.055.043.07.074a.168.168 0 01.017.101 1.374 1.374 0 01-.371.764zm-.444-.189a.18.18 0 01-.16.065.196.196 0 01-.063-.065.193.193 0 01-.024-.087c.007-.228.064-.452.167-.655a.584.584 0 01.102-.153.174.174 0 01.082-.059.18.18 0 01.1-.007.178.178 0 01.095.168 1.31 1.31 0 01-.197.64 1.13 1.13 0 01-.102.153zm-.451-.161a1.4 1.4 0 01-.524 0 1.218 1.218 0 01-.495-.196.729.729 0 01-.044-.495c0-.189.08-.328.131-.349.201-.051.411-.051.612 0 .204.039.396.126.56.254.051.051.036.277-.044.495-.08.219-.16.284-.196.291zm-1.456-.225c0 .102-.051.102-.08.117-.03.014-.051 0-.073-.117a1.938 1.938 0 010-.844c0-.102.058-.109.087-.124.029-.014.058 0 .087.124.062.275.062.561 0 .837l-.021.007zm-.545.022c0 .102-.044.109-.073.123-.029.015-.051 0-.08-.116a2.006 2.006 0 01-.058-.837c0-.102.051-.109.08-.124.029-.014.058 0 .094.117.071.271.083.553.037.83v.007z" fill="#fff"/><path d="M326.807 278.987c-11.28-8.232-37.116 3.224-34.322 18.427 6.179-.444 11.98-3.595 17.227-6.645 5.8-3.377 12.372-6.935 17.095-11.782z" fill="#FFD25A"/><path d="M326.807 278.986a25.348 25.348 0 00-22.248 1.128c-5.982 3.428-12.154 9.927-12.074 17.299 12.525-3.013 23.384-12.066 34.322-18.427z" fill="#fff" opacity=".2"/><path opacity=".5" d="M292.484 297.413c3.341-2.183 6.834-4.09 10.284-6.113 1.834-1.077 7.889-5.88 2.751-7.161-5.706-1.419-11.346 9.155-13.035 13.274z" fill="#F99441"/><path d="M304.799 286.156a47.425 47.425 0 0121.775-7.082 51.144 51.144 0 00-21.899 8.217 53.895 53.895 0 00-8.734 7.278c-.727.727-7.052 8.558-7.103 8.529-.807-.48 5.364-8.078 6.019-8.784a47.995 47.995 0 019.942-8.158z" fill="#fff"/><path d="M319.253 298.812c-4.17-8.151-22.845-9.105-25.691.728 3.29 1.295 6.885 1.39 10.379 1.259 4.927-.175 10.611-.364 15.312-1.987z" fill="#FFD25A"/><path d="M319.253 298.811c-5.931-6.965-21.004-8.915-25.691.728 8.37 1.848 17.271-.226 25.691-.728z" fill="#fff" opacity=".2"/><path opacity=".5" d="M293.562 299.553c2.439-.335 10.917.509 12.016-2.125 1.099-2.635-2.562-2.38-4.105-2.096-2.933.545-5.691 2.278-7.911 4.221z" fill="#F99441"/><path d="M304.152 296.547a31.226 31.226 0 0114.941 2.242 33.84 33.84 0 00-15.633-1.572c-1.186.16-14.09 4.061-13.733 4.607-1.019-1.58 13.464-5.189 14.425-5.277z" fill="#fff"/><path d="M120.772 278.987c11.281-8.232 37.117 3.224 34.322 18.427-6.178-.444-11.971-3.595-17.219-6.645-5.807-3.377-12.372-6.935-17.103-11.782z" fill="#FFD25A"/><path d="M120.772 278.986a25.352 25.352 0 0122.249 1.128c5.989 3.428 12.161 9.927 12.073 17.299-12.525-3.013-23.383-12.066-34.322-18.427z" fill="#fff" opacity=".2"/><path opacity=".5" d="M155.095 297.413c-3.34-2.183-6.826-4.09-10.276-6.113-1.841-1.077-7.897-5.88-2.751-7.161 5.698-1.419 11.317 9.155 13.027 13.274z" fill="#F99441"/><path d="M142.795 286.156a47.371 47.371 0 00-21.768-7.082 51.175 51.175 0 0121.899 8.217 53.563 53.563 0 018.734 7.278c.727.727 7.052 8.558 7.103 8.529.807-.48-5.357-8.078-6.019-8.784a47.799 47.799 0 00-9.949-8.158z" fill="#fff"/><path d="M128.327 298.812c4.17-8.151 22.845-9.105 25.698.728-3.297 1.295-6.885 1.39-10.378 1.259-4.927-.175-10.618-.364-15.32-1.987z" fill="#FFD25A"/><path d="M128.327 298.811c5.939-6.965 21.004-8.915 25.698.728-8.377 1.848-17.27-.226-25.698-.728z" fill="#fff" opacity=".2"/><path opacity=".5" d="M154.025 299.553c-2.445-.335-10.917.509-12.016-2.125-1.099-2.635 2.555-2.38 4.105-2.096 2.948.545 5.691 2.278 7.911 4.221z" fill="#F99441"/><path d="M143.435 296.547a31.228 31.228 0 00-14.941 2.242 33.81 33.81 0 0115.626-1.572c1.193.16 14.089 4.061 13.733 4.607 1.026-1.58-13.457-5.189-14.418-5.277z" fill="#fff"/><path d="M120.43 230.306c-1.834-.99-4.367-2.453-4.992-4.607-.634-2.286 1.957-2.642 3.522-2.111 4.141 1.39 7.278 5.451 8.777 9.418a22.384 22.384 0 01-7.307-2.7z" fill="#AFDD44"/><path d="M154.439 283.105c-2.336-.306-4.839-2.183-4.694-4.745.153-2.773 2.526-2.947 4.593-1.899a10.912 10.912 0 013.093 2.474c.458.509.881 1.049 1.266 1.616.226.334.793.924.837 1.324.044.4.16 0-.08.342s-1.048.524-1.376.633a8.296 8.296 0 01-3.639.255zm-7.131-13.173c-2.417-.429-5.925-1.542-7.184-3.879a2.3 2.3 0 011.798-3.486c2.394-.32 5.276.932 7.278 2.184a25.456 25.456 0 015.822 5.189c-2.358.837-5.313.436-7.714-.008zm-4.869-10.807c-2.104-.138-5.182-.778-6.463-2.663a1.915 1.915 0 011.092-3.057c1.928-.517 4.403.247 6.149 1.026a19.54 19.54 0 015.728 3.879c-1.914.961-4.432.961-6.506.815zm-6.711-9.236c-1.797.437-4.527.619-5.968-.836a1.829 1.829 0 01-.457-.707 1.83 1.83 0 01.807-2.205c1.455-.917 3.639-.858 5.283-.618 1.869.326 3.672.958 5.335 1.87-1.223 1.354-3.275 2.074-5 2.496zm-6.542-8.144c-1.71.372-3.967.51-5.48-.567-.946-.67-1.288-1.936-.291-2.722 1.273-1.005 3.522-.961 5.021-.728 1.977.276 3.891.894 5.655 1.827-1.259 1.215-3.231 1.819-4.905 2.19zm37.997 39.119c2.002-2.125 2.737-5.764.728-8.122-1.652-1.922-3.413-1.092-4.425.924-1.39 2.766-1.564 6.193-1.455 9.236 0 .298-.058.458.138.56.335.167 1.39-.247 1.681-.349a8.622 8.622 0 003.333-2.249zm-4.868-16.062c1.135-2.714 1.71-6.55.16-9.228-.946-1.623-2.962-2.62-4.178-.728-1.404 2.184-1.455 5.502-1.492 8.006a49.118 49.118 0 00.648 8.195c2.285-1.252 3.865-3.952 4.862-6.245zm-7.635-11.259c.662-2.336.786-5.378-.575-7.511-.728-1.135-2.468-2.132-3.465-.727-1.215 1.666-.946 4.57-.815 6.491a40.731 40.731 0 001.456 7.46c1.739-1.303 2.809-3.69 3.399-5.713zm-7.714-10.4c.727-1.885.917-4.367-.175-6.157-.648-1.07-2.256-2.052-3.311-.946-1.194 1.244-1.107 3.712-1.056 5.284a28.867 28.867 0 001.165 6.288c1.615-.896 2.736-2.795 3.377-4.469zM138.494 235a7.806 7.806 0 00-1.252-5.604c-.837-1.099-2.722-1.871-3.347-.146-.626 1.725 0 4.287.567 6.019a34.207 34.207 0 001.958 4.752c1.281-1.31 1.834-3.289 2.074-5.021zm-18.064-4.694a15.374 15.374 0 01-3.682-2.599c-.801-.822-1.914-2.285-1.172-3.464a122.669 122.669 0 0112.161 8.734 22.383 22.383 0 01-7.307-2.671z" fill="#8EB438"/><path opacity=".7" d="M154.44 283.105c-2.314-.305-4.869-2.183-4.694-4.745 1.928.67 3.842 1.376 5.735 2.133.953.378 1.885.793 2.838 1.179.131.051 1.339.422 1.332.407-1.419 1.099-3.479 1.274-5.211 1.026zm-7.132-13.173c-2.366-.422-7.533-1.965-7.511-5.094 5.269.568 10.509 2.802 15.232 5.094-2.365.845-5.32.444-7.721 0zm-4.869-10.807c-2.074-.138-6.55-.982-6.856-3.639a55.719 55.719 0 0113.362 2.831c-1.914.954-4.432.954-6.506.808zm-6.711-9.236c-1.768.43-5.575.728-6.412-1.506 3.799-.415 7.598-.728 11.412-1.012-1.223 1.376-3.275 2.096-5 2.518zm-6.542-8.143c-1.776.386-5.291.655-6.245-1.455 3.698-.357 7.424-.728 11.15-.786-1.259 1.266-3.231 1.87-4.905 2.241zm37.997 39.118c2.001-2.125 2.736-5.764.728-8.122a54.57 54.57 0 01-5.881 10.72c1.943.008 3.85-1.23 5.153-2.598zm-4.869-16.062c1.201-2.911 2.118-8.457-1.012-10.553-1.368 5.568-2.409 11.208-3.85 16.739 2.285-1.194 3.865-3.894 4.862-6.186zm-7.634-11.259c.684-2.416 1.041-7.329-1.797-8.668-.364 4.774-.524 9.672-1.638 14.352 1.776-1.274 2.846-3.661 3.435-5.684zm-7.714-10.4c.822-2.103 1.113-5.975-1.281-7.278-.226 1.005-1.834 11.783-2.096 11.739 1.616-.888 2.736-2.787 3.377-4.461zm-8.472-8.144c.269-2.103-.196-5.822-2.605-6.681.218 3.901.473 7.795.531 11.703 1.281-1.31 1.834-3.29 2.074-5.022z" fill="#AFDD44"/><path d="M167.54 273.732c-.124-.139-1.077 1.812-1.216 2.067-.509.975-1.04 1.928-1.594 2.911a137.1 137.1 0 01-3.267 5.356c-.408-1.324-.808-2.649-1.216-3.966-.327-1.063-.727-2.104-1.106-3.137-.291-.771-.575-1.543-.859-2.314-.283-.772-.946-1.798-.727-2.62.968-3.297 1.812-6.594 2.467-9.964.174-.866.335-1.732.495-2.598.08-.436.152-.873.225-1.31.145-.483.214-.987.204-1.492-.211-.728-.386.568-.422.772-.16.939-.328 1.87-.51 2.809a98.996 98.996 0 01-2.969 11.484 158.724 158.724 0 00-3.639-7.612 69.628 69.628 0 00-1.455-2.715 2.085 2.085 0 01-.466-1.274c.048-.49.13-.976.247-1.455.153-.99.291-1.98.408-2.969.247-2.009.422-4.032.553-6.056l.087-1.542c.08-.383.1-.776.059-1.165-.328-.8-.35 1.128-.364 1.325a103.19 103.19 0 01-1.5 11.484c-1.506-2.569-3.151-5.051-4.883-7.474-.592-.82-1.196-1.635-1.812-2.446-.109-.138-.677-.727-.692-.902-.014-.175.321-.939.364-1.164.219-1.005.393-2.009.561-3.014.167-1.004.327-1.979.473-2.976.124-.888.247-1.769.356-2.657 0-.174.328-2.088-.094-1.703-.153.131-.131.888-.168 1.136l-.24 1.499c-.16.983-.327 1.972-.509 2.955-.335 1.812-.677 3.639-1.143 5.407a59.854 59.854 0 00-4.476-5.313c-.531-.582-1.113-1.113-1.63-1.71-.517-.597-.298-1.077-.313-1.768a66.268 66.268 0 00-.633-9.229c0 .146-.065-.837-.306-.56-.24.277 0 1.048.059 1.288.08 1.048.152 2.096.211 3.144.116 2.067.174 4.141.109 6.215a92.494 92.494 0 00-17.627-14.322c-.917-.582-1.026-.357-.131.233a101.214 101.214 0 017.161 5.167 105.314 105.314 0 018.806 7.816c-2.088 0-4.177.124-6.258.248a60.457 60.457 0 00-3.043.247c-.538.058-1.331.357-.283.313 2.241-.087 4.475-.218 6.717-.255a17.151 17.151 0 013.057.037c.516.087.567.218.939.604 1.04 1.106 2.125 2.183 3.122 3.326.997 1.142 1.856 2.183 2.787 3.297-3.064.087-6.135.247-9.184.618-.262 0-1.616.051-1.58.335.037.284 1.456 0 1.718 0 1.543-.146 3.093-.204 4.636-.255.786 0 1.572-.043 2.358-.051.64 0 1.79-.233 2.394 0 .837.306 1.834 2.184 2.431 2.977a104.515 104.515 0 015.153 7.532c-1.987-.611-4.018-1.091-6.041-1.579-.99-.24-1.98-.458-2.984-.648l-1.499-.269c-.277-.044-1.266-.371-1.499-.247-.481.254 1.397.531 1.579.567 1.041.204 2.074.43 3.108.684 1.855.466 3.711.961 5.545 1.507.604.182 1.769.335 2.242.728.204.256.37.541.495.844l1.288 2.183a64 64 0 014.075 8.006 86.71 86.71 0 00-8.624-3.377c-1.455-.495-2.911-.91-4.366-1.317-.175-.044-1.208-.466-.903 0 .211.334 1.783.553 2.184.677a77.037 77.037 0 019.068 3.413c.727.32 1.404.648 2.096.975.361.12.69.322.96.59.207.351.38.722.517 1.106.633 1.404 1.172 2.845 1.718 4.286.727 1.9 1.375 3.799 1.986 5.735-2.241-.939-4.49-1.826-6.797-2.598l-1.805-.589c-.313-.095-1.15-.553-1.455-.444-.423.16.276.378.342.407.611.24 1.237.43 1.855.648 2.278.808 4.505 1.732 6.711 2.722l.858.393c.437.204.401.196.626.604.189.47.333.958.43 1.455a110.289 110.289 0 012.481 10.961c.102.618.888 6.717 1.034 6.703.604-.066-1.791-12.744-2.053-13.937a159.446 159.446 0 00-.676-2.817 1.712 1.712 0 01-.044-1.259 24.386 24.386 0 011.921-3.268 118.478 118.478 0 002.067-3.755c.313-.451 2.06-3.304 1.718-3.704z" fill="#A4D6C0"/><path d="M344.492 249.562c.531-.08 1.026-.197 1.506-.313.457-.088.909-.199 1.354-.335a8.914 8.914 0 002.183-.953c1.165-.728 1.769-1.63 1.572-2.496-.232-1.041-1.113-1.616-2.503-1.733a9.235 9.235 0 00-2.438.175c-.466.087-.946.204-1.456.342-.509.138-1.019.379-1.557.604-.9.394-1.764.864-2.584 1.405-.729.459-1.416.983-2.052 1.565a21.04 21.04 0 00-1.79 1.855c.688.134 1.387.205 2.088.211h2.446a24.837 24.837 0 003.231-.327z" fill="#AFDD44"/><path d="M294.821 288.033a5.98 5.98 0 003.835-.444 3.895 3.895 0 002.184-2.46c.356-1.295.145-2.249-.583-2.816-.727-.568-1.979-.728-3.689-.415a13.029 13.029 0 00-4.294 1.885c-.699.481-1.372.999-2.016 1.55a4.95 4.95 0 001.048 1.114 8.21 8.21 0 003.515 1.586zm11.136-10.022a14.07 14.07 0 005.764-.175c1.572-.378 2.663-1.121 3.013-2.132.815-2.417-1.638-3.872-6.798-3.501-.553.044-1.113.116-1.681.218-.553.11-1.092.262-1.63.422a30.63 30.63 0 00-2.984 1.085c-.75.292-1.48.634-2.183 1.026l-.815.473a7.917 7.917 0 001.732 1.026c.731.328 1.485.603 2.256.823 1.091.317 2.202.563 3.326.735zm8.186-8.602c1.586.465 3.251.596 4.89.386 1.383-.182 2.387-.728 2.788-1.536.946-1.965-1.026-3.391-5.415-3.559h-1.455c-.477.043-.951.111-1.42.204-.879.161-1.749.37-2.605.626-.786.225-1.456.451-1.929.626-.25.08-.493.18-.727.298.397.404.847.752 1.339 1.034a16.95 16.95 0 004.534 1.921zm9.403-6.471a8.581 8.581 0 003.864 1.456c1.165.109 2.147-.102 2.686-.728 1.28-1.506 0-3.231-3.443-4.366a10.78 10.78 0 00-2.358-.488 18.346 18.346 0 00-2.249-.058c-.793.018-1.585.082-2.372.189.197.458.457.887.771 1.274a12.693 12.693 0 003.101 2.721zm8.879-5.501c2.664 1.652 5.32 1.812 6.368.728 1.223-1.354 0-2.948-3.456-4.083a16.408 16.408 0 00-4.484-.502c-.669 0-1.251.036-1.659.065-.407.029-.655.073-.655.073.211.417.478.804.793 1.15a13.205 13.205 0 003.093 2.569zm-48.848 24.213a7.082 7.082 0 01-.379-4.636 5.267 5.267 0 012.417-3.26c2.736-1.521 4.082.32 3.93 4.308a13.39 13.39 0 01-.393 2.627 31.46 31.46 0 01-.648 2.533c-.459 1.521-.917 2.598-.917 2.598a5.28 5.28 0 01-1.412-.793 8.386 8.386 0 01-2.598-3.377zm9.934-13.5a13.398 13.398 0 011.193-6.353 6.94 6.94 0 011.456-2.184 4.046 4.046 0 011.79-1.084c2.962-.728 3.413 2.343 1.98 7.576a34.565 34.565 0 01-2.446 6.441c-.8 1.834-1.455 3.071-1.455 3.071a7.031 7.031 0 01-1.092-1.696 15.718 15.718 0 01-1.426-5.771zm10.945-8.079c.248-3.93 2.438-7.358 4.585-7.576 2.533-.328 2.649 2.27.983 6.55a26.279 26.279 0 01-2.664 5.094c-.451.728-.815 1.332-1.099 1.754l-.458.669a5.919 5.919 0 01-.728-1.542 13.201 13.201 0 01-.619-4.949zm10.742-7.234c-.109-3.246 1.66-6.121 3.639-6.434 2.387-.342 2.78 1.783 1.558 5.378a20.06 20.06 0 01-2.14 4.367c-.371.597-.728 1.099-.961 1.456l-.393.575a5.046 5.046 0 01-.786-1.26 10.184 10.184 0 01-.917-4.082zm10.692-4.861c.676-3.115 2.911-5.444 4.686-5.429 1.078.051 1.58.611 1.565 1.543a4.936 4.936 0 01-.393 1.666 14.722 14.722 0 01-1.07 2.22 20.439 20.439 0 01-2.911 3.705c-.902 1.04-1.615 1.724-1.615 1.724a5.12 5.12 0 01-.408-1.346 10.915 10.915 0 01.146-4.083zm18.602 1.586c.531-.08 1.026-.196 1.506-.313.457-.087.909-.199 1.354-.334a8.917 8.917 0 002.183-.954c1.165-.728 1.769-1.63 1.572-2.496l-4.956 1.193c-.837.175-1.644.444-2.423.685l-2.227.684-1.943.589-1.492.561-1.339.502c.688.133 1.387.204 2.088.211h2.446a24.838 24.838 0 003.231-.328z" fill="#8EB438"/><path opacity=".7" d="M294.821 288.033a5.996 5.996 0 003.836-.444 3.907 3.907 0 002.183-2.46c-1.761 0-4.519 0-6.775.124-2.257.123-3.996.254-3.807.08.29.423.643.799 1.048 1.113a8.2 8.2 0 003.515 1.587zm11.134-10.022c1.913.34 3.875.281 5.764-.175 1.572-.378 2.664-1.121 3.013-2.132a30.14 30.14 0 00-4.177-.575c-.837-.066-1.754-.146-2.642-.153-.888-.007-1.791 0-2.664 0a94.923 94.923 0 00-4.636.211l-1.943.218a7.917 7.917 0 001.732 1.026c.731.328 1.485.603 2.256.823 1.082.323 2.183.576 3.297.757zm8.189-8.602c1.586.465 3.251.597 4.891.386 1.382-.182 2.387-.728 2.787-1.536a37.633 37.633 0 00-3.501-.727c-.727-.124-1.455-.277-2.183-.364l-2.249-.248a117.79 117.79 0 00-3.901-.335l-1.23-.072h-.444c.397.404.848.752 1.34 1.033a16.919 16.919 0 004.49 1.863zm9.403-6.47a8.595 8.595 0 003.865 1.455c1.164.109 2.147-.102 2.685-.728l-3.173-1.55c-1.142-.553-2.307-1.055-3.377-1.543l-3.85-1.674c.198.458.457.887.772 1.274a12.72 12.72 0 003.078 2.766zm8.878-5.502c2.664 1.652 5.32 1.812 6.368.727-.829-.385-1.892-.938-2.983-1.404l-3.334-1.456-2.78-1.15-.851-.342-.306-.109c.211.417.478.804.793 1.15a13.202 13.202 0 003.093 2.584zm-48.848 24.213a7.081 7.081 0 01-.379-4.636 5.267 5.267 0 012.417-3.26c.131 2.001.291 3.712.509 5.225.218 1.514.488 2.78.728 3.792.437 2.023.728 3.049.728 3.049a5.252 5.252 0 01-1.412-.793 8.382 8.382 0 01-2.591-3.377zm9.934-13.5a13.402 13.402 0 011.193-6.354 6.924 6.924 0 011.456-2.183 4.057 4.057 0 011.79-1.085c-.08.801-.182 1.667-.305 2.569-.124.903-.262 1.827-.372 2.802-.24 1.936-.473 3.872-.691 5.59-.218 1.717-.32 3.289-.429 4.366l-.153 1.754a6.996 6.996 0 01-1.092-1.695 15.735 15.735 0 01-1.397-5.764zm10.945-8.079c.248-3.93 2.438-7.358 4.585-7.576-.306 1.135-.728 2.38-1.055 3.77-.328 1.39-.728 2.795-1.012 4.134-.284 1.339-.611 2.562-.793 3.639-.182 1.077-.32 1.965-.378 2.525a5.925 5.925 0 01-.728-1.543 13.199 13.199 0 01-.619-4.949zm10.742-7.234c-.109-3.246 1.659-6.121 3.639-6.434-.24 1.958-.844 4.978-1.303 7.387a102.69 102.69 0 00-.553 3.072c-.11.427-.137.872-.08 1.31a5.046 5.046 0 01-.786-1.26 10.185 10.185 0 01-.917-4.075zm10.692-4.861c.677-3.115 2.911-5.444 4.687-5.429-.881 2.118-2.009 4.811-2.911 6.972-.459 1.063-.808 2.067-1.07 2.766l-.415 1.12a5.118 5.118 0 01-.407-1.346 10.912 10.912 0 01.116-4.083z" fill="#AFDD44"/><path d="M285.621 274.831c.08-.044.146 0 .161.051a100.636 100.636 0 002.139 11.695l2.751-3.733c.728-1.012 1.609-1.951 2.409-2.911.801-.961 1.587-1.973 2.482-2.875.058-1.303.138-2.627.24-3.966.102-1.34.197-2.715.386-4.032.189-1.318.364-2.686.575-4.054.211-1.368.429-2.758.727-4.097a.261.261 0 01.182-.175c.08 0 .139 0 .124.102a101.61 101.61 0 00-1.637 15.581c1.455-1.521 2.838-3.085 4.366-4.49l2.286-2.183c.727-.728 1.586-1.368 2.379-2.06.765-4.49 1.827-8.925 3.181-13.275a.254.254 0 01.196-.152c.088 0 .139.043.117.116-.328 1.041-.604 2.132-.866 3.202-.262 1.07-.524 2.14-.764 3.203-.241 1.062-.474 2.088-.67 3.151-.197 1.062-.357 2.132-.517 3.187l1.012-.858a105.536 105.536 0 019.556-6.885.18.18 0 01-.095-.182c.116-.924.233-1.878.378-2.795l.488-2.758c.349-1.849.728-3.726 1.172-5.618a.24.24 0 01.189-.161c.087 0 .153 0 .138.095a141.968 141.968 0 00-1.004 5.575c-.277 1.856-.561 3.639-.728 5.48.662-.458 1.376-.852 2.074-1.259l2.104-1.223c.727-.4 1.397-.829 2.117-1.201l2.184-1.091.96-2.569c.328-.866.67-1.74 1.041-2.562a154.568 154.568 0 012.351-5.095.238.238 0 01.089-.089.239.239 0 01.122-.034c.087 0 .138.058.102.131a95.37 95.37 0 00-3.908 9.817l.225-.116a96.795 96.795 0 0121.87-7.678c.095 0 .189 0 .204.08.014.08-.051.138-.146.167a102.267 102.267 0 00-20.094 7.104c1.616.582 3.21 1.229 4.753 1.863 1.543.633 3.042 1.266 4.541 2.037a.098.098 0 01.044.081.098.098 0 01-.044.08.198.198 0 01-.211.051 24.708 24.708 0 00-2.38-1.019l-2.431-.954c-1.637-.611-3.347-1.273-5.036-1.761l-.851.437c-1.296.676-2.606 1.302-3.879 2.008l-3.77 2.184c1.712.66 3.381 1.344 5.007 2.052.815.357 1.608.728 2.416 1.077.808.349 1.601.793 2.394 1.194a.09.09 0 01.033.034c.007.014.012.03.012.046a.1.1 0 01-.012.045.1.1 0 01-.033.035.187.187 0 01-.203.058 73.38 73.38 0 00-2.468-1.135c-.822-.357-1.652-.684-2.496-1.019a146.655 146.655 0 00-5.182-1.929.166.166 0 01-.094-.087c-1.82 1.15-3.603 2.365-5.4 3.559-1.718 1.31-3.472 2.561-5.153 3.908 2.089.094 4.199.313 6.222.524 2.024.211 4.054.531 6.034.902a.097.097 0 01.077.096.111.111 0 01-.012.043.18.18 0 01-.078.081.172.172 0 01-.111.02c-1.033-.16-2.081-.32-3.144-.465-1.063-.146-2.089-.204-3.159-.299-2.11-.16-4.366-.356-6.491-.342l-2.402 2.009c-.393.335-.808.662-1.194 1.012l-1.135 1.069c-1.514 1.456-3.086 2.817-4.483 4.367 2.467-.255 5.007-.298 7.445-.313 1.23 0 2.402 0 3.639.044 1.237.043 2.431.131 3.639.225a.091.091 0 01.042.014.105.105 0 01.032.031.108.108 0 01.013.043.089.089 0 01-.007.043.175.175 0 01-.167.124c-1.23-.065-2.482-.124-3.748-.16-1.267-.036-2.482 0-3.756.058-1.273.058-2.554.08-3.857.153-1.303.073-2.54.233-3.835.371-1.107 1.165-2.235 2.307-3.239 3.559-1.004 1.252-2.089 2.424-3.071 3.69l-1.543 2.045c1.819-.102 3.573-.197 5.356-.211 1.783-.015 3.574.051 5.32.131.066 0 .102.058.08.131a.167.167 0 01-.055.098.167.167 0 01-.105.04c-1.805 0-3.639 0-5.524.044-1.884.043-3.675.233-5.56.415a103.811 103.811 0 00-10.13 16.95c-.044.087-.131.138-.19.109-.058-.029-.08-.124-.036-.219a106.147 106.147 0 018.733-15.479 137.198 137.198 0 01-1.135-5.997 106.02 106.02 0 01-.473-3.093c-.138-1.034-.233-2.06-.335-3.101a.25.25 0 01.138-.167z" fill="#A4D6C0"/><path fill-rule="evenodd" clip-rule="evenodd" d="M291.866 142.331c1.456-4.483 4.367-4.483 5.786-3.217 1.419 1.266 1.456 3.792 0 6.325-1.011 1.899-3.639 3.791-5.786 5.058-2.183-1.267-4.767-3.159-5.778-5.058-1.456-2.533-1.456-5.095 0-6.325 1.455-1.23 4.337-1.266 5.778 3.217z" fill="#FD6141"/><path opacity=".5" fill-rule="evenodd" clip-rule="evenodd" d="M297.652 139.115c-1.237-1.077-3.522-1.238-5.094 1.528 1.412-2.023 4.068-2.86 5.094-.255a3.995 3.995 0 01-1.513 5.048 3.996 3.996 0 01-1.805.593c-3.603.393-3.639-2.722-5.67-3.639-1.586-.677-2.605 1.382-2.27 2.729.157.598.382 1.177.669 1.725a21.049 21.049 0 004.76 3.639c2.183-1.267 4.774-3.159 5.786-5.058 1.492-2.519 1.492-5.044.043-6.31z" fill="#941759"/><path fill-rule="evenodd" clip-rule="evenodd" d="M295.905 143.437c1.455-4.483 4.367-4.483 5.786-3.216 1.419 1.266 1.455 3.791 0 6.324-1.012 1.899-3.639 3.792-5.786 5.058-2.183-1.266-4.767-3.159-5.786-5.058-1.456-2.533-1.456-5.094 0-6.324 1.456-1.23 4.338-1.267 5.786 3.216z" fill="#FD6141"/><path opacity=".5" fill-rule="evenodd" clip-rule="evenodd" d="M301.692 140.221c-1.237-1.077-3.523-1.237-5.095 1.528 1.412-2.023 4.069-2.86 5.095-.254a3.983 3.983 0 01-.187 3.686 3.988 3.988 0 01-3.132 1.954c-3.602.386-3.639-2.722-5.669-3.639-1.594-.677-2.606 1.383-2.271 2.722.155.599.38 1.178.67 1.725a20.664 20.664 0 004.759 3.639c2.184-1.267 4.775-3.159 5.786-5.058 1.485-2.511 1.485-5.037.044-6.303z" fill="#941759"/><path fill-rule="evenodd" clip-rule="evenodd" d="M295.905 250.254c1.455-4.483 4.367-4.483 5.786-3.217 1.419 1.266 1.455 3.792 0 6.324-1.012 1.9-3.639 3.792-5.786 5.058-2.183-1.266-4.767-3.158-5.786-5.058-1.456-2.532-1.456-5.058 0-6.324s4.338-1.266 5.786 3.217z" fill="#FD6141"/><path opacity=".5" fill-rule="evenodd" clip-rule="evenodd" d="M301.692 247.037c-1.237-1.078-3.523-1.238-5.095 1.528 1.412-2.023 4.069-2.86 5.095-.255a3.983 3.983 0 01-.187 3.686 3.99 3.99 0 01-3.132 1.954c-3.602.393-3.639-2.721-5.669-3.638-1.594-.677-2.606 1.39-2.271 2.729.158.598.382 1.177.67 1.725a20.859 20.859 0 004.759 3.638c2.184-1.266 4.775-3.158 5.786-5.058 1.485-2.518 1.485-5.043.044-6.309z" fill="#941759"/><path d="M289.807 84.837V308.17a5.52 5.52 0 01-5.43 5.604H159.309c-.408 0-.794 0-1.172-.044a11.093 11.093 0 01-1.383-.196c-3.639-.728-5.517-2.948-5.517-5.502l-.582-219.345c0-1.973 1.106-3.88 2.62-5.466l.364-.371c2.183-2.183 5.095-3.64 6.812-3.64h123.934a5.519 5.519 0 015.422 5.627z" fill="#414950"/><path d="M295.904 308.294V84.714a5.48 5.48 0 00-5.48-5.48H162.219a5.48 5.48 0 00-5.481 5.48v223.58a5.481 5.481 0 005.481 5.481h128.205a5.48 5.48 0 005.48-5.481z" fill="#76838F"/><path d="M241.191 302.792h-29.3a1.82 1.82 0 00-1.82 1.819v4.491a1.82 1.82 0 001.82 1.819h29.3a1.82 1.82 0 001.82-1.819v-4.491a1.82 1.82 0 00-1.82-1.819z" fill="#9D68AA"/><path d="M241.198 303.331h-28.696a1.82 1.82 0 00-1.819 1.82v3.951a1.82 1.82 0 001.819 1.82h28.696a1.82 1.82 0 001.82-1.82v-3.951a1.82 1.82 0 00-1.82-1.82z" fill="#fff"/><path d="M288.955 91.7v204.863a3.498 3.498 0 01-3.406 3.5H166.79a3.186 3.186 0 01-1.572-.582 3.658 3.658 0 01-.509-.429 3.202 3.202 0 01-.728-1.114 3.632 3.632 0 01-.262-1.004V91.7a3.46 3.46 0 013.406-3.508h29.111l4.323 7.205a2.267 2.267 0 001.943 1.107h49.606a2.254 2.254 0 001.936-1.107l4.323-7.205h27.189a3.465 3.465 0 013.399 3.508z" fill="#AFDD44" stroke="#414950" stroke-width=".99" stroke-miterlimit="10"/><path opacity=".3" d="M184.024 140.293a44.93 44.93 0 01-20.327-11.557v54.074c0 26.411 29.308 42.342 51.432 27.917 22.867-14.905 48.238-26.716 73.826-36.993V93.679c-26.644 33.07-62.392 57.996-104.931 46.614z" fill="#fff"/><path d="M158.137 313.73a11.093 11.093 0 01-1.383-.196 7.262 7.262 0 01-2.183-1.456c-.852-.91-1.31-2.38-1.325-4.25V83.221l.364-.371v224.883c0 1.827.422 3.246 1.23 4.105a9.219 9.219 0 003.297 1.892zm69.481-220.51c2.709 0 4.905-2.264 4.905-5.057 0-2.794-2.196-5.058-4.905-5.058s-4.905 2.264-4.905 5.058c0 2.793 2.196 5.058 4.905 5.058z" fill="#fff"/><path d="M227.617 92.362c2.247 0 4.068-1.88 4.068-4.199 0-2.32-1.821-4.2-4.068-4.2s-4.068 1.88-4.068 4.2c0 2.32 1.821 4.2 4.068 4.2z" fill="#3E2344"/><path d="M230.033 86.758c0 1.106-1.077 0-2.416 0s-2.424 1.106-2.424 0a2.464 2.464 0 012.42-2.018 2.463 2.463 0 012.42 2.018z" fill="#941759"/><path d="M312.142 112.886H177.888a4.577 4.577 0 00-4.577 4.577v37.168a4.578 4.578 0 004.577 4.578h134.254a4.578 4.578 0 004.577-4.578v-37.168a4.577 4.577 0 00-4.577-4.577z" fill="#A1ABAD" opacity=".5"/><path d="M309.063 110.099H177.619a5.982 5.982 0 00-5.982 5.982v34.358a5.983 5.983 0 005.982 5.983h131.444a5.983 5.983 0 005.982-5.983v-34.358a5.982 5.982 0 00-5.982-5.982z" fill="#fff"/><path d="M196.774 149.885c9.185 0 16.63-7.445 16.63-16.629 0-9.185-7.445-16.63-16.63-16.63-9.184 0-16.629 7.445-16.629 16.63 0 9.184 7.445 16.629 16.629 16.629z" fill="#AFDD44"/><path d="M205.326 144.143c2.533 3.676 4.308 12.511 5.167 17.271.582 3.224-3.508 4.417-5.014 1.499-1.849-3.566-4.061-10.64-5.604-15.546-1.004-3.187 2.824-7.03 5.451-3.224z" fill="#801750"/><path d="M192.4 126.539a3.53 3.53 0 100-7.06 3.53 3.53 0 000 7.06z" fill="#3E2344"/><path d="M196.119 139.64c-.437.233-7.853 1.39-9.818 4.847-.997 1.754 5.641 21.68 5.641 21.68s1.717 2.642 10.138-.691c0 0 1.557-7.343 2.547-13.45.167-1.026-.641-2.823-.517-3.74.335-2.482 1.456-3.603 1.179-4.149-1.019-2.161-9.17-4.497-9.17-4.497z" fill="#941759"/><path d="M196.425 123.06a7.88 7.88 0 012.103 4.862c0 2.758-.517 5.218.153 6.157.669.939 4.134 2.183 4.134 2.183s2.045-8.158.153-10.997c-1.893-2.838-6.543-2.205-6.543-2.205z" fill="#3E2344"/><path d="M199.991 134.152c.174 1.033.728 1.805 1.266 1.71.539-.094.801-1.004.626-2.038a2.593 2.593 0 00-.764-1.543c-.109-.101 0-.203.094-.109.45.434.736 1.01.808 1.631.197 1.128-.131 2.096-.728 2.183-.596.087-1.237-.728-1.455-1.834a2.832 2.832 0 01.058-1.456l.131.088a2.853 2.853 0 00-.036 1.368z" fill="#fff"/><path d="M201.549 129.734c0 3.449-2.133 5.523-5.357 5.523-4.112 0-5.822-2.794-5.822-6.244 0-3.45 2.606-5.524 5.822-5.524 3.217 0 5.357 1.347 5.357 6.245z" fill="#3E2344"/><path d="M193.594 133.184s.56 6.251-.488 7.117c-1.506 1.252-2.067 1.15-2.03 2.023.087 2.184 3.959 4.367 5.822 4.251 2.111-.131 4.309-2.278 4.287-3.887 0-.989-.866-1.055-3.122-2.467-.619-.386-.117-6.593-.117-6.593l-4.352-.444z" fill="#FFB072"/><path d="M201.236 128.715c0-2.183-1.281-3.872-3.414-3.879-1.557 0-5.094.466-4.155 4.032a3.714 3.714 0 010 1.71c0-.065-.058-.131-.102-.204-.211-.385-.924-1.324-1.674-.808-.75.517-.415 2.184.284 2.832a1.369 1.369 0 001.099.313.492.492 0 010 .094 4.836 4.836 0 004.512 3.952c2.03 0 3.26-.728 3.399-3.806.094-1.063.051-4.236.051-4.236z" fill="#FFB072"/><path d="M200.377 125.964c.574.538 1.171 2.831 1.171 2.831s3.202-6.041-2.911-6.718c-4.825-.531-6.404 2.089-6.244 4.367a13.574 13.574 0 001.652 4.738 5.826 5.826 0 00.378-1.849c.189-1.543 4.753-4.497 5.954-3.369z" fill="#3E2344"/><path d="M192.728 131.524l.589-.233a3.261 3.261 0 00-.233-.727c-.145-.233-.64-.91-1.077-.539-.436.371-.196 1.543.284 1.929a.434.434 0 00.502.087l-.065-.517z" fill="#E57E55"/><path d="M192.153 126.241l1.769 1.135a.15.15 0 00.058.025.153.153 0 00.122-.023.164.164 0 00.045-.046l.342-.487a.165.165 0 00-.022-.211l-1.797-1.165a.17.17 0 00-.123-.02.17.17 0 00-.103.071l-.32.517a.178.178 0 00-.019.106.182.182 0 00.048.098z" fill="#AFDD44"/><path d="M185.887 144.631c-2.533 3.675-4.309 12.511-5.168 17.263-.582 3.231 3.508 4.425 5.015 1.507 1.841-3.574 4.061-10.641 5.604-15.546 1.004-3.195-2.824-7.03-5.451-3.224z" fill="#941759"/><path d="M188.23 126.932s.393-5.094 1.267-5.946l-.582 7.278-.685-1.332z" fill="#3E2344"/><path d="M191.811 133.54c0 1.048.429 1.9.96 1.9.532 0 .961-.852.961-1.9a2.587 2.587 0 00-.495-1.652c-.087-.116 0-.203.117-.087.369.502.554 1.117.524 1.739 0 1.143-.488 2.046-1.107 2.046-.618 0-1.106-.903-1.106-2.046a2.825 2.825 0 01.306-1.455s.087.073.109.102a2.989 2.989 0 00-.269 1.353zm7.809-.414s-.677-.641-2.911-.408c.233 1.194 2.729 1.71 2.911.408z" fill="#fff"/><path d="M199.562 133.183a2.722 2.722 0 00-.648-.225 4.054 4.054 0 00-.728-.095 9.066 9.066 0 00-1.455.051l.145-.197a1.626 1.626 0 001.23.976c.284.076.582.076.866 0a.79.79 0 00.59-.51zm.123-.043a.89.89 0 01-.604.815 1.967 1.967 0 01-1.004.065 2.474 2.474 0 01-.932-.386 1.411 1.411 0 01-.604-.844.151.151 0 01.018-.117.172.172 0 01.042-.043.165.165 0 01.057-.022 7.293 7.293 0 011.535 0c.247.03.491.084.728.16.275.051.535.165.757.335l.007.037z" fill="#E57E55"/><path d="M197.531 130.047c0 .203-.284.218-.604.189-.321-.029-.583-.087-.568-.291.015-.204.291-.342.619-.313.327.029.567.211.553.415zm2.969.225c0 .204-.283.219-.604.189-.32-.029-.582-.087-.567-.291.014-.203.291-.342.618-.313.328.029.568.233.553.415zm.67-.821s-.728-.648-.953-.641c-.226.007-.961.298-1.041.189a1.627 1.627 0 01-.146-.334c.426-.092.86-.136 1.296-.131.359.223.65.54.844.917zm-5.561-.692a4.992 4.992 0 011.259-.328c.255.066 1.078.473 1.187.393.087-.09.163-.19.225-.298a8.736 8.736 0 00-1.455-.393c-.46.078-.885.297-1.216.626z" fill="#3E2344"/><path opacity=".5" d="M198.834 132.027s-.728 0-.728-.233 1.587-.43 1.674-.284c.088.145-.611.422-.946.517z" fill="#E57E55"/><path d="M198.965 128.911a3.851 3.851 0 00-.109 1.274c.109.335.8 1.099.815 1.259.015.16-.779.553-.837.582-.058.029 1.128-.16 1.092-.531-.037-.371-.917-1.296-.946-1.456-.029-.16-.015-1.128-.015-1.128z" fill="#E57E55"/><path d="M303.038 123.249h-82.865a1.754 1.754 0 010-3.508h82.865a1.754 1.754 0 010 3.508zm0 5.953h-82.865a1.757 1.757 0 01-1.754-1.754 1.754 1.754 0 011.754-1.754h82.865a1.754 1.754 0 010 3.508zm0 5.953h-82.865a1.754 1.754 0 01-1.754-1.754 1.77 1.77 0 01.131-.674 1.767 1.767 0 01.95-.953c.213-.089.442-.134.673-.134h82.865a1.75 1.75 0 011.622 1.087 1.754 1.754 0 01-1.622 2.428zm-22.096 5.954h-60.769a1.764 1.764 0 01-1.243-.516 1.76 1.76 0 01.003-2.486 1.757 1.757 0 011.24-.513h60.769a1.755 1.755 0 011.754 1.754 1.743 1.743 0 01-.511 1.245 1.763 1.763 0 01-1.243.516z" fill="#A1ABAD"/><path d="M312.142 166.588H177.888a4.577 4.577 0 00-4.577 4.578v37.167a4.577 4.577 0 004.577 4.578h134.254a4.577 4.577 0 004.577-4.578v-37.167a4.577 4.577 0 00-4.577-4.578z" fill="#A1ABAD" opacity=".5"/><path d="M309.063 163.801H177.619a5.982 5.982 0 00-5.982 5.982v34.359a5.982 5.982 0 005.982 5.982h131.444a5.982 5.982 0 005.982-5.982v-34.359a5.982 5.982 0 00-5.982-5.982z" fill="#fff"/><path d="M295.664 192.556h-2.365a.473.473 0 00-.473.473v6.972c0 .261.212.473.473.473h2.365a.474.474 0 00.474-.473v-6.972a.473.473 0 00-.474-.473zm6.849 7.917h-2.518s1.055 2.242 1.455 2.948c.59.968-.422 2.591-1.084 1.667l-3.515-4.367a.872.872 0 01-.197-.553v-6.725a.88.88 0 01.888-.88h3.639c2.569 0 2.984 3.842 3.341 5.392a2.06 2.06 0 01-2.009 2.518z" fill="#941759"/><path d="M196.774 203.589c9.185 0 16.63-7.446 16.63-16.63s-7.445-16.63-16.63-16.63c-9.184 0-16.629 7.446-16.629 16.63s7.445 16.63 16.629 16.63z" fill="#FBD26D"/><path d="M196.331 191.362c-.517.277-10.269 2.184-12.591 6.274-1.179 2.074-2.976 6.091-2.976 6.091s20.014 10.83 29.919-.065c0 0-1.31-4.476-3.516-6.987-1.87-2.118-10.836-5.313-10.836-5.313z" fill="#9EC93E"/><path d="M203.761 180.911c-.298-2.7-2.183-6.834-8.682-5.655h-.051c.158-.313.254-.654.284-1.004a9.248 9.248 0 00-3.334 2.547 2.719 2.719 0 00-.334-.677 8.412 8.412 0 00-1.026 3.967 2.956 2.956 0 00-.583-.43c-.211 1.9.823 4.513 2.082 6.281 2.241 2.627 3.872 2.911 3.872 2.911s1.943-1.048 3.398-2.023c1.456-.975 4.665-3.217 4.374-5.917z" fill="#3E2344"/><path d="M194.33 185.46a19.085 19.085 0 01-1.034 4.665 7.493 7.493 0 01-2.736 3.537c-1.034.866 2.678 3.151 7.278 4.461 0 0 5.342-3.013 3.064-4.432-1.762-1.084-2.548-.968-2.002-3.821.473-2.481.728-3.864.728-3.864l-5.298-.546z" fill="#FFB072"/><path fill-rule="evenodd" clip-rule="evenodd" d="M194.409 185.7s-.204 1.747.539 2.489c.742.743 2.074 2.518 5.094 2.351 3.02-.167 2.482-6.368 2.482-6.368a12.828 12.828 0 000-4.265c-.43-1.921-4.447-2.911-7.722-1.987 0 0-.939.845-.582 4.622a1.264 1.264 0 00-1.55-.197c-.728.371-.801 1.252-.553 2.074.32.997 1.419 1.849 2.292 1.281z" fill="#FFB072"/><path d="M199.228 183.851c0 .211-.313.226-.677.197-.364-.029-.648-.087-.633-.299.014-.211.327-.363.691-.334.364.029.64.225.619.436zm3.311.277c0 .211-.32.226-.677.197-.356-.03-.648-.088-.633-.306.015-.218.328-.357.728-.328.4.029.597.204.582.437zm-5.699-1.295c.445-.126.897-.228 1.354-.306.553.084 1.114.11 1.673.08.093-.157.157-.33.19-.509a14.709 14.709 0 00-2.045-.073 2.374 2.374 0 00-1.172.808z" fill="#3E2344"/><path opacity=".5" d="M200.676 185.934s-.83 0-.815-.248c.014-.247 1.768-.451 1.863-.298.094.153-.67.444-1.048.546z" fill="#E57E55"/><path d="M200.937 181.617a11.966 11.966 0 00-.233 2.38c.124.357.888 1.157.91 1.325.022.167-.873.582-.939.611-.065.029 1.266-.167 1.223-.56-.044-.393-1.026-1.361-1.055-1.551-.03-.189.094-2.205.094-2.205z" fill="#E57E55"/><path d="M202.961 182.789s-.444-.509-.669-.546c-.226-.036-1.296.044-1.354-.08a2.373 2.373 0 01-.051-.531c.561.032 1.118.109 1.667.233.245.247.39.576.407.924z" fill="#3E2344"/><path d="M194.075 185.336l-.356-.902.611-.241s-.4-1.673-1.39-1.055c-.815.51.116 2.54 1.135 2.198z" fill="#E57E55"/><path d="M194.868 184.288c.262-.167.684-1.594.233-2.962-.407-1.23.655-1.987 1.347-2.183 1.783-.59 2.125.64 4.221.429a15.705 15.705 0 004.483-1.244s-1.303-2.526-3.042-3.086c-1.74-.561-5.917-1.216-8.137.335-1.455 1.018-2.482 4.366-.56 6.026.88.742.96 2.998 1.455 2.685z" fill="#3E2344"/><path d="M303.038 177.047h-82.865a1.754 1.754 0 010-3.508h82.865a1.754 1.754 0 010 3.508zm0 5.953h-82.865a1.754 1.754 0 01-1.754-1.754 1.757 1.757 0 011.754-1.762h82.865a1.75 1.75 0 011.243.517 1.754 1.754 0 01.511 1.245 1.754 1.754 0 01-1.754 1.754zm0 5.953h-82.865a1.747 1.747 0 01-1.243-.517 1.746 1.746 0 01-.511-1.245 1.754 1.754 0 011.754-1.753h82.865a1.753 1.753 0 011.754 1.753 1.752 1.752 0 01-1.081 1.627 1.75 1.75 0 01-.673.135zm-22.096 5.946h-60.769a1.754 1.754 0 010-3.508h60.769a1.753 1.753 0 110 3.508z" fill="#A1ABAD"/><path d="M312.142 220.356H177.888a4.578 4.578 0 00-4.577 4.578v37.168a4.578 4.578 0 004.577 4.578h134.254a4.578 4.578 0 004.577-4.578v-37.168a4.578 4.578 0 00-4.577-4.578z" fill="#A1ABAD" opacity=".5"/><path d="M309.063 217.569H177.619a5.983 5.983 0 00-5.982 5.983v34.358a5.982 5.982 0 005.982 5.982h131.444a5.982 5.982 0 005.982-5.982v-34.358a5.983 5.983 0 00-5.982-5.983z" fill="#fff"/><path d="M295.664 251.892h-2.365a.473.473 0 00-.473.473v6.972c0 .261.212.473.473.473h2.365a.474.474 0 00.474-.473v-6.972a.473.473 0 00-.474-.473zm-2.275-109.283h-2.365a.473.473 0 00-.473.473v6.973c0 .261.212.473.473.473h2.365a.473.473 0 00.473-.473v-6.973a.473.473 0 00-.473-.473zm83.323 77.534h-6.463c-.713 0-1.292.564-1.292 1.261v18.587c0 .697.579 1.261 1.292 1.261h6.463c.713 0 1.292-.564 1.292-1.261v-18.587c0-.697-.579-1.261-1.292-1.261zm-74.199 31.748h-2.518s1.055-2.249 1.456-2.955c.589-.968-.423-2.584-1.085-1.667l-3.515 4.367a.883.883 0 00-.197.56v6.718a.888.888 0 00.939.902h3.639c2.569 0 2.984-3.85 3.341-5.4a2.056 2.056 0 00-1.145-2.341 2.047 2.047 0 00-.915-.184zm-2.275-109.283h-2.518s1.055-2.249 1.455-2.954c.59-.968-.422-2.584-1.084-1.667l-3.515 4.367a.878.878 0 00-.197.56v6.717a.89.89 0 00.939.903h3.639c2.569 0 2.984-3.85 3.34-5.4a2.056 2.056 0 00-.406-1.771 2.054 2.054 0 00-1.653-.755zm94.282 76.89h-6.666s2.793-6.171 3.853-8.108c1.561-2.657-1.117-7.09-2.871-4.574l-9.306 11.983c-.34.435-.523.979-.52 1.538v18.434c-.006.336.055.669.179.979.125.31.309.59.542.822.234.233.511.413.814.529.304.116.627.166.951.147h9.633c6.801 0 7.899-10.565 8.843-14.819a5.84 5.84 0 00.01-2.561 5.725 5.725 0 00-1.085-2.3 5.473 5.473 0 00-1.956-1.564 5.273 5.273 0 00-2.421-.506zm-197.746 38.427c9.185 0 16.63-7.446 16.63-16.63 0-9.185-7.445-16.63-16.63-16.63-9.184 0-16.629 7.445-16.629 16.63 0 9.184 7.445 16.63 16.629 16.63z" fill="#941759"/><path d="M204.373 250.065c2.38 3.45 4.039 11.746 4.847 16.208.553 3.034-3.29 4.155-4.701 1.419-1.733-3.355-3.814-10-5.27-14.599-.938-2.999 2.657-6.601 5.124-3.028z" fill="#729523"/><path d="M195.734 245.836c-.415.218-7.379 1.295-9.221 4.541-.938 1.652 5.291 20.378 5.291 20.378s1.616 2.482 9.52-.648c0 0 1.455-6.899 2.394-12.627.153-.968-.604-2.656-.488-3.515.321-2.329 1.347-3.384 1.107-3.893-.961-2.053-8.603-4.236-8.603-4.236z" fill="#8EB438"/><path d="M186.12 250.515c-2.38 3.45-4.047 11.746-4.854 16.215-.546 3.028 3.296 4.148 4.708 1.412 1.732-3.355 3.814-9.992 5.262-14.599.946-2.999-2.649-6.601-5.116-3.028z" fill="#8EB438"/><path d="M204.307 236.28c-1.5-4.112-6.172-8.733-10.539-6.55-5.96 3.042-6.368 15.888 7.053 13.37 5.189-.939 4.046-5.284 3.486-6.82z" fill="#3B3D42"/><path d="M194.657 239.948a17.056 17.056 0 01-.837 3.996 6.397 6.397 0 01-2.183 3.035c-.837.727 3.34 5.181 7.059 6.302 0 0 2.693-3.282 1.456-5.094-1.238-1.812-2.184-1.987-1.769-4.432.386-2.133.611-3.312.611-3.312l-4.337-.495z" fill="#FFB072"/><path fill-rule="evenodd" clip-rule="evenodd" d="M194.657 239.948s.604 4.571 4.89 4.243c2.184-.16 3.253-4.577 2.416-5.691a12.88 12.88 0 000-4.054c-.385-1.826-3.995-2.787-6.928-1.892 0 0-.844.808-.524 4.367a1.092 1.092 0 00-.661-.345 1.092 1.092 0 00-.729.156c-.648.356-.728 1.186-.495 1.979.262.968 1.245 1.783 2.031 1.237z" fill="#FFB072"/><path d="M201.061 241.273s-.676-.64-2.911-.408c.241 1.194 2.737 1.711 2.911.408z" fill="#fff"/><path d="M201.017 241.295a2.659 2.659 0 00-.647-.226 4.159 4.159 0 00-.728-.095 9.316 9.316 0 00-1.456.051l.139-.196a1.645 1.645 0 001.237 1.011c.284.077.582.077.866 0a.79.79 0 00.589-.545zm.124-.044a.901.901 0 01-.604.815 1.967 1.967 0 01-1.004.065 2.434 2.434 0 01-.932-.385 1.417 1.417 0 01-.604-.844.164.164 0 01.026-.116.156.156 0 01.098-.066 7.096 7.096 0 011.528 0c.247.029.491.083.728.16.276.062.533.189.75.371h.014z" fill="#E57E55"/><path d="M198.98 238.194c0 .204-.284.218-.612.189-.327-.029-.582-.087-.56-.291.022-.204.291-.342.611-.313.32.029.575.204.561.415zm2.969.248c0 .204-.283.218-.611.189-.327-.029-.582-.087-.56-.284.022-.196.291-.349.611-.32.32.029.575.211.56.415z" fill="#3E2344"/><path d="M202.619 237.597s-.728-.648-.953-.64c-.226.007-.968.298-1.041.189a1.635 1.635 0 01-.146-.335 5.882 5.882 0 011.289-.131c.363.221.657.539.851.917zm-5.568-.691a5.085 5.085 0 011.266-.327c.255.065 1.07.473 1.179.393.091-.089.169-.189.233-.299a8.819 8.819 0 00-1.456-.393c-.461.08-.887.299-1.222.626z" fill="#941759"/><path opacity=".5" d="M200.289 240.166s-.727 0-.727-.233 1.586-.429 1.673-.283c.088.145-.618.429-.946.516z" fill="#E57E55"/><path d="M200.406 237.059a3.714 3.714 0 00-.102 1.273c.109.335.801 1.099.815 1.259.015.16-.778.553-.837.582-.058.03 1.128-.16 1.092-.531-.036-.371-.917-1.295-.946-1.455-.029-.16-.022-1.128-.022-1.128zm-6.055 2.547l-.32-.858.546-.226s-.349-1.594-1.245-1.004c-.727.465.11 2.409 1.019 2.088z" fill="#E57E55"/><path d="M194.482 240.065a.502.502 0 100-1.005.502.502 0 000 1.005z" fill="#fff"/><path d="M194.322 236.666c-1.005-1.237-1.871-2.722-.197-4.447.939-.968 1.871-1.965 5.284-.975 3.413.99 2.838 3.821 2.838 3.821-.728-2.526-2.358-2.038-2.518-1.274-2.373-2.365-2.911 1.922-4.192 3.239.246.728.303 1.507.167 2.263-.414 2.285 0 2.839 1.027 2.788 0 0-1.827.509-1.572-1.652a6.062 6.062 0 00-.837-3.763z" fill="#3B3D42"/><path d="M303.038 230.844h-82.865a1.753 1.753 0 01-1.754-1.754 1.765 1.765 0 01.511-1.245 1.764 1.764 0 011.243-.516h82.865a1.768 1.768 0 011.243.516 1.758 1.758 0 01.511 1.245 1.754 1.754 0 01-1.754 1.754zm0 5.953h-82.865a1.746 1.746 0 01-1.243-.516 1.767 1.767 0 01-.38-.571 1.77 1.77 0 01.383-1.914 1.754 1.754 0 011.24-.514h82.865a1.754 1.754 0 011.754 1.754 1.752 1.752 0 01-1.754 1.761zm2.77 2.445h-82.865a1.754 1.754 0 000 3.508h82.865a1.754 1.754 0 100-3.508zm-24.866 9.454h-60.769a1.753 1.753 0 110-3.508h60.769a1.754 1.754 0 110 3.508z" fill="#A1ABAD"/><path d="M475.884 101.503H346.572a17.469 17.469 0 01-12.351-29.818 17.469 17.469 0 0112.351-5.116h129.312a17.469 17.469 0 0117.466 17.467 17.468 17.468 0 01-17.466 17.467z" fill="#590F36"/><path d="M477.572 98.133H344.906a15.804 15.804 0 01-14.6-9.758 15.807 15.807 0 0114.6-21.856h132.666a15.816 15.816 0 0115.808 15.807 15.81 15.81 0 01-15.808 15.807z" fill="#941759"/><path d="M352.431 71.7l2.562 6.463a.65.65 0 00.575.422l6.943.437a.474.474 0 01.269.844l-5.357 4.432a.674.674 0 00-.218.677l1.74 6.725a.468.468 0 01-.009.286.469.469 0 01-.446.317.472.472 0 01-.273-.087l-5.873-3.726a.663.663 0 00-.728 0l-5.873 3.726a.475.475 0 01-.72-.23.476.476 0 01-.008-.287l1.725-6.739a.674.674 0 00-.219-.677l-5.356-4.432a.47.47 0 01.004-.746.473.473 0 01.265-.098l6.943-.437a.662.662 0 00.575-.422l2.562-6.462a.478.478 0 01.464-.33.483.483 0 01.453.344z" fill="#FFC533"/><path opacity=".3" d="M362.78 79.866a.47.47 0 00.158-.516.474.474 0 00-.427-.328l-1.543-.095a1.313 1.313 0 01-.08.13c-1.659 2.322-5.495 1.959-8.479 3.953-3.638 2.314-6.448.356-8.733-2.955-.524-.524-.327-.888.175-1.179l-2.358.145a.47.47 0 00-.428.33.477.477 0 00.158.515l5.357 4.432a.667.667 0 01.218.677l-1.754 6.724a.469.469 0 00.009.287.469.469 0 00.446.317c.097 0 .193-.03.273-.087l5.873-3.726a.664.664 0 01.728 0l5.873 3.726a.475.475 0 00.728-.517l-1.725-6.739a.665.665 0 01.218-.677l5.313-4.417z" fill="#FF8F3F"/><path d="M382.852 71.7l2.562 6.463a.665.665 0 00.575.422l6.943.437a.481.481 0 01.277.844l-5.364 4.432a.676.676 0 00-.207.307.674.674 0 00-.011.37l1.732 6.74a.483.483 0 01-.457.593.48.48 0 01-.271-.077l-5.873-3.726a.663.663 0 00-.728 0l-5.866 3.726a.48.48 0 01-.728-.516l1.732-6.74a.665.665 0 00-.218-.677l-5.364-4.432a.484.484 0 01.016-.743.481.481 0 01.261-.101l6.943-.437a.662.662 0 00.575-.422l2.562-6.462a.472.472 0 01.909 0z" fill="#FFC533"/><path opacity=".3" d="M393.209 79.866a.477.477 0 00.144-.515.475.475 0 00-.421-.33l-1.535-.094a1.313 1.313 0 01-.08.13c-1.66 2.322-5.495 1.959-8.479 3.953-3.639 2.314-6.448.356-8.77-2.955-.517-.524-.327-.888.182-1.179l-2.358.145a.479.479 0 00-.427.61.48.48 0 00.151.235l5.363 4.432a.669.669 0 01.219.677l-1.732 6.724a.483.483 0 00.188.506.483.483 0 00.539.011l5.866-3.726a.664.664 0 01.728 0l5.873 3.726a.482.482 0 00.728-.517l-1.732-6.739a.665.665 0 01.218-.677l5.335-4.417z" fill="#FF8F3F"/><path d="M413.281 71.7l2.562 6.463a.665.665 0 00.575.422l6.943.436a.472.472 0 01.269.845l-5.356 4.432a.674.674 0 00-.218.677l1.724 6.739a.469.469 0 01-.18.516.475.475 0 01-.547 0l-5.874-3.726a.66.66 0 00-.727 0l-5.873 3.727a.474.474 0 01-.728-.517l1.725-6.74a.669.669 0 00-.219-.677l-5.356-4.431a.47.47 0 01.004-.747.472.472 0 01.265-.098l6.943-.436a.656.656 0 00.575-.422l2.562-6.463a.48.48 0 01.931 0z" fill="#FFC533"/><path opacity=".3" d="M423.63 79.866a.47.47 0 00.158-.516.467.467 0 00-.427-.328l-1.543-.095a.615.615 0 01-.08.13c-1.659 2.322-5.487 1.959-8.471 3.953-3.639 2.314-6.448.356-8.734-2.955-.524-.524-.327-.888.175-1.179l-2.358.145a.473.473 0 00-.269.845l5.356 4.432a.669.669 0 01.219.677l-1.762 6.724a.469.469 0 00.009.287.469.469 0 00.446.317c.098 0 .193-.03.273-.087l5.873-3.726a.664.664 0 01.728 0l5.873 3.726a.475.475 0 00.728-.517l-1.725-6.739a.674.674 0 01.219-.677l5.312-4.417z" fill="#FF8F3F"/><path d="M443.71 71.7l2.569 6.463a.672.672 0 00.583.422l6.935.437a.471.471 0 01.437.61.474.474 0 01-.16.234l-5.357 4.432a.674.674 0 00-.225.677l1.717 6.725a.476.476 0 01-.181.516.47.47 0 01-.546 0l-5.874-3.726a.66.66 0 00-.727 0l-5.874 3.727a.477.477 0 01-.539-.012.483.483 0 01-.188-.505l1.732-6.74a.674.674 0 00-.219-.676l-5.341-4.418a.479.479 0 01.276-.844l6.943-.437a.663.663 0 00.575-.422l2.562-6.463a.48.48 0 01.902 0z" fill="#FFB537"/><path opacity=".3" d="M454.058 79.866a.474.474 0 00-.276-.844l-1.536-.095a1.313 1.313 0 01-.08.13c-1.659 2.322-5.495 1.959-8.478 3.953-3.639 2.314-6.449.356-8.77-2.955-.517-.524-.32-.888.182-1.179l-2.358.145a.482.482 0 00-.277.845l5.364 4.432a.667.667 0 01.218.677l-1.732 6.724a.475.475 0 00.189.506.478.478 0 00.539.011l5.873-3.726a.664.664 0 01.728 0l5.873 3.726a.475.475 0 00.728-.517l-1.783-6.724a.67.67 0 01.225-.677l5.371-4.432z" fill="#FFB537"/><path d="M474.131 71.7l2.562 6.464a.658.658 0 00.575.422l6.943.436a.478.478 0 01.421.33.483.483 0 01-.145.515l-5.363 4.432a.668.668 0 00-.219.677l1.732 6.739a.483.483 0 01-.188.505.483.483 0 01-.539.012l-5.873-3.727a.666.666 0 00-.728 0l-5.873 3.727a.475.475 0 01-.72-.23.476.476 0 01-.008-.287l1.732-6.74a.669.669 0 00-.226-.676l-5.356-4.432a.474.474 0 01.276-.845l6.936-.436a.672.672 0 00.582-.422l2.555-6.463a.48.48 0 01.924 0z" fill="#fff"/><path opacity=".3" d="M484.487 79.866a.477.477 0 00.144-.515.475.475 0 00-.421-.33l-1.543-.094a.404.404 0 01-.08.13c-1.659 2.322-5.487 1.959-8.471 3.953-3.639 2.314-6.448.356-8.733-2.955-.517-.524-.328-.888.182-1.179l-2.358.145a.473.473 0 00-.277.845l5.357 4.432a.674.674 0 01.225.677l-1.768 6.724a.476.476 0 00.181.517.47.47 0 00.546 0l5.874-3.726a.661.661 0 01.727 0l5.874 3.726a.479.479 0 00.727-.517l-1.732-6.739a.665.665 0 01.219-.677l5.327-4.417z" fill="#fff"/><path d="M336.915 142.295h-3.93a.786.786 0 00-.786.786v11.593c0 .435.352.786.786.786h3.93a.785.785 0 00.786-.786v-11.593a.786.786 0 00-.786-.786zm11.391 0h-4.148s1.761-3.727 2.474-4.906c.976-1.608-.727-4.301-1.805-2.772l-5.822 7.277a1.455 1.455 0 00-.327.925v11.171a1.455 1.455 0 001.455 1.456h6.092c4.272 0 4.963-6.398 5.553-8.967a3.412 3.412 0 00-.701-2.95 3.425 3.425 0 00-2.771-1.234z" fill="#941759"/><g opacity=".3"><path opacity=".3" d="M332.199 154.682a.782.782 0 00.486.721.77.77 0 00.3.057h3.93a.77.77 0 00.556-.225.766.766 0 00.17-.254.764.764 0 00.06-.299v-8.399a27.394 27.394 0 00-5.502 2.118v6.281z" fill="#941759"/><path opacity=".3" d="M345.801 147.738c-1.005-2.008-3.865-2.307-7.155-1.623v7.904a1.456 1.456 0 001.456 1.456h4.156c1.775-2.584 2.561-5.218 1.543-7.737z" fill="#3E2344"/></g><path d="M96.122 231.42h-3.93a.786.786 0 01-.786-.786V219.04c0-.434.352-.786.786-.786h3.93c.434 0 .786.352.786.786v11.594a.786.786 0 01-.786.786zm11.39-13.164h-4.148s1.761-3.726 2.467-4.905c.983-1.608-.728-4.301-1.797-2.773l-5.823 7.278a1.456 1.456 0 00-.327.924v11.172a1.455 1.455 0 001.455 1.455h6.092c4.272 0 4.963-6.397 5.553-8.966a3.412 3.412 0 00-.006-1.557 3.413 3.413 0 00-1.936-2.335 3.426 3.426 0 00-1.53-.293z" fill="#941759"/><path opacity=".3" d="M91.406 230.641a.779.779 0 00.779.779h3.937a.786.786 0 00.786-.779v-8.369a27.187 27.187 0 00-5.502 2.118v6.251zm13.603-6.972c-1.005-2.009-3.865-2.307-7.154-1.623v7.904a1.455 1.455 0 001.455 1.455h4.185c1.746-2.554 2.532-5.189 1.514-7.736z" fill="#3E2344"/><path d="M414.198 175.751c-8.9-.087-30.348 5.095-31.934 5.488-.081-.044-4.251-1.834-5.095-1.9-1.136.005-2.272.08-3.399.226-1.39.167-.546 1.455.371 1.674 1.303.342 1.849.283 2.344.553.257.134.5.293.728.473a19.322 19.322 0 01-4.731.924c-.953 0-1.79 0-3.144-.08-.597 0-.771.728-.196 1.055a7.861 7.861 0 003.391.728c.59 0 1.194 0 1.754-.087-.656.175-1.325.295-2.001.356-.925.073-1.776-.065-3.093-.058-.604 0-.685.67-.095.983.279.143.569.264.866.363a.542.542 0 00-.1.781.545.545 0 00.238.166c.436.174.89.298 1.354.371a.586.586 0 00.364.466c2.54 1.171 8.639.924 10.342.451 5.036-.139 23.536-.764 32.531-2.497 6.841-1.28 6.448-10.37-.495-10.436z" fill="#FFB072"/><path d="M435.596 148.757c-4.49 3.108-11.957 14.556-16.826 21.106-2.795 3.755-8.799 5.131-10.99 5.517a.557.557 0 00-.385.822c1.404 2.547 2.001 7.212.946 11.004a.794.794 0 00.455.966.795.795 0 00.382.06c5.946-.495 10.108-1.39 12.845-2.634 8.784-3.989 11.368-9.833 17.918-22.314 2.918-5.582 2.802-19.461-4.345-14.527z" fill="#6F8E27"/><path d="M486.794 320.062c0 1.827-20.894 3.305-46.672 3.305s-46.673-1.456-46.673-3.305c0-1.848 20.895-3.296 46.673-3.296 25.778 0 46.672 1.477 46.672 3.296z" fill="#000" opacity=".2"/><path d="M439.292 304.073l-.415 10.095c.178.939.307 1.886.386 2.838-.066.942-.18 1.879-.342 2.809-.888.655-3.704.881-5.094.481l-.27-.233c-.739.279-1.501.493-2.278.64-2.037.495-8.092.648-8.995-.08 0 0-.779-3.013 1.732-3.639 6.274-1.594 7.183-3.275 7.62-5.211.546-2.43 1.157-8.507 1.157-8.507l6.499.807z" fill="#F4B998"/><path d="M430.013 314.153a3.592 3.592 0 012.613.728c.895.88 1.594 1.623 2.911 1.346 3.442-.691 3.246-3.362 4.723-2.183l.058 6.979-19.046.99-.094-5.291 8.835-2.569z" fill="#941759"/><path d="M421.796 319.881s.262.902 6.252.567c5.989-.334 6.499-1.703 11.178-1.63l-.225 1.638-17.511 1.71.306-2.285z" fill="#EFEFEF"/><path d="M452.348 205.88c-3.741-9.497-15.371-10.261-17.722-.364-4.512 21.834.728 51.563-3.915 107.188a8.692 8.692 0 008.58.968c2.904.356 18.457-94.073 13.057-107.792z" fill="#941759"/><path d="M457.465 303.592l-.422 10.08s-.553 2.082-.619 2.795c-.065.713.117 2.831.117 2.831.829.728 3.639 1.179 5.094.895l.291-.211c.7.346 1.431.623 2.184.83 1.987.655 8.005 1.31 8.973.655 0 0 1.019-2.912-1.455-3.778-6.121-2.103-6.892-3.857-7.169-5.822-.342-2.467-.451-8.573-.451-8.573l-6.543.298z" fill="#F4B998"/><path d="M465.886 314.399a3.64 3.64 0 00-2.671.51c-.961.8-1.718 1.455-3.035 1.106-3.37-.982-2.955-3.639-4.527-2.554l-.626 6.95 18.923 2.554.531-5.261-8.595-3.305z" fill="#941759"/><path d="M473.601 320.782s-.335.881-6.273.051c-5.939-.83-6.347-2.234-11.012-2.54l.088 1.645 17.314 3.144-.117-2.3z" fill="#EFEFEF"/><path d="M470.565 204.156c-1.536-10.08-19.308-8.326-19.541 1.863-.379 15.378 5.393 107.653 5.393 107.653 3.675 1.907 4.155 1.536 8.442-.211 1.928-45.682 11.171-73.425 5.706-109.305z" fill="#941759"/><path d="M436.752 208.348c.284 5.313 7.809 13.973 16.739 13.508 8.93-.466 15.509-5.146 15.233-10.459-.91-17.146-8.821-37.116-17.722-36.658-8.9.459-15.174 16.142-14.25 33.609z" fill="#941759"/><path d="M475.82 152.52c-4.476-10.101-22.262-11.542-23.099-11.928 0 0-17.402 4.148-22.008 14.242-1.543 7.351 3.966 29.927.727 57.051.277 5.313 41.244 4.796 40.792-.509-2.663-28.806 6.594-52.088 3.588-58.856z" fill="#8EB438"/><path d="M453.083 135.861s2.671.277 7.38-3.115c3.086-2.227 9.847-14.279.24-19.024-9.606-4.745-14.475 1.266-16.171 5.633-1.696 4.367 2.314 9.461 4.148 11.681 1.834 2.22 4.403 4.825 4.403 4.825z" fill="#3E2344"/><path d="M456.715 130.403a30.781 30.781 0 00.837 7.344c.896 3.267 2.082 4.366 3.465 5.822 1.382 1.455-3.334 10.043-11.645 10.851-2.875-2.271-7.008-6.397-3.915-10.145 2.54-3.086 4.366-3.217 3.944-7.7-.334-3.901-.553-6.07-.553-6.07l7.867-.102z" fill="#FFB072"/><path fill-rule="evenodd" clip-rule="evenodd" d="M456.984 131.334s-.466 2.984-1.973 3.908c-1.506.925-4.425 3.341-9.09 1.682-6.237-2.184-.989-11.645-.989-11.645a23.125 23.125 0 011.943-7.074c1.543-3.006 8.304-2.947 13.005 0 0 0 1.084 1.805-1.201 7.918a1.97 1.97 0 012.518.342c.961.925.684 2.417-.08 3.683-.909 1.579-3.02 2.511-4.133 1.186z" fill="#FFB072"/><path d="M457.684 130.877l.968-1.332-.845-.655s1.383-2.62 2.657-1.165c1.04 1.187-1.339 4.156-2.78 3.152z" fill="#E57E55"/><path d="M456.919 128.816s-.349-2.911.983-5.014a2.912 2.912 0 00-1.092-4.251c-1.259-.495-5.691-.844-7.401-1.12-7.365-1.179-2.678-7.606.305-7.788 2.984-.182 9.825.524 12.591 4.061 1.812 2.315 1.914 8.268-1.87 10.24-1.725.874-3.516 3.872-3.516 3.872z" fill="#3E2344"/><path d="M451.818 131.131a4.07 4.07 0 01-1.848.568c-.64.076-1.286.091-1.929.043a6.811 6.811 0 01-1.9-.422 2.437 2.437 0 01-1.455-1.288.06.06 0 01-.016-.04.06.06 0 01.016-.04.075.075 0 01.036-.01c.013 0 .026.004.037.01.327.542.847.94 1.455 1.114a7.033 7.033 0 001.827.356c.624.058 1.253.058 1.878 0 .312-.02.623-.059.931-.116.305-.037.599-.133.866-.284a.062.062 0 01.04-.004.063.063 0 01.034.023.069.069 0 01.01.039.065.065 0 01-.018.037l.036.014z" fill="#E57E55"/><path opacity=".5" d="M447.066 129.02s1.317.313 1.39-.051c.072-.364-2.562-1.514-2.781-1.295-.218.218.852 1.019 1.391 1.346z" fill="#E57E55"/><path d="M448.338 123.518a6.942 6.942 0 01-.43 2.285c-.356.531-1.921 1.535-2.03 1.805-.109.269 1.099 1.346 1.186 1.412.088.065-1.899-.823-1.659-1.456s2.227-1.819 2.365-2.118c.138-.298.568-1.928.568-1.928z" fill="#E57E55"/><path d="M454.066 125.178c0 .058-1.04-.583-1.557-.728-.517-.146-2.547-.364-2.664-.597a2.928 2.928 0 01-.058-.924c1.155.099 2.299.296 3.421.589a2.313 2.313 0 01.858 1.66zm-2.242 1.047c-.139.466-.459.415-.845.306-.385-.109-.727-.248-.575-.728a.762.762 0 01.638-.547.768.768 0 01.557.156.756.756 0 01.261.799l-.036.014zm-6.906-2.903c0 .051.633-.284 1.004-.248.371.037 2.016.634 2.184.452.137-.272.244-.557.32-.852a14.023 14.023 0 00-2.758-.473c-.43.117-.583.67-.75 1.121zm2.177 1.958c-.117.466-.393.364-.786.262-.393-.102-.728-.168-.641-.633a.817.817 0 01.932-.655.807.807 0 01.495 1.026z" fill="#3E2344"/><path d="M458.208 139.668l.778 3.639s-.48 10.516-7.277 9.708c-7.788-.917-2.671-12.852-2.671-12.852s-3.05-.109-6.136 4.185c-3.005 4.636-7.059 20.377 6.994 21.753 14.389 1.39 14.483-17.532 14.403-20.138.444-5.655-6.091-6.295-6.091-6.295z" fill="#AFDD44"/><path d="M460.762 148.758c.801-.364-1.092 13.58-10.917 12.59-9.825-.989-5.451-14.293-4.767-14.504.684-.211-2.183 11.113 4.906 11.601 6.695.451 10.407-9.52 10.778-9.687z" fill="#8EB438"/><path d="M438.747 156.792l10.036 14.556a1.696 1.696 0 001.674.728l17.466-2.868a1.209 1.209 0 011.165 1.929l-10.771 14.053a1.7 1.7 0 00-.161 1.805l8.13 15.72a1.205 1.205 0 01-.154 1.343 1.204 1.204 0 01-1.302.36l-16.688-5.895a1.687 1.687 0 00-1.768.408l-12.467 12.59a1.208 1.208 0 01-2.074-.88l.451-17.693a1.672 1.672 0 00-.932-1.557l-15.814-7.94a1.214 1.214 0 01.174-2.234l16.965-5.037c.309-.09.585-.267.796-.51.212-.242.35-.54.397-.858l2.664-17.466c.027-.247.129-.48.292-.668a1.22 1.22 0 011.349-.337c.232.089.432.246.572.451z" fill="#F7B614" stroke="#fff" stroke-width=".99" stroke-miterlimit="10"/><path opacity=".3" d="M469.08 171.144a1.208 1.208 0 00-1.164-1.929l-3.872.634c-.029.129-.07.256-.124.378-2.787 6.703-12.503 8.006-18.769 14.621-7.729 7.838-15.786 4.571-23.435-2.329-1.579-.99-1.31-2.008-.225-3.027l-5.779 1.724a1.219 1.219 0 00-.711 1.756c.119.212.298.384.515.493l15.829 7.94a1.681 1.681 0 01.931 1.558l-.451 17.692c-.008.244.058.484.19.689a1.203 1.203 0 001.884.192l12.445-12.584a1.682 1.682 0 011.769-.407l16.688 5.895a1.213 1.213 0 001.302-.361 1.207 1.207 0 00.153-1.342l-8.107-15.698a1.708 1.708 0 01.16-1.805l10.771-14.09z" fill="#fff"/><path d="M477.143 182.163c-9.701 4.41-27.226 14.002-27.226 14.002a9.424 9.424 0 00-3.733-.414 27.629 27.629 0 00-3.304.844c-1.332.415-.277 1.499.669 1.572 1.347.102 1.878-.051 2.409.124.223.073.439.163.648.269a5.725 5.725 0 01-1.376.851c-.109.041-.209.1-.298.175a44.757 44.757 0 01-2.686.815c-1.023.22-2.058.382-3.1.488-.597.087-.626.851 0 1.077a7.83 7.83 0 003.472.131 30.562 30.562 0 001.71-.4v.152c-.684.219-1.303.393-1.914.561-.895.24-1.761.254-3.05.502-.596.116-.553.786.088.99.301.085.607.151.917.196-.284.262-.197.728.313.903.457.09.923.129 1.39.116a.603.603 0 00.444.393 11.27 11.27 0 005.014-.044 19.93 19.93 0 004.367-1.04s21.331-6.871 28.827-12.3c5.648-4.075 2.744-12.838-3.581-9.963z" fill="#FFB072"/><path d="M472.842 148.372c-7.838-6.491-9.381 7.14-7.176 13.028 1.994 5.334 9.309 12.212 9.258 18.281 0 1.871-2.249 3.516-4.367 4.76a.438.438 0 00-.203.554.436.436 0 00.123.174c2.351 2.394 3.894 6.695 4.148 9.825a1.163 1.163 0 00.952 1.048c.168.03.34.022.504-.022 8.209-2.249 12.459-8.144 13.027-10.131 2.671-9.213-7.474-30.239-16.266-37.517z" fill="#8EB438"/><path d="M252.689 288.316h-71.278a5.095 5.095 0 010-10.189h71.278a5.097 5.097 0 015.095 5.094 5.097 5.097 0 01-5.095 5.095z" fill="#fff" stroke="#fff" stroke-width="1.39" stroke-miterlimit="10"/><path d="M230.129 288.316h-48.761a5.095 5.095 0 010-10.189h48.761a5.095 5.095 0 010 10.189z" fill="#941759"/><path d="M268.134 279.817c0 2.365-1.368 2.86-2.562 2.86-1.193 0-2.554-.495-2.554-2.86 0-2.366 1.361-2.868 2.554-2.868 1.194 0 2.562.495 2.562 2.868zm-3.377 0c0 .662.153 1.455.815 1.455.662 0 .801-.8.801-1.455s-.131-1.398-.801-1.398c-.669 0-.815.728-.815 1.398zm8.137-2.533a.73.73 0 01-.088.24l-6.091 11.048a.8.8 0 01-.728.48h-.728c-.24 0-.356-.102-.356-.225a.645.645 0 01.087-.255l6.084-11.048a.806.806 0 01.728-.48h.728c.24.007.364.109.364.24zm1.841 9.003c0 2.372-1.368 2.867-2.562 2.867-1.194 0-2.554-.495-2.554-2.867 0-2.373 1.36-2.861 2.554-2.861 1.194 0 2.562.495 2.562 2.868v-.007zm-3.377 0c0 .669.153 1.455.815 1.455.662 0 .801-.8.801-1.455s-.139-1.398-.801-1.398-.815.743-.815 1.405v-.007z" fill="#fff"/><defs><linearGradient id="paint0_linear_5061_42817" x1="532.916" y1="337.648" x2="230.212" y2="-142.979" gradientUnits="userSpaceOnUse"><stop stop-color="#A0CA3F"/><stop offset="1" stop-color="#7B9C30"/></linearGradient></defs></svg>