<svg width="617" height="518" viewBox="0 0 617 518" fill="none" xmlns="http://www.w3.org/2000/svg">
<mask id="mask0_9605_58478" style="mask-type:alpha" maskUnits="userSpaceOnUse" x="23" y="43" width="566" height="414">
<path fill-rule="evenodd" clip-rule="evenodd" d="M276.553 446.25C202.607 443.838 111.202 481.651 64.1479 424.556C17.0667 367.428 13.6657 276.847 38.4111 207.077C57.472 153.334 57.5722 114.904 101.159 78.1365C148.963 37.811 310.736 41.3572 373.108 45.9535C437.641 50.7091 481.496 66.7607 523.141 116.288C568.51 170.245 596.092 214.92 587.309 284.868C578.459 355.353 513.097 404.403 450.052 437.143C396.623 464.89 336.725 448.212 276.553 446.25Z" fill="#C4C4C4"/>
</mask>
<g mask="url(#mask0_9605_58478)">
<g clip-path="url(#clip0_9605_58478)">
<path d="M523.423 185.676C523.423 186.443 523.281 187.17 523.019 187.857H499.526C499.505 187.837 499.505 187.817 499.485 187.817C499.485 187.837 499.485 187.857 499.465 187.857C499.465 187.857 498.839 187.857 497.687 187.877C486.052 187.938 421.066 188.302 421.066 187.736C421.066 181.11 426.137 175.737 432.379 175.737C433.833 175.737 435.247 176.02 436.52 176.566C437.712 175.556 439.227 174.95 440.863 174.95C443.247 174.95 445.348 176.202 446.6 178.141C446.62 178.101 446.64 178.06 446.64 178.04C447.852 175.455 450.216 173.293 453.266 171.859C455.71 170.708 458.599 170.041 461.71 170.041C462.599 170.041 463.488 170.102 464.336 170.203C467.629 163.779 474.053 159.416 481.426 159.416C490.88 159.416 498.758 166.567 500.515 176.02C501.566 175.333 502.818 174.929 504.172 174.929C506.858 174.929 509.202 176.545 510.353 178.909C511.525 178.484 512.797 178.262 514.151 178.262C517.807 178.262 520.958 179.959 522.453 182.423C523.079 183.393 523.423 184.504 523.423 185.676Z" fill="#CFDAEC"/>
<path opacity="0.4" d="M522.475 182.423C519.485 181.615 516.273 181.656 513.142 181.696C506.153 181.777 499.163 181.858 492.154 181.939C483.771 182.04 476.317 177.252 467.752 178.02C463.651 178.404 459.469 180.08 455.53 180.302C452.399 180.484 448.601 179.939 446.662 178.04C447.874 175.455 450.238 173.293 453.288 171.859C455.732 170.708 458.621 170.041 461.732 170.041C462.621 170.041 463.509 170.102 464.358 170.203C467.651 163.779 474.074 159.416 481.448 159.416C490.901 159.416 498.78 166.567 500.537 176.02C501.588 175.333 502.84 174.929 504.193 174.929C506.88 174.929 509.223 176.545 510.375 178.909C511.546 178.484 512.819 178.262 514.173 178.262C517.829 178.262 520.98 179.959 522.475 182.423Z" fill="white"/>
<path opacity="0.3" d="M638.365 316.463C637.496 310.484 639.072 304.404 642.749 299.596C651.92 287.537 656.384 273.236 654.263 258.672C649.334 224.918 610.892 202.598 568.41 208.799C539.907 212.96 516.818 228.918 506.193 249.158C502.011 257.137 493.587 261.985 484.618 261.217C481.285 260.934 477.851 261.015 474.356 261.52C465.711 262.793 458.075 266.429 452.277 271.539C446.762 276.407 439.187 278.185 432.036 276.427C422.279 274.044 410.765 273.499 398.705 275.256C385.151 277.235 373.131 281.801 364.021 287.82C357.698 292.001 349.739 292.951 342.77 289.961C337.518 287.719 331.619 286.85 325.599 287.719C317.559 288.891 310.651 292.991 305.722 298.809C301.904 303.313 296.652 306.424 290.794 307.091C290.511 307.131 290.228 307.171 289.925 307.212C289.279 306.646 288.652 306.04 288.067 305.414C282.936 300.041 276.047 296.344 268.169 295.415C262.755 294.769 257.503 295.496 252.715 297.314C244.049 300.606 234.333 299.576 226.253 295.031C217.142 289.901 205.668 286.143 192.962 284.649C181.791 283.316 171.145 283.901 161.894 286.002C152.945 288.042 143.471 286.244 136.097 280.811C130.3 276.528 123.108 273.6 115.109 272.65C112.685 272.367 110.281 272.266 107.918 272.367C96.7265 272.792 86.303 267.136 80.263 257.682C68.183 238.816 45.1139 224.555 17.3583 221.262C-26.3356 216.111 -65.0803 240.028 -69.2012 274.731C-70.8779 288.87 -66.5348 302.626 -57.8485 314.302C-53.0408 320.766 -50.7783 328.765 -51.7277 336.744L-57.3637 384.193C-59.3838 401.221 -47.2028 416.674 -30.1737 418.694L289.258 456.588C300.692 457.942 311.418 452.892 317.842 444.287L627.719 399.06C640.001 397.262 648.486 385.869 646.708 373.588L638.365 316.463Z" fill="#EEF7D9"/>
<g filter="url(#filter0_ddd_9605_58478)">
<g clip-path="url(#clip1_9605_58478)">
<rect x="149.998" y="192.992" width="288.194" height="178.147" rx="3.94786" fill="white"/>
<path d="M247.708 337.243V281.325" stroke="#F2F2F2" stroke-width="0.493483"/>
<path d="M259.552 337.243V281.325" stroke="#F2F2F2" stroke-width="0.493483"/>
<path d="M270.902 337.243V281.325" stroke="#F2F2F2" stroke-width="0.493483"/>
<path d="M282.252 337.243V281.325" stroke="#F2F2F2" stroke-width="0.493483"/>
<path d="M293.602 337.243V281.325" stroke="#F2F2F2" stroke-width="0.493483"/>
<path d="M304.952 337.243V281.325" stroke="#F2F2F2" stroke-width="0.493483"/>
<path d="M316.302 337.243V281.325" stroke="#F2F2F2" stroke-width="0.493483"/>
<path d="M345.418 337.58V281.662" stroke="#F2F2F2" stroke-width="0.493483"/>
<path d="M357.26 337.58V281.662" stroke="#F2F2F2" stroke-width="0.493483"/>
<path d="M368.611 337.58V281.662" stroke="#F2F2F2" stroke-width="0.493483"/>
<path d="M379.962 337.58V281.662" stroke="#F2F2F2" stroke-width="0.493483"/>
<path d="M391.311 337.58V281.662" stroke="#F2F2F2" stroke-width="0.493483"/>
<path d="M402.662 337.58V281.662" stroke="#F2F2F2" stroke-width="0.493483"/>
<path d="M414.011 337.58V281.662" stroke="#F2F2F2" stroke-width="0.493483"/>
<path d="M149.998 196.94C149.998 194.76 151.766 192.992 153.946 192.992H225.994V371.14H153.946C151.766 371.14 149.998 369.372 149.998 367.192V196.94Z" fill="#12030B"/>
<path d="M165.031 206.423C164.783 206.202 164.45 205.968 164.075 205.968C163.632 205.968 163.525 206.225 163.525 206.408C163.525 206.715 163.887 206.804 164.15 206.862C164.925 207.038 165.79 207.368 165.79 208.578C165.79 209.597 165.045 210.266 163.812 210.266C163.134 210.266 162.6 210.045 161.841 209.445L162.54 208.352C162.954 208.741 163.413 209.033 163.848 209.033C164.119 209.033 164.367 208.908 164.367 208.601C164.367 208.131 163.916 208.072 163.359 207.904C162.937 207.78 162.102 207.493 162.102 206.394C162.102 205.566 162.72 204.847 163.953 204.847C164.528 204.847 165.089 205.024 165.556 205.353L165.031 206.423Z" fill="#5D7624"/>
<path d="M167.824 204.984H169.615L171.489 210.12H169.909L169.615 209.233H167.824L167.53 210.12H165.95L167.824 204.984ZM168.118 208.102H169.322L168.72 206.215L168.118 208.102Z" fill="#5D7624"/>
<path d="M177.191 207.14C177.296 208.349 176.943 210.265 174.574 210.265C172.971 210.265 171.67 209.322 171.67 207.587C171.67 205.907 172.775 204.837 174.461 204.837C176.109 204.837 176.719 205.747 176.906 206.085L175.606 206.679C175.499 206.487 175.338 206.327 175.143 206.219C174.947 206.112 174.725 206.06 174.5 206.069C173.807 206.069 173.145 206.547 173.145 207.559C173.145 208.57 173.799 209.137 174.552 209.137C174.821 209.151 175.087 209.071 175.302 208.913C175.516 208.754 175.666 208.526 175.726 208.27H174.363V207.138L177.191 207.14Z" fill="#5D7624"/>
<path d="M177.92 204.984H181.082V206.217H179.396V206.936H180.923V208.068H179.396V208.89H181.082V210.122H177.92V204.984Z" fill="#5D7624"/>
<path d="M182.27 204.984H183.745L184.671 208.118L185.596 204.984H187.071L187.846 210.12H186.426L186.039 207.142L185.151 210.12H184.202L183.314 207.142L182.926 210.12H181.511L182.27 204.984Z" fill="#5D7624"/>
<path d="M189.764 204.984H191.555L193.429 210.12H191.847L191.553 209.233H189.762L189.468 210.12H187.889L189.764 204.984ZM190.059 208.102H191.267L190.665 206.215L190.059 208.102Z" fill="#5D7624"/>
<path d="M193.851 204.984H195.332V210.12H193.856L193.851 204.984Z" fill="#5D7624"/>
<path d="M196.275 204.984H197.75V208.886H199.33V210.118H196.275V204.984Z" fill="#5D7624"/>
<path d="M199.91 204.984H203.077V206.217H201.391V206.936H202.918V208.068H201.391V208.89H203.077V210.122H199.91V204.984Z" fill="#5D7624"/>
<path d="M203.851 204.984H206.033C207.792 204.984 207.852 206.29 207.852 206.525C207.874 206.864 207.778 207.201 207.579 207.481C207.379 207.76 207.089 207.966 206.755 208.065L208.23 210.118H206.447L205.334 208.42V210.118H203.851V204.984ZM205.686 207.295C206.213 207.295 206.379 207.002 206.379 206.7C206.379 206.398 206.215 206.113 205.686 206.113H205.324V207.295H205.686Z" fill="#5D7624"/>
<rect x="161.841" y="222.107" width="34.5438" height="4.93483" rx="2.46741" fill="#8B8187"/>
<rect x="237.839" y="204.835" width="142.123" height="4.93483" rx="2.46741" fill="#D7D7D7" fill-opacity="0.6"/>
<rect x="416.479" y="349.424" width="80.9312" height="4.93482" rx="2.46741" transform="rotate(-180 416.479 349.424)" fill="#D7D7D7" fill-opacity="0.6"/>
<rect x="318.769" y="349.424" width="80.9312" height="4.93482" rx="2.46741" transform="rotate(-180 318.769 349.424)" fill="#D7D7D7" fill-opacity="0.6"/>
<rect x="391.805" y="204.835" width="24.6741" height="4.93483" rx="2.46741" fill="#D7D7D7" fill-opacity="0.6"/>
<rect x="161.841" y="256.65" width="34.5438" height="4.93483" rx="2.46741" fill="#8B8187"/>
<rect x="161.841" y="291.194" width="34.5438" height="4.93483" rx="2.46741" fill="#8B8187"/>
<rect x="161.841" y="230.989" width="34.5438" height="4.93483" rx="2.46741" fill="#8B8187"/>
<rect x="161.841" y="265.532" width="34.5438" height="4.93483" rx="2.46741" fill="#8B8187"/>
<rect x="161.841" y="300.078" width="34.5438" height="4.93483" rx="2.46741" fill="#8B8187"/>
<rect x="161.841" y="239.872" width="34.5438" height="4.93483" rx="2.46741" fill="#8B8187"/>
<rect x="161.841" y="274.418" width="34.5438" height="4.93483" rx="2.46741" fill="#8B8187"/>
<rect x="161.841" y="308.961" width="34.5438" height="4.93483" rx="2.46741" fill="#8B8187"/>
<rect x="237.839" y="222.603" width="178.641" height="24.6741" rx="3.94786" fill="#E6E6E6" fill-opacity="0.6"/>
<path fill-rule="evenodd" clip-rule="evenodd" d="M250.535 231.239C249.856 231.239 249.305 231.79 249.305 232.469V237.165C249.305 237.844 249.856 238.395 250.535 238.395H257.467C258.146 238.395 258.697 237.844 258.697 237.165V232.469C258.697 231.79 258.146 231.239 257.467 231.239H250.535ZM249.976 232.469C249.976 232.16 250.226 231.91 250.535 231.91H257.467C257.776 231.91 258.026 232.16 258.026 232.469V233.253L254.11 234.902L249.976 233.248V232.469ZM249.976 233.971V237.165C249.976 237.474 250.226 237.724 250.535 237.724H257.467C257.776 237.724 258.026 237.474 258.026 237.165V233.981L254.116 235.627L249.976 233.971Z" fill="#79808D"/>
<g clip-path="url(#clip2_9605_58478)">
<path fill-rule="evenodd" clip-rule="evenodd" d="M290.102 229.635L289.905 229.624L288.329 231.714L287.13 233.324C286.942 233.177 286.705 233.089 286.447 233.089C285.834 233.089 285.336 233.586 285.336 234.199V237.9C285.336 238.514 285.834 239.011 286.447 239.011C286.795 239.011 287.106 238.85 287.31 238.599C287.407 238.672 287.511 238.731 287.613 238.778C288 238.956 288.445 239.011 288.737 239.011H292.252C292.684 239.011 292.996 238.783 293.195 238.539C293.389 238.301 293.498 238.023 293.542 237.831L293.546 237.814L293.549 237.797C293.652 237.037 293.88 235.311 293.963 234.51C294.018 233.986 293.818 233.609 293.511 233.381C293.23 233.171 292.892 233.109 292.665 233.109H290.849C291.024 232.629 291.278 231.902 291.421 231.216C291.538 230.652 291.45 230.202 291.097 229.923C290.795 229.685 290.382 229.651 290.102 229.635ZM287.557 237.648C287.557 237.843 287.669 237.989 287.923 238.106C288.183 238.226 288.513 238.271 288.737 238.271H292.252C292.397 238.271 292.516 238.2 292.621 238.072C292.725 237.944 292.791 237.784 292.818 237.679C292.922 236.907 293.146 235.214 293.227 234.433C293.255 234.163 293.162 234.044 293.069 233.974C292.951 233.886 292.783 233.849 292.665 233.849H289.821L289.971 233.369C290.003 233.265 290.056 233.12 290.12 232.945L290.12 232.945C290.294 232.47 290.549 231.772 290.696 231.066C290.785 230.637 290.678 230.536 290.637 230.503C290.566 230.447 290.444 230.411 290.254 230.39L288.92 232.159L287.557 233.991V234.199V237.648C287.557 237.648 287.557 237.648 287.557 237.648ZM286.817 234.199C286.817 233.995 286.651 233.829 286.447 233.829C286.242 233.829 286.077 233.995 286.077 234.199V237.9C286.077 238.105 286.242 238.271 286.447 238.271C286.651 238.271 286.817 238.105 286.817 237.9V237.648V234.199Z" fill="#79808D"/>
</g>
<g clip-path="url(#clip3_9605_58478)">
<path fill-rule="evenodd" clip-rule="evenodd" d="M325.633 240.234L325.435 240.245L323.86 238.156L322.661 236.545C322.473 236.692 322.235 236.78 321.978 236.78C321.364 236.78 320.867 236.283 320.867 235.67L320.867 231.969C320.867 231.356 321.364 230.858 321.978 230.858C322.326 230.858 322.637 231.019 322.84 231.27C322.937 231.197 323.041 231.138 323.144 231.091C323.531 230.913 323.975 230.858 324.268 230.858L327.782 230.858C328.215 230.858 328.527 231.086 328.726 231.33C328.92 231.568 329.029 231.846 329.073 232.038L329.077 232.055L329.079 232.072C329.183 232.832 329.411 234.558 329.494 235.359C329.549 235.883 329.349 236.26 329.042 236.488C328.761 236.698 328.423 236.76 328.196 236.76L326.38 236.76C326.554 237.24 326.809 237.967 326.951 238.653C327.069 239.217 326.98 239.667 326.627 239.946C326.326 240.185 325.913 240.218 325.633 240.234ZM323.088 232.22C323.088 232.221 323.088 232.221 323.088 232.221L323.088 235.67C323.088 235.67 323.088 235.671 323.088 235.671L323.088 235.878L324.451 237.71L325.785 239.479C325.975 239.458 326.097 239.422 326.168 239.366C326.209 239.334 326.316 239.232 326.227 238.804C326.08 238.097 325.824 237.399 325.651 236.924C325.587 236.749 325.534 236.604 325.501 236.501L325.351 236.02L328.196 236.02C328.313 236.02 328.481 235.983 328.6 235.895C328.693 235.826 328.786 235.706 328.758 235.436C328.677 234.655 328.453 232.962 328.348 232.19C328.321 232.085 328.256 231.925 328.152 231.797C328.047 231.669 327.928 231.599 327.782 231.599L324.268 231.599C324.044 231.599 323.714 231.643 323.454 231.763C323.2 231.88 323.088 232.026 323.088 232.22ZM322.348 232.22L322.348 231.969C322.348 231.764 322.182 231.599 321.978 231.599C321.773 231.599 321.607 231.764 321.607 231.969L321.607 235.67C321.607 235.874 321.773 236.04 321.978 236.04C322.182 236.04 322.347 235.875 322.348 235.671L322.348 232.221C322.348 232.221 322.348 232.22 322.348 232.22Z" fill="#79808D"/>
</g>
<g clip-path="url(#clip4_9605_58478)">
<path fill-rule="evenodd" clip-rule="evenodd" d="M359.605 239.651C360.158 239.651 360.625 239.288 360.783 238.788H362.129C362.286 239.288 362.754 239.651 363.306 239.651C363.988 239.651 364.54 239.099 364.54 238.418C364.54 237.736 363.988 237.184 363.306 237.184C362.754 237.184 362.286 237.547 362.129 238.048H360.783C360.625 237.547 360.158 237.184 359.605 237.184C359.053 237.184 358.585 237.547 358.428 238.048H358.125C357.997 238.048 357.774 238.013 357.593 237.882C357.435 237.767 357.261 237.545 357.261 237.061C357.261 236.598 357.447 236.371 357.657 236.24C357.893 236.093 358.2 236.046 358.435 236.046H363.639C363.891 236.046 364.118 235.893 364.212 235.658L365.501 232.432C365.654 232.048 365.393 231.624 364.98 231.589L358.206 231.008C358.106 230.609 357.922 230.272 357.6 230.045C357.21 229.772 356.699 229.719 356.11 229.784C355.907 229.807 355.76 229.99 355.783 230.193C355.806 230.396 355.989 230.542 356.192 230.52C356.713 230.462 357.004 230.532 357.174 230.651C357.336 230.764 357.466 230.977 357.53 231.404L358.02 235.34C357.779 235.379 357.51 235.459 357.266 235.611C356.838 235.878 356.521 236.343 356.521 237.061C356.521 237.757 356.789 238.214 357.159 238.482C357.508 238.734 357.902 238.788 358.125 238.788H358.428C358.585 239.288 359.053 239.651 359.605 239.651ZM359.605 238.911C359.878 238.911 360.099 238.69 360.099 238.418C360.099 238.145 359.878 237.924 359.605 237.924C359.333 237.924 359.112 238.145 359.112 238.418C359.112 238.69 359.333 238.911 359.605 238.911ZM358.321 231.761L358.762 235.306L363.555 235.306L364.751 232.312L358.321 231.761ZM363.8 238.418C363.8 238.69 363.579 238.911 363.306 238.911C363.034 238.911 362.813 238.69 362.813 238.418C362.813 238.145 363.034 237.924 363.306 237.924C363.579 237.924 363.8 238.145 363.8 238.418Z" fill="#79808D"/>
</g>
<path d="M396.739 230.869C396.739 230.665 396.574 230.499 396.369 230.499C396.165 230.499 395.999 230.665 395.999 230.869V231.493C395.223 231.536 394.702 231.785 394.367 232.107C394.009 232.45 393.889 232.854 393.889 233.089C393.889 233.562 394.013 233.986 394.403 234.352C394.765 234.692 395.33 234.954 396.135 235.204C396.925 235.45 397.368 235.653 397.63 235.855C397.838 236.016 397.932 236.261 397.951 236.516C397.951 236.772 397.909 236.992 397.707 237.193C397.459 237.44 397.11 237.683 396.37 237.652C395.575 237.618 395.123 237.432 394.872 237.204C394.63 236.984 394.519 236.676 394.519 236.26C394.519 236.056 394.353 235.89 394.148 235.89C393.944 235.89 393.778 236.056 393.778 236.26C393.778 236.813 393.932 237.35 394.374 237.752C394.749 238.092 395.288 238.295 395.999 238.367V239.012C395.999 239.216 396.165 239.382 396.369 239.382C396.574 239.382 396.739 239.216 396.739 239.012V238.386C397.457 238.333 397.954 238.049 398.273 237.67C398.633 237.243 398.736 236.681 398.711 236.358C398.675 235.908 398.471 235.519 398.064 235.204C397.689 234.914 397.152 234.745 396.354 234.497C395.571 234.254 395.143 234.032 394.909 233.812C394.703 233.619 394.63 233.47 394.63 233.19V233.116C394.63 233.099 394.631 233.084 394.637 233.046C394.644 233.017 394.657 232.964 394.676 232.921C394.713 232.835 394.774 232.742 394.879 232.641C395.083 232.445 395.481 232.226 396.245 232.226C396.994 232.226 397.412 232.471 397.646 232.732C397.892 233.003 397.97 233.33 397.97 233.53C397.97 233.734 398.136 233.9 398.34 233.9C398.545 233.9 398.711 233.734 398.711 233.53C398.711 233.172 398.58 232.661 398.196 232.236C397.876 231.881 397.402 231.609 396.739 231.518V230.869Z" fill="#79808D"/>
<path d="M271.888 227.539V242.837" stroke="#79808D" stroke-width="0.493483"/>
<path d="M307.419 227.539V242.837" stroke="#79808D" stroke-width="0.493483"/>
<path d="M342.949 227.539V242.837" stroke="#79808D" stroke-width="0.493483"/>
<path d="M378.48 227.539V242.837" stroke="#79808D" stroke-width="0.493483"/>
<path d="M241.553 270.37V271.041H238.945V270.37H241.553ZM239.185 266.129V271.041H238.338V266.129H239.185ZM241.212 268.18V268.842H238.945V268.18H241.212ZM241.536 266.129V266.804H238.945V266.129H241.536ZM242.589 266.129H243.344L244.764 269.918L246.181 266.129H246.937L245.061 271.041H244.461L242.589 266.129ZM242.245 266.129H242.963L243.088 269.408V271.041H242.245V266.129ZM246.563 266.129H247.284V271.041H246.438V269.408L246.563 266.129ZM250.263 266.784L248.796 271.041H247.909L249.757 266.129H250.324L250.263 266.784ZM251.491 271.041L250.02 266.784L249.956 266.129H250.526L252.382 271.041H251.491ZM251.42 269.219V269.891H248.749V269.219H251.42ZM253.836 266.129V271.041H252.989V266.129H253.836ZM257.965 270.37V271.041H255.499V270.37H257.965ZM255.735 266.129V271.041H254.888V266.129H255.735ZM261.203 269.776C261.203 269.675 261.187 269.585 261.156 269.506C261.127 269.427 261.074 269.355 260.997 269.29C260.921 269.225 260.813 269.162 260.674 269.101C260.536 269.038 260.361 268.974 260.147 268.909C259.913 268.837 259.698 268.757 259.5 268.67C259.304 268.58 259.133 268.476 258.987 268.359C258.841 268.24 258.727 268.104 258.646 267.951C258.565 267.796 258.525 267.617 258.525 267.415C258.525 267.214 258.566 267.032 258.649 266.868C258.735 266.704 258.855 266.562 259.01 266.443C259.168 266.322 259.353 266.228 259.567 266.163C259.781 266.096 260.017 266.062 260.275 266.062C260.64 266.062 260.954 266.129 261.217 266.264C261.482 266.399 261.686 266.58 261.827 266.807C261.971 267.035 262.043 267.285 262.043 267.56H261.203C261.203 267.398 261.168 267.255 261.099 267.131C261.031 267.005 260.928 266.906 260.788 266.834C260.651 266.762 260.477 266.726 260.265 266.726C260.065 266.726 259.899 266.757 259.766 266.817C259.633 266.878 259.534 266.96 259.469 267.064C259.404 267.167 259.371 267.284 259.371 267.415C259.371 267.507 259.393 267.591 259.436 267.668C259.478 267.742 259.543 267.812 259.631 267.877C259.719 267.94 259.829 267.999 259.962 268.056C260.094 268.112 260.251 268.166 260.431 268.217C260.703 268.298 260.94 268.388 261.142 268.487C261.345 268.584 261.514 268.694 261.648 268.818C261.783 268.942 261.885 269.082 261.952 269.24C262.02 269.395 262.053 269.571 262.053 269.769C262.053 269.976 262.012 270.163 261.928 270.329C261.845 270.493 261.726 270.634 261.571 270.751C261.418 270.866 261.234 270.954 261.018 271.017C260.804 271.078 260.566 271.108 260.302 271.108C260.066 271.108 259.834 271.077 259.604 271.014C259.377 270.951 259.17 270.855 258.983 270.727C258.797 270.597 258.648 270.435 258.538 270.242C258.428 270.046 258.373 269.818 258.373 269.557H259.22C259.22 269.716 259.247 269.852 259.301 269.965C259.357 270.077 259.434 270.17 259.533 270.242C259.632 270.311 259.747 270.363 259.877 270.397C260.01 270.43 260.152 270.447 260.302 270.447C260.5 270.447 260.666 270.419 260.798 270.363C260.933 270.307 261.035 270.228 261.102 270.127C261.169 270.026 261.203 269.909 261.203 269.776ZM266.435 266.784L264.968 271.041H264.081L265.929 266.129H266.496L266.435 266.784ZM267.663 271.041L266.192 266.784L266.128 266.129H266.698L268.554 271.041H267.663ZM267.592 269.219V269.891H264.921V269.219H267.592ZM273 266.129V271.041H272.153L269.95 267.523V271.041H269.104V266.129H269.95L272.16 269.655V266.129H273ZM275.436 271.041H274.386L274.393 270.37H275.436C275.739 270.37 275.993 270.303 276.198 270.171C276.405 270.038 276.56 269.848 276.664 269.601C276.769 269.353 276.822 269.059 276.822 268.717V268.45C276.822 268.185 276.792 267.95 276.731 267.745C276.673 267.541 276.585 267.368 276.468 267.229C276.353 267.09 276.212 266.984 276.043 266.912C275.876 266.84 275.684 266.804 275.466 266.804H274.366V266.129H275.466C275.792 266.129 276.09 266.184 276.36 266.295C276.63 266.403 276.863 266.559 277.058 266.764C277.256 266.968 277.408 267.213 277.514 267.499C277.619 267.785 277.672 268.104 277.672 268.457V268.717C277.672 269.07 277.619 269.389 277.514 269.675C277.408 269.96 277.256 270.206 277.058 270.41C276.86 270.613 276.624 270.769 276.35 270.879C276.078 270.987 275.773 271.041 275.436 271.041ZM274.855 266.129V271.041H274.009V266.129H274.855ZM280.243 266.129H281.98C282.353 266.129 282.672 266.186 282.935 266.298C283.198 266.41 283.399 266.577 283.539 266.797C283.68 267.015 283.751 267.285 283.751 267.607C283.751 267.852 283.706 268.068 283.616 268.255C283.526 268.441 283.399 268.599 283.235 268.727C283.071 268.853 282.875 268.951 282.648 269.02L282.392 269.145H280.83L280.823 268.474H281.994C282.196 268.474 282.365 268.438 282.5 268.366C282.635 268.294 282.736 268.196 282.803 268.072C282.873 267.946 282.908 267.805 282.908 267.647C282.908 267.476 282.874 267.328 282.807 267.202C282.741 267.074 282.64 266.976 282.503 266.909C282.366 266.839 282.191 266.804 281.98 266.804H281.089V271.041H280.243V266.129ZM283.046 271.041L281.892 268.835L282.78 268.831L283.95 270.997V271.041H283.046ZM287.809 270.37V271.041H285.202V270.37H287.809ZM285.441 266.129V271.041H284.594V266.129H285.441ZM287.469 268.18V268.842H285.202V268.18H287.469ZM287.792 266.129V266.804H285.202V266.129H287.792ZM290.184 270.144L291.476 266.129H292.411L290.65 271.041H290.019L290.184 270.144ZM288.99 266.129L290.272 270.144L290.447 271.041H289.813L288.059 266.129H288.99ZM293.865 266.129V271.041H293.018V266.129H293.865ZM298.132 270.37V271.041H295.524V270.37H298.132ZM295.764 266.129V271.041H294.917V266.129H295.764ZM297.791 268.18V268.842H295.524V268.18H297.791ZM298.115 266.129V266.804H295.524V266.129H298.115ZM300.055 269.938L301.033 266.129H301.546L301.489 267.111L300.443 271.041H299.91L300.055 269.938ZM299.323 266.129L300.116 269.908L300.186 271.041H299.62L298.483 266.129H299.323ZM302.656 269.897L303.438 266.129H304.282L303.145 271.041H302.578L302.656 269.897ZM301.745 266.129L302.713 269.948L302.855 271.041H302.322L301.293 267.111L301.239 266.129H301.745ZM307.493 269.776C307.493 269.675 307.477 269.585 307.446 269.506C307.417 269.427 307.364 269.355 307.287 269.29C307.211 269.225 307.103 269.162 306.964 269.101C306.826 269.038 306.651 268.974 306.437 268.909C306.203 268.837 305.988 268.757 305.79 268.67C305.594 268.58 305.423 268.476 305.277 268.359C305.131 268.24 305.017 268.104 304.936 267.951C304.855 267.796 304.815 267.617 304.815 267.415C304.815 267.214 304.856 267.032 304.94 266.868C305.025 266.704 305.145 266.562 305.301 266.443C305.458 266.322 305.643 266.228 305.857 266.163C306.071 266.096 306.307 266.062 306.566 266.062C306.93 266.062 307.244 266.129 307.507 266.264C307.772 266.399 307.976 266.58 308.117 266.807C308.261 267.035 308.333 267.285 308.333 267.56H307.493C307.493 267.398 307.458 267.255 307.389 267.131C307.321 267.005 307.218 266.906 307.078 266.834C306.941 266.762 306.767 266.726 306.555 266.726C306.355 266.726 306.189 266.757 306.056 266.817C305.923 266.878 305.825 266.96 305.759 267.064C305.694 267.167 305.661 267.284 305.661 267.415C305.661 267.507 305.683 267.591 305.726 267.668C305.768 267.742 305.834 267.812 305.921 267.877C306.009 267.94 306.119 267.999 306.252 268.056C306.385 268.112 306.541 268.166 306.721 268.217C306.993 268.298 307.23 268.388 307.433 268.487C307.635 268.584 307.804 268.694 307.939 268.818C308.073 268.942 308.175 269.082 308.242 269.24C308.31 269.395 308.343 269.571 308.343 269.769C308.343 269.976 308.302 270.163 308.219 270.329C308.135 270.493 308.016 270.634 307.861 270.751C307.708 270.866 307.524 270.954 307.308 271.017C307.094 271.078 306.856 271.108 306.593 271.108C306.356 271.108 306.124 271.077 305.894 271.014C305.667 270.951 305.46 270.855 305.274 270.727C305.087 270.597 304.938 270.435 304.828 270.242C304.718 270.046 304.663 269.818 304.663 269.557H305.51C305.51 269.716 305.537 269.852 305.591 269.965C305.647 270.077 305.724 270.17 305.823 270.242C305.922 270.311 306.037 270.363 306.167 270.397C306.3 270.43 306.442 270.447 306.593 270.447C306.79 270.447 306.956 270.419 307.088 270.363C307.223 270.307 307.325 270.228 307.392 270.127C307.46 270.026 307.493 269.909 307.493 269.776Z" fill="#A2A2A2"/>
<path d="M338.631 269.776C338.631 269.675 338.615 269.585 338.583 269.506C338.554 269.427 338.501 269.355 338.425 269.29C338.348 269.225 338.24 269.162 338.101 269.101C337.964 269.038 337.788 268.974 337.575 268.909C337.341 268.837 337.125 268.757 336.927 268.67C336.731 268.58 336.561 268.476 336.414 268.359C336.268 268.24 336.155 268.104 336.074 267.951C335.993 267.796 335.952 267.617 335.952 267.415C335.952 267.214 335.994 267.032 336.077 266.868C336.162 266.704 336.283 266.562 336.438 266.443C336.595 266.322 336.781 266.228 336.995 266.163C337.208 266.096 337.444 266.062 337.703 266.062C338.067 266.062 338.381 266.129 338.644 266.264C338.91 266.399 339.113 266.58 339.255 266.807C339.399 267.035 339.471 267.285 339.471 267.56H338.631C338.631 267.398 338.596 267.255 338.526 267.131C338.459 267.005 338.355 266.906 338.216 266.834C338.079 266.762 337.904 266.726 337.693 266.726C337.493 266.726 337.326 266.757 337.194 266.817C337.061 266.878 336.962 266.96 336.897 267.064C336.832 267.167 336.799 267.284 336.799 267.415C336.799 267.507 336.82 267.591 336.863 267.668C336.906 267.742 336.971 267.812 337.059 267.877C337.146 267.94 337.257 267.999 337.389 268.056C337.522 268.112 337.678 268.166 337.858 268.217C338.13 268.298 338.368 268.388 338.57 268.487C338.772 268.584 338.941 268.694 339.076 268.818C339.211 268.942 339.312 269.082 339.38 269.24C339.447 269.395 339.481 269.571 339.481 269.769C339.481 269.976 339.439 270.163 339.356 270.329C339.273 270.493 339.154 270.634 338.998 270.751C338.845 270.866 338.661 270.954 338.445 271.017C338.231 271.078 337.993 271.108 337.73 271.108C337.494 271.108 337.261 271.077 337.032 271.014C336.805 270.951 336.598 270.855 336.411 270.727C336.224 270.597 336.076 270.435 335.966 270.242C335.855 270.046 335.8 269.818 335.8 269.557H336.647C336.647 269.716 336.674 269.852 336.728 269.965C336.784 270.077 336.862 270.17 336.961 270.242C337.06 270.311 337.174 270.363 337.305 270.397C337.438 270.43 337.579 270.447 337.73 270.447C337.928 270.447 338.093 270.419 338.226 270.363C338.361 270.307 338.462 270.228 338.529 270.127C338.597 270.026 338.631 269.909 338.631 269.776ZM342.142 266.784L340.675 271.041H339.788L341.636 266.129H342.203L342.142 266.784ZM343.37 271.041L341.9 266.784L341.835 266.129H342.406L344.261 271.041H343.37ZM343.299 269.219V269.891H340.628V269.219H343.299ZM347.887 270.37V271.041H345.421V270.37H347.887ZM345.658 266.129V271.041H344.811V266.129H345.658ZM351.757 270.37V271.041H349.149V270.37H351.757ZM349.389 266.129V271.041H348.542V266.129H349.389ZM351.416 268.18V268.842H349.149V268.18H351.416ZM351.74 266.129V266.804H349.149V266.129H351.74ZM355.032 269.776C355.032 269.675 355.016 269.585 354.985 269.506C354.956 269.427 354.903 269.355 354.826 269.29C354.75 269.225 354.642 269.162 354.503 269.101C354.365 269.038 354.19 268.974 353.976 268.909C353.742 268.837 353.527 268.757 353.329 268.67C353.133 268.58 352.962 268.476 352.816 268.359C352.67 268.24 352.556 268.104 352.475 267.951C352.394 267.796 352.354 267.617 352.354 267.415C352.354 267.214 352.395 267.032 352.479 266.868C352.564 266.704 352.684 266.562 352.84 266.443C352.997 266.322 353.182 266.228 353.396 266.163C353.61 266.096 353.846 266.062 354.105 266.062C354.469 266.062 354.783 266.129 355.046 266.264C355.311 266.399 355.515 266.58 355.656 266.807C355.8 267.035 355.872 267.285 355.872 267.56H355.032C355.032 267.398 354.997 267.255 354.928 267.131C354.86 267.005 354.757 266.906 354.617 266.834C354.48 266.762 354.306 266.726 354.094 266.726C353.894 266.726 353.728 266.757 353.595 266.817C353.462 266.878 353.364 266.96 353.298 267.064C353.233 267.167 353.2 267.284 353.2 267.415C353.2 267.507 353.222 267.591 353.265 267.668C353.307 267.742 353.373 267.812 353.46 267.877C353.548 267.94 353.658 267.999 353.791 268.056C353.924 268.112 354.08 268.166 354.26 268.217C354.532 268.298 354.769 268.388 354.972 268.487C355.174 268.584 355.343 268.694 355.478 268.818C355.612 268.942 355.714 269.082 355.781 269.24C355.849 269.395 355.882 269.571 355.882 269.769C355.882 269.976 355.841 270.163 355.758 270.329C355.674 270.493 355.555 270.634 355.4 270.751C355.247 270.866 355.063 270.954 354.847 271.017C354.633 271.078 354.395 271.108 354.132 271.108C353.895 271.108 353.663 271.077 353.433 271.014C353.206 270.951 352.999 270.855 352.813 270.727C352.626 270.597 352.477 270.435 352.367 270.242C352.257 270.046 352.202 269.818 352.202 269.557H353.049C353.049 269.716 353.076 269.852 353.13 269.965C353.186 270.077 353.263 270.17 353.362 270.242C353.461 270.311 353.576 270.363 353.706 270.397C353.839 270.43 353.981 270.447 354.132 270.447C354.329 270.447 354.495 270.419 354.627 270.363C354.762 270.307 354.864 270.228 354.931 270.127C354.999 270.026 355.032 269.909 355.032 269.776ZM360.264 266.784L358.797 271.041H357.91L359.758 266.129H360.325L360.264 266.784ZM361.492 271.041L360.022 266.784L359.957 266.129H360.528L362.383 271.041H361.492ZM361.421 269.219V269.891H358.75V269.219H361.421ZM366.829 266.129V271.041H365.982L363.78 267.523V271.041H362.933V266.129H363.78L365.989 269.655V266.129H366.829ZM369.265 271.041H368.216L368.222 270.37H369.265C369.568 270.37 369.822 270.303 370.027 270.171C370.234 270.038 370.389 269.848 370.493 269.601C370.598 269.353 370.651 269.059 370.651 268.717V268.45C370.651 268.185 370.621 267.95 370.56 267.745C370.502 267.541 370.414 267.368 370.297 267.229C370.182 267.09 370.041 266.984 369.872 266.912C369.705 266.84 369.513 266.804 369.295 266.804H368.195V266.129H369.295C369.621 266.129 369.919 266.184 370.189 266.295C370.459 266.403 370.692 266.559 370.887 266.764C371.085 266.968 371.237 267.213 371.343 267.499C371.448 267.785 371.501 268.104 371.501 268.457V268.717C371.501 269.07 371.448 269.389 371.343 269.675C371.237 269.96 371.085 270.206 370.887 270.41C370.689 270.613 370.453 270.769 370.179 270.879C369.907 270.987 369.602 271.041 369.265 271.041ZM368.684 266.129V271.041H367.838V266.129H368.684ZM377.988 268.45V268.72C377.988 269.091 377.94 269.424 377.843 269.719C377.747 270.013 377.608 270.264 377.428 270.471C377.251 270.678 377.037 270.836 376.787 270.947C376.538 271.055 376.261 271.108 375.958 271.108C375.656 271.108 375.381 271.055 375.131 270.947C374.884 270.836 374.669 270.678 374.487 270.471C374.305 270.264 374.163 270.013 374.062 269.719C373.963 269.424 373.913 269.091 373.913 268.72V268.45C373.913 268.079 373.963 267.747 374.062 267.455C374.161 267.16 374.3 266.91 374.48 266.703C374.662 266.494 374.877 266.335 375.124 266.227C375.374 266.117 375.649 266.062 375.951 266.062C376.254 266.062 376.531 266.117 376.781 266.227C377.03 266.335 377.245 266.494 377.425 266.703C377.605 266.91 377.743 267.16 377.84 267.455C377.939 267.747 377.988 268.079 377.988 268.45ZM377.142 268.72V268.443C377.142 268.169 377.115 267.927 377.061 267.718C377.009 267.507 376.931 267.33 376.828 267.189C376.727 267.045 376.602 266.937 376.453 266.865C376.305 266.791 376.137 266.753 375.951 266.753C375.764 266.753 375.598 266.791 375.452 266.865C375.305 266.937 375.181 267.045 375.077 267.189C374.976 267.33 374.898 267.507 374.844 267.718C374.79 267.927 374.763 268.169 374.763 268.443V268.72C374.763 268.994 374.79 269.237 374.844 269.449C374.898 269.66 374.977 269.839 375.08 269.985C375.186 270.129 375.312 270.238 375.458 270.312C375.604 270.384 375.771 270.42 375.958 270.42C376.146 270.42 376.314 270.384 376.46 270.312C376.606 270.238 376.73 270.129 376.831 269.985C376.932 269.839 377.009 269.66 377.061 269.449C377.115 269.237 377.142 268.994 377.142 268.72ZM378.835 266.129H380.572C380.946 266.129 381.264 266.186 381.527 266.298C381.79 266.41 381.991 266.577 382.131 266.797C382.273 267.015 382.343 267.285 382.343 267.607C382.343 267.852 382.298 268.068 382.209 268.255C382.119 268.441 381.991 268.599 381.827 268.727C381.663 268.853 381.467 268.951 381.24 269.02L380.984 269.145H379.422L379.415 268.474H380.586C380.788 268.474 380.957 268.438 381.092 268.366C381.227 268.294 381.328 268.196 381.396 268.072C381.465 267.946 381.5 267.805 381.5 267.647C381.5 267.476 381.466 267.328 381.399 267.202C381.334 267.074 381.232 266.976 381.095 266.909C380.958 266.839 380.784 266.804 380.572 266.804H379.682V271.041H378.835V266.129ZM381.638 271.041L380.485 268.835L381.372 268.831L382.542 270.997V271.041H381.638ZM384.614 271.041H383.565L383.571 270.37H384.614C384.917 270.37 385.171 270.303 385.376 270.171C385.583 270.038 385.738 269.848 385.842 269.601C385.947 269.353 386 269.059 386 268.717V268.45C386 268.185 385.97 267.95 385.909 267.745C385.851 267.541 385.763 267.368 385.646 267.229C385.531 267.09 385.39 266.984 385.221 266.912C385.055 266.84 384.862 266.804 384.644 266.804H383.544V266.129H384.644C384.97 266.129 385.268 266.184 385.538 266.295C385.808 266.403 386.041 266.559 386.236 266.764C386.434 266.968 386.586 267.213 386.692 267.499C386.797 267.785 386.85 268.104 386.85 268.457V268.717C386.85 269.07 386.797 269.389 386.692 269.675C386.586 269.96 386.434 270.206 386.236 270.41C386.038 270.613 385.802 270.769 385.528 270.879C385.256 270.987 384.951 271.041 384.614 271.041ZM384.034 266.129V271.041H383.187V266.129H384.034ZM390.915 270.37V271.041H388.308V270.37H390.915ZM388.547 266.129V271.041H387.7V266.129H388.547ZM390.575 268.18V268.842H388.308V268.18H390.575ZM390.898 266.129V266.804H388.308V266.129H390.898ZM391.607 266.129H393.344C393.717 266.129 394.036 266.186 394.299 266.298C394.562 266.41 394.763 266.577 394.903 266.797C395.044 267.015 395.115 267.285 395.115 267.607C395.115 267.852 395.07 268.068 394.98 268.255C394.89 268.441 394.763 268.599 394.599 268.727C394.435 268.853 394.239 268.951 394.012 269.02L393.756 269.145H392.194L392.187 268.474H393.358C393.56 268.474 393.729 268.438 393.864 268.366C393.999 268.294 394.1 268.196 394.167 268.072C394.237 267.946 394.272 267.805 394.272 267.647C394.272 267.476 394.238 267.328 394.171 267.202C394.105 267.074 394.004 266.976 393.867 266.909C393.73 266.839 393.556 266.804 393.344 266.804H392.454V271.041H391.607V266.129ZM394.41 271.041L393.256 268.835L394.144 268.831L395.314 270.997V271.041H394.41ZM398.543 269.776C398.543 269.675 398.527 269.585 398.495 269.506C398.466 269.427 398.413 269.355 398.337 269.29C398.26 269.225 398.152 269.162 398.013 269.101C397.876 269.038 397.7 268.974 397.487 268.909C397.253 268.837 397.037 268.757 396.839 268.67C396.643 268.58 396.472 268.476 396.326 268.359C396.18 268.24 396.067 268.104 395.986 267.951C395.905 267.796 395.864 267.617 395.864 267.415C395.864 267.214 395.906 267.032 395.989 266.868C396.074 266.704 396.195 266.562 396.35 266.443C396.507 266.322 396.693 266.228 396.906 266.163C397.12 266.096 397.356 266.062 397.615 266.062C397.979 266.062 398.293 266.129 398.556 266.264C398.821 266.399 399.025 266.58 399.167 266.807C399.311 267.035 399.383 267.285 399.383 267.56H398.543C398.543 267.398 398.508 267.255 398.438 267.131C398.371 267.005 398.267 266.906 398.128 266.834C397.99 266.762 397.816 266.726 397.605 266.726C397.405 266.726 397.238 266.757 397.106 266.817C396.973 266.878 396.874 266.96 396.809 267.064C396.743 267.167 396.711 267.284 396.711 267.415C396.711 267.507 396.732 267.591 396.775 267.668C396.818 267.742 396.883 267.812 396.971 267.877C397.058 267.94 397.169 267.999 397.301 268.056C397.434 268.112 397.59 268.166 397.77 268.217C398.042 268.298 398.279 268.388 398.482 268.487C398.684 268.584 398.853 268.694 398.988 268.818C399.123 268.942 399.224 269.082 399.292 269.24C399.359 269.395 399.393 269.571 399.393 269.769C399.393 269.976 399.351 270.163 399.268 270.329C399.185 270.493 399.065 270.634 398.91 270.751C398.757 270.866 398.573 270.954 398.357 271.017C398.143 271.078 397.905 271.108 397.642 271.108C397.406 271.108 397.173 271.077 396.944 271.014C396.716 270.951 396.51 270.855 396.323 270.727C396.136 270.597 395.988 270.435 395.878 270.242C395.767 270.046 395.712 269.818 395.712 269.557H396.559C396.559 269.716 396.586 269.852 396.64 269.965C396.696 270.077 396.774 270.17 396.873 270.242C396.972 270.311 397.086 270.363 397.217 270.397C397.35 270.43 397.491 270.447 397.642 270.447C397.84 270.447 398.005 270.419 398.138 270.363C398.273 270.307 398.374 270.228 398.441 270.127C398.509 270.026 398.543 269.909 398.543 269.776Z" fill="#A2A2A2"/>
<path d="M237.839 281.324V337.581H318.77" stroke="#79808D" stroke-width="0.493483"/>
<path d="M335.547 281.324V337.581H416.479" stroke="#79808D" stroke-width="0.493483"/>
<rect x="240.306" y="320.309" width="4.93483" height="17.2719" fill="#5D7624"/>
<rect width="4.93483" height="17.2719" transform="matrix(-1 0 0 1 414.011 320.309)" fill="#5D7624"/>
<rect x="258.072" y="320.309" width="4.93483" height="17.2719" fill="#5D7624"/>
<rect width="4.93483" height="17.2719" transform="matrix(-1 0 0 1 396.247 320.309)" fill="#5D7624"/>
<rect x="266.954" y="320.309" width="4.93483" height="17.2719" fill="#5D7624"/>
<rect width="4.93483" height="17.2719" transform="matrix(-1 0 0 1 387.363 320.309)" fill="#5D7624"/>
<rect x="275.836" y="320.309" width="4.93483" height="17.2719" fill="#5D7624"/>
<rect width="4.93483" height="17.2719" transform="matrix(-1 0 0 1 378.481 320.309)" fill="#5D7624"/>
<rect x="275.836" y="303.038" width="4.93483" height="17.2719" fill="#5D7624"/>
<rect width="4.93483" height="17.2719" transform="matrix(-1 0 0 1 378.481 303.038)" fill="#5D7624"/>
<rect x="284.719" y="320.309" width="4.93483" height="17.2719" fill="#941759"/>
<rect width="4.93483" height="17.2719" transform="matrix(-1 0 0 1 369.598 320.309)" fill="#941759"/>
<rect x="293.602" y="320.309" width="4.93483" height="17.2719" fill="#5D7624"/>
<rect width="4.93483" height="17.2719" transform="matrix(-1 0 0 1 360.716 320.309)" fill="#5D7624"/>
<rect x="302.485" y="320.309" width="4.93483" height="17.2719" fill="#941759"/>
<rect width="4.93483" height="17.2719" transform="matrix(-1 0 0 1 351.832 320.309)" fill="#941759"/>
<rect x="311.367" y="320.309" width="4.93483" height="17.2719" fill="#5D7624"/>
<rect width="4.93483" height="17.2719" transform="matrix(-1 0 0 1 342.949 320.309)" fill="#5D7624"/>
<rect x="258.072" y="303.038" width="4.93483" height="17.2719" fill="#941759"/>
<rect width="4.93483" height="17.2719" transform="matrix(-1 0 0 1 396.247 303.038)" fill="#941759"/>
<rect x="311.367" y="303.038" width="4.93483" height="17.2719" fill="#941759"/>
<rect width="4.93483" height="17.2719" transform="matrix(-1 0 0 1 342.949 303.038)" fill="#941759"/>
<path d="M237.839 322.039L244.5 324.703C244.982 324.896 245.512 324.932 246.015 324.806L253.222 323.004C253.803 322.859 254.312 322.508 254.653 322.015L262.169 311.159C262.685 310.413 263.568 310.011 264.47 310.111L271.078 310.845C271.605 310.904 272.136 310.791 272.594 310.524L279.65 306.408C280.352 305.999 281.211 305.961 281.947 306.309L289.251 309.758C289.518 309.884 289.76 310.057 289.966 310.269L296.432 316.92C297.434 317.951 299.102 317.91 300.053 316.831L306.398 309.628C307.023 308.919 307.999 308.629 308.91 308.882L316.303 310.935" stroke="#3498DB" stroke-width="0.986966"/>
<path d="M335.547 309.206L341.028 311.398C342.14 311.842 343.41 311.425 344.041 310.408L349.908 300.956C350.829 299.472 352.959 299.388 353.993 300.796L359.595 308.422C360.256 309.321 361.438 309.665 362.478 309.26L368.548 306.9C369.215 306.64 369.961 306.683 370.594 307.017L376.738 310.26C377.757 310.798 379.013 310.558 379.763 309.683L386.804 301.469C387.166 301.046 387.66 300.759 388.206 300.652L394.712 299.387C395.648 299.205 396.606 299.58 397.171 300.349L403.76 309.316C404.53 310.364 405.981 310.635 407.077 309.935L414.011 305.504" stroke="#3498DB" stroke-width="0.986966"/>
</g>
</g>
<path opacity="0.8" d="M684.387 331.009C683.552 305.201 656.548 285.128 624.064 286.161C596.536 287.05 573.907 302.806 568.141 323.317C562.888 319.654 556.136 317.566 548.834 317.787C538.64 318.108 529.817 322.894 524.772 329.886C516.597 324.464 504.34 321.232 490.768 321.682C475.557 322.167 462.303 327.131 454.728 334.275C450.024 328.304 442.752 324.585 434.702 324.845C426.065 325.129 418.595 329.932 414.417 336.989C407.674 336.013 400.026 336.365 392.192 338.288C370.419 343.661 355.516 359.189 358.93 372.985C361.236 382.304 371.311 388.426 384.307 389.779L386.018 442.871L669.453 433.792L667.26 365.389C678.198 356.52 684.825 344.298 684.387 331.009Z" fill="#E2F5B5"/>
<path opacity="0.8" d="M-78.1602 339.714C-77.1318 311.573 -49.9486 289.761 -17.4683 291.021C10.0666 292.076 32.5607 309.369 38.1601 331.743C43.4445 327.769 50.2167 325.511 57.5247 325.782C67.7189 326.177 76.5045 331.425 81.4849 339.059C89.7122 333.183 101.975 329.69 115.561 330.224C130.782 330.803 143.986 336.286 151.488 344.078C156.237 337.575 163.544 333.547 171.578 333.86C180.218 334.189 187.629 339.466 191.779 347.164C198.537 346.119 206.185 346.531 213.986 348.666C235.726 354.608 250.489 371.595 246.978 386.618C244.613 396.78 234.485 403.418 221.471 404.84L219.349 462.752L-64.0541 451.862L-61.3039 377.26C-72.1675 367.545 -78.686 354.203 -78.1602 339.714Z" fill="#E2F5B5"/>
<path d="M278.127 94.6977C278.127 95.3037 202.132 94.8189 202.132 94.8189C202.132 94.7987 202.132 94.7987 202.132 94.7785C202.112 94.7987 202.092 94.7987 202.092 94.8189H179.326C179.063 94.1523 178.922 93.4454 178.922 92.698C178.922 88.7388 182.922 85.5271 187.871 85.5271C189.184 85.5271 190.436 85.7493 191.567 86.1533C192.699 83.8707 194.961 82.3153 197.567 82.3153C198.86 82.3153 200.072 82.6991 201.102 83.3657C202.819 74.1749 210.455 67.2666 219.606 67.2666C219.666 67.2666 219.727 67.2666 219.808 67.2666C226.878 67.3272 233.019 71.5489 236.191 77.7098C237.019 77.6088 237.867 77.5482 238.736 77.5482C245.523 77.5482 251.301 80.8206 253.381 85.3857C254.614 83.5273 256.654 82.2951 258.957 82.2951C260.552 82.2951 262.027 82.8809 263.179 83.8707C264.411 83.3455 265.764 83.0627 267.178 83.0627C271.562 83.0627 275.339 85.7897 277.097 89.7286C277.763 91.2436 278.127 92.9202 278.127 94.6977Z" fill="#CFDAEC"/>
<path opacity="0.4" d="M277.097 89.7482C273.683 90.8995 269.825 91.0409 266.168 91.1217C257.624 91.3035 248.553 91.3641 241.281 86.8798C238.756 85.3244 236.534 83.2641 233.827 82.0925C229.282 80.1331 223.444 80.6583 220.111 77.0224C217.95 74.6792 217.566 70.8615 219.222 68.1143C219.404 67.8315 219.586 67.5487 219.828 67.2861C226.898 67.3467 233.039 71.5685 236.211 77.7294C237.039 77.6284 237.888 77.5678 238.756 77.5678C245.544 77.5678 251.321 80.8401 253.402 85.4052C254.634 83.5469 256.674 82.3147 258.977 82.3147C260.573 82.3147 262.047 82.9005 263.199 83.8903C264.431 83.3651 265.785 83.0823 267.199 83.0823C271.562 83.0621 275.339 85.8092 277.097 89.7482Z" fill="white"/>
<path d="M164.068 247.27C164.068 247.775 163.967 248.259 163.785 248.704H148.372C148.352 248.704 148.352 248.684 148.331 248.663C148.331 248.684 148.331 248.684 148.331 248.704C148.331 248.704 96.8604 249.027 96.8604 248.623C96.8604 244.28 100.173 240.745 104.294 240.745C105.264 240.745 106.173 240.947 107.001 241.291C107.789 240.624 108.779 240.24 109.849 240.24C111.405 240.24 112.799 241.068 113.627 242.341C114.738 239.877 117.425 237.978 120.798 237.311C121.667 237.129 122.596 237.028 123.545 237.028C124.131 237.028 124.717 237.069 125.283 237.129C127.444 232.928 131.666 230.06 136.514 230.06C142.716 230.06 147.887 234.746 149.039 240.967C149.725 240.503 150.554 240.24 151.442 240.24C153.2 240.24 154.735 241.291 155.503 242.846C156.27 242.563 157.119 242.402 158.008 242.402C161.341 242.402 164.068 244.583 164.068 247.27Z" fill="#CFDAEC"/>
<path opacity="0.4" d="M164.068 247.267C164.068 247.772 163.967 248.257 163.785 248.702H154.857C154.311 247.853 153.927 246.884 153.241 246.116C150.19 242.622 143.827 245.429 140.151 242.601C139.484 242.096 138.938 241.43 138.252 240.945C136.11 239.531 133.262 240.42 130.777 241.086C128.232 241.773 125.384 242.157 123.101 240.844C121.889 240.157 120.96 238.703 120.798 237.289C121.667 237.107 122.596 237.006 123.546 237.006C124.131 237.006 124.717 237.046 125.283 237.107C127.444 232.905 131.666 230.037 136.514 230.037C142.716 230.037 147.887 234.723 149.039 240.945C149.726 240.48 150.554 240.218 151.443 240.218C153.2 240.218 154.735 241.268 155.503 242.824C156.271 242.541 157.119 242.379 158.008 242.379C161.341 242.399 164.068 244.581 164.068 247.267Z" fill="white"/>
<path d="M492.84 456.123L187.952 457.698L118.119 458.062L149.086 396.11L181.044 368.032L224.596 354.478L244.776 327.047H336.406L372.323 356.983L426.036 374.395L457.428 403.846L458.175 404.957L491.89 454.729L492.84 456.123Z" fill="url(#paint0_linear_9605_58478)"/>
<path opacity="0.1" d="M491.891 454.729L468.559 452.244L413.694 416.107L345.133 405.785L323.822 376.253L320.751 354.801L292.915 347.772L282.148 327.047H336.407L372.323 356.983L426.037 374.395L457.429 403.846L458.176 404.957L491.891 454.729Z" fill="#DEE5F8"/>
<path d="M246.069 372.88L200.881 399.321L187.952 457.698L118.119 458.062L149.086 396.11L181.044 368.032L224.596 354.478L244.776 327.047L246.069 372.88Z" fill="url(#paint1_linear_9605_58478)"/>
<path d="M318.65 316.788L318.731 309.254L307.822 310.022L307.499 316.243C310.974 316.99 314.933 317.172 318.65 316.788Z" fill="#F9B384"/>
<path d="M330.467 327.011C327.517 322.163 323.457 320.547 318.629 319.941L318.649 316.79C314.932 317.153 310.993 316.971 307.499 316.244L306.953 326.99H330.467V327.011Z" fill="#502D16"/>
<path d="M264.471 317.536L263.481 319.819C258.653 320.425 254.33 323.03 250.351 327.03H273.238L275.682 317.577C271.783 318.223 268.046 318.183 264.471 317.536Z" fill="#502D16"/>
<path d="M275.703 317.554L277.642 310.04L267.986 309.535L264.491 317.554C268.047 318.181 271.784 318.221 275.703 317.554Z" fill="#F9B384"/>
<path d="M323.679 199.792C329.416 237.182 327.8 274.389 319.821 311.961H306.105C307.741 287.58 308.993 258.613 305.155 239.404L278.975 312.264H263.986L288.692 208.539L297.176 191.894L317.073 189.49L323.679 199.792Z" fill="url(#paint2_linear_9605_58478)"/>
<path d="M341.94 120.044L345.637 108.975L355.616 111.298C356.364 114.994 351.879 120.63 348.546 124.831L341.94 120.044Z" fill="#F9B384"/>
<path d="M308.286 159.535L296.792 159.677L295.661 144.608L295.52 142.81L307.054 142.709L307.478 148.425L308.286 159.535Z" fill="#F9B384"/>
<path d="M307.418 147.375C303.66 150.062 298.731 148.385 295.661 144.608L295.52 142.81L307.074 142.709L307.418 147.375Z" fill="url(#paint3_linear_9605_58478)"/>
<path d="M304.73 146.12C298.892 147.453 292.388 143.716 289.822 138.747L289.479 129.819L292.752 125.193L306.65 126.385C306.589 126.405 306.589 126.587 306.65 126.931C306.811 127.799 307.336 129.637 307.841 131.859C309.013 137.273 309.983 144.908 304.73 146.12Z" fill="#F9B384"/>
<path d="M294.954 153.838C294.954 153.838 303.539 160.706 310.993 150.93L325.134 197.914C316.467 204.035 305.519 206.156 292.368 204.439L294.954 153.838Z" fill="white"/>
<g opacity="0.3">
<path opacity="0.3" d="M296.793 159.68C297.985 160.104 299.197 160.367 300.409 160.508C301.621 160.629 302.833 160.609 304.025 160.367C305.196 160.145 306.368 159.761 307.439 159.175C308.004 158.933 308.489 158.549 309.014 158.246C309.54 157.923 310.004 157.498 310.529 157.135C310.146 157.62 309.721 158.125 309.277 158.569C308.792 158.973 308.327 159.438 307.762 159.761C306.711 160.508 305.439 160.953 304.166 161.215C301.621 161.68 298.874 161.114 296.793 159.68Z" fill="#1F3C88"/>
</g>
<path d="M341.557 117.984C333.8 131.094 326.225 142.608 319.397 148.082C318.387 148.89 317.094 149.253 315.781 149.193C313.215 149.051 310.549 149.375 307.6 150.082C308.226 173.594 310.448 195.369 318.447 208.721C323.255 207.327 329.113 205.106 332.345 202.379C329.719 193.45 326.608 180.644 324.285 169.453L349.92 123.66L341.557 117.984Z" fill="url(#paint4_linear_9605_58478)"/>
<path d="M307.802 131.86C298.974 136.89 291.641 127.719 291.641 127.719L306.63 126.932C306.771 127.8 307.317 129.638 307.802 131.86Z" fill="#E28B6D"/>
<path d="M291.783 137.033C292.874 135.639 293.359 133.276 292.389 128.549C295.601 132.185 300.388 133.034 307.398 129.923C307.398 129.923 311.963 128.145 310.913 123.499C309.963 119.298 306.449 117.076 303.701 120.49C297.479 118.672 291.359 118.348 288.611 124.004C288.611 124.004 279.865 128.549 287.319 135.922L291.783 137.033Z" fill="url(#paint5_linear_9605_58478)"/>
<path d="M279.036 234.111L277.521 233.788L279.097 226.738L268.693 224.214L267.32 230.637L265.805 230.314L267.522 222.335L280.935 225.607L279.036 234.111Z" fill="#1F3C88"/>
<path d="M272.916 211.91C272.653 212.274 271.724 219.525 271.724 219.525C271.724 219.525 267.522 223.464 270.351 225.888C273.179 228.312 276.613 228.211 278.249 226.434C278.815 224.676 278.855 222.636 278.168 220.172L279.804 212.112L272.916 211.91Z" fill="#F9B384"/>
<path d="M286.713 233.625L282.572 251.198L280.976 257.986L254.049 247.865L257.604 233.059L259.281 225.989L286.713 233.625Z" fill="url(#paint6_linear_9605_58478)"/>
<path d="M362.181 116.835L347.879 125.521L347.252 120.491L358.019 113.946L362.181 116.835Z" fill="url(#paint7_linear_9605_58478)"/>
<path d="M354.465 116.11L350.809 118.331L342.103 105.949L347.536 102.677L354.465 116.11Z" fill="url(#paint8_linear_9605_58478)"/>
<path d="M348.264 102.232L341.375 106.413C339.84 107.342 337.84 107.019 336.689 105.625L325.154 91.6875L342.688 81.0625L349.718 97.7272C350.425 99.3634 349.799 101.303 348.264 102.232Z" fill="url(#paint9_linear_9605_58478)"/>
<path d="M347.416 93.4438L346.467 93.0398C349.113 86.6769 348.648 81.4856 346.709 80.3544C345.699 79.7686 344.305 80.4554 342.871 82.2734L342.063 81.627C344.608 78.4153 346.527 79.0414 347.234 79.4656C349.598 80.8594 350.325 86.4547 347.416 93.4438Z" fill="url(#paint10_linear_9605_58478)"/>
<path d="M333.698 101.762C326.163 101.096 321.537 97.884 321.396 95.1369C321.355 94.3087 321.699 92.3089 325.719 91.5615L325.901 92.5715C323.638 92.9957 322.366 93.9249 322.426 95.0965C322.547 97.3386 326.911 100.146 333.779 100.752L333.698 101.762Z" fill="url(#paint11_linear_9605_58478)"/>
<path opacity="0.6" d="M340.082 90.0695C339.476 89.0191 339.517 87.8677 340.143 87.5041C340.789 87.1406 341.8 87.6859 342.406 88.7363C343.012 89.7867 342.971 90.9381 342.345 91.3017C341.699 91.6653 340.689 91.1199 340.082 90.0695Z" fill="white"/>
<path d="M355.617 111.056C355.86 112.833 354.749 114.429 352.365 114.429C350.87 114.429 348.789 112.389 348.365 109.965C348.002 107.965 348.769 106.652 350.183 106.087C351.617 105.501 355.132 107.702 355.617 111.056Z" fill="#F9B384"/>
<path d="M310.127 78.6188L309.641 80.1602L322.165 84.1057L322.651 82.5643L310.127 78.6188Z" fill="url(#paint12_linear_9605_58478)"/>
<path d="M336.93 62.2094L334.646 75.1396L336.238 75.4207L338.521 62.4905L336.93 62.2094Z" fill="url(#paint13_linear_9605_58478)"/>
<path d="M321.163 65.6611L319.802 66.5322L326.88 77.5901L328.241 76.719L321.163 65.6611Z" fill="url(#paint14_linear_9605_58478)"/>
<path d="M287.743 183.165L285.683 214.212C297.177 213.707 304.894 209.93 304.894 209.93C305.883 191.407 303.52 170.662 296.187 152.018C277.562 158.946 272.31 181.873 269.542 215.95L280.451 217.222L287.743 183.165Z" fill="url(#paint15_linear_9605_58478)"/>
<path d="M291.944 140.123C288.449 141.375 286.207 141.093 286.005 137.739C285.904 135.821 287.883 134.285 289.621 135.093C290.368 135.437 291.075 136.103 291.762 137.032L291.944 140.123Z" fill="#F9B384"/>
<path opacity="0.15" d="M282.572 251.2L280.976 257.987L254.049 247.867L257.604 233.061C260.917 239.908 267.927 248.412 282.572 251.2Z" fill="#102048"/>
<path d="M321.942 158.847C322.407 160.321 322.811 161.816 323.194 163.291C323.598 164.785 323.942 166.28 324.305 167.775C324.649 169.27 324.972 170.785 325.275 172.3C325.558 173.815 325.861 175.33 326.063 176.865L325.679 176.946C325.194 175.471 324.81 173.996 324.406 172.502C324.023 171.007 323.659 169.512 323.316 168.017C322.972 166.523 322.649 165.008 322.366 163.493C322.063 161.978 321.78 160.463 321.558 158.948L321.942 158.847Z" fill="#658224"/>
<path d="M288.288 172.704C288.349 174.199 288.328 175.693 288.308 177.168C288.288 178.663 288.227 180.137 288.167 181.632C288.106 183.127 288.005 184.601 287.884 186.096C287.763 187.571 287.621 189.066 287.419 190.54L287.015 190.52C286.955 189.025 286.955 187.53 286.975 186.056C286.995 184.561 287.056 183.086 287.137 181.592C287.217 180.097 287.298 178.622 287.419 177.128C287.541 175.653 287.682 174.158 287.864 172.684L288.288 172.704Z" fill="#658224"/>
<path d="M302.684 245.884C303.148 244.188 303.673 242.511 304.199 240.834C304.724 239.158 305.31 237.501 305.855 235.845C306.441 234.189 307.027 232.532 307.653 230.896C308.279 229.26 308.926 227.624 309.633 226.008L310.016 226.149C309.572 227.846 309.047 229.523 308.522 231.199C307.976 232.876 307.411 234.532 306.845 236.188C306.239 237.845 305.673 239.501 305.047 241.137C304.421 242.774 303.795 244.41 303.088 246.026L302.684 245.884Z" fill="#23121B"/>
<path d="M289.843 138.264C289.661 138.021 289.5 137.759 289.318 137.516C289.136 137.274 288.974 137.031 288.752 136.87C288.55 136.688 288.368 136.607 288.186 136.648C287.964 136.668 287.762 136.91 287.52 137.092L287.318 136.971C287.459 136.668 287.601 136.345 288.005 136.163C288.429 135.981 288.894 136.183 289.136 136.425C289.641 136.93 289.924 137.536 290.045 138.183L289.843 138.264Z" fill="url(#paint16_linear_9605_58478)"/>
<path d="M348.203 111.58C348.586 110.166 348.384 108.873 347.778 108.711C347.172 108.55 346.223 109.216 345.839 110.63C345.455 112.044 345.031 114.084 346.001 114.549C347.718 115.377 347.839 113.014 348.203 111.58Z" fill="#F9B384"/>
</g>
</g>
<defs>
<filter id="filter0_ddd_9605_58478" x="110.519" y="184.109" width="367.151" height="257.105" filterUnits="userSpaceOnUse" color-interpolation-filters="sRGB">
<feFlood flood-opacity="0" result="BackgroundImageFix"/>
<feColorMatrix in="SourceAlpha" type="matrix" values="0 0 0 0 0 0 0 0 0 0 0 0 0 0 0 0 0 0 127 0" result="hardAlpha"/>
<feOffset dy="2.9609"/>
<feGaussianBlur stdDeviation="0.986966"/>
<feColorMatrix type="matrix" values="0 0 0 0 0 0 0 0 0 0 0 0 0 0 0 0 0 0 0.03 0"/>
<feBlend mode="normal" in2="BackgroundImageFix" result="effect1_dropShadow_9605_58478"/>
<feColorMatrix in="SourceAlpha" type="matrix" values="0 0 0 0 0 0 0 0 0 0 0 0 0 0 0 0 0 0 127 0" result="hardAlpha"/>
<feOffset dy="10.8566"/>
<feGaussianBlur stdDeviation="5.9218"/>
<feColorMatrix type="matrix" values="0 0 0 0 0 0 0 0 0 0 0 0 0 0 0 0 0 0 0.04 0"/>
<feBlend mode="normal" in2="effect1_dropShadow_9605_58478" result="effect2_dropShadow_9605_58478"/>
<feColorMatrix in="SourceAlpha" type="matrix" values="0 0 0 0 0 0 0 0 0 0 0 0 0 0 0 0 0 0 127 0" result="hardAlpha"/>
<feOffset dy="30.5959"/>
<feGaussianBlur stdDeviation="19.7393"/>
<feColorMatrix type="matrix" values="0 0 0 0 0 0 0 0 0 0 0 0 0 0 0 0 0 0 0.07 0"/>
<feBlend mode="normal" in2="effect2_dropShadow_9605_58478" result="effect3_dropShadow_9605_58478"/>
<feBlend mode="normal" in="SourceGraphic" in2="effect3_dropShadow_9605_58478" result="shape"/>
</filter>
<linearGradient id="paint0_linear_9605_58478" x1="118.119" y1="327.047" x2="199.754" y2="560.535" gradientUnits="userSpaceOnUse">
<stop stop-color="#A0CA3F"/>
<stop offset="1" stop-color="#7B9C30"/>
</linearGradient>
<linearGradient id="paint1_linear_9605_58478" x1="118.119" y1="327.047" x2="249.097" y2="454.962" gradientUnits="userSpaceOnUse">
<stop stop-color="#A0CA3F"/>
<stop offset="1" stop-color="#7B9C30"/>
</linearGradient>
<linearGradient id="paint2_linear_9605_58478" x1="327.097" y1="312.264" x2="228.733" y2="268.217" gradientUnits="userSpaceOnUse">
<stop stop-color="#260E1B"/>
<stop offset="1" stop-color="#563748"/>
</linearGradient>
<linearGradient id="paint3_linear_9605_58478" x1="307.418" y1="148.691" x2="301.854" y2="139.053" gradientUnits="userSpaceOnUse">
<stop stop-color="#260E1B"/>
<stop offset="1" stop-color="#563748"/>
</linearGradient>
<linearGradient id="paint4_linear_9605_58478" x1="307.6" y1="117.984" x2="377.118" y2="150.408" gradientUnits="userSpaceOnUse">
<stop stop-color="#A0CA3F"/>
<stop offset="1" stop-color="#7B9C30"/>
</linearGradient>
<linearGradient id="paint5_linear_9605_58478" x1="311.07" y1="137.033" x2="292.088" y2="112.741" gradientUnits="userSpaceOnUse">
<stop stop-color="#260E1B"/>
<stop offset="1" stop-color="#563748"/>
</linearGradient>
<linearGradient id="paint6_linear_9605_58478" x1="286.713" y1="257.986" x2="254.724" y2="225.328" gradientUnits="userSpaceOnUse">
<stop offset="0.000133771" stop-color="#8A1050"/>
<stop offset="1" stop-color="#B53378"/>
</linearGradient>
<linearGradient id="paint7_linear_9605_58478" x1="362.181" y1="125.521" x2="349.834" y2="111.649" gradientUnits="userSpaceOnUse">
<stop stop-color="#260E1B"/>
<stop offset="1" stop-color="#563748"/>
</linearGradient>
<linearGradient id="paint8_linear_9605_58478" x1="342.103" y1="102.677" x2="357.331" y2="114.703" gradientUnits="userSpaceOnUse">
<stop stop-color="#9B771B"/>
<stop offset="1" stop-color="#BD923E"/>
</linearGradient>
<linearGradient id="paint9_linear_9605_58478" x1="325.154" y1="81.0625" x2="351.011" y2="105.896" gradientUnits="userSpaceOnUse">
<stop stop-color="#FFB800"/>
<stop offset="1" stop-color="#E8BD69"/>
</linearGradient>
<linearGradient id="paint10_linear_9605_58478" x1="342.063" y1="79.1162" x2="353.611" y2="84.9628" gradientUnits="userSpaceOnUse">
<stop stop-color="#FFB800"/>
<stop offset="1" stop-color="#E8BD69"/>
</linearGradient>
<linearGradient id="paint11_linear_9605_58478" x1="321.393" y1="91.5615" x2="331.405" y2="103.718" gradientUnits="userSpaceOnUse">
<stop stop-color="#FFB800"/>
<stop offset="1" stop-color="#E8BD69"/>
</linearGradient>
<linearGradient id="paint12_linear_9605_58478" x1="309.641" y1="80.1602" x2="310.972" y2="77.2412" gradientUnits="userSpaceOnUse">
<stop stop-color="#FFB800"/>
<stop offset="1" stop-color="#E8BD69"/>
</linearGradient>
<linearGradient id="paint13_linear_9605_58478" x1="334.646" y1="75.1396" x2="337.85" y2="75.3074" gradientUnits="userSpaceOnUse">
<stop stop-color="#FFB800"/>
<stop offset="1" stop-color="#E8BD69"/>
</linearGradient>
<linearGradient id="paint14_linear_9605_58478" x1="319.802" y1="66.5322" x2="322.694" y2="65.1458" gradientUnits="userSpaceOnUse">
<stop stop-color="#FFB800"/>
<stop offset="1" stop-color="#E8BD69"/>
</linearGradient>
<linearGradient id="paint15_linear_9605_58478" x1="269.542" y1="152.018" x2="324.363" y2="181.919" gradientUnits="userSpaceOnUse">
<stop stop-color="#A0CA3F"/>
<stop offset="1" stop-color="#7B9C30"/>
</linearGradient>
<linearGradient id="paint16_linear_9605_58478" x1="290.045" y1="138.264" x2="287.723" y2="135.723" gradientUnits="userSpaceOnUse">
<stop stop-color="#260E1B"/>
<stop offset="1" stop-color="#563748"/>
</linearGradient>
<clipPath id="clip0_9605_58478">
<rect width="762.088" height="398.196" fill="white" transform="translate(-78.6953 59.8652)"/>
</clipPath>
<clipPath id="clip1_9605_58478">
<rect x="149.998" y="192.992" width="288.194" height="178.147" rx="3.94786" fill="white"/>
</clipPath>
<clipPath id="clip2_9605_58478">
<rect width="11.8436" height="11.8436" fill="white" transform="translate(283.732 229.019)"/>
</clipPath>
<clipPath id="clip3_9605_58478">
<rect width="11.8436" height="11.8436" fill="white" transform="translate(319.263 229.019)"/>
</clipPath>
<clipPath id="clip4_9605_58478">
<rect width="11.8436" height="11.8436" fill="white" transform="translate(354.794 229.019)"/>
</clipPath>
</defs>
</svg>
