<svg width="573" height="361" fill="none" xmlns="http://www.w3.org/2000/svg"><path opacity=".12" fill-rule="evenodd" clip-rule="evenodd" d="M62.063 291.858c38.248 28.894 99.948 30.444 153.668 42.766 47.147 10.815 91.963 30.864 140.878 24.797 49.665-6.16 87.206-32.28 122.291-57.438 36.349-26.064 70.25-54.138 82.457-89.377 13.413-38.723 21.318-83.472-11.232-116.242-32.068-32.285-97.462-34.306-150.953-47.036-47.931-11.408-93.798-24.254-144.478-23.275-60.109 1.16-124.511 2.763-170.856 29.364C34.432 83.774 4.528 127.635.444 171.986c-3.999 43.416 19.22 87.842 61.618 119.872z" fill="url(#paint0_linear_8003_49159)"/><path d="M106.237 300.178s-33.026-13.714-36.696-28.484c-3.67-14.771 26.324-9.779 49.258 20.312 0 0-33.878-56.754-12.8-60.872 21.079-4.119 32.519 55.438 32.519 55.438s5.957-29.282 19.74-27.849c13.782 1.434 5.774 23.989-16.977 41.455h-35.044z" fill="url(#paint1_linear_8003_49159)"/><path d="M129.639 297.86a170.973 170.973 0 00-24.489-64.958" stroke="url(#paint2_radial_8003_49159)" stroke-width=".7" stroke-linecap="round" stroke-linejoin="round"/><path d="M118.801 296.996s-30.036-14.544-43.57-32.236" stroke="url(#paint3_radial_8003_49159)" stroke-width=".7" stroke-linecap="round" stroke-linejoin="round"/><path d="M158.262 262.626s-10.21 29.735-25.061 34.371" stroke="url(#paint4_radial_8003_49159)" stroke-width=".7" stroke-linecap="round" stroke-linejoin="round"/><path d="M253.891 290.14s-47.024 3.471-72.787-1.639c-14.905-2.954-21.413-12.571-1.845-16.42 9.864-1.941 28.654-17.779-9.714-22.695-33.457-4.312-37.03-28.7-7.296-28.204 6.983.108-2.644-4.41-11.17-20.194-6.551-12.15-5.397-31.363 5.655-36.829 23.345-11.536 22.73 32.258 32.26 34.317 9.152 1.973 12.67-22.705 25.417-19.654 16.642 3.989-10.361 50.802-7.048 54.985 7.069 8.916 20.28-35.212 32.68-31.665 12.401 3.547-26.442 77.055 13.848 87.998z" fill="url(#paint5_linear_8003_49159)"/><path d="M242.143 288.08c-25.546-10.199-22.06-29.109-51.708-54.004-24.51-20.592-30.986-43.934-29-70.661" stroke="url(#paint6_radial_8003_49159)" stroke-width=".7" stroke-linecap="round" stroke-linejoin="round"/><path d="M308.677 288.619s33.026-13.725 36.696-28.496c3.669-14.77-24.576-13.131-47.489 16.96 0 0 34.278-51.029 13.2-55.137-21.078-4.107-34.656 53.099-34.656 53.099s-5.957-29.272-19.739-27.838c-13.783 1.434-5.775 23.989 16.966 41.455l35.022-.043z" fill="url(#paint7_linear_8003_49159)"/><path d="M285.301 286.301s5.623-35.762 26.615-62.597" stroke="url(#paint8_radial_8003_49159)" stroke-width=".7" stroke-linecap="round" stroke-linejoin="round"/><path d="M296.186 285.44s27.122-24.625 43.57-29.164" stroke="url(#paint9_radial_8003_49159)" stroke-width=".7" stroke-linecap="round" stroke-linejoin="round"/><path d="M256.691 251.068s10.21 29.725 25.061 34.371" stroke="url(#paint10_radial_8003_49159)" stroke-width=".7" stroke-linecap="round" stroke-linejoin="round"/><path d="M384.682 283.554s47.024 3.472 72.786-1.639c14.905-2.954 21.413-12.582 1.846-16.431-9.865-1.94-26.378-8.786 9.713-22.641 30.22-11.622 34.202-31.384 5.397-23.891-14.916 3.881 4.522-8.722 13.048-24.517 6.551-12.151 5.396-31.352-5.655-36.829-23.345-11.536-27.554 40.57-37.084 42.629-9.153 1.963 1.295-33.799-15.11-29.109-16.405 4.689 6.065 45.626 1.608 56.063-4.458 10.436-7.35-35.902-19.751-32.344-12.401 3.558 13.448 77.787-26.798 88.709z" fill="url(#paint11_linear_8003_49159)"/><path d="M396.385 281.514c25.546-10.199 22.049-29.11 51.708-54.004 24.51-20.582 33.317-38.317 31.299-65.044" stroke="url(#paint12_radial_8003_49159)" stroke-width=".7" stroke-linecap="round" stroke-linejoin="round"/><path d="M278.386 337.556c107.387 0 194.442-11.83 194.442-26.425 0-14.594-87.055-26.425-194.442-26.425-107.388 0-194.443 11.831-194.443 26.425 0 14.595 87.055 26.425 194.443 26.425z" fill="#6F8B29"/><path d="M346.547 54.177l71.308-27.611v-2.61h8.138a8.647 8.647 0 016.21 2.469 8.624 8.624 0 012.586 6.157v282.472a8.621 8.621 0 01-5.442 8.016 8.633 8.633 0 01-3.354.609h-8.138v-2.609l-71.308-27.697a8.633 8.633 0 01-5.483-8V62.198a8.62 8.62 0 015.483-8.021z" fill="url(#paint13_linear_8003_49159)"/><path d="M346.547 54.177l71.308-27.611v-2.61h8.138a8.647 8.647 0 016.21 2.469 8.624 8.624 0 012.586 6.157v282.472a8.621 8.621 0 01-5.442 8.016 8.633 8.633 0 01-3.354.609h-8.138v-2.609l-71.308-27.697a8.633 8.633 0 01-5.483-8V62.198a8.62 8.62 0 015.483-8.021z" fill="url(#paint14_radial_8003_49159)"/><path d="M338.325 293.375l76.575 29.648a8.64 8.64 0 0010.692-4.019 8.613 8.613 0 001.007-3.991V32.54a8.617 8.617 0 00-3.757-7.054 8.638 8.638 0 00-7.942-.946l-76.542 29.64a8.628 8.628 0 00-5.483 8.01v223.175a8.622 8.622 0 005.45 8.011z" fill="url(#paint15_linear_8003_49159)"/><path d="M418.012 313.762a1.79 1.79 0 001.706-1.768V35.569a1.79 1.79 0 00-1.706-1.768 1.61 1.61 0 00-.626.097l-76.553 26.954a1.697 1.697 0 00-1.079 1.585v222.636a1.706 1.706 0 001.079 1.595l76.553 26.954c.198.087.41.135.626.14z" fill="url(#paint16_linear_8003_49159)"/><path d="M419.711 204.395V35.569a1.789 1.789 0 00-1.705-1.768 1.608 1.608 0 00-.626.097l-27.641 9.704c-20.43 26.953 17.884 62.629 14.862 104.644-1.576 22.005-19.74 61.033-64.908 55.319v19.245c44.154 10.081 71.438-5.207 80.018-18.415z" fill="url(#paint17_linear_8003_49159)"/><path opacity=".56" d="M339.693 265.677v19.406a1.702 1.702 0 001.08 1.596l76.553 26.953c.199.077.412.114.626.108a1.792 1.792 0 001.705-1.768v-36.031l-79.964-10.264z" fill="#FFFFFD"/><path d="M318.212 142.748l82.414 2.555c5.536.172 10.35-5.337 10.35-11.86V95.816c0-6.469-4.814-11.083-10.35-9.832L318.212 104.7c-4.425 1.003-7.792 5.887-7.792 11.299v17.013c0 5.369 3.367 9.595 7.792 9.736zm48.1-77.335c8.387 0 15.186-9.534 15.186-21.294s-6.799-21.293-15.186-21.293c-8.386 0-15.185 9.533-15.185 21.293s6.799 21.294 15.185 21.294zm-18.291 174.669c9.543 0 17.28-9.78 17.28-21.843 0-12.064-7.737-21.843-17.28-21.843-9.543 0-17.279 9.779-17.279 21.843 0 12.063 7.736 21.843 17.279 21.843zm54.452 45.897c7.88 0 14.268-9.041 14.268-20.194 0-11.152-6.388-20.193-14.268-20.193-7.88 0-14.268 9.041-14.268 20.193 0 11.153 6.388 20.194 14.268 20.194zm-6.665-75.825c8.404 0 15.217-10.605 15.217-23.687s-6.813-23.687-15.217-23.687c-8.405 0-15.218 10.605-15.218 23.687s6.813 23.687 15.218 23.687z" fill="#606060" opacity=".33"/><path d="M372.058 283.672c0 4.312-1.23 7.73-2.741 7.73-1.511 0-2.753-3.461-2.753-7.73 0-4.27 1.231-7.741 2.753-7.741 1.521 0 2.741 3.428 2.741 7.741z" fill="url(#paint18_linear_8003_49159)"/><path d="M293.481 135.541l99.52.69c6.476 0 12.034-6.738 12.034-14.619V76.201c0-7.882-2.555-13.878-11.607-12.618l-99.947 24.24c-5.536 1.305-9.713 7.482-9.713 14.285v21.38c-.043 6.803 4.209 12.021 9.713 12.053z" fill="#3B3D42"/><path d="M287.868 135.437l99.444.69c6.476 0 12.034-6.739 12.034-14.62v-45.4c0-7.87-5.59-13.37-12.034-11.86l-99.444 23.482c-5.526 1.305-9.714 7.482-9.714 14.285v21.369c-.032 6.803 4.188 12.01 9.714 12.054z" fill="#555A64"/><path d="M373.462 87.364l-2.159 6.749a1.778 1.778 0 01-1.025 1.229l-4.716 1.563c-1.08.345-1.49 2.35-.713 3.353l3.421 4.399a2.38 2.38 0 01.389 1.703l-.874 6.965c-.205 1.607.939 2.75 1.91 1.909l4.317-3.709a1.012 1.012 0 011.306-.097l4.479 3.126c1.079.733 2.299-.625 2.083-2.285l-.96-7.127a2.772 2.772 0 01.421-1.876l3.842-5.52c.906-1.294.41-3.331-.81-3.396l-5.202-.237a1.294 1.294 0 01-1.079-.97l-2.159-6.189c-.507-1.412-1.986-1.164-2.471.41z" fill="url(#paint19_linear_8003_49159)"/><path d="M341.9 117.981a1.462 1.462 0 01-1.079-.507 2.83 2.83 0 01-.583-2.156l.712-6.275a1.722 1.722 0 00-.205-1.078l-2.784-4.011a3.137 3.137 0 01-.281-2.63 2.059 2.059 0 011.177-1.38l3.842-1.348c.108 0 .302-.237.421-.658l1.716-6.048a1.99 1.99 0 011.748-1.66 1.624 1.624 0 011.5 1.305l1.77 5.605c.098.313.249.42.303.42l4.187.292a1.635 1.635 0 011.328.96 3.24 3.24 0 01-.162 3.083l-3.098 4.916a2.007 2.007 0 00-.248 1.251l.777 6.415a3.078 3.078 0 01-.647 2.372 1.593 1.593 0 01-1.188.582 1.426 1.426 0 01-.895-.323l-3.627-2.847h-.075a.177.177 0 00-.13.065l-3.486 3.31a1.45 1.45 0 01-.993.345z" fill="url(#paint20_linear_8003_49159)"/><path d="M319.591 119.482a1.257 1.257 0 01-.939-.453 2.714 2.714 0 01-.55-2.081l.593-5.714a1.703 1.703 0 00-.172-1.002l-2.31-3.677a3.107 3.107 0 01-.194-2.523 1.854 1.854 0 011.004-1.186l3.237-1.175a.991.991 0 00.292-.55l1.414-5.487c.248-.95.842-1.542 1.554-1.542.712 0 1.133.463 1.36 1.261l1.457 5.111c.075.237.162.334.194.345l3.411.291a1.458 1.458 0 011.144.841 3.235 3.235 0 01-.087 2.911l-2.547 4.431a1.908 1.908 0 00-.205 1.078l.637 5.833a2.965 2.965 0 01-.605 2.242 1.37 1.37 0 01-1.014.485c-.313 0-.614-.12-.842-.334l-2.99-2.598-2.87 3.019a1.266 1.266 0 01-.972.474z" fill="url(#paint21_linear_8003_49159)"/><path d="M300.936 120.722a1.134 1.134 0 01-.842-.388 2.659 2.659 0 01-.518-1.995l.496-5.24a1.676 1.676 0 00-.14-.905l-1.954-3.407a3.105 3.105 0 01-.129-2.415 1.579 1.579 0 01.863-1.078l2.688-1.078a1.2 1.2 0 00.194-.442l1.187-5.014c.259-1.078.896-1.466 1.403-1.466.227 0 .961.086 1.263 1.218l1.22 4.701a.74.74 0 00.14.302l2.795.28a1.313 1.313 0 011.004.744 3.236 3.236 0 010 2.749l-2.159 4.033c-.161.334-.218.71-.162 1.078l.529 5.336a2.812 2.812 0 01-.572 2.157 1.184 1.184 0 01-.885.431 1.167 1.167 0 01-.809-.345l-2.439-2.34-2.31 2.674a1.08 1.08 0 01-.863.41z" fill="url(#paint22_linear_8003_49159)"/><path d="M285.085 121.79a1.08 1.08 0 01-.766-.367 2.48 2.48 0 01-.486-1.897l.421-4.841a1.616 1.616 0 00-.119-.841l-1.673-3.159a3.095 3.095 0 01-.086-2.318 1.463 1.463 0 01.766-.917l2.299-.948s.054-.119.108-.367l1.079-4.614c.195-.874.67-1.391 1.285-1.391.205 0 .906.075 1.165 1.175l1.08 4.313c.014.075.04.147.075.215l2.353.313a1.207 1.207 0 01.885.658 3.164 3.164 0 010 2.619l-1.813 3.698a1.915 1.915 0 00-.14.928l.453 4.927a2.693 2.693 0 01-.529 2.016 1.082 1.082 0 01-.809.388 1.087 1.087 0 01-.767-.356l-1.942-2.027-1.922 2.318a1.076 1.076 0 01-.917.475z" fill="url(#paint23_linear_8003_49159)"/><path d="M386.554 204.039c8.404 0 15.218-10.604 15.218-23.686s-6.814-23.687-15.218-23.687c-8.405 0-15.218 10.605-15.218 23.687s6.813 23.686 15.218 23.686z" fill="url(#paint24_linear_8003_49159)"/><path d="M386.552 156.666h-2.353v47.363h2.353v-47.363z" fill="url(#paint25_linear_8003_49159)"/><path d="M383.317 204.039c8.405 0 15.218-10.604 15.218-23.686s-6.813-23.687-15.218-23.687c-8.404 0-15.217 10.605-15.217 23.687s6.813 23.686 15.217 23.686z" fill="url(#paint26_radial_8003_49159)"/><path d="M383.312 202.423c7.838 0 14.192-9.881 14.192-22.069 0-12.189-6.354-22.07-14.192-22.07-7.839 0-14.193 9.881-14.193 22.07 0 12.188 6.354 22.069 14.193 22.069z" fill="#9FBD55"/><path d="M388.637 172.623c0 4.582-2.385 8.291-5.332 8.291-2.946 0-5.321-3.709-5.321-8.291 0-4.582 2.386-8.291 5.321-8.291 2.936 0 5.332 3.666 5.332 8.291zm3.413 29.81h-17.474v-9.919c0-2.314.92-4.534 2.557-6.171a8.745 8.745 0 016.174-2.562c2.319 0 4.543.92 6.182 2.558a8.727 8.727 0 012.561 6.175v9.919z" fill="#fff"/><path d="M343.738 191.446h-3.777v43.244h3.777v-43.244z" fill="url(#paint27_linear_8003_49159)"/><path d="M343.355 234.691c8.553 0 15.487-9.682 15.487-21.627 0-11.945-6.934-21.627-15.487-21.627-8.554 0-15.488 9.682-15.488 21.627 0 11.945 6.934 21.627 15.488 21.627z" fill="url(#paint28_linear_8003_49159)"/><path d="M340.001 234.691c8.554 0 15.488-9.682 15.488-21.627 0-11.945-6.934-21.627-15.488-21.627-8.553 0-15.487 9.682-15.487 21.627 0 11.945 6.934 21.627 15.487 21.627z" fill="#74922E"/><path d="M340.001 232.889c7.838 0 14.193-8.877 14.193-19.827 0-10.95-6.355-19.827-14.193-19.827-7.838 0-14.192 8.877-14.192 19.827 0 10.95 6.354 19.827 14.192 19.827z" fill="#9FBD55"/><path d="M345.144 222.81h-8.105v-15.687h9.66c1.888 0 3.237 2.318 2.914 5.164l-.529 5.391c-.281 2.825-2.051 5.132-3.94 5.132z" fill="#FFFFFD"/><path d="M337.039 207.124l1.144-3.353v-2.577c0-.97.68-1.66 1.338-1.337.659.324 1.565 1.283 1.565 3.375 0 3.967 1.77 4.366 1.77 4.366l-5.817-.474z" fill="#FFFFFD"/><path d="M335.855 207.113h-7.404v15.698h7.404v-15.698z" fill="url(#paint29_linear_8003_49159)"/><path d="M333.353 221.485c.769 0 1.393-.869 1.393-1.941s-.624-1.94-1.393-1.94-1.392.868-1.392 1.94.623 1.941 1.392 1.941z" fill="#fff"/><path d="M349.726 207.113h-1.878a1.834 1.834 0 00-1.834 1.833v.658c0 1.012.821 1.833 1.834 1.833h1.878a1.834 1.834 0 001.835-1.833v-.658a1.834 1.834 0 00-1.835-1.833z" fill="#FFFFFD"/><path d="M348.931 210.908h-1.877a1.834 1.834 0 00-1.835 1.833v.658c0 1.012.821 1.833 1.835 1.833h1.877a1.834 1.834 0 001.835-1.833v-.658a1.834 1.834 0 00-1.835-1.833z" fill="#FFFFFD"/><path d="M348.162 214.691h-1.878a1.835 1.835 0 00-1.835 1.833v.658c0 1.012.822 1.833 1.835 1.833h1.878a1.835 1.835 0 001.835-1.833v-.658a1.835 1.835 0 00-1.835-1.833z" fill="#FFFFFD"/><path d="M347.383 218.476h-1.878c-1.014 0-1.835.82-1.835 1.832v.658c0 1.012.821 1.833 1.835 1.833h1.878a1.834 1.834 0 001.834-1.833v-.658a1.833 1.833 0 00-1.834-1.832z" fill="#FFFFFD"/><path d="M397.496 279.672c7.534 0 13.642-8.645 13.642-19.31 0-10.664-6.108-19.309-13.642-19.309-7.535 0-13.642 8.645-13.642 19.309 0 10.665 6.107 19.31 13.642 19.31z" fill="url(#paint30_linear_8003_49159)"/><path d="M397.658 241.053h-3.67v38.608h3.67v-38.608z" fill="url(#paint31_linear_8003_49159)"/><path d="M393.984 279.672c7.534 0 13.642-8.645 13.642-19.31 0-10.664-6.108-19.309-13.642-19.309s-13.642 8.645-13.642 19.309c0 10.665 6.108 19.31 13.642 19.31z" fill="#74922E"/><path d="M393.985 278.367c7.022 0 12.714-8.061 12.714-18.005 0-9.943-5.692-18.005-12.714-18.005-7.021 0-12.714 8.062-12.714 18.005 0 9.944 5.693 18.005 12.714 18.005z" fill="#9FBD55"/><path d="M398.229 250.076a5.095 5.095 0 00-2.586 1.014 5.073 5.073 0 00-1.666 2.221 5.066 5.066 0 00-4.252-3.235c-2.839 0-5.192 2.911-4.814 7.871.604 8.064 8.634 15.622 9.066 16.032.442-.41 8.462-7.968 9.077-16.032.378-4.96-1.986-7.871-4.825-7.871z" fill="#FEFEFE"/><path d="M360.467 62.005c8.386 0 15.185-9.533 15.185-21.293s-6.799-21.293-15.185-21.293c-8.387 0-15.186 9.533-15.186 21.293s6.799 21.293 15.186 21.293z" fill="url(#paint32_linear_8003_49159)"/><path d="M360.883 19.419h-3.658v42.565h3.658V19.419z" fill="url(#paint33_linear_8003_49159)"/><path d="M357.223 62.005c8.386 0 15.185-9.533 15.185-21.293s-6.799-21.293-15.185-21.293c-8.387 0-15.186 9.533-15.186 21.293s6.799 21.293 15.186 21.293z" fill="#74922E"/><path d="M357.224 60.227c7.684 0 13.912-8.737 13.912-19.514 0-10.778-6.228-19.515-13.912-19.515-7.683 0-13.912 8.737-13.912 19.515 0 10.777 6.229 19.514 13.912 19.514z" fill="url(#paint34_linear_8003_49159)"/><path d="M363.5 32L349 34l7 3.5 7.5-5.5z" fill="#fff"/><path d="M356.072 39.537a.294.294 0 01-.13 0h-.129L348.23 35.5 348 46.642c0 .895 1.095 1.358 1.731 1.358l14.155.27c.637 0 1.155-.733 1.155-1.628V33.5l-8.969 6.037z" fill="#fff"/><path d="M291.396 141.315l16.198-9.342-3.907-6.76-16.198 9.342 3.907 6.76z" fill="#FDB9A2"/><path d="M309.058 132.408c-3.648 1.638-5.58.226-6.12-.335-2.633-2.695-2.601-6.415.939-9.293a45.018 45.018 0 015.785-4.248c2.525-1.639 7.08 6.781 7.08 6.781.421.572-.216 1.585-2.223 3.386a36.7 36.7 0 01-5.461 3.709z" fill="#FDB9A2"/><path d="M307.223 120.753a2.92 2.92 0 00-1.22.636 1.07 1.07 0 00-.313.851c.041.35.12.693.238 1.025l.269.646.357.68a2.843 2.843 0 01-1.236 3.832 2.85 2.85 0 01-4.15-2.452v-1.326c0-.432.065-.895.108-1.327a6.916 6.916 0 011.025-2.813 4.556 4.556 0 012.515-1.79 5.501 5.501 0 012.644-.054 1.083 1.083 0 01.778.984 1.082 1.082 0 01-.681 1.054l-.334.054z" fill="#FDB9A2"/><path d="M307.094 119.211l9.357-5.316a1.283 1.283 0 011.942 1.353 1.279 1.279 0 01-.56.804l-8.473 6.274-.129.087a1.928 1.928 0 01-2.205.204 1.922 1.922 0 01-.64-2.73c.146-.218.336-.405.557-.547l.151-.129z" fill="#FDB9A2"/><path d="M310.859 121.065a2.004 2.004 0 002.4 1.967 2.012 2.012 0 001.577-1.576 2.009 2.009 0 10-3.977-.391z" fill="#FDB9A2"/><path d="M312.023 123.244a2.002 2.002 0 001.232 1.86 2.007 2.007 0 002.632-2.615 2.005 2.005 0 00-1.856-1.24 2.008 2.008 0 00-2.008 1.995z" fill="#FDB9A2"/><path d="M313.117 125.724a2.004 2.004 0 001.242 1.854 2.014 2.014 0 002.189-.44 2.004 2.004 0 00-1.434-3.419 2 2 0 00-1.848 1.239c-.1.243-.15.503-.149.766z" fill="#FDB9A2"/><path d="M262.009 110.016l14.742 27.74 23.388-12 4.674 9.348s-22.557 20.344-28.223 20.344c-5.667 0-26.82-22.242-26.82-22.242l12.239-23.19z" fill="url(#paint35_linear_8003_49159)"/><path d="M260.287 113.326a996.057 996.057 0 0010.34 39.094c-8.364-6.092-20.83-19.191-20.83-19.191l10.49-19.903z" fill="#941759"/><path d="M252.156 290.259l.853 11.741 7.415-.086c-.087-4.065-.162-8.14-.238-12.205l-8.03.55z" fill="#FFBE98"/><path d="M222.535 169.647c4.781 9.153 19.708 68.947 19.708 68.947s6.788 47.966 9.433 64.041c3.291.065 6.939-.625 10.274-.647 2.364-19.6.281-70.079.065-74.736-.486-10.124-4.533-52.98-4.533-52.98s-25.395-5.272-34.947-4.625z" fill="url(#paint36_linear_8003_49159)"/><path d="M222.535 169.647c4.781 9.153 19.708 68.947 19.708 68.947s6.788 47.966 9.433 64.041c3.291.065 6.939-.625 10.274-.647 2.364-19.6.281-70.079.065-74.736-.486-10.124-4.533-52.98-4.533-52.98s-25.395-5.272-34.947-4.625z" fill="#634C27"/><path d="M247.672 172.407a3.306 3.306 0 00-1.76 3.353c1.479 21.067 1.36 42.177.756 63.276-.238 8.366-.691 16.744-.766 25.121-1.997-13.811-3.659-25.563-3.659-25.563s-14.927-59.794-19.708-68.947c5.656-.388 16.934 1.315 25.137 2.76z" fill="#D7A049"/><path d="M251.694 305.309c0-.797-.076-1.951 0-2.673a.972.972 0 01.249-.774.962.962 0 01.754-.304c.961-.098 2.299 0 3.238-.076a3.814 3.814 0 003.109-1.811c.269-.367.226-.679.55-1.078a4.318 4.318 0 015.31-1.337c1.954 1.078 3.497 2.706 6.055 3.32 2.558.615 6.033 1.262 6.616 4.313-8.627.165-17.254.305-25.881.42z" fill="#42311B"/><path d="M277.596 307.444l-25.903.388v-2.512l25.903-.399c-.032.841-.011 1.682 0 2.523z" fill="#C4C4C4"/><path d="M215.236 291.963c-.173 3.903-.335 7.806-.507 11.708l7.382.777 1.154-12.151-8.029-.334z" fill="#FFBE98"/><path d="M219.08 238.83l-.961-42.478.54-19.299 32.875-5.154-4.911 28.916-5.774 39.072s-15.898 47.643-17.787 64.268c-3.432 1.003-6.205.377-9.389.302-.788-20.949 5.407-65.627 5.407-65.627z" fill="#634C27"/><path d="M227.164 239.263s-9.552 50.478-12.779 64.807c0 .151-.065.302-.108.453h-.604c-.788-20.992 5.396-65.67 5.396-65.67l-.96-42.478.539-19.299 13.049-2.049c-1.608 5.445-4.533 64.236-4.533 64.236z" fill="#D7A049"/><path d="M223.384 300.662c.281-1.078.561-2.156.831-3.234-.529 2.576-.939 4.884-1.155 6.781l-.572.13c.302-1.262.594-2.459.896-3.677z" fill="url(#paint37_linear_8003_49159)"/><path d="M219.164 299.024a86.088 86.088 0 00-2.871-.119 4.657 4.657 0 00-4.069 2.329 6.26 6.26 0 01-.928 1.197c-4.09 4.183-3.896 6.005-3.896 6.005h16.707c0-2.706.076-4.593 0-6.231a7.554 7.554 0 01-2.698-2.06 3.092 3.092 0 00-2.245-1.121z" fill="#42311B"/><path d="M207.41 310.947v-2.523h16.74v2.523" fill="#C4C4C4"/><path d="M234.006 103.557l8.829 4.862 4.209-4s11.526 1.747 14.969 5.596c3.378 12.83-3.788 46.942-3.788 46.942l-.863 20.096h-38.703l-4.706-62.284a5.218 5.218 0 013.324-5.11l16.729-6.102z" fill="url(#paint38_linear_8003_49159)"/><path d="M223.258 120.345a438.151 438.151 0 011.608 5.089l6.476 51.621H218.66l-4.187-55.524c2.924-.539 5.871-.863 8.785-1.186zm10.123-18.05s4.479-2.07 4.673-2.156c.195-.086 9.293 1.671 9.293 1.671l4.101 4.237 2.785 9.919-7.469-3.418-4.997 7.709-13.21-14.426 4.824-3.536z" fill="#941759"/><path d="M234.117 90.652l-.119 14.48 12.293 6.318.755-5.251-.755-11.288-12.174-4.259z" fill="#FDB9A2"/><path d="M234.08 93.919v-3.234l12.174 4.247.767 11.289-.087.593c-4.263-4.27-8.645-8.582-12.854-12.895z" fill="#E6A893"/><path d="M247.162 89.12s6.594-2.458 6.951-8.625a8.8 8.8 0 00-3.972-7.925l-4.436 1.079 1.457 15.47z" fill="#42311B"/><path d="M248.908 72.128a2.807 2.807 0 012.957 2.631l.982 17.132a6.112 6.112 0 01-5.753 6.469l-3.302.183a9.431 9.431 0 01-5.397-2.157 13.087 13.087 0 01-4.252-5.735l-.712-12.56a5.061 5.061 0 012.853-4.893 5.074 5.074 0 011.928-.498l10.696-.572z" fill="#FDB9A2"/><path d="M247.904 86.361l.939 2.081-.485.68" stroke="#BD816D" stroke-width=".92" stroke-linecap="round" stroke-linejoin="round"/><path d="M249.633 91.19s-1.371 0-6.033.378a3.892 3.892 0 003.345 1.876 2.39 2.39 0 002.443-1.307 2.38 2.38 0 00.245-.947z" fill="#fff"/><path d="M255.635 73.758c.119-3.094-1.5-6.36-7.739-6.781-3.777-.259-13.491.647-14.71 4.96-1.824-.81-3.292 3.18-3.432 4.409-.626 5.94 2.158 8.442 2.158 8.442a4.69 4.69 0 012.483-.119c.276 1.057.432 2.142.464 3.235h1.327c1.468-.852 2.256-3.235 2.072-5.186 0 0 4.123-.841 1.587-5.39 6.497.344 15.617 1.11 15.79-3.57z" fill="#42311B"/><path d="M234.346 71.883s-1.748-1.165-.075-3.698c0 0-3.044 1.563-1.35 5.39l1.425-1.692z" fill="#42311B"/><path d="M242.48 85.293c0 .464.324.82.658.809.335-.011.594-.42.562-.884-.033-.464-.313-.82-.659-.798-.345.021-.583.453-.561.873zm6.833-.775c0 .463.313.83.659.808.345-.021.582-.41.561-.873-.022-.463-.324-.83-.659-.809-.334.022-.593.41-.561.874z" fill="#251225"/><path d="M231.555 88.269c.756 1.693 2.278 2.663 3.4 2.156 1.123-.506 1.436-2.275.68-3.967-.755-1.693-2.266-2.663-3.4-2.156-1.133.506-1.424 2.274-.68 3.967z" fill="#FDB9A2"/><path d="M244.548 82.61c-.68.161-1.252.258-1.792.442-.577.207-1.142.445-1.695.711a.238.238 0 01-.313-.119.275.275 0 010-.183 2.31 2.31 0 01.637-.96 2.81 2.81 0 011.08-.592 2.483 2.483 0 012.277.312.22.22 0 01.045.067c.01.025.016.052.016.079a.213.213 0 01-.016.079.218.218 0 01-.045.066.176.176 0 01-.119.076l-.075.021zm3.565-.648a1.743 1.743 0 011.835-.797c.233.047.453.143.648.28.261.176.458.434.561.732a.207.207 0 01-.119.248h-.097c-.594 0-.939-.086-1.317-.108-.377-.021-.755 0-1.316-.075a.185.185 0 01-.131-.065.184.184 0 01-.036-.066.186.186 0 01-.006-.074.22.22 0 01-.022-.075z" fill="#3A1B18"/><path d="M224.951 164.806a2.016 2.016 0 011.241 1.865l.928 2.641-.151 2.006a1.39 1.39 0 01-.324.97c-.701.873-1.975.809-2.158-.119l.065-2.932-1.404-2.62 1.803-1.811z" fill="#FDB9A2"/><path d="M216.315 158.93l5.709 5.035c.192.167.34.378.432.615l2.774 6.005c.054.161.138.311.248.442l1.478.647c.713.873.875 1.315-.626 2.501-1.5 1.186-3.54 3.429-5.396 3.364-1.23 0-4.144.313-5.019-.561-.248-.248-.55-.42-.69-.733l-4.728-12.937a1.572 1.572 0 01.475-1.92l3.346-2.501a1.568 1.568 0 011.997.043z" fill="#FDB9A2"/><path d="M225.603 171.071l1.37.604c.713.873.874 1.315-.626 2.501s-3.54 3.429-5.396 3.364c-1.231 0-4.145.313-5.019-.561l-.334-.301a54.021 54.021 0 0010.005-5.607z" fill="#E6A893"/><path d="M218.619 160.945l6.368 3.86 1.144 2.081a1.3 1.3 0 01-.298 1.639c-.154.13-.337.222-.533.269l-3.67.927-3.011-8.776z" fill="#FDB9A2"/><path d="M216.596 109.929s-17.128 11.417-26.507 21.961a6.561 6.561 0 00-.194 8.421l21.834 26.662 8.634-5.132-14.03-23.978 17.268-7.611s8.127-4.313 8.213-12.183c.087-7.871-15.218-8.14-15.218-8.14z" fill="url(#paint39_linear_8003_49159)"/><path d="M139.197 252.34c-1.532-10.167-5.17-22.641-10.501-30.921a41.093 41.093 0 00-10.61-11.752 17.256 17.256 0 01-2.244 3.235c.339-1.488.43-3.022.269-4.539-4.608-2.911-8.871-3.968-11.213-3.289-3.238.917-3.378 4.744.475 11.655a14.473 14.473 0 009.066 1.79 33.042 33.042 0 01-7.156 1.391 115.366 115.366 0 006.853 9.433c11.354 15.429 15.445 26.674 17.625 33.735 2.18 7.062 2.158 10.059 2.158 10.103a137.161 137.161 0 016.595-2.696 110.12 110.12 0 00-1.317-18.145z" fill="url(#paint40_linear_8003_49159)"/><path d="M136.694 271.704a.548.548 0 01-.54-.529c-.658-39.363-24.974-58.586-25.223-58.78a.55.55 0 01-.097-.755.553.553 0 01.767-.097c.248.194 24.963 19.741 25.632 59.611a.525.525 0 01-.323.504.542.542 0 01-.206.046h-.01z" fill="url(#paint41_radial_8003_49159)"/><path d="M120.265 222.215h-.119a17.205 17.205 0 00-4.727-.054.536.536 0 01-.604-.463.535.535 0 01.103-.401.53.53 0 01.361-.203 17.298 17.298 0 015.115.075.542.542 0 01.4.647.554.554 0 01-.529.399z" fill="url(#paint42_radial_8003_49159)"/><path d="M119.054 220.536a.535.535 0 01-.529-.474 7.318 7.318 0 01.734-4.431.537.537 0 01.734-.184.527.527 0 01.252.326.513.513 0 01-.058.408 6.326 6.326 0 00-.593 3.741.539.539 0 01-.464.604l-.076.01z" fill="url(#paint43_radial_8003_49159)"/><path d="M124.817 228.827a.506.506 0 01-.249-.065c-2.763-1.423-6.961-.83-7.004-.83a.54.54 0 01-.545-.263.536.536 0 01-.058-.413.545.545 0 01.452-.402c.183 0 4.587-.636 7.652.938a.545.545 0 01.226.733.518.518 0 01-.193.219.542.542 0 01-.281.083z" fill="url(#paint44_radial_8003_49159)"/><path d="M126.644 231.824a.552.552 0 01-.539-.463 10.478 10.478 0 011.079-6.351.534.534 0 01.327-.291.534.534 0 01.692.626.53.53 0 01-.091.204 9.7 9.7 0 00-.907 5.661.53.53 0 01-.099.401.546.546 0 01-.354.213h-.108z" fill="url(#paint45_radial_8003_49159)"/><path d="M132.551 246.023a.492.492 0 01-.248-.065c-2.914-1.498-7.339-.873-7.382-.873a.55.55 0 01-.615-.453.548.548 0 01.453-.614c.194 0 4.813-.669 8.04.992a.523.523 0 01.266.313c.022.067.029.138.022.208a.522.522 0 01-.061.201.535.535 0 01-.475.291z" fill="url(#paint46_radial_8003_49159)"/><path d="M131.053 242.034a.538.538 0 01-.529-.464 10.918 10.918 0 011.08-6.673.518.518 0 01.535-.265.545.545 0 01.447.403.549.549 0 01-.054.412 10.079 10.079 0 00-.961 5.972.537.537 0 01-.453.604l-.065.011z" fill="url(#paint47_radial_8003_49159)"/><path d="M152.266 250.474c1.651-13.056 1.532-29.703-2.159-41.735a52.24 52.24 0 00-8.969-18.156 22.245 22.245 0 01-3.874 3.149 17.596 17.596 0 001.91-5.499c-4.662-5.186-9.53-7.967-12.671-7.946-4.317 0-5.795 4.669-3.464 14.512a18.49 18.49 0 0010.544 5.391 42.763 42.763 0 01-9.303-.766c1.22 4 2.925 8.625 5.148 14.016 8.634 22.943 9.714 38.22 9.962 47.675 0 9.477-.82 13.143-.831 13.186 2.989-.41 6.011-.744 9.066-1.024a141.427 141.427 0 004.641-22.803z" fill="url(#paint48_linear_8003_49159)"/><path d="M142.633 273.32a.372.372 0 01-.141 0 .542.542 0 01-.377-.658c12.897-48.743-10.383-80.958-10.621-81.27a.55.55 0 01.119-.755.541.541 0 01.756.108c.237.323 23.83 32.926 10.792 82.197a.545.545 0 01-.528.378z" fill="url(#paint49_radial_8003_49159)"/><path d="M139.685 206.617a.475.475 0 01-.259-.076 21.723 21.723 0 00-5.85-1.725.55.55 0 01-.464-.614.55.55 0 01.615-.453c2.153.307 4.248.932 6.217 1.854a.554.554 0 01.26.322.533.533 0 01-.044.411.533.533 0 01-.475.281z" fill="url(#paint50_radial_8003_49159)"/><path d="M138.727 204.168h-.119a.535.535 0 01-.354-.206.532.532 0 01-.099-.397 9.158 9.158 0 012.396-5.111.541.541 0 01.883.408.542.542 0 01-.139.369 8.198 8.198 0 00-2.072 4.485.551.551 0 01-.496.452z" fill="url(#paint51_radial_8003_49159)"/><path d="M142.925 216.384a.56.56 0 01-.378-.151c-2.924-2.738-8.353-3.482-8.407-3.493a.528.528 0 01-.464-.604.543.543 0 01.604-.464c.238 0 5.818.798 9.012 3.774a.53.53 0 01.16.383.528.528 0 01-.16.382.557.557 0 01-.367.173z" fill="url(#paint52_radial_8003_49159)"/><path d="M144.144 220.718h-.076a.543.543 0 01-.464-.604 13.268 13.268 0 013.465-7.375.542.542 0 01.733.043.54.54 0 01.011.734 12.44 12.44 0 00-3.14 6.749.53.53 0 01-.529.453z" fill="url(#paint53_radial_8003_49159)"/><path d="M146.476 240.255a.559.559 0 01-.378-.151c-3.097-2.889-8.818-3.676-8.872-3.676a.543.543 0 01-.26-.964.519.519 0 01.401-.104c.248 0 6.119.831 9.476 3.957a.542.542 0 010 .766.513.513 0 01-.367.172z" fill="url(#paint54_radial_8003_49159)"/><path d="M145.971 234.799h-.075a.54.54 0 01-.454-.604 13.907 13.907 0 013.627-7.751.538.538 0 01.744.776 13.083 13.083 0 00-3.302 7.116.552.552 0 01-.54.463z" fill="url(#paint55_radial_8003_49159)"/><path d="M148.57 252.34c1.543-10.167 5.17-22.641 10.512-30.921a40.924 40.924 0 0110.609-11.752 17.308 17.308 0 002.245 3.235 13.586 13.586 0 01-.27-4.539c4.609-2.911 8.861-3.968 11.214-3.289 3.238.917 3.367 4.744-.475 11.655a14.488 14.488 0 01-9.066 1.79 33.053 33.053 0 007.145 1.391c-2.116 3.26-4.4 6.409-6.843 9.433-11.353 15.429-15.444 26.674-17.635 33.735-2.191 7.062-2.158 10.059-2.158 10.103a134.689 134.689 0 00-6.606-2.696 111.565 111.565 0 011.328-18.145z" fill="#6F8B29"/><path d="M151.076 271.704a.552.552 0 01-.529-.55c.68-39.891 25.395-59.416 25.643-59.61a.55.55 0 01.408-.131.542.542 0 01.471.403.553.553 0 01-.068.423.526.526 0 01-.152.156c-.248.194-24.554 19.407-25.223 58.781a.54.54 0 01-.55.528z" fill="url(#paint56_radial_8003_49159)"/><path d="M167.496 222.217a.538.538 0 01-.529-.42.54.54 0 01.4-.647 17.305 17.305 0 015.116-.076.54.54 0 01.464.604.554.554 0 01-.605.464 17.166 17.166 0 00-4.727.054l-.119.021z" fill="url(#paint57_radial_8003_49159)"/><path d="M168.722 220.534h-.076a.537.537 0 01-.453-.603 6.468 6.468 0 00-.594-3.742.533.533 0 01.035-.596.546.546 0 01.564-.195.535.535 0 01.329.242 7.301 7.301 0 01.734 4.431.551.551 0 01-.539.463z" fill="url(#paint58_radial_8003_49159)"/><path d="M162.971 228.828a.542.542 0 01-.538-.412.54.54 0 01.29-.613c3.065-1.574 7.457-.959 7.652-.938a.547.547 0 01-.162 1.079s-4.242-.593-6.994.83a.586.586 0 01-.248.054z" fill="url(#paint59_radial_8003_49159)"/><path d="M161.13 231.825h-.076a.553.553 0 01-.464-.615 9.438 9.438 0 00-.906-5.649.55.55 0 01.392-.815.55.55 0 01.399.106.524.524 0 01.137.159 10.393 10.393 0 011.079 6.35.537.537 0 01-.561.464z" fill="url(#paint60_radial_8003_49159)"/><path d="M155.231 246.021a.552.552 0 01-.486-.291.54.54 0 01.237-.722c3.238-1.661 7.836-1.014 8.041-.992a.545.545 0 11-.162 1.078s-4.479-.625-7.382.873a.563.563 0 01-.248.054z" fill="url(#paint61_radial_8003_49159)"/><path d="M156.762 242.034h-.076a.544.544 0 01-.453-.604 10.035 10.035 0 00-.96-5.973.547.547 0 01.183-.744.554.554 0 01.745.194 11.1 11.1 0 011.079 6.674.549.549 0 01-.518.453z" fill="url(#paint62_radial_8003_49159)"/><path fill-rule="evenodd" clip-rule="evenodd" d="M121.493 264.155h43.861a3.41 3.41 0 013.411 3.407v6.372a3.409 3.409 0 01-3.411 3.407h-.941l-5.3 30.415a3.413 3.413 0 01-3.335 2.867h-24.727a3.407 3.407 0 01-3.356-2.813l-5.283-30.469h-.919a3.409 3.409 0 01-3.411-3.407v-6.372a3.41 3.41 0 013.411-3.407z" fill="#FFBD54"/><path d="M165.351 264.157h-7.695c-2.062 9.811-5.019 19.514-9.973 28.29a61.396 61.396 0 01-15.552 18.178h23.744a3.412 3.412 0 003.356-2.814l5.289-30.415h.928a3.394 3.394 0 003.4-3.396v-6.393a3.391 3.391 0 00-2.153-3.215 3.396 3.396 0 00-1.344-.235z" fill="#000" fill-opacity=".1"/><path d="M145.427 133.67a8.43 8.43 0 01-7.787-5.198 8.415 8.415 0 011.827-9.177 8.438 8.438 0 0112.969 1.276 8.416 8.416 0 01-1.048 10.632 8.432 8.432 0 01-5.961 2.467zm0-15.17a6.757 6.757 0 00-6.242 4.167 6.741 6.741 0 001.465 7.355 6.764 6.764 0 007.363 1.463 6.748 6.748 0 004.17-6.236 6.75 6.75 0 00-1.982-4.769 6.77 6.77 0 00-4.774-1.98zm173.862-99.134a9.681 9.681 0 01-9.497-11.572A9.68 9.68 0 01322.994.737a9.68 9.68 0 015.978 8.946 9.683 9.683 0 01-9.683 9.683zm0-17.444a7.76 7.76 0 107.761 7.761 7.772 7.772 0 00-7.761-7.761zM167.984 31.47a6.056 6.056 0 01-5.592-3.736 6.048 6.048 0 011.312-6.595 6.055 6.055 0 019.312.917 6.052 6.052 0 01-5.032 9.414zm0-10.903a4.848 4.848 0 00-4.482 2.995 4.854 4.854 0 003.535 6.614 4.852 4.852 0 005.797-4.758 4.855 4.855 0 00-4.85-4.85zM464.539 9.683a4.84 4.84 0 110-9.681 4.84 4.84 0 010 9.681zm0-8.722a3.88 3.88 0 00-2.744 6.625 3.881 3.881 0 006.625-2.744A3.89 3.89 0 00464.539.96zM58.04 246.076a5.033 5.033 0 01-4.654-3.094 5.02 5.02 0 013.658-6.857 5.031 5.031 0 016.015 4.926 5.021 5.021 0 01-1.47 3.549 5.033 5.033 0 01-3.549 1.476zm0-9.046a4.028 4.028 0 00-3.719 2.483 4.016 4.016 0 00.873 4.382c.563.562 1.28.945 2.06 1.101a4.034 4.034 0 004.134-1.71 4.02 4.02 0 00-3.348-6.256z" fill="#AFDD44"/><defs><linearGradient id="paint0_linear_8003_49159" x1="0" y1="360.541" x2="291.331" y2="-138.45" gradientUnits="userSpaceOnUse"><stop stop-color="#A0CA3F"/><stop offset="1" stop-color="#7B9C30"/></linearGradient><linearGradient id="paint1_linear_8003_49159" x1="69.234" y1="230.93" x2="134.988" y2="321.898" gradientUnits="userSpaceOnUse"><stop stop-color="#A0CA3F"/><stop offset="1" stop-color="#7B9C30"/></linearGradient><linearGradient id="paint5_linear_8003_49159" x1="142.025" y1="162.227" x2="269.782" y2="272.957" gradientUnits="userSpaceOnUse"><stop stop-color="#A0CA3F"/><stop offset="1" stop-color="#7B9C30"/></linearGradient><linearGradient id="paint7_linear_8003_49159" x1="249.908" y1="221.735" x2="312.752" y2="311.68" gradientUnits="userSpaceOnUse"><stop stop-color="#A0CA3F"/><stop offset="1" stop-color="#7B9C30"/></linearGradient><linearGradient id="paint11_linear_8003_49159" x1="384.682" y1="155.94" x2="511.74" y2="263.809" gradientUnits="userSpaceOnUse"><stop stop-color="#A0CA3F"/><stop offset="1" stop-color="#7B9C30"/></linearGradient><linearGradient id="paint13_linear_8003_49159" x1="434.8" y1="173.775" x2="341.064" y2="173.775" gradientUnits="userSpaceOnUse"><stop stop-color="#2F205F"/><stop offset="1" stop-color="#241170"/></linearGradient><linearGradient id="paint15_linear_8003_49159" x1="416.379" y1="110.22" x2="322.375" y2="311.574" gradientUnits="userSpaceOnUse"><stop stop-color="#76838F"/><stop offset="1" stop-color="#3B3D42"/></linearGradient><linearGradient id="paint16_linear_8003_49159" x1="331.152" y1="73.552" x2="482.73" y2="344.949" gradientUnits="userSpaceOnUse"><stop stop-color="#FFE46E"/><stop offset=".18" stop-color="#FFCD66"/><stop offset=".74" stop-color="#FF8A4D"/><stop offset="1" stop-color="#FF7043"/></linearGradient><linearGradient id="paint17_linear_8003_49159" x1="419.711" y1="129.939" x2="339.693" y2="129.939" gradientUnits="userSpaceOnUse"><stop stop-color="#FFDC74"/><stop offset=".45" stop-color="#FFC278"/><stop offset="1" stop-color="#FF9C7D"/></linearGradient><linearGradient id="paint18_linear_8003_49159" x1="368.021" y1="280.922" x2="372.816" y2="291.19" gradientUnits="userSpaceOnUse"><stop stop-color="#43474D"/></linearGradient><linearGradient id="paint19_linear_8003_49159" x1="-9004.98" y1="8240.21" x2="-9213.94" y2="6190.27" gradientUnits="userSpaceOnUse"><stop stop-color="#3B3D42"/></linearGradient><linearGradient id="paint20_linear_8003_49159" x1="339.429" y1="121.657" x2="352.325" y2="92.602" gradientUnits="userSpaceOnUse"><stop stop-color="#F97D00"/><stop offset="1" stop-color="#FFE500"/></linearGradient><linearGradient id="paint21_linear_8003_49159" x1="8923.8" y1="5715.74" x2="9295.59" y2="5310.17" gradientUnits="userSpaceOnUse"><stop stop-color="#F97D00"/><stop offset="1" stop-color="#FFE500"/></linearGradient><linearGradient id="paint22_linear_8003_49159" x1="7390.11" y1="5371.43" x2="7791.09" y2="4905.44" gradientUnits="userSpaceOnUse"><stop stop-color="#F97D00"/><stop offset="1" stop-color="#FFE500"/></linearGradient><linearGradient id="paint23_linear_8003_49159" x1="6320.89" y1="4935.31" x2="6615.66" y2="4578.28" gradientUnits="userSpaceOnUse"><stop stop-color="#F97D00"/><stop offset="1" stop-color="#FFE500"/></linearGradient><linearGradient id="paint24_linear_8003_49159" x1="15071.1" y1="10554.7" x2="15929.7" y2="10554.7" gradientUnits="userSpaceOnUse"><stop stop-color="#3B3D42"/><stop offset="1" stop-color="#241170"/></linearGradient><linearGradient id="paint25_linear_8003_49159" x1="1548.61" y1="10552.3" x2="1553.74" y2="10552.3" gradientUnits="userSpaceOnUse"><stop stop-color="#2F205F"/><stop offset="1" stop-color="#241170"/></linearGradient><linearGradient id="paint27_linear_8003_49159" x1="2054.64" y1="10995.1" x2="2067.86" y2="10995.1" gradientUnits="userSpaceOnUse"><stop stop-color="#2F205F"/><stop offset="1" stop-color="#241170"/></linearGradient><linearGradient id="paint28_linear_8003_49159" x1="14041.2" y1="10997.8" x2="14930.2" y2="10997.8" gradientUnits="userSpaceOnUse"><stop stop-color="#3B3D42"/><stop offset="1" stop-color="#241170"/></linearGradient><linearGradient id="paint29_linear_8003_49159" x1="3610.25" y1="4156.51" x2="3661.04" y2="4156.51" gradientUnits="userSpaceOnUse"><stop stop-color="#AE5180"/><stop offset="1" stop-color="#AE5180"/></linearGradient><linearGradient id="paint30_linear_8003_49159" x1="11140.1" y1="13823.9" x2="11830" y2="13823.9" gradientUnits="userSpaceOnUse"><stop stop-color="#3B3D42"/><stop offset="1" stop-color="#241170"/></linearGradient><linearGradient id="paint31_linear_8003_49159" x1="2243.37" y1="11579.9" x2="2255.81" y2="11579.9" gradientUnits="userSpaceOnUse"><stop stop-color="#2F205F"/><stop offset="1" stop-color="#241170"/></linearGradient><linearGradient id="paint32_linear_8003_49159" x1="14281" y1="3850.93" x2="15135.3" y2="3850.93" gradientUnits="userSpaceOnUse"><stop stop-color="#3B3D42"/><stop offset="1" stop-color="#241170"/></linearGradient><linearGradient id="paint33_linear_8003_49159" x1="2076.54" y1="3848.56" x2="2088.9" y2="3848.56" gradientUnits="userSpaceOnUse"><stop stop-color="#2F205F"/><stop offset="1" stop-color="#241170"/></linearGradient><linearGradient id="paint34_linear_8003_49159" x1="343.312" y1="21.198" x2="380.208" y2="47.501" gradientUnits="userSpaceOnUse"><stop stop-color="#A0CA3F"/><stop offset="1" stop-color="#7B9C30"/></linearGradient><linearGradient id="paint35_linear_8003_49159" x1="28186.3" y1="10786.7" x2="30995.2" y2="10786.7" gradientUnits="userSpaceOnUse"><stop offset="1" stop-color="#A3567E"/></linearGradient><linearGradient id="paint36_linear_8003_49159" x1="223.021" y1="268.674" x2="286.889" y2="159.281" gradientUnits="userSpaceOnUse"><stop stop-color="#FA9734"/><stop offset="1" stop-color="#FFDB57"/></linearGradient><linearGradient id="paint37_linear_8003_49159" x1="1206.79" y1="2847.06" x2="866.921" y2="2701.75" gradientUnits="userSpaceOnUse"><stop stop-color="#FA9734"/><stop offset="1" stop-color="#FFDB57"/></linearGradient><linearGradient id="paint38_linear_8003_49159" x1="26704.3" y1="16316.9" x2="29267.9" y2="17727.3" gradientUnits="userSpaceOnUse"><stop stop-color="#BC7299"/><stop offset="1" stop-color="#AE5180"/></linearGradient><linearGradient id="paint39_linear_8003_49159" x1="-25564.8" y1="5601.54" x2="-27849" y2="6352.34" gradientUnits="userSpaceOnUse"><stop stop-color="#BC7199"/><stop offset="1" stop-color="#AE5180"/></linearGradient><linearGradient id="paint40_linear_8003_49159" x1="13551.8" y1="22987.9" x2="14894" y2="22987.9" gradientUnits="userSpaceOnUse"><stop stop-color="#6F8B29"/><stop offset="1" stop-color="#4C5FC2"/></linearGradient><linearGradient id="paint48_linear_8003_49159" x1="2569.52" y1="32737.9" x2="3927.87" y2="33120.3" gradientUnits="userSpaceOnUse"><stop stop-color="#6F8B29"/><stop offset="1" stop-color="#4C5FC2"/></linearGradient><radialGradient id="paint2_radial_8003_49159" cx="0" cy="0" r="1" gradientUnits="userSpaceOnUse" gradientTransform="matrix(24.9097 0 0 24.8835 117.4 265.387)"><stop stop-color="#fff"/><stop offset=".6" stop-color="#E8F1FF"/><stop offset="1" stop-color="#DFECFF"/></radialGradient><radialGradient id="paint3_radial_8003_49159" cx="0" cy="0" r="1" gradientUnits="userSpaceOnUse" gradientTransform="matrix(789.058 0 0 583.801 15257.7 12269.9)"><stop stop-color="#fff"/><stop offset=".6" stop-color="#E8F1FF"/><stop offset="1" stop-color="#DFECFF"/></radialGradient><radialGradient id="paint4_radial_8003_49159" cx="0" cy="0" r="1" gradientUnits="userSpaceOnUse" gradientTransform="matrix(358.118 0 0 491.162 9997.12 13028.7)"><stop stop-color="#fff"/><stop offset=".6" stop-color="#E8F1FF"/><stop offset="1" stop-color="#DFECFF"/></radialGradient><radialGradient id="paint6_radial_8003_49159" cx="0" cy="0" r="1" gradientUnits="userSpaceOnUse" gradientTransform="matrix(3933.83705 476.32664 -732.7307 6051.40026 31063.5 39416.3)"><stop stop-color="#fff"/><stop offset=".6" stop-color="#E8F1FF"/><stop offset="1" stop-color="#DFECFF"/></radialGradient><radialGradient id="paint8_radial_8003_49159" cx="0" cy="0" r="1" gradientUnits="userSpaceOnUse" gradientTransform="matrix(-602.296 0 0 -1416.57 -10001 22033.1)"><stop stop-color="#fff"/><stop offset=".6" stop-color="#E8F1FF"/><stop offset="1" stop-color="#DFECFF"/></radialGradient><radialGradient id="paint9_radial_8003_49159" cx="0" cy="0" r="1" gradientUnits="userSpaceOnUse" gradientTransform="matrix(-763.353 0 0 -510.948 -15696 10845.9)"><stop stop-color="#fff"/><stop offset=".6" stop-color="#E8F1FF"/><stop offset="1" stop-color="#DFECFF"/></radialGradient><radialGradient id="paint10_radial_8003_49159" cx="0" cy="0" r="1" gradientUnits="userSpaceOnUse" gradientTransform="matrix(-358.118 0 0 -491.163 -10062.2 12648.7)"><stop stop-color="#fff"/><stop offset=".6" stop-color="#E8F1FF"/><stop offset="1" stop-color="#DFECFF"/></radialGradient><radialGradient id="paint12_radial_8003_49159" cx="0" cy="0" r="1" gradientUnits="userSpaceOnUse" gradientTransform="rotate(173.096 -9100.394 18743.644) scale(3980.82 5690.35)"><stop stop-color="#fff"/><stop offset=".6" stop-color="#E8F1FF"/><stop offset="1" stop-color="#DFECFF"/></radialGradient><radialGradient id="paint14_radial_8003_49159" cx="0" cy="0" r="1" gradientUnits="userSpaceOnUse" gradientTransform="matrix(-304.043 0 0 -303.723 473.966 2.124)"><stop stop-color="#3B3D42"/><stop offset=".3" stop-color="#3B3D42"/><stop offset="1" stop-color="#3B3D42"/></radialGradient><radialGradient id="paint26_radial_8003_49159" cx="0" cy="0" r="1" gradientUnits="userSpaceOnUse" gradientTransform="matrix(561.842 0 0 874.514 15406.1 10554.7)"><stop stop-color="#74922E"/></radialGradient><radialGradient id="paint41_radial_8003_49159" cx="0" cy="0" r="1" gradientUnits="userSpaceOnUse" gradientTransform="matrix(110.82 0 0 110.703 111.19 158.057)"><stop stop-color="#AFDD44"/></radialGradient><radialGradient id="paint42_radial_8003_49159" cx="0" cy="0" r="1" gradientUnits="userSpaceOnUse" gradientTransform="matrix(616.003 0 0 130.994 2284.14 550.709)"><stop stop-color="#AFDD44"/><stop offset="0" stop-color="#CBD5FF"/><stop offset="0" stop-color="#A2B4FF"/><stop offset="0" stop-color="#89A0FF"/><stop offset="0" stop-color="#AFDD44"/></radialGradient><radialGradient id="paint43_radial_8003_49159" cx="0" cy="0" r="1" gradientUnits="userSpaceOnUse" gradientTransform="matrix(186.646 0 0 530.164 775.743 1550.02)"><stop stop-color="#AFDD44"/><stop offset="0" stop-color="#CBD5FF"/><stop offset="0" stop-color="#A2B4FF"/><stop offset="0" stop-color="#89A0FF"/><stop offset="0" stop-color="#AFDD44"/></radialGradient><radialGradient id="paint44_radial_8003_49159" cx="0" cy="0" r="1" gradientUnits="userSpaceOnUse" gradientTransform="matrix(863.374 0 0 215.631 3157.42 769.563)"><stop stop-color="#AFDD44"/><stop offset="0" stop-color="#CBD5FF"/><stop offset="0" stop-color="#A2B4FF"/><stop offset="0" stop-color="#89A0FF"/><stop offset="0" stop-color="#AFDD44"/></radialGradient><radialGradient id="paint45_radial_8003_49159" cx="0" cy="0" r="1" gradientUnits="userSpaceOnUse" gradientTransform="matrix(227.865 0 0 732.203 928.45 2067.97)"><stop stop-color="#AFDD44"/><stop offset="0" stop-color="#CBD5FF"/><stop offset="0" stop-color="#A2B4FF"/><stop offset="0" stop-color="#89A0FF"/><stop offset="0" stop-color="#AFDD44"/></radialGradient><radialGradient id="paint46_radial_8003_49159" cx="0" cy="0" r="1" gradientUnits="userSpaceOnUse" gradientTransform="matrix(902.438 0 0 219.562 3302.35 796.618)"><stop stop-color="#AFDD44"/><stop offset="0" stop-color="#CBD5FF"/><stop offset="0" stop-color="#A2B4FF"/><stop offset="0" stop-color="#89A0FF"/><stop offset="0" stop-color="#AFDD44"/></radialGradient><radialGradient id="paint47_radial_8003_49159" cx="0" cy="0" r="1" gradientUnits="userSpaceOnUse" gradientTransform="matrix(226.89 0 0 760.549 929.415 2149.26)"><stop stop-color="#AFDD44"/><stop offset="0" stop-color="#CBD5FF"/><stop offset="0" stop-color="#A2B4FF"/><stop offset="0" stop-color="#89A0FF"/><stop offset="0" stop-color="#AFDD44"/></radialGradient><radialGradient id="paint49_radial_8003_49159" cx="0" cy="0" r="1" gradientUnits="userSpaceOnUse" gradientTransform="matrix(1611.33 0 0 8501.65 5805.87 21592.9)"><stop stop-color="#AFDD44"/><stop offset="0" stop-color="#CBD5FF"/><stop offset="0" stop-color="#A2B4FF"/><stop offset="0" stop-color="#89A0FF"/><stop offset="0" stop-color="#AFDD44"/></radialGradient><radialGradient id="paint50_radial_8003_49159" cx="0" cy="0" r="1" gradientUnits="userSpaceOnUse" gradientTransform="matrix(730.952 0 0 294.969 2707.24 946.309)"><stop stop-color="#AFDD44"/><stop offset="0" stop-color="#CBD5FF"/><stop offset="0" stop-color="#A2B4FF"/><stop offset="0" stop-color="#89A0FF"/><stop offset="0" stop-color="#AFDD44"/></radialGradient><radialGradient id="paint51_radial_8003_49159" cx="0" cy="0" r="1" gradientUnits="userSpaceOnUse" gradientTransform="matrix(337.326 0 0 599.388 1326.08 1707.25)"><stop stop-color="#AFDD44"/><stop offset="0" stop-color="#CBD5FF"/><stop offset="0" stop-color="#A2B4FF"/><stop offset="0" stop-color="#89A0FF"/><stop offset="0" stop-color="#AFDD44"/></radialGradient><radialGradient id="paint52_radial_8003_49159" cx="0" cy="0" r="1" gradientUnits="userSpaceOnUse" gradientTransform="matrix(1004.4 0 0 484.235 3670.79 1430.7)"><stop stop-color="#AFDD44"/><stop offset="0" stop-color="#CBD5FF"/><stop offset="0" stop-color="#A2B4FF"/><stop offset="0" stop-color="#89A0FF"/><stop offset="0" stop-color="#AFDD44"/></radialGradient><radialGradient id="paint53_radial_8003_49159" cx="0" cy="0" r="1" gradientUnits="userSpaceOnUse" gradientTransform="matrix(446.872 0 0 831.865 1717.31 2306.78)"><stop stop-color="#AFDD44"/><stop offset="0" stop-color="#CBD5FF"/><stop offset="0" stop-color="#A2B4FF"/><stop offset="0" stop-color="#89A0FF"/><stop offset="0" stop-color="#AFDD44"/></radialGradient><radialGradient id="paint54_radial_8003_49159" cx="0" cy="0" r="1" gradientUnits="userSpaceOnUse" gradientTransform="matrix(1051.91 0 0 503.206 3841.19 1502.14)"><stop stop-color="#AFDD44"/><stop offset="0" stop-color="#CBD5FF"/><stop offset="0" stop-color="#A2B4FF"/><stop offset="0" stop-color="#89A0FF"/><stop offset="0" stop-color="#AFDD44"/></radialGradient><radialGradient id="paint55_radial_8003_49159" cx="0" cy="0" r="1" gradientUnits="userSpaceOnUse" gradientTransform="matrix(463.518 0 0 870.611 1777.77 2418.02)"><stop stop-color="#AFDD44"/><stop offset="0" stop-color="#CBD5FF"/><stop offset="0" stop-color="#A2B4FF"/><stop offset="0" stop-color="#89A0FF"/><stop offset="0" stop-color="#AFDD44"/></radialGradient><radialGradient id="paint56_radial_8003_49159" cx="0" cy="0" r="1" gradientUnits="userSpaceOnUse" gradientTransform="matrix(2724.99 0 0 6190.97 9746.94 15796.8)"><stop stop-color="#AFDD44"/><stop offset="0" stop-color="#CBD5FF"/><stop offset="0" stop-color="#A2B4FF"/><stop offset="0" stop-color="#89A0FF"/><stop offset="0" stop-color="#AFDD44"/></radialGradient><radialGradient id="paint57_radial_8003_49159" cx="0" cy="0" r="1" gradientUnits="userSpaceOnUse" gradientTransform="matrix(615.87 0 0 133.209 2335.81 556.266)"><stop stop-color="#AFDD44"/><stop offset="0" stop-color="#CBD5FF"/><stop offset="0" stop-color="#A2B4FF"/><stop offset="0" stop-color="#89A0FF"/><stop offset="0" stop-color="#AFDD44"/></radialGradient><radialGradient id="paint58_radial_8003_49159" cx="0" cy="0" r="1" gradientUnits="userSpaceOnUse" gradientTransform="matrix(186.652 0 0 529.058 824.841 1547.25)"><stop stop-color="#AFDD44"/><stop offset="0" stop-color="#CBD5FF"/><stop offset="0" stop-color="#A2B4FF"/><stop offset="0" stop-color="#89A0FF"/><stop offset="0" stop-color="#AFDD44"/></radialGradient><radialGradient id="paint59_radial_8003_49159" cx="0" cy="0" r="1" gradientUnits="userSpaceOnUse" gradientTransform="matrix(864.724 0 0 215.455 3207.65 769.122)"><stop stop-color="#AFDD44"/><stop offset="0" stop-color="#CBD5FF"/><stop offset="0" stop-color="#A2B4FF"/><stop offset="0" stop-color="#89A0FF"/><stop offset="0" stop-color="#AFDD44"/></radialGradient><radialGradient id="paint60_radial_8003_49159" cx="0" cy="0" r="1" gradientUnits="userSpaceOnUse" gradientTransform="matrix(225.03 0 0 727.407 952.081 2055.94)"><stop stop-color="#AFDD44"/><stop offset="0" stop-color="#CBD5FF"/><stop offset="0" stop-color="#A2B4FF"/><stop offset="0" stop-color="#89A0FF"/><stop offset="0" stop-color="#AFDD44"/></radialGradient><radialGradient id="paint61_radial_8003_49159" cx="0" cy="0" r="1" gradientUnits="userSpaceOnUse" gradientTransform="matrix(903.603 0 0 220.476 3336.83 798.909)"><stop stop-color="#AFDD44"/><stop offset="0" stop-color="#CBD5FF"/><stop offset="0" stop-color="#A2B4FF"/><stop offset="0" stop-color="#89A0FF"/><stop offset="0" stop-color="#AFDD44"/></radialGradient><radialGradient id="paint62_radial_8003_49159" cx="0" cy="0" r="1" gradientUnits="userSpaceOnUse" gradientTransform="matrix(226.518 0 0 759.113 952.909 2145.66)"><stop stop-color="#AFDD44"/><stop offset="0" stop-color="#CBD5FF"/><stop offset="0" stop-color="#A2B4FF"/><stop offset="0" stop-color="#89A0FF"/><stop offset="0" stop-color="#AFDD44"/></radialGradient></defs></svg>