<svg width="574" height="443" fill="none" xmlns="http://www.w3.org/2000/svg"><path d="M127.035 42.244c.138.9.689 1.35 1.241 1.35.551-.15.827-.9.689-1.65-.138-.9-.689-1.35-1.241-1.35-.551 0-.827.75-.689 1.65z" fill="#263238"/><path d="M128 43.594s2.639 4.613 5 6.458c-1.111 1.692-3.611 1.538-3.611 1.538L128 43.594z" fill="#E8BB81"/><path d="M122.433 37.594c-.157 0-.315 0-.315-.116-.157-.116-.157-.348 0-.58 2.047-1.62 4.41-1.273 4.41-1.273.315 0 .472.232.472.463 0 .232-.315.348-.63.348 0 0-1.89-.232-3.464 1.042-.158.116-.315.116-.473.116z" fill="#263238"/><path d="M97.587 46.668c2.863 10.57 3.976 17.037 10.656 21.454 10.019 6.625 22.424-.947 22.742-12.304.318-10.096-4.453-25.871-15.904-27.922-11.45-2.208-20.516 8.045-17.494 18.772z" fill="#FFD093"/><path d="M115.71 17.734C128.552 16.1 126 29.18 123.53 33.268c0 0 .871 2.46 1.235 4.087.823 3.68 1.235 8.993 1.235 8.993l-1.646 1.224c-.412-.817-2.56-4.903-4.528-4.903-3.622 0-2.607 5.995-1.646 8.993.823 2.043 2.222 6.621 1.235 8.583-1.235 2.453-11.113 5.723-16.052 5.314-3.951-.327-4.94-5.722-6.174-9.401-.686-2.861-1.646-4.905-2.47-8.175-.786-3.124-4.115-8.994-2.057-16.352 6.585-11.036 18.768-13.243 23.048-13.897z" fill="#4B1010"/><path d="M122.044 56.965c2.384-7.983 1.881-14.965 1.332-17.457l.807-4.262c1.984 3.232 2.326 14.047 3.31 15.428.788 1.105 2.866 1.322 3.807 1.292.726 3.115 2.037 10.855 1.474 16.898-.562 6.042-9.873 5.332-14.458 4.221-.435-1.868.024-4.236.307-5.187 1.102.122 3.906-1.414 5.704-4.107 1.798-2.692-.823-5.303-2.283-6.826z" fill="#4B1010"/><path d="M117.007 47.08c.147 2.767 1.469 5.38 2.938 7.226 2.203 2.614 4.554.922 4.994-2.153.294-2.921-.44-7.688-3.084-9.072-2.791-1.537-4.995.77-4.848 3.998z" fill="#E8BB81"/><path opacity=".2" fill-rule="evenodd" clip-rule="evenodd" d="M299.721 71.304c-76.067-13.334-162.239-1.585-220.37 35.901C19.115 146.049.42 206.616.011 264.574c-.41 58.293 10.092 125.68 77.116 158.957 63.46 31.508 145.506-6.151 222.594-10.153 66.731-3.464 139.337 17.69 192.423-11.392 57.211-31.342 92.028-86.741 79.201-137.412-11.841-46.777-90.964-61.787-138.118-95.339-46.981-33.428-69.097-86.641-133.506-97.931z" fill="#AFDD44"/><ellipse cx="435.856" cy="394.825" rx="101.855" ry="37.657" fill="#C6D7A0"/><path d="M352.785 349.066c0 43.141 34.989 53.005 78.149 53.005 43.161 0 78.149-9.864 78.149-53.005 0-43.14-34.988-78.113-78.149-78.113-43.16 0-78.149 34.973-78.149 78.113z" fill="#941759"/><ellipse rx="55.805" ry="18.034" transform="matrix(-1 0 0 1 430.821 288.988)" fill="#575757"/><ellipse rx="41.853" ry="12.59" transform="matrix(-1 0 0 1 430.935 288.985)" fill="#433434"/><path d="M428.068 279.12c0-25.616-8.369-84.458-36.265-101.628 62.487 11.138 38.589 78.425 43.239 101.628h-6.974z" fill="#A9D83C"/><path d="M436.749 293.183c0-36.594 13.762-120.654 59.632-145.183-102.75 15.91-63.454 112.036-71.099 145.183h11.467z" fill="#65851C"/><path d="M435.076 293.183c0-25.67 57.214-66.5 85.124-83.706-62.517 11.16-87.449 60.455-92.101 83.707l6.977-.001z" fill="#A6D735"/><path d="M428.156 293.183c0-25.67-57.214-66.5-85.123-83.706 62.517 11.16 87.449 60.455 92.101 83.707l-6.978-.001z" fill="#678B14"/><path d="M189.834 14.253l-44.742 371.863c-.675 5.574 3.165 10.571 8.563 11.101l186.341 20.451c11.422.707 17.671-5.125 18.362-11.053l46.975-395.35c.707-5.896-4.9-11.23-16.37-11.23L200.935 4.003c-5.446.08-10.427 4.691-11.101 10.25z" fill="url(#paint0_linear_9102_51811)"/><path d="M181.446 13.609l-44.983 373.71c-.674 5.607 3.181 10.635 8.579 11.165l193.185 19.231c6.057.61 11.599-3.776 12.322-9.736l47.232-397.39C398.488 4.66 394.038-.095 387.917 0L192.595 3.295c-5.462.096-10.474 4.74-11.149 10.314z" fill="url(#paint1_linear_9102_51811)"/><path d="M185.111 34.219l-41.69 346.512c-.626 5.237 2.989 9.912 8.033 10.41l181.682 17.656c5.623.546 10.796-3.551 11.455-9.093L388.24 32.612c.659-5.51-3.47-9.976-9.157-9.928l-183.546 1.96c-5.109.048-9.8 4.37-10.426 9.575z" fill="url(#paint2_linear_9102_51811)"/><path d="M282.546 13.35c-.241 1.993 1.189 3.583 3.197 3.551 2.009-.032 3.824-1.654 4.065-3.663.241-1.992-1.189-3.582-3.197-3.55-2.008.032-3.824 1.67-4.065 3.663z" fill="url(#paint3_linear_9102_51811)"/><path opacity=".5" d="M216.531 266.813c37.191-68.759 92.761-89.355 109.485-160.218 9.045-38.316 2.876-74.977-7.502-105.42L387.916 0c6.12-.096 10.571 4.66 9.864 10.588l-47.232 397.39c-.707 5.96-6.266 10.346-12.322 9.736l-151.865-15.118c-1.109-61.61 13.591-105.131 30.17-135.784z" fill="#fff"/><path opacity=".63" d="M186.424 226.698l147.383 5.896c4.177.16 7.824-2.828 8.45-6.973l.113-.739c.739-4.868-2.924-9.285-7.84-9.446l-147.495-5.173a8.231 8.231 0 00-8.418 6.972v.016c-.723 4.836 2.907 9.254 7.807 9.447zm-4.352 27.987l147.206 7.117a8.205 8.205 0 008.515-6.973l.112-.755c.739-4.835-2.875-9.237-7.759-9.446l-147.319-6.394a8.233 8.233 0 00-8.482 6.972v.032c-.723 4.804 2.859 9.206 7.727 9.447zm-4.339 27.969l147.013 8.354a8.232 8.232 0 008.595-6.956l.113-.771c.739-4.804-2.844-9.19-7.696-9.447l-147.126-7.631c-4.209-.225-7.904 2.796-8.546 6.956l-.016.049c-.723 4.787 2.827 9.173 7.663 9.446z" fill="#fff"/><rect width="130" height="50" rx="8" transform="matrix(.99991 .01309 -.14004 .99015 209 100)" fill="url(#paint4_linear_9102_51811)"/><path d="M244.207 129.073a1.79 1.79 0 00-.016-.65c-.044-.2-.15-.386-.319-.558-.17-.173-.425-.347-.766-.522a9.518 9.518 0 00-1.339-.571 18.61 18.61 0 01-1.879-.792 7.453 7.453 0 01-1.565-1.033 3.822 3.822 0 01-1-1.377c-.219-.529-.28-1.141-.182-1.835.095-.667.33-1.264.706-1.792.377-.535.86-.987 1.451-1.356a6.972 6.972 0 012.035-.847 9.254 9.254 0 012.439-.277c1.145.015 2.127.227 2.945.635.825.402 1.434.968 1.826 1.697.4.723.53 1.574.392 2.552l-3.749-.049c.055-.39.022-.735-.101-1.035a1.385 1.385 0 00-.62-.711c-.298-.175-.691-.265-1.178-.271-.472-.007-.88.059-1.222.197a2.007 2.007 0 00-.812.564c-.198.232-.317.49-.357.774-.033.234.002.447.103.64.11.187.276.363.496.529.228.166.506.326.836.48.337.153.717.304 1.141.452.794.273 1.49.577 2.088.911.607.328 1.103.7 1.489 1.118.394.41.669.875.825 1.396.163.52.198 1.107.106 1.759a4.496 4.496 0 01-.67 1.846 4.644 4.644 0 01-1.365 1.356 6.384 6.384 0 01-1.945.817 9.545 9.545 0 01-2.414.256 9.143 9.143 0 01-2.332-.329 6.1 6.1 0 01-1.973-.964 4.034 4.034 0 01-1.284-1.647c-.278-.671-.353-1.464-.223-2.379l3.781.05c-.065.453-.058.837.02 1.151.077.313.221.567.43.762.21.187.481.326.813.415a5.14 5.14 0 001.165.133c.48.006.876-.056 1.189-.187.313-.138.554-.32.722-.545.169-.232.273-.486.313-.763zm14.895-11.196l-2.191 15.486-3.77-.049 2.19-15.486 3.771.049zm4.704.061l-.407 2.883-13.072-.171.407-2.883 13.072.171zm6.457 3.346l-5.543 12.182-4.049-.053 7.937-15.412 2.567.034-.912 3.249zm1.428 12.273l-2.094-12.282-.033-3.261 2.599.034 3.589 15.562-4.061-.053zm.667-5.778l-.408 2.883-8.024-.105.408-2.883 8.024.105zm6.733-9.64l6.155.08c1.203.016 2.223.207 3.061.573.838.366 1.448.9 1.829 1.601.389.701.511 1.562.366 2.584-.125.886-.369 1.625-.733 2.217a4.792 4.792 0 01-1.38 1.463 7.678 7.678 0 01-1.863.924l-1.333.675-5.167-.067.387-2.883 3.824.05c.479.006.889-.074 1.228-.24.339-.166.609-.404.811-.714.21-.316.346-.695.408-1.134.063-.447.035-.831-.084-1.152a1.41 1.41 0 00-.627-.744c-.291-.174-.669-.264-1.135-.27l-2.384-.032-1.783 12.604-3.77-.049 2.19-15.486zm6.371 15.598l-2.49-6.895 3.999.031 2.552 6.757-.023.16-4.038-.053zm15.015-15.318l-2.19 15.486-3.77-.049 2.19-15.487 3.77.05zm4.705.061l-.408 2.883-13.072-.172.408-2.882 13.072.171z" fill="#F6F6F6"/><path d="M92.253 100.704c-2.602 4.77-5.204 9.973-7.661 15.177-2.457 5.059-4.77 10.263-6.794 15.466-.578 1.301-1.012 2.602-1.445 3.903-.29.578-.434 1.301-.434 2.168-.144 1.59.29 3.758 1.156 5.927 1.735 4.48 4.915 9.25 8.24 13.442l-4.915 5.782c-1.446-1.012-2.746-1.879-3.903-2.891a37.98 37.98 0 01-3.613-3.18c-2.313-2.313-4.481-4.77-6.36-7.805-1.88-3.036-3.325-6.649-3.758-10.841-.145-2.168 0-4.481.578-6.649.433-1.446.722-3.036 1.3-4.481 1.735-5.926 3.903-11.708 6.36-17.345 1.301-2.747 2.458-5.493 3.903-8.24 1.446-2.746 2.747-5.348 4.481-8.094l12.865 7.661z" fill="#FFD093"/><path d="M83.003 155.051l7.227 1.879-5.348 10.407s-5.348-2.024-6.65-6.794l4.77-5.492z" fill="#FFD093"/><path d="M100.205 160.254l-6.505 8.239-8.941-1.195 5.472-10.368 9.974 3.324zm102.192-31.363l9.25-2.024 1.157 12.576s-7.95 1.59-11.853-4.77l1.446-5.782z" fill="#FFD093"/><path d="M220.466 129.758l-.303 4.771a4.999 4.999 0 01-4.606 4.668l-2.926.225-.982-12.555 8.817 2.891zM103.962 60.23c1.446 7.372 2.313 17.78-2.891 22.694 0 0 2.024 7.516 15.9 7.516 15.177 0 7.372-6.649 7.372-6.649-6.36-2.023-6.215-9.106-4.77-14.888l-15.611-8.673z" fill="#FFD093"/><path d="M98.181 87.837c-1.3-1.88-1.3-7.95.145-9.107 2.313-1.734 12.286-2.168 25.729 1.012 4.966 3.499 5.372 8.371 5.372 8.371l-31.245-.276z" fill="#420E29"/><path d="M53.084 430.987c1.012.289 2.023.289 2.601-.145.145-.144.434-.578.29-1.156-.145-.289-.29-.578-.578-.723-1.301-.723-4.481.578-4.626.723-.145 0-.145.145-.145.145 0 .144 0 .144.145.289.29.289 1.3.722 2.313.867zm1.59-1.59c.144 0 .144 0 .289.144l.434.434c.144.434 0 .578-.145.578-.578.434-2.602 0-4.047-.578 1.012-.289 2.602-.723 3.469-.578z" fill="#407BFF"/><path d="M50.625 430.263c1.3-.289 3.758-2.023 3.758-3.18 0-.144 0-.578-.578-.722-.29-.145-.723-.145-1.012.144-1.3.723-2.168 3.469-2.313 3.614-.144-.145 0 0 .145.144-.145-.144-.145 0 0 0zm2.89-3.613c.434.144.434.289.434.289 0 .722-1.59 2.023-2.89 2.602.289-.868 1.011-2.458 1.879-2.891h.578zm74.586 6.071c1.301 0 2.602-.144 3.036-.722.144-.145.289-.579 0-1.012-.145-.289-.434-.434-.723-.578-1.734-.434-5.204 1.59-5.348 1.59-.145 0-.145.144-.145.289 0 .144.145.144.145.144.578.145 1.879.289 3.035.289zm1.59-1.879h.434c.289 0 .434.145.434.289.144.289.144.434 0 .578-.434.723-3.036.723-4.915.434 1.156-.578 2.891-1.301 4.047-1.301z" fill="#407BFF"/><path d="M125.065 432.434c1.301-.578 3.758-2.746 3.614-3.903 0-.289-.289-.578-.867-.722-.434 0-1.012.144-1.301.433-1.301 1.012-1.59 3.758-1.59 3.903-.145.145 0 .289.144.289-.144 0 0 0 0 0zm2.458-4.047h.144c.434 0 .434.144.434.289.144.723-1.59 2.457-2.747 3.18.145-.867.434-2.457 1.301-3.18.289-.289.578-.289.868-.289z" fill="#407BFF"/><path d="M113.935 432.287h10.118l1.012-23.56h-10.118l-1.012 23.56zm-74.729-4.769l9.974 2.168 9.973-21.971-9.973-2.168-9.974 21.971z" fill="#FFD093"/><path d="M50.192 428.675l-11.13-2.457c-.434-.144-.867.145-1.012.434l-3.902 8.383c-.434.868.144 1.879 1.011 2.024 3.903.723 5.927 1.012 10.697 2.024 3.035.722 9.829 2.312 14.02 3.18 4.048.867 5.638-3.036 4.048-3.903-7.227-3.325-10.407-6.216-12.287-8.962-.289-.289-.867-.578-1.445-.723zm73.862 2.313h-11.13c-.434 0-.723.289-.867.723l-2.024 9.106c-.144.868.434 1.879 1.446 1.879 4.047 0 9.829-.289 14.888-.289 5.926 0 10.985.289 17.923.289 4.192 0 5.348-4.191 3.614-4.625-7.95-1.735-14.455-1.879-21.393-6.215-.867-.434-1.59-.868-2.457-.868z" fill="#263238"/><path d="M82.859 85.236c-9.54 2.168-17.345 26.452-17.345 26.452l19.08 14.599s7.082-6.649 10.118-18.791c3.324-12.72-2.024-24.572-11.853-22.26z" fill="#DADADA"/><path opacity=".4" d="M82.859 85.236c-9.54 2.168-17.345 26.452-17.345 26.452l19.08 14.599s7.082-6.649 10.118-18.791c3.324-12.72-2.024-24.572-11.853-22.26z" fill="#fff"/><path d="M140.1 96.8l16.045 14.744a191.761 191.761 0 008.094 7.228c2.602 2.457 5.348 4.77 7.95 6.938l-2.168-1.157 3.903 1.301c1.445.289 2.746.723 4.191 1.012 2.891.578 5.927.867 9.107 1.156 3.18.29 6.215.434 9.54.579 3.18.144 6.504.144 9.684.144l1.59 7.516c-3.469 1.301-6.649 2.169-10.118 2.891-3.469.723-6.938 1.301-10.407 1.59-3.469.289-7.083.434-10.841.145-3.758-.289-7.516-.867-11.275-1.879l-1.156-.289-1.156-.868c-3.18-2.457-5.927-4.77-8.818-7.227-2.746-2.457-5.637-4.914-8.383-7.372-5.493-4.914-10.841-9.973-16.189-15.032L140.1 96.8z" fill="#FFD093"/><path opacity=".2" d="M91.097 103.16c-5.203 5.059-6.793 14.455-7.227 22.549l.867.723s7.083-6.649 10.119-18.791c.144-.723.289-1.59.433-2.313l-4.192-2.168z" fill="#000"/><path d="M121.164 173.555S109.6 251.32 103.24 280.373c-6.938 31.945-44.086 137.318-44.086 137.318l-18.213-3.903s26.019-86.004 31.8-130.524c4.481-34.257 15.266-109.709 15.266-109.709h33.157z" fill="#1A1C1E"/><path opacity=".3" d="M113.937 201.307c-13.298 2.601-11.997 52.325-10.263 77.909 3.903-18.068 9.54-52.903 13.298-77.62-1.011-.434-2.023-.578-3.035-.289z" fill="#000"/><path d="M140.389 173.555s1.446 76.03.289 106.963c-1.156 32.233-12.431 137.895-12.431 137.895h-17.2s-.579-103.638-1.446-135.438c-.867-34.546-5.059-109.42-5.059-109.42h35.847z" fill="#1A1C1E"/><path d="M142.755 99.176c2.02 13.906 4.365 42.042-1.551 98.577l-57.256-2.842c-.432-10.612-15.43-110.372 2.437-110.372 0 0 5.58-.732 14.526-1.28 6.926-.367 17.026-.732 23.086 0 2.597.365 5.05.731 7.215 1.28 5.771 1.464 10.389 7.319 11.543 14.637z" fill="#941759"/><path opacity=".2" d="M134.752 111.688l9.829-2.313c.289 5.926.289 13.298-.145 22.404-4.481-5.203-10.263-13.153-9.684-20.091zm-9.687 297.039l-.578 12.141h-10.118l.578-12.141h10.118zm-75.887-3.18l9.974 2.168-5.06 11.274-9.973-2.023 5.06-11.419z" fill="#000"/><path d="M121.741 98.68c-4.914 13.154 23.706 28.621 23.706 28.621l12.431-15.9s-8.239-16.478-18.358-23.85c-12.575-9.25-14.02 1.156-17.779 11.13z" fill="#DADADA"/><path opacity=".4" d="M121.741 98.68c-4.914 13.154 23.706 28.621 23.706 28.621l12.431-15.9s-8.239-16.478-18.358-23.85c-12.575-9.25-14.02 1.156-17.779 11.13z" fill="#fff"/><path d="M204.134 132.793c1.995 0 3.613-1.164 3.613-2.601s-1.618-2.602-3.613-2.602c-1.996 0-3.614 1.165-3.614 2.602 0 1.437 1.618 2.601 3.614 2.601z" fill="#263238"/><path d="M202.686 138.719c-.145 0-.434-.144-.578-.289-.289-.289-.289-.722.144-1.011.145-.145 1.879-1.735 1.157-5.638-.145-.433.144-.722.578-.867.433 0 .722.145.867.578 1.012 4.77-1.59 6.938-1.59 7.083-.289 0-.434.144-.578.144z" fill="#263238"/><path opacity=".4" d="M207.022 130.047c0 1.156-1.301 2.024-2.891 2.024s-2.891-.868-2.891-2.024c0-1.156 1.301-2.024 2.891-2.024s2.891.868 2.891 2.024z" fill="#fff"/><path d="M232.162 133.596l-11.776-3.655-.407 3.249 10.152 2.03c.542.136 1.787.244 2.437-.406.649-.649 0-1.083-.406-1.218z" fill="#FFD093"/><defs><linearGradient id="paint0_linear_9102_51811" x1="277.525" y1="199.263" x2="350.96" y2="207.274" gradientUnits="userSpaceOnUse"><stop stop-color="#444B8C"/><stop offset=".996" stop-color="#26264F"/></linearGradient><linearGradient id="paint1_linear_9102_51811" x1="212.82" y1="14.153" x2="394.405" y2="632.344" gradientUnits="userSpaceOnUse"><stop stop-color="#44618C"/><stop offset=".996" stop-color="#26264F"/></linearGradient><linearGradient id="paint2_linear_9102_51811" x1="263.964" y1="195.267" x2="345.592" y2="695.099" gradientUnits="userSpaceOnUse"><stop stop-color="#B3E770"/><stop offset=".996" stop-color="#224213"/></linearGradient><linearGradient id="paint3_linear_9102_51811" x1="280.865" y1="-1.075" x2="494.276" y2="576.915" gradientUnits="userSpaceOnUse"><stop stop-color="#311944"/><stop offset="1" stop-color="#893976"/></linearGradient><linearGradient id="paint4_linear_9102_51811" x1="130" y1="50" x2="96.495" y2="-37.113" gradientUnits="userSpaceOnUse"><stop offset="0" stop-color="#8A1050"/><stop offset="1" stop-color="#B53378"/></linearGradient></defs></svg>