<svg width="569" height="366" fill="none" xmlns="http://www.w3.org/2000/svg"><path opacity=".2" fill-rule="evenodd" clip-rule="evenodd" d="M271.412 5.246c75.272-13.19 160.543-1.568 218.066 35.512 59.607 38.424 78.108 98.337 78.511 155.668.406 57.663-9.986 124.322-76.309 157.239-62.797 31.167-143.986-6.085-220.268-10.043-66.034-3.427-137.881 17.499-190.412-11.269-56.612-31.003-91.065-85.804-78.373-135.927 11.717-46.271 90.014-61.119 136.675-94.308 46.489-33.067 68.375-85.704 132.11-96.872z" fill="#AFDD44"/><path d="M539.751 288.098c-5.976-4.362-18.181-1.418-27.191 1.738a41.339 41.339 0 00-4.954-5.746c19.411-12.514 46.234-39.163 32.009-41.423-12.351-1.96-29.02 22.04-37.926 36.65-9.25-6.222-23.426-10.797-45.066-9.212-56.166 4.12-100.039-32.11-132.382-20.026-25.725 9.604-49.28 14.989-72.007 13.15.976-16.602 1.188-49.203-11.848-52.585-13.237-3.431-.253 33.587 6.953 52.074a102.173 102.173 0 01-5.068-.775c-4.672-9.212-12.372-21.271-20.827-21.681-7.964-.39 1.864 10.449 11.535 19.633-27.793-5.836-60.762 16.756-61.311 43.471h346.989s-.615-3.9-3.337-9.038c13.414-.268 30.91-1.485 24.431-6.23z" fill="#739131"/><path fill-rule="evenodd" clip-rule="evenodd" d="M330.447 208.178l20.996 14.294v-14.294h.005v95.183h-68.096v-95.183h47.095z" fill="#D29A50"/><path d="M120.227 229.26s-12.737 9.473-15.219 8.896c-2.482-.577 9.306-10.22 9.306-10.22-4.436-2.135-18.226-.796-18.226-.796s-4.596 14.812-6.862 13.644c-2.267-1.168 4.738-12.907 4.738-12.907-4.94-.299-10.995 3.382-10.995 3.382-8.295 6.553.545 16.87.545 16.87s-1.703 5.1-6.952 9.734c0 0-7.485 5.534-7.996 15.421l1.356.121s2.155-9.208 6.066-13.557c.153-.16.376-.386.647-.661a30.793 30.793 0 001.39-1.362c1.95-1.87 4.641-4.255 5.938-4.485a2.466 2.466 0 01-.056-.653c.017.208.035.424.056.653.445 5.215 10.557 9.765 16.78 10.704 6.222.938 4.3-1.624 2.155-5.416-2.145-3.793-8.927-5.489-10.478-7.234-1.55-1.745 1.655-1.738 5.403-.039 3.747 1.7 4.261 6.279 10.279 9.157 6.017 2.878 15.062-7.099 15.062-7.099-4.793-.243-11.638-5.45-11.391-7.043.247-1.592 11.621 2.75 13.557 2.959 1.936.208 6.369-2.211 7.05-10.043.681-7.832-12.153-10.026-12.153-10.026z" fill="#8FB734"/><path d="M52.595 235.143s14.065-7.877 7.502-18.567c0 0-5.253-6.563-10.878-8.252 0 0 3 15.942 0 16.317-3 .376-2.065-18.007-2.065-18.007s-14.815-7.126-20.628-6.563c0 0 9.188 15.567 6.188 15.191-3-.375-13.317-16.129-13.317-16.129s-15.192-2.813-17.628 6.191c-2.437 9.003 1.501 13.502 3.75 14.065 2.25.563 16.686.375 16.318 2.249-.369 1.874-10.126 4.867-15.567 3.191 0 0 6 14.816 13.878 14.065 7.877-.751 10.317-5.628 15.19-6.004 4.874-.375 8.441.939 6.004 2.253-2.437 1.314-10.693.431-14.628 3.779-3.935 3.347-7.13 5.409.188 6.911 7.317 1.501 20.44.563 23.065-5.065l2.628-5.625z" fill="#AFDD44"/><path d="M56.342 248.833c-3.939-7.3-3.751-13.689-3.751-13.689-4.502-14.253-43.888-27.007-43.888-27.007 50.076 20.256 41.26 32.631 41.26 32.631 1.352.789 3.375 4.544 4.78 7.422.198.49.514 1.168.987 2.086l.448.994c2.576 6.452 1.21 17.59 1.21 17.59l1.564.42c3.463-11.224-2.61-20.447-2.61-20.447z" fill="#8FB734"/><path d="M74.975 224.28s-18.542-10.383-9.89-24.476c0 0 6.925-8.652 14.34-10.877 0 0-3.956 21.014 0 21.507 3.956.494 2.719-23.732 2.719-23.732s19.533-9.386 27.194-8.652c0 0-12.114 20.51-8.159 20.026 3.956-.483 17.556-21.26 17.556-21.26s20.023-3.71 23.238 8.155c3.216 11.864-1.978 17.802-4.946 18.542-2.969.741-22.002.494-21.508 2.965.494 2.472 13.349 6.431 20.51 4.203 0 0-7.912 19.533-18.296 18.543-10.383-.991-13.595-7.415-20.023-7.912-6.427-.498-11.124 1.237-7.912 2.968 3.212 1.731 14.093.567 19.283 4.982 5.19 4.415 9.386 7.133-.247 9.111-9.633 1.978-26.948.74-30.407-6.678l-3.452-7.415z" fill="#AFDD44"/><path d="M132.819 188.68s-51.914 16.811-57.844 35.6c0 0 .246 8.406-4.944 18.045 0 0-7.995 12.167-3.441 26.958l2.058-.552s-1.801-14.684 1.599-23.187c.139-.316.347-.765.59-1.314.62-1.213 1.044-2.106 1.3-2.753 1.854-3.796 4.52-8.743 6.3-9.782.014 0-11.625-16.314 54.382-43.015z" fill="#8FB734"/><path d="M74.342 301.376a36.326 36.326 0 0025.683-10.637 36.329 36.329 0 0010.636-25.683H38.008a36.324 36.324 0 0022.43 33.559 36.344 36.344 0 0013.904 2.761z" fill="#941759"/><path d="M83.282 301.101a36.362 36.362 0 01-28.53-8.83 36.382 36.382 0 01-12.299-27.215h9.021a36.33 36.33 0 0031.808 36.045z" fill="#FFCCBE"/><path d="M106.687 298.882H42.008a4.482 4.482 0 00-4.48 4.481h73.64a4.483 4.483 0 00-4.481-4.481zm4.255-33.826H37.395a.557.557 0 00-.516.558.559.559 0 00.516.558h73.547a.56.56 0 000-1.116z" fill="#941759"/><path d="M391.201 73.803c-1.043-.16-4.228 2.781-4.228 2.781-6.771.782-16.686 2.583-20.242 3.268-2.527.486-9.323-1.829-15.963-4.491-7.894-3.164-15.57-6.817-15.57-6.817-4.38-.223-9.354 7.773-.469 12.862 1.356.775 6.452 2.085 12.32 3.31 8.096 1.668 17.659 3.128 20.913 2.606 3.782-.59 14.485-4.519 20.857-7.505l.07-.035c.382-.177 1.94-.872 2.982-.81 1.193.07 3.849-2.113 3.929-2.694.08-.58-3.546-2.315-4.599-2.475z" fill="#F4B3A4"/><path d="M382.931 174.503l-3.73.758s-17.068-19.175-19.703-27.247c-1.391-4.311-10.429-6.174-19.836-8.611-8.197-2.117-16.686-4.672-20.76-9.653-8.729-10.704 5.482-23.854 5.482-23.854s15.108 8.979 28.158 18.257c9.111 6.483 17.21 13.112 18.424 16.922 2.968 9.264 9.226 26.872 11.965 33.428z" fill="#3B3D42"/><path d="M377.94 180.831h2.086c.695-.112 1.22-.313 1.943-.407 1.095-.146 1.599.302 1.697.407l.02.02h8.914c.222-.319 0-1.042-.202-1.606a1.278 1.278 0 00-.834-.764c-.946-.272-2.809-.518-4.52-2.062-.959-.865-4.633-3.188-4.633-3.188h-.021c-.08 0-.466.122-2.138 1.533-.862.727-2.336-1.042-2.336-1.042a2.067 2.067 0 00-.483.653c-.21.424-.277.905-.192 1.37.133.803-.295 2.294-.639 3.302-.205.612-.383 1.043-.383 1.043s-.086.515 1.721.741z" fill="#835A1A"/><path d="M352.528 124.153l-12.862 15.25c-8.197-2.117-16.686-4.672-20.76-9.653-8.729-10.704 5.482-23.854 5.482-23.854s15.104 8.979 28.14 18.257z" fill="#313133"/><path d="M340.837 116.197s-1.043 3.271-2.725 8.19c-2.138 6.222-5.315 15.083-8.767 23.291-.758 1.808-1.53 3.58-2.305 5.291-2.868 6.323-5.805 11.742-8.392 14.496-4.647 4.953-15.942 36.785-15.942 36.785l-2.812-.778s-3.925-27.185 9.977-42.65a.994.994 0 00.278-.577c.184-2.291.848-12.543 2.287-22.944.348-2.548.751-5.103 1.203-7.55.028-.16.059-.313.087-.469 2.114-11.323 4.14-16.339 6.751-18.89l19.22 5.471 1.14.334z" fill="#3B3D42"/><path d="M299.575 208.158h2.086c.695-.112 1.22-.313 1.943-.407 1.095-.143 1.596.306 1.696.407l.021.021h8.913c.223-.32 0-1.043-.205-1.607a1.243 1.243 0 00-.834-.761c-.942-.274-2.805-.518-4.519-2.065-.96-.865-4.638-3.187-4.638-3.187-.079 0-.465.118-2.137 1.529-.863.727-2.336-1.043-2.336-1.043a2.102 2.102 0 00-.484.657 2.192 2.192 0 00-.191 1.366c.132.803-.295 2.295-.639 3.306-.209.612-.383 1.043-.383 1.043s-.097.515 1.707.741z" fill="#835A1A"/><path d="M303.71 79.22s-3.215 7.866-6.921 15.525c-3.128 6.438-6.584 12.726-8.781 14.068-3.097 1.891-11.631 7.231-17.165 11.211 0 0-4.321-.031-4.992.792-.671.824-2.222 4.544-1.77 4.919.452.376 3.887.202 4.721-.653.73-.744 2.35-1.279 2.753-1.391l.073-.024h.018c6.726-2.086 17.277-6.382 20.471-8.493 2.75-1.814 8.847-9.323 13.711-15.99 3.524-4.846 6.399-9.254 6.883-10.742 3.135-9.789-5.924-12.337-9.001-9.222z" fill="#F4B3A4"/><path d="M320.513 48.375a16.127 16.127 0 00-1.154-1.488c.482.025.965-.049 1.418-.215 1.13-.466 1.644-4.05 1.474-5.11-.17-1.06-1.738-4.137-3.667-4.443-1.93-.306-3.932 1.839-3.932 1.839.348-1.55 3.626-2.434 3.626-2.434-6.737 1.245-6.393 5.74-6.348 6.153-6.167-2.197-9.785 9.417-9.785 9.417l15.99 9.414s.042-2.565 1.568-2.398c2.36.246 4.338-5.59.81-10.735z" fill="#2C2C2C"/><path d="M321.528 72.744c-3.664 1.738-8.527-.758-8.503-.786.313-.313.205-1.255-.083-2.485a18.186 18.186 0 00-2.225-5.131c-.265-.445-.525-.89-.838-1.363l.417-.156 7.123-2.854s1.151 2.085 2.357 3.952c1.018 1.572 2.086 2.986 2.565 2.934.025-.02 4.738 3.22-.813 5.889z" fill="#F4B3A4"/><path d="M317.425 60.674c-.184 2.541-1.043 7.123-4.478 8.798a18.153 18.153 0 00-2.224-5.13l6.702-3.668z" fill="#D29D91"/><path d="M310.314 67.23s9.272-3.653 6.908-9.385c-2.364-5.733-2.764-10.081-8.781-7.996-6.018 2.086-6.258 4.752-5.938 6.859.32 2.107 5.322 11.326 7.811 10.523z" fill="#F4B3A4"/><path d="M313.767 56.528c4.279-.601 5.531-2.332 5.531-2.332a11.868 11.868 0 01-6.258-4.992s-4.811-1.624-8.377 1.088c-.226.296-.38.64-.452 1.004-.817-.267-2.048-.198-2.757 2.114-1.064 3.476 2.725 7.258 2.725 7.258.922-.26-.118-3.35-.26-5.002-.108-1.217.549-2.78.9-3.507.455.587 4.971 6.257 10.484 6.49a23.168 23.168 0 01-5.562-2.986c1.314.646 2.715 1.053 4.026.865z" fill="#2C2C2C"/><path d="M339.187 84.562a59.29 59.29 0 00-.253-.859 21.723 21.723 0 002.339-7.011c.629-4.241-.445-6.862-.445-6.862s-6.431-3.41-9.271-3.845h-.146c-2.868-.396-9.073.872-9.073.872s1.196 3.188-2.183 5.312c-3.379 2.124-6.984-.546-6.984-.546l-.348.24s-8.885 5.865-9.684 7.203c-.8 1.338-4.217 7.974-4.217 7.974s1.084 5.563 13.091 6.035c.988 2.395 1.739 4.728 1.989 6.678.952 7.561-.157 13.523.956 17.938 1.112 4.414 21.142 1.894 24.772 1.042 3.629-.851 2.808-4.72 3.09-8.485.355-4.738-2.454-21.514-3.633-25.686z" fill="#fff"/><path d="M341.275 76.698a21.685 21.685 0 01-2.354 7.043c-.316-1.39-1.599-6.466-3.667-8.77 0 0 3.483.313 6.021 1.727z" fill="#DBDBDB"/><path d="M259.715 126.249s3.73-4.519 4.519-5.058c.79-.539 4.332-1.47 4.52-1.283.187.188.208.463-.226.849-.435.385-2.107 1.359-1.867 1.467.24.107 5.266-2.392 5.993-1.551.726.841-.414 4.318-2.35 5.983-1.936 1.665-7.724 2.378-8.086 2.61-3.059 1.975-2.503-3.017-2.503-3.017zm-65.699-10.442s5.36 6.362 12.187 3.699c0 0 1.467-3.553 1.488-6.17v-.932c.035-2.948.136-4.602.136-4.602-.313-.133-10.429-4.29-10.429-3.942.181 7.974-3.382 11.947-3.382 11.947z" fill="#FFCCBE"/><path d="M198.421 105.768c.976 1.808 4.327 5.35 9.285 6.643.034-2.947.135-4.602.135-4.602-.288-.084-9.709-2.583-9.42-2.041z" fill="#DAB1A5"/><path d="M209.957 107.505s-11.388 2.676-12.946-4.44c-1.557-7.115-4.077-11.565 3.129-13.578 7.206-2.012 9.219.397 10.317 2.646 1.099 2.249 2.42 14.482-.5 15.372z" fill="#FFCCBE"/><path d="M197.409 104.993c-.157.1-2.608.855-7.248-8.392a8.05 8.05 0 01.472-7.363c1.7-2.78 7.721-4.954 12.723-5.91 5.003-.955 6.202 1.867 7.381 4.697 1.237 2.969 4.807 5.416 4.807 5.416-4.314 2.409-9.507-1.043-11.308-.473-1.801.57-2.433 3.403-2.569 4.314-.136.911-.348 1.665-2.607.852-2.26-.814-1.022 3.208-.661 3.977-.014.003.306 2.051-.99 2.882z" fill="#85550E"/><path d="M168.069 282.709h-6.883c-1.442 0-3.052-1.467-3.451-4.172-.4-2.704-3.376-4.151-4.019-6.348-.643-2.197 2.652-5.294 2.652-5.294l.553-.716.57-.747 5.465 1.3s.132 1.317.219 2.996c.056 1.213.09 2.614.021 3.845-.16 2.93.81 6.087 3.379 6.657 2.569.57 1.494 2.479 1.494 2.479zm48.003.072h-18.278a1.595 1.595 0 01-.389-.114c-1.22-.63-.838-5.441-.695-6.929.027-.274.048-.434.048-.434s6.428-5.294 7.3-1.241c.028.125.059.25.094.372 1.116 3.792 6.101 5.513 8.983 5.993 2.218.372 2.791 1.693 2.937 2.353z" fill="#2C2C2C"/><path d="M212.388 177.082s-.976 12.166-2.124 26.815c-1.557 19.888-3.434 44.316-3.618 48.942-.32 8.037-1.606 20.889-1.606 20.889s-3.053 3.052-9.16 1.766c0 0-5.444-18.348-6.998-37.762-.023-.316-.048-.635-.073-.96-1.446-19.766-3.692-61.376-3.692-61.376l27.271 1.686z" fill="#6D6D6D"/><path d="M212.388 177.082s-.976 12.166-2.124 26.815l-21.382 33.835c-.023-.316-.048-.635-.073-.96-1.446-19.766-3.692-61.376-3.692-61.376l27.271 1.686z" fill="#454545"/><path d="M207.933 178.529s-17.594 44.107-29.163 64.832c-11.569 20.725-15.184 26.513-15.184 26.513s-6.629-2.652-7.231-4.46c0 0 4.422-40.015 12.167-49.769 4.377-5.514 9.522-22.054 9.762-27.838.24-5.785 1.567-17.232 1.567-17.232l28.082 7.954z" fill="#6D6D6D"/><path d="M167.648 171.184s-.455 5.509-.789 6.354c-.334.845-2.558 3.476-2.816 3.431-.257-.045-.413-.247-.281-.778.132-.532.897-2.184.653-2.142-.243.042-2.781 4.686-3.803 4.425-1.022-.26-2.005-3.563-1.39-5.909.615-2.347 4.696-5.993 4.867-6.369 1.303-3.173 3.559.988 3.559.988z" fill="#FFCCBE"/><path d="M165.758 172.581c1.947.626 2.26.483 2.26.483s9.476-17.256 10.428-18.834c.953-1.578 20.124-19.352 20.124-19.352l-4.922-18.365s-21.8 28.223-24.153 32.277c-3.89 6.691-6.167 22.248-6.167 22.248a5.683 5.683 0 002.43 1.543z" fill="#7D9542"/><path d="M216.108 142.087c-.069 3.772-.288 7.995-.584 12.316 0 .258-.038.511-.055.769a403.346 403.346 0 01-.629 7.946 274.147 274.147 0 01-.299 3.094l-.018.139c0 .379-.052.789-.094 1.168-.963 9.765-1.971 17.482-2.155 17.601-.219.152-.486.22-.751.191-2.562-.324-10.203.257-16.46-1.102-5.277-1.116-9.824-3.226-14.642-6.073-.636-.376-2.086-1.391-1.978-2.128.118-.82.348-2.009.609-3.504.945-5.193 2.586-14.127 3.128-24.587.108-1.947.264-3.873.469-5.764a87.782 87.782 0 012.552-13.766c2.145-7.724 5.298-13.637 9.254-15.949.514-.292 3.295 1.478 5.85 3.129a11.272 11.272 0 007.255 1.738l2.124 2.35c2.573 2.989 5.315 6.973 6.063 12.636.055.417.104.862.142 1.335.217 2.815.29 5.639.219 8.461z" fill="#9FBD55"/><path d="M216.11 142.088c-.069 3.771-.288 7.995-.584 12.316 0 .257-.038.511-.055.768-14.629-9.16-16.881-25.915-16.881-25.915 7.196.316 12.914 1.971 17.319 4.338.211 2.826.278 5.66.201 8.493z" fill="#7D9542"/><path d="M261.938 126.702c-.751-2.04-1.926-1.908-1.926-1.908s-21.751 5.423-23.705 5.656c-1.953.233-23.423-8.385-23.423-8.385s-8.45-3.793-12.41-.348c-3.438 3.011-3.594 6.821-2.781 10.022a9.576 9.576 0 008.093 7.134c8.757 1.116 26.235 3.215 29.896 2.704 8.151-1.133 26.624-11.798 26.624-11.798a6.824 6.824 0 00-.368-3.077z" fill="#9FBD55"/><path d="M476.421 166.571s3.025 2.802 2.434 4.79c-.591 1.989-3.317 3.317-3.685 5.75-.369 2.433-1.843 3.758-3.17 3.758h-6.324s-.977-1.71 1.391-2.225c2.367-.514 3.247-3.375 3.101-6.028a47.58 47.58 0 01.222-6.191l5.009-1.182 1.022 1.328zm-37.658 13.968c-.309.153-1.391.261-2.864.33h-14.305c.048-.424.382-1.939 2.722-2.318 2.642-.428 7.22-1.964 8.238-5.347.035-.108.066-.219.091-.347.81-3.612 6.705 1.105 6.705 1.105s0 .146.042.389c.139 1.346.487 5.632-.629 6.188z" fill="#2C2C2C"/><path d="M425.016 83.941s.896 11.173 1.95 24.601c1.429 18.247 3.149 40.655 3.32 44.903.295 7.37 1.477 19.165 1.477 19.165s2.798 2.802 8.402 1.62c0 0 4.992-16.836 6.417-34.645.025-.292.045-.587.066-.879 1.328-18.132 3.39-56.315 3.39-56.315l-25.022 1.55z" fill="#AC8039"/><path d="M425.016 83.941s.896 11.173 1.95 24.601l19.616 31.043c.025-.292.045-.587.066-.879 1.328-18.132 3.39-56.315 3.39-56.315l-25.022 1.55z" fill="#916B30"/><path d="M429.105 85.26s16.141 40.466 26.768 59.481c10.626 19.015 13.929 24.334 13.929 24.334s6.08-2.433 6.633-4.092c0 0-4.057-36.712-11.166-45.66-4.015-5.058-8.736-20.232-8.955-25.54-.219-5.308-1.449-15.824-1.449-15.824l-25.76 7.3z" fill="#AC8039"/><path d="M379.318 63.32s-4.38-1.002-5.117-.953c-.737.049-3.313 1.13-3.348 1.338-.034.209.087.38.532.41.445.032 1.912-.16 1.818.018-.094.177-4.314 1.008-4.362 1.86-.049.851 2.266 2.433 4.223 2.534 1.957.1 5.799-2.166 6.125-2.194 2.795-.243.129-3.014.129-3.014z" fill="#ECC1B5"/><path d="M377.444 64.433c-.626-2.002-.48-2.319-.48-2.319s17.75-9.598 19.373-10.57c1.624-.974 19.968-20.51 19.968-20.51l18.771 5.172s-29.071 22.147-33.239 24.528c-6.883 3.942-22.829 6.174-22.829 6.174a5.832 5.832 0 01-1.564-2.475z" fill="#7B174C"/><path d="M421.994 21.564s-6.584 11.586-13.022 13.098c0 0 .267-3.89 1.835-6.553a56.818 56.818 0 01-1.693-2.085 39.61 39.61 0 01-2.391-3.348l2.183-5.875 1.484-3.984a19.272 19.272 0 002.315 3.338c4.22 4.86 9.289 5.409 9.289 5.409z" fill="#FFCCBE"/><path d="M412.705 16.165s.786 5.805-3.591 9.87a39.608 39.608 0 01-2.391-3.349l2.183-5.874a12.513 12.513 0 013.799-.647z" fill="#C9A297"/><path d="M404.985 23.54s9.837-3.823 7.355-9.927c-2.482-6.105-2.885-10.69-9.274-8.496-6.39 2.193-6.654 5.009-6.317 7.244.337 2.235 5.611 12.021 8.236 11.18z" fill="#FFCCBE"/><path d="M455.814 81.028c-3.97 5.708-33.65 13.332-33.299 9.386a42.806 42.806 0 000-7.794 48.768 48.768 0 00-.316-2.69c-.755-5.19-2.545-11.865-6.539-19.592a65.454 65.454 0 00-.935-1.739 60.438 60.438 0 01-4.116-9.246c-2.054-5.941-2.882-11.628-1.846-15.345a.455.455 0 010-.052c6.202-2.868 8.607-13.995 8.607-13.995s21.167 3.8 33.025 32.016c.014-.017 8.871 24.084 5.419 29.051z" fill="#941759"/><path d="M422.515 82.617a48.768 48.768 0 00-.316-2.691c-.754-5.19-2.545-11.865-6.539-19.592.695-4.172 1.634-7.613 2.673-9.17 4.221-6.327 6.678-7.3 6.678-7.3s6.334 26.683-2.496 38.753z" fill="#7B174C"/><path d="M389.152 76.267s-5.854.309-6.761.636c-.908.326-3.762 2.6-3.727 2.875.035.274.244.445.814.323s2.343-.883 2.291-.626c-.053.257-5.058 2.809-4.815 3.89.243 1.081 3.716 2.242 6.208 1.676 2.493-.567 6.508-4.79 6.911-4.944 3.421-1.307-.921-3.83-.921-3.83z" fill="#FFCCBE"/><path d="M388.05 78.486c-1.175-1.895-.33-2.76-.33-2.76s18.076-14.163 19.505-15.592c1.429-1.428 7.995-24.212 7.995-24.212s2.26-9.222 7.554-10.237c4.599-.883 7.777 1.39 9.859 4.06a9.805 9.805 0 01.664 11.03c-4.62 7.784-13.937 23.229-16.655 25.87-6.056 5.872-26.315 14.08-26.315 14.08a7.002 7.002 0 01-2.277-2.24z" fill="#941759"/><path d="M413.752 2.298c.07-.136.271-.282.758-.431a2.045 2.045 0 00-.991-.035c-.274-.674-.945-1.825-2.207-1.832a1.556 1.556 0 01.991.91c-1.739-1.094-4.926-1.41-12.915 1.249-10.526 3.507-5.266 9.618-3.671 10.109 1.596.49 4.519-2.656 7.175-3.084 2.656-.427 4.071 3.25 5.076 3.553 1.004.302.434-.532 1.491-1.37 1.057-.837 1.658 1.134 1.637 2.52-.021 1.388 2.034 2.698 2.034 2.698l1.206-2.21c1.206-2.212.876-10.245-.274-11.688l-.31-.39z" fill="#2C2C2C"/><path d="M567.009 303.296H9.901c-.55 0-.995.539-.995 1.205v.09c0 .665.445 1.205.995 1.205h557.108c.549 0 .994-.54.994-1.205v-.09c0-.666-.445-1.205-.994-1.205z" fill="#555"/><path fill-rule="evenodd" clip-rule="evenodd" d="M155.98 282.464h63.331l28.123 11.881v8.768H155.98v-20.649z" fill="#455A15"/><path fill-rule="evenodd" clip-rule="evenodd" d="M395.434 180.868h64.507l28.75 18.315v104.178h-93.257V180.868z" fill="#6B0E3F"/><path d="M219.106 282.464h-91.454v20.652h91.454v-20.652z" fill="#5D7624"/><path d="M262.341 303.361h68.097v-95.183h-68.097v95.183z" fill="#FFBE55"/><path d="M459.941 180.869H366.68v122.493h93.261V180.869z" fill="#941759"/></svg>