<svg width="570" height="405" fill="none" xmlns="http://www.w3.org/2000/svg"><path fill-rule="evenodd" clip-rule="evenodd" d="M507.33 103.928c-38.014-32.502-99.268-34.165-152.617-47.976-46.821-12.12-91.341-34.648-139.891-27.748-49.296 7.006-86.524 36.484-121.316 64.873C57.46 122.49 23.85 154.163 11.784 193.881-1.473 237.524-9.254 287.95 23.11 324.825c31.884 36.33 96.805 38.519 149.927 52.791 47.601 12.787 93.154 27.199 143.464 26.029 59.67-1.388 123.603-3.28 169.571-33.31 49.003-32.014 78.623-81.468 82.611-131.44 3.904-48.918-19.214-98.939-61.353-134.967z" fill="#E7F4CA"/><g clip-path="url(#clip0_7608_49218)"><path d="M348.188 105.305c-4.115 8.524-11.686 14.869-19.617 20.034a124.01 124.01 0 01-26.934 13.161c-1.304.457-2.621.894-3.939 1.304H241.3a22.501 22.501 0 01-1.057-1.304c-3.541-4.682-5.439-10.611-4.728-16.421.933-7.618 6.717-14.622 14.224-16.246 7.506-1.617 16.062 2.863 18.338 10.194 1.259-14.133 2.707-28.858 10.22-40.897 6.802-10.898 18.593-18.698 31.362-20.093a39.492 39.492 0 0121.834 3.997c.62.313 1.233.64 1.833.979a36.547 36.547 0 0110.526 8.98c7.962 10.082 9.913 24.736 4.336 36.312z" fill="#941759"/><path d="M333.326 60.012a1 1 0 01-.404.894 206.713 206.713 0 00-58.923 77.594c-.196.43-.385.867-.567 1.304h-2.596a206.798 206.798 0 018.752-18.247 209.825 209.825 0 0122.76-33.69 206.795 206.795 0 0128.871-28.663c.084-.068.176-.125.274-.17a1.333 1.333 0 011.152.048 1.337 1.337 0 01.681.93z" fill="#fff"/><path d="M423.891 252.212a7.012 7.012 0 003.13-5.034 7 7 0 00-1.849-5.632l3.894-46.441-11.155 1.227-3.056 45.2a7.048 7.048 0 00-.226 9.354 7.047 7.047 0 009.262 1.326zm-39.705 110.77l-7.996-.001-3.803-30.839h11.8l-.001 30.84z" fill="#FFB8B8"/><path d="M370.48 360.696h15.42v9.709h-25.129a9.724 9.724 0 012.844-6.865 9.71 9.71 0 016.865-2.844z" fill="#2F2E41"/><path d="M440.924 362.982l-7.996-.001-3.803-30.839h11.8l-.001 30.84z" fill="#FFB8B8"/><path d="M427.218 360.696h15.42v9.709H417.51a9.711 9.711 0 019.708-9.709z" fill="#2F2E41"/><path d="M384.321 343.882c-.087 0-.174-.004-.262-.011l-11.316-.906a3.261 3.261 0 01-2.959-3.771l17.157-106.119 1.149-14.968a3.247 3.247 0 012.554-2.935l17.257-3.775a3.243 3.243 0 013.389 1.344l4.207 6.15a72.117 72.117 0 005.377 6.854c2.986 3.4 8.062 10.95 8.517 23.305a82.58 82.58 0 001.262 12.1l13.893 74.842a3.272 3.272 0 01-.636 2.505 3.27 3.27 0 01-2.259 1.255l-10.727.812a3.246 3.246 0 01-3.458-2.399l-19.028-70.76a.65.65 0 00-1.027-.348.655.655 0 00-.233.35L387.47 341.46a3.263 3.263 0 01-3.149 2.422z" fill="#941759"/><path d="M414.414 163.305c8.847 0 16.018-7.171 16.018-16.018 0-8.846-7.171-16.017-16.018-16.017-8.846 0-16.018 7.171-16.018 16.017 0 8.847 7.172 16.018 16.018 16.018z" fill="#FFB8B8"/><path d="M387.264 220.515l-.331-22.874c-1.22-14.629 5.259-22.311 10.909-26.175a12.992 12.992 0 0110.045-1.922l12.606 2.725a13.283 13.283 0 018.514 6.063 12.407 12.407 0 011.417 9.787 13.428 13.428 0 01-5.478 7.501c-10.832 7.647-11.595 20.491-11.601 20.62l-.014.265-26.067 4.01z" fill="#8EB438"/><path d="M426.715 203.506h-11.087a2.94 2.94 0 01-2.935-2.935v-19.238a8.481 8.481 0 018.478-8.479 8.478 8.478 0 018.479 8.479v19.238a2.94 2.94 0 01-2.935 2.935z" fill="#8EB438"/><path d="M352.279 207.141a7.186 7.186 0 01-5.309 2.572 7.204 7.204 0 01-5.449-2.261c-6.317-6.625 4.01-16.573 10.351-9.934.223.229.431.473.621.731l31.974-.795 3.816-6.98 11.729 4.554c-2.251 3.492-4.837 17.197-10.726 16.53-.773.021-36.217-4.361-37.007-4.417z" fill="#FFB8B8"/><path d="M395.053 201.859l-8.938-6.559a2.937 2.937 0 01-.63-4.102l11.383-15.51a8.475 8.475 0 0111.851-1.819 8.48 8.48 0 011.819 11.851l-11.383 15.51a2.937 2.937 0 01-4.102.629z" fill="#8EB438"/><path d="M417.623 155.613a5.946 5.946 0 00-1.018-6.626c-3.013-3.038-7.721-1.011-11.794-1.309-6.783-.495-11.403-8.584-9.378-15.077 2.025-6.493 9.223-10.523 16.011-10.095 6.788.427 12.934 4.626 17.025 10.059 2.8-4.507 9.68-5.032 14.12-2.127 4.44 2.905 6.737 8.215 7.687 13.435.949 5.22.794 10.585 1.594 15.831 1.938 12.715 10.144 24.688 22.019 29.631 11.874 4.943 27.069 1.766 34.838-8.485a56.587 56.587 0 01-35.348 59.447c-6.435 2.547-13.541 3.899-20.315 2.484-10.936-2.286-19.443-11.639-23.151-22.179-3.707-10.54-3.263-22.105-1.462-33.131 1.109-6.792 2.337-14.836-2.617-19.613a11.895 11.895 0 00-4.784-2.412 6.39 6.39 0 01-3.644-9.406c.08-.142.152-.284.217-.427z" fill="#2F2E41"/><path d="M475.126 370.682H326.433a.65.65 0 01-.652-.652.652.652 0 01.652-.652h148.693a.654.654 0 01.652.652.652.652 0 01-.652.652z" fill="#3F3D56"/><path d="M116.157 137.32a3.894 3.894 0 00-3.889 3.89v119.937a3.893 3.893 0 003.889 3.89h223.139a3.893 3.893 0 003.89-3.89V141.21a3.893 3.893 0 00-3.89-3.89H116.157z" fill="#8EB438"/><path d="M339.296 273.122H116.157a11.982 11.982 0 01-8.462-3.511 11.982 11.982 0 01-3.511-8.462V141.212a11.986 11.986 0 0111.973-11.974h223.139a11.99 11.99 0 0111.974 11.974v119.937a11.986 11.986 0 01-11.974 11.973zm-223.139-142.64a10.742 10.742 0 00-10.73 10.73v119.937a10.739 10.739 0 003.147 7.583 10.739 10.739 0 007.583 3.147h223.139a10.741 10.741 0 0010.73-10.73V141.212a10.74 10.74 0 00-10.73-10.73H116.157z" fill="#3F3D56"/><path d="M313.884 207.028h-177.27a6.93 6.93 0 01-6.515-4.594l-22.668-63.596a6.909 6.909 0 01.86-6.305 6.922 6.922 0 015.646-2.934l227.343-.35a6.924 6.924 0 015.604 2.85 6.91 6.91 0 01.983 6.209l.025.011-27.65 64.517a6.905 6.905 0 01-6.358 4.192zm27.406-76.535l-227.352.349a5.667 5.667 0 00-4.63 2.407 5.678 5.678 0 00-.706 5.171l22.668 63.596a5.674 5.674 0 002.076 2.729 5.676 5.676 0 003.268 1.039h177.27a5.667 5.667 0 005.215-3.438l27.405-63.945.228.098-.228-.098a5.668 5.668 0 00-5.214-7.908z" fill="#3F3D56"/><path d="M243.411 206.408a15.68 15.68 0 01-15.683 15.683 15.683 15.683 0 01-15.683-15.683" fill="#3F3D56"/></g><defs><clipPath id="clip0_7608_49218"><path fill="#fff" transform="translate(73.54 .093)" d="M0 0h435.592v370.589H0z"/></clipPath></defs></svg>