<svg width="579" height="365" fill="none" xmlns="http://www.w3.org/2000/svg"><path opacity=".12" fill-rule="evenodd" clip-rule="evenodd" d="M516.392 74.936c-38.582-31.525-100.821-33.215-155.01-46.66-47.558-11.799-92.765-33.673-142.106-27.054-50.099 6.721-87.968 35.22-123.359 62.667-36.666 28.438-70.863 59.067-83.176 97.515-13.53 42.248-21.505 91.072 11.33 126.825 32.348 35.225 98.312 37.43 152.27 51.319 48.349 12.446 94.617 26.462 145.739 25.395 60.633-1.267 125.597-3.015 172.347-32.038 49.836-30.939 80.001-78.794 84.121-127.183 4.034-47.368-19.387-95.839-62.156-130.786z" fill="url(#paint0_linear_7945_49401)"/><g clip-path="url(#clip0_7945_49401)"><path d="M544.802 222.158s-4.186-2.473-8.639 7.46c-4.453 9.933-6.051 15.616-6.051 15.616s-1.207 2.089-2.668.831c-1.46-1.258-3.556-4.923-5.892-4.128-2.335.795-3.094 3.615-2.429 7.612.666 3.998 1.815 12.847 1.916 13.642.101.795-.296 1.966-1.446 1.272-1.149-.694-7.778-7.395-10.764-4.055-2.986 3.34.723 14.205 1.084 15.398.362 1.193.174 1.72-.39 2.053-.564.333-2.581-2.133-4.547-3.962-1.966-1.829-4.576-3.614-6.138-1.532-1.561 2.082-1.684 10.367 6.846 23.401l4.338 5.783 7.229-.766c15.369-2.567 21.377-8.285 21.84-10.844.462-2.559-2.61-3.268-5.285-3.47-2.675-.202-5.863 0-6-.658-.138-.658.108-1.149 1.243-1.677s11.625-5.183 12.051-9.644c.427-4.46-9-4.807-10.28-5.161-1.279-.355-.679-1.446 0-1.916.68-.47 7.952-5.617 11.321-7.844 3.369-2.227 4.988-4.612 3.947-6.954-1.041-2.343-5.118-1.302-7.034-1.526-1.915-.224-1.192-2.523-1.192-2.523s3.094-5.024 7.373-15.037c4.28-10.012-.506-11.422-.506-11.422" fill="url(#paint1_linear_7945_49401)"/><path d="M508.957 302.901c3.166-7.338 9.022-20.293 13.989-31.44 4.966-11.148 9.448-21.232 12.651-28.556l3.788-8.675c.448-1.012.795-1.807 1.034-2.356l.274-.615.102-.202-.08.217c-.065.144-.145.354-.253.614-.231.557-.564 1.352-.998 2.378a491.813 491.813 0 01-3.723 8.675c-3.166 7.345-7.627 17.452-12.593 28.592-4.966 11.14-10.844 24.088-14.046 31.411" fill="url(#paint2_linear_7945_49401)"/><path d="M524.277 247.186c.086.154.156.316.21.484.116.311.282.773.47 1.337.383 1.143.875 2.726 1.388 4.49.513 1.764.947 3.311 1.287 4.511l.404 1.366c.062.163.103.333.123.506a2.44 2.44 0 01-.209-.477 42.85 42.85 0 01-.47-1.345c-.369-1.149-.839-2.74-1.352-4.496-.513-1.757-.969-3.304-1.323-4.504-.159-.542-.296-.998-.405-1.359a2.325 2.325 0 01-.123-.513z" fill="url(#paint3_linear_7945_49401)"/><path d="M528.832 259.974c0-.058 3.203-1.215 7.229-2.581 4.027-1.366 7.229-2.429 7.273-2.371.043.058-3.203 1.214-7.229 2.581-4.027 1.366-7.251 2.429-7.273 2.371z" fill="url(#paint4_linear_7945_49401)"/><path d="M520.43 276.746c.175-.038.355-.055.535-.051l1.445-.065c1.229-.058 2.892-.144 4.779-.311 1.887-.166 3.542-.368 4.757-.527l1.446-.181c.176-.034.355-.049.535-.044a2.84 2.84 0 01-.521.131c-.332.065-.824.159-1.446.253a64.755 64.755 0 01-4.757.592 67.158 67.158 0 01-4.793.246h-1.445a2.457 2.457 0 01-.535-.043z" fill="url(#paint5_linear_7945_49401)"/><path d="M513.766 266.083c.115.119.217.249.303.39l.759 1.114c.629.939 1.49 2.248 2.422 3.701a254.576 254.576 0 012.364 3.745c.275.455.506.838.723 1.149.093.135.168.281.224.434a2.445 2.445 0 01-.304-.39l-.723-1.106a250.53 250.53 0 01-2.421-3.709 355.119 355.119 0 01-2.371-3.738 18.206 18.206 0 00-.723-1.149 2.444 2.444 0 01-.253-.441zm-9.305 13.865c.141.158.269.328.383.506l.969 1.446c.817 1.2 1.93 2.892 3.144 4.721 1.215 1.829 2.307 3.542 3.087 4.764l.918 1.446c.12.172.221.356.304.549a4.51 4.51 0 01-.376-.506 48.49 48.49 0 01-.976-1.446c-.817-1.2-1.93-2.891-3.144-4.72-1.215-1.829-2.307-3.543-3.087-4.764l-.911-1.446a2.98 2.98 0 01-.311-.55z" fill="#A2A2A2"/><path d="M513.137 292.983a4 4 0 01.723-.087l1.836-.152c1.547-.13 3.687-.31 6.044-.585 2.356-.275 4.482-.571 6.021-.803l1.822-.267c.222-.041.447-.065.673-.072a4.043 4.043 0 01-.658.159c-.427.086-1.049.209-1.815.339-1.532.268-3.658.593-6.022.868-2.364.275-4.504.434-6.058.52-.773.044-1.402.073-1.843.08-.24.031-.483.031-.723 0z" fill="url(#paint6_linear_7945_49401)"/><path d="M122.479 140.285a26.503 26.503 0 016.123-3.463l.658-6.506L139.973 129l2.169 6.138c2.336.322 4.618.951 6.788 1.872l5.061-4.128 8.509 6.644-2.747 5.906a26.565 26.565 0 013.462 6.13l6.507.651 1.323 10.714-6.138 2.212a26.625 26.625 0 01-1.872 6.781l4.12 5.06-6.679 8.473-5.907-2.783a26.138 26.138 0 01-6.123 3.47l-.651 6.506-10.713 1.323-2.212-6.145a26.562 26.562 0 01-6.781-1.872l-5.061 4.128-8.516-6.644 2.783-5.899a26.285 26.285 0 01-3.47-6.123l-6.506-.658-1.323-10.714 6.145-2.205a26.758 26.758 0 011.872-6.788l-4.128-5.06 6.644-8.509 5.899 2.776.051.029zm7.229 13.699a11.567 11.567 0 1018.262 14.199 11.567 11.567 0 00-18.262-14.199z" fill="url(#paint7_linear_7945_49401)"/><path d="M426.722 34.107a13.78 13.78 0 013.388-1.528l.707-3.481 5.699-.098.844 3.448c1.208.308 2.37.78 3.457 1.404l2.886-1.948 4.1 4.085-1.783 3.035a14.79 14.79 0 011.504 3.514l3.372.729.1 5.874-3.346.848a14.701 14.701 0 01-1.361 3.563l1.889 2.975-3.984 4.204-2.945-1.838a13.725 13.725 0 01-3.414 1.523l-.702 3.48-5.704.104-.792-3.432a13.598 13.598 0 01-3.461-1.398l-2.882 1.947-4.105-4.084 1.789-3.04a14.438 14.438 0 01-1.483-3.514l-3.372-.724-.127-5.885 3.346-.843a14.743 14.743 0 011.361-3.568l-1.889-2.97 3.963-4.226 2.945 1.844zm3.039 7.832a6.373 6.373 0 00-1.615 3.258 6.482 6.482 0 00.411 3.634 6.26 6.26 0 002.301 2.786 5.985 5.985 0 003.415 1 5.99 5.99 0 003.378-1.124 6.271 6.271 0 002.204-2.868 6.49 6.49 0 00.287-3.647 6.359 6.359 0 00-1.726-3.196 6.1 6.1 0 00-2.009-1.333 5.954 5.954 0 00-4.684.086 6.12 6.12 0 00-1.962 1.404z" fill="url(#paint8_linear_7945_49401)"/><path d="M476.131 93.468a7.632 7.632 0 011.808-.742l.373-1.676 3.03-.05.444 1.676a7.896 7.896 0 011.835.683l1.533-.947 2.176 1.985-.95 1.475c.341.533.606 1.106.786 1.705l1.777.352.053 2.857-1.777.419a6.86 6.86 0 01-.724 1.73l1.004 1.445-2.074 2.045-1.564-.892a8.051 8.051 0 01-1.808.741l-.373 1.676-3.03.05-.444-1.676a7.614 7.614 0 01-1.835-.683l-1.532.947-2.177-1.985.951-1.475a6.709 6.709 0 01-.787-1.705l-1.777-.352-.053-2.853 1.777-.419a6.949 6.949 0 01.724-1.73l-1.004-1.441 2.106-2.057 1.563.897h-.031zm1.613 3.803a2.997 2.997 0 00-.857 1.583 2.897 2.897 0 00.219 1.766 3.118 3.118 0 001.223 1.353c.54.327 1.171.496 1.813.485a3.389 3.389 0 001.794-.548c.527-.345.934-.83 1.169-1.394s.287-1.18.151-1.772a3.026 3.026 0 00-.919-1.552 3.274 3.274 0 00-1.066-.646 3.422 3.422 0 00-2.486.043 3.23 3.23 0 00-1.041.682z" fill="url(#paint9_linear_7945_49401)"/><path d="M76.883 74.715a18.312 18.312 0 014.515-2.011l.929-4.558L89.89 68l1.089 4.535a18.188 18.188 0 014.56 1.842l3.819-2.56 5.437 5.369-2.365 3.993a18.922 18.922 0 011.966 4.616l4.469.95.131 7.729-4.434 1.107a19.137 19.137 0 01-1.801 4.663l2.502 3.906-5.25 5.56-3.898-2.419a18.428 18.428 0 01-4.52 2.005l-.93 4.57-7.552.134-1.088-4.535a18.038 18.038 0 01-4.56-1.842l-3.82 2.559-5.448-5.316 2.365-3.986a19.081 19.081 0 01-1.966-4.623l-4.469-.95-.13-7.723 4.433-1.113a19.186 19.186 0 011.802-4.663l-2.502-3.905 5.249-5.555 3.904 2.42v-.053zm4.024 10.287a8.355 8.355 0 00-2.147 4.283 8.46 8.46 0 00.542 4.78 8.241 8.241 0 003.048 3.668 7.974 7.974 0 004.527 1.316 7.984 7.984 0 004.479-1.477 8.26 8.26 0 002.921-3.773 8.465 8.465 0 00.379-4.797 8.34 8.34 0 00-2.292-4.204 8.014 8.014 0 00-5.77-2.32 8.027 8.027 0 00-5.687 2.524z" fill="url(#paint10_linear_7945_49401)"/><path d="M489.28 143.027a19.332 19.332 0 014.67-2.032l.961-4.619 7.815-.138 1.128 4.584a19.216 19.216 0 014.735 1.865l3.947-2.588 5.625 5.429-2.451 4.034a18.837 18.837 0 012.031 4.677l4.627.962.137 7.807-4.59 1.128a18.82 18.82 0 01-1.865 4.742l2.588 3.947-5.422 5.617-4.041-2.443a19.346 19.346 0 01-4.67 2.031l-.962 4.62-7.815.137-1.12-4.583a19.272 19.272 0 01-4.743-1.865l-3.947 2.588-5.624-5.429 2.451-4.034a19.121 19.121 0 01-2.032-4.678l-4.626-.961-.138-7.808 4.591-1.127a19.366 19.366 0 011.865-4.743l-2.588-3.947 5.429-5.617 4.034 2.444zm4.164 10.41a8.375 8.375 0 001.503 12.863 8.384 8.384 0 009.306-.165 8.382 8.382 0 003.412-8.659 8.378 8.378 0 00-11.529-5.906 8.377 8.377 0 00-2.685 1.867h-.007z" fill="url(#paint11_linear_7945_49401)"/><path d="M306.902 54.603a24.11 24.11 0 015.915-2.575l1.219-5.856 9.898-.172 1.426 5.808a24.373 24.373 0 016.004 2.379l5-3.276 7.133 6.872-3.103 5.113a24.06 24.06 0 012.574 5.945l5.856 1.19.172 9.898-5.808 1.421a24.224 24.224 0 01-2.378 6.005l3.276 5.005-6.872 7.135-5.118-3.098a24.124 24.124 0 01-5.915 2.569l-1.219 5.862-9.898.172-1.42-5.814a24.206 24.206 0 01-6.004-2.379l-5.006 3.276-7.133-6.872 3.097-5.113a24.512 24.512 0 01-2.574-5.945l-5.856-1.19-.172-9.892 5.808-1.427a24.226 24.226 0 012.378-6.005l-3.282-5 6.878-7.134 5.113 3.104.011-.006zm5.273 13.18a10.625 10.625 0 00-2.097 11.61 10.615 10.615 0 0015.787 4.49 10.621 10.621 0 004.325-10.976 10.618 10.618 0 00-18.015-5.124z" fill="url(#paint12_linear_7945_49401)"/><path d="M546.772 303.017c0 .101-114.8.188-256.377.188s-256.399-.087-256.399-.188 114.771-.188 256.399-.188 256.377.08 256.377.188z" fill="#333945"/><path d="M428.871 80.473H177.178a7.853 7.853 0 00-7.858 7.836v177.796a7.843 7.843 0 002.3 5.558 7.856 7.856 0 005.558 2.3h96.597s6.145 19.005-12.904 28.837H351.2s-21.507-7.374-15.976-28.837h93.647a7.857 7.857 0 007.858-7.815V88.309a7.855 7.855 0 00-7.858-7.836z" fill="#555A64"/><path d="M306.38 255.304c3.419 4.894-1.938 10.251-6.832 6.832a1.684 1.684 0 01-.419-.427c-3.412-4.887 1.937-10.244 6.831-6.824.163.115.304.257.42.419z" fill="#333945"/><path d="M180.661 83.726h244.724a7.007 7.007 0 014.958 2.053 7.01 7.01 0 012.054 4.959v150.707H173.656v-150.7a7.021 7.021 0 012.049-4.96 7.01 7.01 0 014.956-2.06z" fill="#fff"/><path d="M180.271 83.726h246.69a5.435 5.435 0 015.436 5.436v7.67H173.656v-6.506a6.616 6.616 0 016.615-6.6z" fill="#9FBD55"/><path d="M181.893 92.372a1.814 1.814 0 100-3.628 1.814 1.814 0 000 3.628zm5.422 0a1.814 1.814 0 100-3.628 1.814 1.814 0 000 3.628zm5.152 0a1.814 1.814 0 100-3.628 1.814 1.814 0 000 3.628z" fill="#A2A2A2"/><path d="M383.877 273.992c0 .079-35.821.151-79.992.151-44.17 0-79.998-.072-79.998-.151 0-.08 35.813-.152 79.998-.152s79.992.065 79.992.152z" fill="#333945"/><path d="M431.815 118.043H173.746v57.61h258.069v-57.61zm-214.492-15.167h-37.245v9.745h37.245v-9.745zm208.36 0h-20.394v9.745h20.394v-9.745zm-26.516 0h-33.37v9.745h33.37v-9.745zm-40.313 0h-33.37v9.745h33.37v-9.745zm54.9 89.006H186.309v10.208h227.445v-10.208zm0 19.006H186.309v10.207h227.445v-10.207z" fill="#F5F5F5"/><path d="M275.863 152.686l6.268-6.268 10.938 9.969 19.266-19.251 5.819 6.267-25.982 25.071-16.309-15.788z" fill="url(#paint13_linear_7945_49401)"/><path d="M284.878 137.981a26.82 26.82 0 01-4.171-4.923 14.11 14.11 0 012.227 2.342c.74.786 1.393 1.652 1.944 2.581zm8.409-.91a64.628 64.628 0 01-.513-7.006 67.09 67.09 0 01-.13-7.019c.293 2.324.462 4.663.506 7.005a66.03 66.03 0 01.137 7.02zm12.992-4.295a33.25 33.25 0 01-4.338 5.495 16.083 16.083 0 012.025-2.892 16.73 16.73 0 012.313-2.603z" fill="#333945"/><path d="M479.287 134.026H372.099a5.256 5.256 0 00-5.255 5.256v158.392a5.256 5.256 0 005.255 5.256h107.188a5.256 5.256 0 005.256-5.256V139.282a5.256 5.256 0 00-5.256-5.256z" fill="#A2A2A2"/><path d="M479.281 302.923h.369c.361-.025.717-.09 1.063-.196a5.23 5.23 0 003.679-4.019 7.976 7.976 0 00.094-1.641V283.78c0-14.278-.036-34.932-.065-60.458v-83.397a8.263 8.263 0 00-.079-1.532 4.857 4.857 0 00-.485-1.446 5.1 5.1 0 00-2.096-2.169 5.318 5.318 0 00-1.446-.513 7.85 7.85 0 00-1.554-.101H372.108a5.184 5.184 0 00-3.246 1.164 5.112 5.112 0 00-1.742 2.964 8.892 8.892 0 00-.094 1.771v156.968c-.059.89.082 1.781.412 2.61a5.124 5.124 0 003.976 3.036c.434.052.872.071 1.309.058h23.979l60.451.058 16.432.036h5.725-5.725l-16.432.036-60.451.058h-23.979a8.515 8.515 0 01-1.345-.058 5.421 5.421 0 01-4.215-3.203 6.345 6.345 0 01-.441-2.732V140.106a8.883 8.883 0 01.102-1.843 5.433 5.433 0 015.356-4.432h106.537a8.873 8.873 0 011.62.101 5.973 5.973 0 011.532.557 5.489 5.489 0 012.241 2.299c.247.482.418.999.506 1.533.079.526.108 1.058.087 1.59v83.367c0 25.527-.043 46.181-.058 60.458v13.288a8.192 8.192 0 01-.108 1.655 5.242 5.242 0 01-3.745 4.041 5.095 5.095 0 01-1.077.181l-.434.022z" fill="#333945"/><path d="M479.283 302.923h.368c.123 0 .268 0 .448-.058a4.17 4.17 0 00.615-.137 5.198 5.198 0 003.203-2.625 5.23 5.23 0 00.491-1.395 8.66 8.66 0 00.101-1.648V139.926a8.349 8.349 0 00-.086-1.54 4.857 4.857 0 00-.485-1.446 5.269 5.269 0 00-2.118-2.169 5.773 5.773 0 00-1.446-.52 8.003 8.003 0 00-1.561-.102H372.109a5.146 5.146 0 00-5.06 4.186 9.7 9.7 0 00-.094 1.786v156.968c-.011.451.01.903.065 1.352.064.439.183.869.354 1.279a5.172 5.172 0 004.02 3.065c.436.052.876.072 1.315.058h23.98l60.45.044h22.158-22.158l-60.45.043h-24.001a9.2 9.2 0 01-1.338-.058 5.374 5.374 0 01-4.171-3.173 5.265 5.265 0 01-.369-1.331 8.058 8.058 0 01-.065-1.38V140.106a9.176 9.176 0 01.094-1.829 5.37 5.37 0 015.292-4.373h106.588a8.54 8.54 0 011.605.101 5.959 5.959 0 011.518.549 5.45 5.45 0 012.212 2.27c.243.476.414.985.506 1.511.079.524.108 1.054.087 1.583v157.113a8.26 8.26 0 01-.109 1.655 5.29 5.29 0 01-2.118 3.268 5.269 5.269 0 01-1.619.766 4.164 4.164 0 01-.622.138 2.808 2.808 0 01-.448.043l-.448.022z" fill="#333945"/><path d="M430.201 294.435a4.517 4.517 0 01-8.95.882 4.522 4.522 0 011.921-4.639 4.522 4.522 0 015.705.562 4.518 4.518 0 011.324 3.195z" fill="#fff"/><path d="M440.387 142.138H416.35a1.678 1.678 0 01-1.184-.492 1.669 1.669 0 01-.486-1.186 1.66 1.66 0 01.486-1.185 1.662 1.662 0 011.184-.492h24.037a1.687 1.687 0 011.186.491c.156.156.279.341.363.545a1.66 1.66 0 010 1.283 1.677 1.677 0 01-1.549 1.036z" fill="#333945"/><path d="M478.971 146.07H372.21c-.97 0-1.757.787-1.757 1.757V285.37c0 .97.787 1.757 1.757 1.757h106.761c.97 0 1.757-.787 1.757-1.757V147.827c0-.97-.787-1.757-1.757-1.757z" fill="#fff"/><path d="M478.962 287.112s.108 0 .318-.043c.315-.065.607-.212.846-.427a1.766 1.766 0 00.563-1.409v-2.169c0-3.333 0-8.241-.036-14.553 0-12.651 0-30.941-.058-53.539v-66.964a1.68 1.68 0 00-.361-1.164 1.581 1.581 0 00-1.063-.564H372.215a1.583 1.583 0 00-1.251.607 1.614 1.614 0 00-.296.651c-.035.254-.047.51-.036.766v137.088a1.621 1.621 0 00.817 1.395c.345.175.735.246 1.12.202h33.255l53.539.058h19.628l-1.28.065h-3.788l-14.553.036-53.539.058H372.54a2.346 2.346 0 01-1.272-.246 1.884 1.884 0 01-.853-1.004 1.877 1.877 0 01-.123-.658V148.311a4.89 4.89 0 01.043-.838c.059-.293.185-.568.369-.803a1.948 1.948 0 011.547-.759H479.2a1.928 1.928 0 011.287.723c.312.388.469.877.441 1.374v66.964c0 22.598-.051 40.888-.065 53.539v16.722a1.801 1.801 0 01-.6 1.445c-.241.219-.54.365-.86.42a1.234 1.234 0 01-.441.014z" fill="#333945"/><path d="M480.271 166.16H371.109v39.963h109.162V166.16zm-80.895-13.525h-25.837v6.759h25.837v-6.759zm78.741 0h-23.148v6.759h23.148v-6.759zm-27.551 0h-23.148v6.759h23.148v-6.759zm20.524 74.077h-93.199v7.085h93.199v-7.085zm0-13.402h-93.199v7.084h93.199v-7.084zm0 40.837h-93.199v7.085h93.199v-7.085zm0-13.403h-93.199v7.085h93.199v-7.085z" fill="#F5F5F5"/><path d="M404.547 201.338l6.268-6.268 10.93 9.97 19.273-19.252 5.82 6.268-25.982 25.071-16.309-15.789z" fill="url(#paint14_linear_7945_49401)"/><path d="M514.774 303.125h-45.602a9.919 9.919 0 01-9.926-9.904V179.238a9.924 9.924 0 019.962-9.962h45.602a9.92 9.92 0 019.926 9.904v113.984a9.934 9.934 0 01-6.144 9.213 9.923 9.923 0 01-3.818.748z" fill="#333945"/><path d="M515.091 172.732l-8.87-.043a2.16 2.16 0 00-1.56.661 2.154 2.154 0 00-.609 1.58v1.612a2.211 2.211 0 01-.62 1.57 2.212 2.212 0 01-1.549.671l-17.292-.108a2.208 2.208 0 01-2.169-2.263V174.8a2.195 2.195 0 00-.15-.852 2.207 2.207 0 00-2.019-1.411h-3.123l-7.764-.036a6.99 6.99 0 00-7.012 6.955l-.413 111.995a6.979 6.979 0 006.948 7.005l45.688.224a6.984 6.984 0 007.013-6.947l.47-111.967a6.978 6.978 0 00-6.969-7.034z" fill="#fff"/><path d="M521.705 192.663h-59.424v21.753h59.424v-21.753zm-44.039-7.359h-14.061v3.679h14.061v-3.679zm42.86 0h-12.6v3.679h12.6v-3.679zm-14.992 0h-12.6v3.679h12.6v-3.679zm11.177 40.317h-50.734v3.853h50.734v-3.853zm0-7.294h-50.734v3.853h50.734v-3.853zm0 22.23h-50.734v3.853h50.734v-3.853zm0 6.824h-50.734v3.853h50.734v-3.853zm0 7.793h-50.734v3.853h50.734v-3.853zm0 7.801h-50.734v3.853h50.734v-3.853zm0 7.793h-50.734v3.853h50.734v-3.853zm0-37.505h-50.734v3.853h50.734v-3.853z" fill="#F5F5F5"/><path d="M475.902 240.144l4.909-4.908 9.463 8.407 18.572-17.871 4.554 4.909-23.827 22.425-13.671-12.962z" fill="url(#paint15_linear_7945_49401)"/><path d="M234.53 169.442H58.123c-5.817 0-10.533 4.716-10.533 10.533v109.523c0 5.817 4.716 10.533 10.533 10.533H234.53c5.818 0 10.533-4.716 10.533-10.533V179.975c0-5.817-4.715-10.533-10.533-10.533z" fill="#333945"/><path d="M39.867 291.595h213.949v.506a10.907 10.907 0 01-3.197 7.719 10.932 10.932 0 01-7.719 3.197H50.783a10.908 10.908 0 01-7.719-3.197 10.917 10.917 0 01-3.197-7.719v-.506zm199.338-116.969H52.887v110.282h186.318V174.626z" fill="#333945"/><path d="M126.855 290.365l2.654 4.229h37.36l2.465-4.229h-42.479z" fill="#455A64"/><path d="M233.387 178.363H59.09a2.364 2.364 0 00-2.363 2.364v101.462a2.364 2.364 0 002.364 2.364h174.296a2.363 2.363 0 002.364-2.364V180.727a2.364 2.364 0 00-2.364-2.364z" fill="#9FBD55"/><path d="M235.563 284.712H56.531l.195-98.411h178.837v98.411z" fill="#fff"/><path d="M71.43 182.462a1.448 1.448 0 01-1.727 1.419 1.45 1.45 0 01-1.136-1.136 1.448 1.448 0 01.615-1.485 1.444 1.444 0 011.825.18c.271.271.424.639.424 1.022zm-8.675 0a1.448 1.448 0 01-1.728 1.419 1.45 1.45 0 01-1.054-1.972 1.448 1.448 0 011.336-.892 1.446 1.446 0 011.446 1.445zm4.141 0a1.448 1.448 0 01-1.728 1.419 1.45 1.45 0 01-1.054-1.972 1.447 1.447 0 012.358-.469c.271.271.424.639.424 1.022z" fill="#F9F9F9"/><path d="M243.356 290.365c0 .073-43.824.131-97.876.131-54.053 0-97.906-.058-97.906-.131 0-.072 43.824-.13 97.898-.13 54.075 0 97.884.058 97.884.13z" fill="#455A64"/><path d="M235.751 202.162H56.727v39.963H235.75v-39.963zM86.958 191.636H61.121v6.759h25.837v-6.759zm144.549 0h-14.148v6.759h14.148v-6.759zm-18.406 0h-23.148v6.759h23.148v-6.759zm-27.961 0h-23.148v6.759h23.148v-6.759zm38.118 74.071H65.473v7.085h157.785v-7.085zm0-13.396H65.473v7.084h157.785v-7.084z" fill="#F5F5F5"/><path d="M123.547 228.751l6.268-6.268 12.087 10.75 23.741-22.844 5.819 6.275-30.449 28.656-17.466-16.569z" fill="url(#paint16_linear_7945_49401)"/><path d="M196.84 144.227c27.833 0 50.395-22.562 50.395-50.395 0-27.832-22.562-50.394-50.395-50.394-27.832 0-50.395 22.562-50.395 50.394 0 27.833 22.563 50.395 50.395 50.395z" fill="#941759"/><path opacity=".3" d="M196.84 144.227c27.833 0 50.395-22.562 50.395-50.395 0-27.832-22.562-50.394-50.395-50.394-27.832 0-50.395 22.562-50.395 50.394 0 27.833 22.563 50.395 50.395 50.395z" fill="#000"/><path d="M195.489 141.003c27.832 0 50.395-22.563 50.395-50.395 0-27.833-22.563-50.395-50.395-50.395-27.833 0-50.395 22.563-50.395 50.395 0 27.832 22.562 50.395 50.395 50.395z" fill="url(#paint17_linear_7945_49401)"/><path d="M210.75 126.73c19.942-8.432 29.273-31.434 20.841-51.377-8.432-19.942-31.434-29.273-51.377-20.84-19.942 8.432-29.273 31.434-20.841 51.376 8.433 19.943 31.435 29.273 51.377 20.841z" fill="#fff"/><path d="M214.993 110.115c10.773-10.773 10.773-28.24 0-39.013-10.773-10.774-28.24-10.774-39.014 0-10.773 10.773-10.773 28.24 0 39.013 10.774 10.773 28.241 10.773 39.014 0z" fill="url(#paint18_linear_7945_49401)"/><path d="M201.269 103.964c7.374-3.197 10.76-11.766 7.563-19.14-3.197-7.374-11.767-10.76-19.141-7.563-7.373 3.197-10.759 11.767-7.562 19.14 3.197 7.374 11.766 10.76 19.14 7.563z" fill="#fff"/><path d="M234.476 49.784l-1.367-10.75 10.945-11.71.788 11.602-10.366 10.858zm23.495-8.552l-11.104-.904-11.133 10.707 11.133 1.185 11.104-10.988z" fill="#455A64"/><path opacity=".3" d="M195.484 91.447l41.373-29.64a55.701 55.701 0 00-5.248-6.506l-35.423 34.266-.702 1.88z" fill="#000"/><path d="M246.476 36.678l-5.162 5.263-12.499 12.636L213.8 69.76a5826.89 5826.89 0 01-13.049 13.222c-2.111 2.169-4.338 4.222-6.355 6.434l-.094.094c-1.221 1.243.723 3.159 1.923 1.916l5.191-5.263 12.47-12.63 15.015-15.181c4.338-4.41 8.688-8.817 13.049-13.222 2.111-2.17 4.338-4.222 6.355-6.442l.086-.086c1.229-1.244-.722-3.167-1.915-1.923zm89.446 131.333a3.49 3.49 0 01-3.15-5.354 3.492 3.492 0 012-1.492 3.618 3.618 0 01-.456-4.248 3.616 3.616 0 013.912-1.716 4.329 4.329 0 012.437-3.529 4.333 4.333 0 014.279.29 4.866 4.866 0 016.008.166 3.47 3.47 0 012.783 6.03" fill="#333945"/><path d="M335.396 168.481a14.808 14.808 0 0115.377-12.941l.766.037c8.234.867 12.102 8.342 11.003 16.554l-2.479 27.471-.651 6.471-18.717-2.213.355-7.005s-7.88-1.605-7.605-9.549c.13-3.832 1.041-11.712 1.951-18.825z" fill="#99655C"/><path d="M340.984 196.841a19.255 19.255 0 0010.54-2.559s-2.711 5.596-10.598 4.511l.058-1.952z" fill="#744A45"/><path d="M337.146 175.783a1.133 1.133 0 001.034 1.193 1.095 1.095 0 001.222-.969 1.138 1.138 0 00-1.041-1.193 1.076 1.076 0 00-1.215.969zm-.224-3.341c.137.152 1.019-.441 2.241-.383 1.222.058 2.089.723 2.226.571.138-.152-.065-.34-.441-.636a3.117 3.117 0 00-1.771-.644 2.976 2.976 0 00-1.793.492c-.39.268-.527.528-.462.6zm11.329 3.911a1.143 1.143 0 001.041 1.193 1.094 1.094 0 001.222-.969 1.145 1.145 0 00-1.041-1.193 1.095 1.095 0 00-1.222.969zm.647-3.123c.138.152 1.027-.441 2.241-.383 1.215.058 2.09.723 2.227.571.137-.152-.065-.34-.441-.643a3.158 3.158 0 00-1.771-.636 2.968 2.968 0 00-1.793.491c-.39.26-.528.528-.463.6zm-4.851 8.835a8.326 8.326 0 00-1.959-.448c-.311-.044-.607-.123-.65-.333-.008-.324.08-.643.253-.918.332-.723.672-1.511 1.033-2.328 1.446-3.318 2.495-6.051 2.357-6.108-.137-.058-1.446 2.588-2.841 5.906l-.998 2.342c-.21.368-.287.797-.216 1.215a.766.766 0 00.491.477c.17.058.348.092.528.101a7.72 7.72 0 002.002.094zm4.594-12.695c.144.318 1.207 0 2.494.05 1.287.051 2.364.282 2.501 0 .058-.152-.159-.434-.614-.723a3.843 3.843 0 00-1.909-.491 3.686 3.686 0 00-1.894.484c-.441.246-.643.528-.578.68zm-11.545-1.959c.246.289 1.266.043 2.48.087 1.215.043 2.227.296 2.473 0 .115-.138 0-.42-.47-.723a3.9 3.9 0 00-1.988-.55 3.935 3.935 0 00-2.003.463c-.441.304-.593.578-.492.723z" fill="#333945"/><path d="M336.328 164.873s2.328-4.872 4.779-5.92c2.971-1.265 4.07 1.973 6.868 1.33 2.797-.643 5.638-1.858 8.364.412 2.978 2.48 1.446 4.056 1.482 7.583.108 14.314 2.523 18.478 3.614 11.784.116-.723 2.169-1.222 2.632-4.337.585-4.02.968-8.914.202-11.82-.65-2.451-1.944-4.179-4.337-6.138-3.76-3.079-9.109-3.398-12.767-3.195-3.658.202-10.873 4.063-10.837 10.301z" fill="#333945"/><path d="M360.907 179.824a2.16 2.16 0 011.56-1.897c.28-.081.573-.104.862-.069 1.446.209 3.08 1.127 2.841 4.178-.426 5.422-5.783 3.875-5.783 3.716 0-.159.318-3.665.52-5.928z" fill="#99655C"/><path d="M361.738 183.807s.087.072.239.159a.938.938 0 00.723.072 2.342 2.342 0 001.243-2.01 3.154 3.154 0 00-.159-1.373 1.086 1.086 0 00-.65-.781.488.488 0 00-.579.217c-.087.144-.058.253-.087.26-.029.007-.108-.101-.05-.318a.608.608 0 01.238-.325.72.72 0 01.535-.094 1.345 1.345 0 01.918.918c.193.486.265 1.012.21 1.532-.123 1.092-.759 2.068-1.561 2.234a1.025 1.025 0 01-.853-.209c-.174-.152-.188-.275-.167-.282z" fill="#744A45"/><path d="M361.318 169.276a5.13 5.13 0 01-2.349.954 1.77 1.77 0 01-1.901-1.337c-.051-.383.065-.817-.167-1.121-.231-.303-.831-.275-1.294-.246a3.469 3.469 0 01-3.477-2.653 1.444 1.444 0 01-1.959.094 7.9 7.9 0 01-1.403-1.648 2.213 2.213 0 00-1.821-1.019c-.39.109-.789.177-1.193.202-.723-.094-1.019-.947-1.092-1.663-.072-.715-.115-1.539-.723-1.952-.607-.412-1.279-.209-1.944-.144s-1.497-.13-1.634-.774a1.297 1.297 0 01.043-.518c.05-.167.134-.323.246-.458a3.521 3.521 0 014.207-1.135 4.78 4.78 0 014.228-3.193 4.77 4.77 0 014.57 2.68 4.837 4.837 0 017.663 2.147 3.515 3.515 0 014.201 3.338 3.515 3.515 0 01-.514 1.94c.493.273.908.668 1.206 1.146a3.31 3.31 0 01.5 1.586c0 1.128-1.178 2.169-2.248 1.851a1.944 1.944 0 01-3.448 1.778" fill="#333945"/><path d="M344.374 157.464a.342.342 0 000 .101 1.55 1.55 0 000 .289c.052.371.167.731.34 1.063.276.53.669.989 1.149 1.345a3.617 3.617 0 002.169.722l-.087-.13a1.974 1.974 0 00.036 1.504c.219.501.511.967.868 1.381.17.236.364.454.578.65a2.03 2.03 0 002.624-.188l-.202-.065a4.083 4.083 0 001.597 2.892c.497.405 1.11.638 1.75.665a5.328 5.328 0 001.778-.303l-.144-.073a4.197 4.197 0 001.207 1.735 2.293 2.293 0 001.865.608 3.004 3.004 0 002.415-2.234l-.13.05c.556.331 1.21.458 1.85.362.48-.063.936-.241 1.331-.521a2.47 2.47 0 00.636-.629 1.78 1.78 0 00.151-.274 3.612 3.612 0 01-.838.831c-.39.251-.833.41-1.294.463a2.737 2.737 0 01-1.75-.369l-.094-.065v.116a2.83 2.83 0 01-2.277 2.067 2.056 2.056 0 01-1.691-.571 4.059 4.059 0 01-1.135-1.641v-.108l-.109.036a5.181 5.181 0 01-1.692.289 2.753 2.753 0 01-1.626-.622 3.858 3.858 0 01-1.504-2.732v-.261l-.181.195a1.77 1.77 0 01-1.568.478 1.603 1.603 0 01-.723-.311 4.122 4.122 0 01-.55-.608 5.506 5.506 0 01-.845-1.322 1.786 1.786 0 01-.058-1.36l.05-.13h-.137a3.512 3.512 0 01-2.104-.679 3.867 3.867 0 01-1.135-1.265 4.392 4.392 0 01-.52-1.381z" fill="#455A64"/><path d="M342.66 186.062c0 .051.282.238.832.361a4.602 4.602 0 004.062-1.207c.398-.398.543-.723.499-.723-.043 0-.969.976-2.516 1.446-1.547.47-2.841-.036-2.877.123zm-17.884 88.833l48.067.658s13.447-5.624 17.141-5.784c3.694-.159 11.025.319 14.415 5.784 3.506 5.646 3.998 15.593-6.81 22.83-10.518 7.041-58.622 13.555-65.215 12.954l-12.159-16.316s-.123-13.374 0-14.01c.123-.636 2.169-6.369 2.169-6.369l2.392.253z" fill="#333945"/><path d="M351.459 296.511l28.707 10.663-13.063 35.777c-3.34-1.446-3.434-22.475-3.434-22.475l-18.673-6.073 6.463-17.892z" fill="url(#paint19_linear_7945_49401)"/><path opacity=".6" d="M366.143 308.851a1.552 1.552 0 012.039-.405 1.506 1.506 0 01.412 2.017 1.648 1.648 0 01-2.169.412 1.549 1.549 0 01-.195-2.169" fill="#fff"/><path d="M380.168 307.181l-2.892-1.077-11.487 34.772s.116 1.851 1.301 2.075l13.078-35.77zm-16.918 13.808c.181.058.578-.781 1.446-1.446.867-.665 1.778-.846 1.771-1.027-.007-.18-1.121-.296-2.169.514-1.048.809-1.222 1.937-1.048 1.959zm.182 4.322c.159.101.723-.549 1.684-.867.962-.318 1.8-.21 1.858-.391.058-.18-.889-.65-2.075-.224-1.185.427-1.633 1.417-1.467 1.482zm3.714 3.774c.094-.144-.723-.723-1.814-.607-1.092.116-1.8.774-1.678.904.123.13.817-.195 1.735-.261.919-.065 1.714.131 1.757-.036zm-7.994-9.954c.188 0 .239-.904.666-1.866.426-.961 1.019-1.619.903-1.764-.115-.144-1.005.369-1.496 1.511-.492 1.143-.239 2.155-.073 2.119zm-3.935-2.379a3.513 3.513 0 00.643-1.792c.124-.69.163-1.391.116-2.09a9.798 9.798 0 00-.174-1.229 2.244 2.244 0 00-.224-.723.8.8 0 00-.896-.419.994.994 0 00-.68.622 2.592 2.592 0 00-.159.723 7.34 7.34 0 000 1.258c.052.702.213 1.393.477 2.045.47 1.114 1.02 1.634 1.07 1.584.051-.051-.311-.658-.636-1.735a7.946 7.946 0 01-.318-1.931c-.01-.381.012-.763.065-1.142 0-.412.152-.723.354-.773.08 0 .109 0 .188.115.079.16.133.331.159.506.092.376.157.758.196 1.143.075.657.087 1.321.036 1.98-.117.614-.19 1.235-.217 1.858z" fill="#333945"/><path d="M355.535 316.593c.051-.05-.448-.629-1.554-1.106a6.24 6.24 0 00-3.311-.412 1.58 1.58 0 00-1.323.81.896.896 0 00.231.932c.175.169.372.312.586.427a4.39 4.39 0 003.34.354c1.185-.361 1.655-1.012 1.605-1.048-.561.229-1.133.43-1.714.6a4.325 4.325 0 01-1.894-.051 3.792 3.792 0 01-1.019-.412c-.361-.188-.615-.448-.528-.571a1.087 1.087 0 01.817-.412 6.263 6.263 0 011.135-.094 6.96 6.96 0 011.916.311c1.084.333 1.67.759 1.713.672z" fill="#333945"/><path d="M335.621 295.787l-25.715 11.928 14.676 32.076c2.978-1.59 1.539-21.001 1.539-21.001l16.787-6.961-7.287-16.042z" fill="url(#paint20_linear_7945_49401)"/><path opacity=".6" d="M323.005 308.222a1.443 1.443 0 00-1.908-.217 1.378 1.378 0 00-.239 1.887 1.526 1.526 0 002.024.224 1.444 1.444 0 000-1.996" fill="#fff"/><path d="M309.906 307.701l2.596-1.2 13.128 31.266s0 1.714-1.048 2.01l-14.676-32.076zm16.613 11.524c-.159.065-.585-.687-1.446-1.222-.86-.535-1.699-.651-1.706-.824-.007-.174 1.012-.354 2.032.318 1.019.672 1.279 1.692 1.12 1.728zm.151 4.033c-.138.109-.723-.448-1.62-.679-.896-.232-1.677-.058-1.742-.217-.065-.159.774-.665 1.894-.362 1.121.304 1.612 1.15 1.468 1.258zm-3.152 3.724c-.101-.13.578-.723 1.619-.723s1.721.585 1.619.723c-.101.137-.766-.109-1.583-.109s-1.568.253-1.655.109zm6.653-9.767c-.174 0-.282-.824-.723-1.677-.441-.853-1.056-1.446-.962-1.562.094-.115.962.26 1.489 1.28.528 1.019.355 1.973.196 1.959zm3.454-2.509a3.31 3.31 0 01-.722-1.612 7.555 7.555 0 01-.253-1.916 7.745 7.745 0 01.065-1.149c.019-.226.07-.447.151-.658a.726.726 0 01.803-.448.924.924 0 01.672.52c.096.204.162.421.195.644.069.379.108.763.116 1.149a6.257 6.257 0 01-.296 1.93c-.347 1.056-.817 1.583-.875 1.54-.058-.043.238-.629.463-1.648a7.217 7.217 0 00.151-1.807 6.075 6.075 0 00-.137-1.049c-.065-.383-.195-.672-.383-.686-.072 0-.101 0-.166.115-.061.156-.1.319-.116.485-.051.368-.08.722-.094 1.069a9.83 9.83 0 00.116 1.822c.145.558.249 1.126.31 1.699z" fill="#333945"/><path d="M333.305 314.584c-.051-.044.369-.615 1.359-1.135a5.839 5.839 0 011.858-.586 5.66 5.66 0 011.164 0 1.44 1.44 0 011.279.651.83.83 0 01-.144.882 2.3 2.3 0 01-.514.434 4.061 4.061 0 01-3.05.563c-1.121-.245-1.605-.809-1.562-.845.044-.036.607.318 1.627.433a4.183 4.183 0 001.742-.188c.327-.106.636-.259.918-.455.318-.202.535-.455.441-.571a1.03 1.03 0 00-.788-.318 5.56 5.56 0 00-1.048 0c-.6.059-1.188.2-1.75.419-.99.376-1.467.81-1.532.716z" fill="#333945"/><path d="M322.383 274.642s-20.762-7.749-28.403-6.744c-4.273.556-10.953 3.817-11.459 9.296-.506 5.48.824 12.796 8.213 16.367 7.388 3.571 36.869 16.794 43.874 18.832 7.005 2.039 24.471 6.81 24.471 6.81l6.629-18.911s-36.197-12.529-38.105-13.902c-1.909-1.374-6.752-3.311-6.752-3.311l1.532-8.437z" fill="#333945"/><path d="M394.575 277.215l-.145-.036-.412-.13a29.21 29.21 0 00-1.619-.434 19.456 19.456 0 00-2.602-.455 18.686 18.686 0 00-3.492 0 20.272 20.272 0 00-4.157.788c-.745.228-1.47.515-2.169.86l-2.255 1.099c-3.109 1.446-6.579 3.007-10.273 4.468-7.395 2.964-14.495 4.337-19.555 5.515a529.979 529.979 0 00-6.015 1.36l-1.626.39-.427.094h-.144l.137-.051.419-.115c.376-.102.918-.253 1.627-.427 1.446-.361 3.455-.853 5.993-1.446 5.06-1.193 12.138-2.617 19.519-5.573a160.884 160.884 0 0010.258-4.446l2.263-1.092a14.037 14.037 0 012.226-.853 20.067 20.067 0 014.193-.774 18.997 18.997 0 013.521 0c.881.099 1.753.263 2.61.492.723.181 1.243.354 1.605.477l.412.152.108.137zm-1.12-2.739c0 .036-.629-.072-1.648-.181a25.091 25.091 0 00-7.938.405c-.997.21-1.612.39-1.619.354.13-.072.268-.128.412-.166.275-.094.672-.217 1.171-.34a20.397 20.397 0 013.976-.593 20.947 20.947 0 014.02.181c.506.072.918.152 1.2.217.147.022.29.064.426.123zm-79.804 5.66s-.6-.42-1.598-1.034a21.481 21.481 0 00-4.106-1.966 21.77 21.77 0 00-4.439-1.049c-1.157-.144-1.887-.159-1.887-.195.171-.021.343-.021.513 0 .466-.002.932.02 1.396.065a19.45 19.45 0 014.489.991 18.902 18.902 0 014.121 2.053c.391.252.768.527 1.127.824.14.089.268.193.384.311z" fill="#455A64"/><path d="M324.068 308.337l.159.058.477.202c.412.166 1.019.456 1.829.766 1.619.637 4.005 1.519 7.07 2.523 6.138 2.01 14.95 4.562 25.497 7.23l-.122.065 6.419-17.813.065.137-7.952-3.26-43.975-18.073c-1.786-1.894-3.434-3.564-4.974-4.909a33.286 33.286 0 00-4.179-3.152 32.517 32.517 0 00-2.891-1.597l-.774-.355-.26-.13c.091.031.181.067.268.109l.78.34c.995.464 1.96.988 2.892 1.568a33.497 33.497 0 014.207 3.123c1.555 1.345 3.217 3.008 5.017 4.902l44.005 18.029 7.952 3.268.101.043-.036.094c-2.292 6.333-4.468 12.355-6.434 17.813v.087h-.087c-10.547-2.675-19.36-5.256-25.483-7.294-3.058-1.02-5.443-1.923-7.056-2.581-.809-.326-1.445-.622-1.821-.795l-.47-.217-.224-.181z" fill="#455A64"/><path d="M375.374 208.487s5.978 3.441 7.193 7.49c.723 2.45 6.311 33.876 7.229 40.071.918 6.196-.983 10.786-3.614 12.847-2.632 2.06-10.656 4.793-10.656 4.793l-11.314 3.65-3.232-8.219 10.729-15.413-1.041-10.381 4.706-34.838z" fill="url(#paint21_linear_7945_49401)"/><path d="M363.625 203.058l-4.475-2.566s-4.092 4.786-9.673 4.2a14.043 14.043 0 01-8.877-4.858l-16.628 3.383c-1.113.224-3.151.933-5.096 3.716-2.169 3.101-12.463 16.859-12.463 16.859h-7.266a5.355 5.355 0 00-4.742 2.855c-1.229 2.342-2.704 5.48-2.559 6.781.238 2.169-.181 8.22 2.761 10.121.933.6 4.273 2.386 6.868 2.263 3.824-.181 8.263-2.169 10.844-3.962 2.169-1.511 7.229-6.752 9.152-8.798v.036l1.244 43.643 43.621-1.243 9.036-66.979s-11.306-5.451-11.747-5.451z" fill="url(#paint22_linear_7945_49401)"/><path d="M321.319 214.748c.065 0 .174 5.407.253 12.08.08 6.673.094 12.087.036 12.087-.057 0-.18-5.407-.26-12.08-.079-6.672-.087-12.087-.029-12.087zm59.34 35.278s-.369.058-1.027.188a12.84 12.84 0 00-2.704.861 17.342 17.342 0 00-3.614 2.168 31.05 31.05 0 00-3.788 3.507c-1.251 1.344-2.393 2.682-3.463 3.86a41.423 41.423 0 01-2.971 3.029 20.518 20.518 0 01-2.234 1.786c-.268.195-.499.325-.651.426a1.445 1.445 0 01-.238.13l.217-.173c.137-.109.361-.246.621-.456a24.417 24.417 0 002.169-1.829c.882-.817 1.872-1.858 2.928-3.05 1.055-1.193 2.169-2.523 3.448-3.875a29.745 29.745 0 013.825-3.514 16.907 16.907 0 013.657-2.168 11.458 11.458 0 012.755-.803c.256-.042.514-.071.773-.087h.297zm.989-2.956c0 .043-.665.137-1.706.426a15.865 15.865 0 00-7.143 4.251c-.722.781-1.142 1.323-1.178 1.294.067-.143.152-.276.253-.398.249-.351.52-.686.81-1.005a14.396 14.396 0 017.229-4.301c.416-.103.839-.18 1.265-.231.155-.03.312-.042.47-.036z" fill="#333945"/><path opacity=".3" d="M300.463 239.4c2.306.629 5.06-2.697 7.178-4.771 1.092-1.085 2.227-2.241 2.624-3.723a5.889 5.889 0 00-.361-3.716 13.862 13.862 0 00-1.533-2.986c.195 1.793.636 4.54 0 6.788a11.974 11.974 0 01-2.956 4.793c-1.338 1.504-2.892 3.08-4.981 3.615" fill="#000"/><path d="M310.332 237.513c-.043 0 .224-.759.441-2.017.126-.731.199-1.471.217-2.212a15.537 15.537 0 00-.846-5.357 14.306 14.306 0 00-.875-2.046c-.592-1.121-1.077-1.75-1.041-1.778.137.128.258.271.362.426.132.172.255.35.369.535.137.217.303.455.455.723.365.656.676 1.34.933 2.046.322.868.564 1.763.723 2.675.134.914.19 1.838.166 2.761a14.331 14.331 0 01-.26 2.234c-.053.285-.12.568-.203.846a5.93 5.93 0 01-.188.622 2.727 2.727 0 01-.253.542zm32.068-35.994c0 .057-.484.354-1.019.838-.535.484-.89.947-.947.911.188-.412.46-.78.799-1.081a3.247 3.247 0 011.167-.668zm4.54 2.638c.043.044-.391.521-.723 1.215-.333.694-.492 1.323-.557 1.308a3.204 3.204 0 011.301-2.523h-.021zm7.773 2.711a6.594 6.594 0 01-.499-1.301 6.785 6.785 0 01-.448-1.316c.305.363.53.787.657 1.243.195.432.294.901.29 1.374zm5.004-2.342c-.073 0-.239-.723-.723-1.547-.485-.825-1.085-1.316-1.034-1.367.522.287.947.723 1.222 1.251a3.07 3.07 0 01.535 1.663zm14.355 14.133c.065 0-.68 5.972-1.649 13.316-.969 7.345-1.807 13.295-1.872 13.281-.065-.015.679-5.965 1.648-13.309.969-7.345 1.815-13.295 1.873-13.288zm-65.368 9.651a2.58 2.58 0 010 .621 5.316 5.316 0 01-.094.723c0 .138-.05.289-.072.448l-.123.492a14.13 14.13 0 01-.86 2.342 16.65 16.65 0 01-1.605 2.603c-.628.8-1.343 1.527-2.133 2.169a9.14 9.14 0 01-2.169 1.294c-.159.065-.318.137-.469.188l-.434.122-.383.109-.326.043c-.203.033-.408.05-.614.051a11.744 11.744 0 002.169-.658 9.6 9.6 0 002.067-1.308 14.239 14.239 0 002.082-2.169 16.802 16.802 0 001.598-2.559c.363-.737.661-1.503.889-2.292.202-.73.361-1.471.477-2.219z" fill="#333945"/><path opacity=".3" d="M372.668 278.199c1.851-.897 2.27-3.29 2.458-5.335.554-6.001 1.108-11.996 1.663-17.987.26-2.819.383-6.036-1.605-8.053-1.815-1.836-4.699-1.952-7.287-1.945-15.962.051-30.052.513-46.014.557l.809 27.941 49.976 4.822z" fill="#000"/><path d="M315.002 249.767l1.699 32.379c.035.605.302 1.174.744 1.589a2.37 2.37 0 001.635.638l51.58.094a2.368 2.368 0 002.371-2.241l1.974-31.809c.065-1.323-.875-3.08-2.22-3.108h-55.361a2.355 2.355 0 00-2.422 2.458z" fill="#A2A2A2"/><path d="M315.003 249.766v-.484c.068-.473.283-.913.614-1.258.238-.26.532-.462.86-.593.399-.141.822-.2 1.244-.173h3.137l19.989-.036h31.743c.377-.018.749.078 1.07.275.312.199.58.46.788.766.417.617.641 1.344.644 2.089-.044.723-.08 1.446-.123 2.169l-.55 8.913c-.375 6.059-.766 12.334-1.163 18.76l-.073 1.2c-.013.407-.046.812-.101 1.215a2.465 2.465 0 01-1.554 1.829 3.04 3.04 0 01-1.208.159h-30.319l-15.839-.043h-5.444a2.473 2.473 0 01-2.125-2.487l-.087-1.67c-.058-1.106-.108-2.169-.166-3.239-.427-8.422-.774-15.239-1.012-19.96-.116-2.349-.203-4.178-.26-5.422 0-.622-.051-1.091-.065-1.446-.015-.354 0-.477 0-.477s0 .159.036.477c.036.318.05.796.086 1.41.073 1.251.174 3.072.304 5.429.26 4.714.629 11.567 1.084 19.953a1281.768 1281.768 0 01.261 4.909 2.346 2.346 0 00.542 1.525c.367.435.882.718 1.446.795.291.015.583.015.874 0h50.706c.371.031.745-.013 1.099-.13a2.25 2.25 0 001.446-1.663c.065-.368.065-.788.094-1.178l.079-1.207c.398-6.42.781-12.695 1.157-18.753.188-3.031.374-6.005.557-8.921l.13-2.169a3.535 3.535 0 00-.607-1.966 1.924 1.924 0 00-.713-.706 1.923 1.923 0 00-.972-.248h-54.877a2.887 2.887 0 00-1.222.159 2.285 2.285 0 00-.853.564c-.328.339-.545.77-.621 1.236-.044.231.014.397-.036.397z" fill="#333945"/><path d="M348.423 265.562a3.044 3.044 0 11-3.007-3.029 3.036 3.036 0 013.007 3.029z" fill="#fff"/><path d="M348.422 265.562s0-.275-.137-.723a2.967 2.967 0 00-1.506-1.872 2.966 2.966 0 00-2.398-.152 2.896 2.896 0 00-1.352 1.026 2.898 2.898 0 000 3.463 2.891 2.891 0 002.566 1.198 2.995 2.995 0 002.69-2.195c.123-.463.116-.723.137-.723a.58.58 0 010 .195 2.681 2.681 0 01-.065.557 3.025 3.025 0 01-1.099 1.72c-.38.304-.83.51-1.308.6a3.164 3.164 0 01-1.648-.123 3.09 3.09 0 01-1.446-1.091 3.13 3.13 0 010-3.723c.362-.5.866-.881 1.446-1.092a3.164 3.164 0 011.648-.123 3.077 3.077 0 012.407 2.328c.041.183.063.369.065.556a.564.564 0 010 .174zm-31.676-12.21c.057 0 .31 5.436.563 12.152.253 6.716.405 12.159.347 12.159-.057 0-.318-5.436-.571-12.152-.253-6.716-.405-12.159-.339-12.159z" fill="#333945"/><path d="M301.238 211.097c-.303-.253 1.02-5.342 1.02-5.342s-3.499-5.711-3.615-7.547c-.116-1.837 1.381-5.617 1.381-5.617l10.041-2.581s3.224 5.986 3.868 8.104c.643 2.118-1.048 9.304-1.048 9.304l-1.699 3.679s-5.169 4.056-9.948 0z" fill="#99655C"/><path d="M298.685 199.306a21.022 21.022 0 01-1.062-2.227c-.629-1.511-1.41-2.985 0-3.831a1.872 1.872 0 011.518-.239s-.217-1.265.535-1.742c.22-.139.47-.223.729-.245a1.62 1.62 0 01.76.115s-.238-1.793.853-2.552a2.67 2.67 0 012.783-.08s-.867-7.829-.939-8.248c-.275-1.518.289-2.892 1.8-2.494.556.137.867.723 1.518 3.275.65 2.552 1.699 6.904 1.699 6.904s1.764 3.065 2.595 4.727c.831 1.663 2.48 5.444 2.617 6.449.354 2.588-1.164 6.022-1.164 6.022l-10.67.614s-3.167-5.704-3.572-6.448z" fill="#99655C"/><path d="M299.352 193.35c.302.362.577.747.824 1.149l.846 1.287c.174.254.326.523.455.802.15.318.195.675.131 1.02a1.032 1.032 0 01-.68.788c-.321.081-.662.04-.954-.116a4.566 4.566 0 01-.723-.441l-.579-.434a12.1 12.1 0 01-.795-.665c-.18-.166-.274-.267-.267-.282.007-.014.448.318 1.156.824.406.303.833.573 1.28.81.247.127.532.16.802.094a.796.796 0 00.521-.629 1.454 1.454 0 00-.108-.882 5.47 5.47 0 00-.427-.781l-.788-1.315a8.54 8.54 0 01-.694-1.229zm8.744.932a3.622 3.622 0 01.116-1.677 3.62 3.62 0 01.665-1.547c.058 0-.238.723-.448 1.597-.21.875-.267 1.627-.333 1.627z" fill="#744A45"/><path d="M312.329 196.566a7.06 7.06 0 00-3.564-1.858 13.488 13.488 0 00-4.07-.159c-1.084.102-2.32.376-2.819 1.352a2.33 2.33 0 001.07 2.892 5.43 5.43 0 003.267.499 13.757 13.757 0 013.355-.138" fill="#99655C"/><path d="M309.565 199.126h-.839c-.767.03-1.532.102-2.291.216a10.04 10.04 0 01-1.598.065 4.4 4.4 0 01-1.8-.455 2.767 2.767 0 01-1.338-1.547 2.18 2.18 0 01-.072-1.113c.086-.382.291-.726.586-.983a3.834 3.834 0 012.053-.803 20.133 20.133 0 012.024-.123 10.242 10.242 0 013.398.521 6.785 6.785 0 012.031 1.091c.165.133.322.276.47.427.05.051.096.107.137.166 0 0-.216-.202-.657-.52a7.18 7.18 0 00-2.032-1.02 10.665 10.665 0 00-3.34-.455c-.669.009-1.337.052-2.002.13-.7.048-1.371.3-1.93.723a1.641 1.641 0 00-.521.867c-.065.331-.043.672.065.991a2.552 2.552 0 001.222 1.446 4.21 4.21 0 001.713.448c.526.032 1.053.02 1.576-.036.765-.099 1.535-.15 2.306-.152.208.011.416.032.622.065a.674.674 0 01.217.051z" fill="#744A45"/><path d="M299.43 193.473c1.12 1.706 2.111 3.578 3.058 5.385a3.323 3.323 0 001.07 1.396c.404.245 1.409-.203 1.857-.362l-3.079-7.012" fill="#99655C"/><path d="M302.336 192.88c.107.165.199.339.275.52l.679 1.446a469.266 469.266 0 012.227 4.974l.05.108-.115.044c-.333.115-.723.267-1.078.368a1.908 1.908 0 01-.469.065.974.974 0 01-.253 0 .838.838 0 01-.232-.115 2.478 2.478 0 01-.622-.665c-.318-.499-.542-.998-.787-1.446-.485-.933-.933-1.771-1.316-2.465s-.723-1.251-.933-1.634a4.44 4.44 0 01-.332-.6c.149.174.285.361.405.557.253.368.6.91.997 1.597.398.687.868 1.518 1.359 2.451.253.455.492.969.788 1.446.15.235.344.438.571.6.188.159.492.101.774.036.358-.1.71-.218 1.055-.354l-.065.152c-.867-1.989-1.626-3.745-2.169-5.01-.253-.608-.455-1.114-.621-1.497a3.173 3.173 0 01-.188-.578z" fill="#744A45"/><path d="M301.504 190.798l2.971 7.453c.18.541.451 1.047.803 1.496a1.714 1.714 0 001.496.651 1.765 1.765 0 001.316-1.721 5.467 5.467 0 00-.557-2.262 47.788 47.788 0 01-2.169-6.977" fill="#99655C"/><path d="M305.4 189.438c.036.074.063.152.08.232.043.173.101.39.173.658.152.571.376 1.395.723 2.407s.723 2.205 1.229 3.506c.316.675.526 1.394.622 2.133a2.25 2.25 0 01-.224 1.178 1.749 1.749 0 01-.904.882 1.497 1.497 0 01-1.243-.101 2.377 2.377 0 01-.882-.831 13.539 13.539 0 01-.896-2.025l-1.36-3.462-.918-2.328c-.094-.26-.166-.47-.231-.636a.989.989 0 01-.065-.232.927.927 0 01.108.21l.275.629.962 2.313c.397.991.874 2.169 1.402 3.449.241.686.538 1.351.889 1.988.197.306.471.556.795.722a1.282 1.282 0 001.063.094c.344-.15.62-.423.774-.766.161-.335.233-.706.209-1.077a7.19 7.19 0 00-.6-2.068 45.712 45.712 0 01-1.185-3.535 40.066 40.066 0 01-.629-2.429c-.058-.289-.109-.52-.13-.672a1.133 1.133 0 01-.037-.239z" fill="#744A45"/><path d="M301.743 208.314s-6.81 20.061-7.078 21.044c-.267.984 1.345 8.155 4.302 9.854 2.957 1.699 8.675-5.371 9.398-7.952.723-2.581 0-6.984 0-6.984l4.59-17.285" fill="#99655C"/><path d="M308.374 205.155c-.218.03-.44.002-.644-.08a3.6 3.6 0 01-2.248-2.06 1.348 1.348 0 01-.138-.636 4.57 4.57 0 003.03 2.776z" fill="#744A45"/></g><defs><linearGradient id="paint0_linear_7945_49401" x1="578.996" y1="0" x2="249.432" y2="521.885" gradientUnits="userSpaceOnUse"><stop stop-color="#A0CA3F"/><stop offset="1" stop-color="#7B9C30"/></linearGradient><linearGradient id="paint1_linear_7945_49401" x1="498.016" y1="221.885" x2="569.116" y2="265.616" gradientUnits="userSpaceOnUse"><stop stop-color="#A0CA3F"/><stop offset="1" stop-color="#7B9C30"/></linearGradient><linearGradient id="paint2_linear_7945_49401" x1="533.638" y1="267.33" x2="501.196" y2="257.978" gradientUnits="userSpaceOnUse"><stop stop-color="#BFDE76"/><stop offset="1" stop-color="#E3FBAC"/></linearGradient><linearGradient id="paint3_linear_7945_49401" x1="527.287" y1="253.591" x2="523.166" y2="252.771" gradientUnits="userSpaceOnUse"><stop stop-color="#BFDE76"/><stop offset="1" stop-color="#E3FBAC"/></linearGradient><linearGradient id="paint4_linear_7945_49401" x1="540.075" y1="257.521" x2="536.615" y2="250.933" gradientUnits="userSpaceOnUse"><stop stop-color="#BFDE76"/><stop offset="1" stop-color="#E3FBAC"/></linearGradient><linearGradient id="paint5_linear_7945_49401" x1="530.893" y1="276.184" x2="530.609" y2="274.148" gradientUnits="userSpaceOnUse"><stop stop-color="#BFDE76"/><stop offset="1" stop-color="#E3FBAC"/></linearGradient><linearGradient id="paint6_linear_7945_49401" x1="526.408" y1="292.02" x2="525.824" y2="288.751" gradientUnits="userSpaceOnUse"><stop stop-color="#BFDE76"/><stop offset="1" stop-color="#E3FBAC"/></linearGradient><linearGradient id="paint7_linear_7945_49401" x1="105.996" y1="129" x2="170.965" y2="194.048" gradientUnits="userSpaceOnUse"><stop stop-color="#A0CA3F"/><stop offset="1" stop-color="#7B9C30"/></linearGradient><linearGradient id="paint8_linear_7945_49401" x1="443.354" y1="46.66" x2="416.547" y2="29.711" gradientUnits="userSpaceOnUse"><stop stop-color="#BFDE76"/><stop offset="1" stop-color="#E3FBAC"/></linearGradient><linearGradient id="paint9_linear_7945_49401" x1="484.95" y1="99.578" x2="471.481" y2="90.296" gradientUnits="userSpaceOnUse"><stop stop-color="#BFDE76"/><stop offset="1" stop-color="#E3FBAC"/></linearGradient><linearGradient id="paint10_linear_7945_49401" x1="98.881" y1="91.211" x2="63.544" y2="68.71" gradientUnits="userSpaceOnUse"><stop stop-color="#BFDE76"/><stop offset="1" stop-color="#E3FBAC"/></linearGradient><linearGradient id="paint11_linear_7945_49401" x1="475.949" y1="136.238" x2="522.498" y2="182.794" gradientUnits="userSpaceOnUse"><stop stop-color="#A0CA3F"/><stop offset="1" stop-color="#7B9C30"/></linearGradient><linearGradient id="paint12_linear_7945_49401" x1="289.996" y1="46" x2="348.996" y2="105" gradientUnits="userSpaceOnUse"><stop stop-color="#A0CA3F"/><stop offset="1" stop-color="#7B9C30"/></linearGradient><linearGradient id="paint13_linear_7945_49401" x1="318.154" y1="168.474" x2="288.172" y2="128.014" gradientUnits="userSpaceOnUse"><stop offset="0" stop-color="#8A1050"/><stop offset="1" stop-color="#B53378"/></linearGradient><linearGradient id="paint14_linear_7945_49401" x1="446.838" y1="217.127" x2="416.856" y2="176.667" gradientUnits="userSpaceOnUse"><stop offset="0" stop-color="#8A1050"/><stop offset="1" stop-color="#B53378"/></linearGradient><linearGradient id="paint15_linear_7945_49401" x1="513.4" y1="253.106" x2="487.378" y2="217.407" gradientUnits="userSpaceOnUse"><stop offset="0" stop-color="#8A1050"/><stop offset="1" stop-color="#B53378"/></linearGradient><linearGradient id="paint16_linear_7945_49401" x1="171.462" y1="245.32" x2="138.205" y2="199.702" gradientUnits="userSpaceOnUse"><stop offset="0" stop-color="#8A1050"/><stop offset="1" stop-color="#B53378"/></linearGradient><linearGradient id="paint17_linear_7945_49401" x1="245.884" y1="141.003" x2="145.094" y2="40.213" gradientUnits="userSpaceOnUse"><stop offset="0" stop-color="#8A1050"/><stop offset="1" stop-color="#B53378"/></linearGradient><linearGradient id="paint18_linear_7945_49401" x1="234.5" y1="90.608" x2="156.473" y2="90.608" gradientUnits="userSpaceOnUse"><stop offset="0" stop-color="#8A1050"/><stop offset="1" stop-color="#B53378"/></linearGradient><linearGradient id="paint19_linear_7945_49401" x1="344.996" y1="296.511" x2="389.698" y2="330.364" gradientUnits="userSpaceOnUse"><stop stop-color="#A0CA3F"/><stop offset="1" stop-color="#7B9C30"/></linearGradient><linearGradient id="paint20_linear_7945_49401" x1="309.906" y1="295.787" x2="352.15" y2="327.468" gradientUnits="userSpaceOnUse"><stop stop-color="#A0CA3F"/><stop offset="1" stop-color="#7B9C30"/></linearGradient><linearGradient id="paint21_linear_7945_49401" x1="360.98" y1="208.487" x2="410.3" y2="229.297" gradientUnits="userSpaceOnUse"><stop stop-color="#A0CA3F"/><stop offset="1" stop-color="#7B9C30"/></linearGradient><linearGradient id="paint22_linear_7945_49401" x1="291.836" y1="199.834" x2="368.47" y2="283.085" gradientUnits="userSpaceOnUse"><stop stop-color="#A0CA3F"/><stop offset="1" stop-color="#7B9C30"/></linearGradient><clipPath id="clip0_7945_49401"><path fill="#fff" transform="translate(33.996 23)" d="M0 0h513v319.958H0z"/></clipPath></defs></svg>