<svg width="531" height="362" fill="none" xmlns="http://www.w3.org/2000/svg"><path opacity=".12" fill-rule="evenodd" clip-rule="evenodd" d="M472.728 293.344c-35.388 28.838-92.474 30.385-142.177 42.683-43.621 10.794-85.086 30.804-130.342 24.749-45.952-6.148-80.685-32.218-113.146-57.326-33.631-26.014-64.997-54.034-76.29-89.205-12.41-38.648-19.725-83.311 10.39-116.017 29.671-32.222 90.174-34.24 139.665-46.945 44.347-11.386 86.784-24.207 133.674-23.23 55.614 1.158 115.2 2.757 158.079 29.307 45.711 28.303 73.379 72.078 77.158 116.344 3.699 43.332-17.783 87.672-57.011 119.64z" fill="url(#paint0_linear_5649_42386)"/><g clip-path="url(#clip0_5649_42386)"><rect x="34" width="453" height="336.659" rx="2.248" fill="#fff" fill-opacity=".7"/><path fill="url(#paint1_linear_5649_42386)" d="M34 0h453v337H34z"/><path d="M71.957 225.194h-.613v-4.061l-1.228.452v-.554l1.745-.655h.096v4.818zm1.139-26.978h-3.142v-.438l1.66-1.844c.246-.279.415-.505.507-.679.095-.175.142-.357.142-.543a.86.86 0 00-.227-.616c-.152-.16-.354-.24-.606-.24-.303 0-.54.086-.708.26-.167.171-.25.41-.25.718h-.61c0-.442.142-.798.425-1.071.285-.272.666-.408 1.143-.408.445 0 .798.118 1.057.352.259.233.388.544.388.932 0 .472-.3 1.034-.902 1.687l-1.284 1.393h2.407v.497zm-2.256-29.672h.458c.287-.004.514-.08.678-.227.165-.147.247-.346.247-.596 0-.562-.28-.843-.84-.843-.263 0-.474.076-.632.227-.156.15-.234.348-.234.596h-.609c0-.379.138-.694.415-.945.279-.252.632-.378 1.06-.378.453 0 .807.119 1.064.359.257.239.385.571.385.997 0 .209-.067.411-.204.606a1.205 1.205 0 01-.55.438c.264.084.467.222.61.415.144.193.217.429.217.708 0 .431-.14.772-.422 1.024-.28.253-.646.379-1.096.379-.45 0-.817-.122-1.1-.365-.281-.244-.422-.566-.422-.965h.613c0 .252.082.454.247.606.165.151.385.227.662.227.294 0 .519-.077.675-.231.156-.153.234-.374.234-.662 0-.278-.086-.492-.257-.642-.171-.149-.418-.226-.741-.23h-.458v-.498zm1.686-25.894h.666v.498h-.666v1.113h-.612v-1.113H69.73v-.359l2.147-3.323h.65v3.184zm-2.104 0h1.492v-2.351l-.073.132-1.42 2.219zm-.188-27.771l.244-2.391h2.457v.563h-1.94l-.145 1.307a1.55 1.55 0 01.8-.207c.437 0 .784.145 1.04.435.258.287.386.677.386 1.169 0 .494-.134.883-.402 1.169-.265.283-.637.425-1.116.425-.424 0-.77-.118-1.037-.353-.268-.235-.42-.56-.458-.975h.576c.038.275.135.482.293.623.158.138.367.207.626.207.283 0 .505-.096.665-.289.163-.194.244-.46.244-.801 0-.32-.088-.577-.263-.77-.174-.196-.405-.293-.695-.293-.266 0-.475.058-.626.174l-.161.132-.488-.125zM86.57 265.098h-.613v-4.06l-1.229.451v-.553l1.746-.656h.095v4.818zm4.175-4.798v.517h-.112c-.474.009-.852.149-1.133.422-.281.272-.444.655-.487 1.149.252-.29.597-.435 1.034-.435.417 0 .75.147.998.441.25.295.375.674.375 1.14 0 .494-.135.889-.405 1.185-.268.297-.628.445-1.08.445-.46 0-.831-.176-1.117-.527-.285-.353-.428-.808-.428-1.363v-.234c0-.883.188-1.557.563-2.022.378-.468.939-.707 1.683-.718h.109zm-.8 2.16a.975.975 0 00-.577.188.977.977 0 00-.365.471v.224c0 .395.089.713.266.955.178.241.4.362.666.362a.77.77 0 00.645-.303c.158-.202.237-.466.237-.793 0-.33-.08-.595-.24-.797a.758.758 0 00-.632-.307zm-5.19 9.387h-2.01l-.45 1.251h-.653l1.832-4.795h.553l1.834 4.795h-.649l-.458-1.251zm-1.818-.521h1.63l-.817-2.242-.813 2.242zm4.202-.105v1.877h-.632v-4.795h1.768c.525 0 .935.134 1.232.402.298.268.447.622.447 1.064 0 .465-.145.824-.438 1.077-.29.25-.705.375-1.248.375h-1.13zm0-.517h1.136c.338 0 .597-.079.777-.237.18-.16.27-.391.27-.692 0-.285-.09-.513-.27-.685-.18-.171-.427-.26-.74-.266h-1.173v1.88zm5.38.454h-1.125v1.94h-.636v-4.795h1.587c.54 0 .955.123 1.245.369.292.246.438.604.438 1.074 0 .298-.081.558-.244.78-.16.222-.384.388-.671.497l1.126 2.036v.039h-.678l-1.041-1.94zm-1.125-.517h.971c.314 0 .563-.081.748-.243a.822.822 0 00.28-.652c0-.297-.09-.524-.267-.682-.176-.158-.43-.238-.764-.24h-.968v1.817zm18.676-9.995l-1.985 4.452h-.639l1.979-4.294h-2.595v-.501h3.24v.343zm-7.271 7.657l1.568 3.913 1.567-3.913h.82v4.795h-.632v-1.867l.059-2.016-1.574 3.883h-.484l-1.571-3.873.063 2.006v1.867h-.633v-4.795h.817zm7.779 3.544h-2.009l-.451 1.251h-.653l1.831-4.795h.554l1.834 4.795h-.649l-.457-1.251zm-1.818-.521h1.63l-.817-2.242-.813 2.242zm4.722-.615l1.252-2.408h.717l-1.653 3.007v1.788h-.632v-1.788l-1.653-3.007h.724l1.245 2.408zm14.974-5.613h-3.142v-.438l1.66-1.844c.246-.279.415-.505.507-.678.094-.176.142-.357.142-.544a.86.86 0 00-.228-.616c-.151-.16-.353-.24-.606-.24-.303 0-.539.087-.708.26-.166.171-.25.411-.25.718h-.609c0-.441.142-.798.425-1.07.285-.272.666-.409 1.142-.409.446 0 .799.118 1.058.353.259.233.388.543.388.932 0 .472-.301 1.034-.902 1.686l-1.285 1.393h2.408v.497zm3.553-3.543c0 .239-.064.452-.191.639a1.284 1.284 0 01-.51.438c.25.107.448.264.592.47.148.207.221.441.221.702 0 .415-.14.745-.421.991-.279.246-.647.369-1.104.369-.461 0-.831-.123-1.109-.369-.277-.248-.415-.578-.415-.991 0-.259.07-.493.21-.702.143-.208.34-.366.59-.474a1.251 1.251 0 01-.504-.438 1.125 1.125 0 01-.184-.635c0-.404.129-.725.388-.962s.601-.356 1.024-.356c.422 0 .762.119 1.021.356.262.237.392.558.392.962zm-.497 2.236a.883.883 0 00-.257-.656c-.169-.169-.391-.253-.665-.253-.275 0-.495.083-.662.25-.165.167-.247.387-.247.659s.08.486.24.642c.163.156.388.234.675.234.286 0 .51-.078.672-.234.163-.158.244-.372.244-.642zm-.916-3.053a.792.792 0 00-.583.224c-.147.147-.22.348-.22.603 0 .243.072.441.217.592.147.15.343.224.586.224.244 0 .438-.074.583-.224a.814.814 0 00.221-.592.813.813 0 00-.227-.596.776.776 0 00-.577-.231zm-7.564 7.565l1.568 3.913 1.567-3.913h.82v4.795h-.632v-1.867l.059-2.016-1.574 3.883h-.484l-1.571-3.873.063 2.006v1.867h-.633v-4.795h.817zm7.778 3.544h-2.008l-.452 1.251h-.652l1.831-4.795h.554l1.834 4.795h-.649l-.458-1.251zm-1.817-.521h1.63l-.817-2.242-.813 2.242zm4.722-.615l1.251-2.408h.718l-1.653 3.007v1.788h-.632v-1.788l-1.653-3.007h.724l1.245 2.408zm13.834-5.613h-.612v-4.06l-1.229.451v-.553l1.746-.656h.095v4.818zm4.693-3.543c0 .239-.064.452-.191.639a1.284 1.284 0 01-.51.438c.25.107.447.264.592.47.147.207.221.441.221.702 0 .415-.14.745-.421.991-.279.246-.647.369-1.104.369-.461 0-.831-.123-1.109-.369-.277-.248-.415-.578-.415-.991 0-.259.07-.493.21-.702.143-.208.34-.366.59-.474a1.251 1.251 0 01-.504-.438 1.125 1.125 0 01-.184-.635c0-.404.129-.725.388-.962s.601-.356 1.024-.356c.422 0 .762.119 1.021.356.261.237.392.558.392.962zm-.497 2.236a.883.883 0 00-.257-.656c-.169-.169-.391-.253-.665-.253-.275 0-.495.083-.662.25-.165.167-.247.387-.247.659s.08.486.24.642c.163.156.388.234.675.234.286 0 .51-.078.672-.234.163-.158.244-.372.244-.642zm-.916-3.053a.792.792 0 00-.583.224c-.147.147-.22.348-.22.603 0 .243.072.441.217.592.147.15.343.224.586.224.244 0 .438-.074.583-.224a.814.814 0 00.221-.592.813.813 0 00-.227-.596.776.776 0 00-.577-.231zm-5.779 7.565h.635v3.396c0 .458-.138.817-.415 1.076-.274.259-.641.389-1.099.389-.477 0-.848-.122-1.114-.366-.265-.243-.398-.585-.398-1.024h.632c0 .275.075.489.224.642.152.154.37.231.656.231.261 0 .472-.082.632-.247.162-.165.245-.395.247-.692v-3.405zm5.088 0v3.261c-.002.452-.145.822-.428 1.109-.281.288-.663.449-1.146.484l-.168.007c-.525 0-.943-.142-1.255-.425-.312-.283-.47-.673-.474-1.169v-3.267h.625v3.247c0 .347.096.617.287.81.191.191.463.287.817.287.358 0 .631-.096.82-.287.191-.191.286-.459.286-.806v-3.251h.636zm4.683 4.795h-.636l-2.414-3.695v3.695h-.635v-4.795h.635l2.421 3.712v-3.712h.629v4.795zm14.906-10.107a1.49 1.49 0 01-.457.365 1.232 1.232 0 01-.58.138c-.277 0-.518-.068-.724-.204a1.328 1.328 0 01-.475-.573 1.968 1.968 0 01-.168-.82c0-.32.061-.609.181-.866.123-.257.297-.453.521-.589.224-.137.485-.205.784-.205.474 0 .847.178 1.119.534.275.353.412.836.412 1.449v.178c0 .933-.185 1.614-.553 2.045-.369.428-.926.647-1.67.658h-.119v-.513h.129c.503-.009.889-.14 1.159-.392.27-.255.417-.657.441-1.205zm-.938 0a.934.934 0 00.563-.188c.173-.125.3-.28.379-.465v-.243c0-.4-.087-.725-.261-.975-.173-.25-.392-.375-.658-.375a.783.783 0 00-.646.309c-.162.204-.243.474-.243.81 0 .327.078.597.234.81a.75.75 0 00.632.317zm-3.198 5.312h.636v3.396c0 .458-.139.817-.415 1.076-.275.259-.641.389-1.1.389-.477 0-.848-.122-1.113-.366-.266-.243-.399-.585-.399-1.024h.633c0 .275.074.489.224.642.151.154.369.231.655.231.261 0 .472-.082.632-.247.163-.165.245-.395.247-.692v-3.405zm5.088 0v3.261c-.002.452-.145.822-.428 1.109-.281.288-.663.449-1.146.484l-.168.007c-.525 0-.943-.142-1.255-.425-.311-.283-.47-.673-.474-1.169v-3.267h.626v3.247c0 .347.095.617.286.81.191.191.464.287.817.287.358 0 .631-.096.82-.287.191-.191.287-.459.287-.806v-3.251h.635zm1.633 4.278h2.273v.517h-2.908v-4.795h.635v4.278zm14.306-10.177h.458c.288-.004.514-.08.678-.227.165-.147.247-.346.247-.596 0-.562-.28-.843-.839-.843-.264 0-.475.076-.633.227-.156.15-.233.348-.233.596h-.61c0-.38.139-.695.415-.945.279-.252.632-.379 1.061-.379.452 0 .806.12 1.063.359.257.24.386.572.386.998 0 .209-.068.411-.205.606a1.199 1.199 0 01-.55.438c.264.084.467.222.61.415.145.193.217.429.217.708 0 .43-.14.772-.421 1.024-.281.253-.647.379-1.097.379-.45 0-.817-.122-1.1-.366-.281-.243-.422-.565-.422-.964h.613c0 .252.082.454.247.606.165.151.385.227.662.227.294 0 .519-.077.675-.231.156-.153.234-.374.234-.662 0-.279-.086-.493-.257-.642-.171-.149-.418-.226-.741-.23h-.458v-.498zm5.908.649c0 .714-.122 1.244-.365 1.591-.244.347-.625.52-1.143.52-.512 0-.89-.169-1.136-.507-.246-.34-.373-.848-.382-1.522v-.813c0-.705.122-1.228.365-1.571.244-.342.626-.514 1.146-.514.516 0 .896.166 1.14.498.243.329.369.838.375 1.528v.79zm-.609-.833c0-.516-.073-.891-.217-1.126-.145-.237-.375-.356-.689-.356-.311 0-.539.117-.681.352-.143.235-.217.596-.221 1.084v.975c0 .518.075.901.224 1.149.151.246.38.369.685.369.301 0 .524-.117.668-.349.148-.233.224-.6.231-1.1v-.998zm-6.092 6.083h.635v3.396c0 .458-.138.817-.415 1.076-.274.259-.641.389-1.1.389-.476 0-.847-.122-1.113-.366-.265-.243-.398-.585-.398-1.024h.632c0 .275.075.489.224.642.151.154.37.231.655.231.262 0 .472-.082.633-.247.162-.165.244-.395.247-.692v-3.405zm5.088 0v3.261c-.003.452-.145.822-.429 1.109-.281.288-.663.449-1.146.484l-.168.007c-.524 0-.943-.142-1.254-.425-.312-.283-.47-.673-.474-1.169v-3.267h.625v3.247c0 .347.096.617.287.81.191.191.463.287.816.287.358 0 .632-.096.82-.287.191-.191.287-.459.287-.806v-3.251h.636zm1.633 4.278h2.272v.517h-2.908v-4.795h.636v4.278zm16.843-7.483h-3.141v-.438l1.659-1.844c.246-.279.415-.505.508-.678a1.14 1.14 0 00.141-.544.864.864 0 00-.227-.616c-.151-.16-.353-.24-.606-.24-.303 0-.539.087-.708.26-.167.171-.25.411-.25.718h-.609c0-.441.141-.798.424-1.07.286-.272.667-.409 1.143-.409.446 0 .798.118 1.057.353.259.233.389.543.389.932 0 .472-.301 1.034-.903 1.686l-1.284 1.393h2.407v.497zm3.653-2.045c0 .714-.122 1.244-.366 1.591s-.625.52-1.143.52c-.511 0-.89-.169-1.136-.507-.246-.34-.373-.848-.382-1.522v-.813c0-.705.122-1.228.366-1.571.243-.342.625-.514 1.146-.514.516 0 .895.166 1.139.498.244.329.369.838.376 1.528v.79zm-.61-.833c0-.516-.072-.891-.217-1.126-.145-.237-.374-.356-.688-.356-.312 0-.539.117-.682.352-.143.235-.216.596-.221 1.084v.975c0 .518.075.901.224 1.149.152.246.38.369.685.369.301 0 .524-.117.669-.349.147-.233.224-.6.23-1.1v-.998zm-6.247 9.627h-2.009l-.451 1.251h-.652l1.831-4.795h.553l1.835 4.795h-.649l-.458-1.251zm-1.818-.521h1.63l-.816-2.242-.814 2.242zm6.886-3.023v3.261c-.002.452-.145.822-.428 1.109-.281.288-.663.449-1.146.484l-.168.007c-.524 0-.943-.142-1.254-.425-.312-.283-.47-.673-.475-1.169v-3.267h.626v3.247c0 .347.096.617.287.81.191.191.463.287.816.287.358 0 .631-.096.82-.287.191-.191.287-.459.287-.806v-3.251h.635zm4.538 4.166a1.468 1.468 0 01-.681.524c-.29.114-.628.171-1.015.171-.39 0-.737-.091-1.04-.273a1.86 1.86 0 01-.705-.784c-.165-.338-.249-.73-.254-1.176v-.418c0-.722.168-1.282.504-1.68.338-.397.813-.596 1.423-.596.5 0 .903.129 1.208.386.306.254.492.617.56 1.086h-.632c-.119-.634-.496-.951-1.133-.951-.424 0-.745.149-.965.448-.217.296-.327.726-.329 1.291v.391c0 .538.123.966.369 1.285.246.316.578.474.998.474.237 0 .444-.026.622-.079a.963.963 0 00.441-.267v-1.077h-1.109v-.513h1.738v1.758zm12.411-7.371h-.613v-4.06l-1.228.451v-.553l1.745-.656h.096v4.818zm4.791-2.045c0 .714-.121 1.244-.365 1.591s-.625.52-1.143.52c-.511 0-.89-.169-1.136-.507-.246-.34-.373-.848-.382-1.522v-.813c0-.705.122-1.228.366-1.571.243-.342.625-.514 1.146-.514.516 0 .895.166 1.139.498.244.329.369.838.375 1.528v.79zm-.609-.833c0-.516-.072-.891-.217-1.126-.145-.237-.374-.356-.688-.356-.312 0-.539.117-.682.352-.143.235-.216.596-.221 1.084v.975c0 .518.075.901.224 1.149.152.246.38.369.685.369.301 0 .524-.117.669-.349.147-.233.224-.6.23-1.1v-.998zm-6.873 8.741c-.542-.156-.937-.347-1.185-.573a1.104 1.104 0 01-.369-.843c0-.378.15-.69.451-.935.303-.249.696-.373 1.179-.373.329 0 .623.064.879.191.259.128.459.303.6.527.142.224.214.469.214.735h-.636c0-.29-.092-.517-.276-.682-.185-.167-.445-.25-.781-.25-.312 0-.555.069-.731.207a.684.684 0 00-.26.57c0 .195.082.361.247.497.167.134.449.257.846.369.4.112.712.236.935.372.227.134.393.291.501.471.11.18.165.392.165.636 0 .388-.152.7-.455.935-.303.233-.708.349-1.215.349-.329 0-.637-.063-.922-.188a1.572 1.572 0 01-.662-.52 1.272 1.272 0 01-.231-.748h.636c0 .29.107.52.32.689.215.167.501.25.859.25.334 0 .59-.068.767-.204a.664.664 0 00.267-.557c0-.235-.082-.416-.247-.543-.165-.13-.463-.257-.896-.382zm5.302-.079h-2.078v1.699h2.414v.517h-3.046v-4.795h3.013v.521h-2.381v1.541h2.078v.517zm1.756.339v1.877h-.633v-4.795h1.769c.524 0 .935.134 1.231.402.299.268.448.622.448 1.064 0 .465-.146.824-.438 1.077-.29.25-.706.375-1.248.375h-1.129zm0-.517h1.136c.338 0 .597-.079.777-.237.18-.16.27-.391.27-.692 0-.285-.09-.513-.27-.685-.18-.171-.427-.26-.741-.266h-1.172v1.88zm17.76-5.606h-.613v-4.06l-1.228.451v-.553l1.745-.656h.096v4.818zm-1.904 5.757c0 .47-.079.881-.237 1.232a1.793 1.793 0 01-.672.8 1.84 1.84 0 01-1.014.277c-.377 0-.712-.092-1.004-.277a1.864 1.864 0 01-.682-.793 2.874 2.874 0 01-.247-1.196v-.345c0-.462.08-.869.24-1.222.161-.354.387-.624.679-.81.294-.189.63-.284 1.008-.284.384 0 .722.094 1.014.28.294.185.52.454.678.807.158.351.237.761.237 1.229v.302zm-.629-.309c0-.569-.114-1.004-.342-1.307-.228-.306-.548-.458-.958-.458-.4 0-.715.152-.946.458-.228.303-.345.724-.352 1.264v.352c0 .552.115.985.346 1.301.233.314.552.471.958.471.409 0 .725-.148.949-.444.224-.299.339-.726.345-1.281v-.356zm5.105 1.031c-.059.507-.247.899-.563 1.175-.314.275-.732.412-1.255.412-.566 0-1.021-.203-1.363-.609-.341-.406-.511-.95-.511-1.63v-.461c0-.446.079-.838.237-1.176.161-.338.387-.597.679-.777.292-.182.63-.274 1.014-.274.509 0 .918.143 1.225.429.307.283.486.676.537 1.178h-.636c-.055-.382-.174-.658-.359-.829-.182-.172-.438-.257-.767-.257-.404 0-.721.149-.952.448-.228.298-.342.723-.342 1.274v.464c0 .521.108.935.326 1.242.217.307.521.461.912.461.351 0 .62-.079.807-.237.189-.16.314-.438.375-.833h.636zm4.08-2.753h-1.541v4.274h-.629v-4.274h-1.538v-.521h3.708v.521zm31.921-3.726h-.612v-4.06l-1.229.451v-.553l1.746-.656h.095v4.818zm4.927 0h-3.142v-.438l1.66-1.844c.246-.279.415-.505.507-.678a1.14 1.14 0 00.141-.544.86.86 0 00-.227-.616c-.151-.16-.353-.24-.606-.24-.303 0-.539.087-.708.26-.167.171-.25.411-.25.718h-.609c0-.441.141-.798.425-1.07.285-.272.666-.409 1.142-.409.446 0 .798.118 1.057.353.259.233.389.543.389.932 0 .472-.301 1.034-.902 1.686l-1.285 1.393h2.408v.497zm-6.132 8h-.636l-2.414-3.695v3.695h-.635v-4.795h.635l2.421 3.712v-3.712h.629v4.795zm4.811-2.243c0 .47-.079.881-.237 1.232a1.793 1.793 0 01-.672.8c-.29.185-.628.277-1.014.277-.378 0-.713-.092-1.005-.277a1.855 1.855 0 01-.681-.793 2.874 2.874 0 01-.247-1.196v-.345c0-.462.08-.869.24-1.222.16-.354.387-.624.679-.81.294-.189.63-.284 1.007-.284.385 0 .723.094 1.015.28.294.185.52.454.678.807.158.351.237.761.237 1.229v.302zm-.629-.309c0-.569-.114-1.004-.342-1.307-.229-.306-.548-.458-.959-.458-.399 0-.714.152-.945.458-.228.303-.346.724-.352 1.264v.352c0 .552.115.985.346 1.301.232.314.552.471.958.471.408 0 .724-.148.948-.444.224-.299.34-.726.346-1.281v-.356zm3.092 1.712l1.37-3.955h.692l-1.778 4.795h-.56l-1.775-4.795h.688l1.363 3.955zm15.222-9.854h.457c.288-.004.514-.08.679-.227.165-.147.247-.346.247-.596 0-.562-.28-.843-.84-.843-.263 0-.474.076-.632.227-.156.15-.234.348-.234.596h-.609c0-.38.138-.695.415-.945.278-.252.632-.379 1.06-.379.452 0 .807.12 1.064.359.257.24.385.572.385.998 0 .209-.068.411-.204.606a1.204 1.204 0 01-.55.438c.263.084.466.222.609.415.145.193.218.429.218.708 0 .43-.141.772-.422 1.024-.281.253-.647.379-1.097.379-.45 0-.816-.122-1.1-.366-.281-.243-.421-.565-.421-.964h.612c0 .252.083.454.247.606.165.151.386.227.662.227.295 0 .52-.077.675-.231.156-.153.234-.374.234-.662 0-.279-.085-.493-.257-.642-.171-.149-.418-.226-.741-.23h-.457v-.498zm-4.324 10.694v-4.795h1.353c.417 0 .786.092 1.107.277.32.184.567.447.741.787.175.34.264.731.266 1.172v.307c0 .452-.087.848-.263 1.188a1.822 1.822 0 01-.748.784 2.303 2.303 0 01-1.129.28h-1.327zm.632-4.274v3.757h.665c.488 0 .866-.151 1.136-.454.273-.303.409-.735.409-1.295v-.279c0-.545-.129-.968-.386-1.268-.254-.303-.616-.457-1.086-.461h-.738zm6.504 2.058h-2.078v1.699h2.414v.517h-3.046v-4.795h3.013v.521h-2.381v1.541h2.078v.517zm4.65.695c-.059.507-.247.899-.563 1.175-.314.275-.732.412-1.255.412-.566 0-1.021-.203-1.363-.609-.34-.406-.511-.95-.511-1.63v-.461c0-.446.079-.838.237-1.176.161-.338.387-.597.679-.777.292-.182.63-.274 1.014-.274.51 0 .918.143 1.225.429.308.283.487.676.537 1.178h-.636c-.054-.382-.174-.658-.359-.829-.182-.172-.437-.257-.767-.257-.404 0-.721.149-.952.448-.228.298-.342.723-.342 1.274v.464c0 .521.109.935.326 1.242.217.307.521.461.912.461.351 0 .62-.079.807-.237.189-.16.314-.438.375-.833h.636zm33.07-6.479h-.612v-4.06l-1.229.451v-.553l1.746-.656h.095v4.818zm4.357-1.61h.665v.497h-.665v1.113h-.612v-1.113h-2.184v-.359l2.147-3.323h.649v3.185zm-2.104 0h1.492v-2.352l-.073.132-1.419 2.22zm-4.729 4.815h.635v3.396c0 .458-.138.817-.415 1.076-.274.259-.641.389-1.099.389-.477 0-.848-.122-1.114-.366-.265-.243-.398-.585-.398-1.024h.632c0 .275.075.489.224.642.152.154.37.231.656.231.261 0 .472-.082.632-.247.162-.165.245-.395.247-.692v-3.405zm4.288 3.544h-2.009l-.451 1.251h-.652l1.831-4.795h.553l1.834 4.795h-.649l-.457-1.251zm-1.818-.521h1.63l-.817-2.242-.813 2.242zm7.255 1.772h-.636l-2.414-3.695v3.695h-.635v-4.795h.635l2.421 3.712v-3.712h.629v4.795zm15.447-9.61h.665v.497h-.665v1.113h-.612v-1.113h-2.184v-.359l2.147-3.323h.649v3.185zm-2.104 0h1.492v-2.352l-.073.132-1.419 2.22zm-1.653 7.493h-2.013v2.117h-.632v-4.795h2.971v.521h-2.339v1.64h2.013v.517zm3.793-.099h-2.078v1.699h2.414v.517h-3.046v-4.795h3.013v.521h-2.381v1.541h2.078v.517zm1.123 2.216v-4.795h1.568c.52 0 .911.108 1.172.323.264.215.395.534.395.955a.976.976 0 01-.191.596c-.127.171-.3.304-.52.399.259.072.463.21.613.415.151.201.227.443.227.724 0 .43-.14.768-.418 1.014-.279.246-.673.369-1.183.369h-1.663zm.633-2.243v1.726h1.043c.295 0 .526-.076.695-.227.172-.154.257-.365.257-.632 0-.578-.314-.867-.942-.867h-1.053zm0-.507h.955c.276 0 .497-.069.661-.207a.693.693 0 00.251-.563c0-.264-.077-.455-.231-.573-.153-.121-.387-.181-.701-.181h-.935v1.524zm17.119-5.25h-3.142v-.438l1.66-1.844c.246-.279.415-.505.507-.678a1.14 1.14 0 00.141-.544.86.86 0 00-.227-.616c-.151-.16-.353-.24-.606-.24-.303 0-.539.087-.708.26-.167.171-.25.411-.25.718h-.609c0-.441.141-.798.424-1.07.286-.272.667-.409 1.143-.409.446 0 .798.118 1.057.353.259.233.389.543.389.932 0 .472-.301 1.034-.902 1.686l-1.285 1.393h2.408v.497zm.925-2.404l.244-2.391h2.456v.563h-1.939l-.145 1.308a1.54 1.54 0 01.8-.208c.437 0 .784.145 1.041.435.257.288.385.677.385 1.169 0 .494-.134.884-.402 1.169-.265.283-.638.425-1.116.425-.424 0-.77-.117-1.038-.352-.267-.235-.42-.56-.457-.975h.576c.037.274.135.482.293.622.158.139.367.208.626.208.283 0 .505-.097.665-.29.162-.193.244-.46.244-.8 0-.321-.088-.578-.264-.771-.173-.195-.405-.293-.695-.293-.265 0-.474.058-.625.175l-.162.131-.487-.125zm-3.359 8.287h-2.012v2.117h-.633v-4.795h2.971v.521h-2.338v1.64h2.012v.517zm3.794-.099h-2.078v1.699h2.414v.517h-3.047v-4.795h3.014v.521h-2.381v1.541h2.078v.517zm1.123 2.216v-4.795h1.567c.52 0 .911.108 1.173.323.263.215.395.534.395.955a.982.982 0 01-.191.596 1.255 1.255 0 01-.521.399c.259.072.464.21.613.415.151.201.227.443.227.724 0 .43-.139.768-.418 1.014-.279.246-.673.369-1.182.369h-1.663zm.632-2.243v1.726h1.044c.294 0 .526-.076.695-.227.171-.154.257-.365.257-.632 0-.578-.314-.867-.942-.867h-1.054zm0-.507h.955c.277 0 .497-.069.662-.207a.692.692 0 00.25-.563c0-.264-.077-.455-.23-.573-.154-.121-.388-.181-.702-.181h-.935v1.524zm16.259-5.25h-.613v-4.06l-1.228.451v-.553l1.745-.656h.096v4.818zm4.692-3.543c0 .239-.063.452-.191.639a1.284 1.284 0 01-.51.438c.25.107.448.264.593.47.147.207.22.441.22.702 0 .415-.14.745-.421.991-.279.246-.647.369-1.103.369-.461 0-.831-.123-1.11-.369-.277-.248-.415-.578-.415-.991 0-.259.07-.493.211-.702.142-.208.339-.366.589-.474a1.251 1.251 0 01-.504-.438 1.125 1.125 0 01-.184-.635c0-.404.129-.725.388-.962s.601-.356 1.025-.356c.421 0 .761.119 1.02.356.262.237.392.558.392.962zm-.497 2.236a.883.883 0 00-.257-.656c-.169-.169-.391-.253-.665-.253s-.495.083-.662.25c-.165.167-.247.387-.247.659s.08.486.24.642c.163.156.388.234.676.234.285 0 .509-.078.671-.234.163-.158.244-.372.244-.642zm-.915-3.053a.788.788 0 00-.583.224c-.147.147-.221.348-.221.603 0 .243.072.441.217.592.147.15.343.224.587.224.243 0 .438-.074.582-.224a.81.81 0 00.221-.592.813.813 0 00-.227-.596.775.775 0 00-.576-.231zm-7.772 7.565l1.567 3.913 1.568-3.913h.82v4.795h-.633v-1.867l.06-2.016-1.574 3.883h-.484l-1.571-3.873.062 2.006v1.867h-.632v-4.795h.817zm7.778 3.544h-2.009l-.451 1.251h-.652l1.831-4.795h.553l1.835 4.795h-.649l-.458-1.251zm-1.818-.521h1.63l-.816-2.242-.814 2.242zm5.329-.168h-1.127v1.94h-.635v-4.795h1.587c.54 0 .955.123 1.245.369.292.246.438.604.438 1.074 0 .298-.081.558-.244.78-.16.222-.384.388-.672.497l1.127 2.036v.039h-.679l-1.04-1.94zm-1.127-.517h.972c.314 0 .563-.081.747-.243a.821.821 0 00.28-.652c0-.297-.089-.524-.266-.682-.176-.158-.431-.238-.764-.24h-.969v1.817zm-86.026-5.543h-3.142v-.438l1.66-1.844c.246-.279.415-.505.507-.678.094-.176.142-.357.142-.544a.86.86 0 00-.228-.616c-.151-.16-.353-.24-.605-.24-.303 0-.539.087-.709.26-.166.171-.25.411-.25.718h-.609c0-.441.142-.798.425-1.07.285-.272.666-.409 1.143-.409.445 0 .798.118 1.057.353.259.233.388.543.388.932 0 .472-.301 1.034-.902 1.686l-1.284 1.393h2.407v.497zm3.217-1.61h.666v.497h-.666v1.113h-.612v-1.113h-2.184v-.359l2.148-3.323h.648v3.185zm-2.104 0h1.492v-2.352l-.073.132-1.419 2.22zm-6.636 9.61v-4.795h1.354c.417 0 .786.092 1.106.277.321.184.568.447.741.787.176.34.265.731.267 1.172v.307c0 .452-.088.848-.264 1.188a1.82 1.82 0 01-.747.784 2.307 2.307 0 01-1.13.28h-1.327zm.633-4.274v3.757h.665c.487 0 .866-.151 1.136-.454.272-.303.408-.735.408-1.295v-.279c0-.545-.128-.968-.385-1.268-.255-.303-.617-.457-1.087-.461h-.737zm6.504 2.058h-2.078v1.699h2.413v.517h-3.046v-4.795h3.013v.521h-2.38v1.541h2.078v.517zm4.649.695c-.059.507-.247.899-.563 1.175-.314.275-.732.412-1.254.412-.567 0-1.021-.203-1.364-.609-.34-.406-.51-.95-.51-1.63v-.461c0-.446.079-.838.237-1.176a1.78 1.78 0 01.678-.777c.292-.182.63-.274 1.015-.274.509 0 .917.143 1.225.429.307.283.486.676.536 1.178h-.635c-.055-.382-.175-.658-.359-.829-.182-.172-.438-.257-.767-.257-.404 0-.722.149-.952.448-.228.298-.343.723-.343 1.274v.464c0 .521.109.935.326 1.242.218.307.522.461.913.461.351 0 .62-.079.806-.237.189-.16.314-.438.376-.833h.635zm97.407-10.022c0 .239-.064.452-.191.639a1.294 1.294 0 01-.511.438c.25.107.448.264.593.47.147.207.221.441.221.702 0 .415-.141.745-.422.991-.279.246-.646.369-1.103.369-.461 0-.831-.123-1.11-.369-.277-.248-.415-.578-.415-.991 0-.259.07-.493.211-.702a1.34 1.34 0 01.589-.474 1.242 1.242 0 01-.503-.438 1.126 1.126 0 01-.185-.635c0-.404.13-.725.389-.962s.6-.356 1.024-.356c.421 0 .762.119 1.021.356.261.237.392.558.392.962zm-.498 2.236a.88.88 0 00-.257-.656c-.169-.169-.39-.253-.665-.253-.274 0-.495.083-.662.25-.164.167-.247.387-.247.659s.08.486.241.642c.162.156.387.234.675.234.285 0 .509-.078.672-.234.162-.158.243-.372.243-.642zm-.915-3.053a.79.79 0 00-.583.224c-.147.147-.221.348-.221.603a.82.82 0 00.218.592c.147.15.342.224.586.224.244 0 .438-.074.583-.224a.813.813 0 00.22-.592.809.809 0 00-.227-.596.772.772 0 00-.576-.231zm-3.201 11.109h-2.009l-.451 1.251h-.652l1.831-4.795h.553l1.834 4.795h-.648l-.458-1.251zm-1.818-.521h1.63l-.817-2.242-.813 2.242zm4.202-.105v1.877h-.632v-4.795h1.768c.525 0 .936.134 1.232.402.299.268.448.622.448 1.064 0 .465-.146.824-.438 1.077-.29.25-.706.375-1.248.375h-1.13zm0-.517h1.136c.338 0 .597-.079.777-.237.181-.16.271-.391.271-.692 0-.285-.09-.513-.271-.685-.18-.171-.427-.26-.74-.266h-1.173v1.88zm5.381.454h-1.126v1.94h-.636v-4.795h1.588c.54 0 .955.123 1.244.369.292.246.438.604.438 1.074 0 .298-.081.558-.243.78-.16.222-.384.388-.672.497l1.126 2.036v.039h-.678l-1.041-1.94zm-1.126-.517h.971c.314 0 .564-.081.748-.243a.821.821 0 00.28-.652c0-.297-.089-.524-.267-.682-.175-.158-.43-.238-.764-.24h-.968v1.817zm-167.238-5.543h-3.142v-.438l1.66-1.844c.246-.279.415-.505.507-.678a1.13 1.13 0 00.142-.544.864.864 0 00-.227-.616c-.152-.16-.354-.24-.606-.24-.303 0-.539.087-.708.26-.167.171-.251.411-.251.718h-.609c0-.441.142-.798.425-1.07.285-.272.666-.409 1.143-.409.445 0 .798.118 1.057.353.259.233.388.543.388.932 0 .472-.3 1.034-.902 1.686l-1.284 1.393h2.407v.497zm3.787 0h-3.141v-.438l1.659-1.844c.246-.279.415-.505.508-.678a1.14 1.14 0 00.141-.544.864.864 0 00-.227-.616c-.152-.16-.354-.24-.606-.24-.303 0-.539.087-.708.26-.167.171-.25.411-.25.718h-.61c0-.441.142-.798.425-1.07.286-.272.667-.409 1.143-.409.446 0 .798.118 1.057.353.259.233.389.543.389.932 0 .472-.301 1.034-.903 1.686l-1.284 1.393h2.407v.497zm-5.773 5.757c0 .47-.079.881-.237 1.232a1.793 1.793 0 01-.672.8 1.84 1.84 0 01-1.014.277c-.377 0-.712-.092-1.004-.277a1.864 1.864 0 01-.682-.793 2.874 2.874 0 01-.247-1.196v-.345c0-.462.08-.869.24-1.222.161-.354.387-.624.679-.81.294-.189.63-.284 1.008-.284.384 0 .722.094 1.014.28.294.185.52.454.678.807.158.351.237.761.237 1.229v.302zm-.629-.309c0-.569-.114-1.004-.342-1.307-.228-.306-.548-.458-.958-.458-.4 0-.715.152-.946.458-.228.303-.345.724-.352 1.264v.352c0 .552.115.985.346 1.301.233.314.552.471.958.471.408 0 .725-.148.949-.444.224-.299.339-.726.345-1.281v-.356zm5.105 1.031c-.06.507-.247.899-.563 1.175-.314.275-.733.412-1.255.412-.566 0-1.021-.203-1.363-.609-.341-.406-.511-.95-.511-1.63v-.461c0-.446.079-.838.237-1.176.161-.338.387-.597.679-.777.292-.182.63-.274 1.014-.274.509 0 .918.143 1.225.429.307.283.486.676.537 1.178h-.636c-.055-.382-.174-.658-.359-.829-.182-.172-.438-.257-.767-.257-.404 0-.721.149-.952.448-.228.298-.342.723-.342 1.274v.464c0 .521.108.935.326 1.242.217.307.521.461.912.461.351 0 .62-.079.807-.237.189-.16.314-.438.375-.833h.636zm4.08-2.753h-1.541v4.274h-.629v-4.274h-1.538v-.521h3.708v.521z" fill="#79808D"/><path opacity=".1" d="M77.839 196.15h366.447M77.839 223.128h366.447M77.839 169.172h366.447M77.839 142.195h366.447M77.839 115.217h366.447" stroke="#333945" stroke-width=".562"/><path d="M72.96 249.564c0 .713-.12 1.244-.365 1.59-.243.347-.624.521-1.142.521-.512 0-.89-.169-1.136-.507-.246-.341-.374-.848-.382-1.522v-.813c0-.705.121-1.229.365-1.571.244-.343.626-.514 1.146-.514.516 0 .896.166 1.14.497.243.33.368.839.375 1.528v.791zm-.608-.833c0-.516-.073-.892-.218-1.127-.144-.237-.374-.355-.688-.355-.312 0-.539.117-.682.352-.142.235-.216.596-.22 1.084v.974c0 .518.074.902.224 1.15.151.246.38.368.685.368.3 0 .523-.116.668-.349.147-.232.224-.599.23-1.1v-.997z" fill="#79808D"/><g filter="url(#filter0_dd_5649_42386)"><rect x="69.022" y="88" width="34.117" height="12.871" rx="6.436" fill="#fff"/><path d="M78.836 94.75H76.54v1.722h2.685v.776h-3.657v-5.594h3.63v.784H76.54v1.544h2.297v.769zm1.967-1.659l.027.434c.292-.34.692-.51 1.199-.51.556 0 .936.212 1.141.637.302-.425.727-.638 1.276-.638.458 0 .799.127 1.022.38.225.254.34.628.345 1.122v2.732h-.933v-2.705c0-.264-.058-.457-.173-.58-.115-.123-.306-.184-.573-.184a.78.78 0 00-.522.173.896.896 0 00-.28.445l.003 2.851h-.933v-2.736c-.013-.489-.263-.733-.75-.733-.374 0-.639.152-.795.457v3.012h-.933v-4.157h.88zm8.453 4.157a1.438 1.438 0 01-.108-.388c-.297.31-.66.465-1.09.465-.418 0-.759-.12-1.023-.357a1.143 1.143 0 01-.396-.884c0-.443.164-.783.492-1.018.33-.238.802-.358 1.414-.358h.573v-.272c0-.216-.06-.387-.181-.515-.12-.13-.304-.196-.55-.196a.816.816 0 00-.522.161.488.488 0 00-.204.404h-.933c0-.228.075-.44.227-.638.15-.2.356-.356.614-.469a2.18 2.18 0 01.872-.169c.487 0 .875.123 1.165.369.289.243.438.587.445 1.03v1.874c0 .374.053.673.158.896v.065h-.953zm-1.026-.672c.184 0 .357-.045.519-.135a.895.895 0 00.369-.36v-.785h-.504c-.346 0-.606.06-.78.18a.585.585 0 00-.261.512c0 .18.059.323.177.43.12.105.28.158.48.158zm3.792.672h-.934v-4.157h.934v4.157zm-.991-5.237a.5.5 0 01.134-.357c.093-.095.223-.142.392-.142.17 0 .3.047.392.142a.492.492 0 01.138.357c0 .141-.046.26-.138.354-.092.092-.223.138-.392.138s-.3-.046-.392-.138a.494.494 0 01-.134-.354zm3.004 5.237h-.933v-5.901h.933v5.901zm3.35-1.13a.422.422 0 00-.207-.38c-.136-.087-.362-.164-.68-.23a3.504 3.504 0 01-.795-.254c-.466-.225-.7-.552-.7-.98 0-.358.152-.658.454-.899.302-.24.686-.36 1.153-.36.496 0 .897.122 1.202.368.307.246.461.565.461.957h-.933a.57.57 0 00-.2-.446c-.133-.12-.31-.18-.53-.18a.836.836 0 00-.504.142.45.45 0 00-.192.38c0 .143.06.255.18.334.121.08.364.16.73.242.367.08.654.176.861.288.21.11.365.244.465.4.103.156.154.346.154.569 0 .373-.155.677-.465.91-.31.23-.716.346-1.218.346a2.15 2.15 0 01-.91-.184 1.498 1.498 0 01-.623-.508 1.2 1.2 0 01-.223-.695h.907c.013.22.096.39.25.51.153.119.357.178.61.178.246 0 .433-.047.561-.139a.439.439 0 00.193-.368z" fill="#333945"/></g><g filter="url(#filter1_dd_5649_42386)"><rect x="415.434" y="88" width="38.218" height="13.489" rx="6.744" fill="#fff"/><path d="M422.649 95.093h-1.083v2.155h-.972v-5.594h1.967c.645 0 1.144.145 1.494.434.351.29.527.708.527 1.257 0 .374-.091.687-.273.94-.179.252-.43.445-.753.581l1.256 2.332v.05h-1.041l-1.122-2.155zm-1.083-.78h.999c.328 0 .584-.082.768-.246.185-.167.277-.393.277-.68 0-.3-.086-.532-.258-.696-.169-.163-.422-.248-.76-.253h-1.026v1.875zm5.678 3.012c-.591 0-1.072-.186-1.44-.557-.367-.374-.55-.871-.55-1.49v-.116c0-.415.08-.785.238-1.11a1.84 1.84 0 01.677-.765 1.78 1.78 0 01.968-.273c.566 0 1.003.18 1.31.542.31.361.465.872.465 1.533v.376h-2.717c.029.344.143.615.342.815.203.2.456.3.761.3.428 0 .776-.173 1.045-.52l.504.481c-.167.249-.39.442-.669.58a2.094 2.094 0 01-.934.204zm-.111-3.562a.79.79 0 00-.622.27c-.157.179-.257.428-.3.748h1.779v-.069c-.021-.312-.104-.548-.25-.707-.146-.161-.348-.242-.607-.242zm6.159 2.198l.661-2.87h.91l-1.133 4.157h-.769l-.891-2.855-.876 2.855h-.768l-1.138-4.157h.911l.672 2.84.853-2.84h.703l.865 2.87zm3.189 1.287h-.934v-4.157h.934v4.157zm-.992-5.237c0-.143.045-.262.135-.357.092-.095.223-.142.392-.142s.299.047.392.142a.492.492 0 01.138.357c0 .141-.046.26-.138.354-.093.092-.223.138-.392.138s-.3-.046-.392-.138a.493.493 0 01-.135-.354zm3.842 5.314c-.591 0-1.072-.186-1.44-.557-.367-.374-.55-.871-.55-1.49v-.116c0-.415.08-.785.238-1.11a1.84 1.84 0 01.677-.765 1.78 1.78 0 01.968-.273c.566 0 1.003.18 1.31.542.31.361.465.872.465 1.533v.376h-2.716c.028.344.142.615.341.815.203.2.456.3.761.3.428 0 .776-.173 1.045-.52l.504.481c-.167.249-.39.442-.669.58a2.094 2.094 0 01-.934.204zm-.111-3.562a.79.79 0 00-.622.27c-.157.179-.257.428-.3.748h1.779v-.069c-.021-.312-.104-.548-.25-.707-.146-.161-.348-.242-.607-.242zm3.919 2.302l.88-2.974h.964l-1.441 4.157h-.81l-1.453-4.157h.969l.891 2.974zm4.76.053a.423.423 0 00-.207-.38c-.136-.087-.363-.164-.68-.23a3.51 3.51 0 01-.796-.254c-.466-.225-.699-.552-.699-.98 0-.358.151-.658.453-.899.303-.24.687-.36 1.153-.36.497 0 .898.122 1.203.368.307.246.461.565.461.957h-.934a.57.57 0 00-.2-.446c-.133-.12-.31-.18-.53-.18a.834.834 0 00-.503.142.45.45 0 00-.192.38c0 .143.06.255.18.334.121.08.364.16.73.242.366.08.653.176.861.288.21.11.365.244.465.4.102.156.153.346.153.569 0 .373-.155.677-.464.91-.31.23-.716.346-1.218.346a2.15 2.15 0 01-.911-.184 1.496 1.496 0 01-.622-.508 1.197 1.197 0 01-.223-.695h.906c.013.22.097.39.25.51.154.119.358.178.611.178.246 0 .433-.047.561-.139a.439.439 0 00.192-.368z" fill="#333945"/></g><path d="M451.183 225.194h-.613v-4.061l-1.228.452v-.554l1.745-.655h.096v4.818zm1.139-26.978h-3.141v-.438l1.659-1.844c.246-.279.415-.505.508-.679.094-.175.141-.357.141-.543a.863.863 0 00-.227-.616c-.152-.16-.353-.24-.606-.24-.303 0-.539.086-.708.26-.167.171-.25.41-.25.718h-.61c0-.442.142-.798.425-1.071.286-.272.667-.408 1.143-.408.446 0 .798.118 1.057.352.259.233.389.544.389.932 0 .472-.301 1.034-.903 1.687l-1.284 1.393h2.407v.497zm-2.255-29.672h.457c.288-.004.514-.08.679-.227a.761.761 0 00.247-.596c0-.562-.28-.843-.84-.843-.264 0-.474.076-.632.227-.156.15-.234.348-.234.596h-.609c0-.379.138-.694.415-.945.278-.252.632-.378 1.06-.378.452 0 .807.119 1.064.359.256.239.385.571.385.997 0 .209-.068.411-.204.606a1.204 1.204 0 01-.55.438c.263.084.466.222.609.415.145.193.217.429.217.708 0 .431-.14.772-.421 1.024-.281.253-.647.379-1.097.379-.45 0-.816-.122-1.1-.365-.281-.244-.421-.566-.421-.965h.612c0 .252.083.454.247.606.165.151.386.227.662.227.294 0 .519-.077.675-.231.156-.153.234-.374.234-.662 0-.278-.085-.492-.257-.642-.171-.149-.418-.226-.741-.23h-.457v-.498zm1.686-25.894h.665v.498h-.665v1.113h-.613v-1.113h-2.183v-.359l2.147-3.323h.649v3.184zm-2.105 0h1.492v-2.351l-.072.132-1.42 2.219zm-.187-27.771l.243-2.391h2.457v.563h-1.94l-.145 1.307c.235-.138.502-.207.801-.207.437 0 .783.145 1.04.435.257.287.386.677.386 1.169 0 .494-.134.883-.402 1.169-.266.283-.638.425-1.117.425-.423 0-.769-.118-1.037-.353-.268-.235-.42-.56-.458-.975h.577c.037.275.135.482.293.623.158.138.366.207.625.207.284 0 .505-.096.666-.289.162-.194.243-.46.243-.801 0-.32-.087-.577-.263-.77-.174-.196-.405-.293-.695-.293-.266 0-.474.058-.626.174l-.161.132-.487-.125zm2.726 134.685c0 .713-.121 1.244-.365 1.59-.244.347-.625.521-1.143.521-.511 0-.89-.169-1.136-.507-.246-.341-.373-.848-.382-1.522v-.813c0-.705.122-1.229.365-1.571.244-.343.626-.514 1.147-.514.515 0 .895.166 1.139.497.244.33.369.839.375 1.528v.791zm-.609-.833c0-.516-.072-.892-.217-1.127-.145-.237-.375-.355-.688-.355-.312 0-.539.117-.682.352-.143.235-.216.596-.221 1.084v.974c0 .518.075.902.224 1.15.152.246.38.368.685.368.301 0 .524-.116.669-.349.147-.232.224-.599.23-1.1v-.997z" fill="#79808D"/><path d="M78.401 238.022c23.248-20.046 56.381-59.857 103.574-59.857 58.992 0 70.047 18.828 97.945 18.828 27.897 0 44.652-18.828 74.584-18.828 29.932 0 48.245 46.087 89.22 46.087" stroke="#3498DB" stroke-width="4.172" stroke-linecap="round" stroke-linejoin="round"/><path d="M91.281 225c0-.949.77-1.719 1.719-1.719h2c.95 0 1.719.77 1.719 1.719v24.719h-5.438V225zm75 0c0-.949.77-1.719 1.719-1.719h2c.949 0 1.719.77 1.719 1.719v24.719h-5.438V225zm64-27c0-.949.77-1.719 1.719-1.719h2c.949 0 1.719.77 1.719 1.719v24.719h-5.438V198zm161 27c0-.949.77-1.719 1.719-1.719h2c.949 0 1.719.77 1.719 1.719v24.719h-5.438V225z" fill="#E74C3C" stroke="#fff" stroke-width=".562"/><path d="M81.281 225c0-.949.77-1.719 1.719-1.719h2c.95 0 1.719.77 1.719 1.719v24.719h-5.438V225zm46 0c0-.949.77-1.719 1.719-1.719h2c.949 0 1.719.77 1.719 1.719v24.719h-5.438V225zm11 0c0-.949.77-1.719 1.719-1.719h2c.949 0 1.719.77 1.719 1.719v24.719h-5.438V225zm92-1c0-.949.77-1.719 1.719-1.719h2c.949 0 1.719.77 1.719 1.719v25.719h-5.438V224zm153 1c0-.949.77-1.719 1.719-1.719h2c.949 0 1.719.77 1.719 1.719v24.719h-5.438V225zm-101-1c0-.949.77-1.719 1.719-1.719h2c.949 0 1.719.77 1.719 1.719v25.719h-5.438V224zm13 0c0-.949.77-1.719 1.719-1.719h2c.949 0 1.719.77 1.719 1.719v25.719h-5.438V224zm-27-26c0-.949.77-1.719 1.719-1.719h2c.949 0 1.719.77 1.719 1.719v51.719h-5.438V198z" fill="#9FBD55" stroke="#fff" stroke-width=".562"/><path opacity=".5" d="M77.839 250.106h366.466" stroke="#333945" stroke-width=".562"/><path d="M234.084 301.992a2.249 2.249 0 012.248-2.248h8.993a2.249 2.249 0 012.248 2.248v8.993a2.249 2.249 0 01-2.248 2.248h-8.993a2.249 2.249 0 01-2.248-2.248v-8.993z" fill="#9FBD55"/><path d="M297.594 301.992a2.248 2.248 0 012.248-2.248h8.992a2.249 2.249 0 012.249 2.248v8.993a2.249 2.249 0 01-2.249 2.248h-8.992a2.248 2.248 0 01-2.248-2.248v-8.993z" fill="#E74C3C"/><path d="M403.818 301.992a2.249 2.249 0 012.248-2.248h8.993a2.248 2.248 0 012.248 2.248v8.993a2.248 2.248 0 01-2.248 2.248h-8.993a2.249 2.249 0 01-2.248-2.248v-8.993z" fill="#3498DB"/><path d="M426.159 306.913h-2.77v2.265h3.218v.69h-4.061v-6.393h4.017v.693h-3.174v2.055h2.77v.69zm2.134-1.796l.022.527c.349-.41.819-.615 1.41-.615.664 0 1.117.255 1.357.764.158-.228.363-.413.614-.553.255-.141.555-.211.901-.211 1.042 0 1.571.552 1.589 1.655v3.184h-.812v-3.135c0-.34-.078-.593-.233-.76-.155-.17-.416-.255-.782-.255-.301 0-.551.091-.75.273-.199.178-.315.42-.347.724v3.153h-.817v-3.113c0-.691-.338-1.037-1.014-1.037-.533 0-.898.227-1.094.681v3.469h-.812v-4.751h.768zm10.056 4.751c-.047-.094-.085-.261-.115-.501a1.811 1.811 0 01-1.352.588c-.468 0-.853-.131-1.155-.395a1.296 1.296 0 01-.448-1.01c0-.494.188-.878.562-1.15.378-.275.908-.413 1.59-.413h.79v-.373c0-.284-.085-.509-.254-.676-.17-.17-.42-.255-.751-.255-.29 0-.533.073-.729.22-.196.146-.294.323-.294.531h-.817c0-.237.083-.465.25-.685.17-.222.398-.398.685-.527a2.32 2.32 0 01.953-.193c.547 0 .976.137 1.287.413.31.272.471.648.483 1.128v2.187c0 .436.055.783.166 1.04v.071h-.851zm-1.348-.619c.254 0 .496-.066.724-.198.228-.132.394-.303.496-.514v-.975h-.636c-.996 0-1.493.292-1.493.874 0 .255.085.454.254.597.17.144.388.216.655.216zm4.189.619h-.813v-4.751h.813v4.751zm-.879-6.011c0-.132.04-.243.119-.334.082-.091.202-.136.36-.136.158 0 .278.045.36.136a.48.48 0 01.123.334.465.465 0 01-.123.329c-.082.088-.202.132-.36.132-.158 0-.278-.044-.36-.132a.475.475 0 01-.119-.329zm3.065 6.011h-.812v-6.745h.812v6.745zm-122.141 0h-.848l-3.218-4.927v4.927h-.848v-6.393h.848l3.227 4.948v-4.948h.839v6.393zm3.341.087c-.644 0-1.168-.21-1.572-.632-.404-.424-.606-.991-.606-1.699v-.149c0-.472.089-.892.268-1.261a2.11 2.11 0 01.755-.869 1.898 1.898 0 011.054-.316c.618 0 1.098.203 1.44.61.343.407.514.99.514 1.748v.338h-3.219c.012.468.148.847.409 1.137.263.287.597.43 1.001.43.287 0 .53-.058.729-.175.199-.117.373-.272.522-.466l.497.387c-.399.612-.996.917-1.792.917zm-.101-4.259c-.328 0-.603.12-.825.36-.223.237-.36.571-.413 1.002h2.38v-.062c-.024-.413-.135-.732-.334-.957-.199-.229-.468-.343-.808-.343zm5.831 3.702c-.316.372-.78.557-1.392.557-.506 0-.893-.146-1.159-.439-.263-.295-.397-.731-.4-1.308v-3.091h.813v3.069c0 .72.293 1.08.878 1.08.621 0 1.033-.231 1.238-.694v-3.455h.813v4.751h-.773l-.018-.47zm3.131-5.432v1.151h.887v.628h-.887v2.946c0 .19.039.334.118.43.079.094.214.141.404.141.094 0 .223-.018.387-.053v.659a2.38 2.38 0 01-.624.087c-.363 0-.636-.109-.821-.329-.184-.219-.276-.531-.276-.935v-2.946h-.865v-.628h.865v-1.151h.812zm4.136 1.88a2.376 2.376 0 00-.399-.031c-.533 0-.895.227-1.085.68v3.373h-.812v-4.751h.79l.013.549c.267-.425.644-.637 1.133-.637a.83.83 0 01.36.061v.756zm3.508 4.022c-.046-.094-.084-.261-.114-.501a1.811 1.811 0 01-1.352.588c-.468 0-.853-.131-1.155-.395a1.293 1.293 0 01-.448-1.01c0-.494.188-.878.562-1.15.378-.275.908-.413 1.59-.413h.79v-.373c0-.284-.085-.509-.255-.676-.169-.17-.42-.255-.75-.255-.29 0-.533.073-.729.22-.196.146-.295.323-.295.531h-.816c0-.237.083-.465.25-.685.17-.222.398-.398.685-.527.29-.129.607-.193.953-.193.547 0 .976.137 1.286.413.311.272.472.648.483 1.128v2.187c0 .436.056.783.167 1.04v.071h-.852zm-1.348-.619c.255 0 .497-.066.725-.198.228-.132.394-.303.496-.514v-.975h-.637c-.995 0-1.492.292-1.492.874 0 .255.084.454.254.597.17.144.388.216.654.216zm4.189.619h-.812v-6.745h.812v6.745zm3.364-1.717c0-.308.085-.59.254-.848.173-.257.501-.557.984-.9-.284-.345-.474-.623-.571-.834a1.507 1.507 0 01-.145-.628c0-.486.144-.866.431-1.142.286-.275.676-.412 1.168-.412.439 0 .802.129 1.089.386.286.255.43.577.43.966 0 .258-.066.496-.198.716-.129.216-.355.445-.68.685l-.47.347 1.422 1.699c.2-.381.299-.804.299-1.269h.733c0 .746-.18 1.366-.54 1.857l.914 1.094h-.975l-.426-.505a2.246 2.246 0 01-.764.443c-.29.1-.586.149-.887.149-.624 0-1.124-.165-1.502-.496-.377-.33-.566-.767-.566-1.308zm2.068 1.141c.43 0 .824-.163 1.181-.491l-1.559-1.866-.145.105c-.488.36-.733.73-.733 1.111 0 .345.111.622.334.83.225.208.533.311.922.311zm-.733-4.377c0 .281.172.632.518 1.054l.518-.365c.199-.14.335-.274.408-.399a.931.931 0 00.11-.466.62.62 0 00-.22-.487.793.793 0 00-.553-.198c-.24 0-.43.082-.571.246a.903.903 0 00-.21.615zm11.701 4.953h-.847l-3.219-4.927v4.927h-.847v-6.393h.847l3.228 4.948v-4.948h.838v6.393zm3.342.087c-.644 0-1.168-.21-1.572-.632-.404-.424-.606-.991-.606-1.699v-.149c0-.472.089-.892.268-1.261a2.11 2.11 0 01.755-.869 1.898 1.898 0 011.054-.316c.617 0 1.098.203 1.44.61.343.407.514.99.514 1.748v.338h-3.219c.012.468.148.847.409 1.137.263.287.597.43 1.001.43.287 0 .53-.058.729-.175.199-.117.373-.272.522-.466l.496.387c-.398.612-.995.917-1.791.917zm-.101-4.259c-.328 0-.603.12-.826.36-.222.237-.36.571-.412 1.002h2.379v-.062c-.023-.413-.134-.732-.333-.957-.199-.229-.469-.343-.808-.343zm2.705 1.757c0-.741.171-1.329.513-1.765.343-.44.797-.659 1.362-.659.579 0 1.031.205 1.356.615l.04-.527h.742v4.637c0 .614-.183 1.099-.549 1.453-.363.354-.852.531-1.467.531-.342 0-.677-.073-1.005-.219a1.735 1.735 0 01-.751-.602l.422-.487c.348.43.774.645 1.277.645.396 0 .703-.111.922-.334.223-.222.334-.535.334-.939v-.409c-.325.375-.768.562-1.33.562-.556 0-1.007-.223-1.353-.671-.342-.448-.513-1.059-.513-1.831zm.816.092c0 .536.11.957.33 1.264.219.305.527.457.922.457.512 0 .888-.233 1.128-.698v-2.169c-.249-.454-.622-.681-1.119-.681-.396 0-.705.154-.927.461-.222.308-.334.763-.334 1.366zm7.359 2.323c-.046-.094-.084-.261-.114-.501a1.811 1.811 0 01-1.352.588c-.468 0-.853-.131-1.155-.395a1.296 1.296 0 01-.448-1.01c0-.494.188-.878.562-1.15.378-.275.908-.413 1.59-.413h.79v-.373c0-.284-.085-.509-.255-.676-.169-.17-.42-.255-.75-.255-.29 0-.533.073-.729.22-.196.146-.294.323-.294.531h-.817c0-.237.083-.465.25-.685.17-.222.398-.398.685-.527.29-.129.607-.193.953-.193.547 0 .976.137 1.286.413.311.272.472.648.483 1.128v2.187c0 .436.056.783.167 1.04v.071h-.852zm-1.348-.619c.255 0 .497-.066.725-.198.228-.132.394-.303.496-.514v-.975h-.637c-.995 0-1.492.292-1.492.874 0 .255.084.454.254.597.17.144.388.216.654.216zm4.409-5.283v1.151h.887v.628h-.887v2.946c0 .19.039.334.118.43.08.094.214.141.404.141.094 0 .223-.018.387-.053v.659a2.38 2.38 0 01-.624.087c-.363 0-.636-.109-.821-.329-.184-.219-.276-.531-.276-.935v-2.946h-.865v-.628h.865v-1.151h.812zm2.722 5.902h-.812v-4.751h.812v4.751zm-.878-6.011c0-.132.04-.243.119-.334.082-.091.202-.136.36-.136.158 0 .278.045.36.136a.48.48 0 01.123.334.465.465 0 01-.123.329c-.082.088-.202.132-.36.132-.158 0-.278-.044-.36-.132a.475.475 0 01-.119-.329zm3.75 4.909l1.177-3.649h.83l-1.704 4.751h-.619l-1.721-4.751h.829l1.208 3.649zm4.698 1.189c-.644 0-1.168-.21-1.572-.632-.404-.424-.606-.991-.606-1.699v-.149c0-.472.09-.892.268-1.261.182-.371.433-.661.755-.869a1.9 1.9 0 011.054-.316c.618 0 1.098.203 1.44.61.343.407.514.99.514 1.748v.338h-3.218c.011.468.147.847.408 1.137.263.287.597.43 1.001.43.287 0 .53-.058.729-.175.199-.117.373-.272.522-.466l.497.387c-.398.612-.996.917-1.792.917zm-.101-4.259c-.328 0-.603.12-.825.36-.223.237-.36.571-.413 1.002h2.38v-.062c-.024-.413-.135-.732-.334-.957-.199-.229-.468-.343-.808-.343zm-134.041 1.669v2.503h-.843v-6.393h2.358c.7 0 1.247.178 1.643.535.398.357.597.83.597 1.418 0 .621-.195 1.1-.584 1.436-.387.334-.941.501-1.664.501h-1.507zm0-.69h1.515c.451 0 .797-.105 1.037-.316.24-.213.36-.521.36-.922 0-.38-.12-.685-.36-.913-.24-.228-.57-.347-.988-.356h-1.564v2.507zm4.426.773c0-.465.091-.884.273-1.256.184-.371.439-.658.764-.86a2.09 2.09 0 011.119-.303c.647 0 1.17.224 1.568.672.401.448.602 1.043.602 1.787v.057c0 .462-.09.878-.268 1.247a2.002 2.002 0 01-.76.856 2.09 2.09 0 01-1.133.307c-.644 0-1.166-.223-1.567-.671-.398-.448-.598-1.041-.598-1.779v-.057zm.817.097c0 .527.122.95.365 1.269.246.319.573.478.983.478.413 0 .741-.161.984-.483.243-.324.364-.778.364-1.361 0-.521-.124-.942-.373-1.264a1.173 1.173 0 00-.984-.488c-.401 0-.724.16-.97.479-.246.319-.369.776-.369 1.37zm7.293 1.062a.59.59 0 00-.25-.509c-.164-.123-.452-.228-.865-.316-.41-.088-.736-.193-.979-.316a1.415 1.415 0 01-.536-.439 1.062 1.062 0 01-.171-.606c0-.39.164-.719.492-.988.331-.269.752-.404 1.264-.404.539 0 .975.139 1.309.417.337.278.505.634.505 1.067h-.817c0-.222-.095-.414-.285-.575a1.056 1.056 0 00-.712-.242c-.295 0-.526.065-.693.194a.607.607 0 00-.251.504c0 .197.078.344.233.444.155.099.435.195.839.285.407.091.736.199.988.325.251.126.437.278.557.457.123.176.185.391.185.645 0 .425-.17.766-.51 1.023-.339.255-.78.382-1.321.382-.381 0-.717-.067-1.01-.201a1.663 1.663 0 01-.69-.563 1.38 1.38 0 01-.245-.785h.812a.85.85 0 00.325.649c.205.158.474.237.808.237.307 0 .553-.061.737-.184a.577.577 0 00.281-.501zm2.754 1.261h-.813v-4.751h.813v4.751zm-.879-6.011c0-.132.04-.243.119-.334.082-.091.202-.136.36-.136.158 0 .278.045.36.136a.48.48 0 01.123.334.465.465 0 01-.123.329c-.082.088-.202.132-.36.132-.158 0-.278-.044-.36-.132a.475.475 0 01-.119-.329zm3.285.109v1.151h.887v.628h-.887v2.946c0 .19.039.334.118.43.079.094.214.141.404.141.094 0 .223-.018.387-.053v.659a2.38 2.38 0 01-.624.087c-.363 0-.637-.109-.821-.329-.184-.219-.277-.531-.277-.935v-2.946h-.865v-.628h.865v-1.151h.813zm2.722 5.902h-.812v-4.751h.812v4.751zm-.878-6.011a.49.49 0 01.118-.334c.082-.091.202-.136.361-.136.158 0 .278.045.36.136a.48.48 0 01.123.334.465.465 0 01-.123.329c-.082.088-.202.132-.36.132-.159 0-.279-.044-.361-.132a.474.474 0 01-.118-.329zm3.75 4.909l1.177-3.649h.829l-1.703 4.751h-.619l-1.722-4.751h.83l1.208 3.649zm4.698 1.189c-.644 0-1.168-.21-1.572-.632-.404-.424-.606-.991-.606-1.699v-.149c0-.472.089-.892.268-1.261a2.11 2.11 0 01.755-.869 1.898 1.898 0 011.054-.316c.618 0 1.098.203 1.44.61.343.407.514.99.514 1.748v.338h-3.219c.012.468.148.847.409 1.137.263.287.597.43 1.001.43.287 0 .53-.058.729-.175.199-.117.373-.272.522-.466l.497.387c-.399.612-.996.917-1.792.917zm-.101-4.259c-.328 0-.603.12-.825.36-.223.237-.361.571-.413 1.002h2.38v-.062c-.024-.413-.135-.732-.334-.957-.199-.229-.468-.343-.808-.343z" fill="#79808D"/><path d="M58.565 26.704h-3.938v2.95h4.603v1.331h-6.27v-9.59h6.224v1.344h-4.557v2.648h3.938v1.317zm4.182-5.308l2.767 7.35 2.76-7.35h2.153v9.59h-1.66v-3.162l.165-4.229-2.832 7.39h-1.192l-2.826-7.383.165 4.222v3.161h-1.66v-9.59h2.16zm15.142 7.357h-3.714l-.777 2.232h-1.733l3.623-9.59h1.495l3.629 9.59h-1.739l-.784-2.232zm-3.247-1.344h2.78l-1.39-3.978-1.39 3.978zm8.622 3.576h-1.66v-9.59h1.66v9.59zm3.715-1.33h4.353v1.33h-6.02v-9.59h1.667v8.26zm10.643-1.14c0-.421-.15-.746-.448-.974-.294-.229-.827-.46-1.6-.692-.773-.233-1.388-.492-1.844-.777-.874-.549-1.311-1.265-1.311-2.147 0-.773.314-1.41.942-1.91.632-.5 1.451-.751 2.456-.751.668 0 1.263.123 1.785.369a2.92 2.92 0 011.232 1.054c.299.452.448.955.448 1.508h-1.66c0-.5-.158-.892-.474-1.172-.312-.286-.76-.429-1.344-.429-.544 0-.968.117-1.27.35-.3.232-.449.557-.449.974 0 .352.163.646.488.883.325.233.86.46 1.607.685.746.22 1.345.472 1.798.757.452.281.784.606.994.975.211.364.317.793.317 1.284 0 .8-.308 1.436-.923 1.91-.61.47-1.44.705-2.49.705a4.744 4.744 0 01-1.916-.382c-.58-.259-1.032-.615-1.357-1.067-.32-.452-.48-.98-.48-1.58h1.666c0 .544.18.965.54 1.264.36.299.876.448 1.548.448.58 0 1.014-.117 1.304-.35a1.14 1.14 0 00.441-.934zm11.856.238h-3.715l-.777 2.232h-1.733l3.623-9.59h1.495l3.629 9.59h-1.739l-.783-2.232zm-3.248-1.344h2.78l-1.39-3.978-1.39 3.978zm14.471 3.576h-1.667l-4.274-6.803v6.803h-1.667v-9.59h1.667l4.288 6.83v-6.83h1.653v9.59zm1.969 0v-9.59h2.832c.848 0 1.598.19 2.253.567a3.86 3.86 0 011.528 1.607c.36.694.54 1.489.54 2.384v.481c0 .91-.182 1.708-.547 2.398a3.788 3.788 0 01-1.548 1.593c-.667.374-1.433.56-2.298.56h-2.76zm1.666-8.246v6.916h1.087c.874 0 1.543-.272 2.009-.817.47-.549.709-1.335.718-2.358v-.533c0-1.04-.226-1.836-.679-2.384-.452-.55-1.108-.824-1.969-.824h-1.166zm14.029 4.551h-1.857v3.695h-1.666v-9.59h3.372c1.106 0 1.96.249 2.562.745.601.496.902 1.214.902 2.154 0 .64-.156 1.179-.467 1.613-.308.43-.738.762-1.291.995l2.153 3.998v.085h-1.785l-1.923-3.695zm-1.857-1.337h1.712c.562 0 1.001-.14 1.318-.421.316-.285.474-.674.474-1.166 0-.514-.147-.911-.441-1.192-.29-.281-.725-.426-1.305-.435h-1.758v3.214zm12.356.751h-3.939v2.95h4.604v1.331h-6.27v-9.59h6.224v1.344h-4.558v2.648h3.939v1.317zm5.401 2.194l2.437-7.502h1.831l-3.452 9.59h-1.613l-3.438-9.59h1.824l2.411 7.502zm7.113 2.087h-1.66v-9.59h1.66v9.59zm7.653-4.28h-3.938v2.95h4.604v1.33h-6.271v-9.59h6.224v1.344h-4.557v2.648h3.938v1.317zm9.544 1.91l1.475-7.22h1.653l-2.213 9.59h-1.594l-1.824-7-1.864 7h-1.6l-2.213-9.59h1.653l1.488 7.206 1.831-7.205h1.397l1.811 7.218zm9.359-.1c0-.421-.149-.746-.448-.974-.294-.229-.827-.46-1.6-.692-.773-.233-1.388-.492-1.844-.777-.874-.549-1.311-1.265-1.311-2.147 0-.773.314-1.41.942-1.91.632-.5 1.451-.751 2.456-.751.668 0 1.263.123 1.785.369a2.92 2.92 0 011.232 1.054c.299.452.448.955.448 1.508h-1.66c0-.5-.158-.892-.474-1.172-.312-.286-.76-.429-1.344-.429-.544 0-.968.117-1.271.35-.298.232-.448.557-.448.974 0 .352.163.646.488.883.325.233.86.46 1.607.685.746.22 1.345.472 1.798.757.452.281.784.606.994.975.211.364.316.793.316 1.284 0 .8-.307 1.436-.922 1.91-.61.47-1.44.705-2.489.705a4.745 4.745 0 01-1.917-.382c-.58-.259-1.032-.615-1.357-1.067-.32-.452-.481-.98-.481-1.58h1.667c0 .544.18.965.54 1.264.36.299.876.448 1.548.448.579 0 1.014-.117 1.304-.35a1.14 1.14 0 00.441-.934z" fill="#555A64"/><g filter="url(#filter2_dd_5649_42386)"><rect x="342.345" y="18.273" width="50.022" height="41.592" rx="2.248" fill="#fff"/><path d="M350.048 24.777l2.612 6.52 2.613-6.52h1.367v7.992h-1.054v-3.112l.099-3.36-2.624 6.472h-.807l-2.618-6.455.104 3.343v3.112h-1.053v-7.992h1.361zm14.599 4.254c0 .783-.131 1.467-.395 2.053-.263.581-.636 1.026-1.119 1.333-.483.308-1.047.461-1.691.461-.629 0-1.187-.153-1.674-.46-.487-.312-.865-.753-1.136-1.323-.267-.575-.404-1.24-.412-1.993v-.576c0-.769.134-1.447.401-2.036.267-.59.644-1.04 1.131-1.35a3.04 3.04 0 011.679-.473c.64 0 1.204.156 1.691.467.49.307.867.756 1.13 1.345.264.585.395 1.268.395 2.047v.505zm-1.048-.516c0-.948-.19-1.674-.571-2.18-.38-.508-.913-.762-1.597-.762-.666 0-1.191.254-1.575.763-.381.505-.576 1.207-.587 2.108v.587c0 .918.192 1.64.576 2.168.388.523.92.785 1.597.785.681 0 1.208-.247 1.581-.741.373-.498.565-1.21.576-2.135v-.593zm8.771 4.254h-1.059l-4.024-6.159v6.159h-1.059v-7.992h1.059l4.035 6.186v-6.186h1.048v7.992zm7.228-7.125h-2.568v7.125h-1.049v-7.125h-2.563v-.867h6.18v.867zm7.328 7.125h-1.06v-3.694h-4.028v3.694h-1.054v-7.992h1.054v3.436h4.028v-3.436h1.06v7.992z" fill="#79808D"/><path d="M347.763 48.235l.325-3.188h3.275v.751h-2.586l-.193 1.743a2.063 2.063 0 011.067-.276c.583 0 1.045.193 1.388.58.342.383.513.902.513 1.558 0 .659-.178 1.178-.535 1.559-.355.377-.851.566-1.489.566-.565 0-1.026-.156-1.383-.47-.357-.313-.561-.746-.61-1.3h.768c.05.367.18.643.391.83.211.185.489.277.834.277.378 0 .673-.129.887-.386.217-.258.325-.613.325-1.067 0-.428-.117-.77-.351-1.028-.232-.26-.54-.39-.927-.39-.354 0-.632.077-.834.232l-.215.176-.65-.167zm8.106 1.058h.886v.663h-.886v1.484h-.817v-1.484h-2.911v-.478l2.862-4.43h.866v4.245zm-2.806 0h1.989v-3.135l-.097.176-1.892 2.96z" fill="#333945"/><path d="M361.735 42.441c0-1.086.881-1.967 1.967-1.967H374.1v14.613h-10.398a1.967 1.967 0 01-1.967-1.967V42.44z" fill="#9FBD55"/><path d="M370.367 46.716c0 .32-.084.603-.254.852a1.702 1.702 0 01-.681.584c.334.144.597.353.791.628.196.275.294.587.294.935 0 .553-.188.994-.562 1.322-.372.328-.862.492-1.471.492-.615 0-1.108-.164-1.48-.492-.369-.33-.553-.771-.553-1.322 0-.345.093-.657.281-.935a1.77 1.77 0 01.786-.632 1.676 1.676 0 01-.672-.584 1.505 1.505 0 01-.246-.848c0-.538.173-.966.518-1.282.346-.316.801-.474 1.366-.474.562 0 1.016.158 1.361.474.348.316.522.744.522 1.282zm-.663 2.982c0-.357-.114-.649-.342-.874-.225-.225-.521-.338-.887-.338s-.66.111-.883.334c-.219.222-.329.515-.329.878s.107.648.321.856c.216.208.516.312.9.312.38 0 .679-.104.895-.312.217-.21.325-.496.325-.856zm-1.22-4.07c-.319 0-.578.099-.777.298-.197.196-.295.464-.295.803 0 .325.097.589.29.79.196.2.457.3.782.3s.584-.1.777-.3c.196-.201.294-.465.294-.79 0-.324-.101-.59-.303-.794a1.033 1.033 0 00-.768-.308z" fill="#fff"/><path d="M361.735 42.441c0-1.086.881-1.967 1.967-1.967H374.1v14.613h-10.398a1.967 1.967 0 01-1.967-1.967V42.44z" stroke="#fff" stroke-width=".562"/><path d="M374.1 40.473h11.522c1.086 0 1.967.88 1.967 1.967v10.679a1.967 1.967 0 01-1.967 1.967H374.1V40.473z" fill="#E74C3C"/><path d="M382.983 45.503l-2.648 5.937h-.852l2.639-5.726h-3.46v-.667h4.321v.456z" fill="#fff"/><path d="M374.1 40.473h11.522c1.086 0 1.967.88 1.967 1.967v10.679a1.967 1.967 0 01-1.967 1.967H374.1V40.473z" stroke="#fff" stroke-width=".562"/></g><g filter="url(#filter3_dd_5649_42386)"><rect x="401.357" y="18.273" width="50.021" height="41.592" rx="2.248" fill="#fff"/><path d="M419.73 30.25l.154 1.053.225-.95 1.58-5.576h.889l1.543 5.577.219.966.17-1.076 1.241-5.467h1.059l-1.937 7.992h-.961l-1.646-5.824-.127-.61-.126.61-1.707 5.824h-.96l-1.932-7.992h1.054l1.262 5.472zm12.772-1.175h-3.463v2.832h4.023v.862h-5.077v-7.992h5.022v.867h-3.968v2.569h3.463v.862zm6.389 0h-3.464v2.832h4.024v.862h-5.077v-7.992h5.022v.867h-3.969v2.569h3.464v.862zm3.902-.022l-.977 1.015v2.7h-1.054v-7.99h1.054v3.95l3.551-3.95h1.274l-3.145 3.528 3.392 4.463h-1.263l-2.832-3.716z" fill="#79808D"/><path d="M409.072 51.44h-.817v-5.413l-1.637.601v-.738l2.327-.873h.127v6.423zm6.569 0h-4.189v-.584l2.213-2.459c.328-.371.553-.673.676-.904a1.51 1.51 0 00.189-.724c0-.334-.101-.608-.303-.822-.202-.213-.471-.32-.808-.32-.404 0-.719.115-.944.347-.222.228-.334.547-.334.957h-.812c0-.588.189-1.064.566-1.427.381-.363.889-.544 1.524-.544.594 0 1.064.156 1.41.47.345.31.518.724.518 1.242 0 .63-.401 1.379-1.203 2.248l-1.713 1.857h3.21v.663z" fill="#333945"/><path d="M420.748 42.441c0-1.086.881-1.967 1.967-1.967h10.398v14.613h-10.398a1.967 1.967 0 01-1.967-1.967V42.44z" fill="#9FBD55"/><path d="M426.684 47.85h.61c.384-.007.685-.108.905-.304.22-.196.329-.46.329-.795 0-.749-.373-1.124-1.119-1.124-.352 0-.633.101-.843.303-.208.2-.312.464-.312.795h-.813c0-.506.185-.926.554-1.26.372-.337.843-.505 1.414-.505.603 0 1.075.16 1.418.479.342.319.514.762.514 1.33 0 .278-.091.547-.273.808a1.62 1.62 0 01-.733.584c.351.111.622.296.812.553.194.258.29.572.29.944 0 .574-.187 1.03-.562 1.366-.375.336-.862.505-1.462.505s-1.089-.163-1.467-.488c-.374-.325-.562-.753-.562-1.286h.817c0 .336.11.606.329.808.22.202.514.303.883.303.392 0 .692-.103.9-.308.208-.205.312-.499.312-.882 0-.372-.114-.657-.343-.856-.228-.2-.557-.302-.988-.308h-.61v-.663z" fill="#fff"/><path d="M420.748 42.441c0-1.086.881-1.967 1.967-1.967h10.398v14.613h-10.398a1.967 1.967 0 01-1.967-1.967V42.44z" stroke="#fff" stroke-width=".562"/><path d="M433.112 40.473h11.522c1.086 0 1.967.88 1.967 1.967v10.679a1.967 1.967 0 01-1.967 1.967h-11.522V40.473z" fill="#E74C3C"/><path d="M438.24 48.235l.325-3.188h3.276v.75h-2.586l-.193 1.744a2.06 2.06 0 011.067-.277c.582 0 1.045.193 1.387.58.343.383.514.903.514 1.559 0 .658-.179 1.178-.536 1.558-.354.378-.85.567-1.488.567-.565 0-1.026-.157-1.384-.47-.357-.313-.56-.746-.61-1.3h.769c.049.366.18.643.39.83.211.184.489.277.835.277.377 0 .673-.13.887-.387.216-.257.324-.613.324-1.067 0-.427-.117-.77-.351-1.027-.231-.26-.54-.39-.926-.39-.354 0-.633.077-.835.232l-.215.175-.65-.166z" fill="#fff"/><path d="M433.112 40.473h11.522c1.086 0 1.967.88 1.967 1.967v10.679a1.967 1.967 0 01-1.967 1.967h-11.522V40.473z" stroke="#fff" stroke-width=".562"/></g></g><defs><filter id="filter0_dd_5649_42386" x="38.022" y="66" width="96.117" height="74.871" filterUnits="userSpaceOnUse" color-interpolation-filters="sRGB"><feFlood flood-opacity="0" result="BackgroundImageFix"/><feColorMatrix in="SourceAlpha" values="0 0 0 0 0 0 0 0 0 0 0 0 0 0 0 0 0 0 127 0" result="hardAlpha"/><feOffset dy="1.127"/><feGaussianBlur stdDeviation="1.941"/><feColorMatrix values="0 0 0 0 0 0 0 0 0 0 0 0 0 0 0 0 0 0 0.035 0"/><feBlend in2="BackgroundImageFix" result="effect1_dropShadow_5649_42386"/><feColorMatrix in="SourceAlpha" values="0 0 0 0 0 0 0 0 0 0 0 0 0 0 0 0 0 0 127 0" result="hardAlpha"/><feOffset dy="9"/><feGaussianBlur stdDeviation="15.5"/><feColorMatrix values="0 0 0 0 0 0 0 0 0 0 0 0 0 0 0 0 0 0 0.07 0"/><feBlend in2="effect1_dropShadow_5649_42386" result="effect2_dropShadow_5649_42386"/><feBlend in="SourceGraphic" in2="effect2_dropShadow_5649_42386" result="shape"/></filter><filter id="filter1_dd_5649_42386" x="384.434" y="66" width="100.219" height="75.489" filterUnits="userSpaceOnUse" color-interpolation-filters="sRGB"><feFlood flood-opacity="0" result="BackgroundImageFix"/><feColorMatrix in="SourceAlpha" values="0 0 0 0 0 0 0 0 0 0 0 0 0 0 0 0 0 0 127 0" result="hardAlpha"/><feOffset dy="1.127"/><feGaussianBlur stdDeviation="1.941"/><feColorMatrix values="0 0 0 0 0 0 0 0 0 0 0 0 0 0 0 0 0 0 0.035 0"/><feBlend in2="BackgroundImageFix" result="effect1_dropShadow_5649_42386"/><feColorMatrix in="SourceAlpha" values="0 0 0 0 0 0 0 0 0 0 0 0 0 0 0 0 0 0 127 0" result="hardAlpha"/><feOffset dy="9"/><feGaussianBlur stdDeviation="15.5"/><feColorMatrix values="0 0 0 0 0 0 0 0 0 0 0 0 0 0 0 0 0 0 0.07 0"/><feBlend in2="effect1_dropShadow_5649_42386" result="effect2_dropShadow_5649_42386"/><feBlend in="SourceGraphic" in2="effect2_dropShadow_5649_42386" result="shape"/></filter><filter id="filter2_dd_5649_42386" x="311.345" y="-3.728" width="112.021" height="103.591" filterUnits="userSpaceOnUse" color-interpolation-filters="sRGB"><feFlood flood-opacity="0" result="BackgroundImageFix"/><feColorMatrix in="SourceAlpha" values="0 0 0 0 0 0 0 0 0 0 0 0 0 0 0 0 0 0 127 0" result="hardAlpha"/><feOffset dy="1.127"/><feGaussianBlur stdDeviation="1.941"/><feColorMatrix values="0 0 0 0 0 0 0 0 0 0 0 0 0 0 0 0 0 0 0.035 0"/><feBlend in2="BackgroundImageFix" result="effect1_dropShadow_5649_42386"/><feColorMatrix in="SourceAlpha" values="0 0 0 0 0 0 0 0 0 0 0 0 0 0 0 0 0 0 127 0" result="hardAlpha"/><feOffset dy="9"/><feGaussianBlur stdDeviation="15.5"/><feColorMatrix values="0 0 0 0 0 0 0 0 0 0 0 0 0 0 0 0 0 0 0.07 0"/><feBlend in2="effect1_dropShadow_5649_42386" result="effect2_dropShadow_5649_42386"/><feBlend in="SourceGraphic" in2="effect2_dropShadow_5649_42386" result="shape"/></filter><filter id="filter3_dd_5649_42386" x="370.357" y="-3.728" width="112.021" height="103.591" filterUnits="userSpaceOnUse" color-interpolation-filters="sRGB"><feFlood flood-opacity="0" result="BackgroundImageFix"/><feColorMatrix in="SourceAlpha" values="0 0 0 0 0 0 0 0 0 0 0 0 0 0 0 0 0 0 127 0" result="hardAlpha"/><feOffset dy="1.127"/><feGaussianBlur stdDeviation="1.941"/><feColorMatrix values="0 0 0 0 0 0 0 0 0 0 0 0 0 0 0 0 0 0 0.035 0"/><feBlend in2="BackgroundImageFix" result="effect1_dropShadow_5649_42386"/><feColorMatrix in="SourceAlpha" values="0 0 0 0 0 0 0 0 0 0 0 0 0 0 0 0 0 0 127 0" result="hardAlpha"/><feOffset dy="9"/><feGaussianBlur stdDeviation="15.5"/><feColorMatrix values="0 0 0 0 0 0 0 0 0 0 0 0 0 0 0 0 0 0 0.07 0"/><feBlend in2="effect1_dropShadow_5649_42386" result="effect2_dropShadow_5649_42386"/><feBlend in="SourceGraphic" in2="effect2_dropShadow_5649_42386" result="shape"/></filter><linearGradient id="paint0_linear_5649_42386" x1="530.149" y1="361.894" x2="229.017" y2="-116.238" gradientUnits="userSpaceOnUse"><stop stop-color="#A0CA3F"/><stop offset="1" stop-color="#7B9C30"/></linearGradient><linearGradient id="paint1_linear_5649_42386" x1="563.916" y1="361.454" x2="252.045" y2="35.072" gradientUnits="userSpaceOnUse"><stop stop-color="#F2FBDD"/><stop offset="1" stop-color="#F2FBDD" stop-opacity="0"/></linearGradient><clipPath id="clip0_5649_42386"><rect x="34" width="453" height="336.659" rx="2.248" fill="#fff"/></clipPath></defs></svg>