<svg width="539" height="359" fill="none" xmlns="http://www.w3.org/2000/svg"><path opacity=".12" fill-rule="evenodd" clip-rule="evenodd" d="M479.168 80.262c-34.661-29.708-91.691-32.67-141.074-46.199C294.755 22.19 253.8 1.157 208.407 6.087c-46.09 5.005-81.46 30.205-114.534 54.5-34.267 25.171-66.318 52.404-78.481 87.284C2.026 186.198-6.394 230.666 22.9 264.11c28.862 32.949 89.296 36.467 138.456 50.397 44.051 12.483 86.157 26.354 133.057 26.541 55.625.222 115.233.102 158.758-25.375 46.399-27.159 75.144-70.235 80.021-114.393 4.774-43.226-15.601-88.086-54.024-121.018z" fill="url(#paint0_linear_5649_42387)"/><g clip-path="url(#clip0_5649_42387)"><rect x="42" y="22" width="453" height="336.659" rx="2.248" fill="#fff" fill-opacity=".7"/><path fill="url(#paint1_linear_5649_42387)" d="M42 22h453v337H42z"/><path d="M75.612 271.921c0 .725-.124 1.264-.372 1.617s-.635.529-1.162.529c-.52 0-.905-.172-1.155-.516-.25-.346-.38-.861-.388-1.547v-.827c0-.716.124-1.248.371-1.597.248-.348.636-.522 1.165-.522.525 0 .911.169 1.159.506.248.334.375.852.382 1.553v.804zm-.62-.847c0-.525-.074-.907-.22-1.145-.148-.242-.381-.362-.7-.362-.318 0-.549.119-.694.358-.145.239-.22.606-.224 1.102v.991c0 .527.076.916.228 1.168.154.25.386.375.696.375.306 0 .532-.118.68-.355.15-.236.228-.609.234-1.118v-1.014zm19.578 16.024h-.613v-4.06l-1.229.451v-.553l1.746-.656h.095v4.818zm4.175-4.798v.517h-.112c-.474.009-.852.149-1.133.422-.281.272-.444.655-.487 1.149.252-.29.597-.435 1.034-.435.417 0 .75.147.998.441.25.295.375.674.375 1.14 0 .494-.135.889-.405 1.185-.268.297-.628.445-1.08.445-.46 0-.831-.176-1.117-.527-.285-.353-.428-.808-.428-1.363v-.234c0-.883.188-1.557.563-2.022.378-.468.939-.707 1.683-.718h.109zm-.8 2.16a.975.975 0 00-.577.188.977.977 0 00-.365.471v.224c0 .395.089.713.266.955.178.241.4.362.666.362a.77.77 0 00.645-.303c.158-.202.237-.466.237-.793 0-.33-.08-.595-.24-.797a.758.758 0 00-.632-.307zm-5.19 9.387h-2.01l-.45 1.251h-.653l1.832-4.795h.553l1.834 4.795h-.649l-.458-1.251zm-1.818-.521h1.63l-.817-2.242-.813 2.242zm4.202-.105v1.877h-.632v-4.795h1.768c.525 0 .935.134 1.232.402.298.268.447.622.447 1.064 0 .465-.145.824-.438 1.077-.29.25-.705.375-1.248.375h-1.13zm0-.517h1.136c.338 0 .597-.079.777-.237.18-.16.27-.391.27-.692 0-.285-.09-.513-.27-.685-.18-.171-.427-.26-.74-.266h-1.173v1.88zm5.381.454h-1.126v1.94h-.636v-4.795h1.587c.54 0 .955.123 1.245.369.292.246.438.604.438 1.074 0 .298-.081.558-.244.78-.16.222-.384.388-.671.497l1.126 2.036v.039h-.679l-1.04-1.94zm-1.126-.517h.971c.314 0 .563-.081.748-.243a.824.824 0 00.28-.652c0-.297-.089-.524-.267-.682-.176-.158-.431-.238-.764-.24h-.968v1.817zm18.676-9.995l-1.985 4.452h-.639l1.979-4.294h-2.595v-.501h3.24v.343zm-7.271 7.657l1.568 3.913 1.567-3.913h.82v4.795h-.632v-1.867l.059-2.016-1.574 3.883h-.484l-1.571-3.873.063 2.006v1.867h-.633v-4.795h.817zm7.779 3.544h-2.009l-.451 1.251h-.653l1.831-4.795h.554l1.834 4.795h-.649l-.457-1.251zm-1.818-.521h1.63l-.817-2.242-.813 2.242zm4.722-.615l1.252-2.408h.717l-1.653 3.007v1.788h-.632v-1.788l-1.653-3.007h.724l1.245 2.408zm14.974-5.613h-3.142v-.438l1.66-1.844c.246-.279.415-.505.507-.678.094-.176.142-.357.142-.544a.86.86 0 00-.228-.616c-.151-.16-.353-.24-.606-.24-.303 0-.539.087-.708.26-.166.171-.25.411-.25.718h-.609c0-.441.142-.798.425-1.07.285-.272.666-.409 1.142-.409.446 0 .799.118 1.058.353.259.233.388.543.388.932 0 .472-.301 1.034-.902 1.686l-1.285 1.393h2.408v.497zm3.553-3.543c0 .239-.064.452-.191.639a1.284 1.284 0 01-.51.438c.25.107.448.264.592.47.148.207.221.441.221.702 0 .415-.14.745-.421.991-.279.246-.647.369-1.104.369-.461 0-.831-.123-1.109-.369-.277-.248-.415-.578-.415-.991 0-.259.07-.493.21-.702.143-.208.34-.366.59-.474a1.251 1.251 0 01-.504-.438 1.125 1.125 0 01-.184-.635c0-.404.129-.725.388-.962s.601-.356 1.024-.356c.422 0 .762.119 1.021.356.262.237.392.558.392.962zm-.497 2.236a.883.883 0 00-.257-.656c-.169-.169-.391-.253-.665-.253-.275 0-.495.083-.662.25-.165.167-.247.387-.247.659s.08.486.24.642c.163.156.388.234.675.234.286 0 .51-.078.672-.234.163-.158.244-.372.244-.642zm-.916-3.053a.792.792 0 00-.583.224c-.147.147-.22.348-.22.603 0 .243.072.441.217.592.147.15.343.224.586.224.244 0 .438-.074.583-.224a.814.814 0 00.221-.592.813.813 0 00-.227-.596.776.776 0 00-.577-.231zm-7.564 7.565l1.568 3.913 1.567-3.913h.82v4.795h-.632v-1.867l.059-2.016-1.574 3.883h-.484l-1.571-3.873.063 2.006v1.867h-.633v-4.795h.817zm7.778 3.544h-2.008l-.452 1.251h-.652l1.831-4.795h.554l1.834 4.795h-.649l-.458-1.251zm-1.817-.521h1.63l-.817-2.242-.813 2.242zm4.722-.615l1.251-2.408h.718l-1.653 3.007v1.788h-.632v-1.788l-1.653-3.007h.724l1.245 2.408zm13.834-5.613h-.612v-4.06l-1.229.451v-.553l1.746-.656h.095v4.818zm4.693-3.543c0 .239-.064.452-.191.639a1.284 1.284 0 01-.51.438c.25.107.447.264.592.47.147.207.221.441.221.702 0 .415-.14.745-.421.991-.279.246-.647.369-1.104.369-.461 0-.831-.123-1.109-.369-.277-.248-.415-.578-.415-.991 0-.259.07-.493.21-.702.143-.208.34-.366.59-.474a1.251 1.251 0 01-.504-.438 1.125 1.125 0 01-.184-.635c0-.404.129-.725.388-.962s.601-.356 1.024-.356c.422 0 .762.119 1.021.356.261.237.392.558.392.962zm-.497 2.236a.883.883 0 00-.257-.656c-.169-.169-.391-.253-.665-.253-.275 0-.495.083-.662.25-.165.167-.247.387-.247.659s.08.486.24.642c.163.156.388.234.675.234.286 0 .51-.078.672-.234.163-.158.244-.372.244-.642zm-.916-3.053a.792.792 0 00-.583.224c-.147.147-.22.348-.22.603 0 .243.072.441.217.592.147.15.343.224.586.224.244 0 .438-.074.583-.224a.814.814 0 00.221-.592.813.813 0 00-.227-.596.776.776 0 00-.577-.231zm-5.779 7.565h.635v3.396c0 .458-.138.817-.415 1.076-.274.259-.641.389-1.099.389-.477 0-.848-.122-1.114-.366-.265-.243-.398-.585-.398-1.024h.632c0 .275.075.489.224.642.152.154.37.231.656.231.261 0 .472-.082.632-.247.162-.165.245-.395.247-.692v-3.405zm5.088 0v3.261c-.002.452-.145.822-.428 1.109-.281.288-.663.449-1.146.484l-.168.007c-.525 0-.943-.142-1.255-.425-.312-.283-.47-.673-.474-1.169v-3.267h.625v3.247c0 .347.096.617.287.81.191.191.463.287.817.287.358 0 .631-.096.82-.287.191-.191.286-.459.286-.806v-3.251h.636zm4.683 4.795h-.636l-2.414-3.695v3.695h-.635v-4.795h.635l2.421 3.712v-3.712h.629v4.795zm14.906-10.107a1.49 1.49 0 01-.457.365 1.232 1.232 0 01-.58.138c-.277 0-.518-.068-.724-.204a1.328 1.328 0 01-.475-.573 1.968 1.968 0 01-.168-.82c0-.32.061-.609.181-.866.123-.257.297-.453.521-.589.224-.137.485-.205.784-.205.474 0 .847.178 1.119.534.275.353.412.836.412 1.449v.178c0 .933-.185 1.614-.553 2.045-.369.428-.926.647-1.67.658h-.119v-.513h.129c.503-.009.889-.14 1.159-.392.27-.255.417-.657.441-1.205zm-.938 0a.934.934 0 00.563-.188c.173-.125.3-.28.379-.465v-.243c0-.4-.087-.725-.261-.975-.173-.25-.392-.375-.658-.375a.783.783 0 00-.646.309c-.162.204-.243.474-.243.81 0 .327.078.597.234.81a.75.75 0 00.632.317zm-3.198 5.312h.636v3.396c0 .458-.139.817-.415 1.076-.275.259-.641.389-1.1.389-.477 0-.848-.122-1.113-.366-.266-.243-.399-.585-.399-1.024h.633c0 .275.074.489.224.642.151.154.369.231.655.231.261 0 .472-.082.632-.247.163-.165.245-.395.247-.692v-3.405zm5.088 0v3.261c-.002.452-.145.822-.428 1.109-.281.288-.663.449-1.146.484l-.168.007c-.525 0-.943-.142-1.255-.425-.311-.283-.47-.673-.474-1.169v-3.267h.626v3.247c0 .347.095.617.286.81.191.191.464.287.817.287.358 0 .631-.096.82-.287.191-.191.287-.459.287-.806v-3.251h.635zm1.633 4.278h2.273v.517h-2.908v-4.795h.635v4.278zm14.306-10.177h.458c.288-.004.514-.08.678-.227.165-.147.247-.346.247-.596 0-.562-.28-.843-.839-.843-.264 0-.475.076-.633.227-.156.15-.233.348-.233.596h-.61c0-.38.139-.695.415-.945.279-.252.632-.379 1.061-.379.452 0 .806.12 1.063.359.257.24.386.572.386.998 0 .209-.068.411-.205.606a1.199 1.199 0 01-.55.438c.264.084.467.222.61.415.145.193.217.429.217.708 0 .43-.14.772-.421 1.024-.281.253-.647.379-1.097.379-.45 0-.817-.122-1.1-.366-.281-.243-.422-.565-.422-.964h.613c0 .252.082.454.247.606.165.151.385.227.662.227.294 0 .519-.077.675-.231.156-.153.234-.374.234-.662 0-.279-.086-.493-.257-.642-.171-.149-.418-.226-.741-.23h-.458v-.498zm5.908.649c0 .714-.122 1.244-.365 1.591-.244.347-.625.52-1.143.52-.512 0-.89-.169-1.136-.507-.246-.34-.373-.848-.382-1.522v-.813c0-.705.122-1.228.365-1.571.244-.342.626-.514 1.146-.514.516 0 .896.166 1.14.498.243.329.369.838.375 1.528v.79zm-.609-.833c0-.516-.073-.891-.217-1.126-.145-.237-.375-.356-.689-.356-.311 0-.539.117-.681.352-.143.235-.217.596-.221 1.084v.975c0 .518.075.901.224 1.149.151.246.38.369.685.369.301 0 .524-.117.668-.349.148-.233.224-.6.231-1.1v-.998zm-6.092 6.083h.635v3.396c0 .458-.138.817-.415 1.076-.274.259-.641.389-1.1.389-.476 0-.847-.122-1.113-.366-.265-.243-.398-.585-.398-1.024h.632c0 .275.075.489.224.642.151.154.37.231.655.231.262 0 .472-.082.633-.247.162-.165.244-.395.247-.692v-3.405zm5.088 0v3.261c-.003.452-.145.822-.429 1.109-.281.288-.663.449-1.146.484l-.168.007c-.524 0-.943-.142-1.254-.425-.312-.283-.47-.673-.474-1.169v-3.267h.625v3.247c0 .347.096.617.287.81.191.191.463.287.816.287.358 0 .632-.096.82-.287.191-.191.287-.459.287-.806v-3.251h.636zm1.633 4.278h2.272v.517h-2.908v-4.795h.636v4.278zm16.843-7.483h-3.141v-.438l1.659-1.844c.246-.279.415-.505.508-.678a1.14 1.14 0 00.141-.544.864.864 0 00-.227-.616c-.151-.16-.353-.24-.606-.24-.303 0-.539.087-.708.26-.167.171-.25.411-.25.718h-.609c0-.441.141-.798.424-1.07.286-.272.667-.409 1.143-.409.446 0 .798.118 1.057.353.259.233.389.543.389.932 0 .472-.301 1.034-.903 1.686l-1.284 1.393h2.407v.497zm3.653-2.045c0 .714-.122 1.244-.366 1.591s-.625.52-1.143.52c-.511 0-.89-.169-1.136-.507-.246-.34-.373-.848-.382-1.522v-.813c0-.705.122-1.228.366-1.571.243-.342.625-.514 1.146-.514.516 0 .895.166 1.139.498.244.329.369.838.376 1.528v.79zm-.61-.833c0-.516-.072-.891-.217-1.126-.145-.237-.374-.356-.688-.356-.312 0-.539.117-.682.352-.143.235-.216.596-.221 1.084v.975c0 .518.075.901.224 1.149.152.246.38.369.685.369.301 0 .524-.117.669-.349.147-.233.224-.6.23-1.1v-.998zm-6.247 9.627h-2.009l-.451 1.251h-.652l1.831-4.795h.553l1.835 4.795h-.649l-.458-1.251zm-1.818-.521h1.63l-.816-2.242-.814 2.242zm6.886-3.023v3.261c-.002.452-.145.822-.428 1.109-.281.288-.663.449-1.146.484l-.168.007c-.524 0-.943-.142-1.254-.425-.312-.283-.47-.673-.475-1.169v-3.267h.626v3.247c0 .347.096.617.287.81.191.191.463.287.816.287.358 0 .631-.096.82-.287.191-.191.287-.459.287-.806v-3.251h.635zm4.538 4.166a1.468 1.468 0 01-.681.524c-.29.114-.628.171-1.015.171-.39 0-.737-.091-1.04-.273a1.86 1.86 0 01-.705-.784c-.165-.338-.249-.73-.254-1.176v-.418c0-.722.168-1.282.504-1.68.338-.397.813-.596 1.423-.596.5 0 .903.129 1.208.386.306.254.492.617.56 1.086h-.632c-.119-.634-.496-.951-1.133-.951-.424 0-.745.149-.965.448-.217.296-.327.726-.329 1.291v.391c0 .538.123.966.369 1.285.246.316.578.474.998.474.237 0 .444-.026.622-.079a.963.963 0 00.441-.267v-1.077h-1.109v-.513h1.738v1.758zm12.411-7.371h-.613v-4.06l-1.228.451v-.553l1.745-.656h.096v4.818zm4.791-2.045c0 .714-.121 1.244-.365 1.591s-.625.52-1.143.52c-.511 0-.89-.169-1.136-.507-.246-.34-.373-.848-.382-1.522v-.813c0-.705.122-1.228.366-1.571.243-.342.625-.514 1.146-.514.516 0 .895.166 1.139.498.244.329.369.838.375 1.528v.79zm-.609-.833c0-.516-.072-.891-.217-1.126-.145-.237-.374-.356-.688-.356-.312 0-.539.117-.682.352-.143.235-.216.596-.221 1.084v.975c0 .518.075.901.224 1.149.152.246.38.369.685.369.301 0 .524-.117.669-.349.147-.233.224-.6.23-1.1v-.998zm-6.873 8.741c-.542-.156-.937-.347-1.185-.573a1.104 1.104 0 01-.369-.843c0-.378.15-.69.451-.935.303-.249.696-.373 1.179-.373.329 0 .623.064.879.191.259.128.459.303.6.527.142.224.214.469.214.735h-.636c0-.29-.092-.517-.276-.682-.185-.167-.445-.25-.781-.25-.312 0-.555.069-.731.207a.684.684 0 00-.26.57c0 .195.082.361.247.497.167.134.449.257.846.369.4.112.712.236.935.372.227.134.393.291.501.471.11.18.165.392.165.636 0 .388-.152.7-.455.935-.303.233-.708.349-1.215.349-.329 0-.637-.063-.922-.188a1.572 1.572 0 01-.662-.52 1.272 1.272 0 01-.231-.748h.636c0 .29.107.52.32.689.215.167.501.25.859.25.334 0 .59-.068.767-.204a.664.664 0 00.267-.557c0-.235-.082-.416-.247-.543-.165-.13-.463-.257-.896-.382zm5.302-.079h-2.078v1.699h2.414v.517h-3.046v-4.795h3.013v.521h-2.381v1.541h2.078v.517zm1.756.339v1.877h-.633v-4.795h1.769c.524 0 .935.134 1.231.402.299.268.448.622.448 1.064 0 .465-.146.824-.438 1.077-.29.25-.706.375-1.248.375h-1.129zm0-.517h1.136c.338 0 .597-.079.777-.237.18-.16.27-.391.27-.692 0-.285-.09-.513-.27-.685-.18-.171-.427-.26-.741-.266h-1.172v1.88zm17.76-5.606h-.613v-4.06l-1.228.451v-.553l1.745-.656h.096v4.818zm-1.904 5.757c0 .47-.079.881-.237 1.232a1.793 1.793 0 01-.672.8 1.84 1.84 0 01-1.014.277c-.377 0-.712-.092-1.004-.277a1.864 1.864 0 01-.682-.793 2.874 2.874 0 01-.247-1.196v-.345c0-.462.08-.869.24-1.222.161-.354.387-.624.679-.81.294-.189.63-.284 1.008-.284.384 0 .722.094 1.014.28.294.185.52.454.678.807.158.351.237.761.237 1.229v.302zm-.629-.309c0-.569-.114-1.004-.342-1.307-.228-.306-.548-.458-.958-.458-.4 0-.715.152-.946.458-.228.303-.345.724-.352 1.264v.352c0 .552.115.985.346 1.301.233.314.552.471.958.471.409 0 .725-.148.949-.444.224-.299.339-.726.345-1.281v-.356zm5.105 1.031c-.059.507-.247.899-.563 1.175-.314.275-.732.412-1.255.412-.566 0-1.021-.203-1.363-.609-.341-.406-.511-.95-.511-1.63v-.461c0-.446.079-.838.237-1.176.161-.338.387-.597.679-.777.292-.182.63-.274 1.014-.274.509 0 .918.143 1.225.429.307.283.486.676.537 1.178h-.636c-.055-.382-.174-.658-.359-.829-.182-.172-.438-.257-.767-.257-.404 0-.721.149-.952.448-.228.298-.342.723-.342 1.274v.464c0 .521.108.935.326 1.242.217.307.521.461.912.461.351 0 .62-.079.807-.237.189-.16.314-.438.375-.833h.636zm4.08-2.753h-1.541v4.274h-.629v-4.274h-1.538v-.521h3.708v.521zm31.921-3.726h-.612v-4.06l-1.229.451v-.553l1.746-.656h.095v4.818zm4.927 0h-3.142v-.438l1.66-1.844c.246-.279.415-.505.507-.678a1.14 1.14 0 00.141-.544.86.86 0 00-.227-.616c-.151-.16-.353-.24-.606-.24-.303 0-.539.087-.708.26-.167.171-.25.411-.25.718h-.609c0-.441.141-.798.425-1.07.285-.272.666-.409 1.142-.409.446 0 .798.118 1.057.353.259.233.389.543.389.932 0 .472-.301 1.034-.902 1.686l-1.285 1.393h2.408v.497zm-6.132 8h-.636l-2.414-3.695v3.695h-.635v-4.795h.635l2.421 3.712v-3.712h.629v4.795zm4.811-2.243c0 .47-.079.881-.237 1.232a1.793 1.793 0 01-.672.8c-.29.185-.628.277-1.014.277-.378 0-.713-.092-1.005-.277a1.855 1.855 0 01-.681-.793 2.874 2.874 0 01-.247-1.196v-.345c0-.462.08-.869.24-1.222.16-.354.387-.624.679-.81.294-.189.63-.284 1.007-.284.385 0 .723.094 1.015.28.294.185.52.454.678.807.158.351.237.761.237 1.229v.302zm-.629-.309c0-.569-.114-1.004-.342-1.307-.229-.306-.548-.458-.959-.458-.399 0-.714.152-.945.458-.228.303-.346.724-.352 1.264v.352c0 .552.115.985.346 1.301.232.314.552.471.958.471.408 0 .724-.148.948-.444.224-.299.34-.726.346-1.281v-.356zm3.092 1.712l1.37-3.955h.692l-1.778 4.795h-.56l-1.775-4.795h.688l1.363 3.955zm15.222-9.854h.457c.288-.004.514-.08.679-.227.165-.147.247-.346.247-.596 0-.562-.28-.843-.84-.843-.263 0-.474.076-.632.227-.156.15-.234.348-.234.596h-.609c0-.38.138-.695.415-.945.278-.252.632-.379 1.06-.379.452 0 .807.12 1.064.359.257.24.385.572.385.998 0 .209-.068.411-.204.606a1.204 1.204 0 01-.55.438c.263.084.466.222.609.415.145.193.218.429.218.708 0 .43-.141.772-.422 1.024-.281.253-.647.379-1.097.379-.45 0-.816-.122-1.1-.366-.281-.243-.421-.565-.421-.964h.612c0 .252.083.454.247.606.165.151.386.227.662.227.295 0 .52-.077.675-.231.156-.153.234-.374.234-.662 0-.279-.085-.493-.257-.642-.171-.149-.418-.226-.741-.23h-.457v-.498zm-4.324 10.694v-4.795h1.353c.417 0 .786.092 1.107.277.32.184.567.447.741.787.175.34.264.731.266 1.172v.307c0 .452-.087.848-.263 1.188a1.822 1.822 0 01-.748.784 2.303 2.303 0 01-1.129.28h-1.327zm.632-4.274v3.757h.665c.488 0 .866-.151 1.136-.454.273-.303.409-.735.409-1.295v-.279c0-.545-.129-.968-.386-1.268-.254-.303-.616-.457-1.086-.461h-.738zm6.504 2.058h-2.078v1.699h2.414v.517h-3.046v-4.795h3.013v.521h-2.381v1.541h2.078v.517zm4.65.695c-.059.507-.247.899-.563 1.175-.314.275-.732.412-1.255.412-.566 0-1.021-.203-1.363-.609-.34-.406-.511-.95-.511-1.63v-.461c0-.446.079-.838.237-1.176.161-.338.387-.597.679-.777.292-.182.63-.274 1.014-.274.51 0 .918.143 1.225.429.308.283.487.676.537 1.178h-.636c-.054-.382-.174-.658-.359-.829-.182-.172-.437-.257-.767-.257-.404 0-.721.149-.952.448-.228.298-.342.723-.342 1.274v.464c0 .521.109.935.326 1.242.217.307.521.461.912.461.351 0 .62-.079.807-.237.189-.16.314-.438.375-.833h.636zm33.07-6.479h-.612v-4.06l-1.229.451v-.553l1.746-.656h.095v4.818zm4.357-1.61h.665v.497h-.665v1.113h-.612v-1.113h-2.184v-.359l2.147-3.323h.649v3.185zm-2.104 0h1.492v-2.352l-.073.132-1.419 2.22zm-4.729 4.815h.635v3.396c0 .458-.138.817-.415 1.076-.274.259-.641.389-1.099.389-.477 0-.848-.122-1.114-.366-.265-.243-.398-.585-.398-1.024h.632c0 .275.075.489.224.642.152.154.37.231.656.231.261 0 .472-.082.632-.247.162-.165.245-.395.247-.692v-3.405zm4.288 3.544h-2.009l-.451 1.251h-.652l1.831-4.795h.553l1.834 4.795h-.649l-.457-1.251zm-1.818-.521h1.63l-.817-2.242-.813 2.242zm7.255 1.772h-.636l-2.414-3.695v3.695h-.635v-4.795h.635l2.421 3.712v-3.712h.629v4.795zm15.447-9.61h.665v.497h-.665v1.113h-.612v-1.113h-2.184v-.359l2.147-3.323h.649v3.185zm-2.104 0h1.492v-2.352l-.073.132-1.419 2.22zm-1.653 7.493h-2.013v2.117h-.632v-4.795h2.971v.521h-2.339v1.64h2.013v.517zm3.793-.099h-2.078v1.699h2.414v.517h-3.046v-4.795h3.013v.521h-2.381v1.541h2.078v.517zm1.123 2.216v-4.795h1.568c.52 0 .911.108 1.172.323.264.215.395.534.395.955a.976.976 0 01-.191.596c-.127.171-.3.304-.52.399.259.072.463.21.613.415.151.201.227.443.227.724 0 .43-.14.768-.418 1.014-.279.246-.673.369-1.183.369h-1.663zm.633-2.243v1.726h1.043c.295 0 .526-.076.695-.227.172-.154.257-.365.257-.632 0-.578-.314-.867-.942-.867h-1.053zm0-.507h.955c.276 0 .497-.069.661-.207a.693.693 0 00.251-.563c0-.264-.077-.455-.231-.573-.153-.121-.387-.181-.701-.181h-.935v1.524zm17.119-5.25h-3.142v-.438l1.66-1.844c.246-.279.415-.505.507-.678a1.14 1.14 0 00.141-.544.86.86 0 00-.227-.616c-.151-.16-.353-.24-.606-.24-.303 0-.539.087-.708.26-.167.171-.25.411-.25.718h-.609c0-.441.141-.798.424-1.07.286-.272.667-.409 1.143-.409.446 0 .798.118 1.057.353.259.233.389.543.389.932 0 .472-.301 1.034-.902 1.686l-1.285 1.393h2.408v.497zm.925-2.404l.244-2.391h2.456v.563h-1.939l-.145 1.308a1.54 1.54 0 01.8-.208c.437 0 .784.145 1.041.435.257.288.385.677.385 1.169 0 .494-.134.884-.402 1.169-.265.283-.638.425-1.116.425-.424 0-.77-.117-1.038-.352-.267-.235-.42-.56-.457-.975h.576c.037.274.135.482.293.622.158.139.367.208.626.208.283 0 .505-.097.665-.29.162-.193.244-.46.244-.8 0-.321-.088-.578-.264-.771-.173-.195-.405-.293-.695-.293-.265 0-.474.058-.625.175l-.162.131-.487-.125zm-3.359 8.287h-2.012v2.117h-.633v-4.795h2.971v.521h-2.338v1.64h2.012v.517zm3.794-.099h-2.078v1.699h2.414v.517h-3.047v-4.795h3.014v.521h-2.381v1.541h2.078v.517zm1.123 2.216v-4.795h1.567c.52 0 .911.108 1.173.323.263.215.395.534.395.955a.982.982 0 01-.191.596 1.255 1.255 0 01-.521.399c.259.072.464.21.613.415.151.201.227.443.227.724 0 .43-.139.768-.418 1.014-.279.246-.673.369-1.182.369h-1.663zm.632-2.243v1.726h1.044c.294 0 .526-.076.695-.227.171-.154.257-.365.257-.632 0-.578-.314-.867-.942-.867h-1.054zm0-.507h.955c.277 0 .497-.069.662-.207a.692.692 0 00.25-.563c0-.264-.077-.455-.23-.573-.154-.121-.388-.181-.702-.181h-.935v1.524zm16.259-5.25h-.613v-4.06l-1.228.451v-.553l1.745-.656h.096v4.818zm4.692-3.543c0 .239-.063.452-.191.639a1.284 1.284 0 01-.51.438c.25.107.448.264.593.47.147.207.22.441.22.702 0 .415-.14.745-.421.991-.279.246-.647.369-1.103.369-.461 0-.831-.123-1.11-.369-.277-.248-.415-.578-.415-.991 0-.259.07-.493.211-.702.142-.208.339-.366.589-.474a1.251 1.251 0 01-.504-.438 1.125 1.125 0 01-.184-.635c0-.404.129-.725.388-.962s.601-.356 1.025-.356c.421 0 .761.119 1.02.356.262.237.392.558.392.962zm-.497 2.236a.883.883 0 00-.257-.656c-.169-.169-.391-.253-.665-.253s-.495.083-.662.25c-.165.167-.247.387-.247.659s.08.486.24.642c.163.156.388.234.676.234.285 0 .509-.078.671-.234.163-.158.244-.372.244-.642zm-.915-3.053a.788.788 0 00-.583.224c-.147.147-.221.348-.221.603 0 .243.072.441.217.592.147.15.343.224.587.224.243 0 .438-.074.582-.224a.81.81 0 00.221-.592.813.813 0 00-.227-.596.775.775 0 00-.576-.231zm-7.772 7.565l1.567 3.913 1.568-3.913h.82v4.795h-.633v-1.867l.06-2.016-1.574 3.883h-.484l-1.571-3.873.062 2.006v1.867h-.632v-4.795h.817zm7.778 3.544h-2.009l-.451 1.251h-.652l1.831-4.795h.553l1.835 4.795h-.649l-.458-1.251zm-1.818-.521h1.63l-.816-2.242-.814 2.242zm5.329-.168h-1.127v1.94h-.635v-4.795h1.587c.54 0 .955.123 1.245.369.292.246.438.604.438 1.074 0 .298-.081.558-.244.78-.16.222-.384.388-.672.497l1.127 2.036v.039h-.679l-1.04-1.94zm-1.127-.517h.972c.314 0 .563-.081.747-.243a.821.821 0 00.28-.652c0-.297-.089-.524-.266-.682-.176-.158-.431-.238-.764-.24h-.969v1.817zm-86.026-5.543h-3.142v-.438l1.66-1.844c.246-.279.415-.505.507-.678.094-.176.142-.357.142-.544a.86.86 0 00-.228-.616c-.151-.16-.353-.24-.605-.24-.303 0-.539.087-.709.26-.166.171-.25.411-.25.718h-.609c0-.441.142-.798.425-1.07.285-.272.666-.409 1.143-.409.445 0 .798.118 1.057.353.259.233.388.543.388.932 0 .472-.301 1.034-.902 1.686l-1.284 1.393h2.407v.497zm3.217-1.61h.666v.497h-.666v1.113h-.612v-1.113h-2.184v-.359l2.148-3.323h.648v3.185zm-2.104 0h1.492v-2.352l-.073.132-1.419 2.22zm-6.636 9.61v-4.795h1.354c.417 0 .786.092 1.106.277.321.184.568.447.741.787.176.34.265.731.267 1.172v.307c0 .452-.088.848-.264 1.188a1.82 1.82 0 01-.747.784 2.307 2.307 0 01-1.13.28h-1.327zm.633-4.274v3.757h.665c.487 0 .866-.151 1.136-.454.272-.303.408-.735.408-1.295v-.279c0-.545-.128-.968-.385-1.268-.255-.303-.617-.457-1.087-.461h-.737zm6.504 2.058h-2.078v1.699h2.413v.517h-3.046v-4.795h3.013v.521h-2.38v1.541h2.078v.517zm4.649.695c-.059.507-.247.899-.563 1.175-.314.275-.732.412-1.254.412-.567 0-1.021-.203-1.364-.609-.34-.406-.51-.95-.51-1.63v-.461c0-.446.079-.838.237-1.176a1.78 1.78 0 01.678-.777c.292-.182.63-.274 1.015-.274.509 0 .917.143 1.225.429.307.283.486.676.536 1.178h-.635c-.055-.382-.175-.658-.359-.829-.182-.172-.438-.257-.767-.257-.404 0-.722.149-.952.448-.228.298-.343.723-.343 1.274v.464c0 .521.109.935.326 1.242.218.307.522.461.913.461.351 0 .62-.079.806-.237.189-.16.314-.438.376-.833h.635zm97.407-10.022c0 .239-.064.452-.191.639a1.294 1.294 0 01-.511.438c.25.107.448.264.593.47.147.207.221.441.221.702 0 .415-.141.745-.422.991-.279.246-.646.369-1.103.369-.461 0-.831-.123-1.11-.369-.277-.248-.415-.578-.415-.991 0-.259.07-.493.211-.702a1.34 1.34 0 01.589-.474 1.242 1.242 0 01-.503-.438 1.126 1.126 0 01-.185-.635c0-.404.13-.725.389-.962s.6-.356 1.024-.356c.421 0 .762.119 1.021.356.261.237.392.558.392.962zm-.498 2.236a.88.88 0 00-.257-.656c-.169-.169-.39-.253-.665-.253-.274 0-.495.083-.662.25-.164.167-.247.387-.247.659s.08.486.241.642c.162.156.387.234.675.234.285 0 .509-.078.672-.234.162-.158.243-.372.243-.642zm-.915-3.053a.79.79 0 00-.583.224c-.147.147-.221.348-.221.603a.82.82 0 00.218.592c.147.15.342.224.586.224.244 0 .438-.074.583-.224a.813.813 0 00.22-.592.809.809 0 00-.227-.596.772.772 0 00-.576-.231zm-3.201 11.109h-2.009l-.451 1.251h-.652l1.831-4.795h.553l1.834 4.795h-.648l-.458-1.251zm-1.818-.521h1.63l-.817-2.242-.813 2.242zm4.202-.105v1.877h-.632v-4.795h1.768c.525 0 .936.134 1.232.402.299.268.448.622.448 1.064 0 .465-.146.824-.438 1.077-.29.25-.706.375-1.248.375h-1.13zm0-.517h1.136c.338 0 .597-.079.777-.237.181-.16.271-.391.271-.692 0-.285-.09-.513-.271-.685-.18-.171-.427-.26-.74-.266h-1.173v1.88zm5.381.454h-1.126v1.94h-.636v-4.795h1.588c.54 0 .955.123 1.244.369.292.246.438.604.438 1.074 0 .298-.081.558-.243.78-.16.222-.384.388-.672.497l1.126 2.036v.039h-.678l-1.041-1.94zm-1.126-.517h.971c.314 0 .564-.081.748-.243a.821.821 0 00.28-.652c0-.297-.089-.524-.267-.682-.175-.158-.43-.238-.764-.24h-.968v1.817zm-167.238-5.543h-3.142v-.438l1.66-1.844c.246-.279.415-.505.507-.678a1.13 1.13 0 00.142-.544.864.864 0 00-.227-.616c-.152-.16-.354-.24-.606-.24-.303 0-.539.087-.708.26-.167.171-.251.411-.251.718h-.609c0-.441.142-.798.425-1.07.285-.272.666-.409 1.143-.409.445 0 .798.118 1.057.353.259.233.388.543.388.932 0 .472-.3 1.034-.902 1.686l-1.284 1.393h2.407v.497zm3.787 0h-3.141v-.438l1.659-1.844c.246-.279.415-.505.508-.678a1.14 1.14 0 00.141-.544.864.864 0 00-.227-.616c-.152-.16-.354-.24-.606-.24-.303 0-.539.087-.708.26-.167.171-.25.411-.25.718h-.61c0-.441.142-.798.425-1.07.286-.272.667-.409 1.143-.409.446 0 .798.118 1.057.353.259.233.389.543.389.932 0 .472-.301 1.034-.903 1.686l-1.284 1.393h2.407v.497zm-5.773 5.757c0 .47-.079.881-.237 1.232a1.793 1.793 0 01-.672.8 1.84 1.84 0 01-1.014.277c-.377 0-.712-.092-1.004-.277a1.864 1.864 0 01-.682-.793 2.874 2.874 0 01-.247-1.196v-.345c0-.462.08-.869.24-1.222.161-.354.387-.624.679-.81.294-.189.63-.284 1.008-.284.384 0 .722.094 1.014.28.294.185.52.454.678.807.158.351.237.761.237 1.229v.302zm-.629-.309c0-.569-.114-1.004-.342-1.307-.228-.306-.548-.458-.958-.458-.4 0-.715.152-.946.458-.228.303-.345.724-.352 1.264v.352c0 .552.115.985.346 1.301.233.314.552.471.958.471.408 0 .725-.148.949-.444.224-.299.339-.726.345-1.281v-.356zm5.105 1.031c-.06.507-.247.899-.563 1.175-.314.275-.733.412-1.255.412-.566 0-1.021-.203-1.363-.609-.341-.406-.511-.95-.511-1.63v-.461c0-.446.079-.838.237-1.176.161-.338.387-.597.679-.777.292-.182.63-.274 1.014-.274.509 0 .918.143 1.225.429.307.283.486.676.537 1.178h-.636c-.055-.382-.174-.658-.359-.829-.182-.172-.438-.257-.767-.257-.404 0-.721.149-.952.448-.228.298-.342.723-.342 1.274v.464c0 .521.108.935.326 1.242.217.307.521.461.912.461.351 0 .62-.079.807-.237.189-.16.314-.438.375-.833h.636zm4.08-2.753h-1.541v4.274h-.629v-4.274h-1.538v-.521h3.708v.521z" fill="#79808D"/><path opacity=".1" d="M85.839 218.15h366.447M85.839 245.128h366.447M85.839 191.172h366.447M85.839 164.195h366.447M85.839 137.217h366.447" stroke="#333945" stroke-width=".562"/><g filter="url(#filter0_dd_5649_42387)"><rect x="77.022" y="110" width="28.993" height="13.496" rx="6.748" fill="#fff"/><path d="M85.7 117.807c0-.246-.087-.435-.261-.568-.172-.134-.483-.268-.934-.404-.45-.136-.81-.287-1.076-.453-.51-.32-.764-.738-.764-1.253 0-.45.183-.822.55-1.114.368-.292.846-.438 1.432-.438.39 0 .737.072 1.041.215.305.144.545.349.719.615.174.264.261.557.261.88H85.7c0-.292-.092-.52-.277-.684-.182-.166-.443-.25-.784-.25-.317 0-.564.068-.741.204a.68.68 0 00-.261.569c0 .204.094.376.284.514.19.136.502.269.938.4.435.128.785.275 1.048.442.264.164.458.353.58.568.124.213.185.463.185.75 0 .466-.18.837-.538 1.114-.356.274-.84.411-1.452.411-.405 0-.778-.074-1.118-.223a1.91 1.91 0 01-.792-.622 1.556 1.556 0 01-.28-.922h.972c0 .317.105.563.315.737.21.174.51.261.903.261.338 0 .591-.067.76-.203a.666.666 0 00.258-.546zm4.218 1.441a1.437 1.437 0 01-.107-.388c-.297.31-.66.465-1.091.465-.418 0-.758-.119-1.022-.357a1.145 1.145 0 01-.396-.884c0-.443.164-.783.492-1.018.33-.238.802-.358 1.414-.358h.572v-.272c0-.215-.06-.387-.18-.515-.12-.131-.304-.196-.55-.196a.819.819 0 00-.522.161.49.49 0 00-.204.404h-.934c0-.228.076-.441.227-.638.151-.2.356-.356.615-.469.261-.113.552-.169.872-.169.487 0 .875.123 1.164.369.29.243.438.587.446 1.03v1.875c0 .373.052.672.157.895v.065h-.953zm-1.025-.672c.184 0 .357-.045.518-.135a.892.892 0 00.37-.361v-.784h-.504c-.346 0-.606.06-.78.181a.585.585 0 00-.261.511c0 .179.059.323.176.43.12.105.28.158.48.158zm3.792.672h-.934v-5.901h.934v5.901zm2.85.077c-.591 0-1.071-.186-1.44-.557-.367-.374-.55-.871-.55-1.491v-.115c0-.415.08-.785.239-1.111.16-.327.386-.582.676-.764.29-.182.612-.273.968-.273.566 0 1.003.181 1.31.542.31.361.465.872.465 1.533v.376h-2.716c.028.344.142.615.342.815.202.2.456.3.76.3.428 0 .776-.173 1.045-.519l.504.48c-.167.249-.39.442-.669.58a2.088 2.088 0 01-.933.204zm-.11-3.562a.793.793 0 00-.623.269c-.157.18-.256.429-.3.749h1.779v-.069c-.02-.312-.104-.548-.25-.707-.146-.161-.348-.242-.607-.242zm4.836 2.355a.422.422 0 00-.207-.38c-.136-.087-.363-.164-.68-.23a3.548 3.548 0 01-.796-.254c-.466-.225-.699-.552-.699-.98 0-.358.151-.658.453-.899.303-.24.687-.361 1.153-.361.497 0 .898.123 1.203.369.307.246.461.565.461.957h-.934a.567.567 0 00-.2-.446c-.133-.12-.31-.181-.53-.181a.835.835 0 00-.503.143.448.448 0 00-.192.38c0 .143.06.255.18.334.12.08.364.16.73.242.367.08.653.176.861.288.21.11.365.244.465.4.102.156.153.346.153.569 0 .374-.154.677-.464.91-.31.231-.716.346-1.218.346-.341 0-.644-.062-.91-.185a1.492 1.492 0 01-.623-.507 1.2 1.2 0 01-.223-.695h.907a.66.66 0 00.25.511c.153.118.357.177.61.177.246 0 .433-.046.561-.139a.437.437 0 00.192-.369z" fill="#333945"/></g><g filter="url(#filter1_dd_5649_42387)"><rect x="428" y="110" width="32.993" height="13.496" rx="6.748" fill="#fff"/><path d="M437.908 116.597c0 .548-.094 1.03-.284 1.445a2.16 2.16 0 01-.814.952 2.231 2.231 0 01-1.215.331c-.453 0-.858-.11-1.214-.331a2.21 2.21 0 01-.822-.949c-.192-.409-.289-.882-.292-1.417v-.315c0-.546.096-1.027.288-1.445.195-.417.468-.736.819-.957a2.233 2.233 0 011.214-.334c.456 0 .859.11 1.21.331.353.217.626.532.818.945.192.41.29.887.292 1.433v.311zm-.972-.292c0-.62-.118-1.095-.353-1.425-.233-.331-.565-.496-.995-.496-.42 0-.749.165-.988.496-.235.328-.356.792-.361 1.394v.323c0 .615.119 1.09.357 1.425.241.336.574.504.999.504.431 0 .761-.164.992-.492.233-.328.349-.807.349-1.437v-.292zm4.027-.361a2.26 2.26 0 00-.381-.031c-.427 0-.716.164-.864.492v2.843h-.934v-4.157h.892l.023.465c.225-.361.538-.542.937-.542.133 0 .244.018.331.054l-.004.876zm.338 1.195c0-.641.148-1.154.446-1.541a1.426 1.426 0 011.194-.584c.441 0 .797.154 1.068.461v-2.128h.934v5.901h-.845l-.046-.43c-.279.338-.652.507-1.118.507-.487 0-.881-.196-1.184-.588-.299-.392-.449-.925-.449-1.598zm.933.08c0 .423.081.753.243.992a.797.797 0 00.695.353.88.88 0 00.837-.511v-1.775c-.171-.333-.448-.499-.829-.499a.796.796 0 00-.7.361c-.164.238-.246.598-.246 1.079zm5.514 2.106c-.592 0-1.072-.186-1.441-.557-.366-.374-.549-.871-.549-1.491v-.115c0-.415.079-.785.238-1.111.161-.327.387-.582.676-.764a1.78 1.78 0 01.968-.273c.566 0 1.003.181 1.31.542.31.361.465.872.465 1.533v.376h-2.716c.028.344.142.615.342.815.202.2.456.3.761.3.427 0 .776-.173 1.045-.519l.503.48a1.684 1.684 0 01-.669.58 2.083 2.083 0 01-.933.204zm-.112-3.562a.793.793 0 00-.622.269c-.156.18-.256.429-.3.749h1.779v-.069c-.02-.312-.104-.548-.25-.707-.146-.161-.348-.242-.607-.242zm4.684.181a2.26 2.26 0 00-.381-.031c-.427 0-.715.164-.864.492v2.843h-.934v-4.157h.892l.023.465c.225-.361.538-.542.937-.542.133 0 .244.018.331.054l-.004.876zm2.92 2.174a.421.421 0 00-.208-.38c-.135-.087-.362-.164-.68-.23a3.562 3.562 0 01-.795-.254c-.466-.225-.699-.552-.699-.98 0-.358.151-.658.453-.899.302-.24.686-.361 1.153-.361.497 0 .897.123 1.202.369.308.246.461.565.461.957h-.933a.57.57 0 00-.2-.446c-.133-.12-.31-.181-.53-.181a.838.838 0 00-.504.143.448.448 0 00-.192.38c0 .143.06.255.181.334.12.08.364.16.73.242.366.08.653.176.86.288.21.11.365.244.465.4.103.156.154.346.154.569 0 .374-.155.677-.465.91-.31.231-.716.346-1.218.346-.34 0-.644-.062-.91-.185a1.493 1.493 0 01-.623-.507 1.204 1.204 0 01-.223-.695h.907c.013.22.096.391.25.511.154.118.357.177.611.177.246 0 .433-.046.561-.139a.437.437 0 00.192-.369z" fill="#333945"/></g><path d="M457.678 244.596l.244-2.391h2.457v.563h-1.94l-.145 1.308c.235-.139.502-.208.8-.208.437 0 .784.145 1.041.435.257.287.385.677.385 1.169 0 .494-.134.884-.401 1.169-.266.283-.638.425-1.117.425-.423 0-.769-.118-1.037-.353-.268-.234-.421-.559-.458-.974h.576c.038.274.135.482.294.622.158.138.366.208.625.208.283 0 .505-.097.665-.29.163-.193.244-.46.244-.8 0-.321-.088-.578-.263-.771-.174-.195-.405-.293-.695-.293-.266 0-.474.058-.626.174l-.161.132-.488-.125zm6.514.359c0 .713-.122 1.244-.365 1.591-.244.346-.625.52-1.143.52-.512 0-.89-.169-1.136-.507-.246-.341-.373-.848-.382-1.522v-.813c0-.705.122-1.228.365-1.571.244-.342.626-.514 1.146-.514.516 0 .896.166 1.14.498.244.329.369.838.375 1.528v.79zm-.609-.833c0-.516-.072-.892-.217-1.126-.145-.238-.375-.356-.689-.356-.311 0-.539.117-.681.352-.143.235-.217.596-.221 1.084v.974c0 .519.075.902.224 1.15.152.246.38.369.685.369.301 0 .524-.117.669-.349.147-.233.223-.6.23-1.1v-.998zM459.401 220h-.613v-4.06l-1.228.451v-.554l1.745-.655h.096V220zm2.065-2.404l.243-2.391h2.457v.563h-1.94l-.145 1.308c.235-.139.502-.208.801-.208.436 0 .783.145 1.04.435.257.287.386.677.386 1.169 0 .494-.134.884-.402 1.169-.266.283-.638.425-1.117.425-.423 0-.769-.118-1.037-.353-.268-.234-.42-.559-.458-.974h.577c.037.274.135.482.293.622.158.138.366.208.625.208.284 0 .505-.097.666-.29.162-.193.243-.46.243-.8 0-.321-.088-.578-.263-.771-.174-.195-.405-.293-.695-.293-.266 0-.474.058-.626.174l-.161.132-.487-.125zm6.513.359c0 .713-.121 1.244-.365 1.591-.244.346-.625.52-1.143.52-.511 0-.89-.169-1.136-.507-.246-.341-.373-.848-.382-1.522v-.813c0-.705.122-1.228.366-1.571.243-.342.625-.514 1.146-.514.516 0 .895.166 1.139.498.244.329.369.838.375 1.528v.79zm-.609-.833c0-.516-.072-.892-.217-1.126-.145-.238-.374-.356-.688-.356-.312 0-.539.117-.682.352-.143.235-.216.596-.221 1.084v.974c0 .519.075.902.224 1.15.152.246.38.369.685.369.301 0 .524-.117.669-.349.147-.233.224-.6.23-1.1v-.998zM460.54 193h-3.142v-.438l1.66-1.844c.246-.279.415-.505.507-.679.095-.175.142-.356.142-.543a.864.864 0 00-.227-.616c-.152-.16-.354-.24-.606-.24-.303 0-.539.087-.708.26-.167.171-.25.411-.25.718h-.61c0-.441.142-.798.425-1.07.285-.273.666-.409 1.143-.409.445 0 .798.118 1.057.353.259.232.389.543.389.932 0 .472-.301 1.034-.903 1.686l-1.284 1.393h2.407V193zm3.652-2.045c0 .713-.122 1.244-.365 1.591-.244.346-.625.52-1.143.52-.512 0-.89-.169-1.136-.507-.246-.341-.373-.848-.382-1.522v-.813c0-.705.122-1.228.365-1.571.244-.342.626-.514 1.146-.514.516 0 .896.166 1.14.498.244.329.369.838.375 1.528v.79zm-.609-.833c0-.516-.072-.892-.217-1.126-.145-.238-.375-.356-.689-.356-.311 0-.539.117-.681.352-.143.235-.217.596-.221 1.084v.974c0 .519.075.902.224 1.15.152.246.38.369.685.369.301 0 .524-.117.669-.349.147-.233.223-.6.23-1.1v-.998zm4.396.833c0 .713-.121 1.244-.365 1.591-.244.346-.625.52-1.143.52-.511 0-.89-.169-1.136-.507-.246-.341-.373-.848-.382-1.522v-.813c0-.705.122-1.228.366-1.571.243-.342.625-.514 1.146-.514.516 0 .895.166 1.139.498.244.329.369.838.375 1.528v.79zm-.609-.833c0-.516-.072-.892-.217-1.126-.145-.238-.374-.356-.688-.356-.312 0-.539.117-.682.352-.143.235-.216.596-.221 1.084v.974c0 .519.075.902.224 1.15.152.246.38.369.685.369.301 0 .524-.117.669-.349.147-.233.224-.6.23-1.1v-.998zM460.54 166h-3.142v-.438l1.66-1.844c.246-.279.415-.505.507-.679.095-.175.142-.356.142-.543a.864.864 0 00-.227-.616c-.152-.16-.354-.24-.606-.24-.303 0-.539.087-.708.26-.167.171-.25.411-.25.718h-.61c0-.441.142-.798.425-1.07.285-.273.666-.409 1.143-.409.445 0 .798.118 1.057.353.259.232.389.543.389.932 0 .472-.301 1.034-.903 1.686l-1.284 1.393h2.407V166zm.926-2.404l.243-2.391h2.457v.563h-1.94l-.145 1.308c.235-.139.502-.208.801-.208.436 0 .783.145 1.04.435.257.287.386.677.386 1.169 0 .494-.134.884-.402 1.169-.266.283-.638.425-1.117.425-.423 0-.769-.118-1.037-.353-.268-.234-.42-.559-.458-.974h.577c.037.274.135.482.293.622.158.138.366.208.625.208.284 0 .505-.097.666-.29.162-.193.243-.46.243-.8 0-.321-.088-.578-.263-.771-.174-.195-.405-.293-.695-.293-.266 0-.474.058-.626.174l-.161.132-.487-.125zm6.513.359c0 .713-.121 1.244-.365 1.591-.244.346-.625.52-1.143.52-.511 0-.89-.169-1.136-.507-.246-.341-.373-.848-.382-1.522v-.813c0-.705.122-1.228.366-1.571.243-.342.625-.514 1.146-.514.516 0 .895.166 1.139.498.244.329.369.838.375 1.528v.79zm-.609-.833c0-.516-.072-.892-.217-1.126-.145-.238-.374-.356-.688-.356-.312 0-.539.117-.682.352-.143.235-.216.596-.221 1.084v.974c0 .519.075.902.224 1.15.152.246.38.369.685.369.301 0 .524-.117.669-.349.147-.233.224-.6.23-1.1v-.998zm-9.086-26.816h.458c.288-.004.514-.08.678-.227.165-.147.247-.346.247-.596 0-.562-.279-.843-.839-.843-.264 0-.475.076-.633.227-.155.149-.233.348-.233.596h-.61c0-.38.139-.695.415-.945.279-.252.633-.379 1.061-.379.452 0 .807.12 1.063.359.257.24.386.572.386.998 0 .209-.068.411-.204.606a1.222 1.222 0 01-.55.438c.263.083.466.222.609.415.145.193.217.429.217.708 0 .43-.14.772-.421 1.024-.281.253-.647.379-1.097.379-.45 0-.817-.122-1.1-.366-.281-.243-.421-.565-.421-.965h.612c0 .253.082.455.247.606.165.152.385.228.662.228.294 0 .519-.077.675-.231.156-.154.234-.374.234-.662 0-.279-.086-.493-.257-.642-.171-.149-.418-.226-.741-.231h-.458v-.497zm5.908.649c0 .713-.122 1.244-.365 1.591-.244.346-.625.52-1.143.52-.512 0-.89-.169-1.136-.507-.246-.341-.373-.848-.382-1.522v-.813c0-.705.122-1.228.365-1.571.244-.342.626-.514 1.146-.514.516 0 .896.166 1.14.498.244.329.369.838.375 1.528v.79zm-.609-.833c0-.516-.072-.892-.217-1.126-.145-.238-.375-.356-.689-.356-.311 0-.539.117-.681.352-.143.235-.217.596-.221 1.084v.974c0 .519.075.902.224 1.15.152.246.38.369.685.369.301 0 .524-.117.669-.349.147-.233.223-.6.23-1.1v-.998zm4.396.833c0 .713-.121 1.244-.365 1.591-.244.346-.625.52-1.143.52-.511 0-.89-.169-1.136-.507-.246-.341-.373-.848-.382-1.522v-.813c0-.705.122-1.228.366-1.571.243-.342.625-.514 1.146-.514.516 0 .895.166 1.139.498.244.329.369.838.375 1.528v.79zm-.609-.833c0-.516-.072-.892-.217-1.126-.145-.238-.374-.356-.688-.356-.312 0-.539.117-.682.352-.143.235-.216.596-.221 1.084v.974c0 .519.075.902.224 1.15.152.246.38.369.685.369.301 0 .524-.117.669-.349.147-.233.224-.6.23-1.1v-.998zm-7.183 135.442c0 .713-.121 1.244-.365 1.59-.244.347-.625.521-1.143.521-.511 0-.89-.169-1.136-.507-.246-.341-.373-.848-.382-1.522v-.813c0-.705.122-1.229.365-1.571.244-.343.626-.514 1.147-.514.515 0 .895.166 1.139.497.244.33.369.839.375 1.528v.791zm-.609-.833c0-.516-.072-.892-.217-1.127-.145-.237-.375-.355-.688-.355-.312 0-.539.117-.682.352-.143.235-.216.596-.221 1.084v.974c0 .518.075.902.224 1.15.152.246.38.368.685.368.301 0 .524-.116.669-.349.147-.232.224-.599.23-1.1v-.997z" fill="#79808D"/><path d="M451.724 260.022c-23.248-20.046-56.381-59.857-103.574-59.857-58.992 0-70.047 18.828-97.945 18.828-27.897 0-44.652-18.828-74.584-18.828-29.932 0-48.245 46.087-89.22 46.087" stroke="#3498DB" stroke-width="4.172" stroke-linecap="round" stroke-linejoin="round"/><path opacity=".5" d="M85.839 272.106h366.466" stroke="#333945" stroke-width=".562"/><path d="M353.594 323.992a2.248 2.248 0 012.248-2.248h8.992a2.249 2.249 0 012.249 2.248v8.993a2.249 2.249 0 01-2.249 2.248h-8.992a2.248 2.248 0 01-2.248-2.248v-8.993z" fill="#941759"/><path d="M406.818 323.992a2.249 2.249 0 012.248-2.248h8.993a2.248 2.248 0 012.248 2.248v8.993a2.248 2.248 0 01-2.248 2.248h-8.993a2.249 2.249 0 01-2.248-2.248v-8.993z" fill="#3498DB"/><path d="M430.66 329.01c0 .626-.106 1.174-.316 1.642-.211.465-.51.821-.896 1.067s-.837.369-1.352.369c-.504 0-.95-.123-1.34-.369a2.492 2.492 0 01-.909-1.058c-.213-.46-.323-.991-.329-1.594v-.461c0-.615.107-1.158.321-1.629.213-.471.515-.832.904-1.08a2.43 2.43 0 011.344-.378c.512 0 .963.124 1.352.373.392.246.694.605.905 1.076.21.468.316 1.014.316 1.638v.404zm-.839-.413c0-.758-.152-1.339-.456-1.743-.305-.407-.731-.61-1.278-.61-.533 0-.953.203-1.26.61-.305.404-.461.966-.47 1.686v.47c0 .735.153 1.313.461 1.734.31.419.736.628 1.278.628.544 0 .966-.197 1.264-.593.299-.398.452-.967.461-1.708v-.474zm4.273-.619a2.388 2.388 0 00-.4-.031c-.533 0-.894.227-1.085.681V332h-.812v-4.751h.79l.014.549c.266-.425.644-.637 1.132-.637a.83.83 0 01.361.062v.755zm.465 1.607c0-.729.173-1.314.518-1.756a1.638 1.638 0 011.357-.668c.556 0 .997.191 1.322.571v-2.476h.812V332h-.747l-.039-.509c-.325.398-.777.597-1.357.597-.55 0-1-.226-1.348-.676-.345-.451-.518-1.04-.518-1.766v-.061zm.812.092c0 .539.112.96.334 1.265.222.304.53.456.922.456.515 0 .891-.231 1.129-.693v-2.183c-.243-.447-.617-.671-1.12-.671-.398 0-.709.153-.931.461-.222.307-.334.762-.334 1.365zm6.433 2.411c-.644 0-1.168-.211-1.572-.632-.404-.425-.606-.991-.606-1.7v-.149c0-.471.089-.891.268-1.26.181-.372.433-.662.755-.87.325-.21.676-.316 1.054-.316.618 0 1.098.204 1.44.611.343.406.514.989.514 1.747v.338h-3.219c.012.469.148.848.409 1.137a1.3 1.3 0 001.001.431c.287 0 .53-.059.729-.176.199-.117.373-.272.522-.465l.496.386c-.398.612-.995.918-1.791.918zm-.101-4.259c-.328 0-.603.12-.826.36-.222.237-.36.571-.412 1.001h2.38v-.062c-.024-.412-.135-.731-.334-.957-.199-.228-.468-.342-.808-.342zm5.194.149a2.376 2.376 0 00-.399-.031c-.533 0-.894.227-1.085.681V332h-.812v-4.751h.79l.013.549c.267-.425.644-.637 1.133-.637.158 0 .278.021.36.062v.755zm3.518 2.762c0-.22-.084-.39-.251-.51-.164-.122-.452-.228-.865-.316-.41-.087-.736-.193-.979-.316a1.415 1.415 0 01-.536-.439 1.062 1.062 0 01-.171-.606c0-.389.164-.718.492-.988.331-.269.752-.404 1.264-.404.539 0 .975.139 1.309.417.337.278.505.634.505 1.067h-.817c0-.222-.095-.414-.285-.575-.188-.161-.425-.241-.712-.241-.295 0-.526.064-.693.193a.609.609 0 00-.251.505c0 .196.078.344.233.443.155.1.435.195.839.286.407.09.736.199.988.325.252.125.437.278.557.456a1.1 1.1 0 01.185.646c0 .424-.17.765-.51 1.023-.339.254-.78.382-1.321.382-.381 0-.717-.068-1.01-.202a1.66 1.66 0 01-.689-.562 1.378 1.378 0 01-.246-.786h.812a.852.852 0 00.325.65c.205.158.474.237.808.237.307 0 .553-.062.737-.185a.575.575 0 00.282-.5zm-76.21-1.722c-.723-.208-1.25-.463-1.581-.764a1.473 1.473 0 01-.492-1.124c0-.504.201-.919.602-1.247.404-.331.928-.496 1.572-.496.439 0 .83.085 1.172.254.346.17.612.404.799.703.191.299.286.625.286.979h-.848c0-.386-.123-.689-.369-.909-.245-.222-.592-.334-1.04-.334-.416 0-.741.093-.975.277-.231.182-.347.435-.347.76 0 .26.11.481.33.663.222.178.598.342 1.128.492.533.149.948.314 1.247.496.301.178.524.388.667.628.147.24.22.522.22.847a1.5 1.5 0 01-.606 1.247c-.404.31-.944.465-1.62.465a3.03 3.03 0 01-1.23-.25c-.38-.17-.674-.401-.882-.694a1.694 1.694 0 01-.308-.996h.848c0 .386.142.692.426.917.287.223.669.334 1.146.334.445 0 .786-.091 1.023-.272a.885.885 0 00.355-.742c0-.313-.109-.555-.329-.725-.219-.172-.617-.342-1.194-.509zm6.261 2.85c-.047-.094-.085-.261-.114-.501-.378.392-.828.588-1.352.588-.469 0-.854-.131-1.155-.395a1.293 1.293 0 01-.448-1.01c0-.494.187-.878.562-1.15.378-.275.908-.413 1.59-.413h.79v-.373c0-.284-.085-.509-.255-.676-.17-.17-.42-.255-.751-.255-.289 0-.532.073-.728.22-.197.146-.295.323-.295.531h-.816c0-.237.083-.465.25-.685.17-.222.398-.398.685-.527.29-.129.607-.193.953-.193.547 0 .976.137 1.286.413.311.272.472.648.483 1.128v2.187c0 .436.056.783.167 1.04v.071h-.852zm-1.348-.619c.255 0 .496-.066.725-.198a1.2 1.2 0 00.496-.514v-.975h-.637c-.995 0-1.493.292-1.493.874 0 .255.085.454.255.597.17.144.388.216.654.216zm4.189.619h-.812v-6.745h.812v6.745zm3.276.087c-.644 0-1.168-.21-1.572-.632-.404-.424-.606-.991-.606-1.699v-.149c0-.472.089-.892.268-1.261a2.11 2.11 0 01.755-.869 1.898 1.898 0 011.054-.316c.617 0 1.098.203 1.44.61.343.407.514.99.514 1.748v.338h-3.219c.012.468.148.847.409 1.137.263.287.597.43 1.001.43.287 0 .53-.058.729-.175.199-.117.373-.272.522-.466l.496.387c-.398.612-.995.917-1.791.917zm-.101-4.259c-.328 0-.603.12-.826.36-.222.237-.36.571-.412 1.002h2.379v-.062c-.023-.413-.134-.732-.333-.957-.199-.229-.469-.343-.808-.343zm5.664 2.911a.59.59 0 00-.25-.509c-.164-.123-.452-.228-.865-.316-.41-.088-.736-.193-.979-.316a1.415 1.415 0 01-.536-.439 1.062 1.062 0 01-.171-.606c0-.39.164-.719.491-.988.331-.269.753-.404 1.265-.404.539 0 .975.139 1.309.417.336.278.504.634.504 1.067h-.816c0-.222-.095-.414-.286-.575-.187-.161-.424-.242-.711-.242-.296 0-.527.065-.694.194a.606.606 0 00-.25.504c0 .197.078.344.233.444.155.099.434.195.838.285.407.091.737.199.988.325.252.126.438.278.558.457.123.176.184.391.184.645 0 .425-.169.766-.509 1.023-.34.255-.78.382-1.322.382-.38 0-.717-.067-1.01-.201a1.667 1.667 0 01-.689-.563 1.373 1.373 0 01-.246-.785h.813a.846.846 0 00.324.649c.205.158.475.237.808.237.308 0 .554-.061.738-.184a.579.579 0 00.281-.501z" fill="#79808D"/><path d="M65.972 50.516c0-.422-.149-.747-.447-.975-.295-.229-.828-.46-1.601-.692-.773-.233-1.388-.492-1.844-.777-.874-.549-1.31-1.265-1.31-2.147 0-.773.313-1.41.941-1.91.632-.5 1.451-.751 2.457-.751.667 0 1.262.123 1.785.369.522.246.933.597 1.231 1.054.299.452.448.955.448 1.508h-1.66c0-.5-.158-.892-.474-1.172-.312-.286-.76-.429-1.344-.429-.544 0-.968.117-1.27.35-.3.232-.449.557-.449.974 0 .352.163.646.488.883.325.232.86.46 1.607.685.746.22 1.346.472 1.798.757.452.281.784.606.995.975.21.364.316.792.316 1.284 0 .8-.308 1.436-.922 1.91-.61.47-1.44.705-2.49.705a4.744 4.744 0 01-1.917-.382c-.58-.259-1.032-.615-1.357-1.067-.32-.452-.48-.98-.48-1.58h1.666c0 .544.18.965.54 1.264.36.299.876.448 1.548.448.58 0 1.014-.116 1.304-.35a1.14 1.14 0 00.441-.934zm8.497.237h-3.715l-.777 2.232h-1.732l3.622-9.59h1.495l3.63 9.59h-1.74l-.783-2.232zm-3.247-1.344h2.78l-1.39-3.978-1.39 3.978zm8.529 2.246h4.353v1.33h-6.02v-9.59h1.667v8.26zm11.236-2.95H87.05v2.95h4.603v1.33h-6.27v-9.59h6.224v1.344H87.05v2.648h3.938v1.317zm7.035 1.81c0-.421-.15-.746-.448-.974-.295-.229-.828-.46-1.6-.692-.774-.233-1.388-.492-1.845-.777-.874-.549-1.31-1.265-1.31-2.147 0-.773.313-1.41.941-1.91.632-.5 1.451-.751 2.457-.751.667 0 1.262.123 1.785.369.522.246.933.597 1.231 1.054.299.452.448.955.448 1.508h-1.66c0-.5-.158-.892-.474-1.172-.311-.286-.76-.429-1.343-.429-.545 0-.968.117-1.271.35-.3.232-.448.557-.448.974 0 .352.162.646.487.883.325.232.86.46 1.607.685.747.22 1.346.472 1.798.757.452.281.784.606.995.975.21.364.316.792.316 1.284 0 .8-.308 1.436-.922 1.91-.61.47-1.44.705-2.49.705a4.744 4.744 0 01-1.916-.382c-.58-.259-1.032-.615-1.357-1.067-.32-.452-.481-.98-.481-1.58h1.666c0 .544.18.965.54 1.264.36.299.876.448 1.548.448.58 0 1.014-.116 1.304-.35a1.14 1.14 0 00.442-.934zm11.855.238h-3.715l-.777 2.232h-1.732l3.622-9.59h1.495l3.629 9.59h-1.738l-.784-2.232zm-3.247-1.344h2.779l-1.389-3.978-1.39 3.978zm14.47 3.576h-1.666l-4.275-6.803v6.803h-1.666v-9.59h1.666l4.288 6.83v-6.83h1.653v9.59zm1.969 0v-9.59h2.832c.848 0 1.599.19 2.253.567a3.854 3.854 0 011.528 1.607c.36.694.54 1.489.54 2.384v.481c0 .91-.182 1.708-.547 2.398a3.791 3.791 0 01-1.547 1.593c-.668.374-1.434.56-2.299.56h-2.76zm1.667-8.246v6.916h1.086c.874 0 1.544-.272 2.009-.817.47-.549.709-1.335.718-2.358v-.533c0-1.04-.226-1.836-.678-2.385-.452-.548-1.109-.823-1.97-.823h-1.165zm18.158 3.702c0 .94-.162 1.765-.487 2.476-.325.707-.79 1.252-1.396 1.634-.602.377-1.296.566-2.082.566-.777 0-1.471-.189-2.081-.566-.606-.382-1.076-.925-1.409-1.627-.33-.703-.497-1.513-.501-2.43v-.54c0-.936.165-1.761.494-2.477.334-.716.801-1.262 1.403-1.64.606-.382 1.3-.573 2.081-.573.782 0 1.473.189 2.075.566.606.374 1.073.914 1.403 1.62.329.703.496 1.522.5 2.457v.534zm-1.666-.5c0-1.063-.202-1.878-.606-2.444-.4-.567-.968-.85-1.706-.85-.72 0-1.284.283-1.693.85-.404.562-.61 1.359-.619 2.39v.554c0 1.054.204 1.868.613 2.443.413.575.983.863 1.712.863.738 0 1.304-.28 1.7-.843.399-.562.599-1.383.599-2.463v-.5zm6.85 1.35h-1.858v3.694h-1.666v-9.59h3.372c1.107 0 1.961.249 2.562.745.602.496.903 1.214.903 2.154 0 .64-.156 1.179-.468 1.613-.307.43-.738.762-1.291.995l2.154 3.998v.085h-1.785l-1.923-3.695zm-1.858-1.338h1.713c.562 0 1.001-.14 1.317-.421.316-.285.474-.674.474-1.166 0-.514-.147-.911-.441-1.192-.29-.281-.724-.426-1.304-.435h-1.759v3.214zm6.751 5.032v-9.59h2.832c.848 0 1.599.19 2.253.567a3.854 3.854 0 011.528 1.607c.36.694.54 1.489.54 2.384v.481c0 .91-.182 1.708-.547 2.398a3.791 3.791 0 01-1.547 1.593c-.668.374-1.434.56-2.299.56h-2.76zm1.667-8.246v6.916h1.086c.874 0 1.544-.272 2.009-.817.47-.549.709-1.335.718-2.358v-.533c0-1.04-.226-1.836-.678-2.385-.452-.548-1.109-.823-1.97-.823h-1.165zm12.751 3.965h-3.939v2.95h4.604v1.331h-6.27v-9.59h6.224v1.344h-4.558v2.648h3.939v1.317zm5.546.586h-1.858v3.695h-1.666v-9.59h3.372c1.107 0 1.961.249 2.562.745.602.496.903 1.214.903 2.154 0 .64-.156 1.179-.468 1.613-.307.43-.738.762-1.291.995l2.154 3.998v.085h-1.785l-1.923-3.695zm-1.858-1.337h1.713c.562 0 1.001-.14 1.317-.421.316-.285.474-.674.474-1.166 0-.514-.147-.911-.441-1.192-.29-.281-.725-.426-1.304-.435h-1.759v3.214zm11.763 2.563c0-.422-.149-.747-.447-.975-.295-.229-.828-.46-1.601-.692-.773-.233-1.387-.492-1.844-.777-.874-.549-1.311-1.265-1.311-2.147 0-.773.314-1.41.942-1.91.632-.5 1.451-.751 2.457-.751.667 0 1.262.123 1.785.369a2.92 2.92 0 011.231 1.054c.299.452.448.955.448 1.508h-1.66c0-.5-.158-.892-.474-1.172-.312-.286-.759-.429-1.343-.429-.545 0-.969.117-1.272.35-.298.232-.447.557-.447.974 0 .352.162.646.487.883.325.232.861.46 1.607.685.746.22 1.346.472 1.798.757.452.281.784.606.995.975.21.364.316.792.316 1.284 0 .8-.308 1.436-.922 1.91-.611.47-1.441.705-2.49.705a4.745 4.745 0 01-1.917-.382c-.579-.259-1.031-.615-1.356-1.067-.321-.452-.481-.98-.481-1.58h1.666c0 .544.18.965.54 1.264.36.299.876.448 1.548.448.58 0 1.014-.116 1.304-.35a1.14 1.14 0 00.441-.934z" fill="#555A64"/><g filter="url(#filter2_dd_5649_42387)"><rect x="350.345" y="40.273" width="49.993" height="42.416" rx="2.248" fill="#fff"/><path d="M358.018 46.777l2.613 6.52 2.613-6.52h1.366v7.992h-1.054v-3.112l.099-3.36-2.623 6.472h-.807l-2.618-6.455.104 3.343v3.112h-1.054v-7.992h1.361zm14.6 4.254c0 .783-.132 1.467-.395 2.053-.263.581-.637 1.026-1.12 1.333-.483.308-1.046.461-1.69.461-.63 0-1.188-.153-1.674-.46-.487-.312-.866-.753-1.136-1.324-.267-.574-.405-1.238-.412-1.992v-.576c0-.769.134-1.447.401-2.036.267-.59.644-1.04 1.13-1.35a3.043 3.043 0 011.68-.473c.64 0 1.204.156 1.69.467.491.307.868.755 1.131 1.345.263.585.395 1.267.395 2.047v.505zm-1.048-.516c0-.948-.19-1.674-.571-2.18-.381-.508-.913-.762-1.597-.762-.666 0-1.191.254-1.575.763-.381.505-.577 1.207-.588 2.108v.587c0 .918.192 1.64.577 2.168.387.523.92.785 1.597.785.68 0 1.207-.247 1.581-.741.373-.498.565-1.21.576-2.135v-.593zm8.771 4.254h-1.06l-4.023-6.159v6.159h-1.059v-7.992h1.059l4.034 6.186v-6.186h1.049v7.992zm7.228-7.125H385v7.125h-1.048v-7.125h-2.563v-.867h6.18v.867zm7.327 7.125h-1.059v-3.694h-4.028v3.694h-1.054v-7.992h1.054v3.436h4.028v-3.436h1.059v7.992z" fill="#79808D"/><path d="M360.779 72.594c0-.387-.123-.706-.369-.957-.246-.255-.656-.483-1.23-.683-.575-.205-1.021-.395-1.34-.568-1.062-.57-1.593-1.412-1.593-2.53 0-.756.23-1.378.691-1.865.46-.488 1.084-.777 1.873-.868v-1.49h1.093v1.503c.793.114 1.406.451 1.839 1.012.433.556.65 1.28.65 2.174h-1.655c0-.574-.13-1.026-.389-1.354-.256-.332-.604-.499-1.046-.499-.438 0-.78.119-1.026.356s-.369.576-.369 1.018c0 .397.121.716.363.957.246.237.66.463 1.244.677.583.214 1.041.412 1.374.595.332.182.613.392.84.629.228.232.404.501.527.806.123.306.184.663.184 1.074 0 .77-.237 1.394-.711 1.873-.469.478-1.125.76-1.968.847v1.333h-1.087v-1.326c-.903-.1-1.598-.424-2.085-.97-.483-.547-.725-1.272-.725-2.174h1.661c0 .574.144 1.018.431 1.333.292.314.702.471 1.231.471.519 0 .913-.125 1.182-.376.274-.25.41-.583.41-.998zm8.723-.95h1.237v1.333h-1.237v2.215h-1.661v-2.215h-4.3l-.048-1.012 4.293-6.726h1.716v6.405zm-4.266 0h2.605v-4.156l-.123.219-2.482 3.937zm7.048-1.388l.54-5.017h5.346v1.435h-3.965l-.273 2.38a3.07 3.07 0 011.558-.397c.948 0 1.684.303 2.208.909.529.606.793 1.422.793 2.447 0 1.012-.291 1.819-.875 2.42-.583.597-1.383.896-2.399.896-.912 0-1.668-.258-2.27-.773-.597-.52-.92-1.203-.97-2.05h1.606c.064.482.237.854.52 1.114.282.255.651.382 1.107.382.51 0 .907-.182 1.189-.546.288-.365.431-.862.431-1.49 0-.607-.157-1.085-.472-1.436-.314-.356-.747-.533-1.298-.533a2.11 2.11 0 00-.766.123c-.21.077-.438.232-.684.465l-1.326-.329zm14 .745c0 1.431-.269 2.511-.806 3.24-.534.725-1.347 1.088-2.441 1.088-1.075 0-1.887-.354-2.433-1.06-.543-.71-.821-1.761-.834-3.151v-1.723c0-1.431.266-2.504.799-3.22.538-.715 1.356-1.073 2.454-1.073 1.09 0 1.901.349 2.434 1.046.538.697.814 1.74.827 3.13v1.723zm-1.661-1.859c0-.934-.128-1.618-.383-2.05-.255-.438-.661-.657-1.217-.657-.542 0-.941.207-1.196.622-.255.41-.389 1.053-.403 1.928v2.256c0 .93.13 1.622.389 2.078.26.456.668.683 1.224.683.533 0 .928-.21 1.183-.628.255-.424.389-1.085.403-1.983v-2.249zm6.255 1.75l-1.128 1.196v3.104h-1.729v-9.953h1.729v4.669l.957-1.183 2.912-3.486h2.092l-3.698 4.409 3.91 5.544h-2.051l-2.994-4.3z" fill="#941759"/></g><g filter="url(#filter3_dd_5649_42387)"><rect x="409.357" y="40.273" width="49.993" height="42.416" rx="2.248" fill="#fff"/><path d="M427.702 52.25l.153 1.053.225-.95 1.581-5.576h.889l1.542 5.577.22.966.17-1.076 1.241-5.467h1.059l-1.938 7.992h-.96l-1.647-5.824-.126-.61-.126.61-1.707 5.824h-.961l-1.932-7.992h1.054l1.263 5.472zm12.772-1.175h-3.464v2.832h4.023v.862h-5.077v-7.992h5.023v.867h-3.969v2.569h3.464v.862zm6.388 0h-3.463v2.832h4.023v.862h-5.077v-7.992h5.022v.867h-3.968v2.569h3.463v.862zm3.903-.022l-.977 1.015v2.7h-1.054v-7.99h1.054v3.95l3.551-3.95h1.273l-3.145 3.528 3.392 4.463h-1.262l-2.832-3.716z" fill="#79808D"/><path d="M419.792 72.594c0-.387-.123-.706-.369-.957-.246-.255-.656-.483-1.231-.683-.574-.205-1.02-.395-1.339-.568-1.062-.57-1.593-1.412-1.593-2.53 0-.756.23-1.378.69-1.865.46-.488 1.085-.777 1.873-.868v-1.49h1.094v1.503c.793.114 1.406.451 1.839 1.012.433.556.649 1.28.649 2.174h-1.654c0-.574-.13-1.026-.39-1.354-.255-.332-.604-.499-1.046-.499-.437 0-.779.119-1.025.356-.246.237-.369.576-.369 1.018 0 .397.121.716.362.957.246.237.661.463 1.244.677.584.214 1.042.412 1.374.595.333.182.613.392.841.629.228.232.404.501.527.806.123.306.184.663.184 1.074 0 .77-.237 1.394-.711 1.873-.469.478-1.125.76-1.969.847v1.333h-1.086v-1.326c-.903-.1-1.598-.424-2.085-.97-.484-.547-.725-1.272-.725-2.174h1.661c0 .574.144 1.018.431 1.333.291.314.702.471 1.23.471.52 0 .914-.125 1.183-.376.273-.25.41-.583.41-.998zm7.602 2.598h-1.655V67.2l-2.44.834v-1.402l3.883-1.428h.212v9.987zm9.946-4.19c0 1.43-.269 2.51-.807 3.24-.533.724-1.346 1.087-2.44 1.087-1.076 0-1.887-.354-2.434-1.06-.542-.71-.82-1.761-.834-3.151v-1.723c0-1.431.267-2.504.8-3.22.538-.715 1.356-1.073 2.454-1.073 1.089 0 1.9.349 2.434 1.046.537.697.813 1.74.827 3.13v1.723zm-1.661-1.86c0-.934-.128-1.618-.383-2.05-.255-.438-.661-.657-1.217-.657-.542 0-.941.207-1.196.622-.255.41-.39 1.053-.404 1.928v2.256c0 .93.13 1.622.39 2.078.26.456.668.683 1.224.683.533 0 .927-.21 1.182-.628.256-.424.39-1.085.404-1.983v-2.249zm9.618 1.86c0 1.43-.269 2.51-.807 3.24-.533.724-1.346 1.087-2.44 1.087-1.076 0-1.887-.354-2.434-1.06-.542-.71-.82-1.761-.834-3.151v-1.723c0-1.431.267-2.504.8-3.22.538-.715 1.356-1.073 2.454-1.073 1.089 0 1.901.349 2.434 1.046.537.697.813 1.74.827 3.13v1.723zm-1.661-1.86c0-.934-.128-1.618-.383-2.05-.255-.438-.661-.657-1.217-.657-.542 0-.941.207-1.196.622-.255.41-.39 1.053-.403 1.928v2.256c0 .93.129 1.622.389 2.078.26.456.668.683 1.224.683.533 0 .927-.21 1.182-.628.256-.424.39-1.085.404-1.983v-2.249zm6.255 1.75l-1.128 1.196v3.104h-1.73v-9.953h1.73v4.669l.957-1.183 2.912-3.486h2.092l-3.699 4.409 3.911 5.544h-2.051l-2.994-4.3z" fill="#941759"/></g><path d="M63.016 246.316a.692.692 0 00-.218-.519c-.143-.141-.385-.268-.727-.382-.475-.145-.822-.334-1.04-.566-.217-.234-.326-.531-.326-.89 0-.367.106-.667.318-.901.215-.234.508-.374.881-.419v-.733h.499v.737c.375.051.666.208.874.472.21.263.315.624.315 1.081h-.617c0-.314-.074-.564-.224-.75a.739.739 0 00-.606-.278c-.266 0-.469.07-.61.208-.14.136-.21.327-.21.573 0 .227.073.409.22.545.15.134.395.257.734.369.341.109.607.231.797.365.192.131.332.285.422.462.091.176.137.382.137.619 0 .377-.114.681-.341.911-.226.23-.543.366-.951.408v.64h-.496v-.64c-.415-.038-.741-.185-.978-.442-.234-.259-.351-.609-.351-1.051h.62c0 .31.08.549.244.716.163.168.394.252.693.252.292 0 .522-.071.69-.211a.713.713 0 00.25-.576zm3.425 1.255h-.623v-4.128l-1.249.459v-.563l1.775-.666h.097v4.898zm4.871-2.079c0 .725-.123 1.265-.371 1.617-.248.353-.635.529-1.162.529-.52 0-.905-.172-1.155-.515-.25-.346-.38-.862-.388-1.547v-.827c0-.717.123-1.249.371-1.597.248-.349.636-.523 1.165-.523.525 0 .911.169 1.159.506.248.335.375.853.382 1.553v.804zm-.619-.847c0-.525-.074-.906-.22-1.145-.148-.241-.382-.362-.7-.362-.318 0-.549.12-.694.359-.145.238-.22.606-.224 1.101v.991c0 .527.076.916.228 1.169.154.25.386.375.696.375.306 0 .532-.119.68-.355.15-.237.227-.61.234-1.119v-1.014zm2.813.66l-.596.619v1.647h-.643v-4.875h.643v2.411l2.166-2.411h.777l-1.919 2.153 2.07 2.722h-.77l-1.728-2.266zm-10.49-26.418a.692.692 0 00-.218-.518c-.143-.141-.385-.268-.727-.382-.475-.145-.822-.334-1.04-.566-.217-.234-.326-.531-.326-.891 0-.366.106-.666.318-.9.215-.235.508-.374.881-.419v-.733h.499v.736c.375.052.666.209.874.473.21.263.315.623.315 1.081h-.617c0-.315-.074-.565-.224-.75a.739.739 0 00-.606-.278c-.266 0-.469.069-.61.208-.14.136-.21.327-.21.572 0 .228.073.41.22.546.15.134.395.257.734.368.341.11.607.231.797.365.192.132.332.286.422.462.091.177.137.383.137.62 0 .377-.114.681-.341.911-.226.229-.543.366-.951.408v.639h-.496v-.639c-.415-.038-.741-.185-.978-.442-.234-.259-.351-.609-.351-1.051h.62c0 .31.08.549.244.716.163.168.394.251.693.251.292 0 .522-.07.69-.211a.71.71 0 00.25-.576zm4.583 1.256h-3.194v-.445l1.688-1.875c.25-.284.421-.514.515-.69.096-.179.144-.363.144-.552a.876.876 0 00-.23-.627c-.155-.162-.36-.244-.617-.244-.308 0-.548.088-.72.265-.17.174-.254.417-.254.729h-.62c0-.448.144-.811.432-1.088.29-.277.678-.415 1.162-.415.453 0 .811.12 1.075.358.263.237.395.553.395.948 0 .48-.306 1.051-.917 1.714l-1.306 1.416h2.447v.506zm3.713-2.079c0 .725-.123 1.264-.371 1.617s-.635.529-1.162.529c-.52 0-.905-.172-1.155-.516-.25-.346-.38-.861-.388-1.546v-.827c0-.717.123-1.249.371-1.598.248-.348.636-.522 1.165-.522.525 0 .911.169 1.159.506.248.335.375.852.382 1.553v.804zm-.619-.847c0-.525-.074-.907-.22-1.145-.148-.241-.382-.362-.7-.362-.318 0-.549.119-.694.358-.145.239-.22.606-.224 1.102v.991c0 .527.076.916.228 1.168.154.25.386.375.696.375.306 0 .532-.118.68-.354.15-.237.227-.61.234-1.119v-1.014zm2.813.659l-.596.62v1.647h-.643v-4.875h.643v2.411l2.166-2.411h.777l-1.919 2.153 2.07 2.722h-.77l-1.728-2.267zm-10.49-25.845a.692.692 0 00-.218-.519c-.143-.141-.385-.268-.727-.382-.475-.145-.822-.334-1.04-.566-.217-.234-.326-.531-.326-.891 0-.366.106-.666.318-.9.215-.235.508-.374.881-.419v-.733h.499v.737c.375.051.666.208.874.472.21.263.315.624.315 1.081h-.617c0-.315-.074-.565-.224-.75a.739.739 0 00-.606-.278c-.266 0-.469.069-.61.208-.14.136-.21.327-.21.572 0 .228.073.41.22.546.15.134.395.257.734.368.341.11.607.231.797.365.192.132.332.286.422.462.091.177.137.383.137.62 0 .377-.114.681-.341.911-.226.229-.543.366-.951.408v.64h-.496v-.64c-.415-.038-.741-.185-.978-.442-.234-.259-.351-.609-.351-1.051h.62c0 .31.08.549.244.716.163.168.394.251.693.251.292 0 .522-.07.69-.211a.71.71 0 00.25-.575zm4.583 1.255h-3.194v-.445l1.688-1.875c.25-.284.421-.514.515-.69.096-.178.144-.363.144-.552a.872.872 0 00-.23-.626c-.155-.163-.36-.245-.617-.245-.308 0-.548.088-.72.265-.17.174-.254.417-.254.73h-.62c0-.449.144-.812.432-1.089.29-.276.678-.415 1.162-.415.453 0 .811.12 1.075.358.263.237.395.553.395.948 0 .48-.306 1.051-.917 1.714l-1.306 1.417h2.447v.505zm3.713-2.079c0 .725-.123 1.264-.371 1.617s-.635.529-1.162.529c-.52 0-.905-.172-1.155-.516-.25-.346-.38-.861-.388-1.546v-.827c0-.717.123-1.249.371-1.598.248-.348.636-.522 1.165-.522.525 0 .911.169 1.159.506.248.335.375.852.382 1.553v.804zm-.619-.847c0-.525-.074-.906-.22-1.145-.148-.241-.382-.362-.7-.362-.318 0-.549.12-.694.358-.145.239-.22.606-.224 1.102v.991c0 .527.076.916.228 1.169.154.25.386.375.696.375.306 0 .532-.119.68-.355.15-.237.227-.61.234-1.119v-1.014zm2.813.659l-.596.62v1.647h-.643v-4.875h.643v2.411l2.166-2.411h.777l-1.919 2.153 2.07 2.722h-.77l-1.728-2.267zm-10.49-25.846a.696.696 0 00-.218-.519c-.143-.14-.385-.268-.727-.382-.475-.145-.822-.333-1.04-.565-.217-.235-.326-.532-.326-.891 0-.366.106-.666.318-.901.215-.234.508-.374.881-.418v-.733h.499v.736c.375.051.666.209.874.472.21.264.315.624.315 1.082h-.617c0-.315-.074-.565-.224-.75a.736.736 0 00-.606-.278c-.266 0-.469.069-.61.207-.14.137-.21.327-.21.573 0 .228.073.41.22.546.15.134.395.256.734.368.341.109.607.231.797.365.192.132.332.286.422.462.091.176.137.383.137.619 0 .378-.114.681-.341.911-.226.23-.543.366-.951.409v.639h-.496v-.639c-.415-.038-.741-.186-.978-.442-.234-.259-.351-.61-.351-1.052h.62c0 .311.08.549.244.717.163.167.394.251.693.251.292 0 .522-.07.69-.211a.713.713 0 00.25-.576zm4.583 1.256h-3.194v-.446l1.688-1.875c.25-.283.421-.513.515-.689.096-.179.144-.363.144-.553a.875.875 0 00-.23-.626c-.155-.163-.36-.244-.617-.244-.308 0-.548.088-.72.264-.17.174-.254.418-.254.73h-.62c0-.449.144-.811.432-1.088.29-.277.678-.415 1.162-.415.453 0 .811.119 1.075.358.263.237.395.552.395.948 0 .479-.306 1.051-.917 1.714l-1.306 1.416h2.447v.506zm3.713-2.08c0 .726-.123 1.265-.371 1.618-.248.352-.635.529-1.162.529-.52 0-.905-.172-1.155-.516-.25-.346-.38-.862-.388-1.547v-.827c0-.716.123-1.249.371-1.597.248-.348.636-.522 1.165-.522.525 0 .911.168 1.159.505.248.335.375.853.382 1.554v.803zm-.619-.847c0-.524-.074-.906-.22-1.145-.148-.241-.382-.361-.7-.361-.318 0-.549.119-.694.358-.145.239-.22.606-.224 1.101v.992c0 .526.076.916.228 1.168.154.25.386.375.696.375.306 0 .532-.118.68-.355.15-.236.227-.609.234-1.118v-1.015zm2.813.66l-.596.619v1.648h-.643v-4.875h.643v2.41l2.166-2.41h.777l-1.919 2.153 2.07 2.722h-.77l-1.728-2.267zm-10.49-26.418a.696.696 0 00-.218-.519c-.143-.14-.385-.267-.727-.381-.475-.145-.822-.334-1.04-.566-.217-.234-.326-.531-.326-.891 0-.366.106-.666.318-.9.215-.235.508-.374.881-.419v-.733h.499v.736c.375.052.666.209.874.473.21.263.315.623.315 1.081h-.617c0-.315-.074-.565-.224-.75a.739.739 0 00-.606-.278c-.266 0-.469.069-.61.208-.14.136-.21.327-.21.572 0 .228.073.41.22.546.15.134.395.257.734.368.341.11.607.231.797.365.192.132.332.286.422.462.091.177.137.383.137.62 0 .377-.114.681-.341.91-.226.23-.543.367-.951.409v.639h-.496v-.639c-.415-.038-.741-.185-.978-.442-.234-.259-.351-.609-.351-1.051h.62c0 .31.08.549.244.716.163.168.394.251.693.251.292 0 .522-.07.69-.211a.71.71 0 00.25-.576zM67.599 139h-3.194v-.445l1.688-1.875c.25-.284.421-.514.515-.69.096-.179.144-.363.144-.553a.875.875 0 00-.23-.626c-.155-.163-.36-.244-.617-.244-.308 0-.548.088-.72.264-.17.175-.254.418-.254.73h-.62c0-.448.144-.811.432-1.088.29-.277.678-.415 1.162-.415.453 0 .811.119 1.075.358.263.237.395.553.395.948 0 .48-.306 1.051-.917 1.714l-1.306 1.416h2.447V139zm3.713-2.079c0 .725-.123 1.264-.371 1.617s-.635.529-1.162.529c-.52 0-.905-.172-1.155-.516-.25-.346-.38-.861-.388-1.547v-.827c0-.716.123-1.248.371-1.597.248-.348.636-.522 1.165-.522.525 0 .911.169 1.159.506.248.334.375.852.382 1.553v.804zm-.619-.847c0-.525-.074-.907-.22-1.145-.148-.242-.382-.362-.7-.362-.318 0-.549.119-.694.358-.145.239-.22.606-.224 1.102v.991c0 .527.076.916.228 1.168.154.25.386.375.696.375.306 0 .532-.118.68-.355.15-.236.227-.609.234-1.118v-1.014zm2.813.659l-.596.62V139h-.643v-4.875h.643v2.411l2.166-2.411h.777l-1.919 2.153 2.07 2.722h-.77l-1.728-2.267z" fill="#79808D"/></g><defs><filter id="filter0_dd_5649_42387" x="46.022" y="88" width="90.992" height="75.496" filterUnits="userSpaceOnUse" color-interpolation-filters="sRGB"><feFlood flood-opacity="0" result="BackgroundImageFix"/><feColorMatrix in="SourceAlpha" values="0 0 0 0 0 0 0 0 0 0 0 0 0 0 0 0 0 0 127 0" result="hardAlpha"/><feOffset dy="1.127"/><feGaussianBlur stdDeviation="1.941"/><feColorMatrix values="0 0 0 0 0 0 0 0 0 0 0 0 0 0 0 0 0 0 0.035 0"/><feBlend in2="BackgroundImageFix" result="effect1_dropShadow_5649_42387"/><feColorMatrix in="SourceAlpha" values="0 0 0 0 0 0 0 0 0 0 0 0 0 0 0 0 0 0 127 0" result="hardAlpha"/><feOffset dy="9"/><feGaussianBlur stdDeviation="15.5"/><feColorMatrix values="0 0 0 0 0 0 0 0 0 0 0 0 0 0 0 0 0 0 0.07 0"/><feBlend in2="effect1_dropShadow_5649_42387" result="effect2_dropShadow_5649_42387"/><feBlend in="SourceGraphic" in2="effect2_dropShadow_5649_42387" result="shape"/></filter><filter id="filter1_dd_5649_42387" x="397" y="88" width="94.992" height="75.496" filterUnits="userSpaceOnUse" color-interpolation-filters="sRGB"><feFlood flood-opacity="0" result="BackgroundImageFix"/><feColorMatrix in="SourceAlpha" values="0 0 0 0 0 0 0 0 0 0 0 0 0 0 0 0 0 0 127 0" result="hardAlpha"/><feOffset dy="1.127"/><feGaussianBlur stdDeviation="1.941"/><feColorMatrix values="0 0 0 0 0 0 0 0 0 0 0 0 0 0 0 0 0 0 0.035 0"/><feBlend in2="BackgroundImageFix" result="effect1_dropShadow_5649_42387"/><feColorMatrix in="SourceAlpha" values="0 0 0 0 0 0 0 0 0 0 0 0 0 0 0 0 0 0 127 0" result="hardAlpha"/><feOffset dy="9"/><feGaussianBlur stdDeviation="15.5"/><feColorMatrix values="0 0 0 0 0 0 0 0 0 0 0 0 0 0 0 0 0 0 0.07 0"/><feBlend in2="effect1_dropShadow_5649_42387" result="effect2_dropShadow_5649_42387"/><feBlend in="SourceGraphic" in2="effect2_dropShadow_5649_42387" result="shape"/></filter><filter id="filter2_dd_5649_42387" x="319.345" y="18.273" width="111.992" height="104.416" filterUnits="userSpaceOnUse" color-interpolation-filters="sRGB"><feFlood flood-opacity="0" result="BackgroundImageFix"/><feColorMatrix in="SourceAlpha" values="0 0 0 0 0 0 0 0 0 0 0 0 0 0 0 0 0 0 127 0" result="hardAlpha"/><feOffset dy="1.127"/><feGaussianBlur stdDeviation="1.941"/><feColorMatrix values="0 0 0 0 0 0 0 0 0 0 0 0 0 0 0 0 0 0 0.035 0"/><feBlend in2="BackgroundImageFix" result="effect1_dropShadow_5649_42387"/><feColorMatrix in="SourceAlpha" values="0 0 0 0 0 0 0 0 0 0 0 0 0 0 0 0 0 0 127 0" result="hardAlpha"/><feOffset dy="9"/><feGaussianBlur stdDeviation="15.5"/><feColorMatrix values="0 0 0 0 0 0 0 0 0 0 0 0 0 0 0 0 0 0 0.07 0"/><feBlend in2="effect1_dropShadow_5649_42387" result="effect2_dropShadow_5649_42387"/><feBlend in="SourceGraphic" in2="effect2_dropShadow_5649_42387" result="shape"/></filter><filter id="filter3_dd_5649_42387" x="378.357" y="18.273" width="111.992" height="104.416" filterUnits="userSpaceOnUse" color-interpolation-filters="sRGB"><feFlood flood-opacity="0" result="BackgroundImageFix"/><feColorMatrix in="SourceAlpha" values="0 0 0 0 0 0 0 0 0 0 0 0 0 0 0 0 0 0 127 0" result="hardAlpha"/><feOffset dy="1.127"/><feGaussianBlur stdDeviation="1.941"/><feColorMatrix values="0 0 0 0 0 0 0 0 0 0 0 0 0 0 0 0 0 0 0.035 0"/><feBlend in2="BackgroundImageFix" result="effect1_dropShadow_5649_42387"/><feColorMatrix in="SourceAlpha" values="0 0 0 0 0 0 0 0 0 0 0 0 0 0 0 0 0 0 127 0" result="hardAlpha"/><feOffset dy="9"/><feGaussianBlur stdDeviation="15.5"/><feColorMatrix values="0 0 0 0 0 0 0 0 0 0 0 0 0 0 0 0 0 0 0.07 0"/><feBlend in2="effect1_dropShadow_5649_42387" result="effect2_dropShadow_5649_42387"/><feBlend in="SourceGraphic" in2="effect2_dropShadow_5649_42387" result="shape"/></filter><linearGradient id="paint0_linear_5649_42387" x1="538.273" y1="13.158" x2="225.366" y2="483.668" gradientUnits="userSpaceOnUse"><stop stop-color="#A0CA3F"/><stop offset="1" stop-color="#7B9C30"/></linearGradient><linearGradient id="paint1_linear_5649_42387" x1="571.916" y1="383.454" x2="260.045" y2="57.072" gradientUnits="userSpaceOnUse"><stop stop-color="#F2FBDD"/><stop offset="1" stop-color="#F2FBDD" stop-opacity="0"/></linearGradient><clipPath id="clip0_5649_42387"><rect x="42" y="22" width="453" height="336.659" rx="2.248" fill="#fff"/></clipPath></defs></svg>