<svg width="639" height="428" fill="none" xmlns="http://www.w3.org/2000/svg"><path fill-rule="evenodd" clip-rule="evenodd" d="M102.896 76.336c36.914-32.114 96.46-33.836 148.306-47.531 45.501-12.02 88.752-34.303 135.959-27.56 47.933 6.846 84.163 35.877 118.023 63.837 35.081 28.969 67.798 60.17 79.579 99.336 12.945 43.037 20.575 92.772-10.839 129.193-30.95 35.882-94.06 38.128-145.684 52.277-46.259 12.679-90.525 26.956-139.436 25.869-58.01-1.29-120.165-3.071-164.893-32.636-47.68-31.517-76.54-80.265-80.483-129.558-3.858-48.253 18.55-97.629 59.468-133.227z" fill="#E1F2BA" fill-opacity=".2"/><g filter="url(#filter0_ddd_5555_42510)"><g clip-path="url(#clip0_5555_42510)"><rect x="68.761" y="31.262" width="501.478" height="309.989" rx="6.87" fill="#fff"/><path d="M238.782 282.27v-97.302m20.61 97.302v-97.302m19.75 97.302v-97.302m19.75 97.302v-97.302m19.75 97.302v-97.302m19.75 97.302v-97.302m19.75 97.302v-97.302m50.663 97.892v-97.302m20.608 97.302v-97.302m19.75 97.302v-97.302m19.75 97.302v-97.302m19.75 97.302v-97.302m19.75 97.302v-97.302m19.75 97.302v-97.302" stroke="#F2F2F2" stroke-width=".859"/><path d="M68.76 38.131a6.87 6.87 0 016.87-6.87H201V348.12H75.63a6.87 6.87 0 01-6.87-6.869V38.131z" fill="#12030B"/><path d="M94.92 54.63c-.43-.385-1.01-.792-1.663-.792-.772 0-.957.447-.957.765 0 .536.63.69 1.088.792 1.347.305 2.853.88 2.853 2.985 0 1.774-1.297 2.936-3.443 2.936-1.179 0-2.108-.384-3.429-1.428l1.216-1.902c.721.677 1.52 1.186 2.277 1.186.472 0 .903-.217.903-.752 0-.818-.785-.92-1.755-1.212-.734-.217-2.186-.716-2.186-2.628 0-1.441 1.075-2.693 3.22-2.693a4.864 4.864 0 012.79.88l-.913 1.863zm4.858-2.503h3.116l3.261 8.936h-2.749l-.512-1.544h-3.116l-.512 1.544h-2.748l3.26-8.937zm.512 5.425h2.096l-1.048-3.284-1.048 3.284zm15.789-1.675c.182 2.105-.431 5.439-4.555 5.439-2.789 0-5.052-1.642-5.052-4.66 0-2.924 1.923-4.786 4.857-4.786 2.867 0 3.928 1.583 4.255 2.171l-2.264 1.035a2.05 2.05 0 00-.806-.8 2.123 2.123 0 00-1.118-.261c-1.205 0-2.357.83-2.357 2.591 0 1.76 1.138 2.746 2.448 2.746a2.02 2.02 0 001.304-.39 1.93 1.93 0 00.738-1.118h-2.372v-1.97l4.922.003zm1.27-3.75h5.5v2.144h-2.934v1.251h2.658v1.971h-2.658v1.429h2.934v2.144h-5.5v-8.94zm7.569 0h2.567l1.61 5.451 1.61-5.452h2.567l1.348 8.937h-2.469l-.674-5.183-1.546 5.183h-1.651l-1.546-5.183-.674 5.183h-2.462l1.32-8.937zm13.039 0h3.116l3.261 8.936h-2.752l-.512-1.544h-3.116l-.512 1.544h-2.749l3.264-8.937zm.512 5.425h2.102l-1.047-3.284-1.055 3.284zm6.599-5.425h2.578v8.936h-2.567l-.011-8.937zm4.218 0h2.567v6.788h2.749v2.145h-5.316v-8.934zm6.323 0h5.511v2.144h-2.934v1.251h2.658v1.971h-2.658v1.429h2.934v2.144h-5.511v-8.94zm6.859 0h3.796c3.062 0 3.166 2.272 3.166 2.68a2.572 2.572 0 01-.476 1.664 2.693 2.693 0 01-1.434 1.015l2.567 3.574h-3.102l-1.937-2.956v2.956h-2.58v-8.934zm3.193 4.02c.916 0 1.206-.51 1.206-1.035 0-.526-.286-1.022-1.206-1.022h-.63v2.056h.63z" fill="#81A332"/><rect x="89.369" y="81.925" width="60.109" height="8.587" rx="4.293" fill="#8B8187"/><rect x="221.608" y="51.871" width="247.304" height="8.587" rx="4.293" fill="#D7D7D7" fill-opacity=".6"/><rect x="532.456" y="303.468" width="140.826" height="8.587" rx="4.293" transform="rotate(-180 532.456 303.468)" fill="#D7D7D7" fill-opacity=".6"/><rect x="362.435" y="303.468" width="140.826" height="8.587" rx="4.293" transform="rotate(-180 362.435 303.468)" fill="#D7D7D7" fill-opacity=".6"/><rect x="489.521" y="51.871" width="42.935" height="8.587" rx="4.293" fill="#D7D7D7" fill-opacity=".6"/><rect x="89.369" y="142.033" width="60.109" height="8.587" rx="4.293" fill="#8B8187"/><rect x="89.369" y="202.142" width="60.109" height="8.587" rx="4.293" fill="#8B8187"/><rect x="89.369" y="97.381" width="60.109" height="8.587" rx="4.293" fill="#8B8187"/><rect x="89.369" y="157.49" width="60.109" height="8.587" rx="4.293" fill="#8B8187"/><rect x="89.369" y="217.599" width="60.109" height="8.587" rx="4.293" fill="#8B8187"/><rect x="89.369" y="112.838" width="60.109" height="8.587" rx="4.293" fill="#8B8187"/><rect x="89.369" y="172.946" width="60.109" height="8.587" rx="4.293" fill="#8B8187"/><rect x="89.369" y="233.055" width="60.109" height="8.587" rx="4.293" fill="#8B8187"/><rect x="221.608" y="82.783" width="310.848" height="42.935" rx="6.87" fill="#E6E6E6" fill-opacity=".6"/><path fill-rule="evenodd" clip-rule="evenodd" d="M243.701 97.81a2.14 2.14 0 00-2.14 2.14v8.172a2.14 2.14 0 002.14 2.14h12.062a2.14 2.14 0 002.14-2.14v-8.171a2.14 2.14 0 00-2.14-2.14h-12.062zm-.973 2.14c0-.537.435-.972.973-.972h12.062c.537 0 .972.435.972.973v1.363l-6.815 2.869-7.192-2.877v-1.355zm0 2.614v5.558c0 .537.435.972.973.972h12.062a.972.972 0 00.972-.972v-5.542l-6.804 2.865-7.203-2.881zm69.823-7.544l-.343-.019-2.741 3.636-2.087 2.803a1.932 1.932 0 00-3.121 1.522v6.441a1.932 1.932 0 003.433 1.216c.169.126.35.228.529.311.672.31 1.446.405 1.956.405h6.115c.753 0 1.295-.396 1.641-.821.338-.414.527-.898.605-1.233l.006-.029.004-.029c.18-1.322.577-4.327.722-5.72.095-.912-.253-1.568-.786-1.965-.489-.365-1.078-.473-1.473-.473h-3.159c.303-.835.745-2.1.994-3.293.204-.982.05-1.765-.564-2.251-.524-.415-1.243-.473-1.731-.5zm-4.428 13.943c0 .339.194.593.637.797.452.208 1.027.287 1.417.287h6.115c.254 0 .46-.123.642-.346.182-.223.296-.5.343-.684.182-1.342.571-4.289.712-5.648.049-.469-.113-.678-.275-.798a1.255 1.255 0 00-.703-.218h-4.95l.262-.836c.056-.181.148-.433.259-.737.303-.827.747-2.042 1.003-3.27.155-.746-.032-.923-.103-.98-.123-.097-.335-.16-.666-.196l-2.321 3.078-2.372 3.187v6.364zm-1.288-6.001a.644.644 0 00-1.288 0v6.441a.644.644 0 001.288 0v-6.441zm67.542 10.5l-.343.02-2.741-3.637-2.086-2.802a1.932 1.932 0 01-3.122-1.523v-6.44a1.932 1.932 0 013.433-1.216 2.97 2.97 0 01.529-.311c.672-.31 1.446-.405 1.956-.405h6.115c.753 0 1.296.396 1.641.82.338.415.527.898.605 1.233l.007.03.004.029c.179 1.322.576 4.326.721 5.72.095.912-.252 1.567-.786 1.965-.489.364-1.078.473-1.473.473h-3.159c.303.835.745 2.1.994 3.293.204.981.05 1.764-.564 2.251-.524.414-1.243.473-1.731.5zm-4.428-13.944v6.365l2.372 3.187 2.321 3.079c.331-.037.543-.099.667-.197.071-.057.257-.233.102-.979-.256-1.229-.7-2.444-1.003-3.271a18.612 18.612 0 01-.259-.736l-.261-.836h4.949c.205 0 .497-.065.704-.218.161-.121.323-.329.274-.799-.141-1.359-.53-4.305-.712-5.647a1.904 1.904 0 00-.342-.684c-.182-.224-.389-.346-.643-.346h-6.115c-.39 0-.965.078-1.417.286-.442.204-.636.458-.637.796zm-1.288 0v-.438a.644.644 0 10-1.288 0v6.44a.644.644 0 001.288.002v-6.005zm64.831 12.93c.961 0 1.775-.632 2.048-1.503h2.344a2.147 2.147 0 100-1.288h-2.344a2.147 2.147 0 00-4.097 0h-.527c-.224 0-.611-.06-.925-.287-.276-.201-.578-.588-.578-1.43 0-.805.323-1.201.688-1.428.411-.256.946-.337 1.354-.337h9.055c.44 0 .834-.267.997-.675l2.243-5.613a1.073 1.073 0 00-.905-1.468l-11.788-1.01c-.174-.695-.494-1.282-1.055-1.676-.678-.475-1.567-.569-2.592-.455a.644.644 0 10.142 1.28c.907-.1 1.413.021 1.71.23.28.196.507.566.619 1.309l.852 6.849a3.57 3.57 0 00-1.312.472c-.744.464-1.296 1.273-1.296 2.522 0 1.213.466 2.006 1.11 2.473.607.44 1.293.532 1.681.532h.527a2.15 2.15 0 002.049 1.503zm0-1.288a.859.859 0 100-1.718.859.859 0 000 1.718zm-2.236-12.441l.768 6.168h8.341l2.082-5.21-11.191-.958zm9.535 11.582a.859.859 0 11-1.718 0 .859.859 0 011.718 0z" fill="#79808D"/><path d="M498.108 97.166a.644.644 0 10-1.288 0v1.085c-1.349.076-2.257.509-2.84 1.069-.623.597-.832 1.301-.832 1.71 0 .822.217 1.561.895 2.197.63.592 1.613 1.048 3.013 1.483 1.375.427 2.147.78 2.602 1.133.362.28.525.706.56 1.15 0 .445-.074.828-.426 1.178-.431.429-1.038.852-2.326.798-1.384-.058-2.17-.382-2.608-.78-.42-.381-.614-.918-.614-1.642a.644.644 0 10-1.288 0c0 .962.267 1.897 1.037 2.596.652.592 1.59.945 2.827 1.071v1.121a.644.644 0 001.288 0v-1.089c1.249-.091 2.115-.586 2.67-1.246.625-.743.804-1.721.761-2.283-.062-.782-.418-1.46-1.125-2.007-.653-.506-1.587-.799-2.976-1.23-1.363-.424-2.107-.81-2.514-1.192-.359-.337-.486-.597-.486-1.083v-.129c0-.029.002-.055.012-.121.012-.051.035-.143.067-.218.065-.15.172-.312.355-.488.355-.34 1.046-.721 2.375-.721 1.304 0 2.032.427 2.44.879.426.473.564 1.041.564 1.389a.644.644 0 101.288 0c0-.623-.228-1.511-.896-2.251-.556-.617-1.382-1.092-2.535-1.249v-1.13z" fill="#79808D"/><path d="M280.858 91.37v26.62m61.827-26.62v26.62m61.826-26.62v26.62m61.826-26.62v26.62" stroke="#79808D" stroke-width=".859"/><path d="M227.473 163.816h-3.511v2.63h4.103v1.185h-5.588v-8.546h5.547v1.197h-4.062v2.36h3.511v1.174zm3.727-4.731l2.465 6.551 2.46-6.551h1.919v8.546h-1.479v-2.817l.147-3.769-2.524 6.586h-1.063l-2.518-6.58.147 3.763v2.817h-1.479v-8.546h1.925zm13.495 6.556h-3.311l-.692 1.99h-1.544l3.228-8.546h1.333l3.234 8.546h-1.549l-.699-1.99zm-2.894-1.197h2.477l-1.238-3.546-1.239 3.546zm7.684 3.187h-1.479v-8.546h1.479v8.546zm3.311-1.185h3.88v1.185h-5.365v-8.546h1.485v7.361zm9.486-1.016c0-.376-.133-.665-.4-.869-.262-.203-.737-.409-1.426-.616-.689-.207-1.237-.438-1.644-.693-.778-.489-1.168-1.127-1.168-1.913 0-.689.28-1.256.84-1.703.563-.446 1.293-.669 2.189-.669.595 0 1.125.11 1.591.329a2.6 2.6 0 011.098.939c.266.403.399.851.399 1.344h-1.479c0-.446-.141-.794-.423-1.044-.278-.255-.677-.382-1.198-.382-.485 0-.862.104-1.132.311-.267.207-.4.497-.4.869 0 .313.145.575.435.786.289.208.767.411 1.432.611.665.196 1.199.421 1.603.675.403.25.698.54.886.869.188.325.282.706.282 1.144 0 .713-.274 1.28-.822 1.703-.544.418-1.284.628-2.219.628a4.225 4.225 0 01-1.708-.341c-.517-.231-.92-.548-1.209-.951a2.37 2.37 0 01-.429-1.408h1.485c0 .485.161.86.482 1.127.32.266.78.399 1.379.399.517 0 .904-.104 1.162-.311.262-.212.394-.49.394-.834zm10.566.211h-3.311l-.693 1.99H267.3l3.229-8.546h1.332l3.235 8.546h-1.55l-.698-1.99zm-2.894-1.197h2.477l-1.239-3.546-1.238 3.546zm12.896 3.187h-1.485l-3.81-6.063v6.063h-1.485v-8.546h1.485l3.822 6.087v-6.087h1.473v8.546zm1.755 0v-8.546h2.524c.755 0 1.425.168 2.008.504a3.438 3.438 0 011.362 1.433c.32.618.481 1.326.481 2.125v.428c0 .81-.162 1.522-.487 2.137a3.375 3.375 0 01-1.38 1.42c-.595.333-1.277.499-2.048.499h-2.46zm1.485-7.349v6.164h.969c.779 0 1.375-.243 1.79-.728.419-.489.632-1.19.64-2.102v-.475c0-.928-.202-1.636-.605-2.125-.403-.489-.988-.734-1.755-.734h-1.039zm12.503 4.056h-1.655v3.293h-1.485v-8.546h3.005c.986 0 1.748.221 2.284.663.536.442.804 1.082.804 1.919 0 .572-.139 1.051-.417 1.439-.274.383-.657.679-1.15.886l1.919 3.563v.076h-1.591l-1.714-3.293zm-1.655-1.191h1.526c.501 0 .892-.126 1.174-.376.282-.254.423-.601.423-1.039 0-.458-.131-.812-.393-1.062-.259-.251-.646-.38-1.163-.388h-1.567v2.865zm11.012.669h-3.51v2.63h4.103v1.185h-5.588v-8.546h5.547v1.197h-4.062v2.36h3.51v1.174zm4.813 1.955l2.172-6.686h1.632l-3.076 8.546h-1.438l-3.064-8.546h1.626l2.148 6.686zm6.34 1.86h-1.479v-8.546h1.479v8.546zm6.821-3.815h-3.51v2.63h4.103v1.185h-5.588v-8.546h5.547v1.197h-4.062v2.36h3.51v1.174zm8.506 1.702l1.314-6.433h1.474l-1.972 8.546h-1.421l-1.626-6.239-1.661 6.239h-1.427l-1.972-8.546h1.473l1.327 6.421 1.632-6.421h1.244l1.615 6.433zm8.341-.088c0-.376-.133-.665-.399-.869-.262-.203-.738-.409-1.427-.616-.688-.207-1.236-.438-1.643-.693-.779-.489-1.168-1.127-1.168-1.913 0-.689.279-1.256.839-1.703.563-.446 1.293-.669 2.189-.669.595 0 1.126.11 1.591.329a2.6 2.6 0 011.098.939c.266.403.399.851.399 1.344h-1.479c0-.446-.141-.794-.423-1.044-.278-.255-.677-.382-1.197-.382-.486 0-.863.104-1.133.311-.266.207-.399.497-.399.869 0 .313.144.575.434.786.29.208.767.411 1.432.611.666.196 1.2.421 1.603.675.403.25.698.54.886.869.188.325.282.706.282 1.144 0 .713-.274 1.28-.822 1.703-.544.418-1.283.628-2.219.628a4.229 4.229 0 01-1.708-.341c-.516-.231-.919-.548-1.209-.951a2.37 2.37 0 01-.429-1.408h1.486c0 .485.16.86.481 1.127.321.266.781.399 1.379.399.517 0 .904-.104 1.163-.311.262-.212.393-.49.393-.834zm54.196 0c0-.376-.133-.665-.399-.869-.263-.203-.738-.409-1.427-.616-.689-.207-1.236-.438-1.643-.693-.779-.489-1.169-1.127-1.169-1.913 0-.689.28-1.256.84-1.703.563-.446 1.293-.669 2.189-.669.595 0 1.125.11 1.591.329a2.6 2.6 0 011.098.939c.266.403.399.851.399 1.344h-1.479c0-.446-.141-.794-.423-1.044-.278-.255-.677-.382-1.197-.382-.486 0-.863.104-1.133.311-.266.207-.4.497-.4.869 0 .313.145.575.435.786.289.208.767.411 1.432.611.665.196 1.2.421 1.603.675.403.25.698.54.886.869.188.325.282.706.282 1.144 0 .713-.274 1.28-.822 1.703-.544.418-1.284.628-2.219.628a4.225 4.225 0 01-1.708-.341c-.517-.231-.92-.548-1.209-.951a2.37 2.37 0 01-.429-1.408h1.485c0 .485.161.86.482 1.127.321.266.78.399 1.379.399.517 0 .904-.104 1.162-.311a1.02 1.02 0 00.394-.834zm7.572.211h-3.311l-.692 1.99h-1.544l3.228-8.546h1.333l3.234 8.546h-1.55l-.698-1.99zm-2.894-1.197h2.477l-1.238-3.546-1.239 3.546zm7.602 2.002h3.88v1.185h-5.365v-8.546h1.485v7.361zm10.014-2.63h-3.51v2.63h4.103v1.185h-5.588v-8.546h5.547v1.197h-4.062v2.36h3.51v1.174zm6.269 1.614c0-.376-.133-.665-.399-.869-.262-.203-.738-.409-1.427-.616-.688-.207-1.236-.438-1.643-.693-.779-.489-1.168-1.127-1.168-1.913 0-.689.28-1.256.839-1.703.564-.446 1.294-.669 2.19-.669.594 0 1.125.11 1.59.329a2.6 2.6 0 011.098.939c.266.403.399.851.399 1.344h-1.479c0-.446-.141-.794-.423-1.044-.277-.255-.677-.382-1.197-.382-.485 0-.863.104-1.133.311-.266.207-.399.497-.399.869 0 .313.145.575.434.786.29.208.767.411 1.433.611.665.196 1.199.421 1.602.675.403.25.699.54.886.869.188.325.282.706.282 1.144 0 .713-.274 1.28-.822 1.703-.544.418-1.283.628-2.218.628a4.23 4.23 0 01-1.709-.341c-.516-.231-.919-.548-1.209-.951-.286-.403-.428-.872-.428-1.408h1.485c0 .485.16.86.481 1.127.321.266.781.399 1.38.399.516 0 .903-.104 1.162-.311.262-.212.393-.49.393-.834zm10.566.211h-3.311l-.692 1.99h-1.544l3.228-8.546h1.333l3.234 8.546h-1.549l-.699-1.99zm-2.894-1.197h2.477l-1.238-3.546-1.239 3.546zm12.896 3.187h-1.485l-3.809-6.063v6.063h-1.485v-8.546h1.485l3.821 6.087v-6.087h1.473v8.546zm1.756 0v-8.546h2.524c.755 0 1.424.168 2.007.504a3.438 3.438 0 011.362 1.433c.321.618.481 1.326.481 2.125v.428c0 .81-.162 1.522-.487 2.137a3.373 3.373 0 01-1.379 1.42c-.595.333-1.278.499-2.049.499h-2.459zm1.485-7.349v6.164h.968c.779 0 1.376-.243 1.791-.728.418-.489.632-1.19.639-2.102v-.475c0-.928-.201-1.636-.604-2.125-.403-.489-.988-.734-1.755-.734h-1.039zm16.183 3.299c0 .838-.145 1.573-.434 2.207-.29.63-.704 1.115-1.245 1.456-.536.336-1.154.505-1.854.505-.693 0-1.311-.169-1.855-.505-.54-.341-.959-.824-1.257-1.45-.293-.626-.442-1.348-.446-2.166v-.481c0-.834.147-1.57.441-2.207.297-.638.714-1.126 1.25-1.462.54-.341 1.158-.511 1.855-.511.696 0 1.313.169 1.849.505.54.333.957.814 1.25 1.444.294.626.442 1.356.446 2.19v.475zm-1.485-.446c0-.947-.18-1.673-.54-2.178-.356-.505-.863-.757-1.52-.757-.642 0-1.145.252-1.509.757-.36.501-.544 1.211-.552 2.131v.493c0 .939.182 1.665.546 2.178.368.512.877.769 1.527.769.657 0 1.162-.251 1.514-.752.356-.5.534-1.232.534-2.195v-.446zm6.105 1.203h-1.655v3.293h-1.485v-8.546h3.005c.986 0 1.747.221 2.283.663.537.442.805 1.082.805 1.919 0 .572-.139 1.051-.417 1.439-.274.383-.658.679-1.151.886l1.92 3.563v.076h-1.591l-1.714-3.293zm-1.655-1.191h1.526c.501 0 .892-.126 1.174-.376.282-.254.422-.601.422-1.039 0-.458-.131-.812-.393-1.062-.258-.251-.646-.38-1.162-.388h-1.567v2.865zm6.016 4.484v-8.546h2.524c.756 0 1.425.168 2.008.504a3.438 3.438 0 011.362 1.433c.321.618.481 1.326.481 2.125v.428c0 .81-.162 1.522-.487 2.137a3.379 3.379 0 01-1.379 1.42c-.595.333-1.278.499-2.049.499h-2.46zm1.485-7.349v6.164h.969c.779 0 1.376-.243 1.79-.728.419-.489.632-1.19.64-2.102v-.475c0-.928-.201-1.636-.604-2.125-.403-.489-.989-.734-1.756-.734h-1.039zm11.365 3.534h-3.51v2.63h4.103v1.185h-5.589v-8.546h5.548v1.197h-4.062v2.36h3.51v1.174zm4.942.522h-1.655v3.293h-1.485v-8.546h3.005c.986 0 1.748.221 2.284.663.536.442.804 1.082.804 1.919 0 .572-.139 1.051-.417 1.439-.274.383-.657.679-1.15.886l1.919 3.563v.076h-1.591l-1.714-3.293zm-1.655-1.191h1.526c.501 0 .892-.126 1.174-.376.282-.254.423-.601.423-1.039 0-.458-.131-.812-.393-1.062-.259-.251-.646-.38-1.163-.388h-1.567v2.865zm10.484 2.283c0-.376-.133-.665-.399-.869-.263-.203-.738-.409-1.427-.616-.689-.207-1.236-.438-1.643-.693-.779-.489-1.169-1.127-1.169-1.913 0-.689.28-1.256.84-1.703.563-.446 1.293-.669 2.189-.669.595 0 1.125.11 1.591.329a2.6 2.6 0 011.098.939c.266.403.399.851.399 1.344h-1.479c0-.446-.141-.794-.423-1.044-.278-.255-.677-.382-1.197-.382-.486 0-.863.104-1.133.311-.266.207-.399.497-.399.869 0 .313.144.575.434.786.29.208.767.411 1.432.611.666.196 1.2.421 1.603.675.403.25.698.54.886.869.188.325.282.706.282 1.144 0 .713-.274 1.28-.822 1.703-.544.418-1.283.628-2.219.628a4.229 4.229 0 01-1.708-.341c-.516-.231-.92-.548-1.209-.951a2.37 2.37 0 01-.429-1.408h1.485c0 .485.161.86.482 1.127.321.266.78.399 1.379.399.517 0 .904-.104 1.162-.311a1.02 1.02 0 00.394-.834z" fill="#A2A2A2"/><path d="M221.608 184.968v97.892h140.826m29.197-97.892v97.892h140.826" stroke="#79808D" stroke-width=".859"/><path fill="#81A332" d="M225.902 252.805h8.587v30.054h-8.587zm302.261 0h-8.587v30.054h8.587zm-271.348 0h8.587v30.054h-8.587zm240.435 0h-8.587v30.054h8.587zm-224.979 0h8.587v30.054h-8.587zm209.523 0h-8.587v30.054h8.587zm-194.065 0h8.587v30.054h-8.587zm178.608 0h-8.587v30.054h8.587zm-178.608-30.054h8.587v30.054h-8.587zm178.608 0h-8.587v30.054h8.587z"/><path fill="#941759" d="M303.185 252.805h8.587v30.054h-8.587zm147.696 0h-8.587v30.054h8.587z"/><path fill="#81A332" d="M318.642 252.805h8.587v30.054h-8.587zm116.782 0h-8.587v30.054h8.587z"/><path fill="#941759" d="M334.098 252.805h8.587v30.054h-8.587zm85.87 0h-8.587v30.054h8.587z"/><path fill="#81A332" d="M349.555 252.805h8.587v30.054h-8.587zm54.956 0h-8.587v30.054h8.587z"/><path fill="#941759" d="M256.815 222.751h8.587v30.054h-8.587zm240.435 0h-8.587v30.054h8.587zm-147.695 0h8.587v30.054h-8.587zm54.956 0h-8.587v30.054h8.587z"/><path d="M221.608 255.811l11.592 4.636c.838.335 1.76.398 2.636.179l12.541-3.135a4.298 4.298 0 002.489-1.722l13.078-18.89a4.293 4.293 0 014.004-1.824l11.499 1.278a4.297 4.297 0 002.638-.558l12.277-7.162a4.295 4.295 0 013.997-.174l12.709 6.002c.465.219.887.52 1.245.889l11.252 11.573a4.293 4.293 0 006.3-.155l11.041-12.533a4.293 4.293 0 014.371-1.298l12.864 3.573m33.49-3.006l9.537 3.815a4.292 4.292 0 005.242-1.722l10.209-16.448c1.603-2.582 5.309-2.727 7.108-.278l9.749 13.269a4.294 4.294 0 005.016 1.46l10.562-4.108a4.294 4.294 0 013.56.204l10.691 5.643a4.295 4.295 0 005.264-1.003l12.252-14.294a4.296 4.296 0 012.44-1.421l11.32-2.201a4.295 4.295 0 014.28 1.673l11.464 15.604a4.293 4.293 0 005.772 1.076l12.066-7.709" stroke="#3498DB" stroke-width="1.717"/></g></g><defs><clipPath id="clip0_5555_42510"><rect x="68.761" y="31.262" width="501.478" height="309.989" rx="6.87" fill="#fff"/></clipPath><filter id="filter0_ddd_5555_42510" x=".065" y="15.805" width="638.87" height="447.381" filterUnits="userSpaceOnUse" color-interpolation-filters="sRGB"><feFlood flood-opacity="0" result="BackgroundImageFix"/><feColorMatrix in="SourceAlpha" values="0 0 0 0 0 0 0 0 0 0 0 0 0 0 0 0 0 0 127 0" result="hardAlpha"/><feOffset dy="5.152"/><feGaussianBlur stdDeviation="1.717"/><feColorMatrix values="0 0 0 0 0 0 0 0 0 0 0 0 0 0 0 0 0 0 0.03 0"/><feBlend in2="BackgroundImageFix" result="effect1_dropShadow_5555_42510"/><feColorMatrix in="SourceAlpha" values="0 0 0 0 0 0 0 0 0 0 0 0 0 0 0 0 0 0 127 0" result="hardAlpha"/><feOffset dy="18.891"/><feGaussianBlur stdDeviation="10.304"/><feColorMatrix values="0 0 0 0 0 0 0 0 0 0 0 0 0 0 0 0 0 0 0.04 0"/><feBlend in2="effect1_dropShadow_5555_42510" result="effect2_dropShadow_5555_42510"/><feColorMatrix in="SourceAlpha" values="0 0 0 0 0 0 0 0 0 0 0 0 0 0 0 0 0 0 127 0" result="hardAlpha"/><feOffset dy="53.239"/><feGaussianBlur stdDeviation="34.348"/><feColorMatrix values="0 0 0 0 0 0 0 0 0 0 0 0 0 0 0 0 0 0 0.07 0"/><feBlend in2="effect2_dropShadow_5555_42510" result="effect3_dropShadow_5555_42510"/><feBlend in="SourceGraphic" in2="effect3_dropShadow_5555_42510" result="shape"/></filter></defs></svg>