<svg width="602" height="403" viewBox="0 0 602 403" fill="none" xmlns="http://www.w3.org/2000/svg">
<path fill-rule="evenodd" clip-rule="evenodd" d="M120.037 76.1448C153.829 49.53 208.341 48.103 255.802 36.7529C297.456 26.7917 337.05 8.32453 380.265 13.9127C424.144 19.5867 457.311 43.6458 488.308 66.8182C520.422 90.826 550.373 116.685 561.157 149.143C573.008 184.811 579.992 226.029 551.235 256.214C522.903 285.951 465.128 287.812 417.87 299.539C375.523 310.046 335 321.879 290.225 320.977C237.12 319.908 180.221 318.432 139.276 293.93C95.6265 267.81 69.2068 227.41 65.5981 186.558C62.0656 146.568 82.5789 105.647 120.037 76.1448Z" fill="#E1F2BA" fill-opacity="0.2"/>
<g filter="url(#filter0_ddd_9908_64019)">
<g clip-path="url(#clip0_9908_64019)">
<rect x="173.092" y="77.998" width="377.222" height="233.18" rx="5.16743" fill="white"/>
<path d="M545.147 77.998C548.001 77.998 550.314 80.3116 550.314 83.1655L550.314 116.108L173.092 116.108L173.092 83.1655C173.092 80.3116 175.406 77.998 178.26 77.998L545.147 77.998Z" fill="#D6D8E0"/>
<path d="M550.314 116.108L550.314 154.218L173.092 154.218L173.092 116.108L550.314 116.108Z" fill="#EFEFF2"/>
<rect x="179.875" y="233.99" width="178.276" height="66.5306" rx="2.26075" stroke="#E0E0E0" stroke-width="0.645928"/>
<rect x="365.256" y="233.99" width="178.276" height="66.5306" rx="2.26075" stroke="#E0E0E0" stroke-width="0.645928"/>
<rect x="365.256" y="162.938" width="178.276" height="66.5306" rx="2.26075" stroke="#E0E0E0" stroke-width="0.645928"/>
<path d="M473.449 170.506C473.449 169.792 474.028 169.214 474.741 169.214H494.765V178.257H474.741C474.028 178.257 473.449 177.678 473.449 176.965V170.506Z" fill="#D9D9D9"/>
<path d="M473.449 240.772C473.449 240.059 474.027 239.48 474.741 239.48H494.764V248.523H474.741C474.027 248.523 473.449 247.945 473.449 247.232V240.772Z" fill="#D9D9D9"/>
<path d="M288.068 242.657C288.068 241.944 288.646 241.365 289.36 241.365H309.383V250.408H289.36C288.646 250.408 288.068 249.83 288.068 249.116V242.657Z" fill="#D9D9D9"/>
<rect x="495.41" y="169.214" width="21.3156" height="9.04299" fill="#D9D9D9"/>
<rect x="495.41" y="239.48" width="21.3156" height="9.04299" fill="#D9D9D9"/>
<rect x="310.029" y="241.365" width="21.3156" height="9.04299" fill="#D9D9D9"/>
<path d="M517.372 169.214H537.395C538.109 169.214 538.687 169.792 538.687 170.506V176.965C538.687 177.678 538.109 178.257 537.395 178.257H517.372V169.214Z" fill="#3C68B7"/>
<path d="M517.372 239.48H537.396C538.109 239.48 538.688 240.059 538.688 240.772V247.232C538.688 247.945 538.109 248.523 537.396 248.523H517.372V239.48Z" fill="#3C68B7"/>
<path d="M331.99 241.365H352.014C352.727 241.365 353.306 241.944 353.306 242.657V249.116C353.306 249.83 352.727 250.408 352.014 250.408H331.99V241.365Z" fill="#3C68B7"/>
<path d="M373.976 256.92H538.688" stroke="#ECECEC" stroke-width="0.645928"/>
<path d="M373.976 186.515H538.688" stroke="#ECECEC" stroke-width="0.645928"/>
<path d="M188.595 256.92H353.306" stroke="#ECECEC" stroke-width="0.645928"/>
<path d="M373.976 268.547H538.688" stroke="#ECECEC" stroke-width="0.645928"/>
<path d="M373.976 198.141H538.688" stroke="#ECECEC" stroke-width="0.645928"/>
<path d="M188.595 268.547H353.306" stroke="#ECECEC" stroke-width="0.645928"/>
<path d="M373.976 278.881H538.688" stroke="#ECECEC" stroke-width="0.645928"/>
<path d="M373.976 208.476H538.688" stroke="#ECECEC" stroke-width="0.645928"/>
<path d="M188.595 278.881H353.306" stroke="#ECECEC" stroke-width="0.645928"/>
<path d="M373.976 288.571H538.688" stroke="#ECECEC" stroke-width="0.645928"/>
<path d="M373.976 218.165H538.688" stroke="#ECECEC" stroke-width="0.645928"/>
<path d="M188.595 288.571H353.306" stroke="#ECECEC" stroke-width="0.645928"/>
<path d="M373.976 287.925L378.242 283.361L382.507 285.643L387.429 280.753L391.694 283.361L396.616 282.057L401.209 285.643L405.803 280.753L410.396 282.057L414.99 277.82L419.583 280.753L424.177 277.82L428.771 284.013L433.364 276.516L437.958 280.753L442.551 273.908L447.145 277.82L451.738 271.952L456.332 272.93L460.925 268.692L465.519 276.516L470.113 273.908L474.378 280.753L479.3 276.516L483.565 279.124L488.159 273.908L493.08 277.82L497.674 271.952L502.267 274.56L506.861 268.692L511.236 277.82L515.111 266.41H520.642L524.907 259.891L529.501 266.41L534.422 253.045L538.688 258.261" stroke="#027FC2" stroke-width="0.645928"/>
<path d="M373.976 217.518L378.242 212.954L382.507 215.236L387.218 211.651L391.694 212.954H396.584L401.209 215.236L405.627 212.351L410.396 211.651H414.993L419.583 210.347H423.713L428.234 211.059L432.756 207.413L437.277 211.059L441.799 206.537L446.643 208.152L450.842 204.923L455.363 204.153L459.885 201.545L464.729 204.153H468.927L473.772 208.152L477.648 206.537L482.492 208.798L487.336 204.153L491.858 205.569L496.702 202.016L500.901 205.569L505.422 199.109L508.975 204.153L514.465 192.65L518.664 202.339L523.508 190.066L527.707 205.569L532.228 184.253L536.75 185.222" stroke="#333333" stroke-width="0.645928"/>
<path d="M373.976 288.572L377.913 287.356L382.507 288.268L387.101 287.356L391.694 287.812L396.288 287.204L400.881 287.812L405.475 287.204L409.74 287.964L414.662 285.988L418.927 286.292L423.521 285.532L428.114 287.812H433.036L437.63 287.204L442.223 287.812L447.145 285.532L451.41 286.292L456.004 285.836L460.597 287.356L465.191 285.836L469.784 287.204L474.706 286.292L478.643 287.812L483.565 285.988L488.159 287.66L492.752 285.532L497.018 286.292L501.939 285.532L506.533 287.812L511.126 286.292L515.72 287.812L520.314 285.532L524.907 286.748L529.501 285.532L534.094 286.748L538.688 283.404" stroke="#FF3434" stroke-width="0.645928"/>
<path d="M192.86 285.275L188.595 288.571H353.306V267.147L349.041 263.38L344.119 273.033L339.526 268.324L335.26 273.033H329.73L325.854 281.273L321.48 274.681L316.886 278.918L312.293 277.035L307.699 281.273L302.777 278.448L298.184 282.214L293.918 280.331L288.997 283.392L284.731 278.448L280.138 280.331L275.544 274.681L270.951 277.741L266.357 277.035L261.763 281.273L257.17 278.448L252.576 283.392L247.983 280.331L243.389 285.746L238.796 281.273L234.202 283.392L229.609 281.273L225.015 284.333L220.421 283.392L215.828 286.923L211.234 284.333L206.313 285.275L202.047 283.392L197.126 286.923L192.86 285.275Z" fill="#44DD94" fill-opacity="0.3"/>
<path d="M188.595 288.572L192.532 287.356L197.126 288.268L201.719 287.356L206.313 287.812L210.906 287.204L215.5 287.812L220.093 287.204L224.359 287.964L229.28 285.988L233.546 286.292L238.139 285.532L242.733 287.812H247.655L252.248 287.204L256.842 287.812L261.763 285.532L266.029 286.292L270.622 285.836L275.216 287.356L279.81 285.836L284.403 287.204L289.325 286.292L293.262 287.812L298.184 285.988L302.777 287.66L307.371 285.532L311.636 286.292L316.558 285.532L321.152 287.812L325.745 286.292L330.339 287.812L334.932 285.532L339.526 286.748L344.119 285.532L348.713 286.748L353.306 283.404" stroke="#FF3434" stroke-width="0.645928"/>
<path d="M538.688 212.998L534.75 214.213L530.157 213.302L525.563 214.213L520.97 213.758L516.376 214.365L511.782 213.758L507.189 214.365L502.923 213.606L498.002 215.581L493.736 215.277L489.143 216.037L484.549 213.758H479.628L475.034 214.365L470.44 213.758L465.519 216.037L461.253 215.277L456.66 215.733L452.066 214.213L447.473 215.733L442.879 214.365L437.957 215.277L434.02 213.758L429.098 215.581L424.505 213.91L419.911 216.037L415.646 215.277L410.724 216.037L406.131 213.758L401.537 215.277L396.944 213.758L392.35 216.037L387.757 214.821L383.163 216.037L378.569 214.821L373.976 218.165" stroke="#FF3434" stroke-width="0.645928"/>
<path d="M377.071 245.436H375.397V244.558H377.071C377.362 244.558 377.598 244.511 377.777 244.416C377.957 244.322 378.088 244.193 378.17 244.028C378.256 243.86 378.298 243.669 378.298 243.454C378.298 243.251 378.256 243.061 378.17 242.884C378.088 242.705 377.957 242.56 377.777 242.451C377.598 242.343 377.362 242.288 377.071 242.288H375.737V247.834H374.629V241.405H377.071C377.568 241.405 377.991 241.493 378.338 241.67C378.688 241.844 378.955 242.085 379.137 242.394C379.32 242.7 379.411 243.05 379.411 243.445C379.411 243.86 379.32 244.216 379.137 244.514C378.955 244.811 378.688 245.039 378.338 245.198C377.991 245.357 377.568 245.436 377.071 245.436ZM381.367 243.966V247.834H380.303V243.056H381.319L381.367 243.966ZM382.829 243.025L382.82 244.015C382.755 244.003 382.684 243.994 382.608 243.988C382.534 243.982 382.461 243.979 382.387 243.979C382.205 243.979 382.044 244.006 381.906 244.059C381.768 244.109 381.651 244.182 381.557 244.279C381.466 244.374 381.395 244.488 381.345 244.624C381.295 244.759 381.266 244.911 381.257 245.079L381.014 245.096C381.014 244.796 381.043 244.518 381.102 244.262C381.161 244.006 381.249 243.781 381.367 243.586C381.488 243.392 381.638 243.24 381.818 243.131C382 243.023 382.211 242.968 382.449 242.968C382.514 242.968 382.583 242.974 382.657 242.986C382.733 242.998 382.79 243.011 382.829 243.025ZM383.178 245.498V245.397C383.178 245.052 383.228 244.733 383.328 244.438C383.428 244.141 383.572 243.884 383.76 243.666C383.952 243.445 384.184 243.274 384.458 243.154C384.735 243.03 385.047 242.968 385.394 242.968C385.744 242.968 386.056 243.03 386.33 243.154C386.607 243.274 386.841 243.445 387.032 243.666C387.224 243.884 387.369 244.141 387.469 244.438C387.57 244.733 387.62 245.052 387.62 245.397V245.498C387.62 245.843 387.57 246.162 387.469 246.456C387.369 246.751 387.224 247.008 387.032 247.229C386.841 247.447 386.608 247.618 386.335 247.741C386.061 247.862 385.75 247.922 385.403 247.922C385.053 247.922 384.739 247.862 384.462 247.741C384.189 247.618 383.956 247.447 383.765 247.229C383.573 247.008 383.428 246.751 383.328 246.456C383.228 246.162 383.178 245.843 383.178 245.498ZM384.242 245.397V245.498C384.242 245.713 384.264 245.916 384.308 246.108C384.352 246.299 384.421 246.467 384.515 246.611C384.61 246.755 384.73 246.868 384.878 246.951C385.025 247.033 385.2 247.075 385.403 247.075C385.6 247.075 385.771 247.033 385.915 246.951C386.062 246.868 386.183 246.755 386.277 246.611C386.371 246.467 386.441 246.299 386.485 246.108C386.532 245.916 386.555 245.713 386.555 245.498V245.397C386.555 245.185 386.532 244.984 386.485 244.796C386.441 244.605 386.37 244.436 386.273 244.288C386.179 244.141 386.058 244.026 385.911 243.944C385.767 243.859 385.594 243.816 385.394 243.816C385.194 243.816 385.02 243.859 384.873 243.944C384.729 244.026 384.61 244.141 384.515 244.288C384.421 244.436 384.352 244.605 384.308 244.796C384.264 244.984 384.242 245.185 384.242 245.397ZM391.426 246.845V241.052H392.494V247.834H391.527L391.426 246.845ZM388.317 245.498V245.405C388.317 245.043 388.36 244.714 388.445 244.416C388.531 244.116 388.654 243.859 388.816 243.644C388.978 243.426 389.175 243.26 389.408 243.145C389.64 243.027 389.902 242.968 390.194 242.968C390.482 242.968 390.735 243.024 390.953 243.136C391.171 243.248 391.357 243.408 391.51 243.617C391.663 243.823 391.785 244.07 391.876 244.359C391.967 244.645 392.032 244.962 392.07 245.313V245.609C392.032 245.95 391.967 246.262 391.876 246.545C391.785 246.827 391.663 247.072 391.51 247.278C391.357 247.484 391.17 247.643 390.949 247.755C390.731 247.866 390.476 247.922 390.185 247.922C389.896 247.922 389.636 247.862 389.403 247.741C389.174 247.621 388.978 247.451 388.816 247.233C388.654 247.016 388.531 246.76 388.445 246.465C388.36 246.168 388.317 245.846 388.317 245.498ZM389.381 245.405V245.498C389.381 245.716 389.4 245.919 389.439 246.108C389.48 246.296 389.543 246.462 389.629 246.606C389.714 246.748 389.824 246.86 389.96 246.942C390.098 247.022 390.263 247.061 390.454 247.061C390.696 247.061 390.894 247.008 391.05 246.902C391.206 246.796 391.329 246.654 391.417 246.474C391.508 246.291 391.57 246.088 391.602 245.865V245.065C391.585 244.892 391.548 244.73 391.492 244.58C391.439 244.43 391.367 244.299 391.276 244.187C391.184 244.072 391.071 243.984 390.936 243.922C390.803 243.857 390.646 243.825 390.463 243.825C390.269 243.825 390.104 243.866 389.969 243.948C389.833 244.031 389.721 244.144 389.633 244.288C389.548 244.433 389.484 244.6 389.443 244.792C389.402 244.983 389.381 245.188 389.381 245.405ZM396.482 246.708V243.056H397.55V247.834H396.543L396.482 246.708ZM396.632 245.715L396.989 245.706C396.989 246.027 396.954 246.322 396.883 246.593C396.813 246.861 396.704 247.095 396.557 247.295C396.409 247.493 396.221 247.647 395.991 247.759C395.762 247.868 395.487 247.922 395.166 247.922C394.933 247.922 394.72 247.888 394.525 247.821C394.331 247.753 394.163 247.649 394.022 247.507C393.884 247.366 393.776 247.182 393.7 246.955C393.623 246.729 393.585 246.458 393.585 246.143V243.056H394.649V246.152C394.649 246.325 394.67 246.471 394.711 246.589C394.752 246.704 394.808 246.796 394.879 246.867C394.949 246.938 395.032 246.988 395.126 247.017C395.22 247.047 395.32 247.061 395.426 247.061C395.729 247.061 395.968 247.002 396.142 246.885C396.318 246.764 396.443 246.602 396.517 246.399C396.593 246.196 396.632 245.968 396.632 245.715ZM400.592 247.075C400.766 247.075 400.922 247.041 401.06 246.973C401.202 246.902 401.315 246.805 401.4 246.682C401.489 246.558 401.537 246.415 401.546 246.253H402.548C402.543 246.562 402.451 246.843 402.275 247.097C402.098 247.35 401.864 247.551 401.573 247.702C401.281 247.849 400.959 247.922 400.606 247.922C400.241 247.922 399.923 247.86 399.652 247.737C399.381 247.61 399.156 247.437 398.976 247.216C398.797 246.995 398.661 246.74 398.57 246.452C398.482 246.163 398.438 245.854 398.438 245.525V245.37C398.438 245.04 398.482 244.731 398.57 244.443C398.661 244.151 398.797 243.895 398.976 243.675C399.156 243.454 399.381 243.282 399.652 243.158C399.923 243.031 400.239 242.968 400.601 242.968C400.984 242.968 401.319 243.045 401.608 243.198C401.896 243.348 402.123 243.558 402.288 243.829C402.456 244.097 402.543 244.409 402.548 244.765H401.546C401.537 244.589 401.493 244.43 401.414 244.288C401.337 244.144 401.228 244.029 401.087 243.944C400.949 243.859 400.782 243.816 400.588 243.816C400.373 243.816 400.195 243.86 400.054 243.948C399.912 244.034 399.802 244.151 399.723 244.302C399.643 244.449 399.586 244.615 399.55 244.801C399.518 244.983 399.502 245.173 399.502 245.37V245.525C399.502 245.722 399.518 245.913 399.55 246.099C399.583 246.284 399.639 246.45 399.718 246.598C399.801 246.742 399.912 246.858 400.054 246.946C400.195 247.032 400.375 247.075 400.592 247.075ZM405.555 243.056V243.834H402.862V243.056H405.555ZM403.639 241.886H404.703V246.514C404.703 246.661 404.724 246.774 404.765 246.854C404.809 246.93 404.87 246.982 404.946 247.008C405.023 247.035 405.112 247.048 405.215 247.048C405.289 247.048 405.36 247.044 405.427 247.035C405.495 247.026 405.55 247.017 405.591 247.008L405.595 247.821C405.507 247.847 405.404 247.871 405.286 247.891C405.171 247.912 405.039 247.922 404.889 247.922C404.644 247.922 404.428 247.88 404.24 247.794C404.051 247.706 403.904 247.563 403.798 247.366C403.692 247.169 403.639 246.907 403.639 246.58V241.886ZM409.697 243.966V247.834H408.633V243.056H409.649L409.697 243.966ZM411.159 243.025L411.15 244.015C411.085 244.003 411.014 243.994 410.938 243.988C410.864 243.982 410.791 243.979 410.717 243.979C410.535 243.979 410.374 244.006 410.236 244.059C410.098 244.109 409.981 244.182 409.887 244.279C409.796 244.374 409.725 244.488 409.675 244.624C409.625 244.759 409.596 244.911 409.587 245.079L409.344 245.096C409.344 244.796 409.373 244.518 409.432 244.262C409.491 244.006 409.579 243.781 409.697 243.586C409.818 243.392 409.968 243.24 410.148 243.131C410.33 243.023 410.541 242.968 410.779 242.968C410.844 242.968 410.913 242.974 410.987 242.986C411.063 242.998 411.12 243.011 411.159 243.025ZM413.843 247.922C413.49 247.922 413.171 247.865 412.885 247.75C412.603 247.632 412.361 247.469 412.161 247.26C411.964 247.051 411.812 246.805 411.706 246.523C411.6 246.24 411.547 245.935 411.547 245.609V245.432C411.547 245.058 411.602 244.72 411.711 244.416C411.82 244.113 411.971 243.854 412.165 243.639C412.36 243.421 412.589 243.255 412.854 243.14C413.119 243.025 413.406 242.968 413.715 242.968C414.057 242.968 414.356 243.025 414.612 243.14C414.868 243.255 415.08 243.417 415.247 243.626C415.418 243.832 415.545 244.078 415.627 244.363C415.713 244.649 415.755 244.964 415.755 245.308V245.763H412.064V244.999H414.704V244.915C414.698 244.724 414.66 244.544 414.59 244.377C414.522 244.209 414.417 244.073 414.276 243.97C414.135 243.867 413.946 243.816 413.711 243.816C413.534 243.816 413.377 243.854 413.238 243.931C413.103 244.004 412.99 244.112 412.898 244.253C412.807 244.394 412.737 244.565 412.686 244.765C412.639 244.962 412.616 245.185 412.616 245.432V245.609C412.616 245.818 412.644 246.012 412.7 246.191C412.759 246.368 412.844 246.523 412.956 246.655C413.068 246.788 413.203 246.892 413.362 246.969C413.521 247.042 413.702 247.079 413.905 247.079C414.161 247.079 414.389 247.027 414.59 246.924C414.79 246.821 414.963 246.676 415.111 246.487L415.671 247.03C415.568 247.18 415.434 247.325 415.27 247.463C415.105 247.598 414.903 247.709 414.665 247.794C414.429 247.88 414.155 247.922 413.843 247.922ZM418.078 246.991L419.248 243.056H420.352L418.692 247.834H418.003L418.078 246.991ZM417.181 243.056L418.374 247.008L418.431 247.834H417.742L416.073 243.056H417.181ZM422.149 243.056V247.834H421.08V243.056H422.149ZM421.01 241.802C421.01 241.64 421.063 241.507 421.169 241.401C421.278 241.292 421.428 241.237 421.619 241.237C421.807 241.237 421.956 241.292 422.065 241.401C422.174 241.507 422.228 241.64 422.228 241.802C422.228 241.961 422.174 242.094 422.065 242.2C421.956 242.306 421.807 242.359 421.619 242.359C421.428 242.359 421.278 242.306 421.169 242.2C421.063 242.094 421.01 241.961 421.01 241.802ZM425.421 247.922C425.068 247.922 424.748 247.865 424.463 247.75C424.18 247.632 423.939 247.469 423.739 247.26C423.541 247.051 423.39 246.805 423.284 246.523C423.178 246.24 423.125 245.935 423.125 245.609V245.432C423.125 245.058 423.179 244.72 423.288 244.416C423.397 244.113 423.549 243.854 423.743 243.639C423.937 243.421 424.167 243.255 424.432 243.14C424.697 243.025 424.984 242.968 425.293 242.968C425.634 242.968 425.933 243.025 426.189 243.14C426.445 243.255 426.657 243.417 426.825 243.626C426.996 243.832 427.122 244.078 427.205 244.363C427.29 244.649 427.333 244.964 427.333 245.308V245.763H423.641V244.999H426.282V244.915C426.276 244.724 426.238 244.544 426.167 244.377C426.099 244.209 425.995 244.073 425.854 243.97C425.712 243.867 425.524 243.816 425.288 243.816C425.112 243.816 424.954 243.854 424.816 243.931C424.681 244.004 424.567 244.112 424.476 244.253C424.385 244.394 424.314 244.565 424.264 244.765C424.217 244.962 424.193 245.185 424.193 245.432V245.609C424.193 245.818 424.221 246.012 424.277 246.191C424.336 246.368 424.421 246.523 424.533 246.655C424.645 246.788 424.781 246.892 424.94 246.969C425.099 247.042 425.28 247.079 425.483 247.079C425.739 247.079 425.967 247.027 426.167 246.924C426.367 246.821 426.541 246.676 426.688 246.487L427.249 247.03C427.146 247.18 427.012 247.325 426.847 247.463C426.682 247.598 426.481 247.709 426.242 247.794C426.007 247.88 425.733 247.922 425.421 247.922ZM429.461 246.774L430.565 243.056H431.245L431.059 244.169L429.947 247.834H429.337L429.461 246.774ZM428.812 243.056L429.673 246.792L429.744 247.834H429.064L427.77 243.056H428.812ZM432.278 246.748L433.113 243.056H434.15L432.861 247.834H432.181L432.278 246.748ZM431.36 243.056L432.45 246.73L432.587 247.834H431.978L430.852 244.165L430.667 243.056H431.36Z" fill="#333945"/>
<path d="M375.876 171.025V177.454H374.767V171.025H375.876ZM378.498 173.838V174.716H375.593V173.838H378.498ZM378.865 171.025V171.908H375.593V171.025H378.865ZM381.651 177.542C381.298 177.542 380.978 177.485 380.693 177.37C380.41 177.252 380.169 177.089 379.969 176.88C379.772 176.671 379.62 176.425 379.514 176.143C379.408 175.86 379.355 175.555 379.355 175.229V175.052C379.355 174.678 379.409 174.34 379.518 174.036C379.627 173.733 379.779 173.474 379.973 173.259C380.167 173.042 380.397 172.875 380.662 172.76C380.927 172.646 381.214 172.588 381.523 172.588C381.864 172.588 382.163 172.646 382.419 172.76C382.675 172.875 382.887 173.037 383.055 173.246C383.226 173.452 383.353 173.698 383.435 173.983C383.52 174.269 383.563 174.584 383.563 174.928V175.383H379.872V174.619H382.512V174.535C382.506 174.344 382.468 174.165 382.397 173.997C382.33 173.829 382.225 173.694 382.084 173.591C381.942 173.487 381.754 173.436 381.519 173.436C381.342 173.436 381.184 173.474 381.046 173.551C380.911 173.624 380.797 173.732 380.706 173.873C380.615 174.014 380.544 174.185 380.494 174.385C380.447 174.583 380.424 174.805 380.424 175.052V175.229C380.424 175.438 380.452 175.632 380.507 175.812C380.566 175.988 380.652 176.143 380.764 176.275C380.875 176.408 381.011 176.512 381.17 176.589C381.329 176.662 381.51 176.699 381.713 176.699C381.969 176.699 382.197 176.648 382.397 176.545C382.597 176.441 382.771 176.296 382.918 176.107L383.479 176.65C383.376 176.801 383.242 176.945 383.077 177.083C382.912 177.219 382.711 177.329 382.472 177.414C382.237 177.5 381.963 177.542 381.651 177.542ZM386.499 177.542C386.146 177.542 385.827 177.485 385.541 177.37C385.259 177.252 385.017 177.089 384.817 176.88C384.62 176.671 384.468 176.425 384.362 176.143C384.256 175.86 384.203 175.555 384.203 175.229V175.052C384.203 174.678 384.258 174.34 384.367 174.036C384.476 173.733 384.627 173.474 384.821 173.259C385.016 173.042 385.245 172.875 385.51 172.76C385.775 172.646 386.062 172.588 386.371 172.588C386.713 172.588 387.012 172.646 387.268 172.76C387.524 172.875 387.736 173.037 387.903 173.246C388.074 173.452 388.201 173.698 388.283 173.983C388.369 174.269 388.411 174.584 388.411 174.928V175.383H384.72V174.619H387.36V174.535C387.354 174.344 387.316 174.165 387.246 173.997C387.178 173.829 387.073 173.694 386.932 173.591C386.791 173.487 386.602 173.436 386.367 173.436C386.19 173.436 386.033 173.474 385.894 173.551C385.759 173.624 385.646 173.732 385.554 173.873C385.463 174.014 385.392 174.185 385.342 174.385C385.295 174.583 385.272 174.805 385.272 175.052V175.229C385.272 175.438 385.3 175.632 385.356 175.812C385.415 175.988 385.5 176.143 385.612 176.275C385.724 176.408 385.859 176.512 386.018 176.589C386.177 176.662 386.358 176.699 386.561 176.699C386.817 176.699 387.045 176.648 387.246 176.545C387.446 176.441 387.619 176.296 387.767 176.107L388.327 176.65C388.224 176.801 388.09 176.945 387.926 177.083C387.761 177.219 387.559 177.329 387.321 177.414C387.085 177.5 386.811 177.542 386.499 177.542ZM392.156 176.465V170.672H393.224V177.454H392.257L392.156 176.465ZM389.047 175.118V175.026C389.047 174.663 389.09 174.334 389.175 174.036C389.26 173.736 389.384 173.479 389.546 173.264C389.708 173.046 389.905 172.88 390.138 172.765C390.37 172.647 390.632 172.588 390.924 172.588C391.212 172.588 391.465 172.644 391.683 172.756C391.901 172.868 392.086 173.028 392.239 173.237C392.393 173.443 392.515 173.691 392.606 173.979C392.697 174.265 392.762 174.583 392.8 174.933V175.229C392.762 175.57 392.697 175.882 392.606 176.165C392.515 176.447 392.393 176.692 392.239 176.898C392.086 177.104 391.9 177.263 391.679 177.375C391.461 177.486 391.206 177.542 390.915 177.542C390.626 177.542 390.366 177.482 390.133 177.361C389.904 177.241 389.708 177.071 389.546 176.854C389.384 176.636 389.26 176.38 389.175 176.085C389.09 175.788 389.047 175.466 389.047 175.118ZM390.111 175.026V175.118C390.111 175.336 390.13 175.539 390.169 175.728C390.21 175.916 390.273 176.082 390.358 176.227C390.444 176.368 390.554 176.48 390.69 176.562C390.828 176.642 390.993 176.681 391.184 176.681C391.426 176.681 391.624 176.628 391.78 176.522C391.936 176.416 392.058 176.274 392.147 176.094C392.238 175.912 392.3 175.708 392.332 175.485V174.686C392.315 174.512 392.278 174.35 392.222 174.2C392.169 174.05 392.097 173.919 392.005 173.807C391.914 173.692 391.801 173.604 391.665 173.542C391.533 173.477 391.376 173.445 391.193 173.445C390.999 173.445 390.834 173.486 390.698 173.568C390.563 173.651 390.451 173.764 390.363 173.908C390.278 174.053 390.214 174.22 390.173 174.412C390.132 174.603 390.111 174.808 390.111 175.026ZM394.341 170.672H395.405V176.434L395.304 177.454H394.341V170.672ZM398.523 175.021V175.114C398.523 175.467 398.483 175.792 398.404 176.09C398.327 176.384 398.209 176.64 398.05 176.858C397.894 177.076 397.7 177.245 397.467 177.366C397.238 177.484 396.971 177.542 396.668 177.542C396.371 177.542 396.112 177.486 395.891 177.375C395.67 177.263 395.485 177.104 395.335 176.898C395.188 176.692 395.068 176.446 394.977 176.16C394.886 175.875 394.821 175.56 394.783 175.215V174.92C394.821 174.572 394.886 174.257 394.977 173.975C395.068 173.689 395.188 173.443 395.335 173.237C395.485 173.028 395.669 172.868 395.887 172.756C396.107 172.644 396.365 172.588 396.659 172.588C396.966 172.588 397.235 172.647 397.467 172.765C397.703 172.883 397.899 173.05 398.055 173.268C398.211 173.483 398.327 173.739 398.404 174.036C398.483 174.334 398.523 174.662 398.523 175.021ZM397.459 175.114V175.021C397.459 174.806 397.441 174.605 397.406 174.416C397.37 174.225 397.311 174.057 397.229 173.913C397.15 173.769 397.041 173.655 396.902 173.573C396.767 173.487 396.598 173.445 396.395 173.445C396.206 173.445 396.044 173.477 395.909 173.542C395.773 173.607 395.66 173.695 395.569 173.807C395.478 173.919 395.405 174.048 395.352 174.195C395.302 174.343 395.269 174.502 395.251 174.672V175.472C395.277 175.692 395.333 175.895 395.419 176.081C395.507 176.263 395.631 176.411 395.79 176.522C395.949 176.631 396.153 176.686 396.403 176.686C396.601 176.686 396.767 176.646 396.902 176.567C397.038 176.487 397.145 176.377 397.225 176.235C397.307 176.091 397.366 175.923 397.401 175.732C397.44 175.541 397.459 175.335 397.459 175.114ZM402.117 176.496V174.218C402.117 174.047 402.086 173.9 402.024 173.776C401.962 173.652 401.868 173.557 401.742 173.489C401.618 173.421 401.462 173.387 401.274 173.387C401.1 173.387 400.95 173.417 400.823 173.476C400.697 173.535 400.598 173.614 400.527 173.714C400.457 173.814 400.421 173.928 400.421 174.054H399.362C399.362 173.866 399.407 173.683 399.499 173.507C399.59 173.33 399.722 173.173 399.896 173.034C400.07 172.896 400.277 172.787 400.519 172.707C400.76 172.628 401.031 172.588 401.331 172.588C401.69 172.588 402.008 172.649 402.285 172.769C402.564 172.89 402.784 173.072 402.943 173.317C403.105 173.558 403.186 173.861 403.186 174.226V176.35C403.186 176.568 403.2 176.764 403.23 176.937C403.262 177.108 403.308 177.257 403.367 177.383V177.454H402.276C402.226 177.339 402.186 177.194 402.157 177.017C402.13 176.837 402.117 176.664 402.117 176.496ZM402.272 174.549L402.28 175.207H401.517C401.319 175.207 401.146 175.226 400.995 175.264C400.845 175.299 400.72 175.352 400.62 175.423C400.52 175.494 400.445 175.579 400.395 175.679C400.345 175.779 400.32 175.892 400.32 176.019C400.32 176.146 400.349 176.262 400.408 176.368C400.467 176.471 400.552 176.552 400.664 176.611C400.779 176.67 400.917 176.699 401.079 176.699C401.297 176.699 401.487 176.655 401.649 176.567C401.814 176.475 401.943 176.365 402.038 176.235C402.132 176.103 402.182 175.978 402.188 175.86L402.532 176.333C402.497 176.453 402.436 176.583 402.351 176.721C402.266 176.859 402.154 176.992 402.015 177.119C401.88 177.242 401.717 177.344 401.525 177.423C401.337 177.503 401.119 177.542 400.872 177.542C400.56 177.542 400.282 177.481 400.037 177.357C399.793 177.23 399.602 177.061 399.463 176.849C399.325 176.634 399.256 176.391 399.256 176.121C399.256 175.867 399.303 175.644 399.397 175.449C399.494 175.252 399.636 175.087 399.821 174.955C400.009 174.822 400.239 174.722 400.51 174.655C400.781 174.584 401.09 174.549 401.437 174.549H402.272ZM406.25 176.695C406.424 176.695 406.58 176.661 406.718 176.593C406.859 176.522 406.973 176.425 407.058 176.302C407.146 176.178 407.195 176.035 407.204 175.873H408.206C408.2 176.182 408.109 176.464 407.932 176.717C407.756 176.97 407.522 177.172 407.23 177.322C406.939 177.469 406.616 177.542 406.263 177.542C405.898 177.542 405.58 177.481 405.309 177.357C405.039 177.23 404.813 177.057 404.634 176.836C404.454 176.615 404.319 176.361 404.228 176.072C404.139 175.784 404.095 175.474 404.095 175.145V174.99C404.095 174.661 404.139 174.351 404.228 174.063C404.319 173.772 404.454 173.515 404.634 173.295C404.813 173.074 405.039 172.902 405.309 172.778C405.58 172.651 405.897 172.588 406.259 172.588C406.641 172.588 406.977 172.665 407.266 172.818C407.554 172.968 407.781 173.178 407.946 173.449C408.113 173.717 408.2 174.029 408.206 174.385H407.204C407.195 174.209 407.151 174.05 407.071 173.908C406.995 173.764 406.886 173.649 406.744 173.564C406.606 173.479 406.44 173.436 406.246 173.436C406.031 173.436 405.853 173.48 405.711 173.568C405.57 173.654 405.46 173.772 405.38 173.922C405.301 174.069 405.243 174.235 405.208 174.421C405.176 174.603 405.159 174.793 405.159 174.99V175.145C405.159 175.342 405.176 175.533 405.208 175.719C405.24 175.904 405.296 176.071 405.376 176.218C405.458 176.362 405.57 176.478 405.711 176.567C405.853 176.652 406.032 176.695 406.25 176.695ZM410.096 170.672V177.454H409.027V170.672H410.096ZM413.063 172.677L410.983 174.981L409.844 176.147L409.566 175.246L410.427 174.182L411.778 172.677H413.063ZM412.008 177.454L410.458 175.211L411.129 174.465L413.24 177.454H412.008Z" fill="#333945"/>
<path d="M192.835 247.95C192.835 247.817 192.814 247.699 192.773 247.596C192.735 247.493 192.665 247.399 192.565 247.314C192.465 247.228 192.324 247.146 192.141 247.067C191.962 246.984 191.732 246.9 191.453 246.815C191.146 246.721 190.864 246.616 190.605 246.501C190.349 246.384 190.125 246.248 189.934 246.095C189.742 245.939 189.594 245.761 189.488 245.561C189.382 245.358 189.329 245.124 189.329 244.859C189.329 244.597 189.383 244.358 189.492 244.143C189.604 243.929 189.761 243.743 189.965 243.587C190.171 243.428 190.413 243.306 190.693 243.221C190.973 243.132 191.282 243.088 191.62 243.088C192.097 243.088 192.508 243.176 192.852 243.353C193.2 243.53 193.466 243.767 193.651 244.064C193.84 244.361 193.934 244.69 193.934 245.049H192.835C192.835 244.837 192.789 244.65 192.698 244.488C192.609 244.323 192.474 244.194 192.292 244.099C192.112 244.005 191.884 243.958 191.607 243.958C191.345 243.958 191.127 243.998 190.954 244.077C190.78 244.157 190.65 244.264 190.565 244.4C190.48 244.535 190.437 244.688 190.437 244.859C190.437 244.979 190.465 245.09 190.521 245.19C190.577 245.287 190.662 245.378 190.777 245.464C190.892 245.546 191.036 245.624 191.21 245.698C191.383 245.771 191.588 245.842 191.823 245.91C192.18 246.016 192.49 246.133 192.755 246.263C193.02 246.389 193.241 246.534 193.417 246.696C193.594 246.858 193.727 247.042 193.815 247.248C193.903 247.451 193.947 247.682 193.947 247.941C193.947 248.212 193.893 248.456 193.784 248.674C193.675 248.889 193.519 249.073 193.316 249.226C193.116 249.376 192.874 249.492 192.592 249.575C192.312 249.654 192 249.694 191.656 249.694C191.347 249.694 191.042 249.653 190.742 249.57C190.444 249.488 190.174 249.363 189.929 249.195C189.685 249.024 189.491 248.812 189.346 248.559C189.202 248.303 189.13 248.004 189.13 247.663H190.238C190.238 247.872 190.274 248.05 190.344 248.197C190.418 248.344 190.519 248.465 190.649 248.559C190.778 248.65 190.929 248.718 191.099 248.762C191.273 248.806 191.458 248.828 191.656 248.828C191.915 248.828 192.131 248.792 192.305 248.718C192.481 248.644 192.614 248.541 192.702 248.409C192.79 248.276 192.835 248.123 192.835 247.95ZM197.515 248.647V246.369C197.515 246.198 197.484 246.051 197.422 245.927C197.361 245.804 197.266 245.708 197.14 245.64C197.016 245.573 196.86 245.539 196.672 245.539C196.498 245.539 196.348 245.568 196.221 245.627C196.095 245.686 195.996 245.765 195.925 245.866C195.855 245.966 195.82 246.079 195.82 246.206H194.76C194.76 246.017 194.805 245.835 194.897 245.658C194.988 245.481 195.12 245.324 195.294 245.186C195.468 245.047 195.675 244.938 195.917 244.859C196.158 244.779 196.429 244.74 196.729 244.74C197.088 244.74 197.406 244.8 197.683 244.921C197.963 245.041 198.182 245.224 198.341 245.468C198.503 245.71 198.584 246.013 198.584 246.378V248.502C198.584 248.719 198.598 248.915 198.628 249.089C198.66 249.26 198.706 249.408 198.765 249.535V249.605H197.674C197.624 249.491 197.584 249.345 197.555 249.168C197.528 248.989 197.515 248.815 197.515 248.647ZM197.67 246.7L197.678 247.358H196.915C196.717 247.358 196.544 247.377 196.394 247.415C196.243 247.451 196.118 247.504 196.018 247.574C195.918 247.645 195.843 247.73 195.793 247.83C195.743 247.931 195.718 248.044 195.718 248.17C195.718 248.297 195.747 248.413 195.806 248.519C195.865 248.622 195.951 248.703 196.062 248.762C196.177 248.821 196.316 248.85 196.477 248.85C196.695 248.85 196.885 248.806 197.047 248.718C197.212 248.627 197.341 248.516 197.436 248.387C197.53 248.254 197.58 248.129 197.586 248.011L197.93 248.484C197.895 248.605 197.834 248.734 197.749 248.872C197.664 249.011 197.552 249.143 197.414 249.27C197.278 249.394 197.115 249.495 196.923 249.575C196.735 249.654 196.517 249.694 196.27 249.694C195.958 249.694 195.68 249.632 195.435 249.508C195.191 249.382 195 249.212 194.861 249.001C194.723 248.786 194.654 248.543 194.654 248.272C194.654 248.019 194.701 247.795 194.795 247.601C194.892 247.404 195.034 247.239 195.219 247.106C195.407 246.974 195.637 246.874 195.908 246.806C196.179 246.735 196.488 246.7 196.835 246.7H197.67ZM200.836 242.823V249.605H199.767V242.823H200.836ZM204.107 249.694C203.754 249.694 203.435 249.636 203.149 249.522C202.867 249.404 202.625 249.24 202.425 249.031C202.228 248.822 202.076 248.577 201.97 248.294C201.864 248.011 201.811 247.707 201.811 247.38V247.203C201.811 246.83 201.866 246.491 201.975 246.188C202.084 245.885 202.235 245.626 202.43 245.411C202.624 245.193 202.853 245.027 203.118 244.912C203.383 244.797 203.67 244.74 203.979 244.74C204.321 244.74 204.62 244.797 204.876 244.912C205.132 245.027 205.344 245.188 205.512 245.397C205.682 245.604 205.809 245.849 205.891 246.135C205.977 246.42 206.019 246.735 206.019 247.08V247.535H202.328V246.771H204.968V246.687C204.963 246.495 204.924 246.316 204.854 246.148C204.786 245.98 204.681 245.845 204.54 245.742C204.399 245.639 204.21 245.587 203.975 245.587C203.798 245.587 203.641 245.626 203.503 245.702C203.367 245.776 203.254 245.883 203.163 246.024C203.071 246.166 203.001 246.337 202.951 246.537C202.903 246.734 202.88 246.956 202.88 247.203V247.38C202.88 247.589 202.908 247.783 202.964 247.963C203.023 248.14 203.108 248.294 203.22 248.427C203.332 248.559 203.467 248.663 203.626 248.74C203.785 248.814 203.966 248.85 204.169 248.85C204.425 248.85 204.654 248.799 204.854 248.696C205.054 248.593 205.228 248.447 205.375 248.259L205.935 248.802C205.832 248.952 205.699 249.096 205.534 249.235C205.369 249.37 205.167 249.48 204.929 249.566C204.693 249.651 204.419 249.694 204.107 249.694ZM209.53 248.312C209.53 248.206 209.503 248.11 209.45 248.025C209.397 247.936 209.296 247.857 209.146 247.786C208.998 247.716 208.781 247.651 208.492 247.592C208.239 247.536 208.006 247.47 207.794 247.393C207.585 247.314 207.406 247.218 207.256 247.106C207.106 246.994 206.989 246.862 206.907 246.709C206.824 246.556 206.783 246.379 206.783 246.179C206.783 245.985 206.826 245.801 206.911 245.627C206.997 245.453 207.119 245.3 207.278 245.168C207.437 245.035 207.63 244.931 207.856 244.854C208.086 244.778 208.342 244.74 208.625 244.74C209.025 244.74 209.368 244.807 209.653 244.943C209.942 245.075 210.163 245.256 210.316 245.486C210.469 245.712 210.545 245.969 210.545 246.254H209.481C209.481 246.128 209.449 246.01 209.384 245.901C209.322 245.789 209.228 245.699 209.101 245.631C208.975 245.561 208.816 245.526 208.625 245.526C208.442 245.526 208.29 245.555 208.17 245.614C208.052 245.67 207.964 245.743 207.905 245.835C207.849 245.926 207.821 246.026 207.821 246.135C207.821 246.214 207.836 246.286 207.865 246.351C207.897 246.413 207.95 246.47 208.024 246.523C208.098 246.573 208.198 246.621 208.324 246.665C208.454 246.709 208.616 246.752 208.81 246.793C209.175 246.869 209.489 246.968 209.75 247.089C210.015 247.206 210.219 247.359 210.36 247.548C210.501 247.733 210.572 247.969 210.572 248.254C210.572 248.466 210.526 248.661 210.435 248.837C210.347 249.011 210.217 249.162 210.046 249.292C209.876 249.419 209.671 249.517 209.433 249.588C209.197 249.658 208.932 249.694 208.638 249.694C208.205 249.694 207.839 249.617 207.538 249.464C207.238 249.308 207.01 249.109 206.854 248.868C206.701 248.624 206.624 248.371 206.624 248.109H207.653C207.665 248.306 207.719 248.463 207.816 248.581C207.917 248.696 208.04 248.78 208.187 248.833C208.338 248.883 208.492 248.908 208.651 248.908C208.842 248.908 209.003 248.883 209.132 248.833C209.262 248.78 209.36 248.709 209.428 248.621C209.496 248.53 209.53 248.427 209.53 248.312Z" fill="#333945"/>
<path d="M188.595 288.571L192.86 285.275L197.126 286.923L202.047 283.392L206.313 285.275L211.234 284.333L215.828 286.923L220.421 283.392L225.015 284.333L229.609 281.273L234.202 283.392L238.796 281.273L243.389 285.746L247.983 280.331L252.576 283.392L257.17 278.448L261.763 281.273L266.357 277.035L270.951 277.741L275.544 274.681L280.138 280.331L284.731 278.448L288.997 283.392L293.918 280.331L298.184 282.214L302.777 278.448L307.699 281.273L312.293 277.035L316.886 278.918L321.48 274.681L325.854 281.273L329.73 273.033H335.26L339.526 268.324L344.119 273.033L349.041 263.38L353.306 267.147" stroke="#44DD94" stroke-width="0.645928"/>
<path d="M188.595 288.572L192.86 284.008L196.669 284.696L202.482 285.342L206.313 284.008L211.234 282.704L215.724 284.008L220.421 281.4L225.015 282.704L229.611 284.008L234.202 281.4L238.008 279.77L243.176 281.4L248.02 278.466L252.576 281.4L257.17 274.554L261.763 278.466L266.752 279.77L270.951 272.598H275.472L280.138 277.162L284.731 274.554L290.005 277.914L294.527 282.112L298.184 279.77L302.777 274.554L307.699 278.466L312.293 272.598L316.886 275.206L321.48 269.339L325.854 272.598L329.73 267.057H335.26L339.526 260.537L344.586 262.088L349.041 253.691L353.306 258.907" stroke="#027FC2" stroke-width="0.645928"/>
</g>
</g>
<g filter="url(#filter1_ddd_9908_64019)">
<g clip-path="url(#clip1_9908_64019)">
<rect x="52" y="12" width="377.222" height="233.18" rx="5.16743" fill="white"/>
<path d="M179.894 200.813V127.621" stroke="#F2F2F2" stroke-width="0.645928"/>
<path d="M195.396 200.813V127.621" stroke="#F2F2F2" stroke-width="0.645928"/>
<path d="M210.252 200.813V127.621" stroke="#F2F2F2" stroke-width="0.645928"/>
<path d="M225.108 200.813V127.621" stroke="#F2F2F2" stroke-width="0.645928"/>
<path d="M239.964 200.813V127.621" stroke="#F2F2F2" stroke-width="0.645928"/>
<path d="M254.821 200.813V127.621" stroke="#F2F2F2" stroke-width="0.645928"/>
<path d="M269.677 200.813V127.621" stroke="#F2F2F2" stroke-width="0.645928"/>
<path d="M307.788 201.257V128.064" stroke="#F2F2F2" stroke-width="0.645928"/>
<path d="M323.29 201.257V128.064" stroke="#F2F2F2" stroke-width="0.645928"/>
<path d="M338.146 201.257V128.064" stroke="#F2F2F2" stroke-width="0.645928"/>
<path d="M353.002 201.257V128.064" stroke="#F2F2F2" stroke-width="0.645928"/>
<path d="M367.859 201.257V128.064" stroke="#F2F2F2" stroke-width="0.645928"/>
<path d="M382.715 201.257V128.064" stroke="#F2F2F2" stroke-width="0.645928"/>
<path d="M397.572 201.257V128.064" stroke="#F2F2F2" stroke-width="0.645928"/>
<path d="M52 17.1674C52 14.3135 54.3135 12 57.1674 12H151.473V245.18H57.1674C54.3135 245.18 52 242.866 52 240.013V17.1674Z" fill="#12030B"/>
<path d="M71.6778 29.5775C71.3535 29.2885 70.9177 28.9821 70.4261 28.9821C69.8458 28.9821 69.7064 29.3181 69.7064 29.5578C69.7064 29.9605 70.1803 30.0766 70.5249 30.1532C71.5385 30.3829 72.6711 30.8153 72.6711 32.3989C72.6711 33.733 71.6956 34.6075 70.0815 34.6075C69.1946 34.6075 68.4952 34.3185 67.502 33.5328L68.4167 32.1024C68.9589 32.6113 69.5595 32.9943 70.1296 32.9943C70.4843 32.9943 70.8087 32.8312 70.8087 32.4285C70.8087 31.8134 70.2183 31.7368 69.4885 31.5169C68.9361 31.3539 67.844 30.9783 67.844 29.5405C67.844 28.4559 68.6523 27.5146 70.2664 27.5146C71.0197 27.5153 71.7537 27.747 72.3645 28.1768L71.6778 29.5775Z" fill="#5D7624"/>
<path d="M75.3317 27.6943H77.6756L80.1284 34.4166H78.0607L77.6756 33.2555H75.3317L74.9466 34.4166H72.8789L75.3317 27.6943ZM75.7169 31.7756H77.2929L76.5049 29.3051L75.7169 31.7756Z" fill="#5D7624"/>
<path d="M87.5933 30.516C87.7302 32.0996 87.269 34.6072 84.1675 34.6072C82.0695 34.6072 80.3667 33.3719 80.3667 31.1015C80.3667 28.9028 81.8135 27.502 84.0206 27.502C86.1769 27.502 86.9751 28.6928 87.2209 29.135L85.5181 29.9132C85.378 29.6612 85.1681 29.4527 84.9122 29.3116C84.6564 29.1704 84.3649 29.1024 84.0712 29.1152C83.1641 29.1152 82.2975 29.7402 82.2975 31.0645C82.2975 32.3887 83.154 33.1298 84.1396 33.1298C84.4918 33.1481 84.8391 33.0443 85.1202 32.8367C85.4013 32.6291 85.5979 32.3313 85.6752 31.9958H83.8913V30.5135L87.5933 30.516Z" fill="#5D7624"/>
<path d="M88.5483 27.6943H92.6862V29.3076H90.4792V30.2488H92.4784V31.7312H90.4792V32.8058H92.6862V34.4191H88.5483V27.6943Z" fill="#5D7624"/>
<path d="M94.2423 27.6943H96.1731L97.3843 31.7954L98.5956 27.6943H100.526L101.54 34.4166H99.6827L99.1758 30.5181L98.0127 34.4166H96.7711L95.6081 30.5181L95.1013 34.4166H93.249L94.2423 27.6943Z" fill="#5D7624"/>
<path d="M104.051 27.6943H106.395L108.848 34.4166H106.777L106.392 33.2555H104.048L103.663 34.4166H101.596L104.051 27.6943ZM104.436 31.7756H106.017L105.229 29.3051L104.436 31.7756Z" fill="#5D7624"/>
<path d="M109.4 27.6943H111.339V34.4166H109.408L109.4 27.6943Z" fill="#5D7624"/>
<path d="M112.572 27.6943H114.503V32.8009H116.571V34.4141H112.572V27.6943Z" fill="#5D7624"/>
<path d="M117.329 27.6943H121.475V29.3076H119.268V30.2488H121.267V31.7312H119.268V32.8058H121.475V34.4191H117.329V27.6943Z" fill="#5D7624"/>
<path d="M122.487 27.6943H125.343C127.646 27.6943 127.725 29.4039 127.725 29.7103C127.754 30.155 127.627 30.5961 127.366 30.9621C127.106 31.328 126.726 31.5973 126.288 31.7262L128.219 34.4141H125.885L124.428 32.1907V34.4141H122.487V27.6943ZM124.889 30.7182C125.579 30.7182 125.797 30.3353 125.797 29.94C125.797 29.5447 125.581 29.1717 124.889 29.1717H124.415V30.7182H124.889Z" fill="#5D7624"/>
<rect x="67.502" y="50.1094" width="45.215" height="6.45928" rx="3.22964" fill="#8B8187"/>
<rect x="166.975" y="27.502" width="186.027" height="6.45928" rx="3.22964" fill="#D7D7D7" fill-opacity="0.6"/>
<rect x="400.801" y="216.76" width="105.932" height="6.45927" rx="3.22964" transform="rotate(-180 400.801 216.76)" fill="#D7D7D7" fill-opacity="0.6"/>
<rect x="272.907" y="216.76" width="105.932" height="6.45927" rx="3.22964" transform="rotate(-180 272.907 216.76)" fill="#D7D7D7" fill-opacity="0.6"/>
<rect x="368.505" y="27.502" width="32.2964" height="6.45928" rx="3.22964" fill="#D7D7D7" fill-opacity="0.6"/>
<rect x="67.502" y="95.3252" width="45.215" height="6.45928" rx="3.22964" fill="#8B8187"/>
<rect x="67.502" y="140.54" width="45.215" height="6.45928" rx="3.22964" fill="#8B8187"/>
<rect x="67.502" y="61.7363" width="45.215" height="6.45928" rx="3.22964" fill="#8B8187"/>
<rect x="67.502" y="106.951" width="45.215" height="6.45928" rx="3.22964" fill="#8B8187"/>
<rect x="67.502" y="152.166" width="45.215" height="6.45928" rx="3.22964" fill="#8B8187"/>
<rect x="67.502" y="73.3633" width="45.215" height="6.45928" rx="3.22964" fill="#8B8187"/>
<rect x="67.502" y="118.578" width="45.215" height="6.45928" rx="3.22964" fill="#8B8187"/>
<rect x="67.502" y="163.793" width="45.215" height="6.45928" rx="3.22964" fill="#8B8187"/>
<rect x="166.975" y="50.7568" width="233.826" height="32.2964" rx="5.16743" fill="#E6E6E6" fill-opacity="0.6"/>
<path fill-rule="evenodd" clip-rule="evenodd" d="M183.592 62.0605C182.703 62.0605 181.982 62.7813 181.982 63.6703V69.8167C181.982 70.7058 182.703 71.4265 183.592 71.4265H192.665C193.555 71.4265 194.275 70.7058 194.275 69.8167V63.6703C194.275 62.7813 193.555 62.0605 192.665 62.0605H183.592ZM182.86 63.6703C182.86 63.2662 183.188 62.9386 183.592 62.9386H192.665C193.07 62.9386 193.397 63.2662 193.397 63.6703V64.696L188.271 66.8545L182.86 64.6903V63.6703ZM182.86 65.636V69.8167C182.86 70.2208 183.188 70.5484 183.592 70.5484H192.665C193.07 70.5484 193.397 70.2208 193.397 69.8167V65.6488L188.279 67.8036L182.86 65.636Z" fill="#79808D"/>
<g clip-path="url(#clip2_9908_64019)">
<path fill-rule="evenodd" clip-rule="evenodd" d="M235.383 59.9628L235.125 59.9482L233.063 62.6834L231.494 64.7917C231.247 64.5987 230.936 64.4836 230.599 64.4836C229.796 64.4836 229.146 65.1343 229.146 65.937V70.7814C229.146 71.5841 229.796 72.2348 230.599 72.2348C231.055 72.2348 231.462 72.0248 231.728 71.6962C231.855 71.7909 231.991 71.8683 232.126 71.9304C232.632 72.1635 233.214 72.2347 233.597 72.2347H238.197C238.763 72.2347 239.172 71.9369 239.432 71.6177C239.685 71.3059 239.828 70.9422 239.886 70.6901L239.891 70.6683L239.895 70.6461C240.03 69.6516 240.328 67.3918 240.437 66.3435C240.509 65.6573 240.247 65.1644 239.846 64.8654C239.478 64.5912 239.035 64.5096 238.738 64.5096H236.361C236.59 63.8812 236.922 62.9298 237.109 62.0326C237.263 61.2941 237.147 60.7051 236.685 60.3393C236.291 60.0275 235.75 59.9836 235.383 59.9628ZM232.052 70.451C232.052 70.7055 232.198 70.8969 232.532 71.0505C232.871 71.2071 233.304 71.2658 233.597 71.2658H238.197C238.388 71.2658 238.544 71.1738 238.68 71.0058C238.817 70.8384 238.903 70.6295 238.938 70.4911C239.075 69.4815 239.367 67.2652 239.474 66.2431C239.511 65.8898 239.389 65.7331 239.267 65.6423C239.112 65.5268 238.892 65.4784 238.738 65.4784H235.015L235.211 64.8496C235.254 64.7137 235.323 64.5243 235.407 64.2956L235.407 64.2955C235.634 63.6734 235.968 62.7594 236.161 61.8351C236.277 61.2743 236.137 61.1413 236.084 61.0991C235.991 61.0253 235.832 60.9787 235.582 60.9508L233.837 63.2666L232.052 65.664V65.937V70.451ZM231.083 65.937C231.083 65.6694 230.866 65.4525 230.599 65.4525C230.331 65.4525 230.114 65.6694 230.114 65.937V70.7814C230.114 71.049 230.331 71.2659 230.599 71.2659C230.866 71.2659 231.083 71.049 231.083 70.7814V70.451V65.937Z" fill="#79808D"/>
</g>
<path fill-rule="evenodd" clip-rule="evenodd" d="M281.89 73.8344L281.632 73.849L279.57 71.1138L278.001 69.0056C277.754 69.1986 277.444 69.3137 277.106 69.3137C276.304 69.3137 275.653 68.663 275.653 67.8603L275.653 63.0159C275.653 62.2132 276.304 61.5625 277.106 61.5625C277.562 61.5625 277.969 61.7725 278.235 62.101C278.363 62.0063 278.499 61.9289 278.633 61.8669C279.139 61.6337 279.721 61.5625 280.104 61.5625L284.704 61.5625C285.271 61.5625 285.679 61.8603 285.939 62.1795C286.193 62.4913 286.335 62.855 286.394 63.1071L286.399 63.1289L286.402 63.1511C286.537 64.1456 286.836 66.4054 286.945 67.4538C287.016 68.1399 286.755 68.6328 286.353 68.9318C285.985 69.206 285.543 69.2877 285.245 69.2877L282.869 69.2877C283.097 69.916 283.43 70.8674 283.617 71.7646C283.77 72.5031 283.654 73.0921 283.192 73.4579C282.798 73.7697 282.257 73.8136 281.89 73.8344ZM278.56 63.3453C278.56 63.3456 278.56 63.3459 278.56 63.3462L278.56 67.8603C278.56 67.861 278.56 67.8616 278.56 67.8623L278.56 68.1332L280.344 70.5306L282.09 72.8464C282.339 72.8185 282.498 72.7719 282.591 72.6981C282.644 72.6559 282.785 72.5229 282.668 71.9621C282.476 71.0378 282.141 70.1238 281.914 69.5016C281.83 69.2729 281.761 69.0835 281.719 68.9477L281.522 68.3188L285.245 68.3188C285.399 68.3188 285.619 68.2704 285.774 68.1549C285.896 68.0641 286.018 67.9074 285.981 67.5541C285.875 66.532 285.582 64.3157 285.445 63.3061C285.41 63.1677 285.324 62.9588 285.188 62.7914C285.051 62.6234 284.895 62.5314 284.704 62.5314L280.104 62.5314C279.811 62.5314 279.379 62.5901 279.039 62.7468C278.706 62.9001 278.56 63.0913 278.56 63.3453ZM277.591 63.3447L277.591 63.0159C277.591 62.7483 277.374 62.5314 277.106 62.5314C276.839 62.5314 276.622 62.7483 276.622 63.0159L276.622 67.8603C276.622 68.1279 276.839 68.3448 277.106 68.3448C277.373 68.3448 277.59 68.1285 277.591 67.8615L277.591 63.3462C277.591 63.3457 277.591 63.3452 277.591 63.3447Z" fill="#79808D"/>
<path fill-rule="evenodd" clip-rule="evenodd" d="M326.358 73.0717C327.081 73.0717 327.693 72.5964 327.899 71.9413H329.662C329.867 72.5964 330.479 73.0717 331.203 73.0717C332.094 73.0717 332.817 72.3487 332.817 71.4568C332.817 70.565 332.094 69.842 331.203 69.842C330.479 69.842 329.867 70.3172 329.662 70.9724H327.899C327.693 70.3172 327.081 69.842 326.358 69.842C325.635 69.842 325.023 70.3172 324.817 70.9724H324.42C324.252 70.9724 323.961 70.927 323.725 70.756C323.517 70.6053 323.29 70.3142 323.29 69.6805C323.29 69.0746 323.533 68.7773 323.808 68.6062C324.117 68.4136 324.519 68.3531 324.826 68.3531H331.638C331.968 68.3531 332.265 68.1519 332.387 67.8452L334.074 63.6225C334.276 63.1193 333.934 62.5648 333.394 62.5185L324.526 61.7587C324.396 61.236 324.155 60.7944 323.733 60.4981C323.223 60.1405 322.554 60.0703 321.783 60.156C321.517 60.1856 321.326 60.4251 321.355 60.691C321.385 60.9569 321.624 61.1485 321.89 61.119C322.572 61.0432 322.953 61.1345 323.176 61.2912C323.387 61.4393 323.558 61.7178 323.642 62.276L324.283 67.428C323.967 67.4793 323.616 67.5841 323.296 67.7837C322.736 68.1321 322.321 68.7407 322.321 69.6805C322.321 70.5926 322.672 71.1896 323.156 71.5406C323.613 71.8713 324.129 71.9413 324.42 71.9413H324.817C325.023 72.5964 325.635 73.0717 326.358 73.0717ZM326.358 72.1028C326.715 72.1028 327.004 71.8136 327.004 71.4568C327.004 71.1001 326.715 70.8109 326.358 70.8109C326.001 70.8109 325.712 71.1001 325.712 71.4568C325.712 71.8136 326.001 72.1028 326.358 72.1028ZM324.676 62.744L325.254 67.3842L331.528 67.3842L333.094 63.4653L324.676 62.744ZM331.848 71.4568C331.848 71.8136 331.559 72.1028 331.203 72.1028C330.846 72.1028 330.557 71.8136 330.557 71.4568C330.557 71.1001 330.846 70.8109 331.203 70.8109C331.559 70.8109 331.848 71.1001 331.848 71.4568Z" fill="#79808D"/>
<path d="M374.964 61.5762C374.964 61.3087 374.747 61.0918 374.48 61.0918C374.212 61.0918 373.995 61.3087 373.995 61.5762V62.3924C372.98 62.4491 372.297 62.7746 371.858 63.1959C371.39 63.6455 371.233 64.1745 371.233 64.4821C371.233 65.1005 371.396 65.6566 371.906 66.1352C372.38 66.5803 373.119 66.9234 374.173 67.2505C375.207 67.5717 375.787 67.8376 376.13 68.1029C376.402 68.3135 376.525 68.6343 376.551 68.968C376.551 69.3028 376.495 69.5905 376.231 69.854C375.906 70.177 375.45 70.495 374.481 70.4542C373.44 70.4105 372.849 70.1667 372.519 69.8677C372.203 69.5807 372.057 69.1773 372.057 68.6325C372.057 68.365 371.84 68.1481 371.573 68.1481C371.305 68.1481 371.088 68.365 371.088 68.6325C371.088 69.3559 371.289 70.0592 371.868 70.585C372.359 71.0303 373.064 71.2963 373.995 71.3908V72.2341C373.995 72.5016 374.212 72.7185 374.48 72.7185C374.747 72.7185 374.964 72.5016 374.964 72.2341V71.4152C375.903 71.3464 376.554 70.9741 376.972 70.4777C377.442 69.9185 377.577 69.1834 377.544 68.7607C377.498 68.1721 377.23 67.6623 376.699 67.2505C376.207 66.8703 375.505 66.6497 374.46 66.3252C373.435 66.0068 372.875 65.7158 372.569 65.4288C372.299 65.1754 372.203 64.98 372.203 64.6141V64.517C372.203 64.4955 372.204 64.4753 372.212 64.4261C372.221 64.3876 372.238 64.3187 372.263 64.2621C372.311 64.1495 372.392 64.0271 372.529 63.895C372.796 63.6387 373.316 63.3525 374.316 63.3525C375.297 63.3525 375.845 63.6736 376.151 64.014C376.472 64.3697 376.575 64.7968 376.575 65.0586C376.575 65.3261 376.792 65.543 377.06 65.543C377.327 65.543 377.544 65.3261 377.544 65.0586C377.544 64.5902 377.373 63.922 376.871 63.3651C376.452 62.901 375.831 62.5442 374.964 62.4259V61.5762Z" fill="#79808D"/>
<path d="M211.544 57.2158V77.2396" stroke="#79808D" stroke-width="0.645928"/>
<path d="M258.051 57.2158V77.2396" stroke="#79808D" stroke-width="0.645928"/>
<path d="M304.558 57.2158V77.2396" stroke="#79808D" stroke-width="0.645928"/>
<path d="M351.064 57.2158V77.2396" stroke="#79808D" stroke-width="0.645928"/>
<path d="M171.837 114.427V115.306H168.423V114.427H171.837ZM168.737 108.877V115.306H167.629V108.877H168.737ZM171.391 111.561V112.427H168.423V111.561H171.391ZM171.815 108.877V109.76H168.423V108.877H171.815ZM173.192 108.877H174.181L176.04 113.835L177.895 108.877H178.884L176.429 115.306H175.643L173.192 108.877ZM172.742 108.877H173.682L173.846 113.169V115.306H172.742V108.877ZM178.394 108.877H179.339V115.306H178.23V113.169L178.394 108.877ZM183.237 109.733L181.317 115.306H180.155L182.575 108.877H183.317L183.237 109.733ZM184.845 115.306L182.92 109.733L182.836 108.877H183.582L186.01 115.306H184.845ZM184.752 112.921V113.8H181.255V112.921H184.752ZM187.914 108.877V115.306H186.805V108.877H187.914ZM193.318 114.427V115.306H190.09V114.427H193.318ZM190.399 108.877V115.306H189.291V108.877H190.399ZM197.557 113.65C197.557 113.517 197.536 113.4 197.495 113.297C197.457 113.194 197.388 113.099 197.288 113.014C197.188 112.929 197.046 112.846 196.864 112.767C196.684 112.684 196.455 112.6 196.175 112.515C195.869 112.421 195.586 112.316 195.327 112.202C195.071 112.084 194.847 111.948 194.656 111.795C194.465 111.639 194.316 111.461 194.21 111.261C194.104 111.058 194.051 110.824 194.051 110.559C194.051 110.297 194.106 110.059 194.214 109.844C194.326 109.629 194.484 109.443 194.687 109.287C194.893 109.128 195.136 109.006 195.415 108.921C195.695 108.833 196.004 108.788 196.343 108.788C196.82 108.788 197.23 108.877 197.575 109.053C197.922 109.23 198.188 109.467 198.374 109.764C198.562 110.061 198.656 110.39 198.656 110.749H197.557C197.557 110.537 197.511 110.35 197.42 110.188C197.332 110.023 197.196 109.894 197.014 109.8C196.834 109.705 196.606 109.658 196.33 109.658C196.068 109.658 195.85 109.698 195.676 109.777C195.502 109.857 195.373 109.964 195.287 110.1C195.202 110.235 195.159 110.388 195.159 110.559C195.159 110.68 195.187 110.79 195.243 110.89C195.299 110.987 195.385 111.079 195.499 111.164C195.614 111.246 195.758 111.324 195.932 111.398C196.106 111.472 196.31 111.542 196.546 111.61C196.902 111.716 197.213 111.834 197.478 111.963C197.742 112.09 197.963 112.234 198.14 112.396C198.316 112.558 198.449 112.742 198.537 112.948C198.626 113.151 198.67 113.382 198.67 113.641C198.67 113.912 198.615 114.156 198.506 114.374C198.397 114.589 198.241 114.773 198.038 114.926C197.838 115.076 197.597 115.192 197.314 115.275C197.035 115.354 196.722 115.394 196.378 115.394C196.069 115.394 195.764 115.353 195.464 115.27C195.167 115.188 194.896 115.063 194.652 114.895C194.407 114.724 194.213 114.512 194.069 114.259C193.925 114.003 193.852 113.704 193.852 113.363H194.961C194.961 113.572 194.996 113.75 195.067 113.897C195.14 114.044 195.242 114.165 195.371 114.259C195.501 114.35 195.651 114.418 195.822 114.462C195.995 114.506 196.181 114.529 196.378 114.529C196.637 114.529 196.853 114.492 197.027 114.418C197.204 114.345 197.336 114.242 197.425 114.109C197.513 113.977 197.557 113.824 197.557 113.65ZM204.405 109.733L202.485 115.306H201.323L203.743 108.877H204.485L204.405 109.733ZM206.013 115.306L204.088 109.733L204.004 108.877H204.75L207.178 115.306H206.013ZM205.92 112.921V113.8H202.423V112.921H205.92ZM212.998 108.877V115.306H211.89L209.006 110.7V115.306H207.898V108.877H209.006L211.899 113.491V108.877H212.998ZM216.186 115.306H214.813L214.822 114.427H216.186C216.584 114.427 216.916 114.34 217.184 114.166C217.455 113.993 217.658 113.744 217.793 113.42C217.932 113.096 218.001 112.711 218.001 112.263V111.915C218.001 111.567 217.961 111.26 217.882 110.992C217.805 110.724 217.69 110.499 217.537 110.316C217.387 110.134 217.202 109.995 216.981 109.901C216.763 109.807 216.511 109.76 216.226 109.76H214.786V108.877H216.226C216.653 108.877 217.043 108.949 217.396 109.093C217.749 109.234 218.054 109.439 218.31 109.707C218.569 109.975 218.768 110.296 218.906 110.669C219.044 111.043 219.114 111.461 219.114 111.923V112.263C219.114 112.726 219.044 113.144 218.906 113.517C218.768 113.891 218.569 114.212 218.31 114.48C218.051 114.745 217.742 114.949 217.383 115.094C217.027 115.235 216.628 115.306 216.186 115.306ZM215.427 108.877V115.306H214.318V108.877H215.427ZM222.478 108.877H224.752C225.241 108.877 225.657 108.95 226.002 109.097C226.346 109.245 226.61 109.462 226.792 109.751C226.978 110.036 227.07 110.39 227.07 110.811C227.07 111.132 227.012 111.414 226.894 111.658C226.776 111.903 226.61 112.109 226.395 112.277C226.18 112.441 225.924 112.57 225.627 112.661L225.291 112.824H223.247L223.238 111.945H224.77C225.035 111.945 225.256 111.898 225.432 111.804C225.609 111.71 225.741 111.582 225.83 111.42C225.921 111.255 225.966 111.07 225.966 110.864C225.966 110.64 225.922 110.446 225.834 110.281C225.749 110.113 225.616 109.985 225.437 109.897C225.257 109.805 225.029 109.76 224.752 109.76H223.587V115.306H222.478V108.877ZM226.148 115.306L224.637 112.418L225.799 112.413L227.331 115.248V115.306H226.148ZM232.382 114.427V115.306H228.969V114.427H232.382ZM229.283 108.877V115.306H228.174V108.877H229.283ZM231.936 111.561V112.427H228.969V111.561H231.936ZM232.36 108.877V109.76H228.969V108.877H232.36ZM235.491 114.131L237.182 108.877H238.405L236.1 115.306H235.274L235.491 114.131ZM233.928 108.877L235.606 114.131L235.835 115.306H235.005L232.709 108.877H233.928ZM240.308 108.877V115.306H239.2V108.877H240.308ZM245.894 114.427V115.306H242.481V114.427H245.894ZM242.794 108.877V115.306H241.686V108.877H242.794ZM245.448 111.561V112.427H242.481V111.561H245.448ZM245.872 108.877V109.76H242.481V108.877H245.872ZM248.411 113.862L249.691 108.877H250.362L250.287 110.162L248.918 115.306H248.221L248.411 113.862ZM247.452 108.877L248.49 113.822L248.583 115.306H247.841L246.353 108.877H247.452ZM251.815 113.809L252.839 108.877H253.943L252.455 115.306H251.713L251.815 113.809ZM250.623 108.877L251.89 113.875L252.075 115.306H251.378L250.031 110.162L249.96 108.877H250.623ZM258.147 113.65C258.147 113.517 258.126 113.4 258.085 113.297C258.047 113.194 257.978 113.099 257.877 113.014C257.777 112.929 257.636 112.846 257.454 112.767C257.274 112.684 257.044 112.6 256.765 112.515C256.459 112.421 256.176 112.316 255.917 112.202C255.661 112.084 255.437 111.948 255.246 111.795C255.055 111.639 254.906 111.461 254.8 111.261C254.694 111.058 254.641 110.824 254.641 110.559C254.641 110.297 254.695 110.059 254.804 109.844C254.916 109.629 255.074 109.443 255.277 109.287C255.483 109.128 255.726 109.006 256.005 108.921C256.285 108.833 256.594 108.788 256.933 108.788C257.409 108.788 257.82 108.877 258.165 109.053C258.512 109.23 258.778 109.467 258.964 109.764C259.152 110.061 259.246 110.39 259.246 110.749H258.147C258.147 110.537 258.101 110.35 258.01 110.188C257.922 110.023 257.786 109.894 257.604 109.8C257.424 109.705 257.196 109.658 256.919 109.658C256.657 109.658 256.44 109.698 256.266 109.777C256.092 109.857 255.963 109.964 255.877 110.1C255.792 110.235 255.749 110.388 255.749 110.559C255.749 110.68 255.777 110.79 255.833 110.89C255.889 110.987 255.974 111.079 256.089 111.164C256.204 111.246 256.348 111.324 256.522 111.398C256.696 111.472 256.9 111.542 257.136 111.61C257.492 111.716 257.802 111.834 258.067 111.963C258.332 112.09 258.553 112.234 258.73 112.396C258.906 112.558 259.039 112.742 259.127 112.948C259.215 113.151 259.26 113.382 259.26 113.641C259.26 113.912 259.205 114.156 259.096 114.374C258.987 114.589 258.831 114.773 258.628 114.926C258.428 115.076 258.187 115.192 257.904 115.275C257.624 115.354 257.312 115.394 256.968 115.394C256.659 115.394 256.354 115.353 256.054 115.27C255.757 115.188 255.486 115.063 255.241 114.895C254.997 114.724 254.803 114.512 254.659 114.259C254.514 114.003 254.442 113.704 254.442 113.363H255.551C255.551 113.572 255.586 113.75 255.656 113.897C255.73 114.044 255.832 114.165 255.961 114.259C256.091 114.35 256.241 114.418 256.412 114.462C256.585 114.506 256.771 114.529 256.968 114.529C257.227 114.529 257.443 114.492 257.617 114.418C257.794 114.345 257.926 114.242 258.014 114.109C258.103 113.977 258.147 113.824 258.147 113.65Z" fill="#A2A2A2"/>
<path d="M298.904 113.65C298.904 113.517 298.884 113.4 298.843 113.297C298.804 113.194 298.735 113.099 298.635 113.014C298.535 112.929 298.394 112.846 298.211 112.767C298.032 112.684 297.802 112.6 297.522 112.515C297.216 112.421 296.934 112.316 296.675 112.202C296.419 112.084 296.195 111.948 296.003 111.795C295.812 111.639 295.663 111.461 295.557 111.261C295.452 111.058 295.399 110.824 295.399 110.559C295.399 110.297 295.453 110.059 295.562 109.844C295.674 109.629 295.831 109.443 296.034 109.287C296.24 109.128 296.483 109.006 296.763 108.921C297.043 108.833 297.352 108.788 297.69 108.788C298.167 108.788 298.578 108.877 298.922 109.053C299.269 109.23 299.536 109.467 299.721 109.764C299.91 110.061 300.004 110.39 300.004 110.749H298.904C298.904 110.537 298.859 110.35 298.768 110.188C298.679 110.023 298.544 109.894 298.361 109.8C298.182 109.705 297.954 109.658 297.677 109.658C297.415 109.658 297.197 109.698 297.023 109.777C296.85 109.857 296.72 109.964 296.635 110.1C296.549 110.235 296.507 110.388 296.507 110.559C296.507 110.68 296.535 110.79 296.591 110.89C296.647 110.987 296.732 111.079 296.847 111.164C296.962 111.246 297.106 111.324 297.28 111.398C297.453 111.472 297.658 111.542 297.893 111.61C298.249 111.716 298.56 111.834 298.825 111.963C299.09 112.09 299.311 112.234 299.487 112.396C299.664 112.558 299.796 112.742 299.885 112.948C299.973 113.151 300.017 113.382 300.017 113.641C300.017 113.912 299.963 114.156 299.854 114.374C299.745 114.589 299.589 114.773 299.386 114.926C299.186 115.076 298.944 115.192 298.662 115.275C298.382 115.354 298.07 115.394 297.725 115.394C297.416 115.394 297.112 115.353 296.811 115.27C296.514 115.188 296.243 115.063 295.999 114.895C295.755 114.724 295.56 114.512 295.416 114.259C295.272 114.003 295.2 113.704 295.2 113.363H296.308C296.308 113.572 296.343 113.75 296.414 113.897C296.488 114.044 296.589 114.165 296.719 114.259C296.848 114.35 296.998 114.418 297.169 114.462C297.343 114.506 297.528 114.529 297.725 114.529C297.985 114.529 298.201 114.492 298.375 114.418C298.551 114.345 298.684 114.242 298.772 114.109C298.86 113.977 298.904 113.824 298.904 113.65ZM303.501 109.733L301.58 115.306H300.419L302.839 108.877H303.58L303.501 109.733ZM305.108 115.306L303.183 109.733L303.099 108.877H303.845L306.274 115.306H305.108ZM305.016 112.921V113.8H301.518V112.921H305.016ZM311.021 114.427V115.306H307.793V114.427H311.021ZM308.102 108.877V115.306H306.994V108.877H308.102ZM316.085 114.427V115.306H312.672V114.427H316.085ZM312.986 108.877V115.306H311.877V108.877H312.986ZM315.639 111.561V112.427H312.672V111.561H315.639ZM316.063 108.877V109.76H312.672V108.877H316.063ZM320.373 113.65C320.373 113.517 320.352 113.4 320.311 113.297C320.273 113.194 320.203 113.099 320.103 113.014C320.003 112.929 319.862 112.846 319.679 112.767C319.5 112.684 319.27 112.6 318.991 112.515C318.685 112.421 318.402 112.316 318.143 112.202C317.887 112.084 317.663 111.948 317.472 111.795C317.28 111.639 317.132 111.461 317.026 111.261C316.92 111.058 316.867 110.824 316.867 110.559C316.867 110.297 316.921 110.059 317.03 109.844C317.142 109.629 317.3 109.443 317.503 109.287C317.709 109.128 317.952 109.006 318.231 108.921C318.511 108.833 318.82 108.788 319.158 108.788C319.635 108.788 320.046 108.877 320.39 109.053C320.738 109.23 321.004 109.467 321.19 109.764C321.378 110.061 321.472 110.39 321.472 110.749H320.373C320.373 110.537 320.327 110.35 320.236 110.188C320.148 110.023 320.012 109.894 319.83 109.8C319.65 109.705 319.422 109.658 319.145 109.658C318.883 109.658 318.665 109.698 318.492 109.777C318.318 109.857 318.189 109.964 318.103 110.1C318.018 110.235 317.975 110.388 317.975 110.559C317.975 110.68 318.003 110.79 318.059 110.89C318.115 110.987 318.2 111.079 318.315 111.164C318.43 111.246 318.574 111.324 318.748 111.398C318.921 111.472 319.126 111.542 319.362 111.61C319.718 111.716 320.028 111.834 320.293 111.963C320.558 112.09 320.779 112.234 320.956 112.396C321.132 112.558 321.265 112.742 321.353 112.948C321.441 113.151 321.485 113.382 321.485 113.641C321.485 113.912 321.431 114.156 321.322 114.374C321.213 114.589 321.057 114.773 320.854 114.926C320.654 115.076 320.412 115.192 320.13 115.275C319.85 115.354 319.538 115.394 319.194 115.394C318.885 115.394 318.58 115.353 318.28 115.27C317.982 115.188 317.712 115.063 317.467 114.895C317.223 114.724 317.029 114.512 316.884 114.259C316.74 114.003 316.668 113.704 316.668 113.363H317.776C317.776 113.572 317.812 113.75 317.882 113.897C317.956 114.044 318.058 114.165 318.187 114.259C318.317 114.35 318.467 114.418 318.637 114.462C318.811 114.506 318.997 114.529 319.194 114.529C319.453 114.529 319.669 114.492 319.843 114.418C320.019 114.345 320.152 114.242 320.24 114.109C320.329 113.977 320.373 113.824 320.373 113.65ZM327.221 109.733L325.3 115.306H324.139L326.559 108.877H327.301L327.221 109.733ZM328.828 115.306L326.903 109.733L326.819 108.877H327.566L329.994 115.306H328.828ZM328.736 112.921V113.8H325.239V112.921H328.736ZM335.814 108.877V115.306H334.706L331.822 110.7V115.306H330.714V108.877H331.822L334.714 113.491V108.877H335.814ZM339.002 115.306H337.629L337.637 114.427H339.002C339.399 114.427 339.732 114.34 340 114.166C340.271 113.993 340.474 113.744 340.609 113.42C340.747 113.096 340.817 112.711 340.817 112.263V111.915C340.817 111.567 340.777 111.26 340.697 110.992C340.621 110.724 340.506 110.499 340.353 110.316C340.203 110.134 340.017 109.995 339.797 109.901C339.579 109.807 339.327 109.76 339.042 109.76H337.602V108.877H339.042C339.468 108.877 339.858 108.949 340.212 109.093C340.565 109.234 340.87 109.439 341.126 109.707C341.385 109.975 341.583 110.296 341.722 110.669C341.86 111.043 341.929 111.461 341.929 111.923V112.263C341.929 112.726 341.86 113.144 341.722 113.517C341.583 113.891 341.385 114.212 341.126 114.48C340.867 114.745 340.558 114.949 340.198 115.094C339.842 115.235 339.443 115.306 339.002 115.306ZM338.242 108.877V115.306H337.134V108.877H338.242ZM350.42 111.915V112.268C350.42 112.753 350.357 113.189 350.23 113.575C350.104 113.96 349.923 114.289 349.687 114.559C349.455 114.83 349.175 115.038 348.848 115.182C348.522 115.323 348.16 115.394 347.762 115.394C347.368 115.394 347.007 115.323 346.68 115.182C346.357 115.038 346.075 114.83 345.837 114.559C345.599 114.289 345.413 113.96 345.281 113.575C345.151 113.189 345.086 112.753 345.086 112.268V111.915C345.086 111.429 345.151 110.995 345.281 110.612C345.41 110.226 345.593 109.898 345.828 109.627C346.067 109.354 346.348 109.146 346.672 109.005C346.998 108.86 347.359 108.788 347.753 108.788C348.151 108.788 348.513 108.86 348.84 109.005C349.166 109.146 349.447 109.354 349.683 109.627C349.918 109.898 350.1 110.226 350.226 110.612C350.356 110.995 350.42 111.429 350.42 111.915ZM349.312 112.268V111.906C349.312 111.547 349.277 111.23 349.206 110.956C349.138 110.68 349.037 110.449 348.901 110.263C348.769 110.075 348.606 109.933 348.411 109.839C348.217 109.742 347.998 109.694 347.753 109.694C347.509 109.694 347.291 109.742 347.1 109.839C346.909 109.933 346.745 110.075 346.61 110.263C346.477 110.449 346.376 110.68 346.305 110.956C346.234 111.23 346.199 111.547 346.199 111.906V112.268C346.199 112.627 346.234 112.945 346.305 113.222C346.376 113.498 346.479 113.732 346.614 113.924C346.753 114.112 346.917 114.255 347.109 114.352C347.3 114.446 347.518 114.493 347.762 114.493C348.009 114.493 348.229 114.446 348.42 114.352C348.611 114.255 348.773 114.112 348.906 113.924C349.038 113.732 349.138 113.498 349.206 113.222C349.277 112.945 349.312 112.627 349.312 112.268ZM351.529 108.877H353.803C354.291 108.877 354.708 108.95 355.052 109.097C355.397 109.245 355.66 109.462 355.843 109.751C356.028 110.036 356.121 110.39 356.121 110.811C356.121 111.132 356.062 111.414 355.944 111.658C355.826 111.903 355.66 112.109 355.445 112.277C355.23 112.441 354.974 112.57 354.677 112.661L354.341 112.824H352.297L352.288 111.945H353.82C354.085 111.945 354.306 111.898 354.483 111.804C354.659 111.71 354.792 111.582 354.88 111.42C354.971 111.255 355.017 111.07 355.017 110.864C355.017 110.64 354.973 110.446 354.884 110.281C354.799 110.113 354.667 109.985 354.487 109.897C354.307 109.805 354.079 109.76 353.803 109.76H352.637V115.306H351.529V108.877ZM355.198 115.306L353.688 112.418L354.849 112.413L356.381 115.248V115.306H355.198ZM359.092 115.306H357.719L357.728 114.427H359.092C359.49 114.427 359.822 114.34 360.09 114.166C360.361 113.993 360.564 113.744 360.7 113.42C360.838 113.096 360.907 112.711 360.907 112.263V111.915C360.907 111.567 360.867 111.26 360.788 110.992C360.711 110.724 360.597 110.499 360.444 110.316C360.293 110.134 360.108 109.995 359.887 109.901C359.669 109.807 359.418 109.76 359.132 109.76H357.693V108.877H359.132C359.559 108.877 359.949 108.949 360.302 109.093C360.656 109.234 360.96 109.439 361.216 109.707C361.475 109.975 361.674 110.296 361.812 110.669C361.951 111.043 362.02 111.461 362.02 111.923V112.263C362.02 112.726 361.951 113.144 361.812 113.517C361.674 113.891 361.475 114.212 361.216 114.48C360.957 114.745 360.648 114.949 360.289 115.094C359.933 115.235 359.534 115.306 359.092 115.306ZM358.333 108.877V115.306H357.225V108.877H358.333ZM367.341 114.427V115.306H363.927V114.427H367.341ZM364.241 108.877V115.306H363.133V108.877H364.241ZM366.895 111.561V112.427H363.927V111.561H366.895ZM367.319 108.877V109.76H363.927V108.877H367.319ZM368.246 108.877H370.52C371.008 108.877 371.425 108.95 371.769 109.097C372.114 109.245 372.377 109.462 372.56 109.751C372.745 110.036 372.838 110.39 372.838 110.811C372.838 111.132 372.779 111.414 372.661 111.658C372.544 111.903 372.377 112.109 372.162 112.277C371.948 112.441 371.691 112.57 371.394 112.661L371.059 112.824H369.014L369.005 111.945H370.537C370.802 111.945 371.023 111.898 371.2 111.804C371.376 111.71 371.509 111.582 371.597 111.42C371.688 111.255 371.734 111.07 371.734 110.864C371.734 110.64 371.69 110.446 371.602 110.281C371.516 110.113 371.384 109.985 371.204 109.897C371.025 109.805 370.797 109.76 370.52 109.76H369.354V115.306H368.246V108.877ZM371.915 115.306L370.405 112.418L371.566 112.413L373.098 115.248V115.306H371.915ZM377.324 113.65C377.324 113.517 377.304 113.4 377.262 113.297C377.224 113.194 377.155 113.099 377.055 113.014C376.955 112.929 376.813 112.846 376.631 112.767C376.451 112.684 376.222 112.6 375.942 112.515C375.636 112.421 375.353 112.316 375.094 112.202C374.838 112.084 374.614 111.948 374.423 111.795C374.232 111.639 374.083 111.461 373.977 111.261C373.871 111.058 373.818 110.824 373.818 110.559C373.818 110.297 373.873 110.059 373.982 109.844C374.093 109.629 374.251 109.443 374.454 109.287C374.66 109.128 374.903 109.006 375.183 108.921C375.462 108.833 375.771 108.788 376.11 108.788C376.587 108.788 376.997 108.877 377.342 109.053C377.689 109.23 377.956 109.467 378.141 109.764C378.329 110.061 378.424 110.39 378.424 110.749H377.324C377.324 110.537 377.279 110.35 377.187 110.188C377.099 110.023 376.964 109.894 376.781 109.8C376.601 109.705 376.373 109.658 376.097 109.658C375.835 109.658 375.617 109.698 375.443 109.777C375.269 109.857 375.14 109.964 375.055 110.1C374.969 110.235 374.927 110.388 374.927 110.559C374.927 110.68 374.954 110.79 375.01 110.89C375.066 110.987 375.152 111.079 375.267 111.164C375.381 111.246 375.526 111.324 375.699 111.398C375.873 111.472 376.078 111.542 376.313 111.61C376.669 111.716 376.98 111.834 377.245 111.963C377.51 112.09 377.73 112.234 377.907 112.396C378.084 112.558 378.216 112.742 378.304 112.948C378.393 113.151 378.437 113.382 378.437 113.641C378.437 113.912 378.382 114.156 378.273 114.374C378.165 114.589 378.009 114.773 377.805 114.926C377.605 115.076 377.364 115.192 377.081 115.275C376.802 115.354 376.49 115.394 376.145 115.394C375.836 115.394 375.531 115.353 375.231 115.27C374.934 115.188 374.663 115.063 374.419 114.895C374.174 114.724 373.98 114.512 373.836 114.259C373.692 114.003 373.62 113.704 373.62 113.363H374.728C374.728 113.572 374.763 113.75 374.834 113.897C374.907 114.044 375.009 114.165 375.138 114.259C375.268 114.35 375.418 114.418 375.589 114.462C375.763 114.506 375.948 114.529 376.145 114.529C376.404 114.529 376.621 114.492 376.794 114.418C376.971 114.345 377.103 114.242 377.192 114.109C377.28 113.977 377.324 113.824 377.324 113.65Z" fill="#A2A2A2"/>
<path d="M166.975 127.621V201.257H272.907" stroke="#79808D" stroke-width="0.645928"/>
<path d="M294.869 127.621V201.257H400.801" stroke="#79808D" stroke-width="0.645928"/>
<rect x="170.205" y="178.649" width="6.45928" height="22.6075" fill="#5D7624"/>
<rect width="6.45928" height="22.6075" transform="matrix(-1 0 0 1 397.571 178.649)" fill="#5D7624"/>
<rect x="193.458" y="178.649" width="6.45928" height="22.6075" fill="#5D7624"/>
<rect width="6.45928" height="22.6075" transform="matrix(-1 0 0 1 374.318 178.649)" fill="#5D7624"/>
<rect x="205.085" y="178.649" width="6.45928" height="22.6075" fill="#5D7624"/>
<rect width="6.45928" height="22.6075" transform="matrix(-1 0 0 1 362.691 178.649)" fill="#5D7624"/>
<rect x="216.712" y="178.649" width="6.45928" height="22.6075" fill="#5D7624"/>
<rect width="6.45928" height="22.6075" transform="matrix(-1 0 0 1 351.065 178.649)" fill="#5D7624"/>
<rect x="216.712" y="156.042" width="6.45928" height="22.6075" fill="#5D7624"/>
<rect width="6.45928" height="22.6075" transform="matrix(-1 0 0 1 351.065 156.042)" fill="#5D7624"/>
<rect x="228.338" y="178.649" width="6.45928" height="22.6075" fill="#941759"/>
<rect width="6.45928" height="22.6075" transform="matrix(-1 0 0 1 339.438 178.649)" fill="#941759"/>
<rect x="239.965" y="178.649" width="6.45928" height="22.6075" fill="#5D7624"/>
<rect width="6.45928" height="22.6075" transform="matrix(-1 0 0 1 327.811 178.649)" fill="#5D7624"/>
<rect x="251.592" y="178.649" width="6.45928" height="22.6075" fill="#941759"/>
<rect width="6.45928" height="22.6075" transform="matrix(-1 0 0 1 316.185 178.649)" fill="#941759"/>
<rect x="263.218" y="178.649" width="6.45928" height="22.6075" fill="#5D7624"/>
<rect width="6.45928" height="22.6075" transform="matrix(-1 0 0 1 304.558 178.649)" fill="#5D7624"/>
<rect x="193.458" y="156.042" width="6.45928" height="22.6075" fill="#941759"/>
<rect width="6.45928" height="22.6075" transform="matrix(-1 0 0 1 374.318 156.042)" fill="#941759"/>
<rect x="263.218" y="156.042" width="6.45928" height="22.6075" fill="#941759"/>
<rect width="6.45928" height="22.6075" transform="matrix(-1 0 0 1 304.558 156.042)" fill="#941759"/>
<path d="M166.975 180.91L175.694 184.398C176.325 184.65 177.019 184.697 177.677 184.533L187.111 182.174C187.871 181.984 188.537 181.524 188.983 180.879L198.821 166.669C199.496 165.693 200.653 165.167 201.833 165.298L210.483 166.259C211.172 166.336 211.868 166.188 212.467 165.839L221.702 160.452C222.621 159.915 223.746 159.866 224.708 160.321L234.269 164.835C234.618 165.001 234.936 165.227 235.205 165.504L243.669 174.21C244.981 175.559 247.164 175.506 248.408 174.093L256.713 164.666C257.531 163.737 258.808 163.358 260.001 163.689L269.678 166.377" stroke="#3498DB" stroke-width="1.29186"/>
<path d="M294.869 164.116L302.043 166.986C303.497 167.568 305.16 167.021 305.986 165.69L313.665 153.318C314.871 151.375 317.658 151.266 319.012 153.109L326.345 163.09C327.21 164.267 328.757 164.717 330.118 164.188L338.064 161.098C338.936 160.758 339.913 160.815 340.742 161.252L348.783 165.496C350.117 166.2 351.761 165.887 352.743 164.742L361.959 153.989C362.433 153.436 363.08 153.06 363.795 152.921L372.31 151.265C373.536 151.027 374.789 151.517 375.529 152.523L384.153 164.261C385.161 165.633 387.06 165.987 388.494 165.071L397.571 159.272" stroke="#3498DB" stroke-width="1.29186"/>
</g>
</g>
<defs>
<filter id="filter0_ddd_9908_64019" x="121.418" y="66.3713" width="480.571" height="336.528" filterUnits="userSpaceOnUse" color-interpolation-filters="sRGB">
<feFlood flood-opacity="0" result="BackgroundImageFix"/>
<feColorMatrix in="SourceAlpha" type="matrix" values="0 0 0 0 0 0 0 0 0 0 0 0 0 0 0 0 0 0 127 0" result="hardAlpha"/>
<feOffset dy="3.87557"/>
<feGaussianBlur stdDeviation="1.29186"/>
<feColorMatrix type="matrix" values="0 0 0 0 0 0 0 0 0 0 0 0 0 0 0 0 0 0 0.03 0"/>
<feBlend mode="normal" in2="BackgroundImageFix" result="effect1_dropShadow_9908_64019"/>
<feColorMatrix in="SourceAlpha" type="matrix" values="0 0 0 0 0 0 0 0 0 0 0 0 0 0 0 0 0 0 127 0" result="hardAlpha"/>
<feOffset dy="14.2104"/>
<feGaussianBlur stdDeviation="7.75114"/>
<feColorMatrix type="matrix" values="0 0 0 0 0 0 0 0 0 0 0 0 0 0 0 0 0 0 0.04 0"/>
<feBlend mode="normal" in2="effect1_dropShadow_9908_64019" result="effect2_dropShadow_9908_64019"/>
<feColorMatrix in="SourceAlpha" type="matrix" values="0 0 0 0 0 0 0 0 0 0 0 0 0 0 0 0 0 0 127 0" result="hardAlpha"/>
<feOffset dy="40.0475"/>
<feGaussianBlur stdDeviation="25.8371"/>
<feColorMatrix type="matrix" values="0 0 0 0 0 0 0 0 0 0 0 0 0 0 0 0 0 0 0.07 0"/>
<feBlend mode="normal" in2="effect2_dropShadow_9908_64019" result="effect3_dropShadow_9908_64019"/>
<feBlend mode="normal" in="SourceGraphic" in2="effect3_dropShadow_9908_64019" result="shape"/>
</filter>
<filter id="filter1_ddd_9908_64019" x="0.325748" y="0.373291" width="480.571" height="336.528" filterUnits="userSpaceOnUse" color-interpolation-filters="sRGB">
<feFlood flood-opacity="0" result="BackgroundImageFix"/>
<feColorMatrix in="SourceAlpha" type="matrix" values="0 0 0 0 0 0 0 0 0 0 0 0 0 0 0 0 0 0 127 0" result="hardAlpha"/>
<feOffset dy="3.87557"/>
<feGaussianBlur stdDeviation="1.29186"/>
<feColorMatrix type="matrix" values="0 0 0 0 0 0 0 0 0 0 0 0 0 0 0 0 0 0 0.03 0"/>
<feBlend mode="normal" in2="BackgroundImageFix" result="effect1_dropShadow_9908_64019"/>
<feColorMatrix in="SourceAlpha" type="matrix" values="0 0 0 0 0 0 0 0 0 0 0 0 0 0 0 0 0 0 127 0" result="hardAlpha"/>
<feOffset dy="14.2104"/>
<feGaussianBlur stdDeviation="7.75114"/>
<feColorMatrix type="matrix" values="0 0 0 0 0 0 0 0 0 0 0 0 0 0 0 0 0 0 0.04 0"/>
<feBlend mode="normal" in2="effect1_dropShadow_9908_64019" result="effect2_dropShadow_9908_64019"/>
<feColorMatrix in="SourceAlpha" type="matrix" values="0 0 0 0 0 0 0 0 0 0 0 0 0 0 0 0 0 0 127 0" result="hardAlpha"/>
<feOffset dy="40.0475"/>
<feGaussianBlur stdDeviation="25.8371"/>
<feColorMatrix type="matrix" values="0 0 0 0 0 0 0 0 0 0 0 0 0 0 0 0 0 0 0.07 0"/>
<feBlend mode="normal" in2="effect2_dropShadow_9908_64019" result="effect3_dropShadow_9908_64019"/>
<feBlend mode="normal" in="SourceGraphic" in2="effect3_dropShadow_9908_64019" result="shape"/>
</filter>
<clipPath id="clip0_9908_64019">
<rect x="173.092" y="77.998" width="377.222" height="233.18" rx="5.16743" fill="white"/>
</clipPath>
<clipPath id="clip1_9908_64019">
<rect x="52" y="12" width="377.222" height="233.18" rx="5.16743" fill="white"/>
</clipPath>
<clipPath id="clip2_9908_64019">
<rect width="15.5023" height="15.5023" fill="white" transform="translate(227.046 59.1543)"/>
</clipPath>
</defs>
</svg>
