<svg width="625" height="378" fill="none" xmlns="http://www.w3.org/2000/svg"><path d="M624.954 348.379c.448 11.57-55.135 23.105-124.147 25.765-69.013 2.66-125.321-4.563-125.769-16.133-.448-11.569 55.135-23.105 124.147-25.764 69.012-2.66 125.321 4.562 125.769 16.132z" fill="#74932B"/><ellipse rx="15.995" ry="21.499" transform="rotate(16.613 -634.16 171.032) skewX(.01)" fill="#9FBD55"/><path fill-rule="evenodd" clip-rule="evenodd" d="M490.375 26.695c-41.405-19.703-97.415-7.56-148.807-7.683-45.103-.109-90.314-9.735-132.972 7.003-43.314 16.996-70.918 50.766-96.538 83.054-26.543 33.453-50.397 68.322-52.974 105.375-2.832 40.716.745 86.088 37.938 110.829 36.643 24.376 96.096 11.874 147.379 12.447 45.952.513 90.388 2.886 135.855-9.284 53.927-14.433 111.621-30.247 147.049-66.434 37.769-38.577 54.242-87.951 47.314-132.09-6.781-43.207-38.348-81.377-84.244-103.217z" fill="#8FB43A"/><path d="M90.317 290.883l8.275 7.54 6.017-38.455 21.815-84.449L354.72 19.816l-17.677-3.393L108.37 145.736c-6.017 2.639-18.053 13.421-18.053 35.438v109.709z" fill="#657B31"/><path d="M343.989 21.492c8.711-5.446 15.244-1.09 15.244 8.713v52.278c0 9.802-6.533 21.783-15.244 27.228L150.167 220.802 98.989 298.13V181.594c0-9.803 6.533-21.783 15.244-27.229L343.989 21.492z" fill="#F7F7F7"/><path d="M270.77 94.658l-2.377 9.242a3.255 3.255 0 01-1.326 1.879l-7.238 4.354c-1.364.824-1.928 3.139-.839 3.46l5.768 1.687c.481.146.679.764.511 1.528l-2.103 9.166c-.389 1.733 1.082 2.108 2.194.565l5.944-8.196a1.837 1.837 0 011.646-.947l5.943 1.314c1.113.252 2.591-1.833 2.195-3.101l-2.096-6.76a2.633 2.633 0 01.503-2.092l5.768-8.402c1.09-1.581.526-3.246-.838-2.49l-7.239 4.025c-.594.329-1.127.199-1.326-.344l-2.377-6.492c-.45-1.191-2.278-.137-2.713 1.604zm-30.086 17.414l-2.378 9.242a3.255 3.255 0 01-1.326 1.879l-7.238 4.361c-1.364.817-1.928 3.132-.839 3.452l5.73 1.688c.481.145.679.764.503 1.528l-2.095 9.165c-.396 1.734 1.082 2.109 2.194.566l5.944-8.196a1.837 1.837 0 011.646-.947l5.943 1.314c1.113.252 2.583-1.833 2.195-3.101l-2.096-6.76a2.613 2.613 0 01.503-2.085l5.768-8.402c1.09-1.573.526-3.238-.838-2.482l-7.239 4.018c-.602.328-1.127.198-1.326-.344l-2.377-6.492c-.411-1.192-2.225-.145-2.674 1.596zm-30.096 17.414l-2.377 9.242a3.267 3.267 0 01-1.326 1.879l-7.239 4.361c-1.363.817-1.927 3.132-.838 3.452l5.768 1.688c.48.146.679.764.503 1.528l-2.095 9.166c-.396 1.733 1.074 2.108 2.194.565l5.944-8.196a1.857 1.857 0 011.638-.947l5.943 1.314c1.12.252 2.591-1.833 2.202-3.101l-2.103-6.76a2.664 2.664 0 01.511-2.085l5.768-8.402c1.09-1.573.526-3.238-.838-2.482l-7.239 4.018c-.602.336-1.128.198-1.326-.344l-2.377-6.492c-.45-1.192-2.294-.145-2.713 1.596zm123.05-71.894l-2.377 9.242a3.246 3.246 0 01-1.334 1.879l-7.238 4.361c-1.357.817-1.921 3.132-.839 3.452l5.776 1.688c.473.145.678.764.503 1.528l-2.095 9.165c-.397 1.734 1.074 2.109 2.194.566l5.943-8.196a1.857 1.857 0 011.639-.947l5.943 1.314c1.12.252 2.591-1.833 2.195-3.101l-2.096-6.76a2.636 2.636 0 01.511-2.085l5.768-8.402c1.082-1.573.525-3.238-.838-2.482l-7.239 4.018c-.602.336-1.128.198-1.326-.344l-2.377-6.492c-.48-1.192-2.301-.145-2.713 1.596zm-30.127 17.414l-2.377 9.242a3.175 3.175 0 01-1.326 1.879l-7.239 4.361c-1.356.817-1.92 3.132-.838 3.453l5.768 1.688c.48.145.686.763.511 1.527l-2.096 9.166c-.396 1.733 1.075 2.108 2.195.565l5.943-8.196a1.84 1.84 0 011.639-.947l5.943 1.314c1.12.252 2.591-1.833 2.194-3.101l-2.095-6.76a2.636 2.636 0 01.51-2.085l5.769-8.401c1.082-1.574.518-3.239-.839-2.483l-7.238 4.018c-.602.336-1.136.198-1.326-.344l-2.377-6.492c-.45-1.192-2.309-.145-2.721 1.596z" fill="#AFB6E5"/><path d="M337.513 61.563l-2.203-6.011a.765.765 0 01.851.199c.07.077.122.168.155.267l2.195 6.01a.762.762 0 01-.998-.465zm-11.108 15.703a.855.855 0 01.541.764l-5.128-1.527a.83.83 0 01-.541-.764l5.128 1.527zm.613 11.252l5.943-8.195a1.835 1.835 0 011.638-.947l5.944 1.313c1.12.252 2.59-1.833 2.194-3.1l-2.095-6.76a2.62 2.62 0 01.51-2.085l5.768-8.402a3.01 3.01 0 00.572-1.642c1.188-.459 1.63 1.1.609 2.589l-5.768 8.402a2.626 2.626 0 00-.51 2.085l2.095 6.76c.396 1.267-1.074 3.352-2.194 3.1l-5.944-1.313a1.85 1.85 0 00-1.638.947l-5.943 8.195c-.999 1.383-2.286 1.215-2.286-.069.449-.173.834-.48 1.105-.878zm-19.599-9.54l-2.202-6.011a.764.764 0 01.858.196c.069.079.122.17.155.27l2.195 6.01a.76.76 0 01-1.006-.465zm-10.492 26.954l5.944-8.195a1.825 1.825 0 011.638-.947l5.943 1.313c1.12.252 2.591-1.833 2.195-3.1l-2.096-6.76a2.637 2.637 0 01.511-2.085l5.768-8.402c.349-.478.546-1.05.564-1.642 1.196-.459 1.638 1.1.617 2.589l-5.768 8.402a2.628 2.628 0 00-.511 2.085l2.096 6.76c.396 1.267-1.075 3.352-2.195 3.1l-5.943-1.313a1.843 1.843 0 00-1.638.947l-5.944 8.195c-.998 1.383-2.286 1.215-2.286-.069a2.397 2.397 0 001.105-.878zm-99.548 41.521a.855.855 0 01.541.764l-5.128-1.528a.83.83 0 01-.541-.764l5.128 1.528z" fill="#CED3F4"/><path d="M270.77 94.658l-2.377 9.242a3.255 3.255 0 01-1.326 1.879l-7.238 4.354c-1.364.824-1.928 3.139-.839 3.46l5.768 1.687c.481.146.679.764.511 1.528l-2.103 9.166c-.389 1.733 1.082 2.108 2.194.565l5.944-8.196a1.837 1.837 0 011.646-.947l5.943 1.314c1.113.252 2.591-1.833 2.195-3.101l-2.096-6.76a2.633 2.633 0 01.503-2.092l5.768-8.402c1.09-1.581.526-3.246-.838-2.49l-7.239 4.025c-.594.329-1.127.199-1.326-.344l-2.377-6.492c-.45-1.191-2.278-.137-2.713 1.604zm-30.086 17.414l-2.378 9.242a3.255 3.255 0 01-1.326 1.879l-7.238 4.361c-1.364.817-1.928 3.132-.839 3.452l5.73 1.688c.481.145.679.764.503 1.528l-2.095 9.165c-.396 1.734 1.082 2.109 2.194.566l5.944-8.196a1.837 1.837 0 011.646-.947l5.943 1.314c1.113.252 2.583-1.833 2.195-3.101l-2.096-6.76a2.613 2.613 0 01.503-2.085l5.768-8.402c1.09-1.573.526-3.238-.838-2.482l-7.239 4.018c-.602.328-1.127.198-1.326-.344l-2.377-6.492c-.411-1.192-2.225-.145-2.674 1.596zm-30.096 17.414l-2.377 9.242a3.267 3.267 0 01-1.326 1.879l-7.239 4.361c-1.363.817-1.927 3.132-.838 3.452l5.768 1.688c.48.146.679.764.503 1.528l-2.095 9.166c-.396 1.733 1.074 2.108 2.194.565l5.944-8.196a1.857 1.857 0 011.638-.947l5.943 1.314c1.12.252 2.591-1.833 2.202-3.101l-2.103-6.76a2.664 2.664 0 01.511-2.085l5.768-8.402c1.09-1.573.526-3.238-.838-2.482l-7.239 4.018c-.602.336-1.128.198-1.326-.344l-2.377-6.492c-.45-1.192-2.294-.145-2.713 1.596z" fill="#AFB6E5"/><path d="M205.51 151.59a4.409 4.409 0 00-.13-1.253l.671.26c.472.145.678.764.503 1.528l-2.088 9.165a1.365 1.365 0 00.229 1.337l-.762-.359c-.427-.138-.679-.649-.488-1.482l2.065-9.196z" fill="url(#paint0_linear_5089_42572)"/><path d="M225.626 131.312l-7.201 3.994c-.602.336-1.128.199-1.326-.336l.64-.366 6.858-3.819a.884.884 0 011.097 0l.945.404a.974.974 0 00-1.013.123z" fill="url(#paint1_linear_5089_42572)"/><path d="M200.097 144.977l7.201-4.338a3.217 3.217 0 001.325-1.872l2.363-9.165c.388-1.528 1.828-2.505 2.476-1.917l.93.405c-.694-.382-1.982.58-2.347 2.001l-2.362 9.165a3.223 3.223 0 01-1.326 1.872l-7.201 4.338c-1.257.764-1.821 2.78-1.044 3.33l-.929-.443c-.953-.428-.366-2.589.914-3.376z" fill="url(#paint2_linear_5089_42572)"/><path d="M212.033 130.074l-2.362 9.166a3.22 3.22 0 01-1.326 1.871l-7.201 4.338c-1.356.817-1.912 3.116-.838 3.437l5.745 1.681c.473.145.678.763.503 1.527l-2.088 9.166c-.388 1.718 1.075 2.092 2.187.557l5.883-8.18a1.834 1.834 0 011.638-.939l5.913 1.306c1.112.244 2.575-1.826 2.187-3.055l-2.088-6.729a2.604 2.604 0 01.503-2.078l5.737-8.333c1.082-1.566.526-3.223-.83-2.467l-7.201 3.995c-.602.336-1.128.198-1.326-.336l-2.362-6.462c-.419-1.245-2.225-.199-2.674 1.535z" fill="url(#paint3_linear_5089_42572)"/><path style="mix-blend-mode:screen" d="M214.735 128.509c-.449-1.214-2.286-.168-2.705 1.566l-2.362 9.165a3.212 3.212 0 01-1.326 1.871l-7.2 4.339c-1.357.817-1.913 3.116-.838 3.437l5.745 1.68c.472.145.678.764.503 1.528l-2.088 9.165c-.389 1.719 1.074 2.093 2.187.558l5.882-8.18 2.202-25.129z" fill="url(#paint4_radial_5089_42572)"/><path d="M225.822 131.481l-7.193 4.017a.892.892 0 01-1.158-.068 1.016 1.016 0 00.937-.107l7.209-3.995c.518-.29.922-.221 1.158.061a.973.973 0 00-.953.092zm-19.29 20.614a1.496 1.496 0 00-.175-1.276c.396.199.556.764.396 1.444l-2.088 9.165a1.395 1.395 0 00-.067.659c.03.222.113.434.242.617-.374-.176-.572-.672-.396-1.444l2.088-9.165zm-5.429-6.615l7.201-4.339a3.22 3.22 0 001.326-1.871l2.362-9.165c.404-1.528 1.905-2.559 2.529-1.856-.701-.321-1.95.634-2.285 2.024l-2.37 9.165a3.212 3.212 0 01-1.318 1.864l-7.209 4.338c-1.173.711-1.744 2.528-1.173 3.208-.914-.451-.351-2.589.937-3.368z" fill="#fff"/><path d="M235.483 134.283a4.635 4.635 0 00-.129-1.253l.663.26c.48.137.678.764.51 1.489l-2.088 9.166a1.35 1.35 0 00.221 1.336l-.762-.351c-.434-.137-.678-.657-.487-1.489l2.072-9.158z" fill="url(#paint5_linear_5089_42572)"/><path d="M255.596 113.996l-7.2 4.002c-.602.328-1.128.198-1.326-.344l.647-.359 6.858-3.819a.908.908 0 011.105 0l.937.405a.967.967 0 00-1.021.115z" fill="url(#paint6_linear_5089_42572)"/><path d="M230.057 127.661l7.209-4.338a3.218 3.218 0 001.318-1.864l2.37-9.166c.388-1.527 1.821-2.505 2.468-1.917l.93.397c-.701-.374-1.981.581-2.347 2.002l-2.37 9.165a3.237 3.237 0 01-1.318 1.871l-7.208 4.339c-1.25.763-1.821 2.78-1.044 3.33l-.937-.451c-.93-.412-.366-2.581.929-3.368z" fill="url(#paint7_linear_5089_42572)"/><path d="M242.007 112.76l-2.37 9.165a3.234 3.234 0 01-1.318 1.871l-7.208 4.339c-1.357.817-1.913 3.124-.831 3.437l5.738 1.688c.48.137.678.764.51 1.489l-2.087 9.166c-.397 1.718 1.066 2.093 2.179.565l5.92-8.157a1.835 1.835 0 011.631-.947l5.913 1.306c1.112.252 2.575-1.818 2.187-3.056l-2.088-6.729a2.628 2.628 0 01.503-2.077l5.745-8.325c1.082-1.574.518-3.224-.838-2.475l-7.201 4.002c-.602.329-1.127.199-1.326-.344l-2.362-6.454c-.442-1.237-2.255-.168-2.697 1.536z" fill="url(#paint8_linear_5089_42572)"/><path style="mix-blend-mode:screen" d="M244.704 111.201c-.442-1.214-2.286-.168-2.698 1.528l-2.369 9.165a3.245 3.245 0 01-1.319 1.872l-7.208 4.338c-1.356.817-1.912 3.124-.83 3.437l5.737 1.688c.48.138.678.764.511 1.49l-2.088 9.165c-.396 1.719 1.067 2.093 2.179.565l5.921-8.157 2.164-25.091z" fill="url(#paint9_radial_5089_42572)"/><path d="M255.79 114.165l-7.209 4.002a.89.89 0 01-1.158-.061 1.041 1.041 0 00.945-.107l7.201-4.002c.525-.29.922-.221 1.165.061a1.005 1.005 0 00-.944.107zm-19.293 20.614a1.469 1.469 0 00-.175-1.276c.396.199.556.764.396 1.452l-2.088 9.165a1.436 1.436 0 00.175 1.283c-.373-.183-.571-.679-.396-1.451l2.088-9.173zm-5.409-6.615l7.208-4.338a3.246 3.246 0 001.319-1.871l2.362-9.166c.403-1.528 1.912-2.559 2.529-1.848-.701-.321-1.95.626-2.286 2.024l-2.362 9.165a3.234 3.234 0 01-1.325 1.871l-7.201 4.339c-1.174.703-1.753 2.528-1.181 3.208-.922-.459-.358-2.605.937-3.384z" fill="#fff"/><path d="M265.703 116.907a4.369 4.369 0 00-.129-1.253l.67.26c.473.137.678.764.503 1.489l-2.088 9.166a1.361 1.361 0 00.229 1.337l-.762-.352c-.427-.137-.678-.657-.488-1.489l2.065-9.158z" fill="url(#paint10_linear_5089_42572)"/><path d="M285.821 96.621l-7.201 4.002c-.602.329-1.128.199-1.326-.343l.64-.36 6.858-3.818a.897.897 0 011.097 0l.945.405a.965.965 0 00-1.013.114z" fill="url(#paint11_linear_5089_42572)"/><path d="M260.294 110.293l7.2-4.339a3.188 3.188 0 001.326-1.863l2.362-9.166c.389-1.527 1.829-2.505 2.477-1.917l.929.397c-.693-.374-1.981.58-2.347 2.001l-2.362 9.166a3.212 3.212 0 01-1.341 1.902l-7.2 4.338c-1.258.764-1.821 2.78-1.044 3.33l-.93-.45c-.937-.451-.35-2.636.93-3.399z" fill="url(#paint12_linear_5089_42572)"/><path d="M272.225 95.383l-2.362 9.166a3.217 3.217 0 01-1.326 1.924l-7.201 4.339c-1.356.817-1.912 3.124-.838 3.437l5.746 1.688c.472.137.678.763.502 1.489l-2.087 9.166c-.389 1.718 1.074 2.092 2.187.565l5.882-8.203c.162-.292.4-.534.689-.7.288-.167.616-.253.949-.247l5.913 1.306c1.113.252 2.576-1.818 2.187-3.056l-2.088-6.729a2.61 2.61 0 01.503-2.077l5.738-8.325c1.082-1.574.525-3.224-.831-2.475l-7.201 4.002c-.601.329-1.127.199-1.325-.343l-2.362-6.454c-.42-1.245-2.225-.2-2.675 1.527z" fill="url(#paint13_linear_5089_42572)"/><path style="mix-blend-mode:screen" d="M274.931 93.825c-.449-1.214-2.286-.168-2.705 1.528l-2.362 9.165a3.217 3.217 0 01-1.326 1.956l-7.2 4.338c-1.357.817-1.913 3.124-.839 3.437l5.746 1.688c.472.138.678.764.503 1.49l-2.088 9.165c-.389 1.719 1.074 2.093 2.187.565l5.882-8.203 2.202-25.129z" fill="url(#paint14_radial_5089_42572)"/><path d="M286.021 96.789l-7.208 4.002a.892.892 0 01-1.159-.061c.154.058.319.078.482.059.163-.018.319-.075.456-.166l7.208-4.002c.518-.29.922-.222 1.158.06a.995.995 0 00-.937.108zm-19.296 20.614a1.493 1.493 0 00-.175-1.275c.396.199.556.764.396 1.451l-2.089 9.166a1.43 1.43 0 00.176 1.283c-.374-.184-.572-.68-.397-1.451l2.089-9.174zm-5.425-6.614l7.216-4.315a3.214 3.214 0 001.326-1.872l2.362-9.165c.404-1.528 1.905-2.559 2.53-1.848-.701-.321-1.951.626-2.286 2.024l-2.37 9.165a3.225 3.225 0 01-1.318 1.871l-7.208 4.339c-1.174.702-1.745 2.528-1.174 3.208-.929-.481-.365-2.628.922-3.407z" fill="#fff"/><path d="M131.218 163.222c12.938-17.795 24.24-16.223 27.455-16.589l12.036 3.77c-18.805 0-20.104 9.814-25.369 15.469-5.266 5.655-8.434 15.373-9.403 30.914-.376 6.032-2.086 13.561-1.71 20.347l-11.659-9.425c-3.636-6.66-4.288-26.692 8.65-44.486z" fill="#5D7624"/><path d="M153.807 166.544c-4.517 2.588-8.389 9.056-8.389 14.231 0 1.941.645 3.235 1.291 3.882-3.872 5.821-7.099 13.584-7.744 20.699l30.33-17.465c-1.291-6.469-4.517-10.35-8.389-10.997.645-1.94 1.29-3.881 1.29-5.175 0-5.821-3.872-7.762-8.389-5.175z" fill="#F8F9FD"/><path d="M180.911 168.487c0 17.465-12.261 38.165-27.103 46.574-14.842 9.056-27.103 1.94-27.103-14.878 0-17.465 12.261-38.165 27.103-46.574 14.842-9.056 27.103-1.941 27.103 14.878zm-11.615 19.406c-1.291-6.469-4.518-10.35-8.389-10.997.645-1.941 1.29-3.881 1.29-5.175 0-5.175-3.872-7.115-8.389-4.528-4.517 1.941-8.389 8.409-8.389 13.584 0 1.941.645 3.234 1.29 3.881-3.871 5.822-7.098 13.584-7.743 20.7l30.33-17.465z" fill="#9FBD55"/><path d="M406.573 348.709c6.067.651 16.592 1.71 24.89 2.24 4.983.317 7.874-.147 9.53-.83a5.398 5.398 0 01-.024.552c-.046.925-.764 1.642-1.646 1.687-15.694.669-28.17-.146-32.609-.494-.918-.075-1.452-1.127-.976-1.947a7.22 7.22 0 01.835-1.208z" fill="url(#paint15_linear_5089_42572)"/><path d="M431.462 351.022c-8.288-.496-18.8-1.542-24.86-2.173 6.009-7.337 24.969-12.03 24.969-12.03l5.353.087c3.627 5.441 4.13 10.564 4.072 13.321-1.671.638-4.538 1.086-9.534.795z" fill="url(#paint16_linear_5089_42572)"/><path d="M440.684 330.595l-2.896 9.466a2.28 2.28 0 01-2.399 1.587c-1.077-.123-2.468-.462-3.824-1.333-.836-.544-1.32-1.481-1.252-2.449l.659-9.771 9.712 2.5z" fill="url(#paint17_linear_5089_42572)"/><path d="M502.461 369.738c2.639.296 4.134-.722 4.978-2.003-.005.018-.005.018.009.04.012 1.579-1.25 2.907-3.179 3.179-2.333.34-4.664-.107-6.43-.639-1.894-.564-3.461-1.814-4.11-3.326l-.014-.023c1.673 1.449 4.34 2.252 8.746 2.772z" fill="url(#paint18_linear_5089_42572)"/><path d="M495.925 344.597l4.293 1.108c6.572 1.562 7.274 16.35 7.279 22.013-.847 1.289-2.329 2.317-4.995 2.015-4.425-.505-7.115-1.335-8.798-2.774-2.388-5.544-2.451-12.767-2.303-16.941.179-4.765 4.524-5.421 4.524-5.421z" fill="url(#paint19_linear_5089_42572)"/><path d="M502.002 336.621l.025 10.062a2.612 2.612 0 01-2.06 2.564c-1.506.347-3.563.572-5.247-.075-.78-.297-1.31-1.052-1.393-1.886l-1.016-10.839 9.691.174z" fill="url(#paint20_linear_5089_42572)"/><path d="M504.445 340.066c-3.631 1.858-13.346-.263-13.346-.263-13.799-92.101-25.031-107.551-25.031-107.551-2.891 32.695-24.598 101.131-24.598 101.131-6.362 1.063-13.129-3.364-13.129-3.364 12.464-51.53 15.835-98.397 15.374-136.134 23.602 5.485 38.112.66 43.003-1.496 11.643 36.495 17.727 147.677 17.727 147.677z" fill="#272727"/><path d="M505.217 95.117c-1.119 23.267-12.684 62.433-18.27 80.236-1.57 5.002.213 12.955 1.872 18.475.268.862-.267 1.752-1.133 1.956-5.414 1.228-23.619 4.699-42.727.81a2.788 2.788 0 01-2.195-2.693c-.864-55.717-8.869-93.174-8.869-93.174 25.14-24.008 71.322-5.61 71.322-5.61z" fill="#951859"/><path d="M464.353 229.677c.2.051.414.048.624-.015a1.13 1.13 0 00.748-1.434c-.104-.355-2.782-8.744-10.749-15.45a1.13 1.13 0 00-1.603.131 1.13 1.13 0 00.139 1.603c7.444 6.243 10.018 14.276 10.036 14.358.109.415.423.709.805.807z" fill="url(#paint21_linear_5089_42572)"/><path d="M489.939 113.161l15.102-18.328s31.362 24.53-17.849 68.89c-2.792-3.7-7.06-8.544-11.903-11.108 6.666-10.822 17.455-24.593 14.65-39.454z" fill="#951859"/><path d="M491.575 159.695c-7.785 7.341-18.441 13.613-32.919 17.711l-.907-4.177s12.648-9.626 21.928-24.646c4.83 2.579 9.108 7.411 11.898 11.112z" fill="url(#paint22_linear_5089_42572)"/><path d="M433.966 100.708l13.157 30.08c-1.81 18.242-11.264 26.253-21.6 29.45-.847-8.285-3.072-14.952-5.111-19.567 12.969-14.132 13.554-39.963 13.554-39.963z" fill="#951859"/><path d="M420.193 140.685c2.05 4.621 4.29 11.345 5.142 19.676-27.667 11.416-43.942 1.954-43.942 1.954l8.21-7.835c11.667 1.037 25.031-7.769 30.59-13.795z" fill="url(#paint23_linear_5089_42572)"/><path d="M454.537 69.698l.475 24.253c.052 2.724 2.461 4.794 5.168 4.442 2.909-.378 6.643-.951 9.916-1.778 3.497-.866 5.461-4.584 4.244-7.995l-8.039-22.415-11.764 3.493z" fill="url(#paint24_linear_5089_42572)"/><path d="M354.04 139.883l162.821 59.389c6.825 2.498 10.082 10.276 7.075 16.907l-.489 1.09c-2.668 5.861-9.591 8.435-15.422 5.729l-158.082-73.29 4.097-9.825z" fill="url(#paint25_linear_5089_42572)"/><path d="M279.297 15.979c49.413.001 89.448 39.414 89.406 88.036-.043 48.621-40.147 88.032-89.56 88.03-49.412-.001-89.448-39.414-89.406-88.035.043-48.622 40.129-88.032 89.56-88.031zm-.142 163.136c42.152.001 76.361-33.621 76.398-75.101.036-41.48-34.115-75.103-76.267-75.105-42.153 0-76.362 33.622-76.398 75.101-.055 41.479 34.095 75.103 76.267 75.105z" fill="url(#paint26_linear_5089_42572)"/><path d="M361.856 114.918c.3.001.563-.225.6-.526a90.68 90.68 0 00.569-6.314.608.608 0 00-.563-.639c-.393-.018-.619.245-.638.564a77.233 77.233 0 01-.549 6.22.599.599 0 00.524.677s.038.018.057.018zm-.598-24.616c.038 0 .075 0 .113-.02a.611.611 0 00.488-.694 82.016 82.016 0 00-4.806-16.556c-12.878-31.345-43.397-51.603-77.78-51.604-16.037 0-31.61 4.453-45.066 12.909-.282.169-.357.545-.188.826a.584.584 0 00.825.188c13.268-8.324 28.635-12.72 44.428-12.72 33.895 0 63.983 19.958 76.674 50.852a81.054 81.054 0 014.75 16.292c.037.32.281.527.562.527z" fill="#C5DF99"/><path d="M442.493 52.874c-.096.387 2.54 27.119 2.54 27.119l15.209-1.804 1.258-25.7s-17.343-6.224-19.007.385z" fill="url(#paint27_linear_5089_42572)"/><path d="M457.563 57.82l.389 13.589c.001.17-.016.338-.052.505-.258 1.03-1.411 4.519-4.909 3.13-3.171-1.277-6.095-2.378-8.233-1.96a1.878 1.878 0 00-1.514 2.052c.24 2.425.883 7.896 2.157 12.546a1.898 1.898 0 002.162 1.361c2.904-.526 9-1.813 13.659-3.988a1.872 1.872 0 001.091-1.605c.2-3.4.87-13.721 1.503-16.565.597-2.677 4.068-3.937 5.585-4.383a1.856 1.856 0 001.133-.92c.846-1.611 2.161-5.385-2.548-7.486a1.912 1.912 0 01-.942-2.574c.937-1.942 1.552-4.976-2.043-7.073-3.649-2.122-6.735-.386-8.456 1.114-.685.609-1.703.596-2.437.028-.419-.328-.969-.48-1.705-.123-.993.482-2.166-.038-2.549-1.08-.72-1.984-2.378-4.199-6.196-3.957-6.782.44-8.291 7.745-6.985 12.266 1.307 4.521 8.629 3.608 12.437 1.817 2.898-1.378 6.265.733 7.699 1.829.472.37.737.908.754 1.477z" fill="url(#paint28_linear_5089_42572)"/><path d="M463.919 71.82s-1.951-7.971 1.061-9.544c3.014-1.592 7.075-.164 5.587 5.291-1.872 6.796-6.648 4.253-6.648 4.253z" fill="url(#paint29_linear_5089_42572)"/><path d="M459.648 173.728l-14.883-4.13-7.714 4.81s1.137 2.441 6.217 2.128c5.08-.313 11.766.659 11.766.659s6.106 4.311 7.263-1.351l-2.649-2.116z" fill="url(#paint30_linear_5089_42572)"/><path d="M382.978 166.193c-1.333 1.034-5.889-1.128-8.683-2.632a3.204 3.204 0 01-1.554-3.796c.677-2.124 1.805-4.868 3.175-5.206 2.308-.583 12.562 7.349 7.062 11.634z" fill="url(#paint31_linear_5089_42572)"/><path d="M513.631 220.764c.056 0 .131-.019.206-.038 6.361-2.198 7.847-5.976 7.98-8.739.173-4.059-2.356-7.818-6.313-9.36l-19.56-7.649a.603.603 0 00-.769.338.633.633 0 00.337.789l19.559 7.65c3.47 1.353 5.699 4.642 5.546 8.176-.153 3.496-2.557 6.07-7.154 7.649a.603.603 0 00-.376.771c.056.244.3.413.544.413z" fill="#C5DF99"/><path d="M489.681 193.778a.616.616 0 00.563-.376.626.626 0 00-.337-.789l-2.532-.996a.605.605 0 00-.769.338.625.625 0 00.337.789l2.531.996c.075.019.15.038.207.038z" fill="#91B3FA"/><path opacity=".17" d="M262.833 187.453c-46.291-10.735-75.134-57.049-64.422-103.445 10.711-46.396 56.92-75.305 103.21-64.57 46.291 10.736 75.134 57.05 64.423 103.446-10.711 46.396-56.92 75.305-103.211 64.569z" fill="#B6B6B6"/><path opacity=".3" d="M333.845 45.802S226.123 32.274 204.581 147.164c-6.18-11.736-9.669-25.136-9.662-39.387.021-46.325 37.192-83.905 83.063-83.884 21.53.05 41.128 8.342 55.863 21.91z" fill="silver"/><defs><linearGradient id="paint0_linear_5089_42572" x1="192.93" y1="168.646" x2="207.709" y2="153.833" gradientUnits="userSpaceOnUse"><stop stop-color="#FFC954"/><stop offset="1" stop-color="#D45D22"/></linearGradient><linearGradient id="paint1_linear_5089_42572" x1="-4208.07" y1="899.762" x2="-4297.41" y2="1081.56" gradientUnits="userSpaceOnUse"><stop stop-color="#FFC954"/><stop offset="1" stop-color="#D45D22"/></linearGradient><linearGradient id="paint2_linear_5089_42572" x1="-7804.48" y1="3836.73" x2="-7560.66" y2="4050.6" gradientUnits="userSpaceOnUse"><stop stop-color="#FFC954"/><stop offset="1" stop-color="#D45D22"/></linearGradient><linearGradient id="paint3_linear_5089_42572" x1="204.923" y1="141.707" x2="253.268" y2="165.042" gradientUnits="userSpaceOnUse"><stop stop-color="#FFE585"/><stop offset="1" stop-color="#FF9E6E"/></linearGradient><linearGradient id="paint5_linear_5089_42572" x1="-1326.7" y1="2592.34" x2="-1209" y2="2561.08" gradientUnits="userSpaceOnUse"><stop stop-color="#FFC954"/><stop offset="1" stop-color="#D45D22"/></linearGradient><linearGradient id="paint6_linear_5089_42572" x1="-3806.13" y1="770.548" x2="-3895.21" y2="952.245" gradientUnits="userSpaceOnUse"><stop stop-color="#FFC954"/><stop offset="1" stop-color="#D45D22"/></linearGradient><linearGradient id="paint7_linear_5089_42572" x1="-7159.78" y1="3335.96" x2="-6916.03" y2="3549.91" gradientUnits="userSpaceOnUse"><stop stop-color="#FFC954"/><stop offset="1" stop-color="#D45D22"/></linearGradient><linearGradient id="paint8_linear_5089_42572" x1="-12477.9" y1="5860.66" x2="-10612.3" y2="6569.74" gradientUnits="userSpaceOnUse"><stop stop-color="#FFE585"/><stop offset="1" stop-color="#FF9E6E"/></linearGradient><linearGradient id="paint10_linear_5089_42572" x1="-1165.56" y1="2296.25" x2="-1048.04" y2="2265.07" gradientUnits="userSpaceOnUse"><stop stop-color="#FFC954"/><stop offset="1" stop-color="#D45D22"/></linearGradient><linearGradient id="paint11_linear_5089_42572" x1="-3394.23" y1="641.855" x2="-3483.33" y2="823.474" gradientUnits="userSpaceOnUse"><stop stop-color="#FFC954"/><stop offset="1" stop-color="#D45D22"/></linearGradient><linearGradient id="paint12_linear_5089_42572" x1="-6507.46" y1="2838.48" x2="-6263.4" y2="3052.39" gradientUnits="userSpaceOnUse"><stop stop-color="#FFC954"/><stop offset="1" stop-color="#D45D22"/></linearGradient><linearGradient id="paint13_linear_5089_42572" x1="-11351" y1="5060.58" x2="-9486.31" y2="5767.28" gradientUnits="userSpaceOnUse"><stop stop-color="#FFE585"/><stop offset="1" stop-color="#FF9E6E"/></linearGradient><linearGradient id="paint15_linear_5089_42572" x1="440.968" y1="351.065" x2="405.546" y2="350.751" gradientUnits="userSpaceOnUse"><stop stop-color="#fff"/><stop offset="1" stop-color="#fff"/></linearGradient><linearGradient id="paint16_linear_5089_42572" x1="441.029" y1="344.096" x2="406.651" y2="343.833" gradientUnits="userSpaceOnUse"><stop stop-color="#181818"/><stop offset="1" stop-color="#383838"/></linearGradient><linearGradient id="paint17_linear_5089_42572" x1="439.206" y1="336.47" x2="429.471" y2="334.032" gradientUnits="userSpaceOnUse"><stop stop-color="#FEBBBA"/><stop offset="1" stop-color="#FF928E"/></linearGradient><linearGradient id="paint18_linear_5089_42572" x1="506.933" y1="370.146" x2="493.722" y2="366.841" gradientUnits="userSpaceOnUse"><stop stop-color="#E2E2F3"/><stop offset="1" stop-color="#EDEDED"/></linearGradient><linearGradient id="paint19_linear_5089_42572" x1="509.444" y1="359.981" x2="489.983" y2="355.121" gradientUnits="userSpaceOnUse"><stop stop-color="#444"/><stop offset="1" stop-color="#1C1C1C"/></linearGradient><linearGradient id="paint20_linear_5089_42572" x1="502.769" y1="344.044" x2="491.136" y2="341.131" gradientUnits="userSpaceOnUse"><stop stop-color="#FEBBBA"/><stop offset="1" stop-color="#FF928E"/></linearGradient><linearGradient id="paint21_linear_5089_42572" x1="490.115" y1="124.791" x2="471.435" y2="182.616" gradientUnits="userSpaceOnUse"><stop/><stop offset="1" stop-color="#212121"/></linearGradient><linearGradient id="paint22_linear_5089_42572" x1="471.073" y1="145.738" x2="480.385" y2="201.979" gradientUnits="userSpaceOnUse"><stop stop-color="#FEBBBA"/><stop offset="1" stop-color="#FF928E"/></linearGradient><linearGradient id="paint23_linear_5089_42572" x1="425.126" y1="152.047" x2="389.827" y2="152.889" gradientUnits="userSpaceOnUse"><stop stop-color="#FEBBBA"/><stop offset="1" stop-color="#FF928E"/></linearGradient><linearGradient id="paint24_linear_5089_42572" x1="468.07" y1="66.517" x2="452.911" y2="127.143" gradientUnits="userSpaceOnUse"><stop stop-color="#FEBBBA"/><stop offset="1" stop-color="#FF928E"/></linearGradient><linearGradient id="paint25_linear_5089_42572" x1="340.771" y1="147.426" x2="526.577" y2="216.293" gradientUnits="userSpaceOnUse"><stop stop-color="#20251D"/><stop offset="1" stop-color="#3B472F"/></linearGradient><linearGradient id="paint26_linear_5089_42572" x1="368.7" y1="104.02" x2="189.731" y2="103.864" gradientUnits="userSpaceOnUse"><stop stop-color="#171A12"/><stop offset="1" stop-color="#44582A"/></linearGradient><linearGradient id="paint27_linear_5089_42572" x1="448.313" y1="54.525" x2="468.229" y2="101.607" gradientUnits="userSpaceOnUse"><stop stop-color="#FEBBBA"/><stop offset="1" stop-color="#FF928E"/></linearGradient><linearGradient id="paint28_linear_5089_42572" x1="475.523" y1="64.127" x2="367.938" y2="66.568" gradientUnits="userSpaceOnUse"><stop stop-color="#050506"/><stop offset="1" stop-color="#910F4D"/></linearGradient><linearGradient id="paint29_linear_5089_42572" x1="484.142" y1="96.883" x2="466.365" y2="66.245" gradientUnits="userSpaceOnUse"><stop stop-color="#FEBBBA"/><stop offset="1" stop-color="#FF928E"/></linearGradient><linearGradient id="paint30_linear_5089_42572" x1="437.142" y1="158.822" x2="471.944" y2="203.742" gradientUnits="userSpaceOnUse"><stop stop-color="#FEBBBA"/><stop offset="1" stop-color="#FF928E"/></linearGradient><linearGradient id="paint31_linear_5089_42572" x1="384.583" y1="160.496" x2="372.6" y2="160.486" gradientUnits="userSpaceOnUse"><stop stop-color="#FEBBBA"/><stop offset="1" stop-color="#FF928E"/></linearGradient><radialGradient id="paint4_radial_5089_42572" cx="0" cy="0" r="1" gradientUnits="userSpaceOnUse" gradientTransform="matrix(-13.365 0 0 -13.3969 213.524 141.936)"><stop stop-color="#FFE585"/><stop offset=".02" stop-color="#F7DE81"/><stop offset=".13" stop-color="#BEAA63"/><stop offset=".25" stop-color="#8B7D49"/><stop offset=".37" stop-color="#605732"/><stop offset=".49" stop-color="#3E3720"/><stop offset=".62" stop-color="#231F12"/><stop offset=".74" stop-color="#0F0E08"/><stop offset=".87" stop-color="#040302"/><stop offset="1"/></radialGradient><radialGradient id="paint9_radial_5089_42572" cx="0" cy="0" r="1" gradientUnits="userSpaceOnUse" gradientTransform="matrix(-263.01 0 0 -609.233 -6576.02 5807.38)"><stop stop-color="#FFE585"/><stop offset=".02" stop-color="#F7DE81"/><stop offset=".13" stop-color="#BEAA63"/><stop offset=".25" stop-color="#8B7D49"/><stop offset=".37" stop-color="#605732"/><stop offset=".49" stop-color="#3E3720"/><stop offset=".62" stop-color="#231F12"/><stop offset=".74" stop-color="#0F0E08"/><stop offset=".87" stop-color="#040302"/><stop offset="1"/></radialGradient><radialGradient id="paint14_radial_5089_42572" cx="0" cy="0" r="1" gradientUnits="userSpaceOnUse" gradientTransform="matrix(-263.045 0 0 -610.707 -5955.52 5011.68)"><stop stop-color="#FFE585"/><stop offset=".02" stop-color="#F7DE81"/><stop offset=".13" stop-color="#BEAA63"/><stop offset=".25" stop-color="#8B7D49"/><stop offset=".37" stop-color="#605732"/><stop offset=".49" stop-color="#3E3720"/><stop offset=".62" stop-color="#231F12"/><stop offset=".74" stop-color="#0F0E08"/><stop offset=".87" stop-color="#040302"/><stop offset="1"/></radialGradient></defs></svg>