<svg width="646" height="448" fill="none" xmlns="http://www.w3.org/2000/svg"><path opacity=".7" fill-rule="evenodd" clip-rule="evenodd" d="M286.608 85.27c82.672 13.103 175.654-17.473 239.126 26.474 67.106 46.463 64.024 117.695 54.666 176.941-9.749 61.724-26.8 133.473-107.036 154.637-77.252 20.378-165.529-32.567-249.099-60.695-62.194-20.933-125.947-39.603-167.079-79.382C14.591 262.05-3.15 213.57 1.667 167.349 6.882 117.312 20.935 60.092 84.433 41.801 145.78 24.13 215.934 74.07 286.608 85.27z" fill="#99BE43"/><path d="M23.598 23.595c-.904-1.726 1.37-3.622 3.283-2.74C46.319 29.826 95.008 59.12 102.9 130.07c9.904 89.019 38.594 115.085 69.211 127.624 0 0-37.627.048-67.997-26.078-74.563-64.145-64.439-177.182-80.516-208.02z" fill="#B8DA6B" fill-opacity=".8"/><path d="M42.785 46.787c4.449 9.066 8.688 18.215 12.535 27.51a431.95 431.95 0 0110.707 28.164c3.192 9.519 6.175 19.091 8.688 28.783 2.56 9.681 4.644 19.483 6.696 29.333 2.114 9.828 4.173 19.745 7.41 29.434 3.238 9.689 7.808 19.087 14.259 27.358 1.611 2.061 3.274 4.102 5.066 6.026 1.747 1.958 3.595 3.841 5.484 5.694a108.285 108.285 0 0012.287 10.286c8.799 6.279 18.749 11.299 29.263 15.012 1.106.391 2.419-.109 2.932-1.119.513-1.01.05-2.105-1.014-2.515-2.521-.969-5.025-1.964-7.463-3.058-1.232-.53-2.43-1.107-3.64-1.663-1.184-.599-2.396-1.157-3.554-1.787a107.333 107.333 0 01-13.34-8.256c-8.406-6.046-15.757-13.31-21.937-21.205a88.538 88.538 0 01-8.026-12.558 97.621 97.621 0 01-5.815-13.648c-3.221-9.385-5.358-19.177-7.551-28.987-2.194-9.81-4.5-19.648-7.264-29.36a363.006 363.006 0 00-4.387-14.491c-.764-2.405-1.58-4.794-2.396-7.184a670.576 670.576 0 00-2.572-7.123 431.574 431.574 0 00-11.575-28.016c-4.246-9.185-8.772-18.248-13.696-27.12a.608.608 0 00-.356-.256.596.596 0 00-.432.053.518.518 0 00-.347.485.534.534 0 00.038.208z" fill="#fff" fill-opacity=".3"/><path opacity=".5" d="M635.422 323.658c3.934-19.345-27.473-28.38-27.473-28.38s-34.471 20.07-40.503 17.944c-6.032-2.127 26.129-22.905 26.129-22.905-10.462-6.56-45.255-7.076-45.255-7.076s-15.675 35.678-20.995 32.132c-5.32-3.547 15.489-30.889 15.489-30.889-12.245-2.124-28.413 5.338-28.413 5.338-22.567 14.029-3.435 42.237-3.435 42.237s-5.698 12.247-20.094 22.369c0 0-2.961 1.72-6.853 5.207l2.902 1.45a31.23 31.23 0 011.919-1.86l.041-.034c.421-.353 1.02-.855 1.774-1.445 1.757-1.293 3-2.279 3.842-3.014 5.384-4.131 12.78-9.313 16.071-9.523a6.412 6.412 0 01.047-1.643l-.047 1.643c-.375 13.132 23.57 27.316 38.832 31.391 15.263 4.076 11.187-2.845 6.917-12.906-4.271-10.061-20.72-16.19-24.07-20.975-3.35-4.786 4.621-3.907 13.489 1.412 8.868 5.32 8.851 16.856 23.039 25.722s39.607-13.509 39.607-13.509c-11.889-1.946-27.483-16.849-26.418-20.748 1.065-3.899 28.212 10.101 33.002 11.161 4.79 1.06 16.52-3.753 20.456-23.099zm-101.47-126.003c-10.065-12.757-32.61 2.152-32.61 2.152s-5.872 32.303-10.45 34.959c-4.579 2.655-.39-28.58-.39-28.58-9.745 3.081-28.739 24.641-28.739 24.641s14.041 28.808 8.954 30.261c-5.088 1.453-11.126-26.145-11.126-26.145-7.902 6.554-11.892 20.671-11.892 20.671-3.283 21.622 24.742 24.612 24.742 24.612s4.65 10.091 3.291 24.504a37.648 37.648 0 00-.4 7.067l2.47-1.05a25.542 25.542 0 01-.142-2.192l-.011-.028c.009-.452.021-1.095.044-1.883.129-1.791.177-3.094.168-4.015.3-5.577 1.011-12.977 2.637-15.155a5.14 5.14 0 01-1.011-.903l1.011.903c8.064 7.217 29.844-.268 40.603-7.679 10.759-7.41 4.213-8.533-4.406-11.19-8.62-2.657-21.314 4.395-26.136 3.961-4.821-.434.023-4.977 8.132-7.714 8.109-2.738 15.36 3.406 28.556-.785 13.197-4.19 12.761-32.038 12.761-32.038-7.61 6.426-25.36 8.295-27.238 5.544-1.879-2.75 21.501-12.333 24.743-14.776 3.242-2.444 6.497-12.4-3.561-25.142z" fill="#495C1B"/><path d="M142.42 233.399a4.292 4.292 0 01-5.138 2.453 4.2 4.2 0 01-1.766-1.025c-11.814-11.461-42.228-46.876-36.647-103.442 4.72-47.766 2.696-74.07.943-85.947-.371-2.51 2.716-4.06 4.522-2.273 19.928 19.73 79.605 89.96 38.086 190.234z" fill="#EAA639"/><path d="M138.495 233.082a1.169 1.169 0 01-1.708-.581c-.251-.682-25.182-68.882-21.716-135.449a1.165 1.165 0 01.385-.806 1.195 1.195 0 01.846-.304 1.174 1.174 0 01.81.376 1.141 1.141 0 01.3.836c-3.44 66.083 21.322 133.859 21.582 134.529.094.253.096.532.004.787a1.174 1.174 0 01-.503.612z" fill="#fff" fill-opacity=".3"/><path d="M386.847 143.796c-5.917-10.396-10.469-24.369-1.171-34.83 16.796-18.894 50.384-23.093 58.783 6.301 3.473 12.158 1.021 21.609-3.051 28.51-3.771 6.392.877 14.449 8.299 14.449h53.535v71.427c0 6.449-7.246 10.141-12.546 6.458-35.914-24.926-54.639 4.475-54.678 17.707-.046 14.696 6.341 49.336 29.434 48.286 10.554-.473 19.354-4.028 25.798-7.741 5.337-3.074 11.992.67 11.992 6.829v66.579h-55.403c-6.578 0-10.5 7.265-6.923 12.784 4.112 6.342 7.553 15.536 7.741 28.622.472 33.308-50.384 27.291-62.981 16.794-8.997-7.498-9.367-31.539-2.362-46.407 2.588-5.492-1.668-11.793-7.742-11.793h-53.927v-72.852c0-5.311-5.768-8.576-10.334-5.864-9.281 5.513-23.616 12.431-37.952 13.053-24.142 1.051-27.291-26.242-28.341-47.235-.926-18.543 34.423-48.557 62.327-30.258 4.567 2.992 13.957 7.385 13.957 1.918v-68.309h57.226c7.411 0 11.986-7.988 8.319-14.428z" fill="url(#paint0_linear_8130_48740)"/><path d="M115.108 292.364c-6.301 4.227-14.61 8.337-23.979 9.274-20.744 2.075-29.042-20.744-30.085-40.453-1.043-19.708 16.6-38.372 32.16-36.303 7.329.976 15.346 5.635 21.779 10.29 5.198 3.761 12.444.063 12.444-6.351v-70.785h71.612c5.968 0 9.923-6.162 7.43-11.585-5.619-12.212-11.93-30.769-3.128-38.779 13.68-12.443 50.631-12.443 56.862 6.224 3.486 10.454-1.249 23.031-6.089 32.076-2.92 5.453 1.019 12.035 7.205 12.035h61.115v65.555c0 6.993-7.909 11.341-13.612 7.293-26.439-18.765-55.313 1.028-57.966 23.071-3.112 25.93 13.484 47.712 31.117 45.638 8.955-1.054 19.245-6.118 27.208-10.85 5.847-3.475 13.245.698 13.245 7.501v72.408h-70.387c-8.055 0-13.442-8.402-9.951-15.662 4.161-8.651 21.214-19.27 20.188-27.466-2.074-16.595-39.025-20.702-58.929-17.611-15.191 2.362-7.639 26.12.996 45.164 3.307 7.299-1.963 15.575-9.976 15.575h-66.934v-69.812c0-6.337-7.061-9.977-12.325-6.447z" fill="url(#paint1_linear_8130_48740)"/><path d="M480.271 104.384a.622.622 0 00.717.059l6.485-3.862a32.861 32.861 0 0010.148 3.24l3.048 6.901a.621.621 0 00.619.367l9.023-.758a.625.625 0 00.549-.472l1.853-7.312a32.873 32.873 0 009.465-4.883l7.037 2.727a.627.627 0 00.698-.178l5.844-6.917a.616.616 0 00.06-.717l-3.864-6.486a32.881 32.881 0 003.242-10.147l6.9-3.048a.633.633 0 00.367-.619l-.759-9.022a.618.618 0 00-.472-.55l-7.312-1.852a32.889 32.889 0 00-4.891-9.465l2.727-7.04a.623.623 0 00-.18-.696l-6.915-5.844a.62.62 0 00-.718-.06l-6.48 3.864a32.845 32.845 0 00-10.147-3.241l-3.048-6.901a.62.62 0 00-.621-.367l-9.024.758a.618.618 0 00-.548.472l-1.849 7.31a32.922 32.922 0 00-9.464 4.883l-7.04-2.723a.631.631 0 00-.698.178l-5.842 6.916a.62.62 0 00-.06.718l3.862 6.485a32.881 32.881 0 00-3.24 10.147l-6.901 3.048a.62.62 0 00-.367.62l.758 9.022a.618.618 0 00.472.55l7.312 1.852a32.87 32.87 0 004.883 9.465l-2.726 7.04a.617.617 0 00.177.697l6.92 5.841z" fill="#333945"/><path d="M504.141 80.047a9.112 9.112 0 11-3.357-17.911 9.112 9.112 0 013.357 17.91zm-2.935-15.812a6.955 6.955 0 102.542 13.677 6.955 6.955 0 00-2.542-13.677z" fill="#FCFCFC"/><path d="M506.736 92.931c-.75.141-1.51.246-2.28.315a22.647 22.647 0 01-4.309-.05h-.049l-.137-.017-.268-.032a.53.53 0 01-.453-.428.469.469 0 010-.167.53.53 0 01.593-.459 21.336 21.336 0 0021.635-11.262 21.19 21.19 0 002.363-11.665 21.778 21.778 0 00-.293-2.174 21.324 21.324 0 00-22.734-17.282c-11.718.986-20.441 11.315-19.456 23.027a21.355 21.355 0 003.928 10.654.532.532 0 01-.863.62 22.358 22.358 0 01-4.122-11.183c-1.035-12.297 8.132-23.14 20.423-24.175a22.387 22.387 0 0124.181 20.425 22.377 22.377 0 01-18.159 23.853z" fill="#FCFCFC"/><path d="M433.517 148.404a.412.412 0 00.473.041l4.339-2.584a22.045 22.045 0 006.791 2.169l2.038 4.616a.417.417 0 00.414.246l6.038-.507a.417.417 0 00.368-.315l1.24-4.893a21.92 21.92 0 006.332-3.273l4.711 1.824a.416.416 0 00.473-.119l3.909-4.628a.415.415 0 00.041-.473l-2.584-4.339a22.043 22.043 0 002.168-6.791l4.617-2.047a.417.417 0 00.246-.415l-.507-6.037a.424.424 0 00-.315-.369l-4.893-1.239a21.945 21.945 0 00-3.273-6.332l1.824-4.712a.412.412 0 00-.118-.472l-4.629-3.91a.414.414 0 00-.473-.041l-4.341 2.602a21.949 21.949 0 00-6.79-2.168l-2.04-4.619a.417.417 0 00-.414-.245l-6.038.507a.414.414 0 00-.367.315l-1.241 4.892a22.045 22.045 0 00-6.332 3.273l-4.711-1.824a.423.423 0 00-.256-.017.42.42 0 00-.217.137l-3.909 4.628a.412.412 0 00-.04.48l2.585 4.338a21.962 21.962 0 00-2.169 6.792l-4.618 2.038a.417.417 0 00-.246.415l.507 6.037a.424.424 0 00.315.369l4.894 1.239a21.98 21.98 0 003.272 6.332l-1.824 4.712a.412.412 0 00.119.472l4.631 3.895z" fill="#333945" fill-opacity=".7"/><path d="M449.497 132.228a6.219 6.219 0 01-6.457-9.343 6.22 6.22 0 116.457 9.343zm-1.961-10.581c-.22.04-.436.097-.647.171a4.567 4.567 0 002.964 8.625 4.568 4.568 0 00-2.317-8.796z" fill="#FCFCFC"/><path d="M451.294 141.201c-.509.094-1.029.157-1.555.209a15.57 15.57 0 01-3.15-.053l-.14-.018a.822.822 0 01-.709-.917.819.819 0 01.918-.708c.974.125 1.959.146 2.938.063l.157-.014a13.681 13.681 0 006.368-2.267 13.896 13.896 0 002.79-2.468l.02-.024.062-.071a13.713 13.713 0 003.21-10.063 13.796 13.796 0 00-13.167-12.622c-2.063-.087-4.12.29-6.018 1.103a13.81 13.81 0 00-7.857 8.98 13.802 13.802 0 002.081 11.748.825.825 0 01.058.865.82.82 0 01-1.388.093 15.44 15.44 0 01.932-19.157 15.44 15.44 0 0118.865-3.463 15.444 15.444 0 017.915 10.742 15.467 15.467 0 01-12.33 18.042z" fill="#FCFCFC"/><path d="M271.749 212.749s-2.627-7.004-5.694-6.362c-3.067.642-6.424 3.029-6.424 3.029l-4.928 6.753s13.836 5.521 18.7 2.358c0 0 14.132 2.472 31.978-.494-2.582-5.525-4.131-11.059-5.028-15.347-9.038 5.178-18.774 9.049-28.604 10.063z" fill="url(#paint2_linear_8130_48740)"/><path d="M346.604 161.94s-20.23 25.82-46.252 40.741c.903 4.294 2.444 9.828 5.027 15.347 13.497-2.244 29.119-7.598 42.363-19.499l-1.138-36.589z" fill="#EEE"/><path d="M371.838 276.378c-3.959-19.042-7.918-30.066-21.163-66.161-4.169-11.358-7.954-22.846-6.124-34.827l2.055-13.449s25.747-8.828 54.287-.372c0 0 38.937 17.138 12.49 101.78-11.922 13.512-25.873 17.365-41.545 13.029z" fill="#fff"/><path d="M350.992 144.773l6.677 16.252c.207.504.537.946.958 1.286.421.34.921.567 1.452.659 3.849.669 13.157 1.714 19.278-2.36a1.58 1.58 0 00.416-2.213l-12.334-17.942-16.447 4.318z" fill="url(#paint3_linear_8130_48740)"/><path d="M357.892 119.911c-.28.267-11.833 23.254-11.833 23.254l13.095 6.404 14.144-20.138s-10.712-13.997-15.406-9.52z" fill="url(#paint4_linear_8130_48740)"/><path d="M367.345 131.846l-6.531 11.031a2.032 2.032 0 01-.358.452c-.778.732-3.442 2.865-5.494-.039-1.752-2.474-3.396-4.724-5.164-5.652a2.056 2.056 0 00-1.602-.124 2.106 2.106 0 00-1.215 1.064c-1.076 2.161-3.161 6.566-4.476 10.743a2.13 2.13 0 00.105 1.53c.223.478.616.854 1.1 1.053 2.653 1.088 7.892 3.057 12.543 3.707.374.053.756.001 1.103-.149.348-.15.649-.392.871-.702 2-2.776 7.639-10.537 9.564-12.48 1.788-1.805 5.088-1.124 6.575-.697a2.072 2.072 0 001.668-.222c1.509-.92 4.141-3.212 1.733-7.094a2.146 2.146 0 01-.252-1.572 2.122 2.122 0 01.899-1.306c1.684-1.121 3.512-3.229 1.772-6.641-1.765-3.454-4.911-3.765-7.058-3.5a2.145 2.145 0 01-1.349-.255 2.19 2.19 0 01-.926-1.027 1.398 1.398 0 00-.426-.575 1.362 1.362 0 00-.652-.284 2.019 2.019 0 01-1.32-.857 2.065 2.065 0 01-.32-1.555c.377-1.955.093-4.494-2.988-6.211-5.649-3.139-10.598 1.982-11.856 6.31-1.259 4.329 5.057 7.389 9.031 7.899 2.926.376 4.519 3.603 5.164 5.291a2.143 2.143 0 01-.141 1.862z" fill="#3B3D42"/><path d="M365.059 145.582s2.81-6.699 6.024-6.425 5.747 3.519 1.761 7.168c-4.956 4.539-7.785-.743-7.785-.743z" fill="url(#paint5_linear_8130_48740)"/><path d="M369.305 444.199c6.218.544 17.011 1.428 25.519 1.808 5.114.229 8.059-.279 9.755-.966 0 .194-.009.375-.016.546-.024.44-.208.856-.516 1.168-.309.311-.72.495-1.155.517-16.077.908-28.864.314-33.415.033a1.247 1.247 0 01-1.04-.663 1.284 1.284 0 01.019-1.245c.255-.419.538-.82.849-1.198z" fill="#8B8B8B"/><path d="M394.824 446.012c-8.508-.38-19.3-1.264-25.519-1.808 6.114-7.601 25.519-12.723 25.519-12.723h5.481c3.769 5.506 4.315 10.747 4.274 13.565-1.696.682-4.641 1.189-9.755.966z" fill="url(#paint6_linear_8130_48740)"/><path d="M401.224 422.411l-.517 10.289a2.364 2.364 0 01-.598 1.464 2.313 2.313 0 01-1.379.746 8.932 8.932 0 01-4.118-.349 2.742 2.742 0 01-1.211-.812 2.791 2.791 0 01-.632-1.324l-1.773-10.011 10.228-.003z" fill="url(#paint7_linear_8130_48740)"/><path d="M472.414 445.931c2.697-.382 3.918-1.802 4.429-3.314l.01.042c.396 1.601-.516 3.259-2.361 4.048-2.223.954-4.648 1.116-6.541 1.046-2.025-.084-3.884-.933-4.904-2.291l-.016-.021c2.035 1.004 4.887 1.124 9.383.49z" fill="#8B8B8B"/><path d="M459.846 422.405h4.52c6.885-.143 11.207 14.569 12.622 20.267-.516 1.517-1.732 2.936-4.429 3.313-4.496.635-7.348.515-9.381-.504-3.718-4.958-5.563-12.222-6.449-16.46-1.007-4.815 3.117-6.616 3.117-6.616z" fill="#2C2C2C"/><path d="M463.637 412.8l2.509 10.115c.148.603.089 1.24-.167 1.805a2.722 2.722 0 01-1.242 1.304c-1.405.731-3.381 1.498-5.197 1.277a2.245 2.245 0 01-1.138-.499 2.288 2.288 0 01-.709-1.031l-3.685-10.638 9.629-2.333z" fill="url(#paint8_linear_8130_48740)"/><path d="M466.629 415.726c-3.122 2.806-13.277 3.175-13.277 3.175-36.586-88.966-51.84-113.452-51.84-113.452 5.283 33.58 1.14 119.776 1.14 119.776-6.039 2.7-13.822 0-13.822 0-.491-54.975-8.13-114.056-17.982-151.846 24.727-.563 38.165-6.025 42.46-9.466 20.612 33.662 53.321 151.813 53.321 151.813z" fill="#3B3D42"/><path d="M364.621 298.232l4.549 28.668a9.467 9.467 0 003.615 6.036 9.224 9.224 0 006.735 1.811l68.101-8.416a6.7 6.7 0 004.181-2.187 6.864 6.864 0 001.743-4.428c.145-7.408-.143-20.593-3.21-32.612l-85.714 11.128z" fill="#141414"/><path d="M379.298 332.979h-.012a9.074 9.074 0 01-1.631-.245.192.192 0 01-.124-.092.205.205 0 01.01-.228.196.196 0 01.058-.053.192.192 0 01.153-.024 8.534 8.534 0 001.558.234.194.194 0 01.14.064.205.205 0 01-.008.288.204.204 0 01-.144.056zm3.747-.32a.196.196 0 01-.146-.051.205.205 0 01.122-.357l1.602-.197a.192.192 0 01.15.039.2.2 0 01.076.136.204.204 0 01-.041.149.201.201 0 01-.131.079l-1.603.197-.029.005zm5.336-.661a.198.198 0 01-.138-.055.204.204 0 01-.017-.278.2.2 0 01.129-.073l1.602-.199a.191.191 0 01.079.005.19.19 0 01.07.034.2.2 0 01.077.136.203.203 0 01-.172.226l-1.603.199-.027.005zm5.336-.659a.204.204 0 01-.163-.339.197.197 0 01.139-.069l1.602-.197a.186.186 0 01.078.004c.026.006.05.018.071.035a.2.2 0 01.075.136.206.206 0 01-.172.228l-1.603.197-.027.005zm-19.38-.254a.206.206 0 01-.124-.042 9.22 9.22 0 01-1.205-1.141.209.209 0 01.021-.285.202.202 0 01.282.011c.35.399.734.765 1.15 1.092a.203.203 0 01.066.227.205.205 0 01-.19.138zm24.733-.414a.203.203 0 01-.199-.191.203.203 0 01.175-.215l1.602-.199a.21.21 0 01.079.004.2.2 0 01.147.171.207.207 0 01-.04.15.198.198 0 01-.132.078l-1.603.199-.029.003zm5.336-.659a.205.205 0 01-.147-.05.212.212 0 01-.057-.22.196.196 0 01.102-.117.2.2 0 01.076-.021l1.602-.197a.189.189 0 01.15.038.187.187 0 01.052.06.21.21 0 01-.016.226.2.2 0 01-.132.077l-1.603.199-.027.005zm5.336-.661c-.051 0-.1-.02-.137-.056a.208.208 0 01-.017-.278.203.203 0 01.13-.072l1.602-.199a.186.186 0 01.078.004.187.187 0 01.122.095.208.208 0 01-.016.226.206.206 0 01-.132.078l-1.603.197-.027.005zm5.336-.659a.202.202 0 01-.03-.403l1.603-.197a.186.186 0 01.078.004c.026.006.05.018.071.034a.213.213 0 01.052.06.21.21 0 01.024.076.205.205 0 01-.039.15.203.203 0 01-.133.077l-1.602.199h-.024zm5.335-.661a.205.205 0 01-.136-.056.205.205 0 01-.062-.136.204.204 0 01.045-.142.199.199 0 01.129-.072l1.603-.199a.171.171 0 01.078.003c.026.006.05.018.071.035a.205.205 0 01.075.136.205.205 0 01-.172.229l-1.603.197-.028.005zm5.336-.659a.208.208 0 01-.146-.051.212.212 0 01-.067-.141.192.192 0 01.011-.079.205.205 0 01.039-.069.211.211 0 01.063-.048.187.187 0 01.076-.02l1.603-.199a.204.204 0 01.078.003.205.205 0 01.123.095.21.21 0 01-.016.225.198.198 0 01-.132.078l-1.602.199-.03.007zm5.336-.661a.203.203 0 01-.199-.192.204.204 0 01.175-.215l1.603-.198a.186.186 0 01.149.038.196.196 0 01.075.136.208.208 0 01-.041.15.2.2 0 01-.132.078l-1.602.198-.028.005zm-59.8-.039a.201.201 0 01-.193-.144 9.292 9.292 0 01-.287-1.254l-.06-.37a.201.201 0 01.037-.154.19.19 0 01.059-.054.187.187 0 01.076-.027.18.18 0 01.08.003.206.206 0 01.152.171l.059.371c.063.406.155.806.275 1.199a.204.204 0 01-.133.256.142.142 0 01-.029.01l-.036-.007zm65.141-.62a.2.2 0 01-.145-.052.2.2 0 01-.068-.14.205.205 0 01.189-.217l1.603-.198a.186.186 0 01.149.038.2.2 0 01.076.136.203.203 0 01-.172.227l-1.602.199-.03.007zm5.336-.661a.208.208 0 01-.146-.051.211.211 0 01-.048-.063.21.21 0 01-.01-.156.198.198 0 01.04-.069.195.195 0 01.139-.069l1.602-.198a.21.21 0 01.079.004.196.196 0 01.122.095.208.208 0 01-.016.226.204.204 0 01-.132.078l-1.602.197-.028.006zm5.309-.824a.201.201 0 01-.19-.134.21.21 0 01.008-.156.198.198 0 01.113-.105c.491-.18.958-.422 1.389-.721a.203.203 0 01.228-.008.208.208 0 01.09.132.206.206 0 01-.033.157.207.207 0 01-.058.056 6.547 6.547 0 01-1.478.767.157.157 0 01-.026.019l-.043-.007zm-76.688-3.249a.197.197 0 01-.132-.049.207.207 0 01-.068-.125l-.256-1.615a.215.215 0 01.003-.08.206.206 0 01.094-.127.205.205 0 01.075-.027.201.201 0 01.154.036.22.22 0 01.053.061c.014.024.022.05.025.078l.255 1.615a.203.203 0 01-.096.208.206.206 0 01-.076.025h-.031zm80.493-.411a.194.194 0 01-.075-.016.206.206 0 01-.112-.265 6.19 6.19 0 00.394-1.528.21.21 0 01.077-.136.2.2 0 01.284.037.21.21 0 01.04.152 6.626 6.626 0 01-.42 1.627.209.209 0 01-.075.091.208.208 0 01-.113.034v.004zm-81.347-4.972a.203.203 0 01-.199-.175l-.257-1.615a.203.203 0 01.172-.233.196.196 0 01.231.174l.256 1.615a.185.185 0 01-.003.081.203.203 0 01-.093.127.202.202 0 01-.076.026h-.031zm81.835-.421a.201.201 0 01-.202-.204c0-.523 0-1.072-.012-1.634a.202.202 0 01.193-.205c.053 0 .104.021.142.058a.212.212 0 01.063.142c0 .563.01 1.111.012 1.639a.196.196 0 01-.016.079.196.196 0 01-.044.066.196.196 0 01-.066.044.171.171 0 01-.077.015h.007zm-82.69-4.963a.198.198 0 01-.131-.05.206.206 0 01-.067-.124l-.257-1.615a.22.22 0 01.003-.081.206.206 0 01.17-.155.193.193 0 01.152.037c.022.016.04.037.054.06a.215.215 0 01.024.078l.257 1.615a.202.202 0 01-.004.081.203.203 0 01-.168.154h-.033zm82.583-.49a.199.199 0 01-.201-.195c-.021-.536-.044-1.08-.071-1.633a.208.208 0 01.051-.148.208.208 0 01.063-.047.186.186 0 01.077-.019.19.19 0 01.145.052.21.21 0 01.067.141c.027.555.05 1.101.07 1.638a.21.21 0 01-.053.147.194.194 0 01-.064.046.211.211 0 01-.077.018h-.007zm-83.437-4.883a.198.198 0 01-.131-.05.209.209 0 01-.069-.124l-.254-1.615a.2.2 0 01.033-.155.209.209 0 01.133-.084.197.197 0 01.08.004.199.199 0 01.151.17l.257 1.615a.202.202 0 01-.004.081.203.203 0 01-.168.153l-.028.005zm83.125-.551a.2.2 0 01-.136-.055.201.201 0 01-.065-.133 206.32 206.32 0 00-.136-1.629.205.205 0 01.182-.222.19.19 0 01.079.008c.025.007.049.02.069.038a.188.188 0 01.05.062c.012.024.019.05.021.077.05.549.095 1.093.138 1.632a.207.207 0 01-.186.22l-.016.002zm-83.979-4.833a.2.2 0 01-.131-.05.207.207 0 01-.068-.124l-.257-1.615a.202.202 0 01.004-.081.203.203 0 01.168-.154.18.18 0 01.08.003.206.206 0 01.127.094c.013.024.022.05.026.077l.256 1.615a.204.204 0 01-.172.234l-.033.001zm83.441-.593a.198.198 0 01-.132-.049.205.205 0 01-.068-.125c-.067-.539-.136-1.078-.21-1.62a.196.196 0 01.005-.08.187.187 0 01.034-.071.186.186 0 01.059-.053.21.21 0 01.153-.022.21.21 0 01.123.095.196.196 0 01.025.075c.074.544.145 1.085.21 1.625a.208.208 0 01-.039.151.208.208 0 01-.133.078l-.027-.004zm-82.917-1.123a.199.199 0 01-.133-.059.207.207 0 01.107-.349l1.601-.207a.191.191 0 01.203.097.21.21 0 01-.016.227.205.205 0 01-.132.08l-1.601.208-.029.003zm5.336-.697a.209.209 0 01-.133-.059.21.21 0 01-.017-.274.198.198 0 01.124-.075l1.602-.208a.175.175 0 01.079.003.187.187 0 01.123.095.21.21 0 01-.016.226.206.206 0 01-.132.079l-1.603.207-.027.006zm5.336-.698a.203.203 0 01-.147-.05.21.21 0 01-.068-.141.21.21 0 01.05-.148.197.197 0 01.139-.069l1.6-.208a.19.19 0 01.079.004.187.187 0 01.123.095.2.2 0 01.024.076.192.192 0 01-.005.079.2.2 0 01-.167.149l-1.601.208-.027.005zm5.335-.698a.204.204 0 01-.201-.174.212.212 0 01.04-.15.205.205 0 01.132-.08l1.601-.208a.21.21 0 01.079.003.205.205 0 01.123.095c.013.024.021.05.023.077a.21.21 0 01-.004.079.209.209 0 01-.093.124.202.202 0 01-.075.025l-1.6.208-.025.001zm5.336-.697a.2.2 0 01-.137-.055.206.206 0 01-.018-.279.199.199 0 01.13-.072l1.6-.208a.175.175 0 01.079.003.191.191 0 01.147.171.215.215 0 01-.039.151.196.196 0 01-.059.052.199.199 0 01-.074.026l-1.601.207-.028.004zm5.336-.698a.2.2 0 01-.137-.055.206.206 0 01-.018-.278.204.204 0 01.129-.073l1.601-.208a.19.19 0 01.079.004.191.191 0 01.124.094c.013.024.022.05.024.077a.204.204 0 01-.172.228l-1.6.208-.03.003zm5.336-.697a.204.204 0 01-.2-.191.205.205 0 01.174-.216l1.601-.207a.21.21 0 01.079.003.205.205 0 01.124.095.208.208 0 01-.016.227.2.2 0 01-.132.079l-1.601.208-.029.002zm50.089-.117a.2.2 0 01-.198-.175 99.962 99.962 0 00-.296-1.602.215.215 0 01.03-.154.213.213 0 01.128-.087.21.21 0 01.152.03.217.217 0 01.056.057.193.193 0 01.03.074c.103.537.203 1.074.298 1.611a.206.206 0 01-.003.082.193.193 0 01-.093.128.187.187 0 01-.076.027.156.156 0 01-.016.028l-.012-.019zm-44.753-.574a.194.194 0 01-.132-.059.203.203 0 01-.06-.133.204.204 0 01.166-.216l1.601-.208a.216.216 0 01.08.003.187.187 0 01.123.095c.014.024.022.05.024.077a.207.207 0 01-.04.15.2.2 0 01-.132.078l-1.601.208-.029.005zm5.336-.697a.204.204 0 01-.132-.059.208.208 0 01.106-.35l1.601-.207a.191.191 0 01.203.098.183.183 0 01.024.076.206.206 0 01-.172.229l-1.601.207-.029.006zm5.336-.698a.204.204 0 01-.132-.059.21.21 0 01-.061-.133.21.21 0 01.043-.141.207.207 0 01.124-.075l1.601-.208a.21.21 0 01.079.003.2.2 0 01.148.172.203.203 0 01-.04.149.2.2 0 01-.132.079l-1.601.208-.029.005zm5.336-.698c-.051 0-.1-.02-.138-.055a.204.204 0 01.112-.351l1.603-.208a.192.192 0 01.079.004c.025.006.05.018.071.034a.2.2 0 01.075.137.2.2 0 01-.172.228l-1.603.208-.027.003zm5.336-.697a.2.2 0 01-.138-.056.205.205 0 01.112-.351l1.603-.207a.191.191 0 01.079.002.192.192 0 01.146.172.2.2 0 01-.04.15.2.2 0 01-.132.079l-1.603.207-.027.004zm5.336-.698a.205.205 0 01-.078-.01.2.2 0 01-.116-.104.187.187 0 01-.02-.077.205.205 0 01.049-.148.206.206 0 01.139-.069l1.601-.207a.194.194 0 01.15.037.187.187 0 01.051.061.183.183 0 01.024.076.215.215 0 01-.004.08.214.214 0 01-.094.124.177.177 0 01-.074.026l-1.601.208-.027.003zm5.336-.697a.205.205 0 01-.215-.191.21.21 0 01.113-.197.2.2 0 01.076-.021l1.601-.207a.186.186 0 01.078.004c.026.006.05.018.071.034a.213.213 0 01.052.06.21.21 0 01.024.076.204.204 0 01-.172.229l-1.601.207-.027.006zm11.615-.609a.204.204 0 01-.125-.043.203.203 0 01-.071-.112c-.055-.232-.114-.462-.172-.698l-.546.072a.192.192 0 01-.15-.039.2.2 0 01-.076-.136.214.214 0 01.04-.151.203.203 0 01.133-.079l.9-.115.043.174c.075.29.148.58.218.872a.206.206 0 01-.148.248.228.228 0 01-.02.059l-.026-.052zm-6.278-.084a.196.196 0 01-.132-.059.207.207 0 01.107-.349l1.6-.207a.194.194 0 01.203.098.208.208 0 01-.016.226.2.2 0 01-.132.078l-1.6.208-.03.005z" fill="#6A6C71"/><path d="M381.923 274.755l-.075-2.246a1.715 1.715 0 011.151-1.164c2.076-.617 7.259-1.899 10.032-.31l.704 2.53-11.812 1.19z" fill="url(#paint9_linear_8130_48740)"/><path d="M388.426 271.811c-.466.182-.97.247-1.466.188a1.33 1.33 0 01-.787-.379 1.368 1.368 0 01-.389-.791l-.878-6.953 3.493-.452.878 6.947c.037.301-.026.607-.181.868-.154.261-.39.463-.67.572z" fill="url(#paint10_linear_8130_48740)"/><path d="M415.748 270.359l-.076-2.246a1.722 1.722 0 011.153-1.163c2.076-.616 7.259-1.899 10.032-.311l.704 2.533-11.813 1.187z" fill="silver"/><path d="M422.101 267.365c-.466.183-.97.248-1.466.189a1.33 1.33 0 01-.787-.38 1.356 1.356 0 01-.389-.791l-.971-7.684 3.493-.453.969 7.674c.039.302-.023.609-.177.871a1.342 1.342 0 01-.672.574z" fill="url(#paint11_linear_8130_48740)"/><path d="M384.619 265.567l37.398-6.13c.415-.064.796-.27 1.078-.586.283-.315.449-.719.471-1.144a15.837 15.837 0 00-.492-4.838c-.286-1-.91-1.867-1.764-2.447a4.326 4.326 0 00-2.904-.723c-7.028.739-24.864 3.057-34.198 8.271a3.49 3.49 0 00-1.207 1.123 3.542 3.542 0 00-.561 1.56 8.584 8.584 0 00.398 3.876c.134.355.384.651.708.84.325.189.704.259 1.073.198z" fill="#813002"/><path d="M383.693 264.051a.539.539 0 01-.525-.422 9.557 9.557 0 01-.143-3.032 3.61 3.61 0 01.683-1.656 3.543 3.543 0 011.391-1.11c2.031-.902 5.93-2.491 9.226-3.014a.535.535 0 01.401.096.55.55 0 01-.229.982c-3.294.523-7.363 2.225-8.959 2.933a2.43 2.43 0 00-.969.768 2.474 2.474 0 00-.472 1.151 8.497 8.497 0 00.128 2.638.556.556 0 01-.068.412.539.539 0 01-.464.254z" fill="#FAFAFA"/><path d="M364.386 276.139c12.115-1.73 64.534-9.093 80.017-9.207a3.106 3.106 0 011.817.566c.533.375.938.909 1.159 1.527 1.422 4.011 4.444 13.362 5.431 22.893a2.807 2.807 0 01-.439 1.796 2.738 2.738 0 01-1.455 1.118l-33.962 11.184-12.362 1.603-38.028-2.661a2.908 2.908 0 01-1.753-.745 2.98 2.98 0 01-.931-1.679c-.845-4.749-2.637-15.919-2.273-23.305a3.298 3.298 0 01.84-2.052 3.22 3.22 0 011.939-1.038z" fill="#813002"/><path d="M404.52 304.751l-1.65-.112a.2.2 0 01-.138-.07.21.21 0 01-.03-.225.214.214 0 01.117-.103.207.207 0 01.078-.01l1.611.114.172-.026a.175.175 0 01.079.003.187.187 0 01.123.095.207.207 0 01-.016.226.198.198 0 01-.132.078l-.214.03zm-5.394-.375h-.014l-1.611-.112a.198.198 0 01-.138-.069.208.208 0 01-.04-.069.238.238 0 01-.01-.079.211.211 0 01.069-.141.213.213 0 01.147-.05l1.611.112a.199.199 0 01.14.065.206.206 0 01-.01.288.199.199 0 01-.144.055zm9.312-.134a.209.209 0 01-.133-.059.21.21 0 01-.017-.274.207.207 0 01.124-.075l1.603-.208a.204.204 0 01.078.003.196.196 0 01.147.172.208.208 0 01-.04.149.203.203 0 01-.132.079l-1.589.199-.041.014zm-14.681-.241h-.014l-1.611-.113a.205.205 0 01-.187-.218.212.212 0 01.215-.19l1.611.113a.199.199 0 01.14.065.201.201 0 01.054.146.201.201 0 01-.208.197zm-5.368-.375h-.014l-1.61-.111a.206.206 0 01-.138-.07.19.19 0 01-.039-.069.196.196 0 01-.01-.079.21.21 0 01.07-.139.2.2 0 01.145-.051l1.609.111a.205.205 0 01.179.211.208.208 0 01-.058.138.208.208 0 01-.134.061v-.002zm25.387-.077a.202.202 0 01-.193-.192.208.208 0 01.167-.216l1.602-.207a.176.176 0 01.079.003.2.2 0 01.147.171.205.205 0 01-.172.229l-1.603.207-.027.005zm-30.756-.3h-.014l-1.609-.113a.187.187 0 01-.077-.02.21.21 0 01-.101-.118.198.198 0 01-.01-.08.208.208 0 01.215-.19l1.61.113a.203.203 0 01.194.211.207.207 0 01-.064.143.198.198 0 01-.144.054zm-5.369-.374h-.013l-1.61-.114a.206.206 0 01-.138-.069.194.194 0 01-.039-.07.191.191 0 01-.01-.079.187.187 0 01.02-.077.198.198 0 01.195-.113l1.609.113a.2.2 0 01.14.065.206.206 0 01-.009.289.204.204 0 01-.145.055zm-5.368-.377h-.014l-1.611-.112a.211.211 0 01-.139-.069.21.21 0 01-.028-.226.211.211 0 01.116-.103.207.207 0 01.078-.01l1.611.112a.204.204 0 01.141.064.206.206 0 01-.01.289.199.199 0 01-.144.055zm46.715-.175a.197.197 0 01-.134-.046.206.206 0 01-.042-.266.195.195 0 01.112-.087l1.536-.506a.204.204 0 01.216.062c.017.02.03.044.038.069a.205.205 0 01-.129.258l-1.535.506a.176.176 0 01-.055.009l-.007.001zm-52.084-.207h-.014l-.237-.018-.028-.156c-.079-.45-.172-.965-.267-1.533a.238.238 0 01-.003-.084.197.197 0 01.031-.078.199.199 0 01.218-.087.2.2 0 01.129.099.226.226 0 01.025.08c.086.511.172.976.239 1.395a.204.204 0 01.103.23.203.203 0 01-.071.112.198.198 0 01-.125.043v-.003zm57.201-1.479a.204.204 0 01-.13-.049.207.207 0 01.068-.349l1.536-.505a.201.201 0 01.254.131.206.206 0 01-.13.258l-1.536.505a.202.202 0 01-.055.007l-.007.002zm5.119-1.685a.2.2 0 01-.204-.171.205.205 0 01.141-.228l1.535-.506a.201.201 0 01.255.131.21.21 0 01-.012.156.2.2 0 01-.117.102l-1.536.506a.253.253 0 01-.055.009l-.007.001zm5.118-1.684a.203.203 0 01-.191-.143.196.196 0 01-.01-.079.199.199 0 01.139-.178l1.533-.505a.203.203 0 01.243.287.198.198 0 01-.117.101l-1.535.506a.176.176 0 01-.055.009l-.007.002zm-68.383-.461a.202.202 0 01-.2-.174c-.079-.526-.157-1.066-.234-1.622a.215.215 0 01.004-.08.214.214 0 01.094-.125.197.197 0 01.074-.025.203.203 0 01.229.174c.078.555.155 1.095.234 1.619a.197.197 0 01-.004.08.199.199 0 01-.093.125.199.199 0 01-.075.027l-.029.001zm73.498-1.22a.203.203 0 01-.174-.313.201.201 0 01.112-.087l1.536-.506a.204.204 0 01.078-.009c.026.003.052.01.075.023a.198.198 0 01.1.119.21.21 0 01-.011.156.198.198 0 01-.118.1l-1.536.506a.187.187 0 01-.053.004l-.009.007zm5.118-1.685a.2.2 0 01-.203-.172.205.205 0 01.141-.228l1.535-.505a.202.202 0 01.255.131.211.211 0 01-.012.156.203.203 0 01-.117.102l-1.536.505a.201.201 0 01-.055.004l-.008.007zm5.119-1.687a.195.195 0 01-.185-.119.205.205 0 01.031-.219 55.806 55.806 0 00-.172-1.416.221.221 0 01-.001-.085.21.21 0 01.094-.136.188.188 0 01.079-.028.194.194 0 01.157.046.202.202 0 01.072.149c.067.523.129 1.046.186 1.561l.019.174-.22.073a.181.181 0 01-.052-.007l-.008.007zm-84.458-.811a.204.204 0 01-.201-.174 70.602 70.602 0 01-.172-1.629.203.203 0 01.172-.225.201.201 0 01.222.175c.057.544.117 1.086.172 1.623a.2.2 0 01-.04.15.203.203 0 01-.132.079l-.021.001zm83.743-4.534a.2.2 0 01-.13-.05.213.213 0 01-.068-.124 81.423 81.423 0 00-.306-1.603.206.206 0 01.237-.243.195.195 0 01.129.087.2.2 0 01.03.074c.107.531.209 1.068.308 1.61a.208.208 0 01-.164.239l-.036.01zm-84.252-.894a.202.202 0 01-.202-.191 72.917 72.917 0 01-.094-1.637.2.2 0 01.116-.196.203.203 0 01.076-.019.204.204 0 01.202.196c.026.535.057 1.079.094 1.629a.214.214 0 01-.009.079.208.208 0 01-.178.139h-.005zm83.123-4.439a.205.205 0 01-.196-.155 91.953 91.953 0 00-.393-1.585.23.23 0 01-.009-.082.225.225 0 01.024-.08.2.2 0 01.207-.103.204.204 0 01.077.028.217.217 0 01.059.058.197.197 0 01.031.076c.135.519.267 1.05.396 1.59a.199.199 0 01-.023.155.199.199 0 01-.125.093.172.172 0 01-.039-.004l-.009.009zm-83.273-1.027a.202.202 0 01-.196-.209c0-.32.019-.633.032-.939a.42.42 0 01.357-.397l.394-.058a.21.21 0 01.079.004.224.224 0 01.071.035.2.2 0 01.077.136.204.204 0 01-.172.232l-.393.055a19.76 19.76 0 00-.043.94.198.198 0 01-.062.144.18.18 0 01-.066.043.192.192 0 01-.078.014zm4.343-1.723a.206.206 0 01-.194-.192.202.202 0 01.166-.216l1.599-.225a.203.203 0 01.212.177.203.203 0 01-.157.229l-1.599.223-.027.004zm5.336-.747a.2.2 0 01-.139-.054.21.21 0 01-.064-.136.204.204 0 01.175-.216l1.601-.221a.191.191 0 01.203.097.21.21 0 01.024.077.196.196 0 01-.005.08.187.187 0 01-.034.071.186.186 0 01-.059.053.182.182 0 01-.074.026l-1.601.222-.027.001zm5.336-.734a.2.2 0 01-.139-.054.212.212 0 01-.064-.136.204.204 0 01.175-.216l1.601-.218a.192.192 0 01.15.038.191.191 0 01.077.136.209.209 0 01-.172.231l-1.601.217-.027.002zm5.335-.722a.196.196 0 01-.132-.059.207.207 0 01.107-.349l1.6-.214a.205.205 0 01.228.174.212.212 0 01-.04.15.198.198 0 01-.133.078l-1.6.215-.03.005zm61.527-.328a.201.201 0 01-.193-.146c-.159-.544-.316-1.067-.469-1.57a.203.203 0 01.287-.241.207.207 0 01.098.121c.153.499.312 1.022.472 1.57a.204.204 0 01-.017.155.201.201 0 01-.119.099.214.214 0 01-.059.019v-.007zm-56.189-.385a.202.202 0 01-.2-.191.205.205 0 01.045-.143.196.196 0 01.129-.072l1.601-.211a.192.192 0 01.079.004c.026.006.05.018.071.034a.206.206 0 01.077.136.2.2 0 01-.172.228l-1.602.213-.028.002zm5.336-.698a.207.207 0 01-.078-.01.203.203 0 01-.136-.181.215.215 0 01.01-.079.208.208 0 01.102-.117.206.206 0 01.076-.021l1.603-.207a.205.205 0 01.078.004.21.21 0 01.07.035.202.202 0 01.077.135.207.207 0 01-.172.229l-1.601.207-.029.005zm5.336-.685a.2.2 0 01-.137-.055.205.205 0 01-.018-.279.196.196 0 01.129-.072l1.603-.203a.216.216 0 01.08.003.214.214 0 01.073.035c.022.016.04.037.054.061.013.024.022.05.026.077a.206.206 0 01-.183.229l-1.603.202-.024.002zm5.336-.668a.205.205 0 01-.137-.056.205.205 0 01.113-.35l1.602-.197a.2.2 0 01.226.174.204.204 0 01-.172.228l-1.601.196-.031.005zm5.336-.647a.2.2 0 01-.146-.051.206.206 0 01-.017-.289.2.2 0 01.139-.068l1.604-.19a.188.188 0 01.078.005.178.178 0 01.07.035.202.202 0 01.035.283.204.204 0 01-.131.078l-1.605.19-.027.007zm5.346-.626a.208.208 0 01-.078-.011.204.204 0 01-.134-.182.203.203 0 01.19-.215l1.604-.175a.201.201 0 01.181.323.201.201 0 01-.131.079l-1.604.174-.028.007zm5.348-.597a.19.19 0 01-.145-.052.204.204 0 01.124-.356l1.606-.174a.21.21 0 01.079.007.203.203 0 01.119.099.21.21 0 01.024.076.216.216 0 01-.008.08.197.197 0 01-.037.07.196.196 0 01-.135.074l-1.605.175-.022.001zm5.355-.559a.206.206 0 01-.146-.053.198.198 0 01-.046-.064.204.204 0 01.095-.272.203.203 0 01.076-.019l1.61-.159a.205.205 0 01.145.049.207.207 0 01.066.215.213.213 0 01-.098.121.204.204 0 01-.075.023c-.525.051-1.062.103-1.608.159h-.019zm17.127-.328a.197.197 0 01-.117-.038.21.21 0 01-.073-.1c-.091-.263-.172-.507-.256-.731h-.579a.211.211 0 01-.206-.2.197.197 0 01.122-.191.192.192 0 01.078-.017l.64-.009a.308.308 0 01.179.051.32.32 0 01.119.145l.284.811a.232.232 0 01.011.079.23.23 0 01-.02.077.211.211 0 01-.115.104.187.187 0 01-.048.026l-.019-.007zm-11.769-.175a.206.206 0 01-.145-.053.209.209 0 01-.053-.221.206.206 0 01.105-.115.203.203 0 01.076-.019c.549-.049 1.085-.095 1.609-.139a.18.18 0 01.08.006c.026.008.05.021.071.039a.18.18 0 01.048.064.182.182 0 01.018.079.203.203 0 01-.184.22c-.516.043-1.058.089-1.608.138l-.017.001zm5.365-.425a.205.205 0 01-.144-.055.202.202 0 01-.064-.142.212.212 0 01.054-.147.202.202 0 01.141-.064c.561-.039 1.098-.072 1.614-.101a.18.18 0 01.15.046c.02.018.036.041.047.066a.18.18 0 01.015.079.2.2 0 01-.011.08.2.2 0 01-.178.137c-.517.029-1.05.062-1.61.101h-.014z" fill="#D1D1D1"/><path d="M416.455 311.424l-10.832 1.395a2.791 2.791 0 01-1.948-.47 2.855 2.855 0 01-1.15-1.661l-2.582-10.398a2.892 2.892 0 01.41-2.304 2.808 2.808 0 011.974-1.219l13.011-1.686a2.783 2.783 0 012.18.648 2.873 2.873 0 011.001 2.067l.404 10.68a2.885 2.885 0 01-.668 1.961 2.818 2.818 0 01-1.8.987z" fill="#FAFAFA"/><path d="M414.878 309.653l-8.243 1.069a2.123 2.123 0 01-1.483-.357 2.178 2.178 0 01-.875-1.264l-1.968-7.915a2.198 2.198 0 01.313-1.753 2.134 2.134 0 011.502-.927l9.904-1.284a2.145 2.145 0 012.203 1.198c.131.271.205.566.217.867l.308 8.131a2.196 2.196 0 01-.51 1.487 2.137 2.137 0 01-1.368.748z" fill="#813002"/><path d="M408.435 225.503c2.554 10.696 2.621 21.16 2.237 24.969a2.987 2.987 0 01-.875 1.83 2.91 2.91 0 01-1.834.827 488.02 488.02 0 01-5.777.379c-2.16.127-4.556-1.256-6.158-2.412a.953.953 0 00-1.187.054.983.983 0 00-.233 1.181c.788 1.569 2.155 2.79 3.513 3.836.816.628 3.53 1.744 3.341 2.983a2.228 2.228 0 01-.542 1.034c-1.508 1.833-3.787 2.813-6.042 3.512-.29.063-.559.202-.78.403-.057 1.477 4.424 3.115 5.581 3.504a12.67 12.67 0 005.387.634c4.508-.479 8.67-3.632 11.097-7.432 6.491-10.161 9.846-22.43 11.071-31.814-6.04-6.114-15.154-4.564-18.799-3.488z" fill="url(#paint12_linear_8130_48740)"/><path d="M427.233 229.957c4.819-36.849-23.214-65.185-23.214-65.185l-16.675 19.707c12.66 15.982 18.679 30.631 21.428 42.142 3.646-1.078 12.424-2.779 18.461 3.336z" fill="#fff"/><path d="M408.375 226.446c-.232 0-.457-.079-.639-.224a1.05 1.05 0 01-.365-.576c-3.389-14.186-10.532-28.228-21.23-41.739a1.057 1.057 0 01.16-1.471 1.025 1.025 0 011.451.162c10.889 13.751 18.167 28.078 21.628 42.552a1.063 1.063 0 01-.123.792 1.023 1.023 0 01-.639.471.955.955 0 01-.243.033z" fill="#EEE"/><path d="M182.524 444.894a2.226 2.226 0 00-.055-.546c-2.682-10.772-15.994-17.483-15.994-17.483l-5.274.418c-3.033 9.496-2.644 15.319-2.157 17.914.014.072.036.142.055.211 4.351.395 13.307.653 23.425-.514z" fill="url(#paint13_linear_8130_48740)"/><path d="M159.102 445.409c.234.872.86 1.542 1.673 1.713 6.196 1.32 16.028.258 20.157-.29.913-.12 1.579-.975 1.594-1.937-10.117 1.166-19.073.908-23.424.514z" fill="#3B3D42"/><path d="M159.082 419.329l2.238 10.896c.063.375.243.72.513.984s.617.433.989.483c1.152.117 2.313.098 3.46-.056 1.153-.174 1.955-1.358 1.752-2.631l-1.563-9.676h-7.389z" fill="url(#paint14_linear_8130_48740)"/><path d="M205.373 445.272c-5.826-.166-8.839-.86-10.396-1.505 0 .586 0 1.184.017 1.803.02.661.504 1.19 1.098 1.184l31.986-.209c1.021 0 1.618-1.205 1.176-2.154-4.197.351-14.877 1.137-23.881.881z" fill="#3B3D42"/><path d="M229.251 444.39a1.568 1.568 0 00-.127-.244c-2.825-3.999-10.02-11.964-24.236-15.417l-6.821-.218s-3.036 5.347-3.098 15.255c1.557.645 4.57 1.339 10.396 1.505 9.011.256 19.692-.53 23.886-.881z" fill="#3B3D42"/><path d="M196.5 418.359c.108.51 1.527 8.263 2.076 11.27.049.333.207.64.449.871.242.231.554.373.885.404 1.169.066 3.052.075 4.671-.372.875-.24 1.462-1.142 1.398-2.145l-.762-12.263-8.717 2.235z" fill="url(#paint15_linear_8130_48740)"/><path d="M191.33 275.199s9.381 65.321 16.152 143.05c.126 1.447-1.013 2.706-2.409 3.006-2.066.441-5.109.966-7.626.895a2.812 2.812 0 01-1.768-.709 2.868 2.868 0 01-.925-1.682c-2.307-13.704-18.762-87.258-23.084-103.445 0 0-4.963 68.762-3.378 104.439.02.427-.12.846-.394 1.172a1.66 1.66 0 01-1.077.586 27.612 27.612 0 01-6.123-.018 2.223 2.223 0 01-1.319-.613 2.283 2.283 0 01-.671-1.305c-1.642-11.597-11.098-80.638-10.696-130.372.023-2.804 3.247-25.848 3.247-25.848l40.071 10.844z" fill="#3B3D42"/><path d="M149.843 278.964a2.655 2.655 0 01-1.195-.878 2.71 2.71 0 01-.547-1.389c-1.248-12.264-7.288-88.304 30.849-119.584 0 0 2.187-5.799 20.164 8.453 17.977 14.252 8.352 29.189 4.049 49.794-5.209 24.939-14.347 45.312-10.304 60.655a2.15 2.15 0 01-.155 1.526 2.11 2.11 0 01-1.129 1.024c-13.964 5.216-27.876 5.389-41.732.399z" fill="#941759"/><path d="M193.83 134.33c-.012 1.083-15.24 22.998-15.24 22.998s2.733 5.455 15.782 9.883l11.264-23.465-11.806-9.416z" fill="url(#paint16_linear_8130_48740)"/><path d="M205.819 121.771s5.418 12.613 5.781 19.233c.364 6.62 1.773 10.914-5.781 12.248-7.555 1.334-13.919-2.48-17.366-9.069 0 0-5.402-10.16-4.19-14.321 1.212-4.161 21.556-8.091 21.556-8.091z" fill="url(#paint17_linear_8130_48740)"/><path d="M191.033 139.436l.431-.191a1.049 1.049 0 00.506-1.443c-1.066-2.093-3.142-6.864-.46-7.978 3.458-1.437 17.153-4.268 20.108-9.191 2.84-4.732.324-10.841-3.458-12.578a.513.513 0 00-.689.225l-.315.604a.516.516 0 01-.505.269.522.522 0 01-.441-.367.52.52 0 00-.42-.364.517.517 0 00-.505.23c-.908 1.473-3.359 3.861-9.917 5.087-9.319 1.744-15.482 5.563-15.635 12.089a.529.529 0 01-.273.451.515.515 0 01-.522-.022c-.688-.425-1.788-.624-3.26.63-2.56 2.18-1.513 7.835 4.098 12.488a.523.523 0 01-.024.834c-1.017.671-2.534 2.267 1.396 4.395 4.064 2.201 7.099 2.021 8.262 1.826a.52.52 0 00.413-.626l-1.246-5.735a.538.538 0 01.102-.437.526.526 0 01.399-.196h1.955z" fill="url(#paint18_linear_8130_48740)"/><path d="M191.265 140.643s-2.066-8.056-5.632-5.797c-3.567 2.258 1.85 9.027 4.716 9.328l.916-3.531z" fill="#FF9C8E"/><path d="M204.898 172.181l1.05 28.572c2.794.981 5.64 1.8 8.526 2.452 1.69-5.517 5.415-12.287 8.463-17.321-11.196-4.013-18.039-13.703-18.039-13.703z" fill="#65103D"/><path d="M260.832 171.696c-15.37 16.81-27.807 17.801-37.896 14.187-3.048 5.035-6.773 11.805-8.463 17.322 41.04 9.168 50.703-29.058 50.703-29.058l-4.344-2.451z" fill="#F29682"/><path d="M263.949 169.911s1.771-1.919 5.047-1.322c3.276.596 6.197 1.759 8.235 0 2.038-1.76 2.754.601 2.754.601l-6.114 4.709-9.922-3.988z" fill="url(#paint19_linear_8130_48740)"/><path d="M260.293 173.203s1.205-5.139 4.868-4.435c3.663.705 11.954 5.278 14.093 4.435 2.14-.842 4.873-2.858 6.276-2.146l-2.47 3.113s6.353-3.713 7.446-1.432l-10.572 6.027s-15.465-1.568-19.641-5.562z" fill="#F29682"/><path d="M187.836 209.576s28.891 24.516 60.091 13.819a7.34 7.34 0 015.852.446l8.97 4.8a7.914 7.914 0 005.898.638 8.027 8.027 0 004.714-3.648c1.246-2.112 2.31-4.524 2.521-6.835l-17.557-7.199 1.295-2.18s-8.569-.736-10.812 5.486c0 0-16.321 6.879-43.847-23.796.01 0-12.481 10.76-17.125 18.469z" fill="#FFA28E"/><path d="M186.284 209.32a.475.475 0 01-.275-.085c-12.166-8.327-17.889-21.77-17.946-21.904a.508.508 0 01-.004-.384.5.5 0 01.266-.274.493.493 0 01.648.265c.056.133 5.681 13.309 17.588 21.467a.498.498 0 01.197.562.492.492 0 01-.474.353zm18.121-18.625a.492.492 0 01-.417-.23c-.036-.057-3.754-5.919-10.832-18.761-2.177-3.949-5.038-6.453-8.503-7.433-5.739-1.624-11.269 1.493-11.324 1.524a.494.494 0 01-.675-.188.504.504 0 01.186-.682c.239-.138 5.926-3.363 12.069-1.62 3.734 1.046 6.799 3.716 9.111 7.909 7.057 12.811 10.763 18.66 10.799 18.709a.503.503 0 01-.148.697.457.457 0 01-.266.075z" fill="#65103D"/><defs><linearGradient id="paint0_linear_8130_48740" x1="596.808" y1="966.184" x2="228.496" y2="-278.454" gradientUnits="userSpaceOnUse"><stop stop-color="#B8DA6B"/></linearGradient><linearGradient id="paint1_linear_8130_48740" x1="381007" y1="1275020" x2="1020240" y2="-819514" gradientUnits="userSpaceOnUse"><stop stop-color="#769335"/></linearGradient><linearGradient id="paint2_linear_8130_48740" x1="320.917" y1="185.063" x2="262.414" y2="227.587" gradientUnits="userSpaceOnUse"><stop stop-color="#FFCCCB"/><stop offset="1" stop-color="#FFBFBD"/></linearGradient><linearGradient id="paint3_linear_8130_48740" x1="25719.7" y1="37261.2" x2="24816.1" y2="33857.8" gradientUnits="userSpaceOnUse"><stop stop-color="#EBB0AF"/><stop offset="1" stop-color="#FF928E"/><stop offset="1" stop-color="#8B3633"/></linearGradient><linearGradient id="paint4_linear_8130_48740" x1="56052.4" y1="43783.2" x2="60830" y2="45635.6" gradientUnits="userSpaceOnUse"><stop stop-color="#FEBBBA"/><stop offset="1" stop-color="#FF928E"/></linearGradient><linearGradient id="paint5_linear_8130_48740" x1="20361.3" y1="13250.4" x2="21980.7" y2="14017.7" gradientUnits="userSpaceOnUse"><stop stop-color="#FEBBBA"/><stop offset="1" stop-color="#FF928E"/></linearGradient><linearGradient id="paint6_linear_8130_48740" x1="101835" y1="44876.4" x2="82093.7" y2="58486.7" gradientUnits="userSpaceOnUse"><stop stop-color="#1F1F1F"/></linearGradient><linearGradient id="paint7_linear_8130_48740" x1="-24185.6" y1="40053.6" x2="-24793.1" y2="40053.6" gradientUnits="userSpaceOnUse"><stop stop-color="#FEBBBA"/><stop offset="1" stop-color="#FF928E"/></linearGradient><linearGradient id="paint8_linear_8130_48740" x1="-24423.3" y1="45431.5" x2="-25290.7" y2="45431.5" gradientUnits="userSpaceOnUse"><stop stop-color="#FEBBBA"/><stop offset="1" stop-color="#FF928E"/></linearGradient><linearGradient id="paint9_linear_8130_48740" x1="41170.8" y1="-17240.6" x2="41062.5" y2="-16290.2" gradientUnits="userSpaceOnUse"><stop stop-color="silver"/></linearGradient><linearGradient id="paint10_linear_8130_48740" x1="13250.5" y1="-24813.5" x2="12432" y2="-23990.8" gradientUnits="userSpaceOnUse"><stop stop-color="silver"/></linearGradient><linearGradient id="paint11_linear_8130_48740" x1="14076.3" y1="-26063.8" x2="13196.9" y2="-25230.4" gradientUnits="userSpaceOnUse"><stop stop-color="silver"/></linearGradient><linearGradient id="paint12_linear_8130_48740" x1="87230.1" y1="59537.1" x2="73013.6" y2="95388.2" gradientUnits="userSpaceOnUse"><stop stop-color="#FEBBBA"/><stop offset="1" stop-color="#FF928E"/></linearGradient><linearGradient id="paint13_linear_8130_48740" x1="-7982.05" y1="60628" x2="-4687.45" y2="60628" gradientUnits="userSpaceOnUse"><stop stop-color="#3B3D42"/></linearGradient><linearGradient id="paint14_linear_8130_48740" x1="-2428.09" y1="38131.2" x2="-2877.92" y2="40966.2" gradientUnits="userSpaceOnUse"><stop stop-color="#FEBBBA"/><stop offset="1" stop-color="#FF928E"/></linearGradient><linearGradient id="paint15_linear_8130_48740" x1="3228.85" y1="44715.9" x2="2843.68" y2="48102" gradientUnits="userSpaceOnUse"><stop stop-color="#FEBBBA"/><stop offset="1" stop-color="#FF928E"/></linearGradient><linearGradient id="paint16_linear_8130_48740" x1="-5205.51" y1="55625.3" x2="-2883.52" y2="50409.2" gradientUnits="userSpaceOnUse"><stop stop-color="#FFCBAE"/><stop offset="1" stop-color="#FFA28E"/></linearGradient><linearGradient id="paint17_linear_8130_48740" x1="33852.9" y1="49848.2" x2="30930.6" y2="43542" gradientUnits="userSpaceOnUse"><stop stop-color="#F0B39F"/><stop offset="1" stop-color="#FFAC9A"/></linearGradient><linearGradient id="paint18_linear_8130_48740" x1="57407.2" y1="11421.6" x2="47953.4" y2="41511.8" gradientUnits="userSpaceOnUse"><stop stop-color="#3B3D42"/></linearGradient><linearGradient id="paint19_linear_8130_48740" x1="26632.9" y1="9767.58" x2="26134.9" y2="11166.6" gradientUnits="userSpaceOnUse"><stop stop-color="#FFA7A6"/><stop offset="1" stop-color="#FF928E"/></linearGradient></defs></svg>