<svg width="570" height="473" fill="none" xmlns="http://www.w3.org/2000/svg"><path fill-rule="evenodd" clip-rule="evenodd" d="M154.189 40.121c63.144-47.214 146.35-44.36 212.748-33.363 56.218 9.31 82.12 51.263 114.564 87.574 35.664 39.916 105.197 71.474 80.193 130.401-25.004 58.927-121.721 68.165-182.23 110.071-62.276 43.131-99.963 121.045-170.817 134.437-77.735 14.693-151.944-14.85-179.12-68.295-25.546-50.242 30.655-118.268 52.341-181.035 21.567-62.426 10.275-133.397 72.321-179.79z" fill="url(#paint0_linear_8123_48731)" fill-opacity=".26"/><path d="M9.408 394.202H37.75c1.517-1.238-1.05-4.048-3.737-4.235-1.166-.086-2.639.15-4.324.489-.39-4.972-2.618-27.328-11.012-26.43-9.437 1.005 0 9.847 2.67 15.078 1.976 3.878 4.06 9.438 5.013 12.061-.767.158-1.56.313-2.372.457-1.25-3.688-5.904-16.091-11.824-15.368-6.948.846-4.153 5.818.77 8.772 3.614 2.171 8.053 5.255 10.16 6.746a31.241 31.241 0 01-5.541.426c-4.855-.109-7.224 1.264-8.145 2.004z" fill="#6C8E1B"/><g opacity=".5" fill="#495C1B"><path opacity=".5" d="M239.457 147.398s-6.863-57.495-36.326-91.803c-3.914-4.559-11.408-1.657-11.28 4.352v.292c.382 10.268 33.368 53.528 47.606 87.159z"/><path opacity=".5" d="M243.033 163.855s-29.357-71.859-79.498-103.64c-3.057-1.94-7.2-1.237-9.25 1.75-1.333 1.943-1.934 4.98-.435 9.72 3.993 12.634 59.916 55.179 89.183 92.17z"/></g><g opacity=".5" fill="#495C1B"><path opacity=".5" d="M250.35 287.144s4.212-35.281 22.292-56.337c2.4-2.8 7.001-1.018 6.922 2.67v.186c-.239 6.295-20.481 32.843-29.214 53.481z"/><path opacity=".5" d="M248.15 297.245s18.016-44.1 48.788-63.591a4.186 4.186 0 015.676 1.07c.82 1.193 1.188 3.057.269 5.966-2.456 7.744-36.772 33.855-54.733 56.555z"/></g><path opacity=".3" d="M170.353 253.114s16.409 44.352 7.839 46.849c-8.57 2.497-14.663-50.72-14.663-50.72s-46.619-13.454-63.301-9.091c0 0 34.271 40.35 25.34 40.692-8.932.341-46.57-40.012-46.57-40.012s-45.64-.891-48.425 26.109c-2.786 27.001 10.87 38.062 17.692 38.615 6.822.552 48.846-6.82 48.652-1.256-.194 5.564-27.185 18.789-43.852 16.518 0 0 24.614 39.702 47.219 33.82 22.604-5.882 27.372-21.034 41.407-24.417 14.034-3.382 25.058-1.299 18.579 3.623-6.478 4.921-30.959 6.293-40.837 17.771-9.877 11.477-18.189 19.15 3.867 19.755 60.362 1.655 69.775-42.85 69.775-42.85s37.227-29.269 12.954-56.86c.003 0-18.459-16.361-35.676-18.546z" fill="#495C1B"/><path opacity=".5" d="M486.472 258.294c15.441-12.299-2.826-39.398-2.826-39.398s-39.312-6.76-42.568-12.264c-3.257-5.504 34.738-.771 34.738-.771-3.804-11.747-30.139-34.492-30.139-34.492s-34.931 17.275-36.73 11.14c-1.8-6.135 31.712-13.724 31.712-13.724-8.02-9.494-25.205-14.16-25.205-14.16-26.308-3.744-29.763 30.165-29.763 30.165s-12.234 5.726-29.77 4.237c0 0-3.374-.584-8.597-.412l1.294 2.976c.904-.103 1.793-.17 2.665-.193h.053c.55 0 1.331 0 2.288.032 2.177.137 3.763.181 4.881.158 6.779.292 15.777 1.071 18.434 3.025a6.416 6.416 0 011.091-1.23l-1.091 1.23c-8.723 9.823.518 36.075 9.597 49.002 9.08 12.927 10.402 5.005 13.592-5.449 3.189-10.454-5.481-25.717-4.975-31.537.507-5.82 6.051-.026 9.431 9.747 3.38 9.774-4.044 18.604 1.135 34.513 5.179 15.909 39.034 15.088 39.034 15.088-7.863-9.128-10.241-30.567-6.92-32.871 3.321-2.304 15.133 25.863 18.124 29.752 2.99 3.89 15.072 7.736 30.515-4.564zm-33.246-201.73c-4.817-15.52-31.21-9.694-31.21-9.694s-17.073 28.045-22.3 28.88c-5.226.837 9.893-26.815 9.893-26.815-10.202-.622-35.667 12.686-35.667 12.686s2.768 31.928-2.503 31.459c-5.27-.47-1.002-28.397-1.002-28.397-9.727 3.283-18.517 15.027-18.517 15.027-10.824 19.005 14.261 31.852 14.261 31.852s.719 11.088-5.722 24.053a37.732 37.732 0 00-2.909 6.453l2.682-.094c.195-.725.41-1.423.655-2.097v-.03c.171-.419.412-1.015.716-1.742.763-1.625 1.276-2.825 1.598-3.687 2.281-5.098 5.6-11.751 7.899-13.2a5.165 5.165 0 01-.619-1.205l.619 1.205c4.938 9.63 27.953 10.46 40.655 7.404 12.701-3.057 6.995-6.453-.098-12.026-7.092-5.573-21.47-3.547-25.815-5.682-4.345-2.135 1.807-4.637 10.358-4.282 8.551.354 13.114 8.691 26.936 9.515 13.821.824 23.407-25.326 23.407-25.326-9.409 3.268-26.647-1.358-27.413-4.599-.767-3.241 24.495-3.795 28.398-4.913 3.902-1.118 10.514-9.243 5.698-24.745z" fill="#495C1B"/><path d="M186.918 322.068h-40.627v-47.111h48.749l13.091-78.831h-45.137v-47.112h53.262l12.19-71.126h48.297l-12.186 71.126h74.026l11.738-71.126h48.297l-12.186 71.126h40.172v47.112h-48.298l-13.09 78.831h45.14v47.111h-53.254l-12.638 72.941h-48.295l12.638-72.941h-74.043l-12.187 72.941h-48.3l12.641-72.941zm130-47.111l13.54-78.831h-74.027l-13.542 78.831h74.029z" fill="#941759"/><path d="M90.863 228.898c0-.137.925-4.221.627-4.534-.297-.314-.82-.268-.877.447-.058.716.25 4.087.25 4.087z" fill="#FFB27D"/><path d="M91.551 232.73c0-.43-.55-6.977-1.78-8.281-1.232-1.303-3.746-3.157-4.536-3.1-.79.058-3.88 3.732-2.949 6.568.931 2.836 4.849 6.645 4.849 6.645l4.416-1.832z" fill="#FFB27D"/><path d="M95.047 225.054l-6.117 1.94a.356.356 0 01-.297-.037.393.393 0 01-.18-.251l-3.496-12.336a.43.43 0 01.03-.309.39.39 0 01.227-.196l6.117-1.938a.364.364 0 01.291.031c.09.051.157.137.186.24l3.495 12.336a.427.427 0 01-.12.444.4.4 0 01-.136.076z" fill="#3F5E91"/><path d="M93.846 225.202l-6.142 1.779a.779.779 0 01-.572-.058.735.735 0 01-.365-.43l-3.68-11.866a.709.709 0 01.058-.555.75.75 0 01.446-.353l6.141-1.779a.782.782 0 01.574.058.742.742 0 01.363.433l3.681 11.865a.712.712 0 01-.06.553.756.756 0 01-.445.353z" fill="#152949"/><path d="M84.3 221.252s3.936-4.941 4.898-4.666c1.37.393-3.57 6.663-3.57 6.663s3.663-4.686 4.22-4.332c1.303.803-.768 3.747-2.827 6.002 0 0 3.683-2.755 3.797-2.255.422 1.721-4.042 5.943-4.042 5.943l-2.493-4.649.017-2.706z" fill="#FFB27D"/><path d="M83.055 226.067c.121-.604.734-12.358.999-11.252.264 1.105.888 7.284.888 7.284l-1.887 3.968z" fill="#FFB27D"/><path d="M126.473 222.013s-.302 10.508-3.536 18.992c-2.562 6.696-6.963 12.128-14.509 10.122a42.64 42.64 0 01-2.244-.663c-15.335-4.992-20.295-16.422-20.295-16.422 1.14-1.76 4.45-2.409 4.45-2.409 3.086.155 16.656 5.542 17.522 5.706 3.141.589 5.675-15.535 7.714-21.119 2.04-5.584 10.27-8.395 10.27-8.395l.628 14.188z" fill="#D5EAA1"/><path d="M122.7 234.57l-.301 7.097c-2.551 6.275-6.936 11.366-14.452 9.487a44.071 44.071 0 01-2.236-.622c.24.03 4.841.577 6.768-1.118 1.977-1.744 1.773-7.517 5.409-11.365 3.637-3.849 4.812-3.479 4.812-3.479z" fill="#7D9F2C"/><path d="M123.481 377.734s3.602 3.385 2.899 5.789c-.703 2.404-3.957 4.007-4.395 6.945-.438 2.937-2.198 4.541-3.78 4.541h-7.544s-1.153-2.075 1.648-2.691c2.801-.617 3.873-4.076 3.697-7.281-.176-3.204.265-7.481.265-7.481l5.976-1.423 1.234 1.601zm-40.426 15.387h22.493a1.69 1.69 0 001.134-.426c.304-.274.481-.647.493-1.039.038-1.223-.073-3-.802-4.499-1.201-2.466-1.959-2.899 3.108-10.08-1.522 1.458-5.63.789-9.097.357-.426.641-6.858 9.859-8.278 10.803-1.58 1.046-8.57.673-9.051 4.884z" fill="#0E2949"/><path d="M118.496 269.099s-15.703 31.032-19.971 48.117c-3.313 13.264 16.902 64.58 16.902 64.58s1.653-.115 4.347-1.224c2.647-1.089 3.652-4.014 3.652-4.014s-1.199-36.689-5.29-54.431c-.919-3.987 4.45-16.839 13.508-23.877 9.059-7.037 12.835-29.687 7.44-31.22-5.394-1.533-20.588 2.069-20.588 2.069z" fill="#DAA146"/><path d="M132.714 260.044s-17.453 62.887-22.75 77.001c-5.297 14.114-13.692 44.087-13.692 44.087a22.472 22.472 0 0012.108 1.291s25.523-36.75 26.634-52.993c.514-7.506 26.19-37.269 23.326-56.677l-25.626-12.709z" fill="#FFBE55"/><path d="M156.959 280.145s-3.589 1.856-9.935 2.401c-7.265.628-18.151-.471-31.405-8.045 0 0-3.699-3.127.844-16.426 3.446-10.067 5.184-30.905 9.379-50.249 0 0 13.547-4.772 24.47-.976 8.344 2.897 7.514 16.044 9.056 29.729.144 1.279.308 2.561.5 3.831 2.277 14.986-2.909 39.735-2.909 39.735z" fill="#D5EAA1"/><path d="M119.863 179.083s9.93-15.24 17.589-7.406c0 0 5.018 1.209 7.895 8.589 2.932 7.522-1.636 14.175-4.687 13.105-1.955-.691-3.331 2.97-3.331 2.97l-17.466-17.258z" fill="#152949"/><path d="M135.908 170.326s.641-6.166 9.842-5.566c0 0-4.351.076-5.283 1.851 0 0 3.161-1.995 5.471-1.023 2.309.973 3.285 5.199 3.175 6.545-.109 1.345-1.899 5.552-3.464 5.77-1.565.218-3.583-.848-3.583-.848l-6.158-6.729z" fill="#152949"/><path d="M140.629 207.542c-.879-2.414-2.261-4.734-3.301-12.419h-.481l-9.431 3.419s.662 3.11 1.081 6.07c.173 1.207.293 3.374.378 5.259.085 1.886 1.925 2.112 3.809 2.022 4.969-.235 7.714-2.151 7.945-4.351z" fill="#FFB27D"/><path d="M127.416 198.321s.663 3.094 1.083 6.038c5.415-.957 8.049-6.125 8.829-9.111l-9.912 3.073z" fill="#E8945B"/><path d="M138.205 193.939s2.29-4.564 2.424-8.234c.095-2.618-2.888-11.896-13.319-9.162-2.103.541-4.043 1.497-5.675 2.798-2.089 1.693-4.94 5.134.125 12.913l1.419 2.667 15.026-.982z" fill="#152949"/><path d="M125.997 201.886s13.293-1.713 12.085-10.068c-1.209-8.355-.26-14.204-8.789-13.46-8.529.743-9.72 4.163-9.995 7.051-.274 2.888 3.215 16.707 6.699 16.477z" fill="#FFB27D"/><path d="M124.752 179.445s4.798 9.253 10.316 9.891c5.517.639 7.616-1.221 7.616-1.221-2.956-2.038-5.151-5.1-6.21-8.66 0 0-9.733-5.067-11.722-.01zm-1.2-.921s-2.963 2.672-3.408 4.974c-.445 2.302-.037 6.881-1.622 6.916 0 0-4.552-6.482-1.42-10.845 3.319-4.63 6.45-1.045 6.45-1.045z" fill="#152949"/><path d="M123.639 179.669s4.303 9.339 12.269 11.475c0 0-8.423-4.988-10.084-11.305-1.662-6.317-2.185-.17-2.185-.17z" fill="#152949"/><path d="M158.87 279.8s-4.287 1.856-11.867 2.401c0 0-6.228-6.709.724-14.226 6.952-7.516-.542-21.392 4.802-28.938 3.724-5.251 7.35-4.028 9.212-2.802.172 1.279.367 2.56.597 3.83 2.727 14.99-3.468 39.735-3.468 39.735z" fill="#B4D06D"/><path d="M180.575 269.482s.827 1.713 1.982 1.828c1.89.185 5.486 1.589 6.051 1.887 1.537.818 1.426 4.412-.104 4.753-1.531.341-2.296-2.689-7.068-3.499-1.623-.272-3.995.72-4.942-2.727l4.081-2.242z" fill="#FFB27D"/><path d="M151.44 206.837c12.721 4.892 13.19 28.461 18.86 38.843 5.85 10.705 11.546 24.794 11.546 24.794s-.104.421-2.286 1.073a8.716 8.716 0 01-3.137.268s-12.018-11.373-15.284-15.856c-3.267-4.484-10.964-25.286-10.964-25.286s-3.787-25.779 1.265-23.836z" fill="#D5EAA1"/><path d="M177.438 272.314s.303 1.531 2.145 2.772c1.842 1.241 3.313 2.48 3.498 1.708.185-.771-1.027-1.597-1.311-3.014-.285-1.418-4.332-1.466-4.332-1.466z" fill="#FFB27D"/><path d="M384.207 256.161a18.81 18.81 0 00-16.873 4.816 50.227 50.227 0 00-6.143 7.03c-4.959 6.901 4.522 13.736 3.264 16.073-1.257 2.336-4.177 4.186-2.899 9.069 1.277 4.883 9.693 11.222 12.438 11.502 27.817 2.858 39.888-12.477 30.588-20.744-9.299-8.266-5.504-20.258-13.051-24.917a23.209 23.209 0 00-7.324-2.829z" fill="#3B3D42"/><path d="M369.668 299.784s-25.378 12.295-30.139 12.088c-4.76-.207-34.476-10.676-34.476-10.676l.744 5.04s22.613 13.004 30.518 13.742c7.782.727 34.395-6.983 36.964-8.614 2.57-1.63 3.854-9.932-3.611-11.58z" fill="#ED985F"/><path d="M366.873 311.383c2.299 1.595 5.184 2.917 8.807 3.748 13.573 3.136 18.774-8.337 20.728-16.213a11.654 11.654 0 00-4.597-1.412 45.017 45.017 0 00-2.868-.236c-1.525-1.167-3.792-5.945-4.299-13.363l-.639.172-10.697 2.917s.49 3.402.729 6.616c.187 2.515.216 4.918-.259 5.508-.838.18-1.336.291-1.336.291a69.066 69.066 0 00-5.569 11.972z" fill="#FFB27D"/><path d="M373.303 287.008s.49 3.398.729 6.616c6.062-.607 8.874-6.38 9.968-9.545l-10.697 2.929z" fill="#ED985F"/><path d="M371.493 290.2s14.387-.794 13.754-9.743c-.633-8.95.799-15.084-8.413-14.956-9.212.128-10.752 3.67-11.268 6.709-.517 3.04 2.17 17.966 5.927 17.99z" fill="#FFB27D"/><path d="M365.638 267.202c2.042-2.85 3.749-2.38 4.749-1.637 7.544-4.883 13.063 1.138 13.063 1.138 1.42 6.353 6.315 9.702 6.315 9.702s-2.549 2.042-8.652.686c-7.806-1.73-10.487-8.501-10.851-9.542-.823.852-1.882 1.391-2.696 3.238-.965 2.191-1.572 3.462-1.587 7.062 0 .012-3.383-6.368-.341-10.647z" fill="#3B3D42"/><path d="M400.509 340.632c1.298-6.639 5.542-33.175 1.298-41.714-1.52-3.065-7.491-3.342-14.04-3.074-2.042 1.316-9.804 6.289-12.993 5.668l-.18-.041c-1.503-.376-2.069-1.432-.814-2.334a66.078 66.078 0 00-6.905.963c-2.275.429-8.523 4.262-8.523 4.262s2.832 4.407 7.388 6.336c-.773 6.93.38 9.99 7.57 25.999 6.076 13.535-.82 25.72-.82 25.72s35.772 28.762 35.97 14.118c.152-11.035-9.611-27.414-7.951-35.903z" fill="#72922D"/><path d="M370.708 393.682a6.655 6.655 0 01-4.784-2.917c-.172-.26-.359-.537-.555-.835-4.083-6.163-5.656-25.04-14.815-45.153-2.229-4.894-10.239-5.775-12.421-11.309 0 0-5.376-17.94 10.286-18.471 15.661-.531 41.944 49.917 42.358 55.208.402 5.131 10.355 26.91-20.069 23.477z" fill="#212121"/><path d="M308.461 393.58h22.301s.831-3.652-.63-6.126c-1.296-2.199-.8-3.451.16-5.268a8.49 8.49 0 01-3.754.726c-1.112-.067-2.287-.583-3.317-1.199-.96 1.123-5.067 5.904-6.35 6.853-1.465 1.064-7.961.682-8.41 5.014z" fill="#ED985F"/><path d="M337.629 320.191c-1.342 10.064-6.584 41.824-15.831 57.32-2.978 4.994 7.511 7.797 7.584 7.782 1.406-.37 3.752-2.625 4.831-3.588 7.505-6.764 22.753-25.92 22.753-41.279 0-7.488.131-21.79-5.312-25.425-3.384-2.237-13.492 1.194-14.025 5.19z" fill="#373737"/><path d="M381.598 393.704a16.313 16.313 0 01-1.847-4.209c-1.199-4.203-1.625-7.263-3.926-13.815-2.418-6.876-5.286-15.335-8.871-24.136a222.867 222.867 0 00-3.529-8.214c-2.232-4.895-8.369-4.218-10.554-9.755 0 0-8.518-19.185 7.144-19.716 15.661-.531 45.418 51.34 47.13 56.351 1.87 5.496 8.6 28.763-25.547 23.494z" fill="#474747"/><path d="M324.832 393.58h22.289s.834-3.652-.63-6.126c-1.295-2.199-.799-3.451.16-5.268a8.47 8.47 0 01-3.754.726c-1.111-.067-2.284-.583-3.314-1.199-.959 1.123-5.069 5.904-6.353 6.853-1.455 1.064-7.952.682-8.398 5.014z" fill="#FFB27D"/><path d="M375.824 375.68c-2.418-6.875-5.286-15.335-8.871-24.136.936-6.668 2.955-12.502 6.35-14.856 0 0 8.238 25.521 2.521 38.992z" fill="#373737"/><path d="M350.643 319.479c-1.342 10.06-3.232 42.536-12.479 58.031-2.981 4.994 7.511 7.797 7.567 7.783 1.406-.371 3.751-2.626 4.83-3.588 7.509-6.765 22.753-25.921 22.753-41.279 0-7.488-8.789-21.19-14.235-24.824-3.357-2.238-7.89-.111-8.436 3.877z" fill="#474747"/><path d="M302.387 288.232l22.829-2.424a1.474 1.474 0 011.534.94l8.168 21.46a1.473 1.473 0 01-.654 1.809c-.203.115-.431.18-.665.189l-22.65.913a1.471 1.471 0 01-1.421-.904l-8.343-19.949a1.463 1.463 0 01.082-1.324 1.461 1.461 0 011.12-.71z" fill="#787878"/><path d="M300.407 288.441l22.825-2.424a1.474 1.474 0 011.535.939l8.168 21.464a1.452 1.452 0 01-.14 1.341 1.456 1.456 0 01-1.179.654l-22.651.913a1.474 1.474 0 01-1.42-.904l-8.343-19.95a1.479 1.479 0 01.092-1.319 1.462 1.462 0 011.113-.714z" fill="#C9BFBF"/><path d="M313.061 298.461c-.291-.764.117-1.386.876-1.386a2.198 2.198 0 011.89 1.386c.291.767-.114 1.388-.875 1.388a2.193 2.193 0 01-1.891-1.388z" fill="#fff"/><path d="M301.09 290.469a.456.456 0 01.015-.469.456.456 0 01.417-.214 1.078 1.078 0 01.931.683.461.461 0 01-.197.632.46.46 0 01-.238.05 1.078 1.078 0 01-.928-.682z" fill="#787878"/><path d="M396.402 298.919s-31.639 11.651-36.391 11.415c-3.074-.155-28.613-9.133-28.613-9.133l-2.293 4.337s24.859 15.977 31.691 15.898c13.494-.155 36.259-8.436 38.829-10.067 2.57-1.63 4.25-10.801-3.223-12.45z" fill="#FFB27D"/><path d="M331.401 301.196s-2.293-3.527-4.577-3.632c-2.284-.105-6.225 1.558-7.584 1.818-1.36.259-5.187 1.502-4.046 3.372 1.14 1.87 6.435 2.281 8.716 1.867 2.281-.415 5.189.913 5.189.913l2.302-4.338z" fill="#FFB27D"/><path d="M327.45 297.676s-3.629-1.665-4.667-1.975c-1.039-.309-.832 0-.519.986.312.986 2.179 1.923 2.179 2.232 0 .309 3.007-1.243 3.007-1.243zm-24.691 1.656s1.459-4.772 3.037-3.272c1.657 1.56.653 3.121.449 5.11-.388 3.792-1.167 3.641-1.642 3.469-.476-.173-2.389-3.393-1.844-5.307z" fill="#FFB27D"/><path d="M302.675 300.059s-.733 4.061 3.124 6.181l-1.141-2.794-1.983-3.387z" fill="#FFB27D"/><path d="M368.797 285.054s1.359-.54 5.186-.228c0 0-.204 1.491-3.025 1.64-1.598.084-2.161-1.412-2.161-1.412z" fill="#fff"/><path d="M380.105 304.666s2.83 8.958 12.544 10.997c0 0 16.043-4.945 8.057-15.878.005 0-7.894-5.88-20.601 4.881z" fill="#648125"/><path d="M302.669 300.633s-.668-2.237-.706-2.625c-.038-.388 0-.583.353-.312.353.271.875.989.712 1.668-.164.68-.359 1.269-.359 1.269zm-6.789-107.112a1.868 1.868 0 00-.343 2.029c.501 1.351 2.148 2.862 4.062 4.368.245.196.461.372.652.535l.145.128.113.099c1.783 1.615 1.113 1.984 4.319 5.257 3.64 3.731 6.172 3.799 6.888 3.46.607-.297-.625-2.27-1.99-4.493l-.197-.324c-.182-.297-.361-.595-.543-.892-1.598-2.678-1.186-3.934-.81-7.918.304-3.237 5.135-18.086 5.135-18.086l-7.006-1.19s-2.123 11.82-4.431 13.641c-1.244.973-2.636.985-3.831 1.705-.085.048-.167.101-.249.152a9.276 9.276 0 00-1.914 1.529z" fill="#FFB27D"/><path d="M295.43 193.033a1.98 1.98 0 00-.363 2.153c.643 1.433 2.352 3.027 4.315 4.621.257.208.482.401.685.581l.155.135.119.104c1.892 1.714 1.18 2.106 4.582 5.578 3.861 3.958 6.548 4.031 7.307 3.671.644-.316-.663-2.408-2.111-4.766a16.534 16.534 0 01-6.911-4.997c-2.253-2.819-3.778-6.408-5.31-8.611l-.437-.082a9.817 9.817 0 00-2.031 1.613z" fill="#233862"/><path d="M350.772 190.804c.415 2.32 3.364 1.933 6.659 1.028 3.294-.904 2.513.173 7.204-.41 4.691-.582 6.096-2.544 6.253-3.325.13-.693-2.189-.937-4.674-1.259a50.44 50.44 0 01-.94-.127c-2.807-.394-4.862-2.424-7.414-4.09-2.415-1.581-6.017-8.014-6.017-8.014l-6.433.569s3.376 5.746 4.679 8.245c.77 1.471.729 3.413.633 4.917-.081.821-.064 1.65.05 2.466z" fill="#FFB27D"/><path d="M356.899 192.658c3.568-1.21 2.72.231 7.794-.551 5.075-.782 6.595-3.416 6.765-4.465.141-.931-2.368-1.258-5.056-1.691l-.025.07c-2.175 1.944-4.687 3.031-7.27 3.146-3.454.113-7.088-1.258-9.465-1.202a17.449 17.449 0 00.054 3.312c.449 3.115 3.639 2.595 7.203 1.381z" fill="#233862"/><path d="M325.585 148.214l-6.177 16.342-8.049 21.342a13.218 13.218 0 01-4.281-.387c-1.932-.548-4.144-1.982-4.144-1.982s2.239-22.913 6.415-36.063c1.071-3.377 2.269-6.107 3.578-7.646 6.475-7.527 12.658 8.394 12.658 8.394z" fill="#DAA146"/><path d="M319.032 121.267c-3.446-1.127-12.441-.018-22.195 1.775a6.54 6.54 0 01-3.895-.488 6.637 6.637 0 01-2.936-2.636l-24.554-1.94s-8.1 18.176-3.663 29.771c.652 1.701 2.082 2.763 4.289 2.801 0 0 14.837.021 19.584.021 12.21 0 25.84-8.495 27.603-8.85 2.885-.592 4.039 5.256 6.924 11.388 2.885 6.132 27.129 27.16 27.129 27.16s3.724.038 5.262-.547c1.654-.628 2.262-1.444 2.262-1.444s-26.863-54.092-35.81-57.011z" fill="#FFBE55"/><path d="M288.373 49.593a8.764 8.764 0 00-4.702-1.222 13.472 13.472 0 01-2.277-.138c-9.404-1.376-15.091 12.261-15.426 16.38-.608 7.565-4.622 8.72-10.285 13.473-11.332 9.499-8.008 20.538-1.814 24.642 3.721 2.46 10.286 0 10.286 0 .091.067 17.926-9.932 26.71-14.757 13.163-1.883 2.804-35.233-2.492-38.379z" fill="#152949"/><path d="M282.292 83.439c.033.025-3.727 1.473-6.241.217-2.365-1.18-4.701-5.44-4.666-5.442 1.076-.057 3.466-1.79 4.375-8.75h.547l6.949 3.856s-.027 2.788-.387 5.44c-.304 2.228-.995 4.364-.577 4.679z" fill="#FFB27D"/><path d="M283.521 73.828s-.263 1.721-.652 4.933c-3.793-1.026-6.582-6.226-7.109-9.297l7.761 4.364z" fill="#ED975D"/><path d="M285.231 76.447s-10.589-1.73-9.602-9.73c.988-8 .285-13.613 7.086-12.849 6.8.765 7.737 4.056 7.94 6.825.204 2.77-2.648 15.995-5.424 15.754z" fill="#FFB27D"/><path d="M290.662 56.561s-7.568 6.103-12.718 6.583c-5.151.48-7.102-1.061-7.102-1.061a18.945 18.945 0 004.866-6.15 3.447 3.447 0 011.202-1.378 3.786 3.786 0 011.784-.618c3.676-.284 10.644-.42 11.968 2.624z" fill="#152949"/><path d="M285.055 57.101s2.739 2.26 3.599 3.936c.833 1.619 1.436 5.8.776 7.335 0 0 3.908-7.393 1.488-10.835-2.555-3.65-5.863-.436-5.863-.436z" fill="#233862"/><path d="M293.492 101.802c-.373 24.407-.103 19.308-2.827 21.623-.656.559-2.501.89-4.932 1.049-7.637.495-21.064-.736-21.585-2.121-1.774-4.786-.517-6.273-1.987-13.6a61.899 61.899 0 00-.565-2.541c-1.227-5.033-2.418-6.745 1.928-14.829 3.945-7.324 7.488-13.397 7.858-13.168 10.402 6.05 11.484.546 11.484.546s10.809 11.136 10.626 23.041z" fill="#91AC4D"/><path d="M320.866 164.952l-8.762 20.945a15.882 15.882 0 01-4.66-.379c-2.103-.538-4.51-1.946-4.51-1.946s2.437-22.487 6.983-35.392l10.949 16.772z" fill="#FFBE55"/><path d="M282.867 78.761s11.059 1.737 12.357 6.145c1.299 4.41 5.576 31.162 5.576 31.162s-3.119 2.828-5.716.416c-2.597-2.413-8.175-25.034-8.175-25.034l-4.042-12.689z" fill="#84994E"/><path d="M285.949 124.473c-7.34.504-20.627-.552-21.127-1.959-1.705-4.866-1.869-7.865-3.281-15.313l5.296-9.04s-.585 11.506 2.688 14.531c3.274 3.025 13.403 5.844 14.994 8.374a9.397 9.397 0 011.43 3.407z" fill="#7A8F47"/><path d="M276.508 118.46s7.464-2.051 8.667-1.233c1.204.817 4.146 3.797 4.515 4.835.369 1.038-2.679-.788-3.672-1.117-.641-.214-2.342.513-3.171.857-3.514 1.447-5.677.705-5.677.705l-.662-4.047z" fill="#FFB27D"/><path d="M271.383 78.215s-10.058.727-13.508 5.442c-4.853 6.639-14.484 34.931-8.967 38.701 6.216 4.25 28.29 1.113 28.29 1.113s.737-3.365-.291-4.995c-1.027-1.63-17.631-4.258-18.4-5.009-.768-.751 9.585-14.654 9.585-16.909 0-2.255 3.291-18.343 3.291-18.343z" fill="#9FBD55"/><path d="M285.945 119.865s1.515 2.337 2.012 2.618c.251.163.535.235.82.208l-1.022-2.198-1.81-.628zm-.414-1.4l4.748 1.656a.886.886 0 01-.121.45.401.401 0 01-.295.194c-.443.142-1.822-.139-1.822-.139l-2.51-2.161z" fill="#FFB27D"/><path d="M324.642 122.698h-48.134v1.887h47.707l.427-1.887z" fill="#9A9494"/><path d="M288.775 124.587h34.826l10.477-26.427h-34.771l-10.532 26.427z" fill="#C9BFBF"/><path d="M313.284 110.428c.144-1.043-.146-1.888-.647-1.888-.263.031-.516.228-.725.565-.208.337-.362.799-.441 1.323-.145 1.042.145 1.887.647 1.887.263-.03.516-.227.725-.565.208-.337.362-.798.441-1.322z" fill="#fff"/><path d="M564.711 200.299c-1.05 2.824-2.867 6.1-4.778 6.914-2.164.924-3.069 2.228-3.069 2.228l-1.75-1.015-2.089-1.213s.05-.231.152-.61.257-.898.47-1.479a2.024 2.024 0 00.248-1.858c-.394-1.033-.315-2.625.356-3.605.67-.981 1.315-3.37 1.718-3.3.977.17-.479 3.466-.062 4.084a.72.72 0 00.94.321h.014c2.739-1.205 6.062-7.698 7.532-6.82.563.309.773 5.152.318 6.353z" fill="#FFB27D"/><path d="M555.244 204.233l3.433 2.412a.538.538 0 00.75-.131l8.792-12.508a.548.548 0 00-.132-.753l-3.433-2.409a.526.526 0 00-.402-.09.534.534 0 00-.348.221l-8.789 12.5a.548.548 0 00-.096.406.533.533 0 00.225.352z" fill="#393939"/><path d="M558.383 206.439l2.013 1.412a.406.406 0 00.313.074.41.41 0 00.27-.173l8.938-12.718a.396.396 0 00.068-.149.41.41 0 00-.167-.435l-2.013-1.411a.407.407 0 00-.583.099l-8.938 12.718a.412.412 0 00.099.583z" fill="#141414"/><path d="M506.019 186.283s17.459 30.454 23.795 36.058l23.225-17.316s3.372 1.033 4.848 4.417c0 0-14.104 28.735-28.003 29.955-13.9 1.219-33.38-34.445-33.38-34.445l9.515-18.669z" fill="#DAA146"/><path d="M466.503 393.42h-10.087c-1.272-.692-2.403-2.27-2.759-4.624-.493-3.25-4.137-5.02-4.924-7.681-.788-2.66 3.249-6.4 3.249-6.4l.674-.875.703-.904 6.709 1.578s.167 1.596.266 3.626c.073 1.459.111 3.159.029 4.644-.198 3.544.992 7.363 4.142 8.054 2.316.513 2.211 1.896 1.998 2.582zm58.548-.002h-23.059c-1.109-1.354-.7-6.351-.531-7.984.035-.327.058-.52.058-.52s7.876-6.3 8.961-1.476c.033.152.073.292.117.447 1.362 4.512 7.476 6.563 11.009 7.135 2.281.373 3.139 1.566 3.445 2.398z" fill="#1B1B1B"/><path d="M520.661 264.636s-1.196 14.927-2.605 32.869c-1.911 24.372-4.207 54.31-4.434 59.981-.394 9.848-1.972 25.6-1.972 25.6s-3.74 3.742-11.225 2.167c0 0-6.668-22.49-8.573-46.282-.032-.391-.061-.785-.09-1.167-1.771-24.211-4.528-75.227-4.528-75.227l33.427 2.059z" fill="#565656"/><path d="M520.661 264.636s-1.196 14.927-2.605 32.869l-26.204 41.466c-.032-.391-.061-.785-.09-1.167-1.771-24.211-4.528-75.227-4.528-75.227l33.427 2.059z" fill="#3A3A3A"/><path d="M515.195 266.408s-21.563 54.056-35.743 79.458c-14.18 25.401-18.608 32.493-18.608 32.493s-8.124-3.25-8.862-5.464c0 0 5.42-49.041 14.915-60.998 5.368-6.753 11.668-27.027 11.96-34.13.292-7.103 1.92-21.122 1.92-21.122l34.418 9.763z" fill="#565656"/><path d="M509.828 187.609c-8.427 2.658-22.33-4.839-22.33-4.839s7.091-5.511 6.686-17.634l6.514 5.251 4.425 3.567a52.92 52.92 0 01-.502 5.788c-.128.968-.359 2.479.368 3.255a49.84 49.84 0 004.839 4.612z" fill="#FFB27D"/><path d="M505.122 173.952a52.88 52.88 0 01-.501 5.787c-4.904-.843-10.467-8.769-10.467-8.769a15.681 15.681 0 016.543-.583l4.425 3.565z" fill="#ED975D"/><path d="M507.707 173.752s-13.92 2.313-15.224-6.377c-1.304-8.69-3.984-14.244 4.849-16.087 8.832-1.844 11.058 1.213 12.202 4.008 1.143 2.794 1.758 17.63-1.827 18.456z" fill="#FFB27D"/><path d="M521.585 265.879c-.243.211-.553.33-.875.335-3.165-.041-12.391 1.715-20.2.913-6.581-.633-12.407-2.581-18.669-5.385-.832-.373-2.743-1.394-2.702-2.333.029-1.018.132-2.492.257-4.35.443-6.458 1.216-17.563.464-30.378a132.58 132.58 0 01-.216-7.082c-.064-17.368 3.378-32.642 10.297-37.814.584-.423 4.221 1.351 7.555 2.996 3.081 1.52 5.496 1.68 8.407 1.091l3.577 2.581c3.544 3.291 7.426 7.763 9.112 14.556 1.436 5.782 2.279 16.205 2.743 27.006.212 4.895.382 9.834.425 14.516v.169c.041.464.041.971.041 1.435.166 12.036-.003 21.571-.216 21.744z" fill="#FFBE55"/><path d="M479.393 255.074c.443-6.458 1.216-17.564.463-30.378a131.535 131.535 0 01-.215-7.083c2.882-7.001 5.25-12.065 5.25-12.065h7.266s5.315 36.385-12.764 49.526z" fill="#DAA146"/><path d="M442.174 296.308l30.988 4.416a7.425 7.425 0 008.378-6.289l1.913-13.418a7.426 7.426 0 00-6.286-8.378l-30.988-4.417a7.425 7.425 0 00-8.377 6.29l-1.914 13.418a7.426 7.426 0 006.286 8.378z" fill="#000"/><path d="M478.919 276.631a7.476 7.476 0 00-5.134-4.483 6.934 6.934 0 00-.715-.137l-6.169-.875.411-2.9a2.457 2.457 0 00-2.083-2.774l-1.61-.23-6.479-.922-1.167-.166a2.452 2.452 0 00-2.774 2.082l-.411 2.897-10.653-1.517a7.455 7.455 0 00-8.407 6.31l-1.946 13.567a7.464 7.464 0 006.313 8.41l30.938 4.425a7.314 7.314 0 001.613.052 7.323 7.323 0 002.412-.609 7.45 7.45 0 004.376-5.756l1.934-13.584a7.386 7.386 0 00-.449-3.79zm-24.212-10.209a.918.918 0 01.762-.773.84.84 0 01.274 0l1.377.192 5.099.73 2.78.396a.916.916 0 01.776 1.036l-.412 2.896-11.084-1.578.428-2.899z" fill="#222"/><path d="M465.356 255.807s-1.458 1.488-1.307 3.55c.377 5.128-.233 7.453-3.532 7.981 0 0-3.915.735-3.964-1.564 0 0 1.84.015 1.458-3.208-.446-3.717-.399-3.752 2.042-5.691l1.616-2.669 3.687 1.601z" fill="#FFB27D"/><path d="M461.607 257.984c1.8.306 3.629.404 5.451.292 0 0 7.769-23.993 8.766-26.187.998-2.193 23.074-28.135 23.074-28.135l-9.194-23.012s-23.877 39.879-26.298 45.482c-4.008 9.259-5.396 30.02-5.396 30.02a9.969 9.969 0 003.597 1.54z" fill="#FFBE55"/><path d="M492.464 166.538s1.427-.237 1.196-2.206c-.23-1.969-.227-4.539 1.374-4.06 1.602.478 1.677 1.75 2.334 1.012.656-.738.668-3.897 5.425-4.116 4.758-.219 6.695 1.435 8.909.464 2.214-.971 2.334-4.323 2.334-4.323s-.627 1.196-1.578 1.575c0 0 3.693-5.049-.584-8.512-4.276-3.462-8.634-1.196-11.108-1.047-5.449.33-8.97.659-10.752 4.238-1.782 3.58-1.047 13.527 2.45 16.975z" fill="#532516"/><path d="M463.17 258.897s1.569 1.634 1.668 2.314c.316 2.182 1.045 3.124.68 3.36-.758.493-1.765-1.123-2.243-2.57-.478-1.447-.105-3.104-.105-3.104z" fill="#FFB27D"/><path d="M556.784 393.708H537.31c-1.042-.89.725-2.909 2.568-3.046.801-.061 1.816.11 2.973.354.273-3.57 1.799-19.643 7.566-18.997 6.484.722 0 7.075-1.835 10.837-1.367 2.785-2.789 6.781-3.445 8.668.527.116 1.074.225 1.641.33.858-2.65 4.058-11.566 8.124-11.046 4.775.607 2.855 4.182-.53 6.316-2.483 1.563-5.533 3.78-6.979 4.851 1.257.219 2.531.322 3.807.307 3.325-.093 4.966.893 5.584 1.426z" fill="#698626"/><path d="M568.308 393.127H.892c-.37 0-.671.435-.671.971v.429c0 .536.3.97.671.97h567.416c.37 0 .671-.434.671-.97v-.429c0-.536-.301-.971-.671-.971z" fill="#2E2E2E"/><path d="M532.236 95.198c-1.519-24.547-18.972-28.638-35.01-28.635-16.039.002-31.723 8.214-30.955 26.674.328 7.967 2.584 14.883 7.932 19.788l-6.029 14.885 12.274-10.771c4.936 2.306 11.377 3.584 19.662 3.581 24.575-.009 33.105-9.737 32.126-25.522z" fill="#F5A72B"/><path d="M489.762 102.302h-3.698v-4.346h4.435l1.193-7.273h-4.108v-4.346h4.845l1.117-6.563h4.396l-1.117 6.563h6.733l1.069-6.563h4.382l-1.117 6.563h3.655v4.346h-4.395l-1.19 7.273h4.105v4.346h-4.845l-1.148 6.73h-4.395l1.15-6.73h-6.736l-1.117 6.73h-4.353l1.139-6.73zm11.827-4.346l1.231-7.273h-6.736l-1.231 7.273h6.736z" fill="#EBF3FA"/><path d="M221.796 391.233l-.546-.08c-2.152-26.063-10.662-44.765-10.779-45.021l.496-.202c.12.259 8.69 19.085 10.829 45.303z" fill="#799537"/><path d="M205.385 343.711c.841 1.328 4.768 3.464 5.04 3.13.272-.334-.762-6.04-1.596-7.376-.405-.638-.974-1.026-1.583-1.078-.609-.051-1.207.237-1.664.803-.457.565-.734 1.361-.771 2.212-.037.851.169 1.688.574 2.326v-.017z" fill="#fff"/><path d="M211.576 340.178c-.941 1.212-1.785 6.171-1.424 6.428.36.258 5.018-1.944 5.959-3.156.45-.582.641-1.313.532-2.031a2.722 2.722 0 00-1.11-1.8 2.915 2.915 0 00-2.103-.514 2.856 2.856 0 00-1.864 1.073h.01z" fill="#fff"/><path d="M216.172 344.622c-1.617-.342-7.062.563-7.196.924-.135.361 3.981 3.294 5.599 3.636a3.87 3.87 0 001.182.065c.396-.04.778-.139 1.124-.293.346-.154.65-.36.894-.605s.424-.526.529-.825c.105-.3.133-.612.082-.92a2.021 2.021 0 00-.376-.874 2.66 2.66 0 00-.777-.696 3.46 3.46 0 00-1.061-.412z" fill="#fff"/><path d="M213.524 351.2c-.15-1.481-2.968-5.601-3.41-5.56-.442.042-2.372 4.603-2.225 6.073a2.638 2.638 0 001.018 1.81c.58.451 1.326.667 2.074.599a2.886 2.886 0 001.915-.962 2.58 2.58 0 00.635-1.96h-.007z" fill="#fff"/><path d="M207.631 351.282c.943-.691 2.972-4.739 2.832-5.114-.141-.376-3.681-.34-4.625.351-.452.332-.792.901-.944 1.583a3.662 3.662 0 00.134 2.051c.237.632.645 1.106 1.133 1.318.489.213 1.017.145 1.47-.186v-.003z" fill="#fff"/><path d="M208.983 346.041c.029-.093.111-.179.238-.248.126-.069.291-.117.473-.14.182-.022.373-.016.549.016.175.033.328.09.438.166.11.076.172.167.179.26.006.094-.043.186-.141.266a1.046 1.046 0 01-.413.181 1.799 1.799 0 01-.546.035 1.292 1.292 0 01-.608-.188c-.145-.1-.206-.225-.169-.348z" fill="#F78248"/><path d="M219.789 353.236c-1.509 1.939-3.14 10.133-2.611 10.586.53.452 7.83-2.892 9.341-4.847a4.713 4.713 0 00.913-3.323 4.61 4.61 0 00-1.575-3.037 4.197 4.197 0 00-3.154-1 4.278 4.278 0 00-2.914 1.615v.006zm-4.769 21.352c1.589.887 5.1 6.272 4.879 6.788-.221.516-6.094.673-7.679-.214-.748-.434-1.317-1.188-1.584-2.097a4.147 4.147 0 01.158-2.765c.368-.863 1.017-1.525 1.809-1.845a2.834 2.834 0 012.42.133h-.003zm20.935 16.647l.646-.094c2.511-30.407 12.429-52.231 12.567-52.527l-.58-.233c-.149.299-10.138 22.265-12.633 52.854z" fill="#799537"/><path d="M253.434 337.844c-.84 1.33-4.771 3.465-5.044 3.131-.272-.334.76-6.048 1.6-7.375.403-.638.971-1.025 1.579-1.078.608-.053 1.206.234 1.663.796.457.563.734 1.356.772 2.205.038.849-.167 1.684-.57 2.321z" fill="#fff"/><path d="M247.254 334.603c1.195 1.054 2.283 5.371 1.825 5.594-.458.223-6.444-1.693-7.64-2.757a2.213 2.213 0 01-.628-.842 1.602 1.602 0 01-.085-.936c.066-.312.226-.613.471-.885a3.15 3.15 0 01.954-.697 4.659 4.659 0 011.289-.401 5.485 5.485 0 011.426-.043c.474.048.93.157 1.34.321.41.165.766.381 1.048.636v.01z" fill="#fff"/><path d="M240.603 338.502c1.926-.545 8.413.898 8.563 1.454.15.556-4.738 5.254-6.661 5.814a3.473 3.473 0 01-2.796-.308 3.669 3.669 0 01-1.093-.97 3.835 3.835 0 01-.645-1.336 3.932 3.932 0 01-.095-1.493c.064-.499.223-.98.469-1.414a3.72 3.72 0 01.959-1.112c.388-.3.83-.516 1.299-.635z" fill="#fff"/><path d="M243.997 346.449c.201-1.95 3.958-7.423 4.551-7.372.594.051 3.164 6.107 2.964 8.057a3.38 3.38 0 01-.408 1.346 3.577 3.577 0 01-.93 1.093 3.839 3.839 0 01-1.308.67 4.006 4.006 0 01-2.907-.264 3.73 3.73 0 01-1.147-.894 3.479 3.479 0 01-.69-1.241 3.36 3.36 0 01-.125-1.395z" fill="#fff"/><path d="M251.657 346.216c-1.099-.924-3.47-6.324-3.303-6.822.167-.498 4.294-.457 5.394.464.262.219.494.518.683.88.189.362.332.781.42 1.231.087.45.119.923.092 1.393a5.307 5.307 0 01-.248 1.343 3.77 3.77 0 01-.552 1.09 2.231 2.231 0 01-.771.67c-.282.14-.579.19-.873.147a1.691 1.691 0 01-.842-.396z" fill="#fff"/><path d="M248.974 339.87c-.044-.184-.17-.355-.36-.492a1.673 1.673 0 00-.71-.276 2.098 2.098 0 00-.821.034 1.5 1.5 0 00-.654.331.77.77 0 00-.268.518.722.722 0 00.209.53c.146.159.36.285.615.363.254.078.538.104.814.075.371-.041.703-.177.923-.38.22-.203.311-.455.252-.703z" fill="#F78248"/><path d="M237.499 364.023c1.244 1.355 2.581 7.047 2.146 7.362-.436.315-6.43-2.01-7.673-3.367-.566-.654-.821-1.479-.713-2.299.108-.819.571-1.569 1.291-2.09.72-.52 1.64-.77 2.565-.696.924.073 1.78.464 2.384 1.09zm6.147 8.687c-1.882.767-6.045 5.44-5.791 5.89.254.449 7.223.581 9.105-.186a3.84 3.84 0 001.213-.74c.342-.312.605-.678.775-1.076a2.7 2.7 0 00-.162-2.459 3.316 3.316 0 00-.912-.997 4.01 4.01 0 00-1.303-.624 4.5 4.5 0 00-1.491-.152 4.38 4.38 0 00-1.444.344h.01zm-35.062 20.413s4.94-3.949 15.571-2.52c10.631 1.429 16.468-2.759 18.406 2.52h-33.977z" fill="#799537"/><defs><linearGradient id="paint0_linear_8123_48731" x1="23" y1="0" x2="491.412" y2="538.723" gradientUnits="userSpaceOnUse"><stop stop-color="#CEEA8F"/><stop offset="1" stop-color="#8ECA07"/></linearGradient></defs></svg>