<svg width="574" height="366" fill="none" xmlns="http://www.w3.org/2000/svg"><path fill-rule="evenodd" clip-rule="evenodd" d="M62.17 88.652c38.316-30.144 100.124-31.76 153.938-44.615 47.229-11.282 92.123-32.197 141.123-25.868 49.752 6.426 87.359 33.675 122.505 59.92 36.412 27.19 70.372 56.477 82.6 93.24 13.437 40.396 21.356 87.08-11.251 121.266-32.124 33.68-97.632 35.788-151.216 49.069-48.015 11.901-93.962 25.302-144.73 24.281-60.214-1.211-124.729-2.882-171.155-30.633-49.492-29.583-79.448-75.34-83.54-121.608-4.005-45.292 19.254-91.638 61.727-125.052z" fill="#E1F2BA" fill-opacity=".2"/><path d="M296.864 345.504c0 2.843-50.133 5.146-111.974 5.146-61.842 0-111.984-2.303-111.984-5.146 0-2.842 50.133-5.146 111.984-5.146 61.85 0 111.974 2.304 111.974 5.146z" fill="#000" opacity=".2"/><path fill-rule="evenodd" clip-rule="evenodd" d="M89.935 214.867c-94.042-1.828-85.66-65.946-48.15-92.314 16.032-11.27 105.11-37.803 167.518-88.064 62.408-50.261 148.58-46.505 188.75 17.86 40.171 64.363.914 118.097-62.691 137.127-49.941 14.962-184.089 26.588-245.427 25.391z" fill="url(#paint0_linear_8141_48731)"/><path opacity=".5" fill-rule="evenodd" clip-rule="evenodd" d="M398.055 52.348C368.268 4.59 313.135-9.804 261.174 6.51c20.108-2.633 40.445-2.02 60.589 5.027 35.399 13.043 66.923 49.922 64.026 96.025-1.042 13.079-8.29 23.599-19.724 25.235-15.721 2.249-30.5-4.259-46.614-4.57-44.311 1.161-76.529 35.939-116.16 54.529-37.73 16.608-77.041 17.046-118.034 10.84-11.206-1.828-22.85-7.074-28.865-18.28-10.41-21.789 5.759-41.34 21.105-51.293 38.388-23.499 84.243-36.68 112.787-75.442-60.141 41.221-134.047 63.816-148.506 73.979-37.474 26.36-45.892 90.486 48.15 92.314 61.319 1.198 195.485-10.428 245.426-25.391 63.615-19.038 102.834-72.772 62.701-137.136z" fill="#8EB438"/><path d="M326.507 5.012a88.011 88.011 0 018.811 2.33 95.4 95.4 0 018.518 3.182.339.339 0 01.183.43.337.337 0 01-.429.173c-2.797-1.133-5.649-2.102-8.519-2.989a85.46 85.46 0 00-8.738-2.212.465.465 0 01-.31-.7.466.466 0 01.293-.204.457.457 0 01.182 0l.009-.01zm18.533 6.015c.472.13.936.288 1.389.475.457.187.892.423 1.298.704a.36.36 0 01.157.23.358.358 0 01-.057.273.363.363 0 01-.393.146c-.475-.128-.914-.348-1.371-.512-.45-.19-.886-.41-1.307-.658a.358.358 0 01-.11-.503.39.39 0 01.394-.155zm4.095 1.818c.507.097.982.32 1.38.65a.374.374 0 01-.32.64 2.675 2.675 0 01-.722-.23 2.629 2.629 0 01-.64-.41.37.37 0 01-.084-.416.366.366 0 01.084-.124.404.404 0 01.302-.11zm3.219 1.545c.178.022.351.075.512.155.157.087.296.201.411.338a.39.39 0 01.081.297.39.39 0 01-.163.26.348.348 0 01-.247.074 1.417 1.417 0 01-.914-.485.396.396 0 01-.031-.448.41.41 0 01.104-.118.486.486 0 01.247-.073zm2.185 1.18a.547.547 0 01.329.063c.104.05.188.134.238.238a.442.442 0 01-.256.594h-.091a.522.522 0 01-.32-.055.593.593 0 01-.238-.238.464.464 0 01-.003-.353.456.456 0 01.25-.25h.091zm1.871 1.023a.538.538 0 01.32.073.58.58 0 01.192.228.446.446 0 01-.265.603h-.082a.503.503 0 01-.32-.073.483.483 0 01-.219-.602.459.459 0 01.256-.248l.118.018z" fill="#fff"/><path d="M357.574 17.14c1.298.796 2.605 1.564 3.884 2.368l3.766 2.568c1.27.823 2.422 1.828 3.656 2.742 1.234.914 2.413 1.828 3.519 2.88a.337.337 0 010 .465.327.327 0 01-.229.096.325.325 0 01-.228-.096c-1.115-1.014-2.358-1.828-3.556-2.741-1.197-.915-2.367-1.829-3.656-2.651l-3.747-2.514c-1.28-.786-2.587-1.535-3.875-2.303a.477.477 0 01-.183-.64.464.464 0 01.283-.209.453.453 0 01.347.054l.019-.018zm15.801 11.407a9.23 9.23 0 011.17.914c.369.322.714.67 1.032 1.042a.337.337 0 01-.054.503.36.36 0 01-.421 0 9.386 9.386 0 01-1.17-.914 9.876 9.876 0 01-1.023-1.033.363.363 0 01-.046-.409.363.363 0 01.091-.112.357.357 0 01.421.01zm3.327 2.971c.224.124.427.281.603.466.184.181.341.387.467.612a.378.378 0 01.03.293.368.368 0 01-.195.22.372.372 0 01-.329 0 2.532 2.532 0 01-.603-.467 2.608 2.608 0 01-.466-.612.385.385 0 01.164-.512.349.349 0 01.329 0zm2.495 2.514c.333.147.598.415.74.75a.379.379 0 01-.022.3.387.387 0 01-.234.193.439.439 0 01-.265 0 1.546 1.546 0 01-.438-.302 1.614 1.614 0 01-.293-.439.393.393 0 01.247-.511.44.44 0 01.265.009zm1.772 1.791a.465.465 0 01.292.165c.071.086.116.19.128.301a.45.45 0 01-.114.34.455.455 0 01-.325.154h-.082a.554.554 0 01-.283-.174.617.617 0 01-.137-.292.43.43 0 01.247-.442.437.437 0 01.173-.043l.101-.009zm1.383 1.617a.568.568 0 01.411.485.44.44 0 01-.121.334.441.441 0 01-.326.141h-.092a.523.523 0 01-.274-.164.572.572 0 01-.137-.311.452.452 0 01.271-.436.462.462 0 01.177-.04.31.31 0 01.091-.009zm.921.906c.969 1.16 1.983 2.312 2.897 3.49.914 1.18 1.828 2.396 2.742 3.657 1.828 2.44 3.501 4.945 5.155 7.476a.32.32 0 01.083.26.327.327 0 01-.411.28.333.333 0 01-.211-.174c-1.7-2.495-3.446-4.954-5.283-7.312-.914-1.216-1.828-2.395-2.742-3.583-.914-1.188-1.947-2.294-2.925-3.436a.484.484 0 010-.658.475.475 0 01.658.054l.037-.054zm11.562 15.684c.331.372.636.766.914 1.179.263.416.498.85.704 1.298a.365.365 0 01-.201.475.385.385 0 01-.412-.1 10.45 10.45 0 01-1.563-2.468.357.357 0 01.595-.384h-.037zm2.361 3.774c.186.178.346.381.475.604.138.217.243.455.311.703a.368.368 0 01-.052.286.376.376 0 01-.24.162.392.392 0 01-.32-.091 2.444 2.444 0 01-.476-.594 2.878 2.878 0 01-.31-.704.373.373 0 01.612-.366zm1.771 3.054c.142.11.257.25.338.411.096.152.155.324.174.503a.387.387 0 01-.099.29.395.395 0 01-.276.13.444.444 0 01-.247-.073 1.35 1.35 0 01-.347-.411 1.298 1.298 0 01-.164-.503.38.38 0 01.374-.42.347.347 0 01.247.073zm1.242 2.193c.104.05.188.134.238.238a.536.536 0 01.055.329.456.456 0 01-.194.293.447.447 0 01-.346.063.217.217 0 01-.082 0 .517.517 0 01-.237-.228.544.544 0 01-.055-.33.426.426 0 01.185-.298.44.44 0 01.345-.067h.091zm.97 1.901a.63.63 0 01.237.228.552.552 0 01.055.33.433.433 0 01-.197.297.446.446 0 01-.351.059h-.082a.506.506 0 01-.238-.238.537.537 0 01-.055-.32.45.45 0 01.539-.365l.092.009z" fill="#fff"/><path d="M401.875 66.03c1.334 2.743 2.605 5.485 3.702 8.318l.804 2.13.731 2.148c.512 1.435.914 2.897 1.335 4.36a.33.33 0 01-.22.402.339.339 0 01-.411-.229c-.448-1.435-.868-2.88-1.398-4.287l-.768-2.12-.85-2.093c-1.106-2.797-2.395-5.484-3.738-8.226a.445.445 0 01-.048-.362.452.452 0 01.233-.282.454.454 0 01.523.079.458.458 0 01.105.154v.009zm6.956 18.217c.188.457.34.927.457 1.407.121.475.209.958.265 1.444a.357.357 0 01-.199.358.355.355 0 01-.139.035.383.383 0 01-.357-.228 9.968 9.968 0 01-.457-1.39 9.555 9.555 0 01-.256-1.443.358.358 0 01.26-.402.356.356 0 01.426.219zm1.03 4.341a3.043 3.043 0 01.301 1.499.362.362 0 01-.274.313.364.364 0 01-.146.007.41.41 0 01-.284-.192 2.926 2.926 0 01-.246-.722 2.577 2.577 0 01-.046-.759.368.368 0 01.135-.255.37.37 0 01.56.109zm.65 3.483c.089.156.151.326.183.503.031.178.031.36 0 .54a.391.391 0 01-.192.233.385.385 0 01-.302.022.366.366 0 01-.21-.155 1.296 1.296 0 01-.174-.494 1.315 1.315 0 010-.53.401.401 0 01.338-.289.366.366 0 01.357.17zm.337 2.513c.08.081.129.188.137.302a.553.553 0 01-.064.33.463.463 0 01-.291.203.456.456 0 01-.349-.067l-.073-.055a.59.59 0 01-.128-.301.591.591 0 01.064-.32.452.452 0 01.462-.22.47.47 0 01.169.064l.073.064zm.24 2.103a.547.547 0 01.128.31.517.517 0 01-.064.32.45.45 0 01-.713.064.55.55 0 01-.127-.3.55.55 0 01.063-.321.446.446 0 01.64-.128l.073.055z" fill="#fff"/><path d="M411.332 97.957c.101 1.517.155 3.034.192 4.57v2.276c0 .758 0 1.517-.092 2.276-.118 1.517-.21 3.034-.456 4.57l-.311 2.248-.439 2.239a.319.319 0 01-.134.206.326.326 0 01-.241.05.309.309 0 01-.116-.047.307.307 0 01-.089-.087.334.334 0 01-.051-.241l.339-2.239.265-2.239c.21-1.49.265-2.998.356-4.497.055-.74.073-1.499.064-2.248v-2.249a105.765 105.765 0 00-.238-4.497.46.46 0 01.238-.453.464.464 0 01.676.38l.037-.018zm-1.341 19.477a7.25 7.25 0 01-.238 1.463c-.118.478-.267.948-.448 1.407a.368.368 0 01-.484.183.375.375 0 01-.211-.366c.049-.484.134-.964.256-1.435.119-.475.265-.914.43-1.398a.353.353 0 01.634-.066.38.38 0 01.061.212zm-1.061 4.314a2.797 2.797 0 01-.457 1.453.37.37 0 01-.409.138.372.372 0 01-.267-.339 2.51 2.51 0 01.128-.749c.072-.246.18-.48.32-.695a.378.378 0 01.384-.165.382.382 0 01.258.185.368.368 0 01.043.172zm-1.052 3.382c.017.183-.005.366-.063.54-.063.169-.16.325-.284.457a.404.404 0 01-.566 0 .421.421 0 01-.101-.238 1.402 1.402 0 01.082-.521c.06-.165.147-.32.256-.457a.381.381 0 01.558 0 .397.397 0 01.118.219zm-.859 2.358a.546.546 0 01-.229.594.446.446 0 01-.621-.173.289.289 0 010-.083.559.559 0 010-.329.581.581 0 01.21-.265.467.467 0 01.631.165 1.4 1.4 0 01.009.091zm-.74 2.002a.477.477 0 010 .329.58.58 0 01-.219.256.457.457 0 01-.352.038.453.453 0 01-.27-.23.375.375 0 010-.082.501.501 0 010-.329.555.555 0 01.22-.247.445.445 0 01.621.183v.082zm-.438 1.224c-.631 1.38-1.197 2.797-1.928 4.131-.732 1.335-1.353 2.742-2.157 4.004-1.518 2.632-3.199 5.164-4.954 7.632a.347.347 0 01-.466.082.312.312 0 01-.13-.215.325.325 0 01.066-.242c1.7-2.486 3.308-5.027 4.761-7.669.777-1.279 1.408-2.65 2.094-3.985.685-1.334 1.261-2.742 1.873-4.094a.475.475 0 01.613-.256.464.464 0 01.248.256.457.457 0 01-.011.356h-.009zm-9.797 16.882a9.289 9.289 0 01-.786 1.252c-.27.399-.576.772-.914 1.115a.374.374 0 01-.521 0 .366.366 0 01-.045-.411c.24-.425.502-.837.786-1.234.279-.395.584-.77.914-1.124a.382.382 0 01.521 0 .356.356 0 01.045.402zm-2.69 3.528a2.77 2.77 0 01-.402.649 2.361 2.361 0 01-.558.53.368.368 0 01-.283.054.372.372 0 01-.238-.164.408.408 0 010-.338 2.79 2.79 0 01.393-.649c.158-.204.346-.382.558-.53a.385.385 0 01.521.11.405.405 0 01.009.338zm-2.219 2.751a1.34 1.34 0 01-.274.457 1.247 1.247 0 01-.42.329.396.396 0 01-.311.009.384.384 0 01-.132-.087.364.364 0 01-.088-.388c.054-.17.145-.326.266-.457.119-.131.262-.239.42-.32a.405.405 0 01.308-.012.395.395 0 01.222.213c.03.083.034.172.009.256zm-1.675 1.883a.559.559 0 01-.128.311.582.582 0 01-.283.165.469.469 0 01-.343-.077.462.462 0 01-.187-.298.342.342 0 010-.101.578.578 0 01.137-.301.516.516 0 01.283-.165.442.442 0 01.346.074.453.453 0 01.185.301.307.307 0 01-.01.091zm-1.414 1.581a.649.649 0 01-.137.311.522.522 0 01-.283.165.441.441 0 01-.521-.476.568.568 0 01.137-.31.586.586 0 01.283-.165.446.446 0 01.463.214c.03.052.05.11.058.17a.347.347 0 010 .091zM66.044 209.538c.46.024.918.076 1.371.156.456.08.904.193 1.344.338.511.192.694.466.402.612-.165.069-.343.1-.521.091a8.87 8.87 0 01-1.39-.137 7.712 7.712 0 01-1.343-.365c-.512-.201-.676-.475-.384-.622.166-.061.344-.086.521-.073zm5.171.895c.462-.003.923.031 1.38.101.456.067.908.162 1.353.283.52.165.713.43.42.594a1.25 1.25 0 01-.512.11 7.099 7.099 0 01-1.389-.082 8.929 8.929 0 01-1.362-.302c-.52-.174-.695-.448-.411-.603a1.35 1.35 0 01.52-.101zm5.201.686c.463-.016.928-.001 1.39.046.459.043.914.122 1.361.238.53.155.722.402.439.585a1.29 1.29 0 01-.503.128 8.95 8.95 0 01-1.39 0 8.61 8.61 0 01-1.37-.238c-.53-.155-.722-.43-.439-.585a1.39 1.39 0 01.512-.174zm9.304.768a11.002 11.002 0 012.742.137c.53.109.74.365.466.548-.151.086-.32.139-.493.156a8.506 8.506 0 01-2.742-.138c-.53-.128-.74-.374-.457-.557a1.12 1.12 0 01.484-.146zm6.639.265a3.23 3.23 0 01.832-.083c.284.004.566.044.84.119.53.174.604.466.156.649a.723.723 0 01-.174.064 3.771 3.771 0 01-.84.083 3.294 3.294 0 01-.832-.119c-.54-.174-.613-.466-.165-.649l.183-.064zm5.618.101c.272-.067.552-.097.832-.092a3.31 3.31 0 01.84.101c.531.164.613.457.175.649l-.174.064a3.42 3.42 0 01-1.682 0c-.53-.165-.612-.457-.174-.649l.183-.073zm-74.035-25.848a36.87 36.87 0 007.386 8.802 44.134 44.134 0 009.615 6.315 72.006 72.006 0 0010.767 4.251 136.277 136.277 0 0011.187 3.153c.521.128.914.375.841.567-.073.192-.494.237-1.005.128a114.76 114.76 0 01-11.288-3.026 72.11 72.11 0 01-10.913-4.259 45.456 45.456 0 01-9.78-6.508 36.104 36.104 0 01-7.422-9.094c-.274-.475-.356-.914-.174-1.005.183-.092.521.256.786.676zm-1.836-2.093a4.62 4.62 0 01-.622-1.07 6.758 6.758 0 01-.375-1.124c-.11-.539.083-.804.366-.585.114.09.215.194.302.311.21.325.394.668.548 1.024.128.365.283.722.393 1.096.128.521 0 .805-.329.604a1.326 1.326 0 01-.283-.256zm-1.689-4.15a4.44 4.44 0 01-.457-1.097 6.23 6.23 0 01-.237-1.161c0-.548.183-.795.438-.53.1.102.184.219.247.347.175.345.316.707.42 1.079.109.372.194.751.256 1.133.074.539-.1.795-.392.567a1.2 1.2 0 01-.275-.338zm-1.188-4.323c-.21-.768-.356-1.554-.503-2.34a23.15 23.15 0 01-.31-2.377 30.909 30.909 0 01-.083-4.78c0-.539.238-.914.43-.822.192.091.265.42.283.831.073 1.572.11 3.135.284 4.689 0 .786.173 1.554.246 2.331.073.777.229 1.545.348 2.321.091.521 0 .914-.21.914s-.366-.356-.485-.767zm-.659-13.537a2.407 2.407 0 010-.722 2.14 2.14 0 01.192-.694c.256-.512.567-.476.695.064.036.233.036.47 0 .703a2.74 2.74 0 01-.174.686c-.247.512-.557.503-.704 0l-.009-.037zm.73-4.734a2.34 2.34 0 01.329-1.39c.329-.475.63-.383.685.156.013.237-.011.474-.073.704a2.64 2.64 0 01-.246.658c-.302.475-.613.438-.695-.119v-.009z" fill="#fff"/><path clip-rule="evenodd" d="M273 196.404c-57.82 8.226-137.42 14.066-181.21 13.207-21.168-.411-38.05-4.067-50.197-10.831-10.154-5.694-16.534-13.28-18.965-22.576-4.442-17.018 5.255-37.858 23.535-50.718 4.57-3.19 16.178-8.034 30.912-14.167 36.231-15.09 90.979-37.885 134.084-72.599 21.46-17.256 46.266-28.361 71.73-31.999 45.7-6.517 86.675 11.645 109.726 48.561 14.423 23.124 18.755 45.417 12.887 66.274-4.021 14.295-12.649 27.173-25.646 38.288-12.568 10.748-28.947 19.34-47.355 24.86-13.216 4.022-33.79 8.025-59.501 11.7z" stroke="#fff" stroke-width=".73" stroke-miterlimit="10"/><path d="M36.273 332.946h362.155s1.06-27.722-24.304-18.591c0 0 10.566-24.367-13.71-29.906-24.275-5.539-39.137 21.881-39.137 21.881s-.594-45.096-27.649-50.809c-27.054-5.712-39.073 38.607-39.073 38.607s-10.557-64.272-42.83-61.375c-32.273 2.898-26.46 54.274-26.46 54.274s-67.061-47.995-84.335-27.329c-17.275 20.666 1.581 38.927 1.581 38.927s-28.014-31.222-39.1-25.18c-11.088 6.041 2.11 33.818 2.11 33.818s-16.378-9.661-20.601-1.637c-4.223 8.025 5.813 17.632 5.813 17.632s-14.121-2.276-14.46 9.688z" fill="url(#paint1_linear_8141_48731)"/><path d="M51.803 306.403a.862.862 0 01.53-.091c.185.017.36.09.503.21a.756.756 0 010 .822.536.536 0 01-.21.238.988.988 0 01-.494.092.969.969 0 01-.457-.202.766.766 0 01-.028-.84.56.56 0 01.156-.229zm1.947.293a.92.92 0 01.53 0 .81.81 0 01.458.274.74.74 0 010 .814.495.495 0 01-.238.219.914.914 0 01-.503 0 .914.914 0 01-.438-.256.786.786 0 010-.813.473.473 0 01.192-.238zm1.873.484c.174-.045.356-.045.53 0 .17.057.32.162.43.302a.767.767 0 01-.092.813.512.512 0 01-.256.202.987.987 0 01-.511 0 .824.824 0 01-.412-.293.776.776 0 01.055-.814.553.553 0 01.256-.21zm3.197 1.171a.82.82 0 01.522.055.912.912 0 01.402.338.757.757 0 01-.165.804.52.52 0 01-.265.174.915.915 0 01-.512-.055.914.914 0 01-.393-.329.778.778 0 01.147-.804.482.482 0 01.265-.183zm2.205 1.023a.428.428 0 01.338 0 .407.407 0 01.21.265.975.975 0 01-.383.914l-.092.055a.428.428 0 01-.338 0 .393.393 0 01-.2-.265.917.917 0 01.365-.914l.1-.055zm1.812.914a.428.428 0 01.169-.036c.058 0 .115.013.169.036a.415.415 0 01.192.283.915.915 0 01-.43.914l-.1.055a.373.373 0 01-.33-.016.372.372 0 01-.182-.276.914.914 0 01.402-.914l.11-.046zm-8.723 10.603a19.9 19.9 0 01-2.916-3.09 21.561 21.561 0 01-2.285-3.656 9.756 9.756 0 01-1.07-4.268v-.576c0-.192.083-.384.12-.576.087-.382.218-.754.393-1.106.09-.221.228-.42.402-.585.181-.158.393-.279.621-.356.38-.124.779-.186 1.18-.183.21 0 .374.238.365.53-.01.293-.137.512-.302.54a2.76 2.76 0 00-.831.182.563.563 0 00-.22.147.142.142 0 00-.045.073.896.896 0 00-.074.183 3.73 3.73 0 00-.255.84c0 .147-.055.293-.074.439v.457a8.662 8.662 0 001.006 3.656 21.38 21.38 0 002.084 3.437 25.648 25.648 0 002.632 3.107c.128.137.073.421-.137.631-.21.21-.457.293-.594.174zm1.362-.01a.69.69 0 01.402.183.674.674 0 01.201.402.843.843 0 01-.484.713.577.577 0 01-.667-.128.676.676 0 01-.201-.393.831.831 0 01.484-.713.609.609 0 01.265-.064zm1.144 1.106a.712.712 0 01.41.183.675.675 0 01.202.402.812.812 0 01-.485.703.583.583 0 01-.265.064.683.683 0 01-.402-.182.679.679 0 01-.201-.402.812.812 0 01.484-.704.571.571 0 01.256-.064zm1.151 1.097a9.581 9.581 0 012.45 2.349.55.55 0 01-.201.649.524.524 0 01-.54.128 10.067 10.067 0 01-1.325-1.069 8.843 8.843 0 01-1.124-1.289.548.548 0 01.21-.649.485.485 0 01.53-.119zm3.489 3.355a.349.349 0 01.155.005c.05.012.098.035.138.068a.309.309 0 01.074.283 1.041 1.041 0 01-.723.768.294.294 0 01-.36-.197.295.295 0 01-.005-.151 1.038 1.038 0 01.722-.767v-.009zm1.256 1.16a.295.295 0 01.282.069.296.296 0 01.084.279 1.041 1.041 0 01-.722.767.337.337 0 01-.155-.003.357.357 0 01-.138-.07.314.314 0 01-.073-.283 1.018 1.018 0 01.713-.759h.009zm20.06-40.92c.268.099.515.245.732.43.22.186.403.412.539.667a.568.568 0 01-.293.795.558.558 0 01-.402 0 2.104 2.104 0 01-.731-.429 2.242 2.242 0 01-.54-.659.57.57 0 01-.036-.464.571.571 0 01.32-.34.703.703 0 01.411 0zm2.413 2.076a2.3 2.3 0 01.74.438c.218.186.4.409.54.658a.573.573 0 01.028.466.56.56 0 01-.33.33.603.603 0 01-.402 0 2.489 2.489 0 01-1.27-1.097.587.587 0 01.292-.805.681.681 0 01.402.01zm2.425 2.083c.27.094.518.24.731.429.22.183.403.407.54.658a.582.582 0 01-.095.671.572.572 0 01-.198.134.673.673 0 01-.402 0 2.568 2.568 0 01-.74-.43 2.414 2.414 0 01-.54-.667.564.564 0 01.302-.795c.13-.05.273-.05.402 0zm4.294 3.665c.272.09.523.233.74.421.223.183.409.406.549.658a.57.57 0 01-.088.668.567.567 0 01-.196.136.673.673 0 01-.402 0 2.183 2.183 0 01-.74-.42 2.422 2.422 0 01-.549-.658.58.58 0 01.284-.805.616.616 0 01.402 0zm3.088 2.569a.91.91 0 01.484.201c.138.117.242.268.302.439a.657.657 0 01-.54.822h-.137a.912.912 0 01-.493-.21.912.912 0 01-.293-.439.638.638 0 01.53-.813h.147zm2.622 2.166a.906.906 0 01.786.63.652.652 0 01-.263.733.648.648 0 01-.258.099h-.137a.96.96 0 01-.493-.201 1.02 1.02 0 01-.302-.439.636.636 0 01.264-.726.643.643 0 01.257-.096.4.4 0 01.146 0zm-34.052-12.065a19.191 19.191 0 01-.12-7.22 6.422 6.422 0 01.741-1.828 3.53 3.53 0 011.609-1.38c.34-.117.7-.176 1.06-.174.329 0 .649.064.978.1.311.039.617.109.914.211.292.1.612.173.914.292a29.98 29.98 0 016.124 3.784 125.335 125.335 0 015.438 4.57.552.552 0 01.204.376.554.554 0 01-.122.41.576.576 0 01-.777 0A248.772 248.772 0 0074.845 282a28.788 28.788 0 00-5.85-3.546 6.288 6.288 0 00-.767-.256 2.969 2.969 0 00-.759-.192l-.749-.092a2.133 2.133 0 00-.64.092h-.1l-.128.091a1.433 1.433 0 00-.265.192c-.17.154-.321.329-.448.521a5.064 5.064 0 00-.585 1.399 19.438 19.438 0 00-.082 6.754.566.566 0 01-.457.64.555.555 0 01-.567-.231.55.55 0 01-.082-.199zm1.204 1.462c.14.197.237.421.283.658.05.235.05.478 0 .713a.595.595 0 01-.777.421.694.694 0 01-.265-.192 1.758 1.758 0 01-.283-1.408.591.591 0 01.304-.374.584.584 0 01.738.182zm.56 2.606c.15.188.26.406.32.639.05.238.05.485 0 .723a.588.588 0 01-.28.392.587.587 0 01-.48.055.543.543 0 01-.273-.173 1.832 1.832 0 01-.33-.658 1.52 1.52 0 010-.732.582.582 0 01.76-.438.64.64 0 01.283.192zm.683 2.595c.384.914.658 1.782.978 2.678.32.896.585 1.828.795 2.742a.547.547 0 01-.402.686.562.562 0 01-.603-.311 19.503 19.503 0 01-1.088-2.687 19.858 19.858 0 01-.713-2.815.552.552 0 01.25-.574.548.548 0 01.207-.075.564.564 0 01.576.356zm2.644 7.659a.67.67 0 01.302.339c.05.145.05.303 0 .447a.685.685 0 01-.96.421.687.687 0 01-.31-.338.687.687 0 01.913-.869h.055zm1.152 2.615a.692.692 0 01.31.32.668.668 0 010 .448.706.706 0 01-.913.466.686.686 0 01.585-1.234h.018zm298.282-12.019c.292.111.559.279.786.493.224.221.403.481.53.768a.568.568 0 01.047.24.559.559 0 01-.44.528.643.643 0 01-.393-.055 2.406 2.406 0 01-.685-.484 2.558 2.558 0 01-.53-.668.579.579 0 01.265-.813.657.657 0 01.42-.009zm2.349 2.558c.251.19.459.429.612.704.165.278.259.592.275.914a.569.569 0 01-.158.448.548.548 0 01-.446.164.61.61 0 01-.365-.164 3.838 3.838 0 01-.503-.667 2.77 2.77 0 01-.302-.786.572.572 0 01.233-.643.572.572 0 01.681.048l-.027-.018zm1.48 3.127c.185.25.325.532.411.831.059.302.059.612 0 .914a.56.56 0 01-.49.474.548.548 0 01-.241-.026.627.627 0 01-.32-.256 2.43 2.43 0 01-.32-.786 2.487 2.487 0 01-.091-.841.587.587 0 01.428-.529.584.584 0 01.239-.019.576.576 0 01.384.238zm.742 5.995c.098.295.132.606.101.914a2.565 2.565 0 01-.238.914.547.547 0 01-.366.301.567.567 0 01-.465-.09.677.677 0 01-.229-.339 2.304 2.304 0 01-.073-.859c.028-.288.095-.571.201-.841a.567.567 0 01.576-.35c.08.006.158.029.228.067a.676.676 0 01.265.283zm-.54 4.232a.916.916 0 010 .558.97.97 0 01-.265.493.62.62 0 01-.515.166.644.644 0 01-.26-.095.654.654 0 01-.194-.198.65.65 0 01-.073-.128 1.01 1.01 0 010-.54c.043-.175.131-.336.256-.466a.625.625 0 01.969.082c.033.04.06.083.082.128zm-.96 3.473a.916.916 0 010 .558c-.066.179-.18.337-.329.457a.632.632 0 01-.914-.247l-.055-.137a1.014 1.014 0 010-.53.91.91 0 01.311-.439.628.628 0 01.959.201l.028.137zm-32.85-18.142a30.899 30.899 0 016.398-3.748 25.515 25.515 0 017.229-1.828 24.247 24.247 0 017.449.494 22.017 22.017 0 016.928 2.742.536.536 0 01.28.341.55.55 0 01-.069.436.59.59 0 01-.768.128 22.446 22.446 0 00-6.645-2.386 22.85 22.85 0 00-7.047-.402 23.874 23.874 0 00-6.864 1.682 34.194 34.194 0 00-6.27 3.418.575.575 0 01-.804-.091.584.584 0 01.183-.786zm-.784 1.782a1.84 1.84 0 01-.466.575 2.018 2.018 0 01-.649.348.594.594 0 01-.75-.476.726.726 0 01.055-.338c.109-.233.272-.437.475-.594.198-.165.429-.286.677-.356a.57.57 0 01.481.086.586.586 0 01.241.426.692.692 0 01-.064.329zm-2.105 1.782c-.098.23-.244.435-.429.603-.18.174-.395.308-.631.393a.586.586 0 01-.484-.037.575.575 0 01-.284-.393.715.715 0 010-.338c.098-.237.248-.45.439-.621.186-.175.408-.309.649-.393a.561.561 0 01.483.05.561.561 0 01.266.407.576.576 0 01-.009.329zm-1.982 1.92c-.594.795-1.261 1.517-1.883 2.266-.621.75-1.279 1.49-1.992 2.185a.542.542 0 01-.398.17.553.553 0 01-.397-.17.57.57 0 01-.046-.695 19.824 19.824 0 013.948-4.57.554.554 0 01.805.055.596.596 0 01-.037.759zm-5.355 6.462a.789.789 0 01-.128.447.738.738 0 01-.375.275.693.693 0 01-.597-.065.69.69 0 01-.317-.511.811.811 0 01.128-.457.718.718 0 01.384-.274.663.663 0 01.309-.04.674.674 0 01.605.625h-.009zm-1.608 2.476a.69.69 0 01-.101.448.71.71 0 01-.347.302.694.694 0 01-.576-.044.692.692 0 01-.338-.468.713.713 0 01.101-.466.694.694 0 01.356-.302.675.675 0 01.587.041.663.663 0 01.327.489h-.009zm66.583 15.593a.256.256 0 01.22.137.272.272 0 01-.064.256 1.6 1.6 0 01-.731.338.794.794 0 01-.275 0 .238.238 0 01-.21-.137.248.248 0 01.064-.237c.21-.173.457-.295.722-.357a.788.788 0 01.274 0zm.285.74a.245.245 0 01.201.156.248.248 0 01-.073.246 1.697 1.697 0 01-.741.311.742.742 0 01-.274 0 .201.201 0 01-.128-.375c.212-.169.464-.282.731-.329a.874.874 0 01.284-.009zm.235.759a.219.219 0 01.119.402 1.554 1.554 0 01-.75.283.967.967 0 01-.274 0 .208.208 0 01-.201-.148.217.217 0 01.002-.131.214.214 0 01.08-.105c.22-.163.478-.267.75-.301a.967.967 0 01.274 0zm.368 1.353a.312.312 0 01.121.063c.034.03.062.068.08.11a.272.272 0 01-.101.238 1.581 1.581 0 01-.767.238.84.84 0 01-.274 0 .249.249 0 01-.192-.156.234.234 0 01.1-.228 1.65 1.65 0 01.759-.265.84.84 0 01.274 0zm.22.978c.128 0 .146.054.173.091.028.037 0 .091-.128.155a2.233 2.233 0 01-.914.201h-.1c-.128 0-.147-.054-.174-.091-.027-.037 0-.082.128-.146.284-.141.597-.216.914-.22l.101.01zm.116.831a.2.2 0 01.173.101c0 .045 0 .082-.128.146-.289.123-.6.185-.914.183h-.1c-.128 0-.146-.055-.165-.092-.018-.036 0-.082.128-.146.289-.124.6-.187.914-.183l.092-.009zm-6.005-10.41a6.95 6.95 0 011.553.914c.467.387.896.819 1.28 1.289.365.476.692.98.978 1.508.271.525.497 1.072.676 1.636 0 .073-.182.228-.457.338-.274.11-.493.137-.53.073-.274-.475-.539-.914-.822-1.408-.27-.456-.576-.89-.914-1.297a7.875 7.875 0 00-1.051-1.161 10.643 10.643 0 00-1.225-.987c-.055-.046 0-.284.146-.549.146-.265.283-.42.366-.356zm-.786.622a.235.235 0 01-.095.064.237.237 0 01-.115.009.232.232 0 01-.068-.09c-.014-.035-.019-.073-.014-.111.027-.286.121-.562.274-.805a.828.828 0 01.146-.182.223.223 0 01.106-.064.215.215 0 01.123 0 .208.208 0 01.088.093c.02.039.027.083.021.126a1.72 1.72 0 01-.466.96zm-.557-.238a.232.232 0 01-.091.067.233.233 0 01-.111.015.236.236 0 01-.109-.192 1.93 1.93 0 01.21-.822.775.775 0 01.128-.192.229.229 0 01.228-.082.22.22 0 01.119.21 1.638 1.638 0 01-.247.804c-.037.068-.08.132-.127.192zm-.567-.202a1.775 1.775 0 01-.658 0 1.557 1.557 0 01-.622-.246.92.92 0 01-.055-.622c0-.238.101-.411.165-.439.252-.063.516-.063.768 0 .257.049.498.159.704.32.064.064.045.348-.055.622-.101.274-.201.356-.247.365zm-1.826-.282c0 .128-.064.128-.101.146-.036.018-.064 0-.091-.146a2.435 2.435 0 010-1.061c0-.127.073-.137.11-.155.036-.018.073 0 .109.155.078.347.078.706 0 1.052l-.027.009zm-.687.027c0 .128-.055.137-.091.155-.037.019-.064 0-.101-.146a2.52 2.52 0 01-.073-1.051c0-.128.064-.137.1-.155.037-.019.074 0 .119.146.089.34.104.695.046 1.042v.009z" fill="#fff"/><path d="M311.079 302.373c-14.167-10.338-46.614 4.049-43.104 23.142 7.759-.558 15.044-4.515 21.634-8.345 7.284-4.241 15.538-8.71 21.47-14.797z" fill="#FFD25A"/><path d="M311.078 302.373a31.844 31.844 0 00-27.941 1.417c-7.513 4.305-15.264 12.467-15.163 21.725 15.73-3.784 29.366-15.154 43.104-23.142z" fill="#fff" opacity=".2"/><path opacity=".5" d="M267.973 325.515c4.195-2.742 8.582-5.136 12.914-7.677 2.304-1.353 9.908-7.385 3.455-8.994-7.165-1.782-14.249 11.498-16.369 16.671z" fill="#F99441"/><path d="M283.436 311.376a59.566 59.566 0 0127.347-8.893 64.228 64.228 0 00-27.502 10.319 67.678 67.678 0 00-10.968 9.14c-.914.914-8.857 10.749-8.921 10.712-1.014-.603 6.736-10.145 7.559-11.032a60.347 60.347 0 0112.485-10.246z" fill="#fff"/><path d="M301.588 327.27c-5.237-10.236-28.69-11.434-32.264.914 4.131 1.627 8.647 1.746 13.034 1.582 6.188-.22 13.326-.457 19.23-2.496z" fill="#FFD25A"/><path d="M301.588 327.27c-7.449-8.747-26.378-11.196-32.264.914 10.511 2.322 21.689-.283 32.264-.914z" fill="#fff" opacity=".2"/><path opacity=".5" d="M269.324 328.202c3.062-.42 13.71.64 15.09-2.669 1.38-3.308-3.217-2.988-5.155-2.632-3.683.686-7.147 2.861-9.935 5.301z" fill="#F99441"/><path d="M282.625 324.427a39.218 39.218 0 0118.765 2.816 42.495 42.495 0 00-19.633-1.975c-1.49.201-17.695 5.1-17.247 5.786-1.28-1.983 16.909-6.517 18.115-6.627z" fill="#fff"/><path d="M52.324 302.373c14.167-10.338 46.614 4.049 43.104 23.142-7.76-.558-15.035-4.515-21.625-8.345-7.293-4.241-15.538-8.71-21.479-14.797z" fill="#FFD25A"/><path d="M52.324 302.373a31.845 31.845 0 0127.941 1.417c7.522 4.305 15.273 12.467 15.163 21.725-15.73-3.784-29.366-15.154-43.104-23.142z" fill="#fff" opacity=".2"/><path opacity=".5" d="M95.43 325.515c-4.196-2.742-8.574-5.136-12.906-7.677-2.313-1.353-9.917-7.385-3.455-8.994 7.156-1.782 14.213 11.498 16.36 16.671z" fill="#F99441"/><path d="M79.982 311.376a59.5 59.5 0 00-27.337-8.893 64.272 64.272 0 0127.502 10.319 67.274 67.274 0 0110.968 9.14c.914.914 8.857 10.749 8.92 10.712 1.015-.603-6.727-10.145-7.558-11.032a60.077 60.077 0 00-12.495-10.246z" fill="#fff"/><path d="M61.813 327.27c5.237-10.236 28.69-11.434 32.273.914-4.14 1.627-8.647 1.746-13.034 1.582-6.188-.22-13.335-.457-19.24-2.496z" fill="#FFD25A"/><path d="M61.813 327.27c7.458-8.747 26.377-11.196 32.273.914-10.52 2.322-21.69-.283-32.273-.914z" fill="#fff" opacity=".2"/><path opacity=".5" d="M94.083 328.202c-3.071-.42-13.71.64-15.09-2.669-1.38-3.308 3.208-2.988 5.155-2.632 3.702.686 7.147 2.861 9.935 5.301z" fill="#F99441"/><path d="M80.784 324.427a39.216 39.216 0 00-18.765 2.816 42.454 42.454 0 0119.624-1.975c1.5.201 17.695 5.1 17.247 5.786 1.289-1.983-16.9-6.517-18.106-6.627z" fill="#fff"/><path d="M51.893 241.235c-2.303-1.243-5.484-3.08-6.27-5.785-.795-2.87 2.458-3.318 4.424-2.651 5.2 1.746 9.14 6.846 11.022 11.827a28.056 28.056 0 01-9.176-3.391z" fill="#AFDD44"/><path d="M94.606 307.546c-2.934-.384-6.078-2.742-5.895-5.959.192-3.483 3.171-3.702 5.767-2.386a13.69 13.69 0 013.885 3.108 18.872 18.872 0 011.59 2.029c.283.42.996 1.16 1.051 1.663.055.503.201 0-.101.43-.301.429-1.316.658-1.727.795-1.48.444-3.042.553-4.57.32zm-8.959-16.544c-3.035-.539-7.44-1.937-9.021-4.871a2.889 2.889 0 012.257-4.378c3.007-.402 6.627 1.17 9.14 2.742a32.003 32.003 0 017.312 6.516c-2.961 1.052-6.672.549-9.688-.009zm-6.114-13.572c-2.642-.174-6.508-.978-8.117-3.346a2.398 2.398 0 01-.377-2.299 2.407 2.407 0 011.748-1.539c2.423-.649 5.53.31 7.724 1.288a24.527 24.527 0 017.193 4.872c-2.404 1.206-5.566 1.206-8.171 1.024zm-8.426-11.599c-2.258.548-5.685.777-7.495-1.051a2.306 2.306 0 01-.33-2.931c.197-.298.46-.546.769-.725 1.828-1.152 4.57-1.079 6.635-.777a21.66 21.66 0 016.7 2.349c-1.535 1.7-4.113 2.605-6.28 3.135zm-8.217-10.228c-2.147.466-4.98.64-6.882-.713-1.188-.841-1.617-2.431-.365-3.418 1.6-1.261 4.424-1.207 6.306-.914a21.577 21.577 0 017.102 2.294c-1.581 1.526-4.058 2.285-6.16 2.751zm47.72 49.129c2.514-2.669 3.437-7.239.914-10.201-2.075-2.413-4.286-1.371-5.557 1.161-1.746 3.473-1.965 7.778-1.828 11.599 0 .374-.073.576.174.703.42.211 1.746-.31 2.111-.438a10.82 10.82 0 004.186-2.824zm-6.116-20.173c1.426-3.409 2.148-8.226.201-11.589-1.188-2.039-3.72-3.291-5.246-.914-1.764 2.742-1.828 6.909-1.874 10.054-.017 3.447.255 6.89.813 10.291 2.87-1.572 4.854-4.963 6.106-7.842zm-9.587-14.14c.832-2.934.988-6.754-.722-9.432-.914-1.426-3.098-2.678-4.35-.914-1.527 2.093-1.188 5.74-1.024 8.153a51.18 51.18 0 001.828 9.368c2.185-1.636 3.528-4.634 4.269-7.175zm-9.688-13.061c.914-2.367 1.152-5.484-.22-7.732-.813-1.344-2.833-2.577-4.158-1.188-1.499 1.563-1.39 4.661-1.325 6.635a36.225 36.225 0 001.462 7.897c2.03-1.124 3.437-3.509 4.241-5.612zM74.58 247.131a9.808 9.808 0 00-1.572-7.038c-1.05-1.38-3.418-2.349-4.204-.183-.786 2.167 0 5.384.713 7.559a42.978 42.978 0 002.459 5.969c1.608-1.646 2.303-4.132 2.605-6.307zm-22.685-5.895a19.324 19.324 0 01-4.625-3.263c-1.005-1.033-2.404-2.87-1.471-4.351a154.312 154.312 0 0115.273 10.968 28.091 28.091 0 01-9.177-3.354z" fill="#8EB438"/><path opacity=".7" d="M94.605 307.546c-2.906-.384-6.115-2.742-5.895-5.96 2.422.841 4.826 1.728 7.202 2.678 1.197.476 2.367.997 3.565 1.481.164.064 1.682.53 1.672.512-1.782 1.38-4.368 1.599-6.544 1.289zm-8.958-16.544c-2.97-.53-9.46-2.467-9.432-6.398 6.617.713 13.198 3.519 19.13 6.398-2.97 1.061-6.681.558-9.698 0zm-6.115-13.573c-2.605-.173-8.226-1.234-8.61-4.57a69.896 69.896 0 0116.78 3.556c-2.403 1.197-5.565 1.197-8.17 1.014zm-8.425-11.598c-2.221.539-7.001.914-8.052-1.892 4.77-.521 9.542-.914 14.331-1.271-1.535 1.728-4.113 2.633-6.279 3.163zm-8.218-10.227c-2.23.484-6.645.822-7.842-1.828 4.643-.448 9.323-.914 14.002-.987-1.58 1.59-4.058 2.349-6.16 2.815zm47.719 49.127c2.513-2.669 3.437-7.239.914-10.2a68.577 68.577 0 01-7.385 13.463c2.44.009 4.835-1.545 6.471-3.263zm-6.112-20.172c1.508-3.656 2.66-10.621-1.27-13.253-1.719 6.992-3.026 14.076-4.835 21.022 2.87-1.499 4.853-4.89 6.105-7.769zm-9.588-14.14c.859-3.034 1.307-9.204-2.258-10.886-.457 5.996-.658 12.147-2.056 18.024 2.23-1.599 3.574-4.597 4.314-7.138zm-9.69-13.061c1.032-2.641 1.398-7.504-1.61-9.14-.282 1.262-2.302 14.798-2.631 14.743 2.029-1.115 3.436-3.501 4.24-5.603zM74.58 247.13c.339-2.641-.246-7.312-3.271-8.39.274 4.899.594 9.789.667 14.697 1.609-1.645 2.303-4.131 2.605-6.307z" fill="#AFDD44"/><path d="M111.057 295.774c-.155-.174-1.353 2.276-1.526 2.596a131.872 131.872 0 01-2.002 3.656c-1.307 2.276-2.696 4.515-4.104 6.727-.512-1.664-1.014-3.327-1.526-4.981-.412-1.335-.914-2.642-1.39-3.94-.365-.969-.722-1.937-1.078-2.906-.356-.969-1.188-2.258-.914-3.291 1.216-4.14 2.276-8.281 3.098-12.512.22-1.088.421-2.176.622-3.263.1-.549.192-1.097.283-1.646a6.058 6.058 0 00.256-1.873c-.265-.914-.484.713-.53.969a124.602 124.602 0 01-4.369 17.951 199.125 199.125 0 00-4.57-9.561 86.493 86.493 0 00-1.828-3.409 2.615 2.615 0 01-.585-1.6c.06-.616.164-1.227.311-1.828.192-1.243.366-2.486.512-3.729.31-2.522.53-5.063.695-7.604l.11-1.938c.1-.481.124-.974.072-1.462-.411-1.006-.438 1.416-.457 1.663a129.71 129.71 0 01-1.883 14.423c-1.892-3.226-3.957-6.343-6.133-9.387a156.838 156.838 0 00-2.275-3.071c-.138-.173-.85-.914-.869-1.133-.018-.219.402-1.179.457-1.463.275-1.261.494-2.522.704-3.783.21-1.262.411-2.487.594-3.739.156-1.115.31-2.221.448-3.336 0-.219.411-2.623-.119-2.139-.192.165-.164 1.115-.21 1.426l-.302 1.883a175.067 175.067 0 01-.64 3.711c-.42 2.276-.85 4.57-1.434 6.791a75.074 75.074 0 00-5.621-6.672c-.668-.731-1.399-1.399-2.048-2.148-.649-.75-.375-1.353-.393-2.221a83.23 83.23 0 00-.795-11.59c0 .183-.082-1.051-.384-.703-.302.347 0 1.316.073 1.617.1 1.316.192 2.633.265 3.949.147 2.596.22 5.2.137 7.805a116.145 116.145 0 00-22.137-17.987c-1.151-.731-1.289-.448-.164.292a126.35 126.35 0 018.993 6.49 132.46 132.46 0 0111.06 9.816c-2.623 0-5.246.155-7.86.311-1.28.082-2.55.164-3.821.311-.676.073-1.673.447-.357.393 2.816-.11 5.622-.275 8.437-.32a21.588 21.588 0 013.838.045c.65.11.714.275 1.18.759 1.307 1.389 2.668 2.742 3.92 4.177 1.253 1.435 2.331 2.742 3.501 4.14-3.848.11-7.705.311-11.534.777-.33 0-2.03.064-1.984.421.046.356 1.828 0 2.157 0 1.938-.183 3.885-.256 5.822-.32.988 0 1.975-.055 2.962-.064.804 0 2.248-.293 3.007 0 1.051.384 2.303 2.742 3.053 3.738a130.854 130.854 0 016.47 9.46c-2.495-.768-5.044-1.371-7.585-1.983a73.783 73.783 0 00-3.748-.814l-1.883-.338c-.347-.055-1.59-.466-1.883-.311-.603.32 1.755.667 1.984.713a82.63 82.63 0 013.903.859 167.47 167.47 0 016.964 1.892c.759.229 2.221.421 2.815.914.257.323.466.68.622 1.061l1.618 2.742a80.508 80.508 0 015.118 10.054A108.64 108.64 0 0085.347 287c-1.829-.622-3.657-1.143-5.485-1.655-.22-.055-1.517-.585-1.133 0 .265.421 2.24.695 2.742.85a97.126 97.126 0 0111.388 4.287c.914.402 1.764.813 2.633 1.225a3.1 3.1 0 011.206.74c.26.442.477.907.649 1.389.795 1.764 1.472 3.574 2.157 5.384a125.883 125.883 0 012.495 7.202c-2.815-1.179-5.64-2.294-8.536-3.263l-2.267-.74c-.393-.119-1.444-.695-1.828-.558-.53.201.347.476.43.512.767.302 1.553.539 2.33.814 2.86 1.014 5.658 2.175 8.427 3.418l1.079.493c.548.256.502.247.786.759.237.591.418 1.203.539 1.828a136.644 136.644 0 013.117 13.765c.128.777 1.115 8.436 1.298 8.418.758-.082-2.249-16.004-2.578-17.503-.183-.786-.365-1.572-.557-2.358a56.327 56.327 0 00-.293-1.179 2.162 2.162 0 01-.055-1.582 30.627 30.627 0 012.413-4.103c.896-1.56 1.761-3.132 2.596-4.717.393-.566 2.587-4.149 2.157-4.652z" fill="#A4D6C0"/><path d="M333.288 265.42a21.785 21.785 0 001.891-.393c.574-.11 1.142-.25 1.7-.421a11.156 11.156 0 002.742-1.197c1.463-.914 2.221-2.047 1.975-3.135-.293-1.307-1.399-2.029-3.144-2.175a11.527 11.527 0 00-3.062.219c-.585.11-1.189.256-1.828.43-.64.173-1.28.475-1.956.758a21.613 21.613 0 00-3.245 1.764 18.155 18.155 0 00-2.577 1.965 26.464 26.464 0 00-2.249 2.331c.865.168 1.743.257 2.623.265h3.071a31.393 31.393 0 004.059-.411z" fill="#AFDD44"/><path d="M270.907 313.734a7.522 7.522 0 004.816-.557 4.905 4.905 0 002.742-3.09c.448-1.627.183-2.824-.731-3.537-.914-.713-2.486-.914-4.634-.521a16.38 16.38 0 00-5.392 2.367 30.65 30.65 0 00-2.532 1.947 6.18 6.18 0 001.316 1.399 10.309 10.309 0 004.415 1.992zm13.986-12.586c2.402.428 4.867.353 7.238-.219 1.975-.475 3.346-1.408 3.784-2.678 1.024-3.035-2.056-4.863-8.536-4.397-.695.055-1.399.147-2.112.275-.694.137-1.371.329-2.047.53a38.003 38.003 0 00-3.747 1.362 22.09 22.09 0 00-2.742 1.288l-1.024.594a9.924 9.924 0 002.175 1.289c.919.412 1.866.757 2.834 1.033 1.37.399 2.766.707 4.177.923zm10.28-10.803c1.992.584 4.083.749 6.142.485 1.737-.229 2.998-.914 3.501-1.929 1.188-2.468-1.289-4.259-6.801-4.469h-1.828c-.598.053-1.193.138-1.782.256a30.656 30.656 0 00-3.272.786c-.987.283-1.828.566-2.422.786-.314.1-.62.226-.914.374a7.713 7.713 0 001.682 1.298 21.283 21.283 0 005.694 2.413zm11.811-8.126a10.791 10.791 0 004.853 1.828c1.462.137 2.696-.128 3.373-.914 1.608-1.892 0-4.058-4.324-5.484a13.542 13.542 0 00-2.961-.612 22.946 22.946 0 00-2.824-.073 26.77 26.77 0 00-2.98.237c.248.576.574 1.114.969 1.6a15.931 15.931 0 003.894 3.418zm11.151-6.91c3.345 2.075 6.681 2.276 7.997.914 1.536-1.7 0-3.701-4.341-5.127a20.63 20.63 0 00-5.631-.631c-.84 0-1.572.046-2.083.082-.512.037-.823.092-.823.092.265.524.601 1.01.996 1.444a16.538 16.538 0 003.885 3.226zm-61.349 30.409a8.894 8.894 0 01-.475-5.822 6.593 6.593 0 013.034-4.095c3.437-1.91 5.128.402 4.936 5.411a16.725 16.725 0 01-.494 3.3 39.044 39.044 0 01-.813 3.18c-.576 1.911-1.152 3.263-1.152 3.263a6.646 6.646 0 01-1.773-.996 10.524 10.524 0 01-3.263-4.241zm12.477-16.954a16.824 16.824 0 011.499-7.98 8.728 8.728 0 011.828-2.742 5.082 5.082 0 012.248-1.361c3.72-.914 4.287 2.943 2.486 9.514a43.381 43.381 0 01-3.071 8.089c-1.005 2.303-1.828 3.857-1.828 3.857a8.812 8.812 0 01-1.371-2.129 19.766 19.766 0 01-1.791-7.248zm13.745-10.146c.311-4.936 3.062-9.241 5.758-9.515 3.181-.411 3.327 2.852 1.234 8.226a32.935 32.935 0 01-3.345 6.398c-.567.914-1.024 1.673-1.38 2.203l-.576.841a7.524 7.524 0 01-.914-1.938 16.594 16.594 0 01-.777-6.215zm13.49-9.085c-.137-4.077 2.084-7.687 4.57-8.08 2.998-.43 3.492 2.239 1.956 6.754a25.18 25.18 0 01-2.687 5.484c-.466.75-.914 1.38-1.206 1.828l-.494.722a6.32 6.32 0 01-.987-1.581 12.787 12.787 0 01-1.152-5.127zm13.426-6.106c.85-3.911 3.656-6.836 5.886-6.818 1.353.064 1.984.768 1.965 1.938a6.198 6.198 0 01-.493 2.093 18.47 18.47 0 01-1.344 2.787 25.654 25.654 0 01-3.656 4.653c-1.133 1.307-2.029 2.166-2.029 2.166a6.504 6.504 0 01-.512-1.691 13.72 13.72 0 01.183-5.128zm23.364 1.993c.667-.1 1.288-.246 1.891-.393.574-.11 1.142-.25 1.7-.42a11.197 11.197 0 002.742-1.198c1.463-.914 2.221-2.047 1.975-3.135l-6.225 1.499c-1.051.22-2.065.558-3.043.86l-2.797.859-2.44.74-1.874.704-1.682.631c.865.167 1.743.256 2.623.265h3.071a31.395 31.395 0 004.059-.412z" fill="#8EB438"/><path opacity=".7" d="M270.909 313.734a7.522 7.522 0 004.816-.557 4.905 4.905 0 002.742-3.09c-2.211 0-5.676 0-8.509.156-2.833.155-5.018.32-4.78.1a6.18 6.18 0 001.316 1.399 10.309 10.309 0 004.415 1.992zm13.982-12.586c2.403.428 4.867.353 7.239-.219 1.974-.476 3.345-1.408 3.784-2.678a37.706 37.706 0 00-5.246-.722c-1.051-.083-2.203-.183-3.318-.192-1.115-.01-2.248 0-3.345 0-2.203.045-4.287.155-5.822.265l-2.441.274c.668.52 1.399.953 2.176 1.289.918.411 1.865.756 2.833 1.032 1.358.407 2.741.724 4.14.951zm10.282-10.803c1.992.584 4.083.749 6.142.484 1.736-.228 2.998-.914 3.5-1.928-1.051-.284-2.614-.622-4.396-.914-.914-.156-1.828-.348-2.742-.457l-2.824-.311c-1.828-.192-3.61-.329-4.899-.421l-1.545-.091h-.557a7.762 7.762 0 001.681 1.298 21.288 21.288 0 005.64 2.34zm11.81-8.126a10.8 10.8 0 004.854 1.828c1.462.137 2.696-.128 3.373-.914l-3.986-1.947c-1.434-.694-2.897-1.325-4.241-1.937l-4.835-2.103c.248.576.574 1.114.969 1.6a15.957 15.957 0 003.866 3.473zm11.152-6.91c3.345 2.075 6.681 2.276 7.997.914-1.042-.484-2.376-1.179-3.747-1.764l-4.186-1.828-3.492-1.444-1.069-.429-.384-.137a6.54 6.54 0 00.996 1.444 16.552 16.552 0 003.885 3.244zm-61.349 30.409a8.894 8.894 0 01-.475-5.822 6.593 6.593 0 013.034-4.095c.165 2.514.366 4.662.64 6.563.274 1.901.613 3.491.914 4.762.549 2.541.914 3.829.914 3.829a6.631 6.631 0 01-1.773-.996 10.534 10.534 0 01-3.254-4.241zm12.477-16.955a16.822 16.822 0 011.499-7.979 8.717 8.717 0 011.828-2.742 5.084 5.084 0 012.248-1.362 86.883 86.883 0 01-.384 3.227c-.155 1.133-.329 2.294-.466 3.518-.302 2.432-.594 4.863-.868 7.02-.274 2.157-.402 4.131-.54 5.484l-.191 2.203a8.788 8.788 0 01-1.371-2.13 19.734 19.734 0 01-1.755-7.239zm13.745-10.145c.311-4.935 3.062-9.24 5.759-9.514-.384 1.425-.914 2.988-1.326 4.734-.411 1.746-.914 3.51-1.27 5.192-.357 1.681-.768 3.217-.997 4.57-.228 1.352-.402 2.467-.475 3.171a7.509 7.509 0 01-.914-1.938 16.591 16.591 0 01-.777-6.215zm13.49-9.085c-.137-4.077 2.084-7.687 4.57-8.08-.301 2.459-1.06 6.252-1.636 9.277a132.315 132.315 0 00-.695 3.857 4.344 4.344 0 00-.1 1.645 6.32 6.32 0 01-.987-1.581 12.795 12.795 0 01-1.152-5.118zm13.428-6.106c.85-3.911 3.656-6.836 5.886-6.818-1.106 2.66-2.522 6.042-3.656 8.756-.576 1.335-1.014 2.596-1.343 3.473l-.521 1.408a6.428 6.428 0 01-.512-1.691 13.717 13.717 0 01.146-5.128z" fill="#AFDD44"/><path d="M259.355 297.154c.101-.055.183 0 .201.064.606 4.945 1.503 9.85 2.687 14.688l3.455-4.689c.914-1.27 2.02-2.449 3.026-3.656 1.005-1.206 1.992-2.476 3.116-3.61.074-1.636.174-3.299.302-4.981s.247-3.409.485-5.064c.237-1.654.457-3.372.722-5.091.265-1.718.539-3.464.914-5.146a.332.332 0 01.228-.219c.101 0 .174 0 .155.128a127.771 127.771 0 00-2.056 19.569c1.828-1.91 3.565-3.876 5.484-5.64l2.87-2.742c.914-.914 1.992-1.718 2.989-2.586.96-5.64 2.294-11.209 3.994-16.672a.324.324 0 01.098-.128.325.325 0 01.149-.063c.109 0 .173.054.146.146-.411 1.307-.759 2.678-1.088 4.021-.329 1.344-.658 2.688-.959 4.022-.302 1.334-.595 2.623-.841 3.958-.247 1.334-.448 2.678-.649 4.003l1.27-1.079a132.674 132.674 0 0112.001-8.646.237.237 0 01-.095-.096.235.235 0 01-.024-.133c.146-1.16.293-2.358.475-3.509l.613-3.464c.439-2.322.914-4.68 1.471-7.056a.303.303 0 01.238-.202c.11 0 .192 0 .174.119a177.045 177.045 0 00-1.262 7.002c-.347 2.33-.703 4.57-.914 6.882.832-.576 1.728-1.069 2.605-1.581l2.642-1.536c.914-.502 1.755-1.042 2.659-1.508l2.742-1.371 1.207-3.226a56.132 56.132 0 011.307-3.218c.914-2.102 1.91-4.222 2.952-6.398a.316.316 0 01.265-.155c.11 0 .174.073.128.165a120.189 120.189 0 00-4.908 12.329l.283-.146a121.584 121.584 0 0127.466-9.643c.119 0 .238 0 .256.101.018.101-.064.174-.183.21a128.428 128.428 0 00-25.235 8.921c2.029.731 4.03 1.545 5.968 2.34 1.938.795 3.821 1.59 5.703 2.559a.12.12 0 01.056.1.117.117 0 01-.056.101.249.249 0 01-.265.064 31.464 31.464 0 00-2.988-1.28l-3.053-1.197c-2.057-.768-4.205-1.599-6.325-2.212l-1.069.549c-1.627.85-3.273 1.636-4.872 2.522l-4.735 2.742c2.151.829 4.248 1.688 6.289 2.578 1.023.448 2.02.914 3.034 1.352 1.015.439 2.011.997 3.007 1.499a.12.12 0 01.041.158.113.113 0 01-.041.043.232.232 0 01-.116.076.247.247 0 01-.14-.002 93.307 93.307 0 00-3.098-1.426c-1.033-.448-2.075-.859-3.135-1.28a185.985 185.985 0 00-6.508-2.422.205.205 0 01-.071-.042.22.22 0 01-.048-.068c-2.285 1.444-4.524 2.971-6.781 4.47-2.158 1.645-4.36 3.217-6.472 4.908 2.624.119 5.274.393 7.815.658 2.541.265 5.091.667 7.577 1.133a.118.118 0 01.085.066.116.116 0 01-.003.108.225.225 0 01-.237.128 228.7 228.7 0 00-3.949-.585c-1.334-.183-2.623-.256-3.966-.375-2.651-.201-5.484-.448-8.153-.429l-3.017 2.522c-.493.421-1.014.832-1.499 1.271l-1.425 1.343c-1.901 1.828-3.876 3.538-5.631 5.484 3.099-.319 6.289-.374 9.351-.393 1.544 0 3.016 0 4.57.055 1.553.055 3.052.165 4.57.284a.114.114 0 01.053.017c.016.01.029.023.039.039a.11.11 0 01.017.053.114.114 0 01-.009.055.221.221 0 01-.079.113.221.221 0 01-.131.043 190.224 190.224 0 00-4.707-.202c-1.591-.045-3.117 0-4.716.074-1.6.073-3.209.1-4.845.191-1.636.092-3.189.293-4.816.467-1.39 1.462-2.806 2.897-4.068 4.469-1.261 1.572-2.623 3.044-3.857 4.634l-1.937 2.568c2.285-.128 4.487-.246 6.727-.265 2.239-.018 4.487.064 6.681.165.082 0 .128.073.1.164a.206.206 0 01-.201.174c-2.266 0-4.57 0-6.937.055s-4.616.292-6.983.521a130.481 130.481 0 00-12.723 21.287c-.055.11-.164.174-.237.137-.073-.037-.101-.155-.046-.274a133.268 133.268 0 0110.968-19.441 172.96 172.96 0 01-1.426-7.531c-.21-1.28-.42-2.587-.594-3.885-.174-1.298-.292-2.586-.42-3.893a.317.317 0 01.062-.126.32.32 0 01.111-.085z" fill="#A4D6C0"/><path fill-rule="evenodd" clip-rule="evenodd" d="M267.195 130.751c1.828-5.63 5.484-5.63 7.266-4.04 1.782 1.59 1.828 4.762 0 7.943-1.271 2.385-4.57 4.762-7.266 6.352-2.742-1.59-5.987-3.967-7.258-6.352-1.828-3.181-1.828-6.398 0-7.943s5.448-1.59 7.258 4.04z" fill="#FD6141"/><path opacity=".5" fill-rule="evenodd" clip-rule="evenodd" d="M274.462 126.712c-1.554-1.353-4.424-1.554-6.398 1.919 1.773-2.541 5.109-3.592 6.398-.32a5.02 5.02 0 01-.235 4.63 5.017 5.017 0 01-3.933 2.454c-4.524.493-4.57-3.419-7.12-4.57-1.993-.85-3.272 1.736-2.852 3.427.198.751.48 1.478.841 2.166a26.326 26.326 0 005.978 4.57c2.742-1.59 5.995-3.966 7.266-6.352 1.874-3.162 1.874-6.334.055-7.924z" fill="#941759"/><path fill-rule="evenodd" clip-rule="evenodd" d="M272.27 132.141c1.828-5.631 5.484-5.631 7.266-4.04 1.783 1.59 1.828 4.762 0 7.942-1.27 2.386-4.57 4.762-7.266 6.353-2.742-1.591-5.987-3.967-7.266-6.353-1.828-3.18-1.828-6.398 0-7.942 1.828-1.545 5.447-1.591 7.266 4.04z" fill="#FD6141"/><path opacity=".5" fill-rule="evenodd" clip-rule="evenodd" d="M279.536 128.1c-1.553-1.353-4.423-1.554-6.398 1.92 1.774-2.541 5.11-3.592 6.398-.32a5.001 5.001 0 01-.235 4.629 5.008 5.008 0 01-3.932 2.454c-4.525.485-4.57-3.418-7.121-4.57-2.001-.85-3.272 1.737-2.851 3.419.195.752.477 1.479.841 2.166a25.97 25.97 0 005.977 4.57c2.742-1.591 5.996-3.967 7.267-6.353 1.864-3.153 1.864-6.324.054-7.915z" fill="#941759"/><path fill-rule="evenodd" clip-rule="evenodd" d="M272.27 266.288c1.828-5.63 5.484-5.63 7.266-4.04 1.783 1.591 1.828 4.762 0 7.943-1.27 2.385-4.57 4.762-7.266 6.352-2.742-1.59-5.987-3.967-7.266-6.352-1.828-3.181-1.828-6.352 0-7.943 1.828-1.59 5.447-1.59 7.266 4.04z" fill="#FD6141"/><path opacity=".5" fill-rule="evenodd" clip-rule="evenodd" d="M279.536 262.248c-1.553-1.353-4.423-1.554-6.398 1.92 1.774-2.541 5.11-3.592 6.398-.32a5.001 5.001 0 01-.235 4.629 5.008 5.008 0 01-3.932 2.454c-4.525.494-4.57-3.418-7.121-4.57-2.001-.85-3.272 1.746-2.851 3.428.198.751.48 1.478.841 2.166a26.198 26.198 0 005.977 4.57c2.742-1.59 5.996-3.967 7.267-6.352 1.864-3.163 1.864-6.334.054-7.925z" fill="#941759"/><path d="M264.608 58.545v280.479a6.916 6.916 0 01-1.951 4.932 6.928 6.928 0 01-4.867 2.106H100.719c-.512 0-.996 0-1.471-.055a13.92 13.92 0 01-1.737-.246c-4.57-.914-6.928-3.702-6.928-6.91l-.731-275.47c0-2.478 1.389-4.872 3.29-6.865l.457-.466c2.742-2.742 6.398-4.57 8.555-4.57h155.645a6.93 6.93 0 016.333 4.4c.333.848.494 1.754.476 2.665z" fill="#414950"/><path d="M272.27 339.18V58.39a6.883 6.883 0 00-6.883-6.882h-161.01a6.883 6.883 0 00-6.883 6.882v280.79a6.883 6.883 0 006.883 6.883h161.01a6.883 6.883 0 006.883-6.883z" fill="#76838F"/><path d="M263.539 67.164v257.282a4.396 4.396 0 01-4.277 4.396H110.115a4.007 4.007 0 01-1.974-.731 4.636 4.636 0 01-.64-.539 4.016 4.016 0 01-.914-1.398c-.055-.137-.1-.265-.146-.393a4.6 4.6 0 01-.183-.869V67.164a4.348 4.348 0 014.278-4.405h36.56l5.429 9.048a2.844 2.844 0 002.44 1.39h62.299a2.836 2.836 0 002.431-1.39l5.429-9.048h34.147a4.352 4.352 0 014.268 4.405z" fill="#AFDD44" stroke="#414950" stroke-width=".99" stroke-miterlimit="10"/><path opacity=".3" d="M131.758 128.192a56.434 56.434 0 01-25.528-14.515v67.911c0 33.169 36.807 53.176 64.593 35.061 28.718-18.719 60.58-33.553 92.716-46.459V69.65c-33.462 41.532-78.357 72.837-131.781 58.542z" fill="#fff"/><path d="M99.248 346.007a13.927 13.927 0 01-1.737-.247 9.126 9.126 0 01-2.742-1.828c-1.07-1.142-1.645-2.988-1.663-5.337V56.515l.457-.465v282.426c0 2.294.53 4.076 1.544 5.155a11.58 11.58 0 004.14 2.376zm87.26-276.932c3.402 0 6.16-2.844 6.16-6.353 0-3.508-2.758-6.352-6.16-6.352s-6.16 2.844-6.16 6.352c0 3.509 2.758 6.353 6.16 6.353z" fill="#fff"/><path d="M186.508 67.996c2.821 0 5.109-2.361 5.109-5.274s-2.288-5.274-5.109-5.274c-2.822 0-5.11 2.361-5.11 5.274s2.288 5.274 5.11 5.274z" fill="#3E2344"/><path d="M189.543 60.958c0 1.39-1.353 0-3.035 0-1.681 0-3.043 1.39-3.043 0a3.09 3.09 0 013.039-2.534 3.088 3.088 0 013.039 2.534z" fill="#E3E3E3"/><path d="M292.659 93.771H124.054a5.75 5.75 0 00-5.749 5.75v46.677a5.75 5.75 0 005.749 5.749h168.605a5.748 5.748 0 005.749-5.749V99.52a5.748 5.748 0 00-5.749-5.749z" fill="#A1ABAD" opacity=".5"/><path d="M288.794 90.27H123.716a7.513 7.513 0 00-7.513 7.513v43.15a7.513 7.513 0 007.513 7.513h165.078a7.513 7.513 0 007.513-7.513v-43.15a7.513 7.513 0 00-7.513-7.513z" fill="#fff"/><path d="M147.772 140.239c11.534 0 20.884-9.351 20.884-20.885 0-11.535-9.35-20.885-20.884-20.885-11.535 0-20.885 9.35-20.885 20.885 0 11.534 9.35 20.885 20.885 20.885z" fill="url(#paint2_linear_8141_48731)"/><path d="M158.513 133.027c3.181 4.616 5.411 15.712 6.489 21.689.731 4.049-4.405 5.548-6.297 1.883-2.322-4.479-5.1-13.363-7.038-19.523-1.261-4.003 3.546-8.829 6.846-4.049z" fill="url(#paint3_linear_8141_48731)"/><path d="M142.281 110.918a4.433 4.433 0 10-.001-8.865 4.433 4.433 0 00.001 8.865z" fill="#3E2344"/><path d="M146.95 127.37c-.548.292-9.862 1.745-12.33 6.087-1.252 2.203 7.084 27.228 7.084 27.228s2.157 3.318 12.732-.868c0 0 1.956-9.223 3.199-16.891.21-1.289-.804-3.546-.649-4.698.42-3.117 1.828-4.524 1.481-5.21-1.28-2.714-11.517-5.648-11.517-5.648z" fill="url(#paint4_linear_8141_48731)"/><path d="M147.332 106.548a9.89 9.89 0 012.641 6.106c0 3.464-.648 6.553.192 7.732.841 1.179 5.192 2.742 5.192 2.742s2.568-10.246.192-13.81c-2.377-3.565-8.217-2.77-8.217-2.77z" fill="#3E2344"/><path d="M151.813 120.478c.219 1.298.914 2.267 1.59 2.148.677-.119 1.006-1.261.786-2.559a3.252 3.252 0 00-.959-1.938c-.137-.128 0-.256.118-.137a3.391 3.391 0 011.015 2.047c.247 1.417-.165 2.633-.914 2.742-.749.11-1.554-.914-1.828-2.303a3.565 3.565 0 01.073-1.828l.165.11a3.58 3.58 0 00-.046 1.718z" fill="#fff"/><path d="M153.769 114.93c0 4.332-2.678 6.937-6.727 6.937-5.164 0-7.312-3.509-7.312-7.842 0-4.332 3.273-6.937 7.312-6.937 4.04 0 6.727 1.691 6.727 7.842z" fill="#3E2344"/><path d="M143.778 119.262s.704 7.851-.613 8.939c-1.892 1.572-2.595 1.444-2.55 2.541.11 2.742 4.973 5.484 7.312 5.338 2.651-.165 5.411-2.861 5.384-4.881 0-1.243-1.088-1.325-3.921-3.098-.777-.485-.146-8.281-.146-8.281l-5.466-.558z" fill="#FFB072"/><path d="M153.375 113.65c0-2.742-1.608-4.862-4.286-4.871-1.956 0-6.399.585-5.219 5.063a4.667 4.667 0 010 2.148c0-.082-.074-.164-.128-.256-.265-.484-1.161-1.663-2.103-1.014-.941.649-.521 2.742.357 3.555a1.724 1.724 0 001.38.393c.005.04.005.08 0 .119a6.077 6.077 0 005.667 4.963c2.55 0 4.095-.914 4.268-4.78.119-1.335.064-5.32.064-5.32z" fill="#FFB072"/><path d="M152.298 110.195c.722.677 1.472 3.556 1.472 3.556s4.021-7.586-3.656-8.436c-6.06-.667-8.044 2.623-7.842 5.484a17.055 17.055 0 002.074 5.95 7.326 7.326 0 00.476-2.322c.237-1.937 5.968-5.648 7.476-4.232z" fill="#3E2344"/><path d="M142.692 117.178l.741-.292a4.129 4.129 0 00-.293-.914c-.183-.293-.804-1.143-1.353-.676-.548.466-.246 1.937.357 2.422a.547.547 0 00.631.109l-.083-.649z" fill="#E57E55"/><path d="M141.968 110.543l2.221 1.426a.209.209 0 00.228.002.217.217 0 00.056-.057l.429-.613a.208.208 0 00-.027-.265l-2.258-1.462a.211.211 0 00-.283.064l-.402.649a.223.223 0 00-.024.134.227.227 0 00.06.122z" fill="#AFDD44"/><path d="M134.099 133.64c-3.181 4.615-5.411 15.711-6.489 21.68-.731 4.058 4.405 5.557 6.297 1.892 2.313-4.488 5.1-13.363 7.038-19.523 1.261-4.013-3.546-8.83-6.846-4.049z" fill="url(#paint5_linear_8141_48731)"/><path d="M137.043 111.411s.494-6.398 1.59-7.467l-.731 9.14-.859-1.673z" fill="#3E2344"/><path d="M141.541 119.711c0 1.316.539 2.385 1.206 2.385.667 0 1.206-1.069 1.206-2.385a3.24 3.24 0 00-.621-2.075c-.11-.146 0-.256.146-.11.465.631.697 1.402.658 2.185 0 1.435-.612 2.568-1.389 2.568s-1.389-1.133-1.389-2.568a3.543 3.543 0 01.384-1.828s.109.091.137.128a3.74 3.74 0 00-.338 1.7zm9.806-.521s-.85-.805-3.656-.512c.293 1.499 3.428 2.148 3.656.512z" fill="#fff"/><path d="M151.272 119.262a3.395 3.395 0 00-.813-.283 5.13 5.13 0 00-.914-.119 11.506 11.506 0 00-1.828.064l.183-.247a2.032 2.032 0 001.544 1.225c.356.096.732.096 1.088 0a1 1 0 00.74-.64zm.156-.055a1.12 1.12 0 01-.759 1.024 2.478 2.478 0 01-1.261.082 3.12 3.12 0 01-1.17-.484 1.77 1.77 0 01-.759-1.06.178.178 0 01-.004-.076.174.174 0 01.08-.125.178.178 0 01.07-.028 9.146 9.146 0 011.929 0c.31.038.616.105.914.201.346.063.671.207.95.421l.01.045z" fill="#E57E55"/><path d="M148.722 115.323c0 .256-.356.274-.758.237-.403-.036-.732-.109-.713-.365.018-.256.365-.43.777-.393.411.036.713.265.694.521zm3.731.283c0 .256-.357.275-.759.238-.402-.037-.731-.11-.713-.366.018-.255.366-.429.777-.393.411.037.713.293.695.521zm.84-1.033s-.914-.813-1.198-.804c-.283.009-1.206.375-1.307.238a2.072 2.072 0 01-.183-.421 7.36 7.36 0 011.627-.164c.451.281.818.679 1.061 1.151zm-6.984-.868a6.211 6.211 0 011.581-.411c.32.082 1.352.594 1.49.493.109-.113.204-.238.283-.374a10.922 10.922 0 00-1.828-.494 2.836 2.836 0 00-1.526.786z" fill="#3E2344"/><path opacity=".5" d="M150.359 117.809s-.914 0-.914-.292c0-.293 1.993-.539 2.103-.357.109.183-.768.53-1.189.649z" fill="#E57E55"/><path d="M150.523 113.897a4.84 4.84 0 00-.138 1.599c.138.421 1.006 1.381 1.024 1.582.018.201-.978.694-1.051.731-.073.036 1.417-.201 1.371-.667-.046-.466-1.152-1.627-1.188-1.828-.037-.201-.018-1.417-.018-1.417z" fill="#E57E55"/><path d="M281.224 106.786H177.156a2.204 2.204 0 01-2.203-2.202 2.202 2.202 0 012.203-2.203h104.068a2.202 2.202 0 012.203 2.203 2.202 2.202 0 01-2.203 2.202zm0 7.477H177.156a2.204 2.204 0 01-2.203-2.203 2.202 2.202 0 012.203-2.203h104.068c.584 0 1.144.232 1.557.646a2.2 2.2 0 01-1.557 3.76zm0 7.476H177.156a2.204 2.204 0 01-2.203-2.203 2.213 2.213 0 01.642-1.563 2.194 2.194 0 011.561-.649h104.068a2.19 2.19 0 011.561.649 2.213 2.213 0 01-.004 3.121 2.202 2.202 0 01-1.557.645zm-27.749 7.476h-76.319a2.208 2.208 0 01-1.561-.648 2.194 2.194 0 01-.642-1.563 2.202 2.202 0 012.203-2.203h76.319a2.202 2.202 0 012.203 2.203 2.205 2.205 0 01-2.203 2.211z" fill="#A1ABAD"/><path d="M292.659 161.214H124.054a5.75 5.75 0 00-5.749 5.749v46.678a5.748 5.748 0 005.749 5.749h168.605a5.748 5.748 0 005.749-5.749v-46.678a5.748 5.748 0 00-5.749-5.749z" fill="#A1ABAD" opacity=".5"/><path d="M288.794 157.714H123.716a7.513 7.513 0 00-7.513 7.513v43.15a7.513 7.513 0 007.513 7.513h165.078a7.513 7.513 0 007.513-7.513v-43.15a7.513 7.513 0 00-7.513-7.513z" fill="#fff"/><path d="M271.967 193.826h-2.971a.594.594 0 00-.594.594v8.756c0 .329.266.595.594.595h2.971a.594.594 0 00.594-.595v-8.756a.594.594 0 00-.594-.594z" fill="url(#paint6_linear_8141_48731)"/><path d="M280.569 203.771h-3.163s1.326 2.815 1.828 3.701c.741 1.216-.53 3.254-1.362 2.093l-4.414-5.484a1.097 1.097 0 01-.247-.694v-8.446a1.108 1.108 0 011.115-1.106h4.57c3.226 0 3.747 4.826 4.195 6.773a2.583 2.583 0 01-2.522 3.163z" fill="url(#paint7_linear_8141_48731)"/><path d="M147.772 207.683c11.534 0 20.884-9.351 20.884-20.885s-9.35-20.885-20.884-20.885c-11.535 0-20.885 9.351-20.885 20.885s9.35 20.885 20.885 20.885z" fill="url(#paint8_linear_8141_48731)"/><path d="M147.215 192.328c-.649.347-12.897 2.742-15.813 7.878-1.48 2.605-3.738 7.65-3.738 7.65s25.135 13.601 37.575-.082c0 0-1.646-5.621-4.415-8.774-2.349-2.66-13.609-6.672-13.609-6.672z" fill="#9EC93E"/><path d="M156.546 179.202c-.375-3.39-2.742-8.582-10.904-7.101h-.064c.199-.394.32-.822.356-1.262a11.618 11.618 0 00-4.186 3.199 3.435 3.435 0 00-.42-.85 10.566 10.566 0 00-1.289 4.982 3.646 3.646 0 00-.731-.54c-.265 2.386 1.033 5.667 2.614 7.888 2.815 3.3 4.862 3.656 4.862 3.656s2.441-1.316 4.269-2.541c1.828-1.224 5.859-4.04 5.493-7.431z" fill="#3E2344"/><path d="M144.699 184.915c-.185 2-.621 3.968-1.298 5.859a9.408 9.408 0 01-3.436 4.442c-1.298 1.087 3.363 3.957 9.14 5.603 0 0 6.709-3.784 3.848-5.567-2.212-1.361-3.199-1.215-2.514-4.798.594-3.117.914-4.853.914-4.853l-6.654-.686z" fill="#FFB072"/><path fill-rule="evenodd" clip-rule="evenodd" d="M144.802 185.217s-.256 2.193.676 3.126c.933.932 2.605 3.162 6.398 2.952 3.793-.21 3.117-7.998 3.117-7.998a16.103 16.103 0 000-5.356c-.539-2.413-5.584-3.656-9.697-2.495 0 0-1.18 1.06-.732 5.804a1.592 1.592 0 00-1.946-.247c-.914.466-1.006 1.572-.695 2.605.402 1.252 1.782 2.322 2.879 1.609z" fill="#FFB072"/><path d="M150.853 182.895c0 .265-.393.283-.85.247-.457-.037-.814-.11-.795-.375.018-.265.411-.457.868-.421.457.037.804.284.777.549zm4.156.347c0 .265-.402.284-.85.247-.448-.037-.813-.11-.795-.384.018-.274.411-.448.914-.411.503.036.749.256.731.548zm-7.154-1.626c.56-.158 1.127-.286 1.701-.384.695.105 1.399.138 2.102.1.116-.197.197-.414.237-.639-.853-.09-1.711-.12-2.568-.092a2.986 2.986 0 00-1.472 1.015z" fill="#3E2344"/><path opacity=".5" d="M152.672 185.51s-1.042 0-1.023-.311c.018-.311 2.221-.567 2.34-.375.118.192-.841.558-1.317.686z" fill="#E57E55"/><path d="M153 180.089a15.078 15.078 0 00-.293 2.989c.156.448 1.116 1.453 1.143 1.664.027.21-1.097.731-1.179.767-.082.037 1.59-.21 1.535-.703-.054-.494-1.288-1.71-1.325-1.947-.036-.238.119-2.77.119-2.77z" fill="#E57E55"/><path d="M155.543 181.561s-.558-.64-.841-.686c-.283-.046-1.627.055-1.7-.1a2.997 2.997 0 01-.064-.668c.704.04 1.404.138 2.093.293.308.31.49.724.512 1.161z" fill="#3E2344"/><path d="M144.383 184.76l-.448-1.134.768-.301s-.503-2.102-1.746-1.326c-1.024.64.146 3.19 1.426 2.761z" fill="#E57E55"/><path d="M145.376 183.443c.329-.21.859-2.001.293-3.72-.512-1.544.822-2.495 1.691-2.742 2.239-.74 2.669.805 5.301.54a19.759 19.759 0 005.63-1.563s-1.636-3.172-3.82-3.876c-2.185-.703-7.431-1.526-10.219.421-1.828 1.279-3.117 5.484-.704 7.568 1.106.932 1.207 3.765 1.828 3.372z" fill="#3E2344"/><path d="M281.224 174.349H177.156a2.204 2.204 0 01-2.203-2.202 2.202 2.202 0 012.203-2.203h104.068a2.202 2.202 0 012.203 2.203 2.202 2.202 0 01-2.203 2.202zm0 7.477H177.156a2.204 2.204 0 01-2.203-2.203 2.213 2.213 0 01.642-1.563 2.194 2.194 0 011.561-.649h104.068a2.19 2.19 0 011.561.649 2.213 2.213 0 01.642 1.563 2.203 2.203 0 01-2.203 2.203zm0 7.475H177.156a2.208 2.208 0 01-1.561-.648 2.194 2.194 0 01-.642-1.564 2.202 2.202 0 012.203-2.202h104.068a2.202 2.202 0 012.203 2.202 2.206 2.206 0 01-1.358 2.044 2.208 2.208 0 01-.845.168zm-27.749 7.468h-76.319a2.204 2.204 0 01-2.203-2.202 2.202 2.202 0 012.203-2.203h76.319a2.202 2.202 0 012.203 2.203 2.202 2.202 0 01-2.203 2.202z" fill="#A1ABAD"/><path d="M292.659 228.741H124.054a5.75 5.75 0 00-5.749 5.749v46.678a5.75 5.75 0 005.749 5.749h168.605a5.748 5.748 0 005.749-5.749V234.49a5.748 5.748 0 00-5.749-5.749z" fill="#A1ABAD" opacity=".5"/><path d="M288.794 225.241H123.716a7.513 7.513 0 00-7.513 7.513v43.15a7.513 7.513 0 007.513 7.513h165.078a7.513 7.513 0 007.513-7.513v-43.15a7.513 7.513 0 00-7.513-7.513z" fill="#fff"/><path d="M271.967 268.345h-2.971a.594.594 0 00-.594.594v8.756c0 .328.266.594.594.594h2.971a.594.594 0 00.594-.594v-8.756a.594.594 0 00-.594-.594z" fill="url(#paint9_linear_8141_48731)"/><path d="M269.108 131.1h-2.971a.594.594 0 00-.594.594v8.756c0 .328.266.594.594.594h2.971a.594.594 0 00.594-.594v-8.756a.594.594 0 00-.594-.594z" fill="url(#paint10_linear_8141_48731)"/><path d="M373.75 228.472h-8.115c-.897 0-1.623.709-1.623 1.584v23.343c0 .875.726 1.584 1.623 1.584h8.115c.897 0 1.624-.709 1.624-1.584v-23.343c0-.875-.727-1.584-1.624-1.584z" fill="url(#paint11_linear_8141_48731)"/><path d="M280.569 268.344h-3.163s1.326-2.824 1.828-3.711c.741-1.216-.53-3.245-1.361-2.093l-4.415 5.484a1.107 1.107 0 00-.247.704v8.436a1.113 1.113 0 001.179 1.133h4.57c3.227 0 3.748-4.835 4.196-6.782a2.587 2.587 0 00-.511-2.224 2.569 2.569 0 00-2.076-.947z" fill="url(#paint12_linear_8141_48731)"/><path d="M277.709 131.099h-3.162s1.325-2.825 1.828-3.711c.74-1.216-.53-3.245-1.362-2.093l-4.414 5.484a1.101 1.101 0 00-.247.704v8.436a1.113 1.113 0 001.179 1.133h4.57c3.226 0 3.747-4.835 4.195-6.782a2.573 2.573 0 00-1.438-2.94 2.582 2.582 0 00-1.149-.231z" fill="url(#paint13_linear_8141_48731)"/><path d="M396.116 227.663h-8.372s3.508-7.75 4.839-10.183c1.96-3.336-1.404-8.904-3.605-5.744l-11.688 15.05a3.112 3.112 0 00-.653 1.931v23.151c-.007.421.07.84.225 1.229.156.389.388.74.681 1.032a2.94 2.94 0 001.022.665 2.85 2.85 0 001.194.184h12.098c8.541 0 9.921-13.268 11.106-18.611a7.328 7.328 0 00.012-3.215 7.18 7.18 0 00-1.363-2.889 6.858 6.858 0 00-2.455-1.965 6.62 6.62 0 00-3.041-.635z" fill="url(#paint14_linear_8141_48731)"/><path d="M147.772 275.922c11.534 0 20.884-9.35 20.884-20.885 0-11.534-9.35-20.885-20.884-20.885-11.535 0-20.885 9.351-20.885 20.885 0 11.535 9.35 20.885 20.885 20.885z" fill="url(#paint15_linear_8141_48731)"/><path d="M157.318 266.05c2.989 4.333 5.073 14.752 6.087 20.355.695 3.812-4.131 5.219-5.904 1.782-2.176-4.213-4.79-12.558-6.618-18.334-1.179-3.766 3.336-8.29 6.435-3.803z" fill="#729523"/><path d="M146.467 260.74c-.521.274-9.268 1.627-11.58 5.704-1.179 2.074 6.644 25.592 6.644 25.592s2.03 3.116 11.956-.814c0 0 1.828-8.665 3.007-15.858.192-1.215-.759-3.336-.613-4.414.402-2.925 1.691-4.251 1.39-4.89-1.207-2.578-10.804-5.32-10.804-5.32z" fill="#8EB438"/><path d="M134.393 266.617c-2.989 4.332-5.082 14.752-6.096 20.364-.686 3.802 4.14 5.21 5.913 1.773 2.176-4.214 4.79-12.549 6.608-18.335 1.189-3.766-3.327-8.29-6.425-3.802z" fill="#8EB438"/><path d="M157.232 248.739c-1.882-5.164-7.75-10.968-13.234-8.226-7.486 3.821-7.998 19.953 8.856 16.791 6.517-1.18 5.082-6.636 4.378-8.565z" fill="#3B3D42"/><path d="M145.113 253.346a21.373 21.373 0 01-1.052 5.018 8.02 8.02 0 01-2.742 3.811c-1.051.914 4.196 6.508 8.866 7.915 0 0 3.382-4.122 1.828-6.398s-2.742-2.495-2.221-5.566c.485-2.678.768-4.159.768-4.159l-5.447-.621z" fill="#FFB072"/><path fill-rule="evenodd" clip-rule="evenodd" d="M145.114 253.346s.758 5.74 6.142 5.329c2.742-.201 4.085-5.749 3.034-7.148a16.219 16.219 0 000-5.091c-.484-2.294-5.017-3.5-8.701-2.376 0 0-1.06 1.014-.658 5.484a1.383 1.383 0 00-1.746-.238c-.813.448-.914 1.49-.621 2.486.329 1.216 1.563 2.24 2.55 1.554z" fill="#FFB072"/><path d="M153.156 255.009s-.85-.804-3.656-.511c.302 1.499 3.437 2.148 3.656.511z" fill="#fff"/><path d="M153.104 255.037a3.398 3.398 0 00-.813-.284 5.13 5.13 0 00-.914-.119 11.625 11.625 0 00-1.828.064l.173-.246a2.068 2.068 0 001.554 1.27c.356.096.732.096 1.088 0a1 1 0 00.74-.685zm.156-.055a1.138 1.138 0 01-.759 1.023 2.478 2.478 0 01-1.261.083 3.076 3.076 0 01-1.17-.485 1.77 1.77 0 01-.759-1.06.2.2 0 01.156-.228 8.92 8.92 0 011.919 0c.31.037.616.104.914.201.347.078.669.237.941.466h.019z" fill="#E57E55"/><path d="M150.543 251.143c0 .256-.356.274-.767.238-.412-.037-.731-.11-.704-.366.027-.256.366-.43.768-.393.402.037.722.256.703.521zm3.731.311c0 .256-.357.274-.768.238-.411-.037-.731-.11-.704-.357.028-.246.366-.438.768-.402.402.037.722.265.704.521z" fill="#3E2344"/><path d="M155.113 250.393s-.914-.813-1.197-.804c-.284.009-1.216.375-1.307.238a1.966 1.966 0 01-.183-.421 7.267 7.267 0 011.618-.164c.455.278.825.676 1.069 1.151zm-6.992-.868a6.384 6.384 0 011.59-.411c.32.082 1.344.594 1.481.494.114-.111.213-.237.293-.375a11.019 11.019 0 00-1.828-.494 2.914 2.914 0 00-1.536.786z" fill="#941759"/><path opacity=".5" d="M152.187 253.62s-.914 0-.914-.293c0-.292 1.993-.539 2.103-.356.109.183-.777.539-1.189.649z" fill="#E57E55"/><path d="M152.334 249.717a4.637 4.637 0 00-.128 1.6c.137.42 1.005 1.38 1.023 1.581.019.201-.977.695-1.051.731-.073.037 1.417-.201 1.371-.667-.045-.466-1.151-1.627-1.188-1.828-.036-.201-.027-1.417-.027-1.417zm-7.605 3.199l-.402-1.079.685-.283s-.439-2.002-1.563-1.261c-.914.585.137 3.025 1.28 2.623z" fill="#E57E55"/><path d="M144.896 253.492a.63.63 0 10.002-1.26.63.63 0 00-.002 1.26z" fill="#fff"/><path d="M144.693 249.224c-1.261-1.554-2.349-3.418-.246-5.585 1.179-1.215 2.349-2.467 6.635-1.224 4.287 1.243 3.565 4.798 3.565 4.798-.914-3.172-2.961-2.559-3.163-1.599-2.979-2.971-3.656 2.413-5.264 4.067.308.915.38 1.892.21 2.842-.521 2.87 0 3.565 1.289 3.501 0 0-2.294.64-1.974-2.075a7.607 7.607 0 00-1.052-4.725z" fill="#3B3D42"/><path d="M281.224 241.912H177.156a2.204 2.204 0 01-2.203-2.203 2.213 2.213 0 01.642-1.564 2.207 2.207 0 011.561-.648h104.068a2.207 2.207 0 012.038 1.366c.11.269.166.556.165.846a2.203 2.203 0 01-2.203 2.203zm0 7.477H177.156a2.209 2.209 0 01-2.038-1.366 2.213 2.213 0 01-.165-.846 2.204 2.204 0 012.203-2.203h104.068a2.202 2.202 0 012.203 2.203 2.213 2.213 0 01-.642 1.563 2.194 2.194 0 01-1.561.649zm3.484 3.069H180.64a2.203 2.203 0 000 4.406h104.068a2.203 2.203 0 100-4.406zm-31.233 11.874h-76.319a2.204 2.204 0 01-2.203-2.202 2.202 2.202 0 012.203-2.203h76.319a2.202 2.202 0 012.203 2.203 2.202 2.202 0 01-2.203 2.202z" fill="#A1ABAD"/><path d="M498.3 79.475H335.901a21.936 21.936 0 110-43.871H498.3a21.934 21.934 0 0121.936 21.935A21.935 21.935 0 01498.3 79.475z" fill="#590F36"/><path d="M500.421 75.244H333.808a19.844 19.844 0 01-19.843-19.852 19.852 19.852 0 0119.843-19.852h166.613a19.863 19.863 0 0119.852 19.852 19.853 19.853 0 01-19.852 19.852z" fill="url(#paint16_linear_8141_48731)"/><path d="M343.258 42.047l3.218 8.116a.82.82 0 00.722.53l8.719.549a.594.594 0 01.338 1.06l-6.727 5.566a.837.837 0 00-.274.85l2.185 8.446a.599.599 0 01-.228.648.592.592 0 01-.686 0l-7.376-4.679a.833.833 0 00-.914 0l-7.376 4.68a.596.596 0 01-.904-.289.591.591 0 01-.01-.36l2.166-8.464a.843.843 0 00-.274-.85l-6.727-5.566a.589.589 0 01.005-.938.593.593 0 01.333-.122l8.719-.549a.832.832 0 00.722-.53l3.218-8.116a.6.6 0 01.582-.415.606.606 0 01.569.433z" fill="#FFC533"/><path opacity=".3" d="M356.256 52.302a.596.596 0 00-.338-1.06l-1.937-.119a1.725 1.725 0 01-.101.165c-2.084 2.915-6.901 2.458-10.648 4.963-4.57 2.906-8.098.448-10.968-3.711-.658-.658-.411-1.115.219-1.48l-2.961.182a.594.594 0 00-.338 1.06l6.727 5.566a.836.836 0 01.274.85l-2.203 8.446a.591.591 0 00.227.648.599.599 0 00.687 0l7.376-4.679a.834.834 0 01.914 0l7.376 4.68a.597.597 0 00.687-.001.598.598 0 00.227-.648L349.31 58.7a.834.834 0 01.274-.85l6.672-5.548z" fill="#FF8F3F"/><path d="M381.466 42.047l3.217 8.116a.828.828 0 00.722.53l8.719.549a.602.602 0 01.348 1.06l-6.736 5.566a.845.845 0 00-.275.85l2.176 8.464a.61.61 0 01-.237.635.606.606 0 01-.677.014l-7.376-4.68a.833.833 0 00-.914 0l-7.367 4.68a.603.603 0 01-.914-.649l2.175-8.464a.834.834 0 00-.274-.85l-6.736-5.566a.6.6 0 01-.182-.646.61.61 0 01.529-.414l8.72-.548a.832.832 0 00.722-.53l3.217-8.117a.593.593 0 011.143 0z" fill="#FFC533"/><path opacity=".3" d="M394.47 52.302a.6.6 0 00.182-.646.604.604 0 00-.529-.414l-1.928-.119a1.725 1.725 0 01-.101.165c-2.084 2.915-6.901 2.458-10.648 4.963-4.57 2.906-8.098.448-11.014-3.711-.649-.658-.411-1.115.229-1.48l-2.962.182a.603.603 0 00-.347 1.06l6.736 5.566a.836.836 0 01.274.85l-2.175 8.446a.61.61 0 00.237.634.603.603 0 00.677.015l7.367-4.68a.834.834 0 01.914 0l7.376 4.68a.603.603 0 00.914-.65l-2.175-8.463a.843.843 0 01.274-.85l6.699-5.548z" fill="#FF8F3F"/><path d="M419.679 42.047l3.217 8.117a.831.831 0 00.722.53l8.72.548a.594.594 0 01.338 1.06l-6.727 5.566a.836.836 0 00-.274.85l2.166 8.464a.591.591 0 01-.227.648.599.599 0 01-.687.001l-7.376-4.68a.834.834 0 00-.914 0l-7.376 4.68a.597.597 0 01-.687 0 .599.599 0 01-.227-.649l2.166-8.464a.834.834 0 00-.274-.85l-6.727-5.566a.599.599 0 01-.199-.647.595.595 0 01.537-.413l8.72-.548a.822.822 0 00.722-.53l3.217-8.117a.604.604 0 011.17 0z" fill="#FFC533"/><path opacity=".3" d="M432.677 52.302a.59.59 0 00.198-.647.587.587 0 00-.536-.413l-1.938-.119a.81.81 0 01-.1.165c-2.084 2.915-6.892 2.458-10.639 4.963-4.57 2.906-8.098.448-10.968-3.711-.659-.658-.412-1.115.219-1.48l-2.961.182a.594.594 0 00-.339 1.06l6.727 5.566a.845.845 0 01.275.85l-2.212 8.446a.59.59 0 00.57.758.597.597 0 00.344-.11l7.376-4.679a.829.829 0 01.914 0l7.376 4.68a.592.592 0 00.903-.289.591.591 0 00.011-.36l-2.166-8.464a.843.843 0 01.274-.85l6.672-5.548z" fill="#FF8F3F"/><path d="M457.894 42.047l3.226 8.117a.84.84 0 00.732.53l8.71.548a.592.592 0 01.548.766.59.59 0 01-.201.294l-6.727 5.567a.843.843 0 00-.283.85l2.157 8.445a.599.599 0 01-.227.648.595.595 0 01-.687.001l-7.376-4.68a.833.833 0 00-.914 0l-7.376 4.68a.603.603 0 01-.914-.649l2.175-8.464a.834.834 0 00-.274-.85l-6.709-5.548a.608.608 0 01-.181-.646.602.602 0 01.529-.414l8.719-.548a.832.832 0 00.722-.53l3.218-8.117a.601.601 0 011.133 0z" fill="#FFB537"/><path opacity=".3" d="M470.888 52.302a.59.59 0 00.197-.651.59.59 0 00-.544-.41l-1.928-.118a1.725 1.725 0 01-.101.165c-2.084 2.915-6.901 2.458-10.648 4.963-4.57 2.906-8.098.448-11.014-3.711-.649-.658-.402-1.115.229-1.48l-2.962.182a.603.603 0 00-.347 1.06l6.736 5.566a.836.836 0 01.274.85l-2.175 8.446a.601.601 0 00.573.745.603.603 0 00.341-.096l7.376-4.68a.834.834 0 01.914 0l7.376 4.68a.593.593 0 00.914-.65l-2.239-8.445a.84.84 0 01.283-.85l6.745-5.566z" fill="#FFB537"/><path d="M496.099 42.048l3.217 8.116a.831.831 0 00.722.53l8.72.548a.602.602 0 01.347 1.06l-6.736 5.567a.836.836 0 00-.274.85l2.175 8.464a.601.601 0 01-.573.745.603.603 0 01-.341-.096l-7.376-4.68a.831.831 0 00-.914 0l-7.376 4.68a.592.592 0 01-.687-.001.598.598 0 01-.227-.648l2.175-8.464a.836.836 0 00-.283-.85l-6.727-5.566a.596.596 0 01-.197-.652.597.597 0 01.544-.409l8.711-.548a.845.845 0 00.731-.53l3.208-8.116a.604.604 0 011.161 0z" fill="#fff"/><path opacity=".3" d="M509.103 52.302a.6.6 0 00.182-.646.597.597 0 00-.529-.414l-1.937-.119a.554.554 0 01-.101.165c-2.084 2.915-6.892 2.458-10.639 4.963-4.57 2.906-8.098.448-10.968-3.711-.649-.658-.411-1.115.229-1.48l-2.962.182a.594.594 0 00-.347 1.06l6.727 5.566a.844.844 0 01.283.85l-2.221 8.446a.591.591 0 00.227.648.599.599 0 00.687 0l7.376-4.679a.834.834 0 01.914 0l7.376 4.68a.605.605 0 00.914-.65l-2.175-8.463a.834.834 0 01.274-.85l6.69-5.548z" fill="#fff"/><path d="M323.774 130.706h-4.935a.986.986 0 00-.987.987v14.56c0 .545.441.987.987.987h4.935a.987.987 0 00.987-.987v-14.56a.987.987 0 00-.987-.987z" fill="url(#paint17_linear_8141_48731)"/><path d="M338.077 130.705h-5.21s2.212-4.68 3.107-6.16c1.225-2.02-.914-5.402-2.266-3.483l-7.312 9.14a1.827 1.827 0 00-.412 1.161v14.03a1.829 1.829 0 001.828 1.828h7.651c5.365 0 6.233-8.034 6.973-11.261a4.29 4.29 0 00-.88-3.705 4.297 4.297 0 00-3.479-1.55z" fill="url(#paint18_linear_8141_48731)"/><g opacity=".3"><path opacity=".3" d="M317.852 146.262a.97.97 0 00.289.695.984.984 0 00.698.283h4.935a.973.973 0 00.698-.283.99.99 0 00.289-.695v-10.548a34.39 34.39 0 00-6.909 2.66v7.888z" fill="#941759"/><path opacity=".3" d="M334.934 137.542c-1.262-2.522-4.854-2.897-8.985-2.038v9.926a1.829 1.829 0 001.828 1.828h5.219c2.23-3.245 3.217-6.553 1.938-9.716z" fill="#3E2344"/></g><path d="M21.368 242.635h-4.936a.987.987 0 01-.987-.987v-14.56c0-.545.442-.987.987-.987h4.936c.545 0 .987.442.987.987v14.56a.987.987 0 01-.987.987z" fill="url(#paint19_linear_8141_48731)"/><path d="M35.67 226.103h-5.21s2.212-4.68 3.099-6.16c1.234-2.02-.914-5.402-2.258-3.483l-7.312 9.14a1.83 1.83 0 00-.41 1.161v14.03a1.829 1.829 0 001.827 1.828h7.65c5.366 0 6.234-8.034 6.974-11.26a4.295 4.295 0 00-4.36-5.256z" fill="url(#paint20_linear_8141_48731)"/><path opacity=".3" d="M15.445 241.657a.979.979 0 00.978.978h4.945a.983.983 0 00.987-.978v-10.511a34.206 34.206 0 00-6.91 2.66v7.851zm17.083-8.756c-1.262-2.523-4.854-2.898-8.985-2.038v9.926a1.827 1.827 0 001.828 1.828h5.256c2.193-3.208 3.18-6.517 1.9-9.716z" fill="#3E2344"/><path d="M420.83 172.722c-11.178-.11-38.114 6.398-40.106 6.892-.101-.055-5.338-2.304-6.398-2.386a34.62 34.62 0 00-4.269.283c-1.746.211-.685 1.828.466 2.103 1.636.429 2.322.356 2.943.694.323.169.629.368.914.594a24.216 24.216 0 01-5.941 1.161c-1.197 0-2.248 0-3.948-.1-.75 0-.969.914-.247 1.325a9.89 9.89 0 004.259.914c.741 0 1.499 0 2.203-.11a14.87 14.87 0 01-2.513.448c-1.161.091-2.231-.082-3.885-.073-.759 0-.859.841-.119 1.234.351.18.714.332 1.088.457a.677.677 0 00.174 1.188 7.814 7.814 0 001.7.466.736.736 0 00.457.585c3.19 1.472 10.849 1.161 12.988.567 6.324-.174 29.558-.96 40.855-3.135 8.592-1.609 8.098-13.025-.621-13.107z" fill="#FFB072"/><path d="M447.701 138.822c-5.639 3.903-15.017 18.28-21.132 26.506-3.509 4.716-11.05 6.444-13.801 6.928a.7.7 0 00-.506.393.703.703 0 00.022.64c1.764 3.199 2.513 9.058 1.188 13.82a1.004 1.004 0 001.051 1.288c7.467-.621 12.695-1.745 16.132-3.308 11.032-5.009 14.277-12.348 22.503-28.024 3.665-7.01 3.519-24.44-5.457-18.243z" fill="url(#paint21_linear_8141_48731)"/><path d="M512.003 353.959c0 2.294-26.241 4.15-58.615 4.15s-58.615-1.828-58.615-4.15c0-2.321 26.241-4.14 58.615-4.14s58.615 1.855 58.615 4.14z" fill="#000" opacity=".2"/><path d="M452.343 333.879l-.521 12.677c.224 1.179.385 2.369.485 3.565a35.163 35.163 0 01-.43 3.528c-1.115.822-4.652 1.106-6.398.603l-.338-.293a17.1 17.1 0 01-2.861.805c-2.559.621-10.163.813-11.297-.101 0 0-.978-3.784 2.175-4.57 7.879-2.002 9.022-4.113 9.57-6.544.686-3.053 1.453-10.685 1.453-10.685l8.162 1.015z" fill="#F4B998"/><path d="M440.69 346.538a4.51 4.51 0 013.281.914c1.124 1.106 2.002 2.038 3.656 1.691 4.323-.869 4.076-4.223 5.932-2.742l.073 8.765-23.919 1.243-.119-6.645 11.096-3.226z" fill="#333945"/><path d="M430.372 353.731s.329 1.133 7.851.713c7.523-.421 8.162-2.139 14.039-2.047l-.283 2.056-21.991 2.148.384-2.87z" fill="#EFEFEF"/><path d="M468.744 210.561c-4.698-11.928-19.304-12.887-22.256-.457-5.667 27.42.914 64.757-4.918 134.614a10.914 10.914 0 0010.776 1.215c3.647.448 23.179-118.143 16.398-135.372z" fill="url(#paint22_linear_8141_48731)"/><path d="M475.169 333.275l-.531 12.659s-.694 2.614-.776 3.51c-.083.896.146 3.555.146 3.555 1.042.914 4.57 1.481 6.398 1.125l.365-.265a15.29 15.29 0 002.742 1.041c2.496.823 10.054 1.646 11.27.823 0 0 1.28-3.656-1.828-4.744-7.687-2.641-8.656-4.844-9.003-7.312-.429-3.098-.567-10.767-.567-10.767l-8.216.375z" fill="#F4B998"/><path d="M485.742 346.848a4.568 4.568 0 00-3.354.639c-1.207 1.006-2.157 1.828-3.811 1.39-4.232-1.234-3.711-4.57-5.686-3.208l-.786 8.728 23.764 3.208.668-6.608-10.795-4.149z" fill="#333945"/><path d="M495.43 354.864s-.42 1.106-7.879.064c-7.458-1.042-7.97-2.806-13.828-3.19l.109 2.065 21.744 3.949-.146-2.888z" fill="#EFEFEF"/><path d="M491.618 208.396c-1.929-12.659-24.248-10.457-24.541 2.339-.475 19.313 6.773 135.199 6.773 135.199 4.615 2.395 5.219 1.929 10.602-.265 2.422-57.371 14.03-92.213 7.166-137.273z" fill="url(#paint23_linear_8141_48731)"/><path d="M443.141 217.532c.442 3.719 12.175 9.781 26.097 9.455 13.923-.326 24.18-3.601 23.749-7.32-1.418-12.003-13.752-25.983-27.629-25.662-13.877.321-23.658 11.3-22.217 23.527z" fill="#941759"/><path d="M498.219 143.547c-5.621-12.686-27.959-14.496-29.011-14.98 0 0-21.853 5.21-27.639 17.887-1.938 9.231 4.981 37.584.914 71.648.347 6.673 51.796 6.024 51.23-.639-3.346-36.177 8.281-65.415 4.506-73.916z" fill="url(#paint24_linear_8141_48731)"/><path d="M469.667 122.625s3.355.348 9.268-3.912c3.875-2.796 12.367-17.932.302-23.891-12.065-5.96-18.18 1.59-20.309 7.074-2.13 5.484 2.906 11.882 5.209 14.67 2.304 2.787 5.53 6.059 5.53 6.059z" fill="#3E2344"/><path d="M474.225 115.771a38.545 38.545 0 001.051 9.222c1.124 4.104 2.614 5.484 4.35 7.312 1.737 1.828-4.186 12.613-14.624 13.628-3.61-2.852-8.801-8.035-4.917-12.742 3.19-3.875 5.484-4.04 4.954-9.67-.42-4.899-.695-7.623-.695-7.623l9.881-.127z" fill="#FFB072"/><path fill-rule="evenodd" clip-rule="evenodd" d="M474.564 116.941s-.585 3.747-2.477 4.908c-1.892 1.161-5.557 4.195-11.415 2.111-7.833-2.742-1.243-14.624-1.243-14.624a29.03 29.03 0 012.44-8.884c1.938-3.775 10.429-3.701 16.333 0 0 0 1.362 2.267-1.508 9.945a2.48 2.48 0 013.162.429c1.207 1.161.86 3.035-.1 4.625-1.143 1.983-3.793 3.153-5.192 1.49z" fill="#FFB072"/><path d="M475.441 116.365l1.216-1.673-1.06-.822s1.736-3.291 3.336-1.463c1.307 1.49-1.682 5.219-3.492 3.958z" fill="#E57E55"/><path d="M474.483 113.778s-.439-3.656 1.233-6.298a3.651 3.651 0 00-1.371-5.337c-1.581-.622-7.147-1.061-9.295-1.408-9.249-1.48-3.363-9.551.384-9.78 3.747-.228 12.339.658 15.812 5.1 2.276 2.907 2.404 10.383-2.349 12.86-2.166 1.097-4.414 4.863-4.414 4.863z" fill="#3E2344"/><path d="M468.075 116.684a5.1 5.1 0 01-2.322.713c-.803.096-1.614.115-2.422.055a8.604 8.604 0 01-2.385-.53 3.067 3.067 0 01-1.828-1.618.07.07 0 01-.02-.05.07.07 0 01.02-.05.09.09 0 01.045-.013c.016 0 .032.005.046.013a3.145 3.145 0 001.828 1.398 8.799 8.799 0 002.294.448c.785.073 1.574.073 2.358 0 .393-.026.784-.075 1.17-.146a2.95 2.95 0 001.088-.357.081.081 0 01.051-.005.08.08 0 01.041.029.08.08 0 01.013.05.073.073 0 01-.023.045l.046.018z" fill="#E57E55"/><path opacity=".5" d="M462.106 114.034s1.655.393 1.746-.064c.092-.457-3.217-1.901-3.491-1.627-.275.274 1.069 1.28 1.745 1.691z" fill="#E57E55"/><path d="M463.705 107.124c-.018.98-.2 1.95-.539 2.87-.448.667-2.413 1.929-2.55 2.267-.138.338 1.38 1.691 1.489 1.773.11.082-2.385-1.033-2.084-1.828.302-.795 2.797-2.285 2.971-2.66.174-.375.713-2.422.713-2.422z" fill="#E57E55"/><path d="M470.899 109.208c0 .073-1.307-.731-1.956-.914-.649-.183-3.199-.457-3.345-.749a3.655 3.655 0 01-.073-1.161c1.45.124 2.887.372 4.296.74.314.253.573.57.759.928.185.359.294.753.319 1.156zm-2.816 1.316c-.174.585-.576.521-1.06.384-.485-.137-.914-.311-.722-.914a.936.936 0 01.448-.571.942.942 0 01.722-.087.953.953 0 01.571.449.948.948 0 01.087.721l-.046.018zm-8.673-3.647c0 .064.795-.356 1.262-.31.466.045 2.531.795 2.742.566.171-.341.306-.699.402-1.069a17.62 17.62 0 00-3.464-.594c-.54.146-.732.841-.942 1.407zm2.735 2.459c-.146.585-.494.457-.987.329-.494-.128-.914-.21-.805-.795a1.028 1.028 0 011.17-.823 1.013 1.013 0 01.622 1.289z" fill="#3E2344"/><path d="M476.101 127.406l.978 4.57s-.603 13.207-9.14 12.193c-9.78-1.152-3.354-16.142-3.354-16.142s-3.83-.137-7.705 5.256c-3.775 5.822-8.866 25.592 8.783 27.319 18.07 1.746 18.189-22.018 18.088-25.29.558-7.102-7.65-7.906-7.65-7.906z" fill="#AFDD44"/><path d="M479.307 138.822c1.005-.457-1.371 17.055-13.71 15.812-12.339-1.243-6.846-17.951-5.987-18.216.859-.265-2.742 13.957 6.16 14.569 8.409.567 13.071-11.955 13.537-12.165z" fill="#8EB438"/><path d="M451.658 148.912l12.605 18.28a2.126 2.126 0 002.102.914l21.936-3.601a1.514 1.514 0 011.56.71 1.516 1.516 0 01-.098 1.712l-13.527 17.649a2.132 2.132 0 00-.201 2.267l10.209 19.743a1.515 1.515 0 01-1.828 2.138l-20.958-7.403a2.116 2.116 0 00-2.221.512l-15.657 15.812a1.518 1.518 0 01-2.605-1.106l.567-22.219a2.098 2.098 0 00-1.17-1.956l-19.861-9.972a1.525 1.525 0 01.219-2.806l21.306-6.325a2.128 2.128 0 001-.64c.265-.305.438-.679.499-1.078l3.345-21.936a1.526 1.526 0 012.778-.695v0z" fill="#F7B614" stroke="#fff" stroke-width=".99" stroke-miterlimit="10"/><path opacity=".3" d="M489.754 166.937a1.521 1.521 0 00-.572-2.309 1.524 1.524 0 00-.891-.114l-4.862.796a2.719 2.719 0 01-.155.475c-3.501 8.418-15.703 10.054-23.572 18.362-9.707 9.844-19.825 5.74-29.431-2.925-1.984-1.243-1.645-2.522-.284-3.802l-7.257 2.166a1.528 1.528 0 00-.246 2.825l19.879 9.971a2.102 2.102 0 011.17 1.956l-.567 22.22a1.513 1.513 0 00.924 1.445 1.519 1.519 0 001.681-.339l15.63-15.804a2.115 2.115 0 012.221-.511l20.958 7.403a1.52 1.52 0 001.635-.453 1.518 1.518 0 00.193-1.686l-10.182-19.715a2.126 2.126 0 01-.226-1.162c.035-.401.183-.784.427-1.104l13.527-17.695z" fill="#fff"/><path d="M499.882 180.774c-12.184 5.539-34.193 17.586-34.193 17.586a11.787 11.787 0 00-4.689-.521 34.511 34.511 0 00-4.149 1.06c-1.673.521-.348 1.883.841 1.974 1.69.128 2.358-.064 3.025.155.279.092.551.205.813.339a7.207 7.207 0 01-1.727 1.069 1.26 1.26 0 00-.375.219 55.098 55.098 0 01-3.373 1.024c-1.285.276-2.585.48-3.893.612-.75.11-.786 1.07 0 1.353a9.832 9.832 0 004.36.165c.722-.147 1.462-.32 2.148-.503v.192c-.86.274-1.637.493-2.404.704-1.125.301-2.212.319-3.83.63-.749.146-.695.987.11 1.243a8.9 8.9 0 001.151.247c-.356.329-.246.914.393 1.133a7.874 7.874 0 001.746.147.767.767 0 00.558.493c2.076.454 4.229.436 6.297-.055a24.981 24.981 0 005.484-1.307s26.789-8.628 36.204-15.446c7.092-5.119 3.445-16.123-4.497-12.513z" fill="#FFB072"/><path d="M494.479 138.338c-9.844-8.153-11.781 8.966-9.012 16.36 2.505 6.7 11.69 15.337 11.626 22.96 0 2.349-2.824 4.415-5.484 5.977a.555.555 0 00-.1.914c2.952 3.008 4.89 8.409 5.21 12.339a1.448 1.448 0 001.195 1.317c.21.038.426.028.633-.028 10.309-2.824 15.647-10.227 16.36-12.723 3.354-11.571-9.387-37.976-20.428-47.116z" fill="url(#paint25_linear_8141_48731)"/><path d="M217.997 314.09H128.48a6.397 6.397 0 01-6.398-6.398v0a6.399 6.399 0 016.398-6.398h89.517a6.402 6.402 0 016.398 6.398v0a6.396 6.396 0 01-6.398 6.398v0z" fill="#fff" stroke="#fff" stroke-width="1.39" stroke-miterlimit="10"/><path d="M189.659 314.09h-61.238a6.399 6.399 0 01-6.398-6.398c0-1.696.675-3.324 1.874-4.524a6.403 6.403 0 014.524-1.874h61.238a6.4 6.4 0 016.398 6.398 6.396 6.396 0 01-6.398 6.398z" fill="url(#paint26_linear_8141_48731)"/><path d="M237.39 303.415c0 2.971-1.718 3.592-3.217 3.592s-3.208-.621-3.208-3.592c0-2.97 1.709-3.601 3.208-3.601s3.217.621 3.217 3.601zm-4.241 0c0 .832.192 1.828 1.024 1.828.832 0 1.005-1.005 1.005-1.828 0-.822-.164-1.755-1.005-1.755-.841 0-1.024.914-1.024 1.755zm10.219-3.181a.921.921 0 01-.11.302l-7.65 13.875a1.002 1.002 0 01-.914.603h-.914c-.302 0-.448-.128-.448-.284a.804.804 0 01.11-.319l7.641-13.875a1.02 1.02 0 01.368-.436 1.02 1.02 0 01.546-.167h.914c.301.009.457.137.457.301zm2.312 11.307c0 2.979-1.718 3.601-3.217 3.601s-3.208-.622-3.208-3.601c0-2.98 1.709-3.592 3.208-3.592s3.217.621 3.217 3.601v-.009zm-4.241 0c0 .84.192 1.828 1.024 1.828.832 0 1.005-1.006 1.005-1.828 0-.823-.173-1.755-1.005-1.755-.832 0-1.024.932-1.024 1.764v-.009z" fill="#fff"/><defs><linearGradient id="paint0_linear_8141_48731" x1="324.65" y1="108.487" x2="145.671" y2="-107.784" gradientUnits="userSpaceOnUse"><stop stop-color="#BFDE76"/><stop offset="1" stop-color="#E3FBAC"/></linearGradient><linearGradient id="paint1_linear_8141_48731" x1="36.273" y1="232.658" x2="87.86" y2="418.949" gradientUnits="userSpaceOnUse"><stop stop-color="#A0CA3F"/><stop offset="1" stop-color="#7B9C30"/></linearGradient><linearGradient id="paint2_linear_8141_48731" x1="159.268" y1="119.545" x2="126.887" y2="98.469" gradientUnits="userSpaceOnUse"><stop stop-color="#BFDE76"/><stop offset="1" stop-color="#E3FBAC"/></linearGradient><linearGradient id="paint3_linear_8141_48731" x1="165.073" y1="158.686" x2="143.16" y2="147.898" gradientUnits="userSpaceOnUse"><stop offset="0" stop-color="#8A1050"/><stop offset="1" stop-color="#B53378"/></linearGradient><linearGradient id="paint4_linear_8141_48731" x1="158.521" y1="161.932" x2="126.123" y2="139.408" gradientUnits="userSpaceOnUse"><stop offset="0" stop-color="#8A1050"/><stop offset="1" stop-color="#B53378"/></linearGradient><linearGradient id="paint5_linear_8141_48731" x1="141.151" y1="159.298" x2="119.238" y2="148.51" gradientUnits="userSpaceOnUse"><stop offset="0" stop-color="#8A1050"/><stop offset="1" stop-color="#B53378"/></linearGradient><linearGradient id="paint6_linear_8141_48731" x1="272.561" y1="203.771" x2="265.482" y2="200.81" gradientUnits="userSpaceOnUse"><stop offset="0" stop-color="#8A1050"/><stop offset="1" stop-color="#B53378"/></linearGradient><linearGradient id="paint7_linear_8141_48731" x1="283.156" y1="209.911" x2="268.771" y2="201.011" gradientUnits="userSpaceOnUse"><stop offset="0" stop-color="#8A1050"/><stop offset="1" stop-color="#B53378"/></linearGradient><linearGradient id="paint8_linear_8141_48731" x1="159.268" y1="186.99" x2="126.887" y2="165.913" gradientUnits="userSpaceOnUse"><stop stop-color="#BFDE76"/><stop offset="1" stop-color="#E3FBAC"/></linearGradient><linearGradient id="paint9_linear_8141_48731" x1="272.561" y1="278.289" x2="265.482" y2="275.329" gradientUnits="userSpaceOnUse"><stop offset="0" stop-color="#8A1050"/><stop offset="1" stop-color="#B53378"/></linearGradient><linearGradient id="paint10_linear_8141_48731" x1="269.702" y1="141.044" x2="262.622" y2="138.084" gradientUnits="userSpaceOnUse"><stop offset="0" stop-color="#8A1050"/><stop offset="1" stop-color="#B53378"/></linearGradient><linearGradient id="paint11_linear_8141_48731" x1="375.374" y1="254.983" x2="356.176" y2="246.756" gradientUnits="userSpaceOnUse"><stop offset="0" stop-color="#8A1050"/><stop offset="1" stop-color="#B53378"/></linearGradient><linearGradient id="paint12_linear_8141_48731" x1="283.225" y1="278.299" x2="268.783" y2="269.317" gradientUnits="userSpaceOnUse"><stop offset="0" stop-color="#8A1050"/><stop offset="1" stop-color="#B53378"/></linearGradient><linearGradient id="paint13_linear_8141_48731" x1="280.366" y1="141.054" x2="265.924" y2="132.072" gradientUnits="userSpaceOnUse"><stop offset="0" stop-color="#8A1050"/><stop offset="1" stop-color="#B53378"/></linearGradient><linearGradient id="paint14_linear_8141_48731" x1="403.148" y1="254.983" x2="364.161" y2="231.591" gradientUnits="userSpaceOnUse"><stop offset="0" stop-color="#8A1050"/><stop offset="1" stop-color="#B53378"/></linearGradient><linearGradient id="paint15_linear_8141_48731" x1="159.268" y1="255.229" x2="126.887" y2="234.152" gradientUnits="userSpaceOnUse"><stop stop-color="#BFDE76"/><stop offset="1" stop-color="#E3FBAC"/></linearGradient><linearGradient id="paint16_linear_8141_48731" x1="520.273" y1="75.244" x2="505.537" y2="-1.329" gradientUnits="userSpaceOnUse"><stop offset="0" stop-color="#8A1050"/><stop offset="1" stop-color="#B53378"/></linearGradient><linearGradient id="paint17_linear_8141_48731" x1="324.761" y1="147.24" x2="312.996" y2="142.323" gradientUnits="userSpaceOnUse"><stop offset="0" stop-color="#8A1050"/><stop offset="1" stop-color="#B53378"/></linearGradient><linearGradient id="paint18_linear_8141_48731" x1="342.546" y1="147.221" x2="318.612" y2="132.391" gradientUnits="userSpaceOnUse"><stop offset="0" stop-color="#8A1050"/><stop offset="1" stop-color="#B53378"/></linearGradient><linearGradient id="paint19_linear_8141_48731" x1="22.355" y1="226.101" x2="10.59" y2="231.018" gradientUnits="userSpaceOnUse"><stop offset="0" stop-color="#8A1050"/><stop offset="1" stop-color="#B53378"/></linearGradient><linearGradient id="paint20_linear_8141_48731" x1="40.139" y1="215.891" x2="16.206" y2="230.721" gradientUnits="userSpaceOnUse"><stop offset="0" stop-color="#8A1050"/><stop offset="1" stop-color="#B53378"/></linearGradient><linearGradient id="paint21_linear_8141_48731" x1="412.195" y1="137.513" x2="462.411" y2="180.156" gradientUnits="userSpaceOnUse"><stop stop-color="#8BB133"/><stop offset="1" stop-color="#62801F"/></linearGradient><linearGradient id="paint22_linear_8141_48731" x1="470.163" y1="346.828" x2="415.1" y2="336.018" gradientUnits="userSpaceOnUse"><stop offset="0" stop-color="#8A1050"/><stop offset="1" stop-color="#B53378"/></linearGradient><linearGradient id="paint23_linear_8141_48731" x1="493.761" y1="347.533" x2="442.042" y2="338.175" gradientUnits="userSpaceOnUse"><stop offset="0" stop-color="#8A1050"/><stop offset="1" stop-color="#B53378"/></linearGradient><linearGradient id="paint24_linear_8141_48731" x1="441.219" y1="128.567" x2="525.19" y2="180.043" gradientUnits="userSpaceOnUse"><stop stop-color="#8BB133"/><stop offset="1" stop-color="#62801F"/></linearGradient><linearGradient id="paint25_linear_8141_48731" x1="484.316" y1="136.186" x2="534.061" y2="161.152" gradientUnits="userSpaceOnUse"><stop stop-color="#8BB133"/><stop offset="1" stop-color="#62801F"/></linearGradient><linearGradient id="paint26_linear_8141_48731" x1="196.057" y1="314.09" x2="191.762" y2="289.241" gradientUnits="userSpaceOnUse"><stop offset="0" stop-color="#8A1050"/><stop offset="1" stop-color="#B53378"/></linearGradient></defs></svg>