<svg width="575" height="350" fill="none" xmlns="http://www.w3.org/2000/svg"><path fill-rule="evenodd" clip-rule="evenodd" d="M62.28 71.857c38.381-30.23 100.297-31.85 154.204-44.742C263.796 15.8 308.768-5.175 357.853 1.171c49.839 6.445 87.511 33.772 122.718 60.092 36.477 27.268 70.496 56.639 82.745 93.507 13.46 40.512 21.393 87.329-11.271 121.613-32.18 33.777-97.802 35.891-151.479 49.21-48.099 11.935-94.126 25.375-144.983 24.351-60.318-1.214-124.946-2.891-171.453-30.721C34.552 289.556 4.544 243.668.445 197.268c-4.012-45.422 19.288-91.901 61.834-125.411z" fill="#E1F2BA" fill-opacity=".2"/><path d="M292.244 257.32c3.859-1.192 8.514-.274 12.099 1.892 5.014 3.047 8.515 7.956 12.488 12.299 3.973 4.342 8.883 8.41 14.729 8.76 5.487.322 10.634-2.706 14.815-6.272 10.719-9.129 18.599-22.894 32.165-26.536a14.176 14.176 0 016.689-.388 14.685 14.685 0 017.208 4.522c6.793 7.133 9.744 17.719 17.795 23.376 6.546 4.607 15.572 4.901 22.865 1.637 6.254-2.838 11.182-7.833 16.49-12.166 5.307-4.333 11.645-8.183 18.485-7.843 4.891.237 9.375 2.583 13.982 4.257 4.607 1.675 9.943 2.64 14.191.256 6.688-3.737 8.448-12.355 7.984-20.018-2.232-9.233-6.622-18.542-15.344-21.872-9.461-3.623-20.633 1.353-30.122-2.261-14.19-5.402-16.395-26.044-29.506-33.735a20.64 20.64 0 00-21.248.51c-11.892 7.767-13.547 26.272-26.092 32.922-6.187 3.283-13.575 2.838-20.557 3.236-6.981.397-14.758 2.336-18.343 8.343-2.952 4.939-2.195 11.116-2.11 16.859.085 5.742-1.201 12.402-6.272 15.136-6.234 3.33-13.462-1.353-19.867-4.238-7.227-3.236-16.47-3.955-22.439 1.258l-.085.066z" fill="#F1D39F"/><g style="mix-blend-mode:multiply" opacity=".2" fill="#3B3D42"><path d="M179.43 206.348l20.088 32.87c3.269 5.35 1.583 12.337-3.767 15.607l-57.999 35.444c-5.35 3.269-12.337 1.583-15.607-3.767l-20.087-32.87c-3.27-5.35-1.583-12.337 3.767-15.607l57.999-35.444c5.35-3.269 12.337-1.583 15.606 3.767z" opacity=".2"/><path d="M183.636 203.785l20.088 32.871c3.269 5.349 1.583 12.337-3.767 15.606l-57.999 35.444c-5.35 3.27-12.337 1.583-15.606-3.766l-20.088-32.871c-3.269-5.349-1.583-12.337 3.767-15.606l57.999-35.444c5.35-3.27 12.337-1.583 15.606 3.766z" opacity=".2"/><path d="M158.646 218.041l20.964 34.293-41.123 1.58 20.159-35.873z" opacity=".2"/></g><path d="M176.588 203.514l20.088 32.871c3.269 5.349 1.583 12.337-3.767 15.606l-57.999 35.444c-5.35 3.27-12.337 1.583-15.606-3.766l-20.088-32.871c-3.27-5.349-1.583-12.337 3.767-15.606l57.999-35.444c5.35-3.27 12.337-1.583 15.606 3.766z" fill="#721245"/><path d="M182.485 202.205l20.032 32.744c3.26 5.329 1.583 12.293-3.747 15.553l-57.776 35.345c-5.329 3.261-12.292 1.583-15.552-3.746l-20.032-32.744c-3.26-5.329-1.583-12.292 3.746-15.553l57.777-35.345c5.329-3.26 12.292-1.583 15.552 3.746z" fill="url(#paint0_linear_5115_42829)"/><path d="M155.808 215.203l20.964 34.293-41.123 1.58 20.159-35.873z" fill="#F9E6D9"/><path d="M356.111 294.887c1.475-11.618-5.875-23.774-16.849-27.861-8.808-3.283-20.065-2.289-25.912-9.649-2.914-3.671-3.633-8.515-4.522-13.16a55.297 55.297 0 00-.69-3.14c.463 7.662-1.296 16.281-7.985 20.018-4.276 2.384-9.621 1.419-14.19-.256-4.57-1.674-9.092-4.02-13.983-4.257-6.839-.341-13.168 3.51-18.485 7.843-5.317 4.332-10.236 9.365-16.489 12.165-7.294 3.264-16.319 2.971-22.866-1.636-8.05-5.676-11.002-16.243-17.794-23.376a14.677 14.677 0 00-7.209-4.522 14.184 14.184 0 00-6.688.387c-13.576 3.643-21.456 17.407-32.165 26.536-4.182 3.567-9.328 6.623-14.815 6.273-5.847-.35-10.785-4.418-14.73-8.761-3.945-4.342-7.473-9.261-12.487-12.298-3.567-2.166-8.24-3.084-12.1-1.892-6.263 5.553-7.417 16.262-15.136 19.545-6.698 2.838-14.295-1.75-21.541-1.041-9.3.946-15.373 10.113-18.22 19.129l314.856-.047z" fill="#F7BB54"/><path d="M464.146 263.78V148.848s-.86 5.316-4.569 5.316c-3.708 0-4.56-5.316-4.56-5.316V263.78h9.129z" fill="#C62C7D"/><path d="M486.17 263.78V148.848s-.861 4.654-3.898 4.654c-3.036 0-3.888-4.654-3.888-4.654V263.78h7.786z" fill="#6B1040"/><path d="M478.385 263.78V148.848s-1.552 5.912-7.124 5.912c-5.572 0-7.114-5.912-7.114-5.912V263.78h14.238z" fill="#941759"/><path d="M486.17 148.848l-9.356-24.947c-3.321 7.303-12.961 3.67-12.961 3.67l-8.836 21.277s.871 5.316 4.56 5.316c3.69 0 4.569-5.316 4.569-5.316s1.552 5.912 7.115 5.912c5.562 0 7.123-5.912 7.123-5.912s.861 4.654 3.888 4.654c3.028 0 3.898-4.654 3.898-4.654z" fill="url(#paint1_linear_5115_42829)"/><path d="M476.814 123.901l-.633-1.703a3.269 3.269 0 00-1.703-1.826l-3.349-1.514a3.26 3.26 0 00-3.626.639 3.274 3.274 0 00-.726 1.074l-2.914 7.01s9.631 3.623 12.951-3.68z" fill="#3B3D42"/><path d="M552.279 294.953c1.475-11.618-5.875-23.774-16.849-27.861-8.808-3.283-20.065-2.289-25.912-9.649-2.914-3.671-3.633-8.515-4.522-13.16a55.297 55.297 0 00-.69-3.14c.463 7.662-1.296 16.281-7.985 20.017-4.276 2.384-9.621 1.42-14.19-.255-4.57-1.674-9.092-4.021-13.983-4.257-6.839-.341-13.168 3.51-18.485 7.843-5.317 4.332-10.236 9.365-16.489 12.165-7.294 3.264-16.319 2.971-22.866-1.636-8.05-5.676-11.002-16.243-17.794-23.377a14.69 14.69 0 00-7.209-4.522 14.197 14.197 0 00-6.688.388c-13.576 3.643-21.456 17.407-32.165 26.536-4.182 3.567-9.328 6.623-14.815 6.273-5.847-.351-10.785-4.418-14.73-8.761-3.945-4.342-7.473-9.261-12.487-12.298-3.567-2.166-8.24-3.084-12.1-1.892-6.263 5.553-7.417 16.262-15.136 19.545-6.698 2.838-14.295-1.75-21.541-1.041-9.3.946-15.373 10.113-18.221 19.129l314.857-.047z" fill="#F7BB54"/><path d="M108.667 27.464h132.141c6.27 0 11.352 5.083 11.352 11.352v11.882c0 6.27-5.082 11.353-11.352 11.353H108.667c-6.27 0-11.352-5.083-11.352-11.353V38.816c0-6.27 5.082-11.352 11.352-11.352z" fill="#3B3D42" opacity=".2"/><path d="M236.126 24.627H103.985c-6.27 0-11.352 5.082-11.352 11.352V47.86c0 6.27 5.082 11.352 11.352 11.352h132.141c6.27 0 11.352-5.082 11.352-11.352V35.979c0-6.27-5.082-11.352-11.352-11.352z" fill="url(#paint2_linear_5115_42829)"/><path d="M113.152 29.261l3.415 6.925 7.634 1.107-5.524 5.392 1.305 7.606-6.83-3.594-6.83 3.594 1.296-7.606-5.525-5.392 7.644-1.107 3.415-6.925zm24.976 0l3.415 6.925 7.644 1.107-5.525 5.392 1.305 7.606-6.839-3.594-6.831 3.594 1.306-7.606-5.525-5.392 7.635-1.107 3.415-6.925z" fill="#FBD26D"/><path d="M168.797 42.467l1.306 7.606-6.831-3.595 3.416-10.51 7.644 1.107-5.535 5.392z" fill="#F7B614"/><path d="M166.687 35.968l-3.415 10.51-6.83 3.596 1.305-7.606-5.524-5.393 7.634-1.107 3.415-6.925 3.415 6.925z" fill="#FBD26D"/><path d="M188.257 29.044l3.415 6.924 7.635 1.107-5.525 5.393 1.306 7.606-6.831-3.595-6.83 3.595 1.305-7.606-5.534-5.393 7.644-1.107 3.415-6.925zm41.294-15.166l3.321 17.672 16.451 7.285-15.789 8.627-1.845 17.89-13.074-12.346-17.586 3.775 7.7-16.253-9.025-15.562 17.833 2.299 12.014-13.387z" fill="#F7B614"/><path d="M461.828 191.476s16.66 17.634 2.176 33.783c0 0 10.86 19.27-8.457 33.224 0 0 3.67 31.474-24.379 36.29H294.542l14.437-91.879s4.21-20.613 19.98-33.498c15.77-12.885 31.484-48.957 30.14-72.674-1.343-23.717 53.451-18.618 38.485 28.097-14.967 46.715-9.546 47.386 9.526 42.722 19.072-4.663 51.899-12.601 54.718 23.935z" fill="url(#paint3_linear_5115_42829)"/><path d="M298.034 189.802h-56.761a11.351 11.351 0 00-11.352 11.353v93.656h79.466v-93.656a11.354 11.354 0 00-11.353-11.353z" fill="#AFDD44"/><path d="M247.224 287.838c-5.873 0-10.633-4.76-10.633-10.633 0-5.872 4.76-10.633 10.633-10.633 5.873 0 10.633 4.761 10.633 10.633 0 5.873-4.76 10.633-10.633 10.633z" fill="#F9E6D9"/><path d="M322.252 176.056s-8.94 71.065-92.342 84.328v-59.23s-.378-10.539 11.353-11.353h56.761s10.539-.17 11.353 11.353c.009 0 4.503-16.272 12.875-25.098z" fill="#3B3D42" opacity=".67"/><path d="M347.738 93.591a21.165 21.165 0 01-.114 17.738l.53.246a30.108 30.108 0 012.99-5.875c2.232-2.933 5.856-4.361 9.186-5.95 3.33-1.59 6.764-3.784 7.889-7.294 1.041-3.245-.208-6.783-1.892-9.754-1.684-2.97-3.784-5.733-4.796-9.006-2.677-8.959 4.077-19.138.246-27.671-2.129-4.73-7.048-7.616-11.967-9.3-4.92-1.684-10.151-2.497-14.853-4.73a26.94 26.94 0 01-10.236-8.58c-3.945-5.534-5.969-12.743-11.608-16.527-3.349-2.252-7.568-2.924-11.579-2.715a26.954 26.954 0 00-16.508 6.527 22.393 22.393 0 00-7.521 14.768 17.867 17.867 0 017.322-9.574 18.59 18.59 0 004.73 12.298 28.53 28.53 0 0011.353 7.654 13.325 13.325 0 005.78 1.125 3.632 3.632 0 013.226-1.703 3.68 3.68 0 013.159 2.233c.306.819.387 1.703.237 2.564a7.97 7.97 0 01-5.723 6.348c.104 4.37 4.313 7.918 8.637 9.09 4.569 1.24 9.413.701 14.114 1.306a29.01 29.01 0 0110.87 3.69 11.62 11.62 0 014.939 4.73c2.838 5.988-3.312 12.734-2.413 19.29.416 3.301 2.592 6.064 4.002 9.072z" fill="#3B3D42"/><path d="M306.841 46.535a15.72 15.72 0 006.272 16.924c2.753 1.798 5.989 2.659 9.139 3.567 3.15.908 6.092 1.892 8.599 3.784a10.175 10.175 0 013.832 6.934c1.069 8.902-.577 23.206-2.649 35.997 3.604 3.216 9.12 5.108 12.932 2.27a10.85 10.85 0 003.188-4.408l-.529-.246a21.177 21.177 0 00.113-17.738c-1.41-3.009-3.567-5.771-4.011-9.063-.899-6.556 5.222-13.302 2.412-19.29a11.617 11.617 0 00-4.938-4.73 29.013 29.013 0 00-10.87-3.69c-4.73-.605-9.545-.066-14.115-1.305-4.323-1.173-8.514-4.73-8.637-9.091-.243.047-.49.075-.738.085z" fill="#3B3D42"/><path d="M291.553 55.816l-2.082 12.658c1.278-.237 2.488-.445 3.482-.615 8.836-5.336 9.186-15.979 9.186-15.979l-10.586 3.936z" fill="#F79244"/><path d="M306.842 46.535a4.83 4.83 0 00.738-.151 7.972 7.972 0 005.724-6.348c.15-.86.068-1.746-.237-2.564a3.678 3.678 0 00-3.16-2.233 3.633 3.633 0 00-3.225 1.703 13.332 13.332 0 01-5.781-1.126 28.532 28.532 0 01-11.352-7.653 18.59 18.59 0 01-4.73-12.298 17.867 17.867 0 00-7.322 9.574c-1.24 3.557-1.798 8.23-.748 14.285 3.188 18.428 13.642 16.006 14.796 16.082l10.586-3.935s-.35 10.642-9.186 15.978a18.197 18.197 0 01-3.481 1.636c3.879 18.174 23.65-6.035 23.65-6.035a15.713 15.713 0 01-6.272-16.915z" fill="#F7BE86"/><path d="M139.744 290.289l29.308 6.045 11.788-20.85-6.045 20.85h6.045l17.151-47.225h-23.007l-14.086 25.164-21.154 16.016z" fill="#76838F"/><path d="M164.353 262.286l3.841 1.731 19.327 8.609 4.295 1.892 16.224-39.033 17.975-45.797 3.973-10.132s23.755 17.814 61.672 19.043c37.916 1.23 31.36-38.077 31.36-38.077l-41.748-13.566-3.784.473-1.457-5.676-3.784-1.022a6.947 6.947 0 01-2.573.255v6.433h-56.26c-1.646.729-7.663 14.077-14.673 30.794-12.298 29.393-34.388 84.073-34.388 84.073z" fill="#3B3D42"/><path d="M215.815 273.818l-7.748 24.483 24.881-9.564-.776-25.174 10.529 20.841 4.608-2.412-14.361-43.215-21.04 7.815 3.907 27.226z" fill="#76838F"/><path d="M208.066 235.494v.01l4.816 26.489 27.434-9.12-14.275-63.176-17.975 45.797z" fill="#3B3D42"/><path d="M220.726 49.705a20.83 20.83 0 00-3.86-5.96.684.684 0 00-.521-.246c-.227.047-.35.302-.397.53a7.693 7.693 0 00.293 3.86c.445 1.683 1.05 3.32 1.637 4.966.587 1.646 1.201 3.282 1.788 4.91h-.047c-1.646 1.362-3.302 2.715-4.863 4.162a9.583 9.583 0 00-2.97 4.115c-.653 2.27.35 4.73 1.844 6.566a50.206 50.206 0 005.222 4.787c.88.799 1.702 1.658 2.46 2.573l11.665-3.15a456.283 456.283 0 00-12.251-27.113z" fill="url(#paint4_linear_5115_42829)"/><path d="M289.378 69.06l.095-.586a52.161 52.161 0 00-9.025 2.308c-9.3 4.03-30.992 19.63-30.992 19.63l-17.861-17.974-1.088.728-10.056 6.689-.502.34 25.401 27.435a7.473 7.473 0 007.634 1.561l17.634-6.423a8.147 8.147 0 01-.501-1.287c-.842-12.015 14.871-28.116 18.514-31.682.473-.464.747-.71.747-.71v-.028z" fill="#941759"/><path d="M289.377 69.06c0 .142.057.294.095.426a18.197 18.197 0 003.481-1.636c-.993.17-2.204.378-3.481.615l-.095.596z" fill="#F79244"/><path d="M273.145 141.924h.671v.057a5.819 5.819 0 002.176-.218l-1.58-6.083c-6.338-.652-12.118-3.717-18.154-5.733-2.895-.946-6.253-1.646-8.845-.047-2.29 1.391-3.311 4.144-4.068 6.708a99.825 99.825 0 00-1.126 4.096v.151l30.926 1.069z" fill="url(#paint5_linear_5115_42829)"/><path d="M270.618 102.767a12.082 12.082 0 006.896 6.244l-2.478 24.133 33.48-7.389s4.588-36.053 4.853-47.102c.265-11.05 8.883-11.608 8.883-11.608-3.15-.946-6.386-1.769-9.139-3.567 0 0-19.762 24.21-23.65 6.036a12.61 12.61 0 01-.842.284c-3.642 3.567-19.356 19.668-18.514 31.682.133.443.304.874.511 1.287z" fill="#721245"/><path d="M332.035 113.703c2.072-12.79 3.718-27.094 2.649-35.996a10.187 10.187 0 00-3.832-6.935c-2.507-1.892-5.581-2.838-8.599-3.784 0 0-8.628.549-8.883 11.608-.256 11.06-4.853 47.103-4.853 47.103l-33.48 7.388-1.221.265.596 2.308 1.58 6.083 1.457 5.676 3.784-.473 40.802-5.014a6.473 6.473 0 005.554-5.061c1.125-5.014 2.904-13.679 4.446-23.168z" fill="#941759"/><path d="M281.269 146.957l41.749 13.566-.946-18.58-40.803 5.014z" fill="#721245"/><path d="M288.631 69.78c.283-.086.567-.18.842-.284 0-.133-.067-.284-.095-.426 0 0-.274.246-.747.71z" fill="url(#paint6_linear_5115_42829)"/><path d="M172.8 91.897l24.596 55.532h76.42v-5.43a3.152 3.152 0 01-.671-.076l-30.935-1.05-7.569-.255-18.75-48.72H172.8z" fill="#76838F"/><path d="M307.731 79.76c.048-.595 1.003-.605.946 0l-.312 4.087c-.047.596-.993.596-.946 0l.312-4.086zm-8.269.568c.113-.605 1.021-.35.946.246l-.682 3.784c-.113.596-1.021.35-.946-.246l.682-3.784zm-8.571 3.585l.795-3.784c.132-.596 1.04-.35.946.246-.265 1.249-.539 2.498-.804 3.784-.152.634-1.069.35-.937-.246zm-7.416-4.655c.057-.605 1.003-.605.946 0l-.283 3.576c-.048.606-.994.606-.946 0l.283-3.576zm20.397 9.32c.057-.606 1.003-.606.946 0-.095 1.135-.199 2.27-.293 3.405-.057.606-1.003.606-.946 0 .094-1.097.198-2.232.293-3.405zm-9.621 3.32c.208-.946.416-1.892.614-2.905.133-.596 1.041-.35.946.246-.208.946-.406 1.94-.614 2.905-.152.596-1.069.35-.946-.246zm-10.03-.673l.766-2.913a.5.5 0 01.226-.299.489.489 0 01.72.544l-.766 2.914a.488.488 0 11-.946-.246zm23.179 5.241c.123-.596 1.031-.35.946.246-.208 1.031-.407 2.053-.606 3.075-.122.605-1.031.35-.946-.246.209-1.022.407-2.044.606-3.075zm-9.603 4.608l.804-2.904a.485.485 0 01.596-.35.487.487 0 01.35.596l-.804 2.904a.518.518 0 01-.083.172.494.494 0 01-.685.095.488.488 0 01-.178-.513zm-8.239-3.746c.095-.606 1.013-.35.946.245l-.444 2.725c-.104.606-1.012.35-.946-.246l.444-2.724zm-11.145-.719c0-.606.946-.606.946 0-.047 1.135-.104 2.27-.16 3.406 0 .605-.946.605-.946 0 .056-1.136.113-2.27.16-3.406zm24.824 9.697c.066-.606 1.022-.606.946 0l-.454 4.086c-.076.606-1.022.606-.946 0l.454-4.086zm-10.568.548c.114-.596 1.032-.35.947.246l-.682 3.576c-.113.596-1.021.35-.946-.246l.681-3.576zm-9.061.17c.114-.596 1.022-.35.946.246l-.52 2.895c-.104.596-1.012.35-.946-.246l.52-2.895zm-8.656-16.716c.057-.597 1.003-.606.946 0l-.293 3.575c-.057.597-1.003.606-.946 0l.293-3.575zm30.953 27.047c.057-.605 1.003-.605.946 0-.104 1.135-.199 2.27-.303 3.406-.047.605-.993.605-.946 0 .104-1.136.199-2.271.303-3.406zm-7.814.682c.056-.606 1.002-.606.946 0-.095 1.021-.19 2.043-.294 3.065-.056.605-1.002.605-.946 0l.294-3.065zm-9.754-1.014c0-.605.946-.605.946 0l-.227 3.075c-.047.596-.993.596-.946 0l.227-3.075zm-9.582-1.011c0-.605.946-.605.946 0 0 1.306-.085 2.611-.123 3.907 0 .126-.05.246-.138.335a.476.476 0 01-.669 0 .473.473 0 01-.139-.335l.123-3.907zm14.049 6.953c0-.605.946-.605.946 0-.047 1.069-.104 2.148-.151 3.226 0 .606-.946.606-.946 0 .047-1.069.104-2.147.151-3.226zm-10.475.851c0-.605.946-.605.946 0l-.17 2.886c0 .605-.946.605-.946 0l.17-2.886zm33.443 21.428c.076-.596 1.022-.596.946 0l-.331 2.715c-.075.596-1.021.606-.946 0a82.8 82.8 0 00.331-2.715zm-10.841.34c.075-.596 1.021-.596.946 0-.105.946-.218 1.817-.332 2.725-.066.596-1.012.596-.946 0 .114-.908.227-1.817.332-2.725zm6.206 4.429v3.065a.47.47 0 01-.473.473.473.473 0 01-.473-.473v-3.056a.466.466 0 01.135-.336.484.484 0 01.333-.142.467.467 0 01.336.136.468.468 0 01.142.333zm7.474 1.181c0-.605.946-.605.946 0l-.161 2.725c0 .605-.946.596-.946 0l.161-2.725zm-21.494-3.349c.085-.596.993-.35.946.246l-.341 2.384c-.085.606-.993.35-.946-.246l.341-2.384z" fill="#fff"/><path d="M288.905 27.606a7.05 7.05 0 015.676 1.617c.946.786-.397 2.13-1.324 1.353a4.96 4.96 0 00-3.917-1.135c-1.154.17-1.646-1.655-.435-1.835zm-12.469-.341a5.23 5.23 0 015.676.795c.946.785-.407 2.129-1.334 1.343a3.247 3.247 0 00-3.377-.501c-1.116.492-2.072-1.135-.965-1.637z" fill="#3B3D42"/><path d="M281.242 43.291c.794-3.998 1.586-7.997 2.374-11.995.114-.596 1.031-.35.946.246a4541.84 4541.84 0 01-2.318 11.759l2.602.35c.596.085.596 1.03 0 .946l-3.235-.426a.528.528 0 01-.495-.615.528.528 0 01.126-.265z" fill="#D36C26"/><path d="M281.716 47.548a9.297 9.297 0 007.729.18c.549-.237 1.031.577.473.823a10.341 10.341 0 01-8.675-.18c-.568-.265-.095-1.088.473-.823zm9.167-12.601c-.909 0-1.646-.987-1.646-2.205 0-1.217.737-2.204 1.646-2.204.909 0 1.646.987 1.646 2.204 0 1.218-.737 2.205-1.646 2.205zm-12.138-.312c-.91 0-1.647-.987-1.647-2.204 0-1.218.737-2.204 1.647-2.204.909 0 1.646.986 1.646 2.204 0 1.217-.737 2.204-1.646 2.204z" fill="#3B3D42"/><defs><linearGradient id="paint0_linear_5115_42829" x1="204.157" y1="242.116" x2="103.754" y2="242.163" gradientUnits="userSpaceOnUse"><stop stop-color="#941759"/></linearGradient><linearGradient id="paint1_linear_5115_42829" x1="455.017" y1="139.331" x2="486.17" y2="139.331" gradientUnits="userSpaceOnUse"><stop stop-color="#F7BE86"/><stop offset=".33" stop-color="#F7BC83"/><stop offset=".54" stop-color="#F7B67B"/><stop offset=".73" stop-color="#F7AC6C"/><stop offset=".89" stop-color="#F79E57"/><stop offset="1" stop-color="#F79244"/></linearGradient><linearGradient id="paint2_linear_5115_42829" x1="77682.6" y1="5875.66" x2="77682.6" y2="4287.44" gradientUnits="userSpaceOnUse"><stop stop-color="#F9E6D9"/><stop offset=".12" stop-color="#FCF1EA"/><stop offset=".27" stop-color="#FEF9F6"/><stop offset=".48" stop-color="#FFFEFD"/><stop offset="1" stop-color="#fff"/></linearGradient><linearGradient id="paint3_linear_5115_42829" x1="806.15" y1="76640.2" x2="15817.9" y2="88732.7" gradientUnits="userSpaceOnUse"><stop stop-color="#F9E6D9"/><stop offset=".12" stop-color="#FCF1EA"/><stop offset=".27" stop-color="#FEF9F6"/><stop offset=".48" stop-color="#FFFEFD"/><stop offset="1" stop-color="#fff"/></linearGradient><linearGradient id="paint4_linear_5115_42829" x1="-10451.9" y1="2703.62" x2="-11023" y2="2511.25" gradientUnits="userSpaceOnUse"><stop stop-color="#F7BE86"/><stop offset=".33" stop-color="#F7BC83"/><stop offset=".54" stop-color="#F7B67B"/><stop offset=".73" stop-color="#F7AC6C"/><stop offset=".89" stop-color="#F79E57"/><stop offset="1" stop-color="#F79244"/></linearGradient><linearGradient id="paint5_linear_5115_42829" x1="-12931" y1="3269.69" x2="-14137" y2="3269.69" gradientUnits="userSpaceOnUse"><stop stop-color="#F7BE86"/><stop offset=".33" stop-color="#F7BC83"/><stop offset=".54" stop-color="#F7B67B"/><stop offset=".73" stop-color="#F7AC6C"/><stop offset=".89" stop-color="#F79E57"/><stop offset="1" stop-color="#F79244"/></linearGradient><linearGradient id="paint6_linear_5115_42829" x1="-27.784" y1="190.22" x2="-28.534" y2="190.22" gradientUnits="userSpaceOnUse"><stop stop-color="#31D1D6"/><stop offset=".37" stop-color="#32CED8"/><stop offset=".62" stop-color="#36C6DF"/><stop offset=".82" stop-color="#3CB7EB"/><stop offset="1" stop-color="#45A3FA"/></linearGradient></defs></svg>