<svg width="570" height="372" fill="none" xmlns="http://www.w3.org/2000/svg"><path fill-rule="evenodd" clip-rule="evenodd" d="M75.986 49.402c41.645-28.44 103.387-23.587 158.468-31.715 48.34-7.134 95.47-24.914 143.537-12.853 48.805 12.247 83.106 45.668 115.071 77.743 33.119 33.231 63.551 68.462 71.477 109.441 8.709 45.03 11.195 96.256-25.232 129.668-35.889 32.918-101.372 28.2-156.273 36.813-49.195 7.717-96.505 17.275-146.947 10.754-59.826-7.734-123.884-16.425-166.91-51.329C23.312 280.715-1.23 228.137.048 177.768c1.25-49.306 29.776-96.84 75.94-128.366z" fill="#E1F2BA" fill-opacity=".2"/><path d="M289.578 342.01c91.047 0 164.855-4.083 164.855-9.12 0-5.037-73.808-9.12-164.855-9.12-91.047 0-164.855 4.083-164.855 9.12 0 5.037 73.808 9.12 164.855 9.12z" fill="#76838F"/><path d="M348.371 90.62l2.227.28 1.182.138 3.354.4s39.426-45.427 22.987-64.936c-5.059-6.01-16.151-3.479-17.864 20.126-1.588 21.883-11.886 43.993-11.886 43.993z" fill="#AFDD44"/><path d="M350.6 90.905l1.181.139c7.476-11.307 12.444-24.014 15.33-32.999a155.583 155.583 0 004.933-18.674.492.492 0 00-.091-.385.522.522 0 00-.346-.21.556.556 0 00-.4.087.514.514 0 00-.218.334 156.602 156.602 0 01-4.906 18.552c-2.913 9.028-7.926 21.805-15.483 33.156z" fill="#F2FBDD"/><path d="M341.461 99.317l2.705 1.739 1.443.914 4.094 2.609s81.295-34.79 72.828-70.26c-2.597-10.985-18.685-14.524-36.504 15.1-16.548 27.467-44.566 49.898-44.566 49.898z" fill="#AFDD44"/><path d="M344.178 101.058l1.443.913c17.215-10.15 32.049-23.562 41.806-33.434a235.802 235.802 0 0018.757-21.23.739.739 0 00.118-.904.777.777 0 00-.533-.366.813.813 0 00-.636.15.78.78 0 00-.212.25 234.712 234.712 0 01-18.648 21.091c-9.794 9.864-24.763 23.388-42.095 33.53z" fill="#F2FBDD"/><path d="M335.98 239.352l2.498 2.313 1.335 1.226 3.76 3.48s92.207-21.344 90.431-60.11c-.541-11.933-16.71-18.639-41.338 9.107-22.824 25.719-56.686 43.984-56.686 43.984z" fill="#AFDD44"/><path d="M338.479 241.652l1.334 1.227c20.074-7.428 38.317-18.735 50.5-27.267a255.464 255.464 0 0023.915-18.77.776.776 0 00.047-1.149.852.852 0 00-1.192-.007 253.395 253.395 0 01-23.771 18.639c-12.237 8.575-30.643 19.969-50.833 27.327z" fill="#F2FBDD"/><path d="M167.358 82.48c3.507 9.568 13.589 8.82 13.779 16.752.189 7.933 5.654 13.691 12.67 11.899 7.016-1.792 12.074-3.479 15.709 4.236 3.634 7.714 14.149 11.167 17.918 4.757.902-1.591 1.948-3.322 2.94-5.018l.802-1.375.19-.321a14.898 14.898 0 001.725-10.861c-.832-3.702-3.052-6.976-6.234-9.196-2.705-1.835-5.817-2.792-9.261-1.626-10.822 3.626-7.395-7.193-14.158-11.377-7.783-4.827-13.933 1.348-19.307-2.827-7.485-5.792-20.272-4.653-16.773 4.958z" fill="#AFDD44"/><path d="M180.649 86.072l49.724 29.033.803-1.375-49.679-29.015a.848.848 0 00-.622-.09.818.818 0 00-.505.36.768.768 0 00-.094.6.798.798 0 00.373.487z" fill="#F2FBDD"/><path d="M174.5 28.592c-1.398 12.533 10.289 16.847 6.123 25.797-4.166 8.95-1.254 18.195 7.566 19.813 8.819 1.618 15.411 2.314 15.204 12.812-.208 10.498 9.631 19.752 17.377 14.525a953.127 953.127 0 006.06-4.097l1.668-1.122.379-.26c3.992-2.676 6.818-6.68 7.935-11.242a18.411 18.411 0 00-1.884-13.477c-1.975-3.48-4.96-6.089-9.451-6.593-14.068-1.496-4.283-11.83-9.514-20.005-6.023-9.393-16.304-5.662-20.01-13.046-5.149-10.342-20.038-15.639-21.453-3.105z" fill="#AFDD44"/><path d="M187.351 39.439l39.48 58.004 1.668-1.122-39.453-57.952a1.026 1.026 0 00-.64-.421 1.044 1.044 0 00-.762.138.977.977 0 00-.437.618.949.949 0 00.144.735z" fill="#F2FBDD"/><path d="M141.215 262.832c7.53 10.298 19.262 6.088 22.265 15.464 3.003 9.376 11.534 14.429 19.244 10.02 7.71-4.41 13.166-8.08 20.2-.07 7.034 8.011 20.741 8.698 22.995-.165.559-2.201 1.155-4.592 1.741-6.958.162-.644.324-1.279.478-1.905l.108-.435a18.424 18.424 0 00-1.741-13.497c-2.285-4.138-6.074-7.317-10.64-8.925-3.833-1.314-7.909-1.427-11.615 1.078-11.588 7.828-11.318-6.158-20.831-8.941-10.948-3.218-16.115 6.132-23.979 2.923-10.938-4.445-25.764 1.069-18.225 11.411z" fill="#AFDD44"/><path d="M158.294 262.759l69.365 18.395c.162-.643.324-1.278.478-1.905l-69.302-18.378a1.057 1.057 0 00-.772.09.986.986 0 00-.481.589.959.959 0 00.099.745c.133.226.353.393.613.464z" fill="#F2FBDD"/><path d="M323.689 92.9c2.138-18.551 5.123-34.25 8.901-46.749 4.942-16.334 11.272-27.197 18.82-32.303.242-.161.54-.223.829-.173.289.05.546.21.713.443a1.037 1.037 0 01-.27 1.478c-13.202 8.924-22.626 37.4-27.315 82.314l-1.678-5.01z" fill="#AFDD44"/><path d="M338.233 31.955s-9.108-1.583-5.582-16.908c.018 0 13.229 6.236 5.582 16.908zm-2.217 7.805s1.136-8.855 17.188-6.315c0 0-5.718 13.072-17.188 6.314zm10.983-20.464s-1.993-8.698 14.023-11.49c0 .009-.875 14.177-14.023 11.49zm-15.98 36.044s-9.126 1.478-11.191-14.091c-.009 0 14.618 1.54 11.191 14.09zm-1.035 8.323s-.469-8.906 15.799-9.089c0-.035-3.292 13.795-15.799 9.09zm-2.57 11.174s-9.09 1.644-11.453-13.916c-.018.035 14.636 1.33 11.453 13.916z" fill="#941759"/><path d="M359.347 91.117V317.63c0 3.409-1.404 6.679-3.904 9.09-2.499 2.411-5.889 3.765-9.424 3.765H229.067a13.73 13.73 0 01-5.099-.979 13.363 13.363 0 01-4.322-2.787 12.823 12.823 0 01-2.887-4.17 12.47 12.47 0 01-1.011-4.919V91.117c0-3.408 1.403-6.676 3.901-9.087 2.497-2.41 5.885-3.766 9.418-3.768h116.952c3.534.002 6.923 1.358 9.422 3.768 2.499 2.41 3.904 5.679 3.906 9.087z" fill="#595A5C"/><path d="M359.346 91.125v226.512c0 3.409-1.405 6.679-3.904 9.09-2.5 2.41-5.89 3.765-9.425 3.765H229.066a13.737 13.737 0 01-5.12-.982 13.335 13.335 0 01-4.331-2.81L352.059 79.688a13.138 13.138 0 015.317 4.726 12.501 12.501 0 011.97 6.71z" fill="#595A5C"/><path d="M214.691 112.289h1.065v29.919h-1.065a3.888 3.888 0 01-2.697-1.077 3.616 3.616 0 01-1.117-2.602v-22.561c0-.976.402-1.912 1.117-2.602a3.888 3.888 0 012.697-1.077zm145.521 28.838h-.902v-24.353h.902a3.18 3.18 0 012.206.881c.585.564.914 1.33.914 2.128v18.352a2.962 2.962 0 01-.92 2.117 3.184 3.184 0 01-2.2.875zm-145.521 5.162h1.065v29.919h-1.065a3.888 3.888 0 01-2.697-1.077 3.616 3.616 0 01-1.117-2.602V149.95a3.616 3.616 0 011.124-2.59 3.885 3.885 0 012.69-1.071z" fill="#3B3D42"/><path d="M352.662 90.566v227.625a5.785 5.785 0 01-1.791 4.158 6.22 6.22 0 01-4.314 1.722H228.424a6.278 6.278 0 01-3.35-.967 5.949 5.949 0 01-2.25-2.582 5.641 5.641 0 01-.496-2.331V90.566a5.693 5.693 0 01.462-2.251 5.867 5.867 0 011.321-1.909 6.104 6.104 0 011.979-1.274 6.28 6.28 0 012.334-.446h118.133a6.296 6.296 0 012.336.446c.74.295 1.413.727 1.98 1.273a5.873 5.873 0 011.324 1.91c.307.713.465 1.478.465 2.251z" fill="#fff"/><path d="M327.043 84.47l-5.411 7.968a8.089 8.089 0 01-2.96 2.618 8.434 8.434 0 01-3.893.948h-52.52a8.418 8.418 0 01-3.89-.948 8.072 8.072 0 01-2.954-2.618l-5.411-7.968a1.48 1.48 0 01.459-1.06 1.602 1.602 0 011.101-.444h73.946c.408.009.797.171 1.083.452.286.281.448.659.45 1.052z" fill="#595A5C"/><path d="M307.205 87.035h-45.711c-.717 0-1.299.56-1.299 1.252v.705c0 .691.582 1.252 1.299 1.252h45.711c.717 0 1.299-.56 1.299-1.252v-.705c0-.692-.582-1.252-1.299-1.252zm8.126 3.409c1.1 0 1.993-.861 1.993-1.923 0-1.061-.893-1.922-1.993-1.922-1.101 0-1.993.86-1.993 1.922 0 1.062.892 1.922 1.993 1.922z" fill="#3B3D42"/><path d="M269.592 195.232c.012 4.074-1.46 8.023-4.158 11.159a17.438 17.438 0 01-1.983 1.974c-3.32 2.831-7.599 4.393-12.03 4.393-4.432 0-8.71-1.562-12.03-4.393a16.156 16.156 0 01-1.984-1.974 17.289 17.289 0 01-3.754-7.484c-.61-2.749-.527-5.6.245-8.311a17.354 17.354 0 014.187-7.266 18.228 18.228 0 017.189-4.588 18.803 18.803 0 018.572-.877 18.567 18.567 0 018.026 3.032 17.75 17.75 0 015.674 6.258 17.031 17.031 0 012.046 8.077z" fill="#76838F"/><path d="M251.422 197.653c3.85 0 6.971-3.01 6.971-6.723s-3.121-6.723-6.971-6.723-6.971 3.01-6.971 6.723 3.121 6.723 6.971 6.723zm12.028 10.71c-3.32 2.831-7.598 4.394-12.03 4.394-4.431 0-8.709-1.563-12.029-4.394.656-2.503 2.266-4.677 4.509-6.088a13.683 13.683 0 017.565-2.27c2.703 0 5.341.792 7.566 2.27 2.206 1.429 3.782 3.6 4.419 6.088z" fill="#fff"/><path d="M277.175 191.556v-.104l1.082-3.236a.127.127 0 00.005-.092.133.133 0 00-.059-.073l-3.229-2.305a.38.38 0 01-.072-.087h4.121c.082 0 .109 0 .127-.087l1.163-3.479v-.087.096a428.53 428.53 0 011.344 3.557c.008.034.03.064.06.083.03.019.066.027.102.022h3.607a.49.49 0 01.153 0l-.072.052-3.147 2.053c-.072.043-.081.078-.054.165l1.271 3.548v.105l-.144-.096-2.913-2.148c-.063-.044-.099-.044-.153 0l-3.093 2.07-.099.043zm13.806 0v-.104l1.083-3.236a.127.127 0 00.005-.092.13.13 0 00-.06-.073l-3.219-2.305a.394.394 0 01-.081-.087h4.13a.104.104 0 00.079-.018.097.097 0 00.027-.03.103.103 0 00.011-.039l1.164-3.479v-.087l.045.096c.451 1.183.902 2.366 1.343 3.557a.14.14 0 00.06.083.155.155 0 00.103.022h3.607a.437.437 0 01.153 0l-.072.052-3.147 2.053a.124.124 0 00-.039.029.127.127 0 00-.024.042.113.113 0 00-.005.048.107.107 0 00.014.046l1.271 3.548v.105l-.144-.096-3.084-2.105c-.063-.043-.099-.043-.153 0l-2.958 2.027-.109.043zm13.807 0v-.104l1.082-3.236a.122.122 0 00.006-.092.13.13 0 00-.06-.073l-3.219-2.305a.371.371 0 01-.081-.087h4.13a.108.108 0 00.079-.018.083.083 0 00.026-.03.089.089 0 00.012-.039l1.163-3.479v-.087l.045.096a428.53 428.53 0 011.344 3.557.14.14 0 00.06.083c.03.019.067.027.102.022h3.607a.443.443 0 01.154 0l-.072.052-3.139 2.053a.125.125 0 00-.068.069.115.115 0 00-.007.048c0 .017.005.033.012.048.433 1.174.848 2.366 1.272 3.548v.105l-.054-.174-3.084-2.105c-.064-.043-.1-.043-.154 0l-3.075 2.105-.081.043zm13.807 0v-.104l1.082-3.236a.127.127 0 00.005-.092.133.133 0 00-.059-.073l-3.22-2.305a.419.419 0 01-.081-.087h4.166a.104.104 0 00.079-.018.097.097 0 00.027-.03.089.089 0 00.012-.039l1.163-3.479v-.087a.29.29 0 01.045.096c.451 1.183.902 2.366 1.344 3.557.008.034.03.064.06.083.03.019.066.027.102.022h3.607a.437.437 0 01.153 0l-.072.052-3.138 2.053a.107.107 0 00-.041.028.116.116 0 00-.022.137c.433 1.174.848 2.366 1.272 3.548v.105l-.145-.096-3.084-2.105c-.063-.043-.099-.043-.153 0l-2.994 2.027-.108.043zm13.806 0v-.104l1.083-3.236a.127.127 0 00.005-.092.13.13 0 00-.06-.073l-3.219-2.305a.394.394 0 01-.081-.087h4.13a.094.094 0 00.041-.001.1.1 0 00.065-.047.103.103 0 00.011-.039l1.164-3.479v-.087a.769.769 0 010 .096l1.352 3.557a.13.13 0 00.055.082c.029.02.064.028.099.023h3.607a.437.437 0 01.153 0l-.072.052-3.138 2.053a.122.122 0 00-.069.069.13.13 0 00.005.096c.433 1.174.902 2.366 1.272 3.548a.46.46 0 010 .105l-.144-.096-3.084-2.105a.109.109 0 00-.036-.022.097.097 0 00-.041-.008.115.115 0 00-.077.03l-2.912 2.027-.109.043zm7.008 4.413h-63.025c-.802 0-1.452.625-1.452 1.396 0 .771.65 1.396 1.452 1.396h63.025c.802 0 1.452-.625 1.452-1.396 0-.771-.65-1.396-1.452-1.396zm0 5.982h-63.025c-.384 0-.752.146-1.024.407-.272.26-.426.614-.428.984a1.357 1.357 0 00.425.99c.135.13.295.234.471.304.176.07.365.107.556.107h63.025c.19 0 .379-.037.555-.107a1.445 1.445 0 00.786-.758c.073-.17.111-.352.111-.536a1.376 1.376 0 00-.429-.984 1.478 1.478 0 00-1.023-.407zm-69.817 40.62c.005 4.074-1.466 8.021-4.158 11.159a18.963 18.963 0 01-1.983 1.975c-3.32 2.831-7.599 4.393-12.03 4.393-4.432 0-8.71-1.562-12.03-4.393a17.374 17.374 0 01-1.984-1.975 17.283 17.283 0 01-3.754-7.484 16.924 16.924 0 01.245-8.31 17.364 17.364 0 014.187-7.267 18.237 18.237 0 017.189-4.587 18.8 18.8 0 018.571-.877 18.566 18.566 0 018.027 3.032 17.741 17.741 0 015.674 6.258 17.03 17.03 0 012.046 8.076z" fill="#76838F"/><path d="M254.078 244.471c3.56-1.414 5.256-5.344 3.79-8.777-1.466-3.433-5.541-5.07-9.101-3.655-3.559 1.414-5.256 5.344-3.79 8.777 1.467 3.433 5.541 5.07 9.101 3.655zm9.372 11.23c-3.32 2.831-7.598 4.394-12.03 4.394-4.431 0-8.709-1.563-12.029-4.394.654-2.504 2.264-4.679 4.509-6.088a13.65 13.65 0 017.565-2.276c2.703 0 5.342.794 7.566 2.276 2.208 1.428 3.784 3.599 4.419 6.088z" fill="#fff"/><path d="M277.175 238.897v-.113l1.082-3.227a.112.112 0 00.014-.046.113.113 0 00-.005-.048.127.127 0 00-.063-.072 325.402 325.402 0 01-3.229-2.313.224.224 0 01-.072-.078h4.121a.118.118 0 00.086-.021.11.11 0 00.041-.075l1.163-3.479a.902.902 0 010 .017c.451 1.183.902 2.366 1.344 3.549a.14.14 0 00.06.083c.03.019.066.027.102.021h3.607a.49.49 0 01.153 0l-.072.052-3.147 2.053c-.072.044-.081.078-.054.157l1.271 3.548v.113l-.144-.095-2.913-2.183a.124.124 0 00-.076-.025.125.125 0 00-.077.025 363.393 363.393 0 01-3.066 2.052l-.126.105zm13.806 0v-.113l1.083-3.227a.153.153 0 00.014-.046.127.127 0 00-.069-.12l-3.219-2.313a.233.233 0 01-.081-.078h4.13c.072 0 .099 0 .117-.096l1.164-3.479a.422.422 0 000-.087c.017.034.032.069.045.104.451 1.183.902 2.366 1.343 3.549a.143.143 0 00.163.104h3.607a.49.49 0 01.153 0l-.072.052-3.147 2.053a.136.136 0 00-.039.027.123.123 0 00-.023.04c-.006.015-.007.03-.006.046.001.015.006.03.014.044l1.271 3.548v.113l-.144-.095-2.985-2.183a.125.125 0 00-.077-.025.124.124 0 00-.076.025l-3.057 2.052-.109.105zm13.807 0v-.113l1.082-3.227a.112.112 0 00.014-.046.113.113 0 00-.005-.048.127.127 0 00-.063-.072l-3.219-2.313a.217.217 0 01-.081-.078h4.13c.072 0 .099 0 .117-.096l1.163-3.479a.317.317 0 000-.087.726.726 0 01.045.104c.451 1.183.902 2.366 1.344 3.549a.143.143 0 00.162.104h3.607a.497.497 0 01.154 0l-.072.052-3.139 2.053c-.072.044-.09.078-.063.157.433 1.183.848 2.365 1.272 3.548v.113l-.144-.095-2.985-2.183a.125.125 0 00-.077-.025.125.125 0 00-.077.025l-3.084 2.087-.081.07zm34.621 4.401h-63.025c-.802 0-1.452.625-1.452 1.396 0 .771.65 1.396 1.452 1.396h63.025c.802 0 1.452-.625 1.452-1.396 0-.771-.65-1.396-1.452-1.396zm0 6h-63.025a1.48 1.48 0 00-1.015.398 1.375 1.375 0 00-.437.967c0 .184.037.366.11.536.073.17.18.325.315.455s.295.233.471.303c.176.07.365.107.556.107h63.025c.19 0 .379-.037.555-.107.176-.07.337-.173.471-.303.135-.13.242-.285.315-.455.073-.17.111-.352.111-.536a1.38 1.38 0 00-.438-.967 1.476 1.476 0 00-1.014-.398zm-69.817 41.778c.006 4.077-1.464 8.027-4.158 11.168a19.05 19.05 0 01-1.983 1.974c-3.32 2.831-7.599 4.394-12.03 4.394-4.432 0-8.71-1.563-12.03-4.394a17.284 17.284 0 01-1.984-1.974 17.278 17.278 0 01-3.753-7.483 16.92 16.92 0 01.243-8.309 17.363 17.363 0 014.186-7.266 18.216 18.216 0 017.187-4.589 18.794 18.794 0 018.57-.879 18.563 18.563 0 018.026 3.029 17.729 17.729 0 015.676 6.255 17.024 17.024 0 012.05 8.074z" fill="#76838F"/><path d="M258.393 286.783c0 1.33-.409 2.63-1.175 3.736a6.93 6.93 0 01-3.128 2.476 7.205 7.205 0 01-4.028.382 7.046 7.046 0 01-3.569-1.84 6.651 6.651 0 01-1.908-3.442 6.5 6.5 0 01.397-3.885 6.783 6.783 0 012.567-3.017 7.154 7.154 0 013.873-1.133c1.849 0 3.622.708 4.929 1.969a6.606 6.606 0 012.042 4.754zm5.057 17.439c-3.32 2.831-7.598 4.394-12.03 4.394-4.431 0-8.709-1.563-12.029-4.394.651-2.505 2.262-4.681 4.509-6.088a13.65 13.65 0 017.565-2.276c2.703 0 5.342.794 7.566 2.276 2.21 1.426 3.786 3.598 4.419 6.088z" fill="#fff"/><path d="M277.175 287.416a1.065 1.065 0 010-.113l1.082-3.235a.12.12 0 00.014-.044.12.12 0 00-.006-.046.11.11 0 00-.024-.04.146.146 0 00-.038-.027l-3.229-2.313a.34.34 0 01-.072-.079h.235l3.886-.043c.082 0 .109 0 .127-.087l1.163-3.479a.631.631 0 000-.087v.095c.451 1.183.902 2.375 1.344 3.558a.146.146 0 00.162.104h3.607a.49.49 0 01.153 0l-.072.052c-1.046.687-2.092 1.375-3.147 2.053a.114.114 0 00-.039.03.11.11 0 00-.024.042.107.107 0 00-.005.047.107.107 0 00.014.046l1.271 3.549v.104l-.144-.087-2.913-2.122c-.063-.043-.099-.043-.153 0l-3.066 2.053-.126.069zm13.806 0a2.128 2.128 0 010-.113l1.083-3.235a.117.117 0 00.008-.09.11.11 0 00-.063-.067l-3.219-2.313a.338.338 0 01-.081-.079h.234l3.896-.043c.072 0 .099 0 .117-.087l1.164-3.479a.631.631 0 000-.087l.045.095c.451 1.183.902 2.375 1.343 3.558.009.034.03.063.06.082a.15.15 0 00.103.022h3.607a.49.49 0 01.153 0l-.072.052c-1.046.687-2.092 1.375-3.147 2.053a.128.128 0 00-.054.165l1.271 3.549v.104l-.144-.087-3.084-2.113c-.063-.044-.099-.044-.153 0l-3.058 2.052-.009.061zm13.807 0a1.065 1.065 0 010-.113l1.082-3.235a.103.103 0 00.014-.044.12.12 0 00-.006-.046.11.11 0 00-.024-.04.119.119 0 00-.038-.027l-3.219-2.313-.081-.079h.234l3.896-.043c.072 0 .099 0 .117-.087l1.163-3.479a.422.422 0 000-.087l.045.095c.451 1.183.902 2.375 1.344 3.558.009.034.03.063.06.082.03.02.067.027.102.022h3.607a.497.497 0 01.154 0l-.072.052-3.075 2.079c-.073.052-.091.087-.064.165.433 1.183.848 2.366 1.272 3.549v.104l-.144-.087-3.084-2.113c-.064-.044-.1-.044-.154 0l-3.048 2.018-.081.069zm13.807 0a1.065 1.065 0 010-.113l1.082-3.235a.12.12 0 00.014-.044.12.12 0 00-.006-.046.11.11 0 00-.024-.04.146.146 0 00-.038-.027l-3.22-2.313-.081-.079h.271l3.895-.043c.073 0 .1 0 .118-.087l1.163-3.479a.631.631 0 000-.087c.019.03.034.062.045.095.451 1.183.902 2.375 1.344 3.558a.146.146 0 00.162.104h3.607a.49.49 0 01.153 0l-.072.052-3.111 2.079c-.072.052-.09.087-.063.165.433 1.183.848 2.366 1.272 3.549v.104l-.145-.087-3.084-2.113c-.063-.044-.099-.044-.153 0l-3.057 2.052-.072.035zm20.814 4.403h-63.025c-.802 0-1.452.625-1.452 1.396 0 .771.65 1.396 1.452 1.396h63.025c.802 0 1.452-.625 1.452-1.396 0-.771-.65-1.396-1.452-1.396zm0 5.996h-63.025c-.386 0-.755.148-1.027.411a1.374 1.374 0 00-.425.99c.002.37.156.724.428.984.272.261.64.407 1.024.407h63.025c.383 0 .751-.146 1.023-.407.272-.26.426-.614.429-.984 0-.184-.038-.366-.111-.536a1.445 1.445 0 00-.786-.758 1.505 1.505 0 00-.555-.107zm-76.184-177.999h-27.351c-1.32 0-2.39 1.03-2.39 2.301 0 1.27 1.07 2.3 2.39 2.3h27.351c1.32 0 2.39-1.03 2.39-2.3 0-1.271-1.07-2.301-2.39-2.301zm.001 9.866h-27.279a2.473 2.473 0 00-1.707.642 2.298 2.298 0 00-.755 1.611c-.007.306.049.61.165.894.117.285.291.544.513.763.222.219.487.393.779.511.292.119.606.18.924.18h27.36c.633 0 1.241-.243 1.689-.675.449-.432.7-1.019.7-1.63a2.261 2.261 0 00-.703-1.624 2.436 2.436 0 00-1.686-.672zm-.001 10.921h-27.351c-1.32 0-2.39 1.03-2.39 2.301 0 1.27 1.07 2.3 2.39 2.3h27.351c1.32 0 2.39-1.03 2.39-2.3 0-1.271-1.07-2.301-2.39-2.301zm.001 9.865h-27.279a2.488 2.488 0 00-1.708.648 2.312 2.312 0 00-.754 1.614 2.236 2.236 0 00.678 1.657c.222.219.487.393.779.512.292.118.606.179.924.179h27.36c.633 0 1.241-.243 1.689-.675a2.26 2.26 0 00.7-1.63 2.26 2.26 0 00-.7-1.629 2.432 2.432 0 00-1.689-.676z" fill="#76838F"/><path d="M392.071 100.304H276.517c-1.265 0-2.29.989-2.29 2.209v19.535c0 1.22 1.025 2.209 2.29 2.209h115.554c1.265 0 2.29-.989 2.29-2.209v-19.535c0-1.22-1.025-2.209-2.29-2.209z" fill="#F2FBDD"/><path opacity=".3" d="M386.075 105.007h-9.595c-1.24 0-2.246.97-2.246 2.166v9.254c0 1.196 1.006 2.166 2.246 2.166h9.595c1.24 0 2.245-.97 2.245-2.166v-9.254c0-1.196-1.005-2.166-2.245-2.166zm-23.412 0h-79.654c-.578 0-1.046.452-1.046 1.009v.557c0 .557.468 1.009 1.046 1.009h79.654c.578 0 1.046-.452 1.046-1.009v-.557c0-.557-.468-1.009-1.046-1.009zm0 5.51h-79.654c-.578 0-1.046.451-1.046 1.009v.556c0 .557.468 1.009 1.046 1.009h79.654c.578 0 1.046-.452 1.046-1.009v-.556c0-.558-.468-1.009-1.046-1.009zm0 5.504h-79.654c-.578 0-1.046.452-1.046 1.009v.557c0 .557.468 1.008 1.046 1.008h79.654c.578 0 1.046-.451 1.046-1.008v-.557c0-.557-.468-1.009-1.046-1.009z" fill="#AFDD44"/><path d="M390.827 134.293H278.952c-2.281 0-4.13 1.784-4.13 3.984v15.986c0 2.2 1.849 3.984 4.13 3.984h111.875c2.281 0 4.13-1.784 4.13-3.984v-15.986c0-2.2-1.849-3.984-4.13-3.984z" fill="#941759"/><path d="M284.804 151.718v-.148l1.407-4.192a.16.16 0 00.009-.123.162.162 0 00-.081-.095c-1.398-.991-2.796-2-4.184-3.001a.229.229 0 01-.1-.104h.307l5.05-.043c.099 0 .135 0 .162-.122a994.415 994.415 0 011.506-4.514v-.113l.063.121 1.741 4.619a.185.185 0 00.076.108.195.195 0 00.131.031h4.699a.549.549 0 01.198 0l-.099.07-4.076 2.661a.147.147 0 00-.052.036.14.14 0 00-.04.114.138.138 0 00.02.059l1.65 4.61c.02.047.035.097.045.147l-.189-.121-4.004-2.749a.152.152 0 00-.1-.038.151.151 0 00-.099.038l-3.977 2.662s-.009.043-.063.087zm17.928 0v-.148l1.407-4.192a.15.15 0 00.019-.061.15.15 0 00-.039-.119.152.152 0 00-.052-.038c-1.398-.991-2.787-2-4.185-3.001a.299.299 0 01-.099-.104h.307l5.05-.043c.099 0 .135 0 .162-.122.505-1.505 1.001-3.01 1.506-4.514 0 0 0-.061.045-.113a.875.875 0 00.054.121l1.75 4.619a.17.17 0 00.071.107.183.183 0 00.127.032h4.707a.604.604 0 01.199 0l-.108.07-4.076 2.661a.147.147 0 00-.052.036.14.14 0 00-.033.053c-.007.02-.009.04-.007.061a.152.152 0 00.019.059c.559 1.539 1.101 3.079 1.651 4.61.02.047.035.097.045.147l-.181-.121-4.013-2.749a.147.147 0 00-.198 0l-3.977 2.662s-.045.043-.099.087zm17.927 0c0-.061 0-.105.045-.148.469-1.4.902-2.801 1.407-4.192a.175.175 0 00-.108-.218l-4.175-3.001a.222.222 0 01-.099-.104h.297l5.059-.043c.09 0 .126 0 .153-.122l1.515-4.514v-.113a.546.546 0 01.054.121 250.435 250.435 0 011.75 4.619.174.174 0 00.071.107.185.185 0 00.127.032h4.708a.549.549 0 01.198 0l-.099.07-4.076 2.661c-.099.061-.117.113-.072.209l1.65 4.61v.147l-.18-.121-4.004-2.749a.16.16 0 00-.208 0l-3.968 2.662-.045.087zm17.938 0v-.148l1.407-4.192a.16.16 0 00.009-.123.162.162 0 00-.081-.095c-1.398-.991-2.796-2-4.184-3.001a.229.229 0 01-.1-.104h.307l5.05-.043c.099 0 .135 0 .162-.122.493-1.508.995-3.012 1.506-4.514v-.113a.546.546 0 01.054.121 250.435 250.435 0 011.75 4.619.185.185 0 00.076.108.195.195 0 00.131.031h4.698a.555.555 0 01.199 0l-.099.07-4.031 2.652a.161.161 0 00-.052.036.148.148 0 00-.033.053.138.138 0 00.013.12l1.65 4.61c.011.05.026.1.045.148l-.189-.122-4.004-2.748a.155.155 0 00-.104-.039.155.155 0 00-.104.039l-3.968 2.661s-.054.052-.108.096z" fill="#FBD26D"/><path d="M356.523 151.718v-.148l1.407-4.192a.15.15 0 00.019-.061.15.15 0 00-.039-.119.152.152 0 00-.052-.038c-1.398-.991-2.787-2-4.185-3.001a.232.232 0 01-.099-.104h.307l5.05-.043c.099 0 .135 0 .162-.122.493-1.508.995-3.012 1.506-4.514a.445.445 0 01.045-.113.875.875 0 00.054.121 257.86 257.86 0 011.75 4.619.17.17 0 00.068.11.18.18 0 00.13.029h4.698a.605.605 0 01.208 0l-.108.07-4.076 2.661a.147.147 0 00-.052.036.14.14 0 00-.033.053c-.007.02-.009.04-.007.061a.152.152 0 00.019.059l1.651 4.61a.902.902 0 010 .147l-.181-.121-4.013-2.749a.147.147 0 00-.198 0l-3.977 2.662s0 .043-.054.087zm29.552-12.252h-9.595c-1.24 0-2.246.969-2.246 2.166v9.254c0 1.196 1.006 2.165 2.246 2.165h9.595c1.24 0 2.245-.969 2.245-2.165v-9.254c0-1.197-1.005-2.166-2.245-2.166z" fill="#F7B614"/><path d="M174.467 361.829c25.657 0 46.456-1.598 46.456-3.569 0-1.971-20.799-3.569-46.456-3.569-25.656 0-46.455 1.598-46.455 3.569 0 1.971 20.799 3.569 46.455 3.569z" fill="#76838F"/><path d="M147.959 176.176a596.875 596.875 0 01-.902 8.932c-.46 4.192-.83 7.071-.83 7.071l-3.219 11.003a6.276 6.276 0 01-1.335 2.4 6.55 6.55 0 01-2.255 1.64 6.795 6.795 0 01-5.518-.013 1 1 0 01-.198-.087c-1.353-.87-2.507-2.697-3.743-7.054-.054-.383-4.509-16.621-4.941-22.536l7.854-1.182c.289-.731 2.516 7.627 2.841 6.818l.64-1.583c.37-.869.748-1.826 1.127-2.774l1.686-4.123a13427.9 13427.9 0 018.676-21.196c1.668.8 1.019 12.386.117 22.684z" fill="#FDA893"/><path d="M147.958 176.183a597.782 597.782 0 01-.901 8.932c-3.762-1.156-7.094-3.344-9.586-6.297l1.686-4.123 8.801 1.488zm-9.324 19.88h-.072a.498.498 0 01-.33-.113.468.468 0 01-.166-.296c-.902-5.715-1.804-9.942-2.408-12.481.208-.513.424-1.044.64-1.592.569 2.235 1.678 6.958 2.76 13.916a.481.481 0 01-.236.5.515.515 0 01-.188.066z" fill="#FF877C"/><path d="M134.012 174.375c.862.926 1.82 1.766 2.858 2.505a19.243 19.243 0 0010.254 3.575c3.093-11.785 3.381-26.449 1.983-30.242-1.839 2.166-11.155 14.343-15.095 24.162z" fill="#941759"/><path d="M136.714 174.415l-.117.079-1.028.652-.234-.418-9.298.261a1.576 1.576 0 01-.994-.345 1.48 1.48 0 01-.53-.881l-2.867-18.526a1.353 1.353 0 010-.27l-.388-.504 1.073-.678c.217-.129.467-.198.721-.201l9.83-.339c.371-.01.734.11 1.019.339.286.229.475.551.532.905l2.867 18.517c.046.264.015.535-.088.784a1.467 1.467 0 01-.498.625z" fill="#3B3D42"/><path d="M134.767 175.4l-9.812.313a1.569 1.569 0 01-1.036-.345 1.464 1.464 0 01-.533-.925l-2.867-18.517a1.448 1.448 0 01.324-1.193c.139-.164.313-.299.511-.393a1.58 1.58 0 01.634-.153l9.812-.314c.378-.012.747.111 1.037.345.289.235.479.564.532.925l2.868 18.552a1.445 1.445 0 01-.34 1.17 1.544 1.544 0 01-.506.384 1.603 1.603 0 01-.624.151z" fill="#233B78"/><path d="M121.808 164.036c-.902.156-.063 1.392-.55 3.235-.604 2.288 3.832 11.307 3.832 11.307 3.851 1.427 8.17-1.739 8.17-1.739s.532-7.08-.568-10.202c0 0-.712-2.81-.974-4.462-.261-1.653-1.136-3.479-1.659-3.132-.523.348-.577 1.74-.523 2.758.054 1.017 0 3 0 3s-.442-2.409-.577-3.74c-.135-1.33-.153-3.479-1.019-3.827-1.091-.461-1.218 2.401-1.29 3.479.078 1.417.262 2.827.55 4.219a24.06 24.06 0 01-.838-4.627c.146-1.344.182-2.696.108-4.045-.108-.869-1.272-.669-1.56.435a33.303 33.303 0 00-.604 4.045 35.55 35.55 0 00.369 4.027s-.685-3.48-.712-4.436a11.01 11.01 0 00-.207-3.131c-.343-.87-1.434-.957-1.642 1.356-.207 2.314-.243 2.61-.126 3.271.233.996.36 2.014.379 3.035a.386.386 0 01-.132.191.415.415 0 01-.22.088l-.207-1.105zm34.989 174.877v6.941l6.583-.105.433-7.358-7.016.522z" fill="#FDA893"/><path d="M173.506 237.464c0 .827-.27 4.793-.613 10.316-.902 15.177-2.705 42.148-3.679 48.202-1.046 6.219-.577 26.606-.244 37.278a6.236 6.236 0 01-.44 2.516 6.43 6.43 0 01-1.417 2.154 7.02 7.02 0 01-1.533 1.148 6.845 6.845 0 01-3.31.87h-5.014a6.918 6.918 0 01-2.611-.513 6.721 6.721 0 01-2.199-1.452 6.47 6.47 0 01-1.438-2.164 6.253 6.253 0 01-.452-2.533c.28-9.028.622-25.484 0-38.2-.631-12.098.28-33.503.983-46.854.28-5.332.523-9.359.622-11.011l21.345.243z" fill="#FBD26D"/><path d="M152.142 237.195l21.363.269c0 .827-.271 4.793-.613 10.316-7.26.87-14.808 1.217-21.372.426.279-5.332.523-9.359.622-11.011z" fill="#941759"/><path d="M167.031 314.228c.181 6.819.379 13.916.253 19.561 0 1.6-.099 2.966-.171 4.14a6.804 6.804 0 01-1.533 1.148 87.25 87.25 0 00.27-5.314c.117-5.654-.072-12.69-.261-19.5-.226-8.324-.442-16.178 0-19.526 1.028-7.324 3.318-47.011 3.913-57.605l1.443.07c-.604 10.585-2.904 50.35-3.932 57.717-.433 3.236-.216 11.046.018 19.309zm-8.546 31.369s-1.362-1.853-2.48-1.792c-1.119.061-9.92 6.471-12.833 6.958-2.912.487-2.443 2.61-1.92 3.671.523 1.061 23.527.095 23.527.095s.775-6.584.072-8.619c-.703-2.035-4.076.217-6.366-.313z" fill="#941759"/><path d="M153.623 350.093a.42.42 0 00.448-.118.387.387 0 00.039-.447 6.176 6.176 0 00-2.102-2.209 2.922 2.922 0 00-1.47-.354 2.92 2.92 0 00-1.451.423.406.406 0 00-.114.112.378.378 0 00.014.445.427.427 0 00.578.087 2.104 2.104 0 012.056 0 5.584 5.584 0 011.803 1.879.393.393 0 00.199.182z" fill="#fff"/><path d="M154.876 349.006a.412.412 0 00.325 0 .39.39 0 00.171-.539 6.3 6.3 0 00-2.101-2.209 2.93 2.93 0 00-2.931.069.425.425 0 00-.136.109.388.388 0 00-.011.48.433.433 0 00.475.145.432.432 0 00.15-.09 2.123 2.123 0 012.065 0 5.605 5.605 0 011.804 1.879.413.413 0 00.189.156zm-2.949 1.959a.433.433 0 00.242.004.417.417 0 00.203-.127.39.39 0 00.051-.443 6.265 6.265 0 00-2.101-2.209 2.951 2.951 0 00-2.93.07.394.394 0 00-.091.556.398.398 0 00.423.161.397.397 0 00.145-.065 2.092 2.092 0 012.066 0 5.417 5.417 0 011.803 1.887.397.397 0 00.189.166z" fill="#fff"/><path d="M188.863 338.913l.704 6.932 5.879-.096.424-7.358-7.007.522z" fill="#FDA893"/><path d="M200.957 295.063c-.658 12.716-.315 29.172 0 38.2a6.266 6.266 0 01-.451 2.533 6.447 6.447 0 01-1.439 2.164 6.73 6.73 0 01-2.199 1.453 6.918 6.918 0 01-2.611.513h-5.023a6.828 6.828 0 01-3.075-.722 6.336 6.336 0 01-1.524-1.053 6.41 6.41 0 01-1.598-2.225 6.211 6.211 0 01-.503-2.663c.343-10.672.812-31.059-.234-37.278-1.047-6.218-2.814-33.92-3.734-48.976-.297-5.01-.514-8.602-.568-9.489l21.399.278c.063 1.07.163 2.714.289 4.801.658 12.012 1.993 38.505 1.271 52.464z" fill="#FBD26D"/><path d="M199.66 242.599a213.978 213.978 0 01-21.119 4.41c-.298-5.01-.514-8.602-.568-9.489l21.399.278c.063 1.07.162 2.714.288 4.801z" fill="#941759"/><path d="M185.836 333.761c.054 2.288.153 4.062.279 5.436a6.792 6.792 0 01-1.524-1.043 84.933 84.933 0 01-.189-4.349c-.126-5.688.072-12.742.252-19.561.235-8.263.442-16.073 0-19.309-1.028-7.367-3.327-47.158-3.931-57.734l1.433-.061c.605 10.585 2.895 50.289 3.923 57.613.469 3.348.253 11.202 0 19.526-.153 6.827-.351 13.829-.243 19.482zm6.023 11.014a27.867 27.867 0 013.824-.757c.829 0 6.375 6.001 8.251 6.358 3.381.635 3.39 5.74 1.325 5.993-5.96.73-16.168-1.74-16.168-1.74s-.902-6.549-.523-8.602c.378-2.052 1.623-.643 3.291-1.252z" fill="#941759"/><path d="M196.8 350.369a.476.476 0 01-.324-.061.402.402 0 01-.174-.257.39.39 0 01.066-.3 6.33 6.33 0 012.308-2 2.92 2.92 0 012.904.339.403.403 0 01.118.282.403.403 0 01-.118.283.422.422 0 01-.586 0 2.082 2.082 0 00-2.047-.2 5.504 5.504 0 00-1.939 1.74.445.445 0 01-.208.174z" fill="#fff"/><path d="M195.654 349.154a.383.383 0 01-.315-.061.383.383 0 01-.178-.25.385.385 0 01.061-.298 6.337 6.337 0 012.308-2.009 2.92 2.92 0 012.904.339.39.39 0 01.148.273.38.38 0 01-.103.292.43.43 0 01-.577.044 2.08 2.08 0 00-.999-.375 2.114 2.114 0 00-1.057.166 5.504 5.504 0 00-1.939 1.74.415.415 0 01-.253.139zm2.742 2.24a.47.47 0 01-.324-.06.406.406 0 01-.174-.257.373.373 0 01.002-.156.38.38 0 01.063-.144 6.25 6.25 0 012.309-2.001c.47-.203.989-.279 1.501-.22.511.06.996.254 1.403.56a.403.403 0 01.045.565.422.422 0 01-.586 0 2.085 2.085 0 00-2.048-.2 5.427 5.427 0 00-1.938 1.739.44.44 0 01-.253.174z" fill="#fff"/><path d="M146.318 239.596a120.667 120.667 0 0057.912 0c.054-5.332 0-23.205-.415-41.644 0-.965-.045-1.948-.063-2.922v-8.655l-.054-1.461v-1.461c0-.478 0-.939-.045-1.4 0-.983-.055-1.966-.1-2.923-.55-15.238-1.379-27.719-2.615-29.363-2.876-3.801-15.979-9.437-20.001-12.176v.608s-2.516 3.21-5.348 2.975c-2.579-.209-4.509-3.088-4.878-3.61-2.002 1.366-6.619 3.558-11.092 5.906-4.473 2.348-8.82 4.819-10.253 6.723-1.227 1.644-1.948 13.917-2.363 28.92v18.848c-.848 18.378-.767 36.26-.685 41.635z" fill="#941759"/><path d="M185.644 178.268l-.722 5.827h5.799v6.958h-6.692l-.811 6.332h-7.674l.82-6.332h-4.752l-.812 6.332h-7.665l.812-6.332h-5.799v-6.958h6.71l.721-5.827h-5.798v-6.958h6.709l.811-6.332h7.666l-.812 6.332h4.743l.821-6.332h7.665l-.812 6.332h5.799v6.958h-6.727zm-7.674 0h-4.762l-.721 5.827h4.752l.731-5.827zm-25.411-6.923c-1.66 2.166-4.086 7.063-5.177 9.333l-.36.765c-.127.261-.19.417-.199.426a.452.452 0 01-.153.183v-2.001l.784-1.6a56.197 56.197 0 014.338-7.584.46.46 0 01.599-.056c.09.064.151.157.174.262a.42.42 0 01-.052.307l.046-.035zm37.007-16.784c-6.22-.246-12.221-2.288-17.224-5.862a30.13 30.13 0 01-6.087-5.532.436.436 0 01-.078-.324.444.444 0 01.178-.285.465.465 0 01.622.096c.081.104 8.368 10.602 22.616 11.046a.46.46 0 01.319.127.424.424 0 010 .615.457.457 0 01-.319.128l-.027-.009zm-25.869 70.534a.462.462 0 01-.307-.115.426.426 0 01-.124-.453.428.428 0 01.225-.25.454.454 0 01.17-.043c12.624-.8 20.118-6.958 24.203-11.985a32.885 32.885 0 005.934-10.864.455.455 0 01.378-.337.48.48 0 01.345.08.441.441 0 01.179.466 33.074 33.074 0 01-6.069 11.159c-4.203 5.219-11.922 11.524-24.871 12.342h-.063z" fill="#AFDD44"/><path d="M170.505 217.38a.46.46 0 01-.452-.216.43.43 0 01-.045-.333.44.44 0 01.38-.32c10.948-2.853 13.067-11.673 13.085-11.76a.443.443 0 01.199-.28.474.474 0 01.638.129.43.43 0 01.065.334 15.263 15.263 0 01-2.516 5.088c-2.715 3.649-6.689 6.245-11.209 7.324l-.145.034z" fill="#AFDD44"/><path d="M218.417 238.826c-.28 3.783-2.633 6.592-2.642 9.08-.009 2.487-2.994.87-1.615-4.053 1.38-4.923-.667-9.672-1.758-9.628-1.091.043.352 5.54-.794 7.358-1.145 1.818-2.02-2.001-3.021-4.349-1.001-2.348-.46-7.558.487-11.159.947-3.601-3.706-26.389-3.093-32.807l-1.677-8.333-.983-4.862-.18-5.07 8.954-3.427 1.019 5.018c.154.748.307 1.496.451 2.253 1.2 6.088 2.273 12.055 2.706 15.89 1.208 10.611-.785 32.26-.785 32.26s3.183 8.289 2.931 11.829z" fill="#FDA893"/><path d="M213.565 178.825c-2.02 2.218-5.248 5.053-9.261 6.088l-.983-4.862-.18-5.07 8.954-3.427 1.019 5.018c.154.748.307 1.496.451 2.253z" fill="#FF877C"/><path d="M216.054 174.004a18.832 18.832 0 01-2.939 2.565 17.187 17.187 0 01-9.785 3.479c-.487-14.064-1.217-25.945-2.281-29.432 1.921 2.252 10.938 13.324 15.005 23.388z" fill="#941759"/><path d="M197.188 169.927c1.66 2.157 4.086 7.062 5.177 9.323l.36.774c.127.261.19.409.199.418a.447.447 0 00.406.261v-.661h.396l-.414-.87c-.262-.548-.623-1.305-1.056-2.166a55.6 55.6 0 00-4.337-7.584.452.452 0 00-.486-.206.447.447 0 00-.353.383.429.429 0 00.118.336l-.01-.008z" fill="#AFDD44"/><path d="M189.189 110.468s.902-5.479-.451-7.349-3.607-1.305-6.033-3.479c-2.426-2.174-9.721-.096-12.931-.652-1.804-.314-3.607-.079-5.411-.418-2.462-.487-3.787 1.879-3.192 4.21.378 1.478 1.154 3.705 3.372 4.288.045.078 21.345-3.714 24.646 3.4z" fill="#3B3D42"/><path d="M189.676 114.85c0 7.933-5.068 13.403-13.292 13.403s-13.995-5.879-13.995-13.811c0-7.933 4.869-13.916 13.093-13.916 9.902-.035 14.194 6.392 14.194 14.324z" fill="#3B3D42"/><path d="M187.829 118.266s2.282-2.94 3.986-.513c1.704 2.426-.703 9.611-4.87 7.828l.884-7.315z" fill="#FF877C"/><path d="M187.854 123.391a.354.354 0 00.209-.067.33.33 0 00.124-.177c.251-.7.653-1.34 1.18-1.879a5.417 5.417 0 011.877-1.243.343.343 0 00.195-.177.323.323 0 00.004-.258.324.324 0 00-.07-.115.351.351 0 00-.381-.085 6.086 6.086 0 00-2.147 1.419 5.817 5.817 0 00-1.334 2.155.333.333 0 00.032.258.355.355 0 00.211.16l.1.009z" fill="#F25B56"/><path d="M190.251 122.274a.345.345 0 00.19-.052.34.34 0 00.159-.212.319.319 0 00-.051-.257 3.255 3.255 0 00-1.316-1.027.374.374 0 00-.273-.008.338.338 0 00-.227.311.32.32 0 00.098.241.33.33 0 00.113.074c.4.174.749.44 1.019.774a.332.332 0 00.288.156z" fill="#F25B56"/><path d="M164.273 118.266s-2.29-2.94-3.985-.513c-1.696 2.426.703 9.611 4.86 7.828l-.875-7.315z" fill="#FF877C"/><path d="M164.238 123.392a.347.347 0 01-.209-.067.326.326 0 01-.124-.177 5.202 5.202 0 00-1.176-1.877 5.425 5.425 0 00-1.872-1.245.346.346 0 01-.181-.178.328.328 0 01-.006-.25.358.358 0 01.43-.207c.815.317 1.548.8 2.149 1.418a5.786 5.786 0 011.332 2.157.326.326 0 01-.032.257.352.352 0 01-.211.16l-.1.009z" fill="#F25B56"/><path d="M161.837 122.274a.36.36 0 01-.309-.175.327.327 0 01.012-.346 3.241 3.241 0 011.316-1.027.373.373 0 01.272-.008.374.374 0 01.118.072.37.37 0 01.079.11.326.326 0 01-.181.444 2.553 2.553 0 00-1.009.774.355.355 0 01-.298.156z" fill="#F25B56"/><path d="M170.422 131.701v7.132s2.2 3.636 5.185 3.888c2.985.252 5.636-3.131 5.636-3.131v-7.393l-10.821-.496z" fill="#FDA893"/><path d="M170.422 131.701v3.166c2.002 2.14 5.555 2.679 10.821 1.931v-4.601l-10.821-.496z" fill="#FF877C"/><path d="M189.035 118.128c0 .418-.063.87-.108 1.262a41.665 41.665 0 01-.46 3.235v.113c-1.001 5.262-3.229 10.437-8.044 12.098-10.912 3.758-14.807-5.262-16.367-10.524a21.026 21.026 0 01-.46-1.931v-.086a36.566 36.566 0 01-.397-2.462 59.972 59.972 0 01-.216-1.922 88.175 88.175 0 01-.334-4.549 7.237 7.237 0 011.246-4.409 7.66 7.66 0 013.687-2.871c4.509-1.661 11.272-2.974 17.711.548a7.621 7.621 0 012.831 2.67 7.255 7.255 0 011.091 3.671c-.009 1.452-.036 3.235-.18 5.157z" fill="#FDA893"/><path d="M180.668 118.681c0 .757.406 1.383.902 1.383.495 0 .901-.626.901-1.383 0-.756-.406-1.382-.901-1.382-.496 0-.902.617-.902 1.382zm-11.154 0c0 .757.405 1.383.901 1.383s.902-.626.902-1.383c0-.756-.406-1.382-.902-1.382s-.901.617-.901 1.382zm-1.868-4.575s2.877-1.096 5.087-.174l-.226 1.182s-3.237-.261-4.879.374a2.026 2.026 0 01.018-1.382zm17.026 0s-2.877-1.096-5.086-.174l.225 1.182s3.238-.261 4.879.374c.156-.449.15-.937-.018-1.382z" fill="#3B3D42"/><path d="M175.689 124.663a3.81 3.81 0 001.298-.113.35.35 0 00.212-.16.33.33 0 00-.134-.461.364.364 0 00-.267-.031 2.187 2.187 0 01-1.416 0 .364.364 0 01-.126-.339 48.63 48.63 0 01.902-5.123.336.336 0 00-.046-.259.345.345 0 00-.225-.15.373.373 0 00-.263.054.346.346 0 00-.151.216 46.415 46.415 0 00-.902 5.218.988.988 0 00.087.482c.07.152.176.285.31.388.211.152.459.248.721.278z" fill="#FF877C"/><path d="M180.494 126.702c-.288 1.392-1.244 3.958-4.508 3.958-3.265 0-4.131-2.349-4.437-3.958h8.945z" fill="#fff"/><path d="M162.983 118.328h1.596a10.89 10.89 0 01.902-4.653c1.091-2.818-1.226-4.062.649-5.471 1.876-1.409 6.538-.808 9.785-.913a74.476 74.476 0 019.784.226c1.271.287.577 2.331.108 3.914-.469 1.583 1.56 3.331 1.903 4.967.091.64.091 1.29 0 1.93h1.335c.153-2 .18-3.853.144-5.357a7.247 7.247 0 00-1.084-3.672 7.585 7.585 0 00-2.83-2.669c-6.439-3.522-13.238-2.209-17.711-.548a7.655 7.655 0 00-3.687 2.876 7.233 7.233 0 00-1.245 4.413c.063 1.513.18 3.244.351 4.957z" fill="#3B3D42"/><path d="M170.126 123.401a4.304 4.304 0 01-2.332-.677 4.07 4.07 0 01-1.548-1.813 3.918 3.918 0 01-.243-2.338 4.007 4.007 0 011.146-2.073 4.247 4.247 0 012.147-1.109 4.334 4.334 0 012.424.229 4.162 4.162 0 011.883 1.489c.461.665.707 1.448.707 2.248 0 1.071-.44 2.098-1.225 2.857a4.27 4.27 0 01-2.959 1.187zm0-7.454a3.648 3.648 0 00-1.976.575 3.457 3.457 0 00-1.309 1.54 3.3 3.3 0 00-.197 1.981c.139.665.48 1.275.98 1.752.5.477 1.136.8 1.826.928a3.673 3.673 0 002.053-.211 3.513 3.513 0 001.582-1.278 3.327 3.327 0 00.576-1.912 3.36 3.36 0 00-1.051-2.386 3.615 3.615 0 00-2.484-.989zm11.442 7.454c-.829 0-1.64-.237-2.329-.681a4.085 4.085 0 01-1.545-1.815 3.914 3.914 0 01-.238-2.337 3.999 3.999 0 011.147-2.071 4.244 4.244 0 012.147-1.107 4.338 4.338 0 012.423.23 4.168 4.168 0 011.882 1.49c.461.665.707 1.447.707 2.247a3.972 3.972 0 01-1.229 2.86 4.274 4.274 0 01-2.965 1.184zm0-7.454a3.63 3.63 0 00-1.973.58 3.444 3.444 0 00-1.305 1.541 3.308 3.308 0 00-.194 1.981c.14.664.483 1.273.983 1.749a3.59 3.59 0 001.826.925c.69.127 1.404.053 2.051-.212a3.51 3.51 0 001.581-1.278 3.33 3.33 0 00.575-1.911 3.359 3.359 0 00-1.054-2.389 3.615 3.615 0 00-2.49-.986z" fill="#fff"/><path d="M166.645 118.063a.333.333 0 01-.235-.096 5.19 5.19 0 00-2.058-1.122 5.316 5.316 0 00-2.36-.113.338.338 0 01-.245-.04.314.314 0 01-.143-.195.305.305 0 01.126-.332.35.35 0 01.117-.051 5.942 5.942 0 012.688.119 5.787 5.787 0 012.335 1.29.31.31 0 01.096.222.31.31 0 01-.096.222.33.33 0 01-.225.096zm18.486.005a.309.309 0 01-.271-.148.307.307 0 01-.045-.234.32.32 0 01.135-.2c.126-.079 3.093-1.923 5.618-1.523a.338.338 0 01.179.14.316.316 0 01-.071.41.34.34 0 01-.216.077c-2.272-.366-5.122 1.409-5.149 1.426a.337.337 0 01-.18.052zm-7.52.389a2.564 2.564 0 00-.791-.691 2.682 2.682 0 00-1.012-.327 2.45 2.45 0 00-.963.331c-.292.175-.542.41-.732.687l-.551-.348c.252-.368.586-.676.978-.902a3.135 3.135 0 011.286-.403c.462.041.91.177 1.313.4.402.222.751.524 1.023.887l-.551.366z" fill="#fff"/><path d="M381.256 364.208c34.512 0 62.489-2.131 62.489-4.758 0-2.628-27.977-4.759-62.489-4.759-34.511 0-62.488 2.131-62.488 4.759 0 2.627 27.977 4.758 62.488 4.758z" fill="#76838F"/><path d="M336.943 358.675h44.187c-.004-2.098-.87-4.108-2.408-5.592-1.538-1.483-3.623-2.318-5.798-2.323h-.081s-9.378-1.183-9.378-8.567v-44.071h-8.856v44.071c0 7.384-9.378 8.567-9.378 8.567h-.081a8.368 8.368 0 00-5.8 2.321c-1.539 1.484-2.404 3.495-2.407 5.594z" fill="#AFDD44"/><path d="M354.611 298.122v1.748l8.856 2.54v-4.288h-8.856z" fill="#023386"/><path d="M316.59 298.122h84.983c-.675-3.626-2.654-6.908-5.59-9.265-2.936-2.358-6.641-3.641-10.461-3.624l-26.44.069-26.441-.069c-3.82-.017-7.524 1.266-10.46 3.624-2.937 2.357-4.916 5.639-5.591 9.265zm55.444-95.899c2.218 7.914 13.409 28.528 17.756 31.485 5.654 3.844 23.383 11.063 32.608 14.742 1.668.67-4.509 7.689-4.509 7.689s-23.852-5.845-33.573-11.829c-2.705-1.696-8.702-7.445-16.232-18.969-2.281-3.479-7.575-10.437-8.17-15.395-.685-5.706 5.988-9.628 12.12-7.723z" fill="#941759"/><path d="M398.654 339.51l-.306 8.61s2.2 1.583 6.763.792l1.867-9.254-8.324-.148z" fill="#FDA893"/><path d="M404.181 347.8s1.551-2.071 2.814-2.001c1.262.07 11.083 7.384 14.428 7.95 3.346.565 3.174 4.575 1.858 5.027-1.488.513-26.152.069-26.152.069s-.901-8.462-.117-10.75c.785-2.287 4.572.279 7.169-.295z" fill="#76838F"/><path d="M409.628 352.918a.503.503 0 01-.37 0 .446.446 0 01-.237-.443.416.416 0 01.057-.166 7 7 0 012.389-2.47 3.309 3.309 0 013.301.104.445.445 0 01.006.793.474.474 0 01-.388.031.474.474 0 01-.168-.102 2.356 2.356 0 00-1.159-.303c-.407 0-.807.104-1.159.303a6.179 6.179 0 00-2.011 2.114.45.45 0 01-.261.139z" fill="#fff"/><path d="M408.221 351.672a.5.5 0 01-.369 0 .444.444 0 01-.237-.442.435.435 0 01.056-.167 6.917 6.917 0 012.39-2.478 3.326 3.326 0 013.301.104.436.436 0 01.099.626.45.45 0 01-.484.181.457.457 0 01-.166-.076 2.35 2.35 0 00-2.317 0 6.095 6.095 0 00-2.011 2.113.444.444 0 01-.262.139zm3.302 2.242a.468.468 0 01-.361 0 .455.455 0 01-.224-.267.433.433 0 01.035-.341 7.062 7.062 0 012.389-2.471 3.297 3.297 0 013.301.105.433.433 0 01.195.29.423.423 0 01-.087.336.46.46 0 01-.304.179.46.46 0 01-.345-.083 2.373 2.373 0 00-2.327 0 6.177 6.177 0 00-2.002 2.113.448.448 0 01-.27.139z" fill="#fff"/><path d="M375.352 266.142s34.547-5.497 44.918.765c7.872 4.758-12.4 74.93-12.4 74.93-3.607 1.079-8.621-.426-10.578-2.322 0 0-3.183-8.28-.261-32.234.388-3.183 0-10.437 3.517-23.309l-26.296-11.203 1.1-6.627z" fill="#3B3D42"/><path d="M344.592 192.132s-9.568 3.018-14.69 7.349c-5.122 4.332-.839 17.274-.965 24.615-.126 7.34 1.181 49.976 12.003 55.334 8.242 4.044 42.915-2.096 40.381-12.994a345.359 345.359 0 01-7.106-38.6c-1.461-11.89-.847-20.675-2.218-25.615-1.371-4.94-17.404-10.594-17.404-10.594l-10.001.505z" fill="#F7B614"/><path d="M351.762 200.919c-4.987 0-9.595-5.114-9.793-5.34a.328.328 0 01-.053-.377.344.344 0 01.205-.172.382.382 0 01.138-.016.388.388 0 01.134.037.37.37 0 01.108.084c.054.052 4.869 5.419 9.694 5.097a.354.354 0 01.257.081.341.341 0 01.122.232.355.355 0 01-.092.246.372.372 0 01-.242.119l-.478.009zm-4.358 57.571a.356.356 0 01-.248-.1.332.332 0 010-.48.36.36 0 01.248-.099c12.896-1.435 18.234-22.962 18.288-23.179a.356.356 0 01.158-.211.37.37 0 01.266-.041.351.351 0 01.267.276.35.35 0 01-.005.133c-.217.869-5.51 22.213-18.892 23.701h-.082z" fill="#941759"/><path d="M352.546 251.963a.364.364 0 01-.171-.046.345.345 0 01-.126-.12.323.323 0 01-.047-.256.345.345 0 01.055-.122.363.363 0 01.1-.091c6.863-4.071 7.882-10.09 7.891-10.15a.325.325 0 01.137-.22.347.347 0 01.259-.059.359.359 0 01.231.132.33.33 0 01.067.251c0 .261-1.064 6.375-8.215 10.628a.33.33 0 01-.181.053z" fill="#941759"/><path d="M362.743 180.189c6.399-4.366 7.918-12.908 3.391-19.081-4.526-6.172-13.384-7.636-19.783-3.271-6.4 4.366-7.918 12.909-3.391 19.081 4.526 6.172 13.383 7.637 19.783 3.271z" fill="#3B3D42"/><path d="M367.092 169.679s4.13-.374 4.284-4.149c.135-3.218-4.058-1.835-3.274-4.227.785-2.392 1.939-4.505-1.235-5.679-2.778-1.027-3.175.87-6.448-2.531-3.869-4.027-8.684 2.94-12.706 2.487-5.943-.669-7.268 2.41-8.314 4.88-1.047 2.47.901 4.653.901 4.653l26.792 4.566z" fill="#3B3D42"/><path d="M363.863 175.48s2.705-2.461 3.932.165c1.226 2.627-2.381 9.15-6.078 6.776l2.146-6.941z" fill="#FF877C"/><path d="M362.979 180.423a.335.335 0 00.37-.182 5.2 5.2 0 011.471-1.614 5.413 5.413 0 012.028-.891.353.353 0 00.217-.143.331.331 0 00.053-.248.336.336 0 00-.145-.215.363.363 0 00-.261-.055 6.066 6.066 0 00-2.315 1.02 5.803 5.803 0 00-1.661 1.859.312.312 0 00-.015.254.333.333 0 00.177.189.14.14 0 00.081.026z" fill="#F25B56"/><path d="M365.494 179.752a.39.39 0 00.198 0 .332.332 0 00.209-.309.325.325 0 00-.028-.126 3.042 3.042 0 00-1.091-1.2.355.355 0 00-.478.087.322.322 0 00.09.461c.358.23.649.544.848.913a.34.34 0 00.252.174z" fill="#F25B56"/><path d="M345.503 185.706l-1.263 6.879s2.381 3.54 5.213 4.271c2.831.731 5.185-2.27 5.185-2.27l1.217-6.619-10.352-2.261z" fill="#FDA893"/><path d="M345.504 185.706l-.559 3.052c1.551 2.401 4.888 3.479 10.1 3.645l.812-4.436-10.353-2.261z" fill="#FF877C"/><path d="M341.218 166.74a67.297 67.297 0 00-.667 8.854c0 .687.045 1.349.108 1.931.568 5.332 2.705 14.673 13.914 12.838 4.942-.809 8.008-5.427 9.92-10.342a48.205 48.205 0 002.426-9.297 7.046 7.046 0 00-.401-3.72 7.3 7.3 0 00-2.259-3.038c-5.583-4.453-12.364-4.297-16.972-3.479a7.624 7.624 0 00-4.089 2.174 7.175 7.175 0 00-1.98 4.079z" fill="#FDA893"/><path d="M346.441 180.87l6.042 1.052 5.131.87s-2.543-3.035-5.031-1.983c0-.009-2.183-2.053-6.142.061zm11.967-5.39c-.135.73.154 1.391.64 1.478.487.087.983-.443 1.118-1.182.136-.74-.153-1.4-.631-1.479-.478-.078-.991.444-1.127 1.183zm-10.253-1.763c-.135.739.144 1.4.631 1.487.487.087.983-.452 1.118-1.182.135-.731-.144-1.4-.631-1.479-.487-.078-.992.444-1.118 1.174zm14.734-1.695s-3.399-2.009-6.42-1.322v1.296a12.483 12.483 0 015.951 1.444c.289-.548.596-.783.469-1.418zm-16.701-2.845s3.905-.774 6.502.87l-.469 1.218a12.422 12.422 0 00-6.096-.609c-.081-.6-.288-.887.063-1.479z" fill="#3B3D42"/><path d="M352.591 179.881a3.964 3.964 0 01-1.181-.452.338.338 0 01-.153-.209.321.321 0 01.044-.252.327.327 0 01.094-.095.364.364 0 01.258-.057.368.368 0 01.126.047c.28.174.983.487 1.335.357a.364.364 0 00.152-.11.334.334 0 00.073-.169c.329-1.668.567-3.352.713-5.044a.316.316 0 01.125-.224.35.35 0 01.254-.072.34.34 0 01.231.116.307.307 0 01.075.241 47.655 47.655 0 01-.739 5.166.972.972 0 01-.226.436 1.02 1.02 0 01-.414.277c-.247.08-.512.095-.767.044z" fill="#FF877C"/><path d="M356.497 182.607c-.532 1.296-1.903 3.609-5.005 3.087-3.102-.522-3.607-2.939-3.607-4.548l8.612 1.461z" fill="#fff"/><path d="M351.219 187.41a3.66 3.66 0 01-1.569-.731.334.334 0 01-.075-.107.332.332 0 010-.255.334.334 0 01.075-.107.36.36 0 01.487 0c.359.284.782.481 1.236.574.438.061.885.013 1.298-.139a.364.364 0 01.266.006.342.342 0 01.185.185.318.318 0 01-.008.253.337.337 0 01-.19.173 3.464 3.464 0 01-1.705.148z" fill="#FF877C"/><path d="M363.809 177.72a13.543 13.543 0 001.055-3.931c0-1.635-1.227-2.792-.496-4.236.73-1.444-.631-3.375-1.804-3.853-1.172-.478-4.157-.383-6.745-2.157s-7.323-1.609-8.396-.078c-1.289 1.87-.072 2.27-2.994 4.027-1.163.704-.387 3.166-.486 4.67a9.304 9.304 0 01-.253 1.74l-.081.374-3.021-.522c.09-2.34.361-4.888.64-7.01a7.176 7.176 0 011.981-4.046 7.628 7.628 0 014.061-2.164c4.608-.87 11.39-1.018 16.981 3.479a7.308 7.308 0 012.255 3.039 7.061 7.061 0 01.396 3.719 51.36 51.36 0 01-1.696 7.227l-1.397-.278z" fill="#3B3D42"/><path d="M341.69 175.244a11.6 11.6 0 00.234-2.305c0-1.053-.135-2.035-1.145-2.609a1.928 1.928 0 00-1.332-.407 1.914 1.914 0 00-1.256.589c-2.074 2.062-1.578 9.663 2.705 8.654l.794-3.922z" fill="#FDA893"/><path d="M340.546 176.866a.334.334 0 01-.169-.133.313.313 0 01-.048-.206 4.962 4.962 0 00-.385-2.116 5.142 5.142 0 00-1.247-1.781.334.334 0 01-.075-.107.332.332 0 010-.255.334.334 0 01.075-.107.338.338 0 01.478 0 5.7 5.7 0 011.437 2.029c.321.769.465 1.596.421 2.424a.323.323 0 01-.126.224.356.356 0 01-.253.072l-.108-.044z" fill="#FF877C"/><path d="M338.768 174.989a.281.281 0 01-.153-.113.304.304 0 01-.059-.116.296.296 0 01-.007-.129.302.302 0 01.046-.122.33.33 0 01.092-.094 3.226 3.226 0 011.587-.487.347.347 0 01.361.313.337.337 0 01-.094.24.353.353 0 01-.24.108 2.405 2.405 0 00-1.163.4.365.365 0 01-.37 0z" fill="#FF877C"/><path d="M379.338 339.51l-.307 8.61s2.21 1.583 6.773.792l1.857-9.254-8.323-.148z" fill="#FDA893"/><path d="M384.83 347.8s1.56-2.071 2.813-2.001c1.254.07 11.083 7.384 14.429 7.95 3.345.565 3.174 4.575 1.866 5.027-1.497.513-26.151.069-26.151.069s-.902-8.462-.127-10.75c.776-2.287 4.572.279 7.17-.295z" fill="#76838F"/><path d="M390.277 352.918a.503.503 0 01-.37 0 .456.456 0 01-.219-.269.435.435 0 01.039-.34 7.068 7.068 0 012.389-2.47 3.309 3.309 0 013.301.104.434.434 0 01-.028.74.475.475 0 01-.513-.018 2.382 2.382 0 00-2.327 0 6.18 6.18 0 00-2.002 2.114.492.492 0 01-.27.139z" fill="#fff"/><path d="M388.87 351.672a.503.503 0 01-.37 0 .446.446 0 01-.237-.442.436.436 0 01.057-.167 7.005 7.005 0 012.389-2.478 3.33 3.33 0 013.301.104.439.439 0 01.108.626.462.462 0 01-.484.178.454.454 0 01-.165-.073 2.385 2.385 0 00-2.327 0 6.177 6.177 0 00-2.002 2.113.492.492 0 01-.27.139zm3.301 2.245a.479.479 0 01-.5-.143.428.428 0 01-.041-.501 6.911 6.911 0 012.39-2.47 3.305 3.305 0 013.3.104.458.458 0 01.235.299.431.431 0 01-.08.367.458.458 0 01-.149.127.498.498 0 01-.387.031.478.478 0 01-.169-.102 2.351 2.351 0 00-2.317 0 6.17 6.17 0 00-2.011 2.114.41.41 0 01-.271.174z" fill="#fff"/><path d="M333.672 266.939s59.905-3.175 70.194 0c8.846 2.713-15.33 74.93-15.33 74.93-3.607 1.078-8.63-.426-10.587-2.323 0 0-1.804-4.348 1.091-28.267a141.958 141.958 0 014.283-26.006l-39.678.174c-8.522 0-11.209-6.958-10.316-15.09l.343-3.418z" fill="#3B3D42"/><path d="M391.386 249.224s9.018 1.47 12.779 4.505c3.76 3.036 8.81 5.637 8.052 7.202-.757 1.566-6.059-1.739-6.059-1.739s-1.263 2.818-5.61 4.044c-4.346 1.226-13.616-6.001-13.616-6.001l4.454-8.011z" fill="#FDA893"/><path d="M331.923 197.974c5.032 7.358 24.285 32.781 28.632 35.739 5.654 3.844 21.48 11.837 30.66 15.516 1.669.67-3.688 8.228-3.688 8.228s-22.761-7.158-32.464-13.142c-2.705-1.696-14.185-12.742-21.471-22.544-2.498-3.358-6.565-8.019-7.151-12.977-.632-5.706 1.226-8.759 5.482-10.82z" fill="#941759"/><path d="M378.573 266.901h45.901c1.15 0 2.083-.899 2.083-2.009v-2.279c0-1.109-.933-2.009-2.083-2.009h-45.901c-1.15 0-2.083.9-2.083 2.009v2.279c0 1.11.933 2.009 2.083 2.009z" fill="#AFDD44"/><path d="M434.979 266.906l10.19-36.79a3.153 3.153 0 00-.581-2.823 3.342 3.342 0 00-1.183-.938 3.47 3.47 0 00-1.492-.336h-22.418a3.478 3.478 0 00-2.04.662 3.264 3.264 0 00-1.215 1.712l-11.219 38.513h29.958z" fill="#941759"/><path d="M416.239 228.393l-11.119 38.2h-2.561l11.119-38.2a3.264 3.264 0 011.215-1.712 3.478 3.478 0 012.04-.662h2.561a3.478 3.478 0 00-2.04.662 3.264 3.264 0 00-1.215 1.712zm5.76 19.714a3.266 3.266 0 00-.107 1.606c.099.535.331 1.04.675 1.471.344.431.791.776 1.303 1.005a3.618 3.618 0 001.637.31 6.215 6.215 0 003.553-1.307 5.852 5.852 0 002.056-3.085 3.267 3.267 0 00.106-1.603 3.327 3.327 0 00-.672-1.471 3.497 3.497 0 00-1.3-1.005 3.614 3.614 0 00-1.633-.313 6.233 6.233 0 00-3.558 1.305 5.865 5.865 0 00-2.06 3.087z" fill="#AFDD44"/><path d="M300.748 24.521c.198-.435.388-.87.55-1.305 2.435-6.41 2.705-19.57-12.462-22.674 0 0-12.481-2.818-18.036 8.019 0 0-2.498 5.018-4.274 8.698 0 0-1.488 7.654-9.018 8.332-7.53.678-11.669 3.479-10.948 8.802.722 5.323-.433 4.505-5.618 9.028-5.185 4.523-8.81 12.994-4.337 18.56 4.472 5.567 21.218-7.61 31.941-1.739 10.722 5.871 28.721 4.175 30.813-4.21 2.092-8.384-6.312-13.916-5.843-18.16.469-4.245 5.879-9.263 7.232-13.35z" fill="#3B3D42"/><path d="M291.279 43.365l13.157 34.895h-10.695l-7.954-14.934s.821-17.56 5.492-19.961z" fill="#8EB438"/><path d="M307.447 77.05s.902 3.835 2.489 4.887c1.587 1.053 1.173-4.305 1.173-4.305s.532 6.47 2.155 6.645c1.623.174 1.298-6.088 1.298-6.088s1.055 4.348 2.282 4.583c1.226.235 1.19-4.349 1.19-4.349s1.19 3.358 2.101 3.645c.911.287 1.353-3.601.839-5.584-.514-1.983-3.066-.774-3.066-.774s-2.417-.679-3.256.13c0 0-2.164-.87-3.381-.322 0-.052-3.544-1.035-3.824 1.531z" fill="#FDA893"/><path d="M286.012 78.27c-.099-4.948-.333-1.739.559-7.766 0-.235.064-.47.091-.714.027-.243.162-.27.234-.4a22.085 22.085 0 002.579-5.41c1.488-5.392.379-8.81 0-12.176.325-1.566 1.47-6.854 1.804-8.41l-7.215-2.662-1.442-.557h-.091l-1.524-.574h-.117a26.605 26.605 0 00-10.821-1.627l-.722.061-2.705.227h-.108l-1.804.147-10.181.87-.748 39.07 32.211-.079z" fill="#8EB438"/><path d="M264.723 38.33c3.327 6.453 11.461 13.672 15.627 11.411 2.571-1.366 3.608-5.853 3.77-9.08l-1.497-.487h-.09l-1.524-.566h-.117a26.608 26.608 0 00-10.822-1.626l-.37.052h-.351l-2.706.191h-.108l-1.812.105z" fill="#FDA893"/><path d="M286.661 69.796c0 .243-.063.478-.09.713-1.803.365-7.304 1.113-16.719-1.061a68.302 68.302 0 01-3.868-1 .526.526 0 01-.333-.238.482.482 0 01-.049-.397.52.52 0 01.47-.36.538.538 0 01.209.03c13.59 3.887 20.525 1.939 20.597 1.921l-.217.392z" fill="#CB2242"/><path d="M295.571 23.588s2.993-1.809 3.76.8c.766 2.61-3.688 8.028-6.89 5.219l3.13-6.019z" fill="#FF877C"/><path d="M294.282 29.737a.678.678 0 00-.025.413c.035.137.111.26.219.356a.746.746 0 001.125-.173.689.689 0 00-.063-.788.73.73 0 00-.354-.234.756.756 0 00-.539.04.72.72 0 00-.363.386z" fill="#fff"/><path d="M293.968 28.006a.365.365 0 00.388-.105 5.049 5.049 0 011.678-1.256 5.222 5.222 0 012.064-.483.339.339 0 00.23-.092.31.31 0 00.095-.221.33.33 0 00-.106-.223.352.352 0 00-.237-.09 5.874 5.874 0 00-2.366.54 5.676 5.676 0 00-1.917 1.443.315.315 0 00-.049.113.315.315 0 000 .122.315.315 0 00.139.2l.081.052z" fill="#F25B56"/><path d="M296.491 27.793a.353.353 0 00.189 0 .305.305 0 00.205-.131.29.29 0 00.038-.234 2.935 2.935 0 00-.901-1.296.358.358 0 00-.478 0 .298.298 0 00-.099.218.288.288 0 00.099.217c.308.267.541.605.676.983a.32.32 0 00.097.16.34.34 0 00.174.083z" fill="#F25B56"/><path d="M274.885 30.993l-2.795 7.558s2.633 3.966 5.411 5.218c2.777 1.253 4.923-1.67 4.923-1.67l2.606-7.08-10.145-4.026z" fill="#FDA893"/><path d="M274.614 31.727l-1.118 3.018c1.145 2.696 4.265 4.584 9.541 5.601l1.695-4.592-10.118-4.027z" fill="#FF877C"/><path d="M295.745 26.884a39.92 39.92 0 01-1.145 2.096c-2.706 4.61-7.909 8.802-12.309 8.298-9.505-1.105-10.687-9.02-10.272-14.421.045-.592.568-1.122.686-1.81.279-1.626.279-3.591.766-5.357a99.66 99.66 0 011.046-3.479 7.36 7.36 0 012.613-3.71 7.806 7.806 0 014.358-1.56c4.617-.157 11.2.73 15.799 6.018a7.316 7.316 0 011.638 3.401 7.18 7.18 0 01-.294 3.74 53.066 53.066 0 01-2.886 6.784z" fill="#FDA893"/><path d="M283.613 26.997a.371.371 0 01-.187-.157.352.352 0 01-.047-.235.354.354 0 01.151-.227.38.38 0 01.273-.06l1.244.218-.081-4.706a.34.34 0 01.106-.246.37.37 0 01.51 0 .344.344 0 01.105.246l.091 5.55-2.102-.366-.063-.017z" fill="#FF877C"/><path d="M295.426 17.44c2.876 2.696.324 6.262.757 8.627 0 .157.099.21.208.174a54.585 54.585 0 002.948-6.958c.43-1.24.518-2.566.256-3.848a7.416 7.416 0 00-1.753-3.466c-4.887-5.462-11.813-6.445-16.664-6.332a7.973 7.973 0 00-4.495 1.542 7.523 7.523 0 00-2.72 3.78 105.962 105.962 0 00-1.055 3.567c.451.522 1.804 1.148 1.515 2.052-.712 2.392-1.181 4.036-.622 4.07.902.053 2.516-2.608 2.218-4.757 0 0 1.245-.965 4.879-1.052a68.26 68.26 0 009.46-1.01 7.975 7.975 0 002.786-1.121 7.328 7.328 0 002.282 4.731z" fill="#3B3D42"/><path d="M289.863 23.128c-.262.721-.1 1.443.378 1.608.478.165 1.082-.287 1.353-1.008.27-.722.099-1.453-.379-1.618-.478-.165-1.082.296-1.352 1.018zm-9.856-3.397c-.27.722-.099 1.443.379 1.609.478.165 1.082-.287 1.343-1.018.262-.73.099-1.443-.378-1.608-.478-.165-1.082.287-1.344 1.017zm14.113.492a18.064 18.064 0 00-3.49-1.54.668.668 0 00-.764.143.612.612 0 00-.138.231c-.011.14.033.28.123.391a.59.59 0 00.364.21 20.643 20.643 0 014.825 2 .635.635 0 00-.09-.618 2.12 2.12 0 00-.83-.817zm-13.975-4.643c1.271.157 2.52.449 3.724.87a.64.64 0 01.415.311.596.596 0 01.027.506.593.593 0 01-.766.174 20.808 20.808 0 00-5.068-1.33c0-.192.216-.33.45-.435a2.27 2.27 0 011.218-.096z" fill="#3B3D42"/><path d="M286.672 30.26a4.064 4.064 0 01-2.186 1.915 4.255 4.255 0 01-2.954.007c-2.84-.974-2.913-3.192-2.705-4.627l7.845 2.705z" fill="#fff"/><path d="M280.836 34.188c.561.167 1.155.2 1.732.096a.357.357 0 00.23-.147.325.325 0 00.049-.262.347.347 0 00-.157-.214.37.37 0 00-.266-.047 3.045 3.045 0 01-1.344-.07 3.031 3.031 0 01-1.154-.791.369.369 0 00-.505-.052.345.345 0 00-.054.487c.398.443.903.786 1.469 1z" fill="#FF877C"/><path d="M274.415 16.275s-1.362-3.636-3.535-2.096c-2.174 1.54-2.372 8.21 1.632 7.94l1.903-5.844z" fill="#FDA893"/><path d="M270.285 21.504a.68.68 0 00.041.52.725.725 0 00.401.35.735.735 0 00.539-.03.694.694 0 00.362-.388.686.686 0 00-.044-.518.731.731 0 00-.397-.351.756.756 0 00-.537.036.716.716 0 00-.365.381z" fill="#fff"/><path d="M272.404 20.018a.33.33 0 01-.153-.121.317.317 0 01-.055-.183 4.432 4.432 0 00-.399-1.904 4.6 4.6 0 00-1.179-1.575.298.298 0 01-.01-.405.326.326 0 01.416-.056 5.164 5.164 0 011.356 1.795c.311.687.464 1.43.447 2.18a.295.295 0 01-.212.265.315.315 0 01-.121.013l-.09-.009z" fill="#FF877C"/><path d="M270.78 18.435a.29.29 0 01-.135-.095.294.294 0 01.054-.426 2.842 2.842 0 011.415-.47.321.321 0 01.225.068.29.29 0 01.109.202.298.298 0 01-.077.217.32.32 0 01-.212.104 2.32 2.32 0 00-1.082.357.301.301 0 01-.297.043z" fill="#FF877C"/><path d="M284.968 20.3c.072-.193.1-.398.082-.601a1.432 1.432 0 00-.272-.758 1.503 1.503 0 00-.648-.503l-4.933-1.818a1.524 1.524 0 00-1.145 0c-.196.077-.37.2-.505.357-.123.13-.221.28-.289.443l-.243.61a3.932 3.932 0 00.081 3.13 3.81 3.81 0 002.056 1.966l.135.052a4.43 4.43 0 003.267-.1 4.199 4.199 0 002.243-2.292l.198-.513-.027.026zm-.802.338a3.474 3.474 0 01-.748 1.173 3.606 3.606 0 01-1.162.8 3.717 3.717 0 01-2.797.063h-.118a3.19 3.19 0 01-1.722-1.662 3.364 3.364 0 01-.063-2.661l.243-.609a.889.889 0 01.467-.463.938.938 0 01.67-.024l4.932 1.818a.888.888 0 01.48.45.84.84 0 01.025.646l-.207.47zm11.335 3.172a1.229 1.229 0 00-.072-.6 1.43 1.43 0 00-.35-.534 1.494 1.494 0 00-.552-.337l-4.933-1.817a1.538 1.538 0 00-.854-.068 1.508 1.508 0 00-.751.398c-.138.138-.249.3-.325.478l-.243.6a3.933 3.933 0 00.081 3.132 3.801 3.801 0 002.038 1.983h.135a4.346 4.346 0 003.238-.079c.518-.22.985-.537 1.375-.933.39-.395.695-.861.897-1.371l.199-.514c.056-.107.095-.22.117-.339zm-.902.678a3.465 3.465 0 01-.746 1.175c-.328.34-.722.613-1.161.803a3.718 3.718 0 01-2.8.066h-.117a3.21 3.21 0 01-1.723-1.67 3.364 3.364 0 01-.063-2.662l.244-.609a.884.884 0 01.463-.459c.21-.09.447-.1.664-.028l4.942 1.818a.89.89 0 01.479.45.845.845 0 01.026.646l-.208.47z" fill="#3B3D42"/><path d="M278.006 16.694a7.504 7.504 0 00-3.363-1.94v.627a7.266 7.266 0 012.858 1.67c.117.122.181.2.19.2l.487-.365a1.877 1.877 0 00-.172-.192zm6.744 3.583v-.6a6.577 6.577 0 011.858.365 4.015 4.015 0 011.479.87l-.451.409a3.69 3.69 0 00-1.245-.74 6.32 6.32 0 00-1.641-.304zm12.688 3.079a8.762 8.762 0 00-2.272-.13l.054.591a8.601 8.601 0 012.218.157v-.618z" fill="#3B3D42"/><path d="M239.402 78.082a.93.93 0 00.063.191h22.887c-6.393-2.896-10.947-5.505-11.091-5.54l.126-.548c1.262-3.984 2.236-9.08 3.607-13.047a35.527 35.527 0 002.119-12.803c-.117-2.07-1.704-6.088-2.579-7.105-4.906 1.93-7.214 8.802-9.018 14.516-2.705 8.628-6.529 18.49-6.123 24.353l.009-.017z" fill="#8EB438"/><path d="M280.095 78.313s.199 3.836-1.064 4.888c-1.262 1.053-2.435-4.348-2.435-4.348s1.371 6.47-.207 6.645c-1.578.173-3.093-6.089-3.093-6.089s.225 4.349-.902 4.584c-1.127.235-2.462-4.349-2.462-4.349s-.216 3.349-1.037 3.636c-.82.287-2.407-3.601-2.48-5.584-.072-1.983 2.841-.774 2.841-.774s2.227-.679 3.3.13c0 0 1.903-.87 3.283-.322-.036-.017 3.219-.983 4.256 1.583z" fill="#FDA893"/></svg>