<svg width="527" height="356" fill="none" xmlns="http://www.w3.org/2000/svg"><path opacity=".3" fill-rule="evenodd" clip-rule="evenodd" d="M35.806 145.283c28.133-33.915 83.175-48.68 128.747-71.261 39.995-19.82 75.918-47.318 121.118-52.556 45.895-5.319 85.186 9.688 122.067 24.374 38.21 15.216 74.653 32.744 93.162 61.333 20.339 31.414 37.027 69.367 14.838 105.48-21.86 35.579-80.116 51.562-125.394 74.457-40.572 20.514-78.983 41.857-124.677 51.988-54.195 12.017-112.338 24.574-159.634 11.052-50.42-14.415-86.66-46.806-99.833-85.234-12.895-37.618-1.58-82.039 29.606-119.633z" fill="url(#paint0_linear_5089_42852)"/><path fill-rule="evenodd" clip-rule="evenodd" d="M413.009 316.006a15.285 15.285 0 01-15.305 15.305H141.012a15.285 15.285 0 01-15.305-15.305V145.785a15.286 15.286 0 0115.305-15.306h256.692a15.286 15.286 0 0115.305 15.306v170.221z" fill="#1E0F00"/><path fill-rule="evenodd" clip-rule="evenodd" d="M90.746 314.841v3.729c0 8.08 8.546 14.684 19.034 14.684h319.233c10.489 0 19.035-6.604 19.035-14.684v-3.729H90.746z" fill="#D3D3D3"/><path fill-rule="evenodd" clip-rule="evenodd" d="M136.972 143.298v155.849h263.451V156.273H136.972v-12.975z" fill="#E1E1E1"/><path d="M400.423 143.298H136.972v12.975h263.451v-12.975z" fill="#F6F6F6"/><path fill-rule="evenodd" clip-rule="evenodd" d="M429.246 338.614c-.078 0-.078 0 0 0-.078 0-.078 0 0 0zm.077 0c-.077 0-.077 0 0 0-.077 0-.077 0 0 0zm8.702-2.253c-2.642 1.398-5.594 2.253-8.702 2.253 3.108 0 6.138-.855 8.702-2.253zm.078-.078c0 .078 0 .078 0 0 0 .078 0 .078 0 0zm.077 0s-.077 0-.077.078c0-.078.077-.078.077-.078zm.078-.077c0 .077-.078.077 0 0-.078.077 0 .077 0 0zm.078 0c-.078 0-.078 0 0 0-.078 0-.078 0 0 0zm.077-.078c-.077 0-.077.078 0 0-.077.078-.077 0 0 0z" fill="#535671"/><path fill-rule="evenodd" clip-rule="evenodd" d="M446.183 324.785H92.533c3.03 4.972 9.556 8.391 17.092 8.391h319.622c3.185-.078 6.137-.699 8.701-1.787h.311c3.574-1.632 6.215-3.885 7.924-6.604z" fill="#66646D"/><mask id="a" style="mask-type:alpha" maskUnits="userSpaceOnUse" x="122" y="20" width="185" height="279"><path d="M122.435 20.814h92.145l91.449 278.173H122.435V20.814z" fill="#C4C4C4"/></mask><g filter="url(#filter0_dd_5089_42852)" mask="url(#a)"><path d="M355.701 137.807v111.485c0 6.295-5.101 11.394-11.395 11.394H164.735c-6.293 0-11.394-5.099-11.394-11.394V137.807c0-2.014.52-3.902 1.441-5.542l4.416-4.417 86.823-86.823c4.694-4.694 12.305-4.694 17 0l86.823 86.823 4.417 4.418a11.273 11.273 0 011.44 5.541z" fill="#560A32"/><path d="M340.125 76.857v173.271c0 5.832-4.726 10.564-10.563 10.564h-150.08a10.558 10.558 0 01-10.564-10.564V76.858a10.558 10.558 0 0110.564-10.564h150.079c5.838 0 10.564 4.732 10.564 10.563z" fill="#F2FBDD"/><path d="M260.77 125.367a5.063 5.063 0 01-5.063 5.056h-47.726a5.056 5.056 0 01-5.056-5.056 5.03 5.03 0 011.479-3.578 5.043 5.043 0 013.578-1.479h47.726a5.057 5.057 0 015.062 5.057zm45.346-19.417a5.063 5.063 0 01-5.064 5.057h-93.071a5.057 5.057 0 01-5.056-5.057c0-1.395.563-2.661 1.479-3.578a5.05 5.05 0 013.578-1.486h93.071a5.065 5.065 0 015.063 5.064zm-45.346 67.255a5.062 5.062 0 01-5.063 5.056h-47.726a5.056 5.056 0 01-5.057-5.056 5.049 5.049 0 015.057-5.057h47.727a5.059 5.059 0 015.062 5.057zm45.346-19.416a5.063 5.063 0 01-5.064 5.057h-93.071a5.057 5.057 0 01-5.056-5.057c0-1.395.563-2.661 1.479-3.578a5.048 5.048 0 013.578-1.485h93.071a5.063 5.063 0 015.063 5.063zm-45.346 67.255a5.063 5.063 0 01-5.063 5.056h-47.726a5.057 5.057 0 01-5.057-5.056 5.049 5.049 0 015.057-5.057h47.727a5.059 5.059 0 015.062 5.057zm45.346-19.416a5.062 5.062 0 01-5.064 5.056h-93.071a5.056 5.056 0 01-5.056-5.056c0-1.395.563-2.662 1.479-3.578a5.05 5.05 0 013.578-1.486h93.071a5.065 5.065 0 015.063 5.064z" fill="#A6A6A6"/><path d="M271.111 251.297l-8.09 8.09c-4.694 4.694-12.306 4.694-17 0l-8.09-8.09h33.18z" fill="url(#paint1_linear_5089_42852)"/><path d="M355.701 159.123v111.486c0 6.289-5.101 11.394-11.395 11.394H164.735c-6.293 0-11.394-5.105-11.394-11.394V159.123c0-1.864.447-3.623 1.244-5.177l91.436 91.435c4.694 4.695 12.305 4.695 17 0l91.435-91.435a11.296 11.296 0 011.245 5.177z" fill="#941759"/></g><mask id="b" style="mask-type:alpha" maskUnits="userSpaceOnUse" x="230" y="0" width="185" height="280"><path d="M414.579 279.119H321.74L230.29.946h184.289V279.12z" fill="#C4C4C4"/></mask><g filter="url(#filter1_dd_5089_42852)" mask="url(#b)"><path d="M386.755 114.462v111.485c0 6.295-5.101 11.394-11.395 11.394H195.789c-6.294 0-11.394-5.099-11.394-11.394V114.462c0-2.014.52-3.901 1.44-5.542l4.416-4.417 86.824-86.823c4.694-4.694 12.305-4.694 16.999 0l86.824 86.824 4.416 4.417a11.263 11.263 0 011.441 5.541z" fill="#516425"/><path d="M371.177 53.513v173.271c0 5.832-4.725 10.563-10.563 10.563h-150.08a10.558 10.558 0 01-10.564-10.563V53.513a10.558 10.558 0 0110.564-10.563h150.08c5.838 0 10.563 4.731 10.563 10.563z" fill="#F2FBDD"/><path d="M291.823 102.022a5.062 5.062 0 01-5.062 5.056h-47.726a5.057 5.057 0 01-5.057-5.056 5.03 5.03 0 011.479-3.578 5.044 5.044 0 013.578-1.48h47.726a5.058 5.058 0 015.062 5.058zm45.347-19.416a5.064 5.064 0 01-5.064 5.056h-93.071a5.057 5.057 0 01-5.056-5.056c0-1.395.563-2.662 1.479-3.578a5.05 5.05 0 013.578-1.487h93.071a5.064 5.064 0 015.063 5.065zm-45.347 67.254a5.062 5.062 0 01-5.062 5.056h-47.726a5.057 5.057 0 01-5.057-5.056 5.047 5.047 0 015.057-5.057h47.726a5.059 5.059 0 015.062 5.057zm45.347-19.416a5.064 5.064 0 01-5.064 5.057h-93.071a5.058 5.058 0 01-5.057-5.057c0-1.395.563-2.661 1.479-3.578a5.048 5.048 0 013.578-1.485h93.071a5.065 5.065 0 015.064 5.063zM291.823 197.7a5.062 5.062 0 01-5.062 5.056h-47.726a5.057 5.057 0 01-5.057-5.056 5.03 5.03 0 011.479-3.578 5.043 5.043 0 013.578-1.479h47.726a5.057 5.057 0 015.062 5.057zm45.347-19.417a5.063 5.063 0 01-5.064 5.057h-93.071a5.057 5.057 0 01-5.057-5.057c0-1.395.563-2.661 1.479-3.578a5.048 5.048 0 013.578-1.485h93.071a5.064 5.064 0 015.064 5.063z" fill="#A6A6A6"/><path d="M302.163 227.952l-8.09 8.09c-4.694 4.694-12.305 4.694-17 0l-8.09-8.09h33.18z" fill="url(#paint2_linear_5089_42852)"/><path d="M386.754 135.779v111.485c0 6.289-5.101 11.394-11.395 11.394H195.788c-6.294 0-11.394-5.105-11.394-11.394V135.779c0-1.865.447-3.624 1.244-5.178l91.436 91.435c4.694 4.695 12.305 4.695 16.999 0l91.436-91.435a11.297 11.297 0 011.245 5.178z" fill="#81A332"/></g><path d="M191.237 52.227h-11.2l-2.208 5.184h-4.288l10.08-22.4h4.096l10.112 22.4h-4.352l-2.24-5.184zm-1.376-3.264l-4.224-9.792-4.192 9.792h8.416zm176.482-29.611c1.238.405 2.219 1.088 2.944 2.048.726.939 1.088 2.112 1.088 3.52 0 1.941-.746 3.445-2.24 4.512-1.493 1.045-3.669 1.568-6.528 1.568h-11.136V8.6h10.496c2.646 0 4.683.523 6.112 1.568 1.43 1.024 2.144 2.443 2.144 4.256 0 1.11-.256 2.09-.768 2.944a5.258 5.258 0 01-2.112 1.984zm-11.712-7.488v6.176h5.888c1.451 0 2.56-.256 3.328-.768.79-.533 1.184-1.301 1.184-2.304 0-1.024-.394-1.792-1.184-2.304-.768-.533-1.877-.8-3.328-.8h-5.888zm6.72 15.872c3.222 0 4.832-1.077 4.832-3.232 0-2.155-1.61-3.232-4.832-3.232h-6.72v6.464h6.72z" fill="#fff"/><g filter="url(#filter2_dd_5089_42852)"><path d="M159.826 252.183a4 4 0 014-4h91.318a4 4 0 014 4v46.53h-99.318v-46.53z" fill="#fff"/></g><g filter="url(#filter3_dd_5089_42852)"><path d="M279.181 230.403a4 4 0 014-4h91.317a4 4 0 014 4v68.31h-99.317v-68.31z" fill="#fff"/></g><path d="M176.379 277.191a2 2 0 012-2h9.068a2 2 0 012 2v21.522h-13.068v-21.522z" fill="#941759"/><path d="M295.733 268.479a2 2 0 012-2h9.068a2 2 0 012 2v30.234h-13.068v-30.234z" fill="#81A332"/><path d="M193.803 281.547a2 2 0 012-2h9.068a2 2 0 012 2v17.166h-13.068v-17.166z" fill="#941759"/><path d="M313.158 257.153a2 2 0 012-2h9.068a2 2 0 012 2v41.56h-13.068v-41.56z" fill="#81A332"/><path d="M211.227 271.963a2 2 0 012-2h9.068a2 2 0 012 2v26.75h-13.068v-26.75z" fill="#941759"/><path d="M330.582 264.123a2 2 0 012-2h9.068a2 2 0 012 2v34.59h-13.068v-34.59z" fill="#81A332"/><path d="M228.651 286.774a2 2 0 012-2h9.068a2 2 0 012 2v11.939h-13.068v-11.939z" fill="#941759"/><path d="M348.006 250.183a2 2 0 012-2h9.068a2 2 0 012 2v48.53h-13.068v-48.53z" fill="#81A332"/><path d="M183.68 262.922a1 1 0 00-.663 1.887l.663-1.887zm15.786 6.606l-.332.943c.306.108.645.06.909-.127l-.577-.816zm17.86-12.632l.48-.878-.548-.3-.51.361.578.817zm18.295 10.018l.342.94.793-.288-.151-.831-.984.179zm-5.133.803a1 1 0 10.683 1.88l-.683-1.88zm5.246-5.773a1 1 0 10-1.968.358l1.968-.358zm-52.717 2.865l16.117 5.662.663-1.887-16.117-5.662-.663 1.887zm17.026 5.535l17.86-12.632-1.155-1.633-17.86 12.633 1.155 1.632zm16.802-12.571l18.296 10.018.96-1.754-18.295-10.019-.961 1.755zm18.434 8.202l-4.791 1.742.683 1.88 4.792-1.743-.684-1.879zm1.326.76l-.871-4.791-1.968.358.871 4.791 1.968-.358z" fill="#941759"/><path d="M302.104 254.353a1 1 0 001.2 1.6l-1.2-1.6zm18.024-12.268l.372-.929a1.001 1.001 0 00-.972.129l.6.8zm17.424 6.97l-.371.928.555.222.459-.384-.643-.766zm16.118-13.504l.996.083.083-.997-.996-.083-.083.997zm-5.145-1.432a1 1 0 00-.166 1.993l.166-1.993zm3.712 6.576c-.045.55.364 1.034.914 1.08a1.002 1.002 0 001.08-.914l-1.994-.166zm-48.933 15.258l17.424-13.068-1.2-1.6-17.424 13.068 1.2 1.6zm16.453-12.94l17.424 6.97.743-1.857-17.424-6.97-.743 1.857zm18.438 6.808l16.117-13.504-1.285-1.533-16.117 13.504 1.285 1.533zm15.558-15.267l-5.228-.435-.166 1.993 5.228.435.166-1.993zm-1.08.914l-.436 5.227 1.994.166.435-5.227-1.993-.166z" fill="#81A332"/><defs><filter id="filter0_dd_5089_42852" x="122.341" y="15.504" width="264.36" height="306.498" filterUnits="userSpaceOnUse" color-interpolation-filters="sRGB"><feFlood flood-opacity="0" result="BackgroundImageFix"/><feColorMatrix in="SourceAlpha" values="0 0 0 0 0 0 0 0 0 0 0 0 0 0 0 0 0 0 127 0" result="hardAlpha"/><feOffset dy="1.127"/><feGaussianBlur stdDeviation="1.941"/><feColorMatrix values="0 0 0 0 0 0 0 0 0 0 0 0 0 0 0 0 0 0 0.035 0"/><feBlend in2="BackgroundImageFix" result="effect1_dropShadow_5089_42852"/><feColorMatrix in="SourceAlpha" values="0 0 0 0 0 0 0 0 0 0 0 0 0 0 0 0 0 0 127 0" result="hardAlpha"/><feOffset dy="9"/><feGaussianBlur stdDeviation="15.5"/><feColorMatrix values="0 0 0 0 0 0 0 0 0 0 0 0 0 0 0 0 0 0 0.07 0"/><feBlend in2="effect1_dropShadow_5089_42852" result="effect2_dropShadow_5089_42852"/><feBlend in="SourceGraphic" in2="effect2_dropShadow_5089_42852" result="shape"/></filter><filter id="filter1_dd_5089_42852" x="153.394" y="-7.84" width="264.361" height="306.498" filterUnits="userSpaceOnUse" color-interpolation-filters="sRGB"><feFlood flood-opacity="0" result="BackgroundImageFix"/><feColorMatrix in="SourceAlpha" values="0 0 0 0 0 0 0 0 0 0 0 0 0 0 0 0 0 0 127 0" result="hardAlpha"/><feOffset dy="1.127"/><feGaussianBlur stdDeviation="1.941"/><feColorMatrix values="0 0 0 0 0 0 0 0 0 0 0 0 0 0 0 0 0 0 0.035 0"/><feBlend in2="BackgroundImageFix" result="effect1_dropShadow_5089_42852"/><feColorMatrix in="SourceAlpha" values="0 0 0 0 0 0 0 0 0 0 0 0 0 0 0 0 0 0 127 0" result="hardAlpha"/><feOffset dy="9"/><feGaussianBlur stdDeviation="15.5"/><feColorMatrix values="0 0 0 0 0 0 0 0 0 0 0 0 0 0 0 0 0 0 0.07 0"/><feBlend in2="effect1_dropShadow_5089_42852" result="effect2_dropShadow_5089_42852"/><feBlend in="SourceGraphic" in2="effect2_dropShadow_5089_42852" result="shape"/></filter><filter id="filter2_dd_5089_42852" x="128.826" y="226.183" width="161.317" height="112.53" filterUnits="userSpaceOnUse" color-interpolation-filters="sRGB"><feFlood flood-opacity="0" result="BackgroundImageFix"/><feColorMatrix in="SourceAlpha" values="0 0 0 0 0 0 0 0 0 0 0 0 0 0 0 0 0 0 127 0" result="hardAlpha"/><feOffset dy="1.127"/><feGaussianBlur stdDeviation="1.941"/><feColorMatrix values="0 0 0 0 0 0 0 0 0 0 0 0 0 0 0 0 0 0 0.035 0"/><feBlend in2="BackgroundImageFix" result="effect1_dropShadow_5089_42852"/><feColorMatrix in="SourceAlpha" values="0 0 0 0 0 0 0 0 0 0 0 0 0 0 0 0 0 0 127 0" result="hardAlpha"/><feOffset dy="9"/><feGaussianBlur stdDeviation="15.5"/><feColorMatrix values="0 0 0 0 0 0 0 0 0 0 0 0 0 0 0 0 0 0 0.07 0"/><feBlend in2="effect1_dropShadow_5089_42852" result="effect2_dropShadow_5089_42852"/><feBlend in="SourceGraphic" in2="effect2_dropShadow_5089_42852" result="shape"/></filter><filter id="filter3_dd_5089_42852" x="248.181" y="204.403" width="161.317" height="134.31" filterUnits="userSpaceOnUse" color-interpolation-filters="sRGB"><feFlood flood-opacity="0" result="BackgroundImageFix"/><feColorMatrix in="SourceAlpha" values="0 0 0 0 0 0 0 0 0 0 0 0 0 0 0 0 0 0 127 0" result="hardAlpha"/><feOffset dy="1.127"/><feGaussianBlur stdDeviation="1.941"/><feColorMatrix values="0 0 0 0 0 0 0 0 0 0 0 0 0 0 0 0 0 0 0.035 0"/><feBlend in2="BackgroundImageFix" result="effect1_dropShadow_5089_42852"/><feColorMatrix in="SourceAlpha" values="0 0 0 0 0 0 0 0 0 0 0 0 0 0 0 0 0 0 127 0" result="hardAlpha"/><feOffset dy="9"/><feGaussianBlur stdDeviation="15.5"/><feColorMatrix values="0 0 0 0 0 0 0 0 0 0 0 0 0 0 0 0 0 0 0.07 0"/><feBlend in2="effect1_dropShadow_5089_42852" result="effect2_dropShadow_5089_42852"/><feBlend in="SourceGraphic" in2="effect2_dropShadow_5089_42852" result="shape"/></filter><linearGradient id="paint0_linear_5089_42852" x1="-34.617" y1="97.868" x2="329.687" y2="480.893" gradientUnits="userSpaceOnUse"><stop stop-color="#A0CA3F"/><stop offset="1" stop-color="#A5CE48"/></linearGradient><linearGradient id="paint1_linear_5089_42852" x1="254.521" y1="251.297" x2="254.521" y2="262.907" gradientUnits="userSpaceOnUse"><stop offset=".288" stop-color="#E8F0F4"/><stop offset=".921" stop-color="#C2E4F3"/><stop offset="1" stop-color="#A6E3FF"/></linearGradient><linearGradient id="paint2_linear_5089_42852" x1="285.573" y1="227.952" x2="285.573" y2="239.563" gradientUnits="userSpaceOnUse"><stop offset=".288" stop-color="#E8F0F4"/><stop offset=".921" stop-color="#C2E4F3"/><stop offset="1" stop-color="#A6E3FF"/></linearGradient></defs></svg>