<svg width="573" height="412" fill="none" xmlns="http://www.w3.org/2000/svg"><path opacity=".12" fill-rule="evenodd" clip-rule="evenodd" d="M510.049 337.823c-38.182 31.115-99.775 32.784-153.401 46.053-47.065 11.646-91.803 33.236-140.633 26.703-49.579-6.634-87.055-34.761-122.078-61.852-36.286-28.068-70.128-58.299-82.314-96.247-13.39-41.699-21.281-89.888 11.212-125.177 32.013-34.766 97.292-36.942 150.691-50.651 47.848-12.284 93.635-26.118 144.227-25.064 60.004 1.25 124.295 2.975 170.559 31.62 49.32 30.538 79.171 77.77 83.249 125.53 3.991 46.753-19.187 94.593-61.512 129.085z" fill="url(#paint0_linear_5115_42980)"/><path d="M309.15 383.199c121.412 0 219.836-4.289 219.836-9.581 0-5.291-98.424-9.581-219.836-9.581s-219.835 4.29-219.835 9.581c0 5.292 98.423 9.581 219.835 9.581z" fill="#CFCFCF"/><path d="M129.634 266.446c-7.951-8.006-25.312-26.79-36.252-48.11-15.71-30.61-31.452-27.87-34.527-17.059-7.995 27.988 39.07 58.393 58.587 69.625l12.192-4.456z" fill="#AFDD44"/><path d="M125.34 268.021a216.17 216.17 0 01-33.156-31.602 232.993 232.993 0 01-16.929-22.086.755.755 0 00-1.046-.227.758.758 0 00-.227 1.047 236.81 236.81 0 0017.037 22.226 219.204 219.204 0 0032.627 31.289l1.694-.647zm2.331-12.343c-3.69-7.347-10.671-22.744-13.261-38.432-3.862-23.435-14.792-24.967-19.108-18.504-11.868 17.76 16.541 50.409 25.604 60.076l6.765-3.14z" fill="#8EB438"/><path d="M125.092 256.876a148.724 148.724 0 01-15.278-27.988 160.561 160.561 0 01-6.474-18.094.53.53 0 00-.626-.313.529.529 0 00-.388.583 163.123 163.123 0 006.474 18.213 150.382 150.382 0 0015.289 28.052l1.003-.453z" fill="#76838F"/><path d="M474.197 350.582c7.326-8.632 23.23-28.614 32.541-50.711 13.368-31.699 29.272-30.145 33.156-19.593 10.067 27.297-34.58 61.155-53.192 73.811l-12.505-3.507z" fill="#AFDD44"/><path d="M478.598 351.823a215.736 215.736 0 0030.663-33.998 236.169 236.169 0 0015.235-23.295.758.758 0 011.299-.166.762.762 0 01.14.6.75.75 0 01-.123.289 233.752 233.752 0 01-15.31 23.446 218.332 218.332 0 01-30.21 33.609l-1.694-.485zm-3.246-12.128c3.118-7.606 8.922-23.477 10.336-39.316 2.093-23.662 12.883-26.003 17.673-19.885 13.142 16.81-12.721 51.498-21.029 61.823l-6.98-2.622z" fill="#8EB438"/><path d="M477.973 340.688a148.758 148.758 0 0013.141-29.045 159.609 159.609 0 005.093-18.536.526.526 0 01.615-.41.515.515 0 01.41.604 160.099 160.099 0 01-5.125 18.655 149.957 149.957 0 01-13.142 29.131l-.992-.399z" fill="#76838F"/><path d="M204.804 44.604c1.371-12.786.303-25.161-6.063-22.108-6.366 3.054-4.143 24.298 4.521 38.314l1.812 5.47c-6.139-10.326-18.342-19.065-23.413-15.796-5.071 3.27 3.69 8.33 12.386 11.642a33.378 33.378 0 0112.128 7.553l8.545 25.894c-9.711-16.324-29.132-30.113-37.062-24.934-7.93 5.179 5.848 13.217 19.659 18.482 10.433 3.982 16.389 8.977 19.183 11.869l1.705 5.146 2.816-.474-10.164-30.75a36.59 36.59 0 014.715-10.456c5.018-7.854 8.956-17.1 3.011-16.734-5.158.313-9.312 11.005-9.571 21.579l-3.517-10.638a53.428 53.428 0 01-.691-14.06z" fill="#8EB438"/><path d="M515.595 165.036c3.453-12.397 9.009-23.489 13.8-18.342 4.79 5.146-5.125 24.114-18.342 33.933l-3.701 4.423c9.516-7.326 24.125-10.94 27.589-6.042 3.463 4.899-6.474 6.377-15.818 6.247a33.28 33.28 0 00-14.026 2.493l-17.479 20.867c15.105-11.556 38.173-17.264 43.654-9.484 5.481 7.779-10.314 10.12-25.096 9.915-11.167-.151-18.547 2.287-22.194 3.917l-3.485 4.164-2.438-1.488 20.791-24.816a36.89 36.89 0 00-.529-11.459c-1.78-9.149-2.007-19.183 3.388-16.648 4.672 2.158 4.586 13.67.917 23.618l7.186-8.577a53.348 53.348 0 005.783-12.721z" fill="#AFDD44"/><path d="M157.449 148.636h14.286c-7.715-1.273-26.855-9.495-28.571-25.97-2.158-20.878-9.592-20.619-22.118-22.798-12.527-2.18-15.969 1.37-23.942-14.836-7.974-16.206-25.69-18.245-25.69-18.245S87.598 84.427 84.48 97.84c-3.118 13.412 7.64 18.763 16.184 20.5 8.546 1.737 6.582 13.174 9.851 20.587 1.489 3.377 7.553 6.883 13.767 9.71h33.167z" fill="#8EB438"/><path d="M126.495 128.136c.625 6.247 4.218 13.681 9.624 19.885l.582.658h1.63a39.21 39.21 0 01-1.317-1.446c-5.168-5.923-8.739-13.293-9.333-19.216-.938-9.43-8.232-15.86-23.639-20.845-8.934-2.892-11.76-13.81-11.793-13.919a.596.596 0 10-1.155.292c.119.474 3.01 11.663 12.581 14.76 14.9 4.725 21.935 10.875 22.82 19.831z" fill="#76838F"/><path d="M150.102 148.635h30.081v-.086a38.54 38.54 0 001.424-9.203c.367-10.52.54-36.922-6.257-43.676-8.535-8.502-25.658-11.869-23.403-24.654 2.255-12.786.572-30.567-19.701-33.448-20.274-2.88-36.124-34.796-36.124-34.796s-6.668 25.723 11.567 45.435c18.234 19.712 11.437 22.658 7.768 41.151-3.668 18.493-8.027 28.732 19.799 42.921a30.952 30.952 0 0114.846 16.356z" fill="#AFDD44"/><path d="M134.641 69.646c-1.338 24.05 3.69 37.612 16.27 43.967 7.909 4.003 16.184 12.948 21.687 23.252a66.412 66.412 0 014.855 11.76h1.845a67.923 67.923 0 00-5.125-12.591c-5.718-10.79-14.112-19.777-22.463-23.996-11.869-5.999-16.595-19.043-15.3-42.295.831-14.954-13.163-24.956-13.756-25.376a.887.887 0 00-1.23.215.907.907 0 00.205 1.241c.151.086 13.788 9.862 13.012 23.823zm297.26 63.69h14.631l14.836-9.711c3.646-5.74 6.84-11.998 6.247-15.644-1.317-7.995-9.333-16.54-3.065-22.658 6.269-6.118 12.344-16.444 2.428-25.981-9.915-9.538-5.999-33.156-5.999-33.156s-13.746 11.393-11.566 29.304c2.179 17.91-2.654 16.82-11.955 25.485-9.3 8.663-15.666 12.505-6.085 31.17 3.582 7.046 2.87 14.598.528 21.191z" fill="#8EB438"/><path d="M448.302 107.636c2.88 5.578 3.927 13.767 2.794 21.913l-.129.874-1.36.885c.119-.658.227-1.306.313-1.921 1.079-7.79.065-15.914-2.676-21.201-4.316-8.416-1.759-17.781 8.427-30.362 5.912-7.304 2.319-17.996 2.287-18.104a.585.585 0 01-.077-.52.587.587 0 01.364-.377.591.591 0 01.792.508c.162.464 3.852 11.415-2.482 19.238-9.807 12.181-12.364 21.147-8.253 29.067z" fill="#76838F"/><path d="M487.004 133.336a30.928 30.928 0 015.826-3.83c27.826-14.177 23.478-24.352 19.799-42.91-3.68-18.558-10.466-21.438 7.768-41.15C538.631 25.732 531.974 0 531.974 0s-15.839 31.894-36.112 34.785c-20.274 2.892-21.957 20.64-19.702 33.448 2.255 12.807-14.857 16.184-23.402 24.643-6.183 6.15-6.593 28.527-6.344 40.45l40.59.01z" fill="#AFDD44"/><path d="M455.898 133.337c5.471-10.024 13.563-18.591 21.277-22.486 12.591-6.355 17.609-19.917 16.271-43.977-.777-13.962 12.872-23.737 13.012-23.824a.888.888 0 00.216-1.23.897.897 0 00-1.241-.215c-.594.41-14.588 10.412-13.757 25.366 1.295 23.251-3.42 36.306-15.299 42.305-8.351 4.208-16.746 13.185-22.453 23.996v.065h1.974z" fill="#8EB438"/><path d="M256.043 54.315h-10.207c-7.198 0-13.033 5.835-13.033 13.033v10.207c0 7.198 5.835 13.034 13.033 13.034h10.207c7.199 0 13.034-5.836 13.034-13.034V67.348c0-7.198-5.835-13.033-13.034-13.033z" fill="#fff"/><path d="M261.536 69.873a6.313 6.313 0 01-1.845 4.477l-8.405 8.47-8.395-8.394a6.346 6.346 0 010-8.945c2.288-2.287 5.783-1.877 8.395 1.997 2.621-3.874 6.117-4.316 8.405-1.996a6.306 6.306 0 011.845 4.39zm93.329-7.186v19.367a4.64 4.64 0 01-4.64 4.64h-35.173l-10.617 3.809a1.35 1.35 0 01-1.716-1.76l4.014-10.368V62.687a4.653 4.653 0 014.64-4.64h38.842a4.65 4.65 0 014.65 4.64z" fill="#941759"/><path d="M324.309 72.926a3.354 3.354 0 01-4.01 3.29 3.361 3.361 0 01-2.446-4.575 3.355 3.355 0 016.456 1.285zm10.617 0a3.354 3.354 0 01-4.01 3.29 3.355 3.355 0 114.01-3.29zm7.271 3.355a3.355 3.355 0 10.001-6.71 3.355 3.355 0 00-.001 6.71z" fill="#FF6571"/><path d="M490.488 102.952v265.939a4.467 4.467 0 01-4.467 4.467H122.124a4.466 4.466 0 01-4.12-2.758 4.472 4.472 0 01-.336-1.709V102.952a4.464 4.464 0 011.301-3.158 4.46 4.46 0 013.155-1.309h363.897a4.467 4.467 0 014.467 4.467z" fill="#76838F"/><path d="M490.489 102.953v265.939a4.463 4.463 0 01-1.309 3.158 4.463 4.463 0 01-3.158 1.309H122.125c-1.1 0-2.161-.407-2.978-1.144L489.615 100.32c.565.762.871 1.685.874 2.633z" fill="#76838F"/><path d="M474.962 109.093H133.184a4.92 4.92 0 00-4.92 4.92v243.831a4.92 4.92 0 004.92 4.92h341.778a4.92 4.92 0 004.92-4.92V114.013a4.92 4.92 0 00-4.92-4.92z" fill="#fff"/><path d="M347.981 286.59H216.954a6.884 6.884 0 00-6.884 6.884v38.022a6.884 6.884 0 006.884 6.883h131.027a6.884 6.884 0 006.884-6.883v-38.022a6.884 6.884 0 00-6.884-6.884z" fill="#CFCFCF"/><path d="M343.579 281.033H212.552a6.884 6.884 0 00-6.884 6.884v38.022a6.884 6.884 0 006.884 6.884h131.027a6.884 6.884 0 006.884-6.884v-38.022a6.884 6.884 0 00-6.884-6.884z" fill="#AFDD44"/><path d="M254.63 306.593a21.667 21.667 0 01-4.984 13.865 22.143 22.143 0 01-2.374 2.449 21.764 21.764 0 01-28.83 0 23.256 23.256 0 01-2.373-2.449 21.777 21.777 0 01-4.21-19.623 21.772 21.772 0 0123.903-15.82 21.778 21.778 0 0116.418 11.544 21.765 21.765 0 012.45 10.034z" fill="#8EB438"/><path d="M232.804 309.604a8.351 8.351 0 100-16.702 8.351 8.351 0 000 16.702zm14.414 13.303a21.759 21.759 0 01-28.829 0 12.803 12.803 0 015.394-7.552 15.959 15.959 0 0118.127 0 12.804 12.804 0 015.308 7.552z" fill="#F7B614"/><path d="M263.662 302.03a.94.94 0 010-.13c.432-1.338.863-2.676 1.306-4.013a.156.156 0 00.006-.119.156.156 0 00-.032-.052.158.158 0 00-.05-.034l-3.787-2.87-.097-.098h.28l4.661-.054a.137.137 0 00.096-.025.136.136 0 00.055-.082l1.392-4.316a.65.65 0 000-.108c.021.042.039.085.054.129.54 1.468 1.079 2.935 1.608 4.413a.172.172 0 00.194.13h4.316a.562.562 0 01.183 0l-.097.064-3.755 2.547c-.086.065-.107.108-.075.205a519.596 519.596 0 011.532 4.413v.129l-.173-.108-3.69-2.632a.162.162 0 00-.097-.033.162.162 0 00-.097.033l-3.657 2.546-.076.065zm16.54 0a.94.94 0 010-.13c.432-1.338.853-2.676 1.295-4.013a.156.156 0 00.006-.119.156.156 0 00-.032-.052.166.166 0 00-.049-.034l-3.852-2.87-.097-.098h.28l4.661-.054c.097 0 .13 0 .151-.107l1.392-4.316a.65.65 0 000-.108c.021.042.039.085.054.129l1.618 4.413a.164.164 0 00.184.13h4.316c.06-.01.122-.01.183 0l-.097.064-3.755 2.547c-.086.065-.108.108-.075.205a519.596 519.596 0 011.532 4.413.695.695 0 010 .129l-.162-.108-3.701-2.632a.15.15 0 00-.183 0l-3.669 2.546v.065zm16.507 0v-.13l1.295-4.013a.156.156 0 00.006-.119.156.156 0 00-.032-.052.158.158 0 00-.05-.034l-3.851-2.87a.257.257 0 01-.087-.098h.281l4.65-.054c.097 0 .13 0 .151-.107l1.392-4.316a.65.65 0 000 .021l1.618 4.413a.164.164 0 00.184.13h4.316c.06-.01.122-.01.183 0l-.097.064-3.755 2.547c-.086.065-.108.108-.065.205l1.522 4.413a.695.695 0 010 .129l-.162-.108-3.701-2.632a.15.15 0 00-.183 0l-3.669 2.546.054.065zm16.572 0v-.13l1.295-4.013a.17.17 0 00.017-.057.168.168 0 00-.035-.112.151.151 0 00-.047-.036l-3.776-2.87a.257.257 0 01-.087-.098h.281l4.661-.054a.12.12 0 00.126-.06.116.116 0 00.014-.047l1.392-4.316v-.108a.926.926 0 010 .129l1.619 4.413a.159.159 0 00.065.102.165.165 0 00.118.028h4.316a.512.512 0 01.183 0l-.086.064-3.766 2.547a.147.147 0 00-.046.037.148.148 0 00-.018.168l1.521 4.413v.129l-.173-.108-3.7-2.632a.152.152 0 00-.184 0 458.71 458.71 0 01-3.668 2.546l-.022.065zm16.551 0a1.41 1.41 0 010-.13l1.295-4.013a.147.147 0 00.01-.116.15.15 0 00-.028-.053.151.151 0 00-.047-.036l-3.862-2.87a.257.257 0 01-.087-.098h.281l4.661-.054a.14.14 0 00.151-.107c.453-1.446.917-2.881 1.381-4.316v-.108l.054.129c.529 1.468 1.079 2.935 1.608 4.413a.159.159 0 00.065.102.165.165 0 00.118.028h4.316a.512.512 0 01.183 0l-.086.064a451.09 451.09 0 01-3.766 2.547.147.147 0 00-.046.037.148.148 0 00-.018.168l1.521 4.413v.129l-.173-.108-3.7-2.632a.152.152 0 00-.184 0 458.71 458.71 0 01-3.668 2.546l.021.065z" fill="#fff"/><path d="M338.227 307.5h-75.515a1.737 1.737 0 100 3.474h75.515a1.736 1.736 0 100-3.474zm.001 7.445h-75.526a1.734 1.734 0 00-1.737 1.737 1.738 1.738 0 001.737 1.737h75.526c.461 0 .903-.183 1.229-.508a1.741 1.741 0 000-2.457 1.738 1.738 0 00-1.229-.509z" fill="#8EB438"/><path d="M479.882 114.002v17.112H128.264v-17.112a4.917 4.917 0 014.92-4.909h341.789a4.908 4.908 0 014.909 4.909z" fill="#CFCFCF"/><path d="M187.865 120.681a2.935 2.935 0 002.924 2.924h256.304a2.923 2.923 0 100-5.848H190.789a2.924 2.924 0 00-2.924 2.924z" fill="#fff"/><path d="M147.815 120.68v2.158a.804.804 0 01-.403.698.808.808 0 01-.805.004l-1.878-1.079-1.877-1.079a.806.806 0 01-.406-.702.812.812 0 01.406-.701l1.877-1.079 1.878-1.079a.81.81 0 011.208.701v2.158zm9.764 0v2.158a.815.815 0 00.403.698.821.821 0 00.806.004l1.877-1.079 1.877-1.079a.809.809 0 000-1.403l-1.877-1.079-1.877-1.079a.804.804 0 00-.806.004.808.808 0 00-.403.697v2.158z" fill="#76838F"/><path d="M381.946 165.705a1.106 1.106 0 000-.141c.431-1.348.863-2.686 1.305-4.035 0-.097 0-.14-.075-.205l-3.874-2.881a.406.406 0 01-.097-.097h.281l4.693-.054a.12.12 0 00.126-.06.116.116 0 00.014-.048c.464-1.456.939-2.902 1.403-4.315a.65.65 0 000-.108v.118c.539 1.479 1.079 2.957 1.618 4.446a.174.174 0 00.195.129h4.315a.568.568 0 01.184 0l-.087.065-3.787 2.568c-.086.054-.097.097-.064.194l1.532 4.434c.002.047.002.094 0 .141l-.162-.119-3.723-2.633c-.075-.054-.118-.054-.183 0l-3.69 2.558.076.043zm16.606 0v-.141c.432-1.348.863-2.686 1.306-4.035a.163.163 0 00-.065-.205l-3.884-2.881a.254.254 0 01-.087-.097h.281l4.682-.054a.136.136 0 00.096-.025.136.136 0 00.055-.083l1.392-4.315v-.108a.63.63 0 00.054.118l1.619 4.446a.16.16 0 00.183.129h4.37a.624.624 0 01.183 0l-.097.065-3.787 2.568c-.086.054-.097.097-.065.194a705.576 705.576 0 011.532 4.434v.141l-.172-.119-3.712-2.633a.14.14 0 00-.194 0l-3.679 2.558-.011.043zm16.625 0v-.141a610.43 610.43 0 001.306-4.035.163.163 0 00-.065-.205l-3.884-2.881a.254.254 0 01-.087-.097h.281l4.682-.054c.098 0 .13 0 .152-.108a277.79 277.79 0 011.402-4.315.65.65 0 000-.108l.054.118 1.618 4.446a.174.174 0 00.195.129h4.316a.624.624 0 01.183 0l-.097.065-3.776 2.568c-.087.054-.108.097-.076.194.518 1.478 1.079 2.956 1.532 4.434.003.047.003.094 0 .141l-.173-.119-3.711-2.633a.14.14 0 00-.194 0l-3.68 2.558.022.043zm16.628 0a1.106 1.106 0 000-.141c.432-1.348.863-2.686 1.306-4.035 0-.097-.001-.14-.076-.205l-3.873-2.881a.393.393 0 01-.098-.097h.356l4.694-.054a.117.117 0 00.14-.108c.464-1.456.939-2.902 1.403-4.315a.65.65 0 000-.108l.054.118c.539 1.479 1.079 2.957 1.618 4.446a.17.17 0 00.072.102.17.17 0 00.122.027h4.316a.568.568 0 01.184 0l-.087.065-3.787 2.568c-.086.054-.097.097-.065.194l1.533 4.434c.002.047.002.094 0 .141l-.162-.119-3.723-2.633c-.075-.054-.118-.054-.183 0l-3.69 2.558-.054.043zm16.638 0v-.141c.431-1.348.863-2.686 1.305-4.035a.163.163 0 00.007-.115.164.164 0 00-.072-.09l-3.884-2.881a.26.26 0 01-.086-.097h.28l4.683-.054a.14.14 0 00.151-.108l1.392-4.315v-.108a.63.63 0 00.054.118l1.618 4.446a.162.162 0 00.066.101.155.155 0 00.118.028h4.369a.63.63 0 01.184 0l-.097.065-3.787 2.568c-.087.054-.097.097-.065.194a705.576 705.576 0 011.532 4.434v.141l-.173-.119-3.711-2.633a.14.14 0 00-.194 0l-3.68 2.558-.01.043zm8.436 5.502h-75.914a1.748 1.748 0 100 3.496h75.914a1.748 1.748 0 100-3.496zm0 7.478h-75.914a1.747 1.747 0 100 3.495h75.914a1.747 1.747 0 100-3.495zm-108.898 41.344H216.954a6.884 6.884 0 00-6.884 6.884v38.022a6.884 6.884 0 006.884 6.884h131.027a6.884 6.884 0 006.884-6.884v-38.022a6.884 6.884 0 00-6.884-6.884z" fill="#CFCFCF"/><path d="M343.579 214.473H212.552a6.884 6.884 0 00-6.884 6.883v38.022a6.884 6.884 0 006.884 6.884h131.027a6.884 6.884 0 006.884-6.884v-38.022a6.884 6.884 0 00-6.884-6.883z" fill="#941759"/><path d="M254.63 240.023a21.664 21.664 0 01-4.984 13.875 22.056 22.056 0 01-2.374 2.449 21.759 21.759 0 01-28.83 0 23.064 23.064 0 01-2.373-2.449 21.762 21.762 0 01-4.5-9.296 21.762 21.762 0 015.305-19.353 21.762 21.762 0 0118.882-6.794 21.773 21.773 0 0118.874 21.568z" fill="#7C154B"/><path d="M241.051 236.029a8.351 8.351 0 10-16.486-2.682 8.351 8.351 0 0016.486 2.682zm6.167 20.318a21.763 21.763 0 01-28.829 0 12.806 12.806 0 015.394-7.553 15.958 15.958 0 0118.127 0 12.806 12.806 0 015.308 7.553z" fill="#FF6571"/><path d="M263.662 235.47a.94.94 0 010-.13c.432-1.337.863-2.686 1.306-4.013a.156.156 0 00.006-.119.142.142 0 00-.032-.051.146.146 0 00-.05-.035l-3.787-2.87a.324.324 0 01-.097-.108h4.941a.138.138 0 00.151-.108l1.392-4.316a.65.65 0 000-.108l.054.119c.54 1.478 1.079 2.946 1.608 4.424a.17.17 0 00.072.102.17.17 0 00.122.027h4.316a.624.624 0 01.183 0l-.097.065-3.755 2.546c-.086.065-.107.108-.075.205a532.06 532.06 0 011.532 4.413v.13l-.173-.119-3.636-2.73a.161.161 0 00-.194 0l-3.658 2.546-.129.13zm16.54 0a.94.94 0 010-.13c.432-1.337.853-2.686 1.295-4.013a.156.156 0 00.006-.119.152.152 0 00-.081-.086l-3.852-2.87a.314.314 0 01-.097-.108h4.941c.097 0 .13 0 .151-.108l1.392-4.316a.65.65 0 000-.108l.054.119 1.618 4.424a.162.162 0 00.066.101.156.156 0 00.118.028h4.316c.06-.01.122-.01.183 0l-.097.065-3.755 2.546c-.086.065-.108.108-.075.205a532.06 532.06 0 011.532 4.413.706.706 0 010 .13 1.126 1.126 0 01-.162-.119c-1.241-.874-2.471-1.737-3.701-2.622a.15.15 0 00-.183 0l-3.669 2.546a.08.08 0 010 .022zm16.507 0v-.13l1.295-4.013a.156.156 0 00.006-.119.142.142 0 00-.032-.051.146.146 0 00-.05-.035l-3.851-2.87a.225.225 0 01-.087-.108h4.931c.097 0 .13 0 .151-.108l1.392-4.316a.65.65 0 000-.108v.119l1.618 4.424a.162.162 0 00.066.101.155.155 0 00.118.028h4.316c.06-.01.122-.01.183 0l-.097.065-3.755 2.546c-.086.065-.108.108-.065.205l1.522 4.413a.706.706 0 010 .13 1.126 1.126 0 01-.162-.119c-1.23-.874-2.471-1.737-3.701-2.622a.15.15 0 00-.183 0l-3.669 2.546a.674.674 0 01.054.022zm16.572 0v-.13c.432-1.337.863-2.686 1.295-4.013a.163.163 0 00.017-.057.168.168 0 00-.007-.059.146.146 0 00-.075-.089l-3.776-2.87a.225.225 0 01-.087-.108h4.942a.12.12 0 00.05-.001.122.122 0 00.09-.107l1.392-4.316v-.108.119l1.619 4.424a.157.157 0 00.065.101.156.156 0 00.118.028h4.316c.06-.01.123-.01.183 0l-.086.065-3.766 2.546a.163.163 0 00-.046.037.148.148 0 00-.018.168l1.521 4.413v.13a.794.794 0 01-.173-.119c-1.23-.874-2.47-1.737-3.7-2.622a.152.152 0 00-.184 0c-1.219.852-2.438 1.705-3.668 2.546l-.022.022z" fill="#fff"/><path d="M329.832 235.47a1.409 1.409 0 010-.13c.432-1.337.863-2.686 1.295-4.013a.147.147 0 00.01-.116.146.146 0 00-.075-.089l-3.862-2.87a.225.225 0 01-.087-.108h4.942a.148.148 0 00.096-.025.143.143 0 00.055-.083c.453-1.446.917-2.881 1.381-4.316v-.108a.639.639 0 00.054.119c.529 1.478 1.079 2.946 1.608 4.424a.157.157 0 00.065.101.156.156 0 00.118.028h4.316a.562.562 0 01.183 0l-.086.065c-1.252.852-2.503 1.705-3.766 2.546a.163.163 0 00-.046.037.148.148 0 00-.018.168l1.521 4.413v.13l-.173-.119-3.56-2.73a.154.154 0 00-.092-.031.154.154 0 00-.092.031 411.988 411.988 0 01-3.668 2.546l-.119.13zm8.395 5.469h-75.515a1.737 1.737 0 100 3.475h75.515a1.737 1.737 0 100-3.475zm.001 7.446h-75.526a1.734 1.734 0 00-1.737 1.737 1.735 1.735 0 001.737 1.737h75.526a1.738 1.738 0 100-3.474z" fill="#7C154B"/><path d="M347.981 150.352H216.954a6.883 6.883 0 00-6.884 6.883v38.022a6.884 6.884 0 006.884 6.884h131.027a6.884 6.884 0 006.884-6.884v-38.022a6.883 6.883 0 00-6.884-6.883z" fill="#CFCFCF"/><path d="M343.579 144.795H212.552a6.884 6.884 0 00-6.884 6.884v38.022a6.884 6.884 0 006.884 6.883h131.027a6.884 6.884 0 006.884-6.883v-38.022a6.884 6.884 0 00-6.884-6.884z" fill="#AFDD44"/><path d="M254.63 170.345a21.644 21.644 0 01-5.039 13.897 21.375 21.375 0 01-2.373 2.46 21.8 21.8 0 01-28.83 0 22.325 22.325 0 01-2.373-2.46 21.78 21.78 0 01-4.145-19.596 21.776 21.776 0 0133.468-12.044 21.775 21.775 0 019.292 17.743z" fill="#8EB438"/><path d="M232.804 173.354a8.351 8.351 0 100-16.702 8.351 8.351 0 000 16.702zm14.414 13.315a21.793 21.793 0 01-28.829 0 12.809 12.809 0 015.394-7.553 15.965 15.965 0 0118.127 0 12.809 12.809 0 015.308 7.553z" fill="#F7B614"/><path d="M263.662 165.791v-.14c.432-1.338.863-2.676 1.306-4.014 0-.097 0-.14-.076-.205l-3.787-2.87a.265.265 0 01-.097-.097h4.941c.087 0 .119 0 .151-.118l1.392-4.316a.65.65 0 000-.108l.054.119c.54 1.478 1.079 2.945 1.608 4.412a.172.172 0 00.194.13h4.316a.624.624 0 01.183 0l-.097.065-3.755 2.546a.152.152 0 00-.075.205c.518 1.467 1.025 2.935 1.532 4.402a1.09 1.09 0 000 .14l-.173-.118-3.69-2.622a.14.14 0 00-.194 0l-3.657 2.546-.076.043zm16.54 0v-.14c.432-1.338.853-2.676 1.295-4.014 0-.097 0-.14-.075-.205l-3.852-2.87a.265.265 0 01-.097-.097h4.941a.123.123 0 00.054-.002.139.139 0 00.083-.065.13.13 0 00.014-.051l1.392-4.316a.65.65 0 000-.108l.054.119 1.618 4.412c0 .108.076.13.184.13h4.316c.06-.01.122-.01.183 0l-.097.065-3.755 2.546a.152.152 0 00-.075.205c.518 1.467 1.025 2.935 1.532 4.402.002.047.002.094 0 .14l-.162-.118-3.701-2.622c-.075-.054-.118-.054-.183 0l-3.669 2.546v.043z" fill="#fff"/><path d="M296.709 165.791a1.09 1.09 0 000-.14l1.295-4.014c0-.097 0-.14-.076-.205l-3.851-2.87a.188.188 0 01-.087-.097h4.931a.123.123 0 00.054-.002.115.115 0 00.048-.024.123.123 0 00.034-.041.116.116 0 00.015-.051l1.392-4.316a.65.65 0 000-.108v.119l1.618 4.412c0 .108.076.13.184.13h4.316c.06-.01.122-.01.183 0l-.097.065-3.755 2.546a.136.136 0 00-.085.148.13.13 0 00.02.057l1.522 4.402c.002.047.002.094 0 .14l-.162-.118-3.701-2.622c-.075-.054-.119-.054-.183 0l-3.669 2.546.054.043zm16.572 0a.818.818 0 000-.14l1.295-4.014a.16.16 0 00-.065-.205 378.487 378.487 0 01-3.862-2.87.192.192 0 01-.087-.097h4.942c.086 0 .119 0 .14-.118l1.392-4.316v-.108.119l1.619 4.412c0 .108.075.13.183.13h4.316a.512.512 0 01.183 0l-.086.065-3.766 2.546c-.086.054-.097.108-.064.205l1.521 4.402v.14l-.173-.118-3.7-2.622c-.065-.054-.108-.054-.184 0l-3.668 2.546.064.043zm16.551 0v-.14l1.295-4.014a.166.166 0 00.007-.114.167.167 0 00-.072-.091 378.487 378.487 0 01-3.862-2.87.192.192 0 01-.087-.097h4.942c.086 0 .119 0 .151-.118.453-1.435.917-2.881 1.381-4.316v-.108a.67.67 0 00.054.119c.529 1.478 1.079 2.945 1.608 4.412a.156.156 0 00.065.102.165.165 0 00.118.028h4.316a.512.512 0 01.183 0l-.086.065c-1.252.852-2.503 1.704-3.766 2.546-.086.054-.097.108-.064.205l1.521 4.402v.14l-.173-.118-3.7-2.622c-.065-.054-.108-.054-.184 0l-3.668 2.546.021.043zm8.395 5.471h-75.515a1.736 1.736 0 100 3.474h75.515a1.737 1.737 0 100-3.474zm.001 7.444h-75.526a1.734 1.734 0 00-1.737 1.737 1.734 1.734 0 001.737 1.737h75.526a1.738 1.738 0 100-3.474z" fill="#8EB438"/><path d="M184.736 154.451h-35.443a1.741 1.741 0 00-1.748 1.748 1.747 1.747 0 001.748 1.748h35.443a1.747 1.747 0 001.748-1.748 1.727 1.727 0 00-.509-1.239 1.73 1.73 0 00-1.239-.509zm0 9.656h-35.443a1.751 1.751 0 00-.671 3.366c.213.087.441.132.671.13h35.443a1.736 1.736 0 001.748-1.748 1.749 1.749 0 00-1.748-1.748zm0 9.668h-35.443a1.736 1.736 0 00-1.748 1.748 1.742 1.742 0 00.513 1.232 1.72 1.72 0 001.235.505h35.443a1.727 1.727 0 001.615-1.069c.088-.212.133-.439.133-.668a1.727 1.727 0 00-.509-1.239 1.728 1.728 0 00-1.239-.509zm0 9.657h-35.443a1.747 1.747 0 100 3.495h35.443a1.747 1.747 0 100-3.495zm0 43.006h-35.443a1.751 1.751 0 00-.671 3.366c.213.087.441.132.671.13h35.443a1.736 1.736 0 001.748-1.748 1.749 1.749 0 00-1.748-1.748zm0 9.668h-35.443a1.736 1.736 0 00-1.748 1.748 1.742 1.742 0 00.513 1.233 1.726 1.726 0 001.235.504h35.443a1.74 1.74 0 001.615-1.069c.088-.212.133-.439.133-.668a1.727 1.727 0 00-.509-1.239 1.728 1.728 0 00-1.239-.509zm0 9.635h-35.443a1.747 1.747 0 100 3.496h35.443a1.747 1.747 0 100-3.496zm0 9.71h-35.443a1.744 1.744 0 100 3.485h35.443a1.736 1.736 0 001.748-1.748 1.734 1.734 0 00-1.748-1.737zm0 37.548h-35.443a1.747 1.747 0 00-1.748 1.748 1.746 1.746 0 00.509 1.239 1.741 1.741 0 001.239.509h35.443a1.73 1.73 0 001.618-1.078c.087-.212.132-.44.13-.67a1.747 1.747 0 00-1.748-1.748zm0 9.667h-35.443a1.741 1.741 0 00-1.748 1.748 1.734 1.734 0 001.748 1.737h35.443a1.738 1.738 0 001.748-1.737 1.736 1.736 0 00-1.748-1.748zm0 9.657h-35.443a1.747 1.747 0 100 3.496h35.443a1.747 1.747 0 100-3.496zm0 9.667h-35.443a1.744 1.744 0 100 3.485h35.443a1.736 1.736 0 001.748-1.748 1.737 1.737 0 00-1.748-1.737zm271.506-113.386h-75.041a1.736 1.736 0 00-1.748 1.748 1.747 1.747 0 001.748 1.748h75.041a2.031 2.031 0 002.222-1.748 2.018 2.018 0 00-2.222-1.748zm0 9.656h-75.041a1.747 1.747 0 100 3.496h75.041a2.031 2.031 0 002.222-1.748 2.027 2.027 0 00-2.222-1.748zm0 9.667h-75.041a1.744 1.744 0 100 3.485h75.041a2.019 2.019 0 002.222-1.748 2.028 2.028 0 00-2.222-1.737zm0 9.657h-75.041a1.736 1.736 0 00-1.748 1.748 1.747 1.747 0 001.748 1.748h75.041a2.027 2.027 0 002.222-1.748 2.018 2.018 0 00-2.222-1.748zm-1.834 24.223H383.51a4.056 4.056 0 00-4.057 4.056v19.303a4.057 4.057 0 004.057 4.057h70.898a4.057 4.057 0 004.056-4.057v-19.303a4.056 4.056 0 00-4.056-4.056zm0 41.172H383.51a4.057 4.057 0 00-4.057 4.057v19.303a4.057 4.057 0 004.057 4.057h70.898a4.057 4.057 0 004.056-4.057v-19.303a4.057 4.057 0 00-4.056-4.057zm-249.182 99.113c0 3.075-28.841 5.556-64.403 5.556-35.562 0-64.413-2.481-64.413-5.556s28.84-5.557 64.413-5.557c35.573 0 64.403 2.493 64.403 5.557z" fill="#CFCFCF"/><path d="M219.382 293.28c-.13-.594-2.158-1.349-4.079-1.953v-.216c2.708.54 7.391 1.284 6.992 0-.27-.831-4.251-1.597-6.668-1.985v-.389c2.881.421 8.502 1.079 7.962-.334-.356-.939-5.286-1.565-7.822-1.824v-.345c2.46.27 7.186.594 6.657-.809-.529-1.403-7.714-1.381-7.714-1.381l-2.719-.378s0-.96 1.963-1.597c1.964-.636 2.849-2.017.356-1.866-2.826.162-5.232 1.187-7.207 1.241-1.974.054-4.003 2.017-4.003 2.017l-.798 5.32s7.142 4.315 11.868 4.186c2.417.69 5.417 1.327 5.212.313zm-13.714 22.863v8.718c-2.158-2.158-6.183-5.395-6.183-5.395l2.957-2.903a4.41 4.41 0 013.226-.42z" fill="#FDA893"/><path d="M179.794 255.969c-1.208 7.769.799 30.06 3.313 34.289 3.237 5.492 15.472 18.504 21.838 25.205 1.154 1.208-5.87 5.038-5.87 5.038s-18.838-14.102-24.729-22.971c-1.662-2.524-4.456-9.807-6.345-22.755-.571-3.916-2.341-11.997-.895-16.572 1.651-5.298 8.243-6.226 12.688-2.234z" fill="#7C154B"/><path d="M173.612 383.522l-.162 8.265s2.072 1.478 6.28.669l1.597-8.912-7.715-.022z" fill="#FDA893"/><path d="M178.823 391.399s1.403-2.017 2.568-1.963c1.165.054 10.369 6.937 13.465 7.434 3.097.496 3 4.315 1.802 4.801-1.381.518-24.222.432-24.222.432s-.993-8.114-.27-10.326c.723-2.212 4.262.205 6.657-.378z" fill="#941759"/><path d="M183.937 396.233a.442.442 0 01-.345 0 .434.434 0 01-.21-.255.415.415 0 01.038-.328 6.672 6.672 0 012.158-2.406 2.988 2.988 0 013.064.054.434.434 0 11-.497.712 2.073 2.073 0 00-2.157 0 5.713 5.713 0 00-1.835 2.05.445.445 0 01-.216.173z" fill="#fff"/><path d="M182.611 395.057a.405.405 0 01-.335 0 .43.43 0 01-.183-.583 6.769 6.769 0 012.158-2.406 2.97 2.97 0 013.053.054.442.442 0 01.18.28.437.437 0 01-.072.325.433.433 0 01-.593.107 2.161 2.161 0 00-2.158 0 5.84 5.84 0 00-1.824 2.061.42.42 0 01-.226.162zm3.096 2.114a.488.488 0 01-.345 0 .443.443 0 01-.173-.583 6.488 6.488 0 012.158-2.406 2.932 2.932 0 013.054.054.418.418 0 01.108.594.442.442 0 01-.28.18.442.442 0 01-.325-.073 2.161 2.161 0 00-2.158 0 5.714 5.714 0 00-1.823 2.05.478.478 0 01-.216.184z" fill="#fff"/><path d="M182.157 385.616c-2.19.589-4.508.484-6.635-.302a8.478 8.478 0 01-1.004-.378 7.826 7.826 0 01-2.158-1.402s-3.075-7.898-.701-30.945c.313-3.053-.151-10.023 2.924-22.42-14.803 3.582-27.233 1.996-38.303-2.579l14.717-14.188s37.202-4.186 43.007 7.175c3.884 7.65-11.847 65.039-11.847 65.039z" fill="#8EB438"/><path d="M179.104 327.806c-.928 4.585-3.042 15.849-2.805 21.503a63.576 63.576 0 01-.701 9.214c-.864 7.294-1.932 16.325 0 26.79a8.301 8.301 0 01-1.004-.377c-1.791-10.369-.734-19.303.119-26.521.458-3.003.689-6.036.69-9.074-.226-5.545 1.673-15.979 2.827-21.708a1.292 1.292 0 00-.962-1.523 1.302 1.302 0 00-.656.012c-11.977 3.313-28.128 2.46-28.29 2.45a.467.467 0 01-.283-.808.447.447 0 01.337-.109c.162 0 16.184.841 27.988-2.417a2.156 2.156 0 012.158.507 2.162 2.162 0 01.582 2.061z" fill="#3B3D42"/><path d="M171.292 381.03l-.043 4.424 11.458 1.241.82-4.338-12.235-1.327z" fill="#AFDD44"/><path d="M100.449 375.312l-7.423 3.657s-.367 2.525 2.298 5.891l8.632-2.686-3.507-6.862z" fill="#FDA893"/><path d="M95.842 383.555s2.438.324 2.934 1.392c.497 1.068-1.391 12.386-.41 15.364.982 2.978-2.481 4.672-3.442 3.809-.96-.863-11.512-21.352-11.512-21.352s6.743-4.607 9.042-4.974c2.298-.367 1.77 3.895 3.388 5.761z" fill="#941759"/><path d="M93.867 390.32a.405.405 0 01-.13-.313.423.423 0 01.268-.392.42.42 0 01.164-.029 6.745 6.745 0 013.14.82 2.98 2.98 0 011.36 2.741.428.428 0 01-.31.395.44.44 0 01-.176.015.433.433 0 01-.367-.486 2.156 2.156 0 00-.993-1.91 5.765 5.765 0 00-2.664-.679.44.44 0 01-.292-.162z" fill="#fff"/><path d="M94.331 388.605a.434.434 0 01.073-.664.436.436 0 01.24-.07 6.745 6.745 0 013.14.82 2.992 2.992 0 011.349 2.708.418.418 0 01-.307.366.432.432 0 01-.33-.041.432.432 0 01-.216-.433 2.155 2.155 0 00-.981-1.909 5.804 5.804 0 00-2.666-.68.435.435 0 01-.302-.097zm-.463 3.721a.463.463 0 01-.13-.312.44.44 0 01.443-.432 6.667 6.667 0 013.14.831 2.972 2.972 0 011.348 2.74.424.424 0 01-.31.357.42.42 0 01-.165.01.421.421 0 01-.29-.163.437.437 0 01-.087-.322 2.158 2.158 0 00-.982-1.91 5.967 5.967 0 00-2.665-.68.413.413 0 01-.302-.119z" fill="#fff"/><path d="M165.703 364.425c-4.941 7.024-63.204 19.421-63.204 19.421a10.853 10.853 0 01-2.752-5.804 8.437 8.437 0 01-.129-1.015 7.69 7.69 0 01.205-2.859s2.838-3.463 24.395-11.944c2.859-1.133 8.837-6.053 18.18-9.419-8.06-14.221-14.63-28.053-15.03-40.169l4.262 1.154.961.27 18.245 4.985c7.574 14.414 18.914 39.748 14.867 45.38z" fill="#AFDD44"/><path d="M146.11 353.377a2.268 2.268 0 01-1.079 1.348c-3.723 1.878-12.829 6.593-17.037 9.581-2.309 1.64-7.434 3.885-12.85 6.269-5.87 2.579-11.868 5.233-15.332 7.477a8.42 8.42 0 01-.13-1.014c3.54-2.233 9.398-4.812 15.106-7.305 5.395-2.362 10.455-4.596 12.688-6.182 4.154-3.021 13.336-7.758 17.102-9.656a1.314 1.314 0 00.669-.788 1.354 1.354 0 00-.108-1.079c-9.808-17.608-12.71-31.495-13.509-38.238l.961.27c.906 6.754 3.841 20.338 13.378 37.569a2.248 2.248 0 01.141 1.748z" fill="#8EB438"/><path d="M101.377 372.571l-4.014 1.867 3.82 10.876 4.272-1.122-4.078-11.621z" fill="#F7B614"/><path d="M159.348 236.926s-9.322-.162-15.105 2.234c-5.783 2.395-6.474 11.393-8.826 18.018-2.352 6.625-14.382 49.718-6.473 57.875 5.945 6.161 38.216 11.059 39.413.399a341.083 341.083 0 015.87-37.17c2.438-11.232 5.729-19.022 6.074-23.909.346-4.888-11.868-14.879-11.868-14.879l-9.085-2.568z" fill="#941759"/><path d="M162.855 247.057c-4.316-1.51-6.798-7.552-6.906-7.811a.333.333 0 01.005-.249.324.324 0 01.179-.172.315.315 0 01.421.184c0 .064 2.568 6.376 6.894 7.552a.33.33 0 01.075.599.334.334 0 01-.247.038l-.421-.141zm-21.816 50.916a.326.326 0 01-.074-.595.321.321 0 01.247-.031c11.739 2.6 23.154-15.321 23.273-15.504a.309.309 0 01.202-.144.32.32 0 01.337.128.312.312 0 01.052.116.314.314 0 01-.041.245c-.475.755-11.782 18.493-23.964 15.796l-.032-.011z" fill="#7C154B"/><path d="M147.577 293.614a.299.299 0 01-.215-.237.324.324 0 01.042-.246.325.325 0 01.206-.143 15.36 15.36 0 0010.077-6.829.324.324 0 01.192-.162.325.325 0 01.25.021.327.327 0 01.141.443c-.119.226-2.924 5.47-10.52 7.164a.31.31 0 01-.173-.011z" fill="#7C154B"/><path d="M155.95 211.118s-.604-4.575 3.01-6.474c3.615-1.899 5.816-.55 8.934-2.158 3.118-1.607 15.807-1.262 16.087 4.737a5.473 5.473 0 01-1.233 4.238 5.479 5.479 0 01-3.957 1.955l-22.841-2.298z" fill="#3B3D42"/><path d="M180.053 220.548a13.081 13.081 0 01-10.557 9.985 13.075 13.075 0 01-12.858-20.458 13.076 13.076 0 0113.575-5.183 13.09 13.09 0 019.84 15.656z" fill="#3B3D42"/><path d="M177.086 223.634s2.644-2.234 3.636.334c.993 2.568-2.632 8.632-5.945 6.215l2.309-6.549z" fill="#FF877C"/><path d="M176.04 228.338a.321.321 0 00.205-.022.316.316 0 00.151-.14 4.919 4.919 0 013.345-2.244.315.315 0 00.208-.123.315.315 0 00-.294-.503 5.4 5.4 0 00-3.82 2.568.307.307 0 00.032.353.31.31 0 00.098.078l.075.033z" fill="#F25B56"/><path d="M178.403 227.798a.3.3 0 00.173 0 .312.312 0 00.194-.41 2.928 2.928 0 00-.949-1.208.323.323 0 00-.515.305.326.326 0 00.126.213c.317.238.572.549.745.906a.289.289 0 00.226.194z" fill="#F25B56"/><path d="M159.683 232.6l-1.499 6.538s2.039 3.496 4.617 4.316c2.579.82 4.91-1.932 4.91-1.932l1.435-6.29-9.463-2.632z" fill="#FDA893"/><path d="M159.683 232.6l-.669 2.902c1.327 2.363 4.315 3.571 9.171 3.949l.96-4.208-9.462-2.643z" fill="#FF877C"/><path d="M180.183 219.22a52.644 52.644 0 01-1.921 6.852 36.356 36.356 0 01-.777 1.953c-1.974 4.617-5.027 8.912-9.635 9.462-9.451 1.079-11.62-6.215-12.138-11.415 0-.54-.097-1.079-.118-1.532-.022-.454 0-1.198 0-1.867a64.53 64.53 0 011.079-8.448 6.957 6.957 0 015.88-5.686c4.316-.615 10.584-.453 15.526 4.078a7.027 7.027 0 012.104 6.603z" fill="#FDA893"/><path d="M172.048 223.374c-.162.701.076 1.349.518 1.446.442.097.928-.378 1.079-1.079.151-.702-.065-1.338-.518-1.446-.453-.108-.917.388-1.079 1.079zm-9.409-2.147c-.162.702.065 1.349.518 1.446.453.097.928-.378 1.079-1.079.151-.701-.076-1.349-.518-1.446-.442-.097-.917.378-1.079 1.079zm13.714-.949s-3.043-2.093-5.87-1.564l-.01 1.24c1.91.086 3.767.658 5.394 1.662.281-.507.572-.691.486-1.338zm-15.31-3.496s3.647-.561 5.977 1.143l-.496 1.144a11.086 11.086 0 00-5.611-.863c-.043-.593-.215-.906.13-1.424z" fill="#3B3D42"/><path d="M166.761 226.871a3.386 3.386 0 01-1.079-.497.313.313 0 01-.126-.329.318.318 0 01.14-.198.32.32 0 01.353.01c.259.172.884.507 1.219.399a.312.312 0 00.216-.248c.366-1.079.895-4.769.906-4.802a.32.32 0 01.122-.208.31.31 0 01.234-.061.318.318 0 01.262.233c.011.04.013.082.008.123a45.452 45.452 0 01-.928 4.92.932.932 0 01-.626.647c-.229.066-.471.07-.701.011z" fill="#FF877C"/><path d="M169.199 230.388a3.46 3.46 0 01-4.057 2.233 3.319 3.319 0 01-2.546-3.851l6.603 1.618z" fill="#fff"/><path d="M176.946 225.78c.571-1.176.964-2.43 1.165-3.722 0-1.565-1.003-2.73-.259-4.078.745-1.349-.431-3.237-1.5-3.788-1.068-.55-3.819-.55-6.128-2.373-2.309-1.824-6.689-1.888-7.758-.453-1.284 1.726-.172 2.157-2.956 3.722-1.079.615-.518 3.01-.68 4.445a9.296 9.296 0 01-.313 1.662l-.097.345-2.762-.626c.184-2.244.561-4.672.917-6.689a6.996 6.996 0 015.891-5.686c4.316-.615 10.574-.453 15.537 4.078a7.005 7.005 0 012.158 6.603 51.137 51.137 0 01-1.91 6.852l-1.305-.292z" fill="#3B3D42"/><path d="M156.597 222.392c.175-.707.283-1.43.324-2.158a2.662 2.662 0 00-.939-2.6 1.74 1.74 0 00-2.395 0c-2.007 1.878-1.921 9.193 2.158 8.427l.852-3.669z" fill="#FDA893"/><path d="M155.464 223.893a.327.327 0 01-.194-.335 4.873 4.873 0 00-1.316-3.809.331.331 0 010-.453.306.306 0 01.103-.071.309.309 0 01.35.071 5.5 5.5 0 011.5 4.316.317.317 0 01-.243.257.305.305 0 01-.124.002l-.076.022z" fill="#FF877C"/><path d="M153.9 222.004a.34.34 0 01-.129-.118.31.31 0 01-.003-.355.31.31 0 01.089-.088c.454-.257.967-.39 1.489-.388a.323.323 0 010 .636 2.247 2.247 0 00-1.144.292.339.339 0 01-.302.021z" fill="#FF877C"/><path d="M142.334 240.271c5.47 6.473 25.409 28.969 29.746 31.289 5.643 3.032 23.317 7.639 32.218 10.121 1.608.442-.982 8.566-.982 8.566s-25.409-3.355-35.033-7.973c-2.719-1.306-13.412-8.351-21.245-16.875-2.686-2.924-6.474-7.941-8.211-12.418-2.05-5.374-.183-10.272 3.507-12.71z" fill="#7C154B"/><path d="M486.895 404.843c0 3.075-18.191 5.556-40.644 5.556s-40.644-2.481-40.644-5.556 18.202-5.557 40.644-5.557c22.442 0 40.644 2.493 40.644 5.557z" fill="#CFCFCF"/><path d="M433.186 388.087v6.603l6.031-.108.388-6.98-6.419.485z" fill="#FDA893"/><path d="M434.231 394.075s-1.51-1.985-2.697-1.888c-1.187.097-10.229 7.466-13.357 8.103-3.129.637-2.482 2.935-1.899 4.1.582 1.165 24.815-.302 24.815-.302s.756-7.693-.064-9.905c-.82-2.212-4.338.389-6.798-.108z" fill="#941759"/><path d="M429.247 399.2c.053.023.11.036.168.036a.421.421 0 00.167-.036.447.447 0 00.162-.604 6.83 6.83 0 00-2.309-2.352 3.004 3.004 0 00-3.097.183.427.427 0 00-.174.289.433.433 0 00.088.326.44.44 0 00.615.086 2.16 2.16 0 012.158-.097 6.05 6.05 0 011.942 2.007.405.405 0 00.28.162z" fill="#fff"/><path d="M430.498 397.949a.45.45 0 00.173.036.45.45 0 00.173-.036.444.444 0 00.161-.605 6.83 6.83 0 00-2.309-2.352 3.024 3.024 0 00-3.107.184.432.432 0 00-.075.615.44.44 0 00.615.086 2.16 2.16 0 012.157-.097c.8.508 1.465 1.2 1.943 2.017a.44.44 0 00.269.152zm-3.01 2.276a.458.458 0 00.334 0 .44.44 0 00.162-.604 6.83 6.83 0 00-2.309-2.352 3.045 3.045 0 00-3.107.183.447.447 0 00-.031.58.443.443 0 00.57.111 2.157 2.157 0 012.158-.087 6.049 6.049 0 011.996 1.975.44.44 0 00.227.194z" fill="#fff"/><path d="M447.503 277.613c-.162 2.557-.335 5.395-.518 8.535 0 .572-.075 1.143-.108 1.726l-.065 1.079c-1.219 19.82-2.945 46.697-3.83 55.307-1.812 17.479-1.899 43.967-1.899 43.967h-9.624c-.906-18.806-2.471-71.556-3.237-99.037 0-.874 0-1.715-.075-2.535-.097-3.571-.184-6.625-.249-8.999l19.605-.043z" fill="#AFDD44"/><path d="M447.504 277.613c-.162 2.558-.334 5.395-.518 8.535h-.216c-6.196.641-12.434.789-18.655.442-.097-3.571-.183-6.625-.248-8.998l19.637.021z" fill="#8EB438"/><path d="M443.447 277.613c-.896 17.954-2.298 44.367-3.366 55.361-1.079 11.361-2.158 42.683-2.558 55.21h1.252c.356-12.538 1.435-43.784 2.514-55.048 1.079-11.027 2.482-37.504 3.366-55.48l-1.208-.043z" fill="#8EB438"/><path d="M430.402 384.721l.432 4.402h11.534l.345-4.402h-12.311z" fill="#F7B614"/><path d="M453.977 387.688l.248 6.592 6.02-.324.141-7.002-6.409.734z" fill="#FDA893"/><path d="M456.945 392.477a27.837 27.837 0 014.089-.647c.874.054 6.473 6.895 8.426 7.369 3.561.863 3.324 6.474 1.079 6.657-6.365.518-17.058-2.632-17.058-2.632s-.68-7.24-.14-9.484c.539-2.244 1.802-.658 3.604-1.263z" fill="#941759"/><path d="M461.907 398.876a.495.495 0 01-.345-.076.44.44 0 01-.086-.615 6.606 6.606 0 012.546-2.093 3.032 3.032 0 013.064.507.454.454 0 010 .626.434.434 0 01-.312.13.448.448 0 01-.313-.13 2.161 2.161 0 00-2.158-.324 5.954 5.954 0 00-2.158 1.791.432.432 0 01-.238.184z" fill="#fff"/><path d="M460.71 397.495a.413.413 0 01-.334-.076.44.44 0 01-.097-.615 6.79 6.79 0 012.546-2.093 3.031 3.031 0 013.064.507.454.454 0 010 .626.444.444 0 01-.626 0 2.153 2.153 0 00-2.157-.324 6.067 6.067 0 00-2.158 1.791.41.41 0 01-.238.184zm2.836 2.589a.503.503 0 01-.345-.086.444.444 0 01-.086-.615 6.697 6.697 0 012.546-2.093 2.998 2.998 0 013.064.518.44.44 0 010 .615.454.454 0 01-.626 0 2.153 2.153 0 00-2.158-.324 5.853 5.853 0 00-2.158 1.791.449.449 0 01-.237.194z" fill="#fff"/><path d="M465.888 277.613c0 1.435-.087 3.118-.14 5.007v.431c-.713 24.913-2.46 84.816-3.442 105.133h-9.625s-.086-26.488-1.898-43.967c-.885-8.632-2.612-35.498-3.831-55.329l-.064-1.014c0-.572-.076-1.144-.108-1.705-.184-3.107-.356-5.999-.518-8.556h19.626z" fill="#AFDD44"/><path d="M465.889 277.614c0 1.435-.087 3.118-.14 5.006a115.085 115.085 0 01-18.17 3.463h-.809c-.184-3.107-.356-5.999-.518-8.556l19.637.087z" fill="#8EB438"/><path d="M450.351 277.613H449.1c.884 17.976 2.298 44.453 3.366 55.48 1.079 11.307 2.158 42.553 2.557 55.091h1.252c-.4-12.527-1.457-43.849-2.557-55.21-1.069-10.994-2.471-37.407-3.367-55.361z" fill="#8EB438"/><path d="M463.354 384.721l-.432 4.402h-11.534l-.345-4.402h12.311z" fill="#F7B614"/><path d="M435.452 227.518c-5.967 8.761-22.108 16.4-22.108 16.4a44.678 44.678 0 01-13.422-5.093 40.222 40.222 0 002.158-8.836 112.979 112.979 0 0010.271 2.352c11.631-5.395 25.28-32.573 25.28-32.573 3.809 7.746-2.179 27.75-2.179 27.75z" fill="#7C154B"/><path d="M427.964 279.598c11.803 8.697 39.101.453 39.101.453 3.075-3.754-1.198-12.343-2.45-22.388-1.079-8.459.162-19.939 1.727-28.419.291-1.597.593-3.075.895-4.424 1.921-8.491 2.158-22.658 2.158-22.658-1.489-.755-3.873-1.78-6.29-2.762-1.511-.615-3.032-1.208-4.316-1.726-2.352-.917-4.1-1.565-4.1-1.565l-9.71 1.489-1.921.594-3.161.96-2.158.647s-1.489 9.614-2.913 15.451a23.257 23.257 0 01-1.133 3.668c-1.619 3.529-1.219 5.233.485 9.905.417 1.149.689 2.345.809 3.561 0 .312.065.636.087.971.248 3.938-.529 8.836-1.802 15.461-1.5 7.725-5.147 22.658-6.398 27.707a2.972 2.972 0 001.09 3.075z" fill="#941759"/><path d="M434.922 232.352c0 .312.065.636.086.971 4.845 4.1 13.196 9.71 22.723 9.71a.34.34 0 00.282-.075.332.332 0 00.091-.119.332.332 0 000-.292.329.329 0 00-.091-.118.356.356 0 00-.282-.076c-9.678-.021-18.137-5.945-22.809-10.001zm9.807-15.613c4.834 0 9.301-5.146 9.495-5.395a.345.345 0 00-.518-.442c-.054 0-4.726 5.395-9.398 5.125a.334.334 0 00-.278.561.36.36 0 00.235.119l.464.032zm11.309 48.963a.344.344 0 00.284-.34.344.344 0 00-.284-.34c-12.505-1.446-17.684-23.078-17.738-23.305a.333.333 0 00-.41-.248.356.356 0 00-.259.41c.216.906 5.395 22.323 18.342 23.812l.065.011z" fill="#7C154B"/><path d="M451.064 259.152a.372.372 0 00.291-.162.36.36 0 00.046-.127.352.352 0 00-.165-.347 16.192 16.192 0 01-7.65-10.196.327.327 0 00-.131-.23.341.341 0 00-.257-.062.346.346 0 00-.28.389c0 .259 1.078 6.409 7.962 10.681a.362.362 0 00.184.054z" fill="#7C154B"/><path d="M445.777 190.596h12.689a9.052 9.052 0 009.009-9.991 1.557 1.557 0 000-.216c-.356-3.765-.906-8.977-.906-8.977-1.317-11.296-12.872-12.613-12.872-12.613-13.929-1.866-17.889 9.862-17.835 16.293 0 .431 0 .873.065 1.316a47.874 47.874 0 001.251 7.121 8.806 8.806 0 008.599 7.067z" fill="#3B3D42"/><path d="M440.424 177.25s-2.071-2.611-3.603-.443c-1.533 2.169.636 8.546 4.391 6.992l-.788-6.549z" fill="#FF877C"/><path d="M439.529 183.357a.692.692 0 01-.829.676.69.69 0 01.15-1.367.674.674 0 01.484.203.67.67 0 01.195.488z" fill="#fff"/><path d="M440.393 181.824a.304.304 0 01-.302-.227 4.772 4.772 0 00-2.762-2.773.3.3 0 01-.016-.562.317.317 0 01.242-.009 5.404 5.404 0 011.925 1.274 5.411 5.411 0 011.215 1.962.297.297 0 01-.023.238.294.294 0 01-.193.14l-.086-.043z" fill="#F25B56"/><path d="M438.224 180.832a.321.321 0 01-.173-.054.287.287 0 01-.141-.183.276.276 0 01-.002-.118.276.276 0 01.046-.109c.305-.412.72-.73 1.198-.917a.313.313 0 01.44.266.299.299 0 01-.083.218.283.283 0 01-.098.066c-.363.143-.68.382-.917.691a.357.357 0 01-.27.14z" fill="#F25B56"/><path d="M456.393 190.628v7.045s-3.636 3.604-6.474 3.852c-2.838.248-3.819-3.107-3.819-3.107v-7.294l10.293-.496z" fill="#FDA893"/><path d="M456.394 191.395v3.128c-1.91 2.158-5.287 2.86-10.304 2.158v-4.758l10.304-.528z" fill="#FF877C"/><path d="M439.131 180.238c.097.755.205 1.521.334 2.287.906 5.103 4.132 10.606 8.2 11.534 8.794 1.996 12.451-4.909 13.854-10.002.151-.572-.14-1.219 0-1.888a52.611 52.611 0 001.079-5.168c.097-1.23.172-2.449.216-3.55a7.185 7.185 0 00-4.457-7.056c-4.035-1.608-10.174-2.881-15.99.528a7.29 7.29 0 00-3.549 6.14 56.56 56.56 0 00.313 7.175z" fill="#FDA893"/><path d="M449.919 184.176a.336.336 0 10.054-.669l-1.176-.205 1.618-4.316a.334.334 0 00-.194-.431.347.347 0 00-.261.006.35.35 0 00-.181.188l-1.91 5.082 1.996.334.054.011z" fill="#FF877C"/><path d="M463.773 172.523c0 1.079-.13 2.352-.238 3.615-.571.334-1.963.496-2.017 1.413-.151 2.417-.27 4.078-.777 3.938-.852-.248-1.392-3.183-.41-5.082 0 0-.788-1.284-3.992-2.514a61.847 61.847 0 01-8.06-3.927 7.469 7.469 0 01-2.158-1.964 7.29 7.29 0 01-3.56 3.647c-2.158 1.004-2.547 3.032-2.806 4.909l-.097.637a6.184 6.184 0 01-.604 2.158c-.075.14-.151.162-.237.097a55.928 55.928 0 01-.227-2.514v-.658a62.857 62.857 0 01-.065-4.143 7.363 7.363 0 013.734-6.258c6.128-3.474 12.602-2.158 16.864-.54a7.329 7.329 0 014.65 7.186z" fill="#3B3D42"/><path d="M445.604 178.49c0 .745-.388 1.36-.874 1.36-.485 0-.863-.615-.863-1.36 0-.744.389-1.37.863-1.37.475 0 .874.647.874 1.37zm9.711 0c0 .745-.388 1.36-.863 1.36s-.874-.615-.874-1.36c0-.744.389-1.37.874-1.37.486 0 .863.647.863 1.37zm-12.602-3.582a17.017 17.017 0 013.604-.302c.388 0 .712.313.658.626a.561.561 0 01-.637.388 19.218 19.218 0 00-4.941.313.637.637 0 01.269-.539 2.16 2.16 0 011.047-.486zm13.918.173a16.19 16.19 0 00-3.593-.356c-.399 0-.723.302-.669.615a.564.564 0 00.626.41 18.77 18.77 0 014.931.378.619.619 0 00-.053-.303.615.615 0 00-.195-.237 2.032 2.032 0 00-1.047-.507z" fill="#3B3D42"/><path d="M446.121 186.216a3.885 3.885 0 003.927 3.398 3.743 3.743 0 003.917-3.398h-7.844z" fill="#fff"/><path d="M450.006 191.675a3.315 3.315 0 01-1.565-.464.337.337 0 01-.098-.45.335.335 0 01.444-.122c.37.22.789.346 1.219.367.455-.015.9-.141 1.295-.367a.327.327 0 01.252-.038.317.317 0 01.116.058c.035.027.064.06.085.099a.336.336 0 01-.108.453 3.452 3.452 0 01-1.64.464z" fill="#FF877C"/><path d="M461.605 177.239s2.395-2.924 3.819-.82-.593 8.308-4.057 6.797l.238-5.977z" fill="#FDA893"/><path d="M463.547 183.357a.687.687 0 01-.426.638.698.698 0 01-.753-.15.69.69 0 111.179-.488z" fill="#fff"/><path d="M462.122 181.296a.29.29 0 00.281-.216 4.57 4.57 0 012.546-2.697.276.276 0 00.163-.154.284.284 0 00-.001-.224.295.295 0 00-.378-.172 5.035 5.035 0 00-2.891 3.085.295.295 0 00-.013.114.299.299 0 00.106.199.274.274 0 00.101.054l.086.011z" fill="#FF877C"/><path d="M464.129 180.335a.259.259 0 00.151 0 .294.294 0 00.084-.077.287.287 0 00.003-.322 2.698 2.698 0 00-1.079-.896.303.303 0 00-.389.151.296.296 0 00-.006.226c.014.037.035.07.062.097a.285.285 0 00.095.066c.333.152.625.381.853.669a.3.3 0 00.226.086z" fill="#FF877C"/><path d="M467.095 162.951c.899-5.529-2.854-10.74-8.382-11.639-5.529-.9-10.74 2.853-11.639 8.382-.9 5.528 2.853 10.739 8.382 11.639 5.528.899 10.739-2.854 11.639-8.382z" fill="#3B3D42"/><path d="M451.053 177.843v.582a4.304 4.304 0 001.284 3.108 4.315 4.315 0 003.064 1.262h.14a3.91 3.91 0 002.708-1.198 4.317 4.317 0 001.263-3.064v-.69a1.56 1.56 0 00-.108-.54 1.528 1.528 0 00-1.424-.992h-5.395a1.503 1.503 0 00-1.381.874 1.372 1.372 0 00-.151.625v.033zm.636 0a.897.897 0 01.896-.896h5.395a.896.896 0 01.895.896v.69a3.636 3.636 0 01-1.079 2.611 3.337 3.337 0 01-2.276 1.015h-.13a3.682 3.682 0 01-3.69-3.734l-.011-.582zm-11.48 0v.583a4.316 4.316 0 004.316 4.315h.14a3.895 3.895 0 002.708-1.197 4.32 4.32 0 001.263-3.065v-.712a1.534 1.534 0 00-1.533-1.51h-5.394a1.54 1.54 0 00-1.478 1.079c-.033.167-.04.338-.022.507zm.637 0a.894.894 0 01.895-.896h5.395a.896.896 0 01.895.896v.69a3.629 3.629 0 01-1.079 2.611 3.31 3.31 0 01-2.276 1.015h-.13a3.68 3.68 0 01-2.611-1.079 3.713 3.713 0 01-1.079-2.654l-.01-.583z" fill="#fff"/><path d="M462.965 176.041a7.427 7.427 0 00-3.237.723c-.14.065-.529.324-.55.335l.302.539s.431-.259.593-.334a6.55 6.55 0 012.05-.583l.842-.68zm-11.492 1.824l.216-.593a6.636 6.636 0 00-1.921-.324 4.314 4.314 0 00-1.737.334l.27.572a3.875 3.875 0 011.467-.27 6.165 6.165 0 011.705.281zm-10.616-.885l-.281.572a8.18 8.18 0 00-1.996-.626v-.658c.41.066.814.164 1.208.291.366.116.723.256 1.069.421z" fill="#fff"/><path d="M444.465 256.026c12.758-12.758 12.758-33.444 0-46.203-12.759-12.758-33.445-12.758-46.203 0-12.759 12.759-12.759 33.445 0 46.203 12.758 12.759 33.444 12.759 46.203 0z" fill="#AFDD44"/><path d="M437.361 229.665a9.716 9.716 0 01-2.848 6.895l-12.948 12.947-12.947-12.947a9.796 9.796 0 010-13.789c3.539-3.539 8.934-2.892 12.947 3.085 4.025-5.977 9.419-6.624 12.948-3.085a9.716 9.716 0 012.848 6.894z" fill="#fff"/><path d="M429.269 257.426l-1.327.669a3.24 3.24 0 01-3.507-.432 17.465 17.465 0 00-1.597-1.23c-1.079-.518-3.42-1.079-4.078-.766-.658.313.054 1.392.766 1.684.872.279 1.708.659 2.492 1.132.745.54-1.985 3.777-3.236 4.834-1.252 1.057-4.1 1.554-3.755 2.848.345 1.295 2.298.518 2.298.518s0 1.338 1.974 1.425a1.6 1.6 0 001.522 1.219 1.798 1.798 0 001.888 1.133c1.327-.248 5.47-1.079 10.39-8.912l-3.83-4.122z" fill="#FDA893"/><path d="M459.178 226.73a46.864 46.864 0 01-5.88 16.605s-4.78 2.849-12.095 7.693a100.112 100.112 0 01-11.933 6.398c1.327 1.726 2.686 5.568 2.157 6.593 14.717-3.302 29.391-13.25 29.391-13.25 11.502-13.336 11.275-43.158 11.275-43.158s-.367-4.413-2.751-5.535a11.684 11.684 0 00-6.474 7.445c-1.683 5.708-3.69 17.209-3.69 17.209z" fill="#7C154B"/><path d="M388.236 227.14s3.776.291 5.006 1.575c1.23 1.284-3.928 1.705-3.928 1.705s6.226-.464 6.625 1.003c.399 1.467-5.643 2.093-5.643 2.093s4.262.324 4.683 1.424c.421 1.101-3.981 1.727-3.981 1.727s3.355.604 3.754 1.402c.4.799-3.236 1.77-5.189 1.586-1.953-.183-1.176-2.708-1.176-2.708s-.982-2.158-.335-3.01c0 0-1.176-1.856-.788-3.053 0 0-1.435-3.108.972-3.744z" fill="#FDA893"/><path d="M401.022 403.742c0 2.298-13.552 4.154-30.265 4.154-16.712 0-30.21-1.856-30.21-4.154s13.541-4.165 30.21-4.165c16.67 0 30.265 1.867 30.265 4.165z" fill="#CFCFCF"/><path d="M373.389 403.622c17.985-1.45 31.389-17.206 29.939-35.191-1.45-17.985-17.206-31.389-35.191-29.939-17.985 1.451-31.389 17.206-29.939 35.191 1.45 17.985 17.206 31.389 35.191 29.939z" fill="#941759"/><path d="M366.204 390.665v-.41c-.119-4.046-.226-8.081-.334-12.127 0-.291-.098-.399-.378-.485l-13.206-4.09a.798.798 0 01-.335-.183l.755-.27 12.592-4.585c.248-.087.302-.195.291-.453l-.356-13.045v-.324c.093.088.179.181.259.281 2.877 3.474 5.754 6.952 8.632 10.433a.47.47 0 00.625.173c3.917-1.424 7.823-2.816 11.739-4.23a1.78 1.78 0 01.518-.118l-.194.27c-2.575 3.51-5.161 7.013-7.758 10.508a.406.406 0 00-.098.468.43.43 0 00.098.137c2.795 3.495 5.568 7.002 8.351 10.498l.227.334-.561-.151a4209.765 4209.765 0 01-12.537-3.582.403.403 0 00-.29-.007.404.404 0 00-.218.191 5615.515 5615.515 0 01-7.498 10.411l-.324.356z" fill="#fff"/><defs><linearGradient id="paint0_linear_5115_42980" x1="572.004" y1="411.785" x2="247.098" y2="-104.094" gradientUnits="userSpaceOnUse"><stop stop-color="#A0CA3F"/><stop offset="1" stop-color="#7B9C30"/></linearGradient></defs></svg>