<svg width="574" height="384" fill="none" xmlns="http://www.w3.org/2000/svg"><path fill-rule="evenodd" clip-rule="evenodd" d="M62.17 80.878c38.316-32.846 100.124-34.607 153.938-48.614C263.337 19.97 308.231-2.82 357.231 4.076c49.752 7.003 87.359 36.695 122.505 65.292 36.412 29.629 70.372 61.542 82.6 101.6 13.437 44.018 21.356 94.887-11.251 132.138-32.124 36.7-97.632 38.997-151.216 53.469-48.015 12.967-93.962 27.57-144.73 26.458-60.214-1.32-124.729-3.141-171.155-33.38-49.492-32.235-79.448-82.094-83.54-132.51-4.005-49.353 19.254-99.855 61.727-136.265z" fill="#E7F4CA"/><g clip-path="url(#clip0_7608_49176)"><path d="M450.028 372.046l-25.003-.001v-.316a9.736 9.736 0 019.732-9.732h.001l4.567-3.465 8.521 3.466h2.183l-.001 10.048zm-36.025 0L389 372.045v-.316a9.732 9.732 0 019.732-9.732l4.568-3.465 8.521 3.466h2.182v10.048z" fill="#2F2E41"/><path d="M506.262 372.171a.732.732 0 01-.219.531.742.742 0 01-.531.219H328.799a.75.75 0 110-1.5h176.713a.742.742 0 01.694.463.727.727 0 01.056.287z" fill="#CCC"/><path d="M101.342 127.456l-20.514-11.555a75.964 75.964 0 017.997-35.665c4.73 21.467 29.62 31.68 41.104 50.423a45.689 45.689 0 013.71 39.432l1.349 16.644a76.566 76.566 0 01-48.073-42.417 73.962 73.962 0 01-5.13-17.831c9.564 1.018 19.557.969 19.557.969zm368.775 210.205l.629-14.144a45.686 45.686 0 0121.307-5.394c-10.233 8.367-8.954 24.494-15.892 35.745a27.478 27.478 0 01-20.149 12.698l-8.564 5.243a46.052 46.052 0 01.759-19.72 46.052 46.052 0 018.946-17.59 44.5 44.5 0 018.173-7.595c2.051 5.408 4.791 10.757 4.791 10.757z" fill="#F2F2F2"/><path d="M448.051 364.53l-7.755-.001-3.689-29.909 11.445.001-.001 29.909zm-36.026 0l-7.754-.001-3.689-29.909 11.445.001-.002 29.909z" fill="#FFB6B6"/><path d="M408.669 201.013l50.438 1.261c9.579 5.203 9.724 16.463 6.585 29.833 0 0 1.06 7.947-1.059 10.066-2.119 2.119-3.179 2.119-2.119 5.828 1.059 3.708-4.539 9.765-3.859 10.445.68.68 2.269 4.389 2.269 4.389l-5.297 30.197s-3.709 52.448-4.768 53.508c-1.06 1.059-2.119 0-1.06 2.648 1.06 2.649 2.119 1.59 1.06 2.649a38.86 38.86 0 00-2.649 3.179h-12.809s-.965-5.298-.965-5.828c0-.529-1.06-3.708-1.06-4.238 0-.53.936-1.466.936-1.466.324-1.077.543-2.183.653-3.302 0-1.059 3.179-41.852 3.179-41.852l-6.357-52.978-15.364 51.918s0 45.561-1.059 46.621c-1.06 1.059-1.06.529-.53 2.649.53 2.119 2.649 1.589 1.059 3.178-1.589 1.59-2.119-1.059-1.589 1.59l.53 2.648-15.894.228s-2.119-4.466-1.059-6.055c1.059-1.589.996-1.156-.297-3.757-1.293-2.6-1.822-3.13-1.293-3.66.53-.53.53-3.348.53-3.348l2.649-50.689s.53-53.508.53-55.097a5.291 5.291 0 00-.44-2.384v-2.157l2.029-7.644 7.08-18.38z" fill="#2F2E41"/><path d="M438.968 96.137c8.655 0 15.671-7.016 15.671-15.671s-7.016-15.671-15.671-15.671-15.671 7.016-15.671 15.671 7.016 15.671 15.671 15.671z" fill="#FFB6B6"/><path d="M431.132 106.495c-3.376 2.007-5.395 5.695-6.555 9.447a89.552 89.552 0 00-3.847 21.391l-1.225 21.736-15.165 46.281c13.143 11.121 62.548 2.527 62.548 2.527s1.517-.505 0-2.022c-1.517-1.516-2.993-.173-1.476-1.689 1.516-1.517.471.173-.035-1.344-.505-1.517 0-.506.506-1.011.505-.506-3.914-5.055-3.914-5.055l4.044-26.566 5.056-53.585c-6.067-7.583-18.267-12.053-18.267-12.053l-3.152-5.674-15.762 1.261-2.756 6.356z" fill="#941759"/><path d="M428.983 71.269a7.41 7.41 0 011.797.235c1.157.279 2.333.476 3.517.59a16.297 16.297 0 0114.594 13.825c.911-.794 2.983-2.254 4.681-.897.026.021.041.032.101.004 1.128-.535 3.13-7.12 3.191-12.92.032-3.078-.453-7.008-2.942-8.252l-.131-.066-.035-.142c-.166-.693-2.024-1.875-5.253-2.794-5.869-1.672-14.617-4.928-19.543-.136-.373 1.615-1.586 5.073-2.811 5.465-1.357.433-2.528.808-2.713 2.472a50.988 50.988 0 00.034 7.111 7.258 7.258 0 012.58-3.624 5.112 5.112 0 012.933-.871z" fill="#2F2E41"/><path d="M399.815 157.859l25.599-16.394-12.894-17.14-12.731 15.661-39.668 2.433a7.568 7.568 0 00-3.802-2.031 7.564 7.564 0 00-9.067 7.12 7.56 7.56 0 0012.446 6.052l40.117 4.299z" fill="#FFB6B6"/><path d="M449.173 118.581c1.486 8.992-26.571 26.162-26.571 26.162-.001-2.111-16.747 13.822-17.503 12.071-2.148-4.974-3.658-16.757-6.66-18.642-1.717-1.079 10.339-11.211 10.339-11.211s6.311-6.357 14.592-14.376a19.322 19.322 0 0117.894-5.231s6.423 2.236 7.909 11.227z" fill="#941759"/><path d="M501.936 162.162l-16.933-25.246-16.862 13.253 15.926 12.397 3.273 39.608a7.558 7.558 0 001.251 11.461 7.565 7.565 0 008.261.139 7.56 7.56 0 001.635-11.413l3.449-40.199z" fill="#FFB6B6"/><path d="M461.624 113.647c8.958-1.675 26.718 26.012 26.718 26.012-2.11.045 14.173 16.45 12.439 17.242-4.928 2.253-16.676 4.013-18.497 7.054-1.042 1.739-11.427-10.099-11.427-10.099s-6.49-6.175-14.682-14.285a19.314 19.314 0 01-5.608-17.779s2.099-6.469 11.057-8.145z" fill="#941759"/><path d="M342.559 144.815H128.093a12.655 12.655 0 00-12.638 12.639v133.525a12.655 12.655 0 0012.638 12.638h214.465a12.655 12.655 0 0012.639-12.638V157.454a12.657 12.657 0 00-12.638-12.639z" fill="#8EB438"/><path d="M342.559 144.815H128.093a12.655 12.655 0 00-12.638 12.639v133.525a12.655 12.655 0 0012.638 12.638h214.465a12.655 12.655 0 0012.639-12.638V157.454a12.657 12.657 0 00-12.638-12.639zm4.147 95.913a51.954 51.954 0 01-51.079 51.751c-21.762.283 12.04.394-14.206.394-60.015 0-122.595-.574-145.944-.946a11.77 11.77 0 01-11.531-11.725V157.463a4.16 4.16 0 014.146-4.156H342.55a4.16 4.16 0 014.156 4.145v83.276z" fill="#3F3D56"/><path d="M316.158 67.927h-163.4a7.02 7.02 0 00-6.602 4.655l-25.236 70.801a7.012 7.012 0 003.37 8.572c.995.517 2.1.788 3.222.79l219.146.389h.01a7.007 7.007 0 006.442-9.77l-.382.164.382-.164-30.51-71.19a7.006 7.006 0 00-6.442-4.247z" fill="#3F3D56"/><path d="M353.676 144.901a7.047 7.047 0 01-.567 2.762l-30.509 54.8a7.03 7.03 0 01-6.443 4.243H152.759a7.03 7.03 0 01-6.607-4.653l-25.231-54.409a7.007 7.007 0 016.588-9.363l26.77-.05 10.926-.019 143.771-.252 10.932-.019 26.751-.05h.006a7.01 7.01 0 017.011 7.01zM144.17 244.974c3.24 0 47.735 2.719 47.735 5.959 0 3.24-44.495 5.774-47.735 5.774a5.868 5.868 0 01-5.867-5.867 5.866 5.866 0 015.867-5.866z" fill="#3F3D56"/><path d="M305.982 24.856H168.206a13.944 13.944 0 00-13.927 13.927v167.925h161.879a6.925 6.925 0 003.751-1.091V38.783a13.946 13.946 0 00-13.927-13.927z" fill="#941759"/><path d="M253.395 36.147H177.89a12.698 12.698 0 00-12.685 12.678v157.881h143.771V91.728a55.645 55.645 0 00-55.581-55.581z" fill="#fff"/><path d="M284.483 192.686h-94.784a3.091 3.091 0 00-3.09 3.089 3.09 3.09 0 003.09 3.089h94.784a3.086 3.086 0 003.089-3.089 3.088 3.088 0 00-3.089-3.089zm.001-12.22H189.7a3.094 3.094 0 000 6.185h94.784a3.094 3.094 0 000-6.185zm-53.698-12.211h-41.087a3.088 3.088 0 100 6.178h41.087c.819 0 1.605-.325 2.185-.904a3.091 3.091 0 00-2.185-5.274zm53.698-25.585H189.7a3.094 3.094 0 000 6.185h94.784a3.094 3.094 0 000-6.185zm-.001-12.211h-94.784a3.088 3.088 0 00-2.185 5.274c.58.579 1.365.905 2.185.905h94.784a3.09 3.09 0 000-6.179zm-53.696-12.22H189.7a3.094 3.094 0 000 6.185h41.087a3.094 3.094 0 000-6.185z" fill="#941759"/><path d="M284.484 92.655H189.7a3.094 3.094 0 00-2.187 5.28c.58.58 1.367.905 2.187.905h94.784a3.094 3.094 0 002.187-5.279 3.094 3.094 0 00-2.187-.906zm0-12.212H189.7a3.094 3.094 0 00-2.187 5.28c.58.58 1.367.905 2.187.905h94.784a3.094 3.094 0 002.187-5.279 3.094 3.094 0 00-2.187-.906zm-53.697-12.217H189.7a3.094 3.094 0 00-2.187 5.279c.58.58 1.367.905 2.187.905h41.087a3.094 3.094 0 002.187-5.279 3.094 3.094 0 00-2.187-.905zm83.957-19.536c13.288 0 24.06-10.772 24.06-24.06 0-13.288-10.772-24.06-24.06-24.06-13.288 0-24.06 10.771-24.06 24.06 0 13.288 10.772 24.06 24.06 24.06z" fill="#8EB438"/><path d="M311.461 37.152a2.678 2.678 0 01-2.141-1.07l-6.564-8.753a2.674 2.674 0 01-.167-2.973 2.681 2.681 0 013.673-.938c.302.18.566.418.777.7l4.294 5.726 11.03-16.545a2.675 2.675 0 014.851.96 2.68 2.68 0 01-.397 2.01L313.688 35.96a2.668 2.668 0 01-2.227 1.191z" fill="#fff"/></g><defs><clipPath id="clip0_7608_49176"><path fill="#fff" transform="translate(80.813 .57)" d="M0 0h425.449v372.352H0z"/></clipPath></defs></svg>