<svg width="570" height="373" fill="none" xmlns="http://www.w3.org/2000/svg"><path opacity=".12" fill-rule="evenodd" clip-rule="evenodd" d="M61.737 86.283c38.049-31.134 99.426-32.803 152.865-46.08 46.9-11.653 91.481-33.256 140.14-26.719 49.405 6.638 86.75 34.782 121.65 61.889 36.159 28.084 69.883 58.333 82.026 96.303 13.343 41.723 21.207 89.94-11.173 125.249-31.901 34.787-96.951 36.964-150.162 50.682-47.681 12.291-93.308 26.133-143.722 25.078-59.794-1.25-123.86-2.977-169.962-31.639C34.252 310.491 4.505 263.231.44 215.443c-3.977-46.78 19.12-94.648 61.296-129.16z" fill="url(#paint0_linear_5391_44044)"/><path d="M460.359 294.217l4.82 32.71c.512 3.589 3.486 6.255 7.075 6.357 3.281.103 8.101.205 14.971.205 7.177 0 12.202-.102 15.586-.205 3.588-.102 6.562-2.768 7.075-6.357l4.819-32.71h-54.346z" fill="#C63A83"/><path d="M487.531 315.339c9.947 0 18.867-1.231 24.507-3.179l2.564-17.329h-54.141l2.563 17.329c5.64 1.948 14.561 3.179 24.507 3.179z" fill="#C63A83"/><path d="M518.5 303.136c0 4.511-13.843 8.203-30.864 8.203-17.124 0-30.865-3.692-30.865-8.203l-1.435-12.305h64.805l-1.641 12.305z" fill="#8B1553"/><path d="M519.936 290.835c0 4.717-14.458 8.613-32.403 8.613-17.944 0-32.402-3.896-32.402-8.613s14.458-8.613 32.402-8.613c17.945 0 32.403 3.896 32.403 8.613z" fill="#C63A83"/><path d="M487.532 297.089c16.027 0 29.019-2.892 29.019-6.46s-12.992-6.46-29.019-6.46c-16.026 0-29.018 2.892-29.018 6.46s12.992 6.46 29.018 6.46z" fill="#8EB438"/><path opacity=".5" d="M459.847 292.577c3.691-2.666 14.663-4.512 27.685-4.512 13.023 0 23.994 1.949 27.686 4.512.82-.615 1.333-1.23 1.333-1.948 0-3.589-13.023-6.46-29.019-6.46-15.996 0-29.018 2.871-29.018 6.46.102.718.512 1.333 1.333 1.948z" fill="#8EB438"/><path d="M510.396 239.157c2.051-7.485-.41-13.433-3.179-20.2-2.768-6.665-3.178-13.843-2.153-20.918 1.436-9.536 4.614-18.867.923-28.096-3.487-8.818-6.768-20.303-16.201-23.994-9.229-3.897-16.202 5.127-15.996 13.535.205 8.408 4.921 15.894 2.563 24.199-1.846 6.768-4.204 14.766-.615 21.328 4.204 7.999 12.099 13.741 9.126 23.482-1.128 3.486-3.076 6.46-3.487 10.049-.512 5.332 2.256 6.562 4.615 10.869 10.151 17.842-8.409 25.019-1.128 44.604.205.513.718.923 1.333.923s1.23-.512 1.23-1.128c2.359-21.943 17.945-14.355 18.15-32.094 0-3.282-1.026-6.665-.616-9.947.308-5.127 4.204-7.793 5.435-12.612z" fill="#8EB438"/><path d="M501.271 260.992a.441.441 0 00-.411.41c0 .41-.205 10.664-10.459 12.202.821-1.435 1.641-2.768 2.461-4.102 1.949-3.076 3.692-5.947 4.82-9.433 2.871-9.536 2.461-17.739.82-25.327 7.28-3.589 5.229-15.791 5.127-16.304 0-.205-.308-.41-.513-.308-.205 0-.41.308-.307.513 0 .103 1.948 11.895-4.512 15.278-.923-3.896-2.256-7.69-3.589-11.484-2.974-8.101-1.538-18.662-.513-25.737 0-.308.103-.616.103-.923 9.126-2.051 9.639-13.638 9.639-13.74a.443.443 0 00-.411-.411c-.205 0-.41.206-.41.411 0 .102-.513 10.766-8.613 12.817.102-1.025.205-1.948.308-2.769.307-4.614.41-8.818.205-12.612v-.102c-.513-10.357-2.872-17.74-7.178-22.046-.205-.205-.41-.205-.615 0-.205.205-.205.41 0 .615 3.999 3.999 6.357 10.972 6.87 20.815-6.05-2.358-6.973-13.022-6.973-13.125 0-.205-.205-.41-.513-.41-.205 0-.41.205-.41.513 0 .513.923 11.689 7.896 13.945.205 3.692.102 7.793-.205 12.202-.103 1.231-.308 2.769-.513 4.512-.513 3.999-1.23 9.126-1.23 14.356-8.409-3.179-9.024-13.536-9.024-13.638a.44.44 0 00-.41-.41.44.44 0 00-.41.41c0 .102.615 11.279 9.946 14.56.103 3.794.513 7.486 1.743 10.87 3.794 10.459 6.87 20.918 3.794 33.94-6.767-1.333-7.69-10.767-7.69-10.869 0-.205-.205-.41-.513-.41-.205 0-.41.205-.41.512 0 .103 1.025 10.152 8.306 11.587a73.348 73.348 0 00-.616 2.359c-1.025 3.384-2.768 6.255-4.716 9.228-1.026 1.538-2.051 3.179-2.974 5.025-2.564 4.922-4.614 11.074-3.589 20.405 0 .205.205.41.41.41s.41-.205.41-.513c-1.025-9.126.923-14.97 3.487-19.79 11.689-1.333 11.792-13.022 11.792-13.227.102-.103-.103-.205-.41-.205z" fill="#8EB438"/><path opacity=".2" d="M505.372 260.589v1.025c-.102 11.69-6.87 12.407-12.202 17.74.615-3.077.718-6.973 2.871-9.537 2.256-2.563 5.332-3.076 7.588-6.049.821-1.128 1.333-2.256 1.743-3.179zm1.744-41.528c-2.769-6.665-3.179-13.843-2.154-20.918.103-.718.205-1.436.308-2.051-3.589 1.435-6.46 4.101-8.203 7.69-5.127 10.869-1.128 18.252 3.281 26.558 3.589 6.767 1.23 12.92 2.051 19.995.307 2.974 1.64 5.229 2.666 7.485-.205-2.05-.513-4.101-.308-6.152.513-5.024 4.409-7.69 5.64-12.407 2.051-7.588-.513-13.535-3.281-20.2zm-19.175 57.011c-.718-1.538-1.538-3.178-1.743-4.922-2.359 6.05-4.922 12.408-2.154 21.226v.103c.205.512.308 1.025.513 1.538 0 .102.103.205.103.307.102.103.102.205.205.205.205.205.615.308.922.308.308 0 .513-.103.718-.205.41-.308.513-.615.513-.82v-.103c.308-3.281 1.025-5.845 1.846-7.998-.513.308-.923.615-1.436.923 1.743-3.589 2.871-5.64.513-10.562z" fill="#000"/><path d="M534.288 235.257c-4.614-8.409-4.512-13.946-4.101-22.867.512-9.126-2.256-21.328-13.433-23.276-8.408-1.538-15.176 1.846-18.252 8.511-5.127 10.869-1.128 18.252 3.281 26.557 3.589 6.768 1.231 12.92 2.051 19.996.718 7.075 7.075 10.356 1.743 17.739-2.256 3.076-5.332 3.589-7.588 6.05-2.256 2.768-2.256 7.177-3.076 10.356-2.051 8.203-10.049 6.973-10.356 15.278 0 .616.512 1.231.922 1.231.411 0 .821.102 1.128-.513 1.846-3.384 5.025-2.871 8.409-4.409 2.563-1.128 3.383-4.307 9.536-5.024 8.1-1.026 15.483 4.306 19.482-6.563 1.538-3.794 1.026-7.075 1.743-10.869.718-5.024 4.102-8.101 7.383-11.69 5.845-6.562 5.127-13.125 1.128-20.507z" fill="#AFDD44"/><path d="M518.193 219.775c-7.588-.616-12.92-9.844-13.125-10.254-.103-.205 0-.513.205-.616a.493.493 0 01.615.206c.102.102 5.332 9.228 12.407 9.843.205 0 .41.205.41.513-.102.103-.307.308-.512.308zm-2.154 39.686c-.102 0-.205 0-.205-.103-5.537-3.691-5.229-20.2-5.229-20.918a.44.44 0 01.41-.41.44.44 0 01.41.41c0 .206-.308 16.714 4.819 20.201.205.102.205.41.103.615 0 .102-.205.205-.308.205zm2.869-14.769c-.205 0-.41-.102-.41-.307-.103-.205.103-.513.308-.513 8.715-2.461 9.433-16.611 9.433-16.714a.44.44 0 01.41-.41.44.44 0 01.41.41c0 .615-.717 14.868-10.048 17.534h-.103zm-12.817 36.605c-.923 0-1.846-.103-2.871-.205-.205 0-.41-.308-.308-.513 0-.205.205-.41.513-.308 12.817 2.154 17.431-11.279 17.431-11.484a.565.565 0 01.513-.308.565.565 0 01.308.513c-.103.103-4.307 12.305-15.586 12.305zm11.28-68.286c-.102 0-.205 0-.307-.102-.205-.206-.103-.411 0-.616 5.434-5.024 1.845-15.791 1.845-15.893-.102-.205 0-.513.308-.513.205-.102.513 0 .513.308.205.512 3.896 11.382-2.051 16.816h-.308z" fill="#AFDD44"/><path d="M485.584 294.529h-.103c-.205-.102-.41-.307-.307-.512 1.025-3.692 5.229-5.538 8.1-6.768.821-.41 1.538-.718 2.051-1.025 22.866-14.869 29.019-43.067 19.072-86.236-.102-.205.103-.512.308-.512.205-.103.513.102.513.307 10.151 43.579 3.794 72.085-19.38 87.158-.513.308-1.231.616-2.154 1.026-2.666 1.128-6.665 2.973-7.587 6.152-.205.308-.308.41-.513.41z" fill="#AFDD44"/><path opacity=".75" d="M484.557 293.704c0 .615.512 1.231.922 1.231h.103c1.333-1.026-.308-2.461 1.743-7.383-1.538 1.435-2.666 3.178-2.768 6.152z" fill="#15CCBE"/><path d="M486.097 273.605c-2.564-5.434-.103-12.305-2.666-16.304-3.077-4.921-8.101-1.23-13.946-7.998-4.922-5.639-1.333-13.535-12.612-19.482-3.384-1.743-7.383-.923-8.716 2.974-1.64 3.588.923 8.818 2.154 12.304 1.127 2.974 2.563 5.23 1.948 8.511v.103c-.615 2.563-2.359 3.896-1.436 6.87 1.846 7.28 12.202 6.665 17.329 11.176 3.692 3.179.308 6.973 3.999 11.895 3.589 4.819 5.332-.41 11.792 10.972.205.41.718.512 1.128.307.308-.205.41-.512.41-.82-.922-12.305 4.307-12.51.616-20.508z" fill="#AFDD44"/><path d="M481.176 282.526c-.821-1.23-1.538-2.358-1.948-3.691 3.999-3.281 1.743-11.177 1.64-11.484a.563.563 0 00-.513-.308c-.205.102-.41.308-.307.513 0 .102 2.051 7.177-1.128 10.254-.103-.616-.205-1.231-.103-1.949 0-1.435 0-2.871-.102-4.306v-.103c-.308-2.461-1.026-4.819-2.769-6.87 2.666-3.384-1.025-9.639-1.23-9.946-.103-.205-.41-.308-.615-.103-.205.103-.308.41-.103.615 0 .103 3.486 5.845 1.333 8.819-.82-.821-1.743-1.538-2.974-2.256-3.999-2.461-7.177-4.922-9.638-7.793 2.666-3.486-.513-11.382-.718-11.792-.103-.205-.308-.308-.513-.205-.205.102-.307.307-.205.513 0 .102 3.076 7.587.923 10.766-3.691-4.717-5.742-10.459-7.075-18.662 0-.205-.205-.41-.513-.41-.205 0-.41.205-.41.513.615 3.999 1.436 7.485 2.563 10.561-4.204-1.948-4.716-6.46-4.819-6.665 0-.205-.205-.41-.513-.41-.205 0-.41.205-.41.513 0 .102.718 5.742 6.05 7.69 1.231 2.974 2.666 5.537 4.614 7.896v.102a25.94 25.94 0 003.794 3.692c-5.947 1.64-10.664-3.692-10.766-3.794-.205-.206-.41-.206-.616 0-.205.205-.205.41 0 .615 0 .102 3.897 4.409 9.126 4.409 1.026 0 2.051-.205 3.077-.513 1.64 1.333 3.383 2.564 5.434 3.692 4.102 2.461 5.537 5.332 5.947 8.716-7.998.307-10.869-4.307-10.971-4.512-.103-.205-.41-.308-.615-.103-.206.103-.308.41-.103.616.103.205 2.974 4.921 10.972 4.921h.82a23.321 23.321 0 010 3.794c-.103 3.076 1.128 4.922 2.461 7.076l.615.922c-7.28-1.333-8.1-5.742-8.203-5.947 0-.205-.205-.41-.513-.308-.205 0-.41.308-.307.513 0 .205 1.025 5.537 9.536 6.768 1.23 2.256 2.358 5.024 2.461 9.741 0 .205.205.41.41.41a.44.44 0 00.41-.41c.103-6.357-1.948-9.536-3.486-12.1z" fill="#AFDD44"/><path d="M80.964 260.379c-.103-.205-3.897-.718-4.204-.307-.308.512.307 1.435.615 1.948.308.41 1.846.82 2.358.513.513-.308 1.743-1.026 1.23-2.154z" fill="#F5AC83"/><path d="M84.757 257.095c-.205.308-.307.615-.205 1.025l1.743 5.23c.308.82-.512 1.641-1.435 1.436l-5.23-1.744c-.307-.102-.718-.102-1.025.103l-4.41 3.281c-.717.513-1.742 0-1.742-.923v-5.434c0-.41-.206-.718-.41-.923l-4.512-3.179c-.718-.513-.513-1.64.307-1.948l5.23-1.641a1.24 1.24 0 00.718-.717l.82-2.564.82-2.666c.308-.82 1.436-1.025 1.948-.308l3.18 4.512c.204.308.512.513.922.513l5.434-.103c.923 0 1.436 1.026.923 1.743l-3.076 4.307z" fill="#FEC752"/><path d="M54.405 248.176c-.102-.205-3.896-.718-4.204-.308-.308.513.308 1.436.615 1.949.308.41 1.846.82 2.359.512.512-.307 1.743-1.128 1.23-2.153z" fill="#F5AC83"/><path d="M58.2 244.891c-.206.308-.308.615-.206 1.025l1.744 5.23c.307.82-.513 1.64-1.436 1.435l-1.64-.512-3.59-1.231c-.307-.102-.717-.102-1.025.205l-4.409 3.282c-.718.512-1.743 0-1.743-.923l.102-5.537c0-.308-.205-.718-.41-.923l-4.512-3.179c-.717-.513-.512-1.641.308-1.948l5.23-1.641c.307-.102.615-.41.717-.718l1.641-5.229c.308-.82 1.436-1.025 1.948-.308l3.179 4.512c.205.308.513.513.923.513l5.537-.103c.923 0 1.435 1.026.923 1.743l-3.281 4.307z" fill="#FEC752"/><path d="M33.59 258.635c-.102-.205-3.896-.718-4.203-.308-.308.513.307 1.436.615 1.949.307.41 1.846.82 2.358.512.513-.307 1.64-1.025 1.23-2.153z" fill="#F5AC83"/><path d="M33.898 253.302c-.205.308-.308.718-.205 1.025l1.743 5.23c.307.82-.513 1.641-1.333 1.436l-1.333-.411-3.897-1.333c-.307-.102-.717-.102-1.025.103l-4.41 3.281c-.717.513-1.742 0-1.742-.923l.102-5.434c0-.308-.205-.718-.41-.923l-4.512-3.179c-.718-.513-.512-1.64.308-1.948l5.23-1.641c.307-.102.615-.41.717-.717l1.64-5.23a1.095 1.095 0 011.95-.308l3.178 4.512c.205.308.512.513.923.41l5.434-.102c.923 0 1.436 1.025.923 1.743l-3.281 4.409z" fill="#FEC752"/><path d="M71.324 261.294l6.563.82-5.435-6.05" fill="#fff"/><path opacity=".2" d="M72.656 262.832v-2.871c0-.41-.206-.718-.41-.923l-4.512-3.179c-.718-.512-.513-1.64.307-1.948l5.23-1.64c.308-.103.615-.411.718-.718l.82-2.564c.103.308.205.513.308.821 1.845 4.614.717 9.638-2.461 13.022z" fill="#020202"/><path opacity=".2" d="M49.277 259.034c2.461 6.358 9.639 9.536 16.099 7.075 6.357-2.461 9.536-9.638 7.075-16.098-2.46-6.358-9.639-9.536-16.098-7.075-6.46 2.563-9.537 9.741-7.076 16.098z" fill="#020202"/><path d="M50.815 258.83c2.461 6.357 9.64 9.536 16.099 7.075 6.358-2.461 9.536-9.638 7.075-16.098-2.46-6.358-9.638-9.537-16.098-7.076-6.358 2.564-9.536 9.742-7.076 16.099z" fill="#fff"/><path d="M66.606 259.129c-2.46 1.025-5.024 2.051-7.383 2.768-.718.206-1.846-.717-1.128-1.435-.41 0-.923-.103-1.23-.41-.308-.308-.308-.923 0-1.231-.82.513-1.64-.717-1.128-1.435-.513-.205-.923-.41-1.23-.923a1.099 1.099 0 01.102-1.436c.205-.205.513-.41.82-.512a102.54 102.54 0 013.179-1.231c-.923-1.538-1.743-3.281-1.436-5.024.103-.513.513-1.333 1.23-1.231.616.103.821.923.924 1.436.718 2.051 2.666 3.691 4.82 3.896 0 .103 1.537 4.512 2.46 6.768zm.852-.415l3.821-1.49-2.57-6.592-3.822 1.491 2.571 6.591z" fill="#AFDD44"/><path d="M37.691 262.316l-5.742 3.282 2.666-7.691" fill="#fff"/><path opacity=".2" d="M56.763 251.861l-3.589-1.128c-.307-.102-.718-.102-1.025.205l-4.41 3.282c-.717.512-1.743 0-1.743-.923l.103-5.537c0-.308-.205-.718-.41-.923l-4.512-3.179c-.718-.512-.513-1.64.308-1.948l5.23-1.641c5.536 1.128 9.843 5.948 10.048 11.792zM33.897 253.3c-.205.307-.307.718-.205 1.025l1.743 5.23c.308.82-.512 1.64-1.333 1.435l-1.332-.41c-1.744-2.051-2.872-4.717-3.077-7.69-.102-1.949.308-3.897 1.026-5.537l5.434-.103c.923 0 1.436 1.025.923 1.743l-3.179 4.307z" fill="#020202"/><path d="M55.533 251.862A12.243 12.243 0 0143.64 264.68a12.243 12.243 0 01-12.818-11.895 12.242 12.242 0 0111.895-12.817c6.767-.308 12.612 5.024 12.817 11.894z" fill="#fff"/><path d="M41.18 258.308c2.666-.102 5.434-.102 7.895-.41.82-.103 1.436-1.333.41-1.743.41-.205.82-.41.923-.923.103-.41-.102-1.025-.513-1.128.923.205 1.231-1.333.513-1.743.41-.308.718-.82.718-1.333.102-.513-.205-1.026-.615-1.333-.308-.103-.616-.103-1.026-.103-1.128 0-2.255.103-3.383.103.205-1.743.205-3.692-.718-5.23-.308-.41-1.026-1.025-1.64-.615-.514.308-.309 1.231-.309 1.743.206 2.154-.922 4.409-2.87 5.537.205.205.512 4.82.615 7.178zm-1.259-6.925l-4.099.156.27 7.07 4.098-.156-.269-7.07z" fill="#AFDD44"/><path d="M90.498 258.73l.103 55.269-56.5.103v-55.269l56.397-.103z" fill="#EACA9B"/><path d="M34.103 258.73v55.269l-13.125.103v-55.269l13.125-.103z" fill="#E2B17D"/><path d="M97.676 272.78H41.279l-7.177-14.048H90.6l7.075 14.048z" fill="#E2B17D"/><path d="M17.388 316.576h85.107a5.033 5.033 0 005.025-5.024v-85.518c0-.718.512-1.23 1.23-1.23h14.561c.717 0 1.333-.616 1.333-1.333 0-.718-.616-1.333-1.333-1.333H108.75c-2.051 0-3.794 1.743-3.794 3.794v85.517c0 1.333-1.128 2.461-2.461 2.461H17.388c-.718 0-1.333.615-1.333 1.333s.615 1.333 1.333 1.333z" fill="#F5AC83"/><path d="M91.32 335.546a9.229 9.229 0 100-18.458 9.229 9.229 0 000 18.458z" fill="#AFDD44"/><path d="M91.318 331.03a4.717 4.717 0 100-9.434 4.717 4.717 0 000 9.434z" fill="#fff"/><path d="M31.64 335.546a9.229 9.229 0 100-18.457 9.229 9.229 0 000 18.457z" fill="#AFDD44"/><path d="M26.926 326.313a4.704 4.704 0 004.717 4.717 4.704 4.704 0 004.716-4.717c0-2.563-2.153-4.716-4.716-4.716-2.564 0-4.717 2.153-4.717 4.716z" fill="#fff"/><path d="M348.178 23.51v280.753c0 1.64-.205 3.178-.513 4.717-.205.717-.308 1.538-.615 2.255a5.007 5.007 0 01-.41 1.128c-.821 2.154-1.846 4.102-3.179 5.948a27.022 27.022 0 01-2.256 2.563c-.82.82-1.64 1.538-2.563 2.153l-1.846 1.231c-.615.41-1.333.718-1.948 1.025a17.033 17.033 0 01-3.179 1.231c-.718.205-1.436.41-2.256.615-1.538.308-3.076.513-4.717.513H209.75c-1.743 0-3.384-.205-4.922-.513-.307-.103-.513-.103-.82-.205-.308-.103-.615-.103-.923-.205-1.23-.41-2.358-.82-3.486-1.333-.616-.308-1.128-.513-1.641-.923-.205-.103-.513-.308-.718-.41-.512-.308-1.025-.615-1.435-1.026a20.627 20.627 0 01-3.999-3.896c-.513-.615-.923-1.128-1.333-1.846-.616-.923-1.231-1.948-1.641-2.973a15.405 15.405 0 01-1.538-4.307c-.513-1.846-.718-3.794-.718-5.845V23.51c0-12.817 10.459-23.276 23.379-23.276h115.152c12.714 0 23.071 10.46 23.071 23.277z" fill="#8EB438"/><path d="M343.053 23.508V304.26c0 1.23-.103 2.461-.41 3.691-.103.513-.205 1.128-.411 1.641l-.307 1.025c-.513 1.538-1.436 3.076-2.461 4.512-.513.718-1.128 1.333-1.743 1.948-.615.615-1.231 1.128-2.051 1.743-.308.308-.82.513-1.231.821l-.205.102c-.41.205-.82.513-1.23.718l-.308.103c-.717.307-1.435.615-2.256.922l-.307.103c-.615.205-1.128.308-1.743.41a22.434 22.434 0 01-3.692.308H209.752c-1.333 0-2.564-.103-3.897-.41l-1.23-.308c-.923-.308-1.846-.615-2.769-1.025l-1.23-.616c-.205-.102-.41-.205-.513-.307l-.102-.103c-.308-.205-.718-.41-1.128-.82a17.375 17.375 0 01-3.179-2.974c-.41-.512-.718-.923-1.025-1.333-.513-.718-.923-1.538-1.333-2.256-.513-1.025-.923-2.05-1.128-3.076l-.103-.307a16.535 16.535 0 01-.615-4.512V23.508c0-10.049 8.203-18.15 18.252-18.15h115.151a18.127 18.127 0 0116.919 11.485c.821 2.05 1.231 4.306 1.231 6.665z" fill="#F2FBDD"/><path opacity=".2" d="M326.029 102.363H204.726c-2.872 0-5.23-2.358-5.23-5.23V51.197c0-2.87 2.358-5.23 5.23-5.23h121.303c2.871 0 5.23 2.36 5.23 5.23v45.938c0 2.973-2.359 5.229-5.23 5.229z" fill="#020202"/><path d="M327.977 100.416H206.673c-2.871 0-5.23-2.358-5.23-5.23V49.25c0-2.871 2.359-5.23 5.23-5.23h121.304c2.871 0 5.229 2.359 5.229 5.23v45.937c-.102 2.872-2.358 5.23-5.229 5.23z" fill="#fff"/><path opacity=".3" d="M318.135 56.525l-4.512.718 3.281 3.076-.717 4.615 4.101-2.256 3.999 2.05-.82-4.511 3.281-3.179-4.614-.615-2.051-4.102-1.948 4.204z" fill="#FFBC47"/><path d="M302.035 56.525l-4.512.718 3.282 3.076-.616 4.615 3.999-2.256 4.102 2.05-.82-4.511 3.178-3.179-4.511-.615-2.154-4.102-1.948 4.204zm-15.997 0l-4.614.718 3.384 3.076-.718 4.615 3.999-2.256 4.101 2.05-.82-4.511 3.281-3.179-4.614-.615-2.051-4.102-1.948 4.204zm-17.329 3.795l-.718 4.614 3.897-2.154.205-.102 3.999 2.153-.821-4.614 3.282-3.179-4.512-.615-2.153-4.102-1.949 4.204-4.511.718 3.281 3.076zm-14.867-3.795l-4.512.718 3.384 3.076-.718 4.615 3.999-2.256 4.102 2.05-.821-4.511 3.179-3.179-4.512-.615-2.153-4.102-1.948 4.204z" fill="#FFBC47"/><path opacity=".5" d="M249.332 73.243h59.473m-59.475 6.353h70.855m-70.855 6.257h70.855M249.33 92.11h70.855" stroke="#8EB438" stroke-miterlimit="10"/><path opacity=".36" d="M225.336 84.728c8.495 0 15.381-6.886 15.381-15.38 0-8.495-6.886-15.381-15.381-15.381-8.495 0-15.381 6.886-15.381 15.38 0 8.495 6.886 15.382 15.381 15.382z" fill="#F5AC83"/><path d="M232 65.963c1.23 2.05.205 4.922 1.333 6.973.512.82 1.333 1.435 1.538 2.358.205.82-.103 1.64-.718 2.153a2.017 2.017 0 01-2.256.205.78.78 0 00-.513-.205c-.615-.205-1.128.308-1.64.718-.615.41-1.436.615-2.154.41-.922-.307-1.538-1.23-1.845-2.153-.821-2.564-.205-5.435.512-7.998.411-1.333 1.026-2.769 2.256-3.179" fill="#3B3D42"/><path d="M226.978 75.19s0 2.358.307 2.563c.718.308 1.538.513 1.538.513s-1.64 1.845-2.973 1.845c-1.744-.102-3.384-2.153-3.384-2.46 0-.513-.308-3.077-.308-3.077" fill="#F5AC83"/><path d="M231.692 65.448s.411 4.615-.41 6.973c-.615 1.743-2.973 3.486-4.922 3.384-5.434 0-6.46-7.383-6.46-7.793 0-.41 8.101-3.487 8.101-3.487l3.691.923z" fill="#F5AC83"/><path d="M224.004 77.751s2.461 2.769 3.384 0c2.153.615 4.511 1.025 5.434 2.974 2.974 8.818-6.767 9.536-9.536 9.536-3.896 0-10.254-2.153-7.075-9.434.923-2.256 2.461-3.589 7.793-3.076z" fill="#FFBC47"/><path d="M217.133 79.085c-.102-.103-.205-.103-.307-.205-.616-.41-1.231-.718-1.436-1.436-.41-1.025-.513-2.563 0-3.589.41-.718 1.025-1.128 1.538-1.743.615-.82.82-1.948.923-2.974.103-1.025 0-2.153.205-3.178.41-1.743.923-3.487 2.256-4.615 2.153-1.845 6.562-2.87 8.921-.82.41.41.513.615 1.128.718.82.102 1.333.205 1.948.615.82.41 1.743 1.128 1.641 2.153-.103.718-.923 1.846-1.436 2.154a1.931 1.931 0 01-.82.205c-.923 0-1.743-.615-2.564-.513-.41 0-.82.308-1.128.615-.307.41-.307.923-.615 1.333-.615.616-1.538.513-2.256.923-.102.103-.205.103-.307.308-.103.102-.103.205-.103.41v1.128c-.41-.205-.41-.718-.718-.923a.788.788 0 00-1.025.103c-.308.205-.41.615-.513 1.025-.102.41.103.923.205 1.333.205.82.923 1.436 1.436.923.41.615 0 1.538 0 2.153 0 .513 0 1.538.513 1.846.41.307 1.128.102 1.128.923 0 .718-.718 1.333-1.436 1.435-.718.103-1.436-.205-2.153-.41-.718-.205-1.436-.41-2.154-.102-.41.205-.82.512-1.23.512-.923 0-1.333-.102-1.641-.307z" fill="#3B3D42"/><path opacity=".2" d="M325.927 176.6H204.726c-2.872 0-5.23-2.359-5.23-5.23v-45.937c0-2.871 2.358-5.23 5.23-5.23h121.303c2.871 0 5.23 2.359 5.23 5.23v45.937c-.103 2.871-2.461 5.23-5.332 5.23z" fill="#020202"/><path d="M327.977 174.546H206.673c-2.871 0-5.23-2.358-5.23-5.23v-45.937c0-2.871 2.359-5.23 5.23-5.23h121.304c2.871 0 5.229 2.359 5.229 5.23v45.937c-.102 2.974-2.358 5.23-5.229 5.23z" fill="#fff"/><path opacity=".3" d="M318.133 130.647l-4.512.718 3.281 3.179-.717 4.512 4.101-2.154 3.999 2.051-.82-4.512 3.281-3.281-4.614-.615-2.051-3.999-1.948 4.101zm-16.1 0l-4.512.718 3.282 3.179-.615 4.512 3.999-2.154 4.101 2.051-.82-4.512 3.178-3.281-4.511-.615-2.154-3.999-1.948 4.101zm-15.995 0l-4.614.718 3.384 3.179-.718 4.512 3.999-2.154 4.101 2.051-.82-4.512 3.281-3.281-4.614-.615-2.051-3.999-1.948 4.101z" fill="#FFBC47"/><path d="M268.709 134.544l-.718 4.512 3.897-2.051.205-.103 3.999 2.051-.821-4.512 3.282-3.281-4.512-.615-2.153-3.999-1.949 4.101-4.511.718 3.281 3.179zm-14.869-3.897l-4.512.718 3.384 3.179-.718 4.512 3.999-2.154 4.102 2.051-.821-4.512 3.179-3.281-4.512-.615-2.153-3.999-1.948 4.101z" fill="#FFBC47"/><path opacity=".5" d="M249.328 147.479h59.473m-59.473 6.258h70.855m-70.855 6.25h70.855m-70.855 6.25h70.855" stroke="#8EB438" stroke-miterlimit="10"/><path opacity=".36" d="M236.227 154.479c6.007-6.006 6.007-15.745 0-21.751-6.007-6.007-15.745-6.007-21.752 0-6.006 6.006-6.006 15.745 0 21.751 6.007 6.007 15.745 6.007 21.752 0z" fill="#F5AC83"/><path d="M231.594 143.993c-.513.205-.308 1.949-.41 2.461-.103.513-.513 2.769-1.641 3.076-1.128.308-1.846.411-1.846.616 0 .102 0 .512.103.922 0 .411.102.923.102.923l-1.025 1.333-1.128.103-2.769-.82s-.102-2.872-.205-3.282c-.102-.307-1.128-2.256-1.845-4.101-.41-1.128-.821-2.256-.821-2.974 0-2.051.103-4.101 1.333-5.127 1.231-1.025 9.126-4.717 9.331 1.436 0 0 .923 3.486 1.333 4.101.411.615 0 1.128-.512 1.333z" fill="#F5AC83"/><path d="M227.798 151.069c0 .41.102.923.102.923l-.307 1.435-1.846-.102-2.768-.821s-.103-2.871-.206-3.281c-.102-.308-1.127-2.256-1.845-4.101l.102-1.231s2.256-.308 2.359-.205c.102 0 .82 1.436.82 1.436 0 .102-.41 1.435-.41 1.435s-.103 1.846 0 3.281c0 .718.513 1.436 1.23 1.641.41.102.923.205 1.333.205.616-.103 1.128-.41 1.436-.615z" fill="#F5AC83"/><path d="M223.388 143.277s-.923 3.999 1.231 6.05c2.255 2.153 6.049.923 6.562.513.513-.513 2.358-3.794.718-5.332-1.641-1.539-3.897.102-3.897.102s-1.333 1.128-1.743 1.025c-.41-.102-1.333-1.435-1.025-3.999 0-.102.102-.205.307-.307.513-.103 1.744-.513 1.641-2.974a.44.44 0 01.41-.41c.718 0 2.256.103 2.564.205 0 0 .205 0 .512.103.103 0 .103.102.103.205.102.205.205.82.307.923 0 .205.411 1.435.411 1.435s.41-.205.41-.718c0-.41-.205-1.435-.103-1.64.103-.205.718-.41.821-.923.205-1.128.717-5.742-2.974-3.589-.513.308-.923.615-1.333.718-.513.102-1.025-.41-2.051-.513-1.538-.205-8.1.308-7.28 6.87.82 6.563 3.896 8.101 3.896 8.101s-.205-5.23.513-5.845z" fill="#3B3D42"/><path d="M223.388 143.274s-.102-1.128-.923-.923c-1.127.205-1.64 3.281.821 3.281 0-.102-.103-1.333.102-2.358z" fill="#F5AC83"/><path d="M222.978 152.406s3.384 1.333 4.922-.512c4.204.615 5.64.512 8.101 3.486-2.051 3.691-13.228 5.434-13.638 5.332-.41-.103-5.845-3.076-5.947-3.179-.206 0 1.025-5.332 6.562-5.127z" fill="#3B3D42"/><path d="M348.18 94.673v-33.12a4.704 4.704 0 014.716 4.716v23.79c0 2.46-2.05 4.614-4.716 4.614zm-161.705-16.61h2.255V61.45h-2.255c-1.333 0-2.461 1.128-2.461 2.461v11.69c0 1.333 1.128 2.46 2.461 2.46zm0 19.991h2.255V81.442h-2.255c-1.333 0-2.461 1.128-2.461 2.461v11.69c0 1.333 1.128 2.46 2.461 2.46z" fill="#8EB438"/><path opacity=".3" d="M306.547 5.354L191.498 181.516V94.87l58.447-89.516h56.602zm35.273 11.484L191.498 246.936v-40.093L323.056 5.353h1.845a18.127 18.127 0 0116.919 11.485zm1.231 102.437L210.365 322.508h26.148l106.538-163.14v-40.093z" fill="#fff"/><path d="M284.502 12.338h-34.248c-5.742 0-10.459-4.717-10.459-10.46h55.166c-.103 5.846-4.717 10.46-10.459 10.46z" fill="#8EB438"/><path d="M484.249 84.63h-68.394a3.457 3.457 0 01-3.486-3.485V51.203a3.457 3.457 0 013.486-3.486h68.394a3.457 3.457 0 013.486 3.486v29.942a3.457 3.457 0 01-3.486 3.486z" fill="#AFDD44"/><path d="M422.827 52.533l.718 1.436 1.435.205-1.025 1.025.205 1.538-1.333-.718-1.333.718.308-1.538-1.128-1.025 1.538-.205.615-1.436zm6.565 0l.717 1.436 1.436.205-1.025 1.025.205 1.538-1.333-.718-1.333.718.307-1.538-1.128-1.025 1.538-.205.616-1.436zm6.562 0l.718 1.436 1.435.205-1.025 1.025.205 1.538-1.333-.718-1.333.718.308-1.538-1.128-1.025 1.538-.205.615-1.436zm6.561 0l.717 1.436 1.436.205-1.025 1.025.205 1.538-1.333-.718-1.333.718.307-1.538-1.128-1.025 1.538-.205.616-1.436zm6.564 0l.718 1.436 1.435.205-1.025 1.025.205 1.538-1.333-.718-1.333.718.308-1.538-1.128-1.025 1.538-.205.615-1.436z" fill="#FFF0B0"/><path opacity=".66" d="M479.019 77.048H463.33m-31.273-5.545h-10.664m57.629 0H436.57m42.45-5.641h-57.627m17.739-5.534h-17.739m57.627 0h-35.479m15.176 16.72h-37.324" stroke="#76838F" stroke-width="1.909" stroke-miterlimit="10" stroke-linecap="round" stroke-linejoin="round"/><path d="M424.88 84.63l-6.87 8.41v-8.41h6.87z" fill="#AFDD44"/><path opacity=".2" d="M348.18 144.407v-4.102c-.205.923-.205 1.949-.205 3.077 0 .307.103.717.205 1.025zm-5.127-23.584c-6.152-3.794-12.099-7.69-12.715-8.613-.717-1.026-1.333-1.743-1.845-2.769l5.742-.102a1.612 1.612 0 001.23-2.666l-5.024-6.46c-.308-.41-.41-1.026-.308-1.538l2.461-7.793c.41-1.334-.82-2.461-2.153-2.051l-7.69 2.87c-.513.206-1.026.103-1.539-.204l-6.665-4.717a1.601 1.601 0 00-2.563 1.436l.308 8.203c0 .512-.206 1.025-.616 1.333l-6.562 4.922c-1.128.82-.821 2.563.512 2.871l7.896 2.255c.513.103.923.513 1.128 1.026l2.666 7.793c.41 1.333 2.153 1.538 2.871.41l3.486-5.127c.616.205 1.128.308 1.128.308.923.512 1.641.82 1.641.82s9.536 12.92 16.611 20.2c1.231 1.231 2.359 2.359 3.384 3.179.615.513 1.231.923 1.743 1.333v-13.74c-1.64-1.026-3.384-2.051-5.127-3.179z" fill="#020202"/><path d="M437.593 322.412c-.205.923 1.641 3.486-.82 5.64-2.461 2.153-7.896 4.306-4.307 4.409 3.692.102 7.178-.718 9.024-1.641 1.845-.923.41-2.358 2.666-3.076 3.076-.923 2.973-1.128 1.538-4.409-1.948-4.614-7.486-3.999-8.101-.923z" fill="#0A1828"/><path d="M413.701 169.428c-1.231 3.281-1.538 6.87-.821 10.254 1.538 6.87-.205 7.28-.205 7.28s-9.228 5.845-16.919 8.306c-5.537 1.743-10.254 1.436-10.048-4.614v-1.128c.307-13.638-2.564-14.356-3.282-29.736-.717-15.689 3.487-24.507 7.588-28.301 4.204-3.794 9.844-3.897 20.508-1.436 7.998 1.846 10.664 3.999 10.664 9.946 0 1.949-.308 4.41-.82 7.281-1.333 7.588-4.512 16.509-6.665 22.148z" fill="#941759"/><path d="M394.323 135.688s-8.306 27.378-6.665 40.401l3.076 5.64 3.384-6.05s-2.769-26.148 2.461-39.478l-2.256-.513z" fill="#FF911E"/><path d="M413.7 169.424c-1.23 3.281-1.538 6.87-.82 10.254 1.538 6.87-.205 7.28-.205 7.28s-9.229 5.845-16.919 8.306l-7.178-.718-2.871-2.256v-2.871c1.641.205 5.332.308 10.869-.308 4.204-.512 8.101-1.64 10.664-2.666 1.846-.717 2.974-2.666 2.666-4.614-.512-2.666-1.025-6.562-1.025-9.536 0-2.974 1.435-8.101 2.563-11.792.821-2.769 1.128-5.742.923-8.716-.307-5.127 0-9.946 0-9.946l5.742-3.076 3.179 1.23c0 1.948-.307 4.409-.82 7.28-1.436 7.588-4.614 16.509-6.768 22.149z" fill="#701244"/><path d="M413.905 198.441c.615.102 2.358-2.871 2.358-2.871l-.718-.923c-.41-.513-.922-.923-1.64-1.128h-.103c-.615-.205-1.23 0-1.538.513-.512.717-1.23 1.538-2.051 1.538h-.102c-.82 0 3.076 2.768 3.794 2.871z" fill="#F4D5B5"/><path d="M387.864 103.284s-.718 1.948.41 3.589l4.409-5.947h-3.076l-1.743 2.358z" fill="#3B3D42"/><path d="M411.855 111.181c-.205 7.69-6.87 12.202-6.87 12.202l.41 6.973-4.511 2.871-3.077 1.948-1.743-3.692-.205-4.511c-.102-1.026-.82-1.948-1.846-2.154-1.128-.205-2.768-.922-4.409-2.666l-.307-.307c-2.871-3.999-3.999-19.175 5.947-23.482 10.356-4.409 16.816 5.127 16.611 12.818z" fill="#F5AC83"/><path d="M400.68 129.122l.307 4.204-3.076 1.948-1.743-3.691-.205-4.512c-.103-1.025-.82-1.948-1.846-2.153-1.128-.205-2.768-.923-4.409-2.666l-.308-.308c.205.103 2.564 1.538 6.255 1.949 2.769.307 4.82 2.461 5.025 5.229z" fill="#C28563"/><path d="M401.09 113.64c.41.205.718-.41.718-.41s2.153-4.82 2.871-5.64c1.333-1.333 4.512-1.231 4.717 2.973.205 3.179-3.589 10.049-4.819 12.1-.205.308-.103.718.205 1.025.102.103.307.103.41.206h.102c.206 0 .308-.103.513-.206 2.461-2.153 13.33-12.612 4.717-22.353 0 0-6.87.41-7.896 3.691-1.025 3.282-1.743 7.793-1.743 7.793s-.205.616.205.821z" fill="#3B3D42"/><path d="M387.864 103.284s5.947-4.614 15.073 1.026l7.485-1.948s.308-.103.103-1.231c-.205-1.128-1.026-12.1-14.048-9.639-7.383 1.538-11.997 6.768-8.613 11.792z" fill="#3B3D42"/><path d="M393.811 133.432v.307c.102.718.307 1.333.512 1.949l2.256.512 1.948-1.435-2.256-2.666-.307.102a4.557 4.557 0 00-2.153 1.231z" fill="#FF911E"/><path d="M405.396 127.175s1.127.615 2.153 2.256c0 0-1.436.615-2.769 1.435-1.128.718-6.87 4.717-6.87 4.717l-1.64-3.384c0-.102 5.947-4.204 9.126-5.024zm-9.126 4.926s-1.948.717-2.563 2.153c0 0-1.026-1.948.307-5.435 0 0 1.128-1.025 1.949-1.435l.307 4.717z" fill="#701244"/><path d="M412.061 193.624s-1.026 1.333-1.333 1.538c-.308.205-.41-.205-.205-.411 0-.41 1.435-1.538 1.538-1.127z" fill="#E5BB98"/><path d="M405.293 123.795c.205 0 .41-.103.513-.205 2.461-2.153 13.33-12.612 4.716-22.354 0 0 .411 1.743.206 3.077.102 0 5.537 8.92-5.435 19.482z" fill="#3B3D42"/><path d="M424.572 225.821s6.46-21.328-11.894-38.862c0 0-9.844 4.409-17.637 4.922-6.152.41-9.331-.205-9.331-.205s-.513 18.97-.513 29.121l39.375 5.024zm-41.018 35.478c-.41-9.536 6.665-8.511 10.767-1.538 13.227 22.251 0 50.039-1.436 66.138-1.538-2.564-4.511-3.487-5.229-3.384-1.128.103-1.743 1.025-1.743 1.025.205-19.79-1.949-52.089-2.359-62.241z" fill="#8EB438"/><path d="M394.013 262.323c-1.23 3.897-11.382 8.409-10.356-5.742.512-6.255 1.743-41.015 1.948-44.297.205-3.383.82-8.203 2.461-8.818 8.1-3.076 19.482 7.075 17.329 19.687-1.538 8.306-8.921 31.07-11.382 39.17z" fill="#8EB438"/><path d="M385.914 323.745c-.411.82-2.461 2.768-5.23 3.999-2.768 1.23-8.818 1.846-5.434 2.974 3.281 1.127 7.177.41 9.126.102 1.948-.308 3.896-.308 6.152-.41 3.076 0 3.076-.205 2.666-3.692-.615-4.614-5.845-5.639-7.28-2.973z" fill="#0A1828"/><path d="M417.495 263.454c-3.179-9.024 3.897-10.049 9.844-4.717 19.175 17.329 14.766 47.886 18.047 63.677-1.948 1.333-4.922 1.743-6.05 1.743-1.128-.103-1.641-.82-1.641-.82-5.537-18.868-16.816-50.245-20.2-59.883z" fill="#8EB438"/><path d="M427.853 260.889c.41 4.101-7.485 12.099-11.792-1.436-1.948-6.05-13.74-38.657-14.765-41.836-1.026-3.179-2.359-7.895-1.128-9.126 6.357-5.845 20.713-.718 23.379 11.69 1.948 8.305 3.588 32.299 4.306 40.708z" fill="#8EB438"/><path d="M409.497 193.11s1.436 5.025 7.793 7.896c5.435 2.461-8.818 3.896-9.126 3.384-.308-.513-3.076-9.742-3.076-9.742l4.409-1.538z" fill="#3A3A3A"/><path d="M465.178 205.62H363.972c-2.871 0-5.23-2.358-5.23-5.229v-37.427c0-2.871 2.359-5.23 5.23-5.23h101.206c2.871 0 5.229 2.359 5.229 5.23v37.427c0 2.973-2.358 5.229-5.229 5.229z" fill="#fff"/><path opacity=".3" d="M457.693 168.403l-3.896.616 2.871 2.666-.615 3.896 3.384-1.846 3.486 1.744-.718-3.897 2.769-2.666-3.897-.513-1.743-3.486-1.641 3.486zm-13.637 0l-3.794.616 2.768 2.666-.615 3.896 3.486-1.846 3.384 1.744-.718-3.897 2.769-2.666-3.794-.513-1.846-3.486-1.64 3.486z" fill="#FFBC47"/><path d="M430.419 168.403l-3.794.616 2.769 2.666-.616 3.896 3.487-1.846 3.486 1.744-.718-3.897 2.666-2.666-3.794-.513-1.743-3.486-1.743 3.486z" fill="#8EB438"/><path opacity=".3" d="M415.856 171.685l-.616 3.896 3.282-1.846h.102l3.486 1.744-.717-3.897 2.768-2.666-3.896-.513-1.743-3.486-1.744 3.486-3.794.616 2.872 2.666z" fill="#FFBC47"/><path d="M403.244 168.404l-3.896.616 2.871 2.666-.615 3.896 3.383-1.846 3.487 1.743-.718-3.896 2.768-2.666-3.896-.513-1.743-3.486-1.641 3.486z" fill="#FFBC47"/><path d="M399.35 182.659h50.449m-50.449 5.334h60.088m-60.088 5.328h60.088m-60.088 5.232h60.088" stroke="#A4D6FB" stroke-width=".848" stroke-miterlimit="10"/><path opacity=".36" d="M379.044 192.398c7.192 0 13.022-5.83 13.022-13.022s-5.83-13.022-13.022-13.022-13.023 5.83-13.023 13.022 5.831 13.022 13.023 13.022z" fill="#F5AC83"/><path d="M384.582 176.505c1.025 1.743.103 4.101 1.128 5.845.41.717 1.128 1.23 1.333 2.05.205.616-.103 1.436-.615 1.846-.513.41-1.333.513-1.949.205-.102-.102-.205-.205-.41-.205-.512-.102-.923.308-1.435.615-.513.411-1.231.513-1.846.308-.82-.308-1.23-1.025-1.538-1.846-.718-2.153-.205-4.614.513-6.767.307-1.128.82-2.359 1.948-2.769" fill="#3B3D42"/><path d="M380.379 184.301s0 2.051.308 2.153c.615.308 1.333.41 1.333.41s-1.436 1.538-2.461 1.538c-1.538-.102-2.871-1.845-2.871-2.05 0-.411-.206-2.666-.206-2.666" fill="#F5AC83"/><path d="M384.378 176.094s.308 3.896-.308 5.947c-.512 1.538-2.461 2.871-4.204 2.871-4.614 0-5.434-6.255-5.434-6.562 0-.308 6.87-2.974 6.87-2.974l3.076.718z" fill="#F5AC83"/><path d="M377.815 186.456s2.154 2.358 2.872 0c1.845.513 3.794.923 4.614 2.563 2.563 7.486-5.742 8.101-8.101 8.101-3.281 0-8.716-1.846-5.947-7.998.82-1.948 2.051-3.076 6.562-2.666z" fill="#FFBC47"/><path d="M372.073 187.58c-.103-.103-.205-.103-.308-.205-.512-.308-1.025-.616-1.23-1.231-.308-.82-.513-2.256 0-3.076.308-.615.923-.923 1.23-1.436.513-.717.718-1.64.718-2.563 0-.923 0-1.846.205-2.666.308-1.538.718-2.871 1.949-3.897 1.845-1.538 5.537-2.461 7.587-.717.411.307.411.615.923.615.615.102 1.128.102 1.641.513.615.41 1.435.922 1.333 1.743-.103.615-.718 1.538-1.231 1.845-.205.103-.512.206-.717.206-.821 0-1.436-.513-2.256-.411-.41 0-.718.205-.923.513-.308.308-.205.82-.615 1.128-.513.513-1.333.513-1.949.82-.102.103-.205.103-.307.205-.103.103-.103.205-.103.308v.923c-.307-.103-.307-.615-.615-.82-.205-.206-.615-.103-.923.102-.205.205-.41.513-.41.82-.102.411.103.821.205 1.128.205.616.718 1.231 1.231.821.307.512 0 1.333 0 1.845 0 .41 0 1.333.41 1.641.41.308.923.103 1.025.718 0 .615-.615 1.128-1.23 1.23-.616.103-1.231-.102-1.846-.307-.615-.205-1.231-.308-1.846-.103-.307.103-.615.41-1.025.513-.308.102-.615 0-.923-.205z" fill="#3B3D42"/><path d="M412.266 152.509s12.305 9.741 15.894 21.738c0 0 10.459-.615 12.92-8.818 0 0-16.407-27.583-22.456-31.685-5.948-4.101-9.742 9.844-6.358 18.765z" fill="#941759"/><path d="M428.981 175.474s-8.203 25.327-9.741 26.762c-1.538 1.436-1.948 2.974-5.947 3.384 0 0 1.23 2.974 3.999 2.666 2.666-.307 3.896-2.973 3.896-2.973s12.715-15.074 16.202-22.149c4.819-9.741 4.716-15.791 4.716-15.791l-13.125 8.101zm-69.01-49.429s-25.122-15.073-26.455-17.022c-1.435-2.153-2.666-2.871-2.256-7.177 0 0-5.434.41-5.844 3.281-.308 2.974 4.101 4.717 4.101 4.717s13.228 17.842 19.995 23.379c9.332 7.588 15.791 8.818 15.791 8.818l-5.332-15.996z" fill="#F5AC83"/><path d="M428.262 175.371c0-.513.41.102.103-.308-.103-.205-.41-.307-.41-.615-.103-.513.512-.82 1.025-.923 3.384-.718 5.845-2.358 8.511-4.717 1.025-.923.923-1.435 1.743-2.563.513-.718 1.333-1.436 2.051-1.026 1.64.718.41 2.256 1.128 3.282.102.205.307.307.41.615.205.41 0 .82-.308 1.128-.718 1.128-1.435 1.948-2.461 2.666-1.025.718-2.153 1.23-3.281 1.743-1.436.615-8.613 3.281-8.511.718z" fill="#701244"/><path d="M392.89 129.528s-21.328 2.256-30.249-3.281l-10.87 12.715s21.329 9.741 33.428 7.588l7.691-17.022z" fill="#941759"/><path d="M362.127 124.713c.308.512-.41.205.103.41.307.102.615.102.922.308.513.41.103 1.23-.41 1.64-2.973 3.076-4.306 6.563-5.434 10.767-.411 1.64.102 2.153.102 3.896 0 1.026-.41.821-1.435 1.026-2.154.41-1.846-.513-3.282-1.026-.307-.102-.615-.102-.922-.307-.411-.308-.513-.821-.513-1.333 0-1.641.102-2.974.615-4.512.513-1.538 1.436-2.769 2.153-4.102.821-1.64 6.358-9.433 8.101-6.767z" fill="#701244"/><path d="M324.285 105.134c-.102-.307 3.897-4.409 4.717-4.204.82.308.923 2.051 1.025 2.871.103.821-1.333 2.666-2.256 2.769-1.025.102-3.076.205-3.486-1.436z" fill="#F5AC83"/><path d="M333.824 85.75l-7.691 2.77c-.512.204-1.025.102-1.538-.206l-6.665-4.717a1.601 1.601 0 00-2.563 1.436l.307 8.203c0 .513-.205 1.025-.615 1.333l-6.562 4.922c-1.128.82-.821 2.563.512 2.871l7.896 2.256c.512.102.923.513 1.128 1.025l2.666 7.793c.41 1.333 2.153 1.538 2.871.41l4.614-6.767c.308-.41.82-.718 1.333-.718l8.203-.102a1.613 1.613 0 001.231-2.667l-5.025-6.46c-.307-.41-.41-1.025-.307-1.538l2.461-7.792c.205-1.334-1.026-2.462-2.256-2.051z" fill="#FF9422"/><path d="M328.082 108.929s-3.384-.615-3.486-1.641c0-1.128 4.306 0 4.306 0l-.82 1.641z" fill="#F5AC83"/><path d="M143.717 178.143h-89.62a3.458 3.458 0 01-3.486-3.487v-40.4a3.457 3.457 0 013.487-3.486h89.619a3.457 3.457 0 013.486 3.486v40.4c0 1.846-1.538 3.487-3.486 3.487z" fill="#941759"/><path d="M64.147 137.022l.82 1.744 1.949.307-1.435 1.333.41 1.948-1.744-.922-1.743.922.308-1.948-1.333-1.333 1.846-.307.922-1.744zm8.407 0l.82 1.744 1.948.307-1.435 1.333.307 1.948-1.64-.922-1.743.922.307-1.948-1.333-1.333 1.846-.307.923-1.744zm8.409 0l.82 1.744 1.948.307-1.435 1.333.307 1.948-1.64-.922-1.743.922.307-1.948-1.435-1.333 1.948-.307.923-1.744zm8.41 0l.82 1.744 1.949.307-1.436 1.333.308 1.948-1.64-.922-1.744.922.308-1.948-1.436-1.333 1.948-.307.923-1.744zm8.407 0l.82 1.744 1.948.307-1.436 1.333.308 1.948-1.64-.922-1.744.922.308-1.948-1.436-1.333 1.948-.307.923-1.744z" fill="#FFF0B0"/><path opacity=".66" d="M136.026 168.398h-19.995m-40.195-7.173H62.3m73.726 0H81.783m54.243-7.178H62.301m22.763-7.074H62.301m73.724-.001H90.703m19.381 21.426H62.301" stroke="#E5E5E5" stroke-width="2.445" stroke-miterlimit="10" stroke-linecap="round" stroke-linejoin="round"/><path d="M128.438 178.143l8.818 10.664v-10.664h-8.818z" fill="#941759"/><path opacity=".2" d="M223.39 263.967c-3.589-1.026-24.405 3.281-37.017 6.152v18.765c13.228-4.102 26.045-10.254 26.558-10.459-3.692 8.305-11.382 37.734-11.382 37.734 2.358.821 4.512 1.436 6.665 1.743-.205 1.436-.513 3.487-1.128 5.23-.205.307-.308.615-.41.82-.308-.205-.513-.41-.513-.41s-1.23 1.641-2.153 3.384c.307.102.512.102.82.205 1.641.307 3.281.513 4.922.513h9.023l-5.332-2.051h-.102c-.41-1.436-.718-3.692.307-7.178 5.538.205 9.126-.82 9.126-.82s1.846-14.458 3.692-27.276c1.846-12.817 2.153-24.814-3.076-26.352zm68.906-57.114H186.373v53.833h7.69c0 .307 0 .512.103.615.308.512 5.435 1.435 7.69-.615h90.44c2.871 0 5.229-2.359 5.229-5.23v-43.374c-.102-2.974-2.358-5.229-5.229-5.229z" fill="#020202"/><path d="M205.854 313.502s-.308 3.999-1.333 6.972c-1.026 1.949-.821 2.666-.821 2.666l8.101 1.743s-2.974-2.768-.205-10.869c2.871-7.895-5.742-.512-5.742-.512z" fill="#F5AC83"/><path d="M210.877 323.14s9.228 3.589 10.767 3.896c1.64.308 2.768.923 2.46 1.743-.307.718-6.87 2.461-10.356 2.154-3.486-.308-5.845-2.359-6.562-2.359-.718 0-4.512 1.026-6.46-.102-1.949-1.128 2.768-7.383 2.768-7.383s5.23 3.691 7.383 2.051z" fill="#76838F"/><path d="M174.069 269.819s41.528-9.843 46.758-8.305c5.229 1.538 4.922 13.535 3.076 26.352-1.846 12.92-3.691 27.276-3.691 27.276s-9.229 2.768-21.124-1.538c0 0 7.691-29.429 11.382-37.735 0 0-30.761 14.868-46.45 14.048-15.688-.923 10.049-20.098 10.049-20.098z" fill="#941759"/><path d="M131.618 313.091s-3.999-.513-6.972-1.641c-1.949-1.128-2.667-.923-2.667-.923l-2.153 7.998s2.974-2.871 10.869.308c7.896 3.179.923-5.742.923-5.742z" fill="#F5AC83"/><path d="M121.773 317.602s-2.769 4.922-3.179 6.46c-.307 1.538 2.564 3.896 1.743 3.896-7.895.513-7.28-4.512-6.46-7.895.821-3.487 2.666-5.743 2.666-6.46 0-.718-.82-4.512.411-6.358 1.23-1.846 7.28 3.076 7.28 3.076s-3.999 5.025-2.461 7.281z" fill="#76838F"/><path d="M151.613 270.946s-4.922 20.405 8.203 24.815c3.692 1.23 21.943-20.098 22.456-23.072.513-2.973-3.794-10.459-3.794-10.459s-23.276-.41-26.865 8.716z" fill="#941759"/><path d="M175.092 276.38s9.639 46.04 7.998 51.269c-1.538 5.23-13.535 4.82-26.352 2.974-12.818-1.948-27.276-3.794-27.276-3.794s-2.666-9.229 1.641-21.123c0 0 29.429 7.793 37.632 11.484 0 0-16.406-27.685-15.484-43.271 1.026-15.791 21.841 2.461 21.841 2.461z" fill="#941759"/><path d="M151.302 190.556s.82-9.742 4.717-12.818c5.845-4.614 15.278-3.691 18.764 1.026 3.384 4.716 7.076 25.019-9.638 27.685l-8.716 39.99s-22.559-2.255-24.302-14.355c-1.743-12.1 8.511-17.739 8.511-17.739s-4.922-10.152.205-17.329c5.332-7.178 10.459-6.46 10.459-6.46z" fill="#3B3D42"/><path d="M174.786 233.523c-.82 1.948 5.537 28.301 6.563 34.556 0 0 3.896 9.331-30.454 2.871 0 0 1.127-6.152 5.742-15.381 2.256-4.512-1.128-12.1-5.025-18.559a89.5 89.5 0 00-3.076-4.615c-3.076-4.306-5.64-7.383-5.64-7.383s5.64-17.226 15.484-18.354c7.895-.82 7.793 2.666 15.073 4.614l11.792 3.179s-1.333 9.946 0 12.92h-8.203c-.103-.103-1.538 4.101-2.256 6.152z" fill="#AFDD44"/><path d="M172.733 182.249s3.589 9.741 1.333 14.355c-2.255 4.615-7.895 3.897-7.895 3.897v10.562s-.615.512-1.538.615c-1.743.102-6.358-2.871-6.358-2.871v-24.302l14.458-2.256zm-31.48 48.191s-4.511 26.045-2.461 27.686c2.154 1.538 24.405.718 26.66 1.025 2.256.411 11.28 2.769 15.997-1.333.615-.512-4.82-.82-5.64-2.563-.82-1.846-3.179-2.359-3.179-2.359l-6.87 2.974s-17.124-2.563-18.354-3.486c-1.231-1.026 4.101-22.149 4.101-22.149l-10.254.205z" fill="#F5AC83"/><path d="M156.432 221.418l-.821 15.483h-4.101a91.227 91.227 0 00-3.076-4.614c2.05-2.358 7.998-10.869 7.998-10.869z" fill="#AFDD44"/><path d="M140.33 229.832s2.051-17.432 7.793-19.995c5.742-2.564 9.844 5.639 7.69 14.15-2.153 8.511-2.666 11.587-2.666 11.587s-8.1.307-12.817-5.742z" fill="#AFDD44"/><path d="M173.144 180.814s-2.359 11.177-7.793 14.151c-5.435 2.973-1.333 10.254-6.46 15.688-2.769 2.871-8.203-2.153-8.203-2.153l5.332-26.25 17.124-1.436z" fill="#3B3D42"/><path d="M289.73 258.127H174.476c-2.872 0-5.23-2.358-5.23-5.23v-43.374c0-2.871 2.358-5.229 5.23-5.229H289.73c2.871 0 5.229 2.358 5.229 5.229v43.374c0 2.872-2.358 5.23-5.229 5.23z" fill="#fff"/><path d="M280.602 216.192l-4.307.718 3.179 2.974-.718 4.409 3.896-2.153 3.897 1.948-.82-4.307 3.076-3.076-4.307-.513-2.051-3.896-1.845 3.896zm-15.277 0l-4.409.718 3.179 2.974-.616 4.409 3.794-2.153 3.897 1.948-.718-4.307 3.076-3.076-4.409-.513-1.948-3.896-1.846 3.896zm-15.382 0l-4.306.718 3.178 2.974-.717 4.409 3.896-2.153 3.897 1.948-.821-4.307 3.076-3.076-4.306-.513-2.051-3.896-1.846 3.896zm-16.406 3.692l-.718 4.306 3.692-1.948.102-.102 3.897 1.948-.718-4.307 3.076-3.076-4.306-.513-2.051-3.896-1.846 3.896-4.409.718 3.281 2.974zm-14.252-3.693l-4.306.718 3.178 2.974-.718 4.409 3.897-2.153 3.896 1.948-.82-4.307 3.076-3.076-4.306-.513-1.949-3.896-1.948 3.896z" fill="#FFBC47"/><path opacity=".5" d="M214.977 232.298h56.704m-56.704 5.949h67.573m-67.573 5.937h67.573m-67.573 5.953h67.573" stroke="#8EB438" stroke-miterlimit="10"/><path opacity=".36" d="M203.948 242.14c6.006-6.006 6.006-15.745 0-21.751-6.007-6.007-15.745-6.007-21.752 0-6.006 6.006-6.006 15.745 0 21.751 6.007 6.007 15.745 6.007 21.752 0z" fill="#F5AC83"/><path d="M199.291 231.576c-.513.205-.308 1.949-.41 2.461-.103.513-.513 2.769-1.641 3.076-1.128.308-1.845.411-1.845.616 0 .102 0 .512.102.922 0 .411.103.923.103.923l-1.026 1.333-1.128.103-2.768-.82s-.103-2.872-.205-3.282c-.103-.307-1.128-2.256-1.846-4.101-.41-1.128-.82-2.256-.82-2.974 0-2.051.102-4.101 1.333-5.127 1.23-1.025 9.126-4.717 9.331 1.436 0 0 .923 3.486 1.333 4.101.307.513 0 1.128-.513 1.333z" fill="#F5AC83"/><path d="M195.497 238.755c0 .41.103.923.103.923l-.308 1.436-1.846-.103-2.768-.82s-.103-2.871-.205-3.281c-.103-.308-1.128-2.256-1.846-4.102l.102-1.23s2.256-.308 2.359-.206c.102 0 .82 1.436.82 1.436 0 .103-.41 1.436-.41 1.436s-.102 1.845 0 3.281c0 .718.513 1.435 1.231 1.64.41.103.922.206 1.333.206.615-.103 1.127-.411 1.435-.616z" fill="#F5AC83"/><path d="M191.087 230.959s-.923 3.999 1.231 6.05c2.256 2.153 6.05.922 6.562.512.513-.512 2.359-3.794.718-5.332-1.641-1.538-3.896.103-3.896.103s-1.333 1.128-1.744 1.025c-.41-.102-1.333-1.435-1.025-3.999 0-.102.102-.205.308-.308.512-.102 1.743-.512 1.64-2.973a.44.44 0 01.41-.41c.718 0 2.256.102 2.564.205 0 0 .205 0 .513.102.102 0 .102.103.102.205.103.205.205.821.308.923 0 .205.41 1.436.41 1.436s.41-.205.41-.718c0-.41-.205-1.436-.103-1.641.103-.205.718-.41.821-.922.205-1.128.718-5.743-2.974-3.589-.513.307-.923.615-1.333.717-.513.103-1.025-.41-2.051-.512-1.538-.205-8.1.307-7.28 6.87.82 6.562 3.897 8.1 3.897 8.1s-.206-5.229.512-5.844z" fill="#3B3D42"/><path d="M191.088 230.96s-.103-1.127-.923-.922c-1.128.205-1.641 3.281.82 3.281 0-.103-.102-1.333.103-2.359z" fill="#F5AC83"/><path d="M190.679 240.085s3.384 1.333 4.922-.513c4.204.616 5.64.513 8.101 3.487-2.051 3.691-13.228 5.434-13.638 5.332-.41-.103-5.845-3.077-5.947-3.179-.205-.103 1.025-5.332 6.562-5.127z" fill="#FFBC47"/><path d="M200.114 256.899s-2.461-3.179-4.102-3.692c-1.64-.512-3.384-.512-3.794.308-.41.82-.923 4.512-.513 5.127.308.718 7.076 1.743 8.409-1.743z" fill="#F5AC83"/><defs><linearGradient id="paint0_linear_5391_44044" x1="0" y1="12.277" x2="325.669" y2="527.255" gradientUnits="userSpaceOnUse"><stop stop-color="#A0CA3F"/><stop offset="1" stop-color="#7B9C30"/></linearGradient></defs></svg>