<svg width="563" height="342" fill="none" xmlns="http://www.w3.org/2000/svg"><g clip-path="url(#clip0_4415_41242)"><rect width="563" height="342" rx="4" fill="#fff"/><path d="M19.719 19.625L23 28.344l3.273-8.719h2.555V31H26.86v-3.75l.196-5.016L23.695 31h-1.414l-3.351-8.758.195 5.008V31h-1.969V19.625h2.563zM34.71 31.156c-1.203 0-2.18-.377-2.93-1.133-.744-.76-1.117-1.77-1.117-3.03v-.235c0-.844.162-1.596.484-2.258.329-.667.787-1.185 1.375-1.555a3.625 3.625 0 011.97-.554c1.15 0 2.038.367 2.663 1.101.63.735.946 1.774.946 3.117v.766h-5.524c.057.698.29 1.25.695 1.656.412.407.927.61 1.547.61.87 0 1.578-.352 2.125-1.055l1.024.977a3.442 3.442 0 01-1.36 1.18c-.562.275-1.195.413-1.898.413zm-.227-7.242c-.52 0-.942.182-1.265.547-.318.365-.521.872-.61 1.523h3.618v-.14c-.042-.636-.211-1.115-.508-1.438-.297-.328-.709-.492-1.235-.492zm9.836 4.79a.859.859 0 00-.422-.774c-.276-.177-.737-.334-1.382-.47-.646-.134-1.185-.306-1.618-.515-.948-.458-1.421-1.122-1.421-1.992 0-.729.307-1.338.921-1.828.615-.49 1.396-.734 2.344-.734 1.01 0 1.826.25 2.446.75.624.5.937 1.148.937 1.945h-1.898c0-.365-.136-.667-.407-.906-.27-.245-.63-.367-1.078-.367-.416 0-.758.096-1.023.289a.914.914 0 00-.39.773.77.77 0 00.366.68c.245.161.74.325 1.485.492.745.161 1.328.357 1.75.586.427.224.742.495.945.812.208.318.313.703.313 1.157 0 .76-.316 1.377-.946 1.851-.63.469-1.456.703-2.476.703-.693 0-1.31-.125-1.852-.375s-.964-.593-1.266-1.031a2.442 2.442 0 01-.453-1.414h1.844c.026.448.195.794.508 1.039.312.24.726.36 1.242.36.5 0 .88-.094 1.14-.282a.893.893 0 00.391-.75zm8.266 0a.859.859 0 00-.422-.774c-.276-.177-.737-.334-1.383-.47-.646-.134-1.185-.306-1.617-.515-.948-.458-1.422-1.122-1.422-1.992 0-.729.308-1.338.922-1.828.615-.49 1.396-.734 2.344-.734 1.01 0 1.825.25 2.445.75.625.5.938 1.148.938 1.945h-1.899c0-.365-.135-.667-.406-.906-.27-.245-.63-.367-1.078-.367-.417 0-.758.096-1.024.289a.914.914 0 00-.39.773.77.77 0 00.367.68c.245.161.74.325 1.484.492.745.161 1.328.357 1.75.586.427.224.742.495.946.812.208.318.312.703.312 1.157 0 .76-.315 1.377-.945 1.851-.63.469-1.456.703-2.477.703-.692 0-1.31-.125-1.851-.375-.542-.25-.964-.593-1.266-1.031a2.441 2.441 0 01-.453-1.414h1.844c.026.448.195.794.508 1.039.312.24.726.36 1.242.36.5 0 .88-.094 1.14-.282a.893.893 0 00.39-.75zM61.164 31c-.083-.162-.156-.424-.219-.79a2.955 2.955 0 01-2.218.946c-.85 0-1.542-.242-2.079-.726-.536-.485-.804-1.084-.804-1.797 0-.901.333-1.591 1-2.07.672-.485 1.63-.727 2.875-.727h1.164v-.555c0-.437-.123-.786-.367-1.047-.245-.265-.618-.398-1.118-.398-.432 0-.786.11-1.062.328a.993.993 0 00-.414.82h-1.899c0-.463.154-.896.461-1.297.308-.406.724-.724 1.25-.953a4.432 4.432 0 011.774-.343c.99 0 1.778.25 2.367.75.589.494.89 1.192.906 2.093v3.813c0 .76.107 1.367.32 1.82V31h-1.937zm-2.086-1.367c.375 0 .727-.091 1.055-.274.333-.182.583-.427.75-.734v-1.594h-1.024c-.703 0-1.231.123-1.586.367-.354.245-.53.592-.53 1.04 0 .364.119.656.359.875.244.213.57.32.976.32zm5.36-2.922c0-1.313.307-2.36.921-3.14.62-.787 1.44-1.18 2.461-1.18.964 0 1.722.336 2.274 1.007l.086-.851h1.71v8.195c0 1.11-.346 1.985-1.038 2.625-.688.64-1.618.961-2.79.961a4.49 4.49 0 01-1.82-.39c-.588-.256-1.036-.592-1.344-1.008l.899-1.14c.583.692 1.302 1.038 2.156 1.038.63 0 1.128-.172 1.492-.516.365-.338.547-.838.547-1.5v-.57c-.547.61-1.276.914-2.187.914-.99 0-1.8-.393-2.43-1.18-.625-.786-.938-1.874-.938-3.265zm1.89.164c0 .849.172 1.518.516 2.008.349.484.83.726 1.445.726.766 0 1.333-.328 1.703-.984v-3.719c-.36-.64-.922-.96-1.687-.96-.625 0-1.112.247-1.461.741-.344.495-.516 1.224-.516 2.188zm11.242 4.281c-1.203 0-2.18-.377-2.93-1.133-.744-.76-1.117-1.77-1.117-3.03v-.235c0-.844.162-1.596.485-2.258a3.738 3.738 0 011.375-1.555 3.625 3.625 0 011.969-.554c1.15 0 2.039.367 2.664 1.101.63.735.945 1.774.945 3.117v.766h-5.523c.057.698.289 1.25.695 1.656.411.407.927.61 1.547.61.87 0 1.578-.352 2.125-1.055l1.023.977a3.441 3.441 0 01-1.36 1.18c-.562.275-1.195.413-1.898.413zm-.226-7.242c-.521 0-.943.182-1.266.547-.318.365-.52.872-.61 1.523h3.618v-.14c-.042-.636-.211-1.115-.508-1.438-.297-.328-.708-.492-1.234-.492z" fill="#333945"/><path fill="url(#paint0_linear_4415_41242)" d="M43 0h520v342H43z"/><g opacity=".8" filter="url(#filter0_dd_4415_41242)"><g clip-path="url(#clip1_4415_41242)"><rect x="16" y="55" width="385" height="45" rx="6" fill="#fff"/><path d="M36.259 76.764l2.29-4.717h1.914l-3.336 6.289V82h-1.736v-3.664l-3.343-6.29h1.92l2.29 4.718zm4.361 1.47c0-.725.144-1.377.43-1.956a3.12 3.12 0 011.21-1.34c.52-.314 1.117-.471 1.792-.471.998 0 1.807.321 2.426.964.625.642.962 1.495 1.012 2.556l.007.39c0 .73-.141 1.38-.424 1.955a3.08 3.08 0 01-1.203 1.333c-.52.314-1.121.472-1.805.472-1.043 0-1.88-.347-2.508-1.04-.625-.697-.937-1.624-.937-2.782v-.082zm1.661.143c0 .761.157 1.358.472 1.791.314.428.752.642 1.312.642.561 0 .996-.218 1.306-.656.314-.437.472-1.078.472-1.92 0-.748-.162-1.34-.486-1.778-.319-.437-.754-.656-1.305-.656a1.52 1.52 0 00-1.292.65c-.32.428-.479 1.07-.479 1.927zm11.102 2.898c-.488.575-1.18.862-2.078.862-.802 0-1.41-.235-1.825-.704-.41-.47-.616-1.149-.616-2.038v-4.791h1.661v4.771c0 .939.39 1.408 1.17 1.408.806 0 1.35-.29 1.633-.868v-5.312h1.661V82h-1.565l-.041-.725zm7.17-5.154a4.105 4.105 0 00-.676-.055c-.761 0-1.274.292-1.538.875V82h-1.661v-7.397h1.586l.04.828c.402-.643.958-.964 1.669-.964.237 0 .433.032.587.096l-.006 1.558zm8.409 0a4.105 4.105 0 00-.677-.055c-.76 0-1.274.292-1.538.875V82h-1.661v-7.397h1.586l.04.828c.402-.643.958-.964 1.669-.964.237 0 .433.032.588.096l-.007 1.558zm4.17 6.016c-1.053 0-1.907-.33-2.564-.992-.651-.665-.977-1.549-.977-2.652v-.205c0-.738.141-1.397.424-1.975a3.272 3.272 0 011.203-1.36 3.172 3.172 0 011.722-.486c1.008 0 1.785.321 2.332.964.55.642.827 1.551.827 2.727v.67h-4.833c.05.61.253 1.094.608 1.45.36.355.811.532 1.354.532.76 0 1.38-.307 1.859-.922l.895.854a3.011 3.011 0 01-1.189 1.032 3.72 3.72 0 01-1.661.363zm-.198-6.337c-.456 0-.825.16-1.108.478-.278.32-.456.764-.533 1.333h3.165v-.123c-.037-.556-.185-.975-.444-1.257-.26-.288-.62-.431-1.08-.431zm7.499 5.01c.414 0 .758-.12 1.032-.362.273-.241.42-.54.437-.895h1.566c-.019.46-.162.89-.43 1.292a2.836 2.836 0 01-1.095.943 3.26 3.26 0 01-1.49.349c-1.034 0-1.855-.335-2.46-1.005-.607-.67-.91-1.595-.91-2.776v-.17c0-1.126.3-2.026.902-2.7.602-.68 1.422-1.02 2.461-1.02.88 0 1.595.258 2.147.773.556.51.847 1.183.875 2.017h-1.566c-.018-.424-.164-.773-.437-1.046-.269-.273-.613-.41-1.032-.41-.538 0-.953.196-1.245.588-.291.387-.44.977-.444 1.77v.267c0 .802.144 1.401.43 1.798.292.392.712.588 1.259.588zm7.546 1.327c-1.052 0-1.907-.33-2.563-.992-.652-.665-.977-1.549-.977-2.652v-.205c0-.738.14-1.397.423-1.975a3.271 3.271 0 011.203-1.36 3.172 3.172 0 011.723-.486c1.007 0 1.784.321 2.331.964.552.642.827 1.551.827 2.727v.67h-4.833c.05.61.253 1.094.609 1.45.36.355.81.532 1.353.532.761 0 1.381-.307 1.86-.922l.895.854a3.01 3.01 0 01-1.19 1.032 3.72 3.72 0 01-1.66.363zm-.198-6.337c-.456 0-.825.16-1.107.478-.278.32-.456.764-.533 1.333h3.165v-.123c-.037-.556-.185-.975-.445-1.257-.26-.288-.62-.431-1.08-.431zm6.002-1.197l.048.855c.547-.66 1.265-.991 2.153-.991 1.54 0 2.325.882 2.352 2.645V82h-1.661v-4.792c0-.47-.103-.816-.308-1.04-.2-.227-.53-.34-.991-.34-.67 0-1.169.302-1.497.908V82h-1.661v-7.397h1.565zm8.333-1.797v1.797h1.306v1.231h-1.306v4.129c0 .282.055.488.164.615.114.123.315.185.602.185.191 0 .385-.023.581-.069v1.285a4.092 4.092 0 01-1.094.158c-1.276 0-1.914-.704-1.914-2.113v-4.19h-1.217v-1.23h1.217v-1.798h1.661zm5.756 5.427c0-.724.144-1.376.431-1.955.287-.583.69-1.03 1.21-1.34.519-.314 1.116-.471 1.791-.471.998 0 1.807.321 2.426.964.625.642.962 1.495 1.012 2.556l.007.39c0 .73-.141 1.38-.424 1.955a3.08 3.08 0 01-1.203 1.333c-.519.314-1.121.472-1.805.472-1.043 0-1.879-.347-2.508-1.04-.625-.697-.937-1.624-.937-2.782v-.082zm1.661.144c0 .761.157 1.358.472 1.791.314.428.752.642 1.312.642.561 0 .996-.218 1.306-.656.315-.437.472-1.078.472-1.92 0-.748-.162-1.34-.486-1.778-.319-.437-.754-.656-1.305-.656a1.52 1.52 0 00-1.292.65c-.319.428-.479 1.07-.479 1.927zm10.493-2.256a4.094 4.094 0 00-.676-.055c-.761 0-1.274.292-1.538.875V82h-1.662v-7.397h1.586l.041.828c.401-.643.957-.964 1.668-.964.237 0 .433.032.588.096l-.007 1.558zm.602 2.126c0-1.14.264-2.053.793-2.741.529-.693 1.237-1.04 2.126-1.04.784 0 1.417.274 1.9.821V71.5h1.661V82h-1.504l-.082-.766c-.496.602-1.159.903-1.989.903-.866 0-1.568-.349-2.105-1.046-.533-.697-.8-1.645-.8-2.844zm1.661.144c0 .752.144 1.34.431 1.763.291.42.704.63 1.237.63.679 0 1.176-.304 1.49-.91v-3.158c-.305-.593-.797-.889-1.476-.889-.538 0-.953.214-1.244.643-.292.424-.438 1.064-.438 1.92zm9.81 3.746c-1.053 0-1.908-.33-2.564-.992-.652-.665-.977-1.549-.977-2.652v-.205c0-.738.141-1.397.423-1.975a3.279 3.279 0 011.204-1.36 3.171 3.171 0 011.722-.486c1.007 0 1.784.321 2.331.964.552.642.827 1.551.827 2.727v.67h-4.833c.051.61.253 1.094.609 1.45.36.355.811.532 1.353.532.761 0 1.381-.307 1.86-.922l.895.854a3.007 3.007 0 01-1.189 1.032 3.72 3.72 0 01-1.661.363zM131.9 75.8c-.455 0-.824.16-1.107.478-.278.32-.456.764-.533 1.333h3.165v-.123c-.037-.556-.185-.975-.445-1.257-.259-.288-.619-.431-1.08-.431zm8.333.321a4.094 4.094 0 00-.676-.055c-.761 0-1.274.292-1.538.875V82h-1.662v-7.397h1.586l.041.828c.401-.643.957-.964 1.668-.964.237 0 .433.032.588.096l-.007 1.558zm4.225 2.112c0-.724.144-1.376.431-1.955.287-.583.69-1.03 1.21-1.34.519-.314 1.116-.471 1.791-.471.998 0 1.807.321 2.426.964.625.642.962 1.495 1.012 2.556l.007.39c0 .73-.141 1.38-.424 1.955a3.08 3.08 0 01-1.203 1.333c-.52.314-1.121.472-1.805.472-1.043 0-1.88-.347-2.508-1.04-.625-.697-.937-1.624-.937-2.782v-.082zm1.661.144c0 .761.157 1.358.472 1.791.314.428.752.642 1.312.642.561 0 .996-.218 1.306-.656.314-.437.472-1.078.472-1.92 0-.748-.162-1.34-.486-1.778-.319-.437-.754-.656-1.305-.656a1.52 1.52 0 00-1.292.65c-.319.428-.479 1.07-.479 1.927zM153.324 82v-6.166h-1.128v-1.23h1.128v-.677c0-.82.228-1.454.684-1.9.456-.447 1.094-.67 1.914-.67.292 0 .601.04.93.123l-.041 1.298a3.288 3.288 0 00-.636-.054c-.793 0-1.19.407-1.19 1.223v.656h1.504v1.231h-1.504V82h-1.661zm10.705-10.172h-1.128v11.095h1.128v1.292h-2.789V70.529h2.789v1.3zm3.842 0h-1.128v11.095h1.128v1.292h-2.789V70.529h2.789v1.3zm7.479 6.549c0 1.144-.26 2.058-.78 2.741-.519.68-1.216 1.019-2.091 1.019-.812 0-1.461-.267-1.949-.8v3.507h-1.661v-10.24h1.531l.069.752c.487-.593 1.15-.89 1.989-.89.902 0 1.609.338 2.119 1.013.515.67.773 1.601.773 2.795v.103zm-1.655-.144c0-.738-.148-1.324-.444-1.756-.292-.433-.711-.65-1.258-.65-.679 0-1.167.28-1.463.841v3.281c.301.574.793.862 1.477.862.528 0 .941-.212 1.237-.636.301-.429.451-1.076.451-1.942zm6.939-2.112a4.115 4.115 0 00-.677-.055c-.761 0-1.274.292-1.538.875V82h-1.661v-7.397h1.586l.041.828c.401-.643.957-.964 1.668-.964.237 0 .433.032.588.096l-.007 1.558zm.492 2.112c0-.724.144-1.376.431-1.955.287-.583.69-1.03 1.21-1.34.519-.314 1.116-.471 1.791-.471.998 0 1.807.321 2.426.964.625.642.962 1.495 1.012 2.556l.007.39c0 .73-.141 1.38-.424 1.955a3.08 3.08 0 01-1.203 1.333c-.52.314-1.121.472-1.805.472-1.043 0-1.88-.347-2.509-1.04-.624-.697-.936-1.624-.936-2.782v-.082zm1.661.144c0 .761.157 1.358.472 1.791.314.428.752.642 1.312.642.561 0 .996-.218 1.306-.656.314-.437.472-1.078.472-1.92 0-.748-.162-1.34-.486-1.778-.319-.437-.754-.656-1.305-.656a1.52 1.52 0 00-1.292.65c-.319.428-.479 1.07-.479 1.927zm6.31-.13c0-1.14.264-2.053.793-2.741.528-.693 1.237-1.04 2.126-1.04.783 0 1.417.274 1.9.821V71.5h1.661V82h-1.504l-.082-.766c-.497.602-1.16.903-1.989.903-.866 0-1.568-.349-2.106-1.046-.533-.697-.799-1.645-.799-2.844zm1.661.144c0 .752.143 1.34.43 1.763.292.42.705.63 1.238.63.679 0 1.176-.304 1.49-.91v-3.158c-.305-.593-.798-.889-1.477-.889-.537 0-.952.214-1.244.643-.291.424-.437 1.064-.437 1.92zm11.033 2.884c-.488.575-1.18.862-2.078.862-.802 0-1.411-.235-1.825-.704-.41-.47-.616-1.149-.616-2.038v-4.791h1.662v4.771c0 .939.389 1.408 1.169 1.408.806 0 1.351-.29 1.633-.868v-5.312h1.661V82h-1.565l-.041-.725zm6.337-.465c.415 0 .759-.12 1.032-.362.274-.241.419-.54.438-.895h1.565c-.018.46-.162.89-.431 1.292a2.829 2.829 0 01-1.093.943 3.263 3.263 0 01-1.491.349c-1.034 0-1.854-.335-2.46-1.005-.607-.67-.91-1.595-.91-2.776v-.17c0-1.126.301-2.026.903-2.7.601-.68 1.422-1.02 2.461-1.02.879 0 1.595.258 2.146.773.556.51.848 1.183.875 2.017h-1.565c-.019-.424-.164-.773-.438-1.046-.269-.273-.613-.41-1.032-.41-.538 0-.953.196-1.244.588-.292.387-.44.977-.445 1.77v.267c0 .802.144 1.401.431 1.798.292.392.711.588 1.258.588zm6.371-8.004v1.797h1.306v1.231h-1.306v4.129c0 .282.055.488.164.615.114.123.315.185.602.185.191 0 .385-.023.581-.069v1.285a4.097 4.097 0 01-1.094.158c-1.276 0-1.914-.704-1.914-2.113v-4.19h-1.217v-1.23h1.217v-1.798h1.661zm5.804 5.633h-3.589v-1.34h3.589v1.34zm2.912-3.835l.048.854c.547-.66 1.264-.991 2.153-.991 1.54 0 2.324.882 2.352 2.645V82h-1.662v-4.792c0-.47-.102-.816-.307-1.04-.201-.227-.531-.34-.991-.34-.67 0-1.169.302-1.497.908V82h-1.662v-7.397h1.566zM233.886 82c-.073-.141-.137-.371-.192-.69a2.583 2.583 0 01-1.941.827c-.743 0-1.349-.212-1.818-.636a2.033 2.033 0 01-.705-1.572c0-.789.292-1.392.875-1.812.588-.424 1.427-.636 2.516-.636h1.019v-.485c0-.383-.107-.688-.322-.916-.214-.232-.54-.349-.977-.349-.378 0-.688.096-.93.288a.87.87 0 00-.362.717h-1.661c0-.405.134-.784.403-1.134a2.674 2.674 0 011.094-.834c.465-.2.982-.301 1.552-.301.865 0 1.556.219 2.071.656.515.433.779 1.044.793 1.832v3.336c0 .665.093 1.196.28 1.593V82h-1.695zm-1.825-1.196c.328 0 .635-.08.922-.24.292-.16.511-.373.657-.642v-1.395h-.896c-.615 0-1.078.107-1.388.322-.309.214-.464.517-.464.909 0 .319.104.574.314.765.214.187.499.28.855.28zm6.542-6.2l.047.772c.52-.606 1.231-.91 2.133-.91.989 0 1.666.38 2.03 1.136.538-.757 1.295-1.135 2.27-1.135.816 0 1.422.225 1.818.677.401.45.606 1.116.616 1.996V82h-1.662v-4.813c0-.469-.102-.813-.307-1.032-.205-.219-.545-.328-1.019-.328-.378 0-.688.103-.929.308a1.59 1.59 0 00-.499.793l.006 5.072h-1.661v-4.867c-.022-.87-.467-1.306-1.333-1.306-.665 0-1.137.271-1.415.814V82h-1.661v-7.397h1.566zm13.876 7.533c-1.052 0-1.907-.33-2.563-.992-.652-.665-.978-1.549-.978-2.652v-.205c0-.738.142-1.397.424-1.975a3.27 3.27 0 011.203-1.36 3.175 3.175 0 011.723-.486c1.007 0 1.784.321 2.331.964.552.642.827 1.551.827 2.727v.67h-4.833c.05.61.253 1.094.609 1.45.36.355.811.532 1.353.532.761 0 1.381-.307 1.86-.922l.895.854a3.013 3.013 0 01-1.189 1.032 3.724 3.724 0 01-1.662.363zm-.198-6.337c-.455 0-.825.16-1.107.478-.278.32-.456.764-.533 1.333h3.165v-.123c-.037-.556-.185-.975-.445-1.257-.259-.288-.619-.431-1.08-.431zm3.692-5.27h2.802v13.685h-2.802v-1.292h1.141V71.828h-1.141V70.53zm3.841 0h2.803v13.685h-2.803v-1.292h1.142V71.828h-1.142V70.53z" fill="#333945"/></g></g><g opacity=".8" filter="url(#filter1_dd_4415_41242)"><g clip-path="url(#clip2_4415_41242)"><rect x="16" y="116" width="385" height="45" rx="6" fill="#fff"/><path d="M36.259 137.764l2.29-4.717h1.914l-3.336 6.289V143h-1.736v-3.664l-3.343-6.289h1.92l2.29 4.717zm4.361 1.469c0-.724.144-1.376.43-1.955.288-.583.691-1.03 1.21-1.34.52-.314 1.117-.471 1.792-.471.998 0 1.807.321 2.426.964.625.642.962 1.494 1.012 2.556l.007.39c0 .729-.141 1.381-.424 1.955a3.078 3.078 0 01-1.203 1.333c-.52.314-1.121.472-1.805.472-1.043 0-1.88-.347-2.508-1.039-.625-.698-.937-1.625-.937-2.783v-.082zm1.661.144c0 .761.157 1.358.472 1.791.314.428.752.643 1.312.643.561 0 .996-.219 1.306-.657.314-.437.472-1.078.472-1.921 0-.747-.162-1.339-.486-1.777-.319-.437-.754-.656-1.305-.656a1.52 1.52 0 00-1.292.649c-.32.429-.479 1.071-.479 1.928zm11.102 2.898c-.488.575-1.18.862-2.078.862-.802 0-1.41-.235-1.825-.704-.41-.47-.616-1.149-.616-2.037v-4.792h1.661v4.771c0 .939.39 1.408 1.17 1.408.806 0 1.35-.289 1.633-.868v-5.311h1.661V143h-1.565l-.041-.725zm7.17-5.154a4.16 4.16 0 00-.676-.055c-.761 0-1.274.292-1.538.875V143h-1.661v-7.396h1.586l.04.827c.402-.643.958-.964 1.669-.964.237 0 .433.032.587.095l-.006 1.559zm4.225 2.112c0-.724.144-1.376.431-1.955.287-.583.69-1.03 1.21-1.34.52-.314 1.117-.471 1.791-.471.998 0 1.807.321 2.427.964.624.642.961 1.494 1.011 2.556l.007.39c0 .729-.141 1.381-.424 1.955a3.077 3.077 0 01-1.203 1.333c-.52.314-1.12.472-1.804.472-1.044 0-1.88-.347-2.51-1.039-.623-.698-.936-1.625-.936-2.783v-.082zm1.661.144c0 .761.158 1.358.472 1.791.315.428.752.643 1.313.643.56 0 .995-.219 1.305-.657.315-.437.472-1.078.472-1.921 0-.747-.162-1.339-.485-1.777-.32-.437-.755-.656-1.306-.656-.542 0-.973.216-1.292.649-.319.429-.479 1.071-.479 1.928zm13.098 0c0 1.144-.26 2.058-.78 2.741-.519.679-1.216 1.019-2.091 1.019-.811 0-1.46-.267-1.948-.8v3.507h-1.661v-10.24h1.53l.07.751c.487-.592 1.15-.888 1.989-.888.902 0 1.608.337 2.119 1.012.515.669.772 1.601.772 2.795v.103zm-1.654-.144c0-.738-.148-1.323-.444-1.756-.292-.433-.711-.65-1.258-.65-.68 0-1.167.28-1.463.841v3.281c.3.574.793.862 1.476.862.529 0 .941-.212 1.238-.636.3-.429.45-1.076.45-1.942zM82.716 143h-1.661v-7.396h1.66V143zm-1.764-9.317c0-.256.08-.468.24-.636.164-.169.396-.253.697-.253.3 0 .533.084.697.253.164.168.246.38.246.636 0 .25-.082.46-.246.629-.164.164-.397.246-.697.246-.301 0-.533-.082-.698-.246a.882.882 0 01-.239-.629zm5.12 1.921l.048.854c.547-.661 1.265-.991 2.153-.991 1.54 0 2.325.882 2.352 2.645V143h-1.661v-4.792c0-.469-.103-.816-.308-1.039-.2-.228-.53-.342-.991-.342-.67 0-1.169.303-1.497.909V143h-1.661v-7.396h1.565zM94.091 143H92.43v-7.396h1.66V143zm-1.764-9.317c0-.256.08-.468.24-.636.164-.169.396-.253.697-.253.3 0 .533.084.697.253.164.168.246.38.246.636 0 .25-.082.46-.246.629-.164.164-.397.246-.697.246-.301 0-.533-.082-.698-.246a.882.882 0 01-.239-.629zm3.268 5.55c0-.724.143-1.376.43-1.955.287-.583.69-1.03 1.21-1.34.52-.314 1.117-.471 1.791-.471.998 0 1.807.321 2.427.964.624.642.962 1.494 1.012 2.556l.007.39c0 .729-.142 1.381-.424 1.955a3.078 3.078 0 01-1.203 1.333c-.52.314-1.121.472-1.805.472-1.044 0-1.88-.347-2.509-1.039-.624-.698-.936-1.625-.936-2.783v-.082zm1.66.144c0 .761.158 1.358.473 1.791.314.428.752.643 1.312.643s.996-.219 1.306-.657c.314-.437.471-1.078.471-1.921 0-.747-.161-1.339-.485-1.777-.319-.437-.754-.656-1.306-.656-.542 0-.973.216-1.292.649-.319.429-.478 1.071-.478 1.928zm8.163-3.773l.048.854c.547-.661 1.264-.991 2.153-.991 1.541 0 2.324.882 2.352 2.645V143h-1.661v-4.792c0-.469-.103-.816-.308-1.039-.201-.228-.531-.342-.991-.342-.67 0-1.169.303-1.497.909V143h-1.661v-7.396h1.565zM116.923 143h-1.661v-7.396h1.661V143zm-1.764-9.317c0-.256.08-.468.239-.636.164-.169.397-.253.698-.253.3 0 .533.084.697.253.164.168.246.38.246.636 0 .25-.082.46-.246.629-.164.164-.397.246-.697.246-.301 0-.534-.082-.698-.246a.884.884 0 01-.239-.629zm7.725 7.307a.752.752 0 00-.369-.677c-.242-.154-.645-.291-1.21-.41-.565-.118-1.037-.269-1.415-.451-.83-.401-1.244-.982-1.244-1.743 0-.638.268-1.171.806-1.6.538-.428 1.222-.642 2.051-.642.884 0 1.597.219 2.14.656.546.438.82 1.005.82 1.702h-1.661c0-.319-.119-.583-.356-.793-.237-.214-.551-.321-.943-.321-.365 0-.663.084-.896.253a.8.8 0 00-.341.677c0 .255.107.453.321.594.214.142.647.285 1.299.431.651.141 1.162.312 1.531.513.374.196.649.433.827.711.182.278.274.615.274 1.011 0 .666-.276 1.206-.828 1.62-.551.411-1.273.616-2.167.616-.606 0-1.146-.11-1.62-.328-.474-.219-.843-.52-1.107-.903a2.138 2.138 0 01-.397-1.237h1.614c.022.392.171.695.444.909.273.21.636.315 1.087.315.437 0 .77-.082.998-.247a.78.78 0 00.342-.656zm9.18-.095l1.566-5.291h1.716L132.782 143h-1.442l-2.584-7.396h1.723l1.585 5.291zm7.486 2.242c-1.053 0-1.907-.331-2.564-.991-.651-.666-.977-1.55-.977-2.653v-.205c0-.738.141-1.397.424-1.976a3.273 3.273 0 011.203-1.36 3.175 3.175 0 011.722-.485c1.008 0 1.785.321 2.331.964.552.642.828 1.551.828 2.727v.67h-4.833c.05.611.253 1.094.608 1.449.36.356.811.534 1.354.534.761 0 1.38-.308 1.859-.923l.895.854a3.005 3.005 0 01-1.189 1.032 3.714 3.714 0 01-1.661.363zm-.198-6.337c-.456 0-.825.159-1.108.478-.278.319-.456.764-.533 1.333h3.165v-.123c-.036-.556-.185-.975-.444-1.258-.26-.287-.62-.43-1.08-.43zm8.333.321a4.17 4.17 0 00-.677-.055c-.761 0-1.274.292-1.538.875V143h-1.661v-7.396h1.586l.041.827c.401-.643.957-.964 1.668-.964.236 0 .432.032.587.095l-.006 1.559zm3.759 3.5l1.504-5.017h1.771l-2.94 8.517c-.451 1.244-1.217 1.866-2.297 1.866a2.97 2.97 0 01-.799-.123v-1.285l.314.021c.419 0 .734-.078.943-.233.215-.15.383-.405.506-.765l.24-.636-2.598-7.362h1.791l1.565 5.017zm9.489 2.379h-1.662v-7.396h1.662V143zm-1.764-9.317c0-.256.08-.468.239-.636.164-.169.397-.253.697-.253.301 0 .534.084.698.253.164.168.246.38.246.636 0 .25-.082.46-.246.629-.164.164-.397.246-.698.246-.3 0-.533-.082-.697-.246a.884.884 0 01-.239-.629zm5.141 1.921l.047.772c.52-.606 1.231-.909 2.133-.909.989 0 1.666.378 2.031 1.135.537-.757 1.294-1.135 2.269-1.135.816 0 1.422.225 1.818.677.401.451.607 1.116.616 1.996V143h-1.662v-4.812c0-.47-.102-.814-.307-1.033-.205-.218-.545-.328-1.019-.328-.378 0-.688.103-.929.308-.237.2-.404.465-.499.793l.006 5.072h-1.661v-4.867c-.022-.871-.467-1.306-1.333-1.306-.665 0-1.137.271-1.415.814V143h-1.661v-7.396h1.566zm17.096 3.773c0 1.144-.26 2.058-.779 2.741-.52.679-1.217 1.019-2.092 1.019-.811 0-1.46-.267-1.948-.8v3.507h-1.661v-10.24h1.531l.068.751c.488-.592 1.151-.888 1.99-.888.902 0 1.608.337 2.119 1.012.515.669.772 1.601.772 2.795v.103zm-1.654-.144c0-.738-.148-1.323-.444-1.756-.292-.433-.711-.65-1.258-.65-.679 0-1.167.28-1.463.841v3.281c.301.574.793.862 1.476.862.529 0 .942-.212 1.238-.636.301-.429.451-1.076.451-1.942zm2.755 0c0-.724.143-1.376.431-1.955.287-.583.69-1.03 1.209-1.34.52-.314 1.117-.471 1.791-.471.999 0 1.807.321 2.427.964.625.642.962 1.494 1.012 2.556l.007.39c0 .729-.141 1.381-.424 1.955a3.078 3.078 0 01-1.203 1.333c-.52.314-1.121.472-1.805.472-1.043 0-1.88-.347-2.509-1.039-.624-.698-.936-1.625-.936-2.783v-.082zm1.661.144c0 .761.157 1.358.472 1.791.314.428.752.643 1.312.643.561 0 .996-.219 1.306-.657.314-.437.471-1.078.471-1.921 0-.747-.161-1.339-.485-1.777-.319-.437-.754-.656-1.306-.656-.542 0-.973.216-1.292.649-.319.429-.478 1.071-.478 1.928zm10.493-2.256a4.16 4.16 0 00-.677-.055c-.761 0-1.273.292-1.538.875V143h-1.661v-7.396h1.586l.041.827c.401-.643.957-.964 1.668-.964.237 0 .433.032.588.095l-.007 1.559zm3.473-3.315v1.798h1.305v1.23h-1.305v4.129c0 .282.054.488.164.615.114.123.314.185.601.185.192 0 .386-.023.581-.069v1.285a4.079 4.079 0 01-1.093.158c-1.276 0-1.914-.704-1.914-2.113v-4.19h-1.217v-1.23h1.217v-1.798h1.661zm7 9.194c-.073-.141-.137-.371-.192-.69a2.585 2.585 0 01-1.941.827c-.743 0-1.349-.212-1.818-.636a2.032 2.032 0 01-.704-1.572c0-.789.291-1.393.875-1.812.587-.424 1.426-.636 2.515-.636h1.019v-.485c0-.383-.107-.688-.322-.916-.214-.232-.54-.349-.977-.349-.378 0-.688.096-.93.288a.868.868 0 00-.362.717h-1.661c0-.405.134-.784.403-1.134a2.672 2.672 0 011.094-.834 3.87 3.87 0 011.552-.301c.865 0 1.556.219 2.071.656.515.433.779 1.044.793 1.832v3.336c0 .665.093 1.196.28 1.593V143h-1.695zm-1.825-1.196c.328 0 .635-.08.922-.24a1.59 1.59 0 00.657-.642v-1.395h-.896c-.615 0-1.078.107-1.388.322-.309.214-.464.517-.464.909 0 .319.104.574.314.765.214.187.499.281.855.281zm6.521-6.2l.048.854c.547-.661 1.265-.991 2.153-.991 1.541 0 2.324.882 2.352 2.645V143h-1.661v-4.792c0-.469-.103-.816-.308-1.039-.2-.228-.531-.342-.991-.342-.67 0-1.169.303-1.497.909V143h-1.661v-7.396h1.565zm8.333-1.798v1.798h1.306v1.23h-1.306v4.129c0 .282.055.488.164.615.114.123.315.185.602.185.191 0 .385-.023.581-.069v1.285a4.086 4.086 0 01-1.094.158c-1.276 0-1.914-.704-1.914-2.113v-4.19h-1.217v-1.23h1.217v-1.798h1.661z" fill="#333945"/></g></g><g opacity=".8" filter="url(#filter2_dd_4415_41242)"><rect x="420" y="115" width="46" height="46" rx="6" fill="#fff"/><path fill-rule="evenodd" clip-rule="evenodd" d="M436.25 138a.75.75 0 01.75-.75h12a.75.75 0 010 1.5h-12a.75.75 0 01-.75-.75z" fill="#941759"/></g><g opacity=".8" filter="url(#filter3_dd_4415_41242)"><rect x="16" y="177" width="526" height="142" rx="6" fill="#fff"/><path d="M47.547 213h-1.131v-3.943h-4.3V213H40.99v-8.531h1.125v3.668h4.301v-3.668h1.13V213zm3.006 0h-1.084v-6.34h1.084V213zm-1.172-8.021c0-.176.053-.325.158-.446.11-.121.27-.181.48-.181.212 0 .372.06.481.181.11.121.164.27.164.446a.619.619 0 01-.164.439c-.11.117-.27.176-.48.176-.211 0-.372-.059-.48-.176a.632.632 0 01-.16-.439zm8.133-.838h-1.12v9.797h1.12v.89h-2.21V203.25h2.21v.891zm3.187 0h-1.119v9.797h1.12v.89h-2.21V203.25h2.21v.891zm6.31 5.759c0 .969-.222 1.748-.667 2.338-.446.586-1.043.879-1.793.879-.801 0-1.42-.283-1.858-.849l-.052.732h-.996v-9h1.083v3.357c.438-.543 1.041-.814 1.811-.814s1.373.291 1.81.873c.442.582.663 1.379.663 2.391v.093zm-1.083-.123c0-.738-.143-1.308-.428-1.711-.285-.402-.695-.603-1.23-.603-.715 0-1.229.332-1.541.996v2.742c.331.664.85.996 1.552.996.52 0 .924-.201 1.213-.603.29-.403.434-1.008.434-1.817zm6.369 2.596c-.422.496-1.041.744-1.858.744-.675 0-1.191-.195-1.546-.586-.352-.394-.53-.976-.534-1.746v-4.125h1.084v4.096c0 .961.391 1.441 1.172 1.441.828 0 1.38-.308 1.653-.926v-4.611h1.084V213H72.32l-.023-.627zm4.781-.961l1.477-4.752h1.16l-2.549 7.319c-.394 1.054-1.022 1.582-1.88 1.582l-.206-.018-.404-.076v-.879l.293.023c.367 0 .652-.074.855-.222.207-.149.377-.42.51-.815l.24-.644-2.261-6.27h1.183l1.582 4.752zm6.158 1.705c-.859 0-1.558-.281-2.097-.844-.54-.566-.809-1.322-.809-2.267v-.199c0-.629.12-1.19.358-1.682a2.812 2.812 0 011.007-1.16 2.538 2.538 0 011.407-.422c.824 0 1.464.271 1.921.814.458.543.686 1.321.686 2.332v.452h-4.295c.016.625.197 1.13.545 1.517.352.383.797.574 1.336.574.383 0 .707-.078.973-.234.265-.156.498-.363.697-.621l.662.516c-.531.816-1.328 1.224-2.39 1.224zm-.134-5.683c-.438 0-.805.16-1.102.48-.297.316-.48.762-.55 1.336h3.175v-.082c-.031-.551-.18-.977-.445-1.277-.266-.305-.625-.457-1.078-.457zm6.931.199a3.178 3.178 0 00-.533-.041c-.71 0-1.193.303-1.447.908v4.5h-1.084v-6.34h1.054l.018.733c.356-.567.86-.85 1.512-.85.21 0 .37.027.48.082v1.008zm3.258 2.185h-2.86v-.884h2.86v.884zM94.715 213v-5.502h-1.002v-.838h1.002v-.539c0-.707.201-1.258.603-1.652.407-.395.979-.592 1.717-.592.438 0 .99.119 1.658.357l-.181.914a3.762 3.762 0 00-1.395-.293c-.465 0-.8.106-1.008.317-.203.207-.304.519-.304.937v.551H97.1v.838h-1.295V213h-1.09zm4.517 0h-1.09v-6.34h1.09V213zm4.829-5.367a3.19 3.19 0 00-.534-.041c-.711 0-1.193.303-1.447.908v4.5h-1.084v-6.34h1.055l.017.733c.356-.567.86-.85 1.512-.85.211 0 .371.027.481.082v1.008zm4.693 3.685c0-.293-.111-.519-.334-.679-.219-.164-.604-.305-1.154-.422-.547-.117-.983-.258-1.307-.422-.32-.164-.559-.359-.715-.586a1.418 1.418 0 01-.228-.809c0-.519.218-.959.656-1.318.441-.359 1.004-.539 1.687-.539.719 0 1.301.186 1.746.557.45.371.674.845.674 1.423h-1.09c0-.296-.127-.552-.38-.767-.25-.215-.567-.322-.95-.322-.394 0-.703.086-.925.257a.812.812 0 00-.334.674c0 .262.103.459.31.592.207.133.58.26 1.119.381.543.121.983.266 1.319.433.336.168.584.372.744.61.164.234.246.521.246.861 0 .567-.227 1.022-.68 1.365-.453.34-1.041.51-1.763.51-.508 0-.957-.09-1.348-.269a2.227 2.227 0 01-.92-.75 1.84 1.84 0 01-.328-1.049h1.084c.019.363.164.652.433.867.274.211.633.316 1.079.316.41 0 .738-.082.984-.246.25-.168.375-.39.375-.668zm3.967-6.193v1.535h1.183v.838h-1.183v3.932c0 .254.052.445.158.574.105.125.285.187.539.187.125 0 .297-.023.516-.07V213a3.155 3.155 0 01-.832.117c-.485 0-.85-.146-1.096-.439-.246-.293-.369-.709-.369-1.248v-3.932h-1.155v-.838h1.155v-1.535h1.084zm4.711 4.693h-2.86v-.884h2.86v.884zm2.086-3.158l.035.797c.484-.609 1.117-.914 1.898-.914 1.34 0 2.016.756 2.028 2.268V213h-1.084v-4.195c-.004-.457-.11-.795-.317-1.014-.203-.219-.521-.328-.955-.328-.352 0-.66.094-.926.281a1.928 1.928 0 00-.621.738V213h-1.084v-6.34h1.026zm9.509 6.34c-.062-.125-.113-.348-.152-.668-.504.523-1.105.785-1.805.785-.625 0-1.138-.176-1.541-.527a1.73 1.73 0 01-.597-1.348c0-.66.25-1.172.75-1.535.504-.367 1.211-.551 2.121-.551h1.054v-.498c0-.379-.113-.679-.339-.902-.227-.227-.561-.34-1.002-.34-.387 0-.711.098-.973.293-.262.195-.393.432-.393.709h-1.089c0-.316.111-.621.334-.914a2.31 2.31 0 01.914-.703c.386-.172.81-.258 1.271-.258.731 0 1.303.184 1.717.551.414.363.629.865.644 1.506v2.918c0 .582.075 1.044.223 1.388V213h-1.137zm-1.798-.826a1.9 1.9 0 00.966-.264 1.59 1.59 0 00.662-.685v-1.301h-.849c-1.328 0-1.992.388-1.992 1.166 0 .34.113.605.339.797.227.191.518.287.874.287zm5.431-5.514l.029.703c.465-.547 1.092-.82 1.881-.82.887 0 1.491.34 1.811 1.019a2.42 2.42 0 01.82-.738c.34-.187.74-.281 1.201-.281 1.391 0 2.098.736 2.121 2.209V213h-1.084v-4.184c0-.453-.103-.791-.31-1.013-.207-.227-.555-.34-1.043-.34-.402 0-.736.121-1.002.363-.266.238-.42.561-.463.967V213h-1.09v-4.154c0-.922-.451-1.383-1.353-1.383-.711 0-1.198.303-1.459.908V213h-1.084v-6.34h1.025zm12.135 6.457c-.859 0-1.559-.281-2.098-.844-.539-.566-.808-1.322-.808-2.267v-.199c0-.629.119-1.19.357-1.682a2.81 2.81 0 011.008-1.16 2.537 2.537 0 011.406-.422c.824 0 1.465.271 1.922.814.457.543.686 1.321.686 2.332v.452h-4.295c.015.625.197 1.13.545 1.517.351.383.796.574 1.336.574.382 0 .707-.078.972-.234.266-.156.498-.363.697-.621l.663.516c-.532.816-1.329 1.224-2.391 1.224zm-.135-5.683c-.437 0-.805.16-1.101.48-.297.316-.481.762-.551 1.336h3.176v-.082c-.032-.551-.18-.977-.446-1.277-.265-.305-.625-.457-1.078-.457zm3.1-4.184h2.215v11.578h-2.215v-.89h1.131v-9.797h-1.131v-.891zm3.187 0h2.215v11.578h-2.215v-.89h1.131v-9.797h-1.131v-.891zm3.92 11.449l-.615-.422c.367-.511.559-1.039.574-1.582v-.978h1.061v.849c0 .395-.098.789-.293 1.184a2.74 2.74 0 01-.727.949zM46.885 231.395h-2.742V239h-1.12v-7.605h-2.736v-.926h6.598v.926zm2.18 2.033c.48-.59 1.105-.885 1.875-.885 1.34 0 2.015.756 2.027 2.268V239h-1.084v-4.195c-.004-.457-.11-.795-.317-1.014-.203-.219-.521-.328-.955-.328-.351 0-.66.094-.925.281a1.917 1.917 0 00-.621.738V239H47.98v-9h1.084v3.428zM58.504 239c-.063-.125-.113-.348-.152-.668-.504.523-1.106.785-1.805.785-.625 0-1.139-.176-1.541-.527a1.73 1.73 0 01-.598-1.348c0-.66.25-1.172.75-1.535.504-.367 1.211-.551 2.121-.551h1.055v-.498c0-.379-.113-.679-.34-.902-.226-.227-.56-.34-1.002-.34-.386 0-.71.098-.972.293-.262.195-.393.432-.393.709h-1.09c0-.316.111-.621.334-.914.227-.297.531-.531.914-.703.387-.172.81-.258 1.272-.258.73 0 1.302.184 1.716.551.414.363.63.865.645 1.506v2.918c0 .582.074 1.044.223 1.388V239h-1.137zm-1.799-.826c.34 0 .662-.088.967-.264.305-.176.525-.404.662-.685v-1.301h-.85c-1.328 0-1.992.388-1.992 1.166 0 .34.114.605.34.797.227.191.518.287.873.287zm5.438-5.514l.035.797c.484-.609 1.117-.914 1.898-.914 1.34 0 2.016.756 2.028 2.268V239h-1.085v-4.195c-.003-.457-.109-.795-.316-1.014-.203-.219-.521-.328-.955-.328-.351 0-.66.094-.926.281a1.917 1.917 0 00-.62.738V239h-1.085v-6.34h1.026zm7.365 3.404l-.68.709V239h-1.084v-9h1.084v5.443l.58-.697 1.975-2.086H72.7l-2.467 2.649L72.988 239h-1.271l-2.21-2.936zm9.363 1.348l1.477-4.752h1.16l-2.549 7.319c-.395 1.054-1.022 1.582-1.88 1.582l-.206-.018-.404-.076v-.879l.293.023c.367 0 .652-.074.855-.222.207-.149.377-.42.51-.815l.24-.644-2.261-6.27h1.183l1.582 4.752zm3.229-1.641c0-.621.12-1.179.363-1.675a2.763 2.763 0 011.02-1.149 2.795 2.795 0 011.494-.404c.863 0 1.56.299 2.091.896.535.598.803 1.393.803 2.385v.076c0 .618-.119 1.172-.357 1.664-.235.489-.573.87-1.014 1.143-.438.273-.941.41-1.512.41-.86 0-1.556-.299-2.091-.896-.532-.598-.797-1.389-.797-2.373v-.077zm1.09.129c0 .704.162 1.268.486 1.694.328.426.765.638 1.312.638.551 0 .989-.214 1.313-.644.324-.434.486-1.039.486-1.817 0-.695-.166-1.257-.498-1.687a1.563 1.563 0 00-1.312-.65c-.536 0-.967.212-1.295.638-.329.426-.493 1.035-.493 1.828zm9.954 2.473c-.421.496-1.04.744-1.857.744-.676 0-1.191-.195-1.547-.586-.351-.394-.53-.976-.533-1.746v-4.125h1.084v4.096c0 .961.39 1.441 1.172 1.441.828 0 1.379-.308 1.652-.926v-4.611H94.2V239h-1.031l-.024-.627zm6.217.627v-5.502H98.36v-.838h1.002v-.65c0-.68.182-1.205.545-1.576.364-.372.877-.557 1.541-.557.25 0 .498.033.744.1l-.058.878a3.132 3.132 0 00-.586-.052c-.352 0-.623.103-.815.31-.191.203-.287.496-.287.879v.668h1.354v.838h-1.354V239h-1.084zm3.352-3.229c0-.621.121-1.179.363-1.675a2.76 2.76 0 011.02-1.149 2.792 2.792 0 011.494-.404c.863 0 1.56.299 2.092.896.535.598.802 1.393.802 2.385v.076c0 .618-.119 1.172-.357 1.664-.234.489-.572.87-1.014 1.143-.437.273-.941.41-1.511.41-.86 0-1.557-.299-2.092-.896-.531-.598-.797-1.389-.797-2.373v-.077zm1.09.129c0 .704.162 1.268.486 1.694.328.426.766.638 1.313.638.55 0 .988-.214 1.312-.644.324-.434.486-1.039.486-1.817 0-.695-.166-1.257-.498-1.687a1.561 1.561 0 00-1.312-.65c-.535 0-.967.212-1.295.638-.328.426-.492 1.035-.492 1.828zm9.105-2.267a3.178 3.178 0 00-.533-.041c-.711 0-1.193.303-1.447.908v4.5h-1.084v-6.34h1.054l.018.733c.355-.567.859-.85 1.512-.85.211 0 .371.027.48.082v1.008zm9.334 2.267c0 .965-.221 1.743-.662 2.332-.441.59-1.039.885-1.793.885-.769 0-1.375-.244-1.816-.732v3.053h-1.084v-8.778h.99l.053.703c.441-.547 1.054-.82 1.84-.82.761 0 1.363.287 1.804.861.446.575.668 1.373.668 2.397v.099zm-1.084-.123c0-.715-.152-1.279-.457-1.693-.305-.414-.722-.621-1.254-.621-.656 0-1.148.291-1.476.873v3.029c.324.578.82.867 1.488.867.52 0 .932-.205 1.236-.615.309-.414.463-1.027.463-1.84zm6.381 2.596c-.422.496-1.041.744-1.857.744-.676 0-1.192-.195-1.547-.586-.352-.394-.53-.976-.533-1.746v-4.125h1.084v4.096c0 .961.39 1.441 1.171 1.441.829 0 1.379-.308 1.653-.926v-4.611h1.084V239h-1.032l-.023-.627zm5.772-4.74a3.19 3.19 0 00-.534-.041c-.711 0-1.193.303-1.447.908v4.5h-1.084v-6.34h1.055l.017.733c.356-.567.86-.85 1.512-.85.211 0 .371.027.481.082v1.008zm3.427 4.599c.387 0 .725-.117 1.014-.351.289-.235.449-.527.48-.879h1.026c-.02.363-.145.709-.375 1.037-.231.328-.539.59-.926.785a2.637 2.637 0 01-1.219.293c-.863 0-1.55-.287-2.062-.861-.508-.578-.762-1.367-.762-2.367v-.182c0-.617.113-1.166.34-1.646.226-.481.551-.854.973-1.12.425-.265.927-.398 1.505-.398.711 0 1.301.213 1.77.639.473.425.725.978.756 1.658h-1.026a1.478 1.478 0 00-.468-1.008 1.433 1.433 0 00-1.032-.398c-.55 0-.978.199-1.283.597-.301.395-.451.967-.451 1.717v.205c0 .731.15 1.293.451 1.688.301.394.731.591 1.289.591zm4.823-4.804c.48-.59 1.105-.885 1.875-.885 1.339 0 2.015.756 2.027 2.268V239h-1.084v-4.195c-.004-.457-.109-.795-.317-1.014-.203-.219-.521-.328-.955-.328-.351 0-.66.094-.925.281a1.91 1.91 0 00-.621.738V239h-1.084v-9h1.084v3.428zM151 239c-.062-.125-.113-.348-.152-.668-.504.523-1.106.785-1.805.785-.625 0-1.139-.176-1.541-.527a1.731 1.731 0 01-.598-1.348c0-.66.25-1.172.75-1.535.504-.367 1.211-.551 2.121-.551h1.055v-.498c0-.379-.113-.679-.34-.902-.226-.227-.56-.34-1.002-.34-.386 0-.711.098-.972.293-.262.195-.393.432-.393.709h-1.09c0-.316.112-.621.334-.914.227-.297.531-.531.914-.703a3.097 3.097 0 011.272-.258c.73 0 1.302.184 1.717.551.414.363.628.865.644 1.506v2.918c0 .582.074 1.044.223 1.388V239H151zm-1.799-.826c.34 0 .662-.088.967-.264.305-.176.525-.404.662-.685v-1.301h-.85c-1.328 0-1.992.388-1.992 1.166 0 .34.114.605.34.797.227.191.518.287.873.287zm8.104-.856a.788.788 0 00-.334-.679c-.219-.164-.604-.305-1.155-.422-.546-.117-.982-.258-1.306-.422-.321-.164-.559-.359-.715-.586a1.419 1.419 0 01-.229-.809c0-.519.219-.959.657-1.318.441-.359 1.004-.539 1.687-.539.719 0 1.301.186 1.746.557.449.371.674.845.674 1.423h-1.09c0-.296-.127-.552-.381-.767-.25-.215-.566-.322-.949-.322-.394 0-.703.086-.926.257a.814.814 0 00-.334.674c0 .262.104.459.311.592.207.133.58.26 1.119.381.543.121.982.266 1.318.433.336.168.584.372.745.61.164.234.246.521.246.861 0 .567-.227 1.022-.68 1.365-.453.34-1.041.51-1.764.51-.507 0-.957-.09-1.347-.269a2.22 2.22 0 01-.92-.75 1.84 1.84 0 01-.328-1.049h1.084c.019.363.164.652.433.867.274.211.633.316 1.078.316.41 0 .739-.082.985-.246.25-.168.375-.39.375-.668zm3.674 1.682h-1.084v-6.34h1.084V239zm-1.172-8.021c0-.176.052-.325.158-.446.109-.121.269-.181.48-.181.211 0 .371.06.481.181.109.121.164.27.164.446a.62.62 0 01-.164.439c-.11.117-.27.176-.481.176-.211 0-.371-.059-.48-.176a.63.63 0 01-.158-.439zm3.937 1.681l.035.797c.485-.609 1.117-.914 1.899-.914 1.34 0 2.015.756 2.027 2.268V239h-1.084v-4.195c-.004-.457-.109-.795-.316-1.014-.203-.219-.522-.328-.955-.328-.352 0-.661.094-.926.281a1.91 1.91 0 00-.621.738V239h-1.084v-6.34h1.025zm5.338 3.117c0-.988.229-1.773.686-2.355.457-.586 1.062-.879 1.816-.879.773 0 1.377.273 1.811.82l.052-.703h.991v6.188c0 .82-.245 1.466-.733 1.939-.484.473-1.137.709-1.957.709-.457 0-.904-.098-1.342-.293-.437-.195-.771-.463-1.002-.803l.563-.65c.465.574 1.033.861 1.705.861.527 0 .937-.148 1.23-.445.297-.297.446-.715.446-1.254v-.545c-.434.5-1.026.75-1.776.75-.742 0-1.343-.299-1.804-.896-.457-.598-.686-1.412-.686-2.444zm1.09.123c0 .715.146 1.278.439 1.688.293.406.703.609 1.231.609.683 0 1.185-.31 1.506-.931v-2.895c-.332-.605-.83-.908-1.494-.908-.528 0-.94.205-1.237.615-.297.41-.445 1.018-.445 1.822zm8.596-.129c0-.621.121-1.179.363-1.675a2.765 2.765 0 011.019-1.149 2.798 2.798 0 011.495-.404c.863 0 1.56.299 2.091.896.535.598.803 1.393.803 2.385v.076c0 .618-.119 1.172-.357 1.664-.235.489-.573.87-1.014 1.143-.438.273-.941.41-1.512.41-.859 0-1.556-.299-2.092-.896-.531-.598-.796-1.389-.796-2.373v-.077zm1.089.129c0 .704.163 1.268.487 1.694.328.426.765.638 1.312.638.551 0 .989-.214 1.313-.644.324-.434.486-1.039.486-1.817 0-.695-.166-1.257-.498-1.687a1.562 1.562 0 00-1.312-.65c-.536 0-.967.212-1.295.638-.329.426-.493 1.035-.493 1.828zm9.955 2.473c-.421.496-1.041.744-1.857.744-.676 0-1.191-.195-1.547-.586-.351-.394-.529-.976-.533-1.746v-4.125h1.084v4.096c0 .961.391 1.441 1.172 1.441.828 0 1.379-.308 1.652-.926v-4.611h1.084V239h-1.031l-.024-.627zm5.772-4.74a3.178 3.178 0 00-.533-.041c-.711 0-1.194.303-1.447.908v4.5h-1.084v-6.34h1.054l.018.733c.355-.567.859-.85 1.512-.85.21 0 .371.027.48.082v1.008zm6.223-3.492h-1.119v9.797h1.119v.89h-2.209V229.25h2.209v.891zm3.187 0h-1.119v9.797h1.119v.89h-2.209V229.25h2.209v.891zm6.299 5.759c0 .965-.221 1.743-.662 2.332-.442.59-1.039.885-1.793.885-.77 0-1.375-.244-1.817-.732v3.053h-1.083v-8.778h.99l.052.703c.442-.547 1.055-.82 1.84-.82.762 0 1.364.287 1.805.861.445.575.668 1.373.668 2.397v.099zm-1.084-.123c0-.715-.152-1.279-.457-1.693-.305-.414-.723-.621-1.254-.621-.656 0-1.148.291-1.477.873v3.029c.325.578.821.867 1.489.867.519 0 .931-.205 1.236-.615.309-.414.463-1.027.463-1.84zm5.531-2.144a3.178 3.178 0 00-.533-.041c-.711 0-1.193.303-1.447.908v4.5h-1.084v-6.34h1.054l.018.733c.356-.567.859-.85 1.512-.85.211 0 .371.027.48.082v1.008zm.598 2.138c0-.621.121-1.179.363-1.675a2.76 2.76 0 011.02-1.149 2.792 2.792 0 011.494-.404c.863 0 1.56.299 2.092.896.535.598.802 1.393.802 2.385v.076c0 .618-.119 1.172-.357 1.664-.234.489-.572.87-1.014 1.143-.437.273-.941.41-1.511.41-.86 0-1.557-.299-2.092-.896-.531-.598-.797-1.389-.797-2.373v-.077zm1.09.129c0 .704.162 1.268.486 1.694.328.426.766.638 1.313.638.55 0 .988-.214 1.312-.644.324-.434.486-1.039.486-1.817 0-.695-.166-1.257-.498-1.687a1.561 1.561 0 00-1.312-.65c-.535 0-.967.212-1.295.638-.328.426-.492 1.035-.492 1.828zm5.777-.123c0-.972.231-1.754.691-2.343.461-.594 1.065-.891 1.811-.891.742 0 1.33.254 1.764.762V230h1.084v9h-.996l-.053-.68c-.434.532-1.037.797-1.811.797-.734 0-1.334-.301-1.799-.902-.46-.602-.691-1.387-.691-2.356v-.082zm1.084.123c0 .719.149 1.282.445 1.688.297.406.707.609 1.231.609.687 0 1.189-.308 1.506-.926v-2.912c-.325-.597-.823-.896-1.494-.896-.532 0-.946.205-1.243.615-.296.41-.445 1.018-.445 1.822zm9.867 2.473c-.422.496-1.041.744-1.857.744-.676 0-1.192-.195-1.547-.586-.352-.394-.529-.976-.533-1.746v-4.125h1.084v4.096c0 .961.39 1.441 1.172 1.441.828 0 1.379-.308 1.652-.926v-4.611h1.084V239h-1.031l-.024-.627zm5.25-.141c.387 0 .725-.117 1.014-.351.289-.235.449-.527.48-.879h1.026c-.02.363-.145.709-.375 1.037-.231.328-.539.59-.926.785a2.637 2.637 0 01-1.219.293c-.863 0-1.551-.287-2.062-.861-.508-.578-.762-1.367-.762-2.367v-.182c0-.617.113-1.166.34-1.646.226-.481.551-.854.973-1.12.425-.265.927-.398 1.505-.398.711 0 1.301.213 1.77.639.473.425.725.978.756 1.658H240.9a1.478 1.478 0 00-.468-1.008 1.433 1.433 0 00-1.032-.398c-.55 0-.978.199-1.283.597-.301.395-.451.967-.451 1.717v.205c0 .731.15 1.293.451 1.688.301.394.731.591 1.289.591zm5.209-7.107v1.535h1.184v.838h-1.184v3.932c0 .254.053.445.158.574.106.125.286.187.539.187.126 0 .297-.023.516-.07V239a3.144 3.144 0 01-.832.117c-.484 0-.85-.146-1.096-.439-.246-.293-.369-.709-.369-1.248v-3.932h-1.154v-.838h1.154v-1.535h1.084zm4.711 4.693h-2.859v-.884h2.859v.884zm2.086-3.158l.035.797c.485-.609 1.117-.914 1.899-.914 1.34 0 2.015.756 2.027 2.268V239h-1.084v-4.195c-.004-.457-.109-.795-.316-1.014-.203-.219-.522-.328-.955-.328-.352 0-.661.094-.926.281a1.91 1.91 0 00-.621.738V239h-1.084v-6.34h1.025zm9.51 6.34c-.063-.125-.113-.348-.152-.668-.504.523-1.106.785-1.805.785-.625 0-1.139-.176-1.541-.527a1.728 1.728 0 01-.598-1.348c0-.66.25-1.172.75-1.535.504-.367 1.211-.551 2.121-.551h1.055v-.498c0-.379-.113-.679-.34-.902-.226-.227-.56-.34-1.002-.34-.387 0-.711.098-.972.293-.262.195-.393.432-.393.709h-1.09c0-.316.111-.621.334-.914.227-.297.531-.531.914-.703a3.097 3.097 0 011.272-.258c.73 0 1.302.184 1.716.551.414.363.629.865.645 1.506v2.918c0 .582.074 1.044.223 1.388V239h-1.137zm-1.799-.826c.34 0 .662-.088.967-.264.305-.176.525-.404.662-.685v-1.301h-.85c-1.328 0-1.992.388-1.992 1.166 0 .34.113.605.34.797.227.191.518.287.873.287zm5.432-5.514l.029.703c.465-.547 1.092-.82 1.881-.82.887 0 1.49.34 1.81 1.019.211-.304.485-.55.821-.738.34-.187.74-.281 1.201-.281 1.391 0 2.098.736 2.121 2.209V239h-1.084v-4.184c0-.453-.104-.791-.311-1.013-.207-.227-.554-.34-1.043-.34-.402 0-.736.121-1.001.363-.266.238-.42.561-.463.967V239h-1.09v-4.154c0-.922-.451-1.383-1.354-1.383-.711 0-1.197.303-1.459.908V239h-1.084v-6.34h1.026zm12.134 6.457c-.859 0-1.558-.281-2.097-.844-.539-.566-.809-1.322-.809-2.267v-.199c0-.629.119-1.19.358-1.682a2.814 2.814 0 011.007-1.16 2.54 2.54 0 011.407-.422c.824 0 1.465.271 1.922.814.457.543.685 1.321.685 2.332v.452h-4.295c.016.625.197 1.13.545 1.517.352.383.797.574 1.336.574.383 0 .707-.078.973-.234.265-.156.498-.363.697-.621l.662.516c-.531.816-1.328 1.224-2.391 1.224zm-.134-5.683c-.438 0-.805.16-1.102.48-.297.316-.48.762-.551 1.336h3.176v-.082c-.031-.551-.18-.977-.445-1.277-.266-.305-.625-.457-1.078-.457zm3.099-4.184h2.215v11.578h-2.215v-.89h1.131v-9.797h-1.131v-.891zm3.188 0h2.215v11.578h-2.215v-.89h1.131v-9.797h-1.131v-.891zm5.168 7.342h-.979l-.076-6.123h1.137l-.082 6.123zm-1.096 1.863c0-.176.053-.322.158-.439.11-.121.27-.182.481-.182.211 0 .371.061.48.182.11.117.164.263.164.439a.619.619 0 01-.164.44c-.109.113-.269.169-.48.169-.211 0-.371-.056-.481-.169a.637.637 0 01-.158-.44zM42.83 262.311l.164 1.125.24-1.014 1.688-5.953h.95l1.646 5.953.234 1.031.182-1.148 1.324-5.836h1.13L48.32 265h-1.025l-1.758-6.217-.135-.65-.134.65L43.445 265H42.42l-2.063-8.531h1.125l1.348 5.842zm8.168-.54c0-.621.121-1.179.363-1.675a2.763 2.763 0 011.02-1.149 2.795 2.795 0 011.494-.404c.863 0 1.56.299 2.092.896.535.598.803 1.393.803 2.385v.076a3.77 3.77 0 01-.358 1.664c-.234.489-.572.87-1.014 1.143-.437.273-.941.41-1.511.41-.86 0-1.557-.299-2.092-.896-.531-.598-.797-1.389-.797-2.373v-.077zm1.09.129c0 .704.162 1.268.486 1.694.328.426.766.638 1.313.638.55 0 .988-.214 1.312-.644.324-.434.486-1.039.486-1.817 0-.695-.166-1.257-.498-1.687a1.562 1.562 0 00-1.312-.65c-.535 0-.967.212-1.295.638-.328.426-.492 1.035-.492 1.828zm9.955 2.473c-.422.496-1.041.744-1.858.744-.675 0-1.19-.195-1.546-.586-.352-.394-.53-.976-.534-1.746v-4.125h1.085v4.096c0 .961.39 1.441 1.171 1.441.829 0 1.38-.308 1.653-.926v-4.611h1.084V265h-1.032l-.023-.627zm3.885.627h-1.084v-9h1.084v9zm1.476-3.223c0-.972.23-1.754.692-2.343.46-.594 1.064-.891 1.81-.891.742 0 1.33.254 1.764.762V256h1.084v9h-.996l-.053-.68c-.433.532-1.037.797-1.81.797-.735 0-1.334-.301-1.8-.902-.46-.602-.69-1.387-.69-2.356v-.082zm1.084.123c0 .719.149 1.282.446 1.688.297.406.707.609 1.23.609.688 0 1.19-.308 1.506-.926v-2.912c-.324-.597-.822-.896-1.494-.896-.532 0-.945.205-1.242.615-.297.41-.446 1.018-.446 1.822zm11.004 1.512l1.477-4.752h1.16l-2.549 7.319c-.394 1.054-1.021 1.582-1.88 1.582l-.206-.018-.404-.076v-.879l.293.023c.367 0 .652-.074.855-.222.207-.149.377-.42.51-.815l.24-.644-2.261-6.27h1.183l1.582 4.752zm3.229-1.641c0-.621.12-1.179.363-1.675a2.763 2.763 0 011.02-1.149 2.795 2.795 0 011.494-.404c.863 0 1.56.299 2.091.896.536.598.803 1.393.803 2.385v.076c0 .618-.119 1.172-.357 1.664-.235.489-.573.87-1.014 1.143-.437.273-.941.41-1.512.41-.859 0-1.556-.299-2.091-.896-.532-.598-.797-1.389-.797-2.373v-.077zm1.09.129c0 .704.162 1.268.486 1.694.328.426.766.638 1.312.638.551 0 .989-.214 1.313-.644.324-.434.486-1.039.486-1.817 0-.695-.166-1.257-.498-1.687a1.563 1.563 0 00-1.312-.65c-.535 0-.967.212-1.295.638-.328.426-.492 1.035-.492 1.828zm9.955 2.473c-.422.496-1.041.744-1.858.744-.676 0-1.191-.195-1.547-.586-.351-.394-.529-.976-.533-1.746v-4.125h1.084v4.096c0 .961.39 1.441 1.172 1.441.828 0 1.379-.308 1.652-.926v-4.611h1.084V265h-1.03l-.024-.627zm6.703-5.713l.029.703c.465-.547 1.092-.82 1.881-.82.887 0 1.49.34 1.81 1.019.211-.304.485-.55.821-.738.34-.187.74-.281 1.201-.281 1.391 0 2.098.736 2.121 2.209V265h-1.084v-4.184c0-.453-.103-.791-.31-1.013-.208-.227-.555-.34-1.043-.34-.403 0-.737.121-1.002.363-.266.238-.42.561-.463.967V265h-1.09v-4.154c0-.922-.451-1.383-1.354-1.383-.711 0-1.197.303-1.459.908V265h-1.084v-6.34h1.026zM111.15 265h-1.084v-6.34h1.084V265zm-1.171-8.021c0-.176.052-.325.158-.446.109-.121.269-.181.48-.181.211 0 .371.06.481.181.109.121.164.27.164.446a.62.62 0 01-.164.439c-.11.117-.27.176-.481.176-.211 0-.371-.059-.48-.176a.63.63 0 01-.158-.439zm3.937 1.681l.035.797c.485-.609 1.117-.914 1.899-.914 1.339 0 2.015.756 2.027 2.268V265h-1.084v-4.195c-.004-.457-.109-.795-.316-1.014-.204-.219-.522-.328-.956-.328-.351 0-.66.094-.925.281a1.91 1.91 0 00-.621.738V265h-1.084v-6.34h1.025zm5.332 3.117c0-.972.231-1.754.691-2.343.461-.594 1.065-.891 1.811-.891.742 0 1.33.254 1.764.762V256h1.084v9h-.996l-.053-.68c-.434.532-1.037.797-1.811.797-.734 0-1.334-.301-1.799-.902-.46-.602-.691-1.387-.691-2.356v-.082zm1.084.123c0 .719.148 1.282.445 1.688.297.406.707.609 1.231.609.687 0 1.189-.308 1.506-.926v-2.912c-.325-.597-.823-.896-1.494-.896-.532 0-.946.205-1.243.615-.297.41-.445 1.018-.445 1.822zm12.621 1.418c0-.293-.111-.519-.334-.679-.219-.164-.603-.305-1.154-.422-.547-.117-.983-.258-1.307-.422-.32-.164-.558-.359-.715-.586a1.418 1.418 0 01-.228-.809c0-.519.219-.959.656-1.318.441-.359 1.004-.539 1.688-.539.718 0 1.3.186 1.746.557.449.371.674.845.674 1.423h-1.09c0-.296-.127-.552-.381-.767-.25-.215-.567-.322-.949-.322-.395 0-.704.086-.926.257a.812.812 0 00-.334.674c0 .262.103.459.31.592.207.133.58.26 1.12.381.542.121.982.266 1.318.433.336.168.584.372.744.61.164.234.246.521.246.861 0 .567-.226 1.022-.68 1.365-.453.34-1.041.51-1.763.51-.508 0-.957-.09-1.348-.269a2.227 2.227 0 01-.92-.75 1.84 1.84 0 01-.328-1.049h1.084c.02.363.164.652.434.867.273.211.632.316 1.078.316.41 0 .738-.082.984-.246.25-.168.375-.39.375-.668zm3.58-3.89c.481-.59 1.106-.885 1.875-.885 1.34 0 2.016.756 2.028 2.268V265h-1.084v-4.195c-.004-.457-.11-.795-.317-1.014-.203-.219-.521-.328-.955-.328-.351 0-.66.094-.926.281a1.928 1.928 0 00-.621.738V265h-1.084v-9h1.084v3.428zm9.44 5.572c-.063-.125-.114-.348-.153-.668-.504.523-1.105.785-1.804.785-.625 0-1.139-.176-1.541-.527a1.728 1.728 0 01-.598-1.348c0-.66.25-1.172.75-1.535.504-.367 1.211-.551 2.121-.551h1.055v-.498c0-.379-.114-.679-.34-.902-.227-.227-.561-.34-1.002-.34-.387 0-.711.098-.973.293-.261.195-.392.432-.392.709h-1.09c0-.316.111-.621.334-.914a2.31 2.31 0 01.914-.703c.387-.172.81-.258 1.271-.258.731 0 1.303.184 1.717.551.414.363.629.865.645 1.506v2.918c0 .582.074 1.044.222 1.388V265h-1.136zm-1.799-.826c.34 0 .662-.088.967-.264.304-.176.525-.404.662-.685v-1.301h-.85c-1.328 0-1.992.388-1.992 1.166 0 .34.113.605.34.797.226.191.517.287.873.287zm7.476-4.541a3.17 3.17 0 00-.533-.041c-.711 0-1.193.303-1.447.908v4.5h-1.084v-6.34h1.055l.017.733c.356-.567.86-.85 1.512-.85.211 0 .371.027.48.082v1.008zm2.18 5.367h-1.084v-6.34h1.084V265zm-1.172-8.021c0-.176.053-.325.158-.446.11-.121.27-.181.481-.181.211 0 .371.06.48.181.11.121.164.27.164.446a.616.616 0 01-.164.439c-.109.117-.269.176-.48.176-.211 0-.371-.059-.481-.176a.634.634 0 01-.158-.439zm3.938 1.681l.035.797c.484-.609 1.117-.914 1.898-.914 1.34 0 2.016.756 2.028 2.268V265h-1.084v-4.195c-.004-.457-.11-.795-.317-1.014-.203-.219-.521-.328-.955-.328-.351 0-.66.094-.926.281a1.928 1.928 0 00-.621.738V265h-1.084v-6.34h1.026zm5.338 3.117c0-.988.228-1.773.685-2.355.457-.586 1.063-.879 1.817-.879.773 0 1.376.273 1.81.82l.053-.703h.99v6.188c0 .82-.244 1.466-.732 1.939-.485.473-1.137.709-1.957.709-.457 0-.905-.098-1.342-.293-.438-.195-.772-.463-1.002-.803l.562-.65c.465.574 1.034.861 1.705.861.528 0 .938-.148 1.231-.445.297-.297.445-.715.445-1.254v-.545c-.433.5-1.025.75-1.775.75-.742 0-1.344-.299-1.805-.896-.457-.598-.685-1.412-.685-2.444zm1.089.123c0 .715.147 1.278.44 1.688.293.406.703.609 1.23.609.684 0 1.186-.31 1.506-.931v-2.895c-.332-.605-.83-.908-1.494-.908-.527 0-.939.205-1.236.615-.297.41-.446 1.018-.446 1.822zm10.957 1.512l1.477-4.752h1.16l-2.549 7.319c-.394 1.054-1.021 1.582-1.88 1.582l-.206-.018-.404-.076v-.879l.293.023c.367 0 .652-.074.856-.222.207-.149.377-.42.509-.815l.241-.644-2.262-6.27h1.183l1.582 4.752zm3.229-1.641c0-.621.121-1.179.363-1.675a2.76 2.76 0 011.02-1.149 2.792 2.792 0 011.494-.404c.863 0 1.56.299 2.092.896.535.598.802 1.393.802 2.385v.076c0 .618-.119 1.172-.357 1.664-.234.489-.572.87-1.014 1.143-.437.273-.941.41-1.511.41-.86 0-1.557-.299-2.092-.896-.531-.598-.797-1.389-.797-2.373v-.077zm1.09.129c0 .704.162 1.268.486 1.694.328.426.766.638 1.313.638.55 0 .988-.214 1.312-.644.324-.434.486-1.039.486-1.817 0-.695-.166-1.257-.498-1.687a1.561 1.561 0 00-1.312-.65c-.535 0-.967.212-1.295.638-.328.426-.492 1.035-.492 1.828zm9.955 2.473c-.422.496-1.041.744-1.858.744-.675 0-1.191-.195-1.546-.586-.352-.394-.53-.976-.534-1.746v-4.125h1.084v4.096c0 .961.391 1.441 1.172 1.441.828 0 1.379-.308 1.653-.926v-4.611h1.084V265h-1.032l-.023-.627zm5.771-4.74a3.17 3.17 0 00-.533-.041c-.711 0-1.193.303-1.447.908v4.5h-1.084v-6.34h1.055l.017.733c.356-.567.86-.85 1.512-.85.211 0 .371.027.48.082v1.008zm6.61 5.484c-.86 0-1.559-.281-2.098-.844-.539-.566-.808-1.322-.808-2.267v-.199c0-.629.119-1.19.357-1.682a2.81 2.81 0 011.008-1.16 2.535 2.535 0 011.406-.422c.824 0 1.465.271 1.922.814.457.543.685 1.321.685 2.332v.452h-4.295c.016.625.198 1.13.545 1.517.352.383.797.574 1.336.574.383 0 .707-.078.973-.234.266-.156.498-.363.697-.621l.662.516c-.531.816-1.328 1.224-2.39 1.224zm-.135-5.683c-.438 0-.805.16-1.102.48-.296.316-.48.762-.55 1.336h3.175v-.082c-.031-.551-.179-.977-.445-1.277-.266-.305-.625-.457-1.078-.457zm5.994 1.541l1.406-2.315h1.266l-2.074 3.135L209.23 265h-1.253l-1.465-2.373-1.465 2.373h-1.26l2.139-3.205-2.074-3.135h1.253l1.389 2.315zm9.182.925c0 .965-.221 1.743-.662 2.332-.442.59-1.039.885-1.793.885-.77 0-1.375-.244-1.817-.732v3.053h-1.084v-8.778h.991l.052.703c.442-.547 1.055-.82 1.84-.82.762 0 1.363.287 1.805.861.445.575.668 1.373.668 2.397v.099zm-1.084-.123c0-.715-.153-1.279-.457-1.693-.305-.414-.723-.621-1.254-.621-.656 0-1.149.291-1.477.873v3.029c.325.578.821.867 1.489.867.519 0 .931-.205 1.236-.615.309-.414.463-1.027.463-1.84zm5.097 3.34c-.859 0-1.558-.281-2.097-.844-.539-.566-.809-1.322-.809-2.267v-.199c0-.629.119-1.19.358-1.682a2.814 2.814 0 011.007-1.16 2.54 2.54 0 011.407-.422c.824 0 1.465.271 1.922.814.457.543.685 1.321.685 2.332v.452h-4.295c.016.625.197 1.13.545 1.517.352.383.797.574 1.336.574.383 0 .707-.078.973-.234.265-.156.498-.363.697-.621l.662.516c-.531.816-1.328 1.224-2.391 1.224zm-.134-5.683c-.438 0-.805.16-1.102.48-.297.316-.48.762-.551 1.336h3.176v-.082c-.031-.551-.18-.977-.445-1.277-.266-.305-.625-.457-1.078-.457zm6.931.199a3.17 3.17 0 00-.533-.041c-.711 0-1.193.303-1.447.908v4.5h-1.084v-6.34h1.055l.017.733c.356-.567.86-.85 1.512-.85.211 0 .371.027.48.082v1.008zm2.18 5.367h-1.084v-6.34h1.084V265zm-1.172-8.021c0-.176.053-.325.158-.446.11-.121.27-.181.481-.181.211 0 .371.06.48.181.11.121.164.27.164.446a.616.616 0 01-.164.439c-.109.117-.269.176-.48.176-.211 0-.371-.059-.481-.176a.634.634 0 01-.158-.439zm5.543 8.138c-.859 0-1.558-.281-2.098-.844-.539-.566-.808-1.322-.808-2.267v-.199c0-.629.119-1.19.357-1.682a2.81 2.81 0 011.008-1.16 2.537 2.537 0 011.406-.422c.825 0 1.465.271 1.922.814.457.543.686 1.321.686 2.332v.452h-4.295c.015.625.197 1.13.545 1.517.351.383.797.574 1.336.574.383 0 .707-.078.972-.234.266-.156.498-.363.698-.621l.662.516c-.532.816-1.328 1.224-2.391 1.224zm-.135-5.683c-.437 0-.804.16-1.101.48-.297.316-.481.762-.551 1.336h3.176v-.082c-.031-.551-.18-.977-.446-1.277-.265-.305-.625-.457-1.078-.457zm4.893-.774l.035.797c.484-.609 1.117-.914 1.899-.914 1.339 0 2.015.756 2.027 2.268V265h-1.084v-4.195c-.004-.457-.11-.795-.317-1.014-.203-.219-.521-.328-.955-.328-.351 0-.66.094-.925.281a1.91 1.91 0 00-.621.738V265h-1.084v-6.34h1.025zm8.139 5.572c.386 0 .724-.117 1.013-.351a1.24 1.24 0 00.481-.879h1.025a1.957 1.957 0 01-.375 1.037c-.23.328-.539.59-.926.785a2.633 2.633 0 01-1.218.293c-.864 0-1.551-.287-2.063-.861-.508-.578-.762-1.367-.762-2.367v-.182c0-.617.114-1.166.34-1.646.227-.481.551-.854.973-1.12.426-.265.928-.398 1.506-.398.711 0 1.301.213 1.769.639.473.425.725.978.756 1.658h-1.025a1.483 1.483 0 00-.469-1.008 1.43 1.43 0 00-1.031-.398c-.551 0-.979.199-1.283.597-.301.395-.452.967-.452 1.717v.205c0 .731.151 1.293.452 1.688.3.394.73.591 1.289.591zm6.369.885c-.86 0-1.559-.281-2.098-.844-.539-.566-.809-1.322-.809-2.267v-.199c0-.629.12-1.19.358-1.682a2.81 2.81 0 011.008-1.16 2.535 2.535 0 011.406-.422c.824 0 1.465.271 1.922.814.457.543.685 1.321.685 2.332v.452h-4.295c.016.625.198 1.13.545 1.517.352.383.797.574 1.336.574.383 0 .707-.078.973-.234.266-.156.498-.363.697-.621l.662.516c-.531.816-1.328 1.224-2.39 1.224zm-.135-5.683c-.438 0-.805.16-1.102.48-.296.316-.48.762-.55 1.336h3.175v-.082c-.031-.551-.179-.977-.445-1.277-.266-.305-.625-.457-1.078-.457zm6.557 2.337c0-.621.121-1.179.363-1.675a2.765 2.765 0 011.019-1.149 2.798 2.798 0 011.495-.404c.863 0 1.56.299 2.091.896.536.598.803 1.393.803 2.385v.076c0 .618-.119 1.172-.357 1.664-.235.489-.573.87-1.014 1.143-.437.273-.941.41-1.512.41-.859 0-1.556-.299-2.092-.896-.531-.598-.796-1.389-.796-2.373v-.077zm1.089.129c0 .704.163 1.268.487 1.694.328.426.765.638 1.312.638.551 0 .989-.214 1.313-.644.324-.434.486-1.039.486-1.817 0-.695-.166-1.257-.498-1.687a1.562 1.562 0 00-1.312-.65c-.536 0-.967.212-1.295.638-.328.426-.493 1.035-.493 1.828zm7.067-3.24l.035.797c.484-.609 1.117-.914 1.898-.914 1.34 0 2.016.756 2.028 2.268V265h-1.084v-4.195c-.004-.457-.11-.795-.317-1.014-.203-.219-.521-.328-.955-.328-.351 0-.66.094-.925.281a1.921 1.921 0 00-.622.738V265h-1.084v-6.34h1.026zm13.453 4.113h-3.574l-.803 2.227h-1.16l3.258-8.531h.984l3.264 8.531h-1.155l-.814-2.227zm-3.234-.925h2.9l-1.453-3.991-1.447 3.991zm7.201-3.188l.029.703c.465-.547 1.092-.82 1.881-.82.887 0 1.49.34 1.81 1.019.211-.304.485-.55.821-.738.34-.187.74-.281 1.201-.281 1.391 0 2.098.736 2.121 2.209V265h-1.084v-4.184c0-.453-.103-.791-.31-1.013-.208-.227-.555-.34-1.043-.34-.403 0-.737.121-1.002.363-.266.238-.42.561-.463.967V265h-1.09v-4.154c0-.922-.451-1.383-1.354-1.383-.711 0-1.197.303-1.459.908V265h-1.084v-6.34h1.026zm13.418 6.34c-.063-.125-.114-.348-.153-.668-.504.523-1.105.785-1.804.785-.625 0-1.139-.176-1.541-.527a1.728 1.728 0 01-.598-1.348c0-.66.25-1.172.75-1.535.504-.367 1.211-.551 2.121-.551h1.055v-.498c0-.379-.113-.679-.34-.902-.227-.227-.561-.34-1.002-.34-.387 0-.711.098-.973.293-.261.195-.392.432-.392.709h-1.09c0-.316.111-.621.334-.914a2.31 2.31 0 01.914-.703 3.095 3.095 0 011.271-.258c.731 0 1.303.184 1.717.551.414.363.629.865.645 1.506v2.918c0 .582.074 1.044.222 1.388V265h-1.136zm-1.799-.826c.34 0 .662-.088.967-.264.304-.176.525-.404.662-.685v-1.301h-.85c-1.328 0-1.992.388-1.992 1.166 0 .34.113.605.34.797.226.191.517.287.873.287zm5.432-.059h3.709V265h-5.034v-.797l3.498-4.646h-3.445v-.897h4.805v.768l-3.533 4.687zm4.552-2.344c0-.621.121-1.179.364-1.675a2.765 2.765 0 011.019-1.149 2.797 2.797 0 011.494-.404c.864 0 1.561.299 2.092.896.535.598.803 1.393.803 2.385v.076c0 .618-.119 1.172-.358 1.664-.234.489-.572.87-1.013 1.143-.438.273-.942.41-1.512.41-.859 0-1.557-.299-2.092-.896-.531-.598-.797-1.389-.797-2.373v-.077zm1.09.129c0 .704.162 1.268.486 1.694.329.426.766.638 1.313.638.551 0 .988-.214 1.312-.644.325-.434.487-1.039.487-1.817 0-.695-.166-1.257-.498-1.687a1.563 1.563 0 00-1.313-.65c-.535 0-.967.212-1.295.638-.328.426-.492 1.035-.492 1.828zm7.067-3.24l.035.797c.484-.609 1.117-.914 1.898-.914 1.34 0 2.016.756 2.027 2.268V265h-1.083v-4.195c-.004-.457-.11-.795-.317-1.014-.203-.219-.521-.328-.955-.328-.352 0-.66.094-.926.281a1.928 1.928 0 00-.621.738V265h-1.084v-6.34h1.026zm6.867 3.938c.008-.465.06-.832.158-1.102.098-.269.297-.568.598-.896l.767-.791c.328-.371.492-.77.492-1.196 0-.41-.107-.73-.322-.961-.215-.234-.527-.351-.937-.351-.399 0-.719.105-.961.316-.243.211-.364.494-.364.85h-1.084c.008-.633.233-1.143.674-1.529.446-.391 1.024-.586 1.735-.586.738 0 1.312.199 1.722.597.414.395.621.938.621 1.629 0 .684-.316 1.358-.949 2.022l-.639.632c-.285.317-.427.772-.427 1.366h-1.084zm-.047 1.857c0-.176.053-.322.158-.439.109-.121.27-.182.481-.182.21 0 .371.061.48.182a.619.619 0 01.164.439.623.623 0 01-.164.44c-.109.113-.27.169-.48.169-.211 0-.372-.056-.481-.169a.637.637 0 01-.158-.44zm10.195-3.703l2.227-4.283h1.277l-2.941 5.349V265h-1.125v-3.182l-2.942-5.349h1.289l2.215 4.283zm3.762 1.019c0-.621.121-1.179.363-1.675a2.76 2.76 0 011.02-1.149 2.792 2.792 0 011.494-.404c.863 0 1.56.299 2.092.896.535.598.802 1.393.802 2.385v.076c0 .618-.119 1.172-.357 1.664-.234.489-.572.87-1.014 1.143-.437.273-.941.41-1.511.41-.86 0-1.557-.299-2.092-.896-.531-.598-.797-1.389-.797-2.373v-.077zm1.09.129c0 .704.162 1.268.486 1.694.328.426.766.638 1.313.638.55 0 .988-.214 1.312-.644.324-.434.486-1.039.486-1.817 0-.695-.166-1.257-.498-1.687a1.561 1.561 0 00-1.312-.65c-.535 0-.967.212-1.295.638-.328.426-.492 1.035-.492 1.828zm9.955 2.473c-.422.496-1.041.744-1.858.744-.675 0-1.191-.195-1.546-.586-.352-.394-.53-.976-.534-1.746v-4.125h1.084v4.096c0 .961.391 1.441 1.172 1.441.828 0 1.379-.308 1.653-.926v-4.611h1.084V265h-1.032l-.023-.627zm5.771-4.74a3.178 3.178 0 00-.533-.041c-.711 0-1.193.303-1.447.908v4.5h-1.084v-6.34h1.055l.017.733c.356-.567.859-.85 1.512-.85.211 0 .371.027.48.082v1.008zm7.043 0a3.178 3.178 0 00-.533-.041c-.711 0-1.193.303-1.447.908v4.5h-1.084v-6.34h1.055l.017.733c.356-.567.859-.85 1.512-.85.211 0 .371.027.48.082v1.008zm3.516 5.484c-.859 0-1.559-.281-2.098-.844-.539-.566-.808-1.322-.808-2.267v-.199c0-.629.119-1.19.357-1.682a2.81 2.81 0 011.008-1.16 2.535 2.535 0 011.406-.422c.824 0 1.465.271 1.922.814.457.543.686 1.321.686 2.332v.452h-4.295c.015.625.197 1.13.545 1.517.351.383.796.574 1.335.574.383 0 .708-.078.973-.234.266-.156.498-.363.697-.621l.663.516c-.532.816-1.329 1.224-2.391 1.224zm-.135-5.683c-.437 0-.805.16-1.101.48-.297.316-.481.762-.551 1.336h3.176v-.082c-.032-.551-.18-.977-.446-1.277-.265-.305-.625-.457-1.078-.457zm5.877 4.095l1.57-4.869h1.108l-2.274 6.34h-.826l-2.297-6.34h1.108l1.611 4.869zm4.899 1.471h-1.084v-6.34h1.084V265zm-1.172-8.021c0-.176.052-.325.158-.446.109-.121.269-.181.48-.181.211 0 .371.06.481.181.109.121.164.27.164.446a.62.62 0 01-.164.439c-.11.117-.27.176-.481.176-.211 0-.371-.059-.48-.176a.63.63 0 01-.158-.439zm5.543 8.138c-.86 0-1.559-.281-2.098-.844-.539-.566-.809-1.322-.809-2.267v-.199c0-.629.12-1.19.358-1.682a2.81 2.81 0 011.008-1.16 2.535 2.535 0 011.406-.422c.824 0 1.465.271 1.922.814.457.543.685 1.321.685 2.332v.452h-4.295c.016.625.198 1.13.545 1.517.352.383.797.574 1.336.574.383 0 .707-.078.973-.234.265-.156.498-.363.697-.621l.662.516c-.531.816-1.328 1.224-2.39 1.224zm-.135-5.683c-.438 0-.805.16-1.102.48-.297.316-.48.762-.55 1.336h3.175v-.082c-.031-.551-.179-.977-.445-1.277-.266-.305-.625-.457-1.078-.457zm9.48 4.072l1.219-4.846h1.084l-1.846 6.34h-.879l-1.541-4.805-1.5 4.805h-.878l-1.84-6.34h1.078l1.248 4.746 1.476-4.746h.873l1.506 4.846zm8.93.726c.387 0 .725-.117 1.014-.351.289-.235.449-.527.48-.879h1.026c-.02.363-.145.709-.375 1.037-.231.328-.54.59-.926.785a2.637 2.637 0 01-1.219.293c-.863 0-1.551-.287-2.062-.861-.508-.578-.762-1.367-.762-2.367v-.182c0-.617.113-1.166.34-1.646a2.59 2.59 0 01.972-1.12c.426-.265.928-.398 1.506-.398.711 0 1.301.213 1.77.639.472.425.724.978.756 1.658h-1.026a1.475 1.475 0 00-.469-1.008 1.43 1.43 0 00-1.031-.398c-.551 0-.978.199-1.283.597-.301.395-.451.967-.451 1.717v.205c0 .731.15 1.293.451 1.688.301.394.73.591 1.289.591zm3.451-2.461c0-.621.121-1.179.363-1.675a2.768 2.768 0 011.02-1.149 2.795 2.795 0 011.494-.404c.863 0 1.561.299 2.092.896.535.598.803 1.393.803 2.385v.076c0 .618-.119 1.172-.358 1.664-.234.489-.572.87-1.013 1.143-.438.273-.942.41-1.512.41-.86 0-1.557-.299-2.092-.896-.531-.598-.797-1.389-.797-2.373v-.077zm1.09.129c0 .704.162 1.268.486 1.694.328.426.766.638 1.313.638.551 0 .988-.214 1.312-.644.325-.434.487-1.039.487-1.817 0-.695-.166-1.257-.498-1.687a1.564 1.564 0 00-1.313-.65c-.535 0-.967.212-1.295.638-.328.426-.492 1.035-.492 1.828zm9.955 2.473c-.422.496-1.041.744-1.857.744-.676 0-1.192-.195-1.547-.586-.352-.394-.53-.976-.533-1.746v-4.125h1.084v4.096c0 .961.39 1.441 1.171 1.441.829 0 1.379-.308 1.653-.926v-4.611h1.084V265h-1.031l-.024-.627zm3.885.627h-1.084v-9h1.084v9zm1.476-3.223c0-.972.231-1.754.692-2.343.461-.594 1.064-.891 1.81-.891.743 0 1.33.254 1.764.762V256h1.084v9h-.996l-.053-.68c-.433.532-1.037.797-1.81.797-.735 0-1.334-.301-1.799-.902-.461-.602-.692-1.387-.692-2.356v-.082zm1.084.123c0 .719.149 1.282.446 1.688.297.406.707.609 1.23.609.688 0 1.19-.308 1.506-.926v-2.912c-.324-.597-.822-.896-1.494-.896-.531 0-.945.205-1.242.615-.297.41-.446 1.018-.446 1.822zm10.014-2.472c.481-.59 1.106-.885 1.875-.885 1.34 0 2.016.756 2.027 2.268V265h-1.084v-4.195c-.003-.457-.109-.795-.316-1.014-.203-.219-.521-.328-.955-.328-.352 0-.66.094-.926.281a1.928 1.928 0 00-.621.738V265h-1.084v-9h1.084v3.428zm8.156 5.689c-.859 0-1.558-.281-2.097-.844-.539-.566-.809-1.322-.809-2.267v-.199c0-.629.119-1.19.357-1.682a2.824 2.824 0 011.008-1.16 2.54 2.54 0 011.407-.422c.824 0 1.464.271 1.921.814.457.543.686 1.321.686 2.332v.452h-4.295c.016.625.197 1.13.545 1.517.352.383.797.574 1.336.574.383 0 .707-.078.973-.234.265-.156.498-.363.697-.621l.662.516c-.531.816-1.328 1.224-2.391 1.224zm-.134-5.683c-.438 0-.805.16-1.102.48-.297.316-.48.762-.551 1.336H436v-.082c-.031-.551-.18-.977-.445-1.277-.266-.305-.625-.457-1.078-.457zm5.044 5.566h-1.083v-9h1.083v9zm7.096-3.1c0 .965-.221 1.743-.662 2.332-.441.59-1.039.885-1.793.885-.769 0-1.375-.244-1.816-.732v3.053h-1.084v-8.778h.99l.053.703c.441-.547 1.054-.82 1.84-.82.761 0 1.363.287 1.804.861.446.575.668 1.373.668 2.397v.099zm-1.084-.123c0-.715-.152-1.279-.457-1.693-.305-.414-.722-.621-1.254-.621-.656 0-1.148.291-1.476.873v3.029c.324.578.82.867 1.488.867.52 0 .932-.205 1.236-.615.309-.414.463-1.027.463-1.84zm-405 25.994c0-.621.121-1.179.364-1.675a2.763 2.763 0 011.019-1.149 2.795 2.795 0 011.494-.404c.863 0 1.56.299 2.092.896.535.598.803 1.393.803 2.385v.076a3.77 3.77 0 01-.358 1.664c-.234.489-.572.87-1.013 1.143-.438.273-.942.41-1.512.41-.86 0-1.557-.299-2.092-.896-.531-.598-.797-1.389-.797-2.373v-.077zm1.09.129c0 .704.162 1.268.486 1.694.328.426.766.638 1.313.638.55 0 .988-.214 1.312-.644.325-.434.487-1.039.487-1.817 0-.695-.166-1.257-.498-1.687a1.563 1.563 0 00-1.313-.65c-.535 0-.967.212-1.295.638-.328.426-.492 1.035-.492 1.828zm7.512-4.775v1.535h1.183v.838h-1.183v3.932c0 .254.053.445.158.574.105.125.285.187.539.187.125 0 .297-.023.516-.07V291a3.148 3.148 0 01-.832.117c-.485 0-.85-.146-1.096-.439-.246-.293-.37-.709-.37-1.248v-3.932h-1.153v-.838h1.154v-1.535h1.084zm3.539 2.303c.48-.59 1.105-.885 1.875-.885 1.34 0 2.016.756 2.027 2.268V291h-1.084v-4.195c-.004-.457-.11-.795-.316-1.014-.203-.219-.522-.328-.955-.328-.352 0-.66.094-.926.281a1.918 1.918 0 00-.621.738V291H51.59v-9h1.084v3.428zm8.156 5.689c-.86 0-1.558-.281-2.098-.844-.539-.566-.808-1.322-.808-2.267v-.199c0-.629.119-1.19.357-1.682a2.813 2.813 0 011.008-1.16 2.537 2.537 0 011.406-.422c.825 0 1.465.271 1.922.814.457.543.686 1.321.686 2.332v.452h-4.295c.015.625.197 1.13.545 1.517.351.383.797.574 1.336.574.383 0 .707-.078.972-.234.266-.156.498-.363.698-.621l.662.516c-.531.816-1.328 1.224-2.39 1.224zm-.135-5.683c-.437 0-.804.16-1.101.48-.297.316-.48.762-.551 1.336h3.176v-.082c-.032-.551-.18-.977-.446-1.277-.265-.305-.625-.457-1.078-.457zm6.932.199a3.178 3.178 0 00-.533-.041c-.711 0-1.194.303-1.447.908v4.5h-1.085v-6.34h1.055l.018.733c.355-.567.86-.85 1.511-.85.211 0 .372.027.481.082v1.008zm7.67 3.685c0-.293-.111-.519-.334-.679-.219-.164-.604-.305-1.154-.422-.547-.117-.983-.258-1.307-.422-.32-.164-.559-.359-.715-.586a1.416 1.416 0 01-.228-.809c0-.519.218-.959.656-1.318.441-.359 1.004-.539 1.687-.539.72 0 1.301.186 1.746.557.45.371.674.845.674 1.423h-1.09c0-.296-.126-.552-.38-.767-.25-.215-.567-.322-.95-.322-.394 0-.703.086-.925.257a.812.812 0 00-.334.674c0 .262.103.459.31.592.207.133.58.26 1.12.381.542.121.982.266 1.318.433.336.168.584.372.744.61.164.234.246.521.246.861 0 .567-.227 1.022-.68 1.365-.453.34-1.04.51-1.763.51-.508 0-.957-.09-1.348-.269-.39-.18-.697-.43-.92-.75a1.842 1.842 0 01-.328-1.049h1.084c.02.363.164.652.433.867.274.211.633.316 1.079.316.41 0 .738-.082.984-.246.25-.168.375-.39.375-.668zm3.58-3.89c.48-.59 1.105-.885 1.875-.885 1.34 0 2.016.756 2.027 2.268V291h-1.084v-4.195c-.004-.457-.11-.795-.316-1.014-.203-.219-.522-.328-.955-.328-.352 0-.66.094-.926.281a1.917 1.917 0 00-.621.738V291h-1.084v-9h1.084v3.428zm5.238 2.343c0-.621.121-1.179.364-1.675a2.764 2.764 0 011.019-1.149 2.795 2.795 0 011.494-.404c.864 0 1.56.299 2.092.896.535.598.803 1.393.803 2.385v.076a3.77 3.77 0 01-.358 1.664c-.234.489-.572.87-1.013 1.143-.438.273-.942.41-1.512.41-.86 0-1.557-.299-2.092-.896-.531-.598-.797-1.389-.797-2.373v-.077zm1.09.129c0 .704.162 1.268.486 1.694.328.426.766.638 1.313.638.55 0 .988-.214 1.312-.644.325-.434.487-1.039.487-1.817 0-.695-.166-1.257-.498-1.687a1.562 1.562 0 00-1.313-.65c-.535 0-.967.212-1.295.638-.328.426-.492 1.035-.492 1.828zm11.397 0c0 .965-.221 1.743-.663 2.332-.441.59-1.039.885-1.792.885-.77 0-1.376-.244-1.817-.732v3.053h-1.084v-8.778h.99l.053.703c.442-.547 1.055-.82 1.84-.82.762 0 1.363.287 1.805.861.445.575.668 1.373.668 2.397v.099zm-1.084-.123c0-.715-.153-1.279-.457-1.693-.305-.414-.723-.621-1.254-.621-.657 0-1.149.291-1.477.873v3.029c.324.578.82.867 1.488.867.52 0 .932-.205 1.237-.615.308-.414.463-1.027.463-1.84zm7.822.123c0 .965-.221 1.743-.662 2.332-.442.59-1.039.885-1.793.885-.77 0-1.375-.244-1.817-.732v3.053h-1.084v-8.778h.99l.053.703c.442-.547 1.055-.82 1.84-.82.762 0 1.363.287 1.805.861.445.575.668 1.373.668 2.397v.099zm-1.084-.123c0-.715-.152-1.279-.457-1.693-.305-.414-.723-.621-1.254-.621-.656 0-1.148.291-1.477.873v3.029c.325.578.82.867 1.489.867.519 0 .931-.205 1.236-.615.309-.414.463-1.027.463-1.84zm5.098 3.34c-.86 0-1.559-.281-2.098-.844-.539-.566-.809-1.322-.809-2.267v-.199c0-.629.119-1.19.358-1.682a2.814 2.814 0 011.007-1.16 2.54 2.54 0 011.407-.422c.824 0 1.465.271 1.922.814.457.543.685 1.321.685 2.332v.452h-4.295c.016.625.198 1.13.545 1.517.352.383.797.574 1.336.574.383 0 .707-.078.973-.234.265-.156.498-.363.697-.621l.662.516c-.531.816-1.328 1.224-2.39 1.224zm-.135-5.683c-.438 0-.805.16-1.102.48-.297.316-.48.762-.551 1.336h3.176v-.082c-.031-.551-.18-.977-.445-1.277-.266-.305-.625-.457-1.078-.457zm6.931.199a3.17 3.17 0 00-.533-.041c-.711 0-1.193.303-1.447.908v4.5h-1.084v-6.34h1.055l.017.733c.356-.567.86-.85 1.512-.85.211 0 .371.027.48.082v1.008zm4.694 3.685a.788.788 0 00-.334-.679c-.219-.164-.604-.305-1.155-.422-.546-.117-.982-.258-1.306-.422-.32-.164-.559-.359-.715-.586a1.419 1.419 0 01-.229-.809c0-.519.219-.959.657-1.318.441-.359 1.004-.539 1.687-.539.719 0 1.301.186 1.746.557.45.371.674.845.674 1.423h-1.09c0-.296-.127-.552-.381-.767-.25-.215-.566-.322-.949-.322-.394 0-.703.086-.926.257a.814.814 0 00-.334.674c0 .262.104.459.311.592.207.133.58.26 1.119.381.543.121.983.266 1.319.433.335.168.583.372.744.61.164.234.246.521.246.861 0 .567-.227 1.022-.68 1.365-.453.34-1.041.51-1.764.51-.507 0-.957-.09-1.347-.269a2.22 2.22 0 01-.92-.75 1.84 1.84 0 01-.328-1.049h1.084c.019.363.164.652.433.867.274.211.633.316 1.078.316.411 0 .739-.082.985-.246.25-.168.375-.39.375-.668zm6.943-6.193v1.535h1.184v.838h-1.184v3.932c0 .254.053.445.158.574.106.125.285.187.539.187.125 0 .297-.023.516-.07V291a3.144 3.144 0 01-.832.117c-.484 0-.85-.146-1.096-.439-.246-.293-.369-.709-.369-1.248v-3.932h-1.154v-.838h1.154v-1.535h1.084zm2.051 4.646c0-.621.121-1.179.363-1.675a2.76 2.76 0 011.02-1.149 2.792 2.792 0 011.494-.404c.863 0 1.56.299 2.092.896.535.598.802 1.393.802 2.385v.076c0 .618-.119 1.172-.357 1.664-.234.489-.572.87-1.014 1.143-.437.273-.941.41-1.511.41-.86 0-1.557-.299-2.092-.896-.531-.598-.797-1.389-.797-2.373v-.077zm1.09.129c0 .704.162 1.268.486 1.694.328.426.766.638 1.313.638.55 0 .988-.214 1.312-.644.324-.434.486-1.039.486-1.817 0-.695-.166-1.257-.498-1.687a1.561 1.561 0 00-1.312-.65c-.535 0-.967.212-1.295.638-.328.426-.492 1.035-.492 1.828zm11.56 2.332c.387 0 .725-.117 1.014-.351.289-.235.449-.527.48-.879h1.026c-.02.363-.145.709-.375 1.037-.231.328-.539.59-.926.785a2.637 2.637 0 01-1.219.293c-.863 0-1.55-.287-2.062-.861-.508-.578-.762-1.367-.762-2.367v-.182c0-.617.113-1.166.34-1.646.226-.481.551-.854.973-1.12.425-.265.927-.398 1.505-.398.711 0 1.301.213 1.77.639.473.425.725.978.756 1.658h-1.026a1.478 1.478 0 00-.468-1.008 1.433 1.433 0 00-1.032-.398c-.55 0-.978.199-1.283.597-.301.395-.451.967-.451 1.717v.205c0 .731.15 1.293.451 1.688.301.394.731.591 1.289.591zm4.823-4.804c.48-.59 1.105-.885 1.875-.885 1.339 0 2.015.756 2.027 2.268V291h-1.084v-4.195c-.004-.457-.109-.795-.317-1.014-.203-.219-.521-.328-.955-.328-.351 0-.66.094-.925.281a1.91 1.91 0 00-.621.738V291h-1.084v-9h1.084v3.428zm5.238 2.343c0-.621.121-1.179.363-1.675a2.76 2.76 0 011.02-1.149 2.792 2.792 0 011.494-.404c.863 0 1.56.299 2.092.896.535.598.802 1.393.802 2.385v.076c0 .618-.119 1.172-.357 1.664-.234.489-.572.87-1.014 1.143-.437.273-.941.41-1.511.41-.86 0-1.557-.299-2.092-.896-.532-.598-.797-1.389-.797-2.373v-.077zm1.09.129c0 .704.162 1.268.486 1.694.328.426.766.638 1.313.638.55 0 .988-.214 1.312-.644.324-.434.486-1.039.486-1.817 0-.695-.166-1.257-.498-1.687a1.561 1.561 0 00-1.312-.65c-.535 0-.967.212-1.295.638-.328.426-.492 1.035-.492 1.828zm5.754-.129c0-.621.121-1.179.363-1.675a2.765 2.765 0 011.019-1.149 2.798 2.798 0 011.495-.404c.863 0 1.56.299 2.091.896.535.598.803 1.393.803 2.385v.076c0 .618-.119 1.172-.357 1.664-.235.489-.573.87-1.014 1.143-.438.273-.941.41-1.512.41-.859 0-1.556-.299-2.092-.896-.531-.598-.796-1.389-.796-2.373v-.077zm1.089.129c0 .704.163 1.268.487 1.694.328.426.765.638 1.312.638.551 0 .989-.214 1.313-.644.324-.434.486-1.039.486-1.817 0-.695-.166-1.257-.498-1.687a1.562 1.562 0 00-1.312-.65c-.536 0-.967.212-1.295.638-.329.426-.493 1.035-.493 1.828zm9.733 1.418c0-.293-.111-.519-.334-.679-.219-.164-.604-.305-1.154-.422-.547-.117-.983-.258-1.307-.422-.32-.164-.559-.359-.715-.586a1.418 1.418 0 01-.228-.809c0-.519.218-.959.656-1.318.441-.359 1.004-.539 1.687-.539.719 0 1.301.186 1.746.557.45.371.674.845.674 1.423h-1.09c0-.296-.127-.552-.38-.767-.25-.215-.567-.322-.95-.322-.394 0-.703.086-.925.257a.812.812 0 00-.334.674c0 .262.103.459.31.592.207.133.58.26 1.119.381.543.121.983.266 1.319.433.336.168.584.372.744.61.164.234.246.521.246.861 0 .567-.227 1.022-.68 1.365-.453.34-1.041.51-1.764.51-.507 0-.957-.09-1.347-.269a2.227 2.227 0 01-.92-.75 1.84 1.84 0 01-.328-1.049h1.084c.019.363.164.652.433.867.274.211.633.316 1.078.316.411 0 .739-.082.985-.246.25-.168.375-.39.375-.668zm5.127 1.799c-.86 0-1.559-.281-2.098-.844-.539-.566-.808-1.322-.808-2.267v-.199c0-.629.119-1.19.357-1.682a2.81 2.81 0 011.008-1.16 2.535 2.535 0 011.406-.422c.824 0 1.465.271 1.922.814.457.543.685 1.321.685 2.332v.452h-4.294c.015.625.197 1.13.544 1.517.352.383.797.574 1.336.574.383 0 .707-.078.973-.234.266-.156.498-.363.697-.621l.662.516c-.531.816-1.328 1.224-2.39 1.224zm-.135-5.683c-.437 0-.805.16-1.102.48-.296.316-.48.762-.55 1.336h3.175v-.082c-.031-.551-.179-.977-.445-1.277-.265-.305-.625-.457-1.078-.457zM183.965 291c-.063-.125-.113-.348-.153-.668-.503.523-1.105.785-1.804.785-.625 0-1.139-.176-1.541-.527a1.728 1.728 0 01-.598-1.348c0-.66.25-1.172.75-1.535.504-.367 1.211-.551 2.121-.551h1.055v-.498c0-.379-.113-.679-.34-.902-.226-.227-.56-.34-1.002-.34-.387 0-.711.098-.973.293-.261.195-.392.432-.392.709h-1.09c0-.316.111-.621.334-.914.227-.297.531-.531.914-.703a3.097 3.097 0 011.272-.258c.73 0 1.302.184 1.716.551.414.363.629.865.645 1.506v2.918c0 .582.074 1.044.223 1.388V291h-1.137zm-1.799-.826c.34 0 .662-.088.967-.264.305-.176.525-.404.662-.685v-1.301h-.85c-1.328 0-1.992.388-1.992 1.166 0 .34.113.605.34.797.227.191.518.287.873.287zm5.438-5.514l.035.797c.484-.609 1.117-.914 1.898-.914 1.34 0 2.016.756 2.027 2.268V291h-1.084v-4.195c-.003-.457-.109-.795-.316-1.014-.203-.219-.521-.328-.955-.328-.352 0-.66.094-.926.281a1.928 1.928 0 00-.621.738V291h-1.084v-6.34h1.026zm5.332 3.117c0-.972.23-1.754.691-2.343.461-.594 1.064-.891 1.811-.891.742 0 1.33.254 1.763.762V282h1.084v9h-.996l-.053-.68c-.433.532-1.037.797-1.81.797-.735 0-1.334-.301-1.799-.902-.461-.602-.691-1.387-.691-2.356v-.082zm1.084.123c0 .719.148 1.282.445 1.688.297.406.707.609 1.23.609.688 0 1.19-.308 1.506-.926v-2.912c-.324-.597-.822-.896-1.494-.896-.531 0-.945.205-1.242.615-.297.41-.445 1.018-.445 1.822zm14.542 1.606l1.219-4.846h1.084L209.02 291h-.879l-1.541-4.805-1.5 4.805h-.879l-1.84-6.34h1.078l1.248 4.746 1.477-4.746h.873l1.505 4.846zM213.15 291h-1.084v-6.34h1.084V291zm-1.171-8.021c0-.176.052-.325.158-.446.109-.121.269-.181.48-.181.211 0 .371.06.481.181.109.121.164.27.164.446a.62.62 0 01-.164.439c-.11.117-.27.176-.481.176-.211 0-.371-.059-.48-.176a.63.63 0 01-.158-.439zm4.089 8.021h-1.084v-9h1.084v9zm2.918 0h-1.084v-9h1.084v9zm4.453-3.223c0-.972.231-1.754.692-2.343.461-.594 1.064-.891 1.81-.891.743 0 1.33.254 1.764.762V282h1.084v9h-.996l-.053-.68c-.433.532-1.037.797-1.81.797-.735 0-1.334-.301-1.799-.902-.461-.602-.692-1.387-.692-2.356v-.082zm1.084.123c0 .719.149 1.282.446 1.688.297.406.707.609 1.23.609.688 0 1.19-.308 1.506-.926v-2.912c-.324-.597-.822-.896-1.494-.896-.531 0-.945.205-1.242.615-.297.41-.446 1.018-.446 1.822zm8.584 3.217c-.859 0-1.558-.281-2.097-.844-.539-.566-.809-1.322-.809-2.267v-.199c0-.629.119-1.19.358-1.682a2.814 2.814 0 011.007-1.16 2.54 2.54 0 011.407-.422c.824 0 1.465.271 1.922.814.457.543.685 1.321.685 2.332v.452h-4.295c.016.625.197 1.13.545 1.517.352.383.797.574 1.336.574.383 0 .707-.078.973-.234.265-.156.498-.363.697-.621l.662.516c-.531.816-1.328 1.224-2.391 1.224zm-.134-5.683c-.438 0-.805.16-1.102.48-.297.316-.48.762-.551 1.336h3.176v-.082c-.031-.551-.18-.977-.445-1.277-.266-.305-.625-.457-1.078-.457zm4.23 5.566v-5.502h-1.002v-.838h1.002v-.539c0-.707.201-1.258.604-1.652.406-.395.978-.592 1.716-.592.438 0 .991.119 1.659.357l-.182.914a3.76 3.76 0 00-1.395-.293c-.464 0-.8.106-1.007.317-.203.207-.305.519-.305.937v.551h1.295v.838h-1.295V291h-1.09zm4.518 0h-1.09v-6.34h1.09V291zm2.789-6.34l.035.797c.484-.609 1.117-.914 1.898-.914 1.34 0 2.016.756 2.028 2.268V291h-1.084v-4.195c-.004-.457-.11-.795-.317-1.014-.203-.219-.521-.328-.955-.328-.351 0-.66.094-.926.281a1.928 1.928 0 00-.621.738V291h-1.084v-6.34h1.026zm6.773 6.34h-1.084v-6.34h1.084V291zm-1.172-8.021c0-.176.053-.325.159-.446.109-.121.269-.181.48-.181.211 0 .371.06.48.181a.64.64 0 01.165.446.617.617 0 01-.165.439c-.109.117-.269.176-.48.176-.211 0-.371-.059-.48-.176a.63.63 0 01-.159-.439zm4.383.146v1.535h1.184v.838h-1.184v3.932c0 .254.053.445.158.574.106.125.286.187.539.187.125 0 .297-.023.516-.07V291a3.144 3.144 0 01-.832.117c-.484 0-.85-.146-1.096-.439-.246-.293-.369-.709-.369-1.248v-3.932h-1.154v-.838h1.154v-1.535h1.084zm5.086 7.992c-.859 0-1.559-.281-2.098-.844-.539-.566-.808-1.322-.808-2.267v-.199c0-.629.119-1.19.357-1.682a2.81 2.81 0 011.008-1.16 2.537 2.537 0 011.406-.422c.825 0 1.465.271 1.922.814.457.543.686 1.321.686 2.332v.452h-4.295c.015.625.197 1.13.545 1.517.351.383.797.574 1.336.574.382 0 .707-.078.972-.234.266-.156.498-.363.698-.621l.662.516c-.532.816-1.328 1.224-2.391 1.224zm-.135-5.683c-.437 0-.804.16-1.101.48-.297.316-.481.762-.551 1.336h3.176v-.082c-.031-.551-.18-.977-.446-1.277-.265-.305-.625-.457-1.078-.457zM264.49 291h-1.084v-9h1.084v9zm3.815-1.588l1.476-4.752h1.16l-2.548 7.319c-.395 1.054-1.022 1.582-1.881 1.582l-.205-.018-.405-.076v-.879l.293.023c.367 0 .653-.074.856-.222.207-.149.377-.42.51-.815l.24-.644-2.262-6.27h1.184l1.582 4.752zm7.67-3.984c.48-.59 1.105-.885 1.875-.885 1.339 0 2.015.756 2.027 2.268V291h-1.084v-4.195c-.004-.457-.109-.795-.316-1.014-.204-.219-.522-.328-.956-.328-.351 0-.66.094-.925.281a1.91 1.91 0 00-.621.738V291h-1.084v-9h1.084v3.428zm8.156 5.689c-.86 0-1.559-.281-2.098-.844-.539-.566-.808-1.322-.808-2.267v-.199c0-.629.119-1.19.357-1.682a2.81 2.81 0 011.008-1.16 2.535 2.535 0 011.406-.422c.824 0 1.465.271 1.922.814.457.543.686 1.321.686 2.332v.452h-4.295c.015.625.197 1.13.545 1.517.351.383.796.574 1.335.574.383 0 .707-.078.973-.234.266-.156.498-.363.697-.621l.662.516c-.531.816-1.328 1.224-2.39 1.224zm-.135-5.683c-.437 0-.805.16-1.101.48-.297.316-.481.762-.551 1.336h3.176v-.082c-.032-.551-.18-.977-.446-1.277-.265-.305-.625-.457-1.078-.457zm5.045 5.566h-1.084v-9h1.084v9zm7.096-3.1c0 .965-.221 1.743-.662 2.332-.442.59-1.039.885-1.793.885-.77 0-1.375-.244-1.817-.732v3.053h-1.084v-8.778h.99l.053.703c.442-.547 1.055-.82 1.84-.82.762 0 1.363.287 1.805.861.445.575.668 1.373.668 2.397v.099zm-1.084-.123c0-.715-.153-1.279-.457-1.693-.305-.414-.723-.621-1.254-.621-.656 0-1.149.291-1.477.873v3.029c.324.578.821.867 1.489.867.519 0 .931-.205 1.236-.615.308-.414.463-1.027.463-1.84zm9.357 2.596c-.422.496-1.041.744-1.857.744-.676 0-1.192-.195-1.547-.586-.352-.394-.529-.976-.533-1.746v-4.125h1.084v4.096c0 .961.39 1.441 1.172 1.441.828 0 1.378-.308 1.652-.926v-4.611h1.084V291h-1.031l-.024-.627zm6.399-1.055a.788.788 0 00-.334-.679c-.219-.164-.604-.305-1.155-.422-.547-.117-.982-.258-1.306-.422-.321-.164-.559-.359-.715-.586a1.411 1.411 0 01-.229-.809c0-.519.219-.959.657-1.318.441-.359 1.003-.539 1.687-.539.719 0 1.301.186 1.746.557.449.371.674.845.674 1.423h-1.09c0-.296-.127-.552-.381-.767-.25-.215-.566-.322-.949-.322-.394 0-.703.086-.926.257a.814.814 0 00-.334.674c0 .262.104.459.311.592.207.133.58.26 1.119.381.543.121.982.266 1.318.433.336.168.584.372.744.61.165.234.247.521.247.861 0 .567-.227 1.022-.68 1.365-.453.34-1.041.51-1.764.51-.508 0-.957-.09-1.347-.269a2.22 2.22 0 01-.92-.75 1.84 1.84 0 01-.328-1.049h1.084c.019.363.164.652.433.867.274.211.633.316 1.078.316.41 0 .739-.082.985-.246.25-.168.375-.39.375-.668zm6.943-6.193v1.535h1.184v.838h-1.184v3.932c0 .254.053.445.158.574.106.125.285.187.539.187.125 0 .297-.023.516-.07V291a3.15 3.15 0 01-.832.117c-.485 0-.85-.146-1.096-.439-.246-.293-.369-.709-.369-1.248v-3.932h-1.154v-.838h1.154v-1.535h1.084zm2.051 4.646c0-.621.121-1.179.363-1.675a2.76 2.76 0 011.02-1.149 2.792 2.792 0 011.494-.404c.863 0 1.56.299 2.091.896.536.598.803 1.393.803 2.385v.076c0 .618-.119 1.172-.357 1.664-.235.489-.572.87-1.014 1.143-.437.273-.941.41-1.512.41-.859 0-1.556-.299-2.091-.896-.532-.598-.797-1.389-.797-2.373v-.077zm1.09.129c0 .704.162 1.268.486 1.694.328.426.766.638 1.312.638.551 0 .989-.214 1.313-.644.324-.434.486-1.039.486-1.817 0-.695-.166-1.257-.498-1.687a1.561 1.561 0 00-1.312-.65c-.535 0-.967.212-1.295.638-.328.426-.492 1.035-.492 1.828zm8.759-.123c0-.988.229-1.773.686-2.355.457-.586 1.062-.879 1.816-.879.774 0 1.377.273 1.811.82l.053-.703h.99v6.188c0 .82-.244 1.466-.733 1.939-.484.473-1.136.709-1.957.709a3.26 3.26 0 01-1.341-.293c-.438-.195-.772-.463-1.002-.803l.562-.65c.465.574 1.033.861 1.705.861.528 0 .938-.148 1.231-.445.297-.297.445-.715.445-1.254v-.545c-.434.5-1.025.75-1.775.75-.743 0-1.344-.299-1.805-.896-.457-.598-.686-1.412-.686-2.444zm1.09.123c0 .715.147 1.278.44 1.688.293.406.703.609 1.23.609.684 0 1.186-.31 1.506-.931v-2.895c-.332-.605-.83-.908-1.494-.908-.528 0-.94.205-1.236.615-.297.41-.446 1.018-.446 1.822zm8.537 3.217c-.859 0-1.558-.281-2.097-.844-.539-.566-.809-1.322-.809-2.267v-.199c0-.629.119-1.19.357-1.682a2.824 2.824 0 011.008-1.16 2.54 2.54 0 011.407-.422c.824 0 1.464.271 1.921.814.457.543.686 1.321.686 2.332v.452h-4.295c.016.625.197 1.13.545 1.517.352.383.797.574 1.336.574.383 0 .707-.078.973-.234.265-.156.498-.363.697-.621l.662.516c-.531.816-1.328 1.224-2.391 1.224zm-.134-5.683c-.438 0-.805.16-1.102.48-.297.316-.481.762-.551 1.336h3.176v-.082c-.031-.551-.18-.977-.445-1.277-.266-.305-.625-.457-1.078-.457zm5.337-2.309v1.535h1.184v.838h-1.184v3.932c0 .254.053.445.159.574.105.125.285.187.539.187.125 0 .297-.023.515-.07V291a3.144 3.144 0 01-.832.117c-.484 0-.849-.146-1.095-.439-.247-.293-.37-.709-.37-1.248v-3.932h-1.154v-.838h1.154v-1.535h1.084zm10.799 4.775c0 .969-.222 1.748-.668 2.338-.445.586-1.043.879-1.793.879-.8 0-1.42-.283-1.857-.849l-.053.732h-.996v-9h1.084v3.357c.438-.543 1.041-.814 1.811-.814.769 0 1.373.291 1.81.873.442.582.662 1.379.662 2.391v.093zm-1.084-.123c0-.738-.142-1.308-.427-1.711-.286-.402-.696-.603-1.231-.603-.715 0-1.228.332-1.541.996v2.742c.332.664.85.996 1.553.996.519 0 .924-.201 1.213-.603.289-.403.433-1.008.433-1.817zm5.086 3.34c-.859 0-1.558-.281-2.097-.844-.54-.566-.809-1.322-.809-2.267v-.199c0-.629.119-1.19.357-1.682a2.816 2.816 0 011.008-1.16 2.54 2.54 0 011.406-.422c.825 0 1.465.271 1.922.814.457.543.686 1.321.686 2.332v.452h-4.295c.016.625.197 1.13.545 1.517.351.383.797.574 1.336.574.383 0 .707-.078.972-.234.266-.156.498-.363.698-.621l.662.516c-.531.816-1.328 1.224-2.391 1.224zm-.135-5.683c-.437 0-.804.16-1.101.48-.297.316-.481.762-.551 1.336h3.176v-.082c-.031-.551-.18-.977-.445-1.277-.266-.305-.625-.457-1.079-.457zm5.338-2.309v1.535h1.184v.838h-1.184v3.932c0 .254.053.445.159.574.105.125.285.187.539.187.125 0 .296-.023.515-.07V291a3.144 3.144 0 01-.832.117c-.484 0-.849-.146-1.096-.439-.246-.293-.369-.709-.369-1.248v-3.932h-1.154v-.838h1.154v-1.535h1.084zm3.926 0v1.535h1.184v.838h-1.184v3.932c0 .254.053.445.158.574.106.125.285.187.539.187.125 0 .297-.023.516-.07V291a3.15 3.15 0 01-.832.117c-.484 0-.85-.146-1.096-.439-.246-.293-.369-.709-.369-1.248v-3.932h-1.154v-.838h1.154v-1.535h1.084zm5.086 7.992c-.859 0-1.559-.281-2.098-.844-.539-.566-.808-1.322-.808-2.267v-.199c0-.629.119-1.19.357-1.682a2.81 2.81 0 011.008-1.16 2.537 2.537 0 011.406-.422c.825 0 1.465.271 1.922.814.457.543.686 1.321.686 2.332v.452h-4.295c.015.625.197 1.13.545 1.517.351.383.797.574 1.336.574.382 0 .707-.078.972-.234.266-.156.498-.363.698-.621l.662.516c-.532.816-1.328 1.224-2.391 1.224zm-.135-5.683c-.437 0-.804.16-1.101.48-.297.316-.481.762-.551 1.336h3.176v-.082c-.032-.551-.18-.977-.446-1.277-.265-.305-.625-.457-1.078-.457zm6.932.199a3.178 3.178 0 00-.533-.041c-.711 0-1.194.303-1.448.908v4.5h-1.084v-6.34h1.055l.018.733c.355-.567.859-.85 1.511-.85.211 0 .372.027.481.082v1.008z" fill="#79808D"/></g><g filter="url(#filter4_dd_4415_41242)"><rect x="420" y="56.375" width="121" height="37" rx="4" fill="#fff"/></g><path opacity=".17" d="M496.955 105.617c-29.521-4.768-48.645-27.874-42.715-51.609 5.93-23.735 34.669-39.11 64.19-34.342 29.522 4.768 48.646 27.874 42.716 51.609-5.93 23.734-34.669 39.11-64.191 34.342z" fill="#fff"/><mask id="a" style="mask-type:alpha" maskUnits="userSpaceOnUse" x="428" y="23" width="103" height="104"><circle cx="479.542" cy="75.25" r="50.879" fill="#C4C4C4" stroke="#000"/></mask><g mask="url(#a)"><rect x="416.727" y="52.015" width="123.702" height="47.124" rx="3.927" fill="#fff"/></g><path fill-rule="evenodd" clip-rule="evenodd" d="M441.514 69.424a.785.785 0 10-1.571 0v5.498h-5.497a.786.786 0 100 1.57h5.497v5.499a.786.786 0 001.571 0v-5.498h5.498a.786.786 0 100-1.571h-5.498v-5.498z" fill="#81A332"/><path d="M470.661 78.332h-4.037l-.845 2.427h-1.883l3.938-10.423h1.625l3.944 10.423h-1.89l-.852-2.427zm-3.529-1.46h3.021l-1.51-4.324-1.511 4.324zm7.782 4.782h-1.368l4.102-11.318h1.368l-4.102 11.318zm5.476-.895V70.336h3.572c1.179 0 2.076.236 2.692.709.616.472.923 1.176.923 2.111 0 .477-.129.907-.386 1.289-.258.382-.635.678-1.131.888.563.152.997.441 1.303.866.31.42.465.926.465 1.517 0 .979-.315 1.73-.945 2.255-.625.525-1.522.788-2.692.788h-3.801zm1.811-4.704v3.258h2.012c.568 0 1.012-.141 1.331-.423.32-.281.48-.672.48-1.174 0-1.083-.554-1.637-1.661-1.66h-2.162zm0-1.331h1.776c.563 0 1.002-.126 1.317-.38.319-.257.479-.62.479-1.087 0-.516-.148-.888-.443-1.117-.292-.23-.747-.344-1.368-.344h-1.761v2.928zm18.19-2.928h-3.25v8.963h-1.796v-8.963h-3.222v-1.46h8.268v1.46zm7.467 4.31h-4.281v3.207h5.004v1.446h-6.815V70.336h6.765v1.46h-4.954v2.878h4.281v1.432zm7.645 1.968c0-.458-.162-.811-.486-1.06-.32-.247-.9-.498-1.74-.75-.84-.254-1.508-.535-2.004-.846-.95-.596-1.425-1.374-1.425-2.333 0-.84.341-1.532 1.024-2.076.687-.544 1.577-.816 2.67-.816.725 0 1.372.133 1.94.4a3.178 3.178 0 011.339 1.146c.324.491.486 1.038.486 1.64h-1.804c0-.545-.171-.97-.515-1.275-.339-.31-.826-.465-1.46-.465-.592 0-1.053.126-1.382.379-.325.253-.487.606-.487 1.06 0 .381.177.701.53.959.353.253.935.5 1.747.744.811.239 1.462.513 1.954.823.491.306.852.66 1.081 1.06.229.396.343.861.343 1.396 0 .869-.334 1.56-1.002 2.076-.663.51-1.565.766-2.706.766a5.155 5.155 0 01-2.083-.415c-.63-.282-1.121-.668-1.475-1.16-.348-.492-.522-1.064-.522-1.718h1.811c0 .592.196 1.05.587 1.374.391.325.952.487 1.682.487.63 0 1.103-.126 1.418-.38.319-.257.479-.596.479-1.016zm10.932-6.278h-3.25v8.963h-1.797v-8.963h-3.222v-1.46h8.269v1.46z" fill="#81A332"/><path opacity=".8" d="M526.5 89.5s-34.926-58.843-85-47c3.141-5.31 12.454-13.722 19.5-17 11.562-5.38 43.39-6.5 61.471 19.975 7.53 11.025 9.691 35.217 4.029 44.026z" fill="#FEFEFE"/><circle cx="480.5" cy="72.875" r="50.5" stroke="#81A332" stroke-opacity=".1" stroke-width="2"/><g clip-path="url(#clip3_4415_41242)"><path d="M435 99.875l-32.5 12.5 8.5 6.5-12 12 5.5 5.5 12-12 5.5 8 13-32.5z" fill="#fff"/><path d="M397.532 130.047l10.746-10.746-7.667-4.429a1.806 1.806 0 01.234-3.241l34.188-13.637a1.806 1.806 0 012.346 2.346l-13.635 34.191a1.803 1.803 0 01-1.547 1.132 1.801 1.801 0 01-1.694-.898l-4.428-7.666-10.746 10.747a1.808 1.808 0 01-2.554 0l-5.243-5.245a1.805 1.805 0 010-2.554zm6.52 3.968l11.133-11.133a1.802 1.802 0 012.84.373l3.743 6.481 10.7-26.83-26.827 10.701 6.481 3.743a1.806 1.806 0 01.373 2.841l-11.133 11.134 2.69 2.69zm39.019-44.267a1.807 1.807 0 012.554 2.554l-4.013 4.013a1.802 1.802 0 01-2.554 0 1.806 1.806 0 010-2.554l4.013-4.013zm-1.36 12.484c0-.997.809-1.805 1.806-1.805h5.675a1.806 1.806 0 110 3.611h-5.675a1.807 1.807 0 01-1.806-1.806zm.732 5.574l4.013 4.013a1.806 1.806 0 01-2.554 2.554l-4.013-4.013a1.806 1.806 0 012.554-2.554zm-9.301-14.144a1.806 1.806 0 01-1.806-1.806V86.18a1.806 1.806 0 113.611 0v5.675c0 .997-.808 1.806-1.805 1.806zm-6.85 2.351c-.463 0-.925-.176-1.277-.529l-4.012-4.013a1.804 1.804 0 112.553-2.553l4.013 4.012a1.806 1.806 0 01-1.277 3.083z" fill="#555A64"/></g></g><defs><filter id="filter0_dd_4415_41242" x="-15" y="33" width="447" height="107" filterUnits="userSpaceOnUse" color-interpolation-filters="sRGB"><feFlood flood-opacity="0" result="BackgroundImageFix"/><feColorMatrix in="SourceAlpha" values="0 0 0 0 0 0 0 0 0 0 0 0 0 0 0 0 0 0 127 0" result="hardAlpha"/><feOffset dy="1.127"/><feGaussianBlur stdDeviation="1.941"/><feColorMatrix values="0 0 0 0 0 0 0 0 0 0 0 0 0 0 0 0 0 0 0.035 0"/><feBlend in2="BackgroundImageFix" result="effect1_dropShadow_4415_41242"/><feColorMatrix in="SourceAlpha" values="0 0 0 0 0 0 0 0 0 0 0 0 0 0 0 0 0 0 127 0" result="hardAlpha"/><feOffset dy="9"/><feGaussianBlur stdDeviation="15.5"/><feColorMatrix values="0 0 0 0 0 0 0 0 0 0 0 0 0 0 0 0 0 0 0.07 0"/><feBlend in2="effect1_dropShadow_4415_41242" result="effect2_dropShadow_4415_41242"/><feBlend in="SourceGraphic" in2="effect2_dropShadow_4415_41242" result="shape"/></filter><filter id="filter1_dd_4415_41242" x="-15" y="94" width="447" height="107" filterUnits="userSpaceOnUse" color-interpolation-filters="sRGB"><feFlood flood-opacity="0" result="BackgroundImageFix"/><feColorMatrix in="SourceAlpha" values="0 0 0 0 0 0 0 0 0 0 0 0 0 0 0 0 0 0 127 0" result="hardAlpha"/><feOffset dy="1.127"/><feGaussianBlur stdDeviation="1.941"/><feColorMatrix values="0 0 0 0 0 0 0 0 0 0 0 0 0 0 0 0 0 0 0.035 0"/><feBlend in2="BackgroundImageFix" result="effect1_dropShadow_4415_41242"/><feColorMatrix in="SourceAlpha" values="0 0 0 0 0 0 0 0 0 0 0 0 0 0 0 0 0 0 127 0" result="hardAlpha"/><feOffset dy="9"/><feGaussianBlur stdDeviation="15.5"/><feColorMatrix values="0 0 0 0 0 0 0 0 0 0 0 0 0 0 0 0 0 0 0.07 0"/><feBlend in2="effect1_dropShadow_4415_41242" result="effect2_dropShadow_4415_41242"/><feBlend in="SourceGraphic" in2="effect2_dropShadow_4415_41242" result="shape"/></filter><filter id="filter2_dd_4415_41242" x="389" y="93" width="108" height="108" filterUnits="userSpaceOnUse" color-interpolation-filters="sRGB"><feFlood flood-opacity="0" result="BackgroundImageFix"/><feColorMatrix in="SourceAlpha" values="0 0 0 0 0 0 0 0 0 0 0 0 0 0 0 0 0 0 127 0" result="hardAlpha"/><feOffset dy="1.127"/><feGaussianBlur stdDeviation="1.941"/><feColorMatrix values="0 0 0 0 0 0 0 0 0 0 0 0 0 0 0 0 0 0 0.035 0"/><feBlend in2="BackgroundImageFix" result="effect1_dropShadow_4415_41242"/><feColorMatrix in="SourceAlpha" values="0 0 0 0 0 0 0 0 0 0 0 0 0 0 0 0 0 0 127 0" result="hardAlpha"/><feOffset dy="9"/><feGaussianBlur stdDeviation="15.5"/><feColorMatrix values="0 0 0 0 0 0 0 0 0 0 0 0 0 0 0 0 0 0 0.07 0"/><feBlend in2="effect1_dropShadow_4415_41242" result="effect2_dropShadow_4415_41242"/><feBlend in="SourceGraphic" in2="effect2_dropShadow_4415_41242" result="shape"/></filter><filter id="filter3_dd_4415_41242" x="-15" y="155" width="588" height="204" filterUnits="userSpaceOnUse" color-interpolation-filters="sRGB"><feFlood flood-opacity="0" result="BackgroundImageFix"/><feColorMatrix in="SourceAlpha" values="0 0 0 0 0 0 0 0 0 0 0 0 0 0 0 0 0 0 127 0" result="hardAlpha"/><feOffset dy="1.127"/><feGaussianBlur stdDeviation="1.941"/><feColorMatrix values="0 0 0 0 0 0 0 0 0 0 0 0 0 0 0 0 0 0 0.035 0"/><feBlend in2="BackgroundImageFix" result="effect1_dropShadow_4415_41242"/><feColorMatrix in="SourceAlpha" values="0 0 0 0 0 0 0 0 0 0 0 0 0 0 0 0 0 0 127 0" result="hardAlpha"/><feOffset dy="9"/><feGaussianBlur stdDeviation="15.5"/><feColorMatrix values="0 0 0 0 0 0 0 0 0 0 0 0 0 0 0 0 0 0 0.07 0"/><feBlend in2="effect1_dropShadow_4415_41242" result="effect2_dropShadow_4415_41242"/><feBlend in="SourceGraphic" in2="effect2_dropShadow_4415_41242" result="shape"/></filter><filter id="filter4_dd_4415_41242" x="389" y="34.375" width="183" height="99" filterUnits="userSpaceOnUse" color-interpolation-filters="sRGB"><feFlood flood-opacity="0" result="BackgroundImageFix"/><feColorMatrix in="SourceAlpha" values="0 0 0 0 0 0 0 0 0 0 0 0 0 0 0 0 0 0 127 0" result="hardAlpha"/><feOffset dy="1.127"/><feGaussianBlur stdDeviation="1.941"/><feColorMatrix values="0 0 0 0 0 0 0 0 0 0 0 0 0 0 0 0 0 0 0.035 0"/><feBlend in2="BackgroundImageFix" result="effect1_dropShadow_4415_41242"/><feColorMatrix in="SourceAlpha" values="0 0 0 0 0 0 0 0 0 0 0 0 0 0 0 0 0 0 127 0" result="hardAlpha"/><feOffset dy="9"/><feGaussianBlur stdDeviation="15.5"/><feColorMatrix values="0 0 0 0 0 0 0 0 0 0 0 0 0 0 0 0 0 0 0.07 0"/><feBlend in2="effect1_dropShadow_4415_41242" result="effect2_dropShadow_4415_41242"/><feBlend in="SourceGraphic" in2="effect2_dropShadow_4415_41242" result="shape"/></filter><clipPath id="clip0_4415_41242"><rect width="563" height="342" rx="4" fill="#fff"/></clipPath><clipPath id="clip1_4415_41242"><rect x="16" y="55" width="385" height="45" rx="6" fill="#fff"/></clipPath><clipPath id="clip2_4415_41242"><rect x="16" y="116" width="385" height="45" rx="6" fill="#fff"/></clipPath><clipPath id="clip3_4415_41242"><path fill="#fff" transform="matrix(-1 0 0 1 451 84.375)" d="M0 0h54v54H0z"/></clipPath><linearGradient id="paint0_linear_4415_41242" x1="651.292" y1="366.816" x2="338.921" y2="-2.952" gradientUnits="userSpaceOnUse"><stop stop-color="#F2FBDD"/><stop offset="1" stop-color="#F2FBDD" stop-opacity="0"/></linearGradient></defs></svg>