<svg width="472" height="313" fill="none" xmlns="http://www.w3.org/2000/svg"><path fill-rule="evenodd" clip-rule="evenodd" d="M51.048 64.26c31.46-27.033 82.211-28.483 126.397-40.012 38.78-10.118 75.643-28.876 115.876-23.2 40.851 5.763 71.73 30.202 100.588 53.74 29.898 24.385 57.783 50.651 67.823 83.622 11.033 36.229 17.536 78.097-9.238 108.756-26.377 30.207-80.165 32.097-124.163 44.008-39.425 10.673-77.152 22.692-118.838 21.777-49.441-1.086-102.414-2.585-140.534-27.474C28.32 258.946 3.725 217.909.365 176.414c-3.289-40.62 15.81-82.186 50.683-112.153z" fill="#E7F4CA"/><g clip-path="url(#clip0_7608_48566)"><path d="M69.893 44.032h92.972a4.764 4.764 0 014.76 4.76v137.863a4.764 4.764 0 01-4.76 4.76H69.893a4.764 4.764 0 01-4.76-4.76V48.792a4.765 4.765 0 014.76-4.76z" fill="#F2F2F2"/><path d="M71.046 47.494h90.664a2.452 2.452 0 012.452 2.452v135.556a2.451 2.451 0 01-2.452 2.452H71.046a2.455 2.455 0 01-2.452-2.452V49.946a2.455 2.455 0 012.452-2.452z" fill="#fff"/><path d="M134.052 98.123c0 8.715-8.058 7.397-17.997 7.397-9.94 0-17.998 1.318-17.998-7.397 0-8.714 3.936-24.161 17.998-24.161 14.546 0 17.997 15.447 17.997 24.161z" fill="#3B3D42"/><path d="M155.224 171.889a5.29 5.29 0 00-1.098-6.362 5.31 5.31 0 00-1.985-1.153l-20.619-43.618-9.432 6.614 23.234 40.796a5.324 5.324 0 009.9 3.723z" fill="#A0616A"/><path d="M137.283 124.588l-1.179-1.844-.601-.947-4.63-7.258a6.597 6.597 0 00-12.171.313 6.596 6.596 0 00.114 5.037l1.061 3.782 2.164 7.732c.132.476.412.897.799 1.203a2.367 2.367 0 002.426.34l.035-.015 5.601-2.504.01-.005 4.275-1.914 1.065-.473c.306-.136.578-.336.799-.587.234-.258.406-.567.503-.902a2.343 2.343 0 00-.271-1.958z" fill="#CCC"/><path d="M107.731 186.433a2.379 2.379 0 00-4.27.414l-.281.774h5.266l-.715-1.188z" fill="#3B3D42"/><path d="M115.941 105.021c6.689 0 12.111-5.423 12.111-12.111 0-6.689-5.422-12.111-12.111-12.111-6.689 0-12.111 5.422-12.111 12.11 0 6.69 5.422 12.112 12.111 12.112z" fill="#A0616A"/><path d="M137.17 128.731c-.03-.434-.07-.863-.119-1.282a26.931 26.931 0 00-.947-4.704 14.96 14.96 0 00-.31-.981 26.29 26.29 0 00-7.278-11.065 7.188 7.188 0 00-4.798-1.835h-17.061a7.182 7.182 0 00-5.499 2.559 7.188 7.188 0 00-1.587 5.853c-.005.005-.005.005 0 .01.12.69.342 1.357.656 1.983l.69 1.375 4.626 9.251 5.754 11.508.335.671 21.445 5.897.089-.202c.079-.177.162-.36.236-.537.119-.266.232-.533.346-.794a42.042 42.042 0 003.431-13.713v-.005a31.603 31.603 0 00-.009-3.989z" fill="#941759"/><path d="M133.748 146.438a2.308 2.308 0 00-.34-.7 9.202 9.202 0 00-1.958-1.933l-.005-.005c-2.598-1.972-7.756-4.27-17.721-4.329h-.015a2.381 2.381 0 00-2.165 1.395l-.247.538-1.587 3.491a1.849 1.849 0 01-.616.744c-2.52 1.785-14.724 11.795-7.56 33.772a236.016 236.016 0 012.505 8.21h21.479l-.458-3.451a1.83 1.83 0 01.034-.676l8.644-35.67.04-.153a2.377 2.377 0 00-.03-1.233zm6.739-39.931h9.369a1.482 1.482 0 011.479 1.479v2.466a.492.492 0 01.493.493v.986a.493.493 0 01-.493.493v.986a.497.497 0 01.493.493v.986a.493.493 0 01-.493.493v13.314a1.48 1.48 0 01-1.479 1.479h-9.369a1.482 1.482 0 01-1.479-1.479v-20.71a1.482 1.482 0 011.479-1.479z" fill="#8EB438"/><path d="M139.994 128.696v-20.71a1.482 1.482 0 011.479-1.479h-.986a1.482 1.482 0 00-1.479 1.479v20.71a1.48 1.48 0 001.479 1.479h.986a1.482 1.482 0 01-1.479-1.479z" fill="#68123F"/><path d="M144.925 115.382a1.972 1.972 0 10.001-3.945 1.972 1.972 0 00-.001 3.945z" fill="#fff"/><path d="M142.424 120.32a5.12 5.12 0 00-.427.697l-24.279 2.917-3.571-4.749-7.87 4.452 5.504 9.02a3.946 3.946 0 004.398 1.753l26.855-7.266a5.174 5.174 0 008.063-1.207 5.174 5.174 0 00-3.111-7.536 5.17 5.17 0 00-5.562 1.918v.001z" fill="#A0616A"/><path d="M117.514 120.896l-6.805-8.816a6.158 6.158 0 00-7.984-2.578 6.158 6.158 0 00-3.154 7.775c-.005.005-.005.005 0 .01.101.268.223.529.364.779l.982 2.579 2.983 7.865a2.217 2.217 0 001.317 1.296c.105.039.214.069.325.089a2.188 2.188 0 001.514-.237l2.159-1.208 7.624-4.26a2.242 2.242 0 001.089-1.494 2.215 2.215 0 00-.414-1.8z" fill="#941759"/><path d="M102.002 95.166h4.79l2.113-7.283.423 7.283h2.289l1.233-4.248.247 4.248h17.011c0-8.715-5.74-15.78-12.82-15.78h-2.466c-7.08 0-12.82 7.065-12.82 15.78z" fill="#3B3D42"/><path d="M242.472 85.908H142.084a4.764 4.764 0 01-4.76-4.76v-51.06a4.77 4.77 0 014.76-4.759h100.388a4.764 4.764 0 014.76 4.76v51.06a4.764 4.764 0 01-4.76 4.76z" fill="#CCC"/><path d="M241.318 82.446h-98.081a2.455 2.455 0 01-2.452-2.452V31.242a2.455 2.455 0 012.452-2.452h98.081a2.456 2.456 0 012.452 2.452v48.752a2.454 2.454 0 01-2.452 2.452z" fill="#fff"/><path d="M148.104 95.295a1.852 1.852 0 01-.709-.144 1.792 1.792 0 01-1.125-1.684v-9.384l14.141-.357-11.03 11.03a1.805 1.805 0 01-1.277.539zm81.274-41.862H179.76a2.309 2.309 0 110-4.616h49.618a2.304 2.304 0 012.307 2.308 2.307 2.307 0 01-2.307 2.308zm-16.156-9.809h-33.463a2.309 2.309 0 010-4.615h33.463a2.309 2.309 0 010 4.615z" fill="#CCC"/><path d="M159.22 53.432a7.211 7.211 0 007.211-7.211 7.211 7.211 0 10-14.423 0 7.212 7.212 0 007.212 7.211z" fill="#941759"/><path d="M214.085 72.229a2.308 2.308 0 100-4.615 2.308 2.308 0 000 4.615zm8.078 0a2.308 2.308 0 100-4.615 2.308 2.308 0 000 4.615zm8.076 0a2.308 2.308 0 100-4.615 2.308 2.308 0 000 4.615z" fill="#E6E6E6"/><path d="M325.315 121.448h92.972a4.768 4.768 0 014.76 4.76v137.864a4.763 4.763 0 01-4.76 4.759h-92.972a4.767 4.767 0 01-4.76-4.759V126.208a4.763 4.763 0 014.76-4.76z" fill="#F2F2F2"/><path d="M326.468 124.908h90.664a2.453 2.453 0 012.452 2.452v135.556a2.451 2.451 0 01-2.452 2.452h-90.664a2.453 2.453 0 01-2.452-2.452V127.36a2.451 2.451 0 012.452-2.452z" fill="#fff"/><path d="M329.219 191.248H228.83a4.768 4.768 0 01-4.76-4.76v-51.059a4.768 4.768 0 014.76-4.76h100.389a4.762 4.762 0 014.759 4.76v51.059a4.763 4.763 0 01-4.759 4.76z" fill="#CCC"/><path d="M328.066 187.786h-98.081a2.46 2.46 0 01-1.733-.719 2.46 2.46 0 01-.719-1.733v-48.752a2.455 2.455 0 012.452-2.452h98.081a2.455 2.455 0 012.452 2.452v48.752a2.455 2.455 0 01-2.452 2.452z" fill="#fff"/><path d="M322.386 200.094l-11.031-11.031 14.142.358v9.384a1.789 1.789 0 01-1.125 1.684 1.788 1.788 0 01-1.401.002 1.795 1.795 0 01-.585-.397zm-6.262-41.322h-49.618a2.315 2.315 0 01-2.135-1.424 2.312 2.312 0 01.501-2.517 2.325 2.325 0 011.634-.675h49.618a2.311 2.311 0 012.311 2.308 2.312 2.312 0 01-1.427 2.133c-.28.116-.581.175-.884.175zm-16.154-9.808h-33.463a2.306 2.306 0 01-.883-4.44c.28-.116.58-.175.883-.175h33.463a2.308 2.308 0 110 4.615z" fill="#CCC"/><path d="M245.968 158.772a7.211 7.211 0 007.211-7.212 7.21 7.21 0 00-7.211-7.211 7.211 7.211 0 100 14.423z" fill="#8EB438"/><path d="M300.833 177.568a2.308 2.308 0 100-4.616 2.308 2.308 0 000 4.616zm8.078 0a2.308 2.308 0 100-4.616 2.308 2.308 0 000 4.616zm8.076 0a2.308 2.308 0 100-4.616 2.308 2.308 0 000 4.616z" fill="#E6E6E6"/><path d="M330.322 222.152a4.962 4.962 0 013.576-2.194 4.948 4.948 0 012.137.226c.688.23 1.316.608 1.841 1.108l15.658-8.082-.973 9.105-14.72 6.278a4.985 4.985 0 01-7.519-6.441z" fill="#FFB8B8"/><path d="M379.074 181.673a7.151 7.151 0 00-8.555-.192 7.44 7.44 0 00-1.504 1.44l-13.747 25.498-12.687 9.586a2.212 2.212 0 00-.784 2.426l1.247 4.023c.134.432.395.814.75 1.095a2.463 2.463 0 00.503.291c.276.119.574.179.875.178.302 0 .599-.063.875-.183l14.872-6.45.163-.074a22.846 22.846 0 0011.405-11.119l7.82-16.504a7.155 7.155 0 00-1.233-10.015z" fill="#8EB438"/><path d="M380.652 172.278c6.689 0 12.111-5.422 12.111-12.111 0-6.688-5.422-12.11-12.111-12.11-6.689 0-12.111 5.422-12.111 12.11 0 6.689 5.422 12.111 12.111 12.111z" fill="#FFB8B8"/><path d="M388.85 241.154l-.124-.941-.572-4.295-.626-4.689-2.224.379-.858.143-.867.148-.286.049-22.062 3.748-2.746-1.652-.059-.034.025.251.517 5.37 2.471 25.65h30.631l-3.22-24.127z" fill="#3B3D42"/><path d="M397.329 191.882a17.088 17.088 0 00-5.794-11.361 16.123 16.123 0 00-11.662-4.024c-4.068.271-7.194 1.943-9.354 4.985a17.11 17.11 0 00-2.426 5.345c-2.455 8.837-5.044 21.78-7.011 32.485a969.944 969.944 0 00-2.599 14.734 471.255 471.255 0 00-.547 3.338 2.216 2.216 0 001.03 2.249c.005.005.015.01.02.014a16.306 16.306 0 008.23 2.313c3.511 0 7.722-1.223 12.155-5.172a1.733 1.733 0 012.223-.094l.484.375 4.773 3.713c.372.291.829.455 1.302.468.235.011.471-.021.695-.094a.241.241 0 00.059-.014 2.203 2.203 0 001.44-1.495c.266-.927.562-1.997.887-3.19.134-.498.271-1.021.415-1.563a243.666 243.666 0 002.001-8.205c2.377-10.582 4.636-24.176 3.679-34.807z" fill="#8EB438"/><path d="M377.386 242.421a4.958 4.958 0 015.413-5.338l7.333-16.022 4.853 7.764-7.708 14.025a4.985 4.985 0 01-9.891-.429z" fill="#FFB8B8"/><path d="M401.951 205.416l-4.033-17.815a7.168 7.168 0 00-6.381-7.081 7.175 7.175 0 00-5.833 2.076 7.159 7.159 0 00-2.081 5.079l4.921 28.545-.014.059-2.609 9.847-1.445 5.468a.784.784 0 00-.029.158c-.093.459-.032.935.172 1.356.164.353.419.656.74.878l2.796 1.933.665.463c.371.258.811.396 1.263.395.174 0 .348-.02.517-.059l.055-.015a2.21 2.21 0 001.38-1.085l7.722-14.255a22.893 22.893 0 002.194-15.947z" fill="#8EB438"/><path opacity=".2" d="M384.603 199.712l4.438 18.737-6.41 15.779 4.438-15.285-2.466-19.231z" fill="#000"/><path d="M390.454 167.446a8.144 8.144 0 002.745-1.646c.353-.315.731-.607 1.083-.921 3.106-2.778 4.039-7.554 2.653-11.484-1.386-3.929-4.832-6.949-8.769-8.31-3.938-1.361-8.303-1.176-12.301-.004-4.307 1.262-8.62 4.103-9.643 8.473-.272 1.163-.283 2.454.509 3.435.239.296.55.525.905.663 1.395.535 2.173-.557 3.215-1.021 1.432-.638 3.194.051 4.19 1.261.997 1.209 1.366 2.816 1.519 4.376.031.961.182 1.915.449 2.84a2.83 2.83 0 001.978 1.917c1.123.208 2.204-.566 2.91-1.463.707-.898 1.208-1.964 2.044-2.744.835-.779 2.197-1.191 3.113-.507.306.259.565.569.764.918 1.403 2.155 1.232 2.061 2.636 4.217z" fill="#3B3D42"/><path d="M332.455 211.783l-8.544 3.844a1.48 1.48 0 00-.742 1.956l1.012 2.248a.494.494 0 00-.248.652l.405.899a.494.494 0 00.652.248l.405.899a.494.494 0 00-.248.652l.405.899a.494.494 0 00.652.248l5.462 12.141a1.479 1.479 0 001.956.742l8.544-3.844a1.477 1.477 0 00.742-1.956l-8.497-18.886a1.477 1.477 0 00-1.956-.742z" fill="#3F3D56"/><path d="M341.325 230.298l-1.203-2.678-3.156-7.012-2.771-6.158a1.417 1.417 0 00-1.874-.715l-4.704 2.115-2.155.971a1.427 1.427 0 00-.71 1.874l2.865 6.371 1.1 2.441 3.166 7.041a1.426 1.426 0 001.878.71l6.854-3.087a1.417 1.417 0 00.71-1.873z" fill="#941759"/></g><defs><clipPath id="clip0_7608_48566"><path fill="#fff" transform="translate(65.133 25.33)" d="M0 0h357.914v243.502H0z"/></clipPath></defs></svg>