<svg width="576" height="416" fill="none" xmlns="http://www.w3.org/2000/svg"><path opacity=".12" fill-rule="evenodd" clip-rule="evenodd" d="M512.794 127.348c-38.387-31.31-100.312-32.99-154.228-46.342-47.318-11.719-92.297-33.444-141.389-26.87-49.846 6.675-87.524 34.979-122.736 62.24-36.481 28.244-70.505 58.665-82.756 96.851-13.462 41.96-21.396 90.451 11.272 125.961 32.185 34.985 97.816 37.174 151.502 50.969 48.105 12.362 94.139 26.282 145.003 25.222 60.327-1.258 124.964-2.994 171.478-31.82 49.585-30.728 79.597-78.257 83.697-126.316 4.013-47.046-19.29-95.187-61.843-129.895z" fill="url(#paint0_linear_5074_44564)"/><path d="M537.946 356.436c0-7.214-108.974-13.071-243.383-13.071-134.41 0-243.384 5.857-243.384 13.071 0 7.215 108.963 13.083 243.384 13.083 134.42 0 243.383-5.857 243.383-13.083zM225.201 106.293a52.836 52.836 0 01-16.496-4.567c-7.843-3.63-14.841-10.605-10.902-17.489 5.879-9.43-10.845-17.409-5.16-22.66 5.788-4.646 7.009-.8 4.772-11.199-1.838-10.617 5.468-13.162 9.578-22.66 4.703-9.555 15.491-2.409 12.819 10.057-2.1 12.866 2.866-.422 6.519 5.377 3.116 4.795-9.133 25.434-3.722 23.573 5.012-2.283 9.327.88 8.665 6.645-1.952 13.333-6.256 32.66-6.073 32.923z" fill="#AFDD44"/><path d="M229.195 111.726a.214.214 0 01-.149-.068 90.273 90.273 0 01-18.185-34.054v-.114h-.091a49.82 49.82 0 01-9.658-8.116 252.918 252.918 0 01-2.911-3.071.146.146 0 01-.027-.086c0-.03.009-.06.027-.085a.217.217 0 01.263-.126.137.137 0 01.057 0c.947 1.005 1.895 2.02 2.854 3.002a51.87 51.87 0 008.835 7.615l.537.342-.171-.65a86.378 86.378 0 01-2.683-18.985v-.183l-.148-.068h-.069a48.792 48.792 0 01-5.913-12.774.169.169 0 01-.03-.097c0-.035.01-.069.03-.097a.193.193 0 01.228 0 .174.174 0 01.069.102 47.722 47.722 0 005.308 11.804c.148.251.308.491.468.742v-.902a96.388 96.388 0 011.963-20.308.162.162 0 01.069-.114.183.183 0 01.183 0 .195.195 0 01.079.216 94.232 94.232 0 00-1.586 27.25v.536l.365-.353a69.068 69.068 0 0010.548-12.752c0-.057.069-.08.137 0a.255.255 0 01.126.16.16.16 0 010 .16 69.137 69.137 0 01-10.982 13.185l-.114.103v.16a84.846 84.846 0 002.408 13.162v.068a.154.154 0 01.025.086c0 .03-.008.06-.025.086v.137a83.338 83.338 0 004.019 11.324l.285.65c.057-.228.126-.456.183-.684a66.186 66.186 0 017.534-17.432.161.161 0 01.206-.08.206.206 0 01.125.114.105.105 0 010 .114 66.62 66.62 0 00-7.785 18.38v.182a92.145 92.145 0 0013.55 21.291.123.123 0 010 .125.283.283 0 01-.081.091.26.26 0 01-.113.046l.24-.034z" fill="#8EB438"/><path d="M204.834 138.78a62.183 62.183 0 00-1.655-18.493c-2.283-9.03-7.991-17.706-15.423-14.487-10.274 4.875-15.365-14.407-21.507-9.133-5.582 5.514-1.986 7.421-11.872 3.425-10.183-3.63-13.939 3.847-23.974 6.85-10.274 3.573-5.011 16.324 7.763 15.388 13.06-.263-.913 3.025 4.201 7.866 4.201 4.098 26.679-5.902 23.905-.343-3.071 5.046-.708 10.194 5.103 10.377 13.402-.057 33.242-1.769 33.459-1.45z" fill="#AFDD44"/><path d="M209.515 143.932a.187.187 0 000-.16c-6.632-8.493-17.295-18.653-30.548-24.921h-.103v-.114a53.797 53.797 0 00-6.37-11.667c-.833-1.21-1.689-2.408-2.546-3.618a.121.121 0 00-.08-.029.12.12 0 00-.079.029.24.24 0 00-.172.251.357.357 0 000 .08c.834 1.141 1.667 2.351 2.489 3.538a55.111 55.111 0 016.005 10.72l.251.628-.605-.274a78.943 78.943 0 00-18.323-5.788h-.171v-.183a.18.18 0 000-.08 46.59 46.59 0 00-11.598-8.356.198.198 0 00-.206 0 .251.251 0 00-.08.24.208.208 0 00.103.091 46.606 46.606 0 0110.754 7.557l.65.628-.89-.16a88.375 88.375 0 00-20.4-1.038c-.091 0-.114 0-.114.057a.215.215 0 000 .205c.015.038.042.07.077.091.035.02.077.029.117.023a86.612 86.612 0 0127.192 2.535l.525.137-.411.342a71.66 71.66 0 01-14.395 9.384s-.091.057-.068.137a.34.34 0 00.137.171.162.162 0 00.16 0 71.332 71.332 0 0014.84-9.897l.126-.115h.148a77.422 77.422 0 0112.557 4.647h.069v.068c.02.025.047.044.077.056.03.012.062.016.094.013h.137a78.497 78.497 0 0110.503 6.107l.582.4-.697.091a64 64 0 00-18.505 5.411.202.202 0 00-.085.086.196.196 0 00-.017.119.178.178 0 00.08.16h.114a64.004 64.004 0 0119.475-5.525h.194a92.119 92.119 0 0118.722 17.934c0 .069.091.057.114.057a.248.248 0 00.16-.194l.011.126z" fill="#8EB438"/><path d="M198.966 120.198c-.103 0 6.279-8.573 8.904-19.03 2.843-10.275 1.918-22.352-7.683-24.099-13.504-1.998-7.66-23.973-17.123-22.831-8.962 1.712-6.325 5.913-14.27-4.441-8.47-10.16-16.667-5.366-28.813-9.133-12.672-3.208-14.567 12.558-.788 19.99 13.699 8.276-2.683 2.34-.16 10.376 2.009 6.724 31.062 11.678 25.001 15.263-6.096 2.888-6.587 9.43-.662 13.39 14.007 8.802 35.548 20.092 35.594 20.515z" fill="#8EB438"/><path d="M200.874 128.267a.228.228 0 00.057-.195 111.079 111.079 0 00-17.386-44.087l-.08-.114v-.126a59.95 59.95 0 00.091-15.48c-.16-1.712-.354-3.424-.559-5.171a.158.158 0 00-.039-.106.159.159 0 00-.098-.054.239.239 0 00-.308.137.296.296 0 000 .103c.194 1.69.388 3.425.559 5.057a63.28 63.28 0 01.08 14.316c0 .262-.069.513-.114.776-.149-.229-.308-.445-.468-.674a104.52 104.52 0 00-15.674-17.557l-.16-.149v-.194a.364.364 0 000-.114 59.379 59.379 0 00-7.237-15.674.205.205 0 00-.217-.114.218.218 0 00-.217.183.16.16 0 00-.019.074.16.16 0 00.019.074 59.086 59.086 0 016.849 14.35c.103.342.217.685.32 1.027l-.834-.73a117.786 117.786 0 00-20.548-14.316h-.16a.215.215 0 00-.114.194.23.23 0 00.137.24 115.782 115.782 0 0126.759 20.195c.148.16.296.32.456.468l-.616.068a85 85 0 01-20.32-.285c-.08 0-.126 0-.149.103a.308.308 0 000 .24.23.23 0 00.172.103 85.372 85.372 0 0021.062.227h.194l.125.137a101.486 101.486 0 0110.389 12.729l.057.068v.092a.205.205 0 00.125.182h.08l.057.08a104.123 104.123 0 017.375 12.763l.388.776-.776-.365a81.722 81.722 0 00-22.307-6.85.194.194 0 00-.228.126.26.26 0 000 .206.149.149 0 00.126.08 81.824 81.824 0 0123.379 7.34l.114.057v.114a113.41 113.41 0 019.133 29.601c0 .103.068.126.091.137a.318.318 0 00.274-.08l.16.012z" fill="#8EB438"/><path d="M318.08 87.913H209.813c-10.504 0-19.019 8.515-19.019 19.019v226.1c0 10.504 8.515 19.019 19.019 19.019H318.08c10.503 0 19.018-8.515 19.018-19.019v-226.1c0-10.504-8.515-19.019-19.018-19.019z" fill="#941759"/><path d="M318.091 87.913H209.813a19.016 19.016 0 00-19.042 19.019v226.1a18.966 18.966 0 007.341 14.978L335.535 99.386a19.009 19.009 0 00-17.444-11.473z" fill="#941759"/><path d="M285.086 97.168h-40.161a2.02 2.02 0 00-2.009 2.01 2.01 2.01 0 002.009 2.008h40.161a2.009 2.009 0 002.009-2.009 2.022 2.022 0 00-2.009-2.009z" fill="#fff"/><path d="M318.09 95.083h-15.891l-5.708 10.834a12.329 12.329 0 01-10.913 6.586h-43.243a12.321 12.321 0 01-10.914-6.586l-5.708-10.834h-15.902a11.908 11.908 0 00-11.895 11.895v226.055a11.907 11.907 0 0011.895 11.884H318.09a11.895 11.895 0 0011.883-11.884v-226.1a11.895 11.895 0 00-11.883-11.85z" fill="#F2FBDD"/><path d="M329.973 106.933v2.511L201.638 341.663a11.903 11.903 0 01-3.722-8.641V106.99a11.908 11.908 0 0111.895-11.907h15.891l5.708 10.834a12.354 12.354 0 0010.925 6.587h43.185a12.36 12.36 0 0010.914-6.587l5.708-10.834h15.891a11.89 11.89 0 018.424 3.452 11.903 11.903 0 012.594 3.849c.603 1.441.916 2.987.922 4.549z" fill="#AFDD44" opacity=".85"/><path d="M382.999 129.076H218.532a8.322 8.322 0 00-8.322 8.322v40.709a8.322 8.322 0 008.322 8.322h164.467a8.322 8.322 0 008.322-8.322v-40.709a8.322 8.322 0 00-8.322-8.322z" fill="#fff"/><path d="M290.226 148.211l1.142 3.425a.567.567 0 00.548.399h3.607a.58.58 0 01.55.402.584.584 0 01-.208.649l-2.922 2.123a.593.593 0 00-.205.651l1.141 3.424a.58.58 0 01-.902.651l-2.968-2.066a.576.576 0 00-.685 0l-2.911 2.123a.578.578 0 01-.69.007.584.584 0 01-.212-.658l1.142-3.424a.586.586 0 00-.217-.651l-2.911-2.123a.585.585 0 01-.207-.649.58.58 0 01.549-.402h3.608a.57.57 0 00.548-.399l1.141-3.425a.585.585 0 01.834-.296.577.577 0 01.228.239z" fill="#FBBE42"/><path d="M310.248 148.209l1.141 3.425a.597.597 0 00.559.4h3.608a.58.58 0 01.55.401.584.584 0 01-.208.649l-2.979 2.135a.592.592 0 00-.217.65l1.142 3.425a.585.585 0 01-.551.757.585.585 0 01-.34-.106l-2.911-2.078a.582.582 0 00-.685 0l-2.922 2.123a.579.579 0 01-.679-.006.585.585 0 01-.212-.644l1.142-3.425a.598.598 0 00-.217-.651l-2.922-2.123a.577.577 0 01-.208-.649.586.586 0 01.55-.401h3.607a.595.595 0 00.56-.4l1.141-3.425a.574.574 0 011.051-.057zm20.034.002l1.141 3.425a.575.575 0 00.548.399h3.619a.579.579 0 01.54.407.582.582 0 01-.209.643l-2.911 2.124a.581.581 0 00-.217.65l1.142 3.425a.588.588 0 01-.211.658.585.585 0 01-.691-.007l-2.991-2.066a.576.576 0 00-.685 0l-2.922 2.123a.58.58 0 01-.905-.287.58.58 0 01.003-.364l1.141-3.425a.566.566 0 00-.205-.65l-2.922-2.124a.575.575 0 01-.208-.648.586.586 0 01.55-.402h3.607a.567.567 0 00.548-.399l1.142-3.425a.583.583 0 011.096-.057zm20.036 0l1.141 3.425a.597.597 0 00.56.399h3.607a.58.58 0 01.55.402.584.584 0 01-.208.649l-2.922 2.123a.57.57 0 00-.206.651l1.142 3.424a.58.58 0 01-.89.651l-2.991-2.066a.581.581 0 00-.685 0l-2.923 2.123a.58.58 0 01-.89-.651l1.141-3.424a.579.579 0 00-.216-.651l-2.923-2.123a.585.585 0 01-.207-.649.58.58 0 01.55-.402h3.618a.57.57 0 00.548-.399l1.142-3.425a.578.578 0 01.512-.373.587.587 0 01.55.316zm20.021 0l1.141 3.424a.582.582 0 00.56.4h3.607a.586.586 0 01.55.401.584.584 0 01-.207.649l-2.923 2.123a.6.6 0 00-.217.651l1.142 3.425a.585.585 0 01-.212.644.574.574 0 01-.678.006l-2.969-2.066a.582.582 0 00-.685 0l-2.876 2.089a.586.586 0 01-.679-.006.581.581 0 01-.212-.644l1.142-3.425a.575.575 0 00-.206-.651l-2.922-2.123a.585.585 0 01-.207-.649.58.58 0 01.549-.401h3.608a.594.594 0 00.559-.4l1.142-3.425a.584.584 0 01.776-.222.587.587 0 01.217.2zm-28.846 17.487H283.25v1.621h58.243v-1.621z" fill="#76838F"/><path d="M341.493 139.077H283.25v3.048h58.243v-3.048z" fill="#8EB438"/><path d="M341.493 171.867H283.25v1.621h58.243v-1.621zm-31.621 5.719H283.25v1.621h26.622v-1.621z" fill="#76838F"/><path d="M252.586 181.237c12.505-2.926 20.27-15.435 17.344-27.94-2.926-12.505-15.435-20.27-27.94-17.344-12.505 2.926-20.27 15.435-17.344 27.94 2.926 12.505 15.435 20.27 27.94 17.344z" fill="#AFDD44"/><path d="M258.796 172.708l-2.044-21.485c0-5.502-2.157-10.571-7.991-9.064a7.003 7.003 0 00-8.059.982 12.261 12.261 0 00-3.585 8.802l-2.283 20.879 23.962-.114z" fill="#941759"/><path d="M250.714 161.659v4.726s-.662 3.699-3.778 4.327a5.447 5.447 0 01-3.745-4.327v-4.726h7.523z" fill="#FFA683"/><path d="M250.714 160.987v3.014a7.983 7.983 0 01-7.523 0v-3.014h7.523z" fill="#E57C5C"/><path d="M254.585 151.465a8.535 8.535 0 01-5.708-2.774c-2.112 1.827-9.498 2.774-9.498 2.774v2.911c.102 2.494.94 4.901 2.409 6.918a6.49 6.49 0 005.222 2.634 6.489 6.489 0 005.223-2.634 12.626 12.626 0 002.409-6.918l-.057-2.911zm10.97 22.796c-2.945-5.069-15.423-7.877-15.423-7.877l-3.276 1.267-3.276-1.267s-12.478 2.808-15.423 7.877l-3.619 27.306 5.708-.091 3.356-22.832s2.124 7.363 2.009 11.667a96.347 96.347 0 01-1.461 11.416h25.343a96.347 96.347 0 01-1.461-11.416c-.114-4.304 2.009-11.667 2.009-11.667l3.356 22.832 5.708.091-3.55-27.306z" fill="#FFA683"/><path d="M256.982 168.505a10.486 10.486 0 01-10.068 7.544 10.49 10.49 0 01-10.069-7.544 29.933 29.933 0 00-5.548 2.762l2.283 7.432a.981.981 0 01.091.194v-.194l.24.856.069.263a46.298 46.298 0 011.701 10.548 96.142 96.142 0 01-1.462 11.416h25.343a96.347 96.347 0 01-1.461-11.416c-.114-4.304 2.009-11.667 2.009-11.667v.308c.047-.106.1-.209.16-.308l2.283-7.386a28.666 28.666 0 00-5.571-2.808z" fill="#8EB438"/><path d="M407.808 195.665a2.278 2.278 0 01-1.975-1.21l-11.861-23.722s-1.427-5.708-3.105-5.708l-.172 7.558 8.06 29.155c.468 1.827 1.415 3.425 3.847 3.425 6.724.461 13.39 1.554 19.909 3.265 3.64.96 7.467.96 11.108 0 .308-13.379-20.731-12.649-25.811-12.763z" fill="#FFA683"/><path d="M425.637 192.688v6.747h-10.274v-3.802s-6.735-1.587-6.404-7.671c.331-6.085 3.185-9.019 4.726-9.487 1.541-.468 8.973 2.523 9.133 2.9.16.377.936 6.849.936 6.849l1.883 4.464z" fill="#FFA683"/><path d="M414.885 183.473s1.815-2.557 3.505-1.29c1.689 1.267.845 3.802-1.267 5.069 0 0 2.112 7.192 6.335 6.769a11.062 11.062 0 009.19-11.849c-.468-6.964-9.566-11.872-14.532-10.891-4.966.982-9.909 6.542-3.231 12.192zm17.717-5.692s5.513-7.021 11.027-.936c5.514 6.084 8.984 12.899 11.507 14.212 2.523 1.313-2.157 4.487-8.231 2.523-6.073-1.964-13.927-9.452-14.303-15.799z" fill="#3B3D42"/><path d="M415.4 199.435v-3.802s4.19.16 5.971-1.461c0 0-1.256 2.899-3.984 2.979v2.284H415.4z" fill="#ED7D5A"/><path d="M410.901 253.371s2.42 37.672 5.48 45.606c3.059 7.934 22.489 43.825 22.489 43.825l10.057-2.203-14.338-42.901c-.114 2.626-2.021-9.737 1.53-22.26a31.228 31.228 0 00-1.838-21.759l-25.115-.274" fill="#76972B"/><path d="M434.088 251.784s-.937 10.468-12.992 22.363c-12.055 11.895-16.929 20.058-16.929 20.058l-1.815 52.021h-10.023s-5.925-54.795-5.765-56.736c.16-1.941 16.781-37.672 18.756-40.777 1.975-3.105 28.768 3.071 28.768 3.071z" fill="#8EB438"/><path d="M426.687 198.888s10.754.81 6.792 14.144c-4.326 14.578.64 37.946 1.621 40.355l-3.219 1.289a40.19 40.19 0 01-29.863-.639s8.55-18.859 2.465-28.722c-3.904-6.347-2.751-12.751 1.815-18.425 2.957-3.664 6.69-7.5 8.163-7.569l12.226-.433z" fill="#941759"/><path d="M392.328 346.225h2.123l-4.304-56.336c.719-1.142 3.174-5.708 10.617-20.001a76.969 76.969 0 005.708-14.224 39.19 39.19 0 01-3.996-1.393c-5.308 10.914-15.765 33.666-15.902 35.218-.171 1.941 5.754 56.736 5.754 56.736z" fill="#8EB438"/><path d="M413.148 221.802c-5.023 1.861-1.29 15.206-6.69 33.848a43.033 43.033 0 01-4.44-1.576s8.55-18.859 2.465-28.722a14.588 14.588 0 01-2.283-9.338l21.325-4.84s-3.539 8.059-10.377 10.628z" fill="#941759"/><path d="M367.189 188.363s19.521 32.444 25.218 34.248c2.534.822 18.322-5.343 24.978-6.439a6.953 6.953 0 005.799-7.489c-.388-4.166-5.16-7.705-9.247-6.849l-21.907 6.849s-18.608-19.144-22.694-23.527c0 0-1.713-5.4-4.258-5.4-2.272 0 1.175 6.747 2.111 8.607z" fill="#FFA683"/><path d="M382.762 349.494c2.763-.902 7.934-1.998 9.818-3.322h9.738a189.542 189.542 0 00-.172 5.114 1.555 1.555 0 01-1.564 1.518h-19.406a1.24 1.24 0 01-1.164-.902 1.245 1.245 0 01.513-1.381 9.462 9.462 0 012.237-1.027zm47.499-1.269c2.489-1.496 7.284-3.733 8.813-5.446l9.487-2.203c.354 1.929.73 3.79.982 5.023a1.542 1.542 0 01-1.142 1.827l-18.893 4.383a1.255 1.255 0 01-1.142-2.112 10.275 10.275 0 011.895-1.472z" fill="#3B3D42"/><path opacity=".58" d="M392.407 211.524c4.566.114 25.115-7.58 30.572-3.904-1.005-3.676-5.309-6.576-9.042-5.708l-21.907 6.849s-18.607-19.224-22.694-23.608c0 0 18.082 26.291 23.071 26.371z" fill="#ED7D5A"/><path d="M432.45 177.353l-1.427.262a10.275 10.275 0 011.462 5.822l1.849-.354s-.194-5.125-1.884-5.73zm-128.607 22.365H139.376a8.322 8.322 0 00-8.322 8.322v40.708a8.322 8.322 0 008.322 8.322h164.467a8.322 8.322 0 008.322-8.322V208.04a8.322 8.322 0 00-8.322-8.322z" fill="#fff"/><path d="M211.057 218.853l1.141 3.424a.582.582 0 00.56.4h3.607a.586.586 0 01.55.402.58.58 0 01-.208.648l-2.922 2.123a.6.6 0 00-.217.651l1.142 3.425a.585.585 0 01-.55.757.586.586 0 01-.341-.106l-2.922-2.124a.587.587 0 00-.685 0l-2.923 2.124a.58.58 0 01-.89-.651l1.142-3.425a.572.572 0 00-.206-.651l-2.922-2.123a.583.583 0 01.342-1.05h3.608a.594.594 0 00.559-.4l1.142-3.424a.581.581 0 01.993 0z" fill="#FBBE42"/><path d="M231.092 218.852l1.142 3.425a.567.567 0 00.547.399h3.608a.586.586 0 01.55.402.587.587 0 01-.208.649l-2.922 2.123a.593.593 0 00-.206.651l1.142 3.424a.58.58 0 01-.558.768.578.578 0 01-.344-.117l-2.922-2.123a.568.568 0 00-.674 0l-2.945 2.146a.585.585 0 01-.691.007.582.582 0 01-.211-.658l1.142-3.425a.593.593 0 00-.206-.65l-2.922-2.124a.58.58 0 01.342-1.05h3.608a.571.571 0 00.548-.399l1.141-3.425a.587.587 0 01.512-.331.58.58 0 01.527.308zm20.033-.003l1.141 3.424a.588.588 0 00.559.4h3.608a.586.586 0 01.55.402.583.583 0 01-.208.648l-2.922 2.123a.57.57 0 00-.206.651l1.142 3.425a.585.585 0 01-.212.644.58.58 0 01-.678.007l-2.923-2.124a.582.582 0 00-.685 0l-2.922 2.124a.586.586 0 01-.679-.007.585.585 0 01-.212-.644l1.142-3.425a.598.598 0 00-.217-.651l-2.98-2.111a.585.585 0 01.003-.939.586.586 0 01.34-.112h3.607a.584.584 0 00.56-.399l1.141-3.425a.59.59 0 01.212-.244.578.578 0 01.621-.006c.094.057.169.14.218.239zm20.023-.001l1.141 3.425a.574.574 0 00.548.4h3.55a.58.58 0 01.343 1.05l-2.922 2.123a.581.581 0 00-.217.651l1.141 3.425a.577.577 0 01-.212.644.578.578 0 01-.678.006l-2.923-2.123a.582.582 0 00-.685 0l-2.922 2.123a.585.585 0 01-.679-.006.581.581 0 01-.211-.644l1.141-3.425a.573.573 0 00-.205-.651l-2.923-2.123a.585.585 0 01-.207-.649.58.58 0 01.55-.401h3.618a.595.595 0 00.56-.4l1.141-3.425a.589.589 0 01.526-.33.588.588 0 01.525.33zm20.081.002l1.142 3.424a.574.574 0 00.548.4h3.607a.584.584 0 01.551.759.581.581 0 01-.208.291l-2.923 2.123a.573.573 0 00-.205.651l1.142 3.425a.585.585 0 01-.558.767.584.584 0 01-.344-.116l-2.923-2.124a.582.582 0 00-.685 0l-2.911 2.124a.584.584 0 01-.902-.651l1.142-3.425a.586.586 0 00-.217-.651l-2.911-2.123a.582.582 0 01.331-1.05h3.619a.57.57 0 00.548-.4l1.141-3.424a.582.582 0 011.016 0zm-28.894 17.504h-58.243v1.621h58.243v-1.621z" fill="#76838F"/><path d="M262.335 209.718h-58.243v3.048h58.243v-3.048z" fill="#941759"/><path d="M262.335 242.504h-58.243v1.621h58.243v-1.621zm-31.622 5.723h-26.621v1.621h26.621v-1.621z" fill="#76838F"/><path d="M184.541 245.705c9.081-9.082 9.081-23.805 0-32.886-9.081-9.081-23.805-9.081-32.886 0-9.081 9.081-9.081 23.804 0 32.886 9.081 9.081 23.805 9.081 32.886 0z" fill="#AFDD44"/><path d="M118.44 318.088s39.442-33.037 46.371-21.359c6.93 11.678-3.276 49.499-3.276 49.499l-43.095-28.14z" fill="#8EB438"/><path d="M139.139 331.591l22.397 14.635s9.338-34.566 4.076-47.797c2.409 17.374-16.051 28.391-26.473 33.162z" fill="#76972B"/><path d="M138.646 314.562s24.418 19.601 26.416 26.656c3.219 11.416-15.903 10.172-24.168 10.172-8.265 0-60.857-1.462-60.857-1.462l.468-8.093 48.574-2.284s-26.952-4.018-25.948-19.578c1.005-15.559 35.515-5.411 35.515-5.411z" fill="#8EB438"/><path d="M163.737 347.688c-4.463 4.406-16.667 3.687-22.831 3.687-8.265 0-60.915-1.45-60.915-1.45l.491-8.105 48.563-2.283s19.406 9.315 34.315 8.219l.377-.068z" fill="#8EB438"/><path d="M80.23 349.792s-2.136 4.829-.503 7.991c1.632 3.163-5.468.868-6.61-5.433-1.141-6.302-.593-13.825 7.34-10.446l-.228 7.888z" fill="#3B3D42"/><path d="M107.606 266s17.729-51.233 18.266-51.005a42.436 42.436 0 005.708 1.769l-7.307 56.234L107.606 266z" fill="#941759"/><path d="M125.929 260.153c-4.03-1.907-9.133-4.133-14.978-3.768-2.431 6.975-3.345 9.612-3.345 9.612l16.679 6.998 1.644-12.842z" fill="#64103C"/><path d="M129.808 252.447c-1.312 4.841-6.506 3.939-6.506 3.939v4.566h-8.95v-6.222c4.646 1.074 9.703-2.283 7.465-3.972-2.237-1.69-2.694-4.395-1.541-5.708 1.153-1.313 3.973-.343 3.973-.343a14.062 14.062 0 005.708-1.016 21.991 21.991 0 01-.149 8.756z" fill="#FFA683"/><path d="M124.286 244.733s-2.797-1.005-3.95.331c-1.153 1.335-.696 4.098 1.541 5.708 2.238 1.609-2.831 5.034-7.489 3.961-4.657-1.073-7.249-10.788-3.253-17.124 3.664-5.799 16.541-8.322 19.144-2.283 2.603 6.039 2.74 9.167-5.993 9.407z" fill="#3B3D42"/><path d="M123.302 260.986v-4.566a18.544 18.544 0 01-4.19-1.027 10.417 10.417 0 002.615 2.283v3.299l1.575.011z" fill="#E57C5C"/><path d="M125.7 261.078s-14.84-5.125-18.973 6.382c-4.132 11.507 2.923 39.201-4.566 48.688a47.527 47.527 0 0037.078 1.347l1.622-.617s-5.172-35.274-5.423-34.041c-.205 1.027 17.478 6.666 21.005 4.737 3.527-1.929 24.864-26.016 24.864-26.016l-7.181-1.062-19.293 12.671s-24.269-11.781-29.133-12.089z" fill="#941759"/><path d="M181.25 261.582s7.397-3.185 7.854-4.646h-10.662a3.423 3.423 0 00-2.797 1.415l-1.576 2.169 7.181 1.062z" fill="#FFA683"/><path d="M140.804 316.901s-4.567-30.983-5.32-33.859c.14.114.289.217.445.308l-.548-.491s-11.279-2.74-15.297-7.489c0 0 3.836 7.854 8.767 9.681 4.395 1.621 2.831 25.377 6.222 33.813a44.34 44.34 0 004.11-1.336l1.621-.627z" fill="#64103C"/><path d="M126.408 215.247s1.884-6.724 4.692-7.203v8.779l-4.692-1.576z" fill="#FFA683"/><path d="M193.634 263.326l-1.496-13.425a7.423 7.423 0 00-3.333-5.308l-4.658-3.048v.114-.103l-3.835-1.484-3.916-1.518-3.231-1.245-1.427-.559-3.561 1.827-3.551-1.827-1.255.491-3.048 1.141-4.133 1.599-3.973 1.541v.068l-4.566 2.968a7.438 7.438 0 00-3.333 5.309l-1.496 13.459h9.441v11.164h31.77v-11.164h9.601z" fill="#FBBE42"/><path d="M168.315 213.177a9.497 9.497 0 00-9.498 9.486v4.567h18.985v-4.567a9.487 9.487 0 00-9.487-9.486z" fill="#941759"/><path d="M172.069 234.26v3.322a1.94 1.94 0 01-.057.262c-.491 1.964-2.146 5.708-3.779 5.708-1.632 0-3.219-3.893-3.584-5.879a.461.461 0 010-.091v-3.322h7.42z" fill="#FFA683"/><path d="M172.067 233.602v2.968a7.845 7.845 0 01-7.431 0v-2.968h7.431z" fill="#E57C5C"/><path d="M163.371 227.229a2.281 2.281 0 00-2.729-2.239 2.282 2.282 0 00-1.664 3.113 2.29 2.29 0 002.11 1.41 2.284 2.284 0 002.283-2.284zm14.371 0a2.281 2.281 0 00-2.728-2.239 2.282 2.282 0 00-1.664 3.113 2.282 2.282 0 004.392-.874z" fill="#FFA683"/><path d="M175.927 223.327a16.38 16.38 0 01-3.825-2.728h-7.466c-.605 1.689-3.733 2.728-3.733 2.728l-.068 3.733a12.55 12.55 0 002.386 6.849 6.419 6.419 0 005.137 2.573 6.419 6.419 0 005.137-2.573c1.448-2 2.274-4.382 2.375-6.849l.057-3.733z" fill="#FFA683"/><path d="M382.999 269.938H218.532a8.322 8.322 0 00-8.322 8.323v40.708a8.322 8.322 0 008.322 8.322h164.467a8.322 8.322 0 008.322-8.322v-40.708a8.322 8.322 0 00-8.322-8.323z" fill="#fff"/><path d="M290.225 289.069l1.142 3.425a.577.577 0 00.548.4h3.607a.58.58 0 01.55.401.584.584 0 01-.207.649l-2.923 2.123a.59.59 0 00-.205.651l1.141 3.425a.578.578 0 01-.211.657.582.582 0 01-.69-.007l-2.923-2.123a.582.582 0 00-.685 0l-2.911 2.123a.578.578 0 01-.69.007.584.584 0 01-.212-.657l1.142-3.425a.586.586 0 00-.217-.651l-2.911-2.123a.585.585 0 01-.207-.649.58.58 0 01.549-.401h3.608a.577.577 0 00.548-.4l1.141-3.425a.585.585 0 011.016 0zm20.024 0l1.142 3.425a.597.597 0 00.559.399h3.608a.582.582 0 01.342 1.051l-2.979 2.135a.59.59 0 00-.217.65l1.141 3.425a.577.577 0 01-.212.645.585.585 0 01-.678.006l-2.923-2.124a.582.582 0 00-.685 0l-2.922 2.124a.585.585 0 01-.679-.006.584.584 0 01-.211-.645l1.141-3.425a.59.59 0 00-.217-.65l-2.922-2.124a.589.589 0 01-.209-.291.58.58 0 01.551-.759h3.608a.588.588 0 00.559-.4l1.142-3.424a.569.569 0 011.061-.012zm20.033.001l1.141 3.424c.037.117.11.219.209.29a.565.565 0 00.339.11h3.619a.579.579 0 01.54.407.582.582 0 01-.209.643l-2.911 2.124a.581.581 0 00-.217.65l1.142 3.425a.585.585 0 01-.558.768.592.592 0 01-.344-.117l-2.991-2.101a.582.582 0 00-.685 0l-2.922 2.124a.586.586 0 01-.905-.288.578.578 0 01.003-.363l1.141-3.425a.566.566 0 00-.205-.651l-2.922-2.123a.577.577 0 01-.208-.648.584.584 0 01.55-.402h3.607a.568.568 0 00.548-.4l1.142-3.424a.581.581 0 011.096-.023z" fill="#76838F"/><path d="M289.631 288.839a.573.573 0 00-.457.377l-1.141 3.424a.57.57 0 01-.548.4h-3.608a.581.581 0 00-.342 1.05l2.922 2.123a.57.57 0 01.206.651l-1.142 3.425a.585.585 0 00.558.767.584.584 0 00.344-.116l2.922-2.124a.468.468 0 01.24-.08l.046-9.897z" fill="#FBBE42"/><path d="M350.317 289.07l1.142 3.425a.597.597 0 00.559.4h3.608a.582.582 0 01.342 1.05l-2.922 2.123a.57.57 0 00-.206.651l1.142 3.425a.585.585 0 01-.212.644.58.58 0 01-.679.006l-2.922-2.123a.582.582 0 00-.685 0l-2.922 2.123a.586.586 0 01-.679-.006.581.581 0 01-.212-.644l1.142-3.425a.586.586 0 00-.217-.651l-2.923-2.123a.585.585 0 01-.207-.649.586.586 0 01.55-.401h3.619a.572.572 0 00.548-.4l1.141-3.425a.584.584 0 01.993 0zm20.022.001l1.141 3.425a.584.584 0 00.56.399h3.607a.586.586 0 01.55.402.584.584 0 01-.207.648l-2.923 2.124a.59.59 0 00-.217.65l1.142 3.425a.588.588 0 01-.002.357.588.588 0 01-.548.4.58.58 0 01-.34-.106l-2.923-2.123a.576.576 0 00-.685 0l-2.922 2.146a.586.586 0 01-.679-.006.584.584 0 01-.212-.645l1.142-3.425a.572.572 0 00-.206-.65l-2.922-2.124a.577.577 0 01-.207-.648.582.582 0 01.549-.402h3.608a.588.588 0 00.559-.4l1.142-3.424a.576.576 0 01.49-.29.58.58 0 01.503.267zm-28.846 17.501H283.25v1.621h58.243v-1.621z" fill="#76838F"/><path d="M341.493 279.939H283.25v3.048h58.243v-3.048z" fill="#FF5A5A"/><path d="M341.493 312.722H283.25v1.621h58.243v-1.621zm-31.621 5.719H283.25v1.621h26.622v-1.621z" fill="#76838F"/><path d="M267.094 310.956c6.706-10.953 3.264-25.268-7.688-31.975-10.953-6.706-25.269-3.264-31.975 7.689-6.707 10.952-3.265 25.268 7.688 31.974 10.952 6.706 25.268 3.264 31.975-7.688z" fill="#AFDD44"/><path d="M237.895 293.85s-1.325-5.274.73-7.591c2.055-2.318 6.13-4.784 9.452-3.516a5.397 5.397 0 015.012-.263c2.386 1.324 5.833 2.477 6.199.89 0 0 .194 6.074-2.523 7.033l-1.142 4.669h-17.397l-.331-1.222zm27.659 20.629c-2.945-5.068-15.423-7.876-15.423-7.876l-3.276 1.267-3.276-1.267s-12.478 2.808-15.423 7.876l-3.619 27.307 5.708-.091 3.356-22.832s2.124 7.363 2.009 11.667a96.347 96.347 0 01-1.461 11.416h25.343a96.347 96.347 0 01-1.461-11.416c-.114-4.304 2.009-11.667 2.009-11.667l3.356 22.832 5.708.091-3.55-27.307z" fill="#941759"/><path d="M250.712 301.878v4.726s-.662 3.699-3.778 4.327a5.447 5.447 0 01-3.745-4.327v-4.726h7.523z" fill="#FFA683"/><path d="M250.712 301.201v3.014a7.983 7.983 0 01-7.523 0v-3.014h7.523z" fill="#E57C5C"/><path d="M254.585 291.679a8.535 8.535 0 01-5.708-2.774c-2.112 1.827-9.498 2.774-9.498 2.774v2.911c.102 2.494.94 4.901 2.409 6.918a6.49 6.49 0 005.222 2.634 6.502 6.502 0 005.223-2.634 12.626 12.626 0 002.409-6.918l-.057-2.911z" fill="#FFA683"/><path d="M241.307 294.943a2.089 2.089 0 11-4.178 0 2.089 2.089 0 014.178 0zm15.4 0c0 .413-.122.817-.352 1.16a2.08 2.08 0 01-2.144.889 2.095 2.095 0 01-1.642-1.642 2.08 2.08 0 01.889-2.144 2.094 2.094 0 012.638.259c.391.392.611.924.611 1.478z" fill="#FFA683"/><path d="M352.463 68.195c18.819 0 34.076-15.256 34.076-34.076S371.282.043 352.463.043c-18.82 0-34.076 15.256-34.076 34.076s15.256 34.076 34.076 34.076z" fill="#FBBE42"/><path d="M352.462.046h-.616a31.91 31.91 0 0114.526 35.849 31.903 31.903 0 01-30.714 23.513 31.537 31.537 0 01-6.769-.731 34.073 34.073 0 0055.198-11.898 34.072 34.072 0 00-15.64-42.8A34.076 34.076 0 00352.462 0v.046z" fill="#F9A643"/><path d="M112.652 141.942c7.135 0 7.512-10.628.388-11.073h-.194v-.137a13.69 13.69 0 00-6.717-11.868 13.696 13.696 0 00-13.637-.187 14.267 14.267 0 00-16.058-7.104 14.265 14.265 0 00-10.792 13.851 11.94 11.94 0 000 1.255 16.625 16.625 0 00-18.402 6.702 5.535 5.535 0 004.646 8.573l60.766-.012zm219.227-86.813c9.349 0 9.84-13.916.514-14.52h-.263v-.172a18.01 18.01 0 00-8.832-15.498 18.013 18.013 0 00-17.835-.302 18.7 18.7 0 00-31.232-2.669 18.696 18.696 0 00-3.951 11.505c0 .556.022 1.104.068 1.644a21.815 21.815 0 00-24.11 8.79 7.252 7.252 0 002.359 10.22 7.249 7.249 0 003.726 1.013l79.556-.011zm112.515 32.807c-8.596 0-9.041-12.786-.468-13.334h.24v-.16a16.556 16.556 0 018.112-14.239 16.555 16.555 0 0116.386-.282 17.19 17.19 0 0119.339-8.544 17.194 17.194 0 0113.002 16.672c0 .51-.023 1.012-.069 1.507a20.048 20.048 0 0122.158 8.082 6.673 6.673 0 01.249 6.796 6.667 6.667 0 01-5.843 3.479l-73.106.023z" fill="#AFDD44"/><path d="M474.656 327.334l1.69-.559c.251-2.923-1.005-7.843-7.637-15.434-12.272-14.053-22.832-34.065-20.126-41.873 0 0-12.01 18.059-3.904 29.989 7.591 11.187 27.797 13.596 29.977 27.877z" fill="#8EB438"/><path d="M475.353 327.106l.993-.331c.251-2.923-1.004-7.843-7.637-15.434-12.272-14.053-22.831-34.065-20.126-41.873 0 0-6.358 16.598 1.884 27.717 8.242 11.119 22.649 13.254 24.886 29.921z" fill="#76972B"/><path d="M479.588 315.329a35.67 35.67 0 01-2.283 7.009l.787.126c3.596-4.84 9.498-14.441 10.8-26.61 1.918-17.786 4.497-40.058 4.497-40.058s-18.116 14.943-14.052 35.708c1.997 10.354 1.472 18.197.251 23.825z" fill="#8EB438"/><path d="M485.948 283.008c-.994 14.841-3.79 31.165-7.421 37.672a90.284 90.284 0 011.667-1.267 54.796 54.796 0 008.676-23.55c1.918-17.786 4.498-40.058 4.498-40.058s-6.13 7.877-7.42 27.203z" fill="#76972B"/><path d="M482.82 322.258a26.889 26.889 0 01-4.132 3.869l.479.377a43.07 43.07 0 0017.124-13.938c7.876-11.268 17.854-25.309 17.854-25.309s-17.74 3.425-22.683 18.859a44.854 44.854 0 01-8.642 16.142z" fill="#8EB438"/><path d="M499.075 302.851c-6.164 9.635-14.087 19.601-18.938 22.626l1.586-.24a42.028 42.028 0 0014.567-12.66c7.877-11.267 17.854-25.308 17.854-25.308s-7.055 3.025-15.069 15.582z" fill="#76972B"/><path d="M476.027 321.682c1.142 3.174 1.93 5.343 2.409 6.85l.639-.149c-1.039-5.559-2.842-15.171-4.566-21.473-2.5-9.292-.559-13.802-2.569-29.966-2.009-16.165-11.598-37.512-11.598-37.512s-6.187 22.523 2.66 44.019c8.847 21.496 8.128 24.27 13.025 38.231z" fill="#8EB438"/><path d="M478.447 328.52h.126l.068-2.284c-1.061-5.708-2.637-13.767-4.132-19.315-2.5-9.293-.56-13.802-2.569-29.966-2.009-16.165-11.598-37.513-11.598-37.513s3.014 32.101 7.409 46.143c4.086 12.968 9.874 39.099 10.696 42.935z" fill="#76972B"/><path d="M460.181 325.282l3.87 22.957a4.466 4.466 0 004.395 3.71h22.432a4.449 4.449 0 004.384-3.71l3.881-22.957a3.427 3.427 0 00-.765-2.758 3.42 3.42 0 00-2.591-1.214h-32.284a3.415 3.415 0 00-2.569 1.227 3.426 3.426 0 00-.753 2.745z" fill="#fff"/><path d="M499.098 324.119a3.638 3.638 0 00-.183-.628 4.744 4.744 0 00-.274-.536l-.068-.092a3.745 3.745 0 00-.32-.422l-.148-.137a4.22 4.22 0 00-.343-.297l-.262-.16a1.773 1.773 0 00-.32-.182l-.411-.137-.263-.092a3.812 3.812 0 00-.73-.08h-32.272c-.456 0-.907.091-1.327.268a3.41 3.41 0 00-1.857 1.894c-.168.423-.25.876-.241 1.332h28.813c.011.159.011.32 0 .479l-3.881 22.957a4.437 4.437 0 01-4.384 3.71h10.217a4.449 4.449 0 004.384-3.71l3.881-22.957c.071-.4.067-.811-.011-1.21z" fill="#F2FBDD"/><path d="M163.908 157.866h-50.652a6.579 6.579 0 00-6.587 6.576v39.795l12.888-11.678a5.71 5.71 0 013.825-1.473h40.526a4.569 4.569 0 004.509-4.566v-24.202a4.568 4.568 0 00-4.509-4.452zM465.08 104.1h-50.949a6.62 6.62 0 00-6.61 6.621v40.023l12.957-11.735a5.708 5.708 0 013.847-1.484h40.755a4.569 4.569 0 004.566-4.566v-24.316a4.568 4.568 0 00-4.566-4.543z" fill="#941759"/><path d="M453.036 123.699a1.766 1.766 0 011.572 1.833 1.765 1.765 0 01-1.721 1.694h-3.424a4.01 4.01 0 01-.537 0 9.472 9.472 0 00-2.683.137c-1.495.331.274 2.158-.662 5.514-.936 3.356-4.212 3.162-4.052 1.598.159-1.564.331-5.308-.537-6.484a7.725 7.725 0 00-5.16-2.922l-.068-8.893h3.493a8.564 8.564 0 014.852-2.226h6.655a1.6 1.6 0 011.146.467 1.614 1.614 0 01.316 1.844 1.628 1.628 0 01-.446.565 1.77 1.77 0 01.434 3.425h.251a1.758 1.758 0 011.769 1.77 1.782 1.782 0 01-1.198 1.678zm-299.468 52.278a1.77 1.77 0 01-.148 3.528h-3.425a4.373 4.373 0 01-.537 0 9.39 9.39 0 00-2.682.137c-1.496.331.274 2.157-.663 5.513-.936 3.357-4.212 3.162-4.052 1.599.16-1.564.331-5.309-.537-6.485a7.707 7.707 0 00-5.16-2.922l-.068-8.893h3.493a8.577 8.577 0 014.852-2.226h6.655a1.606 1.606 0 011.621 1.61 1.627 1.627 0 01-.605 1.267 1.77 1.77 0 01.434 3.425h.251a1.754 1.754 0 011.77 1.769 1.78 1.78 0 01-1.199 1.678zm383.388 38.107a3.76 3.76 0 013.345 3.9 3.761 3.761 0 01-3.661 3.605h-7.284c-.38.025-.761.025-1.141 0a20.107 20.107 0 00-5.705.291c-3.181.705.582 4.591-1.409 11.732-1.991 7.141-8.959 6.728-8.619 3.4.34-3.327.704-11.294-1.141-13.796a16.409 16.409 0 00-10.975-6.218l-.145-18.921h7.429a18.233 18.233 0 0110.319-4.736h14.155a3.42 3.42 0 013.185 2.109c.174.417.263.864.263 1.316 0 .517-.116 1.027-.339 1.493a3.454 3.454 0 01-.948 1.203 3.764 3.764 0 01.923 7.287h.534a3.739 3.739 0 013.763 3.764 3.788 3.788 0 01-2.549 3.571zm-110.987-99.538l5.982-.011.08 12.991-5.994.011-.068-12.991zm-299.47 52.276l5.982-.011.08 12.991-5.993.011-.069-12.991zM479 194.546l12.797-.025.171 28.27-12.821.024-.147-28.269z" fill="#fff"/><path d="M348.742 249.392a16.51 16.51 0 013.802-20.899 16.504 16.504 0 0126.812 9.986 16.502 16.502 0 01-10.794 18.294 16.506 16.506 0 01-11.304-.12 5.044 5.044 0 00-3.253-.115l-6.427 1.941 1.575-5.194a4.923 4.923 0 00-.411-3.893z" fill="#941759"/><path d="M362.715 232.298l-1.69 5.228a.74.74 0 01-.685.491h-5.491a.71.71 0 00-.691.934.71.71 0 00.269.356l4.441 3.231a.703.703 0 01.262.799l-1.689 5.228a.717.717 0 001.141.799l4.441-3.23a.72.72 0 01.845 0l4.44 3.23a.724.724 0 00.881.044.719.719 0 00.261-.843l-1.735-5.228a.693.693 0 01.251-.799l4.452-3.231a.71.71 0 00.271-.803.71.71 0 00-.693-.487h-5.537a.718.718 0 01-.685-.491l-1.701-5.228a.706.706 0 00-1.358 0z" fill="#76838F"/><path d="M363.465 231.071a.841.841 0 00-.419.193.885.885 0 00-.262.389l-1.7 5.287a.876.876 0 01-.31.448.83.83 0 01-.506.169h-5.373a.848.848 0 00-.506.173.9.9 0 00-.313.447.94.94 0 00-.002.553.902.902 0 00.311.449l4.353 3.278a.907.907 0 01.306 1.005l-1.701 5.287a.926.926 0 00-.003.561.892.892 0 00.318.454.848.848 0 001.029-.01l4.353-3.279a.659.659 0 01.357-.123l.068-15.281z" fill="#FBBE42"/><defs><linearGradient id="paint0_linear_5074_44564" x1="575.082" y1="52.922" x2="248.013" y2="571.776" gradientUnits="userSpaceOnUse"><stop stop-color="#A0CA3F"/><stop offset="1" stop-color="#7B9C30"/></linearGradient></defs></svg>