<svg width="513" height="330" viewBox="0 0 513 330" fill="none" xmlns="http://www.w3.org/2000/svg">
<path fill-rule="evenodd" clip-rule="evenodd" d="M73.573 77.2925C105.558 49.8408 157.153 48.3689 202.076 36.6618C241.502 26.3873 278.978 7.33944 319.882 13.1033C361.414 18.9558 392.807 43.7716 422.146 67.6727C452.543 92.4355 480.892 119.107 491.099 152.587C502.316 189.376 508.927 231.891 481.707 263.024C454.89 293.697 400.207 295.617 355.475 307.712C315.394 318.55 277.038 330.755 234.658 329.825C184.393 328.722 130.537 327.2 91.7822 301.927C50.4677 274.986 25.4611 233.315 22.0454 191.179C18.7018 149.931 38.118 107.723 73.573 77.2925Z" fill="#E7F4CA"/>
<path d="M188.666 65.3496C188.666 64.8539 188.499 64.3694 188.187 63.9573C187.875 63.5452 187.431 63.2241 186.912 63.0344C186.392 62.8447 185.821 62.7951 185.27 62.8918C184.719 62.9885 184.213 63.2271 183.815 63.5776C183.418 63.9281 183.147 64.3746 183.038 64.8607C182.928 65.3468 182.984 65.8506 183.199 66.3085C183.414 66.7664 183.778 67.1578 184.246 67.4332C184.713 67.7085 185.262 67.8555 185.824 67.8555C186.578 67.8555 187.301 67.5915 187.833 67.1215C188.366 66.6516 188.666 66.0142 188.666 65.3496Z" fill="url(#paint0_linear_9943_64020)"/>
<path d="M100.018 72.2436C100.018 71.8719 99.9175 71.5085 99.7302 71.1994C99.5429 70.8904 99.2767 70.6495 98.9652 70.5072C98.6537 70.365 98.3109 70.3278 97.9802 70.4003C97.6495 70.4728 97.3457 70.6518 97.1073 70.9146C96.8689 71.1775 96.7066 71.5124 96.6408 71.8769C96.575 72.2415 96.6087 72.6194 96.7378 72.9628C96.8668 73.3063 97.0853 73.5998 97.3656 73.8063C97.646 74.0128 97.9756 74.123 98.3128 74.123C98.7637 74.1188 99.1951 73.9194 99.514 73.5678C99.8328 73.2163 100.014 72.7407 100.018 72.2436Z" fill="url(#paint1_linear_9943_64020)"/>
<path d="M154.036 170.148C155.046 169.226 154.585 167.3 152.996 165.822C151.407 164.343 149.297 163.896 148.287 164.804C147.277 165.713 147.738 167.653 149.312 169.131C150.887 170.609 153.011 171.016 154.036 170.148Z" fill="url(#paint2_linear_9943_64020)"/>
<path d="M86.8154 35.1129C87.4305 35.5419 88.5107 35.1129 89.2158 34.1548C89.921 33.1967 89.981 32.0957 89.3658 31.681C88.7507 31.2663 87.6556 31.681 86.9504 32.6247C86.2453 33.5685 86.1852 34.6982 86.8154 35.1129Z" fill="url(#paint3_linear_9943_64020)"/>
<path d="M135.711 36.5312C137.342 33.949 139.978 31.8814 143.206 30.6531C142.403 29.267 141.632 27.8937 140.829 26.5076C136.471 28.166 132.91 30.9554 130.704 34.4393L135.711 36.5312Z" fill="#FFA256"/>
<path d="M155.707 90.1473C154.266 87.8954 153.17 85.4522 152.452 82.8943L146.614 84.9542C147.39 87.7637 148.588 90.4471 150.168 92.918L155.707 90.1473Z" fill="url(#paint4_linear_9943_64020)"/>
<path d="M38.0645 6.92491L41.4111 5.42773L38.8914 -9.98879e-06L35.5447 1.49716L38.0645 6.92491Z" fill="url(#paint5_linear_9943_64020)"/>
<path d="M194.456 15.2344C195.191 12.6798 196.303 10.2435 197.758 8.00228L192.294 5.21071C190.7 7.65832 189.478 10.3184 188.666 13.1081L194.456 15.2344Z" fill="url(#paint6_linear_9943_64020)"/>
<path d="M93.0165 201.924C95.6815 201.25 98.4231 201 101.155 201.182C101.155 198.938 101.05 196.695 101.006 194.469C98.0044 194.271 94.9924 194.543 92.0626 195.275C92.4204 197.486 92.7631 199.713 93.0165 201.924Z" fill="url(#paint7_linear_9943_64020)"/>
<path d="M156.641 136.772L160.252 136.088L159.1 130.231L155.489 130.916L156.641 136.772Z" fill="url(#paint8_linear_9943_64020)"/>
<path d="M182.797 97.9285C181.411 100.837 179.08 103.219 176.165 104.706L178.575 109.205C182.524 107.185 185.673 103.945 187.53 99.993L182.797 97.9285Z" fill="url(#paint9_linear_9943_64020)"/>
<path d="M86.5044 168.912C86.5044 167.442 86.7114 165.93 86.3526 165.642C85.9938 165.353 84.5587 166.246 83.2892 167.194C81.5643 166.384 79.5634 165.367 79.1494 165.71C78.7355 166.054 79.6876 168.046 80.35 169.833C79.177 171.11 78.1559 172.581 78.4871 173.117C78.8183 173.652 80.3223 173.488 81.9782 173.515C83.0132 175.604 84.1033 176.991 84.5173 176.854C84.9313 176.717 85.5246 175.329 85.8972 173.309C88.2293 173.048 89.761 172.306 89.7886 171.77C89.8162 171.234 88.6433 170.176 86.5044 168.912Z" fill="url(#paint10_linear_9943_64020)"/>
<path d="M35.2363 174.367C35.2392 174.119 35.1413 173.875 34.9551 173.667C34.769 173.459 34.5029 173.297 34.1908 173.201C33.8787 173.105 33.5346 173.079 33.2025 173.127C32.8705 173.175 32.5654 173.295 32.3261 173.47C32.0868 173.646 31.9241 173.871 31.8588 174.115C31.7935 174.359 31.8285 174.612 31.9593 174.841C32.0902 175.07 32.311 175.266 32.5936 175.403C32.8762 175.54 33.2079 175.611 33.5463 175.609C33.9945 175.609 34.4243 175.478 34.7412 175.246C35.0582 175.013 35.2363 174.697 35.2363 174.367Z" fill="url(#paint11_linear_9943_64020)"/>
<path d="M71.6045 101.421C70.346 99.1678 69.3869 96.7249 68.7567 94.1677L63.6489 96.2131C64.3302 99.0263 65.3776 101.714 66.7579 104.191L71.6045 101.421Z" fill="url(#paint12_linear_9943_64020)"/>
<path d="M53.4209 90.1473C51.9768 87.8973 50.8803 85.4536 50.1663 82.8943L44.3287 84.9542C45.1061 87.7609 46.2979 90.4434 47.867 92.918L53.4209 90.1473Z" fill="url(#paint13_linear_9943_64020)"/>
<path d="M48.0402 47.8103C47.5181 50.4414 46.6508 52.977 45.4648 55.3391L50.5888 57.834C51.8913 55.252 52.845 52.479 53.4204 49.6008L48.0402 47.8103Z" fill="url(#paint14_linear_9943_64020)"/>
<path d="M124.958 184.118C124.618 183.22 123.106 182.853 121.58 183.371C120.055 183.89 119.074 184.979 119.401 185.903C119.728 186.827 121.24 187.169 122.765 186.65C124.291 186.131 125.285 185.055 124.958 184.118Z" fill="url(#paint15_linear_9943_64020)"/>
<path d="M96.7494 107.189C96.7494 105.628 96.9312 103.458 97.0011 101.713C96.9312 102.522 96.7913 100.833 96.7354 100.606C96.5647 99.962 96.2855 99.3525 95.9101 98.8047C94.978 97.6436 93.9735 96.5442 92.9028 95.5134C92.3891 94.9675 91.9212 94.3791 91.5041 93.7542C91.9081 93.2633 92.3791 92.8334 92.9028 92.4774C94.003 91.7375 95.1985 91.1551 96.4556 90.7467C96.9591 90.5764 99.0852 90.2501 99.2531 89.7678C99.4017 89.1938 99.4302 88.5946 99.337 88.0087C99.337 87.5831 98.8474 84.4336 99.337 84.2776C96.4416 85.1288 92.0216 86.3205 90.8747 89.5408C90.4929 90.9736 90.3185 92.455 90.3571 93.9387C90.1885 95.5884 90.3844 97.2555 90.9306 98.8188C91.7447 100.419 92.8728 101.834 94.2456 102.976C94.882 103.566 95.4456 104.233 95.9241 104.962C95.5464 105.728 95.0849 106.451 94.6373 107.175C93.6542 108.361 93.0279 109.809 92.8329 111.346C92.8329 112.679 93.4204 114.268 92.8329 115.602C94.3156 112.608 96.4416 110.58 96.7494 107.189Z" fill="url(#paint16_linear_9943_64020)"/>
<path d="M96.0819 105.576C96.6153 104.628 96.9666 103.594 97.1187 102.524C97.1118 102.496 97.1118 102.467 97.1187 102.439C97.0456 103.245 96.8996 101.563 96.8412 101.337C96.6631 100.695 96.3716 100.088 95.9797 99.5422C95.0067 98.3856 93.958 97.2906 92.8403 96.2638C92.304 95.7201 91.8155 95.1339 91.3801 94.5115L91.5699 94.2995L91.3801 94.4832C91.1215 94.8044 90.9056 95.1557 90.7376 95.5289C90.5252 96.0616 90.3782 96.6165 90.2995 97.1823C90.3604 97.9975 90.5525 98.7985 90.869 99.5563C91.7189 101.15 92.8966 102.559 94.3297 103.697C94.984 104.258 95.5716 104.889 96.0819 105.576Z" fill="url(#paint17_linear_9943_64020)"/>
<path d="M57.3284 120.668C57.5602 119.436 57.8774 118.204 57.5602 118.007C57.243 117.81 55.8033 118.894 54.51 119.941C52.9728 119.633 51.2159 119.215 50.8498 119.559C50.4838 119.904 51.0938 121.383 51.5209 122.689C50.3008 123.982 49.1539 125.423 49.3979 125.781C49.642 126.138 51.0938 125.694 52.6311 125.374C53.3753 126.865 54.2416 127.776 54.6442 127.592C55.494 126.696 56.0883 125.585 56.3645 124.376C58.585 123.674 60.1101 122.738 60.1956 122.294C60.281 121.851 59.1829 121.259 57.3284 120.668Z" fill="url(#paint18_linear_9943_64020)"/>
<path d="M20.9954 143.199C21.093 146.524 20.1054 149.789 18.1879 152.478L22.3344 155.566C24.9252 151.935 26.2622 147.528 26.1353 143.037L20.9954 143.199Z" fill="#FFA256"/>
<path d="M9.09668 117.023C6.69745 116.465 4.38173 115.521 2.22079 114.22L0.00452447 119.976C2.36725 121.387 4.89938 122.403 7.52125 122.99C8.04195 121.076 8.56263 119.027 9.09668 117.023Z" fill="url(#paint19_linear_9943_64020)"/>
<path d="M54.8884 159.238L59.0557 154.896L56.3791 152.42L52.2119 156.762L54.8884 159.238Z" fill="url(#paint20_linear_9943_64020)"/>
<path fill-rule="evenodd" clip-rule="evenodd" d="M136.503 74.5007C136.297 73.4735 136.913 72.4464 137.939 72.0356L161.537 65.0511C162.563 64.8456 163.589 65.4619 164 66.4891L168.514 82.3069C168.719 83.334 168.104 84.3611 167.078 84.772L143.479 91.7564C142.453 91.9619 141.427 91.3456 141.017 90.3184L136.503 74.5007ZM138.76 74.2953C139.17 73.8844 139.786 73.679 140.196 73.8844L153.124 80.2526L160.511 67.927C160.922 67.5162 161.537 67.3108 161.742 67.7216C162.358 68.1325 162.358 68.7487 162.153 69.1596L154.15 82.1014C153.945 82.5123 153.329 82.7177 152.919 82.5123L139.17 75.7332C138.76 75.3224 138.555 74.7061 138.76 74.2953ZM125.832 83.7427C125.627 83.3318 125.627 82.921 126.038 82.7156L130.552 80.045C130.962 79.8396 131.373 80.045 131.578 80.4559C131.783 80.8667 131.783 81.2776 131.373 81.483L126.858 84.1536C126.448 84.1536 126.038 84.1536 125.832 83.7427ZM38.8265 217.481C38.8265 217.584 38.8778 217.686 38.9291 217.789C38.9804 217.892 39.0317 217.995 39.0317 218.097C39.3589 218.916 39.8165 219.343 40.3006 219.795C40.4237 219.91 40.5485 220.027 40.6733 220.151C41.4941 220.768 42.3149 221.179 43.3409 221.59L43.9565 221.795C45.5982 222 47.2398 222.206 48.8814 222.206C50.7282 222.206 52.575 222.206 54.2166 221.795C57.4998 221.384 58.5258 220.357 58.3206 218.508C57.9102 217.07 57.0894 215.632 56.0634 214.605C54.8322 213.167 54.2166 211.524 54.0114 209.675C54.0114 207.621 54.627 205.772 55.653 203.923C57.0894 201.869 58.3206 199.814 59.5518 197.76C61.6039 194.473 61.6039 187.694 59.757 179.888C59.757 179.683 64.6819 185.229 63.4507 195.706C64.5931 195.216 64.9567 195.115 65.7804 194.888L65.7826 194.887C65.8746 194.862 65.9724 194.835 66.0776 194.806C66.2141 194.768 66.3633 194.726 66.5287 194.679C66.6641 194.649 66.7984 194.618 66.9318 194.588C67.0817 194.555 67.2304 194.521 67.3781 194.488C68.8917 194.145 70.3047 193.825 71.8639 193.652V194.268C71.2483 200.02 71.0431 205.772 71.4535 211.524C71.2483 213.783 71.6587 216.248 72.6847 218.303C73.7107 220.357 75.5576 221.384 78.8408 221.59L80.4824 221.795C80.7508 221.81 81.0334 221.827 81.327 221.845C85.0735 222.072 90.6267 222.408 91.7685 219.741C91.9737 219.33 91.9737 218.919 91.9737 218.303C91.9737 217.892 91.9737 217.481 91.7685 216.865C91.3581 215.838 90.7425 215.016 90.1268 214.4C89.7164 213.783 89.306 213.167 88.8956 212.345C88.8702 212.243 88.8447 212.144 88.8196 212.048L88.791 211.938C88.6261 211.306 88.4852 210.766 88.4852 210.086C88.28 204.539 88.4852 199.198 89.1008 193.652C89.5112 185.64 93.2049 180.915 97.3089 175.779L97.5552 175.471C100.776 171.444 104.347 166.977 106.748 160.167C106.748 160.064 106.799 159.962 106.851 159.859C106.902 159.756 106.953 159.654 106.953 159.551L107.774 158.729C113.315 154.21 119.676 147.636 120.291 141.884C120.291 140.446 120.907 139.214 121.728 138.187C122.959 136.543 124.395 135.311 126.037 134.283L127.063 133.667C127.19 133.667 127.238 133.589 127.305 133.48C127.347 133.413 127.395 133.335 127.473 133.256V132.845C127.473 132.64 127.268 132.435 127.268 132.435C127.063 132.229 127.063 132.229 126.858 132.229H126.653C125.011 132.229 122.754 132.845 121.317 133.462C121.082 133.54 120.907 133.589 120.757 133.63L120.757 133.63C120.609 133.671 120.486 133.705 120.355 133.754C122.74 132.654 125.254 130.138 126.242 129.148C129.115 126.066 130.141 121.342 130.141 116.822C129.936 111.892 128.294 106.962 125.627 102.853C125.011 101.826 124.395 100.799 123.78 99.5665C123.164 98.3339 122.549 97.3068 121.933 96.2797C121.523 95.2525 121.317 94.6363 121.523 94.2254C121.728 93.8145 122.343 93.4037 123.369 93.4037H123.78C123.985 93.4037 124.19 93.1983 124.19 93.1983C124.19 93.1983 124.395 92.7874 124.395 92.582V92.1711C124.395 90.9386 124.19 89.9115 123.78 88.6789C123.369 87.6518 122.754 86.6246 121.933 85.8029L121.523 85.3921H120.907C119.676 85.3921 118.445 85.8029 117.213 86.2138C115.572 86.8301 114.135 87.8572 113.315 89.2952C112.494 90.9386 112.083 92.582 112.289 94.4308C112.452 95.4117 112.745 96.2626 113.065 97.1903L113.065 97.1906C113.147 97.4285 113.231 97.6715 113.315 97.9231C113.52 98.3339 113.725 98.7448 113.725 99.1556C115.777 103.059 118.239 109.016 118.445 113.535C118.855 117.439 117.008 120.314 110.442 121.136L108.8 121.342C107.626 121.493 106.438 121.61 105.265 121.725C100.079 122.234 95.175 122.716 92.9997 126.066C92.8971 126.169 92.8458 126.272 92.7945 126.375C92.7432 126.477 92.6919 126.58 92.5893 126.683C94.6413 127.299 97.1037 129.148 98.5401 131.818C96.6933 129.353 93.6153 127.915 92.1789 127.504C88.28 127.094 85.6124 128.532 83.3552 130.175C82.3292 130.997 81.3032 132.024 80.6876 133.256C79.2512 135.516 78.6356 138.187 78.6356 140.857V141.473V141.884V142.706C78.6356 143.117 78.8408 143.733 78.8408 143.733C79.8668 148.458 86.0228 159.962 99.1557 160.578C93.8205 161.605 80.4824 159.345 75.3523 145.993C70.4275 148.047 66.1183 149.485 60.9883 150.923C46.6242 155.237 33.0809 159.345 31.8497 173.52C31.8497 173.607 31.8497 173.657 31.8339 173.702C31.8126 173.762 31.7625 173.812 31.6448 173.93L31.6445 173.931C30.0029 176.601 28.7716 179.477 28.156 182.559C27.5404 186.051 27.5404 189.543 28.156 193.035C28.156 193.241 28.156 193.241 28.3612 193.241L28.5664 193.446L28.7716 193.652H29.182H29.5924C29.7977 193.652 30.0029 193.446 30.0029 193.241C30.2081 192.83 30.2081 192.624 30.2081 192.214C29.7976 189.132 30.2081 186.462 30.8237 183.38V183.175C30.9909 182.17 31.2945 181.439 31.6232 180.646C31.6978 180.466 31.7738 180.283 31.8497 180.093C31.8497 179.991 31.901 179.939 31.9523 179.888C32.0036 179.837 32.0549 179.785 32.0549 179.683C32.6705 183.586 34.1069 187.283 36.3641 190.57C37.1849 192.008 38.0057 193.446 38.6213 194.884C39.2369 196.322 39.8525 199.198 39.0317 202.279C37.8005 206.388 37.5953 209.675 37.5953 210.907C37.6537 211.141 37.6954 211.591 37.7489 212.167C37.8835 213.616 38.0923 215.864 38.8265 217.481ZM120.086 133.873C120.176 133.835 120.265 133.796 120.355 133.754C120.272 133.786 120.185 133.823 120.086 133.873ZM36.5701 203.101C34.7233 208.031 35.9545 214.4 36.7753 217.07C35.3389 216.865 33.9025 216.659 32.6713 216.248C30.2089 215.427 28.5673 213.989 29.5933 211.729C30.2089 209.264 33.4921 202.896 37.5961 196.117C37.8013 197.555 37.8013 200.02 36.5701 203.101ZM101.413 174.545C100.797 175.367 100.181 176.189 99.3605 177.011C98.4843 177.888 97.3087 179.364 95.9616 181.056L95.9611 181.057C95.731 181.346 95.4959 181.641 95.2565 181.941C91.3701 187.06 90.746 192.996 90.3356 196.899L90.3316 196.937C92.9993 200.635 94.6409 203.921 95.0513 205.77C95.0708 205.829 95.0904 205.886 95.1098 205.941C95.1328 206.007 95.1556 206.071 95.1779 206.133C95.3332 206.567 95.4617 206.926 95.4617 207.414V209.057C95.3591 209.365 95.3078 209.622 95.2565 209.879C95.2052 210.135 95.1539 210.392 95.0513 210.7C94.8461 211.522 94.6409 212.549 94.8461 213.371C95.0513 214.398 95.6669 215.22 96.2825 215.836C97.5137 217.274 99.1553 218.301 100.797 218.712C102.849 219.534 105.106 219.739 107.363 219.739C108.8 219.739 110.236 219.534 111.467 218.712C112.083 218.301 112.493 217.89 112.699 217.274C112.904 216.658 112.904 216.041 112.904 215.425V215.22C112.493 213.782 112.288 212.138 112.288 210.7C112.288 209.468 112.288 208.03 112.493 206.797C112.904 204.538 112.699 201.867 112.083 199.607C111.262 196.937 110.031 194.472 108.389 192.417C107.649 191.12 106.742 189.991 105.969 189.028L105.961 189.018L105.814 188.835L105.722 188.72L105.106 188.104L104.886 187.814C101.139 182.881 99.3994 180.591 101.413 174.545ZM130.961 84.7739C130.551 84.9793 130.346 85.3902 130.551 85.801C130.551 86.2119 130.961 86.4173 131.577 86.2119L134.86 84.9793C135.27 84.7739 135.476 84.363 135.27 83.9522C135.065 83.5413 134.655 83.3359 134.244 83.5413L130.961 84.7739ZM128.294 90.5203C128.294 90.1095 128.499 89.6986 128.909 89.6986L134.244 88.8769C134.655 88.8769 135.065 89.0823 135.065 89.4932C135.065 89.9041 134.86 90.3149 134.45 90.3149L129.114 91.1366C128.909 91.1366 128.499 90.9312 128.294 90.5203Z" fill="url(#paint21_linear_9943_64020)"/>
<path d="M415.739 112.352V87.7422L436.088 100.333V124.371L415.739 112.352Z" fill="#F67A1F"/>
<path d="M460.508 112.352V87.7422L440.158 100.333V124.371L460.508 112.352Z" fill="#F67A1F"/>
<path d="M438.422 97.9114L415.739 84.6842L438.422 71.457L460.508 84.6842L438.422 97.9114Z" fill="#F67A1F"/>
<path fill-rule="evenodd" clip-rule="evenodd" d="M438.122 53.0803V68.6746C421.53 68.6753 408.08 82.1261 408.08 98.7183C408.08 115.311 421.53 128.761 438.122 128.762V132.555C423.612 132.258 417.934 128.974 413.165 126.215C412.617 125.898 412.082 125.589 411.546 125.291C419.057 135.113 432.922 137.035 438.122 136.831V143.789L417.323 155.922L398.835 145.522V120.678L378.035 109.701V87.746L398.835 76.1908V51.9247L417.323 40.9473L438.122 53.0803ZM438.124 136.831V143.789L458.924 155.922L477.412 145.522V120.678L498.211 109.701V87.746L477.412 76.1908V51.9247L458.924 40.9473L438.124 53.0803V68.6746C454.717 68.6748 468.167 82.1258 468.167 98.7183C468.167 115.311 454.717 128.762 438.124 128.762V132.555C452.634 132.258 458.312 128.974 463.081 126.215C463.629 125.898 464.164 125.589 464.7 125.291C457.19 135.112 443.325 137.035 438.124 136.831Z" fill="#233565"/>
<path d="M256.44 329.999C363.955 329.999 451.114 325.525 451.114 320.006C451.114 314.488 363.955 310.014 256.44 310.014C148.924 310.014 61.7651 314.488 61.7651 320.006C61.7651 325.525 148.924 329.999 256.44 329.999Z" fill="#CBD1BD"/>
<path d="M254.875 223.932L263.303 261.614L80.9083 278.108L77.6577 263.661L254.875 223.932Z" fill="#363636"/>
<path d="M254.875 223.929L263.302 261.612L435.464 198.767L432.213 184.32L254.875 223.929Z" fill="#363636"/>
<path d="M86.6872 242.359H71.8789V278.236H86.6872V242.359Z" fill="#363636"/>
<path d="M83.8031 281.776C89.9522 279.247 92.8866 272.211 90.3573 266.062C87.828 259.913 80.7927 256.979 74.6437 259.508C68.4946 262.037 65.5602 269.073 68.0895 275.222C70.6188 281.371 77.654 284.305 83.8031 281.776Z" fill="#D9DADB"/>
<path d="M86.3254 270.648C86.3254 274.501 83.1952 277.751 79.2223 277.751C75.3697 277.751 72.1191 274.621 72.1191 270.648C72.1191 266.796 75.2493 263.545 79.2223 263.545C83.0748 263.545 86.3254 266.796 86.3254 270.648Z" fill="#4B4B4B"/>
<path d="M82.7142 270.648C82.7142 272.574 81.1491 274.139 79.2228 274.139C77.2965 274.139 75.7314 272.574 75.7314 270.648C75.7314 268.721 77.2965 267.156 79.2228 267.156C81.1491 267.156 82.7142 268.721 82.7142 270.648Z" fill="#363636"/>
<path d="M124.731 249.824H33.7145C18.6655 249.824 6.50586 237.664 6.50586 222.615H152.06C151.94 237.664 139.78 249.824 124.731 249.824Z" fill="#F8C600"/>
<path d="M154.95 224.66H3.49626C1.56998 224.66 0.00488281 223.095 0.00488281 221.169C0.00488281 219.243 1.56998 217.678 3.49626 217.678H154.95C156.876 217.678 158.441 219.243 158.441 221.169C158.441 223.095 156.876 224.66 154.95 224.66Z" fill="#F0AC00"/>
<path d="M441.243 163.135H426.435V199.012H441.243V163.135Z" fill="#363636"/>
<path d="M445.679 193.323C446.741 186.76 442.281 180.578 435.717 179.516C429.153 178.454 422.971 182.914 421.909 189.478C420.847 196.042 425.307 202.224 431.871 203.286C438.435 204.348 444.617 199.887 445.679 193.323Z" fill="#D9DADB"/>
<path d="M433.778 198.527C437.701 198.527 440.882 195.346 440.882 191.423C440.882 187.501 437.701 184.32 433.778 184.32C429.855 184.32 426.675 187.501 426.675 191.423C426.675 195.346 429.855 198.527 433.778 198.527Z" fill="#4B4B4B"/>
<path d="M433.779 194.916C435.708 194.916 437.271 193.353 437.271 191.425C437.271 189.497 435.708 187.934 433.779 187.934C431.851 187.934 430.288 189.497 430.288 191.425C430.288 193.353 431.851 194.916 433.779 194.916Z" fill="#363636"/>
<path d="M479.287 170.593H388.15C373.101 170.593 360.941 158.434 360.941 143.385H506.495C506.495 158.434 494.336 170.593 479.287 170.593Z" fill="#F8C600"/>
<path d="M509.506 145.434H358.052C356.126 145.434 354.561 143.869 354.561 141.943C354.561 140.016 356.126 138.451 358.052 138.451H509.506C511.432 138.451 512.997 140.016 512.997 141.943C512.997 143.869 511.432 145.434 509.506 145.434Z" fill="#F0AC00"/>
<path d="M282.926 303.749H235.371V220.317C235.371 207.194 245.965 196.6 259.088 196.6C272.211 196.6 282.805 207.194 282.805 220.317V303.749H282.926Z" fill="#4B4B4B"/>
<path d="M310.255 316.271H208.042C210.69 308.686 217.914 303.75 225.86 303.75H292.437C300.382 303.75 307.486 308.806 310.255 316.271Z" fill="#4B4B4B"/>
<path d="M259.089 251.26C265.738 251.26 271.128 245.87 271.128 239.221C271.128 232.572 265.738 227.182 259.089 227.182C252.439 227.182 247.049 232.572 247.049 239.221C247.049 245.87 252.439 251.26 259.089 251.26Z" fill="#D9DADB"/>
<path d="M259.088 246.325C263.011 246.325 266.191 243.145 266.191 239.222C266.191 235.299 263.011 232.119 259.088 232.119C255.165 232.119 251.985 235.299 251.985 239.222C251.985 243.145 255.165 246.325 259.088 246.325Z" fill="#4B4B4B"/>
<path d="M259.088 242.709C261.016 242.709 262.579 241.146 262.579 239.218C262.579 237.29 261.016 235.727 259.088 235.727C257.16 235.727 255.597 237.29 255.597 239.218C255.597 241.146 257.16 242.709 259.088 242.709Z" fill="#363636"/>
<defs>
<linearGradient id="paint0_linear_9943_64020" x1="182.983" y1="62.8436" x2="187.955" y2="68.4817" gradientUnits="userSpaceOnUse">
<stop offset="0.000133771" stop-color="#8A1050"/>
<stop offset="1" stop-color="#B53378"/>
</linearGradient>
<linearGradient id="paint1_linear_9943_64020" x1="96.608" y1="70.3642" x2="100.349" y2="73.7576" gradientUnits="userSpaceOnUse">
<stop offset="0.000133771" stop-color="#8A1050"/>
<stop offset="1" stop-color="#B53378"/>
</linearGradient>
<linearGradient id="paint2_linear_9943_64020" x1="147.752" y1="164.335" x2="153.994" y2="171.129" gradientUnits="userSpaceOnUse">
<stop offset="0.000133771" stop-color="#8A1050"/>
<stop offset="1" stop-color="#B53378"/>
</linearGradient>
<linearGradient id="paint3_linear_9943_64020" x1="86.3795" y1="31.5204" x2="90.1206" y2="34.9138" gradientUnits="userSpaceOnUse">
<stop offset="0.000133771" stop-color="#8A1050"/>
<stop offset="1" stop-color="#B53378"/>
</linearGradient>
<linearGradient id="paint4_linear_9943_64020" x1="146.614" y1="84.9504" x2="156.265" y2="91.1106" gradientUnits="userSpaceOnUse">
<stop stop-color="#BFDE76"/>
<stop offset="1" stop-color="#DAF59D"/>
</linearGradient>
<linearGradient id="paint5_linear_9943_64020" x1="35.5447" y1="1.49716" x2="41.6211" y2="1.85415" gradientUnits="userSpaceOnUse">
<stop stop-color="#260E1B"/>
<stop offset="1" stop-color="#563748"/>
</linearGradient>
<linearGradient id="paint6_linear_9943_64020" x1="188.666" y1="7.26684" x2="198.316" y2="13.427" gradientUnits="userSpaceOnUse">
<stop stop-color="#BFDE76"/>
<stop offset="1" stop-color="#DAF59D"/>
</linearGradient>
<linearGradient id="paint7_linear_9943_64020" x1="92.0626" y1="194.406" x2="100.126" y2="202.901" gradientUnits="userSpaceOnUse">
<stop stop-color="#260E1B"/>
<stop offset="1" stop-color="#563748"/>
</linearGradient>
<linearGradient id="paint8_linear_9943_64020" x1="155.489" y1="130.916" x2="161.296" y2="132.71" gradientUnits="userSpaceOnUse">
<stop stop-color="#260E1B"/>
<stop offset="1" stop-color="#563748"/>
</linearGradient>
<linearGradient id="paint9_linear_9943_64020" x1="176.165" y1="100.242" x2="187.461" y2="108.253" gradientUnits="userSpaceOnUse">
<stop stop-color="#BFDE76"/>
<stop offset="1" stop-color="#DAF59D"/>
</linearGradient>
<linearGradient id="paint10_linear_9943_64020" x1="78.4239" y1="167.9" x2="89.7201" y2="175.912" gradientUnits="userSpaceOnUse">
<stop stop-color="#BFDE76"/>
<stop offset="1" stop-color="#DAF59D"/>
</linearGradient>
<linearGradient id="paint11_linear_9943_64020" x1="31.8268" y1="173.617" x2="34.4841" y2="176.162" gradientUnits="userSpaceOnUse">
<stop stop-color="#BFDE76"/>
<stop offset="1" stop-color="#DAF59D"/>
</linearGradient>
<linearGradient id="paint12_linear_9943_64020" x1="63.6489" y1="96.2239" x2="72.7078" y2="101.284" gradientUnits="userSpaceOnUse">
<stop stop-color="#BFDE76"/>
<stop offset="1" stop-color="#DAF59D"/>
</linearGradient>
<linearGradient id="paint13_linear_9943_64020" x1="44.3287" y1="82.8943" x2="54.8021" y2="91.1699" gradientUnits="userSpaceOnUse">
<stop stop-color="#260E1B"/>
<stop offset="1" stop-color="#563748"/>
</linearGradient>
<linearGradient id="paint14_linear_9943_64020" x1="45.4648" y1="47.8103" x2="55.2267" y2="55.5582" gradientUnits="userSpaceOnUse">
<stop offset="0.000133771" stop-color="#8A1050"/>
<stop offset="1" stop-color="#B53378"/>
</linearGradient>
<linearGradient id="paint15_linear_9943_64020" x1="119.338" y1="183.134" x2="123.227" y2="188.255" gradientUnits="userSpaceOnUse">
<stop stop-color="#260E1B"/>
<stop offset="1" stop-color="#563748"/>
</linearGradient>
<linearGradient id="paint16_linear_9943_64020" x1="90.2985" y1="84.2776" x2="107.07" y2="89.1457" gradientUnits="userSpaceOnUse">
<stop offset="0.000133771" stop-color="#8A1050"/>
<stop offset="1" stop-color="#B53378"/>
</linearGradient>
<linearGradient id="paint17_linear_9943_64020" x1="90.2995" y1="94.2995" x2="100.286" y2="100.338" gradientUnits="userSpaceOnUse">
<stop offset="0.000133771" stop-color="#8A1050"/>
<stop offset="1" stop-color="#B53378"/>
</linearGradient>
<linearGradient id="paint18_linear_9943_64020" x1="49.3649" y1="117.984" x2="59.7067" y2="128.119" gradientUnits="userSpaceOnUse">
<stop stop-color="#260E1B"/>
<stop offset="1" stop-color="#563748"/>
</linearGradient>
<linearGradient id="paint19_linear_9943_64020" x1="0.00452525" y1="116.019" x2="8.86951" y2="122.486" gradientUnits="userSpaceOnUse">
<stop stop-color="#BFDE76"/>
<stop offset="1" stop-color="#DAF59D"/>
</linearGradient>
<linearGradient id="paint20_linear_9943_64020" x1="52.7609" y1="157.269" x2="58.6735" y2="157.543" gradientUnits="userSpaceOnUse">
<stop stop-color="#BFDE76"/>
<stop offset="1" stop-color="#DAF59D"/>
</linearGradient>
<linearGradient id="paint21_linear_9943_64020" x1="27.6943" y1="65.0117" x2="183.947" y2="205.027" gradientUnits="userSpaceOnUse">
<stop stop-color="#A0CA3F"/>
<stop offset="1" stop-color="#7B9C30"/>
</linearGradient>
</defs>
</svg>
