<svg width="507" height="310" viewBox="0 0 507 310" fill="none" xmlns="http://www.w3.org/2000/svg">
<path fill-rule="evenodd" clip-rule="evenodd" d="M55.0375 64.1448C88.8294 37.53 143.341 36.103 190.802 24.7529C232.456 14.7917 272.05 -3.67547 315.265 1.91268C359.144 7.58667 392.311 31.6458 423.308 54.8182C455.422 78.826 485.373 104.685 496.157 137.143C508.008 172.811 514.992 214.029 486.235 244.214C457.903 273.951 400.128 275.812 352.87 287.539C310.523 298.046 270 309.879 225.225 308.977C172.12 307.908 115.221 306.432 74.2756 281.93C30.6265 255.81 4.20678 215.41 0.598135 174.558C-2.9344 134.568 17.5789 93.6473 55.0375 64.1448Z" fill="#E1F2BA" fill-opacity="0.2"/>
</svg>
