<svg width="228" height="369" fill="none" xmlns="http://www.w3.org/2000/svg"><g clip-path="url(#clip0_7478_49580)" fill="#95165B" fill-opacity=".2"><path d="M108.494 20.587c2.859.296 5.741.614 8.589.716 2.193.08 2.664-1.398 2.675-3.26a5.336 5.336 0 011.047-3.48 5.433 5.433 0 013.042-2.026 5.484 5.484 0 013.651.349 5.404 5.404 0 012.594 2.566.506.506 0 00.942-.25 3.75 3.75 0 011.016-2.343 3.825 3.825 0 012.29-1.168c2.067-.409 4.26.455 6.155 1.136a.543.543 0 00.62-.277.53.53 0 00.057-.234c0-4.374 2.124-9.51 6.671-10.953 4.122-1.306 9.875 2.273 8.646 6.942a.561.561 0 00.271.625.58.58 0 00.682-.08c2.492-2.272 7.257.467 6.545 3.727-.092.42.379.886.792.603a4.934 4.934 0 013.554-.748 4.9 4.9 0 013.095 1.884.534.534 0 00.7.182l3.249-1.978-.734-.295c1.274 3.33 5.741.705 7.98.205a7.24 7.24 0 012.977.122 7.197 7.197 0 012.669 1.31 7.1 7.1 0 011.899 2.272c.466.88.739 1.848.802 2.84a.56.56 0 00.56.549.567.567 0 00.278-.072c2.297-1.613 5.925-3.568 8.302-1.034.918.977 2.962 4 4.329 1.875.229-.364-.276-.705-.575-.443-.907.784-2.56-1.614-3.054-2.125a4.297 4.297 0 00-2.583-1.34c-2.389-.307-4.983.954-6.981 2.113l.838.477c.126-3.534-2.744-6.624-6.074-7.544a7.85 7.85 0 00-4.983.375c-1.309.488-4.662 2.124-5.409.159a.495.495 0 00-.295-.324.509.509 0 00-.439.028l-3.319 1.966.701.182a5.955 5.955 0 00-3.708-2.36 6 6 0 00-4.33.815l.793.602c.976-4.352-5.076-7.806-8.394-4.806l.953.545c1.321-5.067-4.329-9.384-9.117-8.532-5.58.988-8.405 7.157-8.382 12.236l.678-.511c-2.411-.932-5.156-1.932-7.693-.875a4.588 4.588 0 00-2.191 1.653 4.511 4.511 0 00-.84 2.596l.941-.25a6.33 6.33 0 00-1.997-2.388 6.448 6.448 0 00-6.018-.814 6.385 6.385 0 00-2.571 1.77 6.631 6.631 0 00-1.401 2.67c-.287 1.137.528 3.784-1.022 4.216a6.694 6.694 0 01-1.952-.091l-2.296-.16c-1.711-.124-3.445-.158-5.144-.215-.437 0-.414.613 0 .659l-.081.011zm12.273 4.488c6.349.227 12.814.33 19.164 0a.3.3 0 00.211-.087.293.293 0 000-.417.3.3 0 00-.211-.087c-6.35-.352-12.815-.25-19.164 0a.318.318 0 000 .625v-.034zm21.609-.523c2.618.204 5.248.204 7.866 0a.318.318 0 100-.636 50.751 50.751 0 00-7.866 0 .29.29 0 00-.165.099.282.282 0 00.165.458v.08zm13.779.068c2.457.091 4.914 0 7.371 0 2.458 0 4.915.091 7.372.114 4.914 0 9.829 0 14.743-.17.074 0 .146-.03.199-.082a.275.275 0 000-.394.285.285 0 00-.199-.081c-4.914-.182-9.829-.216-14.743-.17-2.457 0-4.903.159-7.372.113-2.468-.045-4.914-.102-7.371 0a.347.347 0 100 .693v-.023zm33.803 0c1.643.515 3.384.648 5.086.386.311 0 .242-.568-.068-.545a12.955 12.955 0 01-4.834-.477c-.414-.125-.586.511-.173.636h-.011zm9.922.477a27.2 27.2 0 002.951 0 .3.3 0 100-.602 27.2 27.2 0 00-2.951 0 .336.336 0 00-.24.572c.064.063.15.098.24.098v-.068zm8.21-.579a1.408 1.408 0 001.917-.659c.115-.273-.31-.489-.493-.284a1.005 1.005 0 01-1.149.318c-.356-.148-.608.455-.264.614l-.011.011zm-103.052-.386c2.09 0 4.432.443 6.487 0a.35.35 0 000-.682c-2.055-.443-4.397 0-6.487 0a.342.342 0 00-.345.34.342.342 0 00.345.342z"/><path d="M109.309 21.587c2.359.56 4.765.903 7.188 1.023 1.481.068 3.789.42 4.845-.932a4.965 4.965 0 00.724-2.272 5.157 5.157 0 011.389-2.886c2.032-2.034 4.857-1.624 6.889.068a.232.232 0 00.301-.02.226.226 0 00.021-.298c-2.388-2.772-7.027-1.806-8.531 1.352a10.947 10.947 0 00-.632 2.557 2.261 2.261 0 01-.495 1.212 2.302 2.302 0 01-1.089.742 6.965 6.965 0 01-1.826.125 42.443 42.443 0 01-8.726-.943c-.207 0-.299.261-.092.318l.034-.046z"/><path d="M128.415 16.645c.112.345.352.636.671.813.32.177.696.227 1.052.141 1.01-.193 1.538-1.238 1.917-2.068.135-.469.369-.904.685-1.278a3.513 3.513 0 011.152-.892 7.323 7.323 0 012.653-.33 35.023 35.023 0 016.005.49.252.252 0 00.298-.296 8.422 8.422 0 01.711-5.038 8.538 8.538 0 013.492-3.733 8.496 8.496 0 015.075-1.284 4.13 4.13 0 011.658.38 4.046 4.046 0 012.181 2.488c.167.542.216 1.113.145 1.676a.17.17 0 00.125.17.174.174 0 00.197-.079 3.864 3.864 0 00-.246-2.664 3.92 3.92 0 00-1.924-1.88 7.547 7.547 0 00-6.247.136c-3.823 1.648-6.556 5.783-5.637 9.941l.298-.295a24.884 24.884 0 00-8.118-.375 3.274 3.274 0 00-1.235.418 3.23 3.23 0 00-.969.866 8.755 8.755 0 00-.758 1.511c-.356.795-2.113 3.17-2.859 1.068-.069-.204-.402-.114-.333.09l.011.024z"/><path d="M122.914 24.769c3.272 1.306 6.085-1.296 8.037-3.602 2.538-3.045 5.213-5.738 9.45-5.874a8.639 8.639 0 004.226-.693c1.377-.818 1.86-2.431 2.537-3.783.976-1.932 2.297-3.92 4.444-4.693a3.761 3.761 0 014.379 1.062c.34.415.585.897.719 1.415.057.239.459.193.436-.057-.253-3.113-4.088-3.806-6.43-2.579a9.118 9.118 0 00-3.582 3.863c-1.034 1.886-1.55 4.318-3.996 4.818-1.791.363-3.628 0-5.408.568a11.61 11.61 0 00-4.375 2.613c-2.859 2.613-5.534 8.305-10.334 6.669-.183-.068-.252.216-.08.284l-.023-.011z"/><path d="M148.428 13.508a8.468 8.468 0 014.937-3.93c2.618-.648 4.364.658 6.465 1.976 3.111 1.954 6.694 3.59 10.46 3.034.287 0 .218-.546-.069-.511a13.253 13.253 0 01-7.268-1.398c-1.986-.943-3.697-2.431-5.741-3.295-3.686-1.59-7.211.932-9.105 3.943-.115.181.172.352.298.17l.023.011z"/><path d="M154.893 12.123c2.193-.546 4.259.363 6.223 1.25a24.587 24.587 0 004.926 1.772c3.582.761 7.015.17 10.529-.636 3.513-.807 7.084-1.489 10.334.181a6.056 6.056 0 011.905 1.396 5.98 5.98 0 011.218 2.013c.677 2.08-.081 4.25-.815 6.192-.081.216.275.375.378.16 1.482-3 1.964-6.704-.815-9.09-2.365-2.057-5.741-2.409-8.715-2-4.661.636-8.933 2.352-13.778 1.409-3.812-.75-7.555-3.965-11.586-2.909a.17.17 0 00-.1.08.163.163 0 00-.014.125c.012.042.04.078.079.1a.169.169 0 00.127.014l.104-.057zm36.387 10.271c.941-.875 1.435-2.273 2.836-2.488a10.544 10.544 0 014.501.272c2.802.83 4.845 3.409 7.371 4.795a.188.188 0 00.228-.053.183.183 0 00-.009-.231 36.152 36.152 0 00-4.123-3.272 9.506 9.506 0 00-3.985-1.991 9.57 9.57 0 00-4.465.037c-1.263.465-1.665 1.806-2.549 2.703a.178.178 0 00-.036.053.162.162 0 000 .123.166.166 0 00.088.087.167.167 0 00.125 0 .166.166 0 00.052-.035h-.034z"/><path d="M194.815 20.815a11.08 11.08 0 016.028 2.636c1.24 1.136 2.296 1.818 3.996 1.295a.182.182 0 100-.364 5.682 5.682 0 01-2.297-.374 7.629 7.629 0 01-1.148-.977 11.22 11.22 0 00-1.871-1.33 10.34 10.34 0 00-4.593-1.238c-.23 0-.218.33 0 .352h-.115zM52.22 226.095a21.367 21.367 0 00.435-10.225c-.757-3.511-2.962-6.738-3.25-10.339-.332-4.159 4.157-7.158 7.304-9.226 3.34-2.193 7.28-3.408 11.103-1.636 6.407 3.011 9.817 10.884 11.091 17.36a31.914 31.914 0 010 11.964c-.654 3.545-1.584 6.942-.746 10.544.31 1.352 2.297.772 2.09-.569-.942-4.93 1.228-9.816 1.435-14.77a33.535 33.535 0 00-1.653-11.838c-2.067-6.26-6.384-13.759-13.434-15.429a12.985 12.985 0 00-9.588 1.772c-2.905 1.682-6.476 4.193-8.382 6.988-2.124 3.101-1.068 6.726.207 9.93 1.986 4.976 3.203 9.725 2.158 15.099-.149.784 1.01 1.136 1.218.33l.011.045zm2.308 4.215c1.964-.772 3.445 2.738 4.272 3.965a14.684 14.684 0 002.928 3.182 12.973 12.973 0 007.91 3.101 1.08 1.08 0 001.047-.924 1.056 1.056 0 00-.162-.721 1.077 1.077 0 00-.597-.445c-4.513-1.136-7.303-2.67-9.932-6.544-1.401-2.068-3.33-4.204-5.982-2.795-.643.34-.196 1.477.505 1.193l.011-.012z"/><path d="M59.615 234.991c-4.593.841-9.76 3.192-12.63 7.01-.39.534.367 1.238.907.897 4.007-2.613 7.451-4.953 12.17-6.18 1.149-.296.644-1.92-.482-1.716l.035-.011zm-10.403 14.724c-1.895 7.419 2.985 14.872 4.983 21.814a70.852 70.852 0 012.434 12.361c.402 3.954-.195 8.294.758 12.135a.713.713 0 001.11.365.702.702 0 00.257-.365c1.148-3.409.447-7.669 0-11.214a85.529 85.529 0 00-1.964-11.135 95.894 95.894 0 00-3.651-11.225c-1.527-3.976-2.86-7.953-2.17-12.213.172-1.137-1.447-1.614-1.746-.478l-.011-.045z"/><path d="M50.417 260.543c-2.17-1.988-5.465-2.908-8.118-4.135-3.008-1.398-6.016-2.818-8.979-4.318a250.204 250.204 0 01-8.795-4.669 98.699 98.699 0 00-4.202-2.216c-2.17-1.068-2.653-2.352-2.297-4.794.896-5.954 6.304-11.362 9.726-16.088 4.133-5.681 8.186-11.362 12.274-17.043l-.896.512c4.914.17 2.63 6.578 1.458 8.975a53.556 53.556 0 00-3.111 7.828c-1.768 5.681-3.043 11.794-7.13 16.44-.804.909.516 2.273 1.343 1.33 5.35-5.851 6.223-13.77 8.956-20.883 1.332-3.408 4.225-7.089 3.536-10.998-.367-2.068-2.468-5.306-5.075-4.738-1.458.319-2.354 2.568-3.157 3.693l-4.536 6.362a1379.236 1379.236 0 00-8.703 12.385c-2.434 3.51-5.213 7.191-6.017 11.475a11.763 11.763 0 000 4.681c.39 1.749 2.297 2.511 3.755 3.408a140.33 140.33 0 0015.087 7.953 199.375 199.375 0 007.349 3.352c2.296.966 4.593 2.272 7.119 2.397a.573.573 0 00.546-.668.565.565 0 00-.144-.286l.011.045z"/><path d="M33.032 237.865c3.342.579 6.694.92 10.059 1.284 3.364.363 6.889 1.272 10.115.749.884-.147.69-1.34 0-1.59-2.893-1.045-6.568-.795-9.622-1.034-3.444-.273-6.889-.568-10.391-.602-.677 0-.861 1.068-.16 1.136v.057zm7.315-31.369c.586-3.511.92-7.033 1.31-10.555.172-1.556.218-2.965 2.365-2.67a10.51 10.51 0 012.02.761c1.31.489 4.088.989 4.835 2.273 1.664 2.885-3.273 3.579-4.765 5.044-1.987 1.954-1.608 6.544-4.731 7.203-.85.182-.62 1.432.195 1.455a4.091 4.091 0 002.367-.656 4.02 4.02 0 001.549-1.889c1.148-2.398 1.148-4.545 3.812-5.829 2.663-1.284 5.821-3.408 3.123-6.442-1.286-1.443-3.319-2.011-5.087-2.647-1.768-.636-4.363-2.272-6.097-1.023-1.424 1.034-1.286 3.409-1.435 4.92-.322 3.295-.666 6.578-.792 9.885 0 .727 1.148.92 1.309.17h.022zm65.701 51.354c1.929 3.534 2.687 7.953 3.376 11.884.367 2.102.7 4.204 1.148 6.295.149.818.471 1.693.551 2.522.161 1.636-.689 2.545-1.768 3.602-6.74 6.589-16.913 8.123-23.642 14.77l1.7.215a11.254 11.254 0 00-2.928-3.703v1.329a133.817 133.817 0 0119.175-17.338c1.01-.75 0-2.454-.999-1.693a130.797 130.797 0 00-19.52 17.713.948.948 0 000 1.329 9.879 9.879 0 012.4 3.409 1.15 1.15 0 001.28.445 1.16 1.16 0 00.42-.229c3.927-3.818 8.944-6.056 13.778-8.488 4.145-2.079 9.186-4.646 11.723-8.68 1.011-1.59.333-3.011-.069-4.703-.528-2.205-.884-4.443-1.274-6.681-.746-4.306-1.079-9.294-3.663-13.009a.964.964 0 00-1.283-.301.934.934 0 00-.359 1.255l-.046.057z"/><path d="M100.341 278.926c-.46-4.022-3.1-8.055-4.535-11.827-.747-1.977-1.436-3.977-1.987-6.011-.643-2.272-.838-4.737-1.492-7.033a.947.947 0 00-.4-.51.963.963 0 00-1.214.163.938.938 0 00-.246.597c-.265 4.261 1.607 9.01 3.111 12.941 1.504 3.931 3.043 8.59 5.546 12.009.333.455 1.297.387 1.217-.329zm-16.706 14.792a14.893 14.893 0 00-12.24-.34c-2.136.897-3.767 3.658-1.01 5.033 1.641.818 3.788.284 5.533.602 2.021.375 3.858 1.42 5.914 1.682 2.503.318 6.51-1.068 5.74-4.204a.807.807 0 00-1.447-.182c-1.652 2.522-3.593 2.454-6.314 1.556a20.598 20.598 0 00-5.5-1.261c-.47 0-3.537.432-2.411-.977.413-.522 2.296-.738 2.836-.852a21.38 21.38 0 018.244.545c.93.182 1.584-1.136.677-1.579l-.022-.023zm-26.639 2.239c-1.516.182-3.296.273-4.157 1.716a2.354 2.354 0 00.437 3.124l.746-1.795a153.024 153.024 0 00-23.068.443c-6.074.579-12.47 1-15.719 6.817-.356.636.517 1.363 1.045.795 4.811-5.101 11.482-5.283 18.107-5.76a166.067 166.067 0 0119.577-.216 1.062 1.062 0 00.97-.654 1.048 1.048 0 00-.223-1.141c-.816-.659 2.296-2.022 2.549-2.181.482-.307.356-1.262-.322-1.137l.058-.011zm-42.689 12.736a88.985 88.985 0 005.74 23.985c2.848 7.805 5.742 15.644 9.117 23.234.62 1.375 2.664.182 2.044-1.136-3.364-7.453-7.256-14.645-9.955-22.383a121.076 121.076 0 01-5.603-23.654c-.103-.807-1.39-.864-1.32 0l-.023-.046z"/><path d="M72.198 299.127a78.549 78.549 0 01-25.537 4.306c-5.27 0-13.112.489-14.249 7.033-.597 3.408 1.642 7.43 2.744 10.577 1.424 4.091 2.745 8.226 4.065 12.35 2.744 8.556 5.316 17.213 8.279 25.712.355 1.033 1.986.602 1.664-.455-2.365-7.635-5.086-15.19-7.635-22.723-2.48-7.385-5.535-14.884-7.234-22.484-2.147-9.646 12.435-7.817 17.947-8.169a62.257 62.257 0 0020.45-4.965c.677-.296.194-1.421-.506-1.136l.011-.046z"/><path d="M52.127 359.9c1.573-7.317 1.883-14.963 2.606-22.394.412-3.614.634-7.247.666-10.884 0-3.17 0-6.976-1.4-9.873a1.15 1.15 0 00-1.227-.423 1.147 1.147 0 00-.84.979c.091 3.409 1.056 6.817 1.056 10.226 0 3.408-.31 6.953-.608 10.418-.632 7.204-1.723 14.52-1.54 21.758 0 .716 1.15.92 1.298.17l-.011.023z"/><path d="M53.965 321.77c9.851 2.773 19.715-4.317 29.28-5.68 2.824-.409 5.671-.557 8.507-.887 1.94-.227 4.111-.352 5.742-1.533 2.755-2 3.111-6.397 1.687-9.249a.805.805 0 00-1.195-.188.797.797 0 00-.251.37c-.299 1.557 0 3.147-.322 4.704-.563 2.908-3.146 3.204-5.66 3.499-4.387.523-8.807.67-13.113 1.75-8.302 2.079-15.604 6.192-24.434 5.499-1.022-.08-1.148 1.454-.241 1.727v-.012z"/><path d="M87.78 297.832a16.302 16.302 0 018.22 4.385c1.24 1.33 2.125 4.704 4.329 4.545.238-.008.467-.089.656-.231.19-.143.33-.34.401-.564.516-2.761-.471-5.056-.999-7.738-.337-1.603-.31-3.26.08-4.851.356-1.386 1.148-2.613 1.424-4.011.057-.216.04-.444-.047-.651a1.04 1.04 0 00-1.675-.337c-1.86 1.659-2.297 4.624-2.297 6.999 0 3.408 2.297 6.714 1.378 10.02l1.355-.761c-.689-.113-1.791-2.556-2.297-3.147a14.966 14.966 0 00-2.893-2.681 12.51 12.51 0 00-7.452-2.363.736.736 0 00-.673.626.722.722 0 00.478.782l.011-.022zm-54.873 16.883a5.151 5.151 0 00-1.906 1.25c-.574.568-1.24 1.306-1.068 2.147v-.489a.981.981 0 00.38 1.137.996.996 0 001.147-.239l-.402.239c.643-.182.965-.875 1.401-1.341.433-.404.89-.784 1.367-1.136a.906.906 0 00.133-1.093.92.92 0 00-1.029-.418l-.023-.057z"/><path d="M27.418 315.555c4.375 4.977 3.261 13.1 3.732 19.224.241 3.25.632 6.499 1.148 9.726.517 3.226.724 7.43 2.297 10.407a.726.726 0 001.194.067.708.708 0 00.149-.431c.138-3.556-1.309-7.498-1.86-11.032a160.294 160.294 0 01-1.47-12.498c-.402-5.612.092-12.031-4.19-16.383-.62-.636-1.54.307-.965.954l-.035-.034z"/><path d="M29.852 356.752a14.573 14.573 0 003.594-.557c1.034-.238 2.24-.306 2.779-1.306a.777.777 0 00-.276-1.046c-.964-.613-2.09-.09-3.111.194a14.385 14.385 0 00-3.445 1.215.81.81 0 00-.035 1.34.833.833 0 00.494.16zm17.223 2.011c.138.227.15.523.287.761.155.235.345.446.563.625.44.364.965.61 1.527.716 1.148.239 2.595 0 2.95-1.272a.777.777 0 00-.073-.586.792.792 0 00-.466-.369c-.66-.06-1.325-.06-1.986 0a3.598 3.598 0 01-.792-.193 3.469 3.469 0 01-.839-.307c-.482-.681-1.607-.068-1.148.671l-.023-.046zM58.5 297.15c4.19.148 11.114 5.284 14.823 1.421.413-.421.149-1.33-.528-1.262-1.034.103-2.044.444-3.09.466a13.654 13.654 0 01-4.236-.829 17.46 17.46 0 00-6.981-1.136.668.668 0 000 1.329l.011.011zm31.323.67c-.953 3.409 1.596 8.726 5.592 8.874.77 0 .861-.921.356-1.307a11.202 11.202 0 01-3.33-3.011 7.353 7.353 0 01-.896-4.329.869.869 0 00-.233-.546.887.887 0 00-1.489.319z"/><path d="M30.311 357.298a2.195 2.195 0 001.527-.534l-1.745-1.329c-.23.84.16 1.386.07 2.204l.677-1.136a15.026 15.026 0 01-8.37 2.942c-2.998 0-5.914-.977-8.934-.693-1.424.137-3.18.591-2.94 2.375.265 1.988 2.756 2.045 4.318 2.181 3.036.259 6.092.202 9.117-.17 2.606-.318 5.591-1.591 8.21-1.363 1.607.136 3.33 1.363 4.328-.648.896-1.818.069-4.283-.861-5.897a1.522 1.522 0 00-1.303-.723 1.536 1.536 0 00-1.303.723 6.89 6.89 0 00-1 3.25H35.1a6.283 6.283 0 00-.447-2.477c-.552-1.409-2.905-1.364-2.848.386a9.914 9.914 0 00.15 1.852c0 .347.138.679.386.924a1.328 1.328 0 001.867 0 1.3 1.3 0 00.387-.924 9.876 9.876 0 00.115-1.852l-2.848.386a2.78 2.78 0 01.242 1.716c-.092 1.931 2.847 1.886 2.996 0a2.88 2.88 0 01.609-1.75H33.09c.345.503.58 1.072.689 1.67-.26 1.076-.073 1.337.563.784-.448.125-2.033-.465-2.664-.454a41.966 41.966 0 00-6.224 1.25 39.491 39.491 0 01-6.889.636 26.508 26.508 0 00-3.651-.159c-.98-.364-1.608.049-1.883 1.238.759-.122 1.529-.16 2.296-.113 4.432.113 8.038 1.374 12.4-.284 1.482-.568 3.813-1.33 4.777-2.67.816-1.136 0-1.716-.057-2.841 0-.92-1.343-1.67-2.02-.829a2.621 2.621 0 00-.77 1.704c0 .178.071.348.198.474a.68.68 0 00.48.196l-.024-.045z"/><path d="M48.109 359.275c-2.882 0-5.397 1.454-8.198 2.011-3.158.625-6.373.25-9.519.75-4.409.704-3.674 5.942.322 6.737a8.42 8.42 0 003.34-.187 8.37 8.37 0 002.998-1.472c2.39-1.886 5.308-3 8.359-3.192 2.02-.068 5.063 1.545 6.889.193 1.826-1.352 1.217-3.522.16-5.09a1.545 1.545 0 00-2.058-.529 1.536 1.536 0 00-.56.529 5.43 5.43 0 00-.62 4.692c.094.31.286.581.548.774a1.527 1.527 0 001.811 0c.262-.193.453-.464.547-.774.231-.58.261-1.22.085-1.818a2.81 2.81 0 00-1.061-1.488c-1.504-1.136-3.445-.545-5.03-.079a74.976 74.976 0 00-7.164 2.476c-2.48.989-5.133 2.625-7.9 2.148l.678 2.556 1.871-.727c1.94-.182 1.998-3.181 0-3.045a6.513 6.513 0 00-4.053 1.613 1.533 1.533 0 00-.4 1.47 1.533 1.533 0 001.077 1.087c2.986.5 5.431-.455 8.141-1.614a83.543 83.543 0 014.926-1.931 71.88 71.88 0 012.698-.898c.39-.125 3.307-.806 3.204-.556h2.905a2.251 2.251 0 01.344-2.386h-2.63c.736 1.136.437.727-.367.761-.81-.072-1.614-.19-2.41-.352a16.606 16.606 0 00-4.456.284 16.175 16.175 0 00-4.593 1.636c-1.297.693-2.354 1.772-3.663 2.42-.298.148-3.077 1.136-3.444.466-.666-1.136 1.217-.852 1.584-.864 1.849-.057 3.71-.147 5.546-.375 3.686-.466 6.82-2.272 10.334-2.954 1.332-.238.988-2.272-.31-2.272h.069zm9.508-123.705c-.16 4.92 1.952 10.226 3.984 14.589a49.248 49.248 0 003.904 6.919c.884 1.306 2.182 3.954 3.927 4.249.815.136 1.826-.523 1.481-1.466-.12-.264-.297-.5-.516-.693-.506-.613-1.275-1.227-1.803-1.954a51.326 51.326 0 01-4.134-6.817c-2.491-4.874-3.364-9.998-5.144-15.088a.862.862 0 00-.361-.483.878.878 0 00-1.13.15.857.857 0 00-.22.56l.012.034z"/><path d="M69.719 260.974c4.593-3.124 8.279-8.566 10.839-13.395a46.525 46.525 0 003.26-7.646c.701-2.204 2.16-5.499 1.15-7.703a.792.792 0 00-.928-.345.78.78 0 00-.301.186c-1.482 1.545-1.459 4.442-2.056 6.442a46.491 46.491 0 01-3.146 7.862 48.153 48.153 0 01-3.984 6.464c-1.78 2.432-3.973 4.42-5.879 6.715-.609.727.184 2.057 1.148 1.42h-.103z"/><path d="M81.028 232.219c4.157.227 8.325.193 12.481.454 2.71.171 4.134.75 5.615 3.102a23.854 23.854 0 012.641 5.681c1.745 5.601.459 13.804 5.109 18.178a.82.82 0 001.047.046.804.804 0 00.228-1.012 28.146 28.146 0 01-2.515-6.055c-.413-1.773-.654-3.579-.964-5.374a36.809 36.809 0 00-3.273-10.794c-1.389-2.704-3.065-5.135-6.315-5.59a59.48 59.48 0 00-14.042.103.641.641 0 00-.558.63c0 .154.057.303.16.419a.647.647 0 00.398.212h-.012zm-5.246 85.541c21.425 1.909 43.184 1.443 64.655.648l-.849-.841c-.23 7.033-.184 14.077-.184 21.109 0 7.033-.436 14.134 0 21.11.027.26.151.501.347.676.196.175.451.271.715.271.264 0 .519-.096.715-.271.196-.175.32-.416.347-.676.609-6.942 0-14.145-.126-21.11-.127-6.964-.172-14.076-.172-21.121a.847.847 0 00-.253-.591.864.864 0 00-.597-.249c-21.586 1.272-43.07.556-64.656-.069-.735 0-.712 1.046 0 1.137l.058-.023z"/><path d="M53.563 362.092c7.245 1.137 14.846 1.137 22.16 1.591 7.314.455 14.927.898 22.482.852 7.176 0 14.364-.466 21.529-.784a96.183 96.183 0 0021.012-2.829 1.185 1.185 0 00.174-2.082 1.212 1.212 0 00-.817-.19 111.797 111.797 0 01-21.299 2.818c-7.027.352-14.066.829-21.104.897-7.337.068-14.663-.295-21.977-.716-7.314-.42-14.766-1.488-21.988-.852-.689.068-.976 1.136-.172 1.295zm47.56-58.159c9.002.897 18.302.477 27.35.659 9.048.182 18.234.375 27.35.534.255 0 .499-.1.678-.278a.943.943 0 000-1.342.961.961 0 00-.678-.278c-9.116-.159-18.233-.303-27.35-.431-9.048-.125-18.371-.875-27.35-.296a.724.724 0 00-.633.71.71.71 0 00.181.474c.116.13.277.215.452.236v.012z"/><path d="M141.229 317.26a74.735 74.735 0 008.302-5.284 43.546 43.546 0 007.211-5.623.793.793 0 00-.423-1.306.813.813 0 00-.542.067c-2.836 1.557-5.339 3.908-7.934 5.829-2.595 1.92-4.949 3.522-7.314 5.419-.528.42.149 1.136.7.898z"/><path d="M156.488 304.569c-1.148 2.931-.597 6.987-.666 10.111l-.241 10.442c-.161 7.112-.505 14.258-.448 21.371a1.013 1.013 0 001.016.904 1.013 1.013 0 001.017-.904c.39-7.113.39-14.259.562-21.371l.253-10.442c.069-3.113.827-7.146-.195-10.111a.672.672 0 00-.643-.46.676.676 0 00-.643.46h-.012zM141.494 361.4a81.687 81.687 0 007.096-5.84 66.793 66.793 0 007.153-6.817.904.904 0 00-.031-1.253.925.925 0 00-1.266-.031c-2.435 1.966-4.593 4.272-6.947 6.351-2.354 2.079-4.846 3.999-7.142 6.124-.769.704.253 2.079 1.148 1.466h-.011zm-85.739-34.96a32.126 32.126 0 003.353-5.022c.276-.568-.448-1.238-.93-.716a32.785 32.785 0 00-3.525 5.102c-.436.715.632 1.283 1.148.647l-.046-.011zm.219 3.113c2.17-2.704 4.456-5.351 6.442-8.192.379-.545-.494-1.215-.93-.716-2.296 2.591-4.352 5.431-6.476 8.169-.425.546.54 1.284.976.739h-.011z"/><path d="M55.309 333.393c2.48-3.783 4.868-7.76 6.992-11.748a.353.353 0 00-.395-.48.356.356 0 00-.213.128 137.938 137.938 0 00-6.89 11.782.32.32 0 00.115.443.33.33 0 00.448-.113l-.057-.012zm-.265 4.851c4.214-6.487 8.945-12.838 12.63-19.644a.385.385 0 00-.137-.534.399.399 0 00-.54.137c-4.593 6.203-8.394 13.156-12.493 19.712-.23.363.345.682.575.329h-.035zm-.367 4.454h-.103a.323.323 0 00-.414.114.44.44 0 00-.08.534.343.343 0 00.413.238c1.148-.284 1.711-2.386 2.228-3.329a156.657 156.657 0 014.18-7.089 149.66 149.66 0 019.185-13.123c.31-.409-.379-.807-.69-.398-2.893 3.75-5.637 7.601-8.174 11.589-.62.989-6.959 11.998-6.763 12.066a.3.3 0 00.338-.173.293.293 0 00-.109-.361l-.011-.068zM63.68 331.7c4.133-5.328 8.852-10.293 12.79-15.735.253-.341-.286-.728-.573-.444-4.8 4.67-8.796 10.487-12.734 15.907-.23.318.287.602.517.295v-.023zm5.866-4.09c3.066-3.068 6.338-6.022 9.186-9.283a.349.349 0 00-.044-.445.36.36 0 00-.45-.043c-3.226 2.897-6.143 6.203-9.186 9.305-.298.307.173.772.471.466h.023zm7.233-4.317c1.309-1.681 2.825-3.124 4.248-4.692a.362.362 0 00-.266-.592.376.376 0 00-.25.08 24.53 24.53 0 00-4.33 4.863c-.252.352.322.671.587.341h.011zm4.238-2.898c.257-.106.5-.244.724-.409.24-.204 0-.556-.299-.499-.27.083-.527.197-.77.34-.39.194 0 .773.345.58v-.012zm60.659 36.471c1.401-13.463 2.756-26.927 3.766-40.424 0-.341-.493-.33-.539 0-1.539 13.452-2.722 26.938-3.87 40.424 0 .409.597.398.632 0h.011z"/><path d="M147.097 313.068a216.643 216.643 0 00-4.777 41.106.287.287 0 00.574 0 368.389 368.389 0 014.846-40.902c.08-.409-.551-.591-.632-.17l-.011-.034z"/><path d="M149.645 312.703c-2.675 14.963-5.236 30.006-7.268 45.072 0 .397.54.579.62.17 2.802-14.952 5.121-30.029 7.314-45.071.057-.409-.563-.602-.643-.171h-.023zm3.308-3.668c-1.298 7.521-1.963 15.179-3.043 22.723-1.079 7.544-2.411 15.122-3.444 22.723-.069.477.654.704.757.204 1.55-7.646 2.607-15.417 3.698-23.132 1.044-7.419 2.296-14.929 2.755-22.405 0-.398-.654-.5-.723-.091v-.022zm2.583 1.135a814.862 814.862 0 01-2.296 19.247c-.85 6.373-2.079 12.747-2.687 19.155 0 .33.493.386.574.08a171.976 171.976 0 003.031-18.747c.861-6.556 1.516-13.134 2.055-19.724 0-.409-.597-.397-.643 0l-.034-.011zm-.357 24.995a11.257 11.257 0 01-.666 3.59c-.126.352.413.477.563.148a9.73 9.73 0 00.769-3.749.328.328 0 00-.097-.233.337.337 0 00-.471 0 .325.325 0 00-.098.233v.011zm-58.351-59.454c.464 1.608.635 3.285.506 4.953a.35.35 0 00.31.352.355.355 0 00.39-.261 6.966 6.966 0 00-.54-5.317c-.16-.364-.792-.102-.654.273h-.012z"/><path d="M96.346 272.677a58.47 58.47 0 00.058 8.35c0 .086.034.168.095.229a.328.328 0 00.56-.229c.217-2.779.236-5.569.056-8.35a.382.382 0 00-.384-.381.382.382 0 00-.385.381zm-2.021-1.023c.253 3.113.448 6.249.827 9.351 0 .363.608.386.585 0-.137-3.125-.447-6.238-.711-9.351 0-.443-.747-.454-.712 0h.011zm-1.735-7.248a131.72 131.72 0 011.149 17.611.298.298 0 00.51.208.292.292 0 00.087-.208 87.706 87.706 0 00-1.148-17.77c-.058-.386-.644-.216-.597.159zm-.93-3.443c-.22 6.914.037 13.834.77 20.712 0 .387.654.421.631 0-.23-6.907-.723-13.793-.746-20.712a.329.329 0 00-.333-.329.329.329 0 00-.333.329h.011zm5.776 29.404a29.386 29.386 0 00.597 10.794c.092.375.724.306.69-.091-.345-3.579-.586-7.101-.598-10.703 0-.454-.643-.42-.689 0zm-2.435.34c.297 3.169.757 6.32 1.378 9.442.069.341.643.261.608-.08a92.877 92.877 0 00-1.331-9.441c-.07-.364-.7-.284-.666.091l.011-.012zm-1.676 1.285c.27 2.62.73 5.217 1.377 7.771.092.352.7.296.666-.091a54.272 54.272 0 00-1.366-7.68c-.092-.364-.723-.296-.677.091v-.091zm-2.457 1.84a20 20 0 001.252 4.363.333.333 0 00.376.15.33.33 0 00.244-.321 20.095 20.095 0 00-1.206-4.385.343.343 0 00-.425-.239.344.344 0 00-.241.42v.012z"/><path d="M90.639 295.718c-.03.557-.03 1.114 0 1.67a.318.318 0 00.316.259.317.317 0 00.316-.259c.03-.556.03-1.113 0-1.67a.356.356 0 00-.107-.253.364.364 0 00-.511 0 .356.356 0 00-.106.253h.092zm-59.282-54.274a11.912 11.912 0 012.365 3.284c.184.341.678.102.609-.25a6.047 6.047 0 00-2.526-3.602c-.333-.238-.735.284-.437.568h-.011zm1.607-2.034c.78 1.341 1.515 2.716 2.411 3.977a.32.32 0 00.19.097.32.32 0 00.35-.415c-.678-1.398-1.516-2.716-2.297-4.045a.384.384 0 00-.48-.08.377.377 0 00-.163.455l-.011.011zm1.159-2.704a23.932 23.932 0 003.353 7.646.334.334 0 00.59-.09.327.327 0 00-.016-.239c-1.148-2.5-2.24-4.954-3.238-7.499a.359.359 0 00-.657-.076.35.35 0 00-.032.269v-.011zm1.791 1.319a43.36 43.36 0 002.825 7.067.347.347 0 00.586-.037.337.337 0 00.034-.225 43.387 43.387 0 00-2.825-7.067c-.16-.352-.746-.102-.62.262zm2.056.318c.793 1.92 1.54 3.863 2.48 5.681a.315.315 0 00.363.093.31.31 0 00.189-.321c-.678-1.965-1.55-3.862-2.377-5.771-.16-.364-.815-.102-.654.273v.045zm2.412.318a107.121 107.121 0 001.757 4.408c.137.295.631.091.528-.227-.47-1.477-1.034-2.92-1.608-4.363-.16-.409-.838-.239-.677.182zm2.319 1.068c.253.772.494 1.545.815 2.272a.299.299 0 00.574-.159 25.17 25.17 0 00-.7-2.272c-.138-.432-.827-.239-.678.182l-.011-.023zm-13.204 77.326a14.803 14.803 0 003.043-4.885c.126-.364-.414-.569-.62-.262-1 1.568-1.94 3.17-3.055 4.67-.264.352.322.806.62.477h.012zm-.689-1.465c1.148-1.545 2.296-3.079 3.364-4.693.195-.295-.276-.681-.505-.386-1.217 1.523-2.297 3.147-3.445 4.738-.253.363.333.693.586.341zm-.001 6.01c.46-.886.942-1.761 1.355-2.67.15-.318-.31-.602-.493-.284-.483.875-.908 1.772-1.355 2.67-.161.318.321.602.493.284z"/><path d="M26.258 317.885c3.973 6.601 4.283 14.281 4.524 21.746.024 3.64.235 7.277.631 10.896.322 2.386.85 4.817 2.56 6.623a.347.347 0 00.467-.209.339.339 0 00.005-.188c-4.008-6.158-2.63-14.463-2.928-21.451-.264-6.237-1.286-12.395-4.708-17.758a.357.357 0 00-.617.106.347.347 0 00.009.246l.057-.011zm23.882 1.647a130.295 130.295 0 012.113 20.451 153.586 153.586 0 01-1.297 19.632c-.058.58.907.705 1.022.137 2.595-13.111 1.86-27.404-1.08-40.391-.114-.488-.838-.272-.746.205l-.011-.034zm-8.437-109.469c-3.124 9.476-4.823 19.701-11.483 27.484-.24.284.08.807.437.557 3.444-2.511 5.259-6.988 6.682-10.873a131.93 131.93 0 005.202-16.929.434.434 0 00-.31-.534.443.443 0 00-.54.307l.011-.012zm-.896 158.256c7.52-3.806 15.937-3.602 24.113-3.056 8.416.568 16.798 1.136 25.26 1.522 17.717.716 35.445.466 53.139-.523.368 0 .368-.59 0-.568a525.8 525.8 0 01-55.114-.091c-8.623-.465-17.223-1.431-25.834-1.84-7.475-.364-15.214.375-21.816 4.022-.356.193 0 .727.321.534h-.069z"/><path d="M45.423 367.637c3.755.375 7.532.466 11.31.614 3.762.3 7.536.41 11.31.329.459 0 .642-.784.114-.852-3.632-.35-7.28-.517-10.93-.5-3.939-.136-7.866-.341-11.804-.238a.333.333 0 00-.333.329.33.33 0 00.097.233.334.334 0 00.236.097v-.012zm25.088.579v.387a.526.526 0 00.367.363.441.441 0 00.287 0 .525.525 0 00.368-.363v-.387a.576.576 0 00-1.148 0h.126zM48.51 207.246a17.4 17.4 0 0010.622-.329c2.606-.807 5.442-2.216 7.739 0 1.424 1.408 1.894 5.169 2.136 7.078.149 1.136-.31 6.044 2.41 5.237.93-.272 1.149-1.329 1.54-2.09.39-.761 1.01-2.272 1.905-2.795 5.03-2.647 4.272 5.317.896 4.897a.704.704 0 00-.495.203.689.689 0 00-.205.49c0 1.375.78 2.272 1.561 3.34.942 1.352 1.849 2.738 2.905 4.011.46.557 1.344-.159.988-.761-.643-1.137-1.401-2.136-2.125-3.182-.723-1.045-1.94-2.181-1.94-3.408l-.7.693c3.444.409 5.235-5.056 3.444-7.453a2.862 2.862 0 00-1.742-1.117 2.887 2.887 0 00-2.047.344 7.422 7.422 0 00-2.296 2.216c-.655.875-.827 2.272-1.964 2.011-1.137-.262-.792-2.159-.953-3.307a22.98 22.98 0 00-1.022-4.203c-.574-1.648-1.228-3.818-3.066-4.465-2.02-.716-4.489.34-6.383.965a21.87 21.87 0 01-10.954.852.368.368 0 00-.454.256.368.368 0 00.258.449l-.057.068z"/><path d="M102.902 242.967a528.298 528.298 0 0160.016 1.307c.283-.003.553-.116.752-.313.2-.198.313-.465.316-.744-1.412-17.349-2.606-36.039 4.421-52.422 6.281-14.691 19.118-24.859 29.084-36.959 10.334-12.623 16.018-27.938 12.94-44.31-2.698-14.304-11.987-26.45-23.595-35.016-13.515-9.976-29.98-14.68-46.549-16.52a237.091 237.091 0 00-56.515.966c-17.464 2.272-34.297 7.68-48.845 17.701-13.468 9.271-25.18 21.916-31.139 37.164-5.592 14.304-5.66 32.948 4.294 45.582 2.389 3.068 5.477 3.068 9.14 3.204l15.065.523c10.043.348 20.086.685 30.129 1.011 5.017.159 10.047.238 15.064.397a.993.993 0 00.698-.286.972.972 0 00.29-.691c-1.62-12.588-3.124-28.403 6.648-38.345 8.841-8.975 24.376-9.464 34.745-2.886 2.87 1.818 5.603 4.386 6.602 7.703.999 3.318-.092 6.817-1.964 9.703-3.639 5.681-9.277 9.896-13.526 15.088a92.993 92.993 0 00-17.59 33.892 91.451 91.451 0 00-1.527 43.401c.321 1.522 2.664.875 2.296-.636-6.016-28.631 2.986-59.808 23.619-80.804 4.455-4.544 10.196-9.384 11.206-16.008.953-6.294-3.215-11.418-8.37-14.554-10.334-6.306-24.95-6.135-34.653 1.363-12.883 9.964-11.287 27.813-9.599 42.038l.987-.977-57.25-2.273c-2.123-.079-4.305 0-6.418-.284-2.71-.34-3.984-2.272-5.305-4.419a40.06 40.06 0 01-4.592-10.885 47.93 47.93 0 01.195-23.95c4.271-15.781 15.317-29.187 28.177-39.06 13.549-10.42 29.509-16.611 46.342-19.486a237.137 237.137 0 0153.885-2.465c16.798 1.034 33.849 4.544 48.225 13.463 12.205 7.488 22.493 18.85 26.547 32.653a47.431 47.431 0 01.344 25.2 55.694 55.694 0 01-11.057 20.724c-8.922 11.077-20.301 20.314-27.316 32.823-7.911 14.1-8.727 30.676-8.038 46.412.184 4.056.483 8.112.747 12.168l1.068-1.056a431.18 431.18 0 00-60.017-1.591c-1.585.068-1.596 2.5 0 2.443l.023.011z"/><path d="M163.676 245.046c1.906-4.272 5.271-7.419 8.428-10.782a34.626 34.626 0 006.832-10.158c3.525-8.248 4.157-17.292 6.487-25.87a69.515 69.515 0 0113.779-26.415c5.741-6.908 12.722-12.793 18.371-19.826a45.218 45.218 0 009.955-21.746 50.524 50.524 0 00-1.986-22.314c-4.88-15.622-15.822-28.404-30.014-36.539a98.856 98.856 0 00-28.269-10.589 146.838 146.838 0 00-15.122-2.454 76.72 76.72 0 00-15.8-.648c-.723.069-1.044 1.239-.183 1.375 8.772 1.375 17.659 1.443 26.409 3.08a107.378 107.378 0 0126.041 8.123c15.363 7.225 28.028 19.144 34.044 35.095a50.448 50.448 0 013.227 22.576 42.878 42.878 0 01-9.691 22.723c-5.465 6.817-12.148 12.566-17.832 19.201a72.191 72.191 0 00-13.158 22.632c-3.318 9.294-3.709 19.315-6.97 28.586a35.344 35.344 0 01-8.164 12.861c-3.077 3.227-6.154 6.362-7.876 10.521-.345.84 1.148 1.454 1.492.625v-.057zm-84.634-81.292a68.054 68.054 0 0115.053-10.771c4.202-2.193 9.025-3.76 9.817-9.021.402-2.658-.172-5.306-.115-7.953a16.905 16.905 0 012.113-7.794c2.767-4.976 9.185-9.26 14.467-5.079a.856.856 0 001.121.07.832.832 0 00.211-1.092c-2.147-4.545-9.289-2.715-12.481-.557a17.982 17.982 0 00-5.051 5.59 17.769 17.769 0 00-2.297 7.146c-.368 3.17.562 6.408 0 9.544-.747 4.011-4.444 5.158-7.693 6.817a66.635 66.635 0 00-16.57 11.737c-.94.908.495 2.272 1.436 1.42l-.011-.057z"/><path d="M164.125 240.342c5.901-8.703 11.78-17.474 17.28-26.427.391-.636-.574-1.136-.987-.568-6.028 8.623-11.723 17.508-17.35 26.393-.424.67.62 1.261 1.057.613v-.011zm1.548-13.52c4.272-5.783 8.6-11.532 12.723-17.417.447-.636-.575-1.136-1.034-.591-4.386 5.681-8.577 11.555-12.814 17.372-.494.67.632 1.306 1.148.647l-.023-.011zm-3.029-2.795a141.422 141.422 0 0015.879-20.553c.402-.659-.597-1.205-1.033-.591a223.094 223.094 0 01-15.777 20.223c-.562.625.368 1.557.931.921zm-2.814-6.544c4.776-4.772 9.725-9.442 14.261-14.452a.618.618 0 00-.442-1.056.632.632 0 00-.443.181c-4.983 4.544-9.599 9.566-14.329 14.384-.609.624.344 1.567.964.954l-.011-.011zM10.034 145.507c-2.205-15.281 2.4-30.914 11.069-43.56 8.669-12.645 21.724-22.12 35.847-28.222 8.29-3.579 16.855-5.68 25.593-7.794.724-.182.402-1.136-.298-1.136a100.564 100.564 0 00-45.022 18.394c-12.572 9.305-22.424 22.167-26.89 37.164a55.927 55.927 0 00-1.608 25.506c.15.853 1.412.478 1.297-.352h.012zm89.86-81.337c-.018.36.036.718.161 1.057a.622.622 0 001.068 0 2.66 2.66 0 00.16-1.057.678.678 0 00-.201-.482.696.696 0 00-.975 0 .68.68 0 00-.201.482h-.012zm90.225 23.439a40.158 40.158 0 0111.023 23.552c1.01 8.896-1.149 17.042-5.19 24.995a.724.724 0 00.301.925.741.741 0 00.962-.197c5.534-7.317 7.027-17.52 5.867-26.405-1.107-9.063-5.379-17.458-12.079-23.734a.637.637 0 00-.896 0 .626.626 0 000 .886l.012-.022z"/><path d="M194.161 119.046a15.547 15.547 0 01-3.628 10.032.69.69 0 00.505 1.143.71.71 0 00.482-.166 12.654 12.654 0 003.419-5.1c.7-1.951.907-4.043.6-6.091-.115-.784-1.355-.568-1.366.182h-.012zM58.052 152.551c2.94-5.294 6.109-10.532 8.738-15.985a.65.65 0 00-.247-.892.666.666 0 00-.901.244c-3.215 5.147-5.948 10.612-8.864 15.906-.448.807.792 1.523 1.24.716l.034.011zm3.708 1.455a134.083 134.083 0 007.625-11.986.663.663 0 00-.291-.81.685.685 0 00-.857.139 134.74 134.74 0 00-7.67 11.987c-.471.772.723 1.443 1.217.704l-.023-.034zm4.606 2.295a55.474 55.474 0 003.674-5.34c.322-.579-.482-1.272-.965-.738a56.919 56.919 0 00-3.926 5.43c-.517.739.7 1.432 1.217.705v-.057z"/></g><defs><clipPath id="clip0_7478_49580"><path fill="#fff" d="M0 0h228v369H0z"/></clipPath></defs></svg>