<svg width="570" height="355" fill="none" xmlns="http://www.w3.org/2000/svg"><path fill-rule="evenodd" clip-rule="evenodd" d="M61.737 72.808c38.049-30.63 99.426-32.272 152.865-45.335 46.9-11.463 91.481-32.717 140.14-26.286 49.405 6.53 86.75 34.22 121.65 60.888 36.159 27.63 69.883 57.389 82.025 94.745 13.344 41.048 21.208 88.485-11.172 123.223-31.901 34.224-96.952 36.366-150.163 49.862-47.68 12.092-93.307 25.71-143.721 24.673-59.794-1.231-123.86-2.93-169.962-31.128C34.252 293.389 4.505 246.894.44 199.879c-3.977-46.023 19.12-93.117 61.296-127.07z" fill="#F2FBDD"/><path d="M461.445 210.678a6.233 6.233 0 01-2.031-1.746 5.78 5.78 0 01-1.052-2.387 5.603 5.603 0 01.125-2.58 5.84 5.84 0 011.278-2.288l-6.632-45.417 13.816.635 2.169 44.3c1.128 1.018 1.818 2.387 1.94 3.85a5.726 5.726 0 01-1.279 4.085c-.946 1.169-2.317 1.973-3.853 2.258a6.766 6.766 0 01-4.481-.71z" fill="#A0616A"/><path d="M468.845 157.499a2.596 2.596 0 01-1.055.699l-12.416 4.439a2.772 2.772 0 01-1.931-.026 2.538 2.538 0 01-1.382-1.263l-10.999-23.157a9.115 9.115 0 01-.505-6.847 9.364 9.364 0 012.881-4.195 10.321 10.321 0 014.765-2.226 10.208 10.208 0 014.127.054 10.27 10.27 0 014.388 2.075 9.391 9.391 0 012.803 3.782l9.779 24.218c.164.409.208.851.128 1.282-.08.43-.281.832-.583 1.165z" fill="#8EB438"/><path d="M404.144 321.536h-8.591l-3.115-31.188 11.706.147v31.041z" fill="#A0616A"/><path d="M389.418 319.234h16.564v9.773h-26.998c0-2.592 1.099-5.078 3.056-6.91 1.956-1.833 4.609-2.863 7.376-2.863h.002z" fill="#3B3D42"/><path d="M444.083 321.534h-8.59l-4.087-31.042h12.678l-.001 31.042z" fill="#A0616A"/><path d="M429.359 319.234h16.565v9.773h-26.998c0-2.592 1.099-5.078 3.055-6.91 1.956-1.833 4.61-2.863 7.376-2.863h.002zm15.806-8.748l-13.49-.936a3.254 3.254 0 01-2.027-.884 2.869 2.869 0 01-.894-1.919l-3.008-58.246a2.23 2.23 0 00-.69-1.49 2.53 2.53 0 00-1.57-.69 2.575 2.575 0 00-1.664.455 2.284 2.284 0 00-.928 1.372l-12.549 57.378a2.944 2.944 0 01-1.196 1.768 3.308 3.308 0 01-2.145.583l-12.196-.914a3.29 3.29 0 01-1.184-.314 3.137 3.137 0 01-.965-.714 2.935 2.935 0 01-.6-1.007 2.784 2.784 0 01-.143-1.144l.006-.058 11.315-106c.044-.414.181-.815.402-1.176.222-.361.522-.674.881-.919.36-.245.771-.416 1.205-.501a3.347 3.347 0 011.319.004l43.027 8.763a3.198 3.198 0 011.801 1.054 2.85 2.85 0 01.682 1.885l-2.004 100.759a2.87 2.87 0 01-.942 2.051 3.265 3.265 0 01-2.443.84z" fill="#3B3D42"/><path d="M433.362 109.103c9.505 0 17.21-7.218 17.21-16.123 0-8.904-7.705-16.123-17.21-16.123s-17.21 7.219-17.21 16.123c0 8.905 7.705 16.123 17.21 16.123z" fill="#A0616A"/><path d="M406.66 205.903a14.474 14.474 0 01-3.851-5.011 13.634 13.634 0 01-1.26-6.06c0-23.173 21.411-74.948 22.081-76.56.063-.389.628-.557 3.594-2.433 2.967-1.876 7.242-2.165 12.711-.857a3.186 3.186 0 011.463.791c.402.384.683.864.814 1.387l1.017 1.377c.089.35.264.675.511.949.248.274.56.49.913.631 4.41 1.74 18.427 9.766 13.65 39.971-4.436 28.059-6.237 44.557-6.805 50.353a2.873 2.873 0 01-.91 1.818 3.238 3.238 0 01-1.943.85c-2.162.181-5.873.423-10.29.423-10.25-.003-24.303-1.296-31.695-7.629z" fill="#8EB438"/><path d="M386.095 197.321a5.651 5.651 0 01-.649-2.51 5.636 5.636 0 01.547-2.531 5.995 5.995 0 011.638-2.077 6.5 6.5 0 012.422-1.233l21.507-41.175 11.094 7.74-24.547 37.917a5.66 5.66 0 01-.678 4.21c-.769 1.278-2.011 2.248-3.492 2.725a6.8 6.8 0 01-4.543-.137c-1.445-.565-2.618-1.607-3.298-2.929h-.001z" fill="#A0616A"/><path d="M423.869 157.027a2.766 2.766 0 01-1.292.03l-12.95-2.795a2.617 2.617 0 01-1.588-1.03 2.324 2.324 0 01-.397-1.771l4.643-24.969c.401-2.335 1.7-4.452 3.653-5.95a10.397 10.397 0 014.888-1.979 10.665 10.665 0 015.28.638 9.625 9.625 0 013.395 2.2 9.243 9.243 0 012.409 4.013 8.803 8.803 0 01.078 4.604l-6.285 25.212a2.406 2.406 0 01-.656 1.133 2.649 2.649 0 01-1.178.664z" fill="#8EB438"/><path d="M429.332 107.547a6.875 6.875 0 01-1.802-2.852 6.516 6.516 0 01-.187-3.31c.6-2.939.952-4.864 1.019-5.564.229-2.394-2.355-4.333-4.911-4.644a5.4 5.4 0 00-.251-.025c.062.059.135.12.196.176.486.427 1.09.96.946 1.508-.086.33-.409.565-.985.716-3.999 1.048-7.078.086-9.691-3.03a7.04 7.04 0 01-1.476-3.018c-.936-4.303 1.558-7.971 3.816-10.29 1.862-1.912 4.879-4.232 8.684-4.432 2.96-.155 6.479 1.44 7.53 4.316a5.598 5.598 0 011.931-1.669 6.006 6.006 0 012.524-.683 10.8 10.8 0 015.716 1.49c8.346 4.478 11.931 15.146 7.832 23.295-2.579 5.127-8.167 8.943-14.582 9.96a7.511 7.511 0 01-3.985-.437 7.118 7.118 0 01-2.328-1.505l.004-.002z" fill="#3B3D42"/><path d="M353.274 329.922h122.353a.648.648 0 00.443-.172.57.57 0 00.184-.416.57.57 0 00-.184-.416.648.648 0 00-.443-.172H353.274a.653.653 0 00-.444.172.574.574 0 00-.184.416c0 .156.067.305.184.416.118.11.278.172.444.172z" fill="#3F3D56"/><path d="M84.602 129.93c7.576 0 13.717-5.753 13.717-12.851 0-7.097-6.141-12.85-13.717-12.85-7.576 0-13.717 5.753-13.717 12.85 0 7.098 6.141 12.851 13.717 12.851z" fill="#8EB438"/><path d="M83.244 121.978a1.479 1.479 0 01-.856-.266l-.015-.01-3.224-2.313a1.322 1.322 0 01-.527-.886 1.28 1.28 0 01.285-.978c.228-.279.563-.463.934-.513.371-.049.748.039 1.05.247l2.088 1.5 4.935-6.029a1.45 1.45 0 01.949-.513c.376-.047.757.049 1.058.265l-.03.039.031-.038c.301.217.498.536.548.889a1.28 1.28 0 01-.283.992l-5.804 7.091a1.414 1.414 0 01-.504.387 1.503 1.503 0 01-.635.137v-.001z" fill="#fff"/><path d="M123.15 147.213a3.583 3.583 0 00-1.371-1.557 3.947 3.947 0 00-2.06-.594H51.226a3.85 3.85 0 00-2.624 1.02 3.371 3.371 0 00-1.088 2.459v81.174c0 .922.392 1.806 1.088 2.459a3.849 3.849 0 002.624 1.019h68.493a3.846 3.846 0 002.624-1.02 3.374 3.374 0 001.089-2.458v-81.174a3.217 3.217 0 00-.282-1.328zm-.542 82.502a2.63 2.63 0 01-.848 1.911 2.988 2.988 0 01-2.039.793H51.226c-.765 0-1.5-.285-2.04-.792a2.62 2.62 0 01-.846-1.912v-81.174a2.627 2.627 0 01.847-1.911 2.99 2.99 0 012.04-.793h68.492a3.033 3.033 0 011.618.469 2.76 2.76 0 011.063 1.235 2.512 2.512 0 01.208 1.004v81.17z" fill="#8EB438"/><path d="M108.855 164.225h-20.63c-.438 0-.858-.163-1.167-.453a1.498 1.498 0 01-.484-1.093c0-.41.174-.803.484-1.093.31-.29.729-.453 1.167-.453h20.63c.437 0 .857.163 1.167.453a1.5 1.5 0 01.483 1.093 1.5 1.5 0 01-.483 1.093c-.31.29-.73.453-1.167.453zm0 8.118h-20.63c-.438 0-.858-.163-1.167-.453a1.5 1.5 0 01-.484-1.094c0-.41.174-.803.484-1.093.31-.29.729-.453 1.167-.453h20.63c.437 0 .857.163 1.167.453a1.5 1.5 0 01.483 1.093c0 .41-.174.804-.483 1.094-.31.29-.73.453-1.167.453zm-31.216 4.624H62.563a1.927 1.927 0 01-1.313-.51 1.687 1.687 0 01-.544-1.23V158.56c0-.461.196-.904.544-1.23.349-.326.82-.509 1.313-.51h15.076c.492.001.964.184 1.312.51.348.327.544.769.545 1.23v16.667c0 .462-.197.904-.545 1.23-.348.326-.82.509-1.312.51zm31.073 11.999H62.088c-.438 0-.858-.163-1.167-.453a1.5 1.5 0 01-.483-1.094c0-.41.173-.803.483-1.093.31-.29.73-.453 1.167-.453h46.624c.438 0 .857.163 1.167.453.31.29.483.683.483 1.093 0 .41-.173.804-.483 1.094-.31.29-.729.453-1.167.453zm0 8.119H62.088c-.438 0-.858-.163-1.167-.453a1.498 1.498 0 01-.483-1.094c0-.41.173-.803.483-1.093.31-.29.73-.453 1.167-.453h46.624c.438 0 .857.163 1.167.453.31.29.483.683.483 1.093 0 .411-.173.804-.483 1.094-.31.29-.729.453-1.167.453zm0 8.113H62.088c-.438 0-.858-.163-1.167-.453a1.498 1.498 0 01-.483-1.093c0-.41.173-.804.483-1.094.31-.29.73-.453 1.167-.453h46.624c.438 0 .857.163 1.167.453.31.29.483.684.483 1.094 0 .41-.173.803-.483 1.093-.31.29-.729.453-1.167.453zm0 8.121H62.088c-.438 0-.858-.163-1.167-.453a1.498 1.498 0 01-.483-1.093c0-.41.173-.804.483-1.094.31-.29.73-.452 1.167-.452h46.624c.438 0 .857.162 1.167.452.31.29.483.684.483 1.094 0 .41-.173.803-.483 1.093-.31.29-.729.453-1.167.453zm0 8.115H62.088c-.438 0-.858-.163-1.167-.453a1.498 1.498 0 01-.483-1.093c0-.41.173-.803.483-1.093.31-.29.73-.453 1.167-.453h46.624c.438 0 .857.163 1.167.453.31.29.483.683.483 1.093 0 .41-.173.803-.483 1.093-.31.29-.729.453-1.167.453zM36.6 233.527h96.272a.509.509 0 00.349-.136.445.445 0 00.145-.327.448.448 0 00-.145-.327.508.508 0 00-.349-.135H36.6a.508.508 0 00-.35.133.467.467 0 00-.108.15.437.437 0 00.104.504.493.493 0 00.348.138h.006zm293.943-105.298c7.576 0 13.718-5.753 13.718-12.851 0-7.097-6.142-12.851-13.718-12.851-7.575 0-13.717 5.754-13.717 12.851 0 7.098 6.142 12.851 13.717 12.851z" fill="#8EB438"/><path d="M329.184 120.277a1.486 1.486 0 01-.856-.266l-.015-.011-3.224-2.312a1.324 1.324 0 01-.528-.886 1.28 1.28 0 01.285-.978c.228-.279.563-.463.935-.513.371-.05.748.039 1.05.247l2.088 1.5 4.934-6.029a1.46 1.46 0 01.949-.514c.377-.046.757.049 1.059.266l-.031.039.032-.038c.301.216.498.536.547.889a1.28 1.28 0 01-.283.992l-5.803 7.091a1.42 1.42 0 01-.505.387 1.517 1.517 0 01-.635.137l.001-.001z" fill="#fff"/><path d="M369.09 145.512a3.58 3.58 0 00-1.372-1.557 3.937 3.937 0 00-2.059-.594h-68.493a3.844 3.844 0 00-2.625 1.02 3.373 3.373 0 00-1.088 2.458v81.174a3.374 3.374 0 001.088 2.459 3.844 3.844 0 002.625 1.02h68.493a3.853 3.853 0 002.624-1.02 3.374 3.374 0 001.088-2.459v-81.174a3.231 3.231 0 00-.281-1.327zm-.543 82.502a2.625 2.625 0 01-.847 1.911 2.994 2.994 0 01-2.039.793h-68.495c-.379 0-.755-.07-1.105-.206a2.91 2.91 0 01-.936-.586 2.699 2.699 0 01-.626-.877 2.559 2.559 0 01-.22-1.035v-81.175a2.632 2.632 0 01.847-1.91 2.998 2.998 0 012.04-.794h68.493c.577.003 1.14.166 1.618.47.477.303.848.733 1.063 1.235a2.513 2.513 0 01.208 1.004l-.001 81.17z" fill="#8EB438"/><path d="M354.795 162.524h-20.631c-.438 0-.857-.163-1.167-.453a1.5 1.5 0 01-.483-1.093c0-.41.174-.803.483-1.093.31-.29.729-.453 1.167-.453h20.63c.438 0 .858.163 1.167.453.31.29.484.683.484 1.093 0 .41-.174.803-.484 1.093-.309.29-.729.453-1.167.453h.001zm0 8.117h-20.631c-.438 0-.857-.163-1.167-.453a1.5 1.5 0 01-.483-1.093c0-.41.174-.803.483-1.093.31-.29.729-.453 1.167-.453h20.63c.438 0 .858.163 1.167.453.31.29.484.683.484 1.093 0 .41-.174.803-.484 1.093-.309.29-.729.453-1.167.453h.001zm-31.217 4.625h-15.077a1.926 1.926 0 01-1.312-.51 1.688 1.688 0 01-.544-1.23v-16.667c0-.462.196-.904.544-1.23.348-.326.82-.509 1.312-.51h15.077c.492.001.964.184 1.312.51.348.326.543.768.544 1.23v16.667c0 .461-.196.903-.544 1.23-.348.326-.82.509-1.312.51zm31.073 11.998h-46.624a1.71 1.71 0 01-1.167-.452 1.502 1.502 0 01-.483-1.094c0-.41.174-.803.483-1.093.31-.29.73-.453 1.167-.453h46.624c.438 0 .858.163 1.168.453a1.5 1.5 0 01.483 1.093c0 .41-.174.804-.483 1.094-.31.29-.73.452-1.168.452zm0 8.12h-46.624a1.71 1.71 0 01-1.167-.453 1.502 1.502 0 01-.483-1.094c0-.41.174-.803.483-1.093.31-.29.73-.453 1.167-.453h46.624c.438 0 .858.163 1.168.453a1.5 1.5 0 01.483 1.093c0 .41-.174.804-.483 1.094-.31.29-.73.453-1.168.453zm0 8.113h-46.624a1.71 1.71 0 01-1.167-.453 1.5 1.5 0 01-.483-1.093 1.5 1.5 0 01.483-1.094c.31-.29.73-.453 1.167-.453h46.624c.438 0 .858.163 1.168.453a1.5 1.5 0 01.483 1.094 1.5 1.5 0 01-.483 1.093c-.31.29-.73.453-1.168.453zm0 8.121h-46.624a1.71 1.71 0 01-1.167-.453 1.5 1.5 0 01-.483-1.093c0-.41.174-.804.483-1.094.31-.29.73-.453 1.167-.453h46.624c.438 0 .858.163 1.168.453.309.29.483.684.483 1.094a1.5 1.5 0 01-.483 1.093c-.31.29-.73.453-1.168.453zm0 8.115h-46.624a1.71 1.71 0 01-1.167-.453 1.5 1.5 0 01-.483-1.093c0-.41.174-.804.483-1.093.31-.29.73-.453 1.167-.453h46.624c.438 0 .858.163 1.168.453.309.289.483.683.483 1.093a1.5 1.5 0 01-.483 1.093c-.31.29-.73.453-1.168.453zm-72.111 12.093h96.272a.51.51 0 00.349-.136.45.45 0 00.145-.327.45.45 0 00-.145-.327.51.51 0 00-.349-.136H282.54a.533.533 0 00-.35.134.452.452 0 00-.147.326c0 .061.012.121.036.178a.48.48 0 00.266.251.53.53 0 00.189.037h.006z" fill="#8EB438"/><path d="M256.128 189.302a4.543 4.543 0 00-1.743-1.979 5.004 5.004 0 00-2.618-.755h-87.043a4.886 4.886 0 00-3.335 1.296c-.885.829-1.382 1.953-1.383 3.125v103.162c.001 1.173.498 2.297 1.383 3.125a4.886 4.886 0 003.335 1.296h87.046a4.893 4.893 0 003.335-1.297c.884-.828 1.382-1.952 1.384-3.124V190.989a4.107 4.107 0 00-.358-1.687h-.003zm-.69 104.849a3.335 3.335 0 01-1.077 2.431 3.806 3.806 0 01-2.594 1.008h-87.043a3.8 3.8 0 01-2.595-1.007 3.333 3.333 0 01-1.075-2.431V190.989a3.337 3.337 0 011.076-2.43 3.806 3.806 0 012.594-1.008h87.046a3.856 3.856 0 012.056.595 3.504 3.504 0 011.351 1.568 3.18 3.18 0 01.264 1.275l-.003 103.162z" fill="#3F3D56"/><path d="M237.965 210.924h-26.219c-.556 0-1.09-.207-1.483-.575a1.905 1.905 0 01-.615-1.39 1.9 1.9 0 01.615-1.389 2.169 2.169 0 011.483-.576h26.219a2.17 2.17 0 011.483.576c.393.368.614.868.614 1.389s-.221 1.021-.614 1.39a2.175 2.175 0 01-1.483.575zm0 10.319h-26.219c-.556 0-1.09-.207-1.483-.576a1.9 1.9 0 01-.615-1.389c0-.522.221-1.021.615-1.39a2.168 2.168 0 011.483-.575h26.219a2.17 2.17 0 011.483.575c.393.369.614.868.614 1.39 0 .521-.221 1.021-.614 1.389a2.17 2.17 0 01-1.483.576z" fill="#8EB438"/><path d="M198.294 227.116h-19.161a2.452 2.452 0 01-1.668-.648 2.15 2.15 0 01-.692-1.563v-21.182c.001-.587.25-1.149.692-1.563a2.442 2.442 0 011.668-.648h19.161c.625 0 1.225.233 1.668.648.442.414.691.976.692 1.563v21.182a2.15 2.15 0 01-.692 1.563 2.452 2.452 0 01-1.668.648z" fill="#941759"/><path d="M237.782 242.366h-59.254c-.556 0-1.09-.207-1.483-.576a1.904 1.904 0 01-.614-1.389c0-.522.221-1.021.614-1.39a2.173 2.173 0 011.483-.575h59.254c.276 0 .548.05.803.149.254.099.486.244.68.426.195.183.35.399.455.638.105.238.16.494.16.752s-.055.513-.16.752a1.95 1.95 0 01-.455.637 2.102 2.102 0 01-.68.426c-.255.099-.527.15-.803.15zm0 10.316h-59.254c-.556 0-1.09-.207-1.483-.575a1.907 1.907 0 01-.614-1.39c0-.521.221-1.021.614-1.389a2.169 2.169 0 011.483-.576h59.254c.556 0 1.09.207 1.483.576a1.9 1.9 0 01.615 1.389c0 .521-.221 1.021-.615 1.39a2.173 2.173 0 01-1.483.575zm0 10.313h-59.254c-.556 0-1.09-.207-1.483-.576a1.904 1.904 0 01-.614-1.389c0-.522.221-1.021.614-1.39a2.169 2.169 0 011.483-.576h59.254c.556 0 1.09.207 1.483.576.394.369.615.868.615 1.39a1.9 1.9 0 01-.615 1.389 2.169 2.169 0 01-1.483.576zm0 10.32h-59.254c-.556 0-1.09-.207-1.483-.576a1.904 1.904 0 01-.614-1.389c0-.521.221-1.021.614-1.39a2.173 2.173 0 011.483-.575h59.254c.556 0 1.09.207 1.483.575.394.369.615.869.615 1.39a1.9 1.9 0 01-.615 1.389 2.169 2.169 0 01-1.483.576zm0 10.312h-59.254c-.556 0-1.09-.207-1.483-.575a1.906 1.906 0 01-.614-1.39c0-.521.221-1.021.614-1.389a2.169 2.169 0 011.483-.576h59.254c.556 0 1.09.207 1.483.576a1.9 1.9 0 01.615 1.389c0 .522-.221 1.021-.615 1.39a2.173 2.173 0 01-1.483.575z" fill="#8EB438"/><path d="M209.72 161.712c11.18 0 20.243-8.491 20.243-18.964 0-10.474-9.063-18.965-20.243-18.965-11.179 0-20.242 8.491-20.242 18.965 0 10.473 9.063 18.964 20.242 18.964z" fill="#941759"/><path d="M207.714 149.982a2.194 2.194 0 01-1.263-.393l-.022-.016-4.758-3.41a2.046 2.046 0 01-.545-.58 1.882 1.882 0 01.152-2.198c.169-.206.38-.38.621-.51a2.261 2.261 0 011.605-.198c.268.068.52.184.74.343l3.081 2.213 7.282-8.899c.341-.417.845-.69 1.4-.758a2.22 2.22 0 011.563.391v.001l-.045.058.047-.058c.444.32.735.792.808 1.312a1.894 1.894 0 01-.417 1.464l-8.565 10.463a2.09 2.09 0 01-.745.57 2.244 2.244 0 01-.937.203l-.002.002z" fill="#fff"/><path d="M146.542 298.923h122.352a.65.65 0 00.444-.172.57.57 0 00.184-.416.569.569 0 00-.184-.416.65.65 0 00-.444-.172H146.542a.649.649 0 00-.444.172.569.569 0 00-.184.416.57.57 0 00.184.416c.117.11.277.172.444.172z" fill="#3F3D56"/></svg>