<svg width="573" height="409" fill="none" xmlns="http://www.w3.org/2000/svg"><path opacity=".12" fill-rule="evenodd" clip-rule="evenodd" d="M510.938 121.218c-38.249-31.224-99.949-32.898-153.669-46.214-47.147-11.687-91.963-33.352-140.878-26.796-49.665 6.656-87.206 34.882-122.29 62.068-36.35 28.166-70.25 58.503-82.457 96.584-13.414 41.844-21.32 90.202 11.23 125.614 32.07 34.888 97.463 37.071 150.954 50.829 47.931 12.327 93.798 26.209 144.478 25.151 60.109-1.254 124.511-2.986 170.856-31.731 49.406-30.644 79.31-78.041 83.394-125.968 3.999-46.917-19.22-94.925-61.618-129.537z" fill="url(#paint0_linear_5391_44535)"/><path d="M213.67 252.612c3 6.048 4.705 12.471 3.544 19.076-1.318 7.487-6.229 14.031-6.435 21.652a22.467 22.467 0 00.883 6.556c.29 1.088.641 2.153 1.028 3.217 1.694 4.718 4.028 9.351 4.839 14.322 2.044 12.326-5.794 24.591-15.87 30.736a67.866 67.866 0 01-23.467 8.358c-1.016.17-2.032.315-3.06.448-19.85 2.419-40.812-3.459-43.884-26.865a61.363 61.363 0 01-.375-9c0-1.113 0-2.225.096-3.338.266-8.141.605-16.197-3.532-22.705a23.726 23.726 0 00-5.165-5.588c-1.911-1.56-3.967-2.951-6.048-4.379a67.274 67.274 0 01-3.108-2.31c-11.504-9.157-17.685-25.123-16.802-40.473 0-1.113.17-2.214.303-3.303a45.023 45.023 0 013.326-12.325c2.419-5.661 6.048-10.887 7.258-16.935.478-2.306.637-4.666.471-7.016a27.568 27.568 0 00-.435-3.459c-2.419-13.185-13.427-25.402-18.93-38.175a46.025 46.025 0 01-1.512-3.931 27.822 27.822 0 01-.883-15.653c1.96-8.104 8.007-14.333 11.406-21.772a27.13 27.13 0 001.21-3.024c.17-.521.326-1.053.471-1.585 3.303-12.822-4.197-26.176-7.777-39.082a54.247 54.247 0 01-1.016-4.198c-1.125-5.6-1.21-11.092 1.028-16.402a19.681 19.681 0 0111.177-10.765c1.176-.474 2.39-.85 3.628-1.125a27.145 27.145 0 0119.959 3.338 45.478 45.478 0 0114.225 15.036c.58.931 1.209 1.899 1.693 2.866a124.138 124.138 0 017.488 16.548 414.248 414.248 0 013.568 9.677l1.27 3.314c3.52 9.193 7.5 18.144 13.656 25.402 2.964 3.507 6.363 6.556 9.677 9.773a96.836 96.836 0 012.19 2.25c.943.992 1.863 2.02 2.733 3.085a49.923 49.923 0 0110.826 32.296v.23c0 1.488-.145 2.975-.302 4.451-1.452 13.923-7.197 27.724-4.04 41.248.23.967.496 1.923.81 2.854.315.932.738 2.093 1.21 3.109 3.532 8.201 9.786 15.023 15.289 22.027a75.374 75.374 0 015.927 8.624c.436.968.968 1.899 1.452 2.915z" fill="#8EB438"/><path d="M175.87 318.238c-.121 1.79-.254 3.629-.375 5.431l1.415-.786a252.73 252.73 0 0024.507-15.302 254.154 254.154 0 0010.281-7.681c.29 1.089.641 2.153 1.028 3.218a280.199 280.199 0 01-13.305 9.761 285.523 285.523 0 01-12.423 7.96c-3.798 2.274-7.657 4.669-11.661 6.556-.52 9.846-.411 19.861 2.928 29.03v.073a85.068 85.068 0 01-3.061.447 48.85 48.85 0 01-.967-3.108c-2.226-8.214-2.419-16.754-1.984-25.281-3.81 1.004-7.584.097-11.491-.678a514.724 514.724 0 01-15.459-3.29 482.369 482.369 0 01-14.358-3.508c0-1.112 0-2.225.097-3.338a549.89 549.89 0 0017.914 4.342 542.147 542.147 0 0014.515 3.012c2.419.46 4.839 1.089 7.258.557a12.12 12.12 0 001.669-.508c.206-3.484.472-6.943.702-10.379.663-7.499.606-15.046-.17-22.535a9.936 9.936 0 01-2.286.508c-5.134.363-10.288.363-15.422 0a250.762 250.762 0 01-32.914-3.314c-1.911-1.56-3.967-2.951-6.048-4.379 4.194.807 8.407 1.512 12.641 2.117a251.72 251.72 0 0029.369 2.419c2.419.049 4.875.049 7.366 0 2.19 0 4.633.218 6.738-.556a46.676 46.676 0 00-4.391-13.306c-4.669-9.035-11.806-16.269-16.729-25.111-.514.233-1.043.431-1.584.593-2.331.59-4.761.668-7.125.229a446.029 446.029 0 01-46.195-9.144c0-1.113.17-2.214.303-3.302a558.33 558.33 0 0020.382 4.596c4.838.992 9.676 1.915 14.515 2.77 2.54.452 5.08.879 7.62 1.282 2.329.489 4.698.756 7.076.799a9.838 9.838 0 003.46-.738c-.133-.29-.278-.593-.411-.895-4.839-10.887-4.246-22.789-3.024-34.45l.109-.943a7.402 7.402 0 01-2.311 0 133.61 133.61 0 01-13.438-3.169l-13.669-3.327-9.278-2.25a27.568 27.568 0 00-.435-3.459l12.81 3.121 13.305 3.241 7.161 1.742c1.899.46 4.089 1.319 6.048.774h.145c.484-4.512.92-9.035.992-13.584a61.77 61.77 0 00-2.419-18.289 78.846 78.846 0 00-1.742-5.346 7.907 7.907 0 01-3.508.798 94.018 94.018 0 01-13.305-1.427 215.788 215.788 0 01-38.478-9.157 46.058 46.058 0 01-1.512-3.931 210.036 210.036 0 0017.189 5.225 209.492 209.492 0 0025.232 4.923c2.306.307 4.617.569 6.931.787 1.959.193 4.403.75 6.302-.109-3.629-9.048-8.383-17.564-12.338-26.418a106.265 106.265 0 01-5.467-14.721c-2.492 1.137-5.383-.254-7.802-1.004l-10.137-3.145-9.338-2.927a27.13 27.13 0 001.21-3.024l10.68 3.314 9.508 2.952c1.343.411 3.242 1.391 4.669.943.188-.069.37-.154.544-.254a132.458 132.458 0 01-2.745-19.656c-.375-4.838-.654-9.677-1.053-14.515a287.182 287.182 0 01-28.921-13.45 54.236 54.236 0 01-1.016-4.198 281.321 281.321 0 0029.611 14.02 97.682 97.682 0 00-3.557-19.113c-2.649-8.588-7.064-16.753-13.85-22.075a23.253 23.253 0 013.629-1.125c7.512 6.726 11.903 16.814 14.334 26.841a103.817 103.817 0 012.262 13.524c5.854-7.339 11.713-14.673 17.575-22.003.581.931 1.21 1.9 1.694 2.867l-18.846 23.587c.557 6.592.847 13.221 1.476 19.789a119.328 119.328 0 001.899 12.967l.182-.206a506.62 506.62 0 0013.499-14.866 1145.276 1145.276 0 0012.93-15.071l1.21 3.35-1.488 1.778a593.598 593.598 0 01-13.801 16.004 539.207 539.207 0 01-6.98 7.681 870.402 870.402 0 01-3.629 3.919l-1.004 1.064c.291 1.101.593 2.189.932 3.278a127.161 127.161 0 007.257 17.66c3.206 6.689 6.69 13.306 9.508 20.285 1.076-1.149 2.068-2.491 3.012-3.544l4.633-5.177c8.273-9.257 16.551-18.531 24.833-27.821a96.793 96.793 0 012.189 2.25l-8.685 9.677-20.406 22.874a60.711 60.711 0 01-4.415 4.838 76.66 76.66 0 013.302 11.225c1.803 8.6 1.307 17.213.472 25.837.847-.713 1.657-1.488 2.419-2.129a610.74 610.74 0 005.056-4.282 711.816 711.816 0 0010.258-8.914 782.522 782.522 0 0025.522-23.66v.23c0 1.487-.145 2.975-.302 4.451a692.202 692.202 0 01-6.145 5.842 752.229 752.229 0 01-21.168 19.172 693.613 693.613 0 01-10.572 9.048 41.72 41.72 0 01-5.467 4.331c-.182 1.838-.375 3.629-.557 5.516a82.707 82.707 0 00-.205 17.974 41.396 41.396 0 003.701 12.556 71.192 71.192 0 006.048-4.839l12.278-10.063 18.857-15.459a26.34 26.34 0 001.21 3.109l-22.789 18.688c-4.04 3.314-8.032 6.713-12.096 9.943-.641.496-1.294.98-1.972 1.439l.412.714c5.83 10.04 14.285 18.144 18.482 29.333a51.549 51.549 0 012.335 8.213c1.5-1.306 2.843-2.976 4.149-4.306 1.778-1.815 3.568-3.629 5.346-5.456l27.398-27.917a55.98 55.98 0 011.56 2.903l-7.415 7.451-23.841 24.313a49.27 49.27 0 01-6.689 6.363c1.282 9.06.726 18.434.085 27.494z" fill="#fff"/><path d="M476.612 334.672a15.999 15.999 0 01-9.156 7.125c-4.524 1.209-9.75 0-13.947 1.862a11.66 11.66 0 00-3.266 2.25c-.492.46-.96.945-1.403 1.452-1.984 2.25-3.701 4.838-6.121 6.653-5.987 4.463-15.313 3.024-22.087-1.355a54.012 54.012 0 01-12.519-11.745c-.436-.557-.859-1.137-1.283-1.706-8.092-11.153-11.999-25.16-.338-33.143a33.819 33.819 0 014.766-2.589l1.838-.822c4.512-1.984 9.012-3.895 11.129-8.068a13.807 13.807 0 001.282-4.536c.205-1.536.254-3.133.338-4.718 0-.822.109-1.633.194-2.419 1.064-9.241 7.633-17.116 16.269-20.624.629-.254 1.21-.484 1.899-.689a26.434 26.434 0 017.826-1.21c3.907 0 7.935.714 11.673-.133 1.4-.309 2.743-.835 3.98-1.56a14.884 14.884 0 001.729-1.21c6.314-4.935 9.23-14.648 14.286-21.277a23.218 23.218 0 011.621-1.935 14.808 14.808 0 018.152-4.693c5.057-.968 10.5 1.004 15.725 1.064a16.41 16.41 0 002.044-.085c.351 0 .69-.084 1.029-.145 8.08-1.403 12.785-9.362 18.567-14.89.629-.605 1.282-1.21 1.935-1.705a14.952 14.952 0 019.254-3.702 14.194 14.194 0 019.677 3.822 18.093 18.093 0 011.862 1.863 20.213 20.213 0 014.972 12.75 26.313 26.313 0 01-3.326 12.398c-.315.605-.642 1.21-.98 1.766a64.913 64.913 0 01-6.447 8.794c-1.319 1.548-2.674 3.096-4.016 4.657l-1.403 1.633c-3.787 4.512-7.258 9.217-9.145 14.793-.895 2.685-1.403 5.504-2.044 8.286-.145.629-.303 1.27-.472 1.887-.218.835-.46 1.645-.75 2.419a26.143 26.143 0 01-13.85 14.915l-.133.06c-.823.363-1.657.69-2.516.992-8.056 2.782-17.503 3.012-23.769 8.467-.45.379-.878.783-1.282 1.21-.46.484-.883.992-1.294 1.512-3.242 4.258-4.839 9.773-6.75 14.878a42.278 42.278 0 01-2.673 5.782c-.363.556-.714 1.125-1.077 1.669z" fill="#8EB438"/><path d="M428.12 329.46l-3.085 1.209.908.629a193.176 193.176 0 0016.632 10.524 184.757 184.757 0 007.669 4.101c-.492.459-.961.944-1.404 1.451a204.41 204.41 0 01-9.834-5.358 193.118 193.118 0 01-8.539-5.299c-2.529-1.657-5.141-3.326-7.536-5.201-5.516 2.274-10.887 4.972-14.782 9.375-.435-.557-.858-1.137-1.282-1.706.436-.484.895-.943 1.367-1.391a42.99 42.99 0 0113.04-7.826c-1.827-1.996-2.625-4.476-3.532-7.004a377.589 377.589 0 01-3.472-10.052 329.835 329.835 0 01-2.976-9.459l1.839-.822a412.942 412.942 0 003.738 11.793 464.548 464.548 0 003.302 9.423 13.84 13.84 0 002.177 4.476c.264.304.547.591.847.859 1.959-.787 3.931-1.549 5.866-2.311a62.649 62.649 0 0012.181-6.048 8.769 8.769 0 01-1.052-1.209 85.996 85.996 0 01-5.25-9.157 193.55 193.55 0 01-9.399-20.442c.206-1.536.254-3.133.339-4.718a192 192 0 003.145 8.08 193.99 193.99 0 008.697 18.084 196.47 196.47 0 002.48 4.391 16.17 16.17 0 002.588 3.871 24.19 24.19 0 005.758-6.133c3.327-5.141 4.839-11.286 7.947-16.535-.3-.247-.587-.509-.859-.787a13.166 13.166 0 01-2.54-4.173c-4.112-9.785-7.62-19.789-10.753-29.865a20.351 20.351 0 011.899-.689 409.044 409.044 0 004.439 13.305 396.353 396.353 0 005.335 14.213 28.73 28.73 0 001.971 4.415 8.16 8.16 0 001.585 1.875l.338-.496c4.234-5.746 10.887-8.467 17.685-10.886l.544-.194a5.515 5.515 0 01-.798-1.355c-1.21-2.842-1.936-5.915-2.855-8.83s-1.899-6.048-2.842-8.987l-1.924-6.109a14.924 14.924 0 001.73-1.209c.883 2.806 1.766 5.624 2.661 8.467.895 2.843 1.839 5.855 2.77 8.782l1.488 4.705a9.345 9.345 0 001.633 3.798l.073.073a80.197 80.197 0 007.717-2.976 32.35 32.35 0 009.108-6.241 53.232 53.232 0 002.31-2.42 6.518 6.518 0 01-1.633-1.874 73.324 73.324 0 01-3.725-8.262 159.129 159.129 0 01-8.117-25.269 23.218 23.218 0 011.621-1.935 156.926 156.926 0 008.915 27.881c.629 1.452 1.27 2.891 1.923 4.331a10.118 10.118 0 002.214 3.713c3.689-4.524 6.689-9.604 10.149-14.285a56.203 56.203 0 016.132-7.113c-1.463-1.209-1.693-3.266-2.104-4.899l-1.742-6.858c-.545-2.129-1.089-4.27-1.621-6.399.682.015 1.365-.014 2.044-.084.617 2.419 1.21 4.838 1.839 7.257l1.633 6.423a6.465 6.465 0 001.076 3.024 2.6 2.6 0 00.327.254 67.643 67.643 0 019.677-6.786c2.491-1.5 5.032-2.939 7.523-4.451a200.65 200.65 0 01-2.54-20.721c.629-.604 1.282-1.209 1.936-1.705a195.59 195.59 0 002.419 21.289 51.208 51.208 0 009.181-7.137c3.761-3.834 6.701-8.6 7.257-14.031a18.004 18.004 0 011.863 1.863c-1.101 6.229-5.08 11.479-9.677 15.567a54.287 54.287 0 01-6.58 4.899l17.926 4.657a29.8 29.8 0 01-.98 1.766l-19.22-5.008c-3.387 2.069-6.895 3.98-10.245 6.048a61.038 61.038 0 00-6.387 4.536l.169.061a403.221 403.221 0 0012.677 4.113 416.599 416.599 0 0012.543 3.628l-1.403 1.633-1.463-.411a412.041 412.041 0 01-13.391-4.004 323.737 323.737 0 01-6.544-2.129l-3.362-1.137-.92-.314c-.508.459-.992.931-1.463 1.415a66.072 66.072 0 00-7.125 8.963c-2.54 3.629-4.971 7.476-7.778 10.983.992.339 2.057.569 2.952.859l4.379 1.391 23.526 7.464c-.145.629-.302 1.27-.471 1.887l-8.226-2.601-19.353-6.121a42.795 42.795 0 01-4.113-1.367 38.894 38.894 0 01-4.971 4.911c-4.065 3.339-8.903 5.299-13.862 7.077.665.314 1.366.592 1.971.871 1.343.641 2.698 1.209 4.04 1.887a857.444 857.444 0 008.334 3.749 593.186 593.186 0 0021.531 8.951l-.133.061a35.15 35.15 0 01-2.516.992l-5.261-2.117a582.21 582.21 0 01-17.612-7.548 413.786 413.786 0 01-8.467-3.907 31.812 31.812 0 01-4.21-2.117l-3.181 1.125a43.722 43.722 0 00-9.834 4.597 21.674 21.674 0 00-5.564 5.503c1.487.907 3.157 1.597 4.681 2.335l9.677 4.645 14.817 7.378a22.06 22.06 0 00-1.294 1.512l-17.89-8.636c-3.181-1.524-6.387-3.012-9.532-4.609-.484-.242-.98-.508-1.451-.786l-.254.435c-3.46 6.048-5.008 13.306-9.677 18.689a27.436 27.436 0 01-3.629 3.544c1.21.556 2.577.907 3.75 1.33l4.778 1.754 24.482 8.939c-.326.581-.677 1.21-1.04 1.694l-6.58-2.419-21.301-7.79a35.637 35.637 0 01-5.734-2.299c-4.5 3.158-9.749 5.226-14.878 7.234z" fill="#fff"/><path d="M488.419 319.55c-1.851 4.911-5.504 8.733-9.242 12.168a130.695 130.695 0 01-44.501 26.926c-10.802 3.847-29.031 10.124-41.526 7.935a21.455 21.455 0 01-3.314-.822c-10.995-3.75-21.652-20.818-27.398-31.099-14.43-25.813-18.954-58.448-10.342-87.37.956-3.218 2.19-6.568 4.452-8.818.31-.313.641-.604.992-.871a9.343 9.343 0 012.092-1.21c6.326-2.528 13.911 3.157 19.209 8.564a149.374 149.374 0 01-1.21-34.074c.641-8.238 2.347-17.128 8.092-22.487.12-.13.25-.251.387-.363a11.456 11.456 0 012.77-1.79c6.23-2.867 14.83-.447 16.149 6.677a147.393 147.393 0 016.048-51.505c1.741-5.697 3.919-11.43 7.753-15.724a18.92 18.92 0 015.347-4.222 15.503 15.503 0 013.374-1.294 11.822 11.822 0 016.29 0c9.532 2.806 12 15.979 12.677 26.671a115.783 115.783 0 0117.648-33.288c4.633-6.048 11.177-11.963 18.072-11.624.977.04 1.946.211 2.878.508l.424.145c6.592 2.347 10.076 10.415 11.116 17.914 1.923 13.838-1.681 27.676-6.229 40.921-.823 2.419-1.67 4.754-2.516 7.101a11.59 11.59 0 0115.362 3.544 12.719 12.719 0 011.838 3.629c.58 1.789.786 3.679.605 5.552a62.323 62.323 0 01-3.181 14.225 201.818 201.818 0 01-18.072 39.118c4.488-7.548 17.261-5.516 19.56 3.109a12.2 12.2 0 01.314 1.596c.226 1.774.197 3.57-.085 5.335a41.583 41.583 0 01-.786 3.858c-5.552 22.136-21.071 39.434-36.01 55.642 6.254-2.262 13.947-4.221 18.797.605.242.239.468.494.678.762.745.933 1.33 1.983 1.73 3.109a16.237 16.237 0 01-.242 10.947z" fill="#AFDD44"/><path d="M488.685 308.655a132.534 132.534 0 01-4.645 3.194 122.415 122.415 0 01-75.721 19.898 777.362 777.362 0 01-15.169 34.836 21.341 21.341 0 01-3.314-.822c5.346-11.359 10.342-22.898 15.096-34.571a135.118 135.118 0 01-17.999-18.882 151.03 151.03 0 01-30.41-73.846c.311-.313.642-.604.992-.871a9.35 9.35 0 012.093-1.21c.562 4.876 1.37 9.721 2.419 14.516 6.435 29.998 22.172 57.553 44.296 76.906a9869.7 9869.7 0 004.838-12.265 1201.521 1201.521 0 0011.08-29.902 173.828 173.828 0 01-13.983-21.325 184.14 184.14 0 01-22.547-75.903c.12-.13.25-.251.387-.362a11.43 11.43 0 012.77-1.791c.307 4.839.807 9.677 1.5 14.516a177.675 177.675 0 0033.288 81.043c5.746-16.221 11.25-32.55 16.681-48.904a1.297 1.297 0 01-.133-.291 323.89 323.89 0 01-7.56-26.454 318.148 318.148 0 01-8.467-84.672 15.554 15.554 0 013.374-1.294 311.652 311.652 0 00-.217 16.475 312.749 312.749 0 0014.72 90.889c2.904-8.741 5.799-17.495 8.685-26.26 10.887-32.938 21.652-65.948 31.45-99.284.978.04 1.946.211 2.879.508l.423.145a1913.502 1913.502 0 01-15.18 49.364 5441.908 5441.908 0 01-26.236 80.124 142.877 142.877 0 0016.765-10.983 159.364 159.364 0 0042.336-49.026 12.745 12.745 0 011.838 3.629 170.614 170.614 0 01-2.673 4.5 158.532 158.532 0 01-59.27 56.416c-.212.12-.447.19-.69.205a5787.27 5787.27 0 01-10.717 31.511 2581.98 2581.98 0 01-5.467 15.652 123.82 123.82 0 0022.789-6.048 137.36 137.36 0 0055.23-38.647 18.767 18.767 0 01-.085 5.334c-21.216 23.188-49.46 38.708-79.313 43.28-4.839 13.535-9.883 26.998-15.229 40.316 6.815.447 13.657.281 20.442-.496a121.585 121.585 0 0056.851-22.196 10.718 10.718 0 011.803 3.048z" fill="#fff"/><path d="M166.712 298.045a19.35 19.35 0 013.919 7.971 75.899 75.899 0 012.419 30.144c-.81 6.616-2.298 17.732-6.689 23.659a13.32 13.32 0 01-1.294 1.512c-4.839 4.742-16.463 5.831-23.297 6.145-17.189.762-35.321-5.395-48.106-17.406a11.742 11.742 0 01-3.423-4.609 5.204 5.204 0 01-.194-.75 4.96 4.96 0 01-.072-1.391c.326-3.943 5.261-6.41 9.447-7.753a87.048 87.048 0 01-18.036-8.238c-4.1-2.479-8.285-5.685-9.567-10.063 0-.097 0-.194-.097-.291a7.256 7.256 0 01-.206-1.911c.133-3.992 3.629-7.826 7.681-6.653a85.688 85.688 0 01-25.232-16.596 24.55 24.55 0 01-6.17-8.14 11.01 11.01 0 01-.798-3.871 9.168 9.168 0 01.206-2.092 6.818 6.818 0 011.67-3.254c3.943-4.234 11.442-2.069 17.176.363a67.242 67.242 0 01-12.713-17.854c-1.923-3.98-3.303-8.927-1.33-12.423a7.282 7.282 0 011.015-1.367l.194-.181c2.94-2.806 8.031-2.516 12.205-1.101 7.693 2.601 13.946 8.08 19.644 13.898a242.39 242.39 0 013.024 3.158 6.737 6.737 0 015.854-7.052 7.384 7.384 0 012.42 0 8.03 8.03 0 013.047 1.137 36.264 36.264 0 016.557 5.358 116.662 116.662 0 0115.616 19.547c-2.746-4.294 1.645-10.402 6.725-9.35.307.064.61.144.907.242.977.351 1.902.835 2.746 1.439a22.57 22.57 0 011.802 1.416c10.052 8.66 14.999 21.228 19.56 33.227.459-3.834 1.439-8.346 5.213-9.604.178-.066.36-.123.544-.169a6.18 6.18 0 012.057-.085 9.404 9.404 0 015.576 2.988z" fill="#AFDD44"/><path d="M161.113 295.072c.181 1.076.326 2.153.447 3.241a71.1 71.1 0 01-9.386 44.55 507.844 507.844 0 0114.152 16.934 13.32 13.32 0 01-1.294 1.512c-4.512-5.745-9.205-11.346-14.032-16.861a78.286 78.286 0 01-14.515 4.427 87.77 87.77 0 01-46.304-3.436 5.205 5.205 0 01-.193-.75 4.96 4.96 0 01-.073-1.391c2.675.991 5.4 1.839 8.165 2.541a82.845 82.845 0 0051.493-3.012 668.9 668.9 0 00-5.117-5.71 703.413 703.413 0 00-12.652-13.547 102.773 102.773 0 01-14.709 1.814 107.176 107.176 0 01-45.324-8.068c0-.097 0-.193-.097-.29a7.256 7.256 0 01-.205-1.911c2.6 1.1 5.25 2.104 7.923 2.987a103.226 103.226 0 0050.803 3.811c-6.931-7.258-13.983-14.334-21.071-21.41h-.182a185.279 185.279 0 01-15.724-2.964 185.058 185.058 0 01-46.195-17.672 9.182 9.182 0 01.205-2.093 208.842 208.842 0 008.468 4.403 181.625 181.625 0 0051.081 16.04l-11.382-11.359c-14.273-14.261-28.644-28.45-43.4-42.251a7.25 7.25 0 011.015-1.367l.194-.181a1289.605 1289.605 0 0121.688 20.756 3193.694 3193.694 0 0134.812 34.522 85.234 85.234 0 00-1.33-11.575 92.814 92.814 0 00-14.443-34.801 7.44 7.44 0 012.42 0 71.142 71.142 0 011.645 2.565 92.145 92.145 0 0113.91 45.457.883.883 0 01-.073.411c4.54 4.58 9.068 9.177 13.584 13.789a932.095 932.095 0 016.714 6.919 72.155 72.155 0 002.782-13.438 79.992 79.992 0 00-5.698-38.78c.978.35 1.902.835 2.746 1.439a79.434 79.434 0 011.718 52.461c5.77 6.048 11.455 12.168 16.934 18.422a65.806 65.806 0 005.044-10.693 70.713 70.713 0 003.423-35.369 6.17 6.17 0 012.033-.072z" fill="#fff"/><path d="M516.08 192.365l3.375 7.294 7.536 1.173-5.456 5.674 1.295 8.019-6.75-3.786-6.737 3.786 1.294-8.019-5.455-5.674 7.535-1.173 3.363-7.294zm-439.084 2.419l3.375 7.294 7.536 1.173-5.456 5.673 1.295 8.02-6.75-3.786-6.737 3.786 1.282-8.02-5.443-5.673 7.535-1.173 3.363-7.294zM458.517 70.227l3.762 8.14 8.418 1.307-6.084 6.35 1.439 8.951-7.535-4.234-7.524 4.234 1.439-8.951-6.096-6.35 8.419-1.307 3.762-8.14zM67.403 81.368l4.366 9.435 9.75 1.512-7.052 7.342 1.657 10.379-8.721-4.899-8.721 4.899 1.669-10.379-7.052-7.342 9.75-1.512 4.354-9.435z" fill="#ECBF4C"/><path d="M362.293 17.734a7.374 7.374 0 014.947-6.382 7.378 7.378 0 112.407 14.353 7.68 7.68 0 01-7.354-7.97zm23.261 0a7.378 7.378 0 117.367 7.971 7.692 7.692 0 01-7.367-7.97zm30.373 16.194V354.81c0 6.835-5.117 12.387-11.419 12.387H184.36c-6.314 0-11.43-5.552-11.43-12.387V33.928h242.997z" fill="#fff"/><path d="M404.508 0H184.36c-6.314 0-11.43 5.54-11.43 12.386v21.556h242.997V12.373C415.927 5.528 410.81 0 404.508 0zM369.66 25.716a7.996 7.996 0 117.354-7.971 7.683 7.683 0 01-7.354 7.96v.011zm23.26 0a7.998 7.998 0 01-7.838-4.461 7.992 7.992 0 011.304-8.924 7.994 7.994 0 0112.482.905 8 8 0 011.395 4.509 7.694 7.694 0 01-7.343 7.96v.011z" fill="#8EB438"/><path d="M377.013 17.733a7.38 7.38 0 01-14.632.628 7.384 7.384 0 013.24-7.397 7.376 7.376 0 014.037-1.202 7.683 7.683 0 017.355 7.971zm23.25 0a7.386 7.386 0 01-4.95 6.383 7.38 7.38 0 01-9.16-9.944 7.377 7.377 0 016.767-4.41 7.682 7.682 0 017.343 7.971z" fill="#8EB438"/><path d="M377.013 17.733a7.38 7.38 0 01-14.632.628 7.384 7.384 0 013.24-7.397 7.376 7.376 0 014.037-1.202 7.683 7.683 0 017.355 7.971z" fill="#ECBF4C"/><path d="M400.263 17.733a7.386 7.386 0 01-4.95 6.383 7.38 7.38 0 01-9.16-9.944 7.377 7.377 0 016.767-4.41 7.682 7.682 0 017.343 7.971z" fill="#8EB438"/><path d="M404.531 70.969h-87.103V81.25h87.103V70.97zm.001 20.645h-68.077v10.209h68.077V91.614zm0 192.785h-86.257v10.282h86.257v-10.282zm0 20.576h-86.257v10.281h86.257v-10.281zM271.971 147.593h-84.297v10.281h84.297v-10.281zm-12.797 20.582h-71.5v9.967h71.5v-9.967zm12.797 21.599h-84.297v10.282h84.297v-10.282zm0 20.565h-84.297v10.281h84.297v-10.281z" fill="#EBEBEB"/><path d="M316.23 141.802h165.208a4.056 4.056 0 012.869 1.191 4.041 4.041 0 011.183 2.873v60.093a4.05 4.05 0 01-2.502 3.744 4.058 4.058 0 01-1.55.308h-138.79a4.107 4.107 0 00-3.157 1.5l-16.415 20.297a1.569 1.569 0 01-1.742.494 1.567 1.567 0 01-1.052-1.473V214.1a4.053 4.053 0 00-4.052-4.052 4.05 4.05 0 01-3.744-2.502 4.06 4.06 0 01-.308-1.551v-60.129a4.042 4.042 0 011.182-2.873 4.066 4.066 0 011.316-.882 4.064 4.064 0 011.554-.309z" fill="#941759"/><path d="M383.584 162.522l2.31 5.057 5.141.81-3.726 3.931.883 5.552-4.608-2.612-4.597 2.612.883-5.552-3.725-3.931 5.14-.81 2.299-5.057zm20.826 0l2.31 5.057 5.141.81-3.726 3.931.883 5.552-4.608-2.612-4.597 2.612.871-5.552-3.713-3.931 5.141-.81 2.298-5.057zm20.832 0l2.298 5.057 5.153.81-3.726 3.931.883 5.552-4.608-2.612-4.597 2.612.871-5.552-3.713-3.931 5.141-.81 2.298-5.057zm20.828 0l2.298 5.057 5.153.81-3.726 3.931.871 5.552-4.596-2.612-4.597 2.612.871-5.552-3.713-3.931 5.141-.81 2.298-5.057z" fill="#F8DC29"/><path d="M466.9 162.522l2.298 5.057 5.153.81-3.725 3.931.883 5.552-4.609-2.612-4.597 2.612.871-5.552-3.713-3.931 5.141-.81 2.298-5.057zm-38.043-11.188h-49.981a2.044 2.044 0 00-2.044 2.044v2.637c0 1.129.915 2.044 2.044 2.044h49.981a2.044 2.044 0 002.044-2.044v-2.637a2.044 2.044 0 00-2.044-2.044zm33.822 32.187H379.18a1.9 1.9 0 00-1.899 1.9v2.443c0 1.049.85 1.899 1.899 1.899h83.499c1.049 0 1.899-.85 1.899-1.899v-2.443a1.9 1.9 0 00-1.899-1.9zm0 11.043H379.18a1.9 1.9 0 00-1.899 1.9v2.443c0 1.049.85 1.899 1.899 1.899h83.499c1.049 0 1.899-.85 1.899-1.899v-2.443a1.9 1.9 0 00-1.899-1.9zm-92.892-11.651c3.101-13.017-4.937-26.083-17.953-29.184-13.017-3.101-26.083 4.938-29.184 17.954-3.101 13.017 4.937 26.083 17.954 29.184 13.017 3.101 26.083-4.937 29.183-17.954z" fill="#fff"/><path d="M337.24 163.398a12.949 12.949 0 00-3.387 10.221c.267 2.988 1.379 6.048.472 8.927-.847 2.661-3.387 4.838-3.048 7.669a4.074 4.074 0 003.992 3.459 7.38 7.38 0 012.818 0 7.92 7.92 0 011.669 1.21c1.633 1.209 3.944.81 5.831.072a4.59 4.59 0 001.826-1.124 5.237 5.237 0 00.895-3.436c.21-8.733.411-17.466.605-26.2a4.657 4.657 0 00-.194-1.79c-.713-1.851-3.943-2.008-5.564-1.839a9.97 9.97 0 00-5.915 2.831z" fill="#3B3D42"/><path d="M356.315 163.398a12.951 12.951 0 013.387 10.221c-.266 2.988-1.379 6.048-.472 8.927.847 2.661 3.387 4.838 3.048 7.669a4.087 4.087 0 01-3.991 3.459 7.385 7.385 0 00-2.819 0 8.383 8.383 0 00-1.681 1.21c-1.633 1.209-3.931.81-5.818.072a4.507 4.507 0 01-1.827-1.124 5.255 5.255 0 01-.907-3.436c-.193-8.733-.391-17.466-.593-26.2a4.677 4.677 0 01.194-1.79c.702-1.851 3.943-2.008 5.564-1.839a10.01 10.01 0 015.915 2.831z" fill="#3B3D42"/><path d="M362.026 197.317v8.636c.005.728-.04 1.456-.133 2.178h-30.385a16.183 16.183 0 01-.133-2.178v-8.636a17.34 17.34 0 017.62-14.6 13.924 13.924 0 0115.362 0 14.518 14.518 0 013.169 2.673 17.788 17.788 0 014.5 11.927z" fill="#8EB438"/><path d="M350.789 184.18c5.408-2.254 7.964-8.466 5.71-13.873-2.255-5.408-8.466-7.964-13.874-5.71-5.407 2.254-7.964 8.465-5.709 13.873 2.254 5.408 8.465 7.964 13.873 5.71z" fill="#F2FBDD"/><path d="M349.906 170.78c1.016.411 2.153.496 3.121.992a12.935 12.935 0 012.963 2.794 2.42 2.42 0 001.778.92c1.101-.085 1.621-1.416 1.706-2.529a10.067 10.067 0 00-1.875-6.531 9.95 9.95 0 00-5.649-3.786 5.437 5.437 0 00-3.229 0c-3.762 1.499-1.694 6.967 1.185 8.14z" fill="#3B3D42"/><path d="M347.523 166.631a4.234 4.234 0 01-2.093 2.77c-1.282.617-2.854.387-4.125 1.04a5.754 5.754 0 00-2.104 2.262c-.629 1.052-1.476 2.322-2.698 2.189a1.973 1.973 0 01-1.548-1.33 4.367 4.367 0 01-.133-2.129 11.857 11.857 0 011.968-5.049 11.855 11.855 0 014.007-3.648 7.43 7.43 0 013.629-1.016c3 .072 3.762 2.286 3.097 4.911z" fill="#3B3D42"/><path d="M294.783 50.318H129.588a4.064 4.064 0 00-4.065 4.065v60.093a4.068 4.068 0 004.065 4.052h138.778a4.078 4.078 0 013.157 1.5l16.414 20.285a1.575 1.575 0 001.742.494 1.572 1.572 0 001.052-1.474V122.58a4.05 4.05 0 014.052-4.052 4.068 4.068 0 004.065-4.052V54.431a4.06 4.06 0 00-1.174-2.905 4.066 4.066 0 00-2.891-1.208z" fill="#941759"/><path d="M195.887 71.04l2.298 5.055 5.141.81-3.714 3.932.871 5.552-4.596-2.613-4.609 2.613.883-5.552-3.725-3.931 5.152-.81 2.299-5.057zm20.83 0l2.298 5.055 5.141.81-3.714 3.932.871 5.552-4.596-2.613-4.609 2.613.883-5.552-3.725-3.931 5.153-.81 2.298-5.057zm20.83 0l2.298 5.055 5.141.81-3.726 3.932.883 5.552-4.596-2.613-4.609 2.613.883-5.552-3.725-3.931 5.153-.81 2.298-5.057zm20.828 0l2.298 5.055 5.141.81-3.726 3.932.883 5.552-4.596-2.613-4.609 2.613.883-5.552-3.725-3.931 5.153-.81 2.298-5.057z" fill="#F8DC29"/><path d="M279.205 71.04l2.298 5.055 5.141.81-3.725 3.932.883 5.552-4.597-2.613-4.609 2.613.883-5.552-3.725-3.931 5.141-.81 2.31-5.057zm-38.041-11.19h-49.981a2.044 2.044 0 00-2.044 2.045v2.637c0 1.129.915 2.044 2.044 2.044h49.981a2.044 2.044 0 002.044-2.044v-2.637a2.044 2.044 0 00-2.044-2.044zm33.806 32.188h-83.499a1.9 1.9 0 00-1.899 1.9v2.443a1.9 1.9 0 001.899 1.899h83.499c1.049 0 1.899-.85 1.899-1.9v-2.443c0-1.049-.85-1.899-1.899-1.899zm0 11.043h-83.499a1.9 1.9 0 00-1.899 1.899v2.444a1.9 1.9 0 001.899 1.899h83.499a1.9 1.9 0 001.899-1.899v-2.444c0-1.049-.85-1.899-1.899-1.899zm-115.54 6.283c13.38 0 24.228-10.848 24.228-24.228 0-13.381-10.848-24.229-24.228-24.229-13.381 0-24.229 10.848-24.229 24.229 0 13.38 10.848 24.228 24.229 24.228z" fill="#fff"/><path d="M175.564 105.823v9.097c.001.772-.048 1.544-.145 2.31h-32.067a18.023 18.023 0 01-.145-2.31v-9.097a18.301 18.301 0 018.032-15.398 14.766 14.766 0 0116.196 0 16.203 16.203 0 013.351 2.818 18.8 18.8 0 014.778 12.58z" fill="#8EB438"/><path d="M170.446 83.458c.987-6.1-3.158-11.845-9.258-12.832-6.101-.987-11.846 3.158-12.833 9.258-.987 6.1 3.158 11.846 9.259 12.833 6.1.987 11.845-3.159 12.832-9.259z" fill="#F2FBDD"/><path d="M159.657 79.694a3.47 3.47 0 002.419-.375 1.822 1.822 0 00.609-1.513 1.817 1.817 0 00-.851-1.39 10.89 10.89 0 005.226 2.213 3.01 3.01 0 003.072-.931c2.661-4.379-4.717-8.129-8.032-8.625a16.679 16.679 0 00-10.112 1.319c-2.298 1.27-4.838 4.705-2.032 6.713s6.483 2.298 9.701 2.589z" fill="#3B3D42"/><path d="M293.949 241.438H128.742a4.052 4.052 0 00-4.053 4.052v60.093a4.068 4.068 0 001.183 2.873 4.053 4.053 0 002.87 1.191h138.79a4.01 4.01 0 013.145 1.5l16.426 20.285a1.562 1.562 0 002.503-.08c.186-.267.283-.586.279-.912v-16.741a4.064 4.064 0 014.064-4.04c.533 0 1.061-.105 1.554-.309a4.066 4.066 0 002.194-2.201 4.06 4.06 0 00.304-1.554V245.55a4.031 4.031 0 00-1.165-2.904 4.036 4.036 0 00-2.887-1.208z" fill="#941759"/><path d="M158.644 299.45c13.381 0 24.229-10.848 24.229-24.228 0-13.381-10.848-24.229-24.229-24.229-13.381 0-24.228 10.848-24.228 24.229 0 13.38 10.847 24.228 24.228 24.228z" fill="#fff"/><path d="M174.804 295.909v9.096a18.21 18.21 0 01-.145 2.311h-32.055a18.21 18.21 0 01-.145-2.311v-9.096a18.283 18.283 0 018.032-15.398 14.766 14.766 0 0116.196 0 15.838 15.838 0 013.339 2.818 18.752 18.752 0 014.778 12.58z" fill="#8EB438"/><path d="M158.607 282.949c6.179 0 11.189-5.009 11.189-11.189 0-6.179-5.01-11.189-11.189-11.189-6.18 0-11.189 5.01-11.189 11.189 0 6.18 5.009 11.189 11.189 11.189z" fill="#F2FBDD"/><path d="M161.221 269.006c2.462.484 5.016.135 7.258-.992 2.153-1.21 3.629-4.004 2.685-6.338a2.263 2.263 0 00-.593-.932c-.834-.738-2.104-.423-3.217-.314a14.232 14.232 0 01-5.117-.69 18.14 18.14 0 00-5.116-.846 5.551 5.551 0 00-2.504.587 5.58 5.58 0 00-1.972 1.65c-2.915 4.561 5.504 7.403 8.576 7.875z" fill="#3B3D42"/><path d="M155.292 264.302a13.454 13.454 0 01-5.007 9.677 2.872 2.872 0 01-2.178.81c-1.209-.206-1.693-1.536-1.862-2.685a12.442 12.442 0 012.758-9.762 5.523 5.523 0 012.745-1.959c2.565-.69 3.702 1.778 3.544 3.919z" fill="#3B3D42"/><path d="M196.311 261.671l2.298 5.056 5.141.81-3.726 3.932.883 5.552-4.596-2.625-4.609 2.625.883-5.552-3.726-3.932 5.141-.81 2.311-5.056zm20.83 0l2.298 5.056 5.141.81-3.726 3.932.883 5.552-4.596-2.625-4.609 2.625.883-5.552-3.726-3.932 5.141-.81 2.311-5.056zm20.83 0l2.298 5.056 5.141.81-3.726 3.932.883 5.552-4.596-2.625-4.609 2.625.883-5.552-3.725-3.932 5.14-.81 2.311-5.056zm20.816 0l2.31 5.056 5.141.81-3.726 3.932.883 5.552-4.608-2.625-4.597 2.625.883-5.552-3.725-3.932 5.14-.81 2.299-5.056z" fill="#F8DC29"/><path d="M279.617 261.671l2.31 5.056 5.141.81-3.726 3.932.883 5.552-4.608-2.625-4.597 2.625.883-5.552-3.725-3.932 5.141-.81 2.298-5.056zm-38.031-11.185h-49.981a2.045 2.045 0 00-2.044 2.045v2.636c0 1.129.915 2.045 2.044 2.045h49.981a2.045 2.045 0 002.044-2.045v-2.636a2.045 2.045 0 00-2.044-2.045zm33.808 32.177h-83.499c-1.049 0-1.899.85-1.899 1.899v2.444a1.9 1.9 0 001.899 1.899h83.499a1.9 1.9 0 001.899-1.899v-2.444c0-1.049-.85-1.899-1.899-1.899zm0 11.039h-83.499c-1.049 0-1.899.85-1.899 1.899v2.444a1.9 1.9 0 001.899 1.899h83.499a1.9 1.9 0 001.899-1.899v-2.444c0-1.049-.85-1.899-1.899-1.899z" fill="#fff"/><path d="M411.632 268.544h-7.753v104.28h7.753v-104.28z" fill="#AFDD44"/><path d="M411.632 326.57h-7.753v12.616h7.753V326.57zm96.987 0h-7.754v12.616h7.754V326.57z" fill="#941759"/><path d="M526.471 322.115v9.737a3.013 3.013 0 01-2.891 3.121H388.903a3.011 3.011 0 01-2.891-3.121v-9.737a3.2 3.2 0 01.339-1.44 2.844 2.844 0 012.552-1.681H523.58a2.84 2.84 0 012.552 1.681c.224.447.34.94.339 1.44z" fill="#941759"/><path opacity=".29" d="M526.133 320.679a2.845 2.845 0 01-2.552 1.681H388.903a1.829 1.829 0 01-1.721-.158 1.825 1.825 0 011.721-3.204h134.678a2.84 2.84 0 012.552 1.681z" fill="#8EB438"/><path d="M411.632 306.804h-7.753v7.148h7.753v-7.148z" fill="#8EB438"/><path d="M508.619 306.804h-7.754v7.148h7.754v-7.148z" fill="#941759"/><path d="M411.632 288.311h-7.753v7.148h7.753v-7.148z" fill="#8EB438"/><path d="M508.619 288.311h-7.754v7.148h7.754v-7.148z" fill="#941759"/><path d="M411.632 269.812h-7.753v7.148h7.753v-7.148z" fill="#8EB438"/><path d="M508.619 269.812h-7.754v7.148h7.754v-7.148zm15.083 31.117H388.783a2.758 2.758 0 00-2.758 2.758v4.149a2.757 2.757 0 002.758 2.757h134.919a2.757 2.757 0 002.758-2.757v-4.149a2.757 2.757 0 00-2.758-2.758zm0-18.51H388.783a2.758 2.758 0 00-2.758 2.758v4.149a2.758 2.758 0 002.758 2.758h134.919a2.758 2.758 0 002.758-2.758v-4.149a2.758 2.758 0 00-2.758-2.758z" fill="#941759"/><path d="M523.702 263.923H388.783a2.758 2.758 0 00-2.758 2.758v4.149a2.758 2.758 0 002.758 2.758h134.919a2.758 2.758 0 002.758-2.758v-4.149a2.758 2.758 0 00-2.758-2.758z" fill="#941759"/><path d="M194.957 381.449c.47.643.833 1.358 1.077 2.116.653 2.553-1.694 3.17-3.629 2.807-4.633-.847-7.56-2.42-11.83-4.428a5.55 5.55 0 01-1.984-1.33c-1.935-2.298-.242-6.689 1.379-8.31a4.22 4.22 0 011.367-.992 4.347 4.347 0 011.669-.254c6.435.109 8.854 5.613 11.951 10.391zm36.396.166a7.07 7.07 0 011.512 1.827c1.125 2.359-1.052 3.484-3.048 3.568-4.681.194-7.85-.701-12.399-1.705a5.557 5.557 0 01-2.201-.859c-2.335-1.827-1.5-6.508-.218-8.467a4.44 4.44 0 011.149-1.27 4.369 4.369 0 011.585-.617c6.29-1.307 9.689 3.556 13.62 7.523z" fill="#3B3D42"/><path d="M230.797 321.5c-.834 18.531-3.133 36.663-5.431 54.614l-9.677-1.053c1.053-18.071.182-36.034-.266-53.73-.205-8.322-.738-16.572-1.717-24.676h-2.42a395.851 395.851 0 01-20.563 78.842l-10.221-3.968a359.28 359.28 0 0014.467-92.111h34.449c.589 4.669 1.016 9.33 1.283 13.983.517 9.358.549 18.737.096 28.099z" fill="#AFDD44"/><path d="M258.775 222.563a1.586 1.586 0 01-.883-1.959l5.54-17.394a1.405 1.405 0 01.702-.867 1.403 1.403 0 011.112-.089 1.558 1.558 0 01.871 1.947l-5.54 17.491a1.403 1.403 0 01-1.802.871z" fill="#941759"/><path d="M256.766 220.695a4.32 4.32 0 01.52-2.552c.496-.714 1.669-.883 2.081-.109.229.436.145 1.403.822 1.403 1.065 0 1.307-3.048 1.44-3.81.241-1.318.786-2.794 1.959-3.242a2.529 2.529 0 012.855 1.21 5.974 5.974 0 01.738 3.411c-.146 3.629-1.936 7.028-3.629 10.209a2.784 2.784 0 01-1.04 1.21 2.282 2.282 0 01-1.101.169c-5.395-.169-4.645-3.097-4.645-7.899z" fill="#F0C9A1"/><path d="M241.503 264.031a8.031 8.031 0 01-3.303-.701c-3.471-1.536-4.995-5.044-5.721-6.726-2.032-4.705-3.702-9.58-5.322-14.285-2.516-7.354-4.899-14.298-8.528-20.491l5.032-3.459a3.698 3.698 0 014.496.254c.409.352.737.79.959 1.282a146.358 146.358 0 017.379 18.664c1.621 4.706 3.145 9.145 5.008 13.451.157.363.278.641.387.847a12.851 12.851 0 001.427-1.972c6.181-9.798 7.258-12.906 11.491-26.006l.702-2.154 9.374 3.629-.701 2.141c-4.415 13.463-5.746 17.527-12.653 28.486a18.052 18.052 0 01-4.294 5.044 9.672 9.672 0 01-5.733 1.996z" fill="#8EB438"/><path d="M232.866 231.687v49.461a3.924 3.924 0 01-3.738 4.052h-32.659a3.918 3.918 0 01-3.738-4.052v-49.461a19.574 19.574 0 012.428-9.698 19.565 19.565 0 016.898-7.236 16.53 16.53 0 018.467-2.335h4.548a16.379 16.379 0 017.984 2.068 19.562 19.562 0 019.81 17.201z" fill="#8EB438"/><path d="M223.032 214.486a22.136 22.136 0 01-5.069 6.52c-2.939 2.419-7.124 3.46-10.366 1.561a11.981 11.981 0 01-4.028-4.524 13.28 13.28 0 01-1.524-3.29 16.53 16.53 0 018.467-2.335h4.548a16.38 16.38 0 017.972 2.068z" fill="#F0C9A1"/><path d="M232.864 244.943v5.552a116.761 116.761 0 01-40.11 3.073v-5.383a113.854 113.854 0 0040.11-3.242zm0 13.133v5.613a116.764 116.764 0 01-40.11 3.084v-5.503a113.326 113.326 0 0040.11-3.194z" fill="#fff"/><path d="M199.263 278.21c.69.182 1.549.581 1.512 1.355-.036.774-.87 1.089-1.56 1.21a3.006 3.006 0 001.851 1.439c.757.201 1.494.473 2.201.811a.534.534 0 01.303.326.665.665 0 010 .375c-.17.629-.351 1.21-.52 1.887a3.975 3.975 0 01-1.029 2.02 2.917 2.917 0 01-2.419.387 13.036 13.036 0 01-6.35-2.963 4.542 4.542 0 01-1.21-1.488 5.567 5.567 0 01-.097-3.629c.303-1.294.871-3.169 2.323-3.012 1.693.312 3.362.74 4.995 1.282z" fill="#F0C9A1"/><path d="M180.851 269.064c-.92-1.826.435-5.709.871-6.979a94.558 94.558 0 0119.438-32.66c2.419-7.971 1.911-8.382.774-13.777a2.843 2.843 0 00-2.419.738 104.64 104.64 0 00-27.131 41.888c-1.597 4.561-3.061 10.5-.279 15.979a17.543 17.543 0 007.972 7.343 64.758 64.758 0 0012.567 5.08l2.565-10.415a54.315 54.315 0 01-10.729-4.342 9.124 9.124 0 01-3.629-2.855z" fill="#8EB438"/><path d="M195.514 185.071a20.157 20.157 0 004.294 20.806 46.815 46.815 0 014.415 4.221c.43.667.96 1.263 1.573 1.766 1.464.956 3.484 0 4.427-1.512a10.299 10.299 0 001.065-5.334 79.06 79.06 0 00-.593-9.266 32.514 32.514 0 00-2.323-9.834c-3.024-6.58-9.785-8.818-12.858-.847z" fill="#3B3D42"/><path d="M208.395 199.952v14.661a4.837 4.837 0 008.259 3.421 4.837 4.837 0 001.417-3.421v-14.661h-9.676z" fill="#F0C9A1"/><path d="M208.395 203.454v10.789c2.068-.399 4.741-.931 5.14-1.052a22.935 22.935 0 004.5-1.996 19.316 19.316 0 002.564-1.766c3.037-2.504-.084-3.846-2.564-4.923a20.673 20.673 0 00-8.237-1.742 1.84 1.84 0 00-.811.121 1.34 1.34 0 00-.592.569z" fill="#E9B588"/><path d="M229.237 194.401c0 9.399-4.597 17.007-11.806 17.007-7.209 0-13.064-7.608-13.064-17.007 0-9.399 5.855-17.019 13.064-17.019s11.806 7.62 11.806 17.019z" fill="#F0C9A1"/><path d="M207.681 195.957c.593 2.709-.544 5.334-2.552 5.854-2.008.52-4.113-1.209-4.705-3.979-.593-2.77.532-5.335 2.54-5.855 2.008-.52 4.112 1.282 4.717 3.98z" fill="#F0C9A1"/><path d="M213.813 189.339c2.42-.23 5.008-1.004 6.472-3.049a8.583 8.583 0 0010.632-1.681 9.605 9.605 0 00.774-11.225 8.603 8.603 0 00-10.306-3.145c-1.802.774-3.326 2.189-5.189 2.77a12.799 12.799 0 01-3.907.399 23.733 23.733 0 00-7.56.847 8.833 8.833 0 00-5.637 5.008c-3.241 8.709 9.581 10.56 14.721 10.076zm188.032 34.619a17.562 17.562 0 0118.592 7.621c1.948 3.024 3.048 6.616 4.597 9.919 1.548 3.302 3.761 6.531 6.858 7.681 2.153.786 4.463.483 6.641 1.137 4.971 1.487 8.152 8.6 6.217 13.922a24.263 24.263 0 00-1.209 3.169c-.436 1.996.157 4.137 0 6.193a10.33 10.33 0 01-2.105 5.226c-4.839 6.556-14.274 6.919-20.938 2.31-6.665-4.608-10.778-13.063-12.629-21.652-1.354-6.229-2.201-13.596-7.028-16.934-3.096-2.153-6.918-1.863-10.45-1.464-6.738.762-3.629-4.911-1.21-8.165a22.99 22.99 0 0112.664-8.963z" fill="#3B3D42"/><path d="M366.672 282.234c-.483-.097-1.209 0-1.209.496a1.6 1.6 0 00.193.689c.131.62.176 1.255.134 1.887a5.577 5.577 0 002.552 3.786 27.708 27.708 0 006.205 3.532 2.78 2.78 0 002.419.158 2.326 2.326 0 00.883-2.42 5.259 5.259 0 00-1.355-2.419 17.043 17.043 0 00-9.822-5.709z" fill="#F0C9A1"/><path d="M391.662 298.266a12.73 12.73 0 003.435-.448c6.363-1.778 9.581-8.467 11.298-12.096l6.593-13.813-8.286-4.645-6.593 13.825c-1.463 3.073-3.205 6.399-5.334 7.004a8.526 8.526 0 01-3.254-.097 78.387 78.387 0 01-16.208-3.955l-2.819 8.286c5.589 2.262 11.358 4.596 17.588 5.648 1.183.201 2.381.298 3.58.291z" fill="#8EB438"/><path d="M377.885 296.641l.544-.75a1.096 1.096 0 00-.145-1.463l-27.821-24.289a.9.9 0 00-.706-.222.917.917 0 00-.637.379l-.556.738a1.123 1.123 0 00.145 1.476l27.821 24.276a.917.917 0 00.71.234.916.916 0 00.645-.379z" fill="#8EB438"/><path d="M440.433 303.741c-.798-6.713-1.609-13.475-3.629-19.862-2.02-6.386-5.395-12.483-10.427-16.475-5.032-3.991-11.926-5.576-17.708-3.048a12.36 12.36 0 00-5.915 5.262c-2.129 3.955-1.694 8.866-1.21 13.402 1.21 10.887 2.419 23.854 3.629 34.764 11.636 3.351 23.95 1.887 35.804-.399.103-4.555-.079-9.112-.544-13.644z" fill="#AFDD44"/><path d="M379.543 386.47a2.49 2.49 0 002.685 1.959 16.155 16.155 0 004.693-.992 54.333 54.333 0 006.689-2.745c1.682-.823 3.508-1.972 3.895-3.932a8.993 8.993 0 00-.689-3.628 6.706 6.706 0 00-1.101-2.528l-.145-.182a4.407 4.407 0 00-2.758-1.137 6.286 6.286 0 00-2.637.206c-.398.13-.774.322-1.113.568a4.485 4.485 0 00-1.064 1.113 27.8 27.8 0 01-4.052 4.318l-1.125 1.029a14.998 14.998 0 00-2.42 2.552 4.537 4.537 0 00-.858 3.399zm25.268-4.635a2.66 2.66 0 001.862 1.27 3.95 3.95 0 001.754-.436 20.38 20.38 0 003.702-2.322 57.022 57.022 0 005.588-4.839c1.367-1.342 2.782-3.048 2.601-5.044a9.123 9.123 0 00-1.621-3.399 9.283 9.283 0 00-1.21-1.548 2.948 2.948 0 00-.605-.496l-.193-.121a4.157 4.157 0 00-2.939-.169 6.296 6.296 0 00-2.42 1.076 4.556 4.556 0 00-.895.908 4.81 4.81 0 00-.701 1.415 24.39 24.39 0 01-1.948 4.246c-.218.411-.447.81-.677 1.209l-.786 1.391a16.086 16.086 0 00-1.645 3.254 5.054 5.054 0 00.133 3.605z" fill="#FFBE55"/><path d="M377.498 324.86a18.488 18.488 0 012.722-6.242 16.12 16.12 0 014.971-4.669c.472-.278.932-.508 1.403-.75.228-.121.462-.23.702-.326l.714-.278a18.116 18.116 0 012.733-.847 29.87 29.87 0 015.129-.714c1.609-.096 3.121-.096 4.524-.096l-.23 13.16a32.19 32.19 0 00-7.088.181c-.242 0-.472.097-.69.146a5.565 5.565 0 00-.629.193l-.29.097a.851.851 0 00-.266.097l-.496.229a4.12 4.12 0 00-1.427 1.15 5.563 5.563 0 00-.92 1.899 11.86 11.86 0 00-.411 2.915v2.746l.085 1.076c0 .714.133 1.428.206 2.153l.12 1.077.134 1.076c.701 5.758 1.802 11.528 3.084 17.31 1.282 5.782 3.992 17.854 4.028 18.144.133.701-.484 1.56-1.355 2.346a22.042 22.042 0 01-7.185 4.379c-1.004.363-2.298.569-2.963-.326a2.047 2.047 0 01-.279-1.512 32.839 32.839 0 003.037-3.036c-1.718-5.637-3.436-11.334-4.972-17.153a187.19 187.19 0 01-3.871-18.361l-.193-1.21-.17-1.21c-.108-.786-.241-1.572-.326-2.419l-.145-1.209-.073-.593v-.641c0-.472-.085-.932-.109-1.403-.024-.472 0-.956 0-1.428a25.24 25.24 0 01.496-5.951z" fill="#F0C9A1"/><path d="M385.081 320.087a17.948 17.948 0 012.286-5.673 20.543 20.543 0 013.629-4.246l7.487 10.366c-.484.394-.922.84-1.306 1.331-.299.399-.52.85-.654 1.33a5.388 5.388 0 00-.205 1.754c.051.798.185 1.589.399 2.359l.181.653.23.665c.073.218.182.448.266.678l.133.339c0 .108.121.266.17.399.496 1.088.992 2.189 1.524 3.278.532 1.088 1.064 2.177 1.609 3.266a82.632 82.632 0 001.717 3.217c2.299 4.222 11.818 21.144 14.794 25.547l.193.182a13.827 13.827 0 01-.98 1.862 17.332 17.332 0 01-3.278 4.137 12.256 12.256 0 01-2.419 1.73 3.312 3.312 0 01-1.621.496 1.476 1.476 0 01-1.366-.883 1.323 1.323 0 01-.109-.484 26.282 26.282 0 001.693-3.544c-2.48-3.278-4.959-6.58-7.403-9.967a230.118 230.118 0 01-8.624-12.883c-.69-1.112-1.343-2.262-2.008-3.386a79.6 79.6 0 01-1.935-3.472c-.617-1.173-1.21-2.359-1.839-3.544a5.66 5.66 0 01-.23-.472l-.254-.532c-.157-.363-.326-.702-.484-1.089l-.447-1.113-.412-1.209a24.937 24.937 0 01-1.1-5.189 19.41 19.41 0 01.363-5.903z" fill="#F0C9A1"/><path d="M393.259 327.802h37.643c5.624 0 10.185-4.935 10.185-11.032v-6.822h-49.328a3.486 3.486 0 00-2.558 1.314 3.49 3.49 0 00-.708 2.787l1.488 10.693a3.41 3.41 0 003.278 3.06z" fill="#AFDD44"/><path d="M373.179 287.598c-.569-.58-1.428-1.209-2.045-.653a1.579 1.579 0 00-.266 1.621c.235.535.405 1.095.508 1.669-1.863-.326-3.629-1.995-5.395-2.697-.532-.218-1.85-.907-2.419-.423-2.092 1.778 4.089 7.124 5.129 7.91a8.964 8.964 0 005.879 2.081 3.546 3.546 0 002.104-.702 3.51 3.51 0 001.077-1.705c1.076-3.363-2.637-5.226-4.572-7.101z" fill="#F0C9A1"/><path d="M409.468 307.626a14.317 14.317 0 009.568-3.302 19.643 19.643 0 005.105-7.851 69.669 69.669 0 003.919-18.736 4.962 4.962 0 00-4.222-5.565 4.839 4.839 0 00-5.056 4.524 58.672 58.672 0 01-3.266 15.822 9.675 9.675 0 01-2.298 3.871c-1.669 1.415-4.706 1.487-9.29.205l-4.766-1.306c-6.52-1.766-11.866-2.552-23.369-6.254l-2.746 8.467a238.806 238.806 0 0023.853 7.585l4.693 1.282a29.173 29.173 0 007.875 1.258z" fill="#8EB438"/><path d="M415.974 229.704a10.68 10.68 0 012.818 4.44 27.325 27.325 0 011.815 13.692 18.445 18.445 0 01-6.315 11.818c-.737.605-1.741 1.125-2.552.641a2.877 2.877 0 01-.955-1.391 82.274 82.274 0 01-5.746-20.926 14.424 14.424 0 01.073-5.939c1.403-4.947 7.548-5.093 10.862-2.335z" fill="#3B3D42"/><path d="M411.366 251.125l3.991 14.007a5.324 5.324 0 01-3.181 6.532 4.769 4.769 0 01-5.225-1.693 4.75 4.75 0 01-.823-1.754l-3.919-14.007 9.157-3.085z" fill="#F0C9A1"/><path d="M412.323 254.488l2.939 10.293c-2.08.279-4.838.629-5.189.642a22.454 22.454 0 01-4.838-.46 18.004 18.004 0 01-2.928-.871c-3.628-1.427-.979-3.701 1.101-5.528a21.784 21.784 0 017.391-4.306c.258-.102.533-.151.81-.145.274.039.526.172.714.375z" fill="#E9B588"/><path d="M389.943 252.497c2.589 8.975 9.036 14.829 15.894 12.471 6.859-2.359 10.391-11.467 7.827-20.443-2.565-8.975-10.222-14.382-17.104-12.096-6.883 2.286-9.181 11.08-6.617 20.068z" fill="#F0C9A1"/><path d="M410.968 247.096c.169 2.794 1.972 4.935 4.028 4.839 2.056-.097 3.629-2.516 3.423-5.299-.206-2.782-1.972-4.935-4.028-4.838-2.056.097-3.593 2.54-3.423 5.298z" fill="#F0C9A1"/><path d="M410.048 245.428a6.56 6.56 0 00.774 2.286 1.49 1.49 0 001.996.568c.366-.348.608-.807.689-1.306a21.98 21.98 0 00-.363-12.435 3.943 3.943 0 00-1.693-2.419 3.421 3.421 0 00-1.294-.254 4.305 4.305 0 00-2.42.423 4.189 4.189 0 00-1.62 3.762c.108 3.726 3.096 5.746 3.931 9.375z" fill="#3B3D42"/><path d="M385.443 235.062a14.38 14.38 0 00-2.831 11.696 4.852 4.852 0 002.299 3.351c.692.283 1.45.371 2.189.254 4.1-.484 7.258-3.955 10.1-7.258.351 1.706 2.492 1.948 4.064 1.633a23.306 23.306 0 0010.887-5.455 8.473 8.473 0 003.326-5.745c.145-3.399-2.879-5.964-5.842-7.089-8.721-3.314-18.568 1.04-24.192 8.613z" fill="#3B3D42"/><defs><linearGradient id="paint0_linear_5391_44535" x1="573" y1="46.997" x2="246.711" y2="564.165" gradientUnits="userSpaceOnUse"><stop stop-color="#A0CA3F"/><stop offset="1" stop-color="#7B9C30"/></linearGradient></defs></svg>