<svg width="555" height="399" fill="none" xmlns="http://www.w3.org/2000/svg"><path opacity=".12" fill-rule="evenodd" clip-rule="evenodd" d="M494.887 120.857c-37.047-30.23-96.809-31.85-148.842-44.742-45.665-11.315-89.073-32.29-136.451-25.943-48.106 6.445-84.468 33.772-118.45 60.092-35.207 27.268-68.043 56.639-79.866 93.507-12.992 40.512-20.65 87.329 10.878 121.613 31.061 33.777 94.4 35.891 146.211 49.21 46.426 11.935 90.852 25.375 139.94 24.351 58.22-1.214 120.6-2.891 165.489-30.721 47.853-29.668 76.818-75.556 80.774-121.956 3.873-45.422-18.616-91.901-59.683-125.411z" fill="url(#paint0_linear_7945_49191)"/><path d="M169.317 224.684l-.43-.453 2.702-2.587.432.45-2.704 2.59zm5.418-5.192l-.439-.445c.882-.867 1.764-1.762 2.629-2.662l.45.435c-.867.9-1.755 1.8-2.64 2.672zm5.207-5.414l-.463-.42a146.03 146.03 0 002.482-2.799l.473.407c-.823.948-1.66 1.893-2.492 2.812zm4.911-5.686l-.482-.395c.78-.95 1.567-1.934 2.337-2.922l.5.385c-.783.988-1.572 1.975-2.355 2.927v.005zm4.624-5.919l-.5-.374c.733-.985 1.472-2 2.2-3.027l.5.362a141.299 141.299 0 01-2.2 3.034v.005zm4.357-6.141l-.518-.35c.7-1.033 1.389-2.072 2.067-3.119l.525.34c-.685 1.056-1.376 2.1-2.074 3.129zm34.242-4.331a9.134 9.134 0 01-3.367-.643l.23-.579a8.55 8.55 0 003.137.597c.155-.015.27 0 .405 0l.03.625c-.16.007-.332-.003-.45.01l.015-.01zm4.149-1.067l-.312-.543a6.781 6.781 0 002.499-2.517l.543.313a7.437 7.437 0 01-2.745 2.756l.015-.009zm-34.3-.903l-.53-.33c.657-1.06 1.304-2.126 1.942-3.199l.538.32a281.006 281.006 0 01-1.965 3.219l.015-.01zm23.618-.87a10.932 10.932 0 01-2.057-3.249l.574-.25a10.388 10.388 0 001.94 3.057l-.457.442zm14.439-4.699l-.625-.015v-.165a6.486 6.486 0 00-.862-3.264l.545-.307a7.102 7.102 0 01.942 3.571v.18zm-33.97-.654l-.48-.403a23.9 23.9 0 012.649-2.694l.408.472a23.202 23.202 0 00-2.592 2.635l.015-.01zm16.496-1.588c-.071-.6-.107-1.204-.107-1.809 0-.669.043-1.337.127-2l.62.078c-.08.64-.121 1.284-.122 1.929-.001.58.034 1.159.105 1.735l-.623.067zm-10.927-3.224l-.328-.532a25.982 25.982 0 013.364-1.75l.25.575a25.203 25.203 0 00-3.286 1.707zm24.494-.645a13.74 13.74 0 00-3.189-1.764l.232-.58a14.399 14.399 0 013.34 1.859l-.383.485zm-17.731-2.282l-.165-.602a27.203 27.203 0 013.719-.735l.078.62a26.643 26.643 0 00-3.629.717h-.003zm10.998-.517a22.658 22.658 0 00-3.674-.385l.015-.625c1.267.029 2.53.161 3.776.395l-.117.615zM220 174.92l-.587-.21a18.877 18.877 0 011.65-3.432l.532.327a18.263 18.263 0 00-1.59 3.315H220zm3.822-6.249l-.46-.425a20.29 20.29 0 012.847-2.522l.37.5a19.434 19.434 0 00-2.217 1.885c-.18.187-.36.374-.535.562h-.005zm5.914-4.357l-.278-.559a23.076 23.076 0 013.527-1.4l.182.597c-1.177.36-2.323.815-3.426 1.362h-.005zm7.048-2.294l-.155-.605c1.222-.312 2.437-.642 3.612-.975l.17.603a142.79 142.79 0 01-3.622.977h-.005zm7.229-2.055l-.188-.594c1.205-.38 2.4-.778 3.549-1.178l.205.59c-1.149.403-2.349.807-3.561 1.182h-.005zm7.096-2.482l-.225-.582c1.169-.455 2.332-.93 3.456-1.415l.25.573c-1.13.49-2.299.967-3.477 1.424h-.004zm6.903-2.981l-.27-.563 3.372-1.637.272.562-3.374 1.638zm6.748-3.277l-.272-.563 3.372-1.639.272.562-3.372 1.64zm6.749-3.279l-.272-.563 3.371-1.639.273.562-3.372 1.64zm6.748-3.28l-.272-.56 3.372-1.639.272.562-3.372 1.637zm6.749-3.276l-.272-.563 3.371-1.639.273.562-3.372 1.64z" fill="#9FBD55"/><path d="M273.473 25.193c-.002.128.003.256.015.383h82.175c-.215-6.774-6.112-12.205-13.342-12.205a13.94 13.94 0 00-6.394 1.532c.1-5.271-2.432-10.32-7.101-13.03C321.828-2.185 312.66.57 308.373 8.03a16.391 16.391 0 00-2.159 7.07c-3.417-1.561-7.651-2.499-12.248-2.499-11.317.005-20.493 5.644-20.493 12.592z" fill="#F0F0F0"/><path d="M136.76 217.213H69v-.25c.18-5.734 5.084-10.225 11.162-10.225 1.728 0 3.435.38 5 1.112.044-4.389 2.294-8.385 5.936-10.498a11.78 11.78 0 019.028-1.142 13.205 13.205 0 018.043 6.271 13.625 13.625 0 011.774 5.559c2.885-1.262 6.274-1.927 9.821-1.927 9.388 0 17.023 4.732 17.023 10.545.003.114-.002.227-.012.34l-.015.215zm-67.273-.467h66.843v-.078c0-5.556-7.426-10.078-16.556-10.078-3.607 0-7.041.7-9.931 2.025l-.309.14-.023-.337a13.128 13.128 0 00-1.737-5.694 12.75 12.75 0 00-7.761-6.051 11.303 11.303 0 00-4.445-.323 11.3 11.3 0 00-4.225 1.417c-3.6 2.09-5.784 6.099-5.702 10.466v.392l-.35-.177a11.263 11.263 0 00-5.129-1.233c-5.73 0-10.375 4.167-10.675 9.531z" fill="#9FBD55"/><path d="M269.262 210.465a14.46 14.46 0 0014.459 14.459h160.607a14.459 14.459 0 0014.459-14.459v-97.729H269.262v97.729z" fill="#fff"/><path d="M259.34 137.663c2.225-7.103 9.223-12.564 16.884-13.132 7.661-.567 15.471 3.75 18.823 10.441 4.077-.038 8.091 2.222 10.071 5.666a10.9 10.9 0 01-.35 11.247c4.851.843 9.208 4.034 11.355 8.326a14.927 14.927 0 01-.305 13.747c5.341-2.714 12.172-2.47 17.296.625 5.124 3.094 8.353 8.92 8.173 14.747 3.327-5.219 9.705-8.471 16.046-8.181 6.342.29 12.385 4.106 15.207 9.605 2.977-8.908 10.913-16.099 20.306-18.396 9.393-2.297 19.928.373 26.956 6.831 10.573 1.655 18.276 13.132 15.522 23.123 5.711 4.726 8.63 12.409 7.436 19.573-1.195 7.163-6.459 13.562-13.412 16.299l-181.883-.11-15.496-69.392 27.371-31.019z" fill="#DADADA"/><path opacity=".8" d="M256.456 160.709c2.145-7.104 8.921-12.563 16.322-13.145 7.401-.582 14.947 3.749 18.178 10.425a10.997 10.997 0 019.378 16.904 15.118 15.118 0 0110.965 8.315 15.134 15.134 0 01-.307 13.758 16.776 16.776 0 0122.619 6.932 16.79 16.79 0 011.975 8.424c3.22-5.221 9.383-8.478 15.497-8.193 6.114.285 11.965 4.097 14.684 9.593 2.885-8.911 10.558-16.107 19.633-18.411 9.076-2.305 19.246.355 26.04 6.808 10.212 1.645 17.646 13.118 14.979 23.11 5.511 4.722 8.325 12.403 7.166 19.566-1.16 7.163-6.249 13.567-12.97 16.309l-175.723.027-14.927-69.379 26.491-31.043z" fill="#fff"/><path opacity=".7" d="M396.164 115.873c-52.64 49.504-89.98 62.854-136.997 67.625l-3.124 49.989 49.364 16.871c43.115-1.249 84.514-63.666 110.086-117.211l-19.329-17.274z" fill="#FFF2E0"/><path d="M403.572 116.518c-8.558 10.125-21.465 19.81-36.689 32.892l20.773-8.465c-2.547 4.219-6.249 10.127-8.336 12.659 4.787-2.209 12.497-7.071 15.042-9.648 0 3.597-4.334 9.613-6.224 12.9 11.08-9.483 21.16-21.06 24.415-31.228l-8.981-9.11z" fill="#FFA121"/><path opacity=".4" d="M406.005 117.03c-5.064 6.711-12.639 13.179-21.595 21.892l12.122-5.748c-1.519 2.787-3.729 6.688-4.961 8.365 2.797-1.499 7.311-4.749 8.816-6.466-.038 2.352-2.61 6.334-3.75 8.498 6.517-6.316 12.475-13.996 14.467-20.677l-5.109-5.867" fill="#fff"/><path d="M327.396 151.42c.067 1.567 0 4.209-1.565 5.114-2.609 1.499-4.661-2.16-5.621-3.999-1.142-2.202-.85-4.937 1.735-5.917 3.414-1.299 5.326 1.883 5.451 4.802zm123.75 47.517c.067 1.565 0 4.207-1.565 5.114-2.609 1.5-4.661-2.159-5.621-3.999-1.142-2.202-.85-4.934 1.735-5.916 3.414-1.302 5.326 1.882 5.451 4.801zm-137.615-63.034a2.187 2.187 0 100-4.374 2.187 2.187 0 000 4.374zm112.707 40.247a3.33 3.33 0 10-2.964-5.963 3.33 3.33 0 002.964 5.963z" fill="#DADADA"/><path d="M444.328 225.236H283.723a14.795 14.795 0 01-10.441-4.331 14.8 14.8 0 01-4.333-10.441v-98.03H459.1v98.03a14.79 14.79 0 01-14.772 14.772zM269.567 113.058v97.406a14.163 14.163 0 0014.149 14.147h160.612a14.158 14.158 0 0014.147-14.147v-97.406H269.567z" fill="#9FBD55"/><path d="M444.324 74.888H283.717a14.46 14.46 0 00-14.459 14.469v23.4h189.525v-23.4a14.449 14.449 0 00-4.231-10.231 14.447 14.447 0 00-10.228-4.238z" fill="#fff"/><path d="M459.1 113.059H268.949V89.357a14.79 14.79 0 0114.774-14.772h160.605A14.789 14.789 0 01459.1 89.357v23.702zm-189.533-.625h188.908V89.357a14.163 14.163 0 00-14.147-14.147H283.723a14.163 14.163 0 00-14.156 14.147v23.077z" fill="#9FBD55"/><path d="M296.116 95.384a7.928 7.928 0 10-15.539-3.153 7.929 7.929 0 1015.539 3.153z" fill="#DADADA"/><path d="M317.314 99.422a7.927 7.927 0 000-11.212 7.928 7.928 0 10-11.212 11.213 7.927 7.927 0 0011.212 0z" fill="#fff"/><path d="M311.705 102.056a8.25 8.25 0 11.001-16.498 8.25 8.25 0 01-.001 16.498zm0-15.854a7.618 7.618 0 00-7.038 4.7 7.62 7.62 0 005.549 10.385 7.621 7.621 0 007.819-3.238 7.616 7.616 0 001.284-4.231 7.628 7.628 0 00-7.614-7.616z" fill="#9FBD55"/><path d="M372.049 86.25h-31.565a7.566 7.566 0 00-7.566 7.566v.002a7.566 7.566 0 007.566 7.566h31.565a7.566 7.566 0 007.566-7.566v-.002a7.566 7.566 0 00-7.566-7.566z" fill="#fff"/><path d="M372.04 101.697h-31.558a7.884 7.884 0 01-7.537-7.874 7.882 7.882 0 017.537-7.873h31.558a7.88 7.88 0 010 15.747zm-31.565-15.134a7.25 7.25 0 00-5.126 12.373 7.248 7.248 0 005.126 2.123h31.565a7.248 7.248 0 100-14.496h-31.565z" fill="#9FBD55"/><path d="M436.466 57.642c-12.657 11.08-34.492 3.444-41.271 12.29l19.384 15.349 21.887-27.64z" fill="url(#paint1_linear_7945_49191)"/><path d="M395.193 69.93a7.494 7.494 0 001.37 7.564L410.31 93.24l4.279-7.948-19.396-15.361z" fill="#8AAF32"/><path d="M465.159 80.358c-7.883 14.86 4.551 34.358-2.5 42.991l-19.378-15.352 21.878-27.639z" fill="url(#paint2_linear_7945_49191)"/><path d="M462.652 123.349a7.492 7.492 0 01-7.675.4l-18.461-9.763 6.748-5.986 19.388 15.349z" fill="#8AAF32"/><path d="M475.002 38.598l-17.256 6.333 15.047 11.915 2.209-18.248z" fill="url(#paint3_linear_7945_49191)"/><path d="M472.792 56.846c-2.412 27.31-22.588 52.789-47.095 66.943l-22.33-17.666c9.371-29.493 26.822-50.579 54.378-61.191l15.047 11.914z" fill="url(#paint4_linear_7945_49191)"/><path d="M403.367 106.123l-9.687 6.706 27.706 21.94 4.312-10.98-22.331-17.666z" fill="url(#paint5_linear_7945_49191)"/><path d="M452.49 78.867c5.685-.676 9.745-5.832 9.069-11.517-.676-5.684-5.832-9.745-11.516-9.069-5.685.676-9.745 5.832-9.069 11.517.675 5.684 5.832 9.745 11.516 9.069z" fill="#fff"/><path d="M452.049 75.917l-.065-.622a6.817 6.817 0 001.75-.42l.225.582a7.507 7.507 0 01-1.91.46zm-1.949-.05a7.248 7.248 0 01-1.87-.56l.25-.57c.544.244 1.12.412 1.71.5l-.09.63zm5.556-1.352l-.37-.5a6.763 6.763 0 001.282-1.25l.5.388a7.282 7.282 0 01-1.412 1.362zm-9.083-.25a7.258 7.258 0 01-1.33-1.425l.5-.362c.347.487.757.926 1.22 1.304l-.39.483zm11.247-2.292l-.552-.29a6.74 6.74 0 00.607-1.68l.61.135a7.384 7.384 0 01-.665 1.845v-.01zm-13.497-.86a7.406 7.406 0 01-.425-1.905l.623-.055c.051.598.181 1.186.387 1.75l-.585.21zm13.702-2.88a6.855 6.855 0 00-.322-1.749l.592-.192c.202.62.322 1.265.355 1.917l-.625.025zm-13.412-.854l-.615-.11a7.365 7.365 0 01.595-1.86l.565.268a6.752 6.752 0 00-.55 1.702h.005zm12.313-2.517a6.767 6.767 0 00-1.17-1.35l.415-.467a7.42 7.42 0 011.277 1.474l-.522.343zm-10.801-.688l-.474-.404a7.392 7.392 0 011.452-1.305l.352.517a6.79 6.79 0 00-1.33 1.195v-.003zm8.151-1.662a6.75 6.75 0 00-1.689-.577l.12-.612a7.333 7.333 0 011.847.63l-.278.56zm-5.226-.332l-.203-.59a7.319 7.319 0 011.91-.39l.045.623a6.864 6.864 0 00-1.752.36v-.003z" fill="#9FBD55"/><path d="M421.744 106.375l-.492-.389a1.682 1.682 0 00-2.363.274l-19.434 24.546a1.683 1.683 0 00.275 2.363l.492.39a1.683 1.683 0 002.363-.275l19.434-24.546a1.681 1.681 0 00-.275-2.363z" fill="#1B1B43"/><path d="M434.622 347.55h-3.749v-.625h3.749v.625zm-7.498 0h-3.749v-.625h3.749v.625zm-7.498 0h-3.749v-.625h3.749v.625zm-7.499 0h-3.749v-.625h3.749v.625zm-7.498 0h-3.749v-.625h3.749v.625zm-7.498 0h-3.749v-.625h3.749v.625zm-7.499 0h-3.749v-.625h3.749v.625zm-7.498 0h-3.749v-.625h3.749v.625zm-7.498 0h-3.749v-.625h3.749v.625zm-7.499 0h-3.749v-.625h3.749v.625zm-7.498 0a12.022 12.022 0 01-3.777-.645l.203-.59c1.153.393 2.361.599 3.579.61l-.005.625zm75.436 0l-.023-.625a11.304 11.304 0 003.562-.712l.22.584a12.02 12.02 0 01-3.762.753h.003zm-82.592-2.447a12.007 12.007 0 01-2.637-2.78l.515-.352a11.406 11.406 0 002.5 2.637l-.378.495zm89.675-.21l-.392-.485a11.392 11.392 0 002.424-2.707l.528.34a12.023 12.023 0 01-2.562 2.842l.002.01zm-93.939-6.039a11.977 11.977 0 01-.455-3.282v-.499h.625v.499a11.393 11.393 0 00.43 3.11l-.6.172zm98.023-.33l-.605-.152c.231-.915.348-1.856.348-2.8v-.842h.625v.822a11.93 11.93 0 01-.37 2.962l.002.01zm-97.855-7.221h-.625v-3.749h.625v3.749zm98.228-.33h-.625v-3.749h.625v3.749zm-98.228-7.168h-.625v-3.749h.625v3.749zm98.228-.33h-.625v-3.749h.625v3.749zm-98.228-7.168h-.625v-3.749h.625v3.749zm98.228-.33h-.625v-3.749h.625v3.749zm-98.228-7.169h-.625v-3.749h.625v3.749zm98.228-.33h-.625v-3.749h.625v3.749zm-98.228-7.168h-.625v-3.749h.625v3.749zm98.228-.33h-.625v-3.749h.625v3.749zm-98.228-7.168h-.625v-2.5c0-.428.022-.856.067-1.282l.623.067c-.043.404-.065.809-.065 1.215v2.5zm98.228-.33h-.625v-2.17a11.798 11.798 0 00-.103-1.537l.62-.082c.071.537.107 1.078.108 1.619v2.17zm-97.196-6.886l-.57-.25a11.984 11.984 0 012.132-3.187l.457.427a11.283 11.283 0 00-2.027 3.007l.008.003zm95.409-.29a11.355 11.355 0 00-2.105-2.962l.447-.437a12.016 12.016 0 012.22 3.121l-.562.278zm-90.53-4.964l-.3-.547a11.881 11.881 0 013.614-1.278l.11.615a11.31 11.31 0 00-3.424 1.21zm85.481-.15a11.292 11.292 0 00-3.457-1.112l.092-.618c1.272.192 2.504.588 3.65 1.173l-.285.557zm-7.154-1.25h-3.749v-.625h3.749v.625zm-7.498 0h-3.749v-.625h3.749v.625zm-7.498 0h-3.749v-.625h3.749v.625zm-7.499 0h-3.749v-.625h3.749v.625zm-7.498 0h-3.749v-.625h3.749v.625zm-7.498 0h-3.749v-.625h3.749v.625zm-7.499 0h-3.749v-.625h3.749v.625zm-7.498 0h-3.749v-.625h3.749v.625zm-7.498 0h-3.749v-.625h3.749v.625zm-7.499 0h-3.749v-.625h3.749v.625z" fill="#9FBD55"/><path d="M427.784 267.26h-79.769a9.225 9.225 0 00-9.226 9.225v51.006a9.226 9.226 0 009.226 9.226h79.769a9.226 9.226 0 009.226-9.226v-51.006a9.226 9.226 0 00-9.226-9.225z" fill="url(#paint6_linear_7945_49191)"/><path d="M366.502 307.83h-10.635v21.598h10.635V307.83zm17.805.693h-10.635v20.906h10.635v-20.906zm17.816-10.919h-10.635v31.825h10.635v-31.825zm17.813-9.336h-10.635v41.16h10.635v-41.16zm-3.508-11.225h-57.065v2.494h57.065v-2.494z" fill="#fff"/><path d="M185.613 199.455a29.62 29.62 0 00-10.89-15.634l-2.11-1.554 1.792 37.061 13.847-10.71-2.639-9.163z" fill="#941759"/><path d="M230.111 244.24l-3.076-6.023a6.108 6.108 0 00-3.815-3.112l-9.05-2.5-23.285-14.866-2.632-9.126-13.847 10.715.125 2.602a13.692 13.692 0 008.248 11.913l22.61 9.748 10.748.249c3.464 1.193 4.659 4.18 6.806 3.105.802-.4-2.327-5.554-2.327-5.554l5.206 5.714 4.289-2.865z" fill="#FFBC96"/><path d="M190.61 217.526l-3.044 3.583.547.465 3.044-3.584-.547-.464z" fill="#D28572"/><path d="M189.613 259.246l16.942-1.5c11.027-.972 20.62 7.931 21.157 19.641l3.827 83.434-23.367.725-18.559-102.3z" fill="#748E32"/><path d="M210.055 360.724l.715 23.047h34.629l-17.076-14.209-1.075-11.105-17.193 2.267z" fill="#333945"/><path d="M227.878 369.005l-7.284 5.612.874 1.135 7.284-5.612-.874-1.135z" fill="#fff"/><path d="M202.172 360.724l.715 23.047h34.63l-17.077-14.209-1.074-11.105-17.194 2.267z" fill="#555A64"/><path d="M220.003 369.006l-7.284 5.612.874 1.135 7.284-5.612-.874-1.135z" fill="#fff"/><path d="M227.969 362.993H199.31l-20.425-62.848-2.859-8.798-40.839-.18c-2.522-.035-4.936-1.202-6.998-2.929-4.337-3.662-6.336-9.423-5.542-15.04l3.585-25.556 60.669 7.888a27.237 27.237 0 0115.01 7.035 27.238 27.238 0 018.155 14.433l17.903 85.995z" fill="url(#paint7_linear_7945_49191)"/><path d="M184.442 291.347l-5.559 8.798-2.86-8.798h8.419z" fill="#333945"/><path d="M176.937 243.015a258.657 258.657 0 01-.918 3.554l-2.149 8.775-28.302-1.174-20.375-.85a8.747 8.747 0 01-8.17-6.764 8.76 8.76 0 01-.041-3.769l9.498-45.717a17.358 17.358 0 0115.362-14.562l23.245-2.392 7.52 2.15c7.344 3.939 7.351 11.082 7.704 15.761 1.547 20.476-.353 32.878-3.374 44.988z" fill="#941759"/><path opacity=".3" d="M157.748 241.553c-.292 1.183 18.586 3.827 18.271 5.017l-2.149 8.775-28.301-1.174c-9.886-7.459-13.59-23.688-17.194-44.021l29.373 31.403z" fill="#1B1B43"/><path d="M152.126 193.334a17.006 17.006 0 004.229 3.352 14.015 14.015 0 005.054 1.707c1.749.227 3.602.08 5.141-.75 1.575-.782 2.575-2.434 2.75-4.222l.28.018a5.768 5.768 0 01-.713 2.727 5.411 5.411 0 01-2.022 2.024c-1.682.973-3.682 1.15-5.539.913a13.761 13.761 0 01-5.266-1.885 14.917 14.917 0 01-4.142-3.697l.228-.187zm28.822 27.938l-.535-.037c.515-7.208 0-16.069-1.55-26.332l.53-.08c1.55 10.303 2.072 19.201 1.555 26.449z" fill="#1B1B43"/><path d="M229.043 246.687h-26.629v5.253h26.629v-5.253z" fill="#333945"/><path d="M275.136 251.941h-53.495l24.599-47.047h53.496l-24.6 47.047z" fill="url(#paint8_linear_7945_49191)"/><path d="M158.024 142.502c-6.269-6.181-18.091-3.584-17.911 6.806-12.898 3.402-13.615 17.554-8.421 24.807l4.479.357.985-5.283 2.597 5.373 12.539.808 5.732-32.868z" fill="#333945"/><path d="M168.503 165.607v19.746c0 .18 0 .353-.022.525a6.628 6.628 0 01-8.248 5.896 13.323 13.323 0 01-9.998-13.012l.1-13.147 18.168-.008z" fill="#FFBC96"/><path d="M168.497 174.14v11.195c0 .18 0 .352-.023.525-5.278-.857-11.384-6.969-12.884-13.625l12.907 1.905z" fill="#333945"/><path d="M179.182 167.069a35.572 35.572 0 01-1.125 4.699c-1.577 4.999-4.406 9.163-9.473 8.441-11.907-1.705-18.533-13.972-18.533-13.972l8.145-9.313 5.467-7.351 16.386 7.079a61.726 61.726 0 01-.867 10.417z" fill="#FFBC96"/><path d="M153.572 163.09c5.227-.167 9.268-2.829 10.998-10.39 0 0 12.18 10.498 18.148 4.897 4.999-4.699-3.481-15.512-17.521-16.802a19.898 19.898 0 00-14.229 4.349c-6.806 5.454-7.456 18.134-1.097 22.523l3.701-4.577z" fill="#333945"/><path d="M147.456 149.843c-.342-1.235-.088-2.604.465-3.781a8.365 8.365 0 012.452-3.017 8.6 8.6 0 013.499-1.642 6.338 6.338 0 013.784.29 20.992 20.992 0 00-3.249 1.309 17.376 17.376 0 00-2.749 1.75 15.954 15.954 0 00-2.345 2.214 13.14 13.14 0 00-1.857 2.877z" fill="#941759"/><path d="M153.849 168.493c2.089-.836 2.963-3.561 1.952-6.085-1.011-2.525-3.524-3.893-5.613-3.057-2.088.836-2.962 3.561-1.952 6.085 1.011 2.525 3.524 3.894 5.613 3.057z" fill="#FFBC96"/><path d="M152.007 166.642a5.858 5.858 0 00-.157-2.46c-.25-.749-.733-1.424-1.288-2.109l.175-.218a3.586 3.586 0 011.79 2.111 3.584 3.584 0 01-.25 2.756l-.27-.08zM171.592 164a1.214 1.214 0 01-1.523 1.054 1.22 1.22 0 01-.8-1.672 1.217 1.217 0 011.114-.722 1.28 1.28 0 011.209 1.34zm6.338 1.055a1.083 1.083 0 01-1.459.764 1.078 1.078 0 01-.677-.966 1.079 1.079 0 011.214-1.112 1.141 1.141 0 01.922 1.314zm-6.411-4.417c.047.625-.953.685-2.43.73-1.477.045-2.499.5-2.499.102 0-.397 1.08-1.412 2.534-1.657 1.495-.255 2.335.08 2.395.825zm4.711.603c-.11.617.627.774 1.717.967 1.089.192 1.794.75 1.849.352.055-.397-.637-1.499-1.689-1.899-1.053-.4-1.75-.155-1.877.58zm-1.76 4.926c.283.333.587.648.91.942l.482.45c.193.166.361.358.5.57.09.144.143.308.152.477a.936.936 0 01-.117.5 1.785 1.785 0 01-.578.585 3.641 3.641 0 01-1.342.485l-.102-.25c.371-.221.727-.464 1.067-.73a1.34 1.34 0 00.332-.402c.058-.118.04-.158-.025-.298-.159-.249-.564-.609-.832-.972a4.046 4.046 0 01-.702-1.22l.255-.137zm-6.061 4.422c.733.837 1.5 1.61 2.41 2.099a5.044 5.044 0 003.047.528l.075.27a3.757 3.757 0 01-1.733.327 3.934 3.934 0 01-1.727-.5 5.55 5.55 0 01-2.309-2.574l.237-.15z" fill="#333945"/><path opacity=".2" d="M164.113 169.816a2.957 2.957 0 100-5.914 2.957 2.957 0 000 5.914zm15.07-2.747a35.415 35.415 0 01-1.125 4.699 2.952 2.952 0 01-.017-3.887c.31-.358.702-.637 1.142-.812z" fill="#FE5B52"/><path d="M145.451 202.027l-17.076 8.121 5.354 12.695 17.906-8.256-6.184-12.56z" fill="#941759"/><path d="M208.703 246.057c-.472-.25-.769-.397-.769-.397l.17-.338s.317.153.774.398l-.175.337z" fill="#AFDD44"/><path d="M215.783 247.822c-.553 1.089-4.779-.838-6.749-1.805 1.525.845 4.154 2.5 2.987 3.417-.937.725-3.017-.817-9.823-3.639 1.032.487 7.116 3.381 5.581 4.476-1.669 1.19-8.833-1.432-8.833-1.432l-6.213 3.339h-7.151l-25.779.165a18.696 18.696 0 01-4.779-.602 21.41 21.41 0 01-8.381-4.342 20.979 20.979 0 01-3.977-4.464 23.806 23.806 0 01-2.129-3.984l-6.799-16.104 17.891-8.268 9.343 18.966 30.808 6.691 8.599-2.15c1.849-.465 4.464.318 6.091 1.313 3.969 2.424 9.827 7.383 9.313 8.423z" fill="#FFBC96"/><path opacity=".2" d="M155.485 249.072a7.761 7.761 0 01-.468 2.664 21.406 21.406 0 01-8.38-4.342 20.979 20.979 0 01-3.977-4.464 7.892 7.892 0 018.346-.967 7.886 7.886 0 014.479 7.109z" fill="#FE5B52"/><path d="M191.742 240.106c2.13-.718 4.3-1.314 6.499-1.784a23.222 23.222 0 013.362-.478 10.191 10.191 0 011.729.045c.288.058.575.133.862.2.288.068.54.208.81.31 2.097.95 3.922 2.31 5.689 3.707 1.767 1.397 3.432 2.919 5.051 4.499l.075.073.015.092c.068.333.007.679-.17.97-.101.143-.235.26-.389.342a1.09 1.09 0 01-.448.158 3.725 3.725 0 01-1.607-.158c-.962-.3-1.894-.692-2.782-1.169a38.862 38.862 0 01-2.579-1.483c-.83-.527-1.663-1.069-2.5-1.604l.38-.608a45.174 45.174 0 014.249 2.817c.705.515 1.35 1.108 1.922 1.767.154.191.28.403.373.63.056.139.085.288.085.438a.833.833 0 01-.183.499c-.192.21-.447.352-.727.405a4.232 4.232 0 01-.69.098h-.07l-.077-.033-7.776-3.249.232-.547a26.926 26.926 0 013.554 1.919c.555.395 1.138.75 1.548 1.44a.83.83 0 01.062.685.919.919 0 01-.46.475 2.6 2.6 0 01-1.072.25c-1.392.032-2.702-.295-3.999-.615-1.297-.32-2.57-.75-3.827-1.202l.095-.265c1.25.422 2.535.792 3.822 1.099 1.287.308 2.607.573 3.884.5.61-.025 1.337-.292 1.04-.695-.28-.469-.858-.869-1.385-1.222a26.468 26.468 0 00-3.499-1.824l.235-.548 7.805 3.19-.147-.025a3.65 3.65 0 00.56-.08.756.756 0 00.367-.175c.108-.045-.037-.43-.282-.718a10.868 10.868 0 00-1.797-1.659 43.816 43.816 0 00-4.192-2.75l.378-.605c.824.528 1.624 1.098 2.462 1.597.837.5 1.674 1 2.529 1.468.844.458 1.729.835 2.644 1.127.417.141.858.192 1.295.15l.138-.023a.72.72 0 00.107-.055c.083-.022.108-.09.163-.13a.723.723 0 00.077-.452l.09.165a73.677 73.677 0 00-4.974-4.482c-1.725-1.417-3.524-2.764-5.499-3.694l-.75-.302c-.249-.063-.514-.135-.774-.19a9.653 9.653 0 00-1.63-.063 23.523 23.523 0 00-3.304.4 57.875 57.875 0 00-6.499 1.63l-.1-.258z" fill="#D28572"/><path d="M133.838 223.089l-.225-.487 17.666-8.153-7.358-17.219.495-.212 7.563 17.703-18.141 8.368z" fill="#1B1B43"/><path d="M136.371 298.513h-.937v80.722h.937v-80.722z" fill="#333945"/><path d="M158.466 290.99h-45.135a5.554 5.554 0 100 11.105h45.135a5.553 5.553 0 100-11.105zm-33.201 84.231h21.275a8.347 8.347 0 018.348 8.348v.917h-37.974v-.917a8.34 8.34 0 012.446-5.904 8.342 8.342 0 015.905-2.444z" fill="#555A64"/><path d="M190.511 256.855l-.792.5 80.011 126.81.793-.5-80.012-126.81z" fill="#333945"/><path d="M269.732 256.869l-80.033 126.796.793.5 80.033-126.796-.793-.5z" fill="#333945"/><path d="M300.208 251.94H160.02v10.573h140.188V251.94z" fill="#555A64"/><path d="M176.486 106a40.503 40.503 0 01-37.407-25.01 40.504 40.504 0 018.788-44.133 40.502 40.502 0 0162.308 6.144A40.497 40.497 0 01217 65.5a40.548 40.548 0 01-40.514 40.5zm0-80.133a39.639 39.639 0 00-38.878 47.368 39.63 39.63 0 0031.143 31.143 39.631 39.631 0 0040.689-16.856 39.626 39.626 0 006.679-22.022 39.678 39.678 0 00-39.633-39.633z" fill="#9FBD55"/><path d="M205 93c24.301 0 44-19.476 44-43.5S229.301 6 205 6s-44 19.476-44 43.5S180.699 93 205 93z" fill="url(#paint9_linear_7945_49191)"/><path d="M204.541 50L181 31.014l.772-1.014 22.743 18.345 12.679-11.048.806.98L204.541 50z" fill="#1B1B43"/><path d="M108.868 111.352H92.681a4.714 4.714 0 00-4.716 4.716v16.186a4.715 4.715 0 004.716 4.717h11.55l4.979 6.873v-6.891a4.707 4.707 0 004.374-4.699v-16.186a4.717 4.717 0 00-4.716-4.716z" fill="#fff"/><path d="M109.519 144.809l-5.452-7.526h-11.39a5.031 5.031 0 01-5.029-5.029v-16.186a5.036 5.036 0 015.03-5.029h16.186a5.036 5.036 0 015.029 5.029v16.186a5.048 5.048 0 01-4.374 4.982v7.573zm-16.842-33.145a4.407 4.407 0 00-4.404 4.404v16.186a4.408 4.408 0 004.404 4.404h11.71l4.499 6.222v-6.217l.29-.022a4.418 4.418 0 004.084-4.387v-16.186a4.407 4.407 0 00-4.404-4.404H92.677z" fill="#9FBD55"/><path d="M100.439 132.492l-6.478-9.36 1.54-1.065 4.769 6.886 7.18-12.852 1.638.914-8.649 15.477z" fill="#9FBD55"/><path d="M465.634 383.552H81.609v.937h384.025v-.937z" fill="#1B1B43"/><path d="M370.949 155.778l-.306 3.736a.734.734 0 00.254.613l2.844 2.374a.722.722 0 01.241.718.706.706 0 01-.525.539l-3.577.857a.703.703 0 00-.495.437l-1.331 3.491a.72.72 0 01-.234.313.693.693 0 01-1.023-.2l-1.907-3.206a.701.701 0 00-.561-.346l-3.665-.214a.699.699 0 01-.365-.13.723.723 0 01-.129-1.055l2.4-2.84a.727.727 0 00.148-.651l-.933-3.623a.723.723 0 01.568-.892.68.68 0 01.383.046l3.389 1.452a.695.695 0 00.653-.06l3.09-2.024a.7.7 0 01.371-.113.703.703 0 01.635.392c.06.119.086.253.075.386zm.617 22.317l1.742 2.603a.61.61 0 00.485.269l3.093.074a.612.612 0 01.589.668.579.579 0 01-.121.301l-1.894 2.421a.592.592 0 00-.096.542l.944 2.976a.593.593 0 01-.152.606.591.591 0 01-.612.121l-2.913-1.105a.58.58 0 00-.546.065l-2.509 1.766a.588.588 0 01-.624.03.613.613 0 01-.316-.549l.094-3.105a.606.606 0 00-.242-.503l-2.493-1.884a.601.601 0 01-.093-.879.58.58 0 01.275-.169l2.971-.812a.584.584 0 00.396-.379l.969-2.93a.576.576 0 01.481-.392.588.588 0 01.322.051.616.616 0 01.25.214zm-34.397-8.315l-.096 3.13a.612.612 0 00.238.5l2.474 1.86a.612.612 0 01.09.885.576.576 0 01-.274.175l-2.948.868a.592.592 0 00-.393.386l-.962 2.969a.59.59 0 01-.477.405.587.587 0 01-.568-.257l-1.727-2.593a.585.585 0 00-.483-.265l-3.068-.023a.576.576 0 01-.309-.092.61.61 0 01-.153-.875l1.882-2.473a.607.607 0 00.095-.549l-.933-2.983a.613.613 0 01.151-.614.587.587 0 01.607-.133l2.89 1.068a.58.58 0 00.542-.079l2.492-1.82a.58.58 0 01.851.19.616.616 0 01.079.32zm14.285 8.806l1.075 1.606c.034.049.079.09.131.119a.36.36 0 00.169.046l1.909.046a.381.381 0 01.328.213.37.37 0 01-.039.386l-1.169 1.494a.353.353 0 00-.071.159.385.385 0 00.011.175l.583 1.836a.366.366 0 01-.094.375.358.358 0 01-.377.074l-1.798-.682a.355.355 0 00-.337.041l-1.549 1.089a.364.364 0 01-.385.019.387.387 0 01-.145-.142.388.388 0 01-.05-.197l.058-1.916a.369.369 0 00-.149-.31l-1.539-1.163a.378.378 0 01-.144-.363.354.354 0 01.257-.284l1.833-.501a.362.362 0 00.245-.234l.598-1.809a.353.353 0 01.296-.242.368.368 0 01.353.165zm-58.464 9.617l-.295 2.625a.515.515 0 00.166.438l1.952 1.733a.507.507 0 01.155.512.51.51 0 01-.382.367l-2.539.528a.508.508 0 00-.357.297l-1.013 2.431a.49.49 0 01-.888.053l-1.275-2.3a.493.493 0 00-.387-.255l-2.578-.23a.493.493 0 01-.419-.32.513.513 0 01.096-.525l1.752-1.95a.508.508 0 00.118-.455l-.58-2.573a.521.521 0 01.17-.506.493.493 0 01.519-.07l2.356 1.096a.498.498 0 00.462-.029l2.22-1.359a.492.492 0 01.703.218c.04.085.055.18.044.274zm25.743 31.392l.509 4.354a.858.858 0 00.433.644l3.807 2.067a.856.856 0 01.307 1.208.82.82 0 01-.344.298l-3.904 1.807a.824.824 0 00-.466.614l-.723 4.31a.836.836 0 01-.577.658.817.817 0 01-.839-.239l-2.924-3.237a.81.81 0 00-.722-.267l-4.252.598a.82.82 0 01-.797-.361.846.846 0 01-.043-.884l2.099-3.81a.842.842 0 00.019-.78l-1.903-3.939a.855.855 0 01.083-.881.818.818 0 01.813-.308l4.22.884a.809.809 0 00.735-.219l3.077-3.032a.807.807 0 01.85-.181.85.85 0 01.542.696zm30.401-19.546l.246 3.122a.622.622 0 00.292.472l2.662 1.578a.602.602 0 01.295.56.609.609 0 01-.108.31.582.582 0 01-.254.204l-2.835 1.185a.591.591 0 00-.35.426l-.631 3.057a.585.585 0 01-1.022.261l-2.001-2.389a.588.588 0 00-.508-.21l-3.052.312a.584.584 0 01-.559-.278.611.611 0 01-.007-.633l1.601-2.663a.603.603 0 00.035-.557l-1.254-2.863a.605.605 0 01.084-.627.588.588 0 01.588-.198l2.989.745a.573.573 0 00.53-.137l2.279-2.082a.583.583 0 01.867.097c.065.09.104.197.113.308zm-26-5l.246 3.122a.622.622 0 00.292.472l2.662 1.578a.602.602 0 01.295.56.609.609 0 01-.108.31.582.582 0 01-.254.204l-2.835 1.185a.591.591 0 00-.35.426l-.631 3.057a.585.585 0 01-1.022.261l-2.001-2.389a.588.588 0 00-.508-.21l-3.052.312a.584.584 0 01-.559-.278.611.611 0 01-.007-.633l1.601-2.663a.603.603 0 00.035-.557l-1.254-2.863a.605.605 0 01.084-.627.588.588 0 01.588-.198l2.989.745a.573.573 0 00.53-.137l2.279-2.082a.583.583 0 01.867.097c.065.09.104.197.113.308z" fill="#FFA121"/><defs><linearGradient id="paint0_linear_7945_49191" x1="555" y1="49" x2="239.165" y2="549.825" gradientUnits="userSpaceOnUse"><stop stop-color="#A0CA3F"/><stop offset="1" stop-color="#7B9C30"/></linearGradient><linearGradient id="paint1_linear_7945_49191" x1="436.466" y1="85.281" x2="410.909" y2="47.118" gradientUnits="userSpaceOnUse"><stop offset="0" stop-color="#8A1050"/><stop offset="1" stop-color="#B53378"/></linearGradient><linearGradient id="paint2_linear_7945_49191" x1="465.159" y1="123.349" x2="430.404" y2="105.662" gradientUnits="userSpaceOnUse"><stop offset="0" stop-color="#8A1050"/><stop offset="1" stop-color="#B53378"/></linearGradient><linearGradient id="paint3_linear_7945_49191" x1="475.002" y1="56.846" x2="456.782" y2="39.617" gradientUnits="userSpaceOnUse"><stop offset="0" stop-color="#8A1050"/><stop offset="1" stop-color="#B53378"/></linearGradient><linearGradient id="paint4_linear_7945_49191" x1="403.367" y1="44.932" x2="481.589" y2="113.797" gradientUnits="userSpaceOnUse"><stop stop-color="#A0CA3F"/><stop offset="1" stop-color="#7B9C30"/></linearGradient><linearGradient id="paint5_linear_7945_49191" x1="425.698" y1="134.769" x2="397.228" y2="102.949" gradientUnits="userSpaceOnUse"><stop offset="0" stop-color="#8A1050"/><stop offset="1" stop-color="#B53378"/></linearGradient><linearGradient id="paint6_linear_7945_49191" x1="338.789" y1="267.26" x2="404.275" y2="359.865" gradientUnits="userSpaceOnUse"><stop stop-color="#A0CA3F"/><stop offset="1" stop-color="#7B9C30"/></linearGradient><linearGradient id="paint7_linear_7945_49191" x1="122.477" y1="247.642" x2="237.37" y2="352.714" gradientUnits="userSpaceOnUse"><stop stop-color="#A0CA3F"/><stop offset="1" stop-color="#7B9C30"/></linearGradient><linearGradient id="paint8_linear_7945_49191" x1="221.641" y1="204.894" x2="263.232" y2="273.932" gradientUnits="userSpaceOnUse"><stop stop-color="#A0CA3F"/><stop offset="1" stop-color="#7B9C30"/></linearGradient><linearGradient id="paint9_linear_7945_49191" x1="161" y1="6" x2="247.994" y2="93.994" gradientUnits="userSpaceOnUse"><stop stop-color="#A0CA3F"/><stop offset="1" stop-color="#7B9C30"/></linearGradient></defs></svg>