<svg width="608" height="507" fill="none" xmlns="http://www.w3.org/2000/svg"><path opacity=".12" fill-rule="evenodd" clip-rule="evenodd" d="M542.147 415.56c-40.585 30.659-106.054 32.303-163.056 45.378-50.026 11.476-97.58 32.749-149.482 26.312-52.699-6.536-92.533-34.252-129.76-60.946-38.57-27.656-74.542-57.445-87.494-94.837-14.233-41.088-22.621-88.571 11.917-123.342 34.028-34.257 103.415-36.401 160.173-49.909 50.859-12.105 99.528-25.736 153.304-24.697 63.78 1.231 132.116 2.932 181.292 31.157 52.424 30.09 84.154 76.63 88.488 123.69 4.243 46.068-20.394 93.208-65.382 127.194z" fill="url(#paint0_linear_5061_42752)"/><path d="M204.741 285.092s1.14-47.918-20.931-60.744c-22.071-12.825-64.035-20.838-65.609-89.649-.921-40.283-1.909-57.895-2.585-65.574a4.543 4.543 0 013.285-4.765 4.536 4.536 0 012.072-.092c20.909 3.932 88.807 20.145 103.043 66.493 16.878 54.946-19.275 154.331-19.275 154.331z" fill="#AFDD44"/><path d="M137.138 83.412c22.945 20.461 49.476 56.681 63.618 92.898 1.816 5.969 7.126 18.661 9.431 41.213 2.06 18.81 1.036 38.685-1.461 51.842a1.521 1.521 0 01-1.194 1.215c-.197.041-.4.043-.598.005-1.431-.273-1.24-1.809-1.228-1.761 2.853-22.478 1.669-50.456-4.866-75.703-8.354-30.994-26.971-61.048-46.231-86.537l-1.983-2.51c-14.922-19.164-18.064-19.305-16.668-20.641a.87.87 0 011.18-.02z" fill="#F2FBDD"/><path d="M240.21 377.224c2.985 1.463-28.27-37.841-38.056-99.573-4.614-29.088-4.675-65.534-21.245-79.579-13.79-11.689-60.719-4.309-76.074-1.501a2.299 2.299 0 00-1.785 2.96c.132.417.38.788.715 1.07 7.365 6.183 23.115 20.769 27.218 35.464 5.411 19.377 23.832 31.701 40.325 35.037 16.492 3.337 25.666 6.572 33.7 32.947 8.034 26.374 26.717 69.009 35.202 73.175z" fill="#F2FBDD"/><path d="M126.427 204.756c19.59.818 40.619 9.757 51.287 26.52l1.007 1.6c2.327 3.751 15.51 30.418 22.833 52.515a.527.527 0 01-.334.664.537.537 0 01-.657-.315c-5.102-12.486-12.429-28.317-18.266-40.154-6.258-12.918-10.639-21.667-24.912-30.046-15.889-9.025-31.068-9.958-31.023-9.944a.422.422 0 11.061-.841l.004.001z" fill="#AFDD44"/><path d="M226.811 382.393c1.773.934-9.982-19.295-10.883-37.119-.902-17.823-4.923-48.242-20.293-66.439-15.369-18.198-32.201-19.858-53.409-3.315-17.667 13.787-28.699 20.744-35.164 22.036-1.6.32-2.417 2.127-1.637 3.562 4.147 7.639 15.87 25.179 35.556 23.943 25.11-1.576 55.541-17.899 64.816-4.282 9.275 13.617 8.083 21.237 8.368 27.69.286 6.453.92 27.741 12.646 33.924z" fill="#AFDD44"/><path d="M149.349 297.37c7.693-7.375 20.221-14.622 31.169-13.271 14.246 2.295 23.734 11.807 28.918 25.968 2.024 6.013 2.856 9.224 4.052 16.594.095.588-.772.764-.917.189-.87-3.462-1.732-7.086-3.022-10.835-7.502-24.189-23.538-27.446-24.161-27.941-1.211.119-8.558-5.38-25.989 3.999a77.531 77.531 0 00-9.398 6.025l-.016.012a.49.49 0 01-.666-.071.486.486 0 01.036-.669h-.006z" fill="#F2FBDD"/><path d="M204.089 90.911a17.292 17.292 0 00-15.777 17.187c-.156 54.731-.41 243.509 3.156 310.325a13.426 13.426 0 0013.269 12.715c35.055.378 135.906 1.072 193.156-2.592a22.61 22.61 0 0021.189-22.588c-.07-57.441-.986-218.984-8.855-292.824a18.453 18.453 0 00-16.925-16.444c-38.237-2.973-139.777-10.076-189.213-5.779z" fill="#76838F"/><path d="M202.386 122.447c-.682 46.815-2.649 202.556.773 260.036.5 8.401 7.026 15.034 15.085 15.315 33.178 1.156 118.26 3.394 166.738-1.94 8.73-.955 15.403-8.528 15.634-17.69 1.213-47.776 4.489-192.829 1.164-249.668-.531-9.066-7.458-16.301-16.142-16.886-35.924-2.421-128.173-8.004-169.399-4.571-7.74.645-13.734 7.299-13.853 15.404z" fill="#F2FBDD"/><path d="M336.92 114.749a1.465 1.465 0 01-.389.581l-9.633 8.97a5.862 5.862 0 00-1.804 5.152l1.928 13.021c.038.232.018.47-.058.693a1.479 1.479 0 01-.875.88 1.393 1.393 0 01-1.2-.095l-11.507-6.395a5.874 5.874 0 00-5.454-.125l-11.784 5.852a1.449 1.449 0 01-2.064-1.573l2.524-12.925a5.86 5.86 0 00-1.568-5.226l-9.216-9.4a1.45 1.45 0 01-.331-1.49 1.447 1.447 0 011.188-.957l13.068-1.595a5.872 5.872 0 004.485-3.105l6.093-11.668a1.452 1.452 0 011.316-.778 1.447 1.447 0 011.278.837l5.545 11.941a5.864 5.864 0 004.34 3.305l12.988 2.194a1.39 1.39 0 01.998.673 1.513 1.513 0 01.132 1.233z" fill="#F7B614"/><path opacity=".67" d="M311.034 134.721a.333.333 0 01-.319.222 7.777 7.777 0 00-3.621.807l-4.484 2.229a.332.332 0 01-.445-.149.328.328 0 01-.017-.253.31.31 0 01.064-.113.341.341 0 01.102-.079l4.485-2.228a8.427 8.427 0 013.93-.876.33.33 0 01.305.44zm12.446-3.1a.332.332 0 01-.64-.061l-.258-1.742a8.402 8.402 0 012.587-7.379.332.332 0 01.452.486 7.735 7.735 0 00-2.382 6.797l.258 1.742a.311.311 0 01-.017.157zm7.846-14.432a2.666 2.666 0 01-.367.696.333.333 0 01-.56-.018.326.326 0 01-.034-.257.347.347 0 01.06-.118 2.017 2.017 0 00.231-1.96 1.992 1.992 0 00-1.548-1.238l-6.731-1.137a8.397 8.397 0 01-6.218-4.738l-2.881-6.182a2.038 2.038 0 00-3.653-.082l-3.158 6.045a8.398 8.398 0 01-6.423 4.452l-6.766.829a2.031 2.031 0 00-1.031.436 2.03 2.03 0 00-.712 2.03c.083.372.268.712.534.984l4.776 4.87a8.404 8.404 0 012.245 7.489l-1.305 6.695a2.02 2.02 0 00.108 1.163.332.332 0 11-.612.254 2.683 2.683 0 01-.147-1.544l1.306-6.694a7.735 7.735 0 00-2.069-6.899l-4.774-4.871a2.7 2.7 0 011.601-4.57l6.765-.828a7.748 7.748 0 005.922-4.101l3.155-6.053a2.703 2.703 0 013.871-1.011c.422.276.758.664.971 1.121l2.883 6.185a7.729 7.729 0 005.729 4.365l6.731 1.137a2.706 2.706 0 012.101 3.55z" fill="#fff"/><path d="M232.417 119.505c.18-.004.358.035.519.115l9.064 4.369a4.48 4.48 0 004.169-.146l8.729-4.994c.156-.091.331-.143.51-.151a1.133 1.133 0 01.871.379c.107.118.187.258.233.41.045.153.056.314.031.471l-1.35 9.971a4.477 4.477 0 001.427 3.919l7.448 6.767a1.103 1.103 0 01.323 1.125 1.11 1.11 0 01-.868.785l-9.893 1.788a4.475 4.475 0 00-3.286 2.568l-4.133 9.175a1.11 1.11 0 01-1.559.504 1.102 1.102 0 01-.424-.435l-4.768-8.866a4.481 4.481 0 00-3.459-2.331l-10.002-1.091a1.109 1.109 0 01-.966-1.326c.043-.202.141-.388.284-.538l6.956-7.272a4.469 4.469 0 001.149-4.009l-2.046-9.853a1.06 1.06 0 01.203-.897 1.144 1.144 0 01.838-.437z" fill="#FBD26D"/><path opacity=".67" d="M253.836 132.387a.253.253 0 01.247.166c.33.901.872 1.709 1.581 2.355l2.834 2.574a.252.252 0 01.009.35.254.254 0 01-.35.025l-2.833-2.576a6.452 6.452 0 01-1.717-2.554.251.251 0 01.009-.194.25.25 0 01.22-.146zm-5.667-8.005a.254.254 0 01.229.129.252.252 0 01-.094.345l-1.17.668a6.412 6.412 0 01-5.973.21.25.25 0 01-.118-.337.25.25 0 01.337-.118 5.915 5.915 0 005.503-.194l1.169-.668a.253.253 0 01.117-.035zm-12.458-1.573c.201-.007.402.016.596.069.065.018.12.061.153.119a.255.255 0 01-.096.346.255.255 0 01-.193.023 1.54 1.54 0 00-1.465.382 1.514 1.514 0 00-.451 1.446l1.061 5.105a6.426 6.426 0 01-1.636 5.745l-3.606 3.768a1.56 1.56 0 00.955 2.626l5.183.567a6.435 6.435 0 012.891 1.059 6.434 6.434 0 012.066 2.283l2.47 4.591a1.555 1.555 0 002.24.555 1.55 1.55 0 00.552-.653l2.144-4.754a6.413 6.413 0 014.709-3.682l5.13-.932c.3-.052.577-.192.798-.401a.245.245 0 01.184-.082.258.258 0 01.256.267.253.253 0 01-.09.18c-.292.279-.66.464-1.058.534l-5.13.931a5.927 5.927 0 00-4.338 3.391l-2.141 4.754a2.071 2.071 0 01-1.808 1.218 2.07 2.07 0 01-1.893-1.082l-2.47-4.592a5.92 5.92 0 00-4.565-3.078l-5.184-.567a2.064 2.064 0 01-1.267-3.478l3.604-3.769a5.923 5.923 0 001.515-5.298l-1.061-5.104a2.06 2.06 0 01.397-1.694 2.062 2.062 0 011.548-.794v.001z" fill="#fff"/><path d="M208.036 165.461a.683.683 0 01.326.073l5.673 2.728a2.808 2.808 0 002.608-.093l5.467-3.124a.693.693 0 01.319-.095.713.713 0 01.691.491.656.656 0 01.021.292l-.845 6.24a2.794 2.794 0 00.893 2.455l4.661 4.229a.693.693 0 01-.342 1.193l-6.196 1.124a2.802 2.802 0 00-2.055 1.607l-2.592 5.741a.69.69 0 01-.976.316.686.686 0 01-.265-.272l-2.983-5.545a2.81 2.81 0 00-2.165-1.458l-6.259-.682a.686.686 0 01-.601-.83.688.688 0 01.176-.336l4.352-4.552a2.798 2.798 0 00.718-2.508l-1.282-6.166a.653.653 0 01.127-.562.706.706 0 01.529-.266z" fill="#FBD26D"/><path opacity=".67" d="M221.446 173.523a.158.158 0 01.094.026.163.163 0 01.06.077c.206.564.545 1.069.989 1.473l1.773 1.611a.16.16 0 01.011.224.16.16 0 01-.224.011l-1.773-1.611a4.037 4.037 0 01-1.073-1.599.157.157 0 01.094-.203.116.116 0 01.049-.009zm-3.546-5.009a.161.161 0 01.158.116.159.159 0 01-.075.18l-.731.418a4.022 4.022 0 01-3.738.136.162.162 0 01-.087-.09.165.165 0 01.005-.124.165.165 0 01.094-.083.173.173 0 01.064-.007.167.167 0 01.061.019 3.71 3.71 0 003.444-.121l.731-.419a.176.176 0 01.074-.025zm-7.797-.987c.126-.004.252.011.374.044a.16.16 0 01.107.193.158.158 0 01-.072.094.155.155 0 01-.117.019.965.965 0 00-.915.238.954.954 0 00-.284.906l.665 3.195a4.02 4.02 0 01-1.031 3.595l-2.254 2.358a.971.971 0 00.105 1.435.973.973 0 00.493.202l3.244.356a4.024 4.024 0 013.102 2.09l1.545 2.874a.974.974 0 001.747-.061l1.341-2.975a4.018 4.018 0 012.947-2.304l3.21-.583a.968.968 0 00.504-.245.159.159 0 01.112-.043.16.16 0 01.154.16.16.16 0 01-.047.111 1.265 1.265 0 01-.663.334l-3.209.582a3.706 3.706 0 00-2.714 2.123l-1.341 2.975a1.289 1.289 0 01-1.825.593 1.287 1.287 0 01-.494-.512l-1.547-2.874a3.698 3.698 0 00-2.856-1.924l-3.244-.356a1.289 1.289 0 01-1.079-.843 1.289 1.289 0 01.285-1.34l2.256-2.358a3.698 3.698 0 00.948-3.312l-.664-3.194a1.297 1.297 0 011.217-1.558v.005z" fill="#fff"/><path d="M382.389 126.417a1.088 1.088 0 00-.517.137l-8.928 4.637a4.473 4.473 0 01-4.171-.02l-8.885-4.726a1.08 1.08 0 00-.514-.137 1.144 1.144 0 00-1.079.827 1.074 1.074 0 00-.017.472l1.655 9.926a4.474 4.474 0 01-1.308 3.955l-7.239 6.991a1.112 1.112 0 00-.285 1.132 1.102 1.102 0 00.889.757l9.958 1.494a4.482 4.482 0 013.362 2.467l4.411 9.045a1.111 1.111 0 00.989.62 1.107 1.107 0 00.994-.612l4.502-9.002a4.472 4.472 0 013.385-2.435l9.964-1.401a1.103 1.103 0 00.622-1.884l-7.172-7.057a4.478 4.478 0 01-1.27-3.972l1.748-9.91a1.063 1.063 0 00-.229-.892 1.142 1.142 0 00-.865-.412z" fill="#FBD26D"/><path opacity=".67" d="M361.372 139.948a.249.249 0 00-.241.174 5.952 5.952 0 01-1.509 2.401l-2.754 2.658a.28.28 0 00-.063.082.246.246 0 00-.025.099.238.238 0 00.016.102c.012.032.03.062.055.087a.249.249 0 00.186.077.25.25 0 00.183-.082l2.754-2.659a6.436 6.436 0 001.637-2.606.258.258 0 00-.034-.228.249.249 0 00-.09-.077.241.241 0 00-.115-.028z" fill="#fff"/><path opacity=".67" d="M366.793 131.771a.255.255 0 00-.121.479l1.19.633a6.425 6.425 0 005.977.027.26.26 0 00.125-.148c.01-.032.013-.065.01-.098a.245.245 0 00-.089-.172.26.26 0 00-.086-.048c-.032-.01-.065-.013-.098-.01a.254.254 0 00-.095.027 5.933 5.933 0 01-5.507-.026l-1.189-.633a.283.283 0 00-.117-.031z" fill="#FBD26D"/><path opacity=".67" d="M379.197 129.819a2.028 2.028 0 00-.594.086.254.254 0 00.146.486 1.543 1.543 0 011.474.335 1.526 1.526 0 01.495 1.433l-.905 5.135a6.421 6.421 0 001.82 5.692l3.717 3.658a1.55 1.55 0 01.387 1.599 1.556 1.556 0 01-1.262 1.054l-5.164.726a6.42 6.42 0 00-4.852 3.491l-2.33 4.665a1.556 1.556 0 01-2.223.623 1.556 1.556 0 01-.572-.637l-2.285-4.687a6.412 6.412 0 00-4.819-3.535l-5.157-.774a1.551 1.551 0 01-.81-.378.254.254 0 00-.338.377c.3.269.674.444 1.073.502l5.157.773a5.91 5.91 0 014.439 3.257l2.286 4.687a2.064 2.064 0 003.702.018l2.33-4.665a5.91 5.91 0 014.469-3.216l5.163-.725a2.062 2.062 0 001.161-3.516l-3.717-3.657a5.926 5.926 0 01-1.676-5.245l.905-5.134a2.045 2.045 0 00-.657-1.898 2.068 2.068 0 00-1.363-.53z" fill="#fff"/><path d="M404.278 162.469a.703.703 0 00-.323.081l-5.592 2.904a2.806 2.806 0 01-2.61-.012l-5.56-2.956a.706.706 0 00-.321-.086.726.726 0 00-.538.254.668.668 0 00-.149.557l1.036 6.211a2.811 2.811 0 01-.819 2.479l-4.53 4.373a.69.69 0 00.378 1.182l6.228.936a2.804 2.804 0 012.104 1.543l2.76 5.66a.69.69 0 00.621.387.689.689 0 00.621-.387l2.812-5.633a2.81 2.81 0 012.12-1.524l6.235-.877a.68.68 0 00.347-.154.682.682 0 00.229-.694.687.687 0 00-.187-.33l-4.488-4.417a2.804 2.804 0 01-.795-2.485l1.091-6.201a.663.663 0 00-.376-.742.712.712 0 00-.294-.069z" fill="#FBD26D"/><path opacity=".67" d="M391.126 170.935a.16.16 0 00-.094.03.158.158 0 00-.057.08 3.71 3.71 0 01-.944 1.5l-1.723 1.664a.153.153 0 00-.036.051.143.143 0 00-.014.061.163.163 0 00.044.114.16.16 0 00.226.002l1.724-1.664a4.033 4.033 0 001.024-1.637.16.16 0 00.008-.061.159.159 0 00-.109-.138.161.161 0 00-.049-.002zm3.393-5.114a.159.159 0 00-.079.024.156.156 0 00-.069.181.165.165 0 00.077.094l.745.395a4.016 4.016 0 003.74.018.16.16 0 00.068-.214.16.16 0 00-.214-.067 3.695 3.695 0 01-3.445-.017l-.745-.395a.153.153 0 00-.078-.019zm7.763-1.222c-.127 0-.252.018-.373.054a.173.173 0 00-.056.028.162.162 0 00-.054.171c.006.02.016.039.03.055.013.016.03.03.049.039a.155.155 0 00.123.01.961.961 0 01.922.21.952.952 0 01.311.896l-.568 3.214a4.028 4.028 0 001.139 3.563l2.327 2.288a.978.978 0 01.242 1 .974.974 0 01-.787.66l-3.232.455a4.014 4.014 0 00-3.036 2.182l-1.458 2.919a.978.978 0 01-.877.541.98.98 0 01-.872-.549l-1.431-2.933a4.014 4.014 0 00-3.014-2.212l-3.227-.484a.975.975 0 01-.508-.236.162.162 0 00-.114-.041.157.157 0 00-.06.016.152.152 0 00-.081.09.157.157 0 00.007.121.152.152 0 00.037.05c.188.168.422.277.672.313l3.226.484a3.702 3.702 0 012.779 2.038l1.429 2.933a1.294 1.294 0 001.84.536c.205-.127.371-.309.479-.525l1.458-2.919a3.688 3.688 0 011.15-1.351 3.688 3.688 0 011.646-.661l3.232-.454a1.295 1.295 0 001.048-.874 1.295 1.295 0 00-.323-1.326l-2.325-2.289a3.704 3.704 0 01-1.049-3.282l.567-3.212a1.292 1.292 0 00-.281-1.052 1.294 1.294 0 00-.983-.468l-.004.002z" fill="#fff"/><path d="M388.311 198.814H214.765a2.413 2.413 0 00-2.412 2.413V369.77a2.412 2.412 0 002.412 2.413h173.546a2.413 2.413 0 002.413-2.413V201.227a2.413 2.413 0 00-2.413-2.413z" fill="#fff"/><path d="M346.443 207.176h-81.26a.85.85 0 00-.85.85v8.904c0 .469.38.85.85.85h81.26a.85.85 0 00.849-.85v-8.904a.85.85 0 00-.849-.85zm35.47 22.72H223.506a.85.85 0 00-.85.85v7.995c0 .469.381.85.85.85h158.407a.85.85 0 00.85-.85v-7.995a.85.85 0 00-.85-.85zm-58.288 21.812H223.011a.85.85 0 00-.85.85v7.994c0 .47.381.85.85.85h100.614a.85.85 0 00.849-.85v-7.994a.85.85 0 00-.849-.85zm53.669 22.137h-153.54a.85.85 0 00-.85.85v7.995a.85.85 0 00.85.849h153.54c.47 0 .85-.38.85-.849v-7.995a.85.85 0 00-.85-.85zm-27.097 21.812H223.259a.85.85 0 00-.85.85v7.994c0 .469.381.85.85.85h126.938a.85.85 0 00.849-.85v-7.994a.85.85 0 00-.849-.85zm32.212 23.332H224.002a.85.85 0 00-.85.85v7.995a.85.85 0 00.85.849h158.407a.85.85 0 00.85-.849v-7.995a.85.85 0 00-.85-.85zm-66.008 21.813h-92.895a.85.85 0 00-.85.85v7.994c0 .47.381.85.85.85h92.895a.85.85 0 00.85-.85v-7.994a.85.85 0 00-.85-.85z" fill="#941759"/><path d="M397.361 436.5c4.06.352 11.106.922 16.66 1.166 3.34.148 5.261-.18 6.369-.623 0 .124 0 .243-.01.352a1.148 1.148 0 01-1.091 1.091c-7.265.413-14.548.421-21.814.022a.81.81 0 01-.678-.427.816.816 0 01.011-.801c.165-.273.35-.534.553-.78z" fill="#060606"/><path d="M414.018 437.666c-5.555-.244-12.601-.818-16.661-1.166 3.992-4.897 16.661-8.198 16.661-8.198h3.577c2.456 3.547 2.818 6.925 2.791 8.741-1.107.443-3.029.771-6.368.623z" fill="#3B3D42"/><path d="M418.198 422.461l-.334 6.626a1.516 1.516 0 01-1.293 1.423 5.882 5.882 0 01-2.687-.222 1.803 1.803 0 01-1.205-1.377l-1.157-6.45h6.676z" fill="url(#paint1_linear_5061_42752)"/><path d="M464.674 437.615c1.761-.246 2.557-1.159 2.891-2.137v.025c.26 1.033-.341 2.101-1.541 2.61-1.451.614-3.037.719-4.269.668-1.322-.054-2.534-.601-3.201-1.477l-.01-.012c1.331.656 3.199.733 6.13.323z" fill="#060606"/><path d="M456.373 422.418h2.952c4.494-.093 7.316 9.389 8.241 13.059-.334.978-1.131 1.892-2.892 2.138-2.936.409-4.798.332-6.124-.324-2.428-3.196-3.632-7.875-4.211-10.606-.659-3.107 2.034-4.267 2.034-4.267z" fill="#3B3D42"/><path d="M458.945 416.268l1.637 6.517a1.778 1.778 0 01-.921 2.004c-.916.471-2.207.966-3.392.818a1.48 1.48 0 01-1.206-.986l-2.406-6.857 6.288-1.496z" fill="url(#paint2_linear_5061_42752)"/><path d="M460.9 418.152c-2.046 1.807-8.67 2.046-8.67 2.046-23.886-57.328-33.657-65.473-33.657-65.473 3.449 21.637.557 69.543.557 69.543-3.942 1.739-9.024 0-9.024 0a369.193 369.193 0 00-12.199-90.674c16.145-.363 24.73-5.887 27.533-8.104 13.458 21.695 35.46 92.662 35.46 92.662z" fill="#8EB438"/><path d="M421.341 259.563c3.056 15.241 1.96 42.522 1.242 54.97-.202 3.497 2.239 8.345 4.212 11.652a1.05 1.05 0 01.108.821 1.047 1.047 0 01-.527.639c-3.304 1.698-14.497 6.956-27.469 7.615a1.85 1.85 0 01-1.861-1.382c-9.622-35.933-20.799-58.892-20.799-58.892 12.339-19.705 45.094-15.423 45.094-15.423z" fill="#941759"/><path d="M416.943 353.369a.763.763 0 00.653-1.163c-.129-.212-3.219-5.205-9.471-8.221a.767.767 0 00-1.061.944c.067.192.208.35.391.439 5.828 2.814 8.799 7.593 8.829 7.638a.758.758 0 00.659.363z" fill="url(#paint3_linear_5061_42752)"/><path d="M440.508 303.305c-.982 7.093-3.882 14.845-9.684 23.073l-2.206-1.798s2.547-10.33 1.1-22.051c3.579-.698 7.806.021 10.79.776z" fill="url(#paint4_linear_5061_42752)"/><path d="M417.928 278.368l3.41-18.806s22.803 17.431 19.167 43.744c-2.985-.756-7.212-1.475-10.789-.776-1.041-8.449-4.155-17.611-11.788-24.162zm-41.682-3.383l8.802 18.96c-1.423 11.445-7.571 16.394-14.201 18.291a40.21 40.21 0 00-2.955-12.344c8.47-8.749 8.354-24.907 8.354-24.907z" fill="#941759"/><path d="M367.898 299.889a40.212 40.212 0 012.956 12.344c-17.686 6.862-22.37-6.446-22.37-6.446l3.274-.576c7.374.778 12.53-1.603 16.14-5.322z" fill="url(#paint5_linear_5061_42752)"/><path d="M384.356 251.582l4.249 15.629a3.04 3.04 0 004.065 2.021c1.822-.728 4.134-1.723 6.124-2.798a4.077 4.077 0 002.025-2.622 4.09 4.09 0 00-.58-3.262l-8.835-13.174-7.048 4.206z" fill="url(#paint6_linear_5061_42752)"/><path d="M375.06 239.712c-.04.273 3.546 17.827 3.546 17.827l9.982-2.259-.923-17.146s-11.957-2.913-12.605 1.578z" fill="url(#paint7_linear_5061_42752)"/><path d="M385.417 241.955l1.193 8.988c.016.114.016.229 0 .344-.1.705-.624 3.103-3.045 2.418-2.198-.623-4.212-1.158-5.604-.733a1.265 1.265 0 00-.87 1.464c.326 1.596 1.127 5.183 2.297 8.184a1.266 1.266 0 001.535.748c1.893-.546 5.853-1.828 8.797-3.601a1.27 1.27 0 00.618-1.139c-.095-2.27-.361-9.167-.136-11.101.21-1.814 2.437-2.901 3.41-3.291a1.236 1.236 0 00.693-.696c.447-1.122 1.065-3.721-2.208-4.786a1.259 1.259 0 01-.75-.648 1.261 1.261 0 01-.054-.989c.484-1.35.689-3.41-1.844-4.546-2.575-1.154-4.501.218-5.537 1.334a1.266 1.266 0 01-1.613.191c-.298-.188-.682-.25-1.14.038a1.263 1.263 0 01-1.006.127 1.256 1.256 0 01-.768-.662c-.616-1.265-1.874-2.621-4.395-2.19-4.472.766-4.98 5.729-3.798 8.627 1.181 2.899 5.981 1.799 8.391.334 1.832-1.113 4.208.054 5.241.682.16.097.296.228.398.385.103.156.17.333.195.518z" fill="#3B3D42"/><path d="M390.602 250.801s-1.84-5.149.05-6.411c1.891-1.262 4.687-.607 4.071 3.124-.771 4.641-4.121 3.287-4.121 3.287z" fill="url(#paint8_linear_5061_42752)"/><path d="M349.793 308.224c-.889.694-3.939-.757-5.806-1.761a2.146 2.146 0 01-1.037-2.537c.449-1.417 1.196-3.245 2.12-3.476 1.529-.382 8.392 4.907 4.723 7.774z" fill="url(#paint9_linear_5061_42752)"/><path d="M477.74 341.62l-180.725-54.631-8.142 26.565 180.748 56.395a8.29 8.29 0 009.831-4.104c1.909-3.665 3.62-9.331 3.336-17.682a7.097 7.097 0 00-5.048-6.543z" fill="#AFDD44"/><path d="M241.727 282.896l24.689 1.83c.136 3.379-.758 7.802-4.261 12.996l-21.142-12.532c-1.135-.668-.592-2.394.714-2.294z" fill="#3B3D42"/><path d="M297.015 286.988c1.91 16.311-8.142 26.566-8.142 26.566l-26.724-15.838c3.503-5.194 4.398-9.618 4.262-12.996l30.604 2.268z" fill="url(#paint10_linear_5061_42752)"/><path d="M475.928 349.733a.526.526 0 00.49-.459.52.52 0 00-.364-.564L303.16 296.829a.52.52 0 00-.61.748.524.524 0 00.31.253l172.886 51.881a.511.511 0 00.182.022z" fill="url(#paint11_linear_5061_42752)"/><path d="M473.483 360.118a.517.517 0 00.496-.458.524.524 0 00-.37-.565l-172.888-51.881a.523.523 0 00-.3 1.001l172.888 51.884a.486.486 0 00.174.019z" fill="url(#paint12_linear_5061_42752)"/><path d="M429.529 324.267l-10.294-.839-4.458 4.11s1.055 1.458 4.353.619 7.813-1.043 7.813-1.043 4.552 2.046 4.608-1.787l-2.022-1.06z" fill="url(#paint13_linear_5061_42752)"/><defs><linearGradient id="paint0_linear_5061_42752" x1="608" y1="488.438" x2="298.873" y2="-41.032" gradientUnits="userSpaceOnUse"><stop stop-color="#A0CA3F"/><stop offset="1" stop-color="#7B9C30"/></linearGradient><linearGradient id="paint1_linear_5061_42752" x1="418.198" y1="426.517" x2="411.522" y2="426.517" gradientUnits="userSpaceOnUse"><stop stop-color="#FEBBBA"/><stop offset="1" stop-color="#FF928E"/></linearGradient><linearGradient id="paint2_linear_5061_42752" x1="-23489.5" y1="29320.5" x2="-23023" y2="29320.5" gradientUnits="userSpaceOnUse"><stop stop-color="#FEBBBA"/><stop offset="1" stop-color="#FF928E"/></linearGradient><linearGradient id="paint3_linear_5061_42752" x1="433.751" y1="391.407" x2="429.93" y2="383.762" gradientUnits="userSpaceOnUse"><stop stop-color="#53D8FF"/><stop offset="1" stop-color="#3840F7"/></linearGradient><linearGradient id="paint4_linear_5061_42752" x1="-32077.9" y1="54203.8" x2="-35788.4" y2="55822.7" gradientUnits="userSpaceOnUse"><stop stop-color="#FEBBBA"/><stop offset="1" stop-color="#FF928E"/></linearGradient><linearGradient id="paint5_linear_5061_42752" x1="-52077.6" y1="32512.1" x2="-48409.6" y2="32512.1" gradientUnits="userSpaceOnUse"><stop stop-color="#FEBBBA"/><stop offset="1" stop-color="#FF928E"/></linearGradient><linearGradient id="paint6_linear_5061_42752" x1="-41117.4" y1="40264.8" x2="-41170" y2="47024" gradientUnits="userSpaceOnUse"><stop stop-color="#FEBBBA"/><stop offset="1" stop-color="#FF928E"/></linearGradient><linearGradient id="paint7_linear_5061_42752" x1="27711.6" y1="63223.2" x2="30450.5" y2="66419" gradientUnits="userSpaceOnUse"><stop stop-color="#FEBBBA"/><stop offset="1" stop-color="#FF928E"/></linearGradient><linearGradient id="paint8_linear_5061_42752" x1="11140.2" y1="23690.8" x2="10408.7" y2="22993" gradientUnits="userSpaceOnUse"><stop stop-color="#FEBBBA"/><stop offset="1" stop-color="#FF928E"/></linearGradient><linearGradient id="paint9_linear_5061_42752" x1="-17248.8" y1="18098" x2="-16778.6" y2="18098" gradientUnits="userSpaceOnUse"><stop stop-color="#FEBBBA"/><stop offset="1" stop-color="#FF928E"/></linearGradient><linearGradient id="paint10_linear_5061_42752" x1="52613.7" y1="55219.4" x2="80193.5" y2="86400" gradientUnits="userSpaceOnUse"><stop stop-color="#FF928E"/><stop offset="1" stop-color="#FE7062"/></linearGradient><linearGradient id="paint11_linear_5061_42752" x1="350249" y1="89911.3" x2="378302" y2="169769" gradientUnits="userSpaceOnUse"><stop stop-color="#FF928E"/><stop offset="1" stop-color="#FE7062"/></linearGradient><linearGradient id="paint12_linear_5061_42752" x1="346707" y1="94088.7" x2="374761" y2="173947" gradientUnits="userSpaceOnUse"><stop stop-color="#FF928E"/><stop offset="1" stop-color="#FE7062"/></linearGradient><linearGradient id="paint13_linear_5061_42752" x1="-44062.7" y1="11930.5" x2="-44694.4" y2="13811.2" gradientUnits="userSpaceOnUse"><stop stop-color="#FEBBBA"/><stop offset="1" stop-color="#FF928E"/></linearGradient></defs></svg>