<svg width="571" height="380" fill="none" xmlns="http://www.w3.org/2000/svg"><path fill-rule="evenodd" clip-rule="evenodd" d="M61.846 77.853c38.115-32.752 99.6-34.508 153.132-48.476C261.961 17.12 306.62-5.607 355.364 1.27c49.492 6.982 86.902 36.59 121.864 65.106 36.223 29.544 70.005 61.366 82.169 101.31 13.367 43.892 21.245 94.616-11.192 131.761-31.957 36.595-97.122 38.886-150.426 53.316-47.764 12.931-93.471 27.492-143.974 26.383-59.899-1.316-124.077-3.132-170.26-33.285C34.312 313.718 4.513 264.001.442 213.729c-3.984-49.212 19.153-99.57 61.404-135.876z" fill="#E7F4CA"/><g clip-path="url(#clip0_7608_48683)"><path d="M116.173 309.766c5.184 9.614 16.186 13.741 16.186 13.741s2.597-11.46-2.587-21.074-16.186-13.741-16.186-13.741-2.597 11.46 2.587 21.074z" fill="#2F2E41"/><path d="M119.735 306.604c9.36 5.631 12.964 16.815 12.964 16.815s-11.57 2.055-20.929-3.576c-9.359-5.631-12.963-16.815-12.963-16.815s11.569-2.055 20.928 3.576z" fill="#941759"/><path d="M342.916 59.992h-.834v7.717h.834v-7.717zm52.139 18.768h-.834v7.717h.834v-7.716zm-5.84 193.539h-.834v7.716h.834v-7.716zm12.096-63.819h-.834v7.717h.834v-7.717z" fill="#AFDD44"/><path d="M249.823 305.364h-98.764v-.71h98.053v-34.462h-89.751l-4.36-9.083.641-.307 4.167 8.68h90.014v35.882z" fill="#2F2E41"/><path d="M164.203 322.772a7.46 7.46 0 000-14.921 7.46 7.46 0 100 14.921zm73.541 0a7.46 7.46 0 000-14.921 7.46 7.46 0 100 14.921zm86.685-161.291a4.619 4.619 0 100-9.238 4.619 4.619 0 000 9.238z" fill="#3F3D56"/><path d="M260.388 258.469H149.376l-24.021-78.514h159.77l-.146.462-24.591 78.052zm-110.487-.71h109.965l24.29-77.093h-157.84l23.585 77.093z" fill="#2F2E41"/><path d="M251.721 254.384h-97.506l-21.098-69.633h140.331l-.127.41-21.6 69.223z" fill="#AFDD44"/><path d="M287.115 172.941l-.687-.183 4.688-17.672h27.274v.711h-26.727l-4.548 17.144zm-9.975 30.816H133.117v.71H277.14v-.71zm-8.248 26.179H141.125v.71h127.767v-.71z" fill="#2F2E41"/><path d="M205.593 180.31h-.71v77.803h.71V180.31zm31.81-.023l-5.1 77.802.709.046 5.1-77.801-.709-.047zm-64.319-.001l-.709.046 5.071 77.804.709-.046-5.071-77.804zm299.448 142.938H98.807v.834h373.725v-.834z" fill="#2F2E41"/><path d="M347.154 38.29s6.098 17.353 2.345 20.023c-3.752 2.67 12.664 24.474 12.664 24.474l19.7-5.34-10.788-18.244s-1.407-18.244-1.407-20.914c0-2.67-22.514 0-22.514 0z" fill="#A0616A"/><path opacity=".1" d="M347.154 38.29s6.098 17.353 2.345 20.023c-3.752 2.67 12.664 24.474 12.664 24.474l19.7-5.34-10.788-18.244s-1.407-18.244-1.407-20.914c0-2.67-22.514 0-22.514 0z" fill="#3B3D42"/><path d="M336.92 161.994s-1.78 22.249 0 33.818c1.78 11.57 4.45 43.608 4.45 43.608s0 60.517 9.789 61.407c9.79.89 16.909 1.78 17.799-1.78.89-3.56-4.449-5.34-1.78-7.119 2.67-1.78 3.56-8.01 0-15.13-3.559-7.119 0-79.206 0-79.206l16.91 45.388s1.78 37.378 3.559 42.718c1.78 5.34-1.779 15.129 4.45 16.019 6.23.89 13.35-4.45 16.909-6.23 3.56-1.78-5.339-1.78-3.559-2.67 1.78-.889 7.119-3.559 5.339-4.449-1.78-.89-3.56-43.608-3.56-43.608s-4.894-91.221-11.124-94.781c-6.23-3.559-10.234 2.572-10.234 2.572l-48.948 9.443z" fill="#941759"/><path d="M352.939 297.267v7.119s-8.01 19.354 0 19.354c8.009 0 14.239 2.005 14.239-.665v-24.028l-14.239-1.78zm52.509-.012v7.12s8.01 19.353 0 19.353c-8.009 0-14.239 2.006-14.239-.664v-24.029l14.239-1.78z" fill="#3B3D42"/><path d="M359.615 51.194c8.847 0 16.019-7.172 16.019-16.02 0-8.847-7.172-16.019-16.019-16.019-8.847 0-16.019 7.172-16.019 16.02 0 8.847 7.172 16.019 16.019 16.019z" fill="#A0616A"/><path d="M354.719 64.988s4.45 13.35 11.57 10.68l7.119-2.67 12.46 85.436s-9.79 14.239-24.029 5.339c-14.239-8.899-7.12-98.785-7.12-98.785z" fill="#941759"/><path d="M367.18 62.318l4.004-8.455s23.584 11.125 27.144 14.685c3.56 3.56 3.56 8.9 3.56 8.9l-6.23 22.248s1.78 48.948 1.78 50.728c0 1.78 6.23 11.569 1.78 8.009-4.45-3.56-5.34-7.119-8.899-1.78-3.56 5.34-11.57 11.57-11.57 11.57L367.18 62.318z" fill="#3F3D56"/><path d="M398.327 126.395l-2.67 24.918s-16.019 14.24-12.459 15.13c3.56.89 5.34-2.67 5.34-2.67s6.229 6.229 9.789 2.67c3.56-3.56 12.459-37.379 12.459-37.379l-12.459-2.669z" fill="#A0616A"/><path d="M359.956 12.535c-3.551-.127-7.352-.19-10.346 1.724a15.126 15.126 0 00-3.575 3.5c-2.917 3.686-5.436 8.325-4.353 12.899l1.258-.49c0 1.22-.271 2.426-.795 3.529.178-.515.771.318.612.839l-1.386 4.546c2.278-.835 5.112.856 5.459 3.258.159-5.281.706-11.337 4.99-14.43 2.161-1.559 4.895-2.035 7.526-2.457 2.426-.39 4.971-.762 7.295.037 2.325.799 4.304 3.176 3.777 5.577 1.072-.37 2.271.378 2.8 1.38.53 1.002.558 2.184.574 3.318 1.142.807 2.442-.796 2.908-2.115 1.093-3.097 2.065-6.393 1.476-9.624-.589-3.23-3.222-6.318-6.506-6.33a2.275 2.275 0 00.593-1.605l-2.706-.228a2.99 2.99 0 001.787-.943c-1.086 1.196-9.631-2.322-11.388-2.385z" fill="#2F2E41"/><path d="M359.17 59.648s-7.245-7.1-9.853-6.665c-2.607.435-6.167 6.665-6.167 6.665s-21.359 7.12-20.469 14.239c.89 7.12 10.68 41.828 10.68 41.828s8.009 41.828.89 46.278c-7.12 4.449 33.818 16.019 34.708 10.679.89-5.34 2.67-58.737 0-66.747-2.67-8.01-9.789-46.277-9.789-46.277zm31.148 14.24h11.005s7.684 33.818 8.574 37.378c.89 3.56 2.67 20.469 1.78 20.469-.89 0-18.689-3.56-18.689-.89l-2.67-56.957z" fill="#3F3D56"/><path d="M389.946 157.633h-42.127c-4.111-18.912-4.455-37.184 0-54.641h42.127c-6.798 17.143-7.223 35.29 0 54.641z" fill="#AFDD44"/><path d="M330.691 134.405l12.46 5.339s24.029 3.56 24.029-6.229c0-9.79-24.029-4.45-24.029-4.45l-8.01-2.561-4.45 7.901z" fill="#A0616A"/><path d="M333.36 68.549l-10.679 2.67-8.01 47.167s-2.67 12.46 1.78 13.35c4.45.89 16.909 8.009 16.909 8.009s1.78-13.349 5.34-13.349l-8.899-7.12 5.339-31.148-1.78-19.58z" fill="#3F3D56"/></g><defs><clipPath id="clip0_7608_48683"><path fill="#fff" transform="translate(98.807 12.48)" d="M0 0h373.726v311.982H0z"/></clipPath></defs></svg>