<svg width="579" height="418" fill="none" xmlns="http://www.w3.org/2000/svg"><path opacity=".12" fill-rule="evenodd" clip-rule="evenodd" d="M515.794 129.426c-38.387-31.31-100.312-32.99-154.228-46.342-47.318-11.719-92.297-33.444-141.389-26.87-49.846 6.675-87.524 34.98-122.736 62.24-36.481 28.244-70.505 58.665-82.756 96.851-13.462 41.96-21.396 90.451 11.272 125.961 32.185 34.985 97.816 37.174 151.502 50.97 48.105 12.361 94.139 26.281 145.003 25.221 60.327-1.258 124.964-2.994 171.478-31.819 49.585-30.729 79.597-78.257 83.697-126.317 4.013-47.046-19.29-95.187-61.843-129.895z" fill="url(#paint0_linear_7970_49473)"/><path d="M502.21 320.038h-.119l.351-6.077h-30.907l1.492 25.776a9.135 9.135 0 009.116 8.604h9.698a9.138 9.138 0 006.269-2.49 9.14 9.14 0 002.85-6.114l.343-5.948c.301.028.606.045.915.045 4.513 0 8.183-3.096 8.183-6.9 0-3.805-3.677-6.896-8.191-6.896zm0 10.942a6.656 6.656 0 01-.746-.048l.463-8.027h.286c2.937 0 5.324 1.816 5.324 4.044 0 2.228-2.39 4.033-5.327 4.033v-.002z" fill="url(#paint1_linear_7970_49473)"/><path d="M490.116 311.63c-3.031-.392-5.891-2.15-7.84-4.657a12.422 12.422 0 01-2.178-4.284c-.125-.388-.194-.789-.281-1.187a7.234 7.234 0 01-.155-1.208 13.096 13.096 0 010-2.425 13.503 13.503 0 011.316-4.635c.357-.726.783-1.417 1.273-2.061a12.911 12.911 0 011.606-1.756c.545-.497 1.07-.942 1.517-1.382a7.51 7.51 0 00.622-.652c.174-.204.329-.424.462-.656.267-.454.415-.967.433-1.492a1.903 1.903 0 00-.43-1.363l.778-1.134c.425.222.789.543 1.064.935.263.391.454.825.562 1.283.2.891.157 1.818-.124 2.686-.614 1.755-1.785 2.904-2.661 3.929-.414.467-.792.966-1.129 1.492-.174.248-.313.524-.467.786a5.763 5.763 0 00-.393.828 12.069 12.069 0 00-.935 3.531 11.213 11.213 0 001.569 7.027 13.258 13.258 0 005.742 5.053l-.351 1.342zm.919-7.233a14.894 14.894 0 003.016-3.583 11.985 11.985 0 001.54-4.101 12.671 12.671 0 00-.067-4.369 16.262 16.262 0 00-1.555-4.423l.995-.945c1.606 1.024 2.817 2.66 3.524 4.476.723 1.866.915 3.896.554 5.865a11.094 11.094 0 01-2.576 5.295 9.602 9.602 0 01-4.822 3.016l-.609-1.231z" fill="#A2A2A2"/><path d="M93.283 330.487c-.855-10.4 4.973-21.614 15.196-29.266 9.317-6.962 20.813-10.523 31.849-13.323 61.315-15.564 126.072-13.706 188.713-11.911 55.972 1.606 113.854 3.265 169.263-7.46 7.89-1.527 16.181-3.387 23.238-7.763 7.579-4.702 12.378-12.07 12.523-19.224.273-13.428-14.264-22.614-22.952-26.901-32.995-16.282-73.605-22.407-127.764-19.281A612.019 612.019 0 00261.81 214.87c-8.952 2.38-18.065 5.013-26.871 7.557-31.52 9.114-64.11 18.533-97.351 18.533h-.498c-9.024-.025-20.609-1.852-24.558-10.414-2.787-6.042-.442-12.93 2.014-17.635 8.206-15.743 23.743-24.919 35.33-29.84 13.013-5.53 27.157-8.539 40.831-11.438l4.869-1.04a921.895 921.895 0 0090.762-24.471c14.085-4.58 21.311-10.538 22.096-18.212.697-6.808-4.299-12.769-9.561-15.666-6.301-3.461-13.748-3.911-19.53-3.914h-.082a107.464 107.464 0 00-50.093 12.389c-5.692 3.009-11.19 6.592-16.496 10.056-7.03 4.585-14.301 9.327-22.132 12.816-15.173 6.734-33.102 9.218-53.345 7.373-15.621-1.425-27.527-5.259-36.4-11.725-5.353-3.901-9.822-8.932-14.144-13.801-5.252-5.913-10.692-12.027-17.655-15.999l.463-.81c7.111 4.048 12.594 10.222 17.903 16.193 4.287 4.829 8.724 9.822 13.995 13.676 8.733 6.364 20.488 10.141 35.935 11.548 20.067 1.83 37.856-.626 52.866-7.306 7.768-3.456 15.006-8.178 22.006-12.744 5.329-3.481 10.84-7.069 16.569-10.1a108.44 108.44 0 0150.531-12.496h.082c5.893 0 13.492.465 19.98 4.029 5.53 3.036 10.777 9.337 10.038 16.568-.828 8.079-8.263 14.296-22.735 19.006a922.265 922.265 0 01-90.857 24.493c-1.621.35-3.245.697-4.871 1.042-13.644 2.884-27.743 5.883-40.674 11.379-11.438 4.866-26.783 13.925-34.868 29.417-2.359 4.525-4.62 11.117-1.989 16.814 3.73 8.117 14.96 9.847 23.713 9.872h.497c33.112 0 65.647-9.402 97.096-18.495 8.81-2.547 17.919-5.18 26.89-7.562A612.923 612.923 0 01383.29 194.42c54.338-3.138 95.084 3.019 128.231 19.374 8.887 4.386 23.755 13.823 23.471 27.758-.152 7.46-5.12 15.129-12.965 19.998-7.189 4.461-15.577 6.341-23.549 7.885-55.511 10.752-113.445 9.091-169.469 7.484-62.566-1.792-127.266-3.647-188.457 11.884-10.942 2.775-22.333 6.294-31.519 13.164-9.976 7.46-15.665 18.362-14.825 28.445l-.925.075z" fill="#fff"/><path d="M364.327 330.852c12.682 3.25 30.109 6.166 24.556 17.008l-31.598-.03 7.042-16.978z" fill="#E28B6D"/><path d="M233.147 256.148h-30.564c-10.435 0-18.895 8.46-18.895 18.896v62.422c0 10.436 8.46 18.896 18.895 18.896h30.564c10.436 0 18.896-8.46 18.896-18.896v-62.422c0-10.436-8.46-18.896-18.896-18.896z" fill="#555A64"/><path opacity=".8" d="M198.912 265.386c-1.149.301-1.922 1.35-2.442 2.42a15.596 15.596 0 00-1.121 3.481 46.675 46.675 0 00-.901 7.338 133.66 133.66 0 00.152 14.858c.284 4.951.729 9.892 1.335 14.823.289 2.465.62 4.924.995 7.377.366 2.455.773 4.904 1.273 7.336l-.355.08a130.957 130.957 0 01-1.56-7.309c-.455-2.449-.823-4.913-1.166-7.38a205.073 205.073 0 01-1.447-14.875c-.249-4.973-.38-9.971-.017-14.96a46.013 46.013 0 011.071-7.432 16.266 16.266 0 011.293-3.559 6.784 6.784 0 011.114-1.569 3.45 3.45 0 011.689-.977l.087.348z" fill="#fff"/><path d="M210.598 271.991s1.934 39.222 14.109 82.37h33.269l-47.378-82.37z" fill="#333945"/><path d="M225.867 251.968c-8.358-4.548-10.651-15.818-4.546-23.126a32.215 32.215 0 011.962-2.138c9.327-9.29 3.516-18.585 2.211-39.961-1.306-21.375 22.489-27.186 22.534-27.198 1.121-.274 3.294-3.482 4.212-4.272 10.737-9.32 26.139-8.632 37.911-1.545 5.6 3.372 11.235 8.564 14.266 14.522 4.807 9.45 5.677 21.898 13.771 29.256 11.541 10.488 24.339 19.395 23.822 36.305-.182 6.01-1.686 12.358-5.349 17.175-3.193 4.197-8.054 7.015-12.433 9.73-7.134 4.414-14.671 8.318-22.628 10.941-7.709 2.539-15.507 4.819-23.323 6.995l-2.218.614-50.192-27.298z" fill="#6F3428"/><path d="M280.266 242.731c27.942-9.594 43.118 21.681 63.986 82.703l20.077 5.418-2.333 21.731-7.325 1.527-59.819.249-14.586-111.628z" fill="url(#paint2_linear_7970_49473)"/><path d="M518.33 347.159H93.453v14.644H518.33v-14.644z" fill="#333945"/><path d="M240.901 238.185l62.487 15.638 26.251 78.665-87.701 2.673-5.801-58.165 4.764-38.811z" fill="url(#paint3_linear_7970_49473)"/><path opacity=".3" d="M243.103 271.991c15.353 15.457 11.959 38.103 25.073 40.351 8.684 1.492 33.356 5.013 45.128 9.919 2.382.995 8.952 5.879 7.935 10.215-.657 2.795-9.415.557-9.415.557l-65.568-6.582-13.885-32.127 10.732-22.333z" fill="#4F0E30"/><path d="M297.043 328.644c.445-.704 9.847-2.569 10.909-2.422 3.496.477 5.406 3.215 6.249 5.312l-13.91 7.325-3.248-10.215zm10.406-56.723l1.613 3.678c.533 1.243 1.027 2.486 1.545 3.71.994 2.486 1.947 4.99 2.842 7.514 1.818 5.038 3.426 10.151 4.936 15.291 1.509 5.14 2.815 10.337 3.993 15.561.57 2.616 1.119 5.239 1.607 7.873.487 2.633.887 5.284 1.243 7.94l-.346.049a174.535 174.535 0 00-1.492-7.87c-.537-2.616-1.136-5.222-1.74-7.818a336.069 336.069 0 00-4.086-15.492c-1.459-5.137-3.083-10.227-4.796-15.285-.846-2.534-1.766-5.043-2.694-7.544-.474-1.244-.932-2.505-1.422-3.748l-1.492-3.73.289-.129z" fill="#555A64"/><path d="M357.396 341.918s-2.629 3.108-10.929.079c-3.909.455-11.19.107-25.016-2.148 0 0 5.023 3.511 16.382 4.113 0 0-.497 3.347-6.465 3.197-7.211-.181-8.037-.616-14.601-.343-1.343.058-4.265 0-7.431-.104-5.52-.182-11.791-.475-11.791-.475l-5.471-9.778 10.917-5.221c3.349-1.311 5.023-1.764 6.651-1.99 7.05-.994 11.501-1.795 16.554-.925 5.607.95 22.758 6.637 31.2 13.595z" fill="#F9B384"/><path d="M309.619 346.543l-.306.169c-5.52-.182-11.792-.475-11.792-.475l-5.47-9.778 10.916-5.222c3.35-1.31 5.023-1.763 6.652-1.989-4.004 1.624-7.288 5.913 0 17.295z" fill="#E28B6D"/><path d="M266.654 242.626c-14.203-2.909-48.815-5.331-58.485 12.587-7.958 14.754 11.995 64.156 20.639 81.53 3.558 7.151 13.893 10.692 17.904 10.717l57.065-.328c-3.839-.89-8.76-21.492 4.161-20.908l-47.247-6.584a6.471 6.471 0 01-4.513-2.838c-.684-1.032-1.477-2.337-1.882-3.822l-13.413-49.136 25.771-21.218z" fill="url(#paint4_linear_7970_49473)"/><path d="M392.926 347.458l-55.676-.034v-5.252h55.999l-.323 5.286z" fill="#fff"/><path d="M439.966 347.458l-67.161-.023 24.498-71.632 67.162.02-24.499 71.635z" fill="#555A64"/><path d="M424.044 315.454c-2.058 3.288-5.905 4.636-8.84 3.193a4.566 4.566 0 01-.497-.278c-2.984-1.865-3.643-6.204-1.467-9.681 2.176-3.476 6.358-4.786 9.35-2.914a5.691 5.691 0 012.051 2.268c1.057 2.133.92 4.988-.597 7.412z" fill="#fff"/><path d="M424.046 315.455c-2.059 3.287-7.117 5.677-10.663 1.768 7.691.696 10.28-4.342 10.135-10.707 2.631 2.909 2.044 6.515.528 8.939z" fill="#444"/><path d="M326.215 328.129c2.855.423 5.617 1.218 8.357 2.069 2.741.85 5.429 1.86 8.075 2.971a75.103 75.103 0 017.765 3.73c2.504 1.408 4.944 2.984 7.097 4.889l-.231.281a43.408 43.408 0 00-3.536-2.37 69.67 69.67 0 00-3.715-2.084 89.95 89.95 0 00-7.739-3.583c-2.606-1.149-5.281-2.123-7.957-3.078a100.706 100.706 0 00-4.058-1.333 50.481 50.481 0 00-4.113-1.122l.055-.37zm-1.103 13.257l3.003.858a48.256 48.256 0 006.073 1.218c1.024.144 2.051.249 3.083.341l.343.032.028.298c.036.374-.002.751-.112 1.11a2.056 2.056 0 01-.602.947 2.3 2.3 0 01-.977.475c-.169.033-.34.058-.512.072h-.498v-.366l.45-.067a4.15 4.15 0 00.423-.119c.259-.089.492-.24.679-.44a1.45 1.45 0 00.353-.684 2.1 2.1 0 00.02-.786l.37.331a30.519 30.519 0 01-6.286-.768 27.52 27.52 0 01-3.041-.896 31.65 31.65 0 01-2.917-1.203l.12-.353z" fill="#6F3428"/><path d="M322.565 334.146c2.414.309 4.844.545 7.273.794 2.43.248 4.859.497 7.288.887 2.43.391 4.82.826 7.224 1.261 2.405.435 4.804.88 7.199 1.365l.567.115-.249.527c-.162.45-.369.882-.619 1.29-.15.219-.322.421-.515.602a6.58 6.58 0 01-.631.445c-.881.515-1.823.689-2.736.868-1.855.304-3.7.291-5.532.231a51.332 51.332 0 01-2.736-.156c-.902-.082-1.825-.132-2.735-.249-1.818-.189-3.626-.447-5.431-.709l.045-.363c1.818.15 3.625.353 5.441.46.907.07 1.812.125 2.72.165.908.039 1.813.074 2.718.084a32.202 32.202 0 005.374-.313c.855-.172 1.74-.358 2.437-.784.176-.099.32-.231.497-.343.136-.133.258-.28.365-.437.218-.375.399-.769.54-1.179l.326.642c-4.794-.906-9.584-1.87-14.385-2.703-2.388-.436-4.812-.727-7.232-1.052-2.419-.326-4.841-.644-7.251-1.089l.038-.359z" fill="#6F3428"/><path d="M93.453 347.159H518.33" stroke="#555A64" stroke-width="5" stroke-miterlimit="10"/><path d="M259.668 261.241a20.288 20.288 0 006.761 2.984c2.397.58 4.886.675 7.321.281a15.186 15.186 0 006.714-2.782 15.457 15.457 0 004.655-5.658l.333.145c-.249.579-.525 1.161-.798 1.74-.274.58-.679 1.087-1.02 1.634-.34.547-.83.995-1.243 1.492-.413.497-.955.868-1.432 1.305a15.374 15.374 0 01-7.06 3.049 18.517 18.517 0 01-14.45-3.906l.219-.284zm-16.399 10.702l3.116 10.591 3.056 10.605 3.036 10.613 1.507 5.309.746 2.656c.215.872.489 1.727.821 2.561.684 1.604 2.066 2.79 3.63 3.608a21.202 21.202 0 005.113 1.704c1.783.383 3.586.641 5.416.878l5.47.746 10.942 1.511 10.926 1.575-.045.345-10.964-1.3-10.956-1.361-5.47-.696c-1.82-.224-3.663-.48-5.471-.863a22.13 22.13 0 01-5.334-1.755c-1.676-.861-3.275-2.198-4.036-4.024a4.24 4.24 0 01-.266-.678c-.077-.229-.164-.463-.218-.682l-.371-1.333-.746-2.658-1.492-5.316-2.952-10.626-2.921-10.645-2.872-10.66.335-.105z" fill="#555A64"/><path d="M278.77 220.408l2.797 24.089c.833 7.171-6.714 13.179-14.385 11.189-4.379-1.136-8.952-4.167-13.677-8.723a5.567 5.567 0 01-1.693-3.441l-2.984-29.032 29.942 5.918z" fill="#F9B384"/><path d="M279.144 223.683l1.522 13.117c-6.19.973-14.92-2.509-23.768-14.258l22.246 1.141z" fill="#3C1C16"/><path d="M294.408 203.063c-.358 4.369-1.047 8.932-2.273 13.033-2.071 6.89-5.684 12.451-11.873 13.48-18.222 3.029-31.426-15.086-31.426-15.086l-2.129-24.65 10.998-19.026 24.618-.713 12.008 14.206c.523 6.24.549 12.512.077 18.756z" fill="#F9B384"/><path d="M246.128 199.207c9.78-.731 12.033-8.997 12.701-19.712 0 0 26.496-6.562 35.9 12.272l7.134.773-21.601-28.676-33.57 4.006-6.567 21.791 6.003 9.546z" fill="#6F3428"/><path d="M251.308 195.994a5.327 5.327 0 00-4.57-1.709c-6.498.789-7.627 9.392-6.142 13.055 2.223 5.471 8.243 7.147 8.243 7.147l5.175-5.471c.408-5.697-.234-10.299-2.706-13.022z" fill="#F9B384"/><path opacity=".15" d="M251.41 221.1c3.571 10.153 14.557 38.826-3.387 38.105-8.648-.346-16.248-17.121-28.574-13.955a32.617 32.617 0 014.608-1.781L251.41 221.1z" fill="#3C1C16"/><path d="M248.839 214.487c3.462 6.575 13.145 39.1-3.349 37.223-7.957-.908-9.899-10.481-21.428-8.241l24.777-28.982z" fill="#6F3428"/><path d="M249.408 201.952a3.591 3.591 0 00-.592-2.054 3.673 3.673 0 00-1.527-1.345 2.481 2.481 0 00-1.882-.099c-.629.221-1.189.716-1.741 1.288l-.4-.249a3.775 3.775 0 011.71-2.004 2.28 2.28 0 01.677-.249c.236-.067.481-.096.726-.087l.368.013.356.074a2.5 2.5 0 01.678.234 4.038 4.038 0 011.925 1.935 3.371 3.371 0 01.154 2.638l-.452-.095zm34.848-3.672c.06 1.676 1.034 3.001 2.181 2.961 1.146-.04 2.026-1.43 1.967-3.106-.06-1.676-1.035-3.001-2.181-2.961-1.146.04-2.017 1.432-1.967 3.106zm-18.054.633c.057 1.676 1.035 3.002 2.181 2.959 1.146-.042 2.024-1.429 1.967-3.105-.057-1.676-1.035-2.999-2.181-2.959-1.146.039-2.027 1.429-1.967 3.105zm17.836 16.422a8.93 8.93 0 01-2.984 2.537 5.841 5.841 0 01-4.091.291 10.116 10.116 0 01-3.481-1.895 16.132 16.132 0 01-2.693-2.716l.376-.39c1.032.714 1.989 1.477 3.023 2.119 1.035.641 2.057 1.243 3.143 1.559 1.063.324 2.2.304 3.25-.057 1.06-.393 2.059-1.097 3.059-1.836l.398.388zm6.348-22.23a15.345 15.345 0 00-2.322-1.425 4.435 4.435 0 00-2.271-.415 7.892 7.892 0 00-2.35.693c-.81.354-1.606.829-2.519 1.244l-.248-.261a7.374 7.374 0 011.989-2.283 5.778 5.778 0 012.999-1.184 4.558 4.558 0 013.175.97 5.693 5.693 0 011.841 2.452l-.294.209zm-18.108.634a9.557 9.557 0 00-2.611-1.37 6.512 6.512 0 00-2.678-.271 9.88 9.88 0 00-2.695.721c-.901.373-1.783.858-2.768 1.325l-.249-.248a7.734 7.734 0 012.273-2.425 6.878 6.878 0 013.268-1.188 5.797 5.797 0 013.461.746 5.334 5.334 0 012.288 2.489l-.289.221z" fill="#3C1C16"/><path opacity=".5" d="M254.785 210.499a6.623 6.623 0 0011.466 4.284 6.623 6.623 0 10-9.691-9.034 6.651 6.651 0 00-1.36 2.198 6.646 6.646 0 00-.415 2.552zm39.626-7.435c-.358 4.369-1.047 8.932-2.273 13.032a6.627 6.627 0 01-4.989-7.123 6.632 6.632 0 016.357-5.934c.301-.009.604-.001.905.025zm-17.612-6.092a.284.284 0 01.554-.053c1.492 4.835 6.294 8.366 5.523 9.785-.542.995-2.576 2.129-4.003 2.828a1.278 1.278 0 01-1.816-.905c-.698-3.589-.659-7.527-.258-11.655z" fill="#FC8879"/><path d="M277.818 196.481a12.476 12.476 0 001.763 3.909c.789 1.209 1.711 2.333 2.644 3.514.236.296.462.604.686.933.252.35.459.731.617 1.133.111.286.141.597.087.898-.075.288-.22.553-.423.771-.286.315-.61.592-.965.826a15.7 15.7 0 01-4.192 1.882l-.207-.497c.634-.378 1.286-.746 1.9-1.137.617-.37 1.209-.777 1.776-1.221a5.11 5.11 0 00.693-.671.871.871 0 00.117-.194.688.688 0 00-.057-.199c-.194-.497-.691-1.104-1.121-1.678-.901-1.172-1.848-2.39-2.572-3.758a9.753 9.753 0 01-1.283-4.446l.537-.065zm-34.769 19.811a6.248 6.248 0 00-.498 2.96 9.934 9.934 0 00.712 2.959c.8 1.887 1.869 3.73 2.807 5.642.937 1.912 1.795 3.919 2.178 6.087.188 1.09.241 2.199.159 3.302a14.095 14.095 0 01-.273 1.659 7.85 7.85 0 01-.612 1.596 6.4 6.4 0 01-2.3 2.554 5.37 5.37 0 01-3.392.796c-1.186-.149-2.181-.58-3.173-.977-.992-.398-1.952-.841-2.912-1.274-1.917-.845-3.856-1.666-5.868-2.039a6.828 6.828 0 00-2.984 0 4.022 4.022 0 00-1.308.639 4.435 4.435 0 00-.995 1.095l-.402-.234a4.932 4.932 0 011.036-1.311c.439-.363.94-.643 1.48-.825a7.52 7.52 0 013.305-.189c2.163.333 4.175 1.116 6.144 1.905l2.92 1.213c.962.381 1.949.766 2.869.865a4.178 4.178 0 002.656-.654 5.558 5.558 0 001.877-2.111c.227-.429.406-.882.535-1.35.111-.483.194-.972.249-1.465a12.56 12.56 0 00-.117-3.013c-.334-2.005-1.114-3.939-1.99-5.839-.875-1.9-1.88-3.76-2.655-5.794a10.787 10.787 0 01-.605-3.215 6.467 6.467 0 01.729-3.193l.428.211zm.334-55.377a34.951 34.951 0 015.535-1.877 55.486 55.486 0 015.719-1.176 49.17 49.17 0 015.822-.55 38.293 38.293 0 012.934.028c.981.055 1.956.181 2.919.375l-.067.46c-.957-.03-1.907-.062-2.862 0-.955.062-1.91.087-2.862.179a88.698 88.698 0 00-5.707.684c-1.9.279-3.787.622-5.672.995-.943.181-1.878.393-2.813.616-.935.224-1.857.465-2.787.717l-.159-.451zm15.344 18.371a10.648 10.648 0 012.486-.88 26.571 26.571 0 012.554-.48 39.39 39.39 0 0115.452 1.065c3.342.935 6.58 2.407 9.357 4.535a20.1 20.1 0 016.376 8.141l-.42.199a21.872 21.872 0 00-6.577-7.504 26.74 26.74 0 00-4.327-2.527 33.435 33.435 0 00-4.725-1.711 41.894 41.894 0 00-9.976-1.521 39.472 39.472 0 00-5.066.124c-1.673.149-3.389.365-4.913.975l-.221-.416zM141.64 272.053l6.393 2.071a1.412 1.412 0 01.969 1.246 1.407 1.407 0 01-.8 1.36l-6.98 3.31v.094l9.765 1.947a.685.685 0 01.456.278.678.678 0 01-.717 1.048l-9.765-1.947a1.41 1.41 0 01-1.118-1.205 1.405 1.405 0 01.789-1.441l6.98-3.31v-.094l-6.39-2.072a.68.68 0 01-.395-.335.686.686 0 01-.042-.516.683.683 0 01.59-.467.684.684 0 01.262.03l.003.003zm-16.499-8.805l5.674 1.84a1.237 1.237 0 01.867 1.104 1.245 1.245 0 01-.715 1.208l-6.199 2.94v.084l8.671 1.741a.602.602 0 01-.234 1.181l-8.674-1.741a1.245 1.245 0 01-.858-1.828c.129-.23.327-.414.567-.524l6.2-2.939v-.082l-5.677-1.84a.603.603 0 01-.079-1.1.602.602 0 01.452-.044h.005zm34.255 22.295l4.501 1.46a.997.997 0 01.542 1.441 1 1 0 01-.423.394l-4.916 2.33v.067l6.876 1.37a.478.478 0 01-.187.935l-6.858-1.37a.994.994 0 01-.231-1.865l4.916-2.33v-.064l-4.501-1.46a.475.475 0 01-.262-.24.472.472 0 01.202-.627.478.478 0 01.353-.041h-.012z" fill="#3C1C16"/><path d="M135.281 315.549c-8.87 2.101-18.709 5.013-22.917 13.955-3.978 8.455.162 16.66 8.146 20.639 5.404 2.706 25.993 7.259 17.444 17.25-5.525 6.465-15.116 4.458-21.425.649-3.285-1.989-6.278 3.158-3.004 5.137 7.174 4.334 15.418 5.923 23.231 2.34 8.469-3.889 11.801-13.858 5.341-21.136-3.312-3.73-7.992-5.498-12.59-7.08-4.349-1.492-10.043-3.17-12.155-7.756-1.989-4.314.62-9.245 3.932-12.087 4.282-3.673 10.24-4.904 15.579-6.167 3.73-.883 2.148-6.622-1.582-5.739v-.005zm81.538 10.877c10.086.589 10.81-12.545 10.81-12.545s-6.901-3.501-13.363.84l2.553 11.705z" fill="#A2A2A2"/><path d="M217.388 322.447c4.016-.062 5.992-5.11 5.992-5.11s-2.961-1.81-6.689.042l.697 5.068z" fill="#3C1C16"/><path d="M188.334 314.276c-6.992-7.291 2.529-16.365 2.529-16.365s7.142 2.984 8.032 10.71l-10.561 5.655z" fill="#A2A2A2"/><path d="M190.824 311.225c-2.442-2.954 0-7.512 0-7.512s3.145 1.027 4.107 4.879l-4.107 2.633z" fill="#3C1C16"/><path d="M202.769 346.526a2.514 2.514 0 01-1.947 1.464c-6.819 1.052-8.485-.83-8.485-.83s-5.428 3.019-18.185-.575a2.925 2.925 0 01-1.69 1.308c-1.952.64-9.529-.019-14.465-.537-2.984-.315-11.725.388-11.725.388-7.957 0-17.008-2.128-20.51-10.115-4.431-10.109.232-22.226 7.746-29.46 8.02-7.736 18.72-8.432 28.447-3.364 23.599 12.296 25.384 8.285 31.439 3.19l4.081 30.989c1.337.467 2.511 1.106 3.357 1.989.505.52.955 1.092 1.342 1.706 1.06 1.708.96 2.989.595 3.847z" fill="#A2A2A2"/><path opacity=".3" d="M186.534 314.276c-9.462 5.56-9.773 23.173 8.494 24.894l2.091-7.987-10.585-16.907z" fill="#3C1C16"/><path d="M219.295 327.371c-1.92 6.751-5.09 10.618-8.343 12.769a15.052 15.052 0 01-8.335 2.549c-2-.002-3.988-.313-5.893-.92-7.237-2.275-13.15-8.616-13.15-16.947 0-10.518 7.642-18.58 17.257-18.58 11.011 0 21.883 9.089 18.464 21.129z" fill="#A2A2A2"/><path opacity=".3" d="M210.95 340.14a15.043 15.043 0 01-8.335 2.548h-.443a10.42 10.42 0 00-1.342-1.705c-.846-.888-2.02-1.527-3.357-1.99 2.954-.604 4.662.187 4.662.187s5.441-2.703 8.803.957l.012.003z" fill="#3C1C16"/><path d="M200.685 343.151c-.958 1.378-.786 3.297.547 4.317.269.232.605.369.959.393h9.485c.455 0 .696-.497.818-1.117.37-1.897-.428-3.822-1.908-5.067-3.058-2.569-7.146-2.509-9.901 1.474z" fill="#A2A2A2"/><path d="M183.574 338.053a43.129 43.129 0 015.751.167c1.922.172 3.827.489 5.7.95.943.234 1.868.534 2.767.9.919.355 1.795.813 2.611 1.365a6.796 6.796 0 012.052 2.176c.49.893.666 1.926.497 2.932l-.348-.038a4.295 4.295 0 00-.674-2.576 6.132 6.132 0 00-1.969-1.837c-1.557-.978-3.35-1.592-5.165-2.057a45.677 45.677 0 00-5.563-1.054 91.494 91.494 0 00-5.667-.57l.008-.358zm-31.656-18.724a12.013 12.013 0 015.366 2.173 7.852 7.852 0 011.962 2.221c.501.86.858 1.797 1.057 2.773.185.968.261 1.954.226 2.939a20.23 20.23 0 01-.366 2.902 29.233 29.233 0 01-1.758 5.53 29.328 29.328 0 01-1.255 2.616l-.177.318-.095.164c.043.14-.397-1.178-.206-.619h.02l.042.015.082.032.657.249c.44.169.885.323 1.33.473a34.686 34.686 0 005.498 1.303c1.855.263 3.805.472 5.672.942a14.99 14.99 0 012.758.937c.457.205.877.483 1.243.824.204.184.353.422.43.686.075.28.036.578-.107.83l-.305-.166c.186-.373.014-.746-.319-1.037a4.163 4.163 0 00-1.161-.682c-.87-.347-1.771-.61-2.691-.785-1.852-.411-3.717-.557-5.644-.779a32.582 32.582 0 01-7.02-1.738l-.676-.248-.085-.033-.042-.017h-.023c.187.554-.266-.761-.216-.629l.082-.149.167-.309c.44-.83.838-1.686 1.216-2.549a28.323 28.323 0 001.74-5.348c.191-.914.316-1.839.373-2.771a13.442 13.442 0 00-.154-2.762 7.689 7.689 0 00-2.658-4.665c-1.42-1.181-3.213-1.887-5.053-2.3l.09-.341zm54.014 2.559c.664 1.223 1.564 2.317 2.765 2.693.619.186 1.27.241 1.912.161.333-.032.669-.124 1.012-.171.336-.1.674-.199 1.029-.279l.172.348c-.311.204-.639.391-.972.575a8.108 8.108 0 01-1.089.378 4.444 4.444 0 01-2.383-.055 3.901 3.901 0 01-1.944-1.415 4.59 4.59 0 01-.875-2.136l.373-.099zm-10.827-4.662c.569 1.27 1.38 2.432 2.551 2.899a4.613 4.613 0 001.892.308c.336 0 .677-.069 1.022-.092.343-.072.689-.144 1.05-.196l.144.36c-.328.179-.669.339-1.015.498a8.373 8.373 0 01-1.114.293 4.466 4.466 0 01-2.372-.248 3.896 3.896 0 01-1.828-1.562 4.588 4.588 0 01-.708-2.196l.378-.064z" fill="#3C1C16"/><path d="M349.447 113.451c13.706-13.706 13.706-35.928 0-49.634-13.706-13.706-35.928-13.706-49.634 0-13.706 13.706-13.706 35.928 0 49.634 13.706 13.706 35.928 13.706 49.634 0z" fill="#fff" stroke="#941759" stroke-width="5" stroke-miterlimit="10"/><path d="M338.511 95.921l-14.999-7.132 16.387-14.434.823.934-14.972 13.187 13.296 6.321-.535 1.124z" fill="#555A64"/><path d="M434.188 250.589l9.864-3.054a26.354 26.354 0 0035.122-5.571 26.36 26.36 0 00-20.012-42.782 26.356 26.356 0 00-21.93 41.832l-3.044 9.575z" fill="#fff"/><path d="M434.189 250.588s.045-.198.171-.605l.551-1.806 2.204-7.227a.133.133 0 01.02-.037.122.122 0 01.033-.027.102.102 0 01.041-.012.1.1 0 01.042.004l-.154.145a26.215 26.215 0 01-4.914-12.403 26.57 26.57 0 014.011-17.442 26.885 26.885 0 017.344-7.561 26.444 26.444 0 0110.496-4.263c3.998-.653 8.091-.4 11.978.741a27.86 27.86 0 015.753 2.448 27.78 27.78 0 019.106 8.761 27.858 27.858 0 012.709 5.628 26.806 26.806 0 011.22 11.878 25.957 25.957 0 01-3.776 10.632 26.583 26.583 0 01-15.871 11.706 26.914 26.914 0 01-8.518.777 26.19 26.19 0 01-12.646-4.327h.091l-7.407 2.25-1.879.56-.614.18 9.836-3.197a.086.086 0 01.046-.014c.016 0 .031.005.045.014a26.322 26.322 0 0012.546 4.191 27.36 27.36 0 008.401-.804 26.654 26.654 0 008.545-4.02 26.292 26.292 0 007.055-7.542 25.609 25.609 0 003.703-10.46 26.417 26.417 0 00-1.219-11.671 26.614 26.614 0 00-11.571-14.136 27.461 27.461 0 00-5.655-2.403 26.632 26.632 0 00-11.743-.749 26.262 26.262 0 00-17.587 11.607 26.097 26.097 0 00.741 29.501.12.12 0 01.01.072.116.116 0 01-.101.095.115.115 0 01-.071-.013l.171-.046a2046.9 2046.9 0 00-3.143 9.575z" fill="#333945"/><path d="M463.773 232.955l.234-10.659s-2.339-.515-4.362-3.748a17.753 17.753 0 01-2.168-4.797 1.199 1.199 0 00-1.265-.903 1.859 1.859 0 00-1.635 1.129c-.75 1.608.253 5.582.253 5.582s.416.804-.695.777l-3.957-.09a2.173 2.173 0 00-1.418.479 1.57 1.57 0 00-.614 1.382c.09 1.508.903 2.204.858 2.52a2.858 2.858 0 00-.163 1.806c.298.904.497.849.488 1.283a7.232 7.232 0 00.307 2.231c.13.367.326.707.578 1.003a5.458 5.458 0 00.226 2.267c.379.84 2.032 1.31 2.583 1.319.551.009 4.517-.687 5.655-.903 1.138-.217 4.02-1.211 5.095-.678zm2.011-10.854l-.245 10.954 4.073.091.245-10.954-4.073-.091zM239.759 64l8.96-7.68h-17.92l8.96 7.68z" fill="#941759"/><rect x="115" width="148.48" height="57.6" rx="11.52" fill="#941759"/><path fill-rule="evenodd" clip-rule="evenodd" d="M235.35 38.707l-7.127-7.128a1.439 1.439 0 010-2.036l9.76-9.76a1.44 1.44 0 011.018-.423h4.917c.382 0 .748.152 1.018.422l2.211 2.211c.27.27.422.637.422 1.019v4.916c0 .382-.152.748-.422 1.018l-9.76 9.76a1.44 1.44 0 01-2.037 0zm7.637-14.765a2.16 2.16 0 10-3.055 3.056 2.16 2.16 0 003.055-3.056z" fill="#F39C12"/><path d="M133.521 36v7.28h-.965V36h.965zm3.88 1.87v.71h-2.925v-.71h2.925zm-1.935-1.316h.925v5.385c0 .184.028.322.085.415.056.094.13.155.22.185s.186.045.29.045c.076 0 .156-.006.24-.02a6.86 6.86 0 00.195-.04l.005.755c-.074.024-.17.045-.29.065a2.215 2.215 0 01-.425.035 1.44 1.44 0 01-.625-.135c-.19-.09-.342-.24-.455-.45-.11-.213-.165-.5-.165-.86v-5.38zm5.265 6.825c-.377 0-.719-.063-1.025-.19a2.318 2.318 0 01-.785-.545 2.408 2.408 0 01-.5-.83 3.036 3.036 0 01-.175-1.05v-.21c0-.44.065-.831.195-1.175.13-.346.306-.64.53-.88a2.26 2.26 0 01.76-.545 2.18 2.18 0 01.88-.185c.386 0 .72.067 1 .2.283.134.515.32.695.56.18.237.313.517.4.84.086.32.13.67.13 1.05v.415h-4.04v-.755h3.115v-.07a2.348 2.348 0 00-.15-.7 1.266 1.266 0 00-.4-.56c-.184-.146-.434-.22-.75-.22a1.257 1.257 0 00-1.035.525 1.956 1.956 0 00-.295.635c-.07.25-.105.539-.105.865v.21c0 .257.035.499.105.725.073.224.178.42.315.59.14.17.308.304.505.4.2.097.426.145.68.145.326 0 .603-.066.83-.2a2.05 2.05 0 00.595-.535l.56.445a2.598 2.598 0 01-.445.505c-.18.16-.402.29-.665.39-.26.1-.569.15-.925.15zm4.105-4.435v4.335h-.93v-5.41h.88l.05 1.075zm-.19 1.425l-.43-.015c.003-.37.051-.711.145-1.025.093-.316.231-.591.415-.825.183-.233.411-.413.685-.54.273-.13.59-.195.95-.195.253 0 .486.037.7.11.213.07.398.182.555.335.156.154.278.35.365.59.086.24.13.53.13.87v3.605h-.925v-3.56c0-.283-.049-.51-.145-.68a.833.833 0 00-.4-.37 1.447 1.447 0 00-.61-.12c-.274 0-.502.049-.685.145-.184.097-.33.23-.44.4-.11.17-.19.365-.24.585a3.25 3.25 0 00-.07.69zm3.505-.51l-.62.19c.003-.296.051-.581.145-.855a2.32 2.32 0 01.415-.73 1.97 1.97 0 01.675-.505c.266-.126.571-.19.915-.19.29 0 .546.039.77.115.226.077.416.195.57.355.156.157.275.359.355.605.08.247.12.54.12.88v3.555h-.93v-3.565c0-.303-.049-.538-.145-.705a.76.76 0 00-.4-.355 1.601 1.601 0 00-.61-.105c-.204 0-.384.035-.54.105-.157.07-.289.167-.395.29-.107.12-.189.259-.245.415-.054.157-.08.324-.08.5zm8.29-1.99v5.41h-.93v-5.41h.93zm-1-1.435a.56.56 0 01.135-.38c.093-.103.23-.155.41-.155.176 0 .311.052.405.155a.54.54 0 01.145.38.526.526 0 01-.145.37c-.094.1-.229.15-.405.15-.18 0-.317-.05-.41-.15a.545.545 0 01-.135-.37zm5.635 5.41a.779.779 0 00-.09-.37c-.057-.116-.175-.221-.355-.315-.177-.096-.444-.18-.8-.25a6.312 6.312 0 01-.815-.225 2.474 2.474 0 01-.615-.315 1.317 1.317 0 01-.385-.435 1.213 1.213 0 01-.135-.585c0-.213.046-.415.14-.605.096-.19.231-.358.405-.505.176-.146.388-.261.635-.345a2.57 2.57 0 01.825-.125c.433 0 .803.077 1.11.23.306.154.541.359.705.615.163.254.245.535.245.845h-.925a.794.794 0 00-.135-.435.999.999 0 00-.385-.355 1.245 1.245 0 00-.615-.14c-.257 0-.465.04-.625.12a.799.799 0 00-.345.295.743.743 0 00-.055.65.58.58 0 00.19.215c.09.064.216.124.38.18.163.057.371.114.625.17.443.1.808.22 1.095.36.286.14.5.312.64.515.14.204.21.45.21.74 0 .237-.05.454-.15.65a1.451 1.451 0 01-.425.51c-.184.14-.404.25-.66.33a2.954 2.954 0 01-.855.115c-.477 0-.88-.085-1.21-.255-.33-.17-.58-.39-.75-.66a1.58 1.58 0 01-.255-.855h.93c.013.254.086.455.22.605.133.147.296.252.49.315.193.06.385.09.575.09.253 0 .465-.033.635-.1a.886.886 0 00.395-.275.637.637 0 00.135-.4zm4.435-1.21v-.115c0-.39.056-.751.17-1.085a2.57 2.57 0 01.49-.875c.213-.25.471-.443.775-.58.303-.14.643-.21 1.02-.21.38 0 .721.07 1.025.21.306.137.566.33.78.58.216.247.381.539.495.875.113.334.17.695.17 1.085v.115c0 .39-.057.752-.17 1.085a2.62 2.62 0 01-.495.875c-.214.247-.472.44-.775.58-.3.137-.64.205-1.02.205s-.722-.068-1.025-.205a2.306 2.306 0 01-.78-.58 2.626 2.626 0 01-.49-.875 3.332 3.332 0 01-.17-1.085zm.925-.115v.115c0 .27.031.525.095.765.063.237.158.447.285.63.13.184.291.329.485.435.193.104.418.155.675.155.253 0 .475-.051.665-.155.193-.106.353-.251.48-.435.126-.183.221-.393.285-.63.066-.24.1-.495.1-.765v-.115c0-.266-.034-.518-.1-.755a1.958 1.958 0 00-.29-.635 1.384 1.384 0 00-.48-.44 1.348 1.348 0 00-.67-.16c-.254 0-.477.054-.67.16a1.45 1.45 0 00-.48.44 1.993 1.993 0 00-.285.635 2.882 2.882 0 00-.095.755zm6.725 1.925l1.48-4.575h.945l-1.945 5.41h-.62l.14-.835zm-1.235-4.575l1.525 4.6.105.81h-.62l-1.96-5.41h.95zm6.725 5.51c-.377 0-.719-.063-1.025-.19a2.318 2.318 0 01-.785-.545 2.408 2.408 0 01-.5-.83 3.036 3.036 0 01-.175-1.05v-.21c0-.44.065-.831.195-1.175.13-.346.306-.64.53-.88a2.26 2.26 0 01.76-.545 2.18 2.18 0 01.88-.185c.386 0 .72.067 1 .2.283.134.515.32.695.56.18.237.313.517.4.84.086.32.13.67.13 1.05v.415h-4.04v-.755h3.115v-.07a2.348 2.348 0 00-.15-.7 1.266 1.266 0 00-.4-.56c-.184-.146-.434-.22-.75-.22a1.257 1.257 0 00-1.035.525 1.956 1.956 0 00-.295.635c-.07.25-.105.539-.105.865v.21c0 .257.035.499.105.725.073.224.178.42.315.59.14.17.308.304.505.4.2.097.426.145.68.145.326 0 .603-.066.83-.2a2.05 2.05 0 00.595-.535l.56.445a2.598 2.598 0 01-.445.505c-.18.16-.402.29-.665.39-.26.1-.569.15-.925.15zm4.11-4.66v4.56h-.925v-5.41h.9l.025.85zm1.69-.88l-.005.86a2.342 2.342 0 00-.45-.04c-.214 0-.402.034-.565.1-.164.067-.302.16-.415.28-.114.12-.204.264-.27.43a2.04 2.04 0 00-.125.54l-.26.15c0-.326.031-.633.095-.92.066-.286.168-.54.305-.76.136-.223.31-.396.52-.52a1.459 1.459 0 01.99-.165.695.695 0 01.18.045zm1.78 1.07v6.45h-.93v-7.49h.85l.08 1.04zm3.645 1.62v.105a4.1 4.1 0 01-.14 1.095c-.094.334-.23.624-.41.87a1.868 1.868 0 01-.655.575c-.26.137-.559.205-.895.205a2.27 2.27 0 01-.91-.17 1.786 1.786 0 01-.67-.495 2.516 2.516 0 01-.44-.78 4.496 4.496 0 01-.22-1.025v-.56c.04-.4.115-.758.225-1.075.11-.316.255-.586.435-.81.183-.226.405-.398.665-.515.26-.12.56-.18.9-.18.34 0 .641.067.905.2.263.13.485.317.665.56.18.244.315.535.405.875.093.337.14.712.14 1.125zm-.93.105v-.105c0-.27-.029-.523-.085-.76a1.927 1.927 0 00-.265-.63 1.268 1.268 0 00-.45-.43 1.282 1.282 0 00-.655-.16c-.234 0-.437.04-.61.12-.17.08-.315.189-.435.325-.12.134-.219.287-.295.46a2.56 2.56 0 00-.165.53v1.295c.066.234.16.454.28.66.12.204.28.369.48.495.2.124.451.185.755.185.25 0 .465-.051.645-.155a1.3 1.3 0 00.45-.435 1.99 1.99 0 00.265-.63c.056-.24.085-.495.085-.765zm3.035-1.915v4.56h-.925v-5.41h.9l.025.85zm1.69-.88l-.005.86a2.342 2.342 0 00-.45-.04c-.214 0-.402.034-.565.1-.164.067-.302.16-.415.28-.114.12-.204.264-.27.43a2.04 2.04 0 00-.125.54l-.26.15c0-.326.031-.633.095-.92.066-.286.168-.54.305-.76.136-.223.31-.396.52-.52a1.459 1.459 0 01.99-.165.695.695 0 01.18.045zm1.86.03v5.41h-.93v-5.41h.93zm-1-1.435a.56.56 0 01.135-.38c.093-.103.23-.155.41-.155.176 0 .311.052.405.155a.54.54 0 01.145.38.526.526 0 01-.145.37c-.094.1-.229.15-.405.15-.18 0-.317-.05-.41-.15a.545.545 0 01-.135-.37zm4.65 6.185c.22 0 .423-.045.61-.135.186-.09.34-.213.46-.37.12-.16.188-.341.205-.545h.88a1.65 1.65 0 01-.325.895 2.222 2.222 0 01-1.83.915c-.407 0-.762-.071-1.065-.215a2.11 2.11 0 01-.75-.59 2.63 2.63 0 01-.445-.86 3.618 3.618 0 01-.145-1.035v-.21c0-.363.048-.706.145-1.03.1-.326.248-.615.445-.865.2-.25.45-.446.75-.59a2.467 2.467 0 011.065-.215c.423 0 .793.087 1.11.26.316.17.565.404.745.7.183.294.283.627.3 1h-.88a1.337 1.337 0 00-.19-.605 1.233 1.233 0 00-1.085-.595c-.284 0-.522.057-.715.17-.19.11-.342.26-.455.45-.11.187-.19.395-.24.625-.047.227-.07.459-.07.695v.21c0 .237.023.47.07.7.046.23.125.439.235.625.113.187.265.337.455.45.193.11.433.165.72.165zm5.44.76c-.377 0-.719-.063-1.025-.19a2.318 2.318 0 01-.785-.545 2.408 2.408 0 01-.5-.83 3.036 3.036 0 01-.175-1.05v-.21c0-.44.065-.831.195-1.175.13-.346.306-.64.53-.88a2.26 2.26 0 01.76-.545 2.18 2.18 0 01.88-.185c.386 0 .72.067 1 .2.283.134.515.32.695.56.18.237.313.517.4.84.086.32.13.67.13 1.05v.415h-4.04v-.755h3.115v-.07a2.348 2.348 0 00-.15-.7 1.266 1.266 0 00-.4-.56c-.184-.146-.434-.22-.75-.22a1.257 1.257 0 00-1.035.525 1.956 1.956 0 00-.295.635c-.07.25-.105.539-.105.865v.21c0 .257.035.499.105.725.073.224.178.42.315.59.14.17.308.304.505.4.2.097.426.145.68.145.326 0 .603-.066.83-.2a2.05 2.05 0 00.595-.535l.56.445a2.598 2.598 0 01-.445.505c-.18.16-.402.29-.665.39-.26.1-.569.15-.925.15zm6.595-1.15V35.6h.93v7.68h-.85l-.08-1.05zm-3.64-1.595v-.105c0-.413.05-.788.15-1.125a2.71 2.71 0 01.435-.875 1.917 1.917 0 011.555-.76c.34 0 .636.06.89.18.256.117.473.289.65.515.18.224.321.494.425.81.103.317.175.675.215 1.075v.46a4.767 4.767 0 01-.215 1.07 2.537 2.537 0 01-.425.81 1.787 1.787 0 01-.65.515 2.159 2.159 0 01-.9.175c-.317 0-.607-.068-.87-.205a2.053 2.053 0 01-.675-.575 2.789 2.789 0 01-.435-.87 3.83 3.83 0 01-.15-1.095zm.93-.105v.105c0 .27.026.524.08.76.056.237.143.445.26.625.116.18.265.322.445.425.18.1.395.15.645.15.306 0 .558-.065.755-.195.2-.13.36-.301.48-.515.12-.213.213-.445.28-.695v-1.205a2.715 2.715 0 00-.175-.53 1.647 1.647 0 00-.29-.46 1.26 1.26 0 00-.435-.325 1.41 1.41 0 00-.605-.12c-.254 0-.472.054-.655.16a1.27 1.27 0 00-.445.43c-.117.18-.204.39-.26.63-.054.237-.08.49-.08.76zm5.095 2.26c0-.156.048-.288.145-.395.1-.11.243-.165.43-.165.186 0 .328.055.425.165.1.107.15.239.15.395a.55.55 0 01-.15.39c-.097.107-.239.16-.425.16-.187 0-.33-.053-.43-.16a.558.558 0 01-.145-.39z" fill="#F9F9F9"/><path d="M170.466 15.565l1.405 2.8 3.142.449c.142.02.259.117.303.251a.363.363 0 01-.095.38l-2.274 2.176.537 3.078a.367.367 0 01-.15.361.38.38 0 01-.395.028l-2.81-1.45-2.811 1.452a.382.382 0 01-.396-.029.368.368 0 01-.149-.361l.537-3.076-2.275-2.177a.366.366 0 01.209-.63l3.142-.452 1.405-2.8a.379.379 0 01.675 0zm11.152 0l1.405 2.8 3.142.449a.366.366 0 01.209.63l-2.275 2.177.537 3.078a.368.368 0 01-.149.361.382.382 0 01-.396.028l-2.81-1.45-2.81 1.452a.382.382 0 01-.396-.029.367.367 0 01-.15-.361l.537-3.076-2.274-2.177a.362.362 0 01-.095-.379.373.373 0 01.303-.251l3.142-.452 1.405-2.8a.378.378 0 01.675 0z" fill="#FFCB4F"/><path d="M192.778 15.565l1.405 2.8 3.142.449a.366.366 0 01.209.63l-2.274 2.177.536 3.078a.364.364 0 01-.149.361.382.382 0 01-.396.028l-2.81-1.45-2.81 1.452a.382.382 0 01-.396-.029.367.367 0 01-.15-.361l.537-3.076-2.274-2.177a.364.364 0 01-.095-.379.373.373 0 01.303-.251l3.142-.452 1.406-2.8a.376.376 0 01.337-.206c.143 0 .274.08.337.206zm11.16 0l1.406 2.8 3.142.449a.366.366 0 01.208.63l-2.274 2.177.537 3.078a.367.367 0 01-.15.361.382.382 0 01-.396.028l-2.81-1.45-2.81 1.452a.382.382 0 01-.396-.029.367.367 0 01-.15-.361l.537-3.076-2.274-2.177a.366.366 0 01.208-.63l3.143-.452 1.405-2.8a.376.376 0 01.337-.206c.143 0 .274.08.337.206zm11.153 0l1.405 2.8 3.142.449c.142.02.259.117.303.251a.363.363 0 01-.095.38l-2.274 2.176.537 3.078a.367.367 0 01-.15.361.38.38 0 01-.395.028l-2.81-1.45-2.811 1.452a.382.382 0 01-.396-.029.368.368 0 01-.149-.361l.537-3.076-2.275-2.177a.366.366 0 01.209-.63l3.142-.452 1.405-2.8a.379.379 0 01.675 0z" fill="#F0F0F0"/><path d="M138.137 23.269c0-.234-.036-.44-.11-.619a1.169 1.169 0 00-.371-.495 2.905 2.905 0 00-.729-.42 10.152 10.152 0 00-1.168-.405c-.495-.147-.942-.31-1.341-.488a4.672 4.672 0 01-1.024-.626 2.466 2.466 0 01-.653-.804 2.281 2.281 0 01-.227-1.038c0-.39.08-.75.24-1.08.161-.33.39-.616.688-.859.302-.247.662-.44 1.079-.577a4.445 4.445 0 011.396-.207c.752 0 1.389.145 1.911.433.527.285.928.658 1.203 1.121.275.458.413.949.413 1.471h-1.32c0-.375-.08-.708-.241-.996a1.652 1.652 0 00-.729-.688c-.325-.17-.738-.254-1.237-.254-.472 0-.862.07-1.169.213-.307.142-.536.334-.687.577-.147.243-.22.52-.22.832 0 .21.043.403.13.578.092.17.232.327.42.474.192.147.435.282.728.406.298.123.653.242 1.066.357.568.16 1.059.34 1.471.536.413.197.752.42 1.018.667.27.243.47.52.598.832.133.307.199.655.199 1.045 0 .408-.082.777-.247 1.107a2.41 2.41 0 01-.708.846 3.419 3.419 0 01-1.107.543 5.126 5.126 0 01-1.43.185c-.463 0-.919-.064-1.368-.192a4.064 4.064 0 01-1.217-.578 3.026 3.026 0 01-.873-.948c-.216-.38-.324-.82-.324-1.32h1.32c0 .343.067.639.2.887.133.242.314.444.543.605.234.16.497.279.791.357.298.073.607.11.928.11.463 0 .855-.064 1.175-.192.321-.129.564-.312.729-.55.17-.239.254-.52.254-.846zm7.219 1.258v-3.83c0-.293-.059-.547-.179-.762a1.165 1.165 0 00-.522-.51c-.234-.119-.523-.178-.866-.178-.321 0-.603.055-.846.165a1.48 1.48 0 00-.564.433.948.948 0 00-.199.578h-1.272c0-.266.069-.53.206-.791.138-.261.335-.497.592-.708.261-.216.573-.385.935-.509a3.677 3.677 0 011.223-.192c.541 0 1.018.091 1.43.275.417.183.743.46.977.831.238.367.357.828.357 1.382v3.465c0 .248.021.511.062.791.046.28.112.52.199.722v.11h-1.327a2.398 2.398 0 01-.151-.584 4.808 4.808 0 01-.055-.688zm.22-3.238l.014.894h-1.286c-.362 0-.685.03-.969.089-.284.055-.523.14-.715.254a1.207 1.207 0 00-.44.433c-.101.17-.151.37-.151.599 0 .233.052.447.158.639.105.193.263.346.474.46.216.11.479.166.791.166a2.144 2.144 0 001.739-.853c.179-.238.275-.47.289-.694l.543.612a1.846 1.846 0 01-.261.639 3.078 3.078 0 01-1.41 1.203c-.32.138-.682.206-1.086.206-.504 0-.946-.098-1.327-.295a2.276 2.276 0 01-.88-.79 2.095 2.095 0 01-.309-1.121c0-.4.078-.75.234-1.052.156-.308.38-.562.673-.764a3.212 3.212 0 011.059-.467 5.584 5.584 0 011.382-.158h1.478zm4.325-1.76v6.27h-1.272V18.36h1.237l.035 1.169zm2.323-1.21l-.007 1.182a1.832 1.832 0 00-.302-.04 3.205 3.205 0 00-.316-.015c-.294 0-.553.046-.777.138a1.61 1.61 0 00-.571.385 1.854 1.854 0 00-.371.591 2.865 2.865 0 00-.172.743l-.357.206c0-.45.043-.871.13-1.265a3.45 3.45 0 01.42-1.045c.188-.307.426-.546.715-.715.293-.174.641-.261 1.045-.261.091 0 .197.011.316.034a.927.927 0 01.247.062zm5.287 6.208v-3.83c0-.293-.059-.547-.179-.762a1.165 1.165 0 00-.522-.51c-.234-.119-.523-.178-.866-.178-.321 0-.603.055-.846.165a1.48 1.48 0 00-.564.433.948.948 0 00-.199.578h-1.272c0-.266.069-.53.206-.791.138-.261.335-.497.592-.708.261-.216.573-.385.935-.509a3.677 3.677 0 011.223-.192c.541 0 1.018.091 1.43.275.417.183.743.46.977.831.238.367.357.828.357 1.382v3.465c0 .248.021.511.062.791.046.28.112.52.199.722v.11h-1.327a2.398 2.398 0 01-.151-.584 4.808 4.808 0 01-.055-.688zm.22-3.238l.014.894h-1.286c-.362 0-.685.03-.969.089-.284.055-.523.14-.715.254a1.207 1.207 0 00-.44.433c-.101.17-.151.37-.151.599 0 .233.052.447.158.639.105.193.263.346.474.46.216.11.479.166.791.166a2.144 2.144 0 001.739-.853c.179-.238.275-.47.289-.694l.543.612a1.846 1.846 0 01-.261.639 3.078 3.078 0 01-1.41 1.203c-.32.138-.682.206-1.086.206-.504 0-.946-.098-1.327-.295a2.276 2.276 0 01-.88-.79 2.095 2.095 0 01-.309-1.121c0-.4.078-.75.234-1.052.156-.308.38-.562.673-.764a3.212 3.212 0 011.059-.467 5.584 5.584 0 011.382-.158h1.478z" fill="#F9F9F9"/><path d="M108.586 189l9.293-7.966H99.293l9.293 7.966z" fill="#9FBD55"/><path d="M14.693 112h104.699c8.115 0 14.694 5.245 14.694 11.715v46.932c0 6.47-6.579 11.715-14.694 11.715H14.693C6.578 182.362 0 177.117 0 170.647v-46.932C0 117.245 6.578 112 14.693 112z" fill="#9FBD55"/><path fill-rule="evenodd" clip-rule="evenodd" d="M106.437 128.098H93.271c-1.034 0-1.88.846-1.88 1.88v13.166c0 1.034.846 1.88 1.88 1.88h13.166c1.034 0 1.88-.846 1.88-1.88v-13.166c0-1.034-.846-1.88-1.88-1.88zm-8.462 13.164l-4.702-4.521 1.317-1.265 3.385 3.255 7.147-6.872 1.316 1.266-8.463 8.137z" fill="#5D7624"/><path d="M30.59 153.286l2.203 4.355 4.926.699a.586.586 0 01.476.391.566.566 0 01-.149.59l-3.565 3.387.841 4.788a.569.569 0 01-.234.562.6.6 0 01-.62.044l-4.406-2.257-4.407 2.259a.602.602 0 01-.62-.045.568.568 0 01-.235-.562l.842-4.785-3.566-3.387a.565.565 0 01-.149-.589.583.583 0 01.476-.391l4.926-.703 2.203-4.356c.1-.196.305-.32.53-.32.223 0 .428.124.528.32zm17.492 0l2.203 4.355 4.927.699a.587.587 0 01.475.391.566.566 0 01-.149.59l-3.565 3.387.841 4.788a.569.569 0 01-.234.562.6.6 0 01-.62.044l-4.406-2.257-4.406 2.259a.602.602 0 01-.62-.045.568.568 0 01-.236-.562l.842-4.785-3.565-3.387a.565.565 0 01-.15-.589.583.583 0 01.476-.391l4.926-.703 2.204-4.356c.1-.196.304-.32.528-.32.225 0 .43.124.53.32zm17.493 0l2.203 4.355 4.926.699a.587.587 0 01.476.391.566.566 0 01-.15.59l-3.565 3.387.842 4.788a.569.569 0 01-.235.562.6.6 0 01-.62.044l-4.406-2.257-4.406 2.259a.603.603 0 01-.62-.045.568.568 0 01-.235-.562l.841-4.785-3.565-3.387a.565.565 0 01-.15-.589.583.583 0 01.477-.391l4.926-.703 2.203-4.356c.1-.196.304-.32.529-.32a.59.59 0 01.528.32zm17.492 0l2.203 4.355 4.926.699a.587.587 0 01.476.391.566.566 0 01-.15.59l-3.565 3.387.842 4.788a.569.569 0 01-.235.562.6.6 0 01-.62.044l-4.406-2.257-4.406 2.259a.603.603 0 01-.62-.045.568.568 0 01-.235-.562l.841-4.785-3.565-3.387a.565.565 0 01-.15-.589.583.583 0 01.477-.391l4.926-.703 2.203-4.356c.1-.196.304-.32.529-.32.224 0 .429.124.529.32z" fill="#FFCB4F"/><path d="M100.559 153.286l2.203 4.355 4.926.699a.586.586 0 01.476.391.566.566 0 01-.149.59l-3.566 3.387.842 4.788a.57.57 0 01-.234.562.601.601 0 01-.621.044l-4.406-2.257-4.406 2.259a.602.602 0 01-.62-.045.568.568 0 01-.235-.562l.842-4.785-3.566-3.387a.565.565 0 01-.149-.589.583.583 0 01.476-.391l4.926-.703 2.203-4.356c.1-.196.304-.32.529-.32.224 0 .429.124.529.32z" fill="#F0F0F0"/><path d="M29.25 140.069c0-.264-.042-.498-.125-.7a1.336 1.336 0 00-.42-.56c-.197-.166-.472-.324-.825-.475a11.63 11.63 0 00-1.322-.459 12.21 12.21 0 01-1.517-.552 5.265 5.265 0 01-1.159-.708 2.792 2.792 0 01-.739-.91 2.591 2.591 0 01-.257-1.174 2.76 2.76 0 011.05-2.194 3.78 3.78 0 011.222-.654 5.042 5.042 0 011.579-.233c.85 0 1.571.163 2.162.49.597.322 1.05.744 1.362 1.268.31.519.466 1.074.466 1.665h-1.493c0-.425-.09-.801-.272-1.128a1.877 1.877 0 00-.825-.778c-.368-.192-.835-.288-1.4-.288-.534 0-.975.081-1.322.241-.348.161-.607.379-.778.654a1.783 1.783 0 00-.25.941c0 .239.05.456.148.653.104.192.262.371.475.537.218.166.493.319.824.459.338.14.74.275 1.206.405.643.181 1.198.383 1.665.606.467.223.85.475 1.151.755.306.275.532.588.677.941.15.348.226.742.226 1.182 0 .462-.094.879-.28 1.253a2.732 2.732 0 01-.802.957 3.876 3.876 0 01-1.252.614c-.482.14-1.022.21-1.618.21-.524 0-1.04-.072-1.548-.218a4.618 4.618 0 01-1.377-.653 3.421 3.421 0 01-.988-1.073c-.244-.431-.365-.929-.365-1.494h1.493c0 .389.075.723.226 1.003.15.275.355.503.614.685.265.181.563.316.895.404.337.083.687.125 1.05.125.524 0 .967-.073 1.33-.218.363-.145.638-.353.825-.622.192-.27.287-.589.287-.957zm6.728-5.554v1.105h-4.55v-1.105h4.55zm-3.01-2.046h1.439v8.378c0 .285.044.5.132.646a.629.629 0 00.342.287c.14.047.29.07.452.07.119 0 .243-.01.373-.031.135-.026.236-.046.303-.062l.008 1.175c-.114.036-.265.07-.451.101a3.459 3.459 0 01-.661.054c-.353 0-.677-.07-.973-.21a1.562 1.562 0 01-.708-.7c-.17-.332-.256-.778-.256-1.338v-8.37zm8.19 10.618a4.142 4.142 0 01-1.594-.295 3.626 3.626 0 01-1.221-.848 3.773 3.773 0 01-.778-1.292 4.73 4.73 0 01-.272-1.633v-.327c0-.684.1-1.294.303-1.828.202-.539.477-.996.825-1.369a3.539 3.539 0 011.182-.848c.44-.192.897-.288 1.37-.288.6 0 1.12.104 1.555.312.44.207.801.497 1.081.871.28.368.488.804.622 1.307a6.22 6.22 0 01.203 1.633v.646h-6.286v-1.175h4.847v-.109a3.59 3.59 0 00-.234-1.089 1.959 1.959 0 00-.622-.871c-.285-.228-.674-.342-1.167-.342a1.959 1.959 0 00-1.61.817c-.197.269-.35.599-.46.987a5.011 5.011 0 00-.162 1.346v.327c0 .399.054.775.163 1.128.114.347.277.653.49.918.218.264.48.472.786.622a2.4 2.4 0 001.058.226c.508 0 .938-.104 1.29-.312.353-.207.662-.484.927-.832l.87.692a4.027 4.027 0 01-.691.786 3.31 3.31 0 01-1.035.607c-.405.155-.884.233-1.44.233zm6.395-6.954v10.035h-1.447v-11.653h1.322l.125 1.618zm5.67 2.52v.164c0 .612-.072 1.179-.217 1.703a4.19 4.19 0 01-.638 1.354 2.902 2.902 0 01-1.019.894c-.404.213-.869.319-1.392.319-.535 0-1.006-.088-1.416-.264a2.8 2.8 0 01-1.042-.77 3.932 3.932 0 01-.685-1.214 7.024 7.024 0 01-.342-1.595v-.871c.062-.622.179-1.18.35-1.672.17-.493.396-.913.677-1.26.285-.353.63-.62 1.034-.802.405-.186.871-.28 1.4-.28.53 0 .999.104 1.408.312.41.202.755.492 1.035.871.28.378.49.832.63 1.361.145.524.218 1.107.218 1.75zm-1.446.164v-.164c0-.42-.044-.814-.132-1.182a2.99 2.99 0 00-.413-.98 1.968 1.968 0 00-.7-.669c-.285-.166-.625-.249-1.019-.249-.363 0-.68.062-.949.187-.264.124-.49.293-.676.505a2.69 2.69 0 00-.46.716 4.11 4.11 0 00-.256.824v2.015c.104.363.249.705.436 1.027.186.316.435.573.746.77.311.192.703.288 1.175.288.389 0 .723-.081 1.003-.241.286-.166.519-.392.7-.677.187-.285.325-.612.413-.98.088-.374.132-.77.132-1.19zm4.722-7.834v11.949h-1.44v-11.949h1.44zm-.343 7.421l-.599-.023a5.088 5.088 0 01.257-1.595 4 4 0 01.7-1.283 3.12 3.12 0 011.074-.84c.42-.203.884-.304 1.392-.304.415 0 .788.057 1.12.172.332.108.615.285.848.528.239.244.42.561.545.949.124.384.186.854.186 1.408v5.516h-1.447v-5.531c0-.441-.064-.794-.194-1.058a1.192 1.192 0 00-.568-.583c-.249-.125-.555-.187-.918-.187-.358 0-.684.075-.98.225-.29.151-.542.358-.754.623a3.108 3.108 0 00-.49.91 3.325 3.325 0 00-.172 1.073zm12.641 3.089v-4.333c0-.332-.067-.62-.202-.864a1.322 1.322 0 00-.591-.575c-.265-.135-.592-.203-.98-.203-.364 0-.683.063-.957.187-.27.125-.483.288-.638.49-.15.202-.226.42-.226.654h-1.439c0-.301.078-.599.233-.895.156-.296.379-.563.67-.801a3.34 3.34 0 011.057-.576 4.176 4.176 0 011.385-.218c.612 0 1.151.104 1.618.312.472.207.84.521 1.105.941.27.415.404.936.404 1.563v3.921c0 .28.023.578.07.894.052.317.127.589.226.817v.125H69.03a2.695 2.695 0 01-.17-.662 5.325 5.325 0 01-.063-.777zm.249-3.664l.015 1.011h-1.454c-.41 0-.775.034-1.097.101a2.495 2.495 0 00-.809.288 1.37 1.37 0 00-.498.49 1.299 1.299 0 00-.171.677c0 .264.06.505.179.723.12.218.298.392.537.521.243.125.542.187.894.187.441 0 .83-.093 1.167-.28a2.43 2.43 0 00.801-.685c.203-.269.311-.531.327-.785l.615.692a2.105 2.105 0 01-.296.724 3.475 3.475 0 01-1.595 1.361 3.102 3.102 0 01-1.229.233c-.57 0-1.07-.111-1.501-.334a2.564 2.564 0 01-.996-.895 2.366 2.366 0 01-.35-1.268c0-.451.088-.848.265-1.19a2.3 2.3 0 01.762-.863c.332-.234.731-.41 1.198-.529.467-.12.988-.179 1.564-.179h1.672zm4.893-1.517v6.62h-1.44v-8.417h1.362l.078 1.797zm-.342 2.092l-.6-.023a5.088 5.088 0 01.257-1.595 4 4 0 01.7-1.283 3.12 3.12 0 011.074-.84c.42-.203.884-.304 1.392-.304.415 0 .788.057 1.12.172.332.108.615.285.848.528.239.244.42.561.545.949.124.384.186.854.186 1.408v5.516h-1.446v-5.531c0-.441-.065-.794-.195-1.058a1.192 1.192 0 00-.568-.583c-.249-.125-.555-.187-.918-.187-.357 0-.684.075-.98.225-.29.151-.542.358-.754.623a3.108 3.108 0 00-.49.91 3.328 3.328 0 00-.171 1.073z" fill="#333945"/><path fill-rule="evenodd" clip-rule="evenodd" d="M165.333 199h-18.666a2.675 2.675 0 00-2.667 2.667v18.666c0 1.467 1.2 2.667 2.667 2.667h18.666c1.467 0 2.667-1.2 2.667-2.667v-18.666c0-1.467-1.2-2.667-2.667-2.667zm-11.999 18.666l-6.666-6.41 1.866-1.795 4.8 4.616 10.134-9.744 1.866 1.795-12 11.538z" fill="#9FBD55"/><path fill-rule="evenodd" clip-rule="evenodd" d="M361.783 159.923a1.11 1.11 0 011.513.411l5.684 9.922 9.923-5.684a1.11 1.11 0 011.102 1.924l-9.922 5.685 5.684 9.922a1.109 1.109 0 01-1.924 1.102l-5.685-9.922-9.922 5.684a1.11 1.11 0 01-1.102-1.924l9.922-5.684-5.684-9.923a1.11 1.11 0 01.411-1.513z" fill="#941759"/><path fill-rule="evenodd" clip-rule="evenodd" d="M386.315 242.163l-8.972-8.971a1.814 1.814 0 010-2.563l12.286-12.286c.34-.34.801-.531 1.281-.531l6.189.001c.48 0 .941.19 1.281.53l2.783 2.784c.34.339.531.8.531 1.281v6.188c0 .481-.191.942-.531 1.282l-12.285 12.285a1.812 1.812 0 01-2.563 0zm9.612-18.583a2.718 2.718 0 10-3.845 3.844 2.718 2.718 0 003.845-3.844z" fill="#F39C12"/><g clip-path="url(#clip0_7970_49473)"><path fill-rule="evenodd" clip-rule="evenodd" d="M214.327 112.419l-2.476 9.067a1.342 1.342 0 01-1.649.941l-12.416-3.39a1.344 1.344 0 01-.812-.63l-2.273-3.981a1.339 1.339 0 01-.129-1.019l.768-2.813c.093-.344.32-.636.629-.812l3.981-2.273a1.346 1.346 0 011.02-.13l12.416 3.391c.715.195 1.137.934.941 1.649zm-15.486.643a2.014 2.014 0 103.886 1.06 2.014 2.014 0 00-3.886-1.06z" fill="#F39C12"/></g><rect x="398" y="51.407" width="173" height="74.016" rx="12.847" fill="#9FBD55"/><path fill-rule="evenodd" clip-rule="evenodd" d="M543.827 115.967l-5.158-5.158a1.042 1.042 0 010-1.474l7.064-7.064c.195-.195.46-.305.736-.305h3.559c.276 0 .541.11.737.305l1.6 1.6c.195.196.305.461.305.737v3.558c0 .277-.11.542-.305.737l-7.064 7.064a1.042 1.042 0 01-1.474 0zm5.527-10.685a1.563 1.563 0 10-2.211 2.209 1.563 1.563 0 002.211-2.209z" fill="#F39C12"/><path d="M423.69 106.677l1.313 2.659 2.935.427a.35.35 0 01.195.598l-2.125 2.069.502 2.923a.351.351 0 01-.51.37l-2.625-1.378-2.625 1.379a.351.351 0 01-.509-.37l.501-2.922-2.124-2.068a.351.351 0 01.194-.599l2.935-.429 1.313-2.659a.353.353 0 01.63 0zm10.418 0l1.313 2.659 2.935.427a.35.35 0 01.194.598l-2.124 2.069.502 2.923a.351.351 0 01-.51.37l-2.625-1.378-2.625 1.379a.351.351 0 01-.509-.37l.501-2.922-2.124-2.068a.351.351 0 01.194-.599l2.935-.429 1.313-2.659a.353.353 0 01.63 0z" fill="#FFCB4F"/><path d="M444.534 106.677l1.313 2.659 2.935.427a.35.35 0 01.194.598l-2.124 2.069.501 2.923a.351.351 0 01-.509.37l-2.625-1.378-2.625 1.379a.35.35 0 01-.51-.37l.502-2.922-2.124-2.068a.352.352 0 01.194-.599l2.935-.429 1.313-2.659a.353.353 0 01.63 0zm10.422 0l1.313 2.659 2.935.427a.35.35 0 01.194.598l-2.124 2.069.501 2.923a.351.351 0 01-.509.37l-2.625-1.378-2.625 1.379a.35.35 0 01-.51-.37l.502-2.922-2.125-2.068a.35.35 0 01.195-.599l2.935-.429 1.313-2.659a.353.353 0 01.63 0zm10.418 0l1.312 2.659 2.936.427a.35.35 0 01.194.598l-2.124 2.069.501 2.923a.351.351 0 01-.509.37l-2.625-1.378-2.625 1.379a.35.35 0 01-.51-.37l.502-2.922-2.125-2.068a.35.35 0 01.195-.599l2.935-.429 1.313-2.659a.353.353 0 01.63 0z" fill="#F0F0F0"/><path d="M490.54 106.807v7.59h-1.011l-3.822-5.854v5.854h-1.006v-7.59h1.006l3.837 5.87v-5.87h.996zm2.685 1.95v5.64h-.97v-5.64h.97zm-1.043-1.496c0-.157.047-.289.141-.396.097-.108.24-.162.427-.162.184 0 .325.054.422.162a.555.555 0 01.152.396.547.547 0 01-.152.386c-.097.104-.238.156-.422.156-.187 0-.33-.052-.427-.156a.57.57 0 01-.141-.386zm4.848 6.448c.229 0 .441-.047.636-.14.195-.094.355-.223.48-.386.125-.167.196-.356.213-.568h.918c-.018.333-.13.644-.339.933a2.306 2.306 0 01-.808.693c-.334.174-.7.261-1.1.261-.424 0-.794-.075-1.11-.224a2.2 2.2 0 01-.782-.616 2.736 2.736 0 01-.464-.896 3.777 3.777 0 01-.151-1.079v-.219c0-.379.05-.737.151-1.074.104-.341.259-.641.464-.902.208-.261.469-.466.782-.615.316-.15.686-.224 1.11-.224.441 0 .827.09 1.157.271.33.177.589.42.777.73.191.305.295.653.313 1.042h-.918a1.383 1.383 0 00-.198-.631 1.284 1.284 0 00-1.131-.62c-.295 0-.544.059-.745.177a1.297 1.297 0 00-.475.47 2.193 2.193 0 00-.25.651 3.56 3.56 0 00-.073.725v.219c0 .246.024.49.073.73.049.239.13.457.245.651.118.195.276.351.474.469.202.115.452.172.751.172zm3.076-2.069v-.12c0-.407.059-.784.177-1.131.118-.351.288-.655.511-.913.222-.26.492-.462.808-.604a2.507 2.507 0 011.063-.219c.396 0 .753.073 1.069.219.32.142.591.344.813.604.226.258.398.562.516.913.118.347.178.724.178 1.131v.12a3.5 3.5 0 01-.178 1.131 2.69 2.69 0 01-.516.912 2.366 2.366 0 01-.808.605 2.545 2.545 0 01-1.063.214c-.396 0-.753-.072-1.069-.214a2.424 2.424 0 01-.813-.605 2.73 2.73 0 01-.511-.912 3.5 3.5 0 01-.177-1.131zm.964-.12v.12c0 .281.033.547.099.797.066.247.165.466.297.657.136.191.304.343.506.454.202.107.436.161.704.161.264 0 .495-.054.693-.161a1.45 1.45 0 00.5-.454c.133-.191.232-.41.298-.657.069-.25.104-.516.104-.797v-.12c0-.278-.035-.541-.104-.787a2.018 2.018 0 00-.303-.662 1.435 1.435 0 00-.5-.459 1.407 1.407 0 00-.699-.167c-.264 0-.497.056-.698.167a1.502 1.502 0 00-.501.459 2.094 2.094 0 00-.297.662 3.03 3.03 0 00-.099.787zm6.428-5.13v8.007h-.97v-8.007h.97zm4.874 7.043v-2.904c0-.222-.045-.415-.136-.578a.886.886 0 00-.396-.386 1.44 1.44 0 00-.657-.136 1.53 1.53 0 00-.641.126 1.102 1.102 0 00-.427.328.721.721 0 00-.152.438h-.964c0-.202.052-.401.156-.6.105-.198.254-.377.449-.537.198-.163.434-.291.709-.385.278-.098.587-.146.928-.146.41 0 .771.069 1.084.208.316.139.563.35.74.631.181.278.271.627.271 1.048v2.627c0 .188.016.388.047.6.035.212.085.394.151.547v.083h-1.006a1.785 1.785 0 01-.114-.443 3.537 3.537 0 01-.042-.521zm.167-2.455l.01.677h-.975a3.62 3.62 0 00-.735.068 1.689 1.689 0 00-.542.193.922.922 0 00-.334.328.877.877 0 00-.114.454c0 .177.04.339.12.485.08.146.2.262.359.349.164.084.364.125.6.125.295 0 .556-.062.782-.187.226-.126.405-.278.537-.459.135-.181.208-.356.219-.527l.412.464a1.41 1.41 0 01-.199.485 2.312 2.312 0 01-1.068.912 2.06 2.06 0 01-.824.157c-.382 0-.718-.075-1.006-.224a1.728 1.728 0 01-.667-.6 1.583 1.583 0 01-.235-.85c0-.302.059-.568.177-.797.119-.233.289-.426.511-.579a2.44 2.44 0 01.803-.354c.313-.08.662-.12 1.048-.12h1.121zm5.598 1.923a.814.814 0 00-.093-.385c-.059-.122-.183-.232-.371-.329-.184-.101-.462-.188-.834-.26a6.819 6.819 0 01-.849-.235c-.251-.09-.464-.2-.642-.329a1.377 1.377 0 01-.401-.453 1.263 1.263 0 01-.141-.61c0-.222.049-.433.146-.631.101-.198.242-.373.423-.526.184-.153.404-.273.662-.36.257-.087.543-.13.86-.13.452 0 .837.08 1.157.24.32.159.565.373.735.641.17.264.256.558.256.881h-.965a.827.827 0 00-.141-.454 1.037 1.037 0 00-.401-.37 1.3 1.3 0 00-.641-.146c-.268 0-.485.042-.652.125a.845.845 0 00-.36.308.773.773 0 00-.057.677c.038.08.104.155.198.225.094.066.226.128.396.187.171.059.388.118.652.178.462.104.843.229 1.142.375.299.146.521.325.667.537.146.212.219.469.219.771a1.496 1.496 0 01-.6 1.21c-.191.146-.42.26-.688.344-.264.08-.561.12-.891.12-.497 0-.918-.089-1.262-.266a1.958 1.958 0 01-.782-.688 1.651 1.651 0 01-.266-.892h.97c.014.264.09.475.229.631.139.153.31.262.511.329.202.062.402.093.6.093.264 0 .485-.034.662-.104a.916.916 0 00.412-.287.66.66 0 00.14-.417z" fill="#333945"/><path fill-rule="evenodd" clip-rule="evenodd" d="M541.121 84.576a.521.521 0 01.737 0l3.801 3.8 3.8-3.8a.521.521 0 01.737.736l-3.801 3.8 3.801 3.8a.522.522 0 01-.737.738l-3.8-3.8-3.801 3.8a.521.521 0 01-.737-.737l3.801-3.8-3.801-3.8a.522.522 0 010-.737z" fill="#941759"/><path d="M423.69 84.443l1.313 2.66 2.935.427a.35.35 0 01.195.598l-2.125 2.068.502 2.923a.353.353 0 01-.51.37l-2.625-1.377-2.625 1.379a.352.352 0 01-.509-.37l.501-2.922-2.124-2.068a.35.35 0 01.194-.599l2.935-.43 1.313-2.658a.351.351 0 01.63 0z" fill="#FFCB4F"/><path d="M434.108 84.443l1.313 2.66 2.935.427a.35.35 0 01.194.598l-2.124 2.068.502 2.923a.353.353 0 01-.51.37l-2.625-1.377-2.625 1.379a.352.352 0 01-.509-.37l.501-2.922-2.124-2.068a.35.35 0 01.194-.599l2.935-.43 1.313-2.658a.351.351 0 01.63 0zm10.426 0l1.313 2.66 2.935.427a.35.35 0 01.194.598l-2.124 2.068.501 2.923a.35.35 0 01-.509.37l-2.625-1.377-2.625 1.379a.352.352 0 01-.51-.37l.502-2.922-2.124-2.068a.35.35 0 01.194-.599l2.935-.43 1.313-2.658a.351.351 0 01.63 0zm10.422 0l1.313 2.66 2.935.427a.35.35 0 01.194.598l-2.124 2.068.501 2.923a.35.35 0 01-.509.37l-2.625-1.377-2.625 1.379a.352.352 0 01-.51-.37l.502-2.922-2.125-2.068a.35.35 0 01.195-.599l2.935-.43 1.313-2.658a.351.351 0 01.63 0zm10.418 0l1.312 2.66 2.936.427a.35.35 0 01.194.598l-2.124 2.068.501 2.923a.35.35 0 01-.509.37l-2.625-1.377-2.625 1.379a.352.352 0 01-.51-.37l.502-2.922-2.125-2.068a.35.35 0 01.195-.599l2.935-.43 1.313-2.658a.351.351 0 01.63 0z" fill="#F0F0F0"/><path d="M489.304 92.042v.818h-3.795v-.818h3.795zm-3.597-6.772v7.59h-1.006v-7.59h1.006zm5.651 1.95v5.64h-.969v-5.64h.969zm-1.042-1.496c0-.157.047-.289.14-.396.098-.108.24-.162.428-.162.184 0 .325.054.422.162.101.107.151.24.151.396a.54.54 0 01-.151.385c-.097.105-.238.157-.422.157-.188 0-.33-.052-.428-.157a.571.571 0 01-.14-.385zm3.555 2.7v4.436h-.964v-5.64h.912l.052 1.204zm-.229 1.402l-.402-.015c.004-.386.061-.742.172-1.069.111-.33.268-.617.469-.86a2.098 2.098 0 011.653-.766c.278 0 .528.038.751.114.222.073.411.191.568.355.16.163.281.375.365.636a3.1 3.1 0 01.125.943v3.696h-.97v-3.706c0-.295-.043-.532-.13-.71a.802.802 0 00-.381-.39 1.364 1.364 0 00-.615-.125c-.24 0-.459.05-.657.151-.194.1-.363.24-.505.417a2.1 2.1 0 00-.443 1.33zm8.721 1.94v-6.913h.97v8.007h-.887l-.083-1.094zm-3.795-1.663v-.11c0-.43.052-.822.156-1.173.108-.354.259-.658.454-.912a1.997 1.997 0 011.621-.792c.355 0 .664.062.928.187.268.122.493.3.678.537.187.233.335.515.443.845.107.33.182.703.224 1.12v.48a4.91 4.91 0 01-.224 1.116 2.65 2.65 0 01-.443.844 1.86 1.86 0 01-.678.537c-.268.122-.58.183-.938.183-.331 0-.633-.072-.907-.214a2.131 2.131 0 01-.704-.6 2.92 2.92 0 01-.454-.907 4.003 4.003 0 01-.156-1.141zm.969-.11v.11c0 .281.028.545.084.792.059.247.149.464.271.652.122.187.276.335.464.443.188.104.412.156.672.156.32 0 .583-.068.788-.203a1.52 1.52 0 00.5-.537c.125-.223.222-.464.292-.725v-1.256a2.8 2.8 0 00-.183-.553 1.693 1.693 0 00-.302-.48 1.315 1.315 0 00-.453-.338 1.474 1.474 0 00-.631-.125c-.264 0-.492.055-.683.167a1.33 1.33 0 00-.464.448 2.063 2.063 0 00-.271.657 3.57 3.57 0 00-.084.792zm8.623 1.903v-2.904a1.17 1.17 0 00-.136-.578.889.889 0 00-.396-.386 1.434 1.434 0 00-.657-.136 1.54 1.54 0 00-.641.126 1.11 1.11 0 00-.427.328.72.72 0 00-.152.438h-.964c0-.202.052-.402.156-.6a1.76 1.76 0 01.449-.537c.198-.163.434-.292.709-.385.278-.098.587-.146.928-.146.41 0 .771.07 1.084.208.316.14.563.35.74.63.181.279.271.628.271 1.049v2.627c0 .188.016.388.047.6.035.212.085.394.151.547v.083h-1.006a1.841 1.841 0 01-.115-.443 3.681 3.681 0 01-.041-.521zm.167-2.455l.01.677h-.975a3.62 3.62 0 00-.735.068 1.684 1.684 0 00-.542.193.922.922 0 00-.334.328.875.875 0 00-.114.454c0 .177.04.339.12.485a.87.87 0 00.359.349c.164.083.363.125.6.125a1.626 1.626 0 001.319-.646c.135-.181.208-.356.219-.527l.411.464c-.024.146-.09.308-.198.485a2.312 2.312 0 01-1.068.912 2.075 2.075 0 01-.824.157 2.15 2.15 0 01-1.006-.225 1.72 1.72 0 01-.667-.599 1.582 1.582 0 01-.235-.85c0-.302.059-.568.177-.797.118-.233.289-.426.511-.579.223-.156.49-.275.803-.355.313-.08.662-.12 1.048-.12h1.121z" fill="#333945"/><path fill-rule="evenodd" clip-rule="evenodd" d="M550.523 60.626h-9.727c-.764 0-1.39.625-1.39 1.39v9.726c0 .765.626 1.39 1.39 1.39h9.727c.764 0 1.389-.625 1.389-1.39v-9.727c0-.764-.625-1.389-1.389-1.389zm-6.254 9.727l-3.473-3.34.972-.936 2.501 2.405 5.281-5.077.972.935-6.253 6.013z" fill="#5D7624"/><path d="M423.69 62.211l1.313 2.659 2.935.427a.35.35 0 01.195.599l-2.125 2.068.502 2.923a.353.353 0 01-.51.37l-2.625-1.378-2.625 1.38a.352.352 0 01-.509-.371l.501-2.922-2.124-2.068a.35.35 0 01.194-.598l2.935-.43 1.313-2.659a.351.351 0 01.63 0zm10.418 0l1.313 2.659 2.935.427a.35.35 0 01.194.599l-2.124 2.068.502 2.923a.353.353 0 01-.51.37l-2.625-1.378-2.625 1.38a.352.352 0 01-.509-.371l.501-2.922-2.124-2.068a.35.35 0 01.194-.598l2.935-.43 1.313-2.659a.351.351 0 01.63 0zm10.426 0l1.313 2.659 2.935.427a.35.35 0 01.194.599l-2.124 2.068.501 2.923a.35.35 0 01-.509.37l-2.625-1.378-2.625 1.38a.352.352 0 01-.51-.371l.502-2.922-2.124-2.068a.35.35 0 01.194-.599l2.935-.429 1.313-2.659a.351.351 0 01.63 0z" fill="#FFCB4F"/><path d="M454.956 62.211l1.313 2.659 2.935.427a.35.35 0 01.194.599l-2.124 2.068.501 2.923a.35.35 0 01-.509.37l-2.625-1.378-2.625 1.38a.352.352 0 01-.51-.371l.502-2.922-2.125-2.068a.35.35 0 01.195-.598l2.935-.43 1.313-2.659a.351.351 0 01.63 0zm10.418 0l1.312 2.659 2.936.427a.35.35 0 01.194.599l-2.124 2.068.501 2.923a.35.35 0 01-.509.37l-2.625-1.378-2.625 1.38a.352.352 0 01-.51-.371l.502-2.922-2.125-2.068a.35.35 0 01.195-.598l2.935-.43 1.313-2.659a.351.351 0 01.63 0z" fill="#F0F0F0"/><path d="M485.019 63.731h.975l2.487 6.188 2.481-6.188h.98l-3.086 7.59h-.761l-3.076-7.59zm-.318 0h.86l.141 4.63v2.96h-1.001v-7.59zm6.694 0h.86v7.59h-1.001v-2.96l.141-4.63zm5.807 6.626v-2.904a1.18 1.18 0 00-.135-.578.886.886 0 00-.397-.386 1.434 1.434 0 00-.656-.136c-.244 0-.458.042-.642.125a1.12 1.12 0 00-.427.329.718.718 0 00-.151.438h-.965c0-.202.052-.402.157-.6.104-.198.253-.377.448-.537.198-.163.434-.292.709-.386.278-.097.587-.145.928-.145.41 0 .771.07 1.084.208.316.14.563.35.74.63.181.279.271.628.271 1.049v2.627c0 .188.016.388.047.6.035.212.086.394.152.547v.083h-1.007a1.844 1.844 0 01-.114-.443 3.549 3.549 0 01-.042-.521zm.167-2.455l.01.677h-.975a3.62 3.62 0 00-.735.068 1.684 1.684 0 00-.542.193.866.866 0 00-.448.782c0 .177.04.339.12.485.08.146.2.262.36.349.163.083.363.125.599.125a1.625 1.625 0 001.319-.646c.135-.181.208-.357.219-.527l.412.464a1.429 1.429 0 01-.198.485 2.322 2.322 0 01-1.069.912 2.073 2.073 0 01-.824.156 2.16 2.16 0 01-1.006-.224 1.72 1.72 0 01-.667-.6 1.59 1.59 0 01-.235-.849c0-.302.059-.568.178-.797a1.54 1.54 0 01.51-.58 2.44 2.44 0 01.803-.353c.313-.08.662-.12 1.048-.12h1.121zm2.966-2.221l1.236 2.054 1.251-2.054h1.131l-1.846 2.784 1.903 2.856h-1.115l-1.304-2.116-1.303 2.116h-1.121l1.898-2.856-1.84-2.784h1.11z" fill="#333945"/><defs><linearGradient id="paint0_linear_7970_49473" x1="578.082" y1="55" x2="251.013" y2="573.854" gradientUnits="userSpaceOnUse"><stop stop-color="#A0CA3F"/><stop offset="1" stop-color="#7B9C30"/></linearGradient><linearGradient id="paint1_linear_7970_49473" x1="510.401" y1="348.341" x2="476.278" y2="309.766" gradientUnits="userSpaceOnUse"><stop offset="0" stop-color="#8A1050"/><stop offset="1" stop-color="#B53378"/></linearGradient><linearGradient id="paint2_linear_7970_49473" x1="364.329" y1="354.359" x2="255.871" y2="273.913" gradientUnits="userSpaceOnUse"><stop offset="0" stop-color="#8A1050"/><stop offset="1" stop-color="#B53378"/></linearGradient><linearGradient id="paint3_linear_7970_49473" x1="329.639" y1="335.161" x2="232.727" y2="241.721" gradientUnits="userSpaceOnUse"><stop offset="0" stop-color="#8A1050"/><stop offset="1" stop-color="#B53378"/></linearGradient><linearGradient id="paint4_linear_7970_49473" x1="307.938" y1="347.46" x2="201.213" y2="245.984" gradientUnits="userSpaceOnUse"><stop offset="0" stop-color="#8A1050"/><stop offset="1" stop-color="#B53378"/></linearGradient><clipPath id="clip0_7970_49473"><path fill="#fff" transform="rotate(-119.726 138.36 6.12)" d="M0 0h21.483v21.483H0z"/></clipPath></defs></svg>