<svg width="576" height="395" fill="none" xmlns="http://www.w3.org/2000/svg"><path opacity=".12" fill-rule="evenodd" clip-rule="evenodd" d="M512.794 90.426c-38.387-31.31-100.312-32.99-154.228-46.342-47.318-11.719-92.297-33.444-141.389-26.87-49.846 6.675-87.524 34.98-122.736 62.24-36.481 28.244-70.505 58.665-82.756 96.851-13.462 41.96-21.397 90.451 11.272 125.961 32.185 34.985 97.816 37.174 151.501 50.97 48.106 12.361 94.14 26.281 145.004 25.221 60.327-1.258 124.964-2.994 171.478-31.819 49.585-30.729 79.597-78.257 83.697-126.317 4.013-47.046-19.29-95.187-61.843-129.895z" fill="url(#paint0_linear_7945_48926)"/><g clip-path="url(#clip0_7945_48926)"><path d="M475.387 175.288l-.746 8.919a1.735 1.735 0 00.62 1.464l6.926 5.668a1.724 1.724 0 01.588 1.716 1.719 1.719 0 01-1.28 1.284l-8.713 2.048a1.72 1.72 0 00-1.203 1.042l-3.243 8.336a1.712 1.712 0 01-2.372.907 1.713 1.713 0 01-.691-.638l-4.644-7.653a1.709 1.709 0 00-1.365-.826l-8.928-.512a1.713 1.713 0 01-1.597-1.975c.049-.316.185-.612.393-.854l5.847-6.782a1.713 1.713 0 00.36-1.554l-2.273-8.65a1.716 1.716 0 012.318-2.021l8.254 3.467a1.725 1.725 0 001.59-.143l7.527-4.833a1.718 1.718 0 012.45.667c.146.285.209.604.182.923z" fill="#FFB537"/><path d="M262.453 9.593h92.167v48.71h-67.798c-2.003 3.081-6.234 10.088-6.234 10.088l-4.877-10.088h-13.258V9.593z" fill="url(#paint1_linear_7945_48926)"/><path d="M262.453 9.593V22.76c0 8.425.054 20.578.09 35.56l-.17-.18h13.374l.054.109c1.536 3.161 3.189 6.575 4.886 10.087h-.35l6.234-10.096.054-.1h67.914l-.233.234V9.665l.215.215-66.333-.09-18.998-.071h-6.386 6.332l19.016-.072 66.468-.26h.216v49.158h-68.032l.18-.09-6.288 10.07-.188.314-.162-.324-4.868-10.096.17.108h-13.437v-.17c0-15.028.072-27.217.099-35.67V10.49c0-.575.143-.898.143-.898z" fill="#F0F0F0"/><path d="M284.264 33.567a4.312 4.312 0 002.632-3.97 4.062 4.062 0 00-3.983-4.492 4.06 4.06 0 00-4.101 4.384 4.329 4.329 0 002.551 4.06c-6.243.898-6.018 7.653-6.018 7.653l14.731.197s.35-6.862-5.812-7.832zm57.762-6.872c0 .09-9.395.162-20.982.162s-20.974-.072-20.974-.162c0-.09 9.387-.17 20.974-.17s20.982.071 20.982.17zm0 5.021c0 .09-9.395.162-20.982.162s-20.974-.072-20.974-.162c0-.09 9.387-.17 20.974-.17s20.982.071 20.982.17zm0 5.021c0 .09-9.395.17-20.982.17s-20.974-.08-20.974-.17c0-.09 9.387-.17 20.974-.17s20.982.071 20.982.17zm-16.868 6.35c0 .1-5.614.171-12.575.171-6.961 0-12.575-.072-12.575-.17 0-.1 5.614-.18 12.575-.18 6.961 0 12.575.08 12.575.18z" fill="#F0F0F0"/><path d="M300.251 322.103l4.608 4.356a1.2 1.2 0 001.096.306l6.207-1.348a1.212 1.212 0 011.356 1.707l-2.695 5.749a1.234 1.234 0 00.045 1.131l3.207 5.489a1.215 1.215 0 01-.051 1.267 1.203 1.203 0 01-.502.427 1.203 1.203 0 01-.651.102l-6.287-.799a1.22 1.22 0 00-1.06.404l-4.258 4.742a1.21 1.21 0 01-2.102-.583l-1.185-6.234a1.218 1.218 0 00-.71-.898l-5.811-2.56a1.21 1.21 0 01-.726-1.056 1.206 1.206 0 01.627-1.118l5.569-3.063a1.23 1.23 0 00.629-.898l.637-6.288a1.22 1.22 0 01.756-1.089 1.217 1.217 0 011.301.254zM423.237 32.632l5.731 6.872a1.688 1.688 0 001.473.61l8.91-.826a1.713 1.713 0 011.872 1.719c-.002.32-.093.633-.264.904l-4.761 7.572a1.705 1.705 0 00-.125 1.59l3.521 8.218a1.72 1.72 0 01-.268 1.793 1.716 1.716 0 01-1.726.552l-8.677-2.192a1.719 1.719 0 00-1.554.368l-6.728 5.91a1.715 1.715 0 01-2.838-1.176l-.593-8.928a1.697 1.697 0 00-.835-1.357l-7.698-4.572a1.713 1.713 0 01-.5-2.487c.189-.257.446-.456.742-.575l8.309-3.333a1.72 1.72 0 001.033-1.213l1.967-8.73a1.715 1.715 0 013.009-.719zm54.474 202.756l.764 2.875c.022.09.067.173.13.242a.558.558 0 00.229.153l2.802 1.006a.564.564 0 01.319.783.569.569 0 01-.211.232l-2.497 1.608a.57.57 0 00-.26.467l-.099 2.973a.57.57 0 01-.328.469.574.574 0 01-.57-.047l-2.3-1.886a.558.558 0 00-.521-.099l-2.856.826a.566.566 0 01-.692-.754l1.078-2.776a.534.534 0 00-.063-.521l-1.706-2.506a.567.567 0 01-.038-.61.569.569 0 01.541-.288l2.973.171a.579.579 0 00.485-.216l1.796-2.353a.573.573 0 01.264-.205.564.564 0 01.76.456zm-358.578-65.103l5.066 5.03a1.34 1.34 0 001.212.377l6.989-1.32a1.361 1.361 0 011.346.52 1.371 1.371 0 01.127 1.438l-3.189 6.413a1.366 1.366 0 000 1.276l3.422 6.287a1.367 1.367 0 01-1.401 2.013l-7.06-1.096a1.375 1.375 0 00-1.204.413l-4.895 5.192a1.362 1.362 0 01-1.396.371 1.361 1.361 0 01-.948-1.09l-1.123-7.078a1.387 1.387 0 00-.764-1.024l-6.449-3.054a1.37 1.37 0 01-.764-1.226c0-.255.071-.506.206-.723.136-.216.329-.391.558-.503l6.351-3.261a1.36 1.36 0 00.727-1.042l.898-7.078a1.37 1.37 0 01.889-1.122 1.366 1.366 0 011.402.287z" fill="#FFB537"/><path d="M210.959 57.437l-14.807 27.488 10.225 5.508 14.807-27.488-10.225-5.508z" fill="#F0F0F0"/><path d="M213.725 58.932L198.918 86.42l10.225 5.508L223.95 64.44l-10.225-5.508z" fill="url(#paint2_linear_7945_48926)"/><path d="M213.239 67.232a2.627 2.627 0 00.27 2.903 2.622 2.622 0 103.278-3.963 2.609 2.609 0 00-2.897.272 2.611 2.611 0 00-.651.788z" fill="#fff"/><path d="M208.749 61.582a7.95 7.95 0 01.548 2.695c.183.905.208 1.835.071 2.748a8.34 8.34 0 01-.538-2.694 8.344 8.344 0 01-.081-2.749zm-1.645 3.036c.326.863.508 1.773.539 2.695.178.905.205 1.834.081 2.748a8.424 8.424 0 01-.539-2.694 8.398 8.398 0 01-.081-2.749zm-1.635 3.045c.328.862.51 1.773.539 2.695a8.37 8.37 0 01.081 2.748 7.852 7.852 0 01-.548-2.694 7.981 7.981 0 01-.072-2.749zm-1.643 3.037c.336.86.522 1.77.548 2.694.183.905.207 1.835.072 2.748a8.314 8.314 0 01-.539-2.694 8.426 8.426 0 01-.081-2.749zm-1.636 3.044c.327.862.509 1.773.539 2.695.178.905.205 1.834.081 2.748a8.258 8.258 0 01-.539-2.694 8.372 8.372 0 01-.081-2.749zm-1.635 3.009c.329.862.512 1.773.539 2.695.178.905.206 1.834.081 2.748a7.95 7.95 0 01-.548-2.695 7.957 7.957 0 01-.072-2.748zm-1.642 3.072c.338.86.524 1.772.548 2.695.183.908.208 1.841.072 2.757a8.424 8.424 0 01-.539-2.694 8.398 8.398 0 01-.081-2.758zm11.3-20.911c.338.86.524 1.771.548 2.695a7.93 7.93 0 01.072 2.748 8.258 8.258 0 01-.539-2.694 8.398 8.398 0 01-.081-2.749zm1.833-.889c.126 0 .315.692.413 1.58.099.89.081 1.627-.053 1.645-.135.017-.315-.701-.414-1.59-.098-.89-.08-1.626.054-1.635z" fill="#AFDD44"/><path d="M192.139 79.987l12.575-24.594s-4.841-3.961-5.704-13.904c-.565-6.584 3.387-11.102 3.926-13.572.323-1.51-2.893-2.902-4.33-3.477a6.01 6.01 0 00-5.829.584c-3.71 2.857-6.234 13.105-6.234 13.105s0 2.363-2.542.988l-9.117-4.949a5.64 5.64 0 00-3.871-.584 4.16 4.16 0 00-3.063 2.506c-1.599 3.593-.611 6.153-1.006 6.88-.395.728-2.084 1.447-2.479 3.962-.396 2.515.152 2.56-.396 3.593a18.693 18.693 0 00-1.931 5.569 8.446 8.446 0 00.144 3.027s-2.183 3.135-2.165 5.542c0 3.17 5.174 8.03 8.273 8.228 1.446.098 7.572 1.724 10.473 2.46 2.901.737 11.453 2.12 13.276 4.636z" fill="#F0F0F0"/><path d="M195.276 82.017l13.231-24.567s-4.859-3.961-5.713-13.931a46.287 46.287 0 01.647-13.752 3.179 3.179 0 00-1.886-3.593 4.826 4.826 0 00-5.138.683c-3.665 2.856-6.054 13.311-6.054 13.311s0 2.363-2.533.988l-9.126-4.913a5.614 5.614 0 00-3.862-.584 4.18 4.18 0 00-3.072 2.47c-1.599 3.593-.602 6.153-.997 6.88-.396.728-2.093 1.474-2.489 3.962-.395 2.488.153 2.56-.386 3.593a18.454 18.454 0 00-1.931 5.55 8.537 8.537 0 00.135 3.028s-2.039 3.135-2.165 5.55c-.126 2.417 3.18 5.48 4.491 6.163 1.312.682 11.399 3.781 14.3 4.49 2.901.71 10.752 2.157 12.548 4.672z" fill="url(#paint3_linear_7945_48926)"/><path d="M188.332 32.74a18.14 18.14 0 011.168 3.413c.416 1.132.717 2.303.898 3.495a11.699 11.699 0 01-1.356-3.36 11.668 11.668 0 01-.71-3.548zm1.277-3.593a20.31 20.31 0 011.177 3.08c.473.996.797 2.055.961 3.145a12.324 12.324 0 01-1.401-2.982 8.091 8.091 0 01-.737-3.243zm1.85-2.793a18.86 18.86 0 011.078 2.425c.475.773.764 1.646.844 2.55a11.874 11.874 0 01-1.266-2.353 4.987 4.987 0 01-.656-2.622zm2.335-1.931c.117-.045.53.736.898 1.742.309.592.478 1.246.494 1.913-.126.054-.539-.727-.898-1.742-.359-1.015-.62-1.868-.494-1.913zm2.632-.459c.117-.072.449.341.755.898.305.557.458 1.07.341 1.132-.117.063-.449-.35-.754-.898-.306-.548-.45-1.069-.342-1.132zm-9.711 13.483c.117-.054.548.781.961 1.85a4.72 4.72 0 01.53 2.021 4.908 4.908 0 01-.961-1.85 4.735 4.735 0 01-.53-2.021zm-19.457.566a16 16 0 011.967 3.314 15.522 15.522 0 011.554 3.521 15.503 15.503 0 01-1.967-3.314 15.431 15.431 0 01-1.554-3.521zm2.383-4.087a5.697 5.697 0 011.257 1.931c.418.654.705 1.383.844 2.147-.116.063-.682-.8-1.257-1.931a5.852 5.852 0 01-.844-2.147zm-4.196 10.796a7.344 7.344 0 011.617 2.353 7.2 7.2 0 01.988 2.695 11.917 11.917 0 01-1.401-2.47 11.259 11.259 0 01-1.204-2.578zm-1.222 5.453a8.75 8.75 0 011.41 2.452 8.63 8.63 0 01.97 2.695 8.62 8.62 0 01-1.392-2.462 8.598 8.598 0 01-.988-2.685zm-1.95 6.17a16.405 16.405 0 011.563 2.901 16.827 16.827 0 011.357 2.983 9.07 9.07 0 01-1.797-2.776 9.038 9.038 0 01-1.123-3.108zm-1.363 5.345a23.325 23.325 0 011.797 3.386 23.476 23.476 0 011.589 3.476 11.883 11.883 0 01-2.012-3.27 11.89 11.89 0 01-1.374-3.592z" fill="#AFDD44"/><path d="M133.631 87.065l-8.858 19.811 7.372 3.296 8.858-19.81-7.372-3.297z" fill="#F0F0F0"/><path d="M131.635 86.179l-8.858 19.811 7.372 3.296 8.858-19.811-7.372-3.296z" fill="url(#paint4_linear_7945_48926)"/><path d="M130.084 103.502a1.801 1.801 0 00-.335-1.959 1.796 1.796 0 10.335 1.959z" fill="#fff"/><path d="M133.458 107.194a6.084 6.084 0 01-.512-1.797 5.536 5.536 0 01-.188-1.904c.267.583.44 1.204.512 1.842.163.605.226 1.233.188 1.859zm.982-2.192a6.147 6.147 0 01-.512-1.796 5.828 5.828 0 01-.189-1.905c.273.581.446 1.204.512 1.842.168.604.232 1.233.189 1.859zm.988-2.2a10.928 10.928 0 01-.709-3.746c.267.567.44 1.174.512 1.797a5.96 5.96 0 01.197 1.949zm.977-2.183a11.526 11.526 0 01-.71-3.746 5.72 5.72 0 01.512 1.796c.179.634.246 1.293.198 1.95zm.981-2.201a5.497 5.497 0 01-.512-1.841 5.693 5.693 0 01-.198-1.905c.272.585.445 1.21.512 1.85a5.64 5.64 0 01.198 1.896zm.977-2.191a5.737 5.737 0 01-.512-1.842 5.667 5.667 0 01-.198-1.904c.443 1.2.682 2.466.71 3.746zm.98-2.192a5.762 5.762 0 01-.512-1.842 5.693 5.693 0 01-.198-1.904c.443 1.2.683 2.466.71 3.746zm-6.766 15.054a5.524 5.524 0 01-.512-1.842 5.66 5.66 0 01-.197-1.904c.267.567.44 1.174.512 1.797.178.633.245 1.293.197 1.949zm-1.218.737c-.089 0-.251-.468-.368-1.078a2.21 2.21 0 01-.054-1.141c.09 0 .261.467.377 1.078.117.611.135 1.123.045 1.141z" fill="#AFDD44"/><path d="M144.077 93.586l-7.429 17.686s3.593 2.497 4.662 9.35c.737 4.492-1.796 7.869-2.021 9.611-.152 1.06 2.147 1.86 3.171 2.183a4.188 4.188 0 004.015-.691c2.398-2.174 3.593-9.387 3.593-9.387s-.135-1.635 1.707-.808l6.575 2.937c.845.386 1.8.459 2.694.206a2.897 2.897 0 001.994-1.895c.898-2.587.108-4.293.342-4.823.233-.53 1.374-1.123 1.527-2.875.152-1.751-.243-1.796.08-2.488a12.82 12.82 0 001.06-3.952 5.976 5.976 0 00-.251-2.084s1.356-2.29 1.212-3.961c-.179-2.192-3.997-5.3-6.152-5.281-1.006 0-5.336-.809-7.393-1.168-2.057-.36-8.039-.916-9.386-2.56z" fill="#F0F0F0"/><path d="M141.77 92.328l-7.922 17.713s3.593 2.497 4.67 9.351c.555 3.159.639 6.382.252 9.566a2.207 2.207 0 001.491 2.425 3.343 3.343 0 003.53-.737c2.389-2.164 3.512-9.539 3.512-9.539s-.135-1.635 1.707-.817l6.575 2.946c.845.386 1.8.459 2.694.207a2.915 2.915 0 002.003-1.896c.899-2.587.108-4.293.342-4.823.233-.53 1.374-1.123 1.518-2.874.143-1.752-.234-1.797.09-2.489a12.868 12.868 0 001.05-3.952 5.703 5.703 0 00-.251-2.084 10.041 10.041 0 001.222-3.961c0-1.68-2.48-3.638-3.405-4.05-.925-.414-8.084-2.04-10.141-2.399-2.057-.36-7.527-.934-8.937-2.587z" fill="url(#paint5_linear_7945_48926)"/><path d="M149.088 126.156a12.424 12.424 0 01-.979-2.318 11.617 11.617 0 01-.808-2.371 8.739 8.739 0 011.114 2.254c.347.773.574 1.594.673 2.435zm-.698 2.523a14.288 14.288 0 01-.997-2.057 7.674 7.674 0 01-.827-2.128 8.507 8.507 0 011.105 1.994c.385.675.629 1.42.719 2.191zm-1.144 2.057a15.965 15.965 0 01-.899-1.625 4.19 4.19 0 01-.718-1.734 8.38 8.38 0 011.006 1.572c.368.526.58 1.146.611 1.787zm-1.516 1.455c-.081 0-.413-.485-.736-1.167a3.035 3.035 0 01-.432-1.303c.081 0 .405.485.728 1.168.244.395.395.84.44 1.302zm-1.806.449c-.072.054-.332-.206-.566-.583-.233-.378-.377-.728-.296-.773.081-.045.332.225.566.593.233.368.368.719.296.763zm6.045-9.844c-.081.045-.422-.512-.764-1.231a3.329 3.329 0 01-.467-1.374c.081 0 .422.512.764 1.23.254.419.413.888.467 1.375zm13.465-1.383a22.297 22.297 0 01-2.793-4.563 22.331 22.331 0 012.793 4.563zm-1.448 2.946c-.081.045-.512-.53-.97-1.276a3.998 3.998 0 01-.692-1.446c.072-.054.512.521.97 1.276.321.433.556.924.692 1.446zm2.365-7.698a7.785 7.785 0 01-2.066-3.359 8.423 8.423 0 011.096 1.644c.388.532.714 1.108.97 1.715zm.565-3.835a6.15 6.15 0 01-1.096-1.635 6.345 6.345 0 01-.808-1.796 5.73 5.73 0 011.096 1.634c.365.551.639 1.158.808 1.797zm1.031-4.383a11.643 11.643 0 01-1.204-1.932c-.428-.629-.792-1.3-1.087-2.003a6.536 6.536 0 011.366 1.797c.441.647.755 1.373.925 2.138zm.674-3.773a15.972 15.972 0 01-1.392-2.255 15.36 15.36 0 01-1.276-2.335 8.4 8.4 0 011.554 2.165 8.192 8.192 0 011.114 2.425z" fill="#AFDD44"/><path d="M485.994 372.125c0 .126-88.349.234-197.294.234-108.946 0-197.313-.09-197.313-.234 0-.144 88.322-.233 197.313-.233 108.99 0 197.294.107 197.294.233z" fill="#333945"/><path d="M216.331 120.398l2.892 4.212a.966.966 0 00.799.423h5.102a.982.982 0 01.872.547.975.975 0 01-.099 1.024l-3.108 4.042a.956.956 0 00-.153.899l1.563 4.85a.986.986 0 01-.25 1 .983.983 0 01-1.007.222l-4.806-1.707a.968.968 0 00-.898.126l-4.132 2.991a.982.982 0 01-1.42-.297.98.98 0 01-.134-.52l.144-5.093a.984.984 0 00-.404-.818l-4.123-3.009a.974.974 0 01-.381-.956.982.982 0 01.686-.768l4.868-1.411a.953.953 0 00.656-.628l1.581-4.851a.982.982 0 01.787-.696.981.981 0 01.965.418zm225.677 102.685l3.593 1.868a.786.786 0 00.718 0l3.593-1.913a.776.776 0 01.818.06.776.776 0 01.314.757l-.665 4.006a.794.794 0 00.234.692l2.928 2.82a.786.786 0 01-.422 1.339l-4.024.601a.783.783 0 00-.584.431l-1.797 3.656a.764.764 0 01-.285.319.766.766 0 01-.822 0 .77.77 0 01-.285-.319l-1.796-3.638a.801.801 0 00-.593-.422l-4.024-.566a.775.775 0 01-.635-.522.775.775 0 01.195-.798l2.901-2.856c.088-.09.154-.2.192-.32a.808.808 0 00.024-.372l-.71-4.006a.773.773 0 011.132-.817zM240.427 103.206l.763 2.326c.027.07.069.133.123.185.055.051.12.089.192.112l2.344.691a.471.471 0 01.302.624.47.47 0 01-.158.203l-1.967 1.437a.486.486 0 00-.198.395l.072 2.443a.457.457 0 01-.497.479.451.451 0 01-.24-.093l-1.985-1.428a.487.487 0 00-.431-.063l-2.299.827a.468.468 0 01-.602-.584l.746-2.327a.513.513 0 00.014-.224.51.51 0 00-.086-.207l-1.491-1.931a.467.467 0 01.368-.754h2.443a.457.457 0 00.377-.198l1.384-2.021a.465.465 0 01.826.108z" fill="#FFB537"/><path d="M307.625 89.714l30.665 62.139a13.29 13.29 0 009.997 7.258l68.571 9.961a13.277 13.277 0 017.356 22.654l-49.618 48.36a13.302 13.302 0 00-3.817 11.749l19.815 72.522c.521 9.414-14.255 15.818-27.36 9.764l-61.331-32.237a13.224 13.224 0 00-12.35 0l-61.331 32.237a13.273 13.273 0 01-18.47-6.75 13.278 13.278 0 01-.788-7.244l11.677-68.265a13.299 13.299 0 00-3.809-11.785l-49.591-48.351a13.278 13.278 0 017.375-22.654l68.57-9.961a13.263 13.263 0 009.989-7.258l29.812-60.396c3.709-7.518 8.218-10.482 22.455-10.482 4.68 0-.251 3.808 2.183 8.74z" fill="#941759"/><path opacity=".3" d="M307.625 89.714l30.665 62.139a13.29 13.29 0 009.997 7.258l68.571 9.961a13.277 13.277 0 017.356 22.654l-49.618 48.36a13.302 13.302 0 00-3.817 11.749l19.815 72.522c.521 9.414-14.255 15.818-27.36 9.764l-61.331-32.237a13.224 13.224 0 00-12.35 0l-61.331 32.237a13.273 13.273 0 01-18.47-6.75 13.278 13.278 0 01-.788-7.244l11.677-68.265a13.299 13.299 0 00-3.809-11.785l-49.591-48.351a13.278 13.278 0 017.375-22.654l68.57-9.961a13.263 13.263 0 009.989-7.258l29.812-60.396c3.709-7.518 8.218-10.482 22.455-10.482 4.68 0-.251 3.808 2.183 8.74z" fill="#333945"/><path d="M224.71 239.017a22.54 22.54 0 01-4.438.728 21.848 21.848 0 01-4.491.269 22.168 22.168 0 014.437-.736 21.382 21.382 0 014.492-.261zm1.394 5.803a6.518 6.518 0 01-2.416.512c-.813.16-1.649.16-2.461 0a6.84 6.84 0 012.416-.503 6.698 6.698 0 012.461-.009zm-5.681-10.806a26.542 26.542 0 01-4.868.782 26.59 26.59 0 01-4.922.323 24.827 24.827 0 014.868-.781 26.592 26.592 0 014.922-.324zm-4.812-4.787a24.84 24.84 0 01-4.868.781 26.69 26.69 0 01-4.923.324 24.765 24.765 0 014.869-.782 26.59 26.59 0 014.922-.323zm-4.805-4.788a24.83 24.83 0 01-4.868.782 26.59 26.59 0 01-4.922.323 26.542 26.542 0 014.868-.782 26.59 26.59 0 014.922-.323zm-4.804-4.788a25.156 25.156 0 01-4.869.791 26.94 26.94 0 01-4.922.314 26.554 26.554 0 014.868-.781 26.69 26.69 0 014.923-.324zm-4.809-4.787a25.156 25.156 0 01-4.868.79c-1.628.255-3.276.36-4.923.315a26.553 26.553 0 014.869-.782 26.59 26.59 0 014.922-.323zm-4.805-4.778a26.554 26.554 0 01-4.868.781c-1.627.26-3.275.365-4.922.314a26.54 26.54 0 014.868-.781 25.193 25.193 0 014.922-.314zm-4.804-4.788a26.466 26.466 0 01-4.869.781 25.994 25.994 0 01-4.922.315 26.556 26.556 0 014.868-.782 25.28 25.28 0 014.923-.314zm-4.805-4.788a26.556 26.556 0 01-4.868.782 25.28 25.28 0 01-4.923.314 26.551 26.551 0 014.869-.781 25.189 25.189 0 014.922-.315zm-14.122-20.812a21.897 21.897 0 01-4.554.431 21.768 21.768 0 01-4.572-.044 23.129 23.129 0 014.554-.423 22.978 22.978 0 014.572.036zm1.482-5.101a19.207 19.207 0 01-4.293.125 20.303 20.303 0 01-4.276-.341 19.214 19.214 0 014.294-.126 20.294 20.294 0 014.275.342zm4.673-4.815c-1.114.261-2.26.364-3.404.306a12.22 12.22 0 01-3.404-.171c1.113-.25 2.255-.35 3.395-.297a12.97 12.97 0 013.413.162zm3.162 25.941a26.554 26.554 0 01-4.868.781 25.194 25.194 0 01-4.922.315 26.542 26.542 0 014.868-.782 25.193 25.193 0 014.922-.314zm-4.268-5.156a25.57 25.57 0 01-4.877.79c-1.628.255-3.276.36-4.923.315a26.553 26.553 0 014.869-.782c1.63-.26 3.281-.368 4.931-.323zm-3.988-5.129a26.352 26.352 0 01-4.85.782c-1.618.26-3.257.365-4.895.314a26.341 26.341 0 014.841-.782 26.834 26.834 0 014.904-.314zm194.914 142.377a22.134 22.134 0 01-3.961 2.111 21.756 21.756 0 01-4.159 1.689 43.232 43.232 0 018.084-3.8h.036zm3.161 5.058a6.744 6.744 0 01-2.12 1.248 6.61 6.61 0 01-2.318.826 12.99 12.99 0 014.438-2.074zm-8.845-8.417a26.549 26.549 0 01-4.366 2.3 25.679 25.679 0 01-4.562 1.877 52.198 52.198 0 018.928-4.177zm-6.082-3a51.428 51.428 0 01-8.928 4.186 26.052 26.052 0 014.365-2.309 26.476 26.476 0 014.563-1.877zm-6.09-2.991a25.718 25.718 0 01-4.365 2.3 26.135 26.135 0 01-4.563 1.886 51.428 51.428 0 018.928-4.186zm-6.082-3a51.428 51.428 0 01-8.928 4.186 53.19 53.19 0 018.928-4.186zm-6.09-2.991a26.13 26.13 0 01-4.365 2.309 26.476 26.476 0 01-4.563 1.877 26.09 26.09 0 014.365-2.309 26.476 26.476 0 014.563-1.877zm-6.09-2.991a51.388 51.388 0 01-8.928 4.177 26.972 26.972 0 014.365-2.3 25.946 25.946 0 014.563-1.877zm-6.097-3a51.403 51.403 0 01-8.929 4.186 25.69 25.69 0 014.366-2.3 26.103 26.103 0 014.563-1.886zm-6.075-2.991a25.785 25.785 0 01-4.365 2.299 26.058 26.058 0 01-4.563 1.886 51.35 51.35 0 018.928-4.185zm-6.078-2.992a52.158 52.158 0 01-8.928 4.177c1.38-.9 2.842-1.67 4.365-2.299a25.662 25.662 0 014.563-1.878zm-5.707-3.511a26.16 26.16 0 01-4.365 2.308 26.48 26.48 0 01-4.563 1.878 51.354 51.354 0 018.928-4.186zm-7.472-2.596a6.633 6.633 0 01-2.129 1.257 6.76 6.76 0 01-2.335.835 6.62 6.62 0 012.138-1.257 6.754 6.754 0 012.326-.835z" fill="#941759"/><path d="M317.29 88.376l30.683 62.13a13.243 13.243 0 009.989 7.258l68.57 9.97a13.27 13.27 0 0110.718 9.03 13.264 13.264 0 01-3.361 13.605l-49.618 48.37a13.27 13.27 0 00-3.818 11.749l11.677 68.265a13.264 13.264 0 01-12.11 15.478 13.268 13.268 0 01-7.13-1.484l-61.331-32.237a13.224 13.224 0 00-12.35 0l-61.331 32.237a13.266 13.266 0 01-19.249-13.967l11.677-68.266a13.27 13.27 0 00-3.817-11.748l-49.618-48.37a13.263 13.263 0 01-3.362-13.605 13.265 13.265 0 0110.718-9.03l68.571-9.97a13.248 13.248 0 005.892-2.393 13.25 13.25 0 004.096-4.865l30.665-62.13a13.275 13.275 0 0123.839-.027z" fill="url(#paint6_linear_7945_48926)"/><path opacity=".3" d="M384.448 201.426c-1.248-10.194-2.802-20.713-8.281-29.407-5.479-8.695-15.944-15.073-25.914-12.629-1.796 10.626-3.763 21.907 2.291 30.836 1.392 2.057 3.197 3.943 3.817 6.35.665 2.614-.18 5.335-.808 7.949-4.77 19.564 1.796 39.908 8.299 58.969 7.096 20.812 14.462 42.117 28.402 59.112-.108-5.147-.988-9.027-1.626-12.908-1.015-6.161-2.066-11.937-3.449-19.994-1.581-9.234-5.389-29.336-6.791-39.747a13.591 13.591 0 011.168-7.527 16.969 16.969 0 013.961-4.895l1.797-1.716c-1.177-15.727-.952-18.763-2.866-34.393z" fill="#333945"/><path d="M259.705 154.261a21.816 21.816 0 01-2.066-3.988 21.384 21.384 0 01-1.635-4.186 21.846 21.846 0 012.066 3.988 21.447 21.447 0 011.635 4.186zm-5.093 3.117a6.704 6.704 0 01-1.222-2.138 6.6 6.6 0 01-.808-2.326 6.295 6.295 0 011.231 2.137c.408.72.679 1.508.799 2.327zm8.524-8.767a26.23 26.23 0 01-2.246-4.392 24.726 24.726 0 01-1.796-4.59 26.225 26.225 0 012.245 4.392 26.426 26.426 0 011.797 4.59zm3.099-6.027a25.901 25.901 0 01-2.255-4.392 26.444 26.444 0 01-1.796-4.581 26.69 26.69 0 012.254 4.392 26.528 26.528 0 011.797 4.581zm3.037-6.045a26.3 26.3 0 01-2.245-4.392 26.458 26.458 0 01-1.797-4.59 26.23 26.23 0 012.246 4.392 26.343 26.343 0 011.796 4.59zm3.072-6.045a27.172 27.172 0 01-2.255-4.392 26.728 26.728 0 01-1.796-4.59 25.864 25.864 0 012.255 4.392 26.422 26.422 0 011.796 4.59zm3.07-6.054a25.089 25.089 0 01-2.254-4.393 26.772 26.772 0 01-1.797-4.581 25.83 25.83 0 012.246 4.393 26.04 26.04 0 011.805 4.581zm3.062-6.045a26.23 26.23 0 01-2.246-4.392 25.56 25.56 0 01-1.796-4.59 26.3 26.3 0 012.245 4.392 26.395 26.395 0 011.797 4.59zm3.075-6.055a26.617 26.617 0 01-2.255-4.392 26.493 26.493 0 01-1.796-4.581 26.656 26.656 0 012.255 4.392 26.524 26.524 0 011.796 4.581zm3.061-6.044a26.18 26.18 0 01-2.21-4.393 26.4 26.4 0 01-1.797-4.59 26.208 26.208 0 012.246 4.393 25.562 25.562 0 011.761 4.59zm3.071-6.054a26.238 26.238 0 01-2.246-4.392 26.097 26.097 0 01-1.796-4.581 25.072 25.072 0 012.254 4.392 26.49 26.49 0 011.788 4.581zm3.578-5.65a26.229 26.229 0 01-2.246-4.393 26.339 26.339 0 01-1.796-4.59 26.224 26.224 0 012.245 4.393 25.54 25.54 0 011.797 4.59zm2.692-7.447a6.512 6.512 0 01-1.24-2.146 6.776 6.776 0 01-.799-2.345c.551.645.98 1.385 1.267 2.183a6.9 6.9 0 01.772 2.308z" fill="#941759"/><path d="M296.557 92.454c.117.063-6.898 14.084-15.665 31.321-8.767 17.237-15.961 31.123-16.078 31.123-.117 0 6.898-14.075 15.665-31.321 8.767-17.246 15.961-31.177 16.078-31.123zm-46.489 71.543s-.261.054-.755.126l-2.191.288-8.039.952-26.525 3.009-14.587 1.563c-2.246.242-4.383.458-6.351.826-1.823.313-3.598.86-5.281 1.626a12.21 12.21 0 00-5.749 5.389c-.42.891-.722 1.833-.898 2.803a.598.598 0 010-.198c0-.135 0-.323.063-.575a8.697 8.697 0 01.665-2.111 12.146 12.146 0 015.766-5.596 21.429 21.429 0 015.39-1.706c1.985-.395 4.131-.629 6.377-.898l14.614-1.617 26.57-2.848 8.084-.808 2.191-.198c.218-.027.437-.036.656-.027zm116.176 161.645c-.063.108-8.811-4.707-19.545-10.779-10.734-6.072-19.375-11.057-19.312-11.173.063-.117 8.812 4.706 19.545 10.778 10.734 6.072 19.375 11.093 19.312 11.174zm-51.272-28.824a25.501 25.501 0 00-4.491-1.446 24.02 24.02 0 00-11.291.718 52.385 52.385 0 00-10.5 4.707l-3.045 1.724a6.496 6.496 0 01-1.141.584 7.16 7.16 0 011.051-.745 90.194 90.194 0 012.964-1.842 46.837 46.837 0 0110.491-4.85 23.179 23.179 0 0111.489-.602c1.146.257 2.26.64 3.323 1.141.292.129.574.279.844.449.216.108.315.162.306.162zM434.603 139.97l9.809-3.036a26.207 26.207 0 0040.582-23.643 26.211 26.211 0 10-47.364 17.158l-3.027 9.521z" fill="#fff"/><path d="M434.602 139.97s.045-.198.171-.602l.548-1.796 2.191-7.186a.109.109 0 01.135-.072l-.152.144a26.044 26.044 0 01-4.887-12.333 26.416 26.416 0 013.988-17.344 26.731 26.731 0 017.303-7.519 26.292 26.292 0 0110.437-4.24 26.894 26.894 0 0111.911.737 27.743 27.743 0 015.721 2.435 27.612 27.612 0 019.054 8.712 27.759 27.759 0 012.695 5.596 26.66 26.66 0 011.213 11.812 25.813 25.813 0 01-3.755 10.572 26.432 26.432 0 01-15.782 11.641 26.76 26.76 0 01-8.47.772 26.045 26.045 0 01-12.575-4.302h.09l-7.366 2.237-1.868.556-.611.18 9.782-3.18a.087.087 0 01.045-.013.09.09 0 01.045.013 26.162 26.162 0 0012.476 4.168 27.182 27.182 0 008.354-.799 26.522 26.522 0 008.497-3.997 26.15 26.15 0 007.015-7.501 25.466 25.466 0 003.683-10.401c.471-3.91.057-7.877-1.213-11.605a26.458 26.458 0 00-11.506-14.057 27.262 27.262 0 00-5.623-2.39 26.498 26.498 0 00-11.677-.745 26.112 26.112 0 00-17.488 11.542 25.945 25.945 0 00.736 29.336.12.12 0 01.01.072.12.12 0 01-.035.063.116.116 0 01-.065.031.113.113 0 01-.072-.013l.171-.045c-1.976 5.991-2.901 8.82-3.126 9.521z" fill="#333945"/><path d="M464.021 122.437l.233-10.599s-2.326-.512-4.338-3.728a17.69 17.69 0 01-2.156-4.77 1.193 1.193 0 00-1.257-.898 1.854 1.854 0 00-1.626 1.123c-.746 1.599.252 5.551.252 5.551s.413.799-.692.772l-3.934-.089a2.162 2.162 0 00-1.411.476 1.572 1.572 0 00-.61 1.374c.089 1.5.898 2.192.853 2.506a2.835 2.835 0 00-.162 1.796c.297.899.494.845.485 1.276a7.21 7.21 0 00.306 2.218c.129.365.323.703.575.998a5.43 5.43 0 00.224 2.254c.377.835 2.021 1.302 2.569 1.311.548.009 4.491-.682 5.623-.898 1.132-.215 3.997-1.203 5.066-.673zm2-10.795l-.244 10.893 4.05.09.244-10.893-4.05-.09z" fill="#941759"/><path d="M166.622 226.307H90.273v40.375h56.139c1.662 2.551 5.174 8.363 5.174 8.363l4.042-8.363h10.994v-40.375z" fill="#F0F0F0"/><path d="M166.624 226.307v10.806c0 7.006.053 17.111.089 29.57v.17h-11.165l.171-.108c-1.266 2.623-2.623 5.453-4.033 8.363l-.162.332-.188-.314-5.174-8.345.171.09H89.996v-40.824h.216l55.034.09 15.764.072h5.245-5.299l-15.746.071-54.971.09.215-.215v40.375l-.233-.234h56.273l.063.099c1.797 2.91 3.593 5.74 5.165 8.372h-.35c1.41-2.911 2.775-5.74 4.051-8.363l.054-.108h11.111l-.18.18c0-12.414.072-22.456.099-29.471v-10.186c0-.485.117-.512.117-.512z" fill="#333945"/><path d="M108.088 246.185a3.586 3.586 0 001.565-1.31 3.583 3.583 0 00.6-1.95 3.356 3.356 0 00-4.636-3.318 3.368 3.368 0 00-2.074 3.228 3.594 3.594 0 002.102 3.359c-5.165.737-4.976 6.351-4.976 6.351l12.207.161s.323-5.712-4.788-6.521z" fill="#941759"/><path d="M155.971 240.482c0 .071-7.788.134-17.39.134s-17.39-.063-17.39-.134c0-.072 7.788-.144 17.39-.144s17.39.063 17.39.144zm0 4.158c0 .081-7.788.144-17.39.144s-17.39-.063-17.39-.144c0-.081 7.788-.135 17.39-.135s17.39.063 17.39.135zm0 4.168c0 .072-7.788.134-17.39.134s-17.39-.062-17.39-.134c0-.072 7.788-.144 17.39-.144s17.39.063 17.39.144zm-13.986 5.263c0 .081-4.653.144-10.392.144-5.74 0-10.402-.063-10.402-.144 0-.08 4.653-.143 10.402-.143 5.748 0 10.392.063 10.392.143z" fill="#333945"/><path d="M361.168 197.708c-.665-1.087 4.419-5.389 12.575-12.018l6.682-5.47a34.535 34.535 0 019.468-5.875 23.302 23.302 0 0113.249-.898 22.298 22.298 0 016.718 2.695 17.845 17.845 0 015.74 5.479c.441.664.814 1.372 1.114 2.111a8.087 8.087 0 01.611 3.305 6.947 6.947 0 01-1.474 4.024 6.473 6.473 0 01-1.958 1.644c-.421.225-.867.4-1.329.521a5.87 5.87 0 01-1.311.197 7.01 7.01 0 01-3.8-.988c-.728-.431-1.123-.727-1.338-.898-.216-.17-.144-.081-.081-.054a.85.85 0 00.233.054c.153 0 .153 0 0 0-.731.133-1.451.319-2.155.557-.592.166-1.191.301-1.797.404-.611.09-1.23.171-1.796.198a31.845 31.845 0 01-6.153-.386 45.547 45.547 0 00-4.617-.512 11.411 11.411 0 00-3.593.404 32.36 32.36 0 00-6.979 3.368 39.922 39.922 0 01-6.818 3.422 16.518 16.518 0 01-6.009 1.096 8.08 8.08 0 01-3.808-.898c-.782-.458-1.078-.898-.979-1.186.215-.655 1.877-.494 4.329-1.383a20.05 20.05 0 004.276-2.165 58.657 58.657 0 005.389-4.122 32.878 32.878 0 018.084-5.174 18.261 18.261 0 015.928-1.285 43.753 43.753 0 015.632.171c1.537.162 3.086.184 4.626.063.332 0 .629-.09.943-.144.315-.054.539-.126.898-.242 1.082-.39 2.194-.69 3.324-.899a8.612 8.612 0 012.883 0 7.661 7.661 0 011.617.477c.419.169.824.37 1.213.601.619.378 1.024.647 1.149.701v.09l-.215.458c-.177.358-.33.727-.458 1.105a4.23 4.23 0 00-.171.664 1.097 1.097 0 000 .243c-.054-.207.072.269.063.215-.009-.053 0 0 0-.071a1.122 1.122 0 00-.305-.342 1.11 1.11 0 00-.297-.179h.153-.566a2.85 2.85 0 00-.764.08 5.586 5.586 0 00-.646.171l-.198.063a3.586 3.586 0 00-.314-.557c-1.321-2.084-4.078-3.745-6.926-4.491a15.885 15.885 0 00-8.488.135 31.126 31.126 0 00-7.769 4.06c-2.596 1.706-5.129 3.305-7.447 4.661-9.413 5.489-15.71 7.851-16.338 6.8z" fill="#AFDD44"/><path d="M421.331 351.332l-10.339 15.548s12.279 15.71 10.653 18.764l-30.782-18.971 15.117-24.809 15.351 9.468z" fill="#941759"/><path opacity=".3" d="M421.331 351.332l-10.339 15.548s12.279 15.71 10.653 18.764l-30.782-18.971 15.117-24.809 15.351 9.468z" fill="#333945"/><path d="M402.296 359.631a1.486 1.486 0 00-1.074.098c-.332.167-.59.452-.722.8a1.426 1.426 0 00.898 1.752c.372.095.767.05 1.109-.127.341-.178.605-.475.741-.835a1.474 1.474 0 00-1.114-1.715" fill="#F0F0F0"/><path opacity=".6" d="M390.863 366.628l1.626-2.443 28.896 19.105s1.006 1.437.26 2.309l-30.782-18.971z" fill="#fff"/><path d="M411.585 366.979c-.098.152-.898-.243-1.931-.216-1.033.027-1.796.413-1.922.27-.126-.144.656-.899 1.913-.899 1.258 0 2.102.746 1.94.845zm2.409 3.332c-.063.162-.898 0-1.797.341-.898.342-1.464.899-1.607.8-.144-.099.278-1.006 1.41-1.383 1.132-.378 2.075.089 1.994.242zm-.55 4.994c-.161-.054.09-.898.988-1.518.899-.62 1.797-.485 1.797-.314 0 .17-.728.332-1.446.826-.719.494-1.186 1.078-1.339 1.006zm.1-12.117c-.153.099-.71-.53-1.599-.997-.889-.467-1.716-.611-1.707-.782.009-.17.961-.323 2.003.243 1.042.566 1.455 1.464 1.303 1.536zm2.031-3.162c0 .063-.682-.215-1.536-.961a8.15 8.15 0 01-1.302-1.491 8.495 8.495 0 01-.602-1.015 2.418 2.418 0 01-.242-.647.768.768 0 01.431-.844.98.98 0 01.898.063c.196.118.372.267.521.44.283.274.539.575.763.898a6.44 6.44 0 01.845 1.797c.221.572.268 1.197.135 1.796-.099 0-.162-.673-.548-1.67a7.457 7.457 0 00-.899-1.626 6.727 6.727 0 00-.718-.818c-.27-.287-.548-.458-.719-.368-.17.09-.081.063-.072.198.036.167.096.327.18.476.162.341.341.664.521.97.335.527.717 1.023 1.141 1.482.7.835 1.257 1.24 1.203 1.32z" fill="#333945"/><path d="M415.25 360.116c-.072 0 0-.727.512-1.733a5.763 5.763 0 012.219-2.255 1.467 1.467 0 011.464-.171c.13.092.234.217.301.362a.907.907 0 01.076.465 2.448 2.448 0 01-.189.655 4.433 4.433 0 01-.637 1.042 4.139 4.139 0 01-1.644 1.186c-1.096.431-1.797.225-1.797.162a14.437 14.437 0 001.635-.557 4.136 4.136 0 001.384-1.15c.213-.273.385-.576.512-.898.161-.351.197-.692.053-.737a1.06 1.06 0 00-.445-.008 1.06 1.06 0 00-.408.179 6.368 6.368 0 00-.898.602 6.36 6.36 0 00-1.249 1.356c-.61.871-.799 1.527-.889 1.5z" fill="#333945"/><path d="M418.485 354.601l3.359 18.324s19.761 2.695 20.713 6.063l-35.3 7.796-6.413-28.339 17.641-3.844z" fill="#941759"/><path d="M410.587 373.805a1.48 1.48 0 00-.628 1.868 1.417 1.417 0 001.841.647 1.576 1.576 0 00.665-1.985 1.491 1.491 0 00-1.994-.458" fill="#F0F0F0"/><path opacity=".6" d="M407.258 386.785l-.539-2.884 34.051-6.395s1.716.341 1.797 1.482l-35.309 7.797z" fill="#fff"/><path d="M422.374 372.619c0 .171-.808.441-1.536 1.186-.727.746-1.015 1.563-1.186 1.536-.17-.027-.143-1.087.755-1.976s1.976-.907 1.967-.746zm4.041.719c.081.152-.602.611-1.024 1.473-.422.862-.422 1.662-.602 1.697-.179.036-.494-.898.054-1.976.548-1.078 1.536-1.365 1.572-1.194zm3.08 3.961c-.143.072-.575-.736-.341-1.796.234-1.06.961-1.59 1.06-1.464.099.125-.279.736-.458 1.599-.18.862-.045 1.607-.261 1.661zm-8.345-8.766c-.044.17-.898.107-1.841.386-.943.278-1.653.754-1.796.629-.144-.126.476-.899 1.607-1.222 1.132-.323 2.084.045 2.03.207zm-.751-3.692a3.341 3.341 0 01-1.797.386 7.826 7.826 0 01-1.967-.162 8.527 8.527 0 01-1.141-.314 2.539 2.539 0 01-.619-.297.777.777 0 01-.288-.898.978.978 0 01.674-.566c.223-.052.454-.07.683-.054.395.007.789.052 1.176.135a6.316 6.316 0 011.868.71c.989.575 1.411 1.158 1.357 1.203-.054.045-.584-.377-1.554-.817a7.521 7.521 0 00-1.797-.539 7.051 7.051 0 00-1.086-.09c-.396 0-.719.054-.773.243-.054.188 0 .099.081.188.144.09.298.162.458.216.343.13.694.238 1.051.323a9.73 9.73 0 001.859.279 13.744 13.744 0 011.815.054z" fill="#333945"/><path d="M420.233 365.137c-.062.045-.538-.503-.844-1.599a5.958 5.958 0 01-.189-1.994c.03-.396.103-.787.216-1.168a1.498 1.498 0 01.898-1.14.906.906 0 01.854.323c.135.188.244.393.323.611a4.182 4.182 0 01-.09 3.18c-.485 1.068-1.159 1.437-1.186 1.383-.026-.054.45-.539.782-1.536a4.195 4.195 0 00.189-1.797 3.833 3.833 0 00-.252-1.015c-.144-.359-.35-.628-.485-.565-.135.062-.404.386-.485.718a5.114 5.114 0 00-.225 1.051 6.527 6.527 0 00.045 1.841c.207 1.06.53 1.653.449 1.707z" fill="#333945"/><path d="M411.467 201.867l42.962 66.28c4.096 6 6.423 12.171 5.812 19.294a27.558 27.558 0 01-4.599 12.79l-35.031 61.25-17.488-17.884 25.815-54.549-24.629-33.162-13.079-54.019h20.237z" fill="#333945"/><path d="M423.855 367.517l-21.629-149.554-1.204-15.171-37.016-2.003s-5.973 19.168-6.467 29.094c-.494 9.925 22.025 62.678 22.025 62.678l5.236 26.389 15.01 53.535 24.045-4.968z" fill="#333945"/><path d="M398.03 125.725c.764.134 8.138 3.233 11.48 4.643a4.85 4.85 0 012.434 2.291l16.437 33.18-12.709 8.821s1.491 25.914-1.797 27.225c-1.23.485-45.666.404-45.666.404s-4.805 1.707-6.521 0c-1.329-1.311-.817-3.871-.817-3.871v-54.1l-2.398-14.893s22.931-6.638 39.557-3.7z" fill="url(#paint7_linear_7945_48926)"/><path d="M365.962 140.626c2.531 9.874 2.031 27.374 2.031 27.374l-22.87 2c0-.145-1.586-34.705 13.365-40.5 0 0 6.075 5.67 7.474 11.126z" fill="url(#paint8_linear_7945_48926)"/><path d="M414.719 170.034c-.135-.899-.288-1.887-.53-3.53-.351-2.426-.8-5.578-1.303-9.055-.503-3.476-.898-6.619-1.275-9.054-.144-1.077-.27-1.994-.378-2.748a4.071 4.071 0 01-.08-1.015c.132.313.222.642.269.979.135.647.323 1.572.521 2.695.413 2.308.898 5.506 1.419 9.045.521 3.539.898 6.745 1.159 9.081.135 1.158.215 2.102.26 2.757v.881s0 .08-.08 0c.009-.009.009-.036.018-.036z" fill="#333945"/><path opacity=".3" d="M413.257 185.385a11.673 11.673 0 00-6.423-6.71 21.881 21.881 0 00-9.332-1.635 30.439 30.439 0 00-15.854 4.365c-7.033 4.492-11.74 12.333-19.473 15.414l-.952 1.356a31.547 31.547 0 0017.246-4.123c3.395-1.949 6.467-4.554 10.176-5.82 3.279-1.114 6.818-1.096 10.276-1.069 3.27 0 6.755.126 9.467 1.949a5.578 5.578 0 002.542 1.312 2.627 2.627 0 002.462-1.797 5.005 5.005 0 00-.135-3.242z" fill="#333945"/><path d="M403.314 166.746l2.749-6.943a1.794 1.794 0 011.706-1.168h13.042a1.32 1.32 0 011.24 1.797l-8.372 22.689a.682.682 0 01-.637.449h-15.441a.686.686 0 01-.656-.584.67.67 0 01.028-.314l6.341-15.926z" fill="#333945"/><path d="M419.687 181.154l1.545-8.444-1.276-6.647-2.039 5.534v2.236c-.754-.197-7.751-6.126-9.629-4.85-1.877 1.275-6.683 8.281-6.683 8.281s8.453 8.264 9.809 8.884c0 0 .449 5.218.512 7.913.054 2.291.485 3.162 3.458 4.159 2.973.997 6.746-4.186 6.746-8.812 0-2.883-2.443-8.254-2.443-8.254z" fill="#FFBE9D"/><path d="M365.229 168.372l.737 8.874 21.369-7.805 9.512-4.401 4.159 1.041s13.087.899 13.203 1.689c.117.791.71 1.545 0 1.671-.709.126-11.057.593-11.057.593s11.156.709 11.399 1.545c.242.835-.108 2.137-.701 2.137h-12.126s11.417.719 11.533 1.195c.117.476.952 1.302-.116 1.662-1.069.359-11.534.709-11.534.709l9.881 1.797s.359 1.545-.467 1.545c-.827 0-22.366 1.428-22.366 1.428s-25.204 16.078-29.965 17.246c-4.76 1.168-8.919-4.339-9.512-8.228-.898-5.865-1.698-21.135-1.698-21.135l17.749-1.563z" fill="#FFBE9D"/><path d="M388.637 182.025l.44-.054 1.284-.108 4.932-.359 7.796-.539 4.86-.332 2.694-.18c.418.025.833-.082 1.186-.305.207-.216-.117-.683-.431-.961l.09.045-9.881-1.797a.207.207 0 01-.164-.202.207.207 0 01.164-.202l5.848-.26 3.045-.18c.521 0 1.033-.081 1.554-.135.521-.054 1.077-.063 1.356-.341.278-.279.135-.844-.18-1.033a4.723 4.723 0 00-.709-.117l-.8-.099-3.269-.341-6.746-.629a.222.222 0 01-.199-.161.228.228 0 01-.008-.09.22.22 0 01.073-.156.205.205 0 01.074-.046.234.234 0 01.087-.014h12.072c.162 0 .35-.197.467-.44a1.043 1.043 0 00-.242-1.392 6.56 6.56 0 00-1.285-.279l-1.383-.197-2.767-.333-5.461-.566a.235.235 0 01-.16-.086.24.24 0 01-.055-.174.263.263 0 01.224-.216l7.042-.332 3.423-.198c.243.002.486-.034.718-.107a.52.52 0 00.189-.521 1.013 1.013 0 00-.315-.584 1.57 1.57 0 00-.664-.261c-2.129-.44-4.312-.646-6.396-.898-2.084-.251-4.15-.431-6.144-.611l-4.167-1.06h.134l-9.521 4.375-15.656 5.641-4.266 1.509-1.114.386a2.17 2.17 0 01-.386.108c.118-.063.241-.117.368-.162l1.096-.422 4.239-1.599 15.549-5.74 9.503-4.419a.169.169 0 01.063-.013c.021 0 .043.005.063.013l4.167 1.042c1.994.171 4.051.368 6.153.584 2.102.215 4.258.44 6.467.898.311.051.604.178.854.368.26.232.424.552.458.899a.976.976 0 01-.395.97 2.347 2.347 0 01-.899.17l-3.431.207-7.042.341v-.476l5.47.566 2.767.332 1.401.198a5.97 5.97 0 011.455.341 1.29 1.29 0 01.62.952 1.93 1.93 0 01-.189 1.06 1.537 1.537 0 01-.314.458.767.767 0 01-.584.261h-12.135v-.476l6.746.638 3.269.35.809.099c.305.017.607.075.898.17a1.2 1.2 0 01.548.809 1.022 1.022 0 01-.27.898 1.507 1.507 0 01-.835.377c-.261 0-.53.072-.79.09-.53.054-1.051.09-1.563.126l-3.063.18-5.857.233v-.404l9.881 1.796a.159.159 0 01.081 0c.19.176.353.379.485.602a.765.765 0 010 .898 2.123 2.123 0 01-1.42.423l-2.694.161-4.869.288-7.796.458-4.941.269-1.293.054a2.597 2.597 0 01-.413-.036zm-29.453 5.3a5.476 5.476 0 01.162-1.869 12.036 12.036 0 011.707-4.203 11.49 11.49 0 013.233-3.18 5.364 5.364 0 011.68-.844c.117.152-2.578 1.401-4.491 4.293a14.048 14.048 0 00-1.797 4.015 10.483 10.483 0 01-.494 1.788z" fill="#EB996E"/><path d="M414.1 164.393a1.136 1.136 0 01-.141 1.28 1.143 1.143 0 01-1.244.333 1.139 1.139 0 01-.583-1.689c.123-.194.302-.346.513-.436a1.094 1.094 0 011.455.512z" fill="#DADADA"/><path d="M416.626 172.998c.099-.447.234-.886.404-1.311l1.266-3.513 1.923-5.182c.188-.494.377-.988.565-1.5.189-.512.512-1.105.369-1.428-.063-.135-.27-.207-.539-.189h-12.441a1.02 1.02 0 00-1.015.422c-.17.323-.323.764-.476 1.105a652.128 652.128 0 01-1.446 3.449 8.602 8.602 0 01-.584 1.24c.107-.445.248-.881.423-1.303l1.311-3.503c.138-.4.297-.793.476-1.177.139-.214.335-.385.566-.494.237-.094.491-.134.745-.116h12.432a.895.895 0 01.943.44 1.245 1.245 0 01-.054.979l-.296.772-.584 1.491-2.021 5.165c-.566 1.41-1.033 2.578-1.401 3.467a7.206 7.206 0 01-.566 1.186z" fill="#9FBD55"/><path d="M379.088 74.472c-2.192-1.392-2.695-4.608-1.536-6.907a8.45 8.45 0 016.287-4.105 11.881 11.881 0 0110.222 3.413c1.41 1.455 2.551 3.35 4.491 4.015 1.68.584 3.539.054 5.3.278a8.082 8.082 0 015.605 4.042 17.265 17.265 0 011.994 6.818c.26 2.174.422 4.554 1.931 6.144 1.509 1.59 3.799 1.877 5.623 2.973a7.698 7.698 0 012.29 10.509c-.727 1.06-1.796 2.021-1.85 3.306-.054 1.284.674 2.2 1.033 3.314a5.196 5.196 0 01-.758 4.234 5.203 5.203 0 01-3.688 2.215c-1.518.09-3.144-.503-4.491.171-1.348.674-1.851 2.308-2.695 3.539a6.492 6.492 0 01-3.593 2.428 6.494 6.494 0 01-4.32-.38c-1.114-.548-2.174-1.446-3.414-1.365-1.239.08-2.209 1.14-3.422 1.374-1.599.305-3.108-.898-4.06-2.183-.952-1.284-1.608-2.874-2.82-3.952-1.581-1.41-3.818-1.796-5.821-2.452a16.438 16.438 0 01-9.287-23.03" fill="#333945"/><path d="M402.192 103.026a4.557 4.557 0 011.796-1.167h-.144l.387-.063a1.795 1.795 0 011.383.17 3.27 3.27 0 011.796 1.563 3.854 3.854 0 01-.458 3.997 3.257 3.257 0 01-3.215 1.33 3.303 3.303 0 01-2.228-2.344 3.7 3.7 0 01.683-3.486z" fill="#9FBD55"/><path d="M373.374 126.255l-2.326-42.603a3.59 3.59 0 013.135-3.755l19.042-5.39c6.126-.826 10.429 6.63 10.994 12.783.629 6.835 1.123 15.207.45 20.344-1.339 10.321-9.18 11.857-9.18 11.857l.116 5.883-.619 16.052-21.612-15.171z" fill="#FFBE9D"/><path d="M401.561 96.209a1.311 1.311 0 01-1.23 1.365 1.264 1.264 0 01-.94-.28 1.265 1.265 0 01-.453-.87 1.321 1.321 0 011.231-1.365 1.259 1.259 0 011.392 1.15zm.962-4.519c-.152.18-1.176-.538-2.596-.493-1.419.044-2.434.79-2.595.62-.162-.171.08-.396.52-.737a3.595 3.595 0 012.075-.7 3.412 3.412 0 012.075.601c.44.323.602.629.521.71zm-14.066 4.519a1.315 1.315 0 01-1.24 1.365 1.255 1.255 0 01-1.392-1.15 1.33 1.33 0 011.239-1.365 1.268 1.268 0 011.393 1.15zm.134-3.863c-.162.18-1.186-.53-2.596-.485-1.41.045-2.443.782-2.596.611-.152-.17.072-.386.521-.727a3.664 3.664 0 012.075-.71 3.44 3.44 0 012.066.61c.449.324.602.63.53.701zm5.442 10.375a9.65 9.65 0 012.291-.476c.368-.054.7-.135.763-.377a1.888 1.888 0 00-.278-1.069 70.646 70.646 0 00-1.15-2.695c-1.599-3.88-2.767-7.078-2.605-7.14.162-.064 1.581 3.026 3.18 6.916.377.96.754 1.868 1.105 2.748.237.43.316.929.224 1.41a.892.892 0 01-.584.548 2.347 2.347 0 01-.61.108c-.775.11-1.56.119-2.336.027z" fill="#333945"/><path d="M395.49 119.482a26.23 26.23 0 01-13.869-3.279s3.539 6.961 13.806 5.713l.063-2.434zm-1.572-13.384a3.495 3.495 0 00-2.91-1.437 2.28 2.28 0 00-1.841 1.069 2.08 2.08 0 00.156 2.366 2.088 2.088 0 002.269.688 5.18 5.18 0 002.057-1.356c.181-.146.328-.33.431-.539a.723.723 0 00-.081-.719" fill="#EB996E"/><path d="M389.895 103.826c.225 0 .27 1.518 1.626 2.569 1.356 1.051 2.982.844 3 1.06.018.215-.359.305-1.051.35a3.883 3.883 0 01-2.506-.799 3.367 3.367 0 01-1.266-2.156c-.072-.647.089-1.033.197-1.024zm-.847-17.336c-.126.395-1.545.252-3.207.494-1.662.243-2.991.746-3.225.404-.098-.161.126-.53.656-.898a5.328 5.328 0 012.371-.898 5.243 5.243 0 012.524.224c.62.198.935.494.881.674zm12.819.333c-.243.332-1.222 0-2.399.044-1.176.045-2.164.27-2.407-.053-.099-.162.045-.494.467-.809a3.359 3.359 0 011.94-.584 3.308 3.308 0 011.932.593c.467.323.592.62.467.809z" fill="#333945"/><path d="M411.145 85.116a7.03 7.03 0 00-2.695-3.89c-.784-.4-1.545-.844-2.281-1.329-1.491-1.195-1.796-3.287-2.749-4.958a7.772 7.772 0 00-5.91-3.925c-2.039-.207-4.141.404-6.126-.1-1.464-.367-2.748-1.32-4.23-1.598-2.902-.557-5.587 1.527-7.689 3.593 0 2.075 1.644 3.458 3.233 4.787a7.191 7.191 0 005.821 1.537c1.581-.288 3.314-1.087 4.68-.243 1.365.844 1.5 3.054 2.775 4.159 1.797 1.59 4.734.099 7.051.79 1.797.53 2.901 2.237 4.096 3.683 1.195 1.446 2.964 2.802 4.752 2.272a20.44 20.44 0 00-.728-4.778z" fill="#333945"/><path d="M389.586 75.855c-1.356-.386-4.123-1.266-4.85-2.434a8.296 8.296 0 00-7.186-4.14 6.818 6.818 0 00-6.144 5.389 9.81 9.81 0 00-8.443 5.389c-.207.407-.387.827-.539 1.258a7.509 7.509 0 00-.503 6.287c.476 1.222 1.267 2.587.638 3.737-.629 1.15-2.255 1.203-3.512 1.634a4.95 4.95 0 00-3.126 5.543c.294.779.425 1.61.386 2.443a5.276 5.276 0 01-1.455 2.11 6.174 6.174 0 00.714 8.683 6.183 6.183 0 002.879 1.369 7.959 7.959 0 012.847.646c.952.593 1.375 1.743 2.048 2.641a5.336 5.336 0 005.767 1.797c.411-.14.801-.337 1.159-.584a3.824 3.824 0 003.395 1.5l-.386-22.609a1.852 1.852 0 001.365 1.07c3.593.826 4.159-6.657 3.35-8.687a20.64 20.64 0 003.638-3.826 15.145 15.145 0 001.671-7.338c1.311.09 6.889-1.752 6.287-1.878z" fill="#333945"/><path d="M374.723 97.97c-.108-2.201-2.802-2.695-4.716-1.573-1.042.611-1.796 1.797-1.751 4.168.26 6.234 6.467 4.689 6.467 4.491 0-.197.135-4.509 0-7.087z" fill="#FFBE9D"/><path d="M372.718 102.802s-.099.081-.279.171a1.101 1.101 0 01-.817.053 2.695 2.695 0 01-1.338-2.362 3.447 3.447 0 01.242-1.572 1.242 1.242 0 01.782-.898.548.548 0 01.646.27c.099.17.063.296.09.305.027.009.135-.108.072-.368a.686.686 0 00-.261-.378.805.805 0 00-.61-.134 1.545 1.545 0 00-1.096 1.015 3.826 3.826 0 00-.306 1.751c.099 1.258.791 2.407 1.698 2.632a1.162 1.162 0 00.988-.207c.189-.134.216-.278.189-.278z" fill="#EB996E"/><path d="M380.819 74.678a3.708 3.708 0 00-1.248 1.043 5.803 5.803 0 00-.458 4.31v.154l-.153.045a5.991 5.991 0 00-4.015 3.539 4.372 4.372 0 00-.323 1.518 8.82 8.82 0 00.188 1.643c.129.592.21 1.192.243 1.797a2.947 2.947 0 01-.494 1.841 7.576 7.576 0 01-3.099 2.326 10.537 10.537 0 00-2.892 1.896 7.776 7.776 0 00-2.327 5.227 8.169 8.169 0 00.818 3.854c.413.844.763 1.257.727 1.284a1.478 1.478 0 01-.26-.287 5.693 5.693 0 01-.62-.898 7.903 7.903 0 011.374-9.44 10.685 10.685 0 012.991-1.995 7.276 7.276 0 002.919-2.182c.692-.899.378-2.183.198-3.297a9.35 9.35 0 01-.189-1.733c.026-.57.148-1.132.36-1.662a6.28 6.28 0 014.32-3.71l-.117.198a5.822 5.822 0 01.629-4.491 2.64 2.64 0 01.979-.8c.306-.153.44-.197.449-.18zm-10.392 30.45a4.59 4.59 0 011.797-1.167h-.135c.127-.031.256-.052.386-.063a1.788 1.788 0 011.384.171 3.265 3.265 0 011.796 1.562c.298.644.413 1.358.333 2.063a3.87 3.87 0 01-.791 1.935 3.265 3.265 0 01-3.216 1.329 3.298 3.298 0 01-2.227-2.353 3.692 3.692 0 01-.109-1.825 3.697 3.697 0 01.782-1.652zm53.426 262.389c-.134 0-5.218-33.988-11.362-75.935s-11.021-75.999-10.887-76.017c.135-.018 5.21 33.98 11.354 75.945 6.144 41.965 11.021 75.989 10.895 76.007zM386.237 203.69c.014.27-.016.54-.09.8a12.112 12.112 0 01-.629 2.092 14.646 14.646 0 01-10.635 8.983c-.716.147-1.443.237-2.173.269a2.559 2.559 0 01-.8-.045c0-.081 1.141-.099 2.901-.548a15.397 15.397 0 0010.402-8.82c.736-1.626.943-2.749 1.024-2.731zm11.757 1.213a2.22 2.22 0 00-1.069.754 1.625 1.625 0 00-.242 1.294 1.475 1.475 0 001.975.798c.242-.11.451-.283.603-.502a1.63 1.63 0 00.054-1.311 2.218 2.218 0 00-.899-.979s.153 0 .396.063c.333.17.601.444.763.781a1.882 1.882 0 010 1.653 1.88 1.88 0 01-2.781.468 1.878 1.878 0 01-.596-.863 1.864 1.864 0 01.404-1.599c.226-.29.542-.495.898-.584.351-.045.494 0 .494.027zm38.994 81.065c0 .135-1.797.664-4.024 1.563-2.228.898-3.908 1.796-3.98 1.679a12.503 12.503 0 013.8-2.119 12.664 12.664 0 014.204-1.123z" fill="#9FBD55"/><path d="M367.843 157.45a3 3 0 01-.988-.27 9.837 9.837 0 01-2.408-1.455c-.898-.737-1.931-1.734-3.063-2.794a12.343 12.343 0 00-4.051-2.793 7.514 7.514 0 00-4.823 0 13.365 13.365 0 00-3.593 1.796c-1.913 1.339-3.009 2.309-3.063 2.246-.054-.063.234-.287.719-.737a26.29 26.29 0 012.146-1.796 13.204 13.204 0 013.683-1.967 7.762 7.762 0 015.111 0 12.287 12.287 0 014.204 2.919c1.114 1.087 2.075 2.102 2.964 2.847a12.59 12.59 0 003.162 2.004zm43.977-6.252s-.485-.467-1.428-1.195a13.766 13.766 0 00-4.491-2.227 12.888 12.888 0 00-7.33.072c-2.695.826-5.29 2.586-8.084 4.275a25.005 25.005 0 01-4.32 2.129 21.79 21.79 0 01-4.366 1.078c-2.508.33-5.044.378-7.563.143a74.08 74.08 0 01-5.066-.61l-1.365-.225a2.328 2.328 0 01-.467-.108 1.79 1.79 0 01.485 0l1.374.135c1.195.126 2.919.323 5.057.458a35.93 35.93 0 007.482-.233 21.951 21.951 0 004.267-1.087 25.281 25.281 0 004.249-2.102c2.784-1.671 5.389-3.449 8.209-4.285a13.148 13.148 0 0112.045 2.426c.358.296.694.617 1.006.961.117.119.22.252.306.395zm9.259-.296a2.744 2.744 0 01-.395 1.482 5.86 5.86 0 01-2.632 2.632 5.757 5.757 0 01-3.682.467 2.784 2.784 0 01-1.429-.593c0-.072.575.162 1.474.269a6.022 6.022 0 005.973-2.928c.476-.781.619-1.347.691-1.329z" fill="#fff"/><path d="M345 170.034a13.067 13.067 0 011.635-.251l4.491-.503c3.781-.405 8.982-.899 14.776-1.483l2.012-.188-.216.242c-.135-5.335-.233-10.087-.278-13.473v-4.024a9.061 9.061 0 01.054-1.473c.076.484.118.974.125 1.464.045 1.024.108 2.38.18 4.033.135 3.404.287 8.156.431 13.473v.216h-.224l-2.012.189c-5.776.556-11.004 1.033-14.794 1.347l-4.491.35c-.56.073-1.125.1-1.689.081z" fill="#333945"/><path d="M152.16 358.373l-19.464 10.931-17.875 4.213a2.28 2.28 0 00-1.459 1.091 2.284 2.284 0 001.271 3.31c4.491 1.464 20.991 6.423 22.078 5.929 1.725-.782 21.557-10.186 21.557-10.186l-6.108-15.288z" fill="#941759"/><path opacity=".6" d="M113.159 376.418l25.15 6.71-.827.44a3.643 3.643 0 01-2.353.333c-2.138-.467-8.003-1.896-20.488-5.929a2.286 2.286 0 01-1.5-1.554h.018zm29.372-.718a1.386 1.386 0 00-1.797.512 1.333 1.333 0 00.494 1.797 1.468 1.468 0 001.869-.557 1.384 1.384 0 00-.71-1.797" fill="#fff"/><path d="M130.459 375.431c.066-.915.066-1.834 0-2.749a18.51 18.51 0 00-.826-2.695 4.492 4.492 0 011.212 2.695 3.896 3.896 0 01-.386 2.749zm4.634-1.114c-.144 0-.27-1.312-.971-2.758-.7-1.446-1.643-2.38-1.545-2.488a5.641 5.641 0 012.516 5.246zm4.006-1.869a11.06 11.06 0 00-.899-2.901 10.752 10.752 0 00-2.048-2.263c0-.054.387 0 .899.341a4.953 4.953 0 011.58 1.68c.395.669.623 1.424.665 2.2-.027.593-.135.952-.197.943zm.064-4.212s.224-.207.727-.422a5.922 5.922 0 012.264-.45 2.61 2.61 0 011.625.405.895.895 0 01.306 1.006 1.526 1.526 0 01-.728.79 3.234 3.234 0 01-3.97-1.096 3.743 3.743 0 010-4.168 1.298 1.298 0 01.898-.565.895.895 0 01.899.61 3.238 3.238 0 010 1.653 6.6 6.6 0 01-.818 2.156c-.287.467-.494.683-.521.665.47-.904.803-1.873.988-2.875a2.902 2.902 0 000-1.446.473.473 0 00-.467-.332.906.906 0 00-.593.404 3.357 3.357 0 000 3.593 2.815 2.815 0 003.405.997c.23-.105.415-.29.521-.521a.507.507 0 00-.153-.566 2.4 2.4 0 00-1.365-.359 8.6 8.6 0 00-3.018.521z" fill="#333945"/><path d="M162.707 363.331l13.06 11.471s-7.275 17.12-5.066 19.473l23.138-24.521-19.608-18.701-11.524 12.278z" fill="#941759"/><path d="M181.854 366.215a1.374 1.374 0 011.796.386 1.307 1.307 0 01-.368 1.796 1.436 1.436 0 01-1.895-.413 1.375 1.375 0 01.584-1.796" fill="#F0F0F0"/><path opacity=".6" d="M193.838 369.754l-2.048-1.796-21.422 24.18s-.548 1.545.332 2.147l23.138-24.531z" fill="#fff"/><path d="M175.262 375.08c.126.108.746-.44 1.689-.665.943-.224 1.733-.062 1.796-.224.063-.162-.808-.629-1.94-.332-1.132.296-1.68 1.104-1.545 1.221zm-1.365 3.575c.09.135.791-.189 1.68-.117.889.072 1.536.458 1.644.333.108-.126-.503-.845-1.608-.899-1.105-.053-1.823.584-1.716.683zm1.708 4.393c.126-.09-.314-.818-1.266-1.132-.953-.314-1.734 0-1.68.153.054.152.727.125 1.5.395.772.269 1.356.665 1.446.584zm-3.029-10.914c.162.054.512-.655 1.195-1.284s1.392-.961 1.356-1.123c-.036-.162-.952-.054-1.751.701-.8.754-.952 1.679-.8 1.706zm-2.586-2.362c.045 0 .566-.351 1.15-1.231a7.739 7.739 0 00.782-1.662c.122-.345.218-.699.287-1.059.056-.208.077-.424.063-.638a.71.71 0 00-.584-.656.894.894 0 00-.772.261 2.76 2.76 0 00-.369.521c-.18.325-.334.664-.458 1.015a6.1 6.1 0 00-.323 1.796 2.814 2.814 0 00.314 1.662c.09 0 0-.647.09-1.635.066-.575.205-1.14.413-1.68.128-.309.279-.61.449-.898.18-.323.387-.548.566-.503.18.045.081 0 .108.153.024.158.024.318 0 .476a9.254 9.254 0 01-.907 2.614c-.476.916-.88 1.401-.809 1.464z" fill="#333945"/><path d="M170.305 369.781c.063 0-.144-.674-.898-1.447a5.651 5.651 0 00-1.5-1.104 5.957 5.957 0 00-1.042-.387 1.38 1.38 0 00-1.356.198.776.776 0 00-.144.835c.082.199.194.384.332.548.232.303.511.567.827.782.531.373 1.15.605 1.796.673a2.172 2.172 0 001.671-.287 15.26 15.26 0 01-1.599-.108 3.898 3.898 0 01-1.527-.701 3.314 3.314 0 01-.683-.691c-.224-.288-.341-.584-.224-.656a.96.96 0 01.808-.045c.327.078.646.186.952.324a5.92 5.92 0 011.446.898c.737.664 1.06 1.212 1.141 1.168z" fill="#333945"/><path d="M162.705 327.708l-14.623-14.462 29.57-54.306a25.098 25.098 0 0110.015-6.962l9.189-3.494 23.03-1.904 14.174 4.105c4.096 1.608 9.261 4.563 8.749 8.937l-5.066 36.926-2.497 46.501-61.978-15.269 13.752-17.803-4.958-21.171-19.357 38.902z" fill="url(#paint9_linear_7945_48926)"/><path d="M185.449 320.235l31.968-12.782c2.865-1.159 3.826-4.33 4.06-7.411l2.605-34.132s-.306-14.524 8.766-15.225l5.156 2.03c6.665 3.539 8.318 13.249 7.411 20.74-1.285 10.653-1.797 25.716-3.27 34.959-1.177 7.563-5.722 13.545-12.907 16.168l-40.25 8.623-3.539-12.97z" fill="url(#paint10_linear_7945_48926)"/><path d="M186.65 321.367h-4.311s-9.728-3.521-11.677-3.18c-1.796.296-8.398 4.68-9.692 5.551a.81.81 0 00-.314.395 1.42 1.42 0 00.79 1.797l.135.053-.063.198a2.576 2.576 0 00-.099.791.952.952 0 001.797.413l-.252.44a1.13 1.13 0 00-.134.593v.395a1.054 1.054 0 00.745.97 1.082 1.082 0 001.132-.296c.835-.899 2.641-2.767 3.862-2.965a29.692 29.692 0 013.988-.206 1.365 1.365 0 011.258.898c-.728.045-5.776 2.695-7.563 3.593a1.89 1.89 0 00-1.042 1.437c-.063.566.215 1.15 1.32.898a48.804 48.804 0 006.656-2.524s2.21-.628 3.593.378c2.012 1.419 2.928 1.94 4.653 1.374a14.633 14.633 0 003-1.401l3.404-.333s3.216-8.039-1.186-9.269z" fill="#916B5C"/><path d="M173.809 323.001c0 .045-.691-.18-1.796-.252a9.726 9.726 0 00-4.339.737 9.61 9.61 0 00-3.521 2.623c-.736.898-1.051 1.509-1.087 1.491.057-.157.129-.307.216-.449.223-.395.478-.771.763-1.123a9.108 9.108 0 017.977-3.404c.451.039.899.114 1.338.224.155.034.306.085.449.153z" fill="#6D5046"/><path d="M172.82 320.639a8.44 8.44 0 00-1.905-.324 8.288 8.288 0 00-4.428 1.249 18.029 18.029 0 00-3.593 3.018l-.97 1.033c-.112.136-.238.26-.377.368.099-.144.207-.282.323-.413.216-.26.53-.629.898-1.078a16.188 16.188 0 013.593-3.081 8.076 8.076 0 014.491-1.23c.483.02.961.108 1.42.26.161.045.278.108.359.135l.189.063z" fill="#6D5046"/><path d="M226.641 271.111a4.571 4.571 0 00-.107.781l-.216 2.255c-.171 1.994-.413 4.814-.701 8.272-.287 3.459-.619 7.671-.988 12.288-.089 1.15-.188 2.336-.278 3.593a27.895 27.895 0 01-.431 3.656 6.178 6.178 0 01-1.653 3.198 11.076 11.076 0 01-3.072 2.038c-9.18 4.249-17.641 7.761-23.785 10.222l-7.32 2.821-1.985.781a4.493 4.493 0 00-.683.306c.243-.045.481-.114.709-.207l2.012-.701a590.001 590.001 0 007.348-2.694 401.419 401.419 0 0023.866-10.105 11.579 11.579 0 003.188-2.129 6.656 6.656 0 001.797-3.44c.218-1.23.359-2.472.422-3.719.09-1.204.18-2.389.261-3.548.341-4.617.637-8.785.898-12.297.26-3.512.422-6.287.557-8.29.054-.898.098-1.698.134-2.255.027-.274.036-.55.027-.826z" fill="#333945"/><path d="M231.814 313.561a5.396 5.396 0 00-.656-1.905 12.248 12.248 0 00-7.186-6.17 5.373 5.373 0 00-1.976-.342c0 .081.737.234 1.868.665a14.11 14.11 0 014.033 2.398 13.96 13.96 0 013 3.593c.575 1.069.836 1.788.917 1.761z" fill="#333945"/><path opacity=".3" d="M194.098 317.235c3.808-2.156 7.527-3.809 11.506-5.614 3.979-1.806 7.886-4.132 10.491-7.644 4.913-6.62 4.348-16.168 9.378-22.716-.324 4.389-.65 8.784-.979 13.186-.306 4.024.314 8.012-2.282 10.778-2.183 2.309-6.449 4.078-9.467 5.075-6.063 1.994-12.575 4.967-18.647 6.971" fill="#333945"/><path d="M122.985 315.465s-7.769 2.767-7.805 11.479c-.063 16.689 33.71 35.085 33.71 35.085l44.956-29.785 2.812-1.141s-60.666-22.797-73.673-15.638z" fill="#333945"/><path d="M171.077 347.289a9.192 9.192 0 01-1.177-.799c-.736-.53-1.796-1.33-3.071-2.318a265.56 265.56 0 01-9.881-8.084 273.013 273.013 0 01-9.431-8.506 139 139 0 01-2.767-2.695 8.781 8.781 0 01-.961-1.033 7.6 7.6 0 011.087.899l2.892 2.605a488.562 488.562 0 009.521 8.407c3.764 3.234 7.186 6.081 9.746 8.129 1.204.997 2.21 1.796 2.982 2.434.38.29.735.611 1.06.961zm-35.409-25.59a8.834 8.834 0 014.329.395 8.758 8.758 0 013.854 2.021c-.072.117-1.716-.898-3.979-1.581-2.264-.682-4.204-.691-4.204-.835z" fill="#9FBD55"/><path d="M139.586 319.067a5.431 5.431 0 012.694 2.003 5.506 5.506 0 011.402 3.027c-.135.045-.629-1.356-1.797-2.74-1.168-1.383-2.416-2.173-2.299-2.29z" fill="#9FBD55"/><path d="M126.193 291.761l12.791 34.447a4.954 4.954 0 004.715 3.233l70.394-.898v-5.389l-26.12.952-11.093-34.384a2.803 2.803 0 00-2.695-1.949l-45.378.152a2.814 2.814 0 00-2.614 3.836z" fill="#F0F0F0"/><path d="M126.191 291.761v-.108c0-.072-.063-.179-.09-.323a2.88 2.88 0 010-1.293 2.803 2.803 0 011.24-1.662c.384-.24.823-.379 1.275-.404h45.154a3.025 3.025 0 011.877.413c.561.35.973.893 1.159 1.527 3.35 10.401 7.078 21.961 11.057 34.33v.072h.081l26.192-1.033-.117-.108v5.389l.117-.108-44.264.593-19.24.261-4.437.063h-2.156a5.225 5.225 0 01-2.048-.297 4.861 4.861 0 01-1.694-1.05 4.86 4.86 0 01-1.127-1.644l-1.383-3.71-8.443-22.644-2.336-6.135c-.529-1.401-.817-2.129-.817-2.129s.261.746.773 2.147l2.263 6.153 8.372 22.662 1.374 3.674a5.047 5.047 0 002.91 2.82c.676.243 1.393.35 2.111.314h2.156l4.437-.054 19.24-.242 44.264-.575h.108v-5.578h-.117l-26.12.961.117.072c-3.997-12.359-7.734-23.92-11.084-34.312a2.955 2.955 0 00-1.249-1.635 3.285 3.285 0 00-1.976-.44h-11.371l-13.276.108-18.944.09h-1.563a2.841 2.841 0 00-2.506 2.102c-.105.43-.105.88 0 1.311.015.143.043.284.081.422z" fill="#333945"/><path d="M157.405 304.785a3.17 3.17 0 00-3.422.369 2.758 2.758 0 00-.665 3.027 2.98 2.98 0 002.569 1.796 2.697 2.697 0 002.695-1.796 3.032 3.032 0 00-1.195-3.396" fill="#fff"/><path d="M141.32 363.897s63.433-40.627 66.235-42.216c2.381-1.357 8.758-5.282 15.037-3.548 6.278 1.733 11.919 7.374 14.739 15.602 1.608 4.706 2.372 12.737 2.695 18.755.431 7.185-.512 13.186-5.219 18.647a17.715 17.715 0 01-7.913 5.623c-.665.206-1.347.386-2.057.539-12.009 2.595-25.635-1.608-32.381-11.875l-1.482-2.254s-41.543 15.269-42.216 15.045l-7.438-14.318z" fill="#333945"/><path d="M219.885 352.436l-.351.152-1.041.414-4.025 1.554-14.964 5.631a2814.137 2814.137 0 01-22.509 8.3 1554.372 1554.372 0 01-28.115 9.934l-.188.063-.09-.17c-1.59-3.027-3.261-6.234-4.958-9.477-.899-1.652-1.734-3.296-2.533-4.832l-.099-.189.179-.108 48.442-30.755 14.551-9.189 3.952-2.47 1.033-.628c.233-.144.359-.207.359-.207s-.108.09-.332.242l-1.015.665-3.925 2.56-14.471 9.297-48.351 30.872.081-.297c.808 1.527 1.661 3.171 2.533 4.824l4.958 9.485-.279-.117c10.105-3.413 19.582-6.799 28.133-9.88l22.536-8.21 15.01-5.506 4.06-1.473 1.05-.369c.121-.046.244-.085.369-.116z" fill="#9FBD55"/><path d="M185.621 207.58s-3.809 16.356-3.809 27.845v3.826s9.827 7.635 17.875 7.859l6.189-16.76-20.255-22.77z" fill="#333945"/><path d="M228.457 216.148c-2.092-7.85-3.089-17.066-9.835-21.979-5.003-3.665-10.599-4.554-16.788-4.096-3.045.234-6.449 1.796-9.054 3.341-3.593 2.183-4.985 6.414-6.62 10.276-3.278 7.725-2.497 18.018 0 20.803l32.336 15.773c6.243-3.512 10.177-4.958 10.922-13.474a31.087 31.087 0 00-.961-10.644z" fill="#333945"/><path d="M218.136 200.474l-20.166-5.254c-6.485-.728-10.85 7.231-11.308 13.734-.503 7.23-.836 16.069 0 21.467 1.643 10.86 9.952 12.297 9.952 12.297s0 .162.063 3.386l-.045 5.228a8.982 8.982 0 001.958 5.847c3.081 3.728 8.479 4.069 14.749 1.509 3.593-1.473 6.099-4.293 6.288-8.039l1.976-46.276a3.82 3.82 0 00-3.467-3.899z" fill="#916B5C"/><path d="M189.258 219.463a1.402 1.402 0 001.329 1.419 1.333 1.333 0 001.309-.738c.08-.159.126-.333.137-.51a1.39 1.39 0 00-1.329-1.411 1.314 1.314 0 00-.525.056 1.304 1.304 0 00-.786.673 1.32 1.32 0 00-.135.511zm-.746-4.033c.171.179 1.231-.593 2.695-.575 1.464.018 2.587.772 2.757.584.171-.189-.098-.405-.574-.755a3.854 3.854 0 00-2.201-.7 3.676 3.676 0 00-2.174.691c-.431.35-.593.674-.503.755zm13.949 4.033a1.4 1.4 0 001.338 1.419 1.33 1.33 0 001.438-1.249 1.382 1.382 0 00-1.33-1.41 1.328 1.328 0 00-1.446 1.24zm.762-4.339c.171.189 1.231-.583 2.695-.574 1.464.009 2.596.772 2.757.592.162-.179-.089-.413-.574-.763a3.786 3.786 0 00-2.201-.692 3.68 3.68 0 00-2.174.683c-.431.35-.593.709-.503.754zm-5.514 9.89a9.624 9.624 0 00-2.425-.458c-.386-.045-.745-.117-.808-.377a1.945 1.945 0 01.269-1.132c.36-.898.746-1.895 1.15-2.91 1.599-4.132 2.758-7.527 2.587-7.59-.171-.063-1.599 3.233-3.198 7.365l-1.105 2.919a2.26 2.26 0 00-.206 1.5.947.947 0 00.629.566c.21.06.427.093.646.099a9.935 9.935 0 002.461.018z" fill="#333945"/><path d="M196.559 242.718a27.597 27.597 0 0014.551-3.773s-3.593 7.563-14.489 6.477l-.062-2.704zm6.082-14.875a2.386 2.386 0 00-1.976-1.087 3.115 3.115 0 00-2.856 1.393 1.893 1.893 0 00-.135 1.401c.099.242 0 .126.206.287a5.385 5.385 0 002.228 1.401 2.314 2.314 0 002.479-.898 2.389 2.389 0 00.054-2.497z" fill="#6D5046"/><path d="M202.381 226.137c-.243 0-.27 1.608-1.671 2.739-1.401 1.132-3.135.899-3.144 1.168 0 .099.378.315 1.105.341a4.046 4.046 0 002.632-.898 3.526 3.526 0 001.293-2.308c.072-.647-.134-1.051-.215-1.042zm.08-16.447c.117.413 1.626.323 3.359.647 1.734.323 3.126.898 3.387.539.116-.162-.108-.566-.656-.988a5.914 5.914 0 00-5.138-.898c-.638.188-.952.485-.952.7zm-13.957 1.716c.35.278 1.419-.27 2.784-.53 1.366-.261 2.551-.225 2.758-.62.09-.189-.153-.494-.719-.719a4.489 4.489 0 00-4.491.899c-.395.449-.494.826-.332.97zm9.662-17.363c-.019.08-.034.162-.045.244l.045-.244z" fill="#333945"/><path d="M213.886 246.517c.215-2.847-1.024-5.668-.782-8.515.252-3.018 2.111-5.659 2.821-8.614 1.132-4.716-.791-9.638-1.59-14.452a11.478 11.478 0 01-7.186-3.836c-2.254-2.461-3.665-5.56-5.048-8.605a14.642 14.642 0 003.225 8.327 3.935 3.935 0 01-3.413-.988 8.688 8.688 0 01-2.084-3.009 24.02 24.02 0 01-2.201-8.605c-.268 4.27.343 8.55 1.796 12.575a5.382 5.382 0 00-2.353.162 2.58 2.58 0 01-1.175.063 2.577 2.577 0 01-1.079-.468 2.69 2.69 0 01-.656-1.419 32.286 32.286 0 01-.719-11.021 33.364 33.364 0 00-2.29 6.198 11.823 11.823 0 00.161 6.521.951.951 0 01-1.338 0 2.308 2.308 0 01-.638-1.348 16.91 16.91 0 01.18-5.497c-1.024 1.958-1.311 4.195-1.841 6.333s-1.411 4.347-3.216 5.623c-.4-2.761-.4-5.566 0-8.327.423-2.32 1.17-4.57 2.219-6.683a19.756 19.756 0 014.194-6.287c3.108-2.901 4.491-1.743 6.557-.746l.243.099a.782.782 0 010-.153l.081-.44a30.624 30.624 0 0116.168.234 21.555 21.555 0 0110.778 8.398l.126.198c4.797 8.03 8.488 19.581 5.668 38.453l-16.608 5.829z" fill="#333945"/><path d="M183.932 268.434c-1.725 5.138-3.458 10.357-3.737 15.764-.278 5.407 1.087 11.138 4.842 15.045" fill="#9FBD55"/><path d="M185.034 299.243s-.098-.054-.26-.206a9.612 9.612 0 01-.647-.692 14.75 14.75 0 01-1.958-2.91 22.26 22.26 0 01-2.165-11.255 45.38 45.38 0 012.336-11.273 83.243 83.243 0 011.14-3.287c.129-.41.294-.807.494-1.186a8.16 8.16 0 01-.314 1.24c-.269.898-.602 1.994-1.006 3.332a50.11 50.11 0 00-2.228 11.237 22.895 22.895 0 002.039 11.075 23.299 23.299 0 002.569 3.925zm60.542-28.132c.016.197.016.395 0 .593 0 .431-.045.997-.072 1.688a240.184 240.184 0 01-.404 6.198c-.386 5.237-1.114 12.449-1.796 20.417a63.238 63.238 0 01-1.797 11.174 21.857 21.857 0 01-1.652 4.67 12.999 12.999 0 01-2.695 3.396 14.047 14.047 0 01-5.461 2.964c-.543.157-1.095.28-1.653.368a4.215 4.215 0 01-.593.063c0-.054.8-.162 2.192-.611a14.225 14.225 0 005.29-3.036 12.563 12.563 0 002.578-3.323 21.935 21.935 0 001.581-4.599 67.025 67.025 0 001.788-11.102c.673-7.976 1.455-15.18 1.922-20.408.233-2.569.422-4.662.557-6.18.063-.691.116-1.248.152-1.688.002-.197.023-.392.063-.584z" fill="#333945"/></g><defs><linearGradient id="paint0_linear_7945_48926" x1="575.082" y1="16" x2="248.013" y2="534.854" gradientUnits="userSpaceOnUse"><stop stop-color="#A0CA3F"/><stop offset="1" stop-color="#7B9C30"/></linearGradient><linearGradient id="paint1_linear_7945_48926" x1="262.453" y1="9.593" x2="315.773" y2="93.173" gradientUnits="userSpaceOnUse"><stop stop-color="#A0CA3F"/><stop offset="1" stop-color="#7B9C30"/></linearGradient><linearGradient id="paint2_linear_7945_48926" x1="198.918" y1="86.42" x2="220.482" y2="89.415" gradientUnits="userSpaceOnUse"><stop stop-color="#A0CA3F"/><stop offset="1" stop-color="#7B9C30"/></linearGradient><linearGradient id="paint3_linear_7945_48926" x1="163.934" y1="25.725" x2="218.726" y2="69.111" gradientUnits="userSpaceOnUse"><stop stop-color="#A0CA3F"/><stop offset="1" stop-color="#7B9C30"/></linearGradient><linearGradient id="paint4_linear_7945_48926" x1="122.777" y1="105.99" x2="137.882" y2="106.961" gradientUnits="userSpaceOnUse"><stop stop-color="#A0CA3F"/><stop offset="1" stop-color="#7B9C30"/></linearGradient><linearGradient id="paint5_linear_7945_48926" x1="133.848" y1="92.328" x2="171.868" y2="121.764" gradientUnits="userSpaceOnUse"><stop stop-color="#A0CA3F"/><stop offset="1" stop-color="#7B9C30"/></linearGradient><linearGradient id="paint6_linear_7945_48926" x1="437.9" y1="334.269" x2="184.85" y2="69.499" gradientUnits="userSpaceOnUse"><stop offset="0" stop-color="#8A1050"/><stop offset="1" stop-color="#B53378"/></linearGradient><linearGradient id="paint7_linear_7945_48926" x1="358.473" y1="124.975" x2="436.072" y2="194.459" gradientUnits="userSpaceOnUse"><stop stop-color="#A0CA3F"/><stop offset="1" stop-color="#7B9C30"/></linearGradient><linearGradient id="paint8_linear_7945_48926" x1="345.074" y1="129.5" x2="379.825" y2="149.2" gradientUnits="userSpaceOnUse"><stop stop-color="#A0CA3F"/><stop offset="1" stop-color="#7B9C30"/></linearGradient><linearGradient id="paint9_linear_7945_48926" x1="148.082" y1="246.58" x2="244.536" y2="341.327" gradientUnits="userSpaceOnUse"><stop stop-color="#A0CA3F"/><stop offset="1" stop-color="#7B9C30"/></linearGradient><linearGradient id="paint10_linear_7945_48926" x1="185.449" y1="250.685" x2="264.027" y2="308.004" gradientUnits="userSpaceOnUse"><stop stop-color="#A0CA3F"/><stop offset="1" stop-color="#7B9C30"/></linearGradient><clipPath id="clip0_7945_48926"><path fill="#fff" transform="translate(89.996)" d="M0 0h396v394.275H0z"/></clipPath></defs></svg>