<svg width="569" height="416" fill="none" xmlns="http://www.w3.org/2000/svg"><path fill-rule="evenodd" clip-rule="evenodd" d="M64.243 77.626c37.743-32.36 98.628-34.096 151.639-47.896C262.406 17.618 306.63-4.836 354.898 1.959c49.009 6.899 86.055 36.152 120.676 64.327 35.869 29.19 69.322 60.632 81.367 100.098 13.236 43.367 21.037 93.485-11.083 130.185-31.645 36.158-96.174 38.421-148.959 52.678-47.298 12.776-92.559 27.163-142.569 26.067-59.315-1.299-122.867-3.094-168.6-32.886-48.753-31.759-78.26-80.881-82.292-130.552-3.946-48.623 18.966-98.378 60.805-134.25z" fill="#E7F4CA"/><g clip-path="url(#clip0_7608_49131)"><path d="M184.972 96.04a7.32 7.32 0 01-.251 5.543 7.32 7.32 0 01-4.066 3.777 7.218 7.218 0 01-1.225.338l-4.157 25.453-9.752-9.004 5.443-22.79a7.346 7.346 0 016.438-8.064 7.158 7.158 0 017.57 4.747z" fill="#FFB6B6"/><path d="M113.008 153.712s7.568-9.999 35.031-9.725l15.588-5.664 3.563-32.656 12.468 2.969-1.781 40.375-26.719 15.437-35.031 7.125-3.119-17.861z" fill="#941759"/><path d="M70.807 399.896L78 402.962l15.25-26.29-10.619-4.525-11.825 27.749zm59.453 6.808h7.819l3.721-30.164-11.542.001.002 30.163z" fill="#FFB6B6"/><path d="M129.983 414.863l24.048-.001v-.304a9.36 9.36 0 00-9.36-9.36h-.001l-4.393-3.333-8.195 3.333h-2.1l.001 9.665zm-63.549-9.745l22.122 9.428.12-.28a9.36 9.36 0 00-4.941-12.28L81 397.198l-8.847-.147-1.93-.823-3.79 8.89zm71.495-176.932l11.885 72.368-3.235 10.784 4.245 7.638-6.233 67.076 2.53 5.57-7.069 4.36h-14.384l-.764-60.725-3.553-8.915v-4.914l-7.233-37.028-1.332 42.356-2.104 8.929 1.768 6.358-2.31 4.454-19.79 42.496H74.22l1.248-9.611c-2.89-1.463 4.339-5.739 5.033-8.903l-2.375-5.343 2.375-10.094 2.178-19.724-2.296-41.632 1.08-56.064 18.869-14.429 37.597 4.993z" fill="#3B3D42"/><path d="M108.987 132.88c9.003 0 16.3-7.298 16.3-16.3s-7.297-16.3-16.3-16.3c-9.002 0-16.3 7.298-16.3 16.3s7.298 16.3 16.3 16.3z" fill="#FFB6B6"/><path d="M81.398 240.171a.31.31 0 01-.086-.012c-.3-.084-.538-.15.548-9.54l1.172-7.423-1.144-6.554-1.925-1.925 3.093-3.093-1.895-14.03-5.154-27.219a21.716 21.716 0 0111.925-23.594l10.146-9.41 18.669-.14 5.972 7.765 15.802 5.368-2.62 54.205 1.838 4.288-.158.143c-.012.011-1.236 1.118-1.786 1.727-.266.378.233 3.204.851 5.603l.791 5.922-1.995 1.425 2.594 3.064.751 5.631-.424-.106c-.477-.118-47.79-11.627-56.638 7.657a.356.356 0 01-.327.248z" fill="#941759"/><path d="M104.816 132.082l-.209-.462c.027.001.054.005.08.006l.129.456zm-12.583-31.06a4.537 4.537 0 012.842-1.229c1.054.034 2.122.986 1.904 2.018a16.751 16.751 0 0120.158-7.559c2.62.924 5.189 2.773 5.79 5.485a4.94 4.94 0 00.623 2.025 2.31 2.31 0 002.46.624l.026-.008a.766.766 0 01.834.228.768.768 0 01.096.859l-.741 1.382a5.929 5.929 0 002.83-.06.77.77 0 01.817 1.198 13.41 13.41 0 01-10.694 5.497c-2.962-.018-5.954-1.039-8.836-.358a7.685 7.685 0 00-5.157 4.153 7.682 7.682 0 00-.006 6.622c-.885-.969-2.597-.739-3.503.21a4.814 4.814 0 00-1.049 3.676 17.077 17.077 0 001.751 5.725 17.109 17.109 0 01-15.713-11.703 17.115 17.115 0 015.568-18.785z" fill="#3B3D42"/><path d="M189.049 405.385l-4.577-7.356-.915 4.204c-.16.736-.32 1.484-.469 2.226-1.3-1.11-2.684-2.137-4.037-3.123a8216.955 8216.955 0 01-12.463-9.061l1.3 7.541c.802 4.643 1.639 9.381 3.622 13.627.22.481.457.956.713 1.419h19.32c.156-.431.263-.877.321-1.33a.45.45 0 00.006-.089c.303-2.88-1.289-5.594-2.821-8.058zm-158.668 0l4.578-7.356.914 4.204c.16.736.32 1.484.47 2.226 1.3-1.11 2.683-2.137 4.037-3.123a8318.45 8318.45 0 0012.463-9.061l-1.3 7.541c-.802 4.643-1.64 9.381-3.623 13.627-.22.481-.457.956-.712 1.419h-19.32a6.25 6.25 0 01-.321-1.33.473.473 0 01-.006-.089c-.303-2.88 1.288-5.594 2.82-8.058z" fill="#F0F0F0"/><path d="M233.309 415.569H.707a.7.7 0 01-.655-.436.707.707 0 01.655-.978H233.31a.707.707 0 010 1.414zm97.442-301.159H260.2a2.747 2.747 0 010-5.498h70.551c3.545-.049 3.58 5.548 0 5.498zm95.04 14.379H260.2a2.747 2.747 0 010-5.498h165.591c3.545-.049 3.58 5.548 0 5.498z" fill="#8EB438"/><path d="M483.478 136.521c9.759 0 17.669-7.911 17.669-17.67 0-9.758-7.91-17.669-17.669-17.669s-17.669 7.911-17.669 17.669c0 9.759 7.91 17.67 17.669 17.67z" fill="#941759"/><path d="M481.066 128.047a1.96 1.96 0 01-1.572-.786l-4.821-6.428a1.953 1.953 0 01-.374-1.458 1.965 1.965 0 013.519-.9l3.154 4.204 8.1-12.149a1.963 1.963 0 013.563 1.471 1.97 1.97 0 01-.292.709l-9.641 14.462a1.974 1.974 0 01-1.581.874l-.055.001z" fill="#fff"/><path d="M224.811 102.283h-44.75a2.642 2.642 0 00-2.637 2.637v27.861a2.642 2.642 0 002.637 2.637h44.75a2.64 2.64 0 002.637-2.637V104.92a2.64 2.64 0 00-2.637-2.637zm.865 20.013a10.84 10.84 0 01-10.658 10.798c-4.541.059 2.512.082-2.964.082-12.523 0-25.581-.119-30.453-.197a2.457 2.457 0 01-2.406-2.446v-25.611a.867.867 0 01.866-.867h44.748a.868.868 0 01.867.865v17.376z" fill="#8EB438"/><path d="M218.909 120.065h-34.095c-.302 0-.596-.094-.842-.268a1.46 1.46 0 01-.536-.703l-5.265-14.773a1.468 1.468 0 01.182-1.333 1.47 1.47 0 011.193-.621l45.727-.081h.002a1.458 1.458 0 011.22.658 1.463 1.463 0 01.124 1.381l-.08-.035.08.035-6.366 14.854a1.467 1.467 0 01-1.344.886z" fill="#8EB438"/><path d="M202.411 123.708a3.643 3.643 0 100-7.286 3.643 3.643 0 000 7.286z" fill="#3F3D56"/><path d="M330.751 192.796H260.2a2.747 2.747 0 010-5.498h70.551c3.545-.049 3.58 5.548 0 5.498zm95.04 14.378H260.2a2.752 2.752 0 01-2.749-2.749 2.752 2.752 0 012.749-2.749h165.591c3.545-.049 3.58 5.548 0 5.498z" fill="#8EB438"/><path d="M483.478 214.905c9.759 0 17.669-7.911 17.669-17.669 0-9.759-7.91-17.67-17.669-17.67s-17.669 7.911-17.669 17.67c0 9.758 7.91 17.669 17.669 17.669z" fill="#941759"/><path d="M481.066 206.433a1.96 1.96 0 01-1.572-.787l-4.821-6.427a1.97 1.97 0 01.392-2.753 1.97 1.97 0 011.458-.373 1.968 1.968 0 011.295.767l3.154 4.205 8.1-12.15a1.973 1.973 0 011.25-.839 1.98 1.98 0 011.477.292 1.973 1.973 0 01.837 1.251 1.966 1.966 0 01-.293 1.477l-9.641 14.461a1.967 1.967 0 01-1.581.875l-.055.001z" fill="#fff"/><path d="M224.811 180.669h-44.75a2.642 2.642 0 00-2.637 2.637v27.861a2.642 2.642 0 002.637 2.637h44.75a2.64 2.64 0 002.637-2.637v-27.861a2.64 2.64 0 00-2.637-2.637zm.865 20.013a10.843 10.843 0 01-10.658 10.798c-4.541.059 2.512.082-2.964.082-12.523 0-25.581-.119-30.453-.197a2.458 2.458 0 01-2.406-2.447v-25.61a.872.872 0 01.866-.867h44.748a.868.868 0 01.867.865v17.376z" fill="#8EB438"/><path d="M218.909 198.451h-34.095a1.465 1.465 0 01-1.377-.971l-5.266-14.774a1.462 1.462 0 011.375-1.953l45.727-.081h.002a1.458 1.458 0 011.22.657 1.46 1.46 0 01.124 1.381l-.08-.034.08.034-6.366 14.855a1.467 1.467 0 01-1.344.886z" fill="#8EB438"/><path d="M202.411 202.094a3.643 3.643 0 100-7.286 3.643 3.643 0 000 7.286z" fill="#3F3D56"/><path d="M330.751 271.18H260.2a2.747 2.747 0 01-1.941-4.691 2.747 2.747 0 011.941-.806h70.551c3.545-.05 3.58 5.547 0 5.497zm95.04 14.379H260.2a2.748 2.748 0 110-5.497h165.591c3.545-.05 3.58 5.547 0 5.497z" fill="#8EB438"/><path d="M483.478 293.29c9.759 0 17.669-7.911 17.669-17.669 0-9.759-7.91-17.67-17.669-17.67s-17.669 7.911-17.669 17.67c0 9.758 7.91 17.669 17.669 17.669z" fill="#941759"/><path d="M481.067 284.817a1.972 1.972 0 01-1.572-.786l-4.821-6.427a1.968 1.968 0 011.851-3.125 1.965 1.965 0 011.294.766l3.154 4.205 8.1-12.15a1.973 1.973 0 011.25-.839 1.96 1.96 0 011.477.292 1.96 1.96 0 01.837 2.018c-.05.254-.15.495-.293.71l-9.641 14.461a1.967 1.967 0 01-1.581.875h-.055z" fill="#fff"/><path d="M224.811 259.054h-44.75a2.638 2.638 0 00-2.637 2.637v27.861a2.642 2.642 0 002.637 2.637h44.75a2.64 2.64 0 002.637-2.637v-27.861a2.64 2.64 0 00-2.637-2.637zm.865 20.013a10.844 10.844 0 01-10.658 10.798c-4.541.059 2.512.082-2.964.082-12.523 0-25.581-.12-30.453-.197a2.458 2.458 0 01-2.406-2.447v-25.61a.87.87 0 01.866-.868h44.748a.871.871 0 01.867.866v17.376z" fill="#8EB438"/><path d="M218.909 276.836h-34.095a1.465 1.465 0 01-1.378-.972l-5.265-14.773a1.462 1.462 0 011.375-1.953l45.727-.081h.002a1.463 1.463 0 011.344 2.038l-.08-.034.08.034-6.366 14.854a1.456 1.456 0 01-1.344.887z" fill="#8EB438"/><path d="M202.411 280.48a3.643 3.643 0 100-7.286 3.643 3.643 0 000 7.286z" fill="#3F3D56"/><path d="M127.992 241.757a7.32 7.32 0 01-7.432-7.089c-.013-.425.012-.85.075-1.27l-22.756-12.136 11.665-6.33 19.821 12.495a7.355 7.355 0 015.56 8.694 7.158 7.158 0 01-6.933 5.636z" fill="#FFB6B6"/><path d="M117.9 233.033l-38.028-14.845-6.046-30.475 2.245-17.522a17.937 17.937 0 0113.447-15.12 17.922 17.922 0 017.111-.317l.128.02.072.107c.29.428 6.998 10.793-2.029 36.51l.334 16.343 29.904 13.96-7.138 11.339z" fill="#941759"/></g><defs><clipPath id="clip0_7608_49131"><path fill="#fff" transform="translate(0 91.245)" d="M0 0h501.147v324.324H0z"/></clipPath></defs></svg>