<svg width="109" height="67" viewBox="0 0 109 67" fill="none" xmlns="http://www.w3.org/2000/svg">
<path d="M107.468 50.4835C107.418 50.163 107.37 49.94 107.35 49.7147C107.297 49.0991 107.268 48.4813 107.201 47.8669C107.174 47.6219 107.097 47.3745 107.003 47.1457C106.829 46.7183 106.624 46.3037 106.432 45.8844C106.37 45.752 106.334 45.5825 106.051 45.6487C106.292 46.3141 106.529 46.968 106.766 47.6219C106.382 47.3385 106.165 46.9877 106.052 46.5522C105.916 46.0319 105.728 45.5232 105.536 45.0192C105.481 44.8717 105.333 44.759 105.205 44.6023C105.426 44.2608 105.24 43.9798 105.003 43.6999C104.616 43.2434 104.256 42.7626 103.853 42.3213C103.295 41.7104 102.548 41.3655 101.831 40.9834C101.61 40.8649 101.369 40.779 101.156 40.6501C99.8966 39.8905 98.4855 39.5409 97.0918 39.1507C96.7434 39.0532 96.3636 39.0032 96.0036 39.0241C94.5937 39.1043 93.2174 39.3969 91.8598 39.7709C91.6565 39.8266 91.4312 39.8917 91.2802 40.0264C90.7576 40.4921 90.1142 40.6977 89.4766 40.9149C89.0829 41.0496 88.7891 41.2911 88.6532 41.6721C88.4767 42.168 88.141 42.5327 87.774 42.8788C87.09 43.5245 86.6301 44.3328 86.1156 45.1028C85.9588 45.3374 85.7149 45.5163 85.5755 45.7578C85.2887 46.2537 85.003 46.759 84.7997 47.292C84.6905 47.5789 84.7416 47.9308 84.7463 48.2537C84.7614 49.1421 84.8195 50.0317 84.8055 50.919C84.7939 51.6263 84.9182 52.293 85.104 52.9724C85.6022 54.8004 86.6324 56.2835 87.9424 57.6098C89.4093 59.0952 91.2222 59.9604 93.1826 60.5585C93.4509 60.641 93.7528 60.6154 94.0385 60.6352C94.7133 60.6828 95.3869 60.7478 96.0628 60.7676C96.4263 60.778 96.7945 60.7269 97.1557 60.67C97.5192 60.6131 97.827 60.3507 98.2555 60.5016C98.4344 60.5643 98.7863 60.4134 98.9303 60.2473C99.4146 59.691 100.132 59.5621 100.708 59.1835C100.897 59.0592 101.116 58.9825 101.317 58.8769C101.402 58.8316 101.469 58.734 101.556 58.7166C102.495 58.5331 102.971 57.7027 103.684 57.2056C103.885 57.0651 103.951 56.7155 104.304 56.8177C104.492 56.5297 104.704 56.2533 104.863 55.9502C104.975 55.7341 105.024 55.4844 105.091 55.2464C105.123 55.136 105.187 54.992 105.145 54.9107C104.864 54.366 105.287 53.9688 105.385 53.4845C105.954 54.1059 105.972 54.1941 105.375 55.9142C105.942 55.2034 106.3 54.3893 106.482 53.4996C106.662 52.6123 106.808 51.7169 106.978 50.7808C107.204 51.3429 107.262 52.1942 107.151 52.9944C106.99 54.1454 106.563 55.179 105.908 56.1453C104.981 57.5122 103.975 58.8048 102.729 59.8965C102.146 60.4064 101.526 60.8512 100.757 61.0696C100.372 61.1787 100.03 61.4319 99.6504 61.5736C99.1452 61.7617 98.633 61.9836 98.1057 62.0498C97.0605 62.1798 96.0036 62.2425 94.9491 62.2786C93.898 62.3157 92.8655 62.1218 91.8621 61.8175C91.1235 61.5933 90.4046 61.3041 89.6799 61.037C89.5858 61.0022 89.508 60.9244 89.4395 60.8315C90.4545 61.1683 91.4463 61.5748 92.5566 61.4575C92.3394 61.3889 92.1188 61.3297 91.9062 61.2507C91.4719 61.0905 91.0457 60.9104 90.609 60.756C90.264 60.634 89.9098 60.5388 89.5602 60.4331C89.3779 60.3785 89.1654 60.3692 89.0144 60.267C87.8634 59.4866 86.6475 58.7758 85.7764 57.6586C85.4001 57.1766 85.0959 56.6331 84.7997 56.0965C84.4931 55.5414 84.2202 54.9665 83.9658 54.3858C83.852 54.1256 83.8137 53.8306 83.7545 53.5484C83.6197 52.9073 83.492 52.2639 83.3654 51.6205C83.3399 51.4893 83.3097 51.3546 83.3131 51.2222C83.3282 50.6438 83.3677 50.0654 83.3759 49.487C83.3863 48.688 83.4525 47.9064 83.8358 47.1805C83.9415 46.9796 84.0262 46.7508 84.0553 46.5267C84.255 44.9797 84.9658 43.6836 85.9727 42.5245C86.1214 42.3527 86.248 42.1552 86.3525 41.9531C86.6057 41.4688 86.982 41.0368 87.4779 40.9218C88.0156 40.7976 88.4372 40.4805 88.9354 40.3086C89.1828 40.2238 89.3895 40.11 89.4952 39.7964C89.5695 39.5758 89.8599 39.4132 90.0782 39.2587C91.2535 38.4295 92.5915 38.0892 94.0049 38.0149C94.6227 37.9824 95.2429 38.0079 95.8619 37.9882C96.2278 37.9765 96.5924 37.9022 96.9571 37.9022C97.2985 37.9022 97.6504 37.9255 97.9803 38.0067C99.7769 38.4516 101.492 39.1008 102.989 40.2157C103.561 40.6408 104.093 41.1286 104.593 41.6349C105.271 42.3213 105.93 43.0309 106.549 43.7707C107.228 44.5848 107.634 45.543 107.888 46.5743C107.998 47.0214 108.18 47.4546 108.36 47.8809C108.561 48.3605 108.543 48.81 108.317 49.2768C108.118 49.6938 107.996 50.1479 107.468 50.4835Z" fill="#333945"/>
<path d="M101.703 52.669C101.081 52.6876 100.46 52.7062 99.8387 52.7248C99.8376 52.755 99.8364 52.7863 99.8341 52.8165C99.9676 52.8374 100.102 52.8595 100.236 52.8804C100.231 52.9001 100.228 52.9199 100.223 52.9396C99.8132 52.9396 99.3846 53.0163 98.9979 52.9222C98.3789 52.7712 97.7773 52.8444 97.1641 52.8781C96.2779 52.9269 95.3918 52.9536 94.5045 52.9838C94.1955 52.9942 93.8866 52.9733 93.5788 52.9919C92.8088 53.0372 92.04 53.0976 91.2712 53.151C91.1945 53.1556 91.1132 53.1603 91.0412 53.1417C90.5023 53 90.018 53.1382 89.5593 53.4216C89.5395 53.6504 89.4954 53.8815 89.5059 54.1091C89.5233 54.5168 89.5883 54.907 89.9065 55.2229C90.1098 55.425 90.291 55.6642 90.4269 55.9163C91.1446 57.2402 92.364 57.9115 93.7205 58.289C94.9609 58.6339 96.2547 58.606 97.4869 58.1519C97.9271 57.9893 98.3998 57.8384 98.7017 57.4133C98.7993 57.2762 98.9514 57.1648 99.1012 57.0811C99.7028 56.7443 100.129 56.2182 100.596 55.7351C100.839 55.4831 100.925 55.1869 100.906 54.8397C100.897 54.6678 100.946 54.4924 100.968 54.3182C101.011 54.3147 101.054 54.3112 101.097 54.3066C101.171 54.4459 101.244 54.5853 101.375 54.8304C101.506 54.2264 101.62 53.705 101.735 53.1824C101.914 53.8374 101.891 54.4773 101.572 55.0568C101.199 55.7328 100.798 56.3982 100.353 57.0277C99.7563 57.8709 98.9119 58.3993 97.9503 58.7628C97.2419 59.0311 96.5323 59.2762 95.7657 59.2959C95.674 59.2982 95.5822 59.2959 95.4696 59.2959C95.4951 59.1983 95.5114 59.1368 95.5404 59.0241C95.1235 59.0543 94.7182 59.1368 94.3233 59.1019C93.3779 59.0195 92.4477 58.8708 91.6591 58.2518C91.1121 57.8221 90.536 57.4052 90.1539 56.8303C89.7765 56.2624 89.2991 55.7409 89.1737 55.015C89.0994 54.5865 88.8578 54.1893 88.7486 53.7631C88.6546 53.3972 88.6418 53.0105 88.593 52.6307C89.1424 52.4507 89.5953 52.3369 90.1028 52.6052C90.3397 52.7306 90.6545 52.7236 90.9832 52.5784C91.3536 52.4147 91.8135 52.4228 92.2351 52.4112C94.1061 52.3636 95.9783 52.3543 97.8493 52.2951C98.7923 52.2649 99.7354 52.1708 100.676 52.0802C101.134 52.0361 101.439 52.2463 101.726 52.532C101.717 52.5738 101.71 52.6214 101.703 52.669Z" fill="#333945"/>
<path d="M93.0748 48.1991C93.0388 48.0017 93.004 47.8031 92.968 47.6056C92.9366 47.6091 92.9064 47.6126 92.8751 47.6161C92.9111 47.9192 92.9343 48.2246 92.9877 48.5243C93.0423 48.8309 92.9982 49.0992 92.7868 49.3326C92.4291 49.7275 92.1666 50.2164 91.6022 50.3964C91.0099 50.5846 90.3967 50.6357 89.8485 50.3906C89.4118 50.1955 88.9844 49.8587 88.6976 49.4766C88.3341 48.9923 88.2586 48.3629 88.3898 47.7613C88.4769 47.3594 88.4862 46.9251 88.8079 46.5836C88.9426 46.4408 89.0135 46.2956 89.2446 46.2805C89.3607 46.2724 89.4815 46.1318 89.5756 46.0273C89.78 45.8008 90.0216 45.7056 90.327 45.6533C91.4768 45.4571 92.3304 45.9425 93.0981 46.7276C93.3733 47.0098 93.4802 47.3501 93.5963 47.6904C93.6904 47.9645 93.5243 48.1097 93.0748 48.1991Z" fill="#333945"/>
<path d="M103.001 47.8282C102.835 47.9699 102.685 48.0988 102.478 48.2765C102.404 47.9897 102.354 47.7969 102.304 47.6041C102.27 47.6087 102.235 47.6134 102.199 47.6192C102.235 47.9072 102.264 48.1976 102.309 48.4844C102.359 48.8073 102.317 49.0965 102.076 49.3404C101.982 49.4356 101.904 49.5494 101.827 49.6597C101.164 50.6202 99.9596 50.5935 99.1072 50.3519C98.7367 49.9315 98.12 49.7945 97.9028 49.1696C97.7135 48.6238 97.5811 48.1105 97.7704 47.5541C97.8796 47.2313 98.0096 46.9165 98.1269 46.596C98.2059 46.3811 98.3081 46.2302 98.5869 46.2499C98.6798 46.2569 98.8052 46.1222 98.8795 46.0258C99.0967 45.7424 99.3836 45.6669 99.7262 45.6088C100.735 45.4381 101.522 45.8051 102.219 46.4926C102.579 46.8469 102.595 46.8306 103.001 47.8282Z" fill="#333945"/>
<path d="M39.8066 26.3155C40.5546 27.2388 39.9553 28.01 39.7474 28.809C40.9355 27.305 41.0516 25.4538 41.4105 23.6745C41.6614 24.6687 41.6161 25.6547 41.4024 26.6407C41.2154 27.5059 40.8345 28.2841 40.3118 28.9913C39.6917 29.8299 39.0912 30.6881 38.4153 31.4814C37.7394 32.2746 37.0205 33.069 36.0693 33.5277C34.8766 34.1038 33.707 34.7681 32.3622 34.9655C32.3052 34.9736 32.246 35.005 32.1914 34.998C31.3564 34.8796 30.5492 35.1583 29.7223 35.1699C28.0522 35.1932 26.4565 34.854 24.913 34.2385C24.5449 34.0922 24.1767 33.9481 23.8294 33.7414C24.8538 34.0445 25.8445 34.4661 27.0813 34.386C26.82 34.2989 26.6806 34.2582 26.5448 34.2071C26.0036 34.0039 25.4658 33.7879 24.9211 33.5939C24.6134 33.4848 24.2882 33.4232 23.9793 33.3152C23.6947 33.2153 23.3997 33.1166 23.1477 32.9575C22.5926 32.6079 22.0467 32.2363 21.5218 31.8426C20.7274 31.2468 20.0247 30.5523 19.5312 29.6812C19.3128 29.2956 19.1607 28.8741 18.9807 28.4676C18.8471 28.1668 18.7809 27.8114 18.5753 27.5733C18.2141 27.1564 18.1944 26.6663 18.1096 26.1773C18.0237 25.6837 17.9203 25.1936 17.8262 24.7012C17.7972 24.549 17.7531 24.3957 17.7554 24.2436C17.7693 23.354 17.7949 22.4655 17.8158 21.5771C17.8297 20.9627 18.0539 20.411 18.3094 19.864C18.3895 19.6945 18.4406 19.504 18.4673 19.317C18.6822 17.8386 19.3558 16.5831 20.3081 15.4566C20.48 15.2533 20.6519 15.0373 20.7692 14.8004C21.0166 14.3021 21.4254 13.8689 21.905 13.7888C22.4811 13.6924 22.8759 13.3092 23.3928 13.1524C23.6204 13.0838 23.8341 12.9793 23.9015 12.6669C23.9386 12.4973 24.1732 12.3545 24.3405 12.2314C25.5855 11.3151 27.014 10.9562 28.5307 10.8888C29.13 10.8621 29.7304 10.8795 30.3309 10.8726C30.5434 10.8702 30.7687 10.9016 30.9662 10.8424C31.5759 10.6612 32.1508 10.8006 32.7315 10.9678C34.3574 11.4358 35.9206 12.0374 37.3073 13.0351C38.3514 13.7853 39.2132 14.7284 40.1005 15.6435C40.8333 16.3984 41.4802 17.223 41.86 18.2114C42.2258 19.1649 42.5545 20.1346 42.846 21.1137C43.0457 21.7838 42.551 22.8592 41.8681 23.3087C41.8205 23.0636 41.7589 22.8488 41.7392 22.6293C41.6823 22.0137 41.6451 21.3959 41.5917 20.7804C41.5789 20.627 41.5661 20.4656 41.5069 20.3274C41.2572 19.7421 40.9924 19.1625 40.7241 18.5853C40.6997 18.5319 40.6068 18.5098 40.4814 18.4332C40.5441 19.2485 41.0911 19.8512 41.1097 20.6038C40.7985 20.2333 40.5453 19.8524 40.4454 19.3611C40.3188 18.7421 40.1341 18.1312 39.716 17.6237C39.6568 17.5517 39.6208 17.4007 39.6557 17.3252C39.7683 17.0883 39.6789 16.9246 39.5349 16.748C39.1679 16.2986 38.8206 15.8328 38.4443 15.3915C37.9066 14.7609 37.1924 14.366 36.4735 13.9839C35.8417 13.6483 35.2296 13.2511 34.5607 13.0142C33.3807 12.5961 32.1787 12.2093 30.958 11.9434C30.1125 11.7587 29.2357 11.955 28.3914 12.1803C28.187 12.2349 27.9744 12.2686 27.7631 12.2871C26.7991 12.3742 25.9269 12.6599 25.143 13.2673C24.8062 13.5287 24.3393 13.639 23.9166 13.7691C23.4683 13.9073 23.2232 14.2011 23.0234 14.6064C22.8562 14.9479 22.6355 15.2882 22.3626 15.5471C21.581 16.2893 21.0061 17.1789 20.4487 18.0848C20.3674 18.216 20.3035 18.3786 20.1862 18.4645C19.4742 18.986 19.307 19.7967 19.0689 20.562C19.0109 20.749 19.0608 20.9859 19.1119 21.1868C19.2884 21.8732 19.2884 22.5689 19.2315 23.2634C19.0956 24.9404 19.566 26.4526 20.3557 27.9147C20.9933 29.0936 21.9108 30.0261 22.8051 30.9878C22.9096 31.1004 23.0211 31.2189 23.1512 31.2955C24.3811 32.0237 25.5797 32.8042 26.9524 33.2676C27.7596 33.5405 28.5923 33.4929 29.4122 33.5916C29.6596 33.6218 29.9116 33.6125 30.1602 33.6299C30.7432 33.6706 31.3192 33.6717 31.8744 33.4429C32.0788 33.3593 32.2739 33.3175 32.5294 33.3675C32.7733 33.4151 33.1484 33.2954 33.3203 33.1131C33.8069 32.5928 34.484 32.4337 35.0554 32.0818C35.2981 31.932 35.5629 31.8158 35.8161 31.6823C35.8672 31.6556 35.9079 31.601 35.9613 31.587C36.9694 31.3281 37.5338 30.4721 38.2783 29.8624C38.3909 29.7706 38.4478 29.5895 38.6441 29.6975C38.8473 29.4048 39.0726 29.1237 39.2468 28.8137C39.3653 28.6011 39.4164 28.3503 39.4884 28.1145C39.5267 27.9868 39.6115 27.8114 39.5604 27.7301C39.2213 27.1808 39.7451 26.8381 39.8066 26.3155Z" fill="#333945"/>
<path d="M27.5067 21.1728C27.4451 20.9394 27.408 20.7977 27.3685 20.6455C27.3441 20.6688 27.3104 20.6862 27.3092 20.7036C27.3081 20.8581 27.2744 21.0265 27.3243 21.1647C27.5241 21.7222 27.2512 22.1054 26.9364 22.5282C26.3383 23.3307 25.5358 23.5246 24.6276 23.3713C23.6346 23.2029 22.565 22.1217 22.7671 20.9824C22.853 20.4969 22.8251 19.9917 23.1468 19.5562C23.3013 19.3471 23.4 19.1357 23.7066 19.1462C23.7775 19.1485 23.8808 19.0626 23.9215 18.9906C24.1061 18.6549 24.429 18.641 24.753 18.5609C25.9887 18.2543 26.8273 18.9162 27.5868 19.7141C27.8098 19.9487 27.9236 20.3227 27.9979 20.6537C28.056 20.9162 27.7889 21.0207 27.5067 21.1728Z" fill="#333945"/>
<path d="M36.8776 21.2191C36.7951 20.8835 36.7475 20.6884 36.6999 20.4932C36.6767 20.4979 36.6534 20.5014 36.6302 20.506C36.6627 20.8208 36.6871 21.1378 36.7289 21.4514C36.7684 21.7557 36.7278 22.0263 36.4874 22.2446C36.4165 22.3085 36.3526 22.3851 36.3027 22.4664C35.686 23.4768 34.5467 23.5941 33.592 23.269C33.1658 23.1238 32.7384 22.7858 32.4724 22.4188C32.1101 21.9206 31.9789 21.2842 32.1171 20.6593C32.2111 20.2366 32.4039 19.8359 32.5584 19.4283C32.5851 19.3586 32.642 19.2448 32.6827 19.2459C33.1275 19.2552 33.3005 18.851 33.6083 18.6571C33.6571 18.6269 33.7105 18.5955 33.7651 18.5851C34.6199 18.4295 35.4491 18.4364 36.1645 19.0241C36.7022 19.4654 37.2667 19.8905 37.3433 20.7685C37.2632 20.8451 37.1087 20.9938 36.8776 21.2191Z" fill="#333945"/>
<path d="M35.1695 27.5581C35.0057 27.6336 34.849 27.7474 34.6771 27.7799C33.9431 27.9181 33.2068 28.0447 32.4669 28.1492C32.309 28.1713 32.1371 28.0854 31.9014 28.0343C31.5518 28.3966 31.0361 28.5662 30.4821 28.6951C30.0002 28.8077 29.5403 29.0168 29.0687 29.1782C28.9154 29.2305 28.7819 29.4035 28.5902 29.2526C28.5554 29.2258 28.4625 29.2247 28.4288 29.2514C27.8737 29.7055 27.1524 29.7241 26.5253 29.9866C26.1176 30.1573 25.7123 30.3315 25.2652 30.5219C25.1479 30.364 25.0387 30.2188 24.9597 30.112C25.0248 29.7996 25.5323 30.0179 25.4092 29.6068C25.5033 29.5882 25.6055 29.5371 25.6903 29.558C25.9829 29.6288 26.1966 29.4813 26.4498 29.3745C26.9945 29.1422 27.5717 28.9843 28.1303 28.7834C28.2813 28.7288 28.4137 28.6254 28.5577 28.5488C28.675 28.486 28.7946 28.3792 28.9131 28.3792C29.2731 28.3792 29.5728 28.2909 29.898 28.1016C30.3056 27.8647 30.7934 27.7544 31.2579 27.6301C31.7399 27.5012 32.244 27.4501 32.7225 27.3119C33.194 27.176 33.6469 27.0982 34.1347 27.2283C34.2636 27.2631 34.4343 27.1377 34.6306 27.0703C34.6178 27.1853 34.6039 27.3037 34.5842 27.4698C34.7618 27.4478 34.9395 27.4269 35.1172 27.4048C35.1347 27.4559 35.1521 27.507 35.1695 27.5581Z" fill="#333945"/>
<path d="M79.1813 33.7346C80.2091 33.9599 81.1417 34.4778 82.3577 34.3559C82.0267 34.2339 81.8153 34.1585 81.6051 34.0783C81.1359 33.8995 80.6714 33.709 80.1987 33.5418C79.8909 33.4326 79.5715 33.3548 79.258 33.2607C79.0745 33.2061 78.8654 33.1887 78.7144 33.0853C77.6448 32.3583 76.5194 31.7021 75.653 30.7103C75.1525 30.1366 74.7425 29.5187 74.4649 28.8021C74.257 28.2656 73.9411 27.7732 73.7112 27.2436C73.5904 26.966 73.5428 26.6547 73.4789 26.3539C73.3454 25.7314 73.2222 25.1078 73.0968 24.483C73.0701 24.3517 73.0341 24.217 73.0376 24.0858C73.0538 23.4691 73.0933 22.8524 73.105 22.2345C73.12 21.4541 73.2048 20.6945 73.5776 19.9872C73.6833 19.7863 73.7542 19.5552 73.7867 19.3299C74.0027 17.8305 74.6682 16.5542 75.6588 15.4276C75.8226 15.2418 75.9712 15.0316 76.0758 14.8086C76.3231 14.286 76.7447 13.8737 77.2464 13.7459C77.718 13.6263 78.1012 13.3673 78.5437 13.2163C78.841 13.1153 79.1302 13.0015 79.2371 12.6066C79.2917 12.4045 79.575 12.2454 79.7829 12.1095C80.784 11.451 81.8688 11.0039 83.0789 10.94C83.9279 10.8947 84.778 10.8889 85.6282 10.8599C85.8976 10.8506 86.1868 10.882 86.4319 10.7949C86.8685 10.6404 87.2646 10.7356 87.6815 10.8402C89.2099 11.2222 90.6697 11.7681 92.0239 12.588C92.8427 13.084 93.557 13.7018 94.2282 14.3731C95.0621 15.207 95.9494 16.0014 96.5615 17.0245C96.8971 17.5855 97.1898 18.179 97.4325 18.7852C97.7054 19.4646 97.8843 20.1812 98.134 20.871C98.2675 21.2404 98.2675 21.5783 98.1177 21.9372C97.9191 22.4145 97.7623 22.9139 97.3164 23.2589C97.0829 23.1032 97.1073 22.8744 97.0887 22.677C97.0272 22.0231 96.9947 21.3658 96.925 20.7119C96.8983 20.468 96.8193 20.223 96.7252 19.9942C96.5498 19.5668 96.3512 19.1487 96.1526 18.7318C96.1015 18.6238 96.0098 18.5355 95.8867 18.4623C95.8971 19.1975 96.4035 19.791 96.4755 20.6306C96.1178 20.1638 95.8693 19.7933 95.7659 19.3101C95.6649 18.8421 95.4756 18.3915 95.2979 17.9432C95.2305 17.7748 95.0877 17.6354 94.9483 17.4403C95.1213 17.0849 94.9355 16.7818 94.6823 16.4613C93.996 15.5937 93.3142 14.7285 92.3015 14.2093C91.7336 13.9178 91.154 13.6461 90.6012 13.3302C89.4631 12.6798 88.1855 12.4173 86.9649 11.9969C86.289 11.7646 85.5771 11.8064 84.8942 11.9156C83.8129 12.0898 82.7433 12.343 81.6737 12.5822C81.4332 12.6357 81.1626 12.7146 80.9873 12.8737C80.5552 13.2651 80.0407 13.4533 79.5077 13.6298C78.9374 13.8179 78.4764 14.1083 78.2696 14.7412C78.1732 15.0362 77.9293 15.3092 77.6913 15.5252C76.9189 16.2255 76.3847 17.0989 75.8354 17.9629C75.6821 18.2045 75.4788 18.4031 75.2988 18.6145C74.9713 19.0001 74.7669 19.5018 74.5613 19.9768C74.408 20.331 74.422 20.7119 74.458 21.1115C74.5369 21.9941 74.5497 22.886 74.5346 23.7733C74.523 24.4609 74.5938 25.1217 74.8238 25.7686C75.0038 26.2785 75.0839 26.8429 75.3511 27.3005C75.8632 28.1808 76.3348 29.1006 77.0815 29.823C77.1791 29.9171 77.2743 30.0135 77.3614 30.118C78.6064 31.6057 80.2951 32.4036 82.0314 33.1306C82.8885 33.4895 83.799 33.4965 84.6991 33.5789C85.0254 33.6091 85.3552 33.6149 85.6828 33.6231C86.2251 33.637 86.7652 33.6451 87.2692 33.3815C87.4341 33.2956 87.6339 33.1121 87.7918 33.4082C88.081 33.3048 88.4341 33.2735 88.6455 33.083C89.0589 32.7114 89.5328 32.4744 90.0194 32.2364C90.4131 32.0424 90.7929 31.8206 91.1796 31.6115C91.197 31.6023 91.211 31.5848 91.2284 31.5802C92.2725 31.3444 92.8485 30.4653 93.6023 29.8346C93.7544 29.7069 93.9704 29.7278 94.054 29.6314C94.277 29.3735 94.4443 29.0623 94.6022 28.7569C94.6963 28.5734 94.7369 28.362 94.7938 28.1599C94.8298 28.031 94.9146 27.8672 94.8682 27.772C94.5929 27.2064 95.018 26.8022 95.1272 26.2936C95.6881 26.9033 95.6776 27.369 95.0064 28.7592C95.3257 28.549 95.3223 28.5385 95.5325 28.1599C96.0667 27.1948 96.2885 26.1379 96.4569 25.0636C96.5313 24.5898 96.6102 24.1171 96.8007 23.6398C96.8367 23.8895 96.8913 24.1369 96.9076 24.3877C97.0109 26.023 96.6311 27.5165 95.6986 28.8904C94.7706 30.2574 93.7776 31.5616 92.5419 32.6614C91.9519 33.1864 91.3422 33.7009 90.5315 33.8751C90.4212 33.8983 90.3178 33.9645 90.218 34.0237C89.4247 34.4941 88.563 34.8588 87.6618 34.9168C86.1543 35.0144 84.6456 35.3233 83.1231 35.0121C81.8304 34.7473 80.568 34.3977 79.3671 33.8449C79.3009 33.817 79.2429 33.7717 79.1813 33.7346Z" fill="#333945"/>
<path d="M92.6917 20.7495C92.571 20.8483 92.4188 20.9714 92.2028 21.1479C92.1378 20.8552 92.0948 20.6624 92.0251 20.3477C91.8846 20.7344 91.967 21.0085 92.0216 21.2629C92.1099 21.6798 92.0193 22.0178 91.7301 22.3255C91.4177 22.6589 91.1936 23.0851 90.6976 23.2094C89.8731 23.4149 89.1286 23.4463 88.3633 22.8772C87.6374 22.3372 87.3563 21.6798 87.4179 20.8576C87.4516 20.4127 87.6409 19.9737 87.8023 19.5475C87.879 19.3443 88.0125 19.1422 88.3122 19.1526C88.4074 19.1561 88.5073 19.0051 88.606 18.925C88.7512 18.8065 88.8824 18.6138 89.045 18.5824C89.9741 18.4001 90.8637 18.3977 91.6453 19.0946C92.1296 19.5289 92.5663 19.9633 92.6917 20.7495Z" fill="#333945"/>
<path d="M82.7965 21.0282C82.764 20.8308 82.7315 20.6322 82.699 20.4348C82.6676 20.4383 82.6351 20.4429 82.6037 20.4464C82.6212 20.5916 82.6386 20.7367 82.6548 20.8807C82.6723 21.0329 82.6699 21.1908 82.7071 21.3383C82.7942 21.6902 82.7083 21.9957 82.4609 22.2442C82.1159 22.5915 81.8988 23.0792 81.3518 23.2105C80.526 23.4091 79.7688 23.4602 79.0162 22.8783C78.5017 22.4811 78.1696 22.0479 78.1092 21.4278C78.0395 20.7123 78.0941 20.0085 78.5563 19.4023C78.5795 19.3721 78.59 19.3117 78.6155 19.3059C79.2566 19.1514 79.5795 18.2874 80.389 18.5115C81.5724 18.292 82.2925 19.0411 83.0021 19.7844C83.1391 19.9272 83.1891 20.1595 83.2611 20.357C83.4237 20.8064 83.3424 20.9249 82.7965 21.0282Z" fill="#333945"/>
<path d="M81.7757 27.7873C81.9069 27.7676 82.0184 27.7513 82.1636 27.7292C82.1381 27.5934 82.1113 27.4575 82.08 27.2891C82.1694 27.3007 82.2298 27.2926 82.267 27.3181C82.3285 27.3611 82.4063 27.4168 82.4226 27.4819C82.5817 28.1021 83.0149 28.4923 83.5096 28.8453C83.5851 28.8988 83.5944 29.0439 83.6502 29.1856C83.9998 29.1856 84.383 29.1763 84.7663 29.1879C85.1379 29.1996 85.4643 29.0904 85.8173 28.9731C86.3748 28.7884 86.6988 28.3982 87.0008 27.9731C87.1703 27.7339 87.2272 27.4157 87.3434 27.1102C87.4851 27.1102 87.6337 27.1102 87.8149 27.1102C87.8149 27.2333 87.7963 27.3437 87.8207 27.4424C87.8416 27.5248 87.9136 27.5957 87.9427 27.6387C87.8091 27.8605 87.7023 28.08 87.5571 28.2705C87.3527 28.5411 87.1332 28.8024 86.8963 29.0451C86.6884 29.2588 86.4491 29.4435 86.2203 29.6374C86.1774 29.6734 86.1088 29.7245 86.0682 29.7129C85.6559 29.5979 85.3272 29.9405 84.9323 29.9103C84.5479 29.8825 84.1426 29.937 83.7849 29.8279C83.4121 29.7141 83.0788 29.4597 82.742 29.2449C82.3425 28.9894 82.03 28.6735 82.0451 28.1381C82.0463 28.044 81.8965 27.9418 81.7757 27.7873Z" fill="#333945"/>
<path d="M31.0734 50.47C31.0258 50.211 30.9771 50.0287 30.9608 49.8428C30.9039 49.2076 30.8667 48.5711 30.8028 47.937C30.7796 47.7094 30.7262 47.4771 30.6403 47.2669C30.4498 46.8035 30.2361 46.3494 30.0177 45.8976C29.969 45.7966 29.8598 45.7257 29.7785 45.6409C29.7413 45.6642 29.7042 45.6862 29.6658 45.7095C29.9132 46.3831 30.1606 47.0578 30.4068 47.7314C30.0259 47.4097 29.7541 47.0497 29.6705 46.5608C29.5532 45.8732 29.2849 45.2379 28.8401 44.6166C29.0155 44.2879 28.8657 43.9987 28.5904 43.7037C28.1166 43.1974 27.7426 42.5772 27.2107 42.1487C26.5708 41.633 25.8112 41.266 25.0993 40.8398C24.9669 40.7608 24.8136 40.7167 24.6835 40.6354C23.5361 39.9141 22.2167 39.6482 20.9555 39.2289C20.283 39.0059 19.5943 39.0164 18.8905 39.0989C17.7825 39.2289 16.699 39.46 15.6247 39.7423C15.1532 39.8665 14.7246 40.0733 14.3507 40.4019C14.1997 40.5343 13.9802 40.5959 13.7851 40.6702C13.497 40.7817 13.2009 40.8711 12.9129 40.9803C12.6074 41.0964 12.4309 41.3241 12.2845 41.6202C12.0987 41.9965 11.8897 42.3879 11.5958 42.6771C10.8862 43.3751 10.2986 44.1555 9.7806 44.9987C9.582 45.3227 9.28352 45.5945 9.08377 45.8964C8.60295 46.6235 8.17556 47.3819 8.33583 48.3655C8.47752 49.2343 8.40319 50.1378 8.44849 51.024C8.47636 51.5617 8.49146 52.1099 8.61224 52.629C9.04428 54.4826 10.0431 56.0144 11.3113 57.4162C12.1231 58.314 13.1045 58.9423 14.1393 59.4939C14.9186 59.9097 15.7606 60.2221 16.5979 60.5102C17.0253 60.6565 17.505 60.6646 17.9637 60.7053C18.6176 60.7633 19.2738 60.833 19.9276 60.8214C20.3225 60.8144 20.715 60.66 21.1088 60.5752C21.312 60.5311 21.5118 60.2732 21.7243 60.5578C21.9949 60.466 22.3445 60.4509 22.5222 60.2686C22.989 59.7889 23.5964 59.5903 24.1574 59.2965C24.4292 59.1537 24.6998 59.0073 24.9692 58.8587C25.0366 58.8215 25.0923 58.7472 25.1632 58.7332C26.1399 58.5428 26.6346 57.6787 27.3744 57.1572C27.5417 57.0399 27.5986 56.7415 27.8982 56.8553C28.0922 56.5487 28.3035 56.2525 28.4731 55.9331C28.5788 55.7345 28.6194 55.5011 28.6926 55.2839C28.7588 55.0876 28.89 54.8983 28.6705 54.7032C28.6241 54.6626 28.6311 54.5232 28.6578 54.4454C28.7658 54.1388 28.8912 53.838 29.0155 53.5209C29.4522 54.1527 29.6868 53.8322 28.9853 55.8333C29.307 55.5801 29.6357 55.0517 29.8401 54.3664C30.0166 53.7741 30.1757 53.1748 30.2988 52.5698C30.4184 51.9867 30.4835 51.3921 30.617 50.8068C30.9271 52.2121 30.8296 53.5883 30.2338 54.8983C29.6775 56.1213 28.854 57.1805 27.9923 58.199C27.4952 58.7867 26.9389 59.329 26.3791 59.8598C25.788 60.4219 25.1225 60.8644 24.3223 61.1152C23.7172 61.3046 23.1621 61.6472 22.564 61.8609C21.9833 62.0687 21.3805 62.2278 20.7452 62.1059C20.6361 62.085 20.5118 62.1082 20.4015 62.1361C18.9114 62.5205 17.4353 62.3417 15.9847 61.9642C15.0719 61.7261 14.1892 61.3696 13.295 61.0607C13.2288 61.0374 13.1753 60.9759 13.1254 60.905C14.1219 61.1245 15.0533 61.646 16.1322 61.459C15.8639 61.3766 15.5922 61.3011 15.3274 61.2105C14.9801 61.092 14.6387 60.9561 14.2914 60.8365C13.8931 60.7006 13.4901 60.5752 13.0894 60.444C12.907 60.3836 12.7003 60.3569 12.5517 60.2488C11.6771 59.6147 10.7922 58.9899 9.95829 58.3035C9.26494 57.7333 8.77368 56.9935 8.41481 56.1585C8.15117 55.5441 7.97464 54.8891 7.5368 54.3444C7.37537 54.1434 7.39859 53.7915 7.34285 53.5082C7.22439 52.9019 7.11057 52.2945 6.99327 51.6883C6.9712 51.5745 6.92126 51.4595 6.92707 51.348C6.98979 50.2296 7.06179 49.1123 7.13148 47.9951C7.13264 47.9753 7.13031 47.9533 7.13844 47.9382C7.78417 46.8279 7.71681 45.4807 8.37184 44.3541C8.78181 43.6492 9.13719 42.9303 9.74343 42.367C9.85376 42.2648 9.95713 42.1254 9.99894 41.9849C10.1604 41.4437 10.6075 41.1115 11.0512 40.9791C11.4913 40.8479 11.8746 40.6191 12.2962 40.4693C12.6434 40.3462 13.0418 40.2637 13.1173 39.7794C13.1335 39.6761 13.2996 39.589 13.4076 39.51C14.3727 38.8039 15.4145 38.3277 16.6328 38.1825C17.5979 38.0664 18.556 38.0048 19.5235 38.0002C19.8881 37.9979 20.2528 37.9317 20.6175 37.9096C20.8068 37.8991 21.0042 37.8933 21.1866 37.9363C22.9856 38.3602 24.7288 38.9409 26.2525 40.0163C26.9436 40.5041 27.5893 41.0686 28.1955 41.6585C28.8726 42.317 29.5044 43.0278 30.1153 43.749C30.7483 44.4958 31.1478 45.3715 31.4114 46.318C31.5868 46.9487 31.8597 47.5514 32.042 48.1797C32.2488 48.88 31.7923 49.9729 31.0734 50.47Z" fill="#333945"/>
<path d="M0.0367753 60.2071C0.581823 60.9701 0.878529 62.05 1.6084 62.9343C2.45808 63.9568 3.56815 65.0005 4.42266 65.8566C5.13878 65.9261 5.40196 66.729 6.05247 66.649C6.46682 65.7385 5.44165 65.6922 5.00671 65.3889C4.84361 65.2786 4.75051 65.024 4.54918 64.8362C4.34785 64.6485 4.12003 64.6382 3.96229 64.5057C3.5815 64.18 3.21595 63.5661 2.78589 63.113C2.34747 62.6964 1.95152 62.2353 1.60413 61.737C1.18398 61.0179 1.05602 60.1148 0.295194 59.6741C0.12739 59.7634 -0.0831875 60.0246 0.0367753 60.2071Z" fill="#333945"/>
<path d="M2.70981 57.9117C3.34918 58.9351 4.07732 59.9044 4.88637 60.8089C5.94345 62.2678 7.30211 63.4994 8.87673 64.426C8.98016 64.7451 9.20975 65.0058 9.60029 64.8417C9.90326 63.7425 8.51819 63.4395 7.85432 62.89C6.4964 61.7618 5.57689 60.394 4.44088 59.0617C4.25962 58.8532 3.23018 57.0325 2.98349 57.0392C2.55646 57.093 2.55828 57.6043 2.70981 57.9117Z" fill="#333945"/>
<path d="M16.6894 48.2215C16.6488 48.0264 16.6093 47.8325 16.5687 47.6385C16.5396 47.642 16.5094 47.6455 16.4804 47.649C16.5141 47.9567 16.5571 48.2633 16.5768 48.5723C16.5884 48.7418 16.6209 48.9486 16.542 49.0775C16.2121 49.6198 15.873 50.1715 15.2273 50.4015C14.6036 50.6244 13.9439 50.6488 13.3598 50.3794C12.9475 50.1889 12.5712 49.8277 12.2971 49.4549C11.9208 48.9427 11.8488 48.3156 12.0114 47.6885C12.0927 47.376 12.1879 47.0613 12.3203 46.7686C12.4272 46.5317 12.5503 46.2727 12.901 46.2983C12.973 46.3041 13.0868 46.2181 13.124 46.145C13.3261 45.7478 13.6907 45.7373 14.0624 45.699C14.5664 45.6467 15.0635 45.6084 15.5246 45.8697C16.2365 46.2739 16.9008 46.7222 17.1494 47.577C17.2736 47.9974 17.2225 48.0926 16.6894 48.2215Z" fill="#333945"/>
<path d="M26.6205 47.8975C26.459 48.0252 26.293 48.1565 26.0711 48.3307C26.0084 48.0368 25.9666 47.8417 25.9248 47.6455C25.8981 47.6489 25.8702 47.6524 25.8435 47.6571C25.876 47.9834 25.9062 48.3098 25.9434 48.635C25.9759 48.9183 25.9178 49.1622 25.7123 49.3794C25.3464 49.7661 25.0967 50.2737 24.5184 50.4293C23.904 50.5942 23.2699 50.6523 22.7066 50.3817C22.2943 50.1842 21.8867 49.8474 21.6393 49.4677C21.3037 48.9543 21.1782 48.3307 21.3594 47.6977C21.443 47.4039 21.4988 47.0961 21.6242 46.8209C21.738 46.5712 21.8576 46.2797 22.2351 46.2994C22.3071 46.3029 22.4105 46.2135 22.4546 46.1391C22.6741 45.7698 23.0341 45.7582 23.4046 45.6955C24.3476 45.5352 25.0724 45.886 25.768 46.4922C26.2059 46.8731 26.3928 47.3481 26.6205 47.8975Z" fill="#333945"/>
<path d="M23.9586 55.9272C24.1177 55.9992 24.3129 56.0887 24.5498 56.1955C24.2536 56.4464 24.0086 56.3953 23.6962 56.185C23.7995 56.5428 23.8785 56.818 23.9575 57.0932C23.918 57.1188 23.8785 57.1432 23.839 57.1687C23.6845 57.0154 23.4058 56.8668 23.3988 56.7077C23.3698 56.0677 22.8634 55.7495 22.551 55.3059C22.2235 54.8402 21.7543 54.5382 21.1585 54.2955C21.3351 54.2397 21.4582 54.2002 21.6777 54.1306C21.4895 54.033 21.3571 53.9052 21.277 53.9331C20.687 54.1352 20.1075 53.9772 19.5268 53.9134C18.9252 53.8472 18.3538 53.882 17.8463 54.2571C17.6082 54.4325 17.3585 54.544 17.053 54.3048C16.9659 54.6938 16.6953 54.8518 16.4665 55.0748C16.0066 55.5231 15.4492 55.9563 15.369 56.6879C15.3458 56.897 15.2796 57.1014 15.2308 57.3232C14.9335 57.3232 14.642 57.3232 14.2727 57.3232C14.3621 57.1304 14.4295 57.0212 14.4631 56.9028C14.4968 56.7808 14.4968 56.6496 14.5235 56.415C14.3563 56.5474 14.2692 56.6159 14.1461 56.7135C14.0625 56.4022 14.2645 56.2338 14.4353 56.1711C14.7419 56.0596 14.8104 55.8343 14.8778 55.5742C14.9161 55.4278 14.9335 55.2304 15.0334 55.1537C15.6315 54.6996 16.0438 54.0214 16.7708 53.7229C16.8463 53.6915 16.9102 53.6044 16.9555 53.529C17.2005 53.1236 17.5118 52.9866 17.9415 53.1445C18.1947 53.2374 18.3584 53.2072 18.5442 52.9901C18.6488 52.8681 18.8752 52.8101 19.0518 52.7984C19.3758 52.7764 19.7045 52.8217 20.0308 52.8182C21.1504 52.8043 22.0807 53.2258 22.8681 54.0074C23.0226 54.1607 23.2467 54.2432 23.407 54.393C23.5533 54.5301 23.7089 54.6961 23.7658 54.8796C23.8646 55.2037 23.8924 55.5474 23.9586 55.9272Z" fill="#333945"/>
<path d="M14.2494 43.929C14.7302 44.2948 15.1007 44.6293 15.6106 44.7199C16.0983 44.8058 16.5815 44.9173 17.0739 45.0183C17.2098 45.3784 16.8776 45.4504 16.7464 45.563C16.1587 45.4736 15.6175 45.4016 15.081 45.3052C14.88 45.2692 14.6745 45.1995 14.4979 45.0985C14.1542 44.9022 14.1275 44.7907 14.2134 44.354C14.2332 44.2495 14.232 44.1427 14.2494 43.929Z" fill="#333945"/>
<path d="M20.903 44.6759C22.0517 44.835 22.8669 44.2241 23.7357 43.7631C23.9807 44.1033 23.9703 44.317 23.6904 44.4854C23.2374 44.7572 22.781 45.0208 22.3234 45.2845C22.2247 45.3414 22.119 45.3983 22.0098 45.4238C21.4547 45.5562 21.313 45.4668 20.903 44.6759Z" fill="#333945"/>
<path d="M52.2879 23.5412C53.3111 23.7595 54.2379 24.2566 55.3133 24.0847C55.1588 24.0313 55.0044 23.9802 54.8511 23.9244C54.3273 23.7305 53.8058 23.5272 53.2786 23.3414C52.9894 23.2392 52.6874 23.1695 52.3947 23.0766C52.1392 22.9953 51.857 22.9477 51.641 22.8049C50.9662 22.3566 50.2891 21.9036 49.6666 21.388C49.1649 20.971 48.7015 20.4925 48.2962 19.9815C47.9896 19.5959 47.7945 19.1198 47.5657 18.6761C47.2835 18.1303 47.0117 17.5775 46.7458 17.0235C46.6807 16.8876 46.647 16.7331 46.6168 16.5833C46.4519 15.7889 46.2928 14.9934 46.1314 14.1978C46.1198 14.1409 46.0907 14.084 46.0931 14.0294C46.136 13.0074 46.1895 11.9854 46.2243 10.9634C46.2406 10.4767 46.5355 10.0993 46.683 9.66493C46.7388 9.50118 46.8317 9.33974 46.841 9.17367C46.9165 7.88453 47.5843 6.83812 48.2196 5.78126C48.3566 5.55363 48.5749 5.37477 48.7503 5.16921C48.8618 5.03797 49.0105 4.91138 49.0581 4.75692C49.2195 4.23197 49.6376 3.95091 50.0371 3.64779C50.1277 3.57811 50.2439 3.47591 50.3379 3.48636C50.8025 3.53746 51.1091 3.19253 51.4923 3.04852C51.8396 2.91844 52.2043 2.80114 52.3192 2.34704C52.3576 2.1949 52.5875 2.08224 52.7443 1.96959C53.7907 1.21585 54.9649 0.804719 56.2459 0.715292C57.0368 0.659546 57.83 0.652578 58.6209 0.610768C59.0239 0.589863 59.4258 0.531793 59.8288 0.505082C59.9983 0.494629 60.1772 0.498113 60.3421 0.536439C62.1457 0.948731 63.8657 1.57704 65.415 2.60254C65.9109 2.93122 66.3592 3.34002 66.7901 3.75348C67.5299 4.46309 68.2662 5.17966 68.9515 5.94037C69.6018 6.66159 70.0861 7.50592 70.4194 8.42109C70.711 9.21896 70.9757 10.0273 71.2208 10.8414C71.4182 11.4964 70.9351 12.6172 70.2801 13.0271C70.2336 12.8553 70.1686 12.7008 70.1535 12.5405C70.0931 11.9064 70.0478 11.27 69.9967 10.6347C69.9874 10.5186 70.0072 10.392 69.9653 10.2898C69.6959 9.63241 69.4172 8.97855 69.1326 8.32818C69.1071 8.27011 69.0246 8.23759 68.912 8.147C68.8783 8.29914 68.8133 8.4118 68.8423 8.48961C68.9422 8.76021 69.0746 9.0192 69.193 9.284C69.3394 9.61035 69.5275 9.92508 69.4845 10.3862C69.1559 9.91812 68.8795 9.54066 68.8237 8.99597C68.7598 8.3665 68.5322 7.76258 68.0061 7.2748C68.2093 6.80212 67.9236 6.45486 67.6263 6.08554C67.0793 5.40729 66.5776 4.68491 65.8041 4.24126C65.235 3.91491 64.6265 3.65592 64.0597 3.32725C62.6904 2.5317 61.1841 2.1136 59.6673 1.74196C59.2109 1.63046 58.7104 1.6955 58.2295 1.68737C58.1343 1.68621 58.0391 1.72802 57.9438 1.73267C56.9009 1.78493 55.9103 2.0985 54.9045 2.33543C54.5898 2.40975 54.2321 2.4957 54.0021 2.69894C53.519 3.12401 52.9359 3.29009 52.3622 3.5003C51.8849 3.6745 51.5585 3.97066 51.3588 4.46773C51.2206 4.8115 50.9442 5.12043 50.6724 5.38639C49.9605 6.08322 49.41 6.89387 48.9059 7.744C48.7979 7.92518 48.6888 8.12261 48.5308 8.25501C47.8642 8.8148 47.6447 9.58596 47.4716 10.3838C47.4554 10.457 47.4588 10.5406 47.4763 10.6138C47.712 11.6474 47.6122 12.695 47.5959 13.7368C47.5843 14.444 47.7248 15.1142 47.9257 15.7866C48.554 17.8992 49.8676 19.5565 51.4772 20.971C52.1462 21.5587 53.0161 21.9187 53.8035 22.367C54.088 22.5284 54.4005 22.6399 54.6978 22.7805C55.6095 23.209 56.5955 23.2671 57.5745 23.3577C57.9775 23.3948 58.3852 23.4506 58.787 23.4262C59.2632 23.3972 59.737 23.3019 60.2074 23.2137C60.4397 23.1707 60.6534 22.8873 60.9007 23.18C61.1725 23.0871 61.5325 23.072 61.7009 22.885C62.1806 22.3508 62.853 22.1893 63.4314 21.8525C63.6788 21.7085 63.9354 21.5784 64.1863 21.4402C64.2374 21.4124 64.278 21.3578 64.3315 21.345C65.3512 21.1069 65.9028 20.2359 66.6508 19.6296C66.7657 19.5367 66.8192 19.2998 67.0491 19.4659C67.0642 19.4763 67.1664 19.3846 67.2152 19.3288C67.6228 18.8619 67.7006 18.2511 67.9225 17.7029C67.9434 17.6518 67.9527 17.5763 67.9294 17.5322C67.6391 16.9735 68.0944 16.5798 68.1942 16.0479C68.9561 16.9503 68.3963 17.7226 68.1791 18.5553C68.3022 18.3788 68.4416 18.2116 68.545 18.0234C69.0804 17.0432 69.3568 15.9806 69.5159 14.883C69.5658 14.5381 69.6042 14.192 69.6576 13.8482C69.6831 13.6845 69.7319 13.5242 69.8097 13.3709C70.1883 15.0921 69.9468 16.7262 69.0397 18.2209C68.135 19.7121 67.084 21.0988 65.7832 22.2811C65.1061 22.8966 64.4093 23.4587 63.5034 23.7177C63.1921 23.806 62.9169 24.0139 62.6149 24.1416C61.7578 24.504 60.8961 24.828 59.9286 24.7246C59.6337 24.6933 59.3224 24.8129 59.0181 24.864C57.7325 25.0777 56.4631 24.9163 55.225 24.5911C54.275 24.3414 53.3564 23.972 52.4249 23.6527C52.3669 23.6352 52.3297 23.5795 52.2879 23.5412Z" fill="#333945"/>
<path d="M55.8501 10.8404C55.8164 10.6093 55.7897 10.4281 55.763 10.2481C55.7293 10.2516 55.6957 10.2539 55.662 10.2574C55.6968 10.5617 55.7177 10.8694 55.7723 11.1702C55.8281 11.4792 55.7665 11.7405 55.554 11.9716C55.4111 12.1284 55.2636 12.2852 55.1475 12.4617C54.9315 12.788 54.6225 12.9704 54.2602 13.0598C53.669 13.205 53.0477 13.2422 52.5042 12.9808C52.107 12.7904 51.7214 12.4663 51.4717 12.1052C51.114 11.5895 51.049 10.9531 51.1814 10.3306C51.2557 9.97982 51.3927 9.64069 51.524 9.30505C51.6099 9.08439 51.7458 8.90553 52.0327 8.9125C52.1105 8.91483 52.2231 8.83934 52.2626 8.76849C52.4868 8.37246 52.8596 8.34226 53.2556 8.30394C53.7596 8.254 54.2532 8.21219 54.712 8.47814C55.4007 8.87998 56.0441 9.32363 56.3158 10.1366C56.4657 10.5907 56.4273 10.6755 55.8501 10.8404Z" fill="#333945"/>
<path d="M65.0746 10.8564C65.1721 12.091 64.2686 13.0875 63.0561 13.1269C62.9214 13.1316 62.7855 13.1455 62.6507 13.142C61.3465 13.1095 60.1967 11.7937 60.4801 10.3872C60.5823 9.87971 60.6985 9.36986 61.1317 8.95525C61.3616 8.95293 61.5974 8.88324 61.7507 8.60451C61.8146 8.48837 61.9899 8.38965 62.1293 8.36527C63.1188 8.18757 64.0537 8.25377 64.8272 9.00984C65.1698 9.34548 65.5531 9.62189 65.6367 10.1619C65.7087 10.6358 65.6297 10.7995 65.0746 10.8564ZM65.0653 10.1329C65.0269 10.1445 64.9886 10.1573 64.9503 10.1689C64.9782 10.2897 65.006 10.4093 65.0339 10.5301C65.0641 10.5243 65.0955 10.5185 65.1257 10.5115C65.1059 10.3861 65.0862 10.2595 65.0653 10.1329Z" fill="#333945"/>
<path d="M62.8345 17.1688C62.5221 17.3535 62.1702 17.1781 62.1145 17.5892C62.2039 17.6136 62.3015 17.6403 62.5151 17.6996C62.4002 17.7507 62.3525 17.7855 62.3014 17.7925C61.9205 17.8447 61.6278 17.9516 61.5291 18.4126C61.4653 18.7088 61.2039 18.9144 60.8346 18.9155C60.4409 18.9178 60.0495 19.1443 59.6547 18.9225C59.5629 18.8702 59.4781 18.8052 59.3864 18.7541C59.2946 18.7042 59.1901 18.6136 59.1053 18.6287C58.7093 18.6949 58.5513 18.4579 58.4096 18.0596C58.103 18.4347 57.8324 18.7704 57.5583 19.1025C57.124 19.6298 55.8674 20.1419 55.001 19.5787C54.9266 19.5299 54.8233 19.4939 54.7373 19.5009C54.3123 19.5369 54.1683 19.2674 54.0672 18.9271C53.9894 18.6647 53.8884 18.408 53.7804 18.1014C53.8466 18.0456 53.9522 17.9551 54.0963 17.832C53.8884 17.7332 53.7269 17.6554 53.5562 17.5741C53.9151 17.2443 54.0649 17.2617 54.3564 17.5846C54.6259 17.8831 54.9069 18.1746 55.2089 18.437C55.5979 18.775 56.0265 18.6658 56.4876 18.4347C56.4434 18.6089 56.4132 18.7297 56.3819 18.8493C56.4039 18.8726 56.426 18.8946 56.4469 18.9178C56.5421 18.8273 56.6652 18.7518 56.7256 18.6414C56.7976 18.5102 56.8093 18.3488 56.858 18.2036C57.0973 17.4789 57.9753 17.077 58.693 17.3511C58.9218 17.4382 59.1715 17.4742 59.3957 17.5706C59.6279 17.6694 59.8277 17.8215 59.7348 18.178C59.9044 18.1269 60.0147 18.0573 60.1146 18.07C60.708 18.1502 61.0065 17.7483 61.161 17.3163C61.3538 16.7751 61.8508 16.681 62.226 16.4093C62.2771 16.3721 62.471 16.4371 62.5151 16.5068C62.6441 16.7089 62.7277 16.9377 62.8345 17.1688Z" fill="#333945"/>
<path d="M65.0656 10.1332C65.0853 10.2598 65.1062 10.3864 65.126 10.513C65.0958 10.5188 65.0644 10.5246 65.0342 10.5315C65.0064 10.4108 64.9785 10.2911 64.9506 10.1703C64.9889 10.1576 65.0273 10.1448 65.0656 10.1332Z" fill="#333945"/>
<path d="M91.7106 6.95961C91.6159 6.95961 91.597 7.03333 91.5213 7.05176C91.4518 8.48316 93.4144 8.31115 94.3421 8.69818C95.8124 9.31252 97.3206 10.7255 98.5701 11.5364C99.9269 12.4088 101.492 12.7651 101.953 14.2764C101.953 15.1426 102.312 16.0211 103.082 15.8306C103.675 14.5098 102.451 12.8634 101.58 12.0832C100.709 11.303 99.3148 10.7193 98.2167 9.88385C96.346 8.55835 94.2475 7.56811 92.0198 6.95961C91.9567 6.80602 91.8747 6.97804 91.7106 6.95961Z" fill="#333945"/>
<path d="M96.4138 7.78487C96.7235 8.09676 97.45 7.94732 98.0098 7.9798C98.653 8.74653 99.7011 8.99994 100.582 9.72117C101.464 10.4424 102.137 12.4242 103.238 11.4625C102.429 9.41578 99.9333 8.36966 98.2778 6.91419C97.3964 6.90769 96.0208 6.70627 96.4138 7.78487Z" fill="#333945"/>
<path fill-rule="evenodd" clip-rule="evenodd" d="M56.2481 50.989C54.1271 51.7692 52.4853 53.1097 51.3598 55.0887C49.9332 57.5382 49.8088 60.0718 51.1974 62.5131C52.5666 64.9235 54.7119 66.4414 57.4891 66.793C59.0149 66.9856 60.6515 67.159 61.9571 65.9543C62.3184 65.6216 62.6576 65.2647 62.9967 64.9078C63.3002 64.5885 63.6036 64.2693 63.9228 63.9674C66.3958 61.6282 66.7197 58.8117 65.8456 55.7054C65.7471 55.3518 65.6309 54.9231 65.7411 54.6047C66.1043 53.5528 66.5507 52.5291 66.9965 51.5069L66.9995 51.4999C67.3469 50.7036 67.7037 49.9114 68.0605 49.1191C68.4315 48.2955 68.8024 47.4719 69.1628 46.6437C69.6081 45.6183 70.0237 44.5799 70.4258 43.5376C70.7532 42.6881 71.0725 41.8356 71.3917 40.9831C72.0061 39.3424 72.6204 37.702 73.292 36.0843C73.3251 36.0048 73.3566 35.9295 73.3866 35.8579C73.9433 34.5281 73.9487 34.5151 72.5437 33.7073C72.4228 33.638 72.295 33.5798 72.1669 33.5215C72.0641 33.4746 71.9611 33.4277 71.8615 33.375C71.2252 33.0375 70.6716 32.9994 70.1402 33.6291C69.6941 34.1562 69.2305 34.668 68.767 35.1796C68.2453 35.7556 67.7238 36.3313 67.2279 36.9283C67.1362 37.0386 67.0445 37.149 66.9527 37.2593C65.4583 39.0567 63.9624 40.8559 62.5604 42.7246C61.7105 43.8571 60.9197 45.0337 60.1289 46.2101C59.6674 46.8967 59.206 47.5833 58.7328 48.261C58.1953 49.0308 57.6197 49.7749 57.0204 50.4955C56.8342 50.7212 56.5306 50.8854 56.2481 50.989ZM65.6784 50.8361C65.2916 51.7291 64.8901 52.656 64.4644 53.6402C62.9345 51.6943 61.0355 51.1322 58.8231 50.7308C59.0211 50.422 59.2102 50.1229 59.3946 49.8315C59.8156 49.1658 60.2115 48.5398 60.63 47.9288C60.8953 47.542 61.1889 47.174 61.4827 46.8059C61.6393 46.6096 61.796 46.4132 61.9484 46.214C62.6348 45.3146 63.3202 44.4147 64.0057 43.5149C65.2402 41.894 66.4748 40.2732 67.7148 38.6556C68.1832 38.0459 68.664 37.447 69.1449 36.848C69.3619 36.5777 69.579 36.3073 69.7949 36.0359C69.8168 36.0077 69.8365 35.9747 69.8562 35.9417C69.8963 35.8743 69.9362 35.8072 69.9949 35.7827C70.3717 35.6231 70.7548 35.4765 71.1375 35.33C71.2538 35.2854 71.3702 35.2409 71.4862 35.196C71.4759 35.3539 71.4765 35.5159 71.477 35.6779C71.4782 36.0336 71.4794 36.3896 71.3656 36.7028C70.43 39.2687 69.4451 41.8182 68.4567 44.3637C68.1947 45.0385 67.9044 45.7025 67.6141 46.3663C67.514 46.5952 67.4139 46.8241 67.315 47.0534C66.7813 48.2902 66.2457 49.5266 65.6784 50.8361ZM58.0859 65.4903C61.7027 65.4903 64.6348 62.5583 64.6348 58.9414C64.6348 55.3246 61.7027 52.3926 58.0859 52.3926C54.469 52.3926 51.537 55.3246 51.537 58.9414C51.537 62.5583 54.469 65.4903 58.0859 65.4903Z" fill="#333945"/>
</svg>
