<svg width="26" height="26" viewBox="0 0 26 26" fill="none" xmlns="http://www.w3.org/2000/svg">
<g clip-path="url(#clip0_1_969)">
<path d="M1.5 7.5H0.5V9.5H1.5V7.5ZM24.5 9.5C25.0523 9.5 25.5 9.05228 25.5 8.5C25.5 7.94772 25.0523 7.5 24.5 7.5V9.5ZM1.5 9.5H24.5V7.5H1.5V9.5Z" fill="white"/>
<path d="M20.5 4.5L24.5 8.5L20.5 12.5" stroke="white" stroke-width="2" stroke-linecap="square" stroke-linejoin="round"/>
<path d="M24.5 16.5H25.5V18.5H24.5V16.5ZM1.5 18.5C0.947716 18.5 0.5 18.0523 0.5 17.5C0.5 16.9477 0.947716 16.5 1.5 16.5V18.5ZM24.5 18.5H1.5V16.5H24.5V18.5Z" fill="white"/>
<path d="M5.5 13.5L1.5 17.5L5.5 21.5" stroke="white" stroke-width="2" stroke-linecap="square" stroke-linejoin="round"/>
</g>
<defs>
<clipPath id="clip0_1_969">
<rect width="25" height="25" fill="white" transform="translate(0.5 0.5)"/>
</clipPath>
</defs>
</svg>
