<svg width="22" height="20" viewBox="0 0 22 20" fill="none" xmlns="http://www.w3.org/2000/svg">
<path fill-rule="evenodd" clip-rule="evenodd" d="M10.9999 1.24225C10.8958 1.24225 10.794 1.27326 10.7075 1.33134C10.6213 1.38922 10.5543 1.47136 10.5148 1.56736C10.5147 1.56769 10.5146 1.56802 10.5144 1.56834L8.40874 6.79143C8.3374 6.96839 8.17157 7.08932 7.98127 7.10316L2.32604 7.51445C2.22253 7.523 2.12388 7.56209 2.0426 7.62678C1.96094 7.69177 1.90053 7.77964 1.86909 7.87916C1.83765 7.97868 1.83662 8.08532 1.86612 8.18543C1.89559 8.28541 1.95418 8.37434 2.0344 8.44087C2.03451 8.44096 2.0343 8.44078 2.0344 8.44087L6.37462 12.02C6.52345 12.1427 6.5884 12.3401 6.54151 12.5273L5.1554 18.0594C5.15534 18.0596 5.15545 18.0592 5.1554 18.0594C5.13052 18.1608 5.13631 18.268 5.17236 18.3661C5.20849 18.4643 5.2732 18.5495 5.35815 18.6107C5.4431 18.6718 5.54441 18.7062 5.64904 18.7093C5.75338 18.7124 5.85626 18.6843 5.94452 18.6286C5.94477 18.6284 5.94426 18.6287 5.94452 18.6286L10.7287 15.5721C10.8925 15.4675 11.1021 15.4673 11.2661 15.5715L16.0546 18.6158C16.0547 18.6158 16.0545 18.6157 16.0546 18.6158C16.143 18.6717 16.2463 18.7 16.3508 18.6969C16.4555 18.6938 16.5568 18.6595 16.6417 18.5983C16.7267 18.5372 16.7914 18.452 16.8275 18.3537C16.8635 18.2558 16.8695 18.1493 16.8447 18.0479C16.8446 18.0476 16.8447 18.0481 16.8447 18.0479L15.4584 12.5149C15.4115 12.3278 15.4764 12.1304 15.6252 12.0077L19.9652 8.42878C19.9653 8.42865 19.965 8.42892 19.9652 8.42878C20.0453 8.36227 20.1043 8.27298 20.1337 8.17308C20.1632 8.07297 20.1622 7.96634 20.1308 7.86682C20.0993 7.7673 20.0389 7.67942 19.9573 7.61443C19.876 7.54975 19.7773 7.51066 19.6738 7.50211C19.6733 7.50207 19.6729 7.50203 19.6724 7.50199L14.0186 7.09082C13.8284 7.07699 13.6627 6.95623 13.5913 6.77947L11.4854 1.56834C11.4854 1.56811 11.4855 1.56857 11.4854 1.56834C11.446 1.47222 11.3786 1.38928 11.2924 1.33134C11.2059 1.27326 11.1041 1.24225 10.9999 1.24225ZM11.9483 1.37922L12.4111 1.19009C12.2966 0.909828 12.1013 0.670009 11.8499 0.501203C11.5986 0.332397 11.3027 0.242249 10.9999 0.242249C10.6972 0.242249 10.4013 0.332397 10.1499 0.501203C9.89861 0.670009 9.70324 0.909828 9.58872 1.19009L9.58784 1.19226L7.59783 6.12841L2.25147 6.51723L2.24797 6.5175C1.94557 6.54163 1.65725 6.65542 1.41989 6.84433C1.18253 7.03323 1.00692 7.28866 0.915539 7.57793C0.824157 7.86719 0.821154 8.17715 0.906914 8.46813C0.992674 8.75911 1.1633 9.01789 1.39696 9.21136L5.49474 12.5906L4.18495 17.8181L4.18452 17.8198C4.11162 18.1152 4.12879 18.4257 4.23382 18.7112C4.33884 18.9968 4.52692 19.2444 4.77384 19.4222C5.02077 19.6 5.31524 19.6998 5.61938 19.7088C5.92351 19.7179 6.22339 19.6357 6.48043 19.4729L6.48204 19.4718L10.9985 16.5864L15.5188 19.4601C15.7758 19.6229 16.0764 19.7055 16.3805 19.6965C16.6846 19.6875 16.9791 19.5876 17.226 19.4099C17.4729 19.2321 17.661 18.9845 17.766 18.6989C17.8711 18.4133 17.8882 18.1029 17.8153 17.8075L16.5051 12.5782L20.6021 9.19966C20.8358 9.00619 21.0072 8.74677 21.093 8.45579C21.1787 8.1648 21.1757 7.85485 21.0843 7.56558C20.9929 7.27632 20.8173 7.02089 20.58 6.83198C20.3426 6.64308 20.0543 6.52928 19.7519 6.50515L14.4018 6.11604L12.4119 1.19188L11.9483 1.37922Z" fill="url(#paint0_linear_56_1658)"/>
<defs>
<linearGradient id="paint0_linear_56_1658" x1="10.9999" y1="0.242249" x2="10.9999" y2="19.7095" gradientUnits="userSpaceOnUse">
<stop stop-color="#58BFFF"/>
<stop offset="1" stop-color="#3793FF"/>
</linearGradient>
</defs>
</svg>
