<svg width="17" height="16" viewBox="0 0 17 16" fill="none" xmlns="http://www.w3.org/2000/svg">
<path d="M16.6222 6.01443C16.5469 5.77998 16.4071 5.57147 16.2188 5.41278C16.0305 5.2541 15.8013 5.15166 15.5575 5.11719L11.3895 4.51148L9.52597 0.734699C9.41701 0.514146 9.24854 0.328463 9.03959 0.198633C8.83064 0.0688023 8.58954 0 8.34354 0C8.09753 0 7.85644 0.0688023 7.64749 0.198633C7.43853 0.328463 7.27006 0.514146 7.1611 0.734699L5.29753 4.51148L1.12931 5.11719C0.885792 5.15249 0.657016 5.25523 0.468856 5.41378C0.280695 5.57234 0.14066 5.78039 0.0645893 6.01439C-0.0114812 6.2484 -0.0205507 6.49902 0.0384067 6.73791C0.0973641 6.9768 0.221996 7.19443 0.398203 7.36617L3.41449 10.3059L2.7024 14.4571C2.66091 14.6996 2.68808 14.9489 2.78084 15.1767C2.8736 15.4046 3.02825 15.602 3.22732 15.7466C3.42638 15.8912 3.66192 15.9772 3.90731 15.9949C4.1527 16.0126 4.39816 15.9614 4.61594 15.8469L8.3434 13.8873L12.0713 15.8474C12.2889 15.9627 12.5345 16.0144 12.78 15.9965C13.0256 15.9787 13.2611 15.892 13.4597 15.7465C13.6596 15.6027 13.8148 15.4054 13.9076 15.1774C14.0004 14.9493 14.027 14.6997 13.9844 14.4572L13.2723 10.3061L16.2886 7.36631C16.4656 7.19508 16.5908 6.97745 16.6498 6.73835C16.7088 6.49925 16.6992 6.24835 16.6222 6.01443Z" fill="url(#paint0_linear_30_2722)"/>
<defs>
<linearGradient id="paint0_linear_30_2722" x1="8.34399" y1="0" x2="8.34399" y2="16" gradientUnits="userSpaceOnUse">
<stop stop-color="#F9A01B"/>
<stop offset="1" stop-color="#F04F23"/>
</linearGradient>
</defs>
</svg>
