<svg width="22" height="20" viewBox="0 0 22 20" fill="none" xmlns="http://www.w3.org/2000/svg">
<path fill-rule="evenodd" clip-rule="evenodd" d="M2.14561 1.41699H19.8504C20.2027 1.41698 20.5408 1.5561 20.791 1.80408C21.0413 2.05206 21.1835 2.38884 21.1867 2.74114L21.1868 2.74571L21.1868 13.1142C21.1868 13.4687 21.046 13.8086 20.7954 14.0592C20.5447 14.3098 20.2048 14.4506 19.8504 14.4506H9.73481L5.59254 18.5929C5.44954 18.7359 5.23448 18.7786 5.04765 18.7013C4.86081 18.6239 4.73899 18.4415 4.73899 18.2393V14.4506H2.14105C1.78874 14.4474 1.45196 14.3051 1.20398 14.0549C0.956002 13.8046 0.816885 13.4666 0.816895 13.1142C0.816895 13.1142 0.816895 13.1142 0.816895 13.1142V2.74117C0.820078 2.39096 0.96063 2.05601 1.20827 1.80837C1.45591 1.56073 1.79087 1.4202 2.14107 1.41701L2.14561 1.41699ZM2.1484 2.41699C2.06089 2.41825 1.97729 2.45356 1.91538 2.51547C1.85346 2.57739 1.81815 2.66099 1.81689 2.74849V13.1142C1.81689 13.2029 1.85191 13.288 1.91432 13.351C1.97632 13.4136 2.06037 13.4493 2.1484 13.4506H5.23899C5.51513 13.4506 5.73899 13.6745 5.73899 13.9506V17.0322L9.07319 13.698C9.16001 13.55 9.32079 13.4506 9.50479 13.4506H19.8504C19.9396 13.4506 20.0252 13.4152 20.0882 13.3521C20.1513 13.289 20.1868 13.2035 20.1868 13.1142V2.74849C20.1855 2.66047 20.1498 2.57642 20.0872 2.51442C20.0242 2.452 19.9391 2.41699 19.8504 2.41699H2.1484Z" fill="url(#paint0_linear_56_1739)"/>
<path fill-rule="evenodd" clip-rule="evenodd" d="M4.95679 6.69455C4.95679 6.41841 5.18064 6.19455 5.45679 6.19455H16.7457C17.0218 6.19455 17.2457 6.41841 17.2457 6.69455C17.2457 6.97069 17.0218 7.19455 16.7457 7.19455H5.45679C5.18064 7.19455 4.95679 6.97069 4.95679 6.69455Z" fill="url(#paint1_linear_56_1739)"/>
<path fill-rule="evenodd" clip-rule="evenodd" d="M4.95679 9.22269C4.95679 8.94654 5.18064 8.72269 5.45679 8.72269H11.9796C12.2557 8.72269 12.4796 8.94654 12.4796 9.22269C12.4796 9.49883 12.2557 9.72269 11.9796 9.72269H5.45679C5.18064 9.72269 4.95679 9.49883 4.95679 9.22269Z" fill="url(#paint2_linear_56_1739)"/>
<defs>
<linearGradient id="paint0_linear_56_1739" x1="11.0018" y1="1.41699" x2="11.0018" y2="18.7393" gradientUnits="userSpaceOnUse">
<stop stop-color="#58BFFF"/>
<stop offset="1" stop-color="#3793FF"/>
</linearGradient>
<linearGradient id="paint1_linear_56_1739" x1="11.1012" y1="6.19455" x2="11.1012" y2="7.19455" gradientUnits="userSpaceOnUse">
<stop stop-color="#58BFFF"/>
<stop offset="1" stop-color="#3793FF"/>
</linearGradient>
<linearGradient id="paint2_linear_56_1739" x1="8.7182" y1="8.72269" x2="8.7182" y2="9.72269" gradientUnits="userSpaceOnUse">
<stop stop-color="#58BFFF"/>
<stop offset="1" stop-color="#3793FF"/>
</linearGradient>
</defs>
</svg>
