<svg width="16" height="16" viewBox="0 0 16 16" fill="none" xmlns="http://www.w3.org/2000/svg">
<path d="M9.6842 9.26308H7.99999C7.6651 9.26271 7.34402 9.12951 7.10721 8.8927C6.8704 8.65589 6.7372 8.33482 6.73684 7.99992V6.31571C6.73637 6.14977 6.76883 5.98538 6.83236 5.83208C6.89588 5.67877 6.9892 5.5396 7.1069 5.42262L9.16117 3.36835H1.68421C1.23753 3.36835 0.809144 3.54579 0.493293 3.86164C0.177443 4.17749 0 4.60588 0 5.05256V14.3157C0 14.7624 0.177443 15.1908 0.493293 15.5066C0.809144 15.8225 1.23753 15.9999 1.68421 15.9999H12.6316C13.0782 15.9999 13.5066 15.8225 13.8225 15.5066C14.1383 15.1908 14.3158 14.7624 14.3158 14.3157V5.15454L10.5773 8.89302C10.4603 9.01072 10.3211 9.10403 10.1678 9.16756C10.0145 9.23108 9.85015 9.26355 9.6842 9.26308Z" fill="url(#paint0_linear_30_2727)"/>
<path d="M15.8768 1.80759L14.1926 0.123383C14.1535 0.0842683 14.1071 0.0532385 14.056 0.0320677C14.0049 0.0108969 13.9502 0 13.8949 0C13.8396 0 13.7848 0.0108969 13.7338 0.0320677C13.6827 0.0532385 13.6363 0.0842683 13.5972 0.123383L7.70247 6.01811C7.66336 6.05719 7.63233 6.1036 7.61116 6.15468C7.58999 6.20576 7.5791 6.26051 7.5791 6.3158V8.00001C7.5791 8.11168 7.62346 8.21877 7.70242 8.29774C7.78139 8.3767 7.88848 8.42106 8.00015 8.42106H9.68436C9.73965 8.42106 9.7944 8.41017 9.84548 8.389C9.89656 8.36783 9.94297 8.33681 9.98205 8.29769L15.8768 2.40296C15.9159 2.36388 15.9469 2.31747 15.9681 2.2664C15.9893 2.21532 16.0002 2.16057 16.0002 2.10528C16.0002 2.04998 15.9893 1.99523 15.9681 1.94416C15.9469 1.89308 15.9159 1.84667 15.8768 1.80759Z" fill="url(#paint1_linear_30_2727)"/>
<defs>
<linearGradient id="paint0_linear_30_2727" x1="7.15789" y1="3.36835" x2="7.15789" y2="15.9999" gradientUnits="userSpaceOnUse">
<stop stop-color="#F9A01B"/>
<stop offset="1" stop-color="#F04F23"/>
</linearGradient>
<linearGradient id="paint1_linear_30_2727" x1="11.7896" y1="0" x2="11.7896" y2="8.42106" gradientUnits="userSpaceOnUse">
<stop stop-color="#F9A01B"/>
<stop offset="1" stop-color="#F04F23"/>
</linearGradient>
</defs>
</svg>
