<svg width="22" height="22" viewBox="0 0 22 22" fill="none" xmlns="http://www.w3.org/2000/svg">
<path d="M10.996 16.1691C13.8508 16.1691 16.1651 13.8548 16.1651 11C16.1651 8.1452 13.8508 5.83092 10.996 5.83092C8.14119 5.83092 5.8269 8.1452 5.8269 11C5.8269 13.8548 8.14119 16.1691 10.996 16.1691Z" stroke="url(#paint0_linear_56_1757)" stroke-linecap="round" stroke-linejoin="round"/>
<path d="M20.6348 8.18295L19.9661 6.48426C19.9107 6.34291 19.8081 6.22509 19.6757 6.15083C19.5432 6.07656 19.3892 6.05043 19.2397 6.07688L17.8946 6.30747C17.7771 6.32663 17.6567 6.31392 17.5458 6.27065C17.435 6.22739 17.3377 6.15516 17.2643 6.06151C16.9327 5.64056 16.5592 5.25427 16.1498 4.90855C16.0577 4.8329 15.9881 4.73336 15.9488 4.62084C15.9095 4.50831 15.9019 4.38713 15.9269 4.27058L16.2036 2.92161C16.2337 2.7732 16.212 2.61894 16.1421 2.48462C16.0721 2.3503 15.9582 2.24408 15.8193 2.18372L14.1436 1.46504C14.005 1.40532 13.85 1.39487 13.7046 1.43542C13.5592 1.47597 13.432 1.56509 13.3442 1.68795L12.5756 2.80247C12.5063 2.90008 12.4117 2.97701 12.3021 3.02507C12.1924 3.07313 12.0718 3.0905 11.953 3.07534C11.4198 3.01255 10.8816 3.00354 10.3465 3.04844C10.2275 3.05816 10.1081 3.03584 10.0007 2.9838C9.89321 2.93176 9.80164 2.8519 9.73548 2.75251L8.9899 1.59955C8.90118 1.47568 8.77217 1.38649 8.62495 1.34723C8.47773 1.30797 8.32144 1.32109 8.18283 1.38433L6.48413 2.03384C6.34309 2.08849 6.22537 2.19039 6.15108 2.32216C6.07679 2.45392 6.05052 2.60738 6.07675 2.75636L6.30735 4.09763C6.32569 4.21505 6.31259 4.33524 6.26939 4.44596C6.22618 4.55667 6.15441 4.65396 6.06138 4.72792C5.64139 5.06208 5.25522 5.43667 4.90842 5.84629C4.83294 5.93875 4.73357 6.00878 4.6211 6.04875C4.50863 6.08872 4.38736 6.09712 4.27045 6.07304L2.92149 5.79633C2.77308 5.76617 2.61881 5.78788 2.4845 5.85784C2.35018 5.9278 2.24396 6.04175 2.1836 6.18065L1.46492 7.85244C1.40519 7.9911 1.39474 8.14603 1.43529 8.29147C1.47585 8.4369 1.56496 8.56407 1.68782 8.65182L2.79851 9.42046C2.89611 9.4898 2.97304 9.58434 3.0211 9.694C3.06916 9.80365 3.08654 9.9243 3.07137 10.0431C3.00853 10.5776 2.99952 11.117 3.04447 11.6534C3.05419 11.7724 3.03187 11.8918 2.97983 11.9992C2.92779 12.1067 2.84793 12.1983 2.74855 12.2644L1.6148 13.0254C1.49123 13.1107 1.40083 13.2361 1.35883 13.3803C1.31683 13.5245 1.32579 13.6787 1.38421 13.8171L2.05293 15.5158C2.10819 15.6564 2.2102 15.7736 2.3418 15.8478C2.4734 15.922 2.62654 15.9486 2.77545 15.9232L4.11288 15.6926C4.23095 15.6722 4.35231 15.6844 4.46401 15.7277C4.5757 15.771 4.67352 15.8439 4.74701 15.9385C5.07901 16.3604 5.4538 16.7468 5.86538 17.0915C5.95783 17.1678 6.02777 17.2679 6.06771 17.381C6.10766 17.494 6.1161 17.6158 6.09213 17.7333L5.7962 19.063C5.76454 19.2115 5.78559 19.3664 5.85572 19.5011C5.92586 19.6357 6.0407 19.7418 6.18052 19.8009L7.85615 20.5273C7.99459 20.5885 8.14998 20.5997 8.29578 20.5591C8.44158 20.5184 8.56874 20.4284 8.65554 20.3044L9.42418 19.1937C9.49409 19.0967 9.58872 19.0203 9.69822 18.9723C9.80772 18.9243 9.92808 18.9065 10.0468 18.9208C10.5812 18.9856 11.1208 18.9946 11.6571 18.9477C11.7761 18.938 11.8955 18.9604 12.003 19.0124C12.1104 19.0644 12.202 19.1443 12.2681 19.2437L13.0137 20.3966C13.0968 20.523 13.2209 20.6169 13.3651 20.6624C13.5094 20.7079 13.6649 20.7023 13.8054 20.6464L15.5041 19.9777C15.645 19.9217 15.7624 19.819 15.8366 19.6868C15.9107 19.5545 15.9372 19.4008 15.9115 19.2514L15.6924 17.9101C15.6724 17.7926 15.6848 17.6719 15.7281 17.5609C15.7714 17.4498 15.8441 17.3527 15.9384 17.2798C16.3595 16.9469 16.7458 16.5722 17.0914 16.1614C17.1687 16.0703 17.269 16.0016 17.3818 15.9624C17.4947 15.9232 17.616 15.9149 17.7332 15.9385L19.0668 16.2152C19.2152 16.2461 19.3698 16.2248 19.5043 16.1547C19.6388 16.0847 19.7449 15.9703 19.8047 15.8309L20.531 14.1553C20.5915 14.0167 20.6023 13.8616 20.5617 13.716C20.5211 13.5703 20.4315 13.4432 20.3081 13.3559L19.1936 12.5873C19.0969 12.518 19.0206 12.424 18.9726 12.3152C18.9246 12.2063 18.9067 12.0866 18.9207 11.9685C18.9855 11.4354 18.9945 10.897 18.9476 10.362C18.9379 10.243 18.9602 10.1236 19.0123 10.0162C19.0643 9.9087 19.1442 9.81714 19.2436 9.75098L20.3965 9.0054C20.5274 8.91887 20.6232 8.78864 20.6668 8.63797C20.7105 8.4873 20.6991 8.32602 20.6348 8.18295V8.18295Z" stroke="url(#paint1_linear_56_1757)" stroke-linecap="round" stroke-linejoin="round"/>
<defs>
<linearGradient id="paint0_linear_56_1757" x1="10.996" y1="5.83092" x2="10.996" y2="16.1691" gradientUnits="userSpaceOnUse">
<stop stop-color="#58BFFF"/>
<stop offset="1" stop-color="#3793FF"/>
</linearGradient>
<linearGradient id="paint1_linear_56_1757" x1="11.0128" y1="1.32504" x2="11.0128" y2="20.6928" gradientUnits="userSpaceOnUse">
<stop stop-color="#58BFFF"/>
<stop offset="1" stop-color="#3793FF"/>
</linearGradient>
</defs>
</svg>
