<svg width="16" height="16" viewBox="0 0 16 16" fill="none" xmlns="http://www.w3.org/2000/svg">
<path d="M15.21 8.88376C15.0744 8.77883 14.9646 8.64423 14.889 8.49029C14.8135 8.33634 14.7742 8.16714 14.7742 7.99566C14.7742 7.82418 14.8135 7.65498 14.889 7.50103C14.9646 7.34709 15.0744 7.21249 15.21 7.10756C15.5594 6.83769 15.8103 6.46033 15.9238 6.03372C16.0374 5.6071 16.0074 5.15497 15.8385 4.74709C15.6696 4.33921 15.3711 3.99828 14.9891 3.77691C14.6072 3.55554 14.163 3.46604 13.7251 3.52223C13.555 3.54407 13.3821 3.52663 13.2198 3.47124C13.0575 3.41585 12.9101 3.324 12.7888 3.20273C12.6675 3.08146 12.5757 2.93401 12.5203 2.7717C12.4649 2.60939 12.4475 2.43655 12.4693 2.26644C12.5255 1.82856 12.436 1.38435 12.2146 1.00239C11.9932 0.620433 11.6523 0.321953 11.2444 0.153021C10.8366 -0.0159101 10.3844 -0.0458999 9.9578 0.0676807C9.53119 0.181261 9.15381 0.432098 8.88393 0.781474C8.77534 0.911515 8.63951 1.01612 8.48605 1.0879C8.33259 1.15968 8.16523 1.19689 7.99581 1.19689C7.82639 1.19689 7.65904 1.15968 7.50558 1.0879C7.35211 1.01612 7.21629 0.911515 7.10769 0.781474C6.83781 0.432104 6.46044 0.181271 6.03384 0.0676909C5.60723 -0.0458894 5.1551 -0.015903 4.74722 0.153022C4.33935 0.321947 3.99841 0.620419 3.77704 1.00237C3.55566 1.38432 3.46614 1.82852 3.52231 2.2664C3.54415 2.4365 3.52671 2.60935 3.47132 2.77166C3.41594 2.93397 3.32408 3.08142 3.20282 3.20269C3.08155 3.32395 2.9341 3.41581 2.77179 3.47119C2.60948 3.52658 2.43663 3.54402 2.26653 3.52218C1.82863 3.46598 1.38441 3.55547 1.00244 3.77684C0.62046 3.99821 0.321967 4.33916 0.153035 4.74704C-0.0158965 5.15493 -0.0458751 5.60709 0.0677273 6.03371C0.18133 6.46033 0.432197 6.8377 0.781603 7.10756C0.917236 7.21249 1.02703 7.34709 1.10257 7.50103C1.17812 7.65498 1.21739 7.82418 1.21739 7.99566C1.21739 8.16714 1.17812 8.33634 1.10257 8.49029C1.02703 8.64423 0.917236 8.77883 0.781603 8.88376C0.432188 9.15362 0.181314 9.531 0.0677067 9.95763C-0.0459008 10.3843 -0.0159253 10.8364 0.153006 11.2443C0.321938 11.6522 0.620433 11.9932 1.00241 12.2146C1.3844 12.4359 1.82862 12.5254 2.26653 12.4692C2.43663 12.4474 2.60947 12.4648 2.77178 12.5202C2.93409 12.5756 3.08155 12.6674 3.20282 12.7887C3.32408 12.91 3.41594 13.0574 3.47133 13.2197C3.52671 13.382 3.54415 13.5549 3.52231 13.725C3.45825 14.1638 3.5444 14.6113 3.76676 14.995C3.98912 15.3787 4.33465 15.6759 4.74723 15.8384C4.9987 15.9439 5.26848 15.9988 5.54117 16C5.84561 15.9985 6.14557 15.9264 6.41741 15.7893C6.68924 15.6523 6.92554 15.4539 7.10769 15.21C7.21629 15.0799 7.35212 14.9753 7.50558 14.9036C7.65904 14.8318 7.82639 14.7946 7.99581 14.7946C8.16523 14.7946 8.33258 14.8318 8.48604 14.9036C8.6395 14.9753 8.77533 15.0799 8.88393 15.21C9.15382 15.5594 9.5312 15.8102 9.95782 15.9238C10.3844 16.0374 10.8366 16.0074 11.2445 15.8384C11.6524 15.6695 11.9933 15.371 12.2147 14.989C12.436 14.607 12.5255 14.1628 12.4693 13.7249C12.4475 13.5548 12.4649 13.382 12.5203 13.2197C12.5757 13.0574 12.6676 12.9099 12.7888 12.7887C12.9101 12.6674 13.0575 12.5756 13.2199 12.5202C13.3822 12.4648 13.555 12.4474 13.7251 12.4692C14.163 12.5254 14.6072 12.4359 14.9892 12.2145C15.3711 11.9931 15.6696 11.6522 15.8385 11.2443C16.0075 10.8364 16.0375 10.3843 15.9239 9.95766C15.8103 9.53105 15.5594 9.15368 15.21 8.8838V8.88376ZM7.99581 11.1071C7.38043 11.1071 6.77888 10.9246 6.26721 10.5827C5.75554 10.2408 5.35675 9.75489 5.12125 9.18635C4.88576 8.61782 4.82415 7.99222 4.9442 7.38866C5.06426 6.78511 5.3606 6.23071 5.79574 5.79558C6.23088 5.36044 6.78528 5.06412 7.38884 4.94407C7.99239 4.82402 8.61799 4.88564 9.18652 5.12114C9.75505 5.35664 10.241 5.75544 10.5829 6.26712C10.9247 6.77879 11.1072 7.38035 11.1072 7.99573C11.1062 8.8206 10.7781 9.61141 10.1948 10.1947C9.6115 10.778 8.82069 11.1061 7.99581 11.1071Z" fill="url(#paint0_linear_30_2726)"/>
<defs>
<linearGradient id="paint0_linear_30_2726" x1="7.99578" y1="0" x2="7.99578" y2="16" gradientUnits="userSpaceOnUse">
<stop stop-color="#F9A01B"/>
<stop offset="1" stop-color="#F04F23"/>
</linearGradient>
</defs>
</svg>
