<svg width="644" height="434" viewBox="0 0 644 434" fill="none" xmlns="http://www.w3.org/2000/svg">
<path fill-rule="evenodd" clip-rule="evenodd" d="M69.7526 89.4911C112.74 52.0926 182.086 50.0872 242.463 34.1383C295.451 20.141 345.82 -5.80873 400.796 2.04365C456.615 10.0166 498.808 43.8241 538.24 76.3855C579.093 110.121 617.195 146.457 630.914 192.068C645.989 242.187 654.874 300.106 618.291 342.521C582.249 384.307 508.753 386.923 448.634 403.4C394.763 418.165 343.212 434.792 286.253 433.526C218.696 432.023 146.314 429.949 94.2259 395.519C38.6987 358.816 5.08943 302.046 0.498776 244.642C-3.99506 188.449 22.1005 130.948 69.7526 89.4911Z" fill="#E1F2BA" fill-opacity="0.2"/>
<g clip-path="url(#clip0_header)">
<rect x="30" y="37" width="584" height="361" rx="8" fill="white"/>
<path d="M228 329.313V216" stroke="#F2F2F2"/>
<path d="M252 329.313V216" stroke="#F2F2F2"/>
<path d="M275 329.313V216" stroke="#F2F2F2"/>
<path d="M298 329.313V216" stroke="#F2F2F2"/>
<path d="M321 329.313V216" stroke="#F2F2F2"/>
<path d="M344 329.313V216" stroke="#F2F2F2"/>
<path d="M367 329.313V216" stroke="#F2F2F2"/>
<path d="M426 330V216.687" stroke="#F2F2F2"/>
<path d="M450 330V216.687" stroke="#F2F2F2"/>
<path d="M473 330V216.687" stroke="#F2F2F2"/>
<path d="M496 330V216.687" stroke="#F2F2F2"/>
<path d="M519 330V216.687" stroke="#F2F2F2"/>
<path d="M542 330V216.687" stroke="#F2F2F2"/>
<path d="M565 330V216.687" stroke="#F2F2F2"/>
<path d="M30 45C30 40.5817 33.5817 37 38 37H184V406H38C33.5817 406 30 402.418 30 398V45Z" fill="#12030B"/>
<path d="M60.4649 64.2132C59.9628 63.7657 59.2881 63.2915 58.527 63.2915C57.6287 63.2915 57.4129 63.8116 57.4129 64.1826C57.4129 64.8061 58.1465 64.9858 58.68 65.1044C60.2492 65.4601 62.0027 66.1294 62.0027 68.5811C62.0027 70.6465 60.4924 72.0004 57.9935 72.0004C56.6205 72.0004 55.5378 71.5529 54 70.3367L55.4162 68.1221C56.2557 68.91 57.1854 69.5029 58.068 69.5029C58.6172 69.5029 59.1193 69.2504 59.1193 68.627C59.1193 67.6746 58.2053 67.5561 57.0755 67.2157C56.2203 66.9632 54.5296 66.3819 54.5296 64.1558C54.5296 62.4768 55.781 61.0195 58.2799 61.0195C59.4461 61.0206 60.5824 61.3792 61.528 62.0446L60.4649 64.2132Z" fill="#81A332"/>
<path d="M66.1216 61.2979H69.7502L73.5476 71.705H70.3465L69.7502 69.9074H66.1216L65.5253 71.705H62.3242L66.1216 61.2979ZM66.7178 67.6163H69.1579L67.9378 63.7916L66.7178 67.6163Z" fill="#81A332"/>
<path d="M85.1045 65.6662C85.3163 68.1179 84.6024 72 79.8008 72C76.5527 72 73.9165 70.0876 73.9165 66.5727C73.9165 63.1687 76.1565 61 79.5733 61C82.9116 61 84.1473 62.8435 84.5279 63.5282L81.8917 64.733C81.6749 64.3429 81.3498 64.0201 80.9537 63.8016C80.5576 63.5831 80.1064 63.4778 79.6517 63.4976C78.2473 63.4976 76.9057 64.4652 76.9057 66.5153C76.9057 68.5654 78.2317 69.7128 79.7576 69.7128C80.3028 69.7411 80.8405 69.5804 81.2757 69.259C81.7108 68.9377 82.0152 68.4765 82.1349 67.9573H79.3732V65.6624L85.1045 65.6662Z" fill="#81A332"/>
<path d="M86.583 61.2979H92.989V63.7954H89.5722V65.2526H92.6674V67.5475H89.5722V69.2113H92.989V71.7088H86.583V61.2979Z" fill="#81A332"/>
<path d="M95.3981 61.2979H98.3873L100.262 67.6469L102.138 61.2979H105.127L106.696 71.705H103.821L103.036 65.6695L101.235 71.705H99.3132L97.5126 65.6695L96.728 71.705H93.8604L95.3981 61.2979Z" fill="#81A332"/>
<path d="M110.583 61.2979H114.212L118.009 71.705H114.804L114.208 69.9074H110.579L109.983 71.705H106.782L110.583 61.2979ZM111.179 67.6163H113.627L112.408 63.7916L111.179 67.6163Z" fill="#81A332"/>
<path d="M118.865 61.2979H121.866V71.705H118.877L118.865 61.2979Z" fill="#81A332"/>
<path d="M123.776 61.2979H126.765V69.2036H129.967V71.7012H123.776V61.2979Z" fill="#81A332"/>
<path d="M131.14 61.2979H137.557V63.7954H134.141V65.2526H137.236V67.5475H134.141V69.2113H137.557V71.7088H131.14V61.2979Z" fill="#81A332"/>
<path d="M139.126 61.2979H143.547C147.113 61.2979 147.235 63.9446 147.235 64.4188C147.279 65.1074 147.084 65.7903 146.68 66.3568C146.276 66.9234 145.688 67.3403 145.01 67.5398L148 71.7012H144.387L142.131 68.2589V71.7012H139.126V61.2979ZM142.845 65.9793C143.912 65.9793 144.25 65.3865 144.25 64.7745C144.25 64.1626 143.916 63.585 142.845 63.585H142.112V65.9793H142.845Z" fill="#81A332"/>
<rect x="54" y="96" width="70" height="10" rx="5" fill="#8B8187"/>
<rect x="208" y="61" width="288" height="10" rx="5" fill="#D7D7D7" fill-opacity="0.6"/>
<rect x="570" y="354" width="164" height="9.99999" rx="4.99999" transform="rotate(-180 570 354)" fill="#D7D7D7" fill-opacity="0.6"/>
<rect x="372" y="354" width="164" height="9.99999" rx="4.99999" transform="rotate(-180 372 354)" fill="#D7D7D7" fill-opacity="0.6"/>
<rect x="520" y="61" width="50" height="10" rx="5" fill="#D7D7D7" fill-opacity="0.6"/>
<rect x="54" y="166" width="70" height="10" rx="5" fill="#8B8187"/>
<rect x="54" y="236" width="70" height="10" rx="5" fill="#8B8187"/>
<rect x="54" y="114" width="70" height="10" rx="5" fill="#8B8187"/>
<rect x="54" y="184" width="70" height="10" rx="5" fill="#8B8187"/>
<rect x="54" y="254" width="70" height="10" rx="5" fill="#8B8187"/>
<rect x="54" y="132" width="70" height="10" rx="5" fill="#8B8187"/>
<rect x="54" y="202" width="70" height="10" rx="5" fill="#8B8187"/>
<rect x="54" y="272" width="70" height="10" rx="5" fill="#8B8187"/>
<rect x="208" y="97" width="362" height="50" rx="8" fill="#E6E6E6" fill-opacity="0.6"/>
<path fill-rule="evenodd" clip-rule="evenodd" d="M233.727 114.5C232.35 114.5 231.234 115.616 231.234 116.992V126.508C231.234 127.884 232.35 129 233.727 129H247.773C249.15 129 250.266 127.884 250.266 126.508V116.992C250.266 115.616 249.15 114.5 247.773 114.5H233.727ZM232.594 116.992C232.594 116.367 233.101 115.859 233.727 115.859H247.773C248.399 115.859 248.906 116.367 248.906 116.992V118.58L240.97 121.921L232.594 118.571V116.992ZM232.594 120.035V126.508C232.594 127.133 233.101 127.641 233.727 127.641H247.773C248.399 127.641 248.906 127.133 248.906 126.508V120.055L240.983 123.391L232.594 120.035Z" fill="#79808D"/>
<path fill-rule="evenodd" clip-rule="evenodd" d="M313.907 111.251L313.507 111.229L310.315 115.463L307.885 118.727C307.503 118.428 307.023 118.25 306.5 118.25C305.257 118.25 304.25 119.257 304.25 120.5V128C304.25 129.242 305.257 130.25 306.5 130.25C307.206 130.25 307.836 129.925 308.248 129.416C308.445 129.563 308.656 129.683 308.864 129.779C309.647 130.14 310.548 130.25 311.142 130.25H318.263C319.14 130.25 319.772 129.789 320.174 129.295C320.568 128.812 320.788 128.249 320.879 127.859L320.886 127.825L320.891 127.791C321.1 126.251 321.563 122.752 321.732 121.129C321.842 120.067 321.437 119.304 320.816 118.841C320.246 118.417 319.561 118.29 319.101 118.29H315.421C315.775 117.317 316.29 115.844 316.579 114.455C316.817 113.312 316.638 112.4 315.922 111.834C315.312 111.351 314.475 111.283 313.907 111.251ZM308.75 127.488C308.75 127.882 308.976 128.179 309.492 128.417C310.018 128.659 310.688 128.75 311.142 128.75H318.263C318.559 128.75 318.8 128.607 319.011 128.347C319.223 128.088 319.355 127.765 319.41 127.551C319.622 125.988 320.075 122.556 320.24 120.974C320.297 120.427 320.108 120.184 319.92 120.044C319.68 119.865 319.339 119.79 319.101 119.79H313.337L313.641 118.817C313.706 118.606 313.814 118.313 313.943 117.959L313.943 117.959L313.943 117.959C314.295 116.996 314.813 115.581 315.111 114.15C315.291 113.281 315.074 113.076 314.991 113.01C314.847 112.896 314.601 112.824 314.215 112.781L311.513 116.366L308.75 120.077V120.5V127.488ZM307.25 120.5C307.25 120.086 306.914 119.75 306.5 119.75C306.086 119.75 305.75 120.086 305.75 120.5V128C305.75 128.414 306.086 128.75 306.5 128.75C306.914 128.75 307.25 128.414 307.25 128V127.488V120.5Z" fill="#79808D"/>
<path fill-rule="evenodd" clip-rule="evenodd" d="M385.907 132.727L385.507 132.75L382.315 128.516L379.885 125.252C379.503 125.55 379.023 125.729 378.5 125.729C377.257 125.729 376.25 124.721 376.25 123.479L376.25 115.979C376.25 114.736 377.257 113.729 378.5 113.729C379.206 113.729 379.836 114.054 380.248 114.562C380.445 114.416 380.656 114.296 380.864 114.2C381.647 113.839 382.548 113.729 383.142 113.729L390.263 113.729C391.14 113.729 391.772 114.19 392.174 114.684C392.568 115.166 392.788 115.73 392.879 116.12L392.886 116.154L392.891 116.188C393.1 117.728 393.563 121.226 393.732 122.849C393.842 123.911 393.437 124.674 392.816 125.137C392.246 125.562 391.561 125.688 391.101 125.688L387.421 125.688C387.775 126.661 388.29 128.134 388.579 129.523C388.817 130.666 388.638 131.578 387.922 132.144C387.312 132.627 386.475 132.695 385.907 132.727ZM380.75 116.489C380.75 116.489 380.75 116.49 380.75 116.49L380.75 123.479C380.75 123.48 380.75 123.481 380.75 123.482L380.75 123.901L383.513 127.613L386.215 131.198C386.601 131.155 386.847 131.082 386.991 130.968C387.074 130.903 387.291 130.697 387.111 129.829C386.813 128.398 386.295 126.983 385.943 126.02C385.814 125.665 385.706 125.372 385.641 125.162L385.337 124.188L391.101 124.188C391.339 124.188 391.68 124.113 391.92 123.935C392.108 123.794 392.297 123.551 392.24 123.004C392.075 121.422 391.622 117.991 391.41 116.428C391.355 116.214 391.223 115.89 391.011 115.631C390.8 115.371 390.559 115.229 390.263 115.229L383.142 115.229C382.688 115.229 382.018 115.319 381.492 115.562C380.977 115.799 380.751 116.095 380.75 116.489ZM379.25 116.488L379.25 115.979C379.25 115.564 378.914 115.229 378.5 115.229C378.086 115.229 377.75 115.564 377.75 115.979L377.75 123.479C377.75 123.893 378.086 124.229 378.5 124.229C378.914 124.229 379.249 123.894 379.25 123.48L379.25 116.49C379.25 116.489 379.25 116.488 379.25 116.488Z" fill="#79808D"/>
<path fill-rule="evenodd" clip-rule="evenodd" d="M454.75 131.547C455.87 131.547 456.817 130.811 457.136 129.796H459.865C460.183 130.811 461.131 131.547 462.25 131.547C463.631 131.547 464.75 130.427 464.75 129.047C464.75 127.666 463.631 126.547 462.25 126.547C461.131 126.547 460.183 127.282 459.865 128.296H457.136C456.817 127.282 455.87 126.547 454.75 126.547C453.631 126.547 452.683 127.282 452.365 128.296H451.75C451.49 128.296 451.039 128.226 450.673 127.961C450.351 127.728 450 127.277 450 126.296C450 125.358 450.376 124.898 450.802 124.633C451.28 124.335 451.903 124.241 452.378 124.241H462.924C463.435 124.241 463.895 123.93 464.084 123.455L466.696 116.918C467.008 116.139 466.478 115.28 465.642 115.209L451.914 114.032C451.712 113.223 451.339 112.539 450.686 112.081C449.897 111.527 448.861 111.418 447.667 111.551C447.256 111.597 446.959 111.968 447.005 112.379C447.05 112.791 447.421 113.088 447.833 113.042C448.889 112.925 449.478 113.066 449.824 113.308C450.151 113.538 450.415 113.969 450.545 114.833L451.537 122.809C451.049 122.889 450.505 123.051 450.009 123.36C449.143 123.899 448.5 124.842 448.5 126.296C448.5 127.708 449.043 128.633 449.793 129.176C450.5 129.688 451.299 129.796 451.75 129.796H452.365C452.683 130.811 453.631 131.547 454.75 131.547ZM454.75 130.047C455.302 130.047 455.75 129.599 455.75 129.047C455.75 128.494 455.302 128.047 454.75 128.047C454.198 128.047 453.75 128.494 453.75 129.047C453.75 129.599 454.198 130.047 454.75 130.047ZM452.147 115.558L453.041 122.741L462.754 122.741L465.178 116.674L452.147 115.558ZM463.25 129.047C463.25 129.599 462.802 130.047 462.25 130.047C461.698 130.047 461.25 129.599 461.25 129.047C461.25 128.494 461.698 128.047 462.25 128.047C462.802 128.047 463.25 128.494 463.25 129.047Z" fill="#79808D"/>
<path d="M530 113.75C530 113.336 529.664 113 529.25 113C528.836 113 528.5 113.336 528.5 113.75V115.014C526.928 115.101 525.872 115.605 525.192 116.257C524.467 116.954 524.224 117.772 524.224 118.249C524.224 119.206 524.476 120.067 525.265 120.808C525.999 121.497 527.144 122.028 528.775 122.535C530.376 123.032 531.275 123.444 531.805 123.854C532.226 124.18 532.416 124.677 532.456 125.194C532.456 125.712 532.37 126.157 531.961 126.565C531.459 127.065 530.752 127.558 529.252 127.495C527.64 127.427 526.725 127.049 526.215 126.586C525.726 126.142 525.5 125.518 525.5 124.674C525.5 124.26 525.164 123.924 524.75 123.924C524.336 123.924 524 124.26 524 124.674C524 125.794 524.31 126.883 525.207 127.697C525.966 128.386 527.059 128.798 528.5 128.945V130.25C528.5 130.664 528.836 131 529.25 131C529.664 131 530 130.664 530 130.25V128.982C531.454 128.876 532.462 128.299 533.109 127.531C533.837 126.665 534.046 125.527 533.995 124.873C533.924 123.961 533.509 123.172 532.685 122.535C531.925 121.946 530.837 121.604 529.22 121.102C527.633 120.609 526.765 120.159 526.292 119.714C525.874 119.322 525.726 119.019 525.726 118.453V118.303C525.726 118.27 525.728 118.238 525.74 118.162C525.754 118.102 525.78 117.996 525.818 117.908C525.893 117.734 526.018 117.544 526.231 117.34C526.644 116.943 527.449 116.5 528.998 116.5C530.516 116.5 531.363 116.997 531.838 117.524C532.335 118.075 532.495 118.736 532.495 119.141C532.495 119.555 532.831 119.891 533.245 119.891C533.659 119.891 533.995 119.555 533.995 119.141C533.995 118.416 533.73 117.382 532.952 116.519C532.304 115.801 531.343 115.249 530 115.065V113.75Z" fill="#79808D"/>
<path d="M277 107V138" stroke="#79808D"/>
<path d="M349 107V138" stroke="#79808D"/>
<path d="M421 107V138" stroke="#79808D"/>
<path d="M493 107V138" stroke="#79808D"/>
<path d="M214.829 191.557H210.741V194.619H215.52V196H209.012V186.047H215.472V187.441H210.741V190.189H214.829V191.557ZM219.17 186.047L222.041 193.676L224.905 186.047H227.141V196H225.418V192.719L225.589 188.33L222.649 196H221.412L218.479 188.337L218.65 192.719V196H216.928V186.047H219.17ZM234.886 193.683H231.03L230.224 196H228.426L232.186 186.047H233.737L237.504 196H235.699L234.886 193.683ZM231.516 192.288H234.4L232.958 188.159L231.516 192.288ZM240.464 196H238.741V186.047H240.464V196ZM244.319 194.619H248.838V196H242.59V186.047H244.319V194.619ZM255.366 193.437C255.366 192.999 255.211 192.662 254.901 192.425C254.596 192.188 254.042 191.949 253.24 191.707C252.438 191.465 251.8 191.197 251.326 190.9C250.419 190.331 249.966 189.588 249.966 188.672C249.966 187.87 250.292 187.209 250.943 186.689C251.6 186.17 252.45 185.91 253.493 185.91C254.186 185.91 254.803 186.038 255.346 186.293C255.888 186.548 256.314 186.913 256.624 187.387C256.934 187.856 257.089 188.378 257.089 188.952H255.366C255.366 188.433 255.202 188.027 254.874 187.735C254.55 187.439 254.086 187.291 253.479 187.291C252.914 187.291 252.475 187.412 252.16 187.653C251.85 187.895 251.695 188.232 251.695 188.665C251.695 189.03 251.864 189.335 252.201 189.581C252.538 189.823 253.094 190.06 253.869 190.292C254.644 190.52 255.266 190.782 255.735 191.078C256.205 191.37 256.549 191.707 256.768 192.09C256.986 192.468 257.096 192.912 257.096 193.423C257.096 194.252 256.777 194.913 256.139 195.405C255.505 195.893 254.644 196.137 253.555 196.137C252.835 196.137 252.172 196.005 251.565 195.74C250.964 195.471 250.494 195.102 250.157 194.633C249.825 194.163 249.658 193.617 249.658 192.992H251.388C251.388 193.557 251.575 193.995 251.948 194.305C252.322 194.615 252.857 194.77 253.555 194.77C254.156 194.77 254.607 194.649 254.908 194.407C255.214 194.161 255.366 193.838 255.366 193.437ZM267.671 193.683H263.815L263.009 196H261.211L264.971 186.047H266.522L270.289 196H268.484L267.671 193.683ZM264.301 192.288H267.186L265.743 188.159L264.301 192.288ZM279.319 196H277.59L273.153 188.938V196H271.424V186.047H273.153L277.604 193.136V186.047H279.319V196ZM281.363 196V186.047H284.303C285.182 186.047 285.962 186.243 286.641 186.635C287.324 187.027 287.853 187.583 288.227 188.303C288.6 189.023 288.787 189.848 288.787 190.777V191.276C288.787 192.22 288.598 193.049 288.22 193.765C287.846 194.48 287.311 195.032 286.613 195.419C285.921 195.806 285.125 196 284.228 196H281.363ZM283.093 187.441V194.619H284.221C285.128 194.619 285.823 194.337 286.306 193.771C286.793 193.202 287.042 192.386 287.051 191.324V190.771C287.051 189.69 286.816 188.866 286.347 188.296C285.877 187.726 285.196 187.441 284.303 187.441H283.093ZM297.653 192.165H295.726V196H293.996V186.047H297.496C298.645 186.047 299.531 186.304 300.155 186.819C300.78 187.334 301.092 188.079 301.092 189.055C301.092 189.72 300.93 190.278 300.606 190.729C300.287 191.176 299.841 191.52 299.267 191.762L301.502 195.911V196H299.649L297.653 192.165ZM295.726 190.777H297.503C298.086 190.777 298.542 190.632 298.87 190.34C299.198 190.044 299.362 189.64 299.362 189.13C299.362 188.597 299.21 188.184 298.904 187.893C298.604 187.601 298.152 187.451 297.551 187.441H295.726V190.777ZM308.55 191.557H304.462V194.619H309.24V196H302.732V186.047H309.192V187.441H304.462V190.189H308.55V191.557ZM314.155 193.833L316.685 186.047H318.585L315.003 196H313.328L309.76 186.047H311.653L314.155 193.833ZM321.538 196H319.815V186.047H321.538V196ZM329.481 191.557H325.394V194.619H330.172V196H323.664V186.047H330.124V187.441H325.394V190.189H329.481V191.557ZM339.387 193.539L340.918 186.047H342.634L340.337 196H338.683L336.789 188.733L334.854 196H333.193L330.896 186.047H332.612L334.157 193.525L336.058 186.047H337.507L339.387 193.539ZM349.101 193.437C349.101 192.999 348.946 192.662 348.636 192.425C348.33 192.188 347.777 191.949 346.975 191.707C346.173 191.465 345.535 191.197 345.061 190.9C344.154 190.331 343.7 189.588 343.7 188.672C343.7 187.87 344.026 187.209 344.678 186.689C345.334 186.17 346.184 185.91 347.228 185.91C347.92 185.91 348.538 186.038 349.08 186.293C349.622 186.548 350.049 186.913 350.358 187.387C350.668 187.856 350.823 188.378 350.823 188.952H349.101C349.101 188.433 348.937 188.027 348.608 187.735C348.285 187.439 347.82 187.291 347.214 187.291C346.649 187.291 346.209 187.412 345.895 187.653C345.585 187.895 345.43 188.232 345.43 188.665C345.43 189.03 345.598 189.335 345.936 189.581C346.273 189.823 346.829 190.06 347.604 190.292C348.378 190.52 349 190.782 349.47 191.078C349.939 191.37 350.283 191.707 350.502 192.09C350.721 192.468 350.83 192.912 350.83 193.423C350.83 194.252 350.511 194.913 349.873 195.405C349.24 195.893 348.378 196.137 347.289 196.137C346.569 196.137 345.906 196.005 345.3 195.74C344.698 195.471 344.229 195.102 343.892 194.633C343.559 194.163 343.393 193.617 343.393 192.992H345.122C345.122 193.557 345.309 193.995 345.683 194.305C346.056 194.615 346.592 194.77 347.289 194.77C347.891 194.77 348.342 194.649 348.643 194.407C348.948 194.161 349.101 193.838 349.101 193.437Z" fill="#A2A2A2"/>
<path d="M412.214 193.437C412.214 192.999 412.059 192.662 411.749 192.425C411.444 192.188 410.89 191.949 410.088 191.707C409.286 191.465 408.648 191.197 408.174 190.9C407.267 190.331 406.813 189.588 406.813 188.672C406.813 187.87 407.139 187.209 407.791 186.689C408.447 186.17 409.297 185.91 410.341 185.91C411.034 185.91 411.651 186.038 412.193 186.293C412.736 186.548 413.162 186.913 413.472 187.387C413.782 187.856 413.937 188.378 413.937 188.952H412.214C412.214 188.433 412.05 188.027 411.722 187.735C411.398 187.439 410.933 187.291 410.327 187.291C409.762 187.291 409.322 187.412 409.008 187.653C408.698 187.895 408.543 188.232 408.543 188.665C408.543 189.03 408.712 189.335 409.049 189.581C409.386 189.823 409.942 190.06 410.717 190.292C411.492 190.52 412.114 190.782 412.583 191.078C413.052 191.37 413.396 191.707 413.615 192.09C413.834 192.468 413.943 192.912 413.943 193.423C413.943 194.252 413.624 194.913 412.986 195.405C412.353 195.893 411.492 196.137 410.402 196.137C409.682 196.137 409.019 196.005 408.413 195.74C407.812 195.471 407.342 195.102 407.005 194.633C406.672 194.163 406.506 193.617 406.506 192.992H408.235C408.235 193.557 408.422 193.995 408.796 194.305C409.17 194.615 409.705 194.77 410.402 194.77C411.004 194.77 411.455 194.649 411.756 194.407C412.061 194.161 412.214 193.838 412.214 193.437ZM421.032 193.683H417.177L416.37 196H414.572L418.332 186.047H419.884L423.65 196H421.846L421.032 193.683ZM417.662 192.288H420.547L419.104 188.159L417.662 192.288ZM426.515 194.619H431.033V196H424.785V186.047H426.515V194.619ZM438.177 191.557H434.089V194.619H438.867V196H432.359V186.047H438.819V187.441H434.089V190.189H438.177V191.557ZM445.478 193.437C445.478 192.999 445.323 192.662 445.013 192.425C444.707 192.188 444.154 191.949 443.352 191.707C442.549 191.465 441.911 191.197 441.438 190.9C440.531 190.331 440.077 189.588 440.077 188.672C440.077 187.87 440.403 187.209 441.055 186.689C441.711 186.17 442.561 185.91 443.604 185.91C444.297 185.91 444.915 186.038 445.457 186.293C445.999 186.548 446.425 186.913 446.735 187.387C447.045 187.856 447.2 188.378 447.2 188.952H445.478C445.478 188.433 445.313 188.027 444.985 187.735C444.662 187.439 444.197 187.291 443.591 187.291C443.026 187.291 442.586 187.412 442.271 187.653C441.962 187.895 441.807 188.232 441.807 188.665C441.807 189.03 441.975 189.335 442.312 189.581C442.65 189.823 443.206 190.06 443.98 190.292C444.755 190.52 445.377 190.782 445.847 191.078C446.316 191.37 446.66 191.707 446.879 192.09C447.098 192.468 447.207 192.912 447.207 193.423C447.207 194.252 446.888 194.913 446.25 195.405C445.617 195.893 444.755 196.137 443.666 196.137C442.946 196.137 442.283 196.005 441.677 195.74C441.075 195.471 440.606 195.102 440.269 194.633C439.936 194.163 439.77 193.617 439.77 192.992H441.499C441.499 193.557 441.686 193.995 442.06 194.305C442.433 194.615 442.969 194.77 443.666 194.77C444.268 194.77 444.719 194.649 445.02 194.407C445.325 194.161 445.478 193.838 445.478 193.437ZM457.782 193.683H453.927L453.12 196H451.322L455.082 186.047H456.634L460.4 196H458.596L457.782 193.683ZM454.412 192.288H457.297L455.854 188.159L454.412 192.288ZM469.431 196H467.701L463.265 188.938V196H461.535V186.047H463.265L467.715 193.136V186.047H469.431V196ZM471.475 196V186.047H474.414C475.294 186.047 476.073 186.243 476.752 186.635C477.436 187.027 477.964 187.583 478.338 188.303C478.712 189.023 478.898 189.848 478.898 190.777V191.276C478.898 192.22 478.709 193.049 478.331 193.765C477.957 194.48 477.422 195.032 476.725 195.419C476.032 195.806 475.237 196 474.339 196H471.475ZM473.204 187.441V194.619H474.332C475.239 194.619 475.934 194.337 476.417 193.771C476.905 193.202 477.153 192.386 477.162 191.324V190.771C477.162 189.69 476.927 188.866 476.458 188.296C475.989 187.726 475.307 187.441 474.414 187.441H473.204ZM492.051 191.283C492.051 192.258 491.882 193.115 491.545 193.854C491.208 194.587 490.725 195.152 490.096 195.549C489.471 195.941 488.751 196.137 487.936 196.137C487.129 196.137 486.409 195.941 485.775 195.549C485.146 195.152 484.659 194.59 484.312 193.86C483.971 193.131 483.798 192.29 483.793 191.338V190.777C483.793 189.807 483.964 188.95 484.306 188.207C484.652 187.464 485.137 186.897 485.762 186.505C486.391 186.108 487.111 185.91 487.922 185.91C488.733 185.91 489.451 186.106 490.075 186.498C490.704 186.885 491.189 187.446 491.531 188.18C491.873 188.909 492.046 189.759 492.051 190.729V191.283ZM490.321 190.764C490.321 189.661 490.112 188.815 489.692 188.228C489.278 187.64 488.688 187.346 487.922 187.346C487.174 187.346 486.589 187.64 486.165 188.228C485.746 188.811 485.532 189.638 485.522 190.709V191.283C485.522 192.377 485.734 193.222 486.158 193.819C486.587 194.416 487.179 194.715 487.936 194.715C488.701 194.715 489.289 194.423 489.699 193.84C490.114 193.257 490.321 192.404 490.321 191.283V190.764ZM497.431 192.165H495.503V196H493.773V186.047H497.273C498.422 186.047 499.308 186.304 499.933 186.819C500.557 187.334 500.869 188.079 500.869 189.055C500.869 189.72 500.707 190.278 500.384 190.729C500.065 191.176 499.618 191.52 499.044 191.762L501.279 195.911V196H499.427L497.431 192.165ZM495.503 190.777H497.28C497.864 190.777 498.319 190.632 498.647 190.34C498.976 190.044 499.14 189.64 499.14 189.13C499.14 188.597 498.987 188.184 498.682 187.893C498.381 187.601 497.93 187.451 497.328 187.441H495.503V190.777ZM502.51 196V186.047H505.449C506.329 186.047 507.108 186.243 507.787 186.635C508.471 187.027 508.999 187.583 509.373 188.303C509.747 189.023 509.934 189.848 509.934 190.777V191.276C509.934 192.22 509.744 193.049 509.366 193.765C508.993 194.48 508.457 195.032 507.76 195.419C507.067 195.806 506.272 196 505.374 196H502.51ZM504.239 187.441V194.619H505.367C506.274 194.619 506.969 194.337 507.452 193.771C507.94 193.202 508.188 192.386 508.197 191.324V190.771C508.197 189.69 507.963 188.866 507.493 188.296C507.024 187.726 506.342 187.441 505.449 187.441H504.239ZM517.474 191.557H513.386V194.619H518.164V196H511.656V186.047H518.116V187.441H513.386V190.189H517.474V191.557ZM523.229 192.165H521.302V196H519.572V186.047H523.072C524.221 186.047 525.107 186.304 525.731 186.819C526.356 187.334 526.668 188.079 526.668 189.055C526.668 189.72 526.506 190.278 526.183 190.729C525.864 191.176 525.417 191.52 524.843 191.762L527.078 195.911V196H525.226L523.229 192.165ZM521.302 190.777H523.079C523.662 190.777 524.118 190.632 524.446 190.34C524.774 190.044 524.938 189.64 524.938 189.13C524.938 188.597 524.786 188.184 524.48 187.893C524.18 187.601 523.729 187.451 523.127 187.441H521.302V190.777ZM533.511 193.437C533.511 192.999 533.356 192.662 533.046 192.425C532.741 192.188 532.187 191.949 531.385 191.707C530.583 191.465 529.945 191.197 529.471 190.9C528.564 190.331 528.11 189.588 528.11 188.672C528.11 187.87 528.436 187.209 529.088 186.689C529.744 186.17 530.594 185.91 531.638 185.91C532.33 185.91 532.948 186.038 533.49 186.293C534.033 186.548 534.459 186.913 534.769 187.387C535.078 187.856 535.233 188.378 535.233 188.952H533.511C533.511 188.433 533.347 188.027 533.019 187.735C532.695 187.439 532.23 187.291 531.624 187.291C531.059 187.291 530.619 187.412 530.305 187.653C529.995 187.895 529.84 188.232 529.84 188.665C529.84 189.03 530.008 189.335 530.346 189.581C530.683 189.823 531.239 190.06 532.014 190.292C532.788 190.52 533.41 190.782 533.88 191.078C534.349 191.37 534.693 191.707 534.912 192.09C535.131 192.468 535.24 192.912 535.24 193.423C535.24 194.252 534.921 194.913 534.283 195.405C533.65 195.893 532.788 196.137 531.699 196.137C530.979 196.137 530.316 196.005 529.71 195.74C529.108 195.471 528.639 195.102 528.302 194.633C527.969 194.163 527.803 193.617 527.803 192.992H529.532C529.532 193.557 529.719 193.995 530.093 194.305C530.466 194.615 531.002 194.77 531.699 194.77C532.301 194.77 532.752 194.649 533.053 194.407C533.358 194.161 533.511 193.838 533.511 193.437Z" fill="#A2A2A2"/>
<path d="M208 216V330H372" stroke="#79808D"/>
<path d="M406 216V330H570" stroke="#79808D"/>
<rect x="213" y="295" width="10" height="35" fill="#81A332"/>
<rect width="10" height="35" transform="matrix(-1 0 0 1 565 295)" fill="#81A332"/>
<rect x="249" y="295" width="10" height="35" fill="#81A332"/>
<rect width="10" height="35" transform="matrix(-1 0 0 1 529 295)" fill="#81A332"/>
<rect x="267" y="295" width="10" height="35" fill="#81A332"/>
<rect width="10" height="35" transform="matrix(-1 0 0 1 511 295)" fill="#81A332"/>
<rect x="285" y="295" width="10" height="35" fill="#81A332"/>
<rect width="10" height="35" transform="matrix(-1 0 0 1 493 295)" fill="#81A332"/>
<rect x="285" y="260" width="10" height="35" fill="#81A332"/>
<rect width="10" height="35" transform="matrix(-1 0 0 1 493 260)" fill="#81A332"/>
<rect x="303" y="295" width="10" height="35" fill="#941759"/>
<rect width="10" height="35" transform="matrix(-1 0 0 1 475 295)" fill="#941759"/>
<rect x="321" y="295" width="10" height="35" fill="#81A332"/>
<rect width="10" height="35" transform="matrix(-1 0 0 1 457 295)" fill="#81A332"/>
<rect x="339" y="295" width="10" height="35" fill="#941759"/>
<rect width="10" height="35" transform="matrix(-1 0 0 1 439 295)" fill="#941759"/>
<rect x="357" y="295" width="10" height="35" fill="#81A332"/>
<rect width="10" height="35" transform="matrix(-1 0 0 1 421 295)" fill="#81A332"/>
<rect x="249" y="260" width="10" height="35" fill="#941759"/>
<rect width="10" height="35" transform="matrix(-1 0 0 1 529 260)" fill="#941759"/>
<rect x="357" y="260" width="10" height="35" fill="#941759"/>
<rect width="10" height="35" transform="matrix(-1 0 0 1 421 260)" fill="#941759"/>
<path d="M208 298.5L221.499 303.9C222.475 304.29 223.549 304.363 224.568 304.108L239.173 300.457C240.351 300.162 241.381 299.45 242.072 298.452L257.302 276.453C258.348 274.942 260.139 274.127 261.965 274.329L275.357 275.817C276.424 275.936 277.501 275.708 278.428 275.167L292.726 266.826C294.149 265.996 295.89 265.92 297.38 266.624L312.181 273.613C312.723 273.869 313.214 274.22 313.631 274.649L326.734 288.127C328.765 290.216 332.145 290.133 334.071 287.946L346.929 273.351C348.196 271.913 350.173 271.326 352.019 271.839L367 276" stroke="#3498DB" stroke-width="2"/>
<path d="M406 272.5L417.106 276.943C419.358 277.843 421.932 276.998 423.212 274.937L435.1 255.783C436.967 252.775 441.282 252.606 443.378 255.459L454.731 270.911C456.069 272.733 458.465 273.43 460.572 272.611L472.873 267.827C474.224 267.302 475.737 267.389 477.019 268.065L489.469 274.636C491.534 275.726 494.079 275.241 495.599 273.468L509.867 256.822C510.601 255.966 511.602 255.383 512.709 255.168L525.891 252.604C527.789 252.235 529.73 252.994 530.875 254.552L544.226 272.725C545.787 274.848 548.727 275.397 550.948 273.978L565 265" stroke="#3498DB" stroke-width="2"/>
</g>
<defs>
<clipPath id="clip0_header">
<rect x="30" y="37" width="584" height="361" rx="8" fill="white"/>
</clipPath>
</defs>
</svg>