<svg width="16" height="16" viewBox="0 0 16 16" fill="none" xmlns="http://www.w3.org/2000/svg">
<path d="M15.8119 5.41464L8.2564 0.0813681C8.18135 0.028423 8.09176 0 7.99991 0C7.90807 0 7.81848 0.028423 7.74343 0.0813681L0.187954 5.41464C0.129888 5.45578 0.0825221 5.51022 0.0498212 5.57342C0.0171203 5.63662 3.64341e-05 5.70673 8.0103e-08 5.77789V15.5556C-3.49762e-05 15.6139 0.0114368 15.6717 0.0337596 15.7257C0.0560823 15.7796 0.0888183 15.8286 0.130095 15.8699C0.171372 15.9112 0.220381 15.9439 0.274319 15.9662C0.328256 15.9886 0.386065 16 0.44444 16H5.33328C5.39165 16 5.44946 15.9886 5.5034 15.9662C5.55734 15.9439 5.60634 15.9112 5.64762 15.8699C5.6889 15.8286 5.72163 15.7796 5.74396 15.7257C5.76628 15.6717 5.77775 15.6139 5.77772 15.5556V10.2223H10.2221V15.5556C10.2221 15.6139 10.2336 15.6717 10.2559 15.7257C10.2782 15.7796 10.3109 15.8286 10.3522 15.8699C10.3935 15.9112 10.4425 15.9439 10.4964 15.9662C10.5504 15.9886 10.6082 16 10.6666 16H15.5554C15.6138 16 15.6716 15.9886 15.7255 15.9662C15.7794 15.9439 15.8285 15.9112 15.8697 15.8699C15.911 15.8286 15.9437 15.7796 15.9661 15.7257C15.9884 15.6717 15.9999 15.6139 15.9998 15.5556V5.77789C15.9998 5.70673 15.9827 5.63662 15.95 5.57342C15.9173 5.51022 15.8699 5.45578 15.8119 5.41464Z" fill="url(#paint0_linear_30_2721)"/>
<defs>
<linearGradient id="paint0_linear_30_2721" x1="7.99991" y1="0" x2="7.99991" y2="16" gradientUnits="userSpaceOnUse">
<stop stop-color="#F9A01B"/>
<stop offset="1" stop-color="#F04F23"/>
</linearGradient>
</defs>
</svg>
