<svg width="272" height="77" viewBox="0 0 272 77" fill="none" xmlns="http://www.w3.org/2000/svg">
    <path d="M13.0674 60.7174C12.0525 59.7817 10.6886 58.7901 9.15032 58.7901C7.33453 58.7901 6.89842 59.8778 6.89842 60.6535C6.89842 61.957 8.38118 62.3329 9.45956 62.5808C12.6313 63.3245 16.1756 64.724 16.1756 69.8502C16.1756 74.1687 13.1229 76.9996 8.07195 76.9996C5.29672 76.9996 3.10825 76.0639 0 73.5209L2.86245 68.8905C4.5593 70.538 6.43852 71.7775 8.2226 71.7775C9.33269 71.7775 10.3476 71.2497 10.3476 69.9462C10.3476 67.9549 8.50012 67.7069 6.21651 66.9952C4.48794 66.4674 1.07045 65.2519 1.07045 60.5975C1.07045 57.0867 3.59987 54.0398 8.65078 54.0398C11.008 54.042 13.3048 54.7918 15.2162 56.1831L13.0674 60.7174Z" fill="#333945" />
    <path d="M24.5014 54.624H31.8359L39.5114 76.3842H33.0412L31.8359 72.6256H24.5014L23.2961 76.3842H16.8259L24.5014 54.624ZM25.7066 67.8353H30.6386L28.1726 59.8382L25.7066 67.8353Z" fill="#333945" />
    <path d="M62.8708 63.7566C63.2989 68.8827 61.8559 76.9998 52.1505 76.9998C45.5851 76.9998 40.2567 73.0013 40.2567 65.6519C40.2567 58.5344 44.7843 54 51.6906 54C58.4384 54 60.936 57.8547 61.7052 59.2861L56.3768 61.8052C55.9385 60.9895 55.2816 60.3146 54.4808 59.8578C53.6802 59.4009 52.7682 59.1807 51.8491 59.2222C49.0105 59.2222 46.2988 61.2454 46.2988 65.532C46.2988 69.8184 48.9788 72.2176 52.0632 72.2176C53.1651 72.2767 54.252 71.9407 55.1316 71.2688C56.0112 70.5969 56.6264 69.6326 56.8684 68.5469H51.2862V63.7486L62.8708 63.7566Z" fill="#333945" />
    <path d="M65.8599 54.624H78.8082V59.8461H71.9019V62.8931H78.1581V67.6914H71.9019V71.1701H78.8082V76.3922H65.8599V54.624Z" fill="#333945" />
    <path d="M83.6768 54.624H89.7189L93.509 67.8993L97.2993 54.624H103.341L106.513 76.3842H100.701L99.115 63.7647L95.4755 76.3842H91.5902L87.9507 63.7647L86.3648 76.3842H80.5686L83.6768 54.624Z" fill="#333945" />
    <path d="M114.371 54.624H121.706L129.381 76.3842H122.903L121.698 72.6256H114.363L113.158 76.3842H106.688L114.371 54.624ZM115.576 67.8353H120.524L118.058 59.8382L115.576 67.8353Z" fill="#333945" />
    <path d="M131.109 54.624H137.176V76.3842H131.133L131.109 54.624Z" fill="#333945" />
    <path d="M141.037 54.624H147.079V71.1541H153.549V76.3762H141.037V54.624Z" fill="#333945" />
    <path d="M155.921 54.624H168.893V59.8461H161.986V62.8931H168.243V67.6914H161.986V71.1701H168.893V76.3922H155.921V54.624Z" fill="#333945" />
    <path d="M172.064 54.624H181C188.208 54.624 188.453 60.1581 188.453 61.1497C188.543 62.5893 188.148 64.0173 187.332 65.2018C186.516 66.3864 185.327 67.2581 183.957 67.6753L190 76.3762H182.697L178.138 69.1788V76.3762H172.064V54.624ZM179.58 64.4125C181.737 64.4125 182.419 63.173 182.419 61.8934C182.419 60.6139 181.745 59.4063 179.58 59.4063H178.098V64.4125H179.58Z" fill="#333945" />
    <path fill-rule="evenodd" clip-rule="evenodd" d="M256.3 4.64843C256.199 4.14529 256.501 3.64215 257.004 3.44089L268.563 0.0195247C269.066 -0.0811037 269.568 0.220782 269.769 0.723924L271.981 8.47231C272.081 8.97545 271.78 9.47859 271.277 9.67985L259.718 13.1012C259.215 13.2018 258.712 12.9 258.511 12.3968L256.3 4.64843ZM257.406 4.5478C257.607 4.34655 257.908 4.24592 258.109 4.34655L264.442 7.46602L268.061 1.42832C268.262 1.22707 268.563 1.12644 268.664 1.32769C268.965 1.52895 268.965 1.83084 268.865 2.03209L264.944 8.37168C264.844 8.57294 264.542 8.67356 264.341 8.57294L257.607 5.2522C257.406 5.05094 257.305 4.74906 257.406 4.5478ZM251.073 9.1767C250.972 8.97544 250.972 8.77419 251.173 8.67356L253.385 7.36539C253.586 7.26476 253.787 7.36539 253.887 7.56665C253.988 7.7679 253.988 7.96916 253.787 8.06979L251.575 9.37796C251.374 9.37796 251.173 9.37796 251.073 9.1767ZM208.453 74.6858C208.453 74.7361 208.478 74.7864 208.503 74.8367C208.529 74.8871 208.554 74.9374 208.554 74.9877C208.714 75.3888 208.938 75.5981 209.175 75.8194L209.175 75.8196L209.175 75.8197C209.236 75.8759 209.297 75.9329 209.358 75.994C209.76 76.2959 210.162 76.4971 210.665 76.6984L210.966 76.799C211.77 76.8996 212.574 77.0003 213.379 77.0003C214.283 77.0003 215.188 77.0003 215.992 76.799C217.6 76.5977 218.103 76.0946 218.002 75.1889C217.801 74.4845 217.399 73.7801 216.897 73.277C216.294 72.5726 215.992 71.7676 215.891 70.8619C215.891 69.8556 216.193 68.95 216.696 68.0443C217.399 67.0381 218.002 66.0319 218.605 65.0256L218.605 65.0255C219.611 63.4154 219.611 60.0947 218.706 56.2708C218.706 56.1702 221.118 58.8871 220.515 64.0192C221.075 63.7791 221.253 63.7299 221.657 63.6186L221.657 63.6186L221.657 63.6185C221.761 63.5899 221.879 63.5572 222.023 63.516C222.164 63.4847 222.302 63.4534 222.439 63.4224C223.181 63.2546 223.873 63.0979 224.637 63.0129V63.3148C224.335 66.1324 224.235 68.95 224.436 71.7676C224.335 72.8745 224.536 74.082 225.039 75.0883C225.541 76.0946 226.446 76.5977 228.054 76.6984L228.858 76.799C228.99 76.8063 229.128 76.8147 229.271 76.8233L229.272 76.8234C231.107 76.9345 233.828 77.0991 234.387 75.7927C234.487 75.5915 234.487 75.3902 234.487 75.0883C234.487 74.8871 234.487 74.6858 234.387 74.3839C234.186 73.8808 233.884 73.4783 233.583 73.1764L233.583 73.1763C233.382 72.8744 233.181 72.5726 232.98 72.1701C232.962 72.101 232.945 72.035 232.928 71.9708C232.848 71.661 232.779 71.3966 232.779 71.0632C232.678 68.3462 232.779 65.7299 233.08 63.0129C233.281 59.0884 235.09 56.7739 237.101 54.2582L237.221 54.1073C238.799 52.1345 240.549 49.9466 241.725 46.6105C241.725 46.5602 241.75 46.5099 241.775 46.4595C241.8 46.4092 241.825 46.3589 241.825 46.3086L242.227 45.9061C244.941 43.6923 248.057 40.4722 248.359 37.6546C248.359 36.9502 248.66 36.3464 249.063 35.8432C249.666 35.0382 250.369 34.4344 251.173 33.9313L251.676 33.6294C251.738 33.6294 251.762 33.591 251.795 33.5379C251.815 33.505 251.839 33.4666 251.877 33.4282V33.2269C251.877 33.1263 251.777 33.0257 251.777 33.0257C251.676 32.925 251.676 32.925 251.575 32.925H251.475C250.671 32.925 249.565 33.2269 248.861 33.5288C248.746 33.5672 248.66 33.591 248.587 33.6113L248.587 33.6113C248.515 33.6313 248.454 33.648 248.39 33.6721C249.558 33.1329 250.79 31.9005 251.274 31.4156C252.681 29.9062 253.184 27.5917 253.184 25.3779C253.083 22.9628 252.279 20.5477 250.972 18.5352C250.671 18.032 250.369 17.5289 250.068 16.9251C249.766 16.3213 249.465 15.8182 249.163 15.3151C248.962 14.8119 248.861 14.51 248.962 14.3088C249.063 14.1075 249.364 13.9063 249.867 13.9063H250.068C250.168 13.9063 250.269 13.8056 250.269 13.8056C250.269 13.8056 250.369 13.6044 250.369 13.5037V13.3025C250.369 12.6987 250.269 12.1956 250.068 11.5918C249.867 11.0887 249.565 10.5855 249.163 10.183L248.962 9.98175H248.66C248.057 9.98175 247.454 10.183 246.851 10.3843C246.047 10.6862 245.343 11.1893 244.941 11.8937C244.539 12.6987 244.338 13.5037 244.439 14.4094C244.519 14.8899 244.662 15.3067 244.819 15.7612C244.859 15.8778 244.9 15.9968 244.941 16.1201C245.042 16.3213 245.142 16.5226 245.142 16.7239C246.148 18.6358 247.354 21.554 247.454 23.7678C247.655 25.6798 246.751 27.0886 243.534 27.4911L242.73 27.5917C242.155 27.666 241.573 27.7231 240.999 27.7795L240.998 27.7796H240.998L240.998 27.7796L240.998 27.7796L240.998 27.7796C238.458 28.0291 236.056 28.265 234.99 29.9062C234.94 29.9565 234.915 30.0068 234.889 30.0571C234.864 30.1074 234.839 30.1577 234.789 30.2081C235.794 30.5099 237 31.4156 237.704 32.7238C236.799 31.5162 235.292 30.8118 234.588 30.6106C232.678 30.4093 231.371 31.1137 230.266 31.9187C229.763 32.3213 229.26 32.8244 228.959 33.4282C228.255 34.5351 227.954 35.8432 227.954 37.1514V37.4533V37.6546V38.0571C227.954 38.2583 228.054 38.5602 228.054 38.5602C228.557 40.8747 231.572 46.5099 238.006 46.8117C235.392 47.3149 228.858 46.208 226.345 39.6671C223.933 40.6734 221.822 41.3778 219.309 42.0822C212.273 44.1954 205.639 46.208 205.035 53.1513C205.035 53.1941 205.035 53.2187 205.028 53.2406C205.017 53.2701 204.993 53.2947 204.935 53.3526C204.131 54.6608 203.528 56.0695 203.226 57.579C202.925 59.2897 202.925 61.0003 203.226 62.711C203.226 62.8117 203.226 62.8117 203.327 62.8117L203.427 62.9123L203.528 63.0129H203.729H203.93C204.03 63.0129 204.131 62.9123 204.131 62.8117C204.231 62.6104 204.231 62.5098 204.231 62.3085C204.03 60.7991 204.231 59.4909 204.533 57.9815V57.8809C204.615 57.3887 204.764 57.0303 204.925 56.6422L204.925 56.642L204.925 56.6412L204.925 56.6402C204.962 56.5528 204.999 56.4638 205.035 56.3714C205.035 56.3211 205.061 56.296 205.086 56.2708C205.111 56.2457 205.136 56.2205 205.136 56.1702C205.438 58.0821 206.141 59.8934 207.247 61.5035C207.649 62.2079 208.051 62.9123 208.353 63.6167C208.654 64.3211 208.956 65.7299 208.554 67.2393C207.951 69.2519 207.85 70.8619 207.85 71.4657C207.879 71.5802 207.899 71.8004 207.925 72.0825C207.991 72.7924 208.093 73.8937 208.453 74.6858ZM248.258 33.73C248.302 33.7118 248.346 33.6924 248.39 33.6721C248.349 33.6875 248.307 33.7058 248.258 33.73ZM207.347 67.6418C206.443 70.0569 207.046 73.1763 207.448 74.4845C206.744 74.3839 206.041 74.2832 205.438 74.082C204.231 73.6795 203.427 72.9751 203.93 71.8682C204.231 70.6606 205.84 67.5412 207.85 64.2204C207.95 64.9248 207.95 66.1324 207.347 67.6418ZM239.111 53.6543C238.81 54.0568 238.508 54.4593 238.106 54.8618C237.677 55.2915 237.101 56.0149 236.441 56.8438C236.328 56.9854 236.213 57.1301 236.096 57.2769C234.192 59.7846 233.886 62.6922 233.685 64.6044L233.683 64.6228C234.99 66.4341 235.794 68.0441 235.995 68.9498C236.016 69.0127 236.037 69.0714 236.057 69.1274L236.057 69.1275C236.133 69.3401 236.196 69.5159 236.196 69.7548V70.5598C236.146 70.7108 236.121 70.8366 236.096 70.9623C236.07 71.0881 236.045 71.2139 235.995 71.3649C235.895 71.7674 235.794 72.2705 235.895 72.673C235.995 73.1762 236.297 73.5787 236.598 73.8806C237.201 74.585 238.005 75.0881 238.81 75.2894C239.815 75.6919 240.92 75.7925 242.026 75.7925C242.73 75.7925 243.433 75.6919 244.036 75.2894C244.338 75.0881 244.539 74.8869 244.64 74.585C244.74 74.2831 244.74 73.9812 244.74 73.6793V73.5787C244.539 72.8743 244.439 72.0693 244.439 71.3649C244.439 70.7611 244.439 70.0567 244.539 69.4529C244.74 68.346 244.64 67.0378 244.338 65.9309C243.936 64.6228 243.333 63.4152 242.529 62.4089C242.166 61.7736 241.722 61.2202 241.343 60.7486C241.302 60.6973 241.261 60.647 241.222 60.5976L240.92 60.2957L240.813 60.1541C238.977 57.7373 238.125 56.6158 239.111 53.6543ZM253.586 9.67998C253.385 9.78061 253.284 9.98187 253.385 10.1831C253.385 10.3844 253.586 10.485 253.887 10.3844L255.496 9.78061C255.697 9.67998 255.797 9.47872 255.697 9.27747C255.596 9.07621 255.395 8.97558 255.194 9.07621L253.586 9.67998ZM252.279 12.4974C252.279 12.2961 252.38 12.0948 252.581 12.0948L255.194 11.6923C255.395 11.6923 255.596 11.793 255.596 11.9942C255.596 12.1955 255.496 12.3967 255.295 12.3967L252.681 12.7992C252.581 12.7992 252.38 12.6986 252.279 12.4974Z" fill="#333945" />
</svg>
