<svg width="20" height="22" viewBox="0 0 20 22" fill="none" xmlns="http://www.w3.org/2000/svg">
<path d="M5.93703 7.34828V5.40691C5.9355 4.87106 6.03972 4.34017 6.24372 3.84467C6.44772 3.34916 6.74749 2.89878 7.12585 2.51934C7.50422 2.13989 7.95374 1.83883 8.44866 1.63342C8.94358 1.428 9.47417 1.32227 10.01 1.32227V1.32227C10.5452 1.32176 11.0753 1.42673 11.5699 1.63119C12.0645 1.83565 12.514 2.13558 12.8926 2.51385C13.2712 2.89211 13.5716 3.34129 13.7765 3.8357C13.9814 4.33011 14.0869 4.86006 14.0869 5.39526V7.27451" stroke="url(#paint0_linear_56_1745)" stroke-linecap="round" stroke-linejoin="round"/>
<path d="M16.8826 20.6816H3.15319C2.99211 20.6831 2.83232 20.6527 2.68305 20.5922C2.53379 20.5316 2.39801 20.442 2.28356 20.3287C2.16911 20.2153 2.07827 20.0804 2.01627 19.9317C1.95427 19.783 1.92236 19.6235 1.92236 19.4624V9.30129C1.92204 9.01374 2.02369 8.7354 2.20924 8.51573C2.39478 8.29606 2.65221 8.14929 2.93576 8.10152L7.08253 7.24344C9.03839 6.91149 11.0362 6.91149 12.9921 7.24344L17.0884 8.09764C17.3719 8.14541 17.6293 8.29217 17.8149 8.51184C18.0004 8.73152 18.1021 9.00986 18.1017 9.29741V19.4624C18.1007 19.7855 17.9719 20.095 17.7435 20.3234C17.5151 20.5518 17.2056 20.6806 16.8826 20.6816V20.6816Z" stroke="url(#paint1_linear_56_1745)" stroke-linecap="round" stroke-linejoin="round"/>
<path d="M11.0662 14.5275V16.5931C11.0662 16.6435 11.0462 16.6919 11.0105 16.7276C10.9748 16.7633 10.9264 16.7833 10.876 16.7833H9.15203C9.10225 16.7823 9.05485 16.7618 9.02001 16.7262C8.98516 16.6907 8.96565 16.6429 8.96566 16.5931V14.5275C8.66767 14.3626 8.41651 14.1246 8.23583 13.836C8.05515 13.5473 7.95089 13.2174 7.93285 12.8773C7.89666 12.59 7.92071 12.2983 8.00347 12.0208C8.08623 11.7433 8.22588 11.4861 8.41352 11.2656C8.60117 11.045 8.8327 10.866 9.09335 10.7399C9.35401 10.6137 9.63808 10.5433 9.92747 10.533C10.2169 10.5227 10.5052 10.5728 10.7742 10.6801C11.0431 10.7874 11.2868 10.9496 11.4896 11.1562C11.6924 11.3629 11.85 11.6095 11.9522 11.8804C12.0545 12.1514 12.0992 12.4406 12.0835 12.7297C12.077 13.0904 11.9805 13.4437 11.8029 13.7576C11.6252 14.0716 11.372 14.3362 11.0662 14.5275V14.5275Z" stroke="url(#paint2_linear_56_1745)" stroke-linecap="round" stroke-linejoin="round"/>
<defs>
<linearGradient id="paint0_linear_56_1745" x1="10.012" y1="1.32227" x2="10.012" y2="7.34828" gradientUnits="userSpaceOnUse">
<stop stop-color="#58BFFF"/>
<stop offset="1" stop-color="#3793FF"/>
</linearGradient>
<linearGradient id="paint1_linear_56_1745" x1="10.0121" y1="6.99448" x2="10.0121" y2="20.6817" gradientUnits="userSpaceOnUse">
<stop stop-color="#58BFFF"/>
<stop offset="1" stop-color="#3793FF"/>
</linearGradient>
<linearGradient id="paint2_linear_56_1745" x1="10.0015" y1="10.5317" x2="10.0015" y2="16.7833" gradientUnits="userSpaceOnUse">
<stop stop-color="#58BFFF"/>
<stop offset="1" stop-color="#3793FF"/>
</linearGradient>
</defs>
</svg>
