<svg width="744" height="521" viewBox="0 0 744 521" fill="none" xmlns="http://www.w3.org/2000/svg">
<g filter="url(#filter0_ddd)">
<g clip-path="url(#clip0)">
<rect x="80" y="18" width="584" height="361" rx="8" fill="white"/>
<path d="M278 310.313V197" stroke="#F2F2F2"/>
<path d="M302 310.313V197" stroke="#F2F2F2"/>
<path d="M325 310.313V197" stroke="#F2F2F2"/>
<path d="M348 310.313V197" stroke="#F2F2F2"/>
<path d="M371 310.313V197" stroke="#F2F2F2"/>
<path d="M394 310.313V197" stroke="#F2F2F2"/>
<path d="M417 310.313V197" stroke="#F2F2F2"/>
<path d="M476 311V197.687" stroke="#F2F2F2"/>
<path d="M500 311V197.687" stroke="#F2F2F2"/>
<path d="M523 311V197.687" stroke="#F2F2F2"/>
<path d="M546 311V197.687" stroke="#F2F2F2"/>
<path d="M569 311V197.687" stroke="#F2F2F2"/>
<path d="M592 311V197.687" stroke="#F2F2F2"/>
<path d="M615 311V197.687" stroke="#F2F2F2"/>
<path d="M80 26C80 21.5817 83.5817 18 88 18H234V387H88C83.5817 387 80 383.418 80 379V26Z" fill="#12030B"/>
<path d="M110.465 45.2132C109.963 44.7657 109.288 44.2915 108.527 44.2915C107.629 44.2915 107.413 44.8116 107.413 45.1826C107.413 45.8061 108.146 45.9858 108.68 46.1044C110.249 46.4601 112.003 47.1294 112.003 49.5811C112.003 51.6465 110.492 53.0004 107.993 53.0004C106.62 53.0004 105.538 52.5529 104 51.3367L105.416 49.1221C106.256 49.91 107.185 50.5029 108.068 50.5029C108.617 50.5029 109.119 50.2504 109.119 49.627C109.119 48.6746 108.205 48.5561 107.076 48.2157C106.22 47.9632 104.53 47.3819 104.53 45.1558C104.53 43.4768 105.781 42.0195 108.28 42.0195C109.446 42.0206 110.582 42.3792 111.528 43.0446L110.465 45.2132Z" fill="#81A332"/>
<path d="M116.122 42.2983H119.75L123.548 52.7055H120.347L119.75 50.9079H116.122L115.525 52.7055H112.324L116.122 42.2983ZM116.718 48.6168H119.158L117.938 44.7921L116.718 48.6168Z" fill="#81A332"/>
<path d="M135.104 46.6662C135.316 49.1179 134.602 53 129.801 53C126.553 53 123.916 51.0876 123.916 47.5727C123.916 44.1687 126.156 42 129.573 42C132.912 42 134.147 43.8435 134.528 44.5282L131.892 45.733C131.675 45.3429 131.35 45.0201 130.954 44.8016C130.558 44.5831 130.106 44.4778 129.652 44.4976C128.247 44.4976 126.906 45.4652 126.906 47.5153C126.906 49.5654 128.232 50.7128 129.758 50.7128C130.303 50.7411 130.84 50.5804 131.276 50.259C131.711 49.9377 132.015 49.4765 132.135 48.9573H129.373V46.6624L135.104 46.6662Z" fill="#81A332"/>
<path d="M136.583 42.2983H142.989V44.7959H139.572V46.2531H142.668V48.548H139.572V50.2117H142.989V52.7093H136.583V42.2983Z" fill="#81A332"/>
<path d="M145.398 42.2983H148.387L150.262 48.6474L152.138 42.2983H155.127L156.696 52.7055H153.821L153.036 46.67L151.235 52.7055H149.313L147.513 46.67L146.728 52.7055H143.86L145.398 42.2983Z" fill="#81A332"/>
<path d="M160.583 42.2983H164.212L168.01 52.7055H164.805L164.208 50.9079H160.579L159.983 52.7055H156.782L160.583 42.2983ZM161.18 48.6168H163.627L162.408 44.7921L161.18 48.6168Z" fill="#81A332"/>
<path d="M168.865 42.2983H171.866V52.7055H168.877L168.865 42.2983Z" fill="#81A332"/>
<path d="M173.776 42.2983H176.765V50.2041H179.967V52.7017H173.776V42.2983Z" fill="#81A332"/>
<path d="M181.14 42.2983H187.557V44.7959H184.141V46.2531H187.236V48.548H184.141V50.2117H187.557V52.7093H181.14V42.2983Z" fill="#81A332"/>
<path d="M189.127 42.2983H193.547C197.113 42.2983 197.235 44.9451 197.235 45.4193C197.279 46.1079 197.084 46.7908 196.68 47.3573C196.276 47.9239 195.688 48.3408 195.011 48.5403L198 52.7017H194.387L192.131 49.2594V52.7017H189.127V42.2983ZM192.845 46.9798C193.912 46.9798 194.25 46.387 194.25 45.775C194.25 45.1631 193.916 44.5855 192.845 44.5855H192.112V46.9798H192.845Z" fill="#81A332"/>
<rect x="104" y="77" width="70" height="10" rx="5" fill="#8B8187"/>
<rect x="258" y="42" width="288" height="10" rx="5" fill="#D7D7D7" fill-opacity="0.6"/>
<rect x="620" y="335" width="164" height="9.99999" rx="4.99999" transform="rotate(-180 620 335)" fill="#D7D7D7" fill-opacity="0.6"/>
<rect x="422" y="335" width="164" height="9.99999" rx="4.99999" transform="rotate(-180 422 335)" fill="#D7D7D7" fill-opacity="0.6"/>
<rect x="570" y="42" width="50" height="10" rx="5" fill="#D7D7D7" fill-opacity="0.6"/>
<rect x="104" y="147" width="70" height="10" rx="5" fill="#8B8187"/>
<rect x="104" y="217" width="70" height="10" rx="5" fill="#8B8187"/>
<rect x="104" y="95" width="70" height="10" rx="5" fill="#8B8187"/>
<rect x="104" y="165" width="70" height="10" rx="5" fill="#8B8187"/>
<rect x="104" y="235" width="70" height="10" rx="5" fill="#8B8187"/>
<rect x="104" y="113" width="70" height="10" rx="5" fill="#8B8187"/>
<rect x="104" y="183" width="70" height="10" rx="5" fill="#8B8187"/>
<rect x="104" y="253" width="70" height="10" rx="5" fill="#8B8187"/>
<rect x="258" y="78" width="362" height="50" rx="8" fill="#E6E6E6" fill-opacity="0.6"/>
<path fill-rule="evenodd" clip-rule="evenodd" d="M283.727 95.5C282.35 95.5 281.234 96.6158 281.234 97.9922V107.508C281.234 108.884 282.35 110 283.727 110H297.773C299.15 110 300.266 108.884 300.266 107.508V97.9922C300.266 96.6158 299.15 95.5 297.773 95.5H283.727ZM282.594 97.9922C282.594 97.3666 283.101 96.8594 283.727 96.8594H297.773C298.399 96.8594 298.906 97.3666 298.906 97.9922V99.5799L290.97 102.921L282.594 99.571V97.9922ZM282.594 101.035V107.508C282.594 108.133 283.101 108.641 283.727 108.641H297.773C298.399 108.641 298.906 108.133 298.906 107.508V101.055L290.983 104.391L282.594 101.035Z" fill="#79808D"/>
<path fill-rule="evenodd" clip-rule="evenodd" d="M363.907 92.2514L363.507 92.2288L360.315 96.4632L357.885 99.727C357.503 99.4281 357.023 99.25 356.5 99.25C355.257 99.25 354.25 100.257 354.25 101.5V109C354.25 110.243 355.257 111.25 356.5 111.25C357.206 111.25 357.836 110.925 358.248 110.416C358.445 110.563 358.656 110.683 358.864 110.779C359.647 111.14 360.548 111.25 361.142 111.25H368.263C369.14 111.25 369.772 110.789 370.174 110.295C370.568 109.812 370.788 109.249 370.879 108.859L370.886 108.825L370.891 108.791C371.1 107.251 371.563 103.753 371.732 102.13C371.842 101.067 371.437 100.304 370.816 99.8413C370.246 99.4167 369.561 99.2904 369.101 99.2904H365.421C365.775 98.3177 366.29 96.8447 366.579 95.4557C366.817 94.3124 366.638 93.4004 365.922 92.8342C365.312 92.3515 364.475 92.2834 363.907 92.2514ZM358.75 108.489C358.75 108.883 358.976 109.179 359.492 109.417C360.018 109.659 360.688 109.75 361.142 109.75H368.263C368.559 109.75 368.8 109.608 369.011 109.348C369.223 109.088 369.355 108.765 369.41 108.551C369.622 106.988 370.075 103.557 370.24 101.974C370.297 101.427 370.108 101.185 369.92 101.044C369.68 100.865 369.339 100.79 369.101 100.79H363.337L363.641 99.8168C363.706 99.6064 363.814 99.3133 363.943 98.9591L363.943 98.9591L363.943 98.9591C364.295 97.9958 364.813 96.5808 365.111 95.1499C365.291 94.2817 365.074 94.0759 364.991 94.0104C364.847 93.8963 364.601 93.8241 364.215 93.7808L361.513 97.3661L358.75 101.078V101.5V108.489ZM357.25 101.5C357.25 101.086 356.914 100.75 356.5 100.75C356.086 100.75 355.75 101.086 355.75 101.5V109C355.75 109.414 356.086 109.75 356.5 109.75C356.914 109.75 357.25 109.414 357.25 109V108.489V101.5Z" fill="#79808D"/>
<path fill-rule="evenodd" clip-rule="evenodd" d="M435.907 113.727L435.507 113.75L432.315 109.515L429.885 106.251C429.504 106.55 429.023 106.728 428.5 106.728C427.257 106.728 426.25 105.721 426.25 104.478L426.25 96.9783C426.25 95.7357 427.257 94.7283 428.5 94.7283C429.206 94.7283 429.836 95.0534 430.248 95.562C430.445 95.4154 430.656 95.2956 430.864 95.1995C431.647 94.8385 432.549 94.7283 433.142 94.7283L440.263 94.7283C441.14 94.7283 441.772 95.1893 442.175 95.6835C442.568 96.1662 442.789 96.7293 442.879 97.1195L442.887 97.1533L442.891 97.1877C443.1 98.7273 443.563 102.226 443.732 103.849C443.842 104.911 443.437 105.674 442.816 106.137C442.246 106.562 441.561 106.688 441.101 106.688L437.422 106.688C437.775 107.661 438.29 109.134 438.579 110.523C438.817 111.666 438.638 112.578 437.922 113.144C437.312 113.627 436.475 113.695 435.907 113.727ZM430.75 97.4883C430.75 97.4888 430.75 97.4893 430.75 97.4898L430.75 104.478C430.75 104.479 430.75 104.48 430.75 104.481L430.75 104.901L433.513 108.612L436.215 112.198C436.601 112.154 436.847 112.082 436.992 111.968C437.074 111.903 437.292 111.697 437.111 110.829C436.813 109.398 436.295 107.983 435.943 107.019C435.814 106.665 435.707 106.372 435.641 106.162L435.337 105.188L441.101 105.188C441.339 105.188 441.68 105.113 441.92 104.934C442.108 104.794 442.297 104.551 442.24 104.004C442.075 102.422 441.622 98.9906 441.41 97.4276C441.356 97.2133 441.223 96.89 441.012 96.6308C440.8 96.3707 440.559 96.2283 440.263 96.2283L433.142 96.2283C432.688 96.2283 432.018 96.3192 431.492 96.5617C430.977 96.7992 430.751 97.095 430.75 97.4883ZM429.25 97.4873L429.25 96.9783C429.25 96.5641 428.914 96.2283 428.5 96.2283C428.086 96.2283 427.75 96.5641 427.75 96.9783L427.75 104.478C427.75 104.893 428.086 105.228 428.5 105.228C428.914 105.228 429.249 104.893 429.25 104.48L429.25 97.4898C429.25 97.489 429.25 97.4882 429.25 97.4873Z" fill="#79808D"/>
<path fill-rule="evenodd" clip-rule="evenodd" d="M504.75 112.547C505.87 112.547 506.817 111.811 507.136 110.796H509.865C510.183 111.811 511.131 112.547 512.25 112.547C513.631 112.547 514.75 111.427 514.75 110.047C514.75 108.666 513.631 107.547 512.25 107.547C511.131 107.547 510.183 108.282 509.865 109.296H507.136C506.817 108.282 505.87 107.547 504.75 107.547C503.631 107.547 502.683 108.282 502.365 109.296H501.75C501.49 109.296 501.039 109.226 500.673 108.961C500.351 108.728 500 108.277 500 107.296C500 106.358 500.376 105.898 500.802 105.633C501.28 105.335 501.903 105.241 502.378 105.241H512.924C513.435 105.241 513.895 104.93 514.084 104.455L516.696 97.9178C517.008 97.1387 516.478 96.2802 515.642 96.2085L501.914 95.0323C501.712 94.2231 501.339 93.5393 500.686 93.0807C499.897 92.5271 498.861 92.4184 497.667 92.5511C497.256 92.5968 496.959 92.9676 497.005 93.3793C497.05 93.791 497.421 94.0876 497.833 94.0419C498.889 93.9246 499.478 94.0659 499.824 94.3085C500.151 94.5378 500.415 94.9689 500.545 95.8332L501.537 103.809C501.049 103.889 500.505 104.051 500.009 104.36C499.143 104.899 498.5 105.842 498.5 107.296C498.5 108.708 499.043 109.633 499.793 110.176C500.5 110.688 501.299 110.796 501.75 110.796H502.365C502.683 111.811 503.631 112.547 504.75 112.547ZM504.75 111.047C505.302 111.047 505.75 110.599 505.75 110.047C505.75 109.494 505.302 109.047 504.75 109.047C504.198 109.047 503.75 109.494 503.75 110.047C503.75 110.599 504.198 111.047 504.75 111.047ZM502.147 96.5577L503.041 103.741L512.754 103.741L515.178 97.6743L502.147 96.5577ZM513.25 110.047C513.25 110.599 512.802 111.047 512.25 111.047C511.698 111.047 511.25 110.599 511.25 110.047C511.25 109.494 511.698 109.047 512.25 109.047C512.802 109.047 513.25 109.494 513.25 110.047Z" fill="#79808D"/>
<path d="M580 94.75C580 94.3358 579.664 94 579.25 94C578.836 94 578.5 94.3358 578.5 94.75V96.0136C576.928 96.1013 575.872 96.6052 575.192 97.2574C574.467 97.9536 574.224 98.7725 574.224 99.2488C574.224 100.206 574.476 101.067 575.265 101.808C575.999 102.497 577.144 103.028 578.775 103.535C580.376 104.032 581.275 104.444 581.805 104.854C582.226 105.18 582.416 105.677 582.456 106.194C582.456 106.712 582.37 107.157 581.961 107.565C581.459 108.065 580.752 108.558 579.252 108.495C577.64 108.427 576.725 108.049 576.215 107.586C575.726 107.142 575.5 106.518 575.5 105.674C575.5 105.26 575.164 104.924 574.75 104.924C574.336 104.924 574 105.26 574 105.674C574 106.794 574.31 107.883 575.207 108.697C575.966 109.386 577.059 109.798 578.5 109.945V111.25C578.5 111.664 578.836 112 579.25 112C579.664 112 580 111.664 580 111.25V109.982C581.454 109.876 582.462 109.299 583.109 108.531C583.837 107.665 584.046 106.527 583.995 105.873C583.924 104.961 583.509 104.172 582.685 103.535C581.925 102.946 580.837 102.604 579.22 102.102C577.633 101.609 576.765 101.159 576.292 100.714C575.874 100.322 575.726 100.019 575.726 99.4531V99.3027C575.726 99.2695 575.728 99.2383 575.74 99.1621C575.754 99.1025 575.78 98.9958 575.818 98.9082C575.893 98.7338 576.018 98.5443 576.231 98.3398C576.644 97.943 577.449 97.5 578.998 97.5C580.516 97.5 581.363 97.997 581.838 98.524C582.335 99.0747 582.495 99.7359 582.495 100.141C582.495 100.555 582.831 100.891 583.245 100.891C583.659 100.891 583.995 100.555 583.995 100.141C583.995 99.4161 583.73 98.3817 582.952 97.5194C582.304 96.8009 581.343 96.2485 580 96.0653V94.75Z" fill="#79808D"/>
<path d="M327 88V119" stroke="#79808D"/>
<path d="M399 88V119" stroke="#79808D"/>
<path d="M471 88V119" stroke="#79808D"/>
<path d="M543 88V119" stroke="#79808D"/>
<path d="M264.829 172.557H260.741V175.619H265.52V177H259.012V167.047H265.472V168.441H260.741V171.189H264.829V172.557ZM269.17 167.047L272.041 174.676L274.905 167.047H277.141V177H275.418V173.719L275.589 169.33L272.649 177H271.412L268.479 169.337L268.65 173.719V177H266.928V167.047H269.17ZM284.886 174.683H281.03L280.224 177H278.426L282.186 167.047H283.737L287.504 177H285.699L284.886 174.683ZM281.516 173.288H284.4L282.958 169.159L281.516 173.288ZM290.464 177H288.741V167.047H290.464V177ZM294.319 175.619H298.838V177H292.59V167.047H294.319V175.619ZM305.366 174.437C305.366 173.999 305.211 173.662 304.901 173.425C304.596 173.188 304.042 172.949 303.24 172.707C302.438 172.465 301.8 172.197 301.326 171.9C300.419 171.331 299.966 170.588 299.966 169.672C299.966 168.87 300.292 168.209 300.943 167.689C301.6 167.17 302.45 166.91 303.493 166.91C304.186 166.91 304.803 167.038 305.346 167.293C305.888 167.548 306.314 167.913 306.624 168.387C306.934 168.856 307.089 169.378 307.089 169.952H305.366C305.366 169.433 305.202 169.027 304.874 168.735C304.55 168.439 304.086 168.291 303.479 168.291C302.914 168.291 302.475 168.412 302.16 168.653C301.85 168.895 301.695 169.232 301.695 169.665C301.695 170.03 301.864 170.335 302.201 170.581C302.538 170.823 303.094 171.06 303.869 171.292C304.644 171.52 305.266 171.782 305.735 172.078C306.205 172.37 306.549 172.707 306.768 173.09C306.986 173.468 307.096 173.912 307.096 174.423C307.096 175.252 306.777 175.913 306.139 176.405C305.505 176.893 304.644 177.137 303.555 177.137C302.835 177.137 302.172 177.005 301.565 176.74C300.964 176.471 300.494 176.102 300.157 175.633C299.825 175.163 299.658 174.617 299.658 173.992H301.388C301.388 174.557 301.575 174.995 301.948 175.305C302.322 175.615 302.857 175.77 303.555 175.77C304.156 175.77 304.607 175.649 304.908 175.407C305.214 175.161 305.366 174.838 305.366 174.437ZM317.671 174.683H313.815L313.009 177H311.211L314.971 167.047H316.522L320.289 177H318.484L317.671 174.683ZM314.301 173.288H317.186L315.743 169.159L314.301 173.288ZM329.319 177H327.59L323.153 169.938V177H321.424V167.047H323.153L327.604 174.136V167.047H329.319V177ZM331.363 177V167.047H334.303C335.182 167.047 335.962 167.243 336.641 167.635C337.324 168.027 337.853 168.583 338.227 169.303C338.6 170.023 338.787 170.848 338.787 171.777V172.276C338.787 173.22 338.598 174.049 338.22 174.765C337.846 175.48 337.311 176.032 336.613 176.419C335.921 176.806 335.125 177 334.228 177H331.363ZM333.093 168.441V175.619H334.221C335.128 175.619 335.823 175.337 336.306 174.771C336.793 174.202 337.042 173.386 337.051 172.324V171.771C337.051 170.69 336.816 169.866 336.347 169.296C335.877 168.726 335.196 168.441 334.303 168.441H333.093ZM347.653 173.165H345.726V177H343.996V167.047H347.496C348.645 167.047 349.531 167.304 350.155 167.819C350.78 168.334 351.092 169.079 351.092 170.055C351.092 170.72 350.93 171.278 350.606 171.729C350.287 172.176 349.841 172.52 349.267 172.762L351.502 176.911V177H349.649L347.653 173.165ZM345.726 171.777H347.503C348.086 171.777 348.542 171.632 348.87 171.34C349.198 171.044 349.362 170.64 349.362 170.13C349.362 169.597 349.21 169.184 348.904 168.893C348.604 168.601 348.152 168.451 347.551 168.441H345.726V171.777ZM358.55 172.557H354.462V175.619H359.24V177H352.732V167.047H359.192V168.441H354.462V171.189H358.55V172.557ZM364.155 174.833L366.685 167.047H368.585L365.003 177H363.328L359.76 167.047H361.653L364.155 174.833ZM371.538 177H369.815V167.047H371.538V177ZM379.481 172.557H375.394V175.619H380.172V177H373.664V167.047H380.124V168.441H375.394V171.189H379.481V172.557ZM389.387 174.539L390.918 167.047H392.634L390.337 177H388.683L386.789 169.733L384.854 177H383.193L380.896 167.047H382.612L384.157 174.525L386.058 167.047H387.507L389.387 174.539ZM399.101 174.437C399.101 173.999 398.946 173.662 398.636 173.425C398.33 173.188 397.777 172.949 396.975 172.707C396.173 172.465 395.535 172.197 395.061 171.9C394.154 171.331 393.7 170.588 393.7 169.672C393.7 168.87 394.026 168.209 394.678 167.689C395.334 167.17 396.184 166.91 397.228 166.91C397.92 166.91 398.538 167.038 399.08 167.293C399.622 167.548 400.049 167.913 400.358 168.387C400.668 168.856 400.823 169.378 400.823 169.952H399.101C399.101 169.433 398.937 169.027 398.608 168.735C398.285 168.439 397.82 168.291 397.214 168.291C396.649 168.291 396.209 168.412 395.895 168.653C395.585 168.895 395.43 169.232 395.43 169.665C395.43 170.03 395.598 170.335 395.936 170.581C396.273 170.823 396.829 171.06 397.604 171.292C398.378 171.52 399 171.782 399.47 172.078C399.939 172.37 400.283 172.707 400.502 173.09C400.721 173.468 400.83 173.912 400.83 174.423C400.83 175.252 400.511 175.913 399.873 176.405C399.24 176.893 398.378 177.137 397.289 177.137C396.569 177.137 395.906 177.005 395.3 176.74C394.698 176.471 394.229 176.102 393.892 175.633C393.559 175.163 393.393 174.617 393.393 173.992H395.122C395.122 174.557 395.309 174.995 395.683 175.305C396.056 175.615 396.592 175.77 397.289 175.77C397.891 175.77 398.342 175.649 398.643 175.407C398.948 175.161 399.101 174.838 399.101 174.437Z" fill="#A2A2A2"/>
<path d="M462.214 174.437C462.214 173.999 462.059 173.662 461.749 173.425C461.444 173.188 460.89 172.949 460.088 172.707C459.286 172.465 458.648 172.197 458.174 171.9C457.267 171.331 456.813 170.588 456.813 169.672C456.813 168.87 457.139 168.209 457.791 167.689C458.447 167.17 459.297 166.91 460.341 166.91C461.034 166.91 461.651 167.038 462.193 167.293C462.736 167.548 463.162 167.913 463.472 168.387C463.782 168.856 463.937 169.378 463.937 169.952H462.214C462.214 169.433 462.05 169.027 461.722 168.735C461.398 168.439 460.933 168.291 460.327 168.291C459.762 168.291 459.322 168.412 459.008 168.653C458.698 168.895 458.543 169.232 458.543 169.665C458.543 170.03 458.712 170.335 459.049 170.581C459.386 170.823 459.942 171.06 460.717 171.292C461.492 171.52 462.114 171.782 462.583 172.078C463.052 172.37 463.396 172.707 463.615 173.09C463.834 173.468 463.943 173.912 463.943 174.423C463.943 175.252 463.624 175.913 462.986 176.405C462.353 176.893 461.492 177.137 460.402 177.137C459.682 177.137 459.019 177.005 458.413 176.74C457.812 176.471 457.342 176.102 457.005 175.633C456.672 175.163 456.506 174.617 456.506 173.992H458.235C458.235 174.557 458.422 174.995 458.796 175.305C459.17 175.615 459.705 175.77 460.402 175.77C461.004 175.77 461.455 175.649 461.756 175.407C462.061 175.161 462.214 174.838 462.214 174.437ZM471.032 174.683H467.177L466.37 177H464.572L468.332 167.047H469.884L473.65 177H471.846L471.032 174.683ZM467.662 173.288H470.547L469.104 169.159L467.662 173.288ZM476.515 175.619H481.033V177H474.785V167.047H476.515V175.619ZM488.177 172.557H484.089V175.619H488.867V177H482.359V167.047H488.819V168.441H484.089V171.189H488.177V172.557ZM495.478 174.437C495.478 173.999 495.323 173.662 495.013 173.425C494.707 173.188 494.154 172.949 493.352 172.707C492.549 172.465 491.911 172.197 491.438 171.9C490.531 171.331 490.077 170.588 490.077 169.672C490.077 168.87 490.403 168.209 491.055 167.689C491.711 167.17 492.561 166.91 493.604 166.91C494.297 166.91 494.915 167.038 495.457 167.293C495.999 167.548 496.425 167.913 496.735 168.387C497.045 168.856 497.2 169.378 497.2 169.952H495.478C495.478 169.433 495.313 169.027 494.985 168.735C494.662 168.439 494.197 168.291 493.591 168.291C493.026 168.291 492.586 168.412 492.271 168.653C491.962 168.895 491.807 169.232 491.807 169.665C491.807 170.03 491.975 170.335 492.312 170.581C492.65 170.823 493.206 171.06 493.98 171.292C494.755 171.52 495.377 171.782 495.847 172.078C496.316 172.37 496.66 172.707 496.879 173.09C497.098 173.468 497.207 173.912 497.207 174.423C497.207 175.252 496.888 175.913 496.25 176.405C495.617 176.893 494.755 177.137 493.666 177.137C492.946 177.137 492.283 177.005 491.677 176.74C491.075 176.471 490.606 176.102 490.269 175.633C489.936 175.163 489.77 174.617 489.77 173.992H491.499C491.499 174.557 491.686 174.995 492.06 175.305C492.433 175.615 492.969 175.77 493.666 175.77C494.268 175.77 494.719 175.649 495.02 175.407C495.325 175.161 495.478 174.838 495.478 174.437ZM507.782 174.683H503.927L503.12 177H501.322L505.082 167.047H506.634L510.4 177H508.596L507.782 174.683ZM504.412 173.288H507.297L505.854 169.159L504.412 173.288ZM519.431 177H517.701L513.265 169.938V177H511.535V167.047H513.265L517.715 174.136V167.047H519.431V177ZM521.475 177V167.047H524.414C525.294 167.047 526.073 167.243 526.752 167.635C527.436 168.027 527.964 168.583 528.338 169.303C528.712 170.023 528.898 170.848 528.898 171.777V172.276C528.898 173.22 528.709 174.049 528.331 174.765C527.957 175.48 527.422 176.032 526.725 176.419C526.032 176.806 525.237 177 524.339 177H521.475ZM523.204 168.441V175.619H524.332C525.239 175.619 525.934 175.337 526.417 174.771C526.905 174.202 527.153 173.386 527.162 172.324V171.771C527.162 170.69 526.927 169.866 526.458 169.296C525.989 168.726 525.307 168.441 524.414 168.441H523.204ZM542.051 172.283C542.051 173.258 541.882 174.115 541.545 174.854C541.208 175.587 540.725 176.152 540.096 176.549C539.471 176.941 538.751 177.137 537.936 177.137C537.129 177.137 536.409 176.941 535.775 176.549C535.146 176.152 534.659 175.59 534.312 174.86C533.971 174.131 533.798 173.29 533.793 172.338V171.777C533.793 170.807 533.964 169.95 534.306 169.207C534.652 168.464 535.137 167.897 535.762 167.505C536.391 167.108 537.111 166.91 537.922 166.91C538.733 166.91 539.451 167.106 540.075 167.498C540.704 167.885 541.189 168.446 541.531 169.18C541.873 169.909 542.046 170.759 542.051 171.729V172.283ZM540.321 171.764C540.321 170.661 540.112 169.815 539.692 169.228C539.278 168.64 538.688 168.346 537.922 168.346C537.174 168.346 536.589 168.64 536.165 169.228C535.746 169.811 535.532 170.638 535.522 171.709V172.283C535.522 173.377 535.734 174.222 536.158 174.819C536.587 175.416 537.179 175.715 537.936 175.715C538.701 175.715 539.289 175.423 539.699 174.84C540.114 174.257 540.321 173.404 540.321 172.283V171.764ZM547.431 173.165H545.503V177H543.773V167.047H547.273C548.422 167.047 549.308 167.304 549.933 167.819C550.557 168.334 550.869 169.079 550.869 170.055C550.869 170.72 550.707 171.278 550.384 171.729C550.065 172.176 549.618 172.52 549.044 172.762L551.279 176.911V177H549.427L547.431 173.165ZM545.503 171.777H547.28C547.864 171.777 548.319 171.632 548.647 171.34C548.976 171.044 549.14 170.64 549.14 170.13C549.14 169.597 548.987 169.184 548.682 168.893C548.381 168.601 547.93 168.451 547.328 168.441H545.503V171.777ZM552.51 177V167.047H555.449C556.329 167.047 557.108 167.243 557.787 167.635C558.471 168.027 558.999 168.583 559.373 169.303C559.747 170.023 559.934 170.848 559.934 171.777V172.276C559.934 173.22 559.744 174.049 559.366 174.765C558.993 175.48 558.457 176.032 557.76 176.419C557.067 176.806 556.272 177 555.374 177H552.51ZM554.239 168.441V175.619H555.367C556.274 175.619 556.969 175.337 557.452 174.771C557.94 174.202 558.188 173.386 558.197 172.324V171.771C558.197 170.69 557.963 169.866 557.493 169.296C557.024 168.726 556.342 168.441 555.449 168.441H554.239ZM567.474 172.557H563.386V175.619H568.164V177H561.656V167.047H568.116V168.441H563.386V171.189H567.474V172.557ZM573.229 173.165H571.302V177H569.572V167.047H573.072C574.221 167.047 575.107 167.304 575.731 167.819C576.356 168.334 576.668 169.079 576.668 170.055C576.668 170.72 576.506 171.278 576.183 171.729C575.864 172.176 575.417 172.52 574.843 172.762L577.078 176.911V177H575.226L573.229 173.165ZM571.302 171.777H573.079C573.662 171.777 574.118 171.632 574.446 171.34C574.774 171.044 574.938 170.64 574.938 170.13C574.938 169.597 574.786 169.184 574.48 168.893C574.18 168.601 573.729 168.451 573.127 168.441H571.302V171.777ZM583.511 174.437C583.511 173.999 583.356 173.662 583.046 173.425C582.741 173.188 582.187 172.949 581.385 172.707C580.583 172.465 579.945 172.197 579.471 171.9C578.564 171.331 578.11 170.588 578.11 169.672C578.11 168.87 578.436 168.209 579.088 167.689C579.744 167.17 580.594 166.91 581.638 166.91C582.33 166.91 582.948 167.038 583.49 167.293C584.033 167.548 584.459 167.913 584.769 168.387C585.078 168.856 585.233 169.378 585.233 169.952H583.511C583.511 169.433 583.347 169.027 583.019 168.735C582.695 168.439 582.23 168.291 581.624 168.291C581.059 168.291 580.619 168.412 580.305 168.653C579.995 168.895 579.84 169.232 579.84 169.665C579.84 170.03 580.008 170.335 580.346 170.581C580.683 170.823 581.239 171.06 582.014 171.292C582.788 171.52 583.41 171.782 583.88 172.078C584.349 172.37 584.693 172.707 584.912 173.09C585.131 173.468 585.24 173.912 585.24 174.423C585.24 175.252 584.921 175.913 584.283 176.405C583.65 176.893 582.788 177.137 581.699 177.137C580.979 177.137 580.316 177.005 579.71 176.74C579.108 176.471 578.639 176.102 578.302 175.633C577.969 175.163 577.803 174.617 577.803 173.992H579.532C579.532 174.557 579.719 174.995 580.093 175.305C580.466 175.615 581.002 175.77 581.699 175.77C582.301 175.77 582.752 175.649 583.053 175.407C583.358 175.161 583.511 174.838 583.511 174.437Z" fill="#A2A2A2"/>
<path d="M258 197V311H422" stroke="#79808D"/>
<path d="M456 197V311H620" stroke="#79808D"/>
<rect x="263" y="276" width="10" height="35" fill="#81A332"/>
<rect width="10" height="35" transform="matrix(-1 0 0 1 615 276)" fill="#81A332"/>
<rect x="299" y="276" width="10" height="35" fill="#81A332"/>
<rect width="10" height="35" transform="matrix(-1 0 0 1 579 276)" fill="#81A332"/>
<rect x="317" y="276" width="10" height="35" fill="#81A332"/>
<rect width="10" height="35" transform="matrix(-1 0 0 1 561 276)" fill="#81A332"/>
<rect x="335" y="276" width="10" height="35" fill="#81A332"/>
<rect width="10" height="35" transform="matrix(-1 0 0 1 543 276)" fill="#81A332"/>
<rect x="335" y="241" width="10" height="35" fill="#81A332"/>
<rect width="10" height="35" transform="matrix(-1 0 0 1 543 241)" fill="#81A332"/>
<rect x="353" y="276" width="10" height="35" fill="#941759"/>
<rect width="10" height="35" transform="matrix(-1 0 0 1 525 276)" fill="#941759"/>
<rect x="371" y="276" width="10" height="35" fill="#81A332"/>
<rect width="10" height="35" transform="matrix(-1 0 0 1 507 276)" fill="#81A332"/>
<rect x="389" y="276" width="10" height="35" fill="#941759"/>
<rect width="10" height="35" transform="matrix(-1 0 0 1 489 276)" fill="#941759"/>
<rect x="407" y="276" width="10" height="35" fill="#81A332"/>
<rect width="10" height="35" transform="matrix(-1 0 0 1 471 276)" fill="#81A332"/>
<rect x="299" y="241" width="10" height="35" fill="#941759"/>
<rect width="10" height="35" transform="matrix(-1 0 0 1 579 241)" fill="#941759"/>
<rect x="407" y="241" width="10" height="35" fill="#941759"/>
<rect width="10" height="35" transform="matrix(-1 0 0 1 471 241)" fill="#941759"/>
<path d="M258 279.5L271.499 284.9C272.475 285.29 273.549 285.363 274.568 285.108L289.173 281.457C290.351 281.162 291.381 280.45 292.072 279.452L307.302 257.453C308.348 255.942 310.139 255.127 311.965 255.329L325.357 256.817C326.424 256.936 327.501 256.708 328.428 256.167L342.726 247.826C344.149 246.996 345.89 246.92 347.38 247.624L362.181 254.613C362.723 254.869 363.214 255.22 363.631 255.649L376.734 269.127C378.765 271.216 382.145 271.133 384.071 268.946L396.929 254.351C398.196 252.913 400.173 252.326 402.019 252.839L417 257" stroke="#3498DB" stroke-width="2"/>
<path d="M456 253.5L467.106 257.943C469.358 258.843 471.932 257.998 473.212 255.937L485.1 236.783C486.967 233.775 491.282 233.606 493.378 236.459L504.731 251.911C506.069 253.733 508.465 254.43 510.572 253.611L522.873 248.827C524.224 248.302 525.737 248.389 527.019 249.065L539.469 255.636C541.534 256.726 544.079 256.241 545.599 254.468L559.867 237.822C560.601 236.966 561.602 236.383 562.709 236.168L575.891 233.604C577.789 233.235 579.73 233.994 580.875 235.552L594.226 253.725C595.787 255.848 598.727 256.397 600.948 254.978L615 246" stroke="#3498DB" stroke-width="2"/>
</g>
</g>
<defs>
<filter id="filter0_ddd" x="0" y="0" width="744" height="521" filterUnits="userSpaceOnUse" color-interpolation-filters="sRGB">
<feFlood flood-opacity="0" result="BackgroundImageFix"/>
<feColorMatrix in="SourceAlpha" type="matrix" values="0 0 0 0 0 0 0 0 0 0 0 0 0 0 0 0 0 0 127 0"/>
<feOffset dy="6"/>
<feGaussianBlur stdDeviation="2"/>
<feColorMatrix type="matrix" values="0 0 0 0 0 0 0 0 0 0 0 0 0 0 0 0 0 0 0.03 0"/>
<feBlend mode="normal" in2="BackgroundImageFix" result="effect1_dropShadow"/>
<feColorMatrix in="SourceAlpha" type="matrix" values="0 0 0 0 0 0 0 0 0 0 0 0 0 0 0 0 0 0 127 0"/>
<feOffset dy="22"/>
<feGaussianBlur stdDeviation="12"/>
<feColorMatrix type="matrix" values="0 0 0 0 0 0 0 0 0 0 0 0 0 0 0 0 0 0 0.04 0"/>
<feBlend mode="normal" in2="effect1_dropShadow" result="effect2_dropShadow"/>
<feColorMatrix in="SourceAlpha" type="matrix" values="0 0 0 0 0 0 0 0 0 0 0 0 0 0 0 0 0 0 127 0"/>
<feOffset dy="62"/>
<feGaussianBlur stdDeviation="40"/>
<feColorMatrix type="matrix" values="0 0 0 0 0 0 0 0 0 0 0 0 0 0 0 0 0 0 0.07 0"/>
<feBlend mode="normal" in2="effect2_dropShadow" result="effect3_dropShadow"/>
<feBlend mode="normal" in="SourceGraphic" in2="effect3_dropShadow" result="shape"/>
</filter>
<clipPath id="clip0">
<rect x="80" y="18" width="584" height="361" rx="8" fill="white"/>
</clipPath>
</defs>
</svg>
