<svg width="885" height="558" viewBox="0 0 885 558" fill="none" xmlns="http://www.w3.org/2000/svg">
<path fill-rule="evenodd" clip-rule="evenodd" d="M95.8557 114.561C154.93 66.3657 250.227 63.7814 333.198 43.2283C406.016 25.1902 475.235 -8.25077 550.783 1.86846C627.492 12.1431 685.474 55.7103 739.662 97.6716C795.804 141.146 848.163 187.972 867.017 246.749C887.734 311.337 899.944 385.977 849.67 440.635C800.14 494.485 699.14 497.856 616.523 519.09C542.493 538.117 471.651 559.544 393.376 557.912C300.538 555.976 201.068 553.303 129.487 508.934C53.1806 461.635 6.99402 388.477 0.68543 314.501C-5.49011 242.086 30.371 167.985 95.8557 114.561Z" fill="#9FBD55"/>
</svg>
