<svg width="102" height="18" viewBox="0 0 102 18" fill="none" xmlns="http://www.w3.org/2000/svg">
<path d="M51.4714 0.833428C51.4008 0.633606 51.2119 0.5 51 0.5C50.7881 0.5 50.5992 0.633606 50.5286 0.833428L48.6257 6.21885H43C42.7883 6.21885 42.5996 6.35211 42.5288 6.55156C42.458 6.75101 42.5204 6.97345 42.6847 7.10691L47.1577 10.7411L45.52 16.3601C45.4604 16.5645 45.5368 16.7843 45.7104 16.9076C45.884 17.0309 46.1167 17.0308 46.2901 16.9072L51 13.5516L55.7099 16.9072C55.8833 17.0308 56.116 17.0309 56.2896 16.9076C56.4632 16.7843 56.5396 16.5645 56.48 16.3601L54.8423 10.7411L59.3153 7.10691C59.4796 6.97345 59.542 6.75101 59.4712 6.55156C59.4004 6.35211 59.2117 6.21885 59 6.21885H53.3743L51.4714 0.833428Z" fill="url(#paint0_linear)" stroke="#E07E36" stroke-linejoin="round"/>
<path d="M72.4714 0.833428C72.4008 0.633606 72.2119 0.5 72 0.5C71.7881 0.5 71.5992 0.633606 71.5286 0.833428L69.6257 6.21885H64C63.7883 6.21885 63.5996 6.35211 63.5288 6.55156C63.458 6.75101 63.5204 6.97345 63.6847 7.10691L68.1577 10.7411L66.52 16.3601C66.4604 16.5645 66.5368 16.7843 66.7104 16.9076C66.884 17.0309 67.1167 17.0308 67.2901 16.9072L72 13.5516L76.7099 16.9072C76.8833 17.0308 77.116 17.0309 77.2896 16.9076C77.4632 16.7843 77.5396 16.5645 77.48 16.3601L75.8423 10.7411L80.3153 7.10691C80.4796 6.97345 80.542 6.75101 80.4712 6.55156C80.4004 6.35211 80.2117 6.21885 80 6.21885H74.3743L72.4714 0.833428Z" fill="url(#paint1_linear)" stroke="#E07E36" stroke-linejoin="round"/>
<path d="M9.47144 0.833428C9.40083 0.633606 9.21193 0.5 9 0.5C8.78807 0.5 8.59916 0.633606 8.52856 0.833428L6.62574 6.21885H1C0.78835 6.21885 0.599627 6.35211 0.528815 6.55156C0.458003 6.75101 0.520443 6.97345 0.68471 7.10691L5.15765 10.7411L3.51997 16.3601C3.46039 16.5645 3.53683 16.7843 3.71043 16.9076C3.88403 17.0309 4.11669 17.0308 4.29013 16.9072L9 13.5516L13.7099 16.9072C13.8833 17.0308 14.116 17.0309 14.2896 16.9076C14.4632 16.7843 14.5396 16.5645 14.48 16.3601L12.8423 10.7411L17.3153 7.10691C17.4796 6.97345 17.542 6.75101 17.4712 6.55156C17.4004 6.35211 17.2117 6.21885 17 6.21885H11.3743L9.47144 0.833428Z" fill="url(#paint2_linear)" stroke="#E07E36" stroke-linejoin="round"/>
<path d="M93.4714 0.833428C93.4008 0.633606 93.2119 0.5 93 0.5C92.7881 0.5 92.5992 0.633606 92.5286 0.833428L90.6257 6.21885H85C84.7883 6.21885 84.5996 6.35211 84.5288 6.55156C84.458 6.75101 84.5204 6.97345 84.6847 7.10691L89.1577 10.7411L87.52 16.3601C87.4604 16.5645 87.5368 16.7843 87.7104 16.9076C87.884 17.0309 88.1167 17.0308 88.2901 16.9072L93 13.5516L97.7099 16.9072C97.8833 17.0308 98.116 17.0309 98.2896 16.9076C98.4632 16.7843 98.5396 16.5645 98.48 16.3601L96.8423 10.7411L101.315 7.10691C101.48 6.97345 101.542 6.75101 101.471 6.55156C101.4 6.35211 101.212 6.21885 101 6.21885H95.3743L93.4714 0.833428Z" fill="url(#paint3_linear)" stroke="#E07E36" stroke-linejoin="round"/>
<path d="M30.4714 0.833428C30.4008 0.633606 30.2119 0.5 30 0.5C29.7881 0.5 29.5992 0.633606 29.5286 0.833428L27.6257 6.21885H22C21.7883 6.21885 21.5996 6.35211 21.5288 6.55156C21.458 6.75101 21.5204 6.97345 21.6847 7.10691L26.1577 10.7411L24.52 16.3601C24.4604 16.5645 24.5368 16.7843 24.7104 16.9076C24.884 17.0309 25.1167 17.0308 25.2901 16.9072L30 13.5516L34.7099 16.9072C34.8833 17.0308 35.116 17.0309 35.2896 16.9076C35.4632 16.7843 35.5396 16.5645 35.48 16.3601L33.8423 10.7411L38.3153 7.10691C38.4796 6.97345 38.542 6.75101 38.4712 6.55156C38.4004 6.35211 38.2117 6.21885 38 6.21885H32.3743L30.4714 0.833428Z" fill="url(#paint4_linear)" stroke="#E07E36" stroke-linejoin="round"/>
<defs>
<linearGradient id="paint0_linear" x1="51" y1="1" x2="51" y2="16.5" gradientUnits="userSpaceOnUse">
<stop stop-color="#FFE178"/>
<stop offset="1" stop-color="#F7B50D"/>
</linearGradient>
<linearGradient id="paint1_linear" x1="72" y1="1" x2="72" y2="16.5" gradientUnits="userSpaceOnUse">
<stop stop-color="#FFE178"/>
<stop offset="1" stop-color="#F7B50D"/>
</linearGradient>
<linearGradient id="paint2_linear" x1="9" y1="1" x2="9" y2="16.5" gradientUnits="userSpaceOnUse">
<stop stop-color="#FFE178"/>
<stop offset="1" stop-color="#F7B50D"/>
</linearGradient>
<linearGradient id="paint3_linear" x1="93" y1="1" x2="93" y2="16.5" gradientUnits="userSpaceOnUse">
<stop stop-color="#FFE178"/>
<stop offset="1" stop-color="#F7B50D"/>
</linearGradient>
<linearGradient id="paint4_linear" x1="30" y1="1" x2="30" y2="16.5" gradientUnits="userSpaceOnUse">
<stop stop-color="#FFE178"/>
<stop offset="1" stop-color="#F7B50D"/>
</linearGradient>
</defs>
</svg>
