<svg width="200" height="70" viewBox="0 0 200 70" fill="none" xmlns="http://www.w3.org/2000/svg">
<rect width="200" height="70" fill="#34383D"/>
<path d="M55.0703 44.9336H68.5469V48H51.3008V19.5625H55.0703V44.9336ZM93.4102 34.6992C93.4102 37.4857 92.9414 39.9206 92.0039 42.0039C91.0664 44.0742 89.7383 45.6562 88.0195 46.75C86.3008 47.8438 84.2956 48.3906 82.0039 48.3906C79.7643 48.3906 77.7786 47.8438 76.0469 46.75C74.3151 45.6432 72.9674 44.0742 72.0039 42.043C71.0534 39.9987 70.5651 37.6354 70.5391 34.9531V32.9023C70.5391 30.168 71.0143 27.7526 71.9648 25.6562C72.9154 23.5599 74.2565 21.9583 75.9883 20.8516C77.7331 19.7318 79.7253 19.1719 81.9648 19.1719C84.2435 19.1719 86.2487 19.7253 87.9805 20.832C89.7253 21.9258 91.0664 23.5208 92.0039 25.6172C92.9414 27.7005 93.4102 30.1289 93.4102 32.9023V34.6992ZM89.6797 32.8633C89.6797 29.4909 89.0026 26.9062 87.6484 25.1094C86.2943 23.2995 84.3997 22.3945 81.9648 22.3945C79.5951 22.3945 77.7266 23.2995 76.3594 25.1094C75.0052 26.9062 74.3086 29.4062 74.2695 32.6094V34.6992C74.2695 37.9674 74.9531 40.5391 76.3203 42.4141C77.7005 44.276 79.5951 45.207 82.0039 45.207C84.4258 45.207 86.3008 44.3281 87.6289 42.5703C88.957 40.7995 89.6406 38.2669 89.6797 34.9727V32.8633ZM120.031 44.2695C119.068 45.6497 117.72 46.6849 115.988 47.375C114.27 48.0521 112.264 48.3906 109.973 48.3906C107.655 48.3906 105.598 47.8503 103.801 46.7695C102.004 45.6758 100.611 44.1263 99.6211 42.1211C98.6445 40.1159 98.1432 37.7917 98.1172 35.1484V32.668C98.1172 28.3841 99.1133 25.0638 101.105 22.707C103.111 20.3503 105.923 19.1719 109.543 19.1719C112.512 19.1719 114.901 19.9336 116.711 21.457C118.521 22.9674 119.628 25.1159 120.031 27.9023H116.281C115.578 24.1393 113.339 22.2578 109.562 22.2578C107.049 22.2578 105.142 23.1432 103.84 24.9141C102.551 26.6719 101.9 29.224 101.887 32.5703V34.8945C101.887 38.0846 102.616 40.6237 104.074 42.5117C105.533 44.3867 107.505 45.3242 109.992 45.3242C111.398 45.3242 112.629 45.168 113.684 44.8555C114.738 44.543 115.611 44.0156 116.301 43.2734V36.8867H109.719V33.8398H120.031V44.2695ZM148.176 34.6992C148.176 37.4857 147.707 39.9206 146.77 42.0039C145.832 44.0742 144.504 45.6562 142.785 46.75C141.066 47.8438 139.061 48.3906 136.77 48.3906C134.53 48.3906 132.544 47.8438 130.812 46.75C129.081 45.6432 127.733 44.0742 126.77 42.043C125.819 39.9987 125.331 37.6354 125.305 34.9531V32.9023C125.305 30.168 125.78 27.7526 126.73 25.6562C127.681 23.5599 129.022 21.9583 130.754 20.8516C132.499 19.7318 134.491 19.1719 136.73 19.1719C139.009 19.1719 141.014 19.7253 142.746 20.832C144.491 21.9258 145.832 23.5208 146.77 25.6172C147.707 27.7005 148.176 30.1289 148.176 32.9023V34.6992ZM144.445 32.8633C144.445 29.4909 143.768 26.9062 142.414 25.1094C141.06 23.2995 139.165 22.3945 136.73 22.3945C134.361 22.3945 132.492 23.2995 131.125 25.1094C129.771 26.9062 129.074 29.4062 129.035 32.6094V34.6992C129.035 37.9674 129.719 40.5391 131.086 42.4141C132.466 44.276 134.361 45.207 136.77 45.207C139.191 45.207 141.066 44.3281 142.395 42.5703C143.723 40.7995 144.406 38.2669 144.445 34.9727V32.8633Z" fill="white"/>
</svg>
