<svg width="150" height="150" viewBox="0 0 150 150" fill="none" xmlns="http://www.w3.org/2000/svg">
<path d="M42.1875 58.5938H14.0625C12.8204 58.5975 11.6303 59.0925 10.752 59.9708C9.87376 60.8491 9.37871 62.0392 9.375 63.2812V133.594C9.37871 134.836 9.87376 136.026 10.752 136.904C11.6303 137.782 12.8204 138.278 14.0625 138.281H42.1875C43.4296 138.278 44.6197 137.782 45.498 136.904C46.3762 136.026 46.8713 134.836 46.875 133.594V63.2812C46.8713 62.0392 46.3762 60.8491 45.498 59.9708C44.6197 59.0925 43.4296 58.5975 42.1875 58.5938Z" fill="#F7F3E1"/>
<path d="M89.0625 58.5938H60.9375C59.6954 58.5975 58.5053 59.0925 57.627 59.9708C56.7488 60.8491 56.2537 62.0392 56.25 63.2812V133.594C56.2537 134.836 56.7488 136.026 57.627 136.904C58.5053 137.782 59.6954 138.278 60.9375 138.281H89.0625C90.3046 138.278 91.4947 137.782 92.373 136.904C93.2512 136.026 93.7463 134.836 93.75 133.594V63.2812C93.7463 62.0392 93.2512 60.8491 92.373 59.9708C91.4947 59.0925 90.3046 58.5975 89.0625 58.5938Z" fill="#F7F3E1"/>
<path d="M135.938 58.5938H107.812C106.57 58.5975 105.38 59.0925 104.502 59.9708C103.624 60.8491 103.129 62.0392 103.125 63.2812V133.594C103.129 134.836 103.624 136.026 104.502 136.904C105.38 137.782 106.57 138.278 107.812 138.281H135.938C137.18 138.278 138.37 137.782 139.248 136.904C140.126 136.026 140.621 134.836 140.625 133.594V63.2812C140.621 62.0392 140.126 60.8491 139.248 59.9708C138.37 59.0925 137.18 58.5975 135.938 58.5938Z" fill="#F7F3E1"/>
<path d="M138.281 2.34375H11.7188C6.54108 2.34375 2.34375 6.54108 2.34375 11.7188V39.8438C2.34375 45.0214 6.54108 49.2188 11.7188 49.2188H138.281C143.459 49.2188 147.656 45.0214 147.656 39.8438V11.7188C147.656 6.54108 143.459 2.34375 138.281 2.34375Z" fill="#FFFCED"/>
<path d="M138.281 2.34375H11.7188C9.23235 2.34375 6.84778 3.33147 5.08962 5.08962C3.33147 6.84778 2.34375 9.23235 2.34375 11.7188V21.0938C2.34375 18.6073 3.33147 16.2228 5.08962 14.4646C6.84778 12.7065 9.23235 11.7188 11.7188 11.7188H138.281C140.768 11.7188 143.152 12.7065 144.91 14.4646C146.669 16.2228 147.656 18.6073 147.656 21.0938V11.7188C147.656 9.23235 146.669 6.84778 144.91 5.08962C143.152 3.33147 140.768 2.34375 138.281 2.34375Z" fill="#F0EBD7"/>
<path d="M11.7188 49.2188H138.281C140.768 49.2188 143.152 48.231 144.91 46.4729C146.669 44.7147 147.656 42.3302 147.656 39.8438V30.4688C147.656 32.9552 146.669 35.3397 144.91 37.0979C143.152 38.856 140.768 39.8438 138.281 39.8438H11.7188C9.23235 39.8438 6.84778 38.856 5.08962 37.0979C3.33147 35.3397 2.34375 32.9552 2.34375 30.4688V39.8438C2.34375 42.3302 3.33147 44.7147 5.08962 46.4729C6.84778 48.231 9.23235 49.2188 11.7188 49.2188Z" fill="#F0EBD7"/>
<path d="M9.375 63.2812V133.594C9.37871 134.836 9.87376 136.026 10.752 136.904C11.6303 137.782 12.8204 138.278 14.0625 138.281H42.1875C43.4296 138.278 44.6197 137.782 45.498 136.904C46.3762 136.026 46.8713 134.836 46.875 133.594V63.2812C46.8713 62.0392 46.3762 60.8491 45.498 59.9708C44.6197 59.0925 43.4296 58.5975 42.1875 58.5938H14.0625C12.8204 58.5975 11.6303 59.0925 10.752 59.9708C9.87376 60.8491 9.37871 62.0392 9.375 63.2812ZM140.625 133.594V63.2812C140.621 62.0392 140.126 60.8491 139.248 59.9708C138.37 59.0925 137.18 58.5975 135.938 58.5938H107.812C106.57 58.5975 105.38 59.0925 104.502 59.9708C103.624 60.8491 103.129 62.0392 103.125 63.2812V133.594C103.129 134.836 103.624 136.026 104.502 136.904C105.38 137.782 106.57 138.278 107.812 138.281H135.938C137.18 138.278 138.37 137.782 139.248 136.904C140.126 136.026 140.621 134.836 140.625 133.594ZM147.656 58.5938V138.281C147.656 140.768 146.669 143.152 144.91 144.91C143.152 146.669 140.768 147.656 138.281 147.656H11.7188C9.23235 147.656 6.84778 146.669 5.08962 144.91C3.33147 143.152 2.34375 140.768 2.34375 138.281V58.5938C2.34375 56.1073 3.33147 53.7228 5.08962 51.9646C6.84778 50.2065 9.23235 49.2187 11.7188 49.2188H138.281C140.768 49.2188 143.152 50.2065 144.91 51.9646C146.669 53.7228 147.656 56.1073 147.656 58.5938ZM93.75 133.594V63.2812C93.7463 62.0392 93.2512 60.8491 92.373 59.9708C91.4947 59.0925 90.3046 58.5975 89.0625 58.5938H60.9375C59.6954 58.5975 58.5053 59.0925 57.627 59.9708C56.7488 60.8491 56.2537 62.0392 56.25 63.2812V133.594C56.2537 134.836 56.7488 136.026 57.627 136.904C58.5053 137.782 59.6954 138.278 60.9375 138.281H89.0625C90.3046 138.278 91.4947 137.782 92.373 136.904C93.2512 136.026 93.7463 134.836 93.75 133.594Z" fill="#D1013E"/>
<path d="M138.281 2.34375H11.7188C9.23235 2.34375 6.84778 3.33147 5.08962 5.08962C3.33147 6.84778 2.34375 9.23235 2.34375 11.7188V39.8438C2.34375 42.3302 3.33147 44.7147 5.08962 46.4729C6.84778 48.231 9.23235 49.2188 11.7188 49.2188H138.281C140.768 49.2188 143.152 48.231 144.91 46.4729C146.669 44.7147 147.656 42.3302 147.656 39.8438V11.7188C147.656 9.23235 146.669 6.84778 144.91 5.08962C143.152 3.33147 140.768 2.34375 138.281 2.34375ZM142.969 39.8438C142.969 41.087 142.475 42.2792 141.596 43.1583C140.717 44.0374 139.524 44.5312 138.281 44.5312H11.7188C10.4755 44.5312 9.28326 44.0374 8.40419 43.1583C7.52511 42.2792 7.03125 41.087 7.03125 39.8438V11.7188C7.03125 10.4755 7.52511 9.28326 8.40419 8.40419C9.28326 7.52511 10.4755 7.03125 11.7188 7.03125H138.281C139.524 7.03125 140.717 7.52511 141.596 8.40419C142.475 9.28326 142.969 10.4755 142.969 11.7188V39.8438Z" fill="#D1013E"/>
<path d="M145.312 14.0625C146.607 14.0625 147.656 13.0132 147.656 11.7188C147.656 10.4243 146.607 9.375 145.312 9.375C144.018 9.375 142.969 10.4243 142.969 11.7188C142.969 13.0132 144.018 14.0625 145.312 14.0625Z" fill="#FF9C00"/>
<path d="M145.312 21.0938C146.607 21.0938 147.656 20.0444 147.656 18.75C147.656 17.4556 146.607 16.4062 145.312 16.4062C144.018 16.4062 142.969 17.4556 142.969 18.75C142.969 20.0444 144.018 21.0938 145.312 21.0938Z" fill="#FF9C00"/>
<path d="M145.312 28.125C146.607 28.125 147.656 27.0757 147.656 25.7812C147.656 24.4868 146.607 23.4375 145.312 23.4375C144.018 23.4375 142.969 24.4868 142.969 25.7812C142.969 27.0757 144.018 28.125 145.312 28.125Z" fill="#FF9C00"/>
<path d="M145.312 35.1562C146.607 35.1562 147.656 34.1069 147.656 32.8125C147.656 31.5181 146.607 30.4688 145.312 30.4688C144.018 30.4688 142.969 31.5181 142.969 32.8125C142.969 34.1069 144.018 35.1562 145.312 35.1562Z" fill="#FF9C00"/>
<path d="M145.312 42.1875C146.607 42.1875 147.656 41.1382 147.656 39.8438C147.656 38.5493 146.607 37.5 145.312 37.5C144.018 37.5 142.969 38.5493 142.969 39.8438C142.969 41.1382 144.018 42.1875 145.312 42.1875Z" fill="#FF9C00"/>
<path d="M4.6875 14.0625C5.98192 14.0625 7.03125 13.0132 7.03125 11.7188C7.03125 10.4243 5.98192 9.375 4.6875 9.375C3.39308 9.375 2.34375 10.4243 2.34375 11.7188C2.34375 13.0132 3.39308 14.0625 4.6875 14.0625Z" fill="#FF9C00"/>
<path d="M4.6875 21.0938C5.98192 21.0938 7.03125 20.0444 7.03125 18.75C7.03125 17.4556 5.98192 16.4062 4.6875 16.4062C3.39308 16.4062 2.34375 17.4556 2.34375 18.75C2.34375 20.0444 3.39308 21.0938 4.6875 21.0938Z" fill="#FF9C00"/>
<path d="M4.6875 28.125C5.98192 28.125 7.03125 27.0757 7.03125 25.7812C7.03125 24.4868 5.98192 23.4375 4.6875 23.4375C3.39308 23.4375 2.34375 24.4868 2.34375 25.7812C2.34375 27.0757 3.39308 28.125 4.6875 28.125Z" fill="#FF9C00"/>
<path d="M4.6875 35.1562C5.98192 35.1562 7.03125 34.1069 7.03125 32.8125C7.03125 31.5181 5.98192 30.4688 4.6875 30.4688C3.39308 30.4688 2.34375 31.5181 2.34375 32.8125C2.34375 34.1069 3.39308 35.1562 4.6875 35.1562Z" fill="#FF9C00"/>
<path d="M4.6875 42.1875C5.98192 42.1875 7.03125 41.1382 7.03125 39.8438C7.03125 38.5493 5.98192 37.5 4.6875 37.5C3.39308 37.5 2.34375 38.5493 2.34375 39.8438C2.34375 41.1382 3.39308 42.1875 4.6875 42.1875Z" fill="#FF9C00"/>
<path d="M24.6094 14.0625C24.6094 13.4409 24.3624 12.8448 23.9229 12.4052C23.4834 11.9657 22.8872 11.7188 22.2656 11.7188H17.5781V16.4062H19.9219V31.6406C19.9219 32.1023 19.8309 32.5595 19.6543 32.986C19.4776 33.4125 19.2186 33.8001 18.8922 34.1265C18.5657 34.453 18.1782 34.712 17.7516 34.8886C17.3251 35.0653 16.8679 35.1562 16.4062 35.1562C15.9446 35.1562 15.4874 35.0653 15.0609 34.8886C14.6343 34.712 14.2468 34.453 13.9203 34.1265C13.5939 33.8001 13.3349 33.4125 13.1582 32.986C12.9816 32.5595 12.8906 32.1023 12.8906 31.6406V25.7812H8.20312V31.6406C8.20313 33.8162 9.06738 35.9027 10.6058 37.4411C12.1441 38.9795 14.2306 39.8438 16.4062 39.8438C18.5819 39.8438 20.6684 38.9795 22.2067 37.4411C23.7451 35.9027 24.6094 33.8162 24.6094 31.6406V14.0625Z" fill="#D1013E"/>
<path d="M54.4897 15.8367C52.5284 17.8072 51.1945 20.3142 50.6563 23.0418C50.118 25.7693 50.3994 28.5952 51.4651 31.163C52.5308 33.7308 54.333 35.9255 56.6444 37.4704C58.9558 39.0153 61.6729 39.8411 64.453 39.8438H66.7968V35.1563H64.453C61.9666 35.1563 59.582 34.1685 57.8239 32.4104C56.0657 30.6522 55.078 28.2677 55.078 25.7813C55.078 23.2949 56.0657 20.9103 57.8239 19.1521C59.582 17.394 61.9666 16.4063 64.453 16.4063H66.7968V11.7188H64.453C62.6032 11.7167 60.771 12.0794 59.0614 12.786C57.3519 13.4926 55.7983 14.5292 54.4897 15.8367Z" fill="#D1013E"/>
<path d="M80.8594 15.2812L73.8281 20.9062V11.7188H69.1406V39.8438H73.8281V30.6562L80.8594 36.2812V39.8438H85.5469V35.1562C85.547 34.8048 85.4681 34.4577 85.3159 34.1409C85.1638 33.824 84.9423 33.5455 84.668 33.3258L75.2344 25.7812L84.6656 18.2367C84.9404 18.0173 85.1623 17.7388 85.3149 17.4219C85.4674 17.1051 85.5467 16.7579 85.5469 16.4062V11.7188H80.8594V15.2812Z" fill="#D1013E"/>
<path d="M98.4375 11.7188H90.2344C89.6128 11.7188 89.0166 11.9657 88.5771 12.4052C88.1376 12.8448 87.8906 13.4409 87.8906 14.0625V39.8438H92.5781V28.125H98.4375C100.613 28.125 102.7 27.2607 104.238 25.7224C105.776 24.184 106.641 22.0975 106.641 19.9219C106.641 17.7463 105.776 15.6598 104.238 14.1214C102.7 12.583 100.613 11.7188 98.4375 11.7188ZM100.929 22.4133C100.602 22.7403 100.214 22.9993 99.7859 23.1751C99.3582 23.3509 98.8999 23.4401 98.4375 23.4375H92.5781V16.4062H98.4375C99.1344 16.4041 99.8163 16.6091 100.396 16.9952C100.977 17.3814 101.429 17.9313 101.696 18.575C101.963 19.2188 102.033 19.9273 101.896 20.6108C101.759 21.2942 101.423 21.9216 100.929 22.4133Z" fill="#D1013E"/>
<path d="M118.359 11.7188C115.873 11.7188 113.488 12.7065 111.73 14.4646C109.972 16.2228 108.984 18.6073 108.984 21.0938V30.4688C108.984 32.9552 109.972 35.3397 111.73 37.0979C113.488 38.856 115.873 39.8438 118.359 39.8438C120.846 39.8438 123.23 38.856 124.988 37.0979C126.747 35.3397 127.734 32.9552 127.734 30.4688V21.0938C127.734 18.6073 126.747 16.2228 124.988 14.4646C123.23 12.7065 120.846 11.7188 118.359 11.7188ZM123.047 30.4688C123.047 31.712 122.553 32.9042 121.674 33.7833C120.795 34.6624 119.603 35.1562 118.359 35.1562C117.116 35.1562 115.924 34.6624 115.045 33.7833C114.166 32.9042 113.672 31.712 113.672 30.4688V21.0938C113.672 19.8505 114.166 18.6583 115.045 17.7792C115.924 16.9001 117.116 16.4062 118.359 16.4062C119.603 16.4062 120.795 16.9001 121.674 17.7792C122.553 18.6583 123.047 19.8505 123.047 21.0938V30.4688Z" fill="#D1013E"/>
<path d="M141.797 11.7188H127.734V16.4062H132.422V39.8438H137.109V16.4062H141.797V11.7188Z" fill="#D1013E"/>
<path d="M43.2609 13.3898C43.1162 12.9068 42.8196 12.4834 42.4151 12.1823C42.0106 11.8813 41.5198 11.7187 41.0156 11.7188H36.3281C35.8239 11.7187 35.3331 11.8813 34.9286 12.1823C34.5241 12.4834 34.2275 12.9068 34.0828 13.3898L27.5531 35.1562H24.6094V39.8438H33.9844V35.1562H32.4469L33.8531 30.4688H43.4906L44.8969 35.1562H43.3594V39.8438H52.7344V35.1562H49.7906L43.2609 13.3898ZM35.2594 25.7812L38.0719 16.4062H39.2719L42.0844 25.7812H35.2594Z" fill="#D1013E"/>
<path d="M135.938 58.5938H107.812C106.57 58.5975 105.38 59.0925 104.502 59.9708C103.624 60.8491 103.129 62.0392 103.125 63.2812V70.3125C103.129 69.0704 103.624 67.8803 104.502 67.002C105.38 66.1238 106.57 65.6287 107.812 65.625H135.938C137.18 65.6287 138.37 66.1238 139.248 67.002C140.126 67.8803 140.621 69.0704 140.625 70.3125V63.2812C140.621 62.0392 140.126 60.8491 139.248 59.9708C138.37 59.0925 137.18 58.5975 135.938 58.5938Z" fill="#D9D4C2"/>
<path d="M135.938 131.25H107.812C106.57 131.246 105.38 130.751 104.502 129.873C103.624 128.995 103.129 127.805 103.125 126.562V133.594C103.129 134.836 103.624 136.026 104.502 136.904C105.38 137.782 106.57 138.278 107.812 138.281H135.938C137.18 138.278 138.37 137.782 139.248 136.904C140.126 136.026 140.621 134.836 140.625 133.594V126.562C140.621 127.805 140.126 128.995 139.248 129.873C138.37 130.751 137.18 131.246 135.938 131.25Z" fill="#D9D4C2"/>
<path d="M89.0625 58.5938H60.9375C59.6954 58.5975 58.5053 59.0925 57.627 59.9708C56.7488 60.8491 56.2537 62.0392 56.25 63.2812V70.3125C56.2537 69.0704 56.7488 67.8803 57.627 67.002C58.5053 66.1238 59.6954 65.6287 60.9375 65.625H89.0625C90.3046 65.6287 91.4947 66.1238 92.373 67.002C93.2512 67.8803 93.7463 69.0704 93.75 70.3125V63.2812C93.7463 62.0392 93.2512 60.8491 92.373 59.9708C91.4947 59.0925 90.3046 58.5975 89.0625 58.5938Z" fill="#D9D4C2"/>
<path d="M89.0625 131.25H60.9375C59.6954 131.246 58.5053 130.751 57.627 129.873C56.7488 128.995 56.2537 127.805 56.25 126.562V133.594C56.2537 134.836 56.7488 136.026 57.627 136.904C58.5053 137.782 59.6954 138.278 60.9375 138.281H89.0625C90.3046 138.278 91.4947 137.782 92.373 136.904C93.2512 136.026 93.7463 134.836 93.75 133.594V126.562C93.7463 127.805 93.2512 128.995 92.373 129.873C91.4947 130.751 90.3046 131.246 89.0625 131.25Z" fill="#D9D4C2"/>
<path d="M42.1875 58.5938H14.0625C12.8204 58.5975 11.6303 59.0925 10.752 59.9708C9.87376 60.8491 9.37871 62.0392 9.375 63.2812V70.3125C9.37871 69.0704 9.87376 67.8803 10.752 67.002C11.6303 66.1238 12.8204 65.6287 14.0625 65.625H42.1875C43.4296 65.6287 44.6197 66.1238 45.498 67.002C46.3762 67.8803 46.8713 69.0704 46.875 70.3125V63.2812C46.8713 62.0392 46.3762 60.8491 45.498 59.9708C44.6197 59.0925 43.4296 58.5975 42.1875 58.5938Z" fill="#D9D4C2"/>
<path d="M42.1875 131.25H14.0625C12.8204 131.246 11.6303 130.751 10.752 129.873C9.87376 128.995 9.37871 127.805 9.375 126.562V133.594C9.37871 134.836 9.87376 136.026 10.752 136.904C11.6303 137.782 12.8204 138.278 14.0625 138.281H42.1875C43.4296 138.278 44.6197 137.782 45.498 136.904C46.3762 136.026 46.8713 134.836 46.875 133.594V126.562C46.8713 127.805 46.3762 128.995 45.498 129.873C44.6197 130.751 43.4296 131.246 42.1875 131.25Z" fill="#D9D4C2"/>
<path d="M135.938 44.5312H14.0625C12.7681 44.5312 11.7188 45.5806 11.7188 46.875C11.7188 48.1694 12.7681 49.2188 14.0625 49.2188H135.938C137.232 49.2188 138.281 48.1694 138.281 46.875C138.281 45.5806 137.232 44.5312 135.938 44.5312Z" fill="#A80132"/>
<path d="M15.2344 7.03125C16.5288 7.03125 17.5781 5.98192 17.5781 4.6875C17.5781 3.39308 16.5288 2.34375 15.2344 2.34375C13.94 2.34375 12.8906 3.39308 12.8906 4.6875C12.8906 5.98192 13.94 7.03125 15.2344 7.03125Z" fill="#FF9C00"/>
<path d="M22.2656 7.03125C23.56 7.03125 24.6094 5.98192 24.6094 4.6875C24.6094 3.39308 23.56 2.34375 22.2656 2.34375C20.9712 2.34375 19.9219 3.39308 19.9219 4.6875C19.9219 5.98192 20.9712 7.03125 22.2656 7.03125Z" fill="#FF9C00"/>
<path d="M29.2969 7.03125C30.5913 7.03125 31.6406 5.98192 31.6406 4.6875C31.6406 3.39308 30.5913 2.34375 29.2969 2.34375C28.0025 2.34375 26.9531 3.39308 26.9531 4.6875C26.9531 5.98192 28.0025 7.03125 29.2969 7.03125Z" fill="#FF9C00"/>
<path d="M36.3281 7.03125C37.6225 7.03125 38.6719 5.98192 38.6719 4.6875C38.6719 3.39308 37.6225 2.34375 36.3281 2.34375C35.0337 2.34375 33.9844 3.39308 33.9844 4.6875C33.9844 5.98192 35.0337 7.03125 36.3281 7.03125Z" fill="#FF9C00"/>
<path d="M43.3594 7.03125C44.6538 7.03125 45.7031 5.98192 45.7031 4.6875C45.7031 3.39308 44.6538 2.34375 43.3594 2.34375C42.065 2.34375 41.0156 3.39308 41.0156 4.6875C41.0156 5.98192 42.065 7.03125 43.3594 7.03125Z" fill="#FF9C00"/>
<path d="M50.3906 7.03125C51.685 7.03125 52.7344 5.98192 52.7344 4.6875C52.7344 3.39308 51.685 2.34375 50.3906 2.34375C49.0962 2.34375 48.0469 3.39308 48.0469 4.6875C48.0469 5.98192 49.0962 7.03125 50.3906 7.03125Z" fill="#FF9C00"/>
<path d="M57.4219 7.03125C58.7163 7.03125 59.7656 5.98192 59.7656 4.6875C59.7656 3.39308 58.7163 2.34375 57.4219 2.34375C56.1275 2.34375 55.0781 3.39308 55.0781 4.6875C55.0781 5.98192 56.1275 7.03125 57.4219 7.03125Z" fill="#FF9C00"/>
<path d="M64.4531 7.03125C65.7475 7.03125 66.7969 5.98192 66.7969 4.6875C66.7969 3.39308 65.7475 2.34375 64.4531 2.34375C63.1587 2.34375 62.1094 3.39308 62.1094 4.6875C62.1094 5.98192 63.1587 7.03125 64.4531 7.03125Z" fill="#FF9C00"/>
<path d="M71.4844 7.03125C72.7788 7.03125 73.8281 5.98192 73.8281 4.6875C73.8281 3.39308 72.7788 2.34375 71.4844 2.34375C70.19 2.34375 69.1406 3.39308 69.1406 4.6875C69.1406 5.98192 70.19 7.03125 71.4844 7.03125Z" fill="#FF9C00"/>
<path d="M78.5156 7.03125C79.81 7.03125 80.8594 5.98192 80.8594 4.6875C80.8594 3.39308 79.81 2.34375 78.5156 2.34375C77.2212 2.34375 76.1719 3.39308 76.1719 4.6875C76.1719 5.98192 77.2212 7.03125 78.5156 7.03125Z" fill="#FF9C00"/>
<path d="M85.5469 7.03125C86.8413 7.03125 87.8906 5.98192 87.8906 4.6875C87.8906 3.39308 86.8413 2.34375 85.5469 2.34375C84.2525 2.34375 83.2031 3.39308 83.2031 4.6875C83.2031 5.98192 84.2525 7.03125 85.5469 7.03125Z" fill="#FF9C00"/>
<path d="M92.5781 7.03125C93.8725 7.03125 94.9219 5.98192 94.9219 4.6875C94.9219 3.39308 93.8725 2.34375 92.5781 2.34375C91.2837 2.34375 90.2344 3.39308 90.2344 4.6875C90.2344 5.98192 91.2837 7.03125 92.5781 7.03125Z" fill="#FF9C00"/>
<path d="M99.6094 7.03125C100.904 7.03125 101.953 5.98192 101.953 4.6875C101.953 3.39308 100.904 2.34375 99.6094 2.34375C98.315 2.34375 97.2656 3.39308 97.2656 4.6875C97.2656 5.98192 98.315 7.03125 99.6094 7.03125Z" fill="#FF9C00"/>
<path d="M106.641 7.03125C107.935 7.03125 108.984 5.98192 108.984 4.6875C108.984 3.39308 107.935 2.34375 106.641 2.34375C105.346 2.34375 104.297 3.39308 104.297 4.6875C104.297 5.98192 105.346 7.03125 106.641 7.03125Z" fill="#FF9C00"/>
<path d="M113.672 7.03125C114.966 7.03125 116.016 5.98192 116.016 4.6875C116.016 3.39308 114.966 2.34375 113.672 2.34375C112.377 2.34375 111.328 3.39308 111.328 4.6875C111.328 5.98192 112.377 7.03125 113.672 7.03125Z" fill="#FF9C00"/>
<path d="M120.703 7.03125C121.998 7.03125 123.047 5.98192 123.047 4.6875C123.047 3.39308 121.998 2.34375 120.703 2.34375C119.409 2.34375 118.359 3.39308 118.359 4.6875C118.359 5.98192 119.409 7.03125 120.703 7.03125Z" fill="#FF9C00"/>
<path d="M127.734 7.03125C129.029 7.03125 130.078 5.98192 130.078 4.6875C130.078 3.39308 129.029 2.34375 127.734 2.34375C126.44 2.34375 125.391 3.39308 125.391 4.6875C125.391 5.98192 126.44 7.03125 127.734 7.03125Z" fill="#FF9C00"/>
<path d="M134.766 7.03125C136.06 7.03125 137.109 5.98192 137.109 4.6875C137.109 3.39308 136.06 2.34375 134.766 2.34375C133.471 2.34375 132.422 3.39308 132.422 4.6875C132.422 5.98192 133.471 7.03125 134.766 7.03125Z" fill="#FF9C00"/>
<path d="M16.4062 49.2188C17.7007 49.2188 18.75 48.1694 18.75 46.875C18.75 45.5806 17.7007 44.5312 16.4062 44.5312C15.1118 44.5312 14.0625 45.5806 14.0625 46.875C14.0625 48.1694 15.1118 49.2188 16.4062 49.2188Z" fill="#FF9C00"/>
<path d="M23.4375 49.2188C24.7319 49.2188 25.7812 48.1694 25.7812 46.875C25.7812 45.5806 24.7319 44.5312 23.4375 44.5312C22.1431 44.5312 21.0938 45.5806 21.0938 46.875C21.0938 48.1694 22.1431 49.2188 23.4375 49.2188Z" fill="#FF9C00"/>
<path d="M30.4688 49.2188C31.7632 49.2188 32.8125 48.1694 32.8125 46.875C32.8125 45.5806 31.7632 44.5312 30.4688 44.5312C29.1743 44.5312 28.125 45.5806 28.125 46.875C28.125 48.1694 29.1743 49.2188 30.4688 49.2188Z" fill="#FF9C00"/>
<path d="M37.5 49.2188C38.7944 49.2188 39.8438 48.1694 39.8438 46.875C39.8438 45.5806 38.7944 44.5312 37.5 44.5312C36.2056 44.5312 35.1562 45.5806 35.1562 46.875C35.1562 48.1694 36.2056 49.2188 37.5 49.2188Z" fill="#FF9C00"/>
<path d="M44.5312 49.2188C45.8257 49.2188 46.875 48.1694 46.875 46.875C46.875 45.5806 45.8257 44.5312 44.5312 44.5312C43.2368 44.5312 42.1875 45.5806 42.1875 46.875C42.1875 48.1694 43.2368 49.2188 44.5312 49.2188Z" fill="#FF9C00"/>
<path d="M51.5625 49.2188C52.8569 49.2188 53.9062 48.1694 53.9062 46.875C53.9062 45.5806 52.8569 44.5312 51.5625 44.5312C50.2681 44.5312 49.2188 45.5806 49.2188 46.875C49.2188 48.1694 50.2681 49.2188 51.5625 49.2188Z" fill="#FF9C00"/>
<path d="M58.5938 49.2188C59.8882 49.2188 60.9375 48.1694 60.9375 46.875C60.9375 45.5806 59.8882 44.5312 58.5938 44.5312C57.2993 44.5312 56.25 45.5806 56.25 46.875C56.25 48.1694 57.2993 49.2188 58.5938 49.2188Z" fill="#FF9C00"/>
<path d="M65.625 49.2188C66.9194 49.2188 67.9688 48.1694 67.9688 46.875C67.9688 45.5806 66.9194 44.5312 65.625 44.5312C64.3306 44.5312 63.2812 45.5806 63.2812 46.875C63.2812 48.1694 64.3306 49.2188 65.625 49.2188Z" fill="#FF9C00"/>
<path d="M72.6562 49.2188C73.9507 49.2188 75 48.1694 75 46.875C75 45.5806 73.9507 44.5312 72.6562 44.5312C71.3618 44.5312 70.3125 45.5806 70.3125 46.875C70.3125 48.1694 71.3618 49.2188 72.6562 49.2188Z" fill="#FF9C00"/>
<path d="M79.6875 49.2188C80.9819 49.2188 82.0312 48.1694 82.0312 46.875C82.0312 45.5806 80.9819 44.5312 79.6875 44.5312C78.3931 44.5312 77.3438 45.5806 77.3438 46.875C77.3438 48.1694 78.3931 49.2188 79.6875 49.2188Z" fill="#FF9C00"/>
<path d="M86.7188 49.2188C88.0132 49.2188 89.0625 48.1694 89.0625 46.875C89.0625 45.5806 88.0132 44.5312 86.7188 44.5312C85.4243 44.5312 84.375 45.5806 84.375 46.875C84.375 48.1694 85.4243 49.2188 86.7188 49.2188Z" fill="#FF9C00"/>
<path d="M93.75 49.2188C95.0444 49.2188 96.0938 48.1694 96.0938 46.875C96.0938 45.5806 95.0444 44.5312 93.75 44.5312C92.4556 44.5312 91.4062 45.5806 91.4062 46.875C91.4062 48.1694 92.4556 49.2188 93.75 49.2188Z" fill="#FF9C00"/>
<path d="M100.781 49.2188C102.076 49.2188 103.125 48.1694 103.125 46.875C103.125 45.5806 102.076 44.5312 100.781 44.5312C99.4868 44.5312 98.4375 45.5806 98.4375 46.875C98.4375 48.1694 99.4868 49.2188 100.781 49.2188Z" fill="#FF9C00"/>
<path d="M107.812 49.2188C109.107 49.2188 110.156 48.1694 110.156 46.875C110.156 45.5806 109.107 44.5312 107.812 44.5312C106.518 44.5312 105.469 45.5806 105.469 46.875C105.469 48.1694 106.518 49.2188 107.812 49.2188Z" fill="#FF9C00"/>
<path d="M114.844 49.2188C116.138 49.2188 117.188 48.1694 117.188 46.875C117.188 45.5806 116.138 44.5312 114.844 44.5312C113.549 44.5312 112.5 45.5806 112.5 46.875C112.5 48.1694 113.549 49.2188 114.844 49.2188Z" fill="#FF9C00"/>
<path d="M121.875 49.2188C123.169 49.2188 124.219 48.1694 124.219 46.875C124.219 45.5806 123.169 44.5312 121.875 44.5312C120.581 44.5312 119.531 45.5806 119.531 46.875C119.531 48.1694 120.581 49.2188 121.875 49.2188Z" fill="#FF9C00"/>
<path d="M128.906 49.2188C130.201 49.2188 131.25 48.1694 131.25 46.875C131.25 45.5806 130.201 44.5312 128.906 44.5312C127.612 44.5312 126.562 45.5806 126.562 46.875C126.562 48.1694 127.612 49.2188 128.906 49.2188Z" fill="#FF9C00"/>
<path d="M135.938 49.2188C137.232 49.2188 138.281 48.1694 138.281 46.875C138.281 45.5806 137.232 44.5312 135.938 44.5312C134.643 44.5312 133.594 45.5806 133.594 46.875C133.594 48.1694 134.643 49.2188 135.938 49.2188Z" fill="#FF9C00"/>
<path d="M138.281 142.969H11.7188C9.23235 142.969 6.84778 141.981 5.08962 140.223C3.33147 138.465 2.34375 136.08 2.34375 133.594V138.281C2.34375 140.768 3.33147 143.152 5.08962 144.91C6.84778 146.669 9.23235 147.656 11.7188 147.656H138.281C140.768 147.656 143.152 146.669 144.91 144.91C146.669 143.152 147.656 140.768 147.656 138.281V133.594C147.656 136.08 146.669 138.465 144.91 140.223C143.152 141.981 140.768 142.969 138.281 142.969Z" fill="#A80132"/>
<path d="M138.281 49.2188H11.7188C9.23235 49.2188 6.84778 50.2065 5.08962 51.9646C3.33147 53.7228 2.34375 56.1073 2.34375 58.5938V63.2812C2.34375 60.7948 3.33147 58.4103 5.08962 56.6521C6.84778 54.894 9.23235 53.9062 11.7188 53.9062H138.281C140.768 53.9062 143.152 54.894 144.91 56.6521C146.669 58.4103 147.656 60.7948 147.656 63.2812V58.5938C147.656 56.1073 146.669 53.7228 144.91 51.9646C143.152 50.2065 140.768 49.2188 138.281 49.2188Z" fill="#FF014C"/>
<path d="M142.969 65.625C144.263 65.625 145.312 64.5757 145.312 63.2812C145.312 61.9868 144.263 60.9375 142.969 60.9375C141.674 60.9375 140.625 61.9868 140.625 63.2812C140.625 64.5757 141.674 65.625 142.969 65.625Z" fill="#FF9C00"/>
<path d="M142.969 72.6562C144.263 72.6562 145.312 71.6069 145.312 70.3125C145.312 69.0181 144.263 67.9688 142.969 67.9688C141.674 67.9688 140.625 69.0181 140.625 70.3125C140.625 71.6069 141.674 72.6562 142.969 72.6562Z" fill="#FF9C00"/>
<path d="M142.969 79.6875C144.263 79.6875 145.312 78.6382 145.312 77.3438C145.312 76.0493 144.263 75 142.969 75C141.674 75 140.625 76.0493 140.625 77.3438C140.625 78.6382 141.674 79.6875 142.969 79.6875Z" fill="#FF9C00"/>
<path d="M142.969 86.7188C144.263 86.7188 145.312 85.6694 145.312 84.375C145.312 83.0806 144.263 82.0312 142.969 82.0312C141.674 82.0312 140.625 83.0806 140.625 84.375C140.625 85.6694 141.674 86.7188 142.969 86.7188Z" fill="#FF9C00"/>
<path d="M142.969 93.75C144.263 93.75 145.312 92.7007 145.312 91.4062C145.312 90.1118 144.263 89.0625 142.969 89.0625C141.674 89.0625 140.625 90.1118 140.625 91.4062C140.625 92.7007 141.674 93.75 142.969 93.75Z" fill="#FF9C00"/>
<path d="M142.969 100.781C144.263 100.781 145.312 99.7319 145.312 98.4375C145.312 97.1431 144.263 96.0938 142.969 96.0938C141.674 96.0938 140.625 97.1431 140.625 98.4375C140.625 99.7319 141.674 100.781 142.969 100.781Z" fill="#FF9C00"/>
<path d="M142.969 107.812C144.263 107.812 145.312 106.763 145.312 105.469C145.312 104.174 144.263 103.125 142.969 103.125C141.674 103.125 140.625 104.174 140.625 105.469C140.625 106.763 141.674 107.812 142.969 107.812Z" fill="#FF9C00"/>
<path d="M142.969 114.844C144.263 114.844 145.312 113.794 145.312 112.5C145.312 111.206 144.263 110.156 142.969 110.156C141.674 110.156 140.625 111.206 140.625 112.5C140.625 113.794 141.674 114.844 142.969 114.844Z" fill="#FF9C00"/>
<path d="M142.969 121.875C144.263 121.875 145.312 120.826 145.312 119.531C145.312 118.237 144.263 117.188 142.969 117.188C141.674 117.188 140.625 118.237 140.625 119.531C140.625 120.826 141.674 121.875 142.969 121.875Z" fill="#FF9C00"/>
<path d="M142.969 128.906C144.263 128.906 145.312 127.857 145.312 126.562C145.312 125.268 144.263 124.219 142.969 124.219C141.674 124.219 140.625 125.268 140.625 126.562C140.625 127.857 141.674 128.906 142.969 128.906Z" fill="#FF9C00"/>
<path d="M142.969 135.938C144.263 135.938 145.312 134.888 145.312 133.594C145.312 132.299 144.263 131.25 142.969 131.25C141.674 131.25 140.625 132.299 140.625 133.594C140.625 134.888 141.674 135.938 142.969 135.938Z" fill="#FF9C00"/>
<path d="M100.781 65.625C102.076 65.625 103.125 64.5757 103.125 63.2812C103.125 61.9868 102.076 60.9375 100.781 60.9375C99.4868 60.9375 98.4375 61.9868 98.4375 63.2812C98.4375 64.5757 99.4868 65.625 100.781 65.625Z" fill="#FF9C00"/>
<path d="M100.781 72.6562C102.076 72.6562 103.125 71.6069 103.125 70.3125C103.125 69.0181 102.076 67.9688 100.781 67.9688C99.4868 67.9688 98.4375 69.0181 98.4375 70.3125C98.4375 71.6069 99.4868 72.6562 100.781 72.6562Z" fill="#FF9C00"/>
<path d="M100.781 79.6875C102.076 79.6875 103.125 78.6382 103.125 77.3438C103.125 76.0493 102.076 75 100.781 75C99.4868 75 98.4375 76.0493 98.4375 77.3438C98.4375 78.6382 99.4868 79.6875 100.781 79.6875Z" fill="#FF9C00"/>
<path d="M100.781 86.7188C102.076 86.7188 103.125 85.6694 103.125 84.375C103.125 83.0806 102.076 82.0312 100.781 82.0312C99.4868 82.0312 98.4375 83.0806 98.4375 84.375C98.4375 85.6694 99.4868 86.7188 100.781 86.7188Z" fill="#FF9C00"/>
<path d="M100.781 93.75C102.076 93.75 103.125 92.7007 103.125 91.4062C103.125 90.1118 102.076 89.0625 100.781 89.0625C99.4868 89.0625 98.4375 90.1118 98.4375 91.4062C98.4375 92.7007 99.4868 93.75 100.781 93.75Z" fill="#FF9C00"/>
<path d="M100.781 100.781C102.076 100.781 103.125 99.7319 103.125 98.4375C103.125 97.1431 102.076 96.0938 100.781 96.0938C99.4868 96.0938 98.4375 97.1431 98.4375 98.4375C98.4375 99.7319 99.4868 100.781 100.781 100.781Z" fill="#FF9C00"/>
<path d="M100.781 107.812C102.076 107.812 103.125 106.763 103.125 105.469C103.125 104.174 102.076 103.125 100.781 103.125C99.4868 103.125 98.4375 104.174 98.4375 105.469C98.4375 106.763 99.4868 107.812 100.781 107.812Z" fill="#FF9C00"/>
<path d="M100.781 114.844C102.076 114.844 103.125 113.794 103.125 112.5C103.125 111.206 102.076 110.156 100.781 110.156C99.4868 110.156 98.4375 111.206 98.4375 112.5C98.4375 113.794 99.4868 114.844 100.781 114.844Z" fill="#FF9C00"/>
<path d="M100.781 121.875C102.076 121.875 103.125 120.826 103.125 119.531C103.125 118.237 102.076 117.188 100.781 117.188C99.4868 117.188 98.4375 118.237 98.4375 119.531C98.4375 120.826 99.4868 121.875 100.781 121.875Z" fill="#FF9C00"/>
<path d="M100.781 128.906C102.076 128.906 103.125 127.857 103.125 126.562C103.125 125.268 102.076 124.219 100.781 124.219C99.4868 124.219 98.4375 125.268 98.4375 126.562C98.4375 127.857 99.4868 128.906 100.781 128.906Z" fill="#FF9C00"/>
<path d="M100.781 135.938C102.076 135.938 103.125 134.888 103.125 133.594C103.125 132.299 102.076 131.25 100.781 131.25C99.4868 131.25 98.4375 132.299 98.4375 133.594C98.4375 134.888 99.4868 135.938 100.781 135.938Z" fill="#FF9C00"/>
<path d="M96.0938 65.625C97.3882 65.625 98.4375 64.5757 98.4375 63.2812C98.4375 61.9868 97.3882 60.9375 96.0938 60.9375C94.7993 60.9375 93.75 61.9868 93.75 63.2812C93.75 64.5757 94.7993 65.625 96.0938 65.625Z" fill="#FF9C00"/>
<path d="M96.0938 72.6562C97.3882 72.6562 98.4375 71.6069 98.4375 70.3125C98.4375 69.0181 97.3882 67.9688 96.0938 67.9688C94.7993 67.9688 93.75 69.0181 93.75 70.3125C93.75 71.6069 94.7993 72.6562 96.0938 72.6562Z" fill="#FF9C00"/>
<path d="M96.0938 79.6875C97.3882 79.6875 98.4375 78.6382 98.4375 77.3438C98.4375 76.0493 97.3882 75 96.0938 75C94.7993 75 93.75 76.0493 93.75 77.3438C93.75 78.6382 94.7993 79.6875 96.0938 79.6875Z" fill="#FF9C00"/>
<path d="M96.0938 86.7188C97.3882 86.7188 98.4375 85.6694 98.4375 84.375C98.4375 83.0806 97.3882 82.0312 96.0938 82.0312C94.7993 82.0312 93.75 83.0806 93.75 84.375C93.75 85.6694 94.7993 86.7188 96.0938 86.7188Z" fill="#FF9C00"/>
<path d="M96.0938 93.75C97.3882 93.75 98.4375 92.7007 98.4375 91.4062C98.4375 90.1118 97.3882 89.0625 96.0938 89.0625C94.7993 89.0625 93.75 90.1118 93.75 91.4062C93.75 92.7007 94.7993 93.75 96.0938 93.75Z" fill="#FF9C00"/>
<path d="M96.0938 100.781C97.3882 100.781 98.4375 99.7319 98.4375 98.4375C98.4375 97.1431 97.3882 96.0938 96.0938 96.0938C94.7993 96.0938 93.75 97.1431 93.75 98.4375C93.75 99.7319 94.7993 100.781 96.0938 100.781Z" fill="#FF9C00"/>
<path d="M96.0938 107.812C97.3882 107.812 98.4375 106.763 98.4375 105.469C98.4375 104.174 97.3882 103.125 96.0938 103.125C94.7993 103.125 93.75 104.174 93.75 105.469C93.75 106.763 94.7993 107.812 96.0938 107.812Z" fill="#FF9C00"/>
<path d="M96.0938 114.844C97.3882 114.844 98.4375 113.794 98.4375 112.5C98.4375 111.206 97.3882 110.156 96.0938 110.156C94.7993 110.156 93.75 111.206 93.75 112.5C93.75 113.794 94.7993 114.844 96.0938 114.844Z" fill="#FF9C00"/>
<path d="M96.0938 121.875C97.3882 121.875 98.4375 120.826 98.4375 119.531C98.4375 118.237 97.3882 117.188 96.0938 117.188C94.7993 117.188 93.75 118.237 93.75 119.531C93.75 120.826 94.7993 121.875 96.0938 121.875Z" fill="#FF9C00"/>
<path d="M96.0938 128.906C97.3882 128.906 98.4375 127.857 98.4375 126.562C98.4375 125.268 97.3882 124.219 96.0938 124.219C94.7993 124.219 93.75 125.268 93.75 126.562C93.75 127.857 94.7993 128.906 96.0938 128.906Z" fill="#FF9C00"/>
<path d="M96.0938 135.938C97.3882 135.938 98.4375 134.888 98.4375 133.594C98.4375 132.299 97.3882 131.25 96.0938 131.25C94.7993 131.25 93.75 132.299 93.75 133.594C93.75 134.888 94.7993 135.938 96.0938 135.938Z" fill="#FF9C00"/>
<path d="M53.9062 65.625C55.2007 65.625 56.25 64.5757 56.25 63.2812C56.25 61.9868 55.2007 60.9375 53.9062 60.9375C52.6118 60.9375 51.5625 61.9868 51.5625 63.2812C51.5625 64.5757 52.6118 65.625 53.9062 65.625Z" fill="#FF9C00"/>
<path d="M53.9062 72.6562C55.2007 72.6562 56.25 71.6069 56.25 70.3125C56.25 69.0181 55.2007 67.9688 53.9062 67.9688C52.6118 67.9688 51.5625 69.0181 51.5625 70.3125C51.5625 71.6069 52.6118 72.6562 53.9062 72.6562Z" fill="#FF9C00"/>
<path d="M53.9062 79.6875C55.2007 79.6875 56.25 78.6382 56.25 77.3438C56.25 76.0493 55.2007 75 53.9062 75C52.6118 75 51.5625 76.0493 51.5625 77.3438C51.5625 78.6382 52.6118 79.6875 53.9062 79.6875Z" fill="#FF9C00"/>
<path d="M53.9062 86.7188C55.2007 86.7188 56.25 85.6694 56.25 84.375C56.25 83.0806 55.2007 82.0312 53.9062 82.0312C52.6118 82.0312 51.5625 83.0806 51.5625 84.375C51.5625 85.6694 52.6118 86.7188 53.9062 86.7188Z" fill="#FF9C00"/>
<path d="M53.9062 93.75C55.2007 93.75 56.25 92.7007 56.25 91.4062C56.25 90.1118 55.2007 89.0625 53.9062 89.0625C52.6118 89.0625 51.5625 90.1118 51.5625 91.4062C51.5625 92.7007 52.6118 93.75 53.9062 93.75Z" fill="#FF9C00"/>
<path d="M53.9062 100.781C55.2007 100.781 56.25 99.7319 56.25 98.4375C56.25 97.1431 55.2007 96.0938 53.9062 96.0938C52.6118 96.0938 51.5625 97.1431 51.5625 98.4375C51.5625 99.7319 52.6118 100.781 53.9062 100.781Z" fill="#FF9C00"/>
<path d="M53.9062 107.812C55.2007 107.812 56.25 106.763 56.25 105.469C56.25 104.174 55.2007 103.125 53.9062 103.125C52.6118 103.125 51.5625 104.174 51.5625 105.469C51.5625 106.763 52.6118 107.812 53.9062 107.812Z" fill="#FF9C00"/>
<path d="M53.9062 114.844C55.2007 114.844 56.25 113.794 56.25 112.5C56.25 111.206 55.2007 110.156 53.9062 110.156C52.6118 110.156 51.5625 111.206 51.5625 112.5C51.5625 113.794 52.6118 114.844 53.9062 114.844Z" fill="#FF9C00"/>
<path d="M53.9062 121.875C55.2007 121.875 56.25 120.826 56.25 119.531C56.25 118.237 55.2007 117.188 53.9062 117.188C52.6118 117.188 51.5625 118.237 51.5625 119.531C51.5625 120.826 52.6118 121.875 53.9062 121.875Z" fill="#FF9C00"/>
<path d="M53.9062 128.906C55.2007 128.906 56.25 127.857 56.25 126.562C56.25 125.268 55.2007 124.219 53.9062 124.219C52.6118 124.219 51.5625 125.268 51.5625 126.562C51.5625 127.857 52.6118 128.906 53.9062 128.906Z" fill="#FF9C00"/>
<path d="M53.9062 135.938C55.2007 135.938 56.25 134.888 56.25 133.594C56.25 132.299 55.2007 131.25 53.9062 131.25C52.6118 131.25 51.5625 132.299 51.5625 133.594C51.5625 134.888 52.6118 135.938 53.9062 135.938Z" fill="#FF9C00"/>
<path d="M49.2188 65.625C50.5132 65.625 51.5625 64.5757 51.5625 63.2812C51.5625 61.9868 50.5132 60.9375 49.2188 60.9375C47.9243 60.9375 46.875 61.9868 46.875 63.2812C46.875 64.5757 47.9243 65.625 49.2188 65.625Z" fill="#FF9C00"/>
<path d="M49.2188 72.6562C50.5132 72.6562 51.5625 71.6069 51.5625 70.3125C51.5625 69.0181 50.5132 67.9688 49.2188 67.9688C47.9243 67.9688 46.875 69.0181 46.875 70.3125C46.875 71.6069 47.9243 72.6562 49.2188 72.6562Z" fill="#FF9C00"/>
<path d="M49.2188 79.6875C50.5132 79.6875 51.5625 78.6382 51.5625 77.3438C51.5625 76.0493 50.5132 75 49.2188 75C47.9243 75 46.875 76.0493 46.875 77.3438C46.875 78.6382 47.9243 79.6875 49.2188 79.6875Z" fill="#FF9C00"/>
<path d="M49.2188 86.7188C50.5132 86.7188 51.5625 85.6694 51.5625 84.375C51.5625 83.0806 50.5132 82.0312 49.2188 82.0312C47.9243 82.0312 46.875 83.0806 46.875 84.375C46.875 85.6694 47.9243 86.7188 49.2188 86.7188Z" fill="#FF9C00"/>
<path d="M49.2188 93.75C50.5132 93.75 51.5625 92.7007 51.5625 91.4062C51.5625 90.1118 50.5132 89.0625 49.2188 89.0625C47.9243 89.0625 46.875 90.1118 46.875 91.4062C46.875 92.7007 47.9243 93.75 49.2188 93.75Z" fill="#FF9C00"/>
<path d="M49.2188 100.781C50.5132 100.781 51.5625 99.7319 51.5625 98.4375C51.5625 97.1431 50.5132 96.0938 49.2188 96.0938C47.9243 96.0938 46.875 97.1431 46.875 98.4375C46.875 99.7319 47.9243 100.781 49.2188 100.781Z" fill="#FF9C00"/>
<path d="M49.2188 107.812C50.5132 107.812 51.5625 106.763 51.5625 105.469C51.5625 104.174 50.5132 103.125 49.2188 103.125C47.9243 103.125 46.875 104.174 46.875 105.469C46.875 106.763 47.9243 107.812 49.2188 107.812Z" fill="#FF9C00"/>
<path d="M49.2188 114.844C50.5132 114.844 51.5625 113.794 51.5625 112.5C51.5625 111.206 50.5132 110.156 49.2188 110.156C47.9243 110.156 46.875 111.206 46.875 112.5C46.875 113.794 47.9243 114.844 49.2188 114.844Z" fill="#FF9C00"/>
<path d="M49.2188 121.875C50.5132 121.875 51.5625 120.826 51.5625 119.531C51.5625 118.237 50.5132 117.188 49.2188 117.188C47.9243 117.188 46.875 118.237 46.875 119.531C46.875 120.826 47.9243 121.875 49.2188 121.875Z" fill="#FF9C00"/>
<path d="M49.2188 128.906C50.5132 128.906 51.5625 127.857 51.5625 126.562C51.5625 125.268 50.5132 124.219 49.2188 124.219C47.9243 124.219 46.875 125.268 46.875 126.562C46.875 127.857 47.9243 128.906 49.2188 128.906Z" fill="#FF9C00"/>
<path d="M49.2188 135.938C50.5132 135.938 51.5625 134.888 51.5625 133.594C51.5625 132.299 50.5132 131.25 49.2188 131.25C47.9243 131.25 46.875 132.299 46.875 133.594C46.875 134.888 47.9243 135.938 49.2188 135.938Z" fill="#FF9C00"/>
<path d="M7.03125 65.625C8.32567 65.625 9.375 64.5757 9.375 63.2812C9.375 61.9868 8.32567 60.9375 7.03125 60.9375C5.73683 60.9375 4.6875 61.9868 4.6875 63.2812C4.6875 64.5757 5.73683 65.625 7.03125 65.625Z" fill="#FF9C00"/>
<path d="M7.03125 72.6562C8.32567 72.6562 9.375 71.6069 9.375 70.3125C9.375 69.0181 8.32567 67.9688 7.03125 67.9688C5.73683 67.9688 4.6875 69.0181 4.6875 70.3125C4.6875 71.6069 5.73683 72.6562 7.03125 72.6562Z" fill="#FF9C00"/>
<path d="M7.03125 79.6875C8.32567 79.6875 9.375 78.6382 9.375 77.3438C9.375 76.0493 8.32567 75 7.03125 75C5.73683 75 4.6875 76.0493 4.6875 77.3438C4.6875 78.6382 5.73683 79.6875 7.03125 79.6875Z" fill="#FF9C00"/>
<path d="M7.03125 86.7188C8.32567 86.7188 9.375 85.6694 9.375 84.375C9.375 83.0806 8.32567 82.0312 7.03125 82.0312C5.73683 82.0312 4.6875 83.0806 4.6875 84.375C4.6875 85.6694 5.73683 86.7188 7.03125 86.7188Z" fill="#FF9C00"/>
<path d="M7.03125 93.75C8.32567 93.75 9.375 92.7007 9.375 91.4062C9.375 90.1118 8.32567 89.0625 7.03125 89.0625C5.73683 89.0625 4.6875 90.1118 4.6875 91.4062C4.6875 92.7007 5.73683 93.75 7.03125 93.75Z" fill="#FF9C00"/>
<path d="M7.03125 100.781C8.32567 100.781 9.375 99.7319 9.375 98.4375C9.375 97.1431 8.32567 96.0938 7.03125 96.0938C5.73683 96.0938 4.6875 97.1431 4.6875 98.4375C4.6875 99.7319 5.73683 100.781 7.03125 100.781Z" fill="#FF9C00"/>
<path d="M7.03125 107.812C8.32567 107.812 9.375 106.763 9.375 105.469C9.375 104.174 8.32567 103.125 7.03125 103.125C5.73683 103.125 4.6875 104.174 4.6875 105.469C4.6875 106.763 5.73683 107.812 7.03125 107.812Z" fill="#FF9C00"/>
<path d="M7.03125 114.844C8.32567 114.844 9.375 113.794 9.375 112.5C9.375 111.206 8.32567 110.156 7.03125 110.156C5.73683 110.156 4.6875 111.206 4.6875 112.5C4.6875 113.794 5.73683 114.844 7.03125 114.844Z" fill="#FF9C00"/>
<path d="M7.03125 121.875C8.32567 121.875 9.375 120.826 9.375 119.531C9.375 118.237 8.32567 117.188 7.03125 117.188C5.73683 117.188 4.6875 118.237 4.6875 119.531C4.6875 120.826 5.73683 121.875 7.03125 121.875Z" fill="#FF9C00"/>
<path d="M7.03125 128.906C8.32567 128.906 9.375 127.857 9.375 126.562C9.375 125.268 8.32567 124.219 7.03125 124.219C5.73683 124.219 4.6875 125.268 4.6875 126.562C4.6875 127.857 5.73683 128.906 7.03125 128.906Z" fill="#FF9C00"/>
<path d="M7.03125 135.938C8.32567 135.938 9.375 134.888 9.375 133.594C9.375 132.299 8.32567 131.25 7.03125 131.25C5.73683 131.25 4.6875 132.299 4.6875 133.594C4.6875 134.888 5.73683 135.938 7.03125 135.938Z" fill="#FF9C00"/>
<path d="M19.9219 31.6406V16.4062H17.5781V14.0625H15.2344V18.75H17.5781V33.9844C17.573 34.3265 17.5177 34.6661 17.4141 34.9922C18.1361 34.7761 18.7696 34.3338 19.2212 33.7303C19.6727 33.1269 19.9183 32.3943 19.9219 31.6406Z" fill="#E3DECB"/>
<path d="M50.3906 25.7813C50.3877 22.6265 51.4488 19.563 53.4024 17.0859C51.5345 18.5557 50.0706 20.4758 49.1478 22.6662C48.225 24.8565 47.8736 27.2453 48.1266 29.6086L49.6008 34.5305C49.711 34.7461 49.8352 34.9594 49.95 35.168H52.7344V38.5899C55.3048 40.9122 58.6453 42.1983 62.1094 42.1992H64.4531V39.8438C60.7247 39.84 57.15 38.3573 54.5136 35.7208C51.8771 33.0844 50.3944 29.5097 50.3906 25.7813Z" fill="#E3DECB"/>
<path d="M64.4532 18.75V16.4063C61.9609 16.4047 59.5696 17.3917 57.804 19.1508C57.4183 19.5486 57.0678 19.9791 56.7563 20.4375C58.3265 19.3415 60.1946 18.7526 62.1095 18.75H64.4532Z" fill="#E3DECB"/>
<path d="M80.8594 36.2813L73.8281 30.6562V34.875L78.5156 38.625V42.1875H83.2031V39.8438H80.8594V36.2813Z" fill="#E3DECB"/>
<path d="M69.1406 14.0625H66.7969V16.4062V35.1562V39.8438V42.1875H71.4844V39.8438H69.1406V14.0625Z" fill="#E3DECB"/>
<path d="M80.8594 14.0625H78.5156V17.1562L80.8594 15.2812V14.0625Z" fill="#E3DECB"/>
<path d="M101.953 19.9219C101.953 18.9895 101.583 18.0953 100.923 17.436C100.264 16.7766 99.3699 16.4062 98.4375 16.4062H92.5781V18.75H96.0937C97.0261 18.75 97.9204 19.1204 98.5797 19.7797C99.239 20.439 99.6094 21.3332 99.6094 22.2656C99.6044 22.6084 99.5499 22.9486 99.4476 23.2758C100.176 23.0698 100.816 22.6296 101.269 22.0234C101.722 21.4171 101.962 20.6786 101.953 19.9219Z" fill="#E3DECB"/>
<path d="M87.8906 25.7812V14.0625C87.269 14.0625 86.6729 14.3094 86.2333 14.749C85.7938 15.1885 85.5469 15.7846 85.5469 16.4062V42.1875H90.2344V39.8438H87.8906V25.7812Z" fill="#E3DECB"/>
<path d="M92.5781 28.125V30.4688H96.0938C97.4536 30.4735 98.793 30.1383 99.9903 29.4936C101.188 28.8489 102.205 27.9152 102.949 26.7773C101.61 27.66 100.041 28.1287 98.4375 28.125H92.5781Z" fill="#E3DECB"/>
<path d="M118.359 16.4062C117.458 16.4081 116.576 16.67 115.819 17.1606C115.062 17.6511 114.463 18.3495 114.094 19.1719C114.807 18.8513 115.589 18.7142 116.368 18.7731C117.148 18.8319 117.901 19.0848 118.557 19.5088C119.214 19.9328 119.755 20.5143 120.13 21.2005C120.504 21.8867 120.701 22.6557 120.703 23.4375V32.8125C120.701 33.4759 120.557 34.1311 120.281 34.7344C121.104 34.3647 121.802 33.7656 122.293 33.0091C122.783 32.2525 123.045 31.3705 123.047 30.4688V21.0938C123.047 19.8506 122.553 18.6583 121.674 17.7792C120.795 16.9001 119.603 16.4063 118.359 16.4062Z" fill="#E3DECB"/>
<path d="M108.984 30.4687V21.0937C108.985 19.1818 109.575 17.3166 110.674 15.7523C109.431 16.6122 108.415 17.7605 107.712 19.0989C107.01 20.4373 106.642 21.9259 106.641 23.4375V32.8125C106.639 34.8086 107.275 36.7531 108.456 38.3623C109.637 39.9715 111.301 41.1611 113.206 41.7575C115.111 42.354 117.157 42.326 119.045 41.6777C120.933 41.0294 122.564 39.7947 123.701 38.1539C122.297 39.1358 120.651 39.7135 118.942 39.8241C117.233 39.9347 115.527 39.574 114.008 38.7811C112.49 37.9883 111.219 36.7939 110.333 35.3281C109.447 33.8623 108.981 32.1814 108.984 30.4687Z" fill="#E3DECB"/>
<path d="M132.422 16.4062H127.734V14.0625H125.391V14.9602C126.349 16.0484 127.038 17.3466 127.402 18.75H130.078V42.1875H134.766V39.8438H132.422V16.4062Z" fill="#E3DECB"/>
<path d="M139.453 16.4062H137.109V18.75H139.453V16.4062Z" fill="#E3DECB"/>
<path d="M33.8767 14.0813C33.3934 14.1025 32.9286 14.2727 32.5459 14.5685C32.1632 14.8643 31.8814 15.2713 31.7392 15.7336L25.9126 35.1563H27.5532L33.8767 14.0813Z" fill="#E3DECB"/>
<path d="M39.2719 16.4062H38.0719L37.1484 19.4859L39.0375 25.7812H42.0844L39.2719 16.4062Z" fill="#E3DECB"/>
<path d="M24.6094 37.5H22.2656V42.1875H31.6406V39.8438H24.6094V37.5Z" fill="#E3DECB"/>
<path d="M43.3593 35.1562H44.8968L43.4905 30.4688H33.853L33.1499 32.8125H41.1468L42.553 37.5H41.0155V42.1875H50.3906V39.8438H43.3593V35.1562Z" fill="#E3DECB"/>
<path d="M16.4062 39.8437C15.3284 39.8459 14.2607 39.6352 13.2645 39.2237C12.2683 38.8122 11.3631 38.2081 10.6009 37.4459C9.83878 36.6838 9.23462 35.7786 8.82315 34.7824C8.41167 33.7862 8.20096 32.7185 8.20312 31.6406V28.125H7.03125V38.168C7.73704 39.3648 8.73648 40.3618 9.93504 41.0647C11.1336 41.7676 12.4917 42.1531 13.8808 42.1848C15.2698 42.2165 16.6441 41.8933 17.8734 41.2457C19.1028 40.5982 20.1466 39.6478 20.9062 38.4844C19.5728 39.3706 18.0073 39.8435 16.4062 39.8437Z" fill="#E3DECB"/>
<g clip-path="url(#clip0_10_625)">
<path d="M25.6868 92.11L32.5351 87.6219L38.5531 70.3549L27.1895 73.8656L18.037 99.6703L24.112 97.7934L19.9115 109.736L29.5939 104.756L25.3707 108.286L20.6969 126.895L38.6851 95.8267L32.3577 99.3016L38.3345 86.4735L25.6868 92.11Z" fill="#C01D2E"/>
<path d="M35.3534 89.0517L34.2179 89.5854L33.0823 90.1191L31.9482 90.6573L30.8007 91.1995L29.6674 91.7407L28.5361 92.2878C28.1583 92.4698 27.7805 92.6518 27.4051 92.8363C27.0298 93.0209 26.651 93.2049 26.2765 93.3924C26.6675 93.2373 27.0561 93.0797 27.4466 92.9231C27.8371 92.7666 28.2247 92.606 28.6133 92.4484L29.7791 91.9707L30.9416 91.4874L32.1056 91.0037L33.2672 90.5175L34.4283 90.0298L34.9212 89.8204L34.4309 90.8274L33.6333 92.4812L32.8436 94.1342L32.0548 95.7902L31.2669 97.4491L30.4795 99.1096L29.6925 100.772L28.9069 102.438L28.3855 103.549L29.4617 102.96L30.8795 102.183L32.2964 101.402L33.7113 100.621L33.9111 100.51L33.3144 101.556L32.6722 102.687L32.0333 103.818L30.7487 106.089L29.4797 108.359L28.2205 110.634L27.5973 111.773L26.9745 112.914L26.3521 114.057L25.7307 115.202C25.526 115.592 25.3163 115.966 25.1102 116.351C24.9042 116.736 24.6967 117.117 24.5015 117.501C24.7347 117.135 24.964 116.767 25.1952 116.4C25.4265 116.033 25.6538 115.664 25.8831 115.296L26.569 114.191L27.2477 113.083L27.9278 111.975L28.604 110.865L29.9506 108.641L31.287 106.411L32.6176 104.178L33.2797 103.059L33.9404 101.941L35.2569 99.699L35.9676 98.49L34.7344 99.16L33.3137 99.9336L31.895 100.708L30.4753 101.485L30.1308 101.675L30.3875 101.122L31.1549 99.4544L31.9219 97.7856L32.6849 96.1147L33.4426 94.4422L34.2084 92.759L34.9603 91.0835L35.7102 89.4068L36.0066 88.7405L35.3534 89.0517Z" fill="#F01C2A"/>
<path d="M37.8971 70.6147L37.2415 70.8761L36.5863 71.1389L35.9331 71.4027L34.634 71.9331L33.3367 72.4694L32.0404 73.0087L30.7454 73.5524L29.4509 74.0977L28.1577 74.6474L28.014 74.7081L27.9531 74.869L27.6811 75.5669L27.4174 76.2655L26.891 77.6608L25.8219 80.4614L24.7897 83.2604L23.7677 86.0611L22.755 88.8655L21.7501 91.674L21.2511 93.0788L20.7619 94.4838L20.2648 95.8897L19.7731 97.2971L19.3963 98.3768L20.481 98.0417L21.9952 97.5657C22.4998 97.4099 23.0058 97.2535 23.5081 97.0853L25.0205 96.6034L25.5621 96.436L25.417 96.8662L24.9433 98.2795L24.4649 99.6877L23.9966 101.103L23.5318 102.518L23.0693 103.936L22.6113 105.353L22.1548 106.769L21.9368 107.447L22.5433 107.111L24.1522 106.22L24.9552 105.773L25.7557 105.323L26.5573 104.872L27.357 104.419L28.1553 103.962C28.4209 103.811 28.687 103.657 28.9516 103.503C28.6659 103.631 28.3935 103.754 28.1147 103.883L27.2791 104.267L26.4444 104.653L25.6122 105.043L24.7799 105.432L23.949 105.826L22.9237 106.306L23.2114 105.564L23.7417 104.171L24.2685 102.777L24.7919 101.383L25.3133 99.9873L25.8294 98.5902L26.345 97.1917L26.8572 95.7926L27.2103 94.8313L26.2199 95.1242L25.4584 95.348L24.7001 95.5823L23.1795 96.0374C22.6735 96.1937 22.1642 96.3396 21.6592 96.494L21.2304 96.6265L21.3518 96.2935L21.8528 94.8897L22.3533 93.4844L22.8504 92.0785L23.836 89.2548L24.8155 86.4378L25.7877 83.6182L26.7492 80.7953L27.6995 77.9678L28.1707 76.552L28.4056 75.8443L28.5908 75.2809L29.7073 74.7434L30.9797 74.1266C31.4033 73.9228 31.8273 73.7167 32.2516 73.5083L33.5217 72.8841L34.7914 72.2583L36.0592 71.6266L36.6894 71.3095L37.3192 70.9908L37.947 70.6711L38.5532 70.3549L37.8971 70.6147Z" fill="#F01C2A"/>
</g>
<g clip-path="url(#clip1_10_625)">
<path d="M71.8799 92.11L78.7282 87.6219L84.7462 70.3549L73.3826 73.8656L64.2301 99.6703L70.3051 97.7934L66.1046 109.736L75.787 104.756L71.5638 108.286L66.89 126.895L84.8782 95.8267L78.5508 99.3016L84.5276 86.4735L71.8799 92.11Z" fill="#C01D2E"/>
<path d="M81.5465 89.0517L80.411 89.5854L79.2754 90.1191L78.1413 90.6573L76.9938 91.1995L75.8606 91.7407L74.7292 92.2878C74.3514 92.4698 73.9736 92.6518 73.5982 92.8363C73.2229 93.0209 72.8441 93.2049 72.4696 93.3924C72.8606 93.2373 73.2492 93.0797 73.6397 92.9231C74.0302 92.7666 74.4179 92.606 74.8064 92.4484L75.9723 91.9707L77.1348 91.4874L78.2987 91.0037L79.4603 90.5175L80.6214 90.0298L81.1143 89.8204L80.624 90.8274L79.8264 92.4812L79.0367 94.1342L78.2479 95.7902L77.46 97.4491L76.6726 99.1096L75.8856 100.772L75.1 102.438L74.5786 103.549L75.6548 102.96L77.0726 102.183L78.4895 101.402L79.9044 100.621L80.1043 100.51L79.5075 101.556L78.8653 102.687L78.2265 103.818L76.9418 106.089L75.6728 108.359L74.4136 110.634L73.7904 111.773L73.1676 112.914L72.5453 114.057L71.9238 115.202C71.7192 115.592 71.5094 115.966 71.3033 116.351C71.0973 116.736 70.8898 117.117 70.6946 117.501C70.9278 117.135 71.1571 116.767 71.3883 116.4C71.6196 116.033 71.8469 115.664 72.0762 115.296L72.7621 114.191L73.4408 113.083L74.1209 111.975L74.7971 110.865L76.1437 108.641L77.4801 106.411L78.8107 104.178L79.4728 103.059L80.1335 101.941L81.45 99.699L82.1607 98.49L80.9275 99.16L79.5068 99.9336L78.0881 100.708L76.6684 101.485L76.3239 101.675L76.5806 101.122L77.348 99.4544L78.115 97.7856L78.8781 96.1147L79.6357 94.4422L80.4015 92.759L81.1534 91.0835L81.9033 89.4068L82.1997 88.7405L81.5465 89.0517Z" fill="#F01C2A"/>
<path d="M84.0902 70.6147L83.4346 70.8761L82.7794 71.1389L82.1262 71.4027L80.8271 71.9331L79.5298 72.4694L78.2335 73.0087L76.9385 73.5524L75.644 74.0977L74.3509 74.6474L74.2071 74.7081L74.1462 74.869L73.8742 75.5669L73.6105 76.2655L73.0842 77.6608L72.015 80.4614L70.9828 83.2604L69.9608 86.0611L68.9481 88.8655L67.9432 91.674L67.4442 93.0788L66.955 94.4838L66.4579 95.8897L65.9662 97.2971L65.5894 98.3768L66.6741 98.0417L68.1883 97.5657C68.6929 97.4099 69.1989 97.2535 69.7012 97.0853L71.2136 96.6034L71.7552 96.436L71.6101 96.8662L71.1365 98.2795L70.658 99.6877L70.1897 101.103L69.7249 102.518L69.2624 103.936L68.8044 105.353L68.3479 106.769L68.1299 107.447L68.7364 107.111L70.3453 106.22L71.1483 105.773L71.9489 105.323L72.7505 104.872L73.5501 104.419L74.3484 103.962C74.614 103.811 74.8801 103.657 75.1447 103.503C74.859 103.631 74.5867 103.754 74.3078 103.883L73.4722 104.267L72.6375 104.653L71.8053 105.043L70.973 105.432L70.1422 105.826L69.1168 106.306L69.4045 105.564L69.9348 104.171L70.4616 102.777L70.985 101.383L71.5064 99.9873L72.0225 98.5902L72.5381 97.1917L73.0503 95.7926L73.4035 94.8313L72.413 95.1242L71.6515 95.348L70.8932 95.5823L69.3726 96.0374C68.8666 96.1937 68.3573 96.3396 67.8524 96.494L67.4235 96.6265L67.5449 96.2935L68.0459 94.8897L68.5464 93.4844L69.0435 92.0785L70.0291 89.2548L71.0086 86.4378L71.9809 83.6182L72.9423 80.7953L73.8926 77.9678L74.3639 76.552L74.5987 75.8443L74.7839 75.2809L75.9004 74.7434L77.1728 74.1266C77.5964 73.9228 78.0204 73.7167 78.4447 73.5083L79.7148 72.8841L80.9845 72.2583L82.2523 71.6266L82.8825 71.3095L83.5123 70.9908L84.1402 70.6711L84.7463 70.3549L84.0902 70.6147Z" fill="#F01C2A"/>
</g>
<g clip-path="url(#clip2_10_625)">
<path d="M119.573 92.11L126.421 87.6219L132.439 70.3549L121.076 73.8656L111.923 99.6703L117.998 97.7934L113.798 109.736L123.48 104.756L119.257 108.286L114.583 126.895L132.571 95.8267L126.244 99.3016L132.221 86.4735L119.573 92.11Z" fill="#C01D2E"/>
<path d="M129.24 89.0517L128.104 89.5854L126.969 90.1191L125.834 90.6573L124.687 91.1995L123.554 91.7407L122.422 92.2878C122.045 92.4698 121.667 92.6518 121.291 92.8363C120.916 93.0209 120.537 93.2049 120.163 93.3924C120.554 93.2373 120.942 93.0797 121.333 92.9231C121.723 92.7666 122.111 92.606 122.5 92.4484L123.665 91.9707L124.828 91.4874L125.992 91.0037L127.153 90.5175L128.315 90.0298L128.807 89.8204L128.317 90.8274L127.52 92.4812L126.73 94.1342L125.941 95.7902L125.153 97.4491L124.366 99.1096L123.579 100.772L122.793 102.438L122.272 103.549L123.348 102.96L124.766 102.183L126.183 101.402L127.598 100.621L127.797 100.51L127.201 101.556L126.558 102.687L125.92 103.818L124.635 106.089L123.366 108.359L122.107 110.634L121.484 111.773L120.861 112.914L120.238 114.057L119.617 115.202C119.412 115.592 119.203 115.966 118.996 116.351C118.79 116.736 118.583 117.117 118.388 117.501C118.621 117.135 118.85 116.767 119.081 116.4C119.313 116.033 119.54 115.664 119.769 115.296L120.455 114.191L121.134 113.083L121.814 111.975L122.49 110.865L123.837 108.641L125.173 106.411L126.504 104.178L127.166 103.059L127.827 101.941L129.143 99.699L129.854 98.49L128.621 99.16L127.2 99.9336L125.781 100.708L124.362 101.485L124.017 101.675L124.274 101.122L125.041 99.4544L125.808 97.7856L126.571 96.1147L127.329 94.4422L128.095 92.759L128.846 91.0835L129.596 89.4068L129.893 88.7405L129.24 89.0517Z" fill="#F01C2A"/>
<path d="M131.783 70.6147L131.128 70.8761L130.473 71.1389L129.819 71.4027L128.52 71.9331L127.223 72.4694L125.927 73.0087L124.632 73.5524L123.337 74.0977L122.044 74.6474L121.9 74.7081L121.839 74.869L121.567 75.5669L121.304 76.2655L120.777 77.6608L119.708 80.4614L118.676 83.2604L117.654 86.0611L116.641 88.8655L115.636 91.674L115.137 93.0788L114.648 94.4838L114.151 95.8897L113.659 97.2971L113.283 98.3768L114.367 98.0417L115.881 97.5657C116.386 97.4099 116.892 97.2535 117.394 97.0853L118.907 96.6034L119.448 96.436L119.303 96.8662L118.83 98.2795L118.351 99.6877L117.883 101.103L117.418 102.518L116.956 103.936L116.498 105.353L116.041 106.769L115.823 107.447L116.43 107.111L118.038 106.22L118.841 105.773L119.642 105.323L120.444 104.872L121.243 104.419L122.042 103.962C122.307 103.811 122.573 103.657 122.838 103.503C122.552 103.631 122.28 103.754 122.001 103.883L121.165 104.267L120.331 104.653L119.498 105.043L118.666 105.432L117.835 105.826L116.81 106.306L117.098 105.564L117.628 104.171L118.155 102.777L118.678 101.383L119.2 99.9873L119.716 98.5902L120.231 97.1917L120.743 95.7926L121.097 94.8313L120.106 95.1242L119.345 95.348L118.586 95.5823L117.066 96.0374C116.56 96.1937 116.05 96.3396 115.545 96.494L115.117 96.6265L115.238 96.2935L115.739 94.8897L116.24 93.4844L116.737 92.0785L117.722 89.2548L118.702 86.4378L119.674 83.6182L120.635 80.7953L121.586 77.9678L122.057 76.552L122.292 75.8443L122.477 75.2809L123.593 74.7434L124.866 74.1266C125.29 73.9228 125.713 73.7167 126.138 73.5083L127.408 72.8841L128.678 72.2583L129.945 71.6266L130.576 71.3095L131.205 70.9908L131.833 70.6711L132.439 70.3549L131.783 70.6147Z" fill="#F01C2A"/>
</g>
<defs>
<clipPath id="clip0_10_625">
<rect width="33.7501" height="48.75" fill="white" transform="translate(6.30688 80.3173) rotate(-17.1684)"/>
</clipPath>
<clipPath id="clip1_10_625">
<rect width="33.7501" height="48.75" fill="white" transform="translate(52.5 80.3173) rotate(-17.1684)"/>
</clipPath>
<clipPath id="clip2_10_625">
<rect width="33.7501" height="48.75" fill="white" transform="translate(100.193 80.3173) rotate(-17.1684)"/>
</clipPath>
</defs>
</svg>
