<svg width="150" height="150" viewBox="0 0 150 150" fill="none" xmlns="http://www.w3.org/2000/svg">
<path d="M56.25 18.75C76.9607 18.75 93.75 16.6513 93.75 14.0625C93.75 11.4737 76.9607 9.375 56.25 9.375C35.5393 9.375 18.75 11.4737 18.75 14.0625C18.75 16.6513 35.5393 18.75 56.25 18.75Z" fill="#F7F3E1"/>
<path d="M18.75 14.0625C18.75 16.6406 35.5312 18.75 56.25 18.75C76.9688 18.75 93.75 16.6406 93.75 14.0625C93.75 11.4844 76.9688 9.375 56.25 9.375C35.5312 9.375 18.75 11.4844 18.75 14.0625ZM56.25 2.34375C86.0156 2.34375 110.156 7.59375 110.156 14.0625C110.156 18.9141 96.6328 23.0625 77.3438 24.8672C70.875 25.4531 63.7266 25.7812 56.25 25.7812C48.7734 25.7812 41.625 25.4531 35.1562 24.8672C15.8672 23.0625 2.34375 18.9141 2.34375 14.0625C2.34375 7.59375 26.4844 2.34375 56.25 2.34375Z" fill="#D1013E"/>
<path d="M77.3438 123.305C96.6328 121.5 110.156 117.352 110.156 112.5V126.562C110.156 131.789 94.4062 136.219 72.6562 137.742V123.68C74.25 123.562 75.8203 123.422 77.3438 123.305Z" fill="#8F0029"/>
<path d="M35.1562 123.305C36.6797 123.422 38.25 123.562 39.8438 123.68V137.742C18.0938 136.219 2.34375 131.789 2.34375 126.562V112.5C2.34375 117.352 15.8672 121.5 35.1562 123.305Z" fill="#8F0029"/>
<path d="M72.6562 109.617C74.25 109.5 75.8203 109.359 77.3438 109.242V123.305C75.8203 123.422 74.25 123.562 72.6562 123.68C67.4766 124.031 61.9688 124.219 56.25 124.219C50.5312 124.219 45.0234 124.031 39.8438 123.68C38.25 123.562 36.6797 123.422 35.1562 123.305V109.242C36.6797 109.359 38.25 109.5 39.8438 109.617C45.0234 109.969 50.5312 110.156 56.25 110.156C61.9688 110.156 67.4766 109.969 72.6562 109.617Z" fill="#8F0029"/>
<path d="M39.8438 95.5547V109.617C38.25 109.5 36.6797 109.359 35.1562 109.242C15.8672 107.437 2.34375 103.289 2.34375 98.4375V84.375C2.34375 89.2266 15.8672 93.375 35.1562 95.1797C36.6797 95.2969 38.25 95.4375 39.8438 95.5547Z" fill="#8F0029"/>
<path d="M72.6562 81.4923C74.25 81.3751 75.8203 81.2345 77.3438 81.1173V95.1798C75.8203 95.297 74.25 95.4376 72.6562 95.5548C67.4766 95.9064 61.9688 96.0939 56.25 96.0939C50.5312 96.0939 45.0234 95.9064 39.8438 95.5548C38.25 95.4376 36.6797 95.297 35.1562 95.1798V81.1173C36.6797 81.2345 38.25 81.3751 39.8438 81.4923C45.0234 81.8439 50.5312 82.0314 56.25 82.0314C61.9688 82.0314 67.4766 81.8439 72.6562 81.4923Z" fill="#8F0029"/>
<path d="M39.8438 67.4297V81.4922C38.25 81.375 36.6797 81.2344 35.1562 81.1172C15.8672 79.3125 2.34375 75.1641 2.34375 70.3125V56.25C2.34375 61.1016 15.8672 65.25 35.1562 67.0547C36.6797 67.1719 38.25 67.3125 39.8438 67.4297Z" fill="#A80132"/>
<path d="M72.6562 53.3672C74.25 53.25 75.8203 53.1094 77.3438 52.9922V67.0547C75.8203 67.1719 74.25 67.3125 72.6562 67.4297C67.4766 67.7812 61.9688 67.9687 56.25 67.9687C50.5312 67.9687 45.0234 67.7812 39.8438 67.4297C38.25 67.3125 36.6797 67.1719 35.1562 67.0547V52.9922C36.6797 53.1094 38.25 53.25 39.8438 53.3672C45.0234 53.7187 50.5312 53.9062 56.25 53.9062C61.9688 53.9062 67.4766 53.7187 72.6562 53.3672Z" fill="#A80132"/>
<path d="M39.8438 39.3047V53.3672C38.25 53.25 36.6797 53.1094 35.1562 52.9922C15.8672 51.1875 2.34375 47.0391 2.34375 42.1875V28.125C2.34375 32.9766 15.8672 37.125 35.1562 38.9297C36.6797 39.0469 38.25 39.1875 39.8438 39.3047Z" fill="#A80132"/>
<path d="M77.3438 52.9922C75.8203 53.1094 74.25 53.25 72.6562 53.3672V39.3047C74.25 39.1875 75.8203 39.0469 77.3438 38.9297C96.6328 37.125 110.156 32.9766 110.156 28.125V42.1875C110.156 47.0391 96.6328 51.1875 77.3438 52.9922Z" fill="#A80132"/>
<path d="M72.6562 39.3047C67.4766 39.6562 61.9688 39.8437 56.25 39.8437C50.5312 39.8437 45.0234 39.6562 39.8438 39.3047C38.25 39.1875 36.6797 39.0469 35.1562 38.9297V24.8672C41.625 25.4531 48.7734 25.7813 56.25 25.7813C63.7266 25.7813 70.875 25.4531 77.3438 24.8672V38.9297C75.8203 39.0469 74.25 39.1875 72.6562 39.3047Z" fill="#A80132"/>
<path d="M72.6562 123.68V137.742C67.4766 138.094 61.9688 138.281 56.25 138.281C50.5312 138.281 45.0234 138.094 39.8438 137.742V123.68C45.0234 124.031 50.5312 124.219 56.25 124.219C61.9688 124.219 67.4766 124.031 72.6562 123.68Z" fill="#E3DECB"/>
<path d="M35.1562 109.242V123.305C15.8672 121.5 2.34375 117.352 2.34375 112.5V98.4375C2.34375 103.289 15.8672 107.438 35.1562 109.242Z" fill="#F7F3E1"/>
<path d="M72.6562 95.5547V109.617C67.4766 109.969 61.9688 110.156 56.25 110.156C50.5312 110.156 45.0234 109.969 39.8438 109.617V95.5547C45.0234 95.9063 50.5312 96.0937 56.25 96.0937C61.9688 96.0937 67.4766 95.9063 72.6562 95.5547Z" fill="#F7F3E1"/>
<path d="M35.1562 81.1172V95.1797C15.8672 93.375 2.34375 89.2266 2.34375 84.375V70.3125C2.34375 75.1641 15.8672 79.3125 35.1562 81.1172Z" fill="#F7F3E1"/>
<path d="M72.6562 67.4297V81.4922C67.4766 81.8438 61.9688 82.0313 56.25 82.0313C50.5312 82.0313 45.0234 81.8438 39.8438 81.4922V67.4297C45.0234 67.7813 50.5312 67.9687 56.25 67.9687C61.9688 67.9687 67.4766 67.7813 72.6562 67.4297Z" fill="#F7F3E1"/>
<path d="M110.156 42.1875V56.25C110.156 61.1016 96.6328 65.25 77.3438 67.0547V52.9922C96.6328 51.1875 110.156 47.0391 110.156 42.1875Z" fill="#F7F3E1"/>
<path d="M35.1562 52.9922V67.0547C15.8672 65.25 2.34375 61.1016 2.34375 56.25V42.1875C2.34375 47.0391 15.8672 51.1875 35.1562 52.9922Z" fill="#F7F3E1"/>
<path d="M72.6562 39.3047V53.3672C67.4766 53.7188 61.9688 53.9063 56.25 53.9063C50.5312 53.9063 45.0234 53.7188 39.8438 53.3672V39.3047C45.0234 39.6563 50.5312 39.8437 56.25 39.8437C61.9688 39.8437 67.4766 39.6563 72.6562 39.3047Z" fill="#F7F3E1"/>
<path d="M77.3438 24.8672C96.6328 23.0625 110.156 18.9141 110.156 14.0625V28.125C110.156 32.9766 96.6328 37.125 77.3438 38.9297V24.8672Z" fill="#F7F3E1"/>
<path d="M35.1562 24.8672V38.9297C15.8672 37.125 2.34375 32.9766 2.34375 28.125V14.0625C2.34375 18.9141 15.8672 23.0625 35.1562 24.8672Z" fill="#F7F3E1"/>
<path d="M93.75 14.0625C93.75 14.4609 93.3516 14.8594 92.5781 15.2344C88.4062 13.2188 73.7344 11.7188 56.25 11.7188C38.7656 11.7188 24.0938 13.2188 19.9219 15.2344C19.1484 14.8594 18.75 14.4609 18.75 14.0625C18.75 11.4844 35.5312 9.375 56.25 9.375C76.9688 9.375 93.75 11.4844 93.75 14.0625Z" fill="#C7C3B2"/>
<path d="M72.6562 48.6797V53.3672C67.4766 53.7187 61.9688 53.9062 56.25 53.9062C50.5312 53.9062 45.0234 53.7187 39.8438 53.3672V48.6797C45.0234 49.0312 50.5312 49.2187 56.25 49.2187C61.9688 49.2187 67.4766 49.0312 72.6562 48.6797Z" fill="#E3DECB"/>
<path d="M110.156 37.5V42.1875C110.156 47.0391 96.6328 51.1875 77.3438 52.9922C75.8203 53.1094 74.25 53.25 72.6562 53.3672V48.6797C74.25 48.5625 75.8203 48.4219 77.3438 48.3047C96.6328 46.5 110.156 42.3516 110.156 37.5Z" fill="#7D0126"/>
<path d="M72.6562 76.8047V81.4922C67.4766 81.8437 61.9688 82.0312 56.25 82.0312C50.5312 82.0312 45.0234 81.8437 39.8438 81.4922V76.8047C45.0234 77.1562 50.5312 77.3437 56.25 77.3437C61.9688 77.3437 67.4766 77.1562 72.6562 76.8047Z" fill="#E3DECB"/>
<path d="M72.6562 104.93V109.617C67.4766 109.969 61.9688 110.156 56.25 110.156C50.5312 110.156 45.0234 109.969 39.8438 109.617V104.93C45.0234 105.281 50.5312 105.469 56.25 105.469C61.9688 105.469 67.4766 105.281 72.6562 104.93Z" fill="#E3DECB"/>
<path d="M77.3438 34.2422V38.9297C75.8203 39.0469 74.25 39.1875 72.6562 39.3047C67.4766 39.6562 61.9688 39.8437 56.25 39.8437C50.5312 39.8437 45.0234 39.6562 39.8438 39.3047C38.25 39.1875 36.6797 39.0469 35.1562 38.9297V34.2422C41.625 34.8281 48.7734 35.1563 56.25 35.1563C63.7266 35.1563 70.875 34.8281 77.3438 34.2422Z" fill="#7D0126"/>
<path d="M110.156 23.4375V28.125C110.156 32.9766 96.6328 37.125 77.3438 38.9297V34.2422C96.6328 32.4375 110.156 28.2891 110.156 23.4375Z" fill="#E3DECB"/>
<path d="M77.3438 62.3673V67.0548C75.8203 67.172 74.25 67.3126 72.6562 67.4298C67.4766 67.7814 61.9688 67.9689 56.25 67.9689C50.5312 67.9689 45.0234 67.7814 39.8438 67.4298C38.25 67.3126 36.6797 67.172 35.1562 67.0548V62.3673C41.625 62.9532 48.7734 63.2814 56.25 63.2814C63.7266 63.2814 70.875 62.9532 77.3438 62.3673Z" fill="#7D0126"/>
<path d="M110.156 51.5625V56.25C110.156 61.1016 96.6328 65.25 77.3438 67.0547V62.3672C96.6328 60.5625 110.156 56.4141 110.156 51.5625Z" fill="#E3DECB"/>
<path d="M77.3438 90.4923V95.1798C75.8203 95.297 74.25 95.4376 72.6562 95.5548C67.4766 95.9064 61.9688 96.0939 56.25 96.0939C50.5312 96.0939 45.0234 95.9064 39.8438 95.5548C38.25 95.4376 36.6797 95.297 35.1562 95.1798V90.4923C41.625 91.0782 48.7734 91.4064 56.25 91.4064C63.7266 91.4064 70.875 91.0782 77.3438 90.4923Z" fill="#7D0126"/>
<path d="M110.156 107.812V112.5C110.156 117.352 96.6328 121.5 77.3438 123.305V118.617C96.6328 116.813 110.156 112.664 110.156 107.812Z" fill="#E3DECB"/>
<path d="M110.156 112.5V126.562C110.156 131.789 94.4062 136.219 72.6562 137.742V123.68C74.25 123.562 75.8203 123.422 77.3438 123.305C81.3984 122.93 85.1719 122.437 88.6406 121.875H100.781C103.268 121.875 105.652 120.887 107.41 119.129C109.169 117.371 110.156 114.986 110.156 112.5Z" fill="#7D0126"/>
<path d="M35.1562 123.305C36.6797 123.422 38.25 123.562 39.8438 123.68V137.742C18.0938 136.219 2.34375 131.789 2.34375 126.562V112.5C2.34375 117.352 15.8672 121.5 35.1562 123.305Z" fill="#7D0126"/>
<path d="M65.7141 119.341C58.3855 117.341 51.4352 114.151 45.1406 109.898H45.1172C43.3203 109.828 41.5625 109.734 39.8438 109.617C38.25 109.5 36.6797 109.359 35.1562 109.242V123.305C36.6797 123.422 38.25 123.562 39.8438 123.68C45.0234 124.031 50.5312 124.219 56.25 124.219C61.9688 124.219 67.4766 124.031 72.6562 123.68C74.25 123.562 75.8203 123.422 77.3438 123.305V118.617C73.6711 118.95 69.7617 119.189 65.7141 119.341Z" fill="#7D0126"/>
<path d="M38.5055 104.822C34.8811 101.708 31.5829 98.2342 28.6617 94.4531C12.9141 92.3906 2.34375 88.6641 2.34375 84.375V98.4375C2.34375 103.289 15.8672 107.437 35.1562 109.242C36.6797 109.359 38.25 109.5 39.8438 109.617V104.93C39.3891 104.897 38.9555 104.859 38.5055 104.822Z" fill="#7D0126"/>
<path d="M35.1562 76.4297C29.2859 75.9172 23.4529 75.0421 17.6906 73.8094C16.5922 70.5498 15.7475 67.2101 15.1641 63.8203C7.17187 61.8047 2.34375 59.1562 2.34375 56.25V70.3125C2.34375 75.1641 15.8672 79.3125 35.1562 81.1172C36.6797 81.2344 38.25 81.375 39.8438 81.4922V76.8047C38.25 76.6875 36.6797 76.5469 35.1562 76.4297Z" fill="#7D0126"/>
<path d="M35.1562 48.3047C28.0393 47.7226 20.9835 46.5466 14.0625 44.7891V35.4141C6.72656 33.4219 2.34375 30.8906 2.34375 28.125V42.1875C2.34375 47.0391 15.8672 51.1875 35.1562 52.9922C36.6797 53.1094 38.25 53.25 39.8438 53.3672V48.6797C38.25 48.5625 36.6797 48.4219 35.1562 48.3047Z" fill="#7D0126"/>
<path d="M72.6562 123.68V137.742C67.4766 138.094 61.9688 138.281 56.25 138.281C50.5312 138.281 45.0234 138.094 39.8438 137.742V123.68C45.0234 124.031 50.5312 124.219 56.25 124.219C61.9688 124.219 67.4766 124.031 72.6562 123.68Z" fill="#D9D4C2"/>
<path d="M35.1562 109.242V123.305C15.8672 121.5 2.34375 117.352 2.34375 112.5V98.4375C2.34375 103.289 15.8672 107.438 35.1562 109.242Z" fill="#E3DECB"/>
<path d="M35.1562 90.4922C31.575 90.157 28.193 89.7398 25.0594 89.2547C22.9566 85.9638 21.1285 82.5052 19.5938 78.9141V78.8906C8.97656 76.7578 2.34375 73.7109 2.34375 70.3125V84.375C2.34375 88.6594 12.9047 92.3953 28.6594 94.4531C30.7391 94.7219 32.9031 94.9641 35.1516 95.1797L35.1562 90.4922Z" fill="#E3DECB"/>
<path d="M14.4773 58.9641C14.2054 56.5062 14.067 54.0354 14.0625 51.5625V49.4766C6.72656 47.4844 2.34375 44.9531 2.34375 42.1875V56.25C2.34375 61.1016 15.8672 65.25 35.1562 67.0547V62.3672C28.1827 61.7931 21.2671 60.655 14.4773 58.9641Z" fill="#E3DECB"/>
<path d="M14.0625 30.7336V21.3586C6.72656 19.3594 2.34375 16.8281 2.34375 14.0625V28.125C2.34375 32.9766 15.8672 37.125 35.1562 38.9297V34.2422C28.0395 33.6624 20.9837 32.4888 14.0625 30.7336Z" fill="#E3DECB"/>
<path d="M146.484 82.5703C148.047 89.9415 148.047 97.5585 146.484 104.93L143.297 103.547C141.656 102.492 139.359 103.5 138.188 105.773L129.609 122.32C129.002 123.26 128.75 124.386 128.901 125.495C129.051 126.605 129.594 127.623 130.43 128.367L133.008 130.664C126.179 137.949 117.454 143.184 107.812 145.781V142.031C107.672 140.919 107.104 139.906 106.229 139.206C105.354 138.506 104.24 138.174 103.125 138.281H84.375C83.2594 138.174 82.1461 138.506 81.2711 139.206C80.396 139.906 79.828 140.919 79.6874 142.031V145.781C70.0549 143.192 61.3368 137.965 54.5155 130.687L57.1171 128.367C57.9462 127.619 58.4835 126.601 58.6336 125.494C58.7838 124.387 58.5371 123.263 57.9374 122.32L49.3593 105.773C48.164 103.5 45.8905 102.492 44.2499 103.547L41.0155 104.93C40.2312 101.255 39.8384 97.5075 39.8437 93.75C39.8346 89.9833 40.2354 86.2268 41.039 82.5469L44.2499 83.9297C45.8905 84.9844 48.164 84 49.3593 81.7031L57.9374 65.1797C58.5385 64.2377 58.786 63.1131 58.6358 62.0059C58.4856 60.8986 57.9474 59.8806 57.1171 59.1328L54.539 56.8125C61.3475 49.5311 70.0594 44.3024 79.6874 41.7188V45.4687C79.828 46.5805 80.396 47.5939 81.2711 48.2939C82.1461 48.994 83.2594 49.3257 84.375 49.2187H103.125C104.24 49.3257 105.354 48.994 106.229 48.2939C107.104 47.5939 107.672 46.5805 107.812 45.4687V41.7188C117.449 44.3106 126.168 49.5471 132.984 56.8359L130.43 59.1328C129.594 59.8768 129.051 60.8954 128.901 62.0045C128.75 63.1135 129.002 64.2398 129.609 65.1797L138.188 81.7031C139.359 84 141.656 84.9844 143.297 83.9297L146.484 82.5703ZM128.906 93.75C128.906 86.7967 126.844 79.9996 122.981 74.2182C119.118 68.4368 113.628 63.9307 107.204 61.2699C100.78 58.609 93.711 57.9128 86.8913 59.2693C80.0717 60.6258 73.8074 63.9741 68.8907 68.8908C63.974 73.8075 60.6257 80.0717 59.2692 86.8913C57.9127 93.711 58.6089 100.78 61.2698 107.204C63.9307 113.628 68.4368 119.118 74.2182 122.981C79.9996 126.844 86.7967 128.906 93.75 128.906C103.073 128.903 112.013 125.198 118.606 118.606C125.198 112.013 128.903 103.073 128.906 93.75Z" fill="#D1013E"/>
<path d="M93.75 58.5938C100.703 58.5938 107.5 60.6556 113.282 64.5186C119.063 68.3817 123.569 73.8723 126.23 80.2963C128.891 86.7203 129.587 93.789 128.231 100.609C126.874 107.428 123.526 113.693 118.609 118.609C113.693 123.526 107.428 126.874 100.609 128.231C93.789 129.587 86.7203 128.891 80.2963 126.23C73.8723 123.569 68.3817 119.063 64.5186 113.282C60.6556 107.5 58.5938 100.703 58.5938 93.75C58.5969 84.4269 62.3018 75.4866 68.8942 68.8942C75.4866 62.3018 84.4269 58.5969 93.75 58.5938Z" fill="#FFFCED"/>
<path d="M107.812 142.032V145.782C98.6042 148.282 88.8958 148.282 79.6875 145.782V142.032C79.828 140.92 80.396 139.906 81.2711 139.206C82.1462 138.506 83.2595 138.175 84.375 138.282H103.125C104.241 138.175 105.354 138.506 106.229 139.206C107.104 139.906 107.672 140.92 107.812 142.032Z" fill="#F7F3E1"/>
<path d="M44.25 103.547C45.8906 102.492 48.1641 103.5 49.3594 105.773L57.9375 122.32C58.5372 123.263 58.7838 124.387 58.6337 125.494C58.4835 126.601 57.9463 127.619 57.1172 128.367L54.5156 130.687C47.7348 123.505 43.0639 114.593 41.0156 104.93L44.25 103.547Z" fill="#F7F3E1"/>
<path d="M49.3594 81.7032C48.1641 84 45.8906 84.9844 44.25 83.9297L41.0391 82.5469C43.0679 72.8837 47.7418 63.9742 54.5391 56.8125L57.1172 59.1328C57.9475 59.8806 58.4856 60.8986 58.6358 62.0059C58.7861 63.1131 58.5386 64.2378 57.9375 65.1797L49.3594 81.7032Z" fill="#F7F3E1"/>
<path d="M107.812 41.7187V45.4687C107.672 46.5805 107.104 47.5939 106.229 48.2939C105.354 48.994 104.241 49.3257 103.125 49.2187H84.375C83.2595 49.3257 82.1462 48.994 81.2711 48.2939C80.396 47.5939 79.828 46.5805 79.6875 45.4687V41.7187C88.8958 39.2188 98.6042 39.2188 107.812 41.7187Z" fill="#F7F3E1"/>
<path d="M143.297 83.9297C141.656 84.9844 139.359 84 138.188 81.7032L129.61 65.1797C129.002 64.2398 128.751 63.1135 128.901 62.0045C129.051 60.8954 129.594 59.8768 130.43 59.1328L132.985 56.8359C139.773 64.0037 144.446 72.9107 146.484 82.5703L143.297 83.9297Z" fill="#F7F3E1"/>
<path d="M138.188 105.773C139.359 103.5 141.656 102.492 143.297 103.547L146.484 104.93C144.444 114.584 139.781 123.488 133.008 130.664L130.43 128.367C129.594 127.623 129.051 126.604 128.901 125.495C128.751 124.386 129.002 123.26 129.61 122.32L138.188 105.773Z" fill="#F7F3E1"/>
<path d="M93.75 56.25C86.3332 56.25 79.083 58.4493 72.9161 62.5699C66.7493 66.6904 61.9428 72.5471 59.1045 79.3994C56.2662 86.2516 55.5236 93.7916 56.9706 101.066C58.4175 108.34 61.989 115.022 67.2335 120.267C72.478 125.511 79.1598 129.083 86.4341 130.529C93.7084 131.976 101.248 131.234 108.101 128.395C114.953 125.557 120.81 120.751 124.93 114.584C129.051 108.417 131.25 101.167 131.25 93.75C131.25 83.8044 127.299 74.2661 120.267 67.2335C113.234 60.2009 103.696 56.25 93.75 56.25ZM93.75 128.906C86.7968 128.906 79.9997 126.844 74.2183 122.981C68.4368 119.118 63.9308 113.628 61.2699 107.204C58.609 100.78 57.9128 93.711 59.2693 86.8914C60.6258 80.0717 63.9741 73.8075 68.8908 68.8908C73.8075 63.9741 80.0717 60.6258 86.8914 59.2693C93.711 57.9128 100.78 58.609 107.204 61.2699C113.628 63.9308 119.118 68.4368 122.981 74.2182C126.844 79.9997 128.906 86.7968 128.906 93.75C128.903 103.073 125.198 112.013 118.606 118.606C112.013 125.198 103.073 128.903 93.75 128.906Z" fill="#A80132"/>
<path d="M93.75 58.5938C86.7968 58.5938 79.9997 60.6556 74.2182 64.5186C68.4368 68.3817 63.9308 73.8723 61.2699 80.2963C58.609 86.7203 57.9128 93.789 59.2693 100.609C60.6258 107.428 63.9741 113.693 68.8908 118.609C73.8075 123.526 80.0717 126.874 86.8914 128.231C93.711 129.587 100.78 128.891 107.204 126.23C113.628 123.569 119.118 119.063 122.981 113.282C126.844 107.5 128.906 100.703 128.906 93.75C128.903 84.4269 125.198 75.4866 118.606 68.8942C112.013 62.3018 103.073 58.5969 93.75 58.5938ZM93.75 126.563C87.2603 126.563 80.9164 124.638 75.5204 121.033C70.1244 117.427 65.9187 112.303 63.4352 106.307C60.9517 100.311 60.3019 93.7136 61.568 87.3486C62.8341 80.9836 65.9592 75.137 70.5481 70.5481C75.137 65.9592 80.9836 62.8341 87.3486 61.568C93.7136 60.3019 100.311 60.9517 106.307 63.4352C112.303 65.9187 117.427 70.1244 121.033 75.5203C124.638 80.9163 126.563 87.2603 126.563 93.75C126.563 102.452 123.105 110.798 116.952 116.952C110.798 123.105 102.452 126.563 93.75 126.563Z" fill="#E3DECB"/>
<path d="M107.812 142.032V145.782C98.6042 148.282 88.8958 148.282 79.6875 145.782V142.032C79.828 140.92 80.396 139.906 81.2711 139.206C82.1462 138.506 83.2595 138.175 84.375 138.282H103.125C104.241 138.175 105.354 138.506 106.229 139.206C107.104 139.906 107.672 140.92 107.812 142.032Z" fill="#E3DECB"/>
<path d="M57.1172 128.367L54.5156 130.687C47.7348 123.505 43.0639 114.593 41.0156 104.93L44.25 103.547C45.8906 102.492 48.1641 103.5 49.3594 105.773L57.9375 122.32C58.5372 123.263 58.7838 124.387 58.6337 125.494C58.4835 126.601 57.9463 127.619 57.1172 128.367Z" fill="#E3DECB"/>
<path d="M146.484 104.93C144.444 114.584 139.781 123.488 133.008 130.664L130.43 128.367C129.594 127.623 129.051 126.604 128.901 125.495C128.751 124.386 129.002 123.26 129.61 122.32L138.188 105.773C139.359 103.5 141.656 102.492 143.297 103.547L146.484 104.93Z" fill="#E3DECB"/>
<path d="M42.1874 93.75C42.1864 90.3018 42.5295 86.8621 43.2116 83.482L41.039 82.5446C40.2352 86.2253 39.8344 89.9826 39.8437 93.75C39.8384 97.5075 40.2312 101.255 41.0155 104.93L43.2093 103.992C42.5292 100.621 42.1869 97.1895 42.1874 93.75Z" fill="#8F0029"/>
<path d="M79.6875 44.1445V41.7188C70.0595 44.3024 61.3476 49.5311 54.5391 56.8125L56.2641 58.3664C62.6452 51.5986 70.7392 46.6843 79.6875 44.1445Z" fill="#8F0029"/>
<path d="M56.2617 129.141L54.5156 130.697C61.338 137.971 70.056 143.195 79.6875 145.782V143.356C70.7392 140.818 62.6444 135.906 56.2617 129.141Z" fill="#8F0029"/>
<path d="M131.25 58.3875L132.977 56.8359C126.163 49.5482 117.447 44.3118 107.812 41.7188V44.1445C116.768 46.6878 124.868 51.6098 131.25 58.3875Z" fill="#8F0029"/>
<path d="M146.484 82.5703L144.291 83.5078C145.651 90.265 145.651 97.2257 144.291 103.983L146.482 104.932C148.045 97.5608 148.045 89.9439 146.482 82.5727L146.484 82.5703Z" fill="#8F0029"/>
<path d="M107.812 143.356V145.781C117.454 143.184 126.179 137.949 133.008 130.664L131.262 129.108C124.877 135.889 116.773 140.813 107.812 143.356Z" fill="#8F0029"/>
<path d="M93.75 145.313C88.9947 145.312 84.2623 144.653 79.6875 143.355V145.781C88.8958 148.281 98.6042 148.281 107.812 145.781V143.355C103.238 144.653 98.5053 145.312 93.75 145.313Z" fill="#C7C3B2"/>
<path d="M43.2094 103.992L41.0156 104.93C43.0639 114.593 47.7348 123.505 54.5156 130.687L56.2617 129.131C49.6423 122.139 45.1198 113.429 43.2094 103.992Z" fill="#C7C3B2"/>
<path d="M56.2641 58.3594L54.5391 56.8055C47.7418 63.9673 43.0679 72.8767 41.0391 82.5399L43.2117 83.4774C45.1265 74.0484 49.6487 65.3458 56.2641 58.3594Z" fill="#E3DECB"/>
<path d="M93.75 42.1875C98.5053 42.1883 103.238 42.8469 107.812 44.1445V41.7188C98.6042 39.2187 88.8958 39.2187 79.6875 41.7188V44.1445C84.2623 42.8469 88.9947 42.1883 93.75 42.1875Z" fill="#E3DECB"/>
<path d="M144.291 83.5055L146.484 82.568C144.446 72.9083 139.773 64.0014 132.984 56.8336L131.25 58.3875C137.862 65.375 142.38 74.0776 144.291 83.5055Z" fill="#E3DECB"/>
<path d="M131.262 129.108L133.008 130.664C139.781 123.489 144.444 114.584 146.484 104.93L144.293 103.98C142.386 113.411 137.871 122.116 131.262 129.108Z" fill="#C7C3B2"/>
<path d="M138.281 96.0938C139.576 96.0938 140.625 95.0444 140.625 93.75C140.625 92.4556 139.576 91.4062 138.281 91.4062C136.987 91.4062 135.938 92.4556 135.938 93.75C135.938 95.0444 136.987 96.0938 138.281 96.0938Z" fill="#FFFCED"/>
<path d="M49.2188 96.0938C50.5132 96.0938 51.5625 95.0444 51.5625 93.75C51.5625 92.4556 50.5132 91.4062 49.2188 91.4062C47.9243 91.4062 46.875 92.4556 46.875 93.75C46.875 95.0444 47.9243 96.0938 49.2188 96.0938Z" fill="#FFFCED"/>
<path d="M70.3125 133.594C71.6069 133.594 72.6562 132.544 72.6562 131.25C72.6562 129.956 71.6069 128.906 70.3125 128.906C69.0181 128.906 67.9688 129.956 67.9688 131.25C67.9688 132.544 69.0181 133.594 70.3125 133.594Z" fill="#FFFCED"/>
<path d="M117.188 133.594C118.482 133.594 119.531 132.544 119.531 131.25C119.531 129.956 118.482 128.906 117.188 128.906C115.893 128.906 114.844 129.956 114.844 131.25C114.844 132.544 115.893 133.594 117.188 133.594Z" fill="#FFFCED"/>
<path d="M70.3125 58.5938C71.6069 58.5938 72.6562 57.5444 72.6562 56.25C72.6562 54.9556 71.6069 53.9062 70.3125 53.9062C69.0181 53.9062 67.9688 54.9556 67.9688 56.25C67.9688 57.5444 69.0181 58.5938 70.3125 58.5938Z" fill="#FFFCED"/>
<path d="M117.188 58.5938C118.482 58.5938 119.531 57.5444 119.531 56.25C119.531 54.9556 118.482 53.9062 117.188 53.9062C115.893 53.9062 114.844 54.9556 114.844 56.25C114.844 57.5444 115.893 58.5938 117.188 58.5938Z" fill="#FFFCED"/>
<g clip-path="url(#clip0_10_793)">
<path d="M107.254 70.4066L91.7012 78.4534L83.2708 100.904L87.1301 99.2698L94.0836 80.7255L107.254 70.4066Z" fill="#F6921E"/>
<path d="M107.254 70.4066L94.0835 80.7255L87.13 99.2697L91.9854 97.2123L87.5845 112.316L107.74 82.6808L99.4896 87.2312L107.254 70.4066Z" fill="#C01D2E"/>
<path d="M84.3495 123.424L107.74 82.6808L87.5846 112.316L84.3495 123.424Z" fill="#F6921E"/>
<path d="M107.922 84.3154L104.702 89.9906L101.492 95.6694L98.2902 101.354L95.0982 107.044L91.9158 112.739L88.7477 118.442L87.1709 121.299L85.598 124.159L87.2742 121.36L88.945 118.559L92.2726 112.949L95.586 107.331L98.8892 101.705L102.183 96.0747L105.468 90.44L108.744 84.8L112.014 79.1554L112.921 77.5887L110.197 80.3154L107.922 84.3154Z" fill="#C01D2E"/>
<path d="M103.807 82.5876L106.979 75.7236L110.812 67.3941L111.454 66.0002L109.163 68.3654L109.229 68.3317L106.019 75.2684L102.181 83.5963L101.502 85.0673L102.911 84.2873L110.255 80.2134L110.197 80.3153L112.921 77.5887L111.338 78.4573L103.807 82.5876Z" fill="#F6921E"/>
<path d="M110.101 66.7036L105.159 69.2738L100.22 71.8525L95.2835 74.4357L90.3494 77.0229L90.2012 77.1018L90.1442 77.2544L87.7347 83.8099L85.3365 90.3701L82.9491 96.9336L80.5769 103.504L80.4461 103.865L80.7917 103.714L85.2692 101.736L87.5054 100.741L89.7425 99.7437L87.471 100.656L85.2003 101.571L81.0172 103.269L83.4172 97.1147L85.9397 90.6033L88.4508 84.0871L90.8907 77.7247L95.7081 75.2657L100.669 72.7278L105.627 70.1859L109.163 68.3654L111.454 66.0002L110.101 66.7036Z" fill="#C01D2E"/>
</g>
<defs>
<clipPath id="clip0_10_793">
<rect width="42.8704" height="47.914" fill="white" transform="translate(70.5 78.675) rotate(-17.1969)"/>
</clipPath>
</defs>
</svg>
