<svg width="150" height="150" viewBox="0 0 150 150" fill="none" xmlns="http://www.w3.org/2000/svg">
<path d="M53.9062 38.6719C53.9097 38.2727 53.9786 37.8769 54.1102 37.5C53.9786 37.8769 53.9097 38.2727 53.9062 38.6719Z" fill="#A80132"/>
<path d="M95.8896 37.5C96.0212 37.8769 96.0901 38.2727 96.0936 38.6719C96.0901 38.2727 96.0212 37.8769 95.8896 37.5Z" fill="#A80132"/>
<path d="M57.2343 39.8438H92.7656C93.4663 39.8297 94.1448 39.5958 94.7054 39.1753C95.266 38.7547 95.6803 38.1687 95.8898 37.5C95.6803 36.8313 95.266 36.2453 94.7054 35.8247C94.1448 35.4042 93.4663 35.1703 92.7656 35.1562H57.2343C56.5337 35.1703 55.8552 35.4042 55.2946 35.8247C54.734 36.2453 54.3197 36.8313 54.1101 37.5C54.3197 38.1687 54.734 38.7547 55.2946 39.1753C55.8552 39.5958 56.5337 39.8297 57.2343 39.8438Z" fill="#A80132"/>
<path d="M95.8896 30.4688C96.0212 30.8456 96.0901 31.2415 96.0936 31.6406C96.0901 31.2415 96.0212 30.8456 95.8896 30.4688Z" fill="#A80132"/>
<path d="M53.9062 31.6406C53.9097 31.2415 53.9786 30.8456 54.1102 30.4688C53.9786 30.8456 53.9097 31.2415 53.9062 31.6406Z" fill="#A80132"/>
<path d="M57.2343 32.8125H92.7656C93.4663 32.7984 94.1448 32.5646 94.7054 32.144C95.266 31.7235 95.6803 31.1375 95.8898 30.4688C95.6803 29.8 95.266 29.214 94.7054 28.7935C94.1448 28.3729 93.4663 28.1391 92.7656 28.125H57.2343C56.5337 28.1391 55.8552 28.3729 55.2946 28.7935C54.734 29.214 54.3197 29.8 54.1101 30.4688C54.3197 31.1375 54.734 31.7235 55.2946 32.144C55.8552 32.5646 56.5337 32.7984 57.2343 32.8125Z" fill="#A80132"/>
<path d="M52.3547 7.66406C52.5305 7.78359 52.7156 7.89843 52.9195 8.02031C53.0039 8.06953 53.093 8.1164 53.182 8.16562C53.4164 8.2875 53.6508 8.4 53.9109 8.5289C53.9883 8.5664 54.068 8.6039 54.1453 8.63906C56.0321 9.4268 57.9958 10.0159 60.0047 10.3969L60.0891 10.4133C60.6984 10.5375 61.3336 10.6477 61.9992 10.7648C66.3 11.4331 70.6478 11.7521 75 11.7187C87.9375 11.7187 96.0938 9.375 98.4375 7.03125C98.4375 7.03125 93.75 2.34375 75 2.34375C56.25 2.34375 51.5625 7.03125 51.5625 7.03125C51.7459 7.20898 51.9417 7.37346 52.1484 7.52344C52.2117 7.57031 52.2867 7.61718 52.3547 7.66406Z" fill="#DE0000"/>
<path d="M54.1406 8.63909C54.0586 8.60393 53.9789 8.56643 53.9062 8.52893C53.9906 8.56643 54.0656 8.60393 54.1406 8.63909Z" fill="#D1013E"/>
<path d="M53.1819 8.16558C53.0929 8.11636 53.0038 8.06948 52.9194 8.02026C53.0038 8.06948 53.0929 8.11636 53.1819 8.16558Z" fill="#D1013E"/>
<path d="M52.3547 7.66406C52.2867 7.61719 52.2117 7.57031 52.1484 7.52344C52.2117 7.57031 52.2867 7.61719 52.3547 7.66406Z" fill="#D1013E"/>
<path d="M60.1219 10.4187L60 10.3969L60.1219 10.4187Z" fill="#D1013E"/>
<path d="M62.0015 10.7648L62.8124 13.5938C63.6205 16.4291 65.3307 18.9238 67.6838 20.7C70.0369 22.4763 72.9048 23.4373 75.853 23.4375H86.0835C88.9567 23.4263 91.7343 22.405 93.9304 20.5523L98.4375 7.03125C96.0937 9.375 87.9374 11.7188 74.9999 11.7188C70.6485 11.752 66.3015 11.4329 62.0015 10.7648Z" fill="#D1013E"/>
<path d="M86.8594 42.1875H72.675C63.181 47.5618 55.3281 55.4177 49.9575 64.9137C44.5869 74.4098 41.9009 85.188 42.1875 96.0938C42.1875 140.625 133.594 133.594 133.594 112.5C133.594 95.5313 113.531 52.6875 86.8594 42.1875Z" fill="#D1013E"/>
<path d="M52.9196 8.02031C52.7157 7.90312 52.5305 7.78594 52.3547 7.66406C52.5305 7.78359 52.7157 7.90312 52.9196 8.02031Z" fill="#D1013E"/>
<path d="M62.0015 10.7649C61.3358 10.6571 60.7007 10.5305 60.0913 10.4133C60.703 10.5469 61.3358 10.6571 62.0015 10.7649Z" fill="#D1013E"/>
<path d="M53.9062 8.52893C53.646 8.4094 53.4046 8.29456 53.1772 8.16565C53.4069 8.28752 53.6507 8.4094 53.9062 8.52893Z" fill="#D1013E"/>
<path d="M51.5625 7.03125C51.7459 7.20899 51.9417 7.37346 52.1484 7.52344C51.9417 7.37346 51.7459 7.20899 51.5625 7.03125Z" fill="#D1013E"/>
<path d="M60 10.3968C57.9912 10.0159 56.0274 9.42678 54.1406 8.63904C56.0274 9.42678 57.9912 10.0159 60 10.3968Z" fill="#D1013E"/>
<path d="M147.656 58.5938L139.852 62.5078L135.938 70.3125L132.023 62.5078L124.219 58.5938L132.023 54.6797L135.938 46.875L139.852 54.6797L147.656 58.5938Z" fill="#7D0126"/>
<path d="M25.7812 30.4688L17.9766 34.3828L14.0625 42.1875L10.1484 34.3828L2.34375 30.4688L10.1484 26.5547L14.0625 18.75L17.9766 26.5547L25.7812 30.4688Z" fill="#7D0126"/>
<path d="M96.6563 93.1641C96.2831 94.0957 96.0922 95.0902 96.0938 96.0937V128.977C93.7734 129.047 91.4297 129.047 89.0625 128.93V103.125C89.0625 99.2344 91.9688 95.7187 96.6563 93.1641Z" fill="#D1013E"/>
<path d="M95.8897 37.5C95.6802 36.8313 95.2659 36.2453 94.7053 35.8247C94.1447 35.4042 93.4662 35.1703 92.7655 35.1562C93.6726 35.1299 94.5322 34.7451 95.156 34.0861C95.7798 33.4271 96.117 32.5477 96.0937 31.6406C96.0902 31.2415 96.0213 30.8456 95.8897 30.4688C95.6802 29.8 95.2659 29.214 94.7053 28.7935C94.1447 28.3729 93.4662 28.1391 92.7655 28.125H57.2343C56.5336 28.1391 55.8551 28.3729 55.2945 28.7935C54.7339 29.214 54.3196 29.8 54.1101 30.4688C53.9785 30.8456 53.9096 31.2415 53.9062 31.6406C53.8828 32.5477 54.22 33.4271 54.8438 34.0861C55.4677 34.7451 56.3273 35.1299 57.2343 35.1562C56.5336 35.1703 55.8551 35.4042 55.2945 35.8247C54.7339 36.2453 54.3196 36.8313 54.1101 37.5C53.9785 37.8769 53.9096 38.2727 53.9062 38.6719C53.8828 39.579 54.22 40.4584 54.8438 41.1173C55.4677 41.7763 56.3273 42.1611 57.2343 42.1875H92.7655C93.6726 42.1611 94.5322 41.7763 95.156 41.1173C95.7798 40.4584 96.117 39.579 96.0937 38.6719C96.0902 38.2727 96.0213 37.8769 95.8897 37.5Z" fill="#A80132"/>
<path d="M93.8276 9.40309C87.7179 7.61614 81.3622 6.81545 75.0002 7.03121C68.6382 6.81545 62.2825 7.61614 56.1729 9.40309C62.298 11.1098 68.6441 11.8904 75.0002 11.7187C81.3564 11.8904 87.7025 11.1098 93.8276 9.40309Z" fill="#C91010"/>
<path d="M89.4374 35.1562H92.7655C93.6726 35.1299 94.5322 34.7451 95.156 34.0861C95.7798 33.4271 96.117 32.5477 96.0937 31.6406C96.0902 31.2415 96.0213 30.8456 95.8897 30.4688C95.6802 31.1375 95.2659 31.7235 94.7053 32.144C94.1447 32.5646 93.4662 32.7984 92.7655 32.8125H57.2343C56.5336 32.7984 55.8551 32.5646 55.2945 32.144C54.7339 31.7235 54.3196 31.1375 54.1101 30.4688C53.9785 30.8456 53.9096 31.2415 53.9062 31.6406C53.8828 32.5477 54.22 33.4271 54.8438 34.0861C55.4677 34.7451 56.3273 35.1299 57.2343 35.1562H89.4374Z" fill="#FF0000"/>
<path d="M86.8593 42.1875H92.7655C93.6726 42.1611 94.5322 41.7763 95.156 41.1173C95.7798 40.4584 96.117 39.579 96.0937 38.6719C96.0902 38.2727 96.0213 37.8769 95.8897 37.5C95.6802 38.1687 95.2659 38.7547 94.7053 39.1753C94.1447 39.5958 93.4662 39.8297 92.7655 39.8438H57.2343C56.5336 39.8297 55.8551 39.5958 55.2945 39.1753C54.7339 38.7547 54.3196 38.1687 54.1101 37.5C53.9785 37.8769 53.9096 38.2727 53.9062 38.6719C53.8828 39.579 54.22 40.4584 54.8438 41.1173C55.4677 41.7763 56.3273 42.1611 57.2343 42.1875H86.8593Z" fill="#FF0000"/>
<path d="M89.4376 28.125H91.4063L93.9305 20.5523C91.7344 22.405 88.9568 23.4263 86.0836 23.4375H75.8532C72.9049 23.4373 70.037 22.4763 67.6839 20.7C65.3308 18.9238 63.6207 16.4291 62.8125 13.5938L62.0016 10.7578C61.336 10.65 60.7008 10.5234 60.0914 10.4063L60 10.3969C57.9912 10.0159 56.0274 9.4268 54.1406 8.63906C54.0563 8.60391 53.9813 8.56641 53.9063 8.52891C53.6461 8.40937 53.4023 8.29453 53.1773 8.16562C53.0883 8.11641 52.9992 8.06953 52.9148 8.02031C52.7109 7.90312 52.5258 7.78594 52.35 7.66406C52.282 7.61719 52.207 7.57031 52.1437 7.52344C51.9386 7.37328 51.7444 7.20881 51.5625 7.03125L58.5938 28.125H89.4376Z" fill="#D1013E"/>
<path d="M42.1875 96.0938C41.9009 85.188 44.5869 74.4097 49.9575 64.9137C55.3281 55.4177 63.181 47.5617 72.675 42.1875H63.1406C36.4688 52.6875 16.4062 95.5312 16.4062 112.5C16.4062 131.906 42.6328 147.656 75 147.656C107.367 147.656 133.594 131.906 133.594 112.5C133.594 133.594 42.1875 140.625 42.1875 96.0938Z" fill="#7D0126"/>
<path d="M103.125 18.75C102.662 18.7499 102.208 18.6124 101.823 18.3549C101.438 18.0973 101.137 17.7313 100.96 17.3031C100.783 16.8749 100.736 16.4038 100.827 15.9492C100.917 15.4946 101.14 15.077 101.468 14.7493L115.53 0.686728C115.972 0.259794 116.565 0.0235571 117.179 0.0288972C117.794 0.0342372 118.381 0.280727 118.816 0.715278C119.25 1.14983 119.497 1.73767 119.502 2.3522C119.508 2.96672 119.271 3.55876 118.844 4.0008L104.782 18.0633C104.343 18.5029 103.747 18.7499 103.125 18.75Z" fill="#D1013E"/>
<path d="M103.125 32.8126C102.622 32.8132 102.132 32.6518 101.727 32.3523C101.323 32.0528 101.025 31.631 100.879 31.1495C100.733 30.6679 100.746 30.1521 100.916 29.6783C101.085 29.2045 101.403 28.798 101.822 28.5188L129.947 9.7688C130.203 9.59798 130.49 9.47927 130.792 9.41945C131.094 9.35962 131.405 9.35986 131.707 9.42015C132.009 9.48043 132.296 9.59959 132.551 9.7708C132.807 9.94201 133.027 10.1619 133.198 10.418C133.368 10.6741 133.487 10.9613 133.547 11.2633C133.607 11.5652 133.607 11.876 133.546 12.1779C133.486 12.4797 133.367 12.7668 133.196 13.0226C133.024 13.2784 132.805 13.498 132.548 13.6688L104.423 32.4188C104.039 32.6752 103.587 32.8122 103.125 32.8126Z" fill="#D1013E"/>
<path d="M46.875 18.75C46.2534 18.7499 45.6574 18.5029 45.218 18.0633L31.1555 4.0008C30.7285 3.55876 30.4923 2.96672 30.4976 2.3522C30.503 1.73767 30.7495 1.14983 31.184 0.715278C31.6186 0.280727 32.2064 0.0342372 32.8209 0.0288972C33.4355 0.0235571 34.0275 0.259794 34.4695 0.686728L48.532 14.7493C48.8597 15.077 49.0828 15.4946 49.1732 15.9492C49.2636 16.4038 49.2172 16.8749 49.0399 17.3031C48.8625 17.7313 48.5622 18.0973 48.1768 18.3549C47.7915 18.6124 47.3385 18.7499 46.875 18.75Z" fill="#D1013E"/>
<path d="M46.8749 32.8126C46.4128 32.8122 45.961 32.6752 45.5765 32.4188L17.4515 13.6688C16.9343 13.3238 16.5753 12.7875 16.4536 12.1779C16.3933 11.876 16.3931 11.5652 16.4529 11.2633C16.5127 10.9613 16.6314 10.6741 16.8022 10.418C16.9731 10.1619 17.1927 9.94202 17.4485 9.77081C17.7043 9.59959 17.9913 9.48044 18.2932 9.42016C18.9028 9.29841 19.5359 9.42382 20.053 9.76881L48.1781 28.5188C48.5968 28.798 48.9145 29.2046 49.0842 29.6783C49.254 30.1521 49.2667 30.6679 49.1205 31.1495C48.9744 31.631 48.6771 32.0528 48.2727 32.3523C47.8683 32.6518 47.3782 32.8132 46.8749 32.8126Z" fill="#D1013E"/>
<path d="M96.0937 133.594V96.0937C96.0922 95.0902 96.2831 94.0957 96.6562 93.1641C91.9688 95.7187 89.0625 99.2344 89.0625 103.125V140.625C89.109 142.7 89.8707 144.695 91.2187 146.273C95.2988 145.6 99.3191 144.605 103.242 143.297C98.8125 140.789 96.0937 137.367 96.0937 133.594Z" fill="#7D0126"/>
<path d="M147.656 124.219V133.594C147.656 141.352 136.125 147.656 121.875 147.656C107.625 147.656 96.0938 141.352 96.0938 133.594V124.219C96.0938 131.977 107.625 138.281 121.875 138.281C136.125 138.281 147.656 131.977 147.656 124.219Z" fill="#7D0126"/>
<path d="M147.656 105.469V114.844C147.656 122.602 136.125 128.906 121.875 128.906C107.625 128.906 96.0938 122.602 96.0938 114.844V105.469C96.0938 113.227 107.625 119.531 121.875 119.531C136.125 119.531 147.656 113.227 147.656 105.469Z" fill="#7D0126"/>
<path d="M147.656 114.844V124.219C147.656 131.977 136.125 138.281 121.875 138.281C107.625 138.281 96.0938 131.977 96.0938 124.219V114.844C96.0938 122.602 107.625 128.906 121.875 128.906C136.125 128.906 147.656 122.602 147.656 114.844Z" fill="#D1013E"/>
<path d="M147.656 96.0938V105.469C147.656 113.227 136.125 119.531 121.875 119.531C107.625 119.531 96.0938 113.227 96.0938 105.469V96.0938C96.0938 103.852 107.625 110.156 121.875 110.156C136.125 110.156 147.656 103.852 147.656 96.0938Z" fill="#D1013E"/>
<path d="M147.656 96.0938C147.656 103.852 136.125 110.156 121.875 110.156C107.625 110.156 96.0938 103.852 96.0938 96.0938C96.0938 88.3359 107.625 82.0312 121.875 82.0312C136.125 82.0312 147.656 88.3359 147.656 96.0938ZM138.281 96.0938C138.281 92.2031 130.945 89.0625 121.875 89.0625C112.805 89.0625 105.469 92.2031 105.469 96.0938C105.469 99.9844 112.805 103.125 121.875 103.125C130.945 103.125 138.281 99.9844 138.281 96.0938Z" fill="#7D0126"/>
<path d="M121.875 103.125C130.936 103.125 138.281 99.977 138.281 96.0938C138.281 92.2105 130.936 89.0625 121.875 89.0625C112.814 89.0625 105.469 92.2105 105.469 96.0938C105.469 99.977 112.814 103.125 121.875 103.125Z" fill="#FF7575"/>
<path d="M138.281 96.0938C138.285 96.4964 138.205 96.8954 138.047 97.2656C136.758 93.9375 130.008 91.4062 121.875 91.4062C113.742 91.4062 106.992 93.9375 105.703 97.2656C105.545 96.8954 105.465 96.4964 105.469 96.0938C105.469 92.2031 112.805 89.0625 121.875 89.0625C130.945 89.0625 138.281 92.2031 138.281 96.0938Z" fill="#C91010"/>
<path d="M147.656 100.781V105.469C147.656 113.227 136.125 119.531 121.875 119.531C116.242 119.615 110.654 118.522 105.469 116.32C99.75 113.742 96.0938 109.828 96.0938 105.469V96.0938C96.0938 100.453 99.75 104.367 105.469 106.945C105.462 108.395 105.93 109.807 106.802 110.964C107.674 112.122 108.902 112.962 110.297 113.355C114.073 114.362 117.967 114.863 121.875 114.844C136.125 114.844 147.656 108.539 147.656 100.781Z" fill="#DE0000"/>
<path d="M147.656 110.156V114.844C147.656 122.602 136.125 128.906 121.875 128.906C116.242 128.99 110.654 127.897 105.469 125.695C99.75 123.117 96.0938 119.203 96.0938 114.844V105.469C96.0938 109.828 99.75 113.742 105.469 116.32C105.462 117.77 105.93 119.182 106.802 120.339C107.674 121.497 108.902 122.337 110.297 122.73C114.073 123.737 117.967 124.238 121.875 124.219C136.125 124.219 147.656 117.914 147.656 110.156Z" fill="#DE0000"/>
<path d="M147.656 119.531V124.219C147.656 131.977 136.125 138.281 121.875 138.281C116.242 138.365 110.654 137.272 105.469 135.07C99.75 132.492 96.0938 128.578 96.0938 124.219V114.844C96.0938 119.203 99.75 123.117 105.469 125.695C105.462 127.145 105.93 128.557 106.802 129.714C107.674 130.872 108.902 131.712 110.297 132.105C114.073 133.112 117.967 133.613 121.875 133.594C136.125 133.594 147.656 127.289 147.656 119.531Z" fill="#DE0000"/>
<path d="M147.656 128.906V133.594C147.656 141.352 136.125 147.656 121.875 147.656C116.242 147.74 110.654 146.647 105.469 144.445C99.75 141.867 96.0938 137.953 96.0938 133.594V124.219C96.0938 128.578 99.75 132.492 105.469 135.07C105.462 136.52 105.93 137.932 106.802 139.089C107.674 140.247 108.902 141.087 110.297 141.48C114.073 142.487 117.967 142.988 121.875 142.969C136.125 142.969 147.656 136.664 147.656 128.906Z" fill="#DE0000"/>
<g clip-path="url(#clip0_10_1077)">
<path d="M71.7168 66.1017L76.2068 86.234L64.0396 83.1518L70.7084 99.3824L60.3813 97.0181L74.5212 122.669L69.1332 104.183L78.9818 107.106L73.6011 91.1656L85.8051 94.3203L71.7168 66.1017Z" fill="#00C9FF"/>
<path opacity="0.3" d="M78.9817 107.113L69.1331 104.176L74.5212 122.662L66.1079 101.486L75.7062 103.951L69.9796 87.931L81.3372 90.5926L71.7167 66.1017L85.8051 94.3203L73.5937 91.1655L78.9817 107.113Z" fill="#36A9E1"/>
</g>
<defs>
<clipPath id="clip0_10_1077">
<rect width="25.4238" height="56.5678" fill="white" transform="translate(60.3813 66.1017)"/>
</clipPath>
</defs>
</svg>
