<svg width="411" height="418" fill="none" xmlns="http://www.w3.org/2000/svg"><g clip-path="url(#clip0_4375_40100)"><path d="M205.179 418C91.862 418-.001 361.75-.001 292.362c0-69.389 91.863-125.639 205.18-125.639 113.317 0 205.179 56.25 205.179 125.639C410.358 361.75 318.496 418 205.179 418z" fill="#8FB43A"/><path d="M101.353 344.543c.824 0 1.924-.092 3.024-.734l36.289-21.001c1.283-.733 2.107-2.017 2.107-3.393s-.733-2.568-2.107-3.393l-60.024-34.665c-1.1-.642-2.29-.734-3.024-.734-.825 0-1.924.092-3.024.734l-36.289 21.001c-1.283.733-2.108 2.017-2.108 3.393 0 1.375.734 2.568 2.108 3.393l60.024 34.665c1.008.55 2.199.734 3.024.734zm71.624 45.945c-4.765 0-9.255-.55-13.562-1.559a51.64 51.64 0 01-12.005-4.402l-.091-.092c-.734-.367-1.65-1.009-2.841-1.742-1.1-.734-2.291-1.468-3.483-2.201-1.191-.826-2.291-1.559-3.39-2.293-1.1-.734-1.925-1.375-2.566-1.834-3.116-2.384-5.407-5.227-6.965-8.254-1.649-3.393-2.199-6.969-1.466-10.638.642-3.485 2.566-6.878 5.498-10.271 2.841-3.118 6.782-6.052 12.097-8.895 5.865-3.118 11.546-5.411 16.953-6.787 5.407-1.375 10.538-2.109 15.395-2.201h.459c4.673 0 9.163.551 13.379 1.743 4.215 1.192 8.156 2.751 11.821 4.677a71.071 71.071 0 014.674 2.843c1.649 1.1 3.115 2.109 4.307 3.026 2.291 1.651 3.849 3.485 4.673 5.502.825 1.926 1.1 3.944.825 5.87h.642c1.741 0 3.299.55 4.582 1.467a5.436 5.436 0 012.29 5.411c-.183 1.467-.641 3.026-1.099 4.677-.642 1.926-1.741 3.943-3.299 5.961-1.466 1.926-3.482 3.76-6.048 5.869-2.475 2.018-5.865 4.035-9.897 6.236-5.04 2.66-10.264 4.677-15.396 5.961-5.131 1.192-10.172 1.834-14.937 1.926h-.55zm-3.207-31.089c.183.092.367.275.55.367 1.649 1.1 3.207 1.651 4.765 1.834.275 0 .55.092.825.092.733 0 1.374-.092 1.924-.367-.183-.092-.275-.183-.458-.367-1.649-1.1-3.299-1.742-4.857-1.926-.275 0-.55-.091-.825-.091-.641.091-1.283.183-1.924.458zm115.318 14.306l117.94-67.954c2.474-1.468 2.474-3.76 0-5.228L163.667 162.229c-2.474-1.467-6.506-1.467-8.981 0L36.747 230.276c-2.474 1.467-2.474 3.76 0 5.227l239.361 138.202c2.474 1.468 6.506 1.468 8.98 0z" fill="#81A332"/><path d="M292.969 27.696l6.049 3.484c0-.275-.092-.55-.092-.825v-1.742c0-3.118 2.199-4.31 4.857-2.843 1.099.642 2.107 1.65 2.932 2.751.458-3.852 3.482-5.319 7.24-3.21 4.032 2.293 7.239 7.979 7.239 12.564v2.568c0 1.192-.183 2.2-.641 3.026l4.948 2.843c1.466.826 2.658 2.935 2.658 4.677 0 1.743-1.192 2.385-2.658 1.56l-32.532-18.617c-1.466-.826-2.657-2.935-2.657-4.677 0-1.651 1.191-2.385 2.657-1.56zm39.68-15.957l3.299 1.284V5.686c0-5.778 4.582-7.153 9.622-4.31 5.04 2.934 9.072 9.904 9.072 15.682v1.1c1.1-.458 2.566-.275 4.216.642 3.574 2.11 6.506 7.153 6.506 11.28v.459l4.582 2.66c2.383 1.375 4.307 4.676 4.307 7.427 0 2.752-1.924 3.852-4.307 2.476l-37.389-21.55c-2.382-1.376-4.307-4.678-4.307-7.429.092-2.568 2.016-3.76 4.399-2.384z" fill="#EBEBEB"/><path d="M382.134 279.156l-6.232-3.577s-3.757-15.407-2.199-29.346c2.107-19.534 14.937-26.87 19.794-25.219 4.857 1.65 6.323 7.336-1.741 18.983-4.857 6.878-10.722 21.184-9.622 39.159z" fill="#941759"/><path opacity=".15" d="M382.134 279.156l-6.232-3.577s-3.757-15.407-2.199-29.346c2.107-19.534 14.937-26.87 19.794-25.219 4.857 1.65 6.323 7.336-1.741 18.983-4.857 6.878-10.722 21.184-9.622 39.159z" fill="#000"/><path d="M379.568 271.636c.274-.092.458-.276.366-.551-3.391-17.974 2.841-38.242 10.63-46.679a.443.443 0 000-.641.441.441 0 00-.641 0c-7.973 8.62-14.296 29.162-10.905 47.412.091.275.275.459.55.459z" fill="#fff"/><path d="M399.362 291.353c1.008.458 3.574-1.743 4.307-2.293 1.283-.917 2.199-2.201 2.841-3.668.733-1.651.824-3.394.458-5.228a12.824 12.824 0 00-.825-2.659c-.275-.917-.641-1.743-.916-2.66-.275-.825-.55-1.742-.55-2.659.183-1.834 1.649-3.21 3.115-4.31 1.558-1.284 3.208-3.027 3.025-5.136-.092-1.651-1.008-3.21-2.2-4.494-1.099-1.283-2.382-2.384-3.39-3.76-.734-1.008-1.283-2.109-1.283-3.301 0-.734.275-1.467.641-2.201.733-1.467 1.65-2.843 2.108-4.402.458-1.559.275-3.485-1.008-4.494-1.008-.825-2.474-.917-3.849-.733-1.191.183-2.383.733-3.391 1.375-3.39 2.11-5.131 6.328-8.797 7.979-1.375.642-2.932.825-4.399 1.284-1.466.458-2.932 1.284-3.574 2.659-1.191 2.751 1.467 5.961.642 8.896-.733 2.568-3.116 3.668-4.399 6.052-.55 1.009-.641 2.201-.458 3.394.275 1.926.642 3.393 1.65 5.502.916 1.743 3.299 5.136 3.299 5.136s16.769 9.629 16.953 9.721z" fill="#941759"/><path d="M389.831 286.401c.275 0 .458-.275.367-.459-1.558-17.149 5.59-36.499 11.18-42.277a.444.444 0 000-.642.444.444 0 00-.642 0c-5.681 5.961-13.012 25.587-11.363 43.011 0 .183.183.367.458.367z" fill="#fff"/><path d="M391.481 265.216h.091c5.407-2.017 12.28-2.659 12.372-2.659.275 0 .458-.275.366-.459 0-.275-.183-.458-.458-.367-.092 0-7.056.642-12.555 2.66-.183.092-.366.367-.274.55.091.184.274.367.458.275z" fill="#fff"/><path d="M395.238 301.348l-109.692 63.369c-3.574 2.018-7.789 2.11-11.455.184L53.242 237.336c-3.482-2.017-6.323-6.511-6.323-9.996 0-3.576 2.84-8.07 6.323-9.996l109.233-63.094c3.483-2.018 9.164-2.018 12.555 0l220.208 127.106c3.482 2.017 6.323 6.511 6.323 9.996 0 3.576-2.841 8.07-6.323 9.996z" fill="#37474F"/><path d="M285.546 364.718l109.692-63.369c3.482-2.018 6.323-6.511 6.323-9.996 0-3.577-2.841-8.07-6.323-9.996L279.59 214.502v151.867c2.108 0 4.124-.55 5.956-1.651z" fill="#263238"/><path d="M282.98 353.438c-3.024 1.743-8.064 1.743-11.088 0L53.334 227.158c-4.674-2.751-4.674-7.153 0-9.905l109.325-63.186c3.482-2.017 9.164-2.017 12.554 0l220.025 127.29c3.482 2.017 3.482 5.319 0 7.244L282.98 353.438z" fill="#455A64"/><path d="M272.35 340.782c-3.299 1.926-8.706 1.926-12.005 0L72.303 232.11c-3.3-1.926-3.3-5.044 0-6.878l102.818-59.426c3.299-1.926 8.706-1.926 12.005 0l188.043 108.672c3.299 1.926 3.299 5.044 0 6.878L272.35 340.782z" fill="#37474F"/><path d="M180.711 164.338c-2.016.092-4.032.551-5.59 1.376L72.303 225.14c-3.3 1.926-3.3 5.044 0 6.878l20.344 11.739 88.064-56.308v-23.111z" fill="#263238"/><path d="M187.126 170.299c-3.299-1.925-8.705-1.925-12.004 0L72.303 229.725c-.641.367-1.191.826-1.558 1.284.367.459.916.826 1.466 1.192l188.135 108.581c3.299 1.926 8.705 1.926 12.004 0l102.819-59.426c.642-.366 1.191-.825 1.558-1.284-.367-.458-.825-.825-1.466-1.192L187.126 170.299z" fill="#FAFAFA"/><path d="M109.875 197.353l18.236-10.546c1.099-.642 1.099-1.651.091-2.201s-2.749-.55-3.848.092l-18.237 10.546c-1.099.642-1.099 1.651-.091 2.201 1.099.642 2.749.55 3.849-.092zm31.34-17.975c1.008-.55 1.008-1.559 0-2.109s-2.657-.55-3.665 0-1.008 1.559 0 2.109c.916.551 2.565.551 3.665 0zm7.331-4.31c1.008-.55 1.008-1.559 0-2.109s-2.657-.55-3.665 0-1.008 1.559 0 2.109c1.008.551 2.657.551 3.665 0zM89.44 209.183c1.007-.55 1.007-1.559 0-2.109-1.009-.55-2.658-.55-3.666 0s-1.008 1.559 0 2.109c1.008.642 2.657.642 3.665 0zm7.422-4.218c1.008-.55 1.008-1.559 0-2.109-1.008-.551-2.657-.551-3.665 0-1.008.55-1.008 1.559 0 2.109s2.657.55 3.665 0z" fill="#263238"/><path d="M276.932 310.428v.367c0 .642-.458 1.375-1.008 1.742l-21.352 12.38c-.55.276-1.466.276-2.016 0l-35.464-20.45c-.55-.275-1.008-1.101-1.008-1.743v-.366c0-.642.458-1.376 1.008-1.743l21.352-12.38c.55-.275 1.466-.275 2.016 0l35.464 20.45c.55.275 1.008 1.101 1.008 1.743z" fill="#941759"/><path d="M276.932 310.428v.367c0 .642-.458 1.375-1.008 1.742l-21.352 12.38c-.55.276-1.466.276-2.016 0l-35.464-20.45c-.55-.275-1.008-1.101-1.008-1.743v-.366c0-.642.458-1.376 1.008-1.743l21.352-12.38c.55-.275 1.466-.275 2.016 0l35.464 20.45c.55.275 1.008 1.101 1.008 1.743z" fill="#941759"/><path opacity=".3" d="M217.092 300.523l21.352-12.38c.55-.275 1.466-.275 2.016 0l13.013 7.52v29.346c-.367 0-.733-.092-1.008-.275L217 304.283c-.549-.275-1.008-1.1-1.008-1.742v-.367c.092-.55.55-1.284 1.1-1.651z" fill="#fff"/><path opacity=".15" d="M217.092 300.523l21.352-12.38c.55-.275 1.466-.275 2.016 0l13.013 7.52v29.346c-.367 0-.733-.092-1.008-.275L217 304.283c-.549-.275-1.008-1.1-1.008-1.742v-.367c.092-.55.55-1.284 1.1-1.651z" fill="#000"/><path opacity=".3" d="M253.564 295.754l22.36 12.931c.55.275 1.008 1.101 1.008 1.742v.367c0 .642-.458 1.376-1.008 1.743l-21.352 12.38c-.275.184-.641.275-1.008.275v-29.438z" fill="#fff"/><path opacity=".2" d="M253.564 295.754l22.36 12.931c.55.275 1.008 1.101 1.008 1.742v.367c0 .642-.458 1.376-1.008 1.743l-21.352 12.38c-.275.184-.641.275-1.008.275v-29.438z" fill="#000"/><path d="M257.963 320.24l17.962-10.363c.549-.275.549-.825 0-1.192l-35.465-20.45c-.55-.275-1.466-.275-2.016 0l-21.352 12.38c-.549.275-.549.825 0 1.192l5.865 3.393 2.016 1.193 27.492 15.865c.55.275 1.466.275 2.016 0l1.741-1.009 1.741-1.009z" fill="#941759"/><path opacity=".3" d="M257.963 320.24l17.962-10.363c.549-.275.549-.825 0-1.192l-35.465-20.45c-.55-.275-1.466-.275-2.016 0l-21.352 12.38c-.549.275-.549.825 0 1.192l5.865 3.393 2.016 1.193 27.492 15.865c.55.275 1.466.275 2.016 0l1.741-1.009 1.741-1.009z" fill="#fff"/><path opacity=".15" d="M241.652 302.999l-24.56-2.384 24.285 1.376-2.933-13.756c.275-.184.733-.276 1.1-.184l4.582 18.617 32.165 2.659a.794.794 0 01-.367.642l-25.933-1.467 3.574 14.123-4.582-14.123-4.399-.275c-.55 0-1.1-.275-1.466-.642-.367-.367-.642-.734-.733-1.284l-.733-3.302z" fill="#000"/><path opacity=".3" d="M268.685 308.594l-24.468-2.018-.916-3.485-.458-1.926-3.207-13.206c.366 0 .641.092.916.184l17.686 10.271 17.686 10.271c.275.184.367.367.367.55l-4.948-.366-2.658-.275z" fill="#fff"/><path d="M280.048 307.264c-2.2-1.284-5.865-1.284-8.064 0-2.2 1.284-2.2 3.393 0 4.677 2.199 1.284 5.864 1.284 8.064 0 2.199-1.284 2.199-3.393 0-4.677z" fill="#F28F8F"/><path d="M202.43 294.746l24.101-13.94c.55-.275.55-.825 0-1.1l-87.332-50.439c-.55-.275-1.466-.275-2.016 0l-24.101 13.939c-.55.275-.55.826 0 1.101l87.332 50.439c.55.366 1.466.366 2.016 0z" fill="#941759"/><path d="M204.813 282.915l-71.295-41.176c-.917-.55-2.2-.55-2.841-.184-.733.367-.55 1.193.275 1.651l71.295 41.177c.916.55 2.199.55 2.84.183.734-.367.642-1.101-.274-1.651zm-4.949 2.935l-71.295-41.177c-.916-.55-2.199-.55-2.841-.183-.733.367-.55 1.192.275 1.651l71.295 41.176c.916.55 2.199.55 2.841.184.733-.459.55-1.193-.275-1.651z" fill="#FAFAFA"/><path d="M305.615 312.537l37.297-21.459-166.783-96.384-37.938 21.092 167.424 96.751z" fill="#E0E0E0"/><path d="M315.695 178.461L157.16 86.846l-6.323 3.668c-1.649.918-3.024 3.302-3.024 5.136v117.11c0 1.926 1.375 4.218 3.024 5.135l152.579 88.222c1.649.917 4.307.917 5.956 0l3.391-1.925c1.65-.918 3.024-3.302 3.024-5.136l-.092-120.595z" fill="#941759"/><path opacity=".2" d="M315.695 178.461L157.16 86.846l-6.323 3.668c-1.649.918-3.024 3.302-3.024 5.136v117.11c0 1.926 1.375 4.218 3.024 5.135l152.579 88.222c1.649.917 4.307.917 5.956 0l3.391-1.925c1.65-.918 3.024-3.302 3.024-5.136l-.092-120.595z" fill="#000"/><path d="M157.985 76.575l-.641-.367 2.474-1.467c.184-.092.458-.275.642-.275l69.828-25.862c1.833-.642 4.216.092 5.316 1.743L313.68 164.43c1.099 1.651 2.016 4.586 2.016 6.511v7.612l-2.383 1.376-156.152-93.083v-7.612c0-.917.275-1.834.824-2.659z" fill="#941759"/><path opacity=".1" d="M232.396 50.806l.825.825 78.076 114.083c.55.826 1.1 2.018 1.466 3.302l2.383-1.376c-.183-.55-.367-1.192-.641-1.742v-.092a2.784 2.784 0 00-.367-.734s0-.091-.092-.091c-.091-.275-.275-.459-.458-.734L235.512 50.164c-.092-.184-.275-.367-.367-.459-.091-.091-.275-.275-.458-.367l-2.291 1.468z" fill="#000"/><path opacity=".35" d="M157.435 76.209c.184-.092.459-.276.642-.367l69.829-25.862c1.466-.55 3.299-.183 4.582.826l2.382-1.376c-1.283-1.009-3.024-1.376-4.582-.825l-69.829 25.861c-.183.092-.458.184-.641.367l-2.383 1.376z" fill="#fff"/><path d="M314.138 165.073c-.092-.276-.275-.459-.459-.642.184.183.275.366.459.642zM235.237 49.797c-.092-.092-.275-.275-.458-.367.183.092.366.275.458.367zm79.909 117.843c-.183-.642-.367-1.192-.641-1.742.274.55.458 1.1.641 1.742zm-.642-1.742c-.091-.275-.183-.459-.366-.642.183.183.275.367.366.642z" fill="#941759"/><path opacity=".2" d="M314.229 165.164s0-.092-.092-.092c0 0 0 .092.092.092zM235.604 50.255c-.092-.183-.275-.366-.367-.458.183.183.275.275.367.458z" fill="#000"/><path d="M233.221 51.723l78.076 114.083c1.1 1.651 2.016 4.585 2.016 6.511v7.612L154.686 88.314v-7.612c0-1.926 1.466-4.127 3.299-4.769l69.829-25.861c1.924-.826 4.307 0 5.407 1.65z" fill="#941759"/><path opacity=".05" d="M154.686 80.702c0-.917.367-1.834.825-2.66l157.16 91.065c.367 1.101.55 2.293.55 3.21v7.612L154.594 88.314l.092-7.612z" fill="#000"/><path d="M161.468 48.513c0-.825.275-1.376.733-1.65.458-.276 4.398-2.569 4.857-2.752.458-.275 1.099-.275 1.832.184l130.036 75.199c1.466.826 2.566 2.843 2.566 4.494V279.89c0 .825-.275 1.375-.733 1.65-.459.275-4.399 2.476-4.857 2.751-.458.276-1.1.276-1.833-.183l-130.036-75.2c-1.466-.825-2.565-2.843-2.565-4.493V48.513z" fill="#941759"/><path opacity=".95" d="M161.468 48.513c0-.825.275-1.376.733-1.65.458-.276 4.398-2.569 4.857-2.752.458-.275 1.099-.275 1.832.184l130.036 75.199c1.466.826 2.566 2.843 2.566 4.494V279.89c0 .825-.275 1.375-.733 1.65-.459.275-4.399 2.476-4.857 2.751-.458.276-1.1.276-1.833-.183l-130.036-75.2c-1.466-.825-2.565-2.843-2.565-4.493V48.513z" fill="#fff"/><path d="M294.161 284.016l-130.036-75.199c-1.466-.826-2.566-2.843-2.566-4.494V48.421c0-1.65 1.192-2.292 2.566-1.467l130.036 75.199c1.466.826 2.566 2.843 2.566 4.494v155.902c0 1.651-1.192 2.293-2.566 1.467z" fill="#941759"/><path opacity=".8" d="M294.161 284.016l-130.036-75.199c-1.466-.826-2.566-2.843-2.566-4.494V48.421c0-1.65 1.192-2.292 2.566-1.467l130.036 75.199c1.466.826 2.566 2.843 2.566 4.494v155.902c0 1.651-1.192 2.293-2.566 1.467z" fill="#fff"/><path d="M296.726 282.549c0 .734-.183 1.284-.641 1.559.825-.458 4.215-2.476 4.674-2.659.458-.275.733-.826.733-1.651V123.805c0-.826-.275-1.743-.733-2.568l-4.857 2.751c.458.825.733 1.742.733 2.568v155.993h.091z" fill="#941759"/><path opacity=".7" d="M296.726 282.549c0 .734-.183 1.284-.641 1.559.825-.458 4.215-2.476 4.674-2.659.458-.275.733-.826.733-1.651V123.805c0-.826-.275-1.743-.733-2.568l-4.857 2.751c.458.825.733 1.742.733 2.568v155.993h.091z" fill="#fff"/><path opacity=".05" d="M296.726 282.549c0 .734-.183 1.284-.641 1.559.825-.458 4.215-2.476 4.674-2.659.458-.275.733-.826.733-1.651V123.805c0-.826-.275-1.743-.733-2.568l-4.857 2.751c.458.825.733 1.742.733 2.568v155.993h.091z" fill="#000"/><path d="M249.258 164.706c.55 14.489-.367 45.578-.367 45.578s-15.395 4.677-25.842 2.935c-10.447-1.743-32.807-17.608-32.807-17.608L194 161.955l55.258 2.751z" fill="#37474F"/><path d="M213.61 209.734l-2.474-23.661c-9.805-5.869-13.013-13.939-13.013-13.939 8.889 11.647 18.236 9.812 18.236 9.812v29.072c-.916-.367-1.832-.826-2.749-1.284z" fill="#263238"/><path d="M187.86 121.053c-2.474-12.655-3.574-29.438 7.331-32.464 2.841-.825 10.172-.275 10.172-.275l11.821.55c6.598.826 15.854 2.11 18.236 2.751 6.323 1.56 8.248 11.922 11.089 34.941 1.741 14.398 3.299 25.678 3.299 39.709-11.639 10.454-47.927 6.328-56.175-.459-.367-15.865-1.283-21.734-5.773-44.753z" fill="#455A64"/><path d="M219.2 84.554c.092 2.293-2.565 6.236-6.598 8.896-4.032 2.75-7.514 3.851-7.972 4.952 1.924.367 3.665 1.284 5.132 4.585 1.374 3.118 1.374 3.302 6.048 0 4.673-3.301 8.889-10.73 8.889-13.206 0-2.476-3.666-7.336-5.499-6.878v1.651zm-14.57 13.939c-1.375-1.467-2.658-5.227-2.841-6.878-.183-1.65-.641-5.869-.641-5.869s-1.1.275-1.65 1.009c-.55.734-3.024 5.96-2.932 8.804.091 2.843.733 6.786 1.741 8.437 1.008 1.65 1.649-1.284 2.291-2.385.825-1.467 1.924-3.118 4.032-3.118zm1.832 3.302s-.183 10.363.734 15.957c0 0-3.116.55-6.14-.183 0 0 1.558 1.925 7.423 1.1-.092-.092-1.833-10.913-2.017-16.874z" fill="#37474F"/><path d="M181.903 53.832c.092-9.079 7.607-16.415 16.77-16.232 8.523.092 15.396 6.695 16.129 15.04l7.514-5.319s2.749-.459 4.857 1.742c2.016 2.201.825 8.804-1.924 15.315 0 0-2.658 11.83-3.758 13.757-1.008 1.925-3.115 2.476-3.115 2.476l.275-7.245-29.966-2.11 2.932-2.109c-5.865-2.751-9.897-8.62-9.714-15.315z" fill="#263238"/><path d="M218.925 64.745c.917.55 1.833-1.376 3.574-2.476 1.467-.917 4.765-2.384 6.965 1.192 2.382 3.944-1.925 9.354-4.857 10.455-4.399 1.65-5.957-1.834-5.957-1.834l.917 18.341c-5.957 10.913-23.735 10.18-17.686 1.1l-.734-7.06s-4.765.641-7.056.274c-3.849-.642-6.231-3.76-7.331-7.886-1.741-6.695-2.382-12.106-.641-25.22 1.924-14.398 18.694-14.306 27.583-8.437 8.981 5.87 5.223 21.551 5.223 21.551z" fill="#FFA8A7"/><path d="M182.453 38.242c1.191-.642 2.658-.734 4.032-.459-.275-2.109 1.1-4.126 2.933-4.952 2.199-1.009 4.215-.642 6.231.826-.366-1.468.916-2.935 2.383-3.302 1.466-.367 3.024.183 4.398.734 2.108.825 4.216 1.742 6.323 2.384 3.758 1.284 7.79 2.018 11.18 4.035.825.459 1.558 1.009 2.108 1.834.733 1.1 1.008 2.385.916 3.76 0 .459-.091.826-.183 1.284.275-.275.55-.55.917-.733 1.649-.826 3.573-.184 4.307 1.467l-5.682 2.934c.183 1.101.275 2.293.367 3.394.274 3.026.916 6.51.183 9.537-.092.367-.092.734-.367 1.009 0 0-1.466 1.1-2.932 2.843-.458.55-1.008 1.376-1.65 1.65-.733.184-1.741-.183-1.924-.916-.183-.459-.092-.918-.092-1.376.184-1.834.367-3.76.55-5.594.092-.459.092-1.009-.092-1.468-.274-.641-.824-1.008-1.374-1.467a6.42 6.42 0 01-2.199-4.493c0-.55 0-1.1-.184-1.56-.091-.366-.458-1.008-.916-1.008-.917 0-5.59 1.009-6.781 1.192-6.232.825-12.921 1.009-18.328-2.018-2.108-1.192-5.773-3.668-6.14-6.327-.092-1.1.733-2.476 2.016-3.21z" fill="#263238"/><path d="M201.056 84.554s8.614-1.559 11.638-3.118c2.016-1.009 3.665-2.843 4.215-4.035 0 0-.641 2.568-2.382 4.769-2.2 2.75-13.105 4.677-13.105 4.677l-.366-2.293z" fill="#F28F8F"/><path d="M201.422 63.186c0 .917.733 1.651 1.558 1.651.916 0 1.649-.734 1.649-1.65 0-.918-.733-1.651-1.557-1.651-.917 0-1.65.733-1.65 1.65zm3.116-5.961l3.757 1.834c.458-1.1 0-2.384-1.008-2.842-1.008-.55-2.291-.092-2.749 1.008z" fill="#263238"/><path d="M204.446 73.274l-6.781 2.476c.642 1.926 2.658 3.026 4.582 2.293 1.833-.734 2.841-2.843 2.199-4.77z" fill="#B16668"/><path d="M200.139 78.135c.275-1.926 2.016-3.302 3.941-3.027.183 0 .275.092.458.092-.275 1.284-1.1 2.384-2.383 2.843-.641.183-1.282.183-2.016.092z" fill="#F28F8F"/><path d="M186.668 58.417l3.666-1.925c-.458-1.01-1.741-1.376-2.749-.826-1.008.55-1.466 1.743-.917 2.751zm1.833 4.494c0 .917.733 1.65 1.558 1.65.916 0 1.649-.733 1.649-1.65 0-.917-.733-1.65-1.557-1.65-.917 0-1.65.733-1.65 1.65z" fill="#263238"/><path d="M196.749 61.902l-.367 10.455-6.14-1.467 6.507-8.988z" fill="#F28F8F"/><path d="M151.845 214.319c.092.092.092.184.183.275l66.072-21c5.223-2.293 11.271-.459 14.296 4.402l70.653 105.096 2.658 1.467c.824.458 1.466.458 2.016.183l-72.67-108.214c-3.024-4.86-9.072-6.694-14.296-4.402l-68.912 22.193z" fill="#941759"/><path opacity=".4" d="M238.902 208.266l-.183-.183L303.049 303l2.658 1.467c.824.459 1.466.459 2.016.183l-66.255-98.034-2.566 1.65zm-87.057 6.053c.092.092.092.184.183.275l66.072-21.001c5.223-2.292 11.272-.458 14.296 4.402l2.657-1.559c-3.024-4.768-9.072-6.694-14.295-4.402l-68.913 22.285z" fill="#fff"/><path d="M147.905 94.917c.183-.826.642-1.1 1.191-.734.184.183.459.459.733.825l.367.459 65.247 99.227 9.714 13.572c1.099 1.56 3.482 2.477 5.406 2.018l8.431-2.018 64.147-23.66c.458-.092.917-.092 1.283-.092.183 0 .367.092.458.184l-2.382-1.376-61.49 22.56-8.064 2.935c-1.833.458-4.216-.459-5.407-2.018l-9.714-13.572-65.705-99.686c-.183-.275-.458-.55-.733-.642l5.682-3.301-2.383-1.376-3.94 2.293c-1.375.825-2.566 2.66-2.841 4.402z" fill="#941759"/><path opacity=".4" d="M215.351 194.694l9.714 13.573c1.1 1.559 3.482 2.476 5.407 2.017l8.43-2.017-.183-.184-.366-.642-5.499 1.284c-1.833.459-4.215-.458-5.407-2.017l-9.622-13.39-2.474 1.376z" fill="#fff"/><path opacity=".1" d="M150.837 90.515l3.941-2.293 2.382 1.376-5.681 3.301c.275.184.55.367.733.642l65.522 99.686.091.091-2.382 1.284-65.247-99.227-.367-.458c-.275-.367-.55-.642-.733-.826-.55-.366-1.008-.183-1.191.734.275-1.65 1.466-3.485 2.932-4.31z" fill="#000"/><path d="M301.766 186.532l14.021-8.07v120.503c0 1.926-1.374 4.218-3.024 5.135l-3.391 1.926c-1.649.917-4.307.917-5.956 0l-1.65-1.009V186.532z" fill="#941759"/><path opacity=".15" d="M301.766 186.532l14.021-8.07v120.503c0 1.926-1.374 4.218-3.024 5.135l-3.391 1.926c-1.649.917-4.307.917-5.956 0l-1.65-1.009V186.532z" fill="#000"/><path d="M147.813 95.65v117.11c0 1.009.367 2.11.917 3.027a5.944 5.944 0 001.741 1.926l.092.091c.091.092.091.092.183.092l152.578 88.13c.825.459 1.467.55 2.016.275.459-.275.825-.733.917-1.467V187.266c0-1.926-1.466-3.118-3.391-2.66l-64.147 23.661-8.431 2.017c-1.832.459-4.307-.458-5.406-2.017l-9.714-13.573-65.247-99.227-.366-.458c-.825-1.56-1.742-1.192-1.742.642z" fill="#941759"/><path d="M150.746 217.896c-.092 0-.092-.092-.184-.092l-.091-.092c-.642-.458-1.283-1.192-1.741-1.925-.55-.918-.917-2.018-.917-2.935l67.538-18.066-45.27 34.39-19.335-11.28z" fill="#941759"/><path opacity=".2" d="M150.746 217.896c-.092 0-.092-.092-.184-.092l-.091-.092c-.642-.458-1.283-1.192-1.741-1.925-.55-.918-.917-2.018-.917-2.935l67.538-18.066-45.27 34.39-19.335-11.28z" fill="#000"/><path d="M306.348 304.375c0 1.009-.366 1.651-.916 1.926-.55.275-1.283.184-2.016-.275l-52.509-30.355-12.005-67.404 67.538 94.091-.092 2.017z" fill="#941759"/><path opacity=".15" d="M232.396 197.995l73.036 108.306c.55-.275.916-1.009.916-1.926v-1.926l-71.295-105.921-2.657 1.467z" fill="#000"/><path d="M148.73 215.787a5.93 5.93 0 001.741 1.925l.092.092 152.853 88.314c.825.458 1.466.55 2.016.275l-73.128-108.398c-3.024-4.86-9.164-6.694-14.387-4.401l-69.187 22.193z" fill="#941759"/><path opacity=".15" d="M315.145 167.64l-2.382 1.376c.366 1.1.55 2.292.55 3.301v7.612l2.382-1.376v-7.611a10.82 10.82 0 00-.55-3.302z" fill="#000"/><path d="M302.408 183.322l2.383 1.468 2.474-1.468 6.048-3.484-2.383-1.376-8.522 4.86z" fill="#941759"/><path opacity=".1" d="M302.316 183.414l8.706-4.952 2.382 1.376-6.048 3.484-2.474 1.376c-.183-.092-.275-.092-.458-.183a2.1 2.1 0 00-1.283.091l-4.857 1.834-55.991 20.634-.917-1.283 60.94-22.377z" fill="#000"/><path d="M235.42 91.615c7.789.55 13.104 2.385 18.144 14.49 3.208 7.795 15.946 35.766 17.137 40.443 1.466 5.41 4.674 46.77 4.674 46.77l-7.423 2.751s2.566 8.896 4.673 13.94c2.475 5.869-9.622 4.585-13.471-.734-3.848-5.319-6.506-12.472-4.398-14.948 2.841-3.301 5.865-5.411 5.865-5.411l-8.156-36.866-17.045-36.224c.092 0-8.431-17.883 0-24.21z" fill="#FFA8A7"/><path d="M260.621 188.916c3.94-2.201 7.514-2.109 7.514-2.109s-3.94-1.284-7.881 0l.367 2.109z" fill="#F28F8F"/><path d="M233.679 91.248c4.399 0 12.555-.275 17.778 9.263 5.315 9.537 12.738 27.695 12.738 27.695s-3.116 7.612-19.703 9.263l-12.737-27.054s-3.116-12.472 1.924-19.167z" fill="#37474F"/><path d="M177.321 97.484c-6.598 5.136-17.228 13.298-22.36 16.599-3.94-4.769-11.088-14.306-12.829-16.415-2.2-2.66-9.256-7.062-9.256-7.062l-2.657 10.638s13.287 24.578 18.144 29.071c5.04 4.769 8.798 2.843 18.695-1.742 9.347-4.31 19.519-9.629 19.519-9.629-2.016-17.883-.642-27.512 7.881-30.539-5.774.734-11.639 4.769-17.137 9.08z" fill="#FFA8A7"/><path d="M160.185 110.506c3.39.918 10.538 11.005 9.255 17.425l18.053-8.896c-2.199-12.289-2.657-27.512 7.698-30.447a12.937 12.937 0 013.024-.366c-5.132-.55-8.523-.367-14.021 3.76-5.315 3.943-24.009 18.524-24.009 18.524z" fill="#37474F"/><path d="M154.961 114.083c2.566 2.293 3.391 6.328 3.941 7.978 0 0 .55-4.768-2.474-8.987l-1.467 1.009z" fill="#F28F8F"/><path d="M129.761 78.776l-6.232-3.76s-.733 33.381-.733 34.482c0 1.1-1.283 2.109-1.283 2.109l6.232 3.76s1.283-1.1 1.283-2.109c.091-1.101.733-34.482.733-34.482z" fill="#37474F"/><path d="M123.346 88.956s-1.741.458-2.474 3.21c-.642 2.75-1.008 8.07.55 9.812 1.557 1.742 3.757 2.476 5.223 1.834 2.658-1.192 1.833-6.603-.275-7.887-3.482-2.017-3.024-4.218-3.024-4.218v-2.751z" fill="#FFA8A7"/><path d="M137.458 78.868l-2.749 3.301-.458 23.569 2.749 4.585-9.164 5.044c.825-.734 1.192-1.376 1.283-2.109l.55-30.172 7.789-4.218z" fill="#455A64"/><path d="M137 110.323l-.092 1.468-9.164 5.043v-1.467l9.256-5.044z" fill="#941759"/><path d="M127.745 116.835l-6.232-3.76.092-1.468 6.14 3.76v1.468z" fill="#941759"/><path opacity=".1" d="M127.745 116.835l-6.232-3.76.092-1.468 6.14 3.76v1.468z" fill="#000"/><path d="M135.626 62.452c1.191-.275 2.566.184 3.849 1.56l.091.09c2.566 2.752 3.757 7.888 2.658 11.464v.092c-.55 1.834-1.65 2.935-2.841 3.118l-5.315 1.284-3.299-16.416 4.857-1.192z" fill="#941759"/><path opacity=".7" d="M135.626 62.452c1.191-.275 2.566.184 3.849 1.56l.091.09c2.566 2.752 3.757 7.888 2.658 11.464v.092c-.55 1.834-1.65 2.935-2.841 3.118l-5.315 1.284-3.299-16.416 4.857-1.192z" fill="#fff"/><path opacity=".05" d="M139.291 78.776l-5.315 1.284-1.099-5.41 9.713-2.294c0 1.1-.091 2.201-.366 3.21v.092c-.642 1.834-1.65 2.934-2.933 3.118z" fill="#000"/><path d="M124.812 62.91c1.375-.274 2.933.184 4.399 1.56l.458.458c.184.184.367.367.55.642l.825 1.1c.458.734.825 1.468 1.191 2.293.917 2.201 1.375 4.677 1.375 6.97 0 1.192-.184 2.293-.55 3.301-.642 2.202-1.924 3.485-3.299 3.944l5.132-1.192c1.832-.459 3.39-1.926 4.032-4.035.275-1.01.458-2.018.458-3.21a17.375 17.375 0 00-1.283-7.153 17.977 17.977 0 00-1.191-2.293l-.825-1.1c-.183-.184-.367-.459-.55-.642l-.458-.459c-1.466-1.284-3.299-1.742-4.949-1.376h-.366l-4.949 1.193z" fill="#941759"/><path opacity=".1" d="M134.618 81.986c1.832-.55 3.39-1.926 4.032-4.035.275-1.01.458-2.018.458-3.21l-5.773 1.192c0 1.192-.184 2.293-.55 3.301-.642 2.201-1.925 3.485-3.299 3.944l5.132-1.192z" fill="#000"/><path d="M121.33 66.854c-1.375 4.494.092 10.913 3.299 14.306 1.649 1.743 3.391 2.385 4.857 2.018h.091c1.467-.367 2.658-1.743 3.299-3.944 1.375-4.493-.091-10.913-3.299-14.306-1.557-1.742-3.299-2.384-4.856-2.017-1.467.366-2.75 1.742-3.391 3.943z" fill="#941759"/><path opacity=".2" d="M121.33 66.854c-1.375 4.494.092 10.913 3.299 14.306 1.649 1.743 3.391 2.385 4.857 2.018h.091c1.467-.367 2.658-1.743 3.299-3.944 1.375-4.493-.091-10.913-3.299-14.306-1.557-1.742-3.299-2.384-4.856-2.017-1.467.366-2.75 1.742-3.391 3.943z" fill="#000"/><path d="M100.07 59.15s5.957 5.778 8.889 18.158c.55 2.385.916 4.677 1.1 6.695.733 8.437-1.008 13.48-1.008 13.48 3.665-4.585 7.972-9.078 13.562-11.921a58.338 58.338 0 016.781-2.843c1.375-.275 2.475-1.559 3.116-3.576.367-1.376.55-2.843.458-4.402-.091-1.01-.183-1.926-.458-2.935-.55-2.476-1.741-4.86-3.299-6.603-1.466-1.559-3.024-2.2-4.398-1.834 0 0-3.483.367-7.332.367-6.231.091-12.096-2.11-17.411-4.586z" fill="#941759"/><path opacity=".7" d="M100.07 59.15s5.957 5.778 8.889 18.158c.55 2.385.916 4.677 1.1 6.695.733 8.437-1.008 13.48-1.008 13.48 3.665-4.585 7.972-9.078 13.562-11.921a58.338 58.338 0 016.781-2.843c1.375-.275 2.475-1.559 3.116-3.576.367-1.376.55-2.843.458-4.402-.091-1.01-.183-1.926-.458-2.935-.55-2.476-1.741-4.86-3.299-6.603-1.466-1.559-3.024-2.2-4.398-1.834 0 0-3.483.367-7.332.367-6.231.091-12.096-2.11-17.411-4.586z" fill="#fff"/><path opacity=".05" d="M110.059 84.003c.733 8.437-1.008 13.481-1.008 13.481 3.665-4.585 7.972-9.079 13.562-11.922a58.359 58.359 0 016.781-2.843c1.375-.275 2.475-1.559 3.116-3.576.367-1.376.55-2.843.458-4.402-6.231 1.1-16.495 3.393-22.909 9.262z" fill="#000"/><path d="M83.667 65.203c-1.466 4.677-1.558 10.271-.55 15.682 1.191 6.97 4.215 13.848 8.522 18.433 7.606 8.162 16.404 6.145 19.703-4.585.733-2.476 1.099-5.136 1.191-7.887.183-6.878-1.65-14.306-4.949-20.267-.458-.825-.916-1.65-1.466-2.476-.183-.367-.458-.642-.641-.917a6.951 6.951 0 00-1.008-1.284c-.367-.459-.733-.826-1.1-1.284-7.698-8.162-16.495-6.144-19.702 4.585z" fill="#941759"/><path opacity=".1" d="M83.025 80.885c1.191 6.97 4.215 13.848 8.522 18.433 7.606 8.162 16.404 6.145 19.703-4.585.733-2.476 1.099-5.136 1.191-7.887-1.008 1.192-3.941 2.476-4.49.826-.092 2.476-.459 4.86-1.1 7.061-.916 3.026-2.383 5.319-4.124 6.603-1.558 1.009-3.299 1.284-5.132.734-1.832-.551-3.757-1.926-5.59-3.852-3.665-3.944-6.323-9.721-7.606-15.774 0-.183-.733.184-1.374-1.559z" fill="#000"/><path d="M84.583 66.12c-1.466 4.677-1.375 10.547-.183 16.14 1.282 6.053 3.94 11.923 7.605 15.774 1.833 1.926 3.758 3.302 5.59 3.852 1.925.55 3.574.367 5.132-.734 1.741-1.192 3.208-3.485 4.124-6.603.642-2.109 1.008-4.493 1.1-7.061v-2.843c-.092-1.65-.275-3.393-.642-5.044-.091-.367-.091-.733-.183-1.009-.092-.55-.275-1.192-.367-1.742a31.926 31.926 0 00-1.924-5.686v-.092c-.55-1.192-1.1-2.384-1.65-3.484a49.813 49.813 0 00-1.374-2.293c-.183-.275-.458-.55-.642-.917-.275-.367-.549-.642-.824-1.009-.275-.275-.55-.642-.825-.917-1.833-1.926-3.757-3.301-5.59-3.852-4.124-1.008-7.606 1.743-9.347 7.52z" fill="#941759"/><path opacity=".3" d="M84.583 66.12c-1.466 4.677-1.375 10.547-.183 16.14 1.282 6.053 3.94 11.923 7.605 15.774 1.833 1.926 3.758 3.302 5.59 3.852 1.925.55 3.574.367 5.132-.734 1.741-1.192 3.208-3.485 4.124-6.603.642-2.109 1.008-4.493 1.1-7.061v-2.843c-.092-1.65-.275-3.393-.642-5.044-.091-.367-.091-.733-.183-1.009-.092-.55-.275-1.192-.367-1.742a31.926 31.926 0 00-1.924-5.686v-.092c-.55-1.192-1.1-2.384-1.65-3.484a49.813 49.813 0 00-1.374-2.293c-.183-.275-.458-.55-.642-.917-.275-.367-.549-.642-.824-1.009-.275-.275-.55-.642-.825-.917-1.833-1.926-3.757-3.301-5.59-3.852-4.124-1.008-7.606 1.743-9.347 7.52z" fill="#000"/><path d="M98.054 73.09l2.566 12.747c1.832-.091 4.948-.275 7.422-.183v-.917c-.091-1.65-.274-3.393-.641-5.044-.092-.367-.092-.734-.183-1.009-.092-.55-.275-1.192-.367-1.742a31.926 31.926 0 00-1.924-5.686v-.092c-.092-.275-.184-.55-.367-.825-3.024 1.65-6.506 2.751-6.506 2.751z" fill="#941759"/><path opacity=".4" d="M98.054 73.09l2.566 12.747c1.832-.091 4.948-.275 7.422-.183v-.917c-.091-1.65-.274-3.393-.641-5.044-.092-.367-.092-.734-.183-1.009-.092-.55-.275-1.192-.367-1.742a31.926 31.926 0 00-1.924-5.686v-.092c-.092-.275-.184-.55-.367-.825-3.024 1.65-6.506 2.751-6.506 2.751z" fill="#fff"/><path d="M100.07 85.654c1.283.367 2.474-.459 3.024-2.201v-.092c.825-2.843-.092-6.878-2.108-9.079-.55-.55-1.1-1.008-1.65-1.1-1.282-.367-2.474.458-3.023 2.2v.093c-.825 2.843.091 6.878 2.107 9.079.55.55 1.1 1.008 1.65 1.1z" fill="#941759"/><path opacity=".7" d="M100.07 85.654c1.283.367 2.474-.459 3.024-2.201v-.092c.825-2.843-.092-6.878-2.108-9.079-.55-.55-1.1-1.008-1.65-1.1-1.282-.367-2.474.458-3.023 2.2v.093c-.825 2.843.091 6.878 2.107 9.079.55.55 1.1 1.008 1.65 1.1z" fill="#fff"/><path d="M103.186 52.823a1.452 1.452 0 001.741-.917l3.94-12.747a1.452 1.452 0 00-.916-1.743 1.452 1.452 0 00-1.741.917l-3.941 12.748c-.275.733.184 1.559.917 1.742zm10.63 6.695c.458.183 1.008 0 1.374-.275l9.806-9.08c.55-.55.55-1.375.091-1.925a1.416 1.416 0 00-1.924-.092l-9.805 9.08a1.42 1.42 0 00-.092 1.925c.092.183.367.275.55.367zm-6.69 65.295c.183.092.458.092.733 0a1.367 1.367 0 001.008-1.651l-3.024-13.022a1.366 1.366 0 00-1.649-1.009 1.367 1.367 0 00-1.008 1.651l3.024 13.022c.091.551.458.917.916 1.009zm-24.192-5.503a1.45 1.45 0 001.74-.917l3.941-12.747a1.452 1.452 0 00-.916-1.742 1.45 1.45 0 00-1.741.917l-3.94 12.747c-.275.734.183 1.467.916 1.742zm-14.388-17.424c.458.183 1.008 0 1.375-.275l9.805-9.08c.55-.55.55-1.375.092-1.925a1.416 1.416 0 00-1.924-.092l-9.806 9.08c-.55.55-.55 1.375-.091 1.925.091.092.274.275.55.367zm-9.163-17.241c.183.092.458.092.733 0l13.012-3.026a1.367 1.367 0 001.008-1.65 1.366 1.366 0 00-1.65-1.01l-13.012 3.027a1.367 1.367 0 00-1.008 1.65c.092.459.458.826.916 1.01zm.641-19.533l12.83 3.943a1.452 1.452 0 001.74-.917 1.453 1.453 0 00-.916-1.742L60.94 62.452a1.452 1.452 0 00-1.74.918c-.276.733.09 1.559.824 1.742zm19.427-6.787c.459.184 1.008 0 1.375-.275.55-.55.55-1.375.092-1.926l-9.073-9.812a1.417 1.417 0 00-1.924-.092 1.42 1.42 0 00-.092 1.926l9.073 9.812c.091.184.366.276.55.367zm11.089-5.869c.183.092.458.092.733 0a1.367 1.367 0 001.008-1.65l-3.024-13.023a1.366 1.366 0 00-1.65-1.009 1.367 1.367 0 00-1.008 1.651l3.024 13.022c.092.459.459.826.917 1.01z" fill="#E0E0E0"/><path d="M142.041 97.668c-2.658-3.302-2.75-5.41-4.766-7.062-2.016-1.65-4.123-1.742-7.148-.825-2.29.642-5.04.367-5.956 1.192-.275.184.183 1.651 1.191 2.201 1.283.642 3.391.459 4.949.459 3.574 0 .641 3.485 4.032 6.969 1.466 2.477 7.698-2.934 7.698-2.934z" fill="#FFA8A7"/><path d="M61.123 150.766l-32.44-20.817-14.204 4.585 46.644 16.232zm0 0l-28.041-23.385 6.231-7.245 21.81 30.63z" fill="#941759"/><path d="M33.082 127.381v5.411l28.041 17.974-28.041-23.385z" fill="#941759"/><path opacity=".25" d="M33.082 127.381v5.411l28.041 17.974-28.041-23.385z" fill="#000"/><path d="M26.484 124.172c.275 0 .55-.092.733-.276.366-.366.275-.917-.092-1.283-.55-.459-1.1-1.009-1.65-1.468a.885.885 0 00-1.282 0 .887.887 0 000 1.284c.55.55 1.1 1.101 1.74 1.559.093.184.367.184.55.184zm-4.857-4.769c.183 0 .458-.092.641-.184.367-.367.458-.917.092-1.284-.917-1.1-1.925-2.292-2.75-3.485-.274-.366-.916-.458-1.282-.183-.367.275-.459.917-.184 1.284.917 1.284 1.925 2.476 2.841 3.576a.988.988 0 00.642.276zm-5.315-7.245c.183 0 .366 0 .458-.184.458-.275.55-.825.275-1.284-.733-1.192-1.558-2.567-2.2-3.851-.275-.459-.824-.642-1.283-.367-.458.275-.641.825-.366 1.284a55.513 55.513 0 002.29 3.943c.184.275.459.459.826.459zm-4.216-7.979c.092 0 .275 0 .367-.091.458-.184.641-.734.458-1.193-.55-1.375-1.191-2.751-1.65-4.126-.183-.459-.733-.734-1.19-.55-.459.183-.734.733-.55 1.192.55 1.467 1.099 2.842 1.74 4.218.092.275.459.55.825.55zM8.98 95.65h.275c.459-.183.733-.641.642-1.1a32.971 32.971 0 01-1.1-4.31c-.091-.459-.641-.825-1.1-.734-.458.092-.824.642-.733 1.1.367 1.468.734 3.027 1.192 4.403a.88.88 0 00.824.641zm-2.016-8.803h.184c.458-.092.824-.55.733-1.01a36.104 36.104 0 01-.55-4.401c-.092-.459-.55-.917-1.008-.825-.458.091-.916.458-.825 1.008.183 1.56.367 3.027.55 4.586.092.275.458.642.916.642zm-.824-8.988c.55 0 .916-.458.916-.917v-4.493c0-.55-.366-.917-.916-.917s-.917.366-.917.917v4.585c0 .367.367.825.917.825zm.275-9.079c.458 0 .824-.366.916-.825.183-1.467.367-2.935.641-4.402.092-.458-.274-1.009-.733-1.1a.95.95 0 00-1.1.733c-.274 1.468-.458 3.027-.64 4.586-.092.458.274.917.824 1.008h.092zm1.557-8.895c.367 0 .825-.275.917-.734.366-1.467.825-2.843 1.283-4.31.183-.459-.092-1.009-.55-1.192-.458-.184-1.008.091-1.191.55-.459 1.467-.917 2.935-1.283 4.402-.092.459.183 1.009.641 1.1.092.184.183.184.183.184zm2.933-8.529c.366 0 .733-.183.825-.55.55-1.376 1.283-2.751 1.924-4.035.275-.459.092-1.009-.367-1.284-.458-.275-1.008-.092-1.282.367-.734 1.375-1.375 2.75-2.017 4.127-.183.458 0 1.008.459 1.192.183.091.366.183.458.183zm4.307-7.978c.275 0 .55-.184.733-.459.825-1.192 1.65-2.476 2.566-3.576.275-.367.275-1.01-.183-1.284-.367-.276-1.008-.276-1.283.183-.917 1.192-1.833 2.476-2.75 3.76-.274.459-.183 1.009.275 1.284.275 0 .459.092.642.092zm5.59-7.062a.832.832 0 00.641-.275c1.008-1.009 2.108-2.11 3.208-3.118a.983.983 0 00.091-1.284.98.98 0 00-1.283-.092 37.06 37.06 0 00-3.299 3.21.887.887 0 000 1.284.99.99 0 00.642.275zm6.69-6.053c.183 0 .366-.091.55-.183 1.19-.917 2.382-1.834 3.573-2.66.459-.275.55-.825.275-1.283-.275-.459-.825-.55-1.283-.275a127.326 127.326 0 00-3.665 2.75c-.367.276-.459.918-.184 1.285.184.183.459.367.733.367zm7.422-5.227c.184 0 .367 0 .459-.091 1.282-.734 2.565-1.56 3.848-2.201.459-.276.642-.826.367-1.284-.275-.459-.825-.642-1.283-.367a55.302 55.302 0 00-3.94 2.293c-.459.275-.55.825-.276 1.283.275.276.55.367.825.367zm7.973-4.31c.091 0 .275 0 .366-.092 1.375-.642 2.75-1.284 4.124-1.834.458-.183.733-.733.458-1.192-.183-.459-.733-.734-1.191-.459a56.127 56.127 0 00-4.124 1.835c-.458.183-.641.733-.458 1.192.183.367.458.55.825.55zm92.555-2.201a.88.88 0 00.825-.642c.183-.458-.092-1.009-.55-1.192a79.519 79.519 0 00-4.307-1.467c-.458-.184-1.008.091-1.191.55-.184.458.091 1.009.549 1.192 1.375.459 2.841.917 4.216 1.467.275 0 .366.092.458.092zm-84.216-1.284c.092 0 .183 0 .275-.092 1.375-.55 2.84-1.008 4.215-1.467.459-.183.733-.642.642-1.192-.183-.459-.642-.734-1.191-.642-1.467.458-2.933.917-4.308 1.467-.458.184-.733.734-.55 1.193.184.55.55.733.917.733zm75.602-1.559c.367 0 .733-.275.916-.642.184-.458-.183-1.009-.641-1.1-1.466-.459-2.933-.826-4.399-1.192-.458-.092-1.008.183-1.099.642-.092.458.183 1.008.641 1.1 1.466.367 2.933.734 4.307 1.192h.275zM59.84 14.49h.275c1.374-.367 2.84-.734 4.307-1.1.458-.092.825-.643.733-1.101a.95.95 0 00-1.1-.734c-1.466.367-3.024.734-4.398 1.1-.458.093-.733.643-.642 1.101.092.55.459.734.825.734zm58.191-1.009c.458 0 .824-.275.916-.733.092-.459-.183-1.01-.733-1.101-1.466-.275-3.024-.642-4.49-.917a.95.95 0 00-1.1.734c-.092.458.275 1.008.733 1.1 1.466.275 2.933.55 4.399.917h.275zm-49.394-.917h.184c1.466-.275 2.932-.55 4.398-.734.459-.091.825-.55.733-1.008-.091-.459-.55-.826-1.008-.734-1.558.183-3.024.459-4.49.734a.951.951 0 00-.733 1.1c.092.275.55.642.916.642zm40.505-.642c.458 0 .824-.367.916-.825.092-.459-.275-1.009-.733-1.009-1.466-.183-3.024-.459-4.49-.55-.459-.092-.917.275-1.008.825-.092.459.275.917.824 1.009 1.467.183 2.933.367 4.491.55 0 0-.092 0 0 0zm-31.524-.734h.092c1.466-.183 2.932-.275 4.49-.366.55 0 .916-.459.825-1.01 0-.55-.459-.824-1.008-.824-1.558.091-3.024.275-4.582.366-.459.092-.825.55-.825 1.01.183.55.55.824 1.008.824zm22.543-.275c.458 0 .916-.367.916-.825a.997.997 0 00-.824-1.009c-1.558-.091-3.024-.183-4.582-.275-.55-.092-.917.367-.917.917s.367.917.917.917c1.466.092 2.932.184 4.49.275zm-13.562-.275c.091 0 .091 0 0 0 1.374 0 2.657-.091 3.94-.091h.55a.919.919 0 00.916-.918c0-.55-.366-.917-.916-.917h-.55c-1.283 0-2.657 0-3.94.092a.919.919 0 00-.917.917c.092.459.458.917.917.917zm55.258 10.363c.367 0 .733-.183.825-.55.183-.459 0-1.009-.458-1.192a50.346 50.346 0 01-2.108-.826c-.458-.183-1.008.092-1.191.55-.184.46 0 1.01.549 1.193.733.275 1.375.55 2.108.825.092-.091.183 0 .275 0z" fill="#E0E0E0"/><path d="M345.937 104.546l-42.154-20.634 30.424 28.887 11.73-8.253zm-42.154-20.634l46.46 15.315 11.73-8.254-58.19-7.061z" fill="#941759"/><path d="M350.243 99.227l-1.833 11.83-2.474-6.511-42.154-20.634 46.461 15.315z" fill="#941759"/><path opacity=".25" d="M350.243 99.227l-1.833 11.83-2.474-6.511-42.154-20.634 46.461 15.315z" fill="#000"/><path d="M348.411 111.057l-6.415-3.76 3.94-2.751 2.475 6.511z" fill="#941759"/><path opacity=".25" d="M345.937 104.546l-3.941 2.751 1.008.642 2.933-3.393z" fill="#000"/><path d="M342.729 228.35c.092 0 .183 0 .275-.092 1.466-.55 2.932-1.1 4.307-1.65.458-.184.733-.734.55-1.193-.184-.458-.733-.733-1.192-.55-1.374.55-2.749 1.101-4.215 1.651-.458.183-.733.733-.55 1.192.092.459.458.642.825.642zm8.522-3.393c.092 0 .275 0 .367-.092a187.194 187.194 0 004.215-1.926c.458-.183.642-.733.458-1.192-.183-.458-.733-.642-1.191-.458l-4.124 1.925c-.458.184-.641.734-.458 1.193.092.366.367.55.733.55zm8.248-4.035c.183 0 .275 0 .458-.092 1.375-.734 2.749-1.559 4.032-2.293.458-.275.55-.825.275-1.284-.275-.458-.825-.55-1.283-.275a55.312 55.312 0 01-3.94 2.293c-.459.275-.642.825-.367 1.284.183.183.458.367.825.367zm7.789-4.769c.183 0 .367-.092.55-.183 1.283-.918 2.566-1.835 3.757-2.752.367-.275.458-.917.183-1.284-.274-.366-.916-.458-1.283-.183-1.191.917-2.382 1.834-3.665 2.66-.458.275-.55.825-.183 1.283 0 .276.366.459.641.459zm7.148-5.778a.985.985 0 00.641-.275 27.949 27.949 0 003.299-3.301.886.886 0 000-1.284.885.885 0 00-1.283 0c-1.008 1.1-2.107 2.109-3.207 3.21a.985.985 0 00-.092 1.284c.092.275.367.366.642.366zm6.231-6.602c.275 0 .55-.092.734-.367a35.832 35.832 0 002.749-3.76c.275-.459.183-1.009-.275-1.284-.458-.275-1.008-.184-1.283.275-.825 1.192-1.741 2.476-2.658 3.577-.275.366-.275 1.008.184 1.283.183.184.366.276.549.276zm5.132-7.612c.275 0 .642-.184.825-.459.733-1.375 1.466-2.751 2.108-4.127.183-.458 0-1.008-.459-1.192-.458-.183-1.008 0-1.191.459-.641 1.375-1.283 2.751-2.016 4.035-.275.458-.092 1.009.367 1.284h.366zm3.849-8.254c.367 0 .733-.183.825-.642.55-1.467 1.008-2.934 1.466-4.402.183-.458-.183-1.008-.642-1.1-.458-.184-1.008.183-1.099.642a246.619 246.619 0 01-1.375 4.31c-.183.459.092 1.009.55 1.192.092-.091.183 0 .275 0zm2.566-8.804c.458 0 .825-.275.916-.733.367-1.468.642-3.027.825-4.586.092-.458-.275-1.008-.733-1.008-.458-.092-1.008.275-1.008.733-.275 1.468-.55 3.027-.825 4.494-.092.458.183 1.009.733 1.1h.092zm1.466-9.079c.458 0 .825-.366.916-.825.184-1.467.275-3.026.367-4.585a.998.998 0 00-.825-1.009c-.458 0-.916.367-1.008.825-.091 1.559-.183 3.118-.366 4.494-.092.458.275.917.824 1.009 0 .091 0 .091.092.091zm.458-9.17a.92.92 0 00.917-.917c0-1.559-.092-3.118-.275-4.677-.092-.459-.458-.826-1.008-.826-.458.092-.917.459-.825 1.009.183 1.467.275 3.026.275 4.494 0 .55.366.917.916.917zm-.916-9.079h.183a.952.952 0 00.733-1.101c-.275-1.559-.641-3.026-1.008-4.585-.091-.459-.641-.825-1.099-.642-.459.092-.825.642-.642 1.1.367 1.468.733 2.935 1.008 4.402 0 .459.367.826.825.826zm-2.383-8.896c.092 0 .184 0 .275-.092.458-.183.733-.733.55-1.192-.55-1.467-1.1-2.934-1.741-4.31-.183-.459-.733-.642-1.191-.459-.459.184-.642.734-.459 1.193a33.415 33.415 0 011.65 4.218c.183.459.55.642.916.642zm-3.757-8.345c.183 0 .275 0 .458-.092.458-.275.642-.825.367-1.284a58.352 58.352 0 00-2.383-4.035c-.275-.458-.824-.55-1.283-.275-.458.275-.55.825-.275 1.284.825 1.284 1.558 2.568 2.291 3.852.184.366.55.55.825.55zm-4.948-7.704c.183 0 .366-.091.549-.183.367-.275.459-.917.184-1.284a52.614 52.614 0 00-3.024-3.576.98.98 0 00-1.283-.092.982.982 0 00-.092 1.284 53.425 53.425 0 012.933 3.485c.183.275.458.366.733.366zm-6.232-6.786c.275 0 .458-.092.642-.275a.888.888 0 000-1.284 28.391 28.391 0 00-3.574-3.026c-.367-.275-1.008-.275-1.283.183-.275.367-.275 1.009.183 1.284 1.191.917 2.291 1.926 3.391 2.935a.989.989 0 00.641.183zm-7.148-5.594c.275 0 .55-.183.733-.367.275-.458.184-1.009-.274-1.284a90.832 90.832 0 00-3.941-2.384c-.458-.275-1.008-.092-1.283.367-.275.458-.092 1.009.367 1.284 1.283.733 2.566 1.559 3.849 2.384.183-.092.366 0 .549 0zm-7.972-4.494c.366 0 .641-.183.825-.55.183-.458 0-1.009-.459-1.192-1.374-.642-2.84-1.192-4.307-1.742-.458-.184-1.008.091-1.191.55-.183.458.092 1.009.55 1.192 1.374.55 2.841 1.1 4.215 1.742h.367z" fill="#E0E0E0"/><path d="M219.621 354.264c0-.367-.183-.642-.458-.826-.55-.458-1.191-.642-2.016-.55-.825 0-1.558.183-2.108.55l-3.665 1.926c.275-.55.55-1.1.641-1.651.092-.458.184-.917.184-1.375v-5.411c0-.825-.184-1.651-.55-2.568-.55-1.284-1.65-2.476-3.299-3.668a71.09 71.09 0 00-4.032-2.843c-1.558-1.009-3.024-1.926-4.307-2.659-3.391-1.835-6.965-3.21-10.814-4.311-3.849-1.1-8.064-1.559-12.554-1.559-4.491 0-9.256.734-14.296 2.018-5.04 1.284-10.355 3.485-15.945 6.419-4.765 2.568-8.431 5.136-10.813 7.887-2.475 2.751-3.941 5.411-4.399 8.07-.183.826-.275 1.651-.183 2.476v5.503c0 1.834.458 3.576 1.283 5.319 1.191 2.476 3.115 4.677 5.681 6.694.55.459 1.283 1.009 2.383 1.651a51.177 51.177 0 003.299 2.201c1.191.734 2.291 1.467 3.39 2.201 1.1.734 2.017 1.192 2.658 1.651 3.207 1.742 6.873 3.026 10.905 4.035 4.032 1.009 8.339 1.467 12.829 1.376 4.491 0 9.164-.642 13.93-1.743 4.765-1.192 9.53-3.026 14.387-5.502 3.849-2.018 6.873-3.944 9.164-5.778 2.291-1.834 4.032-3.485 5.315-5.135 1.283-1.559 2.107-3.118 2.566-4.494.458-1.467.733-2.751 1.008-4.035v-.184c-.184-.458-.184-5.685-.184-5.685zm-13.745 6.511c-.459.733-1.192 1.467-2.108 2.384-.917.826-2.108 1.834-3.574 2.751-1.466 1.009-3.299 2.11-5.59 3.302-3.207 1.651-6.415 2.934-9.714 3.76-3.299.825-6.506 1.284-9.622 1.375-3.116.092-6.231-.183-9.164-.825-2.932-.642-5.681-1.559-8.156-2.843-.733-.367-1.649-.825-2.657-1.467-1.008-.642-2.108-1.284-3.207-2.018-1.1-.733-2.108-1.375-3.024-2.017a33.72 33.72 0 01-2.2-1.651c-1.833-1.651-3.207-3.301-3.94-5.136-.092-.183-.184-.458-.275-.642.55-1.559 1.558-3.209 3.116-4.768 1.741-1.834 4.215-3.577 7.422-5.319 3.757-2.018 7.423-3.577 10.814-4.586 1.924-.55 3.757-1.008 5.498-1.284l-.916.459c-.642.275-.917.734-1.008 1.192-.092.459.183.917.641 1.192l.641.367a21.54 21.54 0 00-4.856 0c-1.65.184-3.666.917-5.865 2.109-2.016 1.101-3.483 2.293-4.491 3.577-.824 1.101-1.191 2.293-1.191 3.485v6.144c.092 1.376.733 2.843 1.833 4.219 1.1 1.467 2.749 2.843 4.857 4.218 2.107 1.376 4.307 2.476 6.689 3.21a28.344 28.344 0 007.148 1.467c2.383.184 4.765.092 7.056-.366 2.291-.459 4.491-1.193 6.507-2.293 1.741-.917 3.024-1.743 3.94-2.476a10.553 10.553 0 002.016-2.109c.367-.642.642-1.284.642-1.835 0-.55.091-1.1 0-1.65 1.558.091 3.39 0 5.59-.367 2.199-.367 4.673-1.284 7.331-2.751.183-.092.275-.184.458-.276-.092.734-.367 1.101-.641 1.468zm-32.715-5.411c2.29.275 4.49 1.192 6.781 2.66.825.55 1.466 1.1 2.016 1.559-.275.183-.642.458-1.1.642-1.924 1.008-4.032 1.375-6.323 1.1-2.291-.275-4.582-1.1-6.781-2.568-.825-.55-1.558-1.1-2.108-1.65.275-.184.642-.367 1.008-.642 2.108-.917 4.216-1.376 6.507-1.101zm25.567-5.411c-1.008.459-2.108.642-3.299.734-1.466.092-2.749-.275-3.849-1.009l-12.371-8.162c1.283.184 2.474.367 3.757.642a40.345 40.345 0 018.706 3.302c1.374.733 2.749 1.467 4.032 2.384 1.099.734 2.107 1.467 3.024 2.109z" fill="#941759"/><path opacity=".2" d="M219.621 354.264c0-.367-.183-.642-.458-.826-.55-.458-1.191-.642-2.016-.55-.825 0-1.558.183-2.108.55l-3.665 1.926c.275-.55.55-1.1.641-1.651.092-.458.184-.917.184-1.375v-5.411c0-.825-.184-1.651-.55-2.568-.55-1.284-1.65-2.476-3.299-3.668a71.09 71.09 0 00-4.032-2.843c-1.558-1.009-3.024-1.926-4.307-2.659-3.391-1.835-6.965-3.21-10.814-4.311-3.849-1.1-8.064-1.559-12.554-1.559-4.491 0-9.256.734-14.296 2.018-5.04 1.284-10.355 3.485-15.945 6.419-4.765 2.568-8.431 5.136-10.813 7.887-2.475 2.751-3.941 5.411-4.399 8.07-.183.826-.275 1.651-.183 2.476v5.503c0 1.834.458 3.576 1.283 5.319 1.191 2.476 3.115 4.677 5.681 6.694.55.459 1.283 1.009 2.383 1.651a51.177 51.177 0 003.299 2.201c1.191.734 2.291 1.467 3.39 2.201 1.1.734 2.017 1.192 2.658 1.651 3.207 1.742 6.873 3.026 10.905 4.035 4.032 1.009 8.339 1.467 12.829 1.376 4.491 0 9.164-.642 13.93-1.743 4.765-1.192 9.53-3.026 14.387-5.502 3.849-2.018 6.873-3.944 9.164-5.778 2.291-1.834 4.032-3.485 5.315-5.135 1.283-1.559 2.107-3.118 2.566-4.494.458-1.467.733-2.751 1.008-4.035v-.184c-.184-.458-.184-5.685-.184-5.685zm-13.745 6.511c-.459.733-1.192 1.467-2.108 2.384-.917.826-2.108 1.834-3.574 2.751-1.466 1.009-3.299 2.11-5.59 3.302-3.207 1.651-6.415 2.934-9.714 3.76-3.299.825-6.506 1.284-9.622 1.375-3.116.092-6.231-.183-9.164-.825-2.932-.642-5.681-1.559-8.156-2.843-.733-.367-1.649-.825-2.657-1.467-1.008-.642-2.108-1.284-3.207-2.018-1.1-.733-2.108-1.375-3.024-2.017a33.72 33.72 0 01-2.2-1.651c-1.833-1.651-3.207-3.301-3.94-5.136-.092-.183-.184-.458-.275-.642.55-1.559 1.558-3.209 3.116-4.768 1.741-1.834 4.215-3.577 7.422-5.319 3.757-2.018 7.423-3.577 10.814-4.586 1.924-.55 3.757-1.008 5.498-1.284l-.916.459c-.642.275-.917.734-1.008 1.192-.092.459.183.917.641 1.192l.641.367a21.54 21.54 0 00-4.856 0c-1.65.184-3.666.917-5.865 2.109-2.016 1.101-3.483 2.293-4.491 3.577-.824 1.101-1.191 2.293-1.191 3.485v6.144c.092 1.376.733 2.843 1.833 4.219 1.1 1.467 2.749 2.843 4.857 4.218 2.107 1.376 4.307 2.476 6.689 3.21a28.344 28.344 0 007.148 1.467c2.383.184 4.765.092 7.056-.366 2.291-.459 4.491-1.193 6.507-2.293 1.741-.917 3.024-1.743 3.94-2.476a10.553 10.553 0 002.016-2.109c.367-.642.642-1.284.642-1.835 0-.55.091-1.1 0-1.65 1.558.091 3.39 0 5.59-.367 2.199-.367 4.673-1.284 7.331-2.751.183-.092.275-.184.458-.276-.092.734-.367 1.101-.641 1.468zm-32.715-5.411c2.29.275 4.49 1.192 6.781 2.66.825.55 1.466 1.1 2.016 1.559-.275.183-.642.458-1.1.642-1.924 1.008-4.032 1.375-6.323 1.1-2.291-.275-4.582-1.1-6.781-2.568-.825-.55-1.558-1.1-2.108-1.65.275-.184.642-.367 1.008-.642 2.108-.917 4.216-1.376 6.507-1.101zm25.567-5.411c-1.008.459-2.108.642-3.299.734-1.466.092-2.749-.275-3.849-1.009l-12.371-8.162c1.283.184 2.474.367 3.757.642a40.345 40.345 0 018.706 3.302c1.374.733 2.749 1.467 4.032 2.384 1.099.734 2.107 1.467 3.024 2.109z" fill="#000"/><path opacity=".1" d="M142.737 357.84c.55-1.559 1.558-3.21 3.116-4.769 1.741-1.834 4.215-3.576 7.422-5.319 3.758-2.017 7.423-3.576 10.814-4.585 1.924-.55 3.757-1.009 5.498-1.284l3.299-1.742c.642-.275 1.283-.459 2.108-.459.825 0 1.466.184 1.924.55l2.2 1.468c1.283.183 2.474.366 3.757.642a40.313 40.313 0 018.705 3.301c1.375.734 2.75 1.467 4.033 2.384 1.099.734 2.107 1.376 3.024 2.11l.549-.275c1.1-.551 1.742-1.284 1.925-2.11.183-.825-.367-1.742-1.741-2.751a84.726 84.726 0 00-3.757-2.659c-1.375-.917-2.658-1.651-4.033-2.385a40.313 40.313 0 00-8.705-3.301c-2.933-.734-5.957-1.009-9.072-.826-3.116.184-6.324.734-9.806 1.835-3.39 1.008-7.056 2.567-10.813 4.585-3.208 1.651-5.682 3.485-7.423 5.319-1.741 1.834-2.932 3.668-3.391 5.502-.458 1.834-.275 3.669.459 5.503.366.917.916 1.742 1.557 2.659-.641-.825-1.191-1.742-1.557-2.659.091-.367 0-.551-.092-.734z" fill="#000"/><path opacity=".1" d="M179.943 352.43c-2.2-1.468-4.491-2.385-6.782-2.66-2.291-.275-4.398.092-6.414 1.192-1.925 1.009-2.75 2.201-2.566 3.577.091.825.641 1.742 1.558 2.659.274-.183.641-.366 1.008-.642 2.016-1.1 4.215-1.467 6.414-1.192 2.291.275 4.491 1.192 6.782 2.66.824.55 1.466 1.1 2.016 1.559-.184.091-.275.183-.459.367 1.65-1.009 2.383-2.11 2.2-3.302-.275-1.284-1.466-2.751-3.757-4.218zm-6.965 15.681a28.335 28.335 0 01-7.148-1.467c-2.383-.825-4.582-1.834-6.69-3.21-2.107-1.375-3.757-2.751-4.857-4.218-1.099-1.468-1.741-2.843-1.832-4.219v-.825 6.419c.091 1.376.733 2.843 1.832 4.219 1.1 1.467 2.75 2.843 4.857 4.218 2.108 1.376 4.307 2.476 6.69 3.21a28.291 28.291 0 007.148 1.467v-5.594zm20.252-10.729v5.594c1.558.091 3.391 0 5.59-.367v-5.594c-2.199.366-4.032.458-5.59.367zm-32.715 22.285c-4.032-1.009-7.698-2.293-10.905-4.036-.733-.366-1.558-.917-2.658-1.65-1.099-.734-2.199-1.376-3.39-2.201a51.735 51.735 0 01-3.299-2.201c-1.008-.734-1.833-1.284-2.383-1.651-2.566-2.017-4.49-4.218-5.682-6.695-.824-1.742-1.282-3.576-1.282-5.41v5.594c0 1.834.458 3.576 1.282 5.319 1.192 2.476 3.116 4.677 5.682 6.694.55.459 1.283 1.009 2.383 1.651a51.315 51.315 0 003.299 2.201c1.191.734 2.291 1.467 3.39 2.201 1.1.734 2.016 1.192 2.658 1.651 3.207 1.742 6.873 3.026 10.905 4.035 4.032 1.009 8.339 1.467 12.829 1.376v-5.595c-4.49.184-8.797-.275-12.829-1.283z" fill="#000"/><path d="M208.35 340.508c1.65 1.192 2.75 2.476 3.299 3.668.55 1.284.734 2.476.367 3.76-.275 1.192-.916 2.384-1.924 3.485-1.008 1.1-2.291 2.017-3.849 2.843-2.749 1.467-5.224 2.384-7.331 2.751-2.2.367-4.032.458-5.59.367v1.65c0 .551-.275 1.193-.642 1.835-.366.641-1.099 1.375-2.016 2.109-.916.733-2.199 1.559-3.94 2.476-2.016 1.1-4.216 1.834-6.507 2.293-2.291.458-4.673.55-7.056.366a28.344 28.344 0 01-7.148-1.467c-2.382-.825-4.582-1.834-6.689-3.21-2.108-1.375-3.757-2.751-4.857-4.218-1.1-1.468-1.741-2.843-1.833-4.219-.092-1.375.275-2.751 1.191-4.035.917-1.284 2.383-2.476 4.491-3.576 2.291-1.193 4.215-1.926 5.865-2.11a21.54 21.54 0 014.856 0l-.641-.366c-.458-.367-.733-.734-.642-1.193.092-.458.367-.825 1.009-1.192l4.307-2.293c.641-.275 1.282-.458 2.107-.458.825 0 1.466.183 1.925.55l14.57 9.538c1.1.733 2.383 1.008 3.849 1.008 1.466-.091 2.749-.366 3.849-1.008 1.1-.551 1.741-1.284 1.924-2.11.184-.825-.366-1.742-1.741-2.751a84.141 84.141 0 00-3.757-2.659c-1.375-.917-2.658-1.651-4.032-2.385a40.373 40.373 0 00-8.706-3.301c-2.932-.734-5.956-1.009-9.072-.825-3.116.183-6.323.733-9.805 1.834-3.391 1.008-7.057 2.567-10.814 4.585-3.207 1.651-5.681 3.485-7.423 5.319-1.741 1.834-2.932 3.668-3.39 5.502-.458 1.835-.275 3.669.458 5.503.733 1.834 2.108 3.485 3.94 5.135.459.459 1.192 1.009 2.2 1.651a86.259 86.259 0 003.024 2.018 62.55 62.55 0 003.207 2.017c1.008.642 1.925 1.192 2.658 1.468 2.566 1.283 5.223 2.201 8.156 2.842 2.932.642 5.956.918 9.163.826a43.483 43.483 0 009.623-1.376c3.299-.825 6.506-2.109 9.713-3.76 2.291-1.192 4.124-2.292 5.59-3.301 1.466-1.009 2.658-1.926 3.574-2.751.917-.826 1.65-1.651 2.108-2.385.458-.733.916-1.375 1.191-2.017.275-.551.458-1.009.642-1.284.183-.275.549-.642 1.191-.917l6.048-3.21a7.083 7.083 0 012.108-.55c.825 0 1.466.183 2.016.55.366.275.55.55.458 1.009-.183 1.284-.55 2.568-1.008 4.035-.458 1.467-1.283 2.934-2.566 4.493-1.283 1.559-3.024 3.302-5.315 5.136-2.291 1.834-5.407 3.76-9.164 5.778-4.765 2.567-9.53 4.402-14.387 5.502-4.765 1.192-9.439 1.742-13.929 1.742s-8.798-.458-12.83-1.375c-4.032-1.009-7.697-2.293-10.905-4.035-.733-.367-1.558-.917-2.657-1.651-1.1-.734-2.199-1.376-3.391-2.201a51.595 51.595 0 01-3.299-2.201c-1.008-.734-1.833-1.284-2.382-1.651-2.566-2.017-4.491-4.218-5.682-6.694-1.191-2.476-1.558-5.044-1.1-7.704.55-2.659 2.016-5.319 4.399-8.07 2.474-2.751 6.048-5.319 10.813-7.887 5.59-2.934 10.905-5.135 15.946-6.419 5.04-1.284 9.805-2.018 14.295-2.018s8.614.459 12.555 1.559c3.849 1.101 7.514 2.568 10.813 4.311 1.283.733 2.749 1.559 4.307 2.659 1.741.917 3.024 1.834 4.215 2.66zm-40.504 18.341c2.199 1.467 4.49 2.293 6.781 2.568 2.291.275 4.399-.092 6.323-1.101 2.017-1.1 2.933-2.292 2.75-3.576-.184-1.376-1.467-2.752-3.758-4.219-2.199-1.467-4.49-2.384-6.781-2.659-2.291-.275-4.399.091-6.415 1.192-1.924 1.009-2.749 2.201-2.565 3.576.183 1.284 1.466 2.752 3.665 4.219zm-26.906-43.285v.642c0 1.1-.733 2.384-1.649 2.934l-36.289 21.001c-.916.55-2.474.55-3.39 0l-60.024-34.665c-.916-.55-1.65-1.834-1.65-2.935v-.642c0-1.1.734-2.384 1.65-2.934l36.289-21.001c.916-.55 2.474-.55 3.39 0l60.024 34.665c.916.55 1.649 1.834 1.649 2.935z" fill="#941759"/><path d="M140.94 315.564v.642c0 1.1-.733 2.384-1.649 2.934l-36.289 21.001c-.916.55-2.474.55-3.39 0l-60.024-34.665c-.916-.55-1.65-1.834-1.65-2.935v-.642c0-1.1.734-2.384 1.65-2.934l36.289-21.001c.916-.55 2.474-.55 3.39 0l60.024 34.665c.916.55 1.649 1.834 1.649 2.935z" fill="#941759"/><path opacity=".2" d="M101.352 290.71l37.939 21.918c.916.551 1.649 1.835 1.649 2.935v.642c0 1.1-.733 2.384-1.649 2.935l-36.289 21c-.458.276-1.1.367-1.65.367V290.71z" fill="#000"/><path opacity=".15" d="M101.352 290.71l37.939 21.918c.916.551 1.649 1.835 1.649 2.935v.642c0 1.1-.733 2.384-1.649 2.935l-36.289 21c-.458.276-1.1.367-1.65.367V290.71z" fill="#000"/><path opacity=".2" d="M39.588 298.873l36.289-21.001c.916-.551 2.474-.551 3.39 0l22.086 12.839v49.797c-.642 0-1.192-.092-1.65-.367L39.68 305.475c-.917-.55-1.65-1.834-1.65-2.934v-.642c-.092-1.192.642-2.476 1.558-3.026z" fill="#000"/><path d="M108.867 332.162l30.424-17.607c.916-.551.916-1.376 0-1.926l-60.024-34.666c-.916-.55-2.474-.55-3.39 0l-36.29 21.001c-.916.551-.916 1.376 0 1.926l9.99 5.778 3.482 2.017 46.644 26.962c.916.55 2.474.55 3.39 0l2.933-1.742 2.841-1.743z" fill="#941759"/><path opacity=".15" d="M81.192 302.908l-41.604-4.035 41.237 2.292-4.948-23.293c.55-.275 1.191-.367 1.833-.367l7.789 31.455 54.525 4.494c0 .367-.183.734-.642 1.1l-43.986-2.567 6.048 23.935-7.79-24.027-7.514-.459c-.916-.091-1.832-.458-2.474-1.008a3.836 3.836 0 01-1.283-2.201l-1.191-5.319z" fill="#000"/><path opacity=".3" d="M127.012 312.445l-41.513-3.393-1.466-5.961-.825-3.301-5.498-22.193c.55 0 1.1.183 1.558.367l29.966 17.332 30.057 17.333c.458.275.642.55.642.917l-8.34-.642-4.581-.459z" fill="#fff"/></g><defs><clipPath id="clip0_4375_40100"><path fill="#fff" transform="matrix(-1 0 0 1 411 0)" d="M0 0h411v418H0z"/></clipPath></defs></svg>