<svg width="293" height="239" viewBox="0 0 293 239" fill="none" xmlns="http://www.w3.org/2000/svg">
<path d="M53.7206 142.763C58.6166 148.68 61.2953 156.119 61.2953 163.8V233.845C61.2953 236.692 63.6034 239 66.4506 239C68.6286 239 70.5716 237.631 71.3049 235.58L125.27 84.6389C129.189 73.6772 127.042 61.4615 119.621 52.4924L86.7206 12.7289C73.523 -3.22175 49.0677 -3.22175 35.8701 12.7289L8.40616 45.9217C-1.69349 58.1281 -1.69349 75.7894 8.40617 87.9958L53.7206 142.763ZM173.815 45.9217C163.716 58.1281 163.716 75.7894 173.815 87.9958L219.13 142.763C224.026 148.68 226.705 156.119 226.705 163.8V233.845C226.705 236.692 229.013 239 231.86 239C234.038 239 235.981 237.631 236.714 235.58L290.679 84.6389C294.598 73.6772 292.452 61.4615 285.03 52.4924L252.13 12.7289C238.932 -3.22176 214.477 -3.22176 201.279 12.7289L173.815 45.9217Z" fill="#FF3874" fill-opacity="0.16"/>
</svg>
