<svg width="27" height="42" viewBox="0 0 27 42" fill="none" xmlns="http://www.w3.org/2000/svg">
<path d="M12.8529 4.32187C12.3088 5.72748 11.4716 7.08058 10.3796 8.07689C9.90054 8.51446 9.36282 8.88337 8.77287 9.1311C8.5244 9.23612 8.27848 9.34652 8.0899 9.55521C7.86819 9.7989 7.80193 10.1274 7.81467 10.4573C7.82869 10.8154 7.94974 11.1143 8.2033 11.3553C8.48363 11.6219 8.81619 11.8494 9.16405 12.0029C9.7935 12.2789 10.4765 12.2493 11.0409 11.8333C11.5952 11.4253 11.9635 10.7454 12.1113 10.0574C12.1839 9.72081 12.217 9.26305 12.0093 8.96819C11.8501 8.742 11.5774 8.70026 11.3544 8.84029C10.8409 9.16476 10.7071 9.97797 10.6969 10.5529C10.6829 11.2611 10.8791 12.0231 11.3824 12.5199C12.547 13.6711 14.0799 12.147 14.596 11.016C14.754 10.6687 14.8725 10.293 14.9221 9.91065C14.9667 9.56733 14.9833 9.15803 14.8482 8.83355C14.7361 8.56293 14.4953 8.44311 14.2596 8.63833C13.992 8.86048 13.9372 9.29267 13.9194 9.62522C13.8786 10.398 14.0723 11.2261 14.4787 11.8737C14.8036 12.3934 15.3324 12.8309 15.9542 12.7299C16.5901 12.6263 17.1609 12.0056 17.3138 11.358C17.4017 10.9837 17.3915 10.5273 17.1443 10.223C16.8972 9.92142 16.6321 9.63599 16.3875 9.33306C15.3401 8.03516 14.443 6.60666 13.6734 5.1095C13.467 4.70828 13.2721 4.30167 13.0809 3.89238C13.0338 3.7914 13.0083 3.95162 13.0032 3.99066C12.9879 4.09837 12.9777 4.26263 13.0236 4.36495C13.6212 5.71132 14.3296 7.00653 15.1426 8.2223C15.5287 8.79855 15.9377 9.35595 16.3735 9.89045C16.5812 10.1463 16.7965 10.394 17.0169 10.6377C17.0704 10.6969 17.1278 10.7548 17.1724 10.8221C17.2157 10.8868 17.2412 10.915 17.2348 10.9797C17.2183 11.1507 17.0832 11.3405 16.9902 11.4738C16.6691 11.9369 16.1581 12.2964 15.5936 12.2143C15.0496 12.1362 14.6393 11.665 14.3857 11.1816C14.2303 10.8841 14.122 10.5583 14.0595 10.2257C13.9984 9.89719 13.9741 9.50809 14.1729 9.224C14.3309 8.99781 14.6202 8.91838 14.7743 9.19573C14.9196 9.45962 14.8266 9.80025 14.7463 10.0695C14.5603 10.6956 14.229 11.2651 13.7779 11.7175C13.3256 12.1712 12.6936 12.5792 12.045 12.4459C11.4907 12.3328 11.0906 11.8171 10.9046 11.2786C10.7071 10.709 10.7606 10.0278 11.1085 9.52963C11.2372 9.34517 11.4334 9.1688 11.6653 9.19438C11.78 9.20784 11.8832 9.26843 11.9584 9.35998C12.1049 9.5377 12.0552 9.72889 11.994 9.93623C11.8195 10.5152 11.4907 11.0578 11.0142 11.4092C10.5313 11.7646 9.94004 11.8306 9.38194 11.6461C9.04937 11.5371 8.74356 11.3526 8.46452 11.1345C8.25427 10.9689 7.90642 10.6996 7.90259 10.3859C7.90005 10.1463 8.14851 9.91334 8.31798 9.79082C8.52058 9.64541 8.75758 9.57002 8.97802 9.46231C9.46221 9.22535 9.90946 8.9103 10.3159 8.54678C11.2448 7.71741 11.952 6.6457 12.4744 5.49321C12.6222 5.16874 12.7509 4.83349 12.8745 4.4969C12.8885 4.4592 12.8936 4.39727 12.8822 4.35822C12.8783 4.3461 12.8694 4.28148 12.8529 4.32187Z" fill="white"/>
<path d="M8.70029 11.9975C7.58792 13.6683 6.2653 15.1722 4.72734 16.4136C4.64962 16.4769 4.67892 16.7852 4.7146 16.8687C5.13126 17.8475 5.84609 18.7738 6.85398 19.0888C7.77905 19.3783 8.7296 18.9932 9.30171 18.1881C9.70181 17.6253 9.86873 16.9481 9.88657 16.2534C9.88784 16.2184 9.89039 16.0056 9.83433 16.0003C9.26349 15.9531 9.01247 16.7838 8.93729 17.243C8.81752 17.9646 8.89269 18.8007 9.3565 19.3796C9.77444 19.9034 10.4141 20.0448 10.9938 19.7391C11.3506 19.5506 11.6501 19.2598 11.9176 18.9515C12.1712 18.6607 12.4082 18.3551 12.584 18.005C12.7726 17.6334 12.9051 17.2281 12.9472 16.8081C12.988 16.3974 12.9676 15.941 12.7433 15.5883C12.7344 15.5762 12.7242 15.5762 12.7153 15.5883C12.2578 15.9855 12.1623 16.7408 12.1597 17.3264C12.1572 18.0144 12.319 18.7361 12.779 19.2477C13.1804 19.6947 13.7805 19.9047 14.3373 19.6745C14.9426 19.4241 15.3006 18.8034 15.4561 18.1625C15.6408 17.4018 15.6383 16.4607 15.2879 15.7498C15.2548 15.6825 15.2331 15.7431 15.2216 15.7902C14.9566 16.8781 15.1605 18.1881 15.8434 19.0673C16.111 19.412 16.478 19.7001 16.9125 19.7311C17.3992 19.7647 17.8541 19.5197 18.2198 19.1979C18.7384 18.7415 19.113 18.1248 19.4112 17.492C19.4596 17.3884 19.4838 17.0491 19.3972 16.9575C18.0325 15.5223 16.9622 13.8326 16.0843 12.0271C16.0333 11.9208 16.0065 12.0891 16.0002 12.1321C15.9849 12.2452 15.9709 12.427 16.0218 12.5347C16.9048 14.3631 17.9815 16.0703 19.364 17.5217C19.359 17.3439 19.3539 17.1662 19.35 16.9871C18.9397 17.8609 18.2631 18.9205 17.2884 19.1238C16.4143 19.3069 15.7593 18.5651 15.4484 17.7788C15.2433 17.2591 15.1668 16.7098 15.2994 16.1591C15.2815 16.182 15.2637 16.2036 15.2458 16.2264C15.7479 17.2322 15.3159 18.8236 14.2201 19.1588C13.1319 19.4914 12.2222 18.3254 12.2655 17.247C12.2757 16.9804 12.3356 16.7098 12.4477 16.4688C12.4987 16.3597 12.5624 16.2574 12.6414 16.1686C12.6694 16.1376 12.7 16.0837 12.7369 16.1066C12.7803 16.1322 12.8134 16.2655 12.8274 16.314C12.8988 16.5644 12.8172 16.8377 12.7357 17.0747C12.6401 17.3547 12.5076 17.6199 12.3458 17.8636C11.7877 18.6957 10.6753 19.9263 9.64957 19.1481C9.19595 18.8034 8.92455 18.176 9.01247 17.5903C9.07618 17.1649 9.32465 16.4607 9.83433 16.5051C9.81649 16.4203 9.79865 16.3369 9.78208 16.252C9.75532 17.2739 9.04177 18.2891 8.11543 18.588C7.27829 18.8586 6.40546 18.5274 5.77218 17.9283C5.33768 17.5176 5.00767 16.9966 4.76812 16.4365C4.76429 16.5886 4.76047 16.7394 4.75537 16.8916C6.31627 15.6287 7.62232 14.0359 8.7194 12.3193C8.75381 12.2654 8.74744 12.1739 8.74361 12.1119C8.74234 12.1025 8.72323 11.9638 8.70029 11.9975Z" fill="white"/>
<path d="M6.30475 18.7805C5.34783 20.7435 4.0851 22.5625 2.45285 23.9546C2.3764 24.0192 2.40061 24.3356 2.44011 24.4205C2.98164 25.5689 3.94111 26.7093 5.22805 26.8318C6.50098 26.9516 7.58659 25.9526 8.19566 24.8634C8.27593 24.7207 8.38551 24.5578 8.40972 24.3922C8.43521 24.2172 8.40718 24.03 8.33837 23.8698C8.2479 23.6571 8.05932 23.4807 7.82487 23.5036C7.22345 23.5628 7.19287 24.5497 7.22345 25.0075C7.26677 25.6766 7.5318 26.331 8.1345 26.6298C8.62634 26.8735 9.20355 26.8291 9.68902 26.5962C10.3108 26.2986 10.7937 25.7399 11.125 25.1192C11.3022 24.7867 11.4614 24.4299 11.5239 24.0515C11.5774 23.7271 11.6207 23.2424 11.3977 22.9731C11.3875 22.9596 11.3773 22.9596 11.3684 22.9731C10.8957 23.3043 10.781 24.0219 10.753 24.5753C10.7198 25.2471 10.7976 25.9849 11.125 26.5746C11.492 27.2371 12.2119 27.4888 12.886 27.2222C13.5881 26.9436 14.085 26.2879 14.3934 25.5891C14.7833 24.7072 14.9043 23.6396 14.652 22.6971C14.6495 22.6877 14.6265 22.5827 14.596 22.6271C14.3742 22.9448 14.2838 23.3407 14.2481 23.7271C14.2048 24.1929 14.2303 24.6763 14.3437 25.1286C14.5501 25.9526 15.084 26.6056 15.8281 26.9368C16.5251 27.2465 17.3393 27.233 17.9356 26.6985C18.509 26.1855 18.7091 25.3777 18.7639 24.6157C18.8174 23.859 18.7639 22.8398 18.1854 22.2959C18.1471 22.2595 18.1306 22.3497 18.1255 22.3713C17.9331 23.3582 18.0745 24.4501 18.5829 25.3118C18.7881 25.6591 19.0582 25.9755 19.401 26.1707C19.8125 26.405 20.3044 26.4171 20.7478 26.2933C21.246 26.1546 21.7009 25.8665 22.1163 25.5514C22.2921 25.4181 22.4743 25.2835 22.5992 25.0923C22.7419 24.8755 22.7878 24.6157 22.7903 24.3558C22.7929 24.0825 22.7521 23.8186 22.6132 23.583C22.4654 23.3339 22.2743 23.1077 22.1061 22.8735C21.7697 22.4063 21.4346 21.9364 21.0995 21.4665C20.3541 20.4204 19.6227 19.3595 18.8454 18.3403C18.7957 18.2743 18.769 18.5355 18.769 18.5503C18.7626 18.6553 18.7498 18.8276 18.8123 18.9192C19.9527 20.5739 21.1428 22.1922 22.3125 23.8254C22.3431 23.8684 22.6833 24.3491 22.6489 24.3666C22.6502 24.3316 22.6514 24.2966 22.654 24.2616C22.6451 24.2912 22.6336 24.3208 22.6221 24.3491C22.6017 24.3935 22.5763 24.4353 22.5495 24.4757C22.4922 24.5591 22.4233 24.6345 22.3482 24.7005C21.9939 25.0196 21.5773 25.2996 21.1479 25.4935C20.4127 25.8274 19.5883 25.8166 18.9932 25.2027C18.4122 24.6036 18.0478 23.6396 18.2096 22.7846C18.1892 22.8102 18.1701 22.8344 18.1497 22.86C18.5332 23.2101 18.6645 23.8052 18.6466 24.3222C18.6262 24.9294 18.4262 25.5501 18.0197 25.989C17.0424 27.0459 15.3324 26.4764 14.6673 25.3225C14.3016 24.6884 14.1882 23.7863 14.6227 23.1562C14.6074 23.1468 14.5934 23.1374 14.5781 23.1279C14.7527 23.7715 14.6036 24.4528 14.3488 25.0492C14.0977 25.6349 13.704 26.1788 13.1714 26.5033C12.6655 26.8116 12.0259 26.887 11.5392 26.4952C11.1442 26.1788 10.9479 25.6739 10.8817 25.1677C10.8231 24.7207 10.8677 24.2252 11.0932 23.8334C11.1403 23.7513 11.1951 23.6746 11.2601 23.6086C11.2767 23.5911 11.3455 23.5117 11.371 23.5117C11.413 23.513 11.4385 23.6207 11.4436 23.6557C11.4334 23.5924 11.4423 23.6624 11.4385 23.6826C11.4308 23.7203 11.427 23.758 11.4181 23.7944C11.4028 23.8631 11.3824 23.9304 11.3595 23.9977C11.2945 24.1821 11.2168 24.3626 11.1276 24.5362C10.6256 25.5218 9.65079 26.471 8.51039 26.2448C7.85035 26.1142 7.29098 25.4962 7.31646 24.7584C7.32666 24.4689 7.46427 24.1027 7.76116 24.0314C8.03129 23.9667 8.2581 24.1821 8.31926 24.4487C8.32308 24.3127 8.3269 24.1754 8.33072 24.0394C7.86692 24.9967 7.11387 25.9015 6.1098 26.2165C5.20894 26.4992 4.29407 26.1721 3.6009 25.5366C3.13327 25.1084 2.7663 24.5672 2.4898 23.9842C2.48598 24.1391 2.48088 24.2939 2.47706 24.4501C4.15008 23.0162 5.41026 21.0922 6.33406 19.0511C6.35954 18.9932 6.35572 18.9017 6.34552 18.8398C6.34552 18.8101 6.33278 18.7253 6.30475 18.7805Z" fill="white"/>
<path d="M4.49159 26.2987C3.72835 27.369 3.00205 28.4677 2.27194 29.5636C1.89605 30.1277 1.52016 30.6905 1.14555 31.2547C0.963338 31.528 0.782402 31.8026 0.600192 32.0759C0.438368 32.3196 0.245965 32.5593 0.118545 32.8245C-0.0916976 33.2621 -0.0318104 33.9097 0.378481 34.1897C0.586175 34.3311 0.841015 34.4065 1.07292 34.49C1.36726 34.595 1.66669 34.6825 1.9725 34.7418C2.96765 34.9343 3.98319 34.7781 4.80887 34.1372C5.19112 33.841 5.51477 33.4654 5.77216 33.0453C6.03592 32.6145 6.25508 32.15 6.28948 31.6316C6.30605 31.3947 6.31242 31.1106 6.21558 30.8898C6.12766 30.6878 5.96584 30.7 5.79892 30.8009C5.48546 30.9894 5.28032 31.3247 5.13761 31.6666C4.76682 32.5485 4.71203 33.666 4.94393 34.595C5.16182 35.4701 5.71609 36.3587 6.59402 36.5876C7.4885 36.8205 8.31291 36.1528 8.84552 35.4621C9.53869 34.5627 9.99485 33.421 10.0942 32.2644C10.121 31.9494 10.1235 31.6316 10.0981 31.3166C10.0968 31.3031 10.0713 31.0487 10.0229 31.1106C9.46988 31.7986 9.36285 32.8151 9.39088 33.6835C9.42019 34.6004 9.64954 35.6102 10.3185 36.2483C10.9339 36.8354 11.7825 36.9027 12.4719 36.4166C13.253 35.8646 13.713 34.8724 13.9933 33.9555C14.1589 33.4129 14.2749 32.8609 14.2634 32.2873C14.2558 31.9238 14.2379 31.2708 13.8455 31.1146C13.8289 31.1214 13.8187 31.1348 13.8149 31.155C13.4505 32.0463 13.4059 33.0978 13.5499 34.047C13.6824 34.9222 14.0047 35.8929 14.7565 36.3803C15.5032 36.8636 16.3862 36.6024 16.9329 35.9225C17.5228 35.1874 17.7547 34.1601 17.8273 33.2217C17.8694 32.6778 17.8554 32.1217 17.7726 31.5818C17.7394 31.3704 17.7178 31.0594 17.5636 30.9019C17.3928 30.7269 17.2336 30.9746 17.1622 31.1268C16.9622 31.5549 16.8972 32.0786 16.8691 32.5485C16.8373 33.0628 16.8679 33.5812 16.9558 34.0874C17.0921 34.8818 17.4056 35.8054 18.0707 36.2753C18.7053 36.7236 19.4698 36.558 20.0177 36.037C20.7019 35.3867 20.9479 34.3728 21.023 33.4371C21.102 32.4516 20.9988 31.3799 20.6 30.4751C20.5146 30.2826 20.4165 30.0968 20.3018 29.9218C20.2891 29.9042 20.2763 29.9042 20.2623 29.9218C20.0508 30.2193 19.9731 30.5963 19.9425 30.9598C19.9056 31.3893 19.9259 31.8376 20.0266 32.2577C20.2114 33.0278 20.6905 33.5987 21.325 33.9999C22.3061 34.6219 23.5663 34.7983 24.5857 34.1736C25.2292 33.7791 25.6713 33.1477 25.9644 32.4354C26.0102 32.3237 26.0064 32.1675 26.0026 32.0504C26 31.9602 26.0051 31.804 25.9453 31.7299C25.4037 31.0473 24.8278 30.3943 24.2837 29.7131C23.6237 28.8837 22.9993 28.0193 22.4743 27.0863C22.1622 26.5316 21.8869 25.9527 21.6678 25.3508C21.6155 25.2081 21.5697 25.4397 21.5646 25.4801C21.5455 25.6336 21.5378 25.8261 21.5913 25.9742C22.3393 28.0288 23.6517 29.7535 25.0125 31.392C25.3107 31.7515 25.6114 32.1083 25.9019 32.4745C25.8956 32.2389 25.8892 32.0046 25.8828 31.769C25.498 32.7047 24.7959 33.4748 23.8352 33.7131C22.9866 33.9245 22.0883 33.7239 21.3416 33.2648C20.8663 32.9726 20.442 32.5647 20.2228 32.0221C20.1311 31.7945 20.0674 31.5401 20.075 31.291C20.0776 31.1995 20.0916 31.1079 20.1133 31.019C20.1375 30.9221 20.1782 30.7336 20.256 30.6676C20.3095 30.6232 20.298 30.6528 20.3413 30.7255C20.3706 30.7753 20.3999 30.8252 20.4267 30.875C20.4917 30.9962 20.5465 31.1214 20.5949 31.2506C20.6943 31.5105 20.7669 31.7797 20.8179 32.0544C20.9122 32.5606 20.9211 33.0898 20.8281 33.5973C20.6497 34.5721 20.0457 35.6829 19.0136 35.7933C18.0261 35.8996 17.412 34.9464 17.1571 34.0645C17.017 33.5798 16.9583 33.0601 17.0157 32.5566C17.0463 32.29 17.0985 32.0154 17.1992 31.7676C17.2412 31.6666 17.3355 31.4633 17.4693 31.497C17.6044 31.532 17.6286 31.7582 17.6477 31.874C17.8363 32.9565 17.6286 34.2194 17.0106 35.1174C16.7099 35.5536 16.2868 35.8983 15.7695 35.9683C15.2547 36.037 14.7578 35.8135 14.4023 35.4244C13.7091 34.6664 13.4861 33.4317 13.6582 32.4193C13.7028 32.1567 13.7767 31.9023 13.8786 31.6586C13.8684 31.672 13.8582 31.6855 13.848 31.699C14.1067 31.804 14.1513 32.1675 14.1424 32.422C14.1283 32.8286 14.0009 33.2365 13.8722 33.6162C13.6059 34.4038 13.2007 35.2089 12.5585 35.7233C12.0043 36.1676 11.2767 36.251 10.6651 35.8821C10.0127 35.4903 9.65336 34.7081 9.54888 33.9474C9.4444 33.1759 9.56672 32.2873 10.0598 31.6801C10.0343 31.6114 10.0089 31.5428 9.98466 31.4741C10.0662 32.4933 9.6763 33.5206 9.1577 34.3607C8.71173 35.0837 8.06826 35.8404 7.22092 35.9898C6.501 36.1164 5.83714 35.6748 5.43577 35.0689C4.98725 34.3904 4.85346 33.5516 5.02803 32.7505C5.10703 32.391 5.24082 32.0315 5.46125 31.7407C5.5874 31.5737 6.03209 31.1092 6.17353 31.4714C6.18372 31.4983 6.17226 31.4458 6.17226 31.4472C6.16971 31.4808 6.16206 31.5145 6.15569 31.5468C6.13658 31.637 6.106 31.7218 6.07032 31.8053C5.97476 32.0356 5.86008 32.2577 5.72884 32.4691C5.50203 32.8353 5.22425 33.1665 4.90061 33.4398C4.22401 34.0134 3.39705 34.2786 2.5306 34.2342C2.00691 34.2072 1.48831 34.0807 0.990096 33.9124C0.781128 33.8424 0.545401 33.7818 0.361917 33.6485C0.291836 33.5973 0.225578 33.5341 0.178432 33.4587C0.156771 33.425 0.118545 33.3671 0.118545 33.3254C0.118545 33.4237 0.193723 33.2379 0.21411 33.2042C0.507175 32.7128 0.843563 32.2456 1.15829 31.769C1.47939 31.2816 1.79921 30.7929 2.12031 30.3041C2.76378 29.3226 3.40725 28.3411 4.04307 27.3542C4.2049 27.1038 4.35653 26.8466 4.51198 26.5922C4.54256 26.5437 4.53746 26.4616 4.53364 26.4064C4.52982 26.3916 4.51325 26.2677 4.49159 26.2987Z" fill="white"/>
<path d="M11.4359 3.06165C11.3977 2.04918 11.4742 0.873797 12.1979 0.107712C12.4515 -0.160215 12.7063 0.107712 12.8337 0.510277C13.0695 1.25886 13.4033 2.27402 13.4696 3.06165C13.4912 3.3188 13.1599 3.29995 12.9637 3.14647C12.189 2.53656 11.4436 2.10169 10.5478 1.71932C10.437 1.67219 10.2943 1.5766 10.2943 1.45139C10.2943 1.18346 11.4283 1.04613 11.938 0.996316L13.9385 0.7984C14.0455 0.787629 14.1869 0.81321 14.2328 0.915534C14.2978 1.06229 14.1538 1.205 14.0519 1.29117L11.8717 3.21648C11.6895 3.37401 11.4449 3.31073 11.4359 3.06165Z" fill="#D2B859"/>
<path d="M12.5789 35.8121C12.6528 37.6984 12.6974 39.5792 12.6745 41.4669C12.6732 41.5328 12.6846 41.6998 12.7585 41.7334C12.8337 41.7671 12.8745 41.6688 12.8885 41.6055C13.3256 39.7004 13.4275 37.7334 13.1905 35.7892C13.1829 35.7219 13.1485 35.5617 13.0542 35.6034C12.965 35.6438 12.9675 35.8538 12.9764 35.9292C13.1841 37.6701 13.244 39.4284 13.1574 41.1801C13.1536 41.246 13.1765 41.483 13.2797 41.4749C13.704 41.4413 13.7524 40.7331 13.8072 40.4046C13.8939 39.8835 13.9385 39.3544 13.9436 38.8253C13.955 37.7589 13.8047 36.6899 13.4938 35.6748C13.4708 35.598 13.425 35.4809 13.337 35.5509C13.2504 35.6196 13.2555 35.8121 13.2644 35.9077C13.439 37.693 13.5116 39.4863 13.4874 41.2811C13.4861 41.4036 13.6008 41.7631 13.7129 41.5059C14.1207 40.5702 14.164 39.5254 14.1653 38.5116C14.1665 37.4075 14.1219 36.3035 14.0391 35.2022C13.9525 35.2601 13.8658 35.3166 13.7792 35.3745C13.955 37.3766 14.0264 39.3881 13.9996 41.3982C13.9983 41.483 14.0124 41.6769 14.1028 41.7227C14.192 41.7684 14.2443 41.6392 14.2608 41.5678C14.6367 39.9764 14.759 38.3338 14.6444 36.6994C14.6393 36.6226 14.5972 36.4355 14.4927 36.4624C14.3882 36.4893 14.373 36.7047 14.373 36.7869C14.3755 38.0902 14.3717 39.3934 14.3704 40.6967C14.3704 40.7896 14.3882 41.0387 14.5144 41.0441C14.6405 41.0495 14.6571 40.7735 14.6584 40.6967C14.68 39.6573 14.6941 38.6152 14.5947 37.5785C14.5462 37.0669 14.48 36.5378 14.3449 36.0423C14.308 35.905 14.1844 35.6276 14.0276 35.8121C13.913 35.9467 13.8684 36.4395 14.0697 36.5176C14.0824 36.2928 14.0952 36.0693 14.1079 35.8444C13.8671 35.8121 13.625 35.7784 13.3842 35.7461C13.1485 35.7138 12.8898 35.7071 12.6604 35.6478C12.5853 35.6276 12.5598 35.9414 12.6604 35.9669C12.8974 36.0289 13.1395 36.1554 13.3714 36.2443C13.6046 36.3345 13.8365 36.426 14.0697 36.5163C14.2901 36.6024 14.2978 35.9575 14.1449 35.8565C14.1385 35.8525 14.1309 35.8471 14.1245 35.8431C14.1576 35.9238 14.192 36.0033 14.2252 36.0841C14.2239 36.076 14.2226 36.0679 14.2226 36.0598C14.2099 36.1729 14.1971 36.286 14.1857 36.3991C14.1857 36.4018 14.1857 36.4045 14.1857 36.4072C14.1614 36.4234 14.136 36.4395 14.1117 36.4557C14.1016 36.457 14.0837 36.3426 14.1079 36.461C14.1181 36.5136 14.1309 36.5647 14.1423 36.6172C14.1602 36.7007 14.1767 36.7842 14.192 36.869C14.2226 37.04 14.2481 37.2137 14.2697 37.386C14.3156 37.7482 14.3449 38.1117 14.3602 38.4766C14.3921 39.2171 14.3793 39.9589 14.3679 40.7008C14.4647 40.7008 14.5603 40.7008 14.6571 40.7008C14.652 39.3975 14.6469 38.0942 14.6456 36.7909C14.5552 36.8205 14.4647 36.8502 14.3755 36.8784C14.4762 38.3392 14.3487 39.8108 14.0162 41.2312C14.1028 41.2878 14.1907 41.3443 14.2774 41.4009C14.3003 39.3329 14.2175 37.2635 14.0366 35.2049C14.0289 35.1228 13.9843 34.9262 13.8709 34.9787C13.7601 35.0299 13.769 35.283 13.7766 35.3772C13.8518 36.3776 13.89 37.3793 13.8926 38.3823C13.8951 39.2871 13.8862 40.2201 13.5243 41.0589C13.5995 41.1343 13.6747 41.2084 13.7499 41.2837C13.7703 39.4365 13.6862 37.588 13.5052 35.7488C13.4288 35.8269 13.3523 35.9037 13.2759 35.9817C13.5333 36.8219 13.6785 37.697 13.6913 38.5816C13.6976 39.0165 13.6734 39.4513 13.6199 39.8835C13.5919 40.1043 13.5575 40.3238 13.5129 40.5405C13.4836 40.6846 13.4453 40.8731 13.2784 40.8879C13.3192 40.9862 13.36 41.0845 13.4007 41.1828C13.4861 39.3827 13.4148 37.5772 13.188 35.7906C13.1166 35.8377 13.0465 35.8848 12.9752 35.9319C13.2071 37.7293 13.109 39.5698 12.6872 41.3282C12.7585 41.3753 12.8299 41.4211 12.9025 41.4682C12.942 39.5671 12.9013 37.6526 12.7445 35.7582C12.7407 35.7071 12.7165 35.5994 12.6515 35.6115C12.5891 35.6223 12.5776 35.765 12.5789 35.8121Z" fill="white"/>
</svg>
