<svg width="68" height="56" viewBox="0 0 68 56" fill="none" xmlns="http://www.w3.org/2000/svg">
<path d="M68 6.55748C65.4713 7.66956 62.7767 8.4067 59.9675 8.76461C62.8575 7.0347 65.0633 4.31626 66.1003 1.03965C63.4058 2.65026 60.4307 3.78791 57.2603 4.42278C54.7017 1.69157 51.0553 0 47.0773 0C39.3593 0 33.1457 6.28052 33.1457 13.9799C33.1457 15.0877 33.2393 16.153 33.4688 17.167C21.879 16.6003 11.6237 11.0314 4.7345 2.548C3.53175 4.64009 2.82625 7.0347 2.82625 9.61252C2.82625 14.4529 5.3125 18.7436 9.0185 21.2277C6.77875 21.185 4.5815 20.5331 2.72 19.5063C2.72 19.5489 2.72 19.6043 2.72 19.6597C2.72 26.4515 7.55225 32.0929 13.889 33.3924C12.7542 33.7035 11.5175 33.8526 10.234 33.8526C9.3415 33.8526 8.4405 33.8015 7.59475 33.614C9.401 39.1489 14.5265 43.218 20.621 43.3501C15.878 47.0698 9.85575 49.311 3.33625 49.311C2.193 49.311 1.0965 49.2599 0 49.1193C6.17525 53.1117 13.4937 55.3913 21.386 55.3913C47.039 55.3913 61.064 34.087 61.064 15.6203C61.064 15.0025 61.0427 14.406 61.013 13.8137C63.7798 11.8452 66.1045 9.38669 68 6.55748Z" fill="#03A9F4"/>
</svg>
