<svg xmlns="http://www.w3.org/2000/svg" viewBox="0 0 33.35 24.22"><defs><style>.cls-1{fill:#e96632;}.cls-2{fill:#f7931e;}</style></defs><g id="Слой_2" data-name="Слой 2"><g id="Layer_1" data-name="Layer 1"><path class="cls-1" d="M32.62,5.8,20.14,22.48a4.33,4.33,0,0,1-6.94,0L.73,5.8A3.62,3.62,0,0,1,3.64,0H29.71A3.63,3.63,0,0,1,32.62,5.8Z"/><path class="cls-2" d="M2.93,8.75a25.44,25.44,0,0,1,5.3-.56,26.8,26.8,0,0,1,17.69,6.56l6.7-8.95A3.63,3.63,0,0,0,29.71,0H3.64A3.62,3.62,0,0,0,.73,5.8Z"/></g></g></svg>