<svg xmlns="http://www.w3.org/2000/svg" viewBox="0 0 59.68 29.97"><defs><style>.cls-1{fill:#f15a24;}</style></defs><g id="Слой_2" data-name="Слой 2"><g id="Layer_1" data-name="Layer 1"><path class="cls-1" d="M17.09,29.1h0a3,3,0,0,0,0-4.22l-1.82-1.82A3,3,0,0,1,17.38,18H31.73a3,3,0,0,0,3-3h0a3,3,0,0,0-3-3H17.38a3,3,0,0,1-2.11-5.09L17.1,5.09a3,3,0,0,0,0-4.22h0a3,3,0,0,0-4.21,0l-12,12a3,3,0,0,0,0,4.21l12,12A3,3,0,0,0,17.09,29.1Z"/><path class="cls-1" d="M46.22,12H42.78a3,3,0,0,0-3,3h0a3,3,0,0,0,3,3h3.44a3,3,0,0,0,3-3h0A3,3,0,0,0,46.22,12Z"/><rect class="cls-1" x="54.73" y="12" width="4.95" height="5.96" rx="2.26"/></g></g></svg>