<svg xmlns="http://www.w3.org/2000/svg" viewBox="0 0 18.39 13.34"><defs><style>.cls-1{fill:#fff;}</style></defs><g id="Слой_2" data-name="Слой 2"><g id="Layer_1" data-name="Layer 1"><path class="cls-1" d="M16.51,13.34h0a1.88,1.88,0,0,0,1.24-3.29l-2.23-2a1.88,1.88,0,0,1,0-2.82l2.23-2A1.88,1.88,0,0,0,16.51,0h0a1.92,1.92,0,0,0-1.25.47L9.83,5.26a1.88,1.88,0,0,0,0,2.82l5.43,4.79A1.87,1.87,0,0,0,16.51,13.34Z"/><path class="cls-1" d="M7.31,13.34h0a1.88,1.88,0,0,0,1.25-3.29l-2.24-2a1.89,1.89,0,0,1,0-2.82l2.24-2A1.88,1.88,0,0,0,7.31,0h0A1.87,1.87,0,0,0,6.07.47L.64,5.26a1.88,1.88,0,0,0,0,2.82l5.43,4.79A1.83,1.83,0,0,0,7.31,13.34Z"/></g></g></svg>