<svg xmlns="http://www.w3.org/2000/svg" viewBox="0 0 26.77 33.47"><defs><style>.cls-1{fill:#fff;}</style></defs><g id="Слой_2" data-name="Слой 2"><g id="Layer_1" data-name="Layer 1"><path class="cls-1" d="M22.17,0H4.6A4.6,4.6,0,0,0,0,4.6V28.87a4.61,4.61,0,0,0,4.6,4.6H22.17a4.61,4.61,0,0,0,4.6-4.6V4.6A4.6,4.6,0,0,0,22.17,0ZM7.11,27.61A2.09,2.09,0,1,1,9.2,25.52,2.1,2.1,0,0,1,7.11,27.61Zm0-5.86A2.09,2.09,0,1,1,9.2,19.66,2.09,2.09,0,0,1,7.11,21.75Zm6.28,5.86a2.09,2.09,0,1,1,2.09-2.09A2.09,2.09,0,0,1,13.39,27.61Zm0-5.86a2.09,2.09,0,1,1,2.09-2.09A2.08,2.08,0,0,1,13.39,21.75Zm8.36,3.77a2.09,2.09,0,0,1-4.18,0V19.66a2.09,2.09,0,0,1,4.18,0Zm0-13.35a2.05,2.05,0,0,1-2.06,2.05H7.08A2.05,2.05,0,0,1,5,12.17V7.91a2.05,2.05,0,0,1,2.06-2H19.69a2.05,2.05,0,0,1,2.06,2.05Z"/></g></g></svg>