<svg xmlns="http://www.w3.org/2000/svg" viewBox="0 0 332.87 95.32"><defs><style>.cls-1{isolation:isolate;}.cls-2{fill:#0071bc;}.cls-11,.cls-12,.cls-3,.cls-5{fill:#517e9b;}.cls-11,.cls-3,.cls-7{stroke:#4a3d27;stroke-miterlimit:10;}.cls-11,.cls-3{stroke-width:1.15px;}.cls-13,.cls-4{fill:#80a4bb;}.cls-11,.cls-12,.cls-4{fill-rule:evenodd;}.cls-6{fill:#a1c2cf;}.cls-7{fill:gray;stroke-width:4.01px;}.cls-8{fill:#cbcbcb;}.cls-9{fill:#f2f2f2;}.cls-10{fill:#e5e5e5;}.cls-14{fill:#4a3d27;}.cls-15{fill:#fff;}.cls-16{opacity:0.7;}.cls-17{fill:#b2b7d4;}.cls-18{mix-blend-mode:screen;opacity:0.6;}.cls-19{fill:#29abe2;}.cls-20,.cls-21{mix-blend-mode:multiply;}.cls-20{opacity:0.5;}.cls-22{fill:#bfbfbf;}.cls-23{fill:#de691b;}.cls-24{fill:#fbb03b;opacity:0.31;}</style></defs><g class="cls-1"><g id="Слой_2" data-name="Слой 2"><g id="Layer_1" data-name="Layer 1"><ellipse class="cls-2" cx="289.73" cy="93.9" rx="12.74" ry="1.42"/><path class="cls-3" d="M331.63,3.16c-.31-.67-.91-.3-1,1.42s0,7.94,0,7.94L329.57,12s-.44-7-.67-8.66-.9-1.66-1-.56-.33,9.26-.33,9.26l-1.23.06a52.06,52.06,0,0,0,0-7.11c-.31-2.11-.92-3.31-1.33-2a55.75,55.75,0,0,0-.91,7.51c-.11,1.79-.2,4-.28,5a23.19,23.19,0,0,1-.35,2.35s-3.92-4-5.68-3.76.76,1.36,1.5,2.35,2.33,4.21,3.84,5.7a9.17,9.17,0,0,0,3,2s.24,8.78-2.74,14.55a26.88,26.88,0,0,1-6.46,8.46,3.13,3.13,0,0,0-.12,2.93c.81,1.41,1.94,2.08,3.13.56s5.55-7.32,6.78-11.58a48.93,48.93,0,0,0,1.68-11.4,40.72,40.72,0,0,1,.47-4.86,10.58,10.58,0,0,0,2.64-4.11c.57-2.15.26-5.35.29-6.1S331.94,3.83,331.63,3.16Z"/><path class="cls-3" d="M331.19,2.06c-1.55.8-1.19,10.81-1.19,10.81l-.53-.4s.21-4.19.06-6.9S329,.06,328,.65c-1.38.79-.74,11.66-.74,11.66l-.71-.11a41,41,0,0,0,.15-6c-.2-2.27-.52-5.13-1.38-4.82s-1.49,2-1.57,5.42-.59,10.31-.59,10.31a4.25,4.25,0,0,0-.66-.93,6,6,0,0,0-3.92-2.7c-2.3-.32-3,1.14-1.58,1.5s2.39,2.07,3.84,4.71,4.9,4.66,4.9,4.66a42.82,42.82,0,0,1-1.62,10.88c-1.75,6.76-7.26,12.05-7.26,12.05a23.53,23.53,0,0,0,8.51-13.26c1.42-6.31,1.11-8.61.88-9.57s.37-.91-1.15-1.53-3.35-3.68-4.46-5.32c-1.6-2.4-6.27-4.77-.57-2.52,1.5.59,2.7,2.93,3.26,3.6s.69-.21.91-1.19,1-.31,2.27-.2,2.61-.4,1.88-1-4.44.29-4.56-.41-.23-2.58.89-3a10.75,10.75,0,0,1,5.43.32c1.44.54,1.19,2.49,1.11,4.24a7,7,0,0,1-1.8,4.31,2.73,2.73,0,0,0-1.35,2.53,69.91,69.91,0,0,1-.91,11.19c-.75,5.66-7.77,15.68-7.77,15.68s1.47-.52,5.8-8.12,3.75-17.13,3.94-18.63,1.44-.95,2.43-3.73.72-6.27.65-7.75.06-3.78,0-5.8S332.35,1.47,331.19,2.06ZM325.77,12.4l-1.47.26s-.15-2.47-.08-4.49.42-5.8.78-5.73.69,1.84.7,3.6S325.77,12.4,325.77,12.4Zm2,0s-.06-8.76.21-10.27.69,1.34.72,3.53.2,6.76.2,6.76Zm3.63-5.48c0,2.45-.11,6.38-.11,6.38l-.89-.43s.17-8.3.56-9.29S331.32,4.42,331.36,6.88Z"/><path class="cls-3" d="M320.78,16.5c1.22,1.3,2.52,2.95,2.11,1.83a7.75,7.75,0,0,0-3.14-3.71s-3-.85-2.23-.17S319.57,15.2,320.78,16.5Zm3.71-4.57c.37-1-.09-4.3.37-6.47s.42-4.26.05-3.23a18.39,18.39,0,0,0-.72,4.12c-.1,2.16,0,3-.05,4.38S324.11,13,324.49,11.93Zm3.16.19c.58.19.78-.18.64-1.39a37,37,0,0,1-.21-5.44c.09-2.3.6-5-.13-3.8,0,0-.41,3.11-.43,5.4s.3,2.93.14,4S327.07,11.94,327.65,12.12Zm3.52-9.51a5.85,5.85,0,0,0-.58,2.76c-.1,2.09.25,3.29,0,4.8a15.45,15.45,0,0,0-.15,2.52l.42-.09s.05-5.89.18-7.47S332.19,1.63,331.17,2.61Zm-3.86,9.82s-2.23,0-3,1-.93,1.34-.54,2,1,.24,1.33-.64,1.07-1.42,1.4-.65.38,1.85.93,1.25.48-1.75,1.29-1.36,1,1.74,1.77.91S329.94,12,327.31,12.43Zm1.9,4.7c-1.52-.13-3.82-.37-4.16.15,0,0-.79,0-1.09,1.06s-1.19,1.93.4,3.35,1.47-1.87,3.63-1.84S330.72,17.27,329.21,17.13Zm-12.6,31.72c.63,1.12,5-2.92,6.91-6.39s3.15-15,2.88-17.29c0,0-.59,10.57-3.06,13.93S316,47.74,316.61,48.85Z"/><path class="cls-4" d="M331.63,3.16c-.31-.67-.91-.3-1,1.42s0,7.94,0,7.94L329.57,12s-.44-7-.67-8.66-.9-1.66-1-.56-.33,9.26-.33,9.26l-1.23.06a52.06,52.06,0,0,0,0-7.11c-.31-2.11-.92-3.31-1.33-2a55.75,55.75,0,0,0-.91,7.51c-.11,1.79-.2,4-.28,5a23.19,23.19,0,0,1-.35,2.35s-3.92-4-5.68-3.76.76,1.36,1.5,2.35,2.33,4.21,3.84,5.7a9.17,9.17,0,0,0,3,2s.24,8.78-2.74,14.55a26.88,26.88,0,0,1-6.46,8.46,3.13,3.13,0,0,0-.12,2.93c.81,1.41,1.94,2.08,3.13.56s5.55-7.32,6.78-11.58a48.93,48.93,0,0,0,1.68-11.4,40.72,40.72,0,0,1,.47-4.86,10.58,10.58,0,0,0,2.64-4.11c.57-2.15.26-5.35.29-6.1S331.94,3.83,331.63,3.16Z"/><path class="cls-5" d="M331.19,2.06c-1.55.8-1.19,10.81-1.19,10.81l-.53-.4s.21-4.19.06-6.9S329,.06,328,.65c-1.38.79-.74,11.66-.74,11.66l-.71-.11a41,41,0,0,0,.15-6c-.2-2.27-.52-5.13-1.38-4.82s-1.49,2-1.57,5.42-.59,10.31-.59,10.31a4.25,4.25,0,0,0-.66-.93,6,6,0,0,0-3.92-2.7c-2.3-.32-3,1.14-1.58,1.5s2.39,2.07,3.84,4.71,4.9,4.66,4.9,4.66a42.82,42.82,0,0,1-1.62,10.88c-1.75,6.76-7.26,12.05-7.26,12.05a23.53,23.53,0,0,0,8.51-13.26c1.42-6.31,1.11-8.61.88-9.57s.37-.91-1.15-1.53-3.35-3.68-4.46-5.32c-1.6-2.4-6.27-4.77-.57-2.52,1.5.59,2.7,2.93,3.26,3.6s.69-.21.91-1.19,1-.31,2.27-.2,2.61-.4,1.88-1-4.44.29-4.56-.41-.23-2.58.89-3a10.75,10.75,0,0,1,5.43.32c1.44.54,1.19,2.49,1.11,4.24a7,7,0,0,1-1.8,4.31,2.73,2.73,0,0,0-1.35,2.53,69.91,69.91,0,0,1-.91,11.19c-.75,5.66-7.77,15.68-7.77,15.68s1.47-.52,5.8-8.12,3.75-17.13,3.94-18.63,1.44-.95,2.43-3.73.72-6.27.65-7.75.06-3.78,0-5.8S332.35,1.47,331.19,2.06ZM325.77,12.4l-1.47.26s-.15-2.47-.08-4.49.42-5.8.78-5.73.69,1.84.7,3.6S325.77,12.4,325.77,12.4Zm2,0s-.06-8.76.21-10.27.69,1.34.72,3.53.2,6.76.2,6.76Zm3.63-5.48c0,2.45-.11,6.38-.11,6.38l-.89-.43s.17-8.3.56-9.29S331.32,4.42,331.36,6.88Z"/><path class="cls-6" d="M320.78,16.5c1.22,1.3,2.52,2.95,2.11,1.83a7.75,7.75,0,0,0-3.14-3.71s-3-.85-2.23-.17S319.57,15.2,320.78,16.5Zm3.71-4.57c.37-1-.09-4.3.37-6.47s.42-4.26.05-3.23a18.39,18.39,0,0,0-.72,4.12c-.1,2.16,0,3-.05,4.38S324.11,13,324.49,11.93Zm3.16.19c.58.19.78-.18.64-1.39a37,37,0,0,1-.21-5.44c.09-2.3.6-5-.13-3.8,0,0-.41,3.11-.43,5.4s.3,2.93.14,4S327.07,11.94,327.65,12.12Zm3.52-9.51a5.85,5.85,0,0,0-.58,2.76c-.1,2.09.25,3.29,0,4.8a15.45,15.45,0,0,0-.15,2.52l.42-.09s.05-5.89.18-7.47S332.19,1.63,331.17,2.61Zm-3.86,9.82s-2.23,0-3,1-.93,1.34-.54,2,1,.24,1.33-.64,1.07-1.42,1.4-.65.38,1.85.93,1.25.48-1.75,1.29-1.36,1,1.74,1.77.91S329.94,12,327.31,12.43Zm1.9,4.7c-1.52-.13-3.82-.37-4.16.15,0,0-.79,0-1.09,1.06s-1.19,1.93.4,3.35,1.47-1.87,3.63-1.84S330.72,17.27,329.21,17.13Zm-12.6,31.72c.63,1.12,5-2.92,6.91-6.39s3.15-15,2.88-17.29c0,0-.59,10.57-3.06,13.93S316,47.74,316.61,48.85Z"/><path class="cls-7" d="M272.94,20.44c-2.36.57-3.7,3.4-3,6.31L284.1,85.17c.71,2.92,3.2,4.82,5.56,4.25l35.57-8.62c2.36-.57,3.7-3.41,3-6.32L314.07,16.06c-.71-2.91-3.2-4.81-5.56-4.24Z"/><path class="cls-8" d="M271.9,20.05c-2.36.58-3.71,3.41-3,6.32l14.15,58.42c.71,2.91,3.2,4.82,5.56,4.24l35.57-8.62c2.36-.57,3.7-3.4,3-6.31L313,15.68c-.7-2.91-3.2-4.82-5.56-4.24Z"/><path class="cls-9" d="M308.46,19.68l-33.62,8.15a1.21,1.21,0,0,0-.72,1.53l3.1,12.8a1.2,1.2,0,0,0,1.34,1L312.18,35a1.21,1.21,0,0,0,.73-1.52l-3.1-12.8A1.22,1.22,0,0,0,308.46,19.68Z"/><path class="cls-10" d="M315,59.21l-6.43,1.56a1.21,1.21,0,0,0-.73,1.53l3.45,14.22a1.2,1.2,0,0,0,1.34,1L319.08,76a1.21,1.21,0,0,0,.72-1.53l-3.44-14.23A1.21,1.21,0,0,0,315,59.21Z"/><path class="cls-10" d="M306.77,47.35l3.71-.9c1.13-.27,1.73-1.83,1.34-3.47s-1.65-2.76-2.79-2.48l-3.7.9c-1.14.27-1.74,1.83-1.34,3.47S305.63,47.63,306.77,47.35Zm-1.13-4.68,3.7-.9c.56-.13,1.22.53,1.44,1.46s-.06,1.81-.61,2l-3.71.9c-.56.13-1.22-.53-1.44-1.46S305.08,42.81,305.64,42.67Z"/><path class="cls-10" d="M309.08,56.89l3.71-.89c1.14-.28,1.74-1.84,1.34-3.48s-1.65-2.76-2.78-2.48l-3.71.9c-1.14.27-1.74,1.83-1.34,3.48S308,57.17,309.08,56.89ZM308,52.21l3.7-.89c.56-.14,1.22.53,1.44,1.45s0,1.82-.61,1.95l-3.71.9c-.55.13-1.21-.53-1.44-1.45S307.39,52.35,308,52.21Z"/><path class="cls-10" d="M298.55,43l-3.7.9c-1.14.27-1.74,1.83-1.34,3.47s1.65,2.76,2.78,2.48L300,49c1.13-.27,1.74-1.83,1.34-3.47S299.69,42.76,298.55,43Zm1.14,4.68-3.71.9c-.55.13-1.21-.53-1.44-1.46s.06-1.81.62-1.95l3.7-.9c.56-.13,1.22.53,1.44,1.46S300.25,47.58,299.69,47.72Z"/><path class="cls-10" d="M300.83,52.42l-3.71.89c-1.13.28-1.74,1.84-1.34,3.48s1.65,2.75,2.78,2.48l3.71-.9c1.14-.27,1.74-1.83,1.34-3.48S302,52.14,300.83,52.42ZM302,57.1l-3.7.89c-.56.14-1.22-.53-1.44-1.45s.05-1.82.61-1.95l3.71-.9c.55-.13,1.21.53,1.44,1.46S302.52,57,302,57.1Z"/><path class="cls-10" d="M288.08,45.58l-3.71.89c-1.14.28-1.74,1.84-1.34,3.48s1.65,2.76,2.78,2.48l3.71-.9c1.14-.27,1.74-1.83,1.34-3.48S289.21,45.3,288.08,45.58Zm1.13,4.68-3.7.9c-.56.13-1.22-.53-1.45-1.46s.06-1.81.62-2l3.71-.9c.55-.13,1.21.53,1.44,1.46S289.77,50.12,289.21,50.26Z"/><path class="cls-10" d="M290.35,55l-3.71.89c-1.13.28-1.73,1.84-1.34,3.48s1.65,2.75,2.79,2.48l3.7-.9c1.14-.27,1.74-1.83,1.34-3.48S291.49,54.68,290.35,55Zm1.13,4.68-3.7.89c-.56.14-1.22-.53-1.44-1.45s.06-1.82.61-1.95l3.71-.9c.56-.13,1.21.53,1.44,1.45S292,59.5,291.48,59.64Z"/><path class="cls-10" d="M292.62,64.33l-3.7.9c-1.14.28-1.74,1.84-1.34,3.48s1.64,2.75,2.78,2.48l3.71-.9c1.13-.28,1.73-1.84,1.33-3.48S293.76,64.06,292.62,64.33ZM293.76,69l-3.71.9c-.56.14-1.22-.53-1.44-1.45s.06-1.82.62-1.95l3.7-.9c.56-.14,1.22.53,1.44,1.45S294.31,68.88,293.76,69Z"/><path class="cls-10" d="M294.89,73.71l-3.7.9c-1.14.27-1.74,1.83-1.34,3.48s1.65,2.75,2.78,2.47l3.71-.89c1.13-.28,1.74-1.84,1.34-3.48S296,73.43,294.89,73.71ZM296,78.39l-3.71.9c-.55.13-1.21-.53-1.44-1.45s.06-1.82.62-2l3.7-.89c.56-.14,1.22.53,1.44,1.45S296.59,78.26,296,78.39Z"/><path class="cls-10" d="M302.85,61.85l-3.71.9c-1.13.28-1.74,1.84-1.34,3.48s1.65,2.75,2.79,2.48l3.7-.9c1.14-.27,1.74-1.83,1.34-3.48S304,61.58,302.85,61.85ZM304,66.54l-3.7.89c-.56.14-1.22-.53-1.44-1.45s.05-1.82.61-2l3.71-.9c.55-.14,1.21.53,1.44,1.45S304.54,66.4,304,66.54Z"/><path class="cls-10" d="M305.12,71.23l-3.71.9c-1.13.28-1.73,1.84-1.33,3.48s1.64,2.75,2.78,2.48l3.7-.9c1.14-.28,1.74-1.84,1.34-3.48S306.26,71,305.12,71.23Zm1.14,4.68-3.71.9c-.56.14-1.22-.53-1.44-1.45s.06-1.82.61-2l3.71-.9c.56-.14,1.22.53,1.44,1.45S306.81,75.78,306.26,75.91Z"/><path class="cls-11" d="M279.6,75.08c-1.29.65-.26-.28-1.24,1a8.67,8.67,0,0,0-1.17,2.26c-.23.77-.41,1.24-.41,1.24a11.74,11.74,0,0,1,.41-1.24,21.46,21.46,0,0,0,.86-5.44c.06-3.57-.12-7.32-1-10s-1.38-3.76-1.26-1.08.77,8,.27,11.49a24.1,24.1,0,0,1-1.83,6.34,12.15,12.15,0,0,1-3.12-1.75c-1.14-1-4.7-4.29-5.54-3.51s.41,1.88,2.4,3.49,2.76,2.35,2.76,2.35l-.1.66s-3.47-.07-5.21-1.51-3.94-1-2.1,1,4.23,2.11,5.66,2.3a3.62,3.62,0,0,0,2-.12l-.34,1.25a29.63,29.63,0,0,1-5-.8c-1.82-.56-3.89.13-.72,1.52,2.33,1,4.42,1.32,6.24.59,0,0,2.43,2.3,5.11,1.53s2.25-4,2-5.3a5.6,5.6,0,0,1,1-3.93C280.13,76.29,280.9,74.44,279.6,75.08Z"/><path class="cls-3" d="M279.76,75.16a2.69,2.69,0,0,0-1.55,1.48c-.42.93-1.33,2-1.51,2.62s-.75,2-1,1.75-3.59-2.14-4.82-3.09-4.56-4.13-5-3.84-.33.63.95,1.85,5.26,4.39,5.26,4.39l-.36.92a10.23,10.23,0,0,1-5-1c-2.58-1.23-3.78-2-3.44-1.23s1.47,1.23,2.61,1.87a9.41,9.41,0,0,0,5.16,1.22l.51.07L271,83.58s-.64.46-2.49.12-4.92-1.06-4.62-.53,2.82,1.52,4.56,1.59a7.66,7.66,0,0,0,3.16-.56s2.12,2.07,2.35,1.31-1.09-2-.8-3.22.22-.26.47,1.21,1.44,3,2.59,2.51c3-1.42.76-4,1.25-4.92a2,2,0,0,0,.28-1.5,11.32,11.32,0,0,1,1-2.68C279.42,75.72,280.3,74.93,279.76,75.16Zm-3.1,2.53A57.94,57.94,0,0,0,277,65.62c-.31-2.76-1-4.58-.88-3.6s.52,7.54.42,10A36.06,36.06,0,0,1,275,79C275,81.13,276.14,79.79,276.66,77.69Z"/><path class="cls-3" d="M271.38,78.41s-2.35-2-3.4-2.74-1.76-1.51-1.55-.68.14.41,1.85,1.63S272.21,79.93,271.38,78.41Zm-7.56.82a4.8,4.8,0,0,0,2.67,1.35,22.58,22.58,0,0,0,2.66.43s-2.66-.86-4-1.42S263.15,78.62,263.82,79.23Zm.52,4c.38.58.49.78,1.17.53s1.2-.13,1.41.27,1.68-.28,1.68-.28S264,82.66,264.34,83.24Zm8.38-3.68a7.81,7.81,0,0,0-1,3.82c.21,1.69.93,1.72.84.73s-.43-2.59.3-3,.8-.78,1.4-.23,0,2.81.7,3.41.07-1.74.54-2.39.08-.81-.72-1.32S272.89,78.81,272.72,79.56Zm6.63-4.26a4.23,4.23,0,0,0-1.07,1.33c-.38.78-.6,1.18,0,.57S279.86,74.86,279.35,75.3Zm-3.9,3.81c.68-.69,1-6.43,1-6.43a31.18,31.18,0,0,1-.66,4.28C275.37,78.62,274.77,79.8,275.45,79.11Z"/><path class="cls-12" d="M279.6,75.08c-1.29.65-.26-.28-1.24,1a8.67,8.67,0,0,0-1.17,2.26c-.23.77-.41,1.24-.41,1.24a11.74,11.74,0,0,1,.41-1.24,21.46,21.46,0,0,0,.86-5.44c.06-3.57-.12-7.32-1-10s-1.38-3.76-1.26-1.08.77,8,.27,11.49a24.1,24.1,0,0,1-1.83,6.34,12.15,12.15,0,0,1-3.12-1.75c-1.14-1-4.7-4.29-5.54-3.51s.41,1.88,2.4,3.49,2.76,2.35,2.76,2.35l-.1.66s-3.47-.07-5.21-1.51-3.94-1-2.1,1,4.23,2.11,5.66,2.3a3.62,3.62,0,0,0,2-.12l-.34,1.25a29.63,29.63,0,0,1-5-.8c-1.82-.56-3.89.13-.72,1.52,2.33,1,4.42,1.32,6.24.59,0,0,2.43,2.3,5.11,1.53s2.25-4,2-5.3a5.6,5.6,0,0,1,1-3.93C280.13,76.29,280.9,74.44,279.6,75.08Z"/><path class="cls-13" d="M279.76,75.16a2.69,2.69,0,0,0-1.55,1.48c-.42.93-1.33,2-1.51,2.62s-.75,2-1,1.75-3.59-2.14-4.82-3.09-4.56-4.13-5-3.84-.33.63.95,1.85,5.26,4.39,5.26,4.39l-.36.92a10.23,10.23,0,0,1-5-1c-2.58-1.23-3.78-2-3.44-1.23s1.47,1.23,2.61,1.87a9.41,9.41,0,0,0,5.16,1.22l.51.07L271,83.58s-.64.46-2.49.12-4.92-1.06-4.62-.53,2.82,1.52,4.56,1.59a7.66,7.66,0,0,0,3.16-.56s2.12,2.07,2.35,1.31-1.09-2-.8-3.22.22-.26.47,1.21,1.44,3,2.59,2.51c3-1.42.76-4,1.25-4.92a2,2,0,0,0,.28-1.5,11.32,11.32,0,0,1,1-2.68C279.42,75.72,280.3,74.93,279.76,75.16Zm-3.1,2.53A57.94,57.94,0,0,0,277,65.62c-.31-2.76-1-4.58-.88-3.6s.52,7.54.42,10A36.06,36.06,0,0,1,275,79C275,81.13,276.14,79.79,276.66,77.69Z"/><path class="cls-6" d="M271.38,78.41s-2.35-2-3.4-2.74-1.76-1.51-1.55-.68.14.41,1.85,1.63S272.21,79.93,271.38,78.41Zm-7.56.82a4.8,4.8,0,0,0,2.67,1.35,22.58,22.58,0,0,0,2.66.43s-2.66-.86-4-1.42S263.15,78.62,263.82,79.23Zm.52,4c.38.58.49.78,1.17.53s1.2-.13,1.41.27,1.68-.28,1.68-.28S264,82.66,264.34,83.24Zm8.38-3.68a7.81,7.81,0,0,0-1,3.82c.21,1.69.93,1.72.84.73s-.43-2.59.3-3,.8-.78,1.4-.23,0,2.81.7,3.41.07-1.74.54-2.39.08-.81-.72-1.32S272.89,78.81,272.72,79.56Zm6.63-4.26a4.23,4.23,0,0,0-1.07,1.33c-.38.78-.6,1.18,0,.57S279.86,74.86,279.35,75.3Zm-3.9,3.81c.68-.69,1-6.43,1-6.43a31.18,31.18,0,0,1-.66,4.28C275.37,78.62,274.77,79.8,275.45,79.11Z"/><path class="cls-9" d="M317.56,37.69a16.09,16.09,0,0,1-1.49,6.71,20.75,20.75,0,0,0-15.35,1.83,15.53,15.53,0,0,1-2.47-8.71c.06-7.1,4.44-12.83,9.77-12.79S317.63,30.58,317.56,37.69Z"/><path class="cls-14" d="M317.87,37.69a16.41,16.41,0,0,1-1.52,6.85l-.11.23L316,44.7a20.33,20.33,0,0,0-7.73-.56,19.74,19.74,0,0,0-7.37,2.36l-.26.14-.16-.24a16.12,16.12,0,0,1-2.37-10.91,15.68,15.68,0,0,1,1.67-5.42,11.53,11.53,0,0,1,3.77-4.26,8,8,0,0,1,2.64-1.16,8.26,8.26,0,0,1,2.89-.15,8.82,8.82,0,0,1,2.74.94,9.77,9.77,0,0,1,2.27,1.77,12.91,12.91,0,0,1,2.9,4.88A16.93,16.93,0,0,1,317.87,37.69Zm-.63,0a14.7,14.7,0,0,0-1.12-5.3,12.1,12.1,0,0,0-3-4.29,9.91,9.91,0,0,0-2-1.42,7.84,7.84,0,0,0-2.27-.74,6.89,6.89,0,0,0-2.35.1,6.62,6.62,0,0,0-2.21.94,12.63,12.63,0,0,0-5.09,8.66A14.88,14.88,0,0,0,301.1,46l-.6-.14a21.1,21.1,0,0,1,7.69-2.28,21.93,21.93,0,0,1,7.94.64l-.27.12A15.81,15.81,0,0,0,317.24,37.68Z"/><path class="cls-15" d="M315,38.71a16,16,0,0,1-.85,3.81c-3.21-1.27-9.86-.33-13.58,1.7a15,15,0,0,1-.94-5.82c.16-5.74,3.25-11,7.17-12a5.66,5.66,0,0,1,1.42-.14c2.06.08,3.92,1.41,5.21,3.7A14.67,14.67,0,0,1,315,38.71Z"/><path class="cls-14" d="M301.68,37.82c.67,3.64,3.42,6.17,6.15,5.67s4.38-3.85,3.72-7.48-3.42-6.17-6.15-5.67S301,34.19,301.68,37.82Z"/><path class="cls-15" d="M304.33,39c.13.68.65,1.16,1.16,1.07a1.14,1.14,0,0,0,.7-1.42c-.12-.68-.64-1.16-1.16-1.07A1.15,1.15,0,0,0,304.33,39Z"/><path class="cls-14" d="M312.48,19.7s-1-4.37-9-6.27c-4-.95-5.7,3.05-5.7,3.05S303.31,13,312.48,19.7Z"/><path class="cls-14" d="M288.3,38.46a3.53,3.53,0,0,1,.91,2,19,19,0,0,0-15.53,1.1,23,23,0,0,1,15.94.64,14.14,14.14,0,0,0-5.51,1.42s5-1.1,8.53.39C292.55,42.34,290.28,39.15,288.3,38.46Z"/><path class="cls-14" d="M275.08,35.68c4.14-2.07,12-1.79,15.19,1C288.51,31.84,282.27,30.1,275.08,35.68Z"/><g class="cls-16"><path class="cls-17" d="M291.79,49.92a.89.89,0,0,1,0,.23c-.22,2.7-.69,5.81-1.34,6.6-.32.4-2.11.77-4.37,1-4.5.52-10.94.65-11.65-.16a3.13,3.13,0,0,1-.35-.55,28.21,28.21,0,0,1-2.36-6.29c-.46-1.88-.57-3.46.15-3.79a18,18,0,0,1,4.52-1.1,65.88,65.88,0,0,1,8.38-.56c1.09,0,2.11,0,3,0,2.25.06,3.85.24,4,.46A13.34,13.34,0,0,1,291.79,49.92Z"/></g><g class="cls-18"><path class="cls-17" d="M291.79,49.92l-5.72,7.86c-4.5.52-10.94.65-11.65-.16a3.13,3.13,0,0,1-.35-.55l2.31-11.18a65.88,65.88,0,0,1,8.38-.56L280.9,56.16l6.9-10.8c2.25.06,3.85.24,4,.46A13.34,13.34,0,0,1,291.79,49.92Z"/></g><path class="cls-19" d="M329.77,42.25c-.13-.33-.79-.47-1.86-.39a17.89,17.89,0,0,0-2.91.56l-.3.08-.06-.29A1.68,1.68,0,0,0,323.32,41a30.75,30.75,0,0,0-6,.08A134.43,134.43,0,0,0,303.08,43a2.91,2.91,0,0,0-1.75,1.14l-.2.31-.25-.27s-.75-.81-3.27-1h-.34l-.41,0-.16,0h-.17c-2.44.56-3,1.48-3,1.48l-.2.33-.27-.29a2.87,2.87,0,0,0-1.9-.85,134.06,134.06,0,0,0-14.33.32,29.16,29.16,0,0,0-6,.89,1.64,1.64,0,0,0-1.11,1.37l0,.29-.29,0a18.9,18.9,0,0,0-3-.09c-1.05.08-1.7.34-1.76.68-.25,1.27,1.11,3.23,1.46,3.53a1.56,1.56,0,0,0,.62,0c.32,0,.72-.08,1.1-.14s.78-.11,1.11-.13a1.68,1.68,0,0,1,.86.07c.25.14.37.56.8,2.22.55,2.12,1.46,5.68,2.79,6.41.82.48,4.3.54,8.84.18,5.42-.42,9.22-1.21,9.65-1.69a8.9,8.9,0,0,0,.76-2.76c.56-3,1.34-7.17,4.57-7.61l.52,0c3.16-.07,4.57,3.89,5.61,6.8a8.14,8.14,0,0,0,1.19,2.61c.49.41,4.37.58,9.78.15,4.54-.36,8-1,8.72-1.57,1.17-.93,1.53-4.59,1.72-6.77.17-1.71.23-2.14.45-2.31a1.52,1.52,0,0,1,.85-.21c.31,0,.71-.05,1.11-.05s.78,0,1.1,0a1.46,1.46,0,0,0,.61-.12C329.17,45.62,330.22,43.47,329.77,42.25ZM290.44,56.76c-1,1.2-14.95,2.07-16,.87s-4.34-9.84-2.58-10.63c4.73-2.14,19.5-1.87,19.94-1.18S291.59,55.33,290.44,56.76Zm31.28-2.88c-.88,1.35-14.81,2.7-16,1.67-1.36-1.23-3.38-9.84-3.06-10.6s14.87-3.34,19.88-2C324.45,43.49,322.56,52.52,321.72,53.88Z"/><path class="cls-15" d="M329.74,42.26c-.2-.35-.7-.36-1.08-.39a13.87,13.87,0,0,0-3.66.6l-.28.08c-.08,0-.06,0-.07,0-.16-1.19-1.24-1.53-2.3-1.5a66.58,66.58,0,0,0-9.35.65c-3.11.38-6.21.83-9.27,1.44a3,3,0,0,0-2.43,1.51l-.13.24-.45-.5.17.07a.24.24,0,0,1-.19-.08,6.06,6.06,0,0,0-3.75-.85c-.15,0-.26,0-.4,0h0c-1.23.32-2.68.68-3.25,1.94a3.15,3.15,0,0,0-2.79-1.32c-3.09-.11-6.19-.06-9.28.05-3.56.23-7.28.14-10.69,1.21a1.63,1.63,0,0,0-.81,1.45V47h-.09a10.24,10.24,0,0,0-4.64.18c-.67.35-.18,1.38,0,1.91a6.4,6.4,0,0,0,1.16,1.83l-.07,0a17.48,17.48,0,0,0,2.76-.25c.46-.06,1.14-.08,1.3.49.74,2.2,1.11,4.53,2.11,6.62.39.79.89,1.68,1.81,1.75a40.32,40.32,0,0,0,8.29-.09c3.05-.39,6.54-.45,9.35-1.66,1.37-3.48.8-9.76,5.68-10.45,4.31-.21,5.37,5.16,6.65,8.26a4.28,4.28,0,0,0,.59,1.15,3.25,3.25,0,0,0,1.18.26,56.86,56.86,0,0,0,16.51-1.27c.92-.21,1.27-1.18,1.54-2a31.29,31.29,0,0,0,.84-5.47c.17-.62-.06-1.67.67-1.95,1-.26,2.44,0,3.45-.27a5,5,0,0,0,.9-3.67Zm.05,0A5,5,0,0,1,328.9,46a4.26,4.26,0,0,1-1.41.17l-1.39.06c-.44,0-1,.05-1,.56-.59,2.85,0,6.4-2,8.78-2.76,1.29-5.95,1.3-8.93,1.67a53.32,53.32,0,0,1-8.38.18,2.81,2.81,0,0,1-1.49-.42,4.74,4.74,0,0,1-.69-1.31c-1.26-2.94-2.13-8.09-6.15-8-4.62.7-3.87,6.92-5.34,10.23a1.45,1.45,0,0,1-.71.42,44,44,0,0,1-9,1.38c-3,.1-6.16.62-9.09-.23-2.29-2-2.35-5.68-3.36-8.36-.11-.47-.62-.39-1.07-.36a18.48,18.48,0,0,1-2.77.23,5.12,5.12,0,0,1-1.27-1.93c-.24-.62-.65-1.75.1-2.14a10.28,10.28,0,0,1,4.45-.23l.29,0-.1.08c0-1.44,1.19-1.85,2.39-2.05a101.4,101.4,0,0,1,15.47-1.06c2,.15,4.56-.54,6,1.25l-.32,0c.65-1.18,2.15-1.58,3.37-1.91h.2c-.16,0,.21,0,.22,0a6.8,6.8,0,0,1,2.46.22A4.23,4.23,0,0,1,301,44h0a.24.24,0,0,0-.14,0l.17.07.25.28-.33,0a3.43,3.43,0,0,1,2.7-1.64c3.09-.57,6.2-1,9.32-1.33a68.6,68.6,0,0,1,9.39-.55c1.06,0,2.27.38,2.4,1.63l-.07,0,.29-.08h0a10.61,10.61,0,0,1,4.29-.48.72.72,0,0,1,.51.36Z"/><path class="cls-15" d="M290.46,56.78c-1,.71-2.36.71-3.55,1-4,.52-8,1.08-12,.32-1-.26-1.22-1.48-1.64-2.28a27.84,27.84,0,0,1-2-7.1c0-.61-.09-1.4.53-1.79a10.19,10.19,0,0,1,1.76-.61,55,55,0,0,1,14.71-1.18c1.16.12,2.66,0,3.69.53.43,1.09.1,2.76.05,4-.35,2.4-.41,5-1.54,7.19Zm0,0c1.09-2.17,1.05-4.78,1.25-7.18a15.72,15.72,0,0,0-.1-3.6,54.4,54.4,0,0,0-10.68-.27,43.08,43.08,0,0,0-7.27.86,11.27,11.27,0,0,0-1.73.56c-.48.29-.45,1-.44,1.57a22,22,0,0,0,2.94,8.6.84.84,0,0,0,.63.42,42.43,42.43,0,0,0,8.21.19c2.37-.22,5,0,7.19-1.15Z"/><path class="cls-15" d="M321.74,53.9c-1.45,1.4-15.21,3.3-16.31,1.52-1.52-2.72-2-5.84-2.71-8.84a5.46,5.46,0,0,1-.13-1.66.5.5,0,0,1,.23-.2,44.84,44.84,0,0,1,9.05-1.91c3.5-.38,7.14-.84,10.64-.1,2.47.63.06,9.47-.77,11.19Zm0,0a22.72,22.72,0,0,0,1.46-7.16c0-1.07.18-2.55-.47-3.39a10.62,10.62,0,0,0-3.45-.46,73,73,0,0,0-14.58,1.55,10.52,10.52,0,0,0-1.73.51c-.24,0-.12.45-.13.72s.07.61.12.91a25.93,25.93,0,0,0,2.78,8.66.86.86,0,0,0,.67.36,46.14,46.14,0,0,0,8.22-.2c2.35-.33,5.05-.24,7.11-1.5Z"/><g class="cls-16"><path class="cls-17" d="M323.35,46.24a3.64,3.64,0,0,1,0,.45A28.19,28.19,0,0,1,322,53.28a3.64,3.64,0,0,1-.26.6c-.34.53-2.63,1-5.37,1.43-2,.27-4.2.47-6.1.56-2.28.1-4.1,0-4.48-.33a7,7,0,0,1-1.21-2.34c-.41-1.19-.83-2.62-1.16-4a1.55,1.55,0,0,1,0-.23,14,14,0,0,1-.64-4c.1-.24,1.61-.66,3.78-1.07l.09,0c.91-.18,1.92-.35,3-.51,1.78-.27,3.73-.5,5.62-.64.95-.06,1.87-.11,2.75-.12h.41a16.63,16.63,0,0,1,4.22.38C323.28,43.16,323.46,44.52,323.35,46.24Z"/></g><g class="cls-18"><path class="cls-17" d="M323.35,46.24l-7,9.07c-2,.27-4.2.47-6.1.56-2.28.1-4.1,0-4.48-.33a7,7,0,0,1-1.21-2.34l1.93-9.31.09,0c.91-.18,1.92-.35,3-.51,1.78-.27,3.73-.5,5.62-.64l-4.1,11.05c.41-.65,4.46-6.81,7.26-11.18a16.63,16.63,0,0,1,4.22.38C323.28,43.16,323.46,44.52,323.35,46.24Z"/></g><g class="cls-20"><path class="cls-17" d="M291.78,50.15c-.22,2.7-.69,5.81-1.34,6.6-1,1.21-14.95,2.07-16,.87a24.45,24.45,0,0,1-2.71-6.84C275.56,56.44,286.38,58,291.78,50.15Z"/></g><g class="cls-20"><path class="cls-17" d="M303.4,49.23c.64,2.63,1.6,5.63,2.36,6.31,1.14,1,15.09-.31,15.95-1.66a24.51,24.51,0,0,0,1.61-7.19C320.4,52.89,310,56.16,303.4,49.23Z"/></g><path class="cls-15" d="M317.55,55.19a17.66,17.66,0,0,1-19.35,10.7,22.85,22.85,0,0,1-17-11.91s-1.61-.29-1.63.56,2.94,20,20.74,19.48c12-.37,18.22-17.64,18.29-18.35A.85.85,0,0,0,317.55,55.19Z"/><path class="cls-14" d="M317.77,55.41s.05-.07.05-.06v0l0,.09-.06.17-.14.33c-.1.23-.2.44-.31.66-.21.44-.44.86-.68,1.28a16.88,16.88,0,0,1-1.67,2.37,17.9,17.9,0,0,1-4.37,3.81,16.85,16.85,0,0,1-5.42,2.15,19.49,19.49,0,0,1-5.8.26,22.66,22.66,0,0,1-10.81-3.81,22.21,22.21,0,0,1-4.32-3.83,21.84,21.84,0,0,1-3.25-4.75l.23.17h0a3,3,0,0,0-.84,0,.67.67,0,0,0-.32.1c-.07.05-.09.08-.09.15a6.26,6.26,0,0,0,.11.87c.05.3.11.61.18.92a28.52,28.52,0,0,0,1.06,3.6,25.15,25.15,0,0,0,3.53,6.58,18,18,0,0,0,5.54,4.92,17.76,17.76,0,0,0,7.07,2.2c.63,0,1.25.11,1.87.1a16.36,16.36,0,0,0,1.86-.06,13,13,0,0,0,3.58-.9,17.85,17.85,0,0,0,6-4.31,32.29,32.29,0,0,0,4.46-6q.94-1.62,1.74-3.33c.27-.57.52-1.15.76-1.73l.34-.87a7.81,7.81,0,0,0,.27-.83l0,.18a.67.67,0,0,0-.3-.32.42.42,0,0,0-.2,0h-.19A.25.25,0,0,0,317.77,55.41Zm-.45-.44a.76.76,0,0,1,.13-.08h.1l.11,0h.22a1.23,1.23,0,0,1,.42.1,1.32,1.32,0,0,1,.6.59l.05.1,0,.07a9.72,9.72,0,0,1-.27,1l-.31.92c-.22.6-.45,1.2-.7,1.79-.49,1.18-1,2.34-1.63,3.48a32.47,32.47,0,0,1-4.31,6.48,18,18,0,0,1-6.39,4.86,14.54,14.54,0,0,1-4,1.07,18.87,18.87,0,0,1-4.05-.05,20.1,20.1,0,0,1-4-.84,18.91,18.91,0,0,1-1.9-.71,15.47,15.47,0,0,1-1.79-1,17,17,0,0,1-3.19-2.47,19,19,0,0,1-2.57-3,27.49,27.49,0,0,1-3.37-7,28.82,28.82,0,0,1-.94-3.74q-.09-.48-.15-1a6.21,6.21,0,0,1-.08-1,.81.81,0,0,1,.37-.63,1.53,1.53,0,0,1,.57-.19,4.09,4.09,0,0,1,1,0h0l.15,0,.07.15a23,23,0,0,0,7.43,8.22,21.89,21.89,0,0,0,10.46,3.63,17.6,17.6,0,0,0,10.73-2.29,17.16,17.16,0,0,0,4.22-3.61A19,19,0,0,0,316,57.55c.25-.4.48-.8.7-1.21.1-.21.21-.42.3-.63l.15-.31.06-.16,0-.08,0,0A1.15,1.15,0,0,1,317.32,55Z"/><path class="cls-14" d="M277.32,54.76c.22,1,5.07-.65,5-1.48S277.09,53.66,277.32,54.76Z"/><path class="cls-14" d="M321.16,56.53c-.36,1-4.92-1.37-4.69-2.17S321.54,55.48,321.16,56.53Z"/><path class="cls-14" d="M294.86,68.94a12.88,12.88,0,0,1-5.28-1.64,18.07,18.07,0,0,1-4.38-3.47,27.77,27.77,0,0,1-5.69-9.63l1.19-.38a26.91,26.91,0,0,0,5,9.6A17.8,17.8,0,0,0,289.74,67,12.75,12.75,0,0,0,294.86,68.94Z"/><g class="cls-21"><path class="cls-2" d="M22.51,37.91,228.7,33.14a21.11,21.11,0,0,1,18.2,9.7,111.08,111.08,0,0,1,22.79-1.55A98.18,98.18,0,0,0,248.9,61.55a21.14,21.14,0,0,1-19.23,13.7L23.48,80"/></g><path class="cls-2" d="M23.48,80,136,77.41l93.68-2.16a21.14,21.14,0,0,0,19.23-13.7,98.18,98.18,0,0,1,20.79-20.26,111.08,111.08,0,0,0-22.79,1.55,21.11,21.11,0,0,0-18.2-9.7L22.51,37.91S.9,53.63,1.06,60.68,23.48,80,23.48,80Z"/><g class="cls-21"><path class="cls-22" d="M22,32.3H228.21a21.09,21.09,0,0,1,18,10.12,110.92,110.92,0,0,1,22.82-1,98.09,98.09,0,0,0-21.25,19.77,21.12,21.12,0,0,1-19.54,13.25H22"/></g><path class="cls-23" d="M22,74.42H228.21a21.12,21.12,0,0,0,19.54-13.25A98.09,98.09,0,0,1,269,41.4a110.92,110.92,0,0,0-22.82,1,21.09,21.09,0,0,0-18-10.12H22S0,47.52,0,54.57,22,74.42,22,74.42Z"/><path class="cls-24" d="M25.7,46.85a176.61,176.61,0,0,1,48.16,1.21c12.91,2,25.26,6.31,38.18,8.46,17.06,2,34.32,2.89,51.47,3.49A359.54,359.54,0,0,0,218,58.2,180.54,180.54,0,0,0,245.33,52c4.1-1.31,9.29-2.45,13-4.68-1.52.8-5.94,2.58-2.06.79,1-.47,2-.92,3-1.39,2.22-1,4.42-2.16,6.58-3.32.58-.31,1.14-.63,1.72-1s.9-.67,1.38-1a110.92,110.92,0,0,0-22.82,1,21.09,21.09,0,0,0-18-10.12H22S5.82,43.49,1.22,51.13C9.3,49.36,17.44,47.84,25.7,46.85Z"/><path class="cls-15" d="M39.57,63.69h0a2.43,2.43,0,0,0,1.6-4.25l-2.88-2.55a2.42,2.42,0,0,1,0-3.64l2.88-2.54a2.43,2.43,0,0,0-1.6-4.25h0a2.41,2.41,0,0,0-1.61.6l-7,6.19a2.42,2.42,0,0,0,0,3.64l7,6.19A2.42,2.42,0,0,0,39.57,63.69Z"/><path class="cls-15" d="M27.69,63.69h0a2.43,2.43,0,0,0,1.61-4.25l-2.89-2.55a2.43,2.43,0,0,1,0-3.64l2.89-2.54a2.43,2.43,0,0,0-1.61-4.25h0a2.45,2.45,0,0,0-1.61.6l-7,6.19a2.42,2.42,0,0,0,0,3.64l7,6.19A2.46,2.46,0,0,0,27.69,63.69Z"/></g><g id="Text"><path class="cls-15" d="M66.55,54.17v4.51c0,.11-.21,1.15-.32,1.68h-8.4V53.67A8.82,8.82,0,0,1,58,51.88a6.34,6.34,0,0,1-1.35-.11l.32-1.67a18,18,0,0,0,2.58.1h3.77C66,50.2,66.55,51,66.55,54.17ZM63.2,51.9h-4v6.76h5.9v-4C65.13,52.77,64.92,51.9,63.2,51.9Z"/><path class="cls-15" d="M68.62,58.73c.37,0,1.44,0,2.54,0h3.57a19.91,19.91,0,0,0,.35-3.48c0-2.5-.56-3.3-2.59-3.3H70.77a11.35,11.35,0,0,1-2.15-.12L69,50.12a16.81,16.81,0,0,0,2.33.08h1.55c3.08,0,3.68,1.36,3.68,4.85a26.16,26.16,0,0,1-.61,5.31H70.77c-.8,0-2,0-2.47,0Z"/><path class="cls-15" d="M79.27,54.47a14,14,0,0,1,.15-2.59c-.34,0-1.24-.08-1.37-.1l.32-1.68a15.83,15.83,0,0,0,2.6.1h3.38c2.72,0,3.25.84,3.25,3.94v6.22H86.14V54.68c0-2.06-.19-2.78-2-2.78H80.71v8.46H79.27Z"/><path class="cls-15" d="M94.06,57.87a6.8,6.8,0,0,1,1.76-4.93,35,35,0,0,0-2.53-2.59l.06-.1,2-.15c1,1,2.33,2.54,4.29,5a2.71,2.71,0,0,0,1.22-2.45,6.52,6.52,0,0,0-.56-2.35l1.83-.17a6.57,6.57,0,0,1,.35,2.21A4.2,4.2,0,0,1,100.35,56c1,1.23,2.6,3.47,3.16,4.37h-2a57.43,57.43,0,0,0-4.91-6.43,5.24,5.24,0,0,0-1,3.53,10.89,10.89,0,0,0,.52,2.9H94.4A9.48,9.48,0,0,1,94.06,57.87Z"/><path class="cls-15" d="M104.78,58.75a6.81,6.81,0,0,1,1.53-.09h.28c0-1.81-.17-5.57-.3-6.76h-.05a6,6,0,0,1-1.42-.13l.33-1.65a22.59,22.59,0,0,0,2.94.08h3.06c2.75,0,3.27.65,3.27,3.84v6.32H113V54.57c0-1.85-.2-2.67-1.94-2.67h-3.29c.1,1.19.3,5.47.28,6.78l-.26,1.68h-1.48a18,18,0,0,0-1.84.07Z"/><path class="cls-15" d="M116.47,58.73a22.69,22.69,0,0,1,2.3-.07h1.31V54.49c0-1.62-.19-2.07-1.85-2.46-.67-.15-1.33-.3-1.63-.41l.32-1.65a10.37,10.37,0,0,0,1.61.38c2.16.44,3,1.08,3,3.82v4.54l-.31,1.65h-2.6c-.8,0-2.09,0-2.46,0Z"/><path class="cls-15" d="M123.33,58.73c.37,0,1.44,0,2.54,0h3.56a19.88,19.88,0,0,0,.36-3.48c0-2.5-.56-3.3-2.6-3.3h-1.71a11.27,11.27,0,0,1-2.15-.12l.33-1.66a17,17,0,0,0,2.34.08h1.55c3.08,0,3.68,1.36,3.68,4.85a25.4,25.4,0,0,1-.62,5.31h-5.13c-.81,0-2,0-2.47,0Z"/><path class="cls-15" d="M132.82,50.27l1.77-.17c.13.45.37,1.85.95,5.33,1.87-.43,2.19-1.18,2.19-2.53a9.25,9.25,0,0,0-.51-2.63L139,50.1a10.54,10.54,0,0,1,.39,2.56c0,1.76-.52,3.36-3.68,4,0,.19.24,1.51.36,2.13a14.25,14.25,0,0,0,2-.3c2.32-.5,3.72-1.49,3.72-4.67a10.82,10.82,0,0,0-.64-3.51l1.8-.15a12.25,12.25,0,0,1,.45,3.29c0,4.57-2.68,6.12-5.59,6.67-1.18.2-2.33.35-3,.41C134.46,58,133.36,51.8,132.82,50.27Z"/><path class="cls-15" d="M146.49,54.62c.26-1.87-.49-2.59-1.66-2.87l.33-1.74a2.85,2.85,0,0,1,2.56,2.63A3.84,3.84,0,0,1,151.34,50c2.92,0,3.63,2.67,3.63,6.27v2.39c0,.17-.21,1.4-.26,1.67H151c-.75,0-1.72,0-2.11,0l.31-1.66a18.9,18.9,0,0,1,2.3-.07h2c0-.79,0-1.55,0-2.3,0-2.36-.3-4.65-2.48-4.65s-2.81,2.05-3.09,3.32-.69,3.51-1,5.31h-1.46C145.83,58.43,146.28,56,146.49,54.62Z"/><path class="cls-15" d="M163.19,54.53c0-1.63-.19-2.19-1.65-2.54a6.81,6.81,0,0,1-1.27-.39l.32-1.63a8.59,8.59,0,0,0,1.42.38c2,.46,2.63,1.1,2.63,3.84v9.75h-1.45Z"/><path class="cls-15" d="M168.64,54.51c0-1.61-.19-2.18-1.64-2.54a11.33,11.33,0,0,1-1.27-.35L166,50a6.49,6.49,0,0,0,1.29.3c2.09.45,2.77,1.14,2.77,4v6.11h-1.46Z"/><path class="cls-15" d="M172,58.75a27.37,27.37,0,0,1,2.95-.09h2.84c0-1.27,0-3,0-4,0-2-.26-2.76-2-2.76h-1.63a10.45,10.45,0,0,1-2.07-.12l.33-1.66a16.77,16.77,0,0,0,2.4.08h1.47c2.67,0,3,1.23,3,3.79v3.08c0,.39,0,1.27-.07,1.59h1.36l-.32,1.7h-6.09c-.8,0-2,0-2.41,0Z"/><path class="cls-15" d="M181.13,50.27l1.78-.17c.13.45.37,1.85,1,5.33,1.87-.43,2.19-1.18,2.19-2.53a9.25,9.25,0,0,0-.51-2.63l1.76-.17a11,11,0,0,1,.39,2.56c0,1.76-.52,3.36-3.68,4,0,.19.24,1.51.36,2.13a14.25,14.25,0,0,0,2-.3c2.32-.5,3.72-1.49,3.72-4.67a10.82,10.82,0,0,0-.64-3.51l1.8-.15a12.33,12.33,0,0,1,.44,3.29c0,4.57-2.67,6.12-5.58,6.67-1.18.2-2.34.35-3,.41C182.78,58,181.68,51.8,181.13,50.27Z"/><path class="cls-15" d="M194.49,54.47a14,14,0,0,1,.15-2.59l-1.37-.1.32-1.68a15.83,15.83,0,0,0,2.6.1h3.38c2.73,0,3.25.84,3.25,3.94v6.22h-1.46V54.68c0-2.06-.19-2.78-2-2.78h-3.47v8.46h-1.44Z"/><path class="cls-15" d="M206.2,54.62c.26-1.87-.49-2.59-1.66-2.87l.33-1.74a2.85,2.85,0,0,1,2.56,2.63A3.84,3.84,0,0,1,211.06,50c2.91,0,3.62,2.67,3.62,6.27v2.39c0,.17-.21,1.4-.26,1.67h-3.68c-.75,0-1.72,0-2.11,0l.31-1.66a19,19,0,0,1,2.3-.07h2c0-.79,0-1.55,0-2.3,0-2.36-.3-4.65-2.48-4.65s-2.8,2.05-3.08,3.32-.7,3.51-1,5.31h-1.46C205.55,58.43,206,56,206.2,54.62Z"/><path class="cls-15" d="M217.42,58.62c2.49-.75,4.43-2.69,4.43-5.32,0-1.18-.47-1.4-1.46-1.4H216V49.21a11.2,11.2,0,0,0-.26-3L217.2,46a13.89,13.89,0,0,1,.19,2.89V50.2H221c1.91,0,2.35.95,2.35,2.61a8.08,8.08,0,0,1-6.25,7.71Z"/></g></g></g></svg>