<svg xmlns="http://www.w3.org/2000/svg" viewBox="0 0 24.65 24.65"><defs><style>.cls-1{fill:#e6e6e6;}</style></defs><g id="Слой_2" data-name="Слой 2"><g id="Layer_1" data-name="Layer 1"><path class="cls-1" d="M12.32,0A12.33,12.33,0,1,0,24.65,12.32,12.33,12.33,0,0,0,12.32,0ZM8.26,19.06H5.63c-.14,0-.19,0-.19-.18,0-3.13,0-6.25,0-9.38,0-.12,0-.17.17-.17H8.28c.17,0,.2.06.19.21v4.67c0,1.54,0,3.08,0,4.63C8.48,19,8.43,19.06,8.26,19.06ZM7,8A1.75,1.75,0,1,1,8.71,6.23,1.76,1.76,0,0,1,7,8ZM19.82,18.86c0,.16-.05.2-.21.2H17c-.15,0-.18,0-.18-.19V14a4.45,4.45,0,0,0-.14-1.21,1.36,1.36,0,0,0-1.5-1.06,1.63,1.63,0,0,0-1.71,1.63,6.33,6.33,0,0,0,0,.76c0,1.57,0,3.15,0,4.73,0,.15,0,.2-.2.2H10.56c-.14,0-.18,0-.18-.18V9.52c0-.16,0-.19.19-.19h2.52c.15,0,.19.05.19.19,0,.38,0,.75,0,1.12.2-.22.37-.46.57-.65a3.18,3.18,0,0,1,2.28-.9,5.24,5.24,0,0,1,1.43.17,2.8,2.8,0,0,1,2,2.09,8.84,8.84,0,0,1,.27,2.4C19.82,15.45,19.81,17.15,19.82,18.86Z"/></g></g></svg>