<svg xmlns="http://www.w3.org/2000/svg" viewBox="0 0 479.99 204.83"><defs><style>.cls-1{isolation:isolate;}.cls-2{fill:#289bcc;}.cls-17,.cls-2,.cls-3{mix-blend-mode:multiply;}.cls-3{fill:#248bb7;}.cls-4{fill:#517e9b;stroke:#4a3d27;stroke-miterlimit:10;stroke-width:1.61px;}.cls-4,.cls-5,.cls-6{fill-rule:evenodd;}.cls-5{fill:#80a4bb;}.cls-6{fill:#a1c2cf;}.cls-7{fill:gray;}.cls-8{fill:#4a3d27;}.cls-9{fill:#cbcbcb;}.cls-10{fill:#f2f2f2;}.cls-11{fill:#e5e5e5;}.cls-12{fill:#fff;}.cls-13{opacity:0.7;}.cls-14{fill:#b2b7d4;}.cls-15{mix-blend-mode:screen;opacity:0.6;}.cls-16{fill:#29abe2;}.cls-17{opacity:0.5;}.cls-18{fill:#333;}.cls-19{fill:#0071bc;}.cls-20{fill:#1a1a1a;}</style></defs><g class="cls-1"><g id="Слой_2" data-name="Слой 2"><g id="Layer_1" data-name="Layer 1"><ellipse class="cls-2" cx="396.63" cy="179.36" rx="10.52" ry="42.84" transform="matrix(0.02, -1, 1, 0.02, 208.64, 571.98)"/><ellipse class="cls-3" cx="402.99" cy="179.5" rx="5.87" ry="34.43" transform="translate(214.72 578.47) rotate(-88.75)"/><path class="cls-4" d="M401.82,159.59c-3.49-8.62-8.07-20.35-10.27-18.33s7.7,24.56,7.7,24.56-10.63,6.78-16.5,9.9-3.12,7,4.22,7.15,17.78-2.57,20-5.13S405.3,168.2,401.82,159.59Z"/><path class="cls-5" d="M403.1,166.92c-2.38-4.77-9.17-22.73-10.63-24.56s-.19,3.66,1.28,7,5.87,16.13,5.87,16.13-7,5-10.27,7.15-9.35,3.12-9,6.79,14.11,2.38,19.8-.92S405.48,171.69,403.1,166.92Z"/><path class="cls-6" d="M400,166c-.55-2-6.78-17.23-7.51-19.43s-.92-2.75-.92-2.75l7.15,22.37-1.65,1.28-12.47,8.25c-3.48,2.38-5.13,3.48-3.66,4.77s10.45-2.2,13.75-6.24S400.56,168,400,166Z"/><path class="cls-4" d="M433.71,177.19A78.6,78.6,0,0,0,420,170.4c-2.75-.91-6.6-2-6.6-2s3.85-9.9,5.5-15.77,1.28-11.18-2-7.33c0,0-2.57,13-4.77,18.7s-5.86,11.73-4,13.56,8.62,5.5,16.5,4.95S437.2,179.57,433.71,177.19Z"/><path class="cls-5" d="M424.18,173.52l-11.73-4.22s5.13-15.21,5.87-18.88,1.65-8.61-.74-5.68c0,0-4.76,15.95-6.41,21.45s-4.4,9.16-1.29,11.91,16.87,4.4,19.62,2S428.77,175.17,424.18,173.52Z"/><path class="cls-6" d="M419.45,174.41c-4.22-2-9.35-1.29-7.89-5.87s7.52-25.48,5.5-22.73a150,150,0,0,1-4.76,16.31c-2.39,6-4.59,12.65-3.67,14.12s7.88,5.5,12.83,4.4S423.66,176.42,419.45,174.41Z"/><path class="cls-7" d="M392.83,62.54c-2.1,1.11-4.12,4.17-4.57,6.9l-10.95,66.82c-.67,4.07.7,7.46,3.13,7.46h50.68c4.68,0,8.66-4.94,8.66-10.84V43.73c0-3.35-2.91-4.48-6.37-2.65Z"/><path class="cls-8" d="M394.71,66.09a5.32,5.32,0,0,0-2,4v.2l0,.59C391.51,95.5,404,118.72,415.58,140l1.38,2.56.09.16s.1-.16.15-.23l.3-.55c5.95-11.27-.34-26.2-9.54-34.26A43.44,43.44,0,0,0,385.65,97.1a39.84,39.84,0,0,0-5.11-.51c-.19,0,0,0,0-.06l.08,0,.14-.1.86-.64c14.29-10.65,29.95-20.08,47.26-23.19.53-.08,1.67-.28,2.23-.36,0,0,.21,0-.15,0-29-.65-56.7,20-62.27,48.74a55.22,55.22,0,0,0-1.1,11.93s0-.18,0-.22l0-.58c1.3-22.42,13.71-42.17,27.15-59.93,6.69-8.83,14.41-18.63,20.72-27.66l.39-.57.1-.15.1.5a23.07,23.07,0,0,0,6.53,11.65c4.19,3.9,10.62,6.06,16.09,3.91a6.2,6.2,0,0,0,3.14-2.41c.26-.28-.14-.2-.33-.23-.68,0-1.36-.11-2-.1-15.58-.69-31.2,1.76-44.76,9ZM391,59c11.25-6,25.4-13.79,36.35-20,2.11-1.12,5.13-3.33,7.72-3.65a8.36,8.36,0,0,1,10,8.13c0,.24,0,.76,0,1l.75,18.44c.86,21.45,1.88,43.06,1.94,64.54,0,.46.06,5.09,0,5.5,0,10.41-7.83,19.78-19,18.72-13.83-.09-27.69-.54-41.49-1.14-1.44-.09-5.52-.2-6.93-.28-6.26,0-9.81-6.36-9.5-11.78a28,28,0,0,1,.83-5.6c3.7-18.08,7.56-36.13,10.79-54.29.12-.78,1.7-9.93,1.82-10.45A14.18,14.18,0,0,1,391,59Z"/><path class="cls-9" d="M391.57,62.39c-2.1,1.11-4.12,4.17-4.57,6.89L376.05,136.1c-.67,4.08.7,7.47,3.13,7.47h50.68c4.68,0,8.66-4.94,8.66-10.85V43.58c0-3.35-2.91-4.49-6.37-2.65Z"/><path class="cls-10" d="M430.56,50.66,391.33,69.6a2.49,2.49,0,0,0-1.15,1.71l-2,13.14c-.11.75.24,1.2.78,1l41.1-15.84a2.75,2.75,0,0,0,1.65-2.3l.35-15.88C432.07,50.59,431.4,50.25,430.56,50.66Z"/><path class="cls-11" d="M424.34,104.79l-9.94,2.06a2.47,2.47,0,0,0-1.64,2.23l-1.66,22.83c-.08,1.2.55,2.15,1.44,2.1l10.64-.58a2.41,2.41,0,0,0,1.91-2.47l.88-24.49C426,105.34,425.28,104.59,424.34,104.79Z"/><path class="cls-11" d="M417.6,87.63,423,85.94c1.74-.54,3.24-2.87,3.33-5.15s-1.26-3.55-2.95-3l-5.32,1.88c-1.57.56-3,2.73-3.11,4.86S416,88.13,417.6,87.63Zm.39-6.24,5.35-1.85c.83-.29,1.49.52,1.44,1.78a3.23,3.23,0,0,1-1.66,2.85l-5.41,1.74c-.79.25-1.38-.58-1.29-1.8A3.23,3.23,0,0,1,418,81.39Z"/><path class="cls-11" d="M416.75,101.14l5.64-1.34c1.8-.43,3.37-2.83,3.46-5.3s-1.29-4-3.05-3.49l-5.51,1.57c-1.63.46-3.06,2.69-3.22,5S415.09,101.53,416.75,101.14Zm.43-6.76,5.54-1.52c.86-.24,1.55.7,1.49,2.07s-.85,2.73-1.73,2.95l-5.61,1.39c-.81.2-1.42-.76-1.33-2.08S416.37,94.6,417.18,94.38Z"/><path class="cls-11" d="M409.12,82.91l-4.54,1.61C403.24,85,402,87,401.76,89s.69,3.36,2.06,2.94l4.63-1.45c1.47-.45,2.83-2.59,3-4.72S410.57,82.39,409.12,82.91Zm-.53,5.92L404,90.31c-.67.22-1.13-.57-1-1.72a3.15,3.15,0,0,1,1.44-2.51L409,84.5c.71-.24,1.23.54,1.12,1.71A3.14,3.14,0,0,1,408.59,88.83Z"/><path class="cls-11" d="M408,95l-4.67,1.34c-1.39.39-2.68,2.44-2.92,4.59s.69,3.7,2.1,3.36l4.76-1.14c1.52-.36,2.93-2.55,3.11-4.84S409.53,94.57,408,95Zm-.57,6.37-4.74,1.19c-.69.17-1.16-.73-1-2s.81-2.4,1.49-2.59l4.7-1.3c.73-.2,1.26.69,1.15,2S408.21,101.19,407.47,101.37Z"/><path class="cls-11" d="M396.88,87.25,393,88.64c-1.17.41-2.32,2.27-2.59,4.15s.45,3.19,1.63,2.82l4-1.24c1.26-.4,2.5-2.36,2.73-4.36S398.12,86.81,396.88,87.25Zm-.7,5.57-4,1.27c-.58.19-.94-.57-.79-1.65a3.1,3.1,0,0,1,1.33-2.33l3.94-1.36c.61-.21,1,.54.88,1.64A3.12,3.12,0,0,1,396.18,92.82Z"/><path class="cls-11" d="M395.46,98.6l-4,1.14c-1.19.34-2.38,2.24-2.66,4.25s.44,3.48,1.64,3.2l4.08-1c1.3-.31,2.58-2.32,2.83-4.46S396.73,98.23,395.46,98.6Zm-.75,6-4.06,1c-.6.15-1-.7-.8-1.85s.79-2.24,1.38-2.4l4-1.11c.62-.17,1,.67.88,1.86S395.34,104.4,394.71,104.55Z"/><path class="cls-11" d="M393.93,110.74l-4.11.87c-1.22.25-2.44,2.19-2.75,4.35s.43,3.81,1.66,3.62l4.18-.67c1.33-.21,2.65-2.28,2.92-4.58S395.24,110.47,393.93,110.74Zm-.8,6.39-4.16.71c-.61.1-1-.85-.8-2.09s.82-2.34,1.42-2.46l4.13-.83c.64-.13,1,.83.9,2.1S393.78,117,393.13,117.13Z"/><path class="cls-11" d="M392.3,123.78l-4.21.54c-1.25.16-2.52,2.14-2.85,4.46s.41,4.18,1.68,4.09l4.28-.31c1.36-.09,2.73-2.21,3-4.69S393.64,123.6,392.3,123.78Zm-.86,6.87-4.27.36c-.62.05-1-1-.8-2.35s.85-2.47,1.47-2.54l4.23-.5c.66-.07,1.08,1,.91,2.38S392.1,130.59,391.44,130.65Z"/><path class="cls-11" d="M406.54,108.09l-4.8,1c-1.42.3-2.76,2.39-3,4.7s.68,4.08,2.12,3.85l4.89-.78c1.56-.25,3-2.49,3.22-5S408.07,107.77,406.54,108.09Zm-.62,6.86-4.87.83c-.71.12-1.18-.9-1-2.22s.84-2.53,1.55-2.67l4.81-1c.75-.15,1.29.87,1.17,2.23S406.67,114.82,405.92,115Z"/><path class="cls-11" d="M405.27,122.11l-4.95.64c-1.45.18-2.84,2.33-3.12,4.82s.68,4.51,2.17,4.41l5-.36c1.61-.12,3.12-2.43,3.35-5.11S406.85,121.91,405.27,122.11Zm-.67,7.43-5,.42c-.73.06-1.21-1.1-1.06-2.52s.88-2.67,1.6-2.75l5-.58c.77-.09,1.32,1.07,1.19,2.55S405.38,129.47,404.6,129.54Z"/><path class="cls-10" d="M406.05,87c1.85,7.36-1.12,14.46-6.64,15.84s-11.5-3.45-13.35-10.81,1.13-14.45,6.65-15.84S404.2,79.67,406.05,87Z"/><path class="cls-8" d="M406.38,87a17.4,17.4,0,0,1-.36,9.52,11.64,11.64,0,0,1-2.39,4.18,8.88,8.88,0,0,1-4.13,2.59,8.77,8.77,0,0,1-4.92-.14,12.23,12.23,0,0,1-4.28-2.47,17.35,17.35,0,0,1-5.13-8.35,17.13,17.13,0,0,1,.08-10,12.36,12.36,0,0,1,2.59-4.5,8.89,8.89,0,0,1,4.58-2.76,9,9,0,0,1,5.3.4,12.14,12.14,0,0,1,4.22,2.86,16.67,16.67,0,0,1,2.81,4.06A18.82,18.82,0,0,1,406.38,87Zm-.65.17a16.49,16.49,0,0,0-4.56-8,10.91,10.91,0,0,0-3.9-2.38A7.61,7.61,0,0,0,389,78.87a11.11,11.11,0,0,0-2.31,3.94A16.94,16.94,0,0,0,391,99.93a11,11,0,0,0,3.89,2.39,7.65,7.65,0,0,0,8.33-2.1,10.94,10.94,0,0,0,2.31-3.94A16.4,16.4,0,0,0,405.73,87.12Z"/><path class="cls-12" d="M399,102.13c-4.06,0-8.59-3.9-10.62-9.32a15.24,15.24,0,0,1-.6-9.55c.82-2.73,2.51-4.59,4.76-5.2a6.64,6.64,0,0,1,1.61-.2c4.57,0,9.38,4.74,11.08,10.71,1.85,6.49-.36,12.34-4.8,13.39A6.15,6.15,0,0,1,399,102.13Z"/><path class="cls-8" d="M405.65,93.53c.22,3.94-2,7.26-4.95,7.42s-5.52-2.89-5.74-6.83,2-7.26,5-7.42S405.43,89.59,405.65,93.53Z"/><path class="cls-12" d="M404.77,95.35a1.27,1.27,0,0,1-1,1.46c-.58,0-1.09-.57-1.13-1.35s.39-1.43,1-1.46S404.72,94.57,404.77,95.35Z"/><path class="cls-8" d="M385.31,76.8a18.32,18.32,0,0,1,12-8c4.26-.88,6,3.44,6,3.44S398.05,68.05,385.31,76.8Z"/><path class="cls-10" d="M414.45,87c-1.85,7.36,1.13,14.46,6.65,15.84s11.49-3.45,13.34-10.81-1.12-14.45-6.64-15.84S416.3,79.67,414.45,87Z"/><path class="cls-8" d="M414.77,87.12a16.4,16.4,0,0,0,.26,9.16,10.79,10.79,0,0,0,2.31,3.94,7.64,7.64,0,0,0,8.32,2.1,10.94,10.94,0,0,0,3.9-2.39,16.91,16.91,0,0,0,4.3-17.12,11,11,0,0,0-2.31-3.94,7.61,7.61,0,0,0-8.32-2.09,10.91,10.91,0,0,0-3.9,2.38A16.49,16.49,0,0,0,414.77,87.12Zm-.64-.17a19,19,0,0,1,1.61-4.57,16.2,16.2,0,0,1,2.8-4.08,12,12,0,0,1,4.23-2.89,9.51,9.51,0,0,1,5.32-.37,9.62,9.62,0,0,1,4.56,2.81,12.44,12.44,0,0,1,2.58,4.49,17.9,17.9,0,0,1-5.07,18.24,11.87,11.87,0,0,1-4.25,2.47,8.43,8.43,0,0,1-9-2.41,11.56,11.56,0,0,1-2.39-4.18A17,17,0,0,1,414.13,87Z"/><path class="cls-12" d="M421.56,101.71c3.83,0,8.09-3.86,10-9.22a15.79,15.79,0,0,0,.57-9.45c-.77-2.7-2.36-4.55-4.49-5.14a5.4,5.4,0,0,0-1.51-.21c-4.31,0-8.83,4.69-10.44,10.6-1.74,6.43.35,12.22,4.52,13.26A6.08,6.08,0,0,0,421.56,101.71Z"/><path class="cls-8" d="M414.85,93.53c-.21,3.94,2,7.26,4.95,7.42s5.53-2.89,5.75-6.83-2-7.26-4.95-7.42S415.07,89.59,414.85,93.53Z"/><path class="cls-12" d="M415.81,95.25c0,.75.38,1.38.93,1.41s1.05-.55,1.09-1.29a1.22,1.22,0,0,0-.94-1.41C416.34,93.93,415.85,94.51,415.81,95.25Z"/><path class="cls-8" d="M435.19,76.8a18.28,18.28,0,0,0-12-8c-4.27-.88-6,3.44-6,3.44S422.45,68.05,435.19,76.8Z"/><g class="cls-13"><path class="cls-14" d="M404.79,98.35a.76.76,0,0,1,0,.21c-.4,2.51-1.08,5.38-1.74,6.07-.33.35-2,.57-4.16.64-4.24.15-10.26-.21-10.86-1a2.57,2.57,0,0,1-.29-.54A27,27,0,0,1,386,97.66c-.29-1.78-.27-3.27.42-3.52a16.92,16.92,0,0,1,4.3-.7,62.83,62.83,0,0,1,7.87.1c1,.07,2,.16,2.84.25,2.1.23,3.58.52,3.69.73A12.59,12.59,0,0,1,404.79,98.35Z"/></g><g class="cls-15"><path class="cls-14" d="M404.79,98.35l-5.93,6.92c-4.24.15-10.26-.21-10.86-1a2.57,2.57,0,0,1-.29-.54l3-10.28a62.83,62.83,0,0,1,7.87.1l-4.4,9.83,7.24-9.58c2.1.23,3.58.52,3.69.73A12.59,12.59,0,0,1,404.79,98.35Z"/></g><path class="cls-16" d="M440.83,94c-.1-.32-.71-.51-1.71-.51a16.23,16.23,0,0,0-2.76.31l-.28,0,0-.28a1.57,1.57,0,0,0-1.15-1.19,28.38,28.38,0,0,0-5.65-.38,124.92,124.92,0,0,0-13.4.76,2.75,2.75,0,0,0-1.72.93l-.21.28-.21-.28s-.64-.81-3-1.15l-.32,0H410a.36.36,0,0,0-.14,0h-.16c-2.33.34-2.95,1.15-2.95,1.15l-.22.3-.22-.3a2.79,2.79,0,0,0-1.72-.93A124.92,124.92,0,0,0,391.2,92a27.58,27.58,0,0,0-5.66.39,1.54,1.54,0,0,0-1.14,1.2l0,.26-.26,0a16.94,16.94,0,0,0-2.78-.31c-1,0-1.61.19-1.69.51-.34,1.17.79,3.1,1.1,3.4a1.34,1.34,0,0,0,.57.07c.31,0,.68,0,1,0s.74,0,1.05,0a1.62,1.62,0,0,1,.8.13c.22.15.3.54.58,2.13.36,2,1,5.41,2.13,6.19.73.51,4,.83,8.25.83,5.09,0,8.69-.45,9.13-.87a8.24,8.24,0,0,0,.92-2.52c.74-2.79,1.78-6.6,4.83-6.77h.49c3,.17,4,4,4.73,6.77a7.74,7.74,0,0,0,.92,2.52c.43.42,4,.87,9.12.87,4.27,0,7.52-.32,8.26-.83,1.17-.78,1.77-4.17,2.12-6.19.28-1.59.37-2,.58-2.13a1.64,1.64,0,0,1,.81-.13c.29,0,.67,0,1,0s.73,0,1,0a1.29,1.29,0,0,0,.57-.07C440,97.1,441.16,95.17,440.83,94ZM403,104.64c-1,1-14.11.82-15-.37s-3.32-9.51-1.62-10.12c4.58-1.65,18.35-.31,18.71.37S404.2,103.39,403,104.64Zm29.43-.37c-.92,1.19-14,1.42-15,.37-1.18-1.25-2.43-9.44-2.07-10.12s14.13-2,18.71-.37C435.77,94.76,433.34,103.05,432.45,104.27Z"/><g class="cls-13"><path class="cls-14" d="M434.54,97.25c0,.13,0,.27-.06.41a27,27,0,0,1-1.74,6.06,2.57,2.57,0,0,1-.29.54c-.36.47-2.53.78-5.12.94-1.87.1-4,.13-5.74.07-2.13-.07-3.83-.29-4.16-.64a6.4,6.4,0,0,1-.95-2.28,36.13,36.13,0,0,1-.79-3.79.76.76,0,0,1,0-.21,13.12,13.12,0,0,1-.31-3.83c.12-.21,1.56-.49,3.62-.72h.08c.87-.09,1.82-.18,2.84-.25,1.68-.12,3.52-.19,5.29-.18.89,0,1.76,0,2.58.08l.39,0a15.71,15.71,0,0,1,3.91.67C434.69,94.37,434.77,95.65,434.54,97.25Z"/></g><g class="cls-15"><path class="cls-14" d="M434.54,97.25l-7.21,8c-1.87.1-4,.13-5.74.07-2.13-.07-3.83-.29-4.16-.64a6.4,6.4,0,0,1-.95-2.28L419,93.8h.08c.87-.09,1.82-.18,2.84-.25,1.68-.12,3.52-.19,5.29-.18l-4.65,10c.44-.57,4.68-6,7.62-9.9a15.71,15.71,0,0,1,3.91.67C434.69,94.37,434.77,95.65,434.54,97.25Z"/></g><g class="cls-17"><path class="cls-14" d="M404.76,98.56c-.4,2.51-1.08,5.38-1.74,6.07-1,1.06-14.11.83-15-.37a23.07,23.07,0,0,1-2-6.6C389.15,103.24,399.14,105.52,404.76,98.56Z"/></g><g class="cls-17"><path class="cls-14" d="M415.68,98.56c.4,2.51,1.08,5.38,1.74,6.07,1,1.06,14.12.83,15-.37a22.75,22.75,0,0,0,2-6.6C431.29,103.24,421.3,105.52,415.68,98.56Z"/></g><path class="cls-8" d="M404,118.43a31.13,31.13,0,0,0,6.52.52,24.67,24.67,0,0,0,6.35-1,23,23,0,0,0,10.56-6.61l1.9,1.86a25.08,25.08,0,0,1-12.14,6,25.91,25.91,0,0,1-6.68.42A31.65,31.65,0,0,1,404,118.43Z"/><path class="cls-8" d="M424.74,110.56c3.22.33,5.1,3.21,5.1,4.65C431.17,111.78,429.29,109.56,424.74,110.56Z"/><path class="cls-4" d="M446.4,109.41c.17-6.56.1-10.44-1.51-10.08-2.51.55-5.48,4.43-6.45,13.2,0,0,.61,1.74-2.18,2.57s-7,2-7.6,4.23a2.17,2.17,0,0,0,1.25,2.58,3.64,3.64,0,0,1,.48.21,2.53,2.53,0,0,1-.48-.21c-.8-.28-2.32-.5-2.21,1.88a5.63,5.63,0,0,0,1.13,3.17,2.39,2.39,0,0,0-.6,1.76c.47,2.39,3,4.47,8.54,5.72s11.44-2,12.13-10.73S446.26,114.7,446.4,109.41Z"/><path class="cls-5" d="M448.11,121.55c-.41-3.62-2.36-7.79-2.78-11s.83-10.3-.7-10.71-4.17,4.87-4.87,8.63.28,5.42-1.11,6.54-8.63,1.95-9.33,4.45c-.5,1.82,6.94,3,6.94,3l.92-.6-.37,1.93s-.44-.73-1-.76-1.75-.08-2.3-.08c-2.23,0-4.73-1.51-5.29.44-.35,1.21.91,4.17,6.68,5.91a3.35,3.35,0,0,0,2.12-.43s-.8,1-.69,1.5a2.85,2.85,0,0,1,.26.22.29.29,0,0,1-.26-.22,3,3,0,0,0-1.09-.52c-1.36-.37-3.46-.59-4.38-1.17-1.53-1-3.2-1.12-1.25,1.67s8.77,4.59,12.67,2.78S448.53,125.17,448.11,121.55Z"/><path class="cls-6" d="M446.48,119.36c-.55-1.92-4.38-3.47-4.93-6.85s2.74-11.61,1.64-11.24-3.84,5.84-3.74,9-.1,4.39-.64,4.66-2.56,1.46-2.56,1.46-7.86,2.2-6.76,3.48,7.12,1.46,8.22,2.37.18,2.74-.91,2.92-7.95-3-8.59-1.64,4.75,3.56,6.76,4a2.9,2.9,0,0,1,2.47,3.38c-.37,1.19-8.59-3.11-8.87-2.28s6.76,4.47,8.41,4.93,3.93.64,4.48-1,1.91-2,2.19-3.92,1.19-3.2,2.19-4.85A4.59,4.59,0,0,0,446.48,119.36Z"/><path class="cls-4" d="M388,121.12a2.88,2.88,0,0,1-.48.2,4.79,4.79,0,0,1,.48-.2,2.19,2.19,0,0,0,1.25-2.59c-.58-2.22-4.82-3.39-7.6-4.22s-2.18-2.58-2.18-2.58c-1-8.76-3.94-12.65-6.45-13.2-1.61-.36-1.68,3.52-1.51,10.08.14,5.29-3.2,5.53-2.5,14.3s6.56,12,12.13,10.74,8.08-3.34,8.54-5.73a2.4,2.4,0,0,0-.59-1.76A5.66,5.66,0,0,0,390.2,123C390.31,120.61,388.79,120.83,388,121.12Z"/><path class="cls-5" d="M386.83,127.54a39.79,39.79,0,0,1-5.1,1.92c.49-.08.3-1,.79-1.1,4.16-.74,7.67-4.05,7.17-5.8-.56-2-3.06.14-5.29.14a15.34,15.34,0,0,1-3.31-.27s-.78-1.39.2-.8c1.93,1.17,7.83-1,7.29-3-.7-2.5-7.94-3.34-9.33-4.45s-.41-2.78-1.11-6.54-3.34-9-4.87-8.63-.28,7.51-.7,10.72-2.36,7.37-2.78,11,1.95,9.74,5.84,11.55,10.72,0,12.67-2.78S388.46,126.76,386.83,127.54Z"/><path class="cls-6" d="M382.17,126.78c2-.46,7.4-2.65,6.76-4s-7.49,1.83-8.59,1.65-2-2-.91-2.93,7.12-1.09,8.22-2.37-6.76-3.48-6.76-3.48-2-1.18-2.56-1.46-.73-1.46-.64-4.66-2.65-8.68-3.75-9,2.2,7.86,1.65,11.24-4.39,4.93-4.93,6.85a4.63,4.63,0,0,0,.63,4.48,12.22,12.22,0,0,1,2.2,4.84c.27,1.92,1.64,2.28,2.19,3.93s2.83,1.46,4.48,1,8.68-4.11,8.4-4.93-8.49,3.47-8.86,2.28A2.89,2.89,0,0,1,382.17,126.78Z"/><path class="cls-18" d="M396.54,147.11c-.25,1.43,4.38.66,6.26-.06a6.12,6.12,0,0,0,1.75-1c.08-.07.27-.27.39-.27a1.27,1.27,0,0,0,2.43.37.79.79,0,0,1,.28.21c.12.13.28.26.41.42a10.48,10.48,0,0,0,1.27,1.47c1.39,1.27,4.9,4,5.69,2.68a1.27,1.27,0,0,0,.12-.33c.33-1.61.59-2.79.9-4.44s.63-3.35.8-4.84c.4-1.49-4.43-.66-6.24.16-1.45.66-2,1.17-2.76,1.49a1.47,1.47,0,0,0-.1-.22s0,0,0,0a1.27,1.27,0,0,0-1.94-.28h0a14.89,14.89,0,0,0-1.64-2.18l-.24-.24h0l-.25-.23h0c-1.66-1.49-5-3.69-5.25-2,0,.18-.06.35-.1.52-.25,1.37-.5,2.29-.78,3.77C397.15,143.8,396.84,145.35,396.54,147.11Z"/><path d="M396.77,147.15c-.06.23.2.39.55.48a10,10,0,0,0,5.48-1,6,6,0,0,0,1.69-1.26.79.79,0,0,1,.47-.15.54.54,0,0,1,.56.39l.06.18c.13.5.85.51.9.05a.74.74,0,0,1,1.17-.54,2.5,2.5,0,0,1,.94.64,13.89,13.89,0,0,0,5.68,4c.1,0,0,0-.09,0a.81.81,0,0,0-.54.44l0-.29c.18-1.07.48-3.09.66-4.18l.58-4.69.05-.28a1.49,1.49,0,0,0,.49,1.52c.23.14.18.13.25.16s0,0,0,0a10.4,10.4,0,0,0-4.16,1.08,30.68,30.68,0,0,1-2.81,1.68l-3.26-1.54a.67.67,0,0,0,.1.23l-.11-.22a1.23,1.23,0,0,0,2,.52l-2.16.62c.07,0,.28,0,.4,0l-2-1c-.45-.63-.65-1-.86-1.3a6.28,6.28,0,0,0-.7-.88l-.58-2.59a.83.83,0,0,0-.06.21l.7,2.41-.2-.2,2.64.35.12-.06-2.79-.3a27.88,27.88,0,0,0-2.9-2.55s0,0,0,0c.31-.13.87-.44.79-.89a52.17,52.17,0,0,0-3.13,9Zm-.47-.08a66,66,0,0,0,.5-9.43,2.37,2.37,0,0,1,2.21-2.18c2.38-.09,4.47,1.25,6.2,2.57l-2.79-.31a2.27,2.27,0,0,1,2.78.28,2.31,2.31,0,0,1,1,2.58c0,.1-.06.21-.1.31l-.59-2.59a11.22,11.22,0,0,1,1.33,1.42c.4.5.72,1.05.88,1.24l-2-1a2.81,2.81,0,0,1,.49.05l-2.16.62a3.76,3.76,0,0,1,5.81.94,5.85,5.85,0,0,1,.3.68l-3.26-1.54a26.14,26.14,0,0,1,3.46-1.56,14.4,14.4,0,0,1,6-.5,3.19,3.19,0,0,1,1.86,1,2.55,2.55,0,0,1,.42,2.18l.06-.28-1,4.89c-.19.78-.68,2.81-.87,3.56-.05.18-.18.71-.23.89a2.35,2.35,0,0,1-2.35,1.89c-1.71-.15-3-1.29-4.23-2.25a14.42,14.42,0,0,1-3-3.31c-.07-.14-.32-.3,0-.14l1.17-.54a2.07,2.07,0,0,1-3.94-.68l.62.57c.2,0,.2-.06.2-.06-1.94,1.33-4.41,1.54-6.69,1.71-.76,0-2.2.06-2.14-1Z"/><path class="cls-19" d="M395.09,146.32c-.26,1.51,4.61.69,6.58-.06a6.61,6.61,0,0,0,1.84-1c.08-.07.28-.28.41-.28a1.33,1.33,0,0,0,2.55.39.83.83,0,0,1,.3.22,5.75,5.75,0,0,1,.42.43,11.81,11.81,0,0,0,1.35,1.55c1.45,1.34,5.14,4.23,6,2.82a1.11,1.11,0,0,0,.13-.35c.35-1.69.62-2.93.95-4.67s.67-3.52.84-5.08c.42-1.56-4.66-.69-6.55.17-1.52.69-2.05,1.23-2.91,1.56a.94.94,0,0,0-.1-.23.17.17,0,0,1,0-.05,1.33,1.33,0,0,0-2-.29h-.05a15.43,15.43,0,0,0-1.72-2.29c-.08-.08-.16-.17-.25-.25s0,0,0,0l-.26-.23h0c-1.74-1.56-5.2-3.87-5.52-2.06,0,.19-.06.38-.1.55-.27,1.44-.52,2.4-.82,4C395.74,142.84,395.41,144.47,395.09,146.32Z"/><path class="cls-20" d="M15.45,152.15q-13.14,0-13.14-12.49V110q0-13,12.86-13H39.39q12.77,0,12.76,13v29.2q0,12.86-12.58,12.86Zm20.65-36a2.49,2.49,0,0,0-2.81-2.81H21.36a2.49,2.49,0,0,0-2.81,2.81V132.9c0,2,.94,3,2.81,3H33.29a2.49,2.49,0,0,0,2.81-2.82Z"/><path class="cls-20" d="M76.28,152.15v9.26H60V97h36.8Q110,97,110,109.62v29.57q0,13-12.86,13Zm17.46-35.86c0-2-.94-3-2.81-3H76.28v22.53H90.93A2.48,2.48,0,0,0,93.74,133Z"/><path class="cls-20" d="M131.29,152.15q-13.42,0-13.42-12.11V81.74h16.24V97.61h12.77v14.83H134.11v20.28c0,2.13.81,3.19,2.44,3.19h10.23v16.24Z"/><path class="cls-20" d="M156.36,92.54c-2.26,0-3.38-1.22-3.38-3.66V82.59c0-2.44,1.25-3.67,3.75-3.67h8.83c2.37,0,3.56,1.23,3.56,3.67v6.29q0,3.66-3.56,3.66ZM153,152.15V97h16.24v55.11Z"/><path class="cls-20" d="M235.49,152.15v-36a2.48,2.48,0,0,0-2.81-2.81H222.35v38.77h-16V113.38H196.16a2.49,2.49,0,0,0-2.82,2.81v36H177.29V110q0-13,12.86-13h48.44q12.76,0,12.77,13v42.06Z"/><path class="cls-20" d="M270.6,152.15q-12,0-12-12.49V131.5q0-12.77,12-12.77h18.5a7.68,7.68,0,0,1,3.1.66v-4.13a2.49,2.49,0,0,0-2.82-2.82H260.75V97h34.54q13.15,0,13.15,13v29.19q0,13-12.68,13Zm21.6-20.84a1.66,1.66,0,0,0-1.88-1.88H276.61a1.66,1.66,0,0,0-1.88,1.88v3.85a1.66,1.66,0,0,0,1.88,1.88h13.71a1.66,1.66,0,0,0,1.88-1.88Z"/><path class="cls-20" d="M319.7,92.54q-3.37,0-3.38-3.66V82.59c0-2.44,1.25-3.67,3.76-3.67h8.82c2.38,0,3.57,1.23,3.57,3.67v6.29q0,3.66-3.57,3.66Zm-3.38,59.61V97h16.24v55.11Z"/><path class="cls-12" d="M13.14,151Q0,151,0,138.51V108.85q0-13,12.86-13H37.08q12.77,0,12.77,13v29.2Q49.85,151,37.27,151ZM33.8,115A2.49,2.49,0,0,0,31,112.23H19.06A2.49,2.49,0,0,0,16.24,115v16.71c0,2,.94,3,2.82,3H31a2.49,2.49,0,0,0,2.82-2.82Z"/><path class="cls-12" d="M74,151v9.26H57.73V95.89h36.8q13.16,0,13.15,12.58V138q0,13-12.86,13Zm17.47-35.86c0-2-.94-3-2.82-3H74v22.53H88.62a2.49,2.49,0,0,0,2.82-2.81Z"/><path class="cls-12" d="M129,151q-13.43,0-13.43-12.11V80.59H131.8V96.45h12.77v14.84H131.8v20.27c0,2.13.82,3.2,2.44,3.2h10.24V151Z"/><path class="cls-12" d="M154.05,91.38q-3.37,0-3.38-3.66V81.43q0-3.66,3.76-3.66h8.82q3.57,0,3.57,3.66v6.29q0,3.66-3.57,3.66ZM150.67,151V95.89h16.24V151Z"/><path class="cls-12" d="M233.19,151V115a2.49,2.49,0,0,0-2.82-2.81H220.05V151H204V112.23H193.85A2.48,2.48,0,0,0,191,115v36H175V108.85q0-13,12.87-13h48.44q12.77,0,12.76,13V151Z"/><path class="cls-12" d="M268.3,151q-12,0-12-12.49v-8.17q0-12.77,12-12.76h18.49a7.77,7.77,0,0,1,3.1.65V114.1a2.49,2.49,0,0,0-2.82-2.81H258.44V95.89H293q13.14,0,13.14,13V138q0,13-12.67,13Zm21.59-20.84a1.66,1.66,0,0,0-1.88-1.88h-13.7a1.66,1.66,0,0,0-1.88,1.88V134a1.66,1.66,0,0,0,1.88,1.88H288a1.66,1.66,0,0,0,1.88-1.88Z"/><path class="cls-12" d="M317.4,91.38c-2.26,0-3.38-1.22-3.38-3.66V81.43q0-3.66,3.75-3.66h8.83q3.56,0,3.56,3.66v6.29q0,3.66-3.56,3.66ZM314,151V95.89h16.24V151Z"/></g><g id="Text"><path class="cls-12" d="M27.55,179.92v9.15c0,.23-.41,2.36-.64,3.42H9.82V178.9a19.06,19.06,0,0,1,.27-3.65A12.24,12.24,0,0,1,7.36,175L8,171.65a39,39,0,0,0,5.24.19h7.67C26.49,171.84,27.55,173.43,27.55,179.92Zm-6.79-4.63H12.67V189h12v-8.2C24.67,177.08,24.25,175.29,20.76,175.29Z"/><path class="cls-12" d="M31.77,189.19c.76-.12,2.92-.12,5.16-.12h7.26a41.62,41.62,0,0,0,.72-7.06c0-5.09-1.14-6.72-5.28-6.72H36.14a25.14,25.14,0,0,1-4.37-.22l.68-3.38a37.21,37.21,0,0,0,4.75.15h3.15c6.27,0,7.48,2.77,7.48,9.87a52.15,52.15,0,0,1-1.25,10.78H36.14a50.16,50.16,0,0,0-5,.11Z"/><path class="cls-12" d="M53.41,180.53a29.79,29.79,0,0,1,.31-5.28c-.69,0-2.51-.15-2.77-.18l.64-3.42a34.38,34.38,0,0,0,5.28.19h6.87c5.54,0,6.6,1.71,6.6,8v12.64h-3V181c0-4.18-.38-5.66-4-5.66H56.34v17.2H53.41Z"/><path class="cls-12" d="M83.48,187.44c0-3.72.88-7.17,3.57-10a68.89,68.89,0,0,0-5.12-5.28L82,172l4.06-.3c1.94,2,4.75,5.16,8.74,10.1a5.55,5.55,0,0,0,2.46-5A12.89,12.89,0,0,0,96.17,172l3.71-.34a13,13,0,0,1,.73,4.48,8.57,8.57,0,0,1-4.33,7.48c2,2.5,5.28,7.06,6.41,8.88h-4a118,118,0,0,0-10-13.06,10.64,10.64,0,0,0-1.94,7.18,21.9,21.9,0,0,0,1.06,5.88H84.17A19.43,19.43,0,0,1,83.48,187.44Z"/><path class="cls-12" d="M105.28,189.23a13.79,13.79,0,0,1,3.11-.19H109c0-3.69-.34-11.32-.61-13.75h-.11a12.49,12.49,0,0,1-2.89-.26l.69-3.34a46.67,46.67,0,0,0,6,.15h6.22c5.58,0,6.65,1.33,6.65,7.82v12.83h-3V180.72c0-3.76-.42-5.43-4-5.43h-6.68c.19,2.43.6,11.13.57,13.78l-.53,3.42h-3a34.2,34.2,0,0,0-3.76.15Z"/><path class="cls-12" d="M129.05,189.19a40.17,40.17,0,0,1,4.67-.15h2.65v-8.47c0-3.3-.38-4.21-3.75-5-1.37-.31-2.7-.61-3.31-.84l.65-3.34a23.06,23.06,0,0,0,3.26.76c4.41.91,6.12,2.2,6.12,7.78v9.23l-.65,3.34h-5.28c-1.63,0-4.25,0-5,.11Z"/><path class="cls-12" d="M143,189.19c.76-.12,2.93-.12,5.17-.12h7.25a40.63,40.63,0,0,0,.72-7.06c0-5.09-1.14-6.72-5.28-6.72h-3.49a25.14,25.14,0,0,1-4.37-.22l.69-3.38a37.11,37.11,0,0,0,4.74.15h3.15c6.27,0,7.48,2.77,7.48,9.87a51.47,51.47,0,0,1-1.25,10.78H147.35a50,50,0,0,0-5,.11Z"/><path class="cls-12" d="M162.27,172l3.61-.34c.26.91.76,3.76,1.93,10.82,3.8-.88,4.44-2.39,4.44-5.13a18.67,18.67,0,0,0-1-5.35l3.57-.34a21.47,21.47,0,0,1,.8,5.2c0,3.57-1.07,6.83-7.48,8.05.07.38.49,3.07.72,4.33a30.23,30.23,0,0,0,4.14-.61c4.7-1,7.55-3,7.55-9.49a22.24,22.24,0,0,0-1.29-7.14l3.64-.3a24.23,24.23,0,0,1,.92,6.68c0,9.3-5.43,12.45-11.35,13.55-2.4.42-4.75.72-6,.84C165.61,187.74,163.37,175.1,162.27,172Z"/><path class="cls-12" d="M190.06,180.84c.54-3.8-1-5.28-3.37-5.85l.68-3.53a5.79,5.79,0,0,1,5.2,5.35,7.82,7.82,0,0,1,7.36-5.31c5.93,0,7.37,5.42,7.37,12.75v4.86c0,.34-.42,2.85-.53,3.38h-7.48c-1.52,0-3.49,0-4.29.11l.64-3.37a34.27,34.27,0,0,1,4.67-.16h4c0-1.59,0-3.15,0-4.67,0-4.78-.61-9.45-5.05-9.45-4.21,0-5.7,4.18-6.26,6.76s-1.41,7.14-2.09,10.78h-3C188.74,188.58,189.65,183.64,190.06,180.84Z"/><path class="cls-12" d="M224,180.65c0-3.31-.38-4.45-3.34-5.17a13.6,13.6,0,0,1-2.58-.79l.64-3.31a18.54,18.54,0,0,0,2.89.76c4.1,1,5.35,2.24,5.35,7.82v19.82h-3Z"/><path class="cls-12" d="M235.09,180.61c0-3.27-.38-4.44-3.34-5.17a20.85,20.85,0,0,1-2.58-.72l.65-3.34a14.18,14.18,0,0,0,2.62.61c4.25.91,5.61,2.32,5.61,8.09v12.41h-3Z"/><path class="cls-12" d="M241.93,189.23a53.52,53.52,0,0,1,6-.19h5.77c0-2.59,0-6.19,0-8.13-.08-4.06-.53-5.62-4.14-5.62h-3.3a23.32,23.32,0,0,1-4.22-.22l.69-3.38a36.58,36.58,0,0,0,4.86.15h3c5.43,0,6,2.5,6,7.7v6.27c0,.8-.07,2.58-.15,3.23h2.77l-.64,3.45H246.18c-1.63,0-4,0-4.9.11Z"/><path class="cls-12" d="M260.5,172l3.6-.34c.27.91.76,3.76,1.94,10.82,3.8-.88,4.44-2.39,4.44-5.13a18.67,18.67,0,0,0-1-5.35l3.56-.34a21.47,21.47,0,0,1,.8,5.2c0,3.57-1.06,6.83-7.48,8.05.08.38.5,3.07.72,4.33a30,30,0,0,0,4.14-.61c4.71-1,7.56-3,7.56-9.49a22.24,22.24,0,0,0-1.29-7.14l3.64-.3a24.3,24.3,0,0,1,.91,6.68c0,9.3-5.43,12.45-11.35,13.55-2.39.42-4.75.72-6,.84C263.84,187.74,261.6,175.1,260.5,172Z"/><path class="cls-12" d="M287.64,180.53a29.79,29.79,0,0,1,.31-5.28c-.69,0-2.51-.15-2.77-.18l.64-3.42a34.38,34.38,0,0,0,5.28.19H298c5.54,0,6.61,1.71,6.61,8v12.64h-3V181c0-4.18-.38-5.66-4-5.66h-7.06v17.2h-2.93Z"/><path class="cls-12" d="M311.45,180.84c.53-3.8-1-5.28-3.38-5.85l.68-3.53a5.81,5.81,0,0,1,5.21,5.35,7.82,7.82,0,0,1,7.36-5.31c5.92,0,7.37,5.42,7.37,12.75v4.86c0,.34-.42,2.85-.54,3.38h-7.47c-1.52,0-3.5,0-4.29.11l.64-3.37a34.19,34.19,0,0,1,4.67-.16h4c0-1.59,0-3.15,0-4.67,0-4.78-.6-9.45-5-9.45-4.22,0-5.7,4.18-6.27,6.76s-1.4,7.14-2.09,10.78h-3C310.12,188.58,311,183.64,311.45,180.84Z"/></g></g></g></svg>