<svg xmlns="http://www.w3.org/2000/svg" viewBox="0 0 29.42 23.81"><defs><style>.cls-1{fill:#fff;}</style></defs><g id="Слой_2" data-name="Слой 2"><g id="Layer_1" data-name="Layer 1"><path class="cls-1" d="M3.85,0A3.87,3.87,0,0,0,0,3.85V20a3.86,3.86,0,0,0,3.85,3.85H25.57A3.86,3.86,0,0,0,29.42,20V3.85A3.87,3.87,0,0,0,25.57,0Zm0,2.1H25.57a1.74,1.74,0,0,1,1.75,1.75V20a1.74,1.74,0,0,1-1.75,1.75H3.85A1.73,1.73,0,0,1,2.1,20V3.85A1.73,1.73,0,0,1,3.85,2.1Zm0,1.4a.71.71,0,0,0-.7.7v.7a.7.7,0,0,0,.7.7h.7a.7.7,0,0,0,.7-.7V4.2a.7.7,0,0,0-.7-.7Zm4.2,0a.71.71,0,0,0-.7.7v.7a.7.7,0,0,0,.7.7h.71a.7.7,0,0,0,.7-.7V4.2a.71.71,0,0,0-.7-.7Zm4.21,0a.7.7,0,0,0-.7.7v.7a.7.7,0,0,0,.7.7H13a.7.7,0,0,0,.7-.7V4.2a.71.71,0,0,0-.7-.7Zm4.2,0a.7.7,0,0,0-.7.7v.7a.7.7,0,0,0,.7.7h.7a.7.7,0,0,0,.7-.7V4.2a.7.7,0,0,0-.7-.7Zm4.2,0a.71.71,0,0,0-.7.7v.7a.7.7,0,0,0,.7.7h.7a.7.7,0,0,0,.7-.7V4.2a.7.7,0,0,0-.7-.7Zm4.21,0a.71.71,0,0,0-.71.7v.7a.7.7,0,0,0,.71.7h.7a.7.7,0,0,0,.7-.7V4.2a.71.71,0,0,0-.7-.7ZM12.42,7.7a1.26,1.26,0,0,0-.6.17,1.22,1.22,0,0,0-.61,1.06v6A1.22,1.22,0,0,0,13,16l5.25-3a1.22,1.22,0,0,0,.62-1.06,1.24,1.24,0,0,0-.62-1.07L13,7.86A1.33,1.33,0,0,0,12.42,7.7ZM3.85,18.21a.7.7,0,0,0-.7.7v.7a.7.7,0,0,0,.7.7h.7a.7.7,0,0,0,.7-.7v-.7a.7.7,0,0,0-.7-.7Zm4.2,0a.7.7,0,0,0-.7.7v.7a.7.7,0,0,0,.7.7h.71a.7.7,0,0,0,.7-.7v-.7a.7.7,0,0,0-.7-.7Zm4.21,0a.7.7,0,0,0-.7.7v.7a.7.7,0,0,0,.7.7H13a.7.7,0,0,0,.7-.7v-.7a.7.7,0,0,0-.7-.7Zm4.2,0a.7.7,0,0,0-.7.7v.7a.7.7,0,0,0,.7.7h.7a.7.7,0,0,0,.7-.7v-.7a.7.7,0,0,0-.7-.7Zm4.2,0a.7.7,0,0,0-.7.7v.7a.7.7,0,0,0,.7.7h.7a.7.7,0,0,0,.7-.7v-.7a.7.7,0,0,0-.7-.7Zm4.21,0a.7.7,0,0,0-.71.7v.7a.7.7,0,0,0,.71.7h.7a.7.7,0,0,0,.7-.7v-.7a.7.7,0,0,0-.7-.7Z"/></g></g></svg>