<svg xmlns="http://www.w3.org/2000/svg" viewBox="0 0 24.65 24.65"><defs><style>.cls-1{fill:#e6e6e6;}</style></defs><g id="Слой_2" data-name="Слой 2"><g id="Layer_1" data-name="Layer 1"><polygon class="cls-1" points="10.68 14.79 14.95 12.32 10.68 9.86 10.68 14.79"/><path class="cls-1" d="M12.32,0A12.33,12.33,0,1,0,24.65,12.32,12.33,12.33,0,0,0,12.32,0ZM20.2,16.28a2.06,2.06,0,0,1-1.46,1.45,48.18,48.18,0,0,1-6.42.35,48.25,48.25,0,0,1-6.42-.35,2.06,2.06,0,0,1-1.45-1.45,21.63,21.63,0,0,1-.34-4,21.54,21.54,0,0,1,.34-4A2.06,2.06,0,0,1,5.9,6.92a48.25,48.25,0,0,1,6.42-.35,48.18,48.18,0,0,1,6.42.35A2.06,2.06,0,0,1,20.2,8.37a21.54,21.54,0,0,1,.34,4A21.63,21.63,0,0,1,20.2,16.28Z"/></g></g></svg>