<svg width="618" height="544" viewBox="0 0 618 544" fill="none" xmlns="http://www.w3.org/2000/svg">
<path d="M435.25 359.75C504.7 290.3 504.7 177.7 435.25 108.25C365.8 38.8001 253.2 38.8001 183.75 108.25C114.3 177.7 114.3 290.3 183.75 359.75C253.2 429.2 365.8 429.2 435.25 359.75Z" fill="white" fill-opacity="0.04"/>
<path d="M463.5 389.5C548.828 304.172 548.828 165.828 463.5 80.4999C378.172 -4.82809 239.828 -4.82809 154.5 80.4999C69.1719 165.828 69.1719 304.172 154.5 389.5C239.828 474.828 378.172 474.828 463.5 389.5Z" fill="white" fill-opacity="0.04"/>
<path d="M404.954 330.954C457.965 277.943 457.965 191.996 404.954 138.985C351.943 85.9738 265.996 85.9738 212.985 138.985C159.974 191.996 159.974 277.943 212.985 330.954C265.996 383.965 351.943 383.965 404.954 330.954Z" fill="white"/>
<path d="M332.218 327.947C342.844 319.052 344.248 303.227 335.353 292.6C326.458 281.973 310.633 280.569 300.006 289.464C289.379 298.359 287.975 314.185 296.87 324.812C305.765 335.439 321.591 336.843 332.218 327.947Z" fill="#EBEBEB"/>
<path d="M292.937 311.025C292.932 305.982 294.448 301.055 297.287 296.888C300.127 292.721 304.157 289.508 308.852 287.668C313.546 285.827 318.687 285.446 323.602 286.574C328.517 287.702 332.977 290.286 336.4 293.989C334.397 291.215 331.847 288.88 328.907 287.129C325.967 285.377 322.7 284.247 319.307 283.806C315.914 283.365 312.466 283.625 309.177 284.567C305.887 285.51 302.826 287.116 300.181 289.287C297.536 291.458 295.363 294.147 293.797 297.19C292.231 300.232 291.305 303.563 291.075 306.977C290.845 310.391 291.317 313.816 292.461 317.041C293.606 320.266 295.398 323.222 297.729 325.728C294.614 321.458 292.936 316.31 292.937 311.025Z" fill="#DFDFDF"/>
<path d="M264.066 213.025C265.289 193.956 250.822 177.506 231.753 176.283C212.683 175.06 196.233 189.528 195.011 208.597C193.788 227.666 208.255 244.116 227.324 245.339C246.393 246.562 262.843 232.095 264.066 213.025Z" fill="#EBEBEB"/>
<path d="M197.571 214.016C197.567 207.063 199.659 200.27 203.575 194.524C207.492 188.779 213.049 184.348 219.523 181.811C225.997 179.273 233.085 178.747 239.862 180.301C246.64 181.854 252.791 185.416 257.513 190.52C254.752 186.688 251.236 183.462 247.181 181.041C243.125 178.62 238.617 177.057 233.934 176.446C229.251 175.835 224.492 176.191 219.951 177.49C215.411 178.79 211.185 181.006 207.534 184.003C203.884 186.999 200.886 190.711 198.725 194.911C196.565 199.111 195.288 203.709 194.974 208.421C194.659 213.133 195.314 217.86 196.897 222.31C198.48 226.759 200.958 230.837 204.178 234.292C199.883 228.404 197.57 221.304 197.571 214.016Z" fill="#DFDFDF"/>
<path d="M379.643 177.415C387.768 177.415 394.354 170.829 394.354 162.704C394.354 154.58 387.768 147.994 379.643 147.994C371.519 147.994 364.933 154.58 364.933 162.704C364.933 170.829 371.519 177.415 379.643 177.415Z" fill="#EBEBEB"/>
<path d="M366.057 164.074C366.054 161.117 366.943 158.227 368.609 155.784C370.274 153.34 372.637 151.455 375.39 150.376C378.143 149.297 381.158 149.073 384.04 149.734C386.922 150.396 389.538 151.911 391.545 154.082C390.371 152.453 388.876 151.082 387.152 150.054C385.428 149.025 383.511 148.361 381.52 148.101C379.529 147.842 377.506 147.993 375.576 148.546C373.646 149.099 371.849 150.041 370.297 151.315C368.745 152.589 367.47 154.167 366.552 155.952C365.633 157.737 365.09 159.692 364.956 161.695C364.822 163.699 365.1 165.708 365.773 167.6C366.445 169.492 367.498 171.226 368.867 172.695C367.04 170.191 366.057 167.172 366.057 164.074Z" fill="#DFDFDF"/>
<path d="M312.614 138.93C314.945 129.105 308.871 119.251 299.047 116.919C289.222 114.588 279.368 120.662 277.037 130.487C274.705 140.311 280.78 150.165 290.604 152.497C300.428 154.828 310.283 148.754 312.614 138.93Z" fill="#EBEBEB"/>
<path d="M277.94 136.409C277.937 132.734 279.042 129.143 281.112 126.107C283.181 123.07 286.118 120.728 289.54 119.387C292.961 118.046 296.708 117.768 300.29 118.59C303.872 119.412 307.122 121.295 309.617 123.993C308.159 121.967 306.301 120.262 304.158 118.983C302.014 117.703 299.632 116.876 297.157 116.553C294.682 116.231 292.167 116.418 289.767 117.105C287.368 117.792 285.134 118.964 283.205 120.547C281.276 122.131 279.691 124.093 278.55 126.313C277.409 128.533 276.734 130.963 276.569 133.453C276.403 135.944 276.75 138.442 277.587 140.793C278.425 143.145 279.735 145.299 281.438 147.125C279.166 144.013 277.941 140.261 277.94 136.409Z" fill="#DFDFDF"/>
<path d="M321.657 129.577C319.966 129.577 318.313 129.076 316.907 128.136C315.5 127.197 314.404 125.861 313.757 124.299C313.11 122.736 312.941 121.017 313.271 119.358C313.601 117.7 314.416 116.176 315.612 114.981C316.807 113.785 318.331 112.971 319.99 112.641C321.649 112.311 323.368 112.481 324.93 113.128C326.492 113.775 327.828 114.872 328.767 116.278C329.706 117.684 330.207 119.337 330.207 121.029C330.207 122.151 329.986 123.263 329.556 124.3C329.127 125.338 328.497 126.28 327.703 127.074C326.909 127.868 325.966 128.497 324.929 128.927C323.891 129.356 322.78 129.577 321.657 129.577Z" fill="#EBEBEB"/>
<path d="M313.762 121.824C313.76 120.106 314.276 118.426 315.244 117.006C316.211 115.585 317.585 114.49 319.185 113.862C320.786 113.235 322.538 113.105 324.213 113.49C325.888 113.874 327.409 114.755 328.575 116.017C327.893 115.071 327.024 114.275 326.022 113.677C325.02 113.08 323.906 112.694 322.749 112.543C321.592 112.392 320.416 112.48 319.295 112.802C318.173 113.123 317.129 113.67 316.227 114.41C315.325 115.15 314.585 116.067 314.051 117.105C313.517 118.142 313.201 119.278 313.123 120.442C313.045 121.606 313.206 122.774 313.597 123.873C313.987 124.973 314.599 125.98 315.394 126.834C314.333 125.379 313.762 123.625 313.762 121.824Z" fill="#DFDFDF"/>
<path d="M186.375 243.519C184.684 243.52 183.031 243.019 181.624 242.079C180.218 241.14 179.122 239.805 178.475 238.242C177.827 236.68 177.658 234.961 177.987 233.302C178.317 231.643 179.131 230.12 180.327 228.924C181.523 227.728 183.046 226.913 184.705 226.583C186.363 226.253 188.083 226.423 189.645 227.07C191.208 227.717 192.543 228.813 193.483 230.219C194.422 231.625 194.924 233.278 194.924 234.969C194.924 237.237 194.023 239.411 192.42 241.015C190.817 242.618 188.642 243.519 186.375 243.519Z" fill="#EBEBEB"/>
<path d="M178.479 235.765C178.477 234.046 178.993 232.367 179.961 230.946C180.928 229.526 182.302 228.43 183.902 227.803C185.503 227.176 187.255 227.046 188.93 227.43C190.605 227.815 192.126 228.696 193.292 229.958C192.609 229.014 191.74 228.22 190.738 227.625C189.737 227.03 188.624 226.645 187.468 226.496C186.313 226.347 185.139 226.436 184.019 226.757C182.899 227.078 181.856 227.625 180.956 228.365C180.055 229.104 179.315 230.019 178.782 231.055C178.248 232.091 177.932 233.225 177.853 234.388C177.774 235.55 177.934 236.716 178.322 237.815C178.711 238.913 179.32 239.921 180.112 240.775C179.051 239.32 178.478 237.566 178.479 235.765Z" fill="#DFDFDF"/>
<path d="M233.952 172.696C233.106 172.696 232.28 172.445 231.577 171.975C230.874 171.506 230.326 170.838 230.003 170.057C229.679 169.276 229.595 168.417 229.76 167.587C229.924 166.758 230.331 165.997 230.929 165.399C231.527 164.801 232.289 164.394 233.118 164.229C233.947 164.064 234.806 164.149 235.587 164.472C236.368 164.796 237.036 165.344 237.506 166.047C237.975 166.75 238.226 167.576 238.226 168.421C238.226 168.983 238.116 169.539 237.901 170.057C237.686 170.576 237.372 171.047 236.975 171.444C236.578 171.841 236.106 172.156 235.588 172.371C235.069 172.585 234.513 172.696 233.952 172.696Z" fill="#EBEBEB"/>
<path d="M230.004 168.818C230.003 167.959 230.261 167.119 230.745 166.409C231.229 165.699 231.915 165.151 232.715 164.837C233.516 164.524 234.392 164.459 235.229 164.651C236.067 164.844 236.827 165.284 237.41 165.916C237.069 165.441 236.635 165.042 236.134 164.742C235.632 164.442 235.075 164.248 234.496 164.172C233.917 164.096 233.328 164.139 232.767 164.3C232.205 164.46 231.682 164.734 231.231 165.105C230.779 165.475 230.408 165.934 230.141 166.454C229.874 166.973 229.717 167.542 229.678 168.125C229.64 168.708 229.721 169.292 229.918 169.842C230.114 170.392 230.421 170.896 230.82 171.323C230.289 170.596 230.003 169.719 230.004 168.818Z" fill="#DFDFDF"/>
<path d="M203.948 252.069C203.102 252.069 202.276 251.818 201.573 251.349C200.87 250.879 200.322 250.211 199.999 249.43C199.675 248.649 199.591 247.79 199.756 246.961C199.921 246.132 200.328 245.37 200.925 244.772C201.523 244.174 202.285 243.767 203.114 243.602C203.943 243.437 204.802 243.522 205.583 243.846C206.365 244.169 207.032 244.717 207.502 245.42C207.971 246.123 208.222 246.949 208.222 247.795C208.222 248.928 207.772 250.015 206.97 250.817C206.169 251.619 205.081 252.069 203.948 252.069Z" fill="#EBEBEB"/>
<path d="M199.992 248.192C199.989 247.33 200.246 246.487 200.731 245.775C201.216 245.062 201.904 244.513 202.707 244.199C203.509 243.885 204.388 243.821 205.227 244.015C206.067 244.21 206.828 244.654 207.41 245.289C207.07 244.814 206.635 244.415 206.134 244.115C205.633 243.815 205.076 243.621 204.497 243.545C203.917 243.469 203.329 243.513 202.767 243.673C202.206 243.834 201.683 244.108 201.231 244.478C200.78 244.849 200.409 245.308 200.142 245.827C199.875 246.347 199.717 246.915 199.679 247.498C199.64 248.081 199.722 248.666 199.918 249.216C200.115 249.766 200.422 250.27 200.821 250.696C200.285 249.971 199.995 249.093 199.992 248.192Z" fill="#DFDFDF"/>
<path d="M349.802 305.628C348.957 305.629 348.13 305.378 347.426 304.908C346.723 304.439 346.175 303.771 345.851 302.99C345.527 302.209 345.442 301.349 345.607 300.519C345.772 299.69 346.179 298.928 346.777 298.329C347.375 297.731 348.137 297.324 348.966 297.159C349.795 296.994 350.655 297.078 351.437 297.402C352.218 297.725 352.886 298.273 353.356 298.977C353.826 299.68 354.077 300.507 354.077 301.352C354.077 302.486 353.626 303.574 352.825 304.375C352.023 305.177 350.936 305.628 349.802 305.628Z" fill="#EBEBEB"/>
<path d="M345.856 301.752C345.854 300.892 346.113 300.053 346.597 299.342C347.08 298.632 347.767 298.084 348.567 297.771C349.367 297.457 350.243 297.392 351.081 297.585C351.918 297.777 352.678 298.218 353.261 298.849C352.921 298.374 352.486 297.975 351.985 297.675C351.484 297.375 350.927 297.181 350.348 297.105C349.769 297.029 349.18 297.073 348.618 297.233C348.057 297.394 347.534 297.668 347.083 298.038C346.631 298.409 346.26 298.868 345.993 299.387C345.726 299.907 345.569 300.475 345.53 301.058C345.492 301.641 345.573 302.226 345.769 302.776C345.966 303.326 346.273 303.83 346.672 304.256C346.141 303.529 345.855 302.652 345.856 301.752Z" fill="#DFDFDF"/>
<path d="M378.24 187.766C377.394 187.766 376.568 187.515 375.865 187.046C375.162 186.576 374.614 185.908 374.291 185.127C373.967 184.346 373.883 183.487 374.048 182.658C374.213 181.829 374.62 181.067 375.217 180.469C375.815 179.871 376.577 179.464 377.406 179.299C378.235 179.134 379.094 179.219 379.875 179.543C380.657 179.866 381.324 180.414 381.794 181.117C382.263 181.82 382.514 182.646 382.514 183.492C382.514 184.625 382.064 185.712 381.262 186.514C380.461 187.316 379.373 187.766 378.24 187.766Z" fill="#EBEBEB"/>
<path d="M374.292 183.889C374.291 183.03 374.549 182.19 375.033 181.48C375.517 180.769 376.203 180.222 377.004 179.908C377.804 179.594 378.68 179.53 379.517 179.722C380.355 179.914 381.115 180.355 381.698 180.986C381.357 180.512 380.923 180.112 380.422 179.812C379.92 179.512 379.363 179.318 378.784 179.242C378.205 179.166 377.616 179.21 377.055 179.37C376.493 179.531 375.97 179.805 375.519 180.175C375.067 180.546 374.697 181.005 374.43 181.525C374.163 182.044 374.005 182.613 373.966 183.196C373.928 183.778 374.009 184.363 374.206 184.913C374.402 185.463 374.709 185.967 375.108 186.394C374.577 185.666 374.292 184.789 374.292 183.889Z" fill="#DFDFDF"/>
<path d="M419.782 222.648C418.09 222.648 416.437 222.146 415.031 221.207C413.625 220.267 412.529 218.932 411.882 217.369C411.235 215.807 411.066 214.088 411.396 212.429C411.726 210.77 412.54 209.247 413.736 208.051C414.932 206.855 416.456 206.041 418.115 205.712C419.773 205.382 421.492 205.551 423.055 206.199C424.617 206.846 425.952 207.942 426.892 209.349C427.831 210.755 428.332 212.408 428.332 214.099C428.331 216.367 427.43 218.541 425.827 220.144C424.224 221.747 422.049 222.648 419.782 222.648Z" fill="#EBEBEB"/>
<path d="M411.887 214.895C411.884 213.176 412.401 211.497 413.369 210.076C414.336 208.656 415.71 207.56 417.31 206.933C418.91 206.306 420.663 206.176 422.338 206.56C424.013 206.945 425.533 207.826 426.7 209.088C426.018 208.142 425.148 207.345 424.146 206.748C423.144 206.15 422.031 205.764 420.874 205.614C419.717 205.463 418.541 205.551 417.42 205.872C416.298 206.193 415.254 206.741 414.352 207.481C413.45 208.221 412.71 209.138 412.176 210.175C411.642 211.213 411.326 212.349 411.248 213.513C411.17 214.677 411.331 215.844 411.722 216.944C412.112 218.043 412.724 219.051 413.519 219.905C412.457 218.45 411.886 216.696 411.887 214.895Z" fill="#DFDFDF"/>
<path d="M364.935 345.443C363.244 345.443 361.591 344.942 360.185 344.002C358.779 343.063 357.683 341.727 357.036 340.165C356.389 338.602 356.22 336.883 356.55 335.225C356.88 333.566 357.694 332.042 358.89 330.847C360.086 329.651 361.61 328.837 363.268 328.507C364.927 328.177 366.646 328.347 368.209 328.994C369.771 329.642 371.106 330.738 372.045 332.144C372.985 333.55 373.486 335.204 373.486 336.895C373.485 339.162 372.584 341.337 370.981 342.94C369.377 344.543 367.203 345.443 364.935 345.443Z" fill="#EBEBEB"/>
<path d="M357.045 337.69C357.043 335.971 357.56 334.293 358.528 332.873C359.495 331.453 360.869 330.358 362.469 329.731C364.069 329.104 365.82 328.974 367.495 329.358C369.17 329.742 370.69 330.623 371.856 331.884C371.173 330.941 370.304 330.147 369.302 329.551C368.301 328.956 367.188 328.572 366.032 328.423C364.877 328.273 363.703 328.362 362.583 328.683C361.463 329.005 360.421 329.552 359.52 330.291C358.619 331.03 357.879 331.946 357.346 332.982C356.812 334.017 356.496 335.151 356.417 336.314C356.338 337.476 356.498 338.643 356.886 339.741C357.275 340.84 357.884 341.847 358.677 342.701C357.615 341.246 357.044 339.491 357.045 337.69Z" fill="#DFDFDF"/>
<path d="M351.121 291.556C358.749 291.556 364.933 285.372 364.933 277.745C364.933 270.117 358.749 263.934 351.121 263.934C343.494 263.934 337.31 270.117 337.31 277.745C337.31 285.372 343.494 291.556 351.121 291.556Z" fill="#EBEBEB"/>
<path d="M338.367 279.029C338.364 276.253 339.198 273.54 340.761 271.246C342.324 268.951 344.543 267.182 347.128 266.169C349.713 265.155 352.543 264.946 355.249 265.567C357.955 266.188 360.41 267.611 362.294 269.65C361.192 268.121 359.788 266.835 358.17 265.869C356.551 264.904 354.752 264.281 352.883 264.037C351.014 263.794 349.115 263.936 347.303 264.455C345.492 264.974 343.805 265.858 342.349 267.054C340.892 268.249 339.695 269.731 338.833 271.407C337.971 273.082 337.461 274.917 337.335 276.797C337.209 278.678 337.469 280.564 338.1 282.34C338.731 284.116 339.719 285.744 341.003 287.123C339.289 284.772 338.366 281.938 338.367 279.029Z" fill="#DFDFDF"/>
<path d="M265.952 328.345C273.58 328.345 279.763 322.162 279.763 314.534C279.763 306.906 273.58 300.723 265.952 300.723C258.325 300.723 252.141 306.906 252.141 314.534C252.141 322.162 258.325 328.345 265.952 328.345Z" fill="#EBEBEB"/>
<path d="M253.199 315.818C253.197 313.042 254.031 310.33 255.595 308.035C257.158 305.741 259.377 303.972 261.962 302.959C264.546 301.946 267.376 301.736 270.082 302.357C272.788 302.978 275.244 304.401 277.128 306.439C276.025 304.912 274.621 303.627 273.003 302.663C271.385 301.699 269.586 301.076 267.718 300.834C265.85 300.591 263.952 300.734 262.141 301.253C260.33 301.771 258.644 302.656 257.188 303.851C255.732 305.046 254.536 306.526 253.674 308.201C252.811 309.876 252.301 311.71 252.174 313.589C252.047 315.469 252.307 317.354 252.937 319.13C253.566 320.905 254.553 322.533 255.835 323.912C254.122 321.562 253.199 318.727 253.199 315.818Z" fill="#DFDFDF"/>
<path opacity="0.2" d="M279.005 318.412C244.908 318.308 211.683 307.621 183.919 287.827C197.407 319.739 222.584 345.286 254.296 359.238C286.008 373.189 321.853 374.489 354.492 362.87C387.131 351.252 414.092 327.594 429.855 296.743C445.618 265.892 448.989 230.181 439.278 196.925C429.615 231.966 408.682 262.851 379.714 284.809C350.746 306.766 315.354 318.575 279.005 318.412Z" fill="#B8B8B8"/>
<path opacity="0.2" d="M290.259 342.836C257.952 342.736 226.389 333.132 199.501 315.222C216.214 338.026 239.632 355.042 266.485 363.891C293.338 372.741 322.284 372.983 349.281 364.583C376.278 356.183 399.977 339.562 417.069 317.04C434.161 294.517 443.791 267.219 444.616 238.958C432.266 269.752 410.945 296.122 383.42 314.645C355.895 333.169 323.437 342.991 290.259 342.836Z" fill="#B8B8B8"/>
</svg>
