<svg width="1835" height="887" viewBox="0 0 1835 887" fill="none" xmlns="http://www.w3.org/2000/svg">
<circle cx="425.621" cy="788.529" r="1.5" transform="rotate(-175.169 425.621 788.529)" fill="#939298"/>
<circle cx="451.035" cy="772.035" r="0.957874" transform="rotate(-175.169 451.035 772.035)" fill="#939298"/>
<circle cx="1833.5" cy="583.5" r="1.5" fill="#939298"/>
<circle cx="1690.5" cy="876.5" r="1.5" fill="#939298"/>
<circle cx="1100.5" cy="698.5" r="1.5" fill="#939298"/>
<circle cx="1085.5" cy="725.5" r="0.5" fill="#939298"/>
<circle cx="672" cy="2" r="2" fill="#413F46"/>
<circle cx="2" cy="370" r="2" fill="#413F46"/>
<circle cx="690.5" cy="211.5" r="0.5" fill="#939298"/>
<circle cx="389" cy="232" r="1" fill="#939298"/>
<circle cx="60" cy="397" r="1" fill="#939298"/>
<circle cx="955.621" cy="881.529" r="1.5" transform="rotate(-175.169 955.621 881.529)" fill="#939298"/>
<circle cx="1004.96" cy="838.035" r="0.957874" transform="rotate(-175.169 1004.96 838.035)" fill="#282731"/>
<circle cx="653.621" cy="538.621" r="1.5" transform="rotate(-175.169 653.621 538.621)" fill="#282731"/>
<circle cx="696.035" cy="565.035" r="0.957874" transform="rotate(-175.169 696.035 565.035)" fill="#282731"/>
</svg>
